<svg width="717" height="1039" viewBox="0 0 717 1039" fill="none" xmlns="http://www.w3.org/2000/svg">
<path style="mix-blend-mode:screen" d="M268.434 0.482311C281.936 2.36461 291.317 14.5418 289.379 27.6926C287.442 40.8434 274.936 49.9623 261.434 48.102C247.932 46.2197 238.573 34.0427 240.488 20.8917C242.425 7.7409 254.932 -1.39999 268.434 0.482311Z" fill="url(#paint0_radial_329_14)" fill-opacity="0.7"/>
<g style="mix-blend-mode:screen">
<path d="M265.26 22.1515C266.477 22.3165 267.324 23.4235 267.131 24.5869C266.962 25.7725 265.825 26.5975 264.63 26.4107C263.413 26.2457 262.566 25.1387 262.759 23.9753C262.928 22.7897 264.065 21.9647 265.26 22.1515Z" fill="#F6E6FC"/>
</g>
<path style="mix-blend-mode:screen" d="M314.434 54.4823C327.936 56.3646 337.317 68.5418 335.379 81.6926C333.442 94.8434 320.936 103.962 307.434 102.102C293.932 100.22 284.573 88.0427 286.488 74.8917C288.425 61.7409 300.932 52.6 314.434 54.4823Z" fill="url(#paint1_radial_329_14)" fill-opacity="0.7"/>
<g style="mix-blend-mode:screen">
<path d="M311.26 76.1515C312.477 76.3165 313.324 77.4235 313.131 78.5869C312.962 79.7725 311.825 80.5975 310.63 80.4107C309.413 80.2457 308.566 79.1387 308.759 77.9753C308.928 76.7897 310.065 75.9647 311.26 76.1515Z" fill="#F6E6FC"/>
</g>
<path style="mix-blend-mode:screen" d="M373.434 102.482C386.936 104.365 396.317 116.542 394.379 129.693C392.442 142.843 379.936 151.962 366.434 150.102C352.932 148.22 343.573 136.043 345.488 122.892C347.425 109.741 359.932 100.6 373.434 102.482Z" fill="url(#paint2_radial_329_14)" fill-opacity="0.7"/>
<g style="mix-blend-mode:screen">
<path d="M370.26 124.151C371.477 124.317 372.324 125.424 372.131 126.587C371.962 127.772 370.825 128.597 369.63 128.411C368.413 128.246 367.566 127.139 367.759 125.975C367.928 124.79 369.065 123.965 370.26 124.151Z" fill="#F6E6FC"/>
</g>
<path style="mix-blend-mode:screen" d="M441.434 142.482C454.936 144.365 464.317 156.542 462.379 169.693C460.442 182.843 447.936 191.962 434.434 190.102C420.932 188.22 411.573 176.043 413.488 162.892C415.425 149.741 427.932 140.6 441.434 142.482Z" fill="url(#paint3_radial_329_14)" fill-opacity="0.7"/>
<g style="mix-blend-mode:screen">
<path d="M438.26 164.151C439.477 164.317 440.324 165.424 440.131 166.587C439.962 167.772 438.825 168.597 437.63 168.411C436.413 168.246 435.566 167.139 435.759 165.975C435.928 164.79 437.065 163.965 438.26 164.151Z" fill="#F6E6FC"/>
</g>
<path style="mix-blend-mode:screen" d="M505.434 173.482C518.936 175.365 528.317 187.542 526.379 200.693C524.442 213.843 511.936 222.962 498.434 221.102C484.932 219.22 475.573 207.043 477.488 193.892C479.425 180.741 491.932 171.6 505.434 173.482Z" fill="url(#paint4_radial_329_14)" fill-opacity="0.7"/>
<g style="mix-blend-mode:screen">
<path d="M502.26 195.151C503.477 195.317 504.324 196.424 504.131 197.587C503.962 198.772 502.825 199.597 501.63 199.411C500.413 199.246 499.566 198.139 499.759 196.975C499.928 195.79 501.065 194.965 502.26 195.151Z" fill="#F6E6FC"/>
</g>
<path style="mix-blend-mode:screen" d="M581.434 205.482C594.936 207.365 604.317 219.542 602.379 232.693C600.442 245.843 587.936 254.962 574.434 253.102C560.932 251.22 551.573 239.043 553.488 225.892C555.425 212.741 567.932 203.6 581.434 205.482Z" fill="url(#paint5_radial_329_14)" fill-opacity="0.7"/>
<g style="mix-blend-mode:screen">
<path d="M578.26 227.151C579.477 227.317 580.324 228.424 580.131 229.587C579.962 230.772 578.825 231.597 577.63 231.411C576.413 231.246 575.566 230.139 575.759 228.975C575.928 227.79 577.065 226.965 578.26 227.151Z" fill="#F6E6FC"/>
</g>
<path style="mix-blend-mode:screen" d="M653.434 253.482C666.936 255.365 676.317 267.542 674.379 280.693C672.442 293.843 659.936 302.962 646.434 301.102C632.932 299.22 623.573 287.043 625.488 273.892C627.425 260.741 639.932 251.6 653.434 253.482Z" fill="url(#paint6_radial_329_14)" fill-opacity="0.7"/>
<g style="mix-blend-mode:screen">
<path d="M650.26 275.151C651.477 275.317 652.324 276.424 652.131 277.587C651.962 278.772 650.825 279.597 649.63 279.411C648.413 279.246 647.566 278.139 647.759 276.975C647.928 275.79 649.065 274.965 650.26 275.151Z" fill="#F6E6FC"/>
</g>
<path style="mix-blend-mode:screen" d="M695.434 316.482C708.936 318.365 718.317 330.542 716.379 343.693C714.442 356.843 701.936 365.962 688.434 364.102C674.932 362.22 665.573 350.043 667.488 336.892C669.425 323.741 681.932 314.6 695.434 316.482Z" fill="url(#paint7_radial_329_14)" fill-opacity="0.7"/>
<g style="mix-blend-mode:screen">
<path d="M692.26 338.151C693.477 338.317 694.324 339.424 694.131 340.587C693.962 341.772 692.825 342.597 691.63 342.411C690.413 342.246 689.566 341.139 689.759 339.975C689.928 338.79 691.065 337.965 692.26 338.151Z" fill="#F6E6FC"/>
</g>
<path style="mix-blend-mode:screen" d="M695.434 402.482C708.936 404.365 718.317 416.542 716.379 429.693C714.442 442.843 701.936 451.962 688.434 450.102C674.932 448.22 665.573 436.043 667.488 422.892C669.425 409.741 681.932 400.6 695.434 402.482Z" fill="url(#paint8_radial_329_14)" fill-opacity="0.7"/>
<g style="mix-blend-mode:screen">
<path d="M692.26 424.151C693.477 424.317 694.324 425.424 694.131 426.587C693.962 427.772 692.825 428.597 691.63 428.411C690.413 428.246 689.566 427.139 689.759 425.975C689.928 424.79 691.065 423.965 692.26 424.151Z" fill="#F6E6FC"/>
</g>
<path style="mix-blend-mode:screen" d="M638.434 446.482C651.936 448.365 661.317 460.542 659.379 473.693C657.442 486.843 644.936 495.962 631.434 494.102C617.932 492.22 608.573 480.043 610.488 466.892C612.425 453.741 624.932 444.6 638.434 446.482Z" fill="url(#paint9_radial_329_14)" fill-opacity="0.7"/>
<g style="mix-blend-mode:screen">
<path d="M635.26 468.151C636.477 468.317 637.324 469.424 637.131 470.587C636.962 471.772 635.825 472.597 634.63 472.411C633.413 472.246 632.566 471.139 632.759 469.975C632.928 468.79 634.065 467.965 635.26 468.151Z" fill="#F6E6FC"/>
</g>
<path style="mix-blend-mode:screen" d="M563.434 488.482C576.936 490.365 586.317 502.542 584.379 515.693C582.442 528.843 569.936 537.962 556.434 536.102C542.932 534.22 533.573 522.043 535.488 508.892C537.425 495.741 549.932 486.6 563.434 488.482Z" fill="url(#paint10_radial_329_14)" fill-opacity="0.7"/>
<g style="mix-blend-mode:screen">
<path d="M560.26 510.151C561.477 510.317 562.324 511.424 562.131 512.587C561.962 513.772 560.825 514.597 559.63 514.411C558.413 514.246 557.566 513.139 557.759 511.975C557.928 510.79 559.065 509.965 560.26 510.151Z" fill="#F6E6FC"/>
</g>
<path style="mix-blend-mode:screen" d="M497.434 520.482C510.936 522.365 520.317 534.542 518.379 547.693C516.442 560.843 503.936 569.962 490.434 568.102C476.932 566.22 467.573 554.043 469.488 540.892C471.425 527.741 483.932 518.6 497.434 520.482Z" fill="url(#paint11_radial_329_14)" fill-opacity="0.7"/>
<g style="mix-blend-mode:screen">
<path d="M494.26 542.151C495.477 542.317 496.324 543.424 496.131 544.587C495.962 545.772 494.825 546.597 493.63 546.411C492.413 546.246 491.566 545.139 491.759 543.975C491.928 542.79 493.065 541.965 494.26 542.151Z" fill="#F6E6FC"/>
</g>
<path style="mix-blend-mode:screen" d="M419.434 553.482C432.936 555.365 442.317 567.542 440.379 580.693C438.442 593.843 425.936 602.962 412.434 601.102C398.932 599.22 389.573 587.043 391.488 573.892C393.425 560.741 405.932 551.6 419.434 553.482Z" fill="url(#paint12_radial_329_14)" fill-opacity="0.7"/>
<g style="mix-blend-mode:screen">
<path d="M416.26 575.151C417.477 575.317 418.324 576.424 418.131 577.587C417.962 578.772 416.825 579.597 415.63 579.411C414.413 579.246 413.566 578.139 413.759 576.975C413.928 575.79 415.065 574.965 416.26 575.151Z" fill="#F6E6FC"/>
</g>
<path style="mix-blend-mode:screen" d="M345.434 573.482C358.936 575.365 368.317 587.542 366.379 600.693C364.442 613.843 351.936 622.962 338.434 621.102C324.932 619.22 315.573 607.043 317.488 593.892C319.425 580.741 331.932 571.6 345.434 573.482Z" fill="url(#paint13_radial_329_14)" fill-opacity="0.7"/>
<g style="mix-blend-mode:screen">
<path d="M342.26 595.151C343.477 595.317 344.324 596.424 344.131 597.587C343.962 598.772 342.825 599.597 341.63 599.411C340.413 599.246 339.566 598.139 339.759 596.975C339.928 595.79 341.065 594.965 342.26 595.151Z" fill="#F6E6FC"/>
</g>
<path style="mix-blend-mode:screen" d="M308.434 650.482C321.936 652.365 331.317 664.542 329.379 677.693C327.442 690.843 314.936 699.962 301.434 698.102C287.932 696.22 278.573 684.043 280.488 670.892C282.425 657.741 294.932 648.6 308.434 650.482Z" fill="url(#paint14_radial_329_14)" fill-opacity="0.7"/>
<g style="mix-blend-mode:screen">
<path d="M305.26 672.151C306.477 672.317 307.324 673.424 307.131 674.587C306.962 675.772 305.825 676.597 304.63 676.411C303.413 676.246 302.566 675.139 302.759 673.975C302.928 672.79 304.065 671.965 305.26 672.151Z" fill="#F6E6FC"/>
</g>
<path style="mix-blend-mode:screen" d="M366.434 708.482C379.936 710.365 389.317 722.542 387.379 735.693C385.442 748.843 372.936 757.962 359.434 756.102C345.932 754.22 336.573 742.043 338.488 728.892C340.425 715.741 352.932 706.6 366.434 708.482Z" fill="url(#paint15_radial_329_14)" fill-opacity="0.7"/>
<g style="mix-blend-mode:screen">
<path d="M363.26 730.151C364.477 730.317 365.324 731.424 365.131 732.587C364.962 733.772 363.825 734.597 362.63 734.411C361.413 734.246 360.566 733.139 360.759 731.975C360.928 730.79 362.065 729.965 363.26 730.151Z" fill="#F6E6FC"/>
</g>
<path style="mix-blend-mode:screen" d="M444.434 785.482C457.936 787.365 467.317 799.542 465.379 812.693C463.442 825.843 450.936 834.962 437.434 833.102C423.932 831.22 414.573 819.043 416.488 805.892C418.425 792.741 430.932 783.6 444.434 785.482Z" fill="url(#paint16_radial_329_14)" fill-opacity="0.7"/>
<g style="mix-blend-mode:screen">
<path d="M441.26 807.151C442.477 807.317 443.324 808.424 443.131 809.587C442.962 810.772 441.825 811.597 440.63 811.411C439.413 811.246 438.566 810.139 438.759 808.975C438.928 807.79 440.065 806.965 441.26 807.151Z" fill="#F6E6FC"/>
</g>
<path style="mix-blend-mode:screen" d="M495.434 866.482C508.936 868.365 518.317 880.542 516.379 893.693C514.442 906.843 501.936 915.962 488.434 914.102C474.932 912.22 465.573 900.043 467.488 886.892C469.425 873.741 481.932 864.6 495.434 866.482Z" fill="url(#paint17_radial_329_14)" fill-opacity="0.7"/>
<g style="mix-blend-mode:screen">
<path d="M492.26 888.151C493.477 888.317 494.324 889.424 494.131 890.587C493.962 891.772 492.825 892.597 491.63 892.411C490.413 892.246 489.566 891.139 489.759 889.975C489.928 888.79 491.065 887.965 492.26 888.151Z" fill="#F6E6FC"/>
</g>
<path style="mix-blend-mode:screen" d="M446.434 959.482C459.936 961.365 469.317 973.542 467.379 986.693C465.442 999.843 452.936 1008.96 439.434 1007.1C425.932 1005.22 416.573 993.043 418.488 979.892C420.425 966.741 432.932 957.6 446.434 959.482Z" fill="url(#paint18_radial_329_14)" fill-opacity="0.7"/>
<g style="mix-blend-mode:screen">
<path d="M443.26 981.151C444.477 981.317 445.324 982.424 445.131 983.587C444.962 984.772 443.825 985.597 442.63 985.411C441.413 985.246 440.566 984.139 440.759 982.975C440.928 981.79 442.065 980.965 443.26 981.151Z" fill="#F6E6FC"/>
</g>
<path style="mix-blend-mode:screen" d="M357.434 990.482C370.936 992.365 380.317 1004.54 378.379 1017.69C376.442 1030.84 363.936 1039.96 350.434 1038.1C336.932 1036.22 327.573 1024.04 329.488 1010.89C331.425 997.741 343.932 988.6 357.434 990.482Z" fill="url(#paint19_radial_329_14)" fill-opacity="0.7"/>
<g style="mix-blend-mode:screen">
<path d="M354.26 1012.15C355.477 1012.32 356.324 1013.42 356.131 1014.59C355.962 1015.77 354.825 1016.6 353.63 1016.41C352.413 1016.25 351.566 1015.14 351.759 1013.98C351.928 1012.79 353.065 1011.96 354.26 1012.15Z" fill="#F6E6FC"/>
</g>
<path style="mix-blend-mode:screen" d="M245.434 989.482C258.936 991.365 268.317 1003.54 266.379 1016.69C264.442 1029.84 251.936 1038.96 238.434 1037.1C224.932 1035.22 215.573 1023.04 217.488 1009.89C219.425 996.741 231.932 987.6 245.434 989.482Z" fill="url(#paint20_radial_329_14)" fill-opacity="0.7"/>
<g style="mix-blend-mode:screen">
<path d="M242.26 1011.15C243.477 1011.32 244.324 1012.42 244.131 1013.59C243.962 1014.77 242.825 1015.6 241.63 1015.41C240.413 1015.25 239.566 1014.14 239.759 1012.98C239.928 1011.79 241.065 1010.96 242.26 1011.15Z" fill="#F6E6FC"/>
</g>
<path style="mix-blend-mode:screen" d="M136.434 981.482C149.936 983.365 159.317 995.542 157.379 1008.69C155.442 1021.84 142.936 1030.96 129.434 1029.1C115.932 1027.22 106.573 1015.04 108.488 1001.89C110.425 988.741 122.932 979.6 136.434 981.482Z" fill="url(#paint21_radial_329_14)" fill-opacity="0.7"/>
<g style="mix-blend-mode:screen">
<path d="M133.26 1003.15C134.477 1003.32 135.324 1004.42 135.131 1005.59C134.962 1006.77 133.825 1007.6 132.63 1007.41C131.413 1007.25 130.566 1006.14 130.759 1004.98C130.928 1003.79 132.065 1002.96 133.26 1003.15Z" fill="#F6E6FC"/>
</g>
<path style="mix-blend-mode:screen" d="M28.4338 936.482C41.9358 938.365 51.3169 950.542 49.3794 963.693C47.442 976.843 34.9359 985.962 21.4336 984.102C7.93163 982.22 -1.42686 970.043 0.48802 956.892C2.42547 943.741 14.9318 934.6 28.4338 936.482Z" fill="url(#paint22_radial_329_14)" fill-opacity="0.7"/>
<g style="mix-blend-mode:screen">
<path d="M25.2597 958.151C26.477 958.317 27.3237 959.424 27.1314 960.587C26.9616 961.772 25.8247 962.597 24.6302 962.411C23.413 962.246 22.5663 961.139 22.7585 959.975C22.9284 958.79 24.0653 957.965 25.2597 958.151Z" fill="#F6E6FC"/>
</g>
<defs>
<radialGradient id="paint0_radial_329_14" cx="0" cy="0" r="1" gradientUnits="userSpaceOnUse" gradientTransform="translate(264.93 24.269) rotate(-81.6368) scale(24.0639 24.6784)">
<stop stop-color="#877DFF"/>
<stop offset="1" stop-color="#514B99" stop-opacity="0"/>
</radialGradient>
<radialGradient id="paint1_radial_329_14" cx="0" cy="0" r="1" gradientUnits="userSpaceOnUse" gradientTransform="translate(310.93 78.269) rotate(-81.6368) scale(24.0639 24.6784)">
<stop stop-color="#877DFF"/>
<stop offset="1" stop-color="#514B99" stop-opacity="0"/>
</radialGradient>
<radialGradient id="paint2_radial_329_14" cx="0" cy="0" r="1" gradientUnits="userSpaceOnUse" gradientTransform="translate(369.93 126.269) rotate(-81.6368) scale(24.0639 24.6784)">
<stop stop-color="#877DFF"/>
<stop offset="1" stop-color="#514B99" stop-opacity="0"/>
</radialGradient>
<radialGradient id="paint3_radial_329_14" cx="0" cy="0" r="1" gradientUnits="userSpaceOnUse" gradientTransform="translate(437.93 166.269) rotate(-81.6368) scale(24.0639 24.6784)">
<stop stop-color="#877DFF"/>
<stop offset="1" stop-color="#514B99" stop-opacity="0"/>
</radialGradient>
<radialGradient id="paint4_radial_329_14" cx="0" cy="0" r="1" gradientUnits="userSpaceOnUse" gradientTransform="translate(501.93 197.269) rotate(-81.6368) scale(24.0639 24.6784)">
<stop stop-color="#877DFF"/>
<stop offset="1" stop-color="#514B99" stop-opacity="0"/>
</radialGradient>
<radialGradient id="paint5_radial_329_14" cx="0" cy="0" r="1" gradientUnits="userSpaceOnUse" gradientTransform="translate(577.93 229.269) rotate(-81.6368) scale(24.0639 24.6784)">
<stop stop-color="#877DFF"/>
<stop offset="1" stop-color="#514B99" stop-opacity="0"/>
</radialGradient>
<radialGradient id="paint6_radial_329_14" cx="0" cy="0" r="1" gradientUnits="userSpaceOnUse" gradientTransform="translate(649.93 277.269) rotate(-81.6368) scale(24.0639 24.6784)">
<stop stop-color="#877DFF"/>
<stop offset="1" stop-color="#514B99" stop-opacity="0"/>
</radialGradient>
<radialGradient id="paint7_radial_329_14" cx="0" cy="0" r="1" gradientUnits="userSpaceOnUse" gradientTransform="translate(691.93 340.269) rotate(-81.6368) scale(24.0639 24.6784)">
<stop stop-color="#877DFF"/>
<stop offset="1" stop-color="#514B99" stop-opacity="0"/>
</radialGradient>
<radialGradient id="paint8_radial_329_14" cx="0" cy="0" r="1" gradientUnits="userSpaceOnUse" gradientTransform="translate(691.93 426.269) rotate(-81.6368) scale(24.0639 24.6784)">
<stop stop-color="#877DFF"/>
<stop offset="1" stop-color="#514B99" stop-opacity="0"/>
</radialGradient>
<radialGradient id="paint9_radial_329_14" cx="0" cy="0" r="1" gradientUnits="userSpaceOnUse" gradientTransform="translate(634.93 470.269) rotate(-81.6368) scale(24.0639 24.6784)">
<stop stop-color="#877DFF"/>
<stop offset="1" stop-color="#514B99" stop-opacity="0"/>
</radialGradient>
<radialGradient id="paint10_radial_329_14" cx="0" cy="0" r="1" gradientUnits="userSpaceOnUse" gradientTransform="translate(559.93 512.269) rotate(-81.6368) scale(24.0639 24.6784)">
<stop stop-color="#877DFF"/>
<stop offset="1" stop-color="#514B99" stop-opacity="0"/>
</radialGradient>
<radialGradient id="paint11_radial_329_14" cx="0" cy="0" r="1" gradientUnits="userSpaceOnUse" gradientTransform="translate(493.93 544.269) rotate(-81.6368) scale(24.0639 24.6784)">
<stop stop-color="#877DFF"/>
<stop offset="1" stop-color="#514B99" stop-opacity="0"/>
</radialGradient>
<radialGradient id="paint12_radial_329_14" cx="0" cy="0" r="1" gradientUnits="userSpaceOnUse" gradientTransform="translate(415.93 577.269) rotate(-81.6368) scale(24.0639 24.6784)">
<stop stop-color="#877DFF"/>
<stop offset="1" stop-color="#514B99" stop-opacity="0"/>
</radialGradient>
<radialGradient id="paint13_radial_329_14" cx="0" cy="0" r="1" gradientUnits="userSpaceOnUse" gradientTransform="translate(341.93 597.269) rotate(-81.6368) scale(24.0639 24.6784)">
<stop stop-color="#877DFF"/>
<stop offset="1" stop-color="#514B99" stop-opacity="0"/>
</radialGradient>
<radialGradient id="paint14_radial_329_14" cx="0" cy="0" r="1" gradientUnits="userSpaceOnUse" gradientTransform="translate(304.93 674.269) rotate(-81.6368) scale(24.0639 24.6784)">
<stop stop-color="#877DFF"/>
<stop offset="1" stop-color="#514B99" stop-opacity="0"/>
</radialGradient>
<radialGradient id="paint15_radial_329_14" cx="0" cy="0" r="1" gradientUnits="userSpaceOnUse" gradientTransform="translate(362.93 732.269) rotate(-81.6368) scale(24.0639 24.6784)">
<stop stop-color="#877DFF"/>
<stop offset="1" stop-color="#514B99" stop-opacity="0"/>
</radialGradient>
<radialGradient id="paint16_radial_329_14" cx="0" cy="0" r="1" gradientUnits="userSpaceOnUse" gradientTransform="translate(440.93 809.269) rotate(-81.6368) scale(24.0639 24.6784)">
<stop stop-color="#877DFF"/>
<stop offset="1" stop-color="#514B99" stop-opacity="0"/>
</radialGradient>
<radialGradient id="paint17_radial_329_14" cx="0" cy="0" r="1" gradientUnits="userSpaceOnUse" gradientTransform="translate(491.93 890.269) rotate(-81.6368) scale(24.0639 24.6784)">
<stop stop-color="#877DFF"/>
<stop offset="1" stop-color="#514B99" stop-opacity="0"/>
</radialGradient>
<radialGradient id="paint18_radial_329_14" cx="0" cy="0" r="1" gradientUnits="userSpaceOnUse" gradientTransform="translate(442.93 983.269) rotate(-81.6368) scale(24.0639 24.6784)">
<stop stop-color="#877DFF"/>
<stop offset="1" stop-color="#514B99" stop-opacity="0"/>
</radialGradient>
<radialGradient id="paint19_radial_329_14" cx="0" cy="0" r="1" gradientUnits="userSpaceOnUse" gradientTransform="translate(353.93 1014.27) rotate(-81.6368) scale(24.0639 24.6784)">
<stop stop-color="#877DFF"/>
<stop offset="1" stop-color="#514B99" stop-opacity="0"/>
</radialGradient>
<radialGradient id="paint20_radial_329_14" cx="0" cy="0" r="1" gradientUnits="userSpaceOnUse" gradientTransform="translate(241.93 1013.27) rotate(-81.6368) scale(24.0639 24.6784)">
<stop stop-color="#877DFF"/>
<stop offset="1" stop-color="#514B99" stop-opacity="0"/>
</radialGradient>
<radialGradient id="paint21_radial_329_14" cx="0" cy="0" r="1" gradientUnits="userSpaceOnUse" gradientTransform="translate(132.93 1005.27) rotate(-81.6368) scale(24.0639 24.6784)">
<stop stop-color="#877DFF"/>
<stop offset="1" stop-color="#514B99" stop-opacity="0"/>
</radialGradient>
<radialGradient id="paint22_radial_329_14" cx="0" cy="0" r="1" gradientUnits="userSpaceOnUse" gradientTransform="translate(24.9305 960.269) rotate(-81.6368) scale(24.0639 24.6784)">
<stop stop-color="#877DFF"/>
<stop offset="1" stop-color="#514B99" stop-opacity="0"/>
</radialGradient>
</defs>
</svg>
