<svg width="583" height="498" viewBox="0 0 583 498" fill="none" xmlns="http://www.w3.org/2000/svg">
<path style="mix-blend-mode:screen" d="M493.548 338.726C502.366 339.952 508.484 347.907 507.222 356.479C505.959 365.068 497.789 371.029 488.988 369.803C480.17 368.577 474.052 360.621 475.314 352.05C476.576 343.461 484.747 337.5 493.548 338.726Z" fill="url(#paint0_radial_289_9818)" fill-opacity="0.7"/>
<g style="mix-blend-mode:screen">
<path d="M491.457 352.864C492.246 352.974 492.801 353.697 492.688 354.465C492.575 355.234 491.832 355.774 491.043 355.664C490.254 355.555 489.699 354.831 489.813 354.063C489.926 353.295 490.668 352.754 491.457 352.864Z" fill="#F6E6FC"/>
</g>
<path style="mix-blend-mode:screen" d="M460.108 140.858C472.082 142.524 480.4 153.338 478.686 165C476.972 176.663 465.865 184.769 453.891 183.103C441.917 181.437 433.599 170.623 435.313 158.961C437.027 147.298 448.134 139.193 460.108 140.858Z" fill="url(#paint1_radial_289_9818)" fill-opacity="0.7"/>
<g style="mix-blend-mode:screen">
<path d="M457.282 160.085C458.351 160.232 459.114 161.213 458.946 162.255C458.795 163.297 457.787 164.04 456.717 163.876C455.648 163.729 454.885 162.748 455.054 161.706C455.204 160.665 456.213 159.922 457.282 160.085Z" fill="#F6E6FC"/>
</g>
<path d="M567.759 268.204C575.403 269.266 580.706 276.171 579.613 283.616C578.52 291.061 571.428 296.228 563.785 295.166C556.141 294.105 550.838 287.2 551.931 279.755C553.023 272.31 560.115 267.142 567.759 268.204Z" fill="url(#paint2_radial_289_9818)" fill-opacity="0.7" style="mix-blend-mode:screen"/>
<g style="mix-blend-mode:screen">
<path d="M565.951 280.481C566.634 280.573 567.12 281.193 567.025 281.859C566.931 282.525 566.294 282.998 565.61 282.906C564.927 282.815 564.441 282.195 564.553 281.529C564.648 280.863 565.284 280.39 565.968 280.482L565.951 280.481Z" fill="#F6E6FC"/>
</g>
<path style="mix-blend-mode:screen" d="M394.999 322.793C406.973 324.459 415.292 335.273 413.578 346.935C411.863 358.598 400.757 366.703 388.783 365.038C376.809 363.372 368.49 352.558 370.205 340.896C371.919 329.233 383.025 321.128 394.999 322.793Z" fill="url(#paint3_radial_289_9818)" fill-opacity="0.7"/>
<g style="mix-blend-mode:screen">
<path d="M392.173 342.02C393.243 342.167 394.006 343.148 393.837 344.19C393.686 345.231 392.678 345.974 391.609 345.811C390.539 345.664 389.777 344.683 389.945 343.641C390.096 342.6 391.104 341.856 392.173 342.02Z" fill="#F6E6FC"/>
</g>
<path style="mix-blend-mode:screen" d="M562.154 185.423C574.128 187.088 582.446 197.902 580.732 209.565C579.018 221.228 567.911 229.333 555.937 227.668C543.963 226.002 535.645 215.188 537.359 203.526C539.073 191.863 550.18 183.757 562.154 185.423Z" fill="url(#paint4_radial_289_9818)" fill-opacity="0.7"/>
<g style="mix-blend-mode:screen">
<path d="M559.328 204.633C560.398 204.779 561.16 205.761 560.992 206.802C560.841 207.844 559.833 208.587 558.763 208.423C557.694 208.277 556.931 207.295 557.1 206.254C557.251 205.212 558.259 204.469 559.328 204.633Z" fill="#F6E6FC"/>
</g>
<path style="mix-blend-mode:screen" d="M315.446 27.5006C327.42 29.1661 335.738 39.9802 334.024 51.6428C332.31 63.3054 321.203 71.411 309.229 69.7455C297.255 68.0799 288.937 57.2659 290.651 45.6033C292.365 33.9407 303.472 25.8351 315.446 27.5006Z" fill="url(#paint5_radial_289_9818)" fill-opacity="0.7"/>
<g style="mix-blend-mode:screen">
<path d="M312.62 46.7276C313.689 46.8742 314.452 47.8558 314.284 48.8973C314.133 49.9389 313.125 50.682 312.055 50.5183C310.986 50.3717 310.223 49.3901 310.392 48.3487C310.543 47.307 311.551 46.5639 312.62 46.7276Z" fill="#F6E6FC"/>
</g>
<path style="mix-blend-mode:screen" d="M211.747 2.09567C223.721 3.76121 232.039 14.5752 230.325 26.2378C228.61 37.9004 217.504 46.0061 205.53 44.3405C193.556 42.675 185.237 31.861 186.952 20.1984C188.666 8.53578 199.772 0.430126 211.747 2.09567Z" fill="url(#paint6_radial_289_9818)" fill-opacity="0.7"/>
<g style="mix-blend-mode:screen">
<path d="M208.921 21.3227C209.99 21.4693 210.753 22.4509 210.584 23.4924C210.433 24.534 209.425 25.2771 208.356 25.1134C207.286 24.9668 206.524 23.9852 206.692 22.9438C206.843 21.9021 207.851 21.159 208.921 21.3227Z" fill="#F6E6FC"/>
</g>
<path style="mix-blend-mode:screen" d="M54.8022 169.489C66.7762 171.154 75.0948 181.968 73.3805 193.631C71.6661 205.293 60.5598 213.399 48.5857 211.733C36.6117 210.068 28.2931 199.254 30.0074 187.591C31.7218 175.929 42.8281 167.823 54.8022 169.489Z" fill="url(#paint7_radial_289_9818)" fill-opacity="0.7"/>
<g style="mix-blend-mode:screen">
<path d="M51.9761 188.716C53.0456 188.862 53.8082 189.844 53.6398 190.885C53.4889 191.927 52.4808 192.67 51.4115 192.506C50.3421 192.36 49.5794 191.378 49.7479 190.337C49.8987 189.295 50.9069 188.552 51.9761 188.716Z" fill="#F6E6FC"/>
</g>
<path style="mix-blend-mode:screen" d="M67.3859 256.166C79.36 257.831 87.6786 268.645 85.9642 280.308C84.2498 291.971 73.1435 300.076 61.1695 298.411C49.1954 296.745 40.8768 285.931 42.5912 274.269C44.3055 262.606 55.4118 254.5 67.3859 256.166Z" fill="url(#paint8_radial_289_9818)" fill-opacity="0.7"/>
<g style="mix-blend-mode:screen">
<path d="M64.5599 275.393C65.6294 275.54 66.392 276.521 66.2236 277.563C66.0727 278.604 65.0646 279.347 63.9953 279.184C62.9259 279.037 62.1632 278.056 62.3317 277.014C62.4825 275.972 63.4907 275.229 64.5599 275.393Z" fill="#F6E6FC"/>
</g>
<path style="mix-blend-mode:screen" d="M263.738 452.525C275.712 454.19 284.03 465.004 282.316 476.667C280.602 488.33 269.495 496.435 257.521 494.77C245.547 493.104 237.229 482.29 238.943 470.627C240.657 458.965 251.764 450.859 263.738 452.525Z" fill="url(#paint9_radial_289_9818)" fill-opacity="0.7"/>
<g style="mix-blend-mode:screen">
<path d="M260.912 471.752C261.981 471.898 262.744 472.88 262.575 473.921C262.425 474.963 261.416 475.706 260.347 475.542C259.278 475.396 258.515 474.414 258.684 473.373C258.834 472.331 259.843 471.588 260.912 471.752Z" fill="#F6E6FC"/>
</g>
<path style="mix-blend-mode:screen" d="M511.311 229.004C523.285 230.669 531.603 241.483 529.889 253.146C528.175 264.808 517.068 272.914 505.094 271.249C493.12 269.583 484.802 258.769 486.516 247.106C488.23 235.444 499.337 227.338 511.311 229.004Z" fill="url(#paint10_radial_289_9818)" fill-opacity="0.7"/>
<g style="mix-blend-mode:screen">
<path d="M508.485 248.231C509.555 248.377 510.317 249.359 510.149 250.4C509.998 251.442 508.99 252.185 507.92 252.021C506.851 251.875 506.088 250.893 506.257 249.852C506.408 248.81 507.416 248.067 508.485 248.231Z" fill="#F6E6FC"/>
</g>
<path style="mix-blend-mode:screen" d="M304.661 394.934C316.635 396.599 324.954 407.413 323.24 419.076C321.525 430.738 310.419 438.844 298.445 437.179C286.471 435.513 278.152 424.699 279.867 413.036C281.581 401.374 292.687 393.268 304.661 394.934Z" fill="url(#paint11_radial_289_9818)" fill-opacity="0.7"/>
<g style="mix-blend-mode:screen">
<path d="M301.835 414.161C302.905 414.307 303.667 415.289 303.499 416.33C303.348 417.372 302.34 418.115 301.271 417.951C300.201 417.805 299.439 416.823 299.607 415.782C299.758 414.74 300.766 413.997 301.835 414.161Z" fill="#F6E6FC"/>
</g>
<path style="mix-blend-mode:screen" d="M117.838 389.307C129.812 390.973 138.131 401.787 136.416 413.449C134.702 425.112 123.596 433.218 111.622 431.552C99.6477 429.887 91.3291 419.073 93.0435 407.41C94.7578 395.747 105.864 387.642 117.838 389.307Z" fill="url(#paint12_radial_289_9818)" fill-opacity="0.7"/>
<g style="mix-blend-mode:screen">
<path d="M115.013 408.517C116.082 408.664 116.845 409.645 116.676 410.687C116.525 411.728 115.517 412.472 114.448 412.308C113.378 412.161 112.616 411.18 112.784 410.138C112.935 409.097 113.943 408.353 115.013 408.517Z" fill="#F6E6FC"/>
</g>
<path style="mix-blend-mode:screen" d="M458.792 244.739C469.293 246.203 476.572 255.674 475.082 265.902C473.576 276.131 463.849 283.223 453.347 281.776C442.846 280.312 435.567 270.841 437.057 260.613C438.563 250.385 448.29 243.275 458.792 244.739Z" fill="url(#paint13_radial_289_9818)" fill-opacity="0.7"/>
<g style="mix-blend-mode:screen">
<path d="M456.306 261.593C457.252 261.721 457.911 262.582 457.761 263.487C457.629 264.409 456.745 265.051 455.816 264.905C454.869 264.777 454.211 263.916 454.36 263.011C454.492 262.089 455.377 261.447 456.306 261.593Z" fill="#F6E6FC"/>
</g>
<path style="mix-blend-mode:screen" d="M23.4765 311.574C33.9779 313.038 41.2566 322.509 39.7672 332.738C38.2779 342.966 28.5334 350.075 18.032 348.611C7.53066 347.147 0.251968 337.677 1.74129 327.448C3.24817 317.22 12.975 310.128 23.4765 311.574Z" fill="url(#paint14_radial_289_9818)" fill-opacity="0.7"/>
<g style="mix-blend-mode:screen">
<path d="M21.0079 328.411C21.9546 328.539 22.6131 329.4 22.4636 330.305C22.3315 331.227 21.4473 331.869 20.5183 331.724C19.5715 331.595 18.913 330.734 19.0625 329.829C19.1947 328.907 20.0789 328.266 21.0079 328.411Z" fill="#F6E6FC"/>
</g>
<path style="mix-blend-mode:screen" d="M179.348 47.6333C189.85 49.0973 197.128 58.5681 195.639 68.7965C194.132 79.0247 184.405 86.117 173.904 84.6702C163.402 83.2062 156.106 73.7352 157.613 63.507C159.12 53.2788 168.847 46.1693 179.348 47.6333Z" fill="url(#paint15_radial_289_9818)" fill-opacity="0.7"/>
<g style="mix-blend-mode:screen">
<path d="M176.88 64.4699C177.827 64.5983 178.485 65.4592 178.336 66.3641C178.204 67.2862 177.319 67.9278 176.39 67.7996C175.443 67.6713 174.785 66.8103 174.934 65.9055C175.067 64.9834 175.951 64.3417 176.88 64.487L176.88 64.4699Z" fill="#F6E6FC"/>
</g>
<path style="mix-blend-mode:screen" d="M388.353 433.127C398.854 434.591 406.151 444.062 404.644 454.29C403.137 464.519 393.41 471.628 382.909 470.164C372.407 468.7 365.128 459.229 366.618 449.001C368.125 438.773 377.851 431.68 388.353 433.127Z" fill="url(#paint16_radial_289_9818)" fill-opacity="0.7"/>
<g style="mix-blend-mode:screen">
<path d="M385.884 449.964C386.831 450.092 387.49 450.953 387.34 451.858C387.208 452.78 386.324 453.422 385.395 453.276C384.448 453.148 383.79 452.287 383.939 451.382C384.071 450.46 384.955 449.818 385.884 449.964Z" fill="#F6E6FC"/>
</g>
<path style="mix-blend-mode:screen" d="M201.463 402.51C211.964 403.974 219.243 413.445 217.754 423.673C216.247 433.901 206.52 441.011 196.018 439.547C185.517 438.083 178.238 428.612 179.728 418.384C181.235 408.155 190.962 401.046 201.463 402.51Z" fill="url(#paint17_radial_289_9818)" fill-opacity="0.7"/>
<g style="mix-blend-mode:screen">
<path d="M198.977 419.363C199.923 419.492 200.582 420.353 200.432 421.258C200.3 422.18 199.416 422.821 198.487 422.676C197.54 422.548 196.882 421.687 197.031 420.782C197.163 419.86 198.048 419.218 198.977 419.363Z" fill="#F6E6FC"/>
</g>
<path style="mix-blend-mode:screen" d="M149.474 114.78C159.976 116.244 167.272 125.715 165.765 135.944C164.258 146.172 154.531 153.264 144.03 151.817C133.528 150.353 126.25 140.883 127.739 130.654C129.246 120.426 138.973 113.316 149.474 114.78Z" fill="url(#paint18_radial_289_9818)" fill-opacity="0.7"/>
<g style="mix-blend-mode:screen">
<path d="M147.006 131.634C147.953 131.762 148.611 132.623 148.462 133.528C148.329 134.45 147.445 135.092 146.516 134.947C145.569 134.818 144.911 133.957 145.06 133.053C145.193 132.13 146.077 131.489 147.006 131.634Z" fill="#F6E6FC"/>
</g>
<path style="mix-blend-mode:screen" d="M372.706 47.6386C383.208 49.1026 390.486 58.5734 388.997 68.8018C387.49 79.03 377.763 86.1224 367.262 84.6755C356.76 83.2115 349.482 73.7407 350.971 63.5123C352.46 53.2839 362.205 46.1747 372.706 47.6386Z" fill="url(#paint19_radial_289_9818)" fill-opacity="0.7"/>
<g style="mix-blend-mode:screen">
<path d="M370.238 64.4923C371.184 64.6206 371.843 65.4816 371.693 66.3865C371.561 67.3086 370.677 67.9502 369.73 67.8218C368.784 67.6935 368.125 66.8326 368.275 65.9277C368.407 65.0056 369.291 64.3639 370.22 64.5092L370.238 64.4923Z" fill="#F6E6FC"/>
</g>
<g opacity="0.65">
<g style="mix-blend-mode:screen">
<path d="M476.64 319.5C477.236 319.574 477.635 320.107 477.559 320.688C477.483 321.268 476.935 321.656 476.338 321.583C475.742 321.509 475.343 320.975 475.419 320.395C475.496 319.814 476.044 319.426 476.64 319.5Z" fill="#F6E6FC"/>
</g>
<path style="mix-blend-mode:color-dodge" opacity="0.5" d="M477.563 313.215C481.718 313.801 484.595 317.537 484.01 321.584C483.408 325.631 479.57 328.434 475.415 327.866C471.26 327.298 468.383 323.544 468.968 319.497C469.57 315.451 473.408 312.647 477.563 313.215Z" fill="url(#paint20_radial_289_9818)" fill-opacity="0.7"/>
</g>
<g opacity="0.65">
<g style="mix-blend-mode:screen">
<path d="M115.294 236.053C116.381 236.2 117.126 237.181 116.975 238.24C116.824 239.299 115.816 240.025 114.729 239.878C113.642 239.731 112.897 238.75 113.048 237.691C113.199 236.633 114.207 235.907 115.294 236.053Z" fill="#F6E6FC"/>
</g>
<g opacity="0.5">
<path d="M116.989 224.476C124.633 225.538 129.936 232.443 128.843 239.888C127.751 247.333 120.659 252.5 113.015 251.438C105.371 250.376 100.068 243.471 101.161 236.027C102.254 228.582 109.346 223.414 116.989 224.476Z" fill="url(#paint21_radial_289_9818)" fill-opacity="0.7" style="mix-blend-mode:color-dodge"/>
</g>
</g>
<g opacity="0.65">
<g style="mix-blend-mode:screen">
<path d="M274.476 96.3553C275.563 96.502 276.308 97.4834 276.157 98.5422C276.006 99.6009 274.998 100.327 273.911 100.18C272.824 100.033 272.079 99.052 272.23 97.9933C272.381 96.9345 273.389 96.2085 274.476 96.3553Z" fill="#F6E6FC"/>
</g>
<path style="mix-blend-mode:color-dodge" opacity="0.5" d="M276.189 84.7952C283.833 85.8569 289.136 92.7619 288.043 100.207C286.95 107.652 279.859 112.819 272.215 111.757C264.571 110.696 259.268 103.791 260.361 96.3457C261.454 88.9008 268.545 83.7335 276.189 84.7952Z" fill="url(#paint22_radial_289_9818)" fill-opacity="0.7"/>
</g>
<g opacity="0.65">
<g style="mix-blend-mode:screen">
<path d="M478.832 213.778C479.919 213.925 480.665 214.906 480.513 215.965C480.362 217.024 479.355 217.75 478.268 217.603C477.181 217.456 476.435 216.475 476.586 215.416C476.738 214.357 477.745 213.631 478.832 213.778Z" fill="#F6E6FC"/>
</g>
<path style="mix-blend-mode:color-dodge" opacity="0.5" d="M480.529 202.201C488.172 203.262 493.475 210.167 492.382 217.612C491.29 225.057 484.198 230.225 476.554 229.163C468.911 228.101 463.608 221.196 464.7 213.751C465.793 206.306 472.885 201.139 480.529 202.201Z" fill="url(#paint23_radial_289_9818)" fill-opacity="0.7"/>
</g>
<g opacity="0.65">
<g style="mix-blend-mode:screen">
<path d="M522.297 299.016C523.384 299.163 524.129 300.144 523.978 301.203C523.827 302.262 522.819 302.988 521.732 302.841C520.645 302.694 519.9 301.713 520.051 300.654C520.202 299.595 521.21 298.869 522.297 299.016Z" fill="#F6E6FC"/>
</g>
<g opacity="0.5">
<path d="M523.993 287.439C531.637 288.5 536.94 295.405 535.847 302.85C534.754 310.295 527.663 315.463 520.019 314.401C512.375 313.339 507.072 306.434 508.165 298.989C509.258 291.544 516.349 286.377 523.993 287.439Z" fill="url(#paint24_radial_289_9818)" fill-opacity="0.7" style="mix-blend-mode:color-dodge"/>
</g>
</g>
<g opacity="0.65">
<g style="mix-blend-mode:screen">
<path d="M113.81 325.942C114.897 326.089 115.642 327.07 115.491 328.129C115.34 329.188 114.332 329.914 113.245 329.767C112.158 329.62 111.413 328.639 111.564 327.58C111.715 326.522 112.723 325.796 113.81 325.942Z" fill="#F6E6FC"/>
</g>
<path style="mix-blend-mode:color-dodge" opacity="0.5" d="M115.506 314.365C123.15 315.427 128.453 322.332 127.36 329.777C126.267 337.222 119.176 342.389 111.532 341.327C103.888 340.266 98.585 333.361 99.6778 325.916C100.771 318.471 107.862 313.303 115.506 314.365Z" fill="url(#paint25_radial_289_9818)" fill-opacity="0.7"/>
</g>
<g opacity="0.65">
<g style="mix-blend-mode:screen">
<path d="M417.3 229.778C418.387 229.924 419.132 230.906 418.981 231.965C418.83 233.023 417.822 233.749 416.735 233.603C415.648 233.456 414.903 232.474 415.054 231.416C415.205 230.357 416.213 229.631 417.3 229.778Z" fill="#F6E6FC"/>
</g>
<path style="mix-blend-mode:color-dodge" opacity="0.5" d="M418.996 218.2C426.64 219.262 431.943 226.167 430.85 233.612C429.757 241.057 422.666 246.224 415.022 245.163C407.378 244.101 402.075 237.196 403.168 229.751C404.261 222.306 411.352 217.139 418.996 218.2Z" fill="url(#paint26_radial_289_9818)" fill-opacity="0.7"/>
</g>
<g opacity="0.65">
<g style="mix-blend-mode:screen">
<path d="M433.248 120.277C434.335 120.424 435.08 121.405 434.929 122.464C434.778 123.523 433.77 124.249 432.683 124.102C431.596 123.955 430.851 122.974 431.002 121.915C431.153 120.856 432.161 120.13 433.248 120.277Z" fill="#F6E6FC"/>
</g>
<g opacity="0.5">
<path d="M434.944 108.7C442.588 109.761 447.891 116.666 446.798 124.111C445.705 131.556 438.614 136.723 430.97 135.662C423.326 134.6 418.023 127.695 419.116 120.25C420.209 112.805 427.3 107.638 434.944 108.7Z" fill="url(#paint27_radial_289_9818)" fill-opacity="0.7" style="mix-blend-mode:color-dodge"/>
</g>
</g>
<g opacity="0.65">
<g style="mix-blend-mode:screen">
<path d="M447.252 387.318C448.339 387.465 449.084 388.446 448.933 389.505C448.782 390.564 447.774 391.29 446.687 391.143C445.6 390.996 444.855 390.015 445.006 388.956C445.157 387.898 446.165 387.172 447.252 387.318Z" fill="#F6E6FC"/>
</g>
<path style="mix-blend-mode:color-dodge" opacity="0.5" d="M448.948 375.741C456.592 376.803 461.895 383.708 460.802 391.153C459.709 398.598 452.618 403.765 444.974 402.703C437.33 401.642 432.027 394.736 433.12 387.292C434.213 379.847 441.304 374.679 448.948 375.741Z" fill="url(#paint28_radial_289_9818)" fill-opacity="0.7"/>
</g>
<g opacity="0.65">
<g style="mix-blend-mode:screen">
<path d="M358.662 388.473C359.749 388.62 360.494 389.601 360.343 390.66C360.192 391.718 359.184 392.444 358.097 392.298C357.01 392.151 356.265 391.17 356.416 390.111C356.567 389.052 357.575 388.326 358.662 388.473Z" fill="#F6E6FC"/>
</g>
<path style="mix-blend-mode:color-dodge" opacity="0.5" d="M360.375 376.896C368.019 377.957 373.322 384.862 372.229 392.307C371.136 399.752 364.045 404.92 356.401 403.858C348.757 402.796 343.454 395.891 344.547 388.446C345.64 381.001 352.731 375.834 360.375 376.896Z" fill="url(#paint29_radial_289_9818)" fill-opacity="0.7"/>
</g>
<defs>
<radialGradient id="paint0_radial_289_9818" cx="0" cy="0" r="1" gradientUnits="userSpaceOnUse" gradientTransform="translate(491.273 354.242) rotate(-81.6368) scale(15.705 16.1061)">
<stop stop-color="#EC8331"/>
<stop offset="1" stop-color="#864A1C" stop-opacity="0"/>
</radialGradient>
<radialGradient id="paint1_radial_289_9818" cx="0" cy="0" r="1" gradientUnits="userSpaceOnUse" gradientTransform="translate(457.012 161.97) rotate(-81.6368) scale(21.3506 21.8959)">
<stop stop-color="#EC8331"/>
<stop offset="1" stop-color="#864A1C" stop-opacity="0"/>
</radialGradient>
<radialGradient id="paint2_radial_289_9818" cx="0" cy="0" r="1" gradientUnits="userSpaceOnUse" gradientTransform="translate(565.791 281.666) rotate(-81.6368) scale(13.6179 13.9656)">
<stop stop-color="#EC8331"/>
<stop offset="1" stop-color="#864A1C" stop-opacity="0"/>
</radialGradient>
<radialGradient id="paint3_radial_289_9818" cx="0" cy="0" r="1" gradientUnits="userSpaceOnUse" gradientTransform="translate(391.905 343.899) rotate(-81.6368) scale(21.3506 21.8959)">
<stop stop-color="#EC8331"/>
<stop offset="1" stop-color="#864A1C" stop-opacity="0"/>
</radialGradient>
<radialGradient id="paint4_radial_289_9818" cx="0" cy="0" r="1" gradientUnits="userSpaceOnUse" gradientTransform="translate(559.06 206.512) rotate(-81.6368) scale(21.3506 21.8959)">
<stop stop-color="#EC8331"/>
<stop offset="1" stop-color="#864A1C" stop-opacity="0"/>
</radialGradient>
<radialGradient id="paint5_radial_289_9818" cx="0" cy="0" r="1" gradientUnits="userSpaceOnUse" gradientTransform="translate(312.333 48.5942) rotate(-81.6368) scale(21.3506 21.8959)">
<stop stop-color="#EC8331"/>
<stop offset="1" stop-color="#864A1C" stop-opacity="0"/>
</radialGradient>
<radialGradient id="paint6_radial_289_9818" cx="0" cy="0" r="1" gradientUnits="userSpaceOnUse" gradientTransform="translate(208.639 23.1909) rotate(-81.6368) scale(21.3506 21.8959)">
<stop stop-color="#EC8331"/>
<stop offset="1" stop-color="#864A1C" stop-opacity="0"/>
</radialGradient>
<radialGradient id="paint7_radial_289_9818" cx="0" cy="0" r="1" gradientUnits="userSpaceOnUse" gradientTransform="translate(51.6958 190.604) rotate(-81.6368) scale(21.3506 21.8959)">
<stop stop-color="#EC8331"/>
<stop offset="1" stop-color="#864A1C" stop-opacity="0"/>
</radialGradient>
<radialGradient id="paint8_radial_289_9818" cx="0" cy="0" r="1" gradientUnits="userSpaceOnUse" gradientTransform="translate(64.2831 277.282) rotate(-81.6368) scale(21.3506 21.8959)">
<stop stop-color="#EC8331"/>
<stop offset="1" stop-color="#864A1C" stop-opacity="0"/>
</radialGradient>
<radialGradient id="paint9_radial_289_9818" cx="0" cy="0" r="1" gradientUnits="userSpaceOnUse" gradientTransform="translate(260.633 473.633) rotate(-81.6368) scale(21.3506 21.8959)">
<stop stop-color="#EC8331"/>
<stop offset="1" stop-color="#864A1C" stop-opacity="0"/>
</radialGradient>
<radialGradient id="paint10_radial_289_9818" cx="0" cy="0" r="1" gradientUnits="userSpaceOnUse" gradientTransform="translate(508.213 250.098) rotate(-81.6368) scale(21.3506 21.8959)">
<stop stop-color="#EC8331"/>
<stop offset="1" stop-color="#864A1C" stop-opacity="0"/>
</radialGradient>
<radialGradient id="paint11_radial_289_9818" cx="0" cy="0" r="1" gradientUnits="userSpaceOnUse" gradientTransform="translate(301.566 416.06) rotate(-81.6368) scale(21.3506 21.8959)">
<stop stop-color="#EC8331"/>
<stop offset="1" stop-color="#864A1C" stop-opacity="0"/>
</radialGradient>
<radialGradient id="paint12_radial_289_9818" cx="0" cy="0" r="1" gradientUnits="userSpaceOnUse" gradientTransform="translate(114.738 410.416) rotate(-81.6368) scale(21.3506 21.8959)">
<stop stop-color="#EC8331"/>
<stop offset="1" stop-color="#864A1C" stop-opacity="0"/>
</radialGradient>
<radialGradient id="paint13_radial_289_9818" cx="0" cy="0" r="1" gradientUnits="userSpaceOnUse" gradientTransform="translate(456.073 263.236) rotate(-81.6368) scale(18.716 19.194)">
<stop stop-color="#EC8331"/>
<stop offset="1" stop-color="#864A1C" stop-opacity="0"/>
</radialGradient>
<radialGradient id="paint14_radial_289_9818" cx="0" cy="0" r="1" gradientUnits="userSpaceOnUse" gradientTransform="translate(20.7673 330.074) rotate(-81.6368) scale(18.716 19.194)">
<stop stop-color="#EC8331"/>
<stop offset="1" stop-color="#864A1C" stop-opacity="0"/>
</radialGradient>
<radialGradient id="paint15_radial_289_9818" cx="0" cy="0" r="1" gradientUnits="userSpaceOnUse" gradientTransform="translate(176.627 66.1237) rotate(-81.6368) scale(18.716 19.194)">
<stop stop-color="#EC8331"/>
<stop offset="1" stop-color="#864A1C" stop-opacity="0"/>
</radialGradient>
<radialGradient id="paint16_radial_289_9818" cx="0" cy="0" r="1" gradientUnits="userSpaceOnUse" gradientTransform="translate(385.654 451.633) rotate(-81.6368) scale(18.716 19.194)">
<stop stop-color="#EC8331"/>
<stop offset="1" stop-color="#864A1C" stop-opacity="0"/>
</radialGradient>
<radialGradient id="paint17_radial_289_9818" cx="0" cy="0" r="1" gradientUnits="userSpaceOnUse" gradientTransform="translate(198.754 421.014) rotate(-81.6368) scale(18.716 19.194)">
<stop stop-color="#EC8331"/>
<stop offset="1" stop-color="#864A1C" stop-opacity="0"/>
</radialGradient>
<radialGradient id="paint18_radial_289_9818" cx="0" cy="0" r="1" gradientUnits="userSpaceOnUse" gradientTransform="translate(146.75 133.281) rotate(-81.6368) scale(18.716 19.194)">
<stop stop-color="#EC8331"/>
<stop offset="1" stop-color="#864A1C" stop-opacity="0"/>
</radialGradient>
<radialGradient id="paint19_radial_289_9818" cx="0" cy="0" r="1" gradientUnits="userSpaceOnUse" gradientTransform="translate(369.994 66.1276) rotate(-81.6368) scale(18.716 19.194)">
<stop stop-color="#EC8331"/>
<stop offset="1" stop-color="#864A1C" stop-opacity="0"/>
</radialGradient>
<radialGradient id="paint20_radial_289_9818" cx="0" cy="0" r="1" gradientUnits="userSpaceOnUse" gradientTransform="translate(476.509 320.526) rotate(-81.6368) scale(7.40771 7.59687)">
<stop stop-color="#E8AB55"/>
<stop offset="1" stop-color="#826030" stop-opacity="0"/>
</radialGradient>
<radialGradient id="paint21_radial_289_9818" cx="0" cy="0" r="1" gradientUnits="userSpaceOnUse" gradientTransform="translate(115.004 237.946) rotate(-81.6368) scale(13.635 13.9832)">
<stop stop-color="#E8AB55"/>
<stop offset="1" stop-opacity="0"/>
</radialGradient>
<radialGradient id="paint22_radial_289_9818" cx="0" cy="0" r="1" gradientUnits="userSpaceOnUse" gradientTransform="translate(274.207 98.2636) rotate(-81.6368) scale(13.635 13.9832)">
<stop stop-color="#E8AB55"/>
<stop offset="1" stop-color="#826030" stop-opacity="0"/>
</radialGradient>
<radialGradient id="paint23_radial_289_9818" cx="0" cy="0" r="1" gradientUnits="userSpaceOnUse" gradientTransform="translate(478.56 215.665) rotate(-81.6368) scale(13.635 13.9832)">
<stop stop-color="#E8AB55"/>
<stop offset="1" stop-color="#826030" stop-opacity="0"/>
</radialGradient>
<radialGradient id="paint24_radial_289_9818" cx="0" cy="0" r="1" gradientUnits="userSpaceOnUse" gradientTransform="translate(522.038 300.908) rotate(-81.6368) scale(13.635 13.9832)">
<stop stop-color="#E8AB55"/>
<stop offset="1" stop-color="#826030" stop-opacity="0"/>
</radialGradient>
<radialGradient id="paint25_radial_289_9818" cx="0" cy="0" r="1" gradientUnits="userSpaceOnUse" gradientTransform="translate(113.528 327.839) rotate(-81.6368) scale(13.635 13.9832)">
<stop stop-color="#E8AB55"/>
<stop offset="1" stop-opacity="0"/>
</radialGradient>
<radialGradient id="paint26_radial_289_9818" cx="0" cy="0" r="1" gradientUnits="userSpaceOnUse" gradientTransform="translate(417.021 231.664) rotate(-81.6368) scale(13.635 13.9832)">
<stop stop-color="#E8AB55"/>
<stop offset="1" stop-color="#826030" stop-opacity="0"/>
</radialGradient>
<radialGradient id="paint27_radial_289_9818" cx="0" cy="0" r="1" gradientUnits="userSpaceOnUse" gradientTransform="translate(432.971 122.165) rotate(-81.6368) scale(13.635 13.9832)">
<stop stop-color="#E8AB55"/>
<stop offset="1" stop-color="#826030" stop-opacity="0"/>
</radialGradient>
<radialGradient id="paint28_radial_289_9818" cx="0" cy="0" r="1" gradientUnits="userSpaceOnUse" gradientTransform="translate(446.974 389.217) rotate(-81.6368) scale(13.635 13.9832)">
<stop stop-color="#E8AB55"/>
<stop offset="1" stop-opacity="0"/>
</radialGradient>
<radialGradient id="paint29_radial_289_9818" cx="0" cy="0" r="1" gradientUnits="userSpaceOnUse" gradientTransform="translate(358.399 390.374) rotate(-81.6368) scale(13.635 13.9832)">
<stop stop-color="#E8AB55"/>
<stop offset="1" stop-color="#826030" stop-opacity="0"/>
</radialGradient>
</defs>
</svg>
