<svg width="459" height="979" viewBox="0 0 459 979" fill="none" xmlns="http://www.w3.org/2000/svg">
<path style="mix-blend-mode:screen" d="M310.581 773.513C321.919 775.089 329.785 785.318 328.162 796.339C326.539 807.383 316.034 815.047 304.719 813.47C293.38 811.894 285.515 801.665 287.138 790.644C288.76 779.601 299.266 771.936 310.581 773.513Z" fill="url(#paint0_radial_329_181)" fill-opacity="0.7"/>
<g style="mix-blend-mode:screen">
<path d="M307.894 791.691C308.908 791.832 309.621 792.762 309.476 793.75C309.33 794.738 308.375 795.433 307.361 795.292C306.347 795.15 305.634 794.221 305.779 793.233C305.924 792.245 306.879 791.55 307.894 791.691Z" fill="#F6E6FC"/>
</g>
<path style="mix-blend-mode:screen" d="M267.586 519.107C282.982 521.248 293.677 535.152 291.473 550.147C289.269 565.142 274.989 575.564 259.593 573.423C244.198 571.281 233.502 557.377 235.707 542.382C237.911 527.387 252.191 516.965 267.586 519.107Z" fill="url(#paint1_radial_329_181)" fill-opacity="0.7"/>
<g style="mix-blend-mode:screen">
<path d="M263.953 543.828C265.328 544.016 266.308 545.279 266.092 546.618C265.898 547.957 264.602 548.912 263.227 548.702C261.852 548.513 260.871 547.251 261.088 545.912C261.282 544.573 262.578 543.618 263.953 543.828Z" fill="#F6E6FC"/>
</g>
<path d="M405.997 682.841C415.825 684.206 422.643 693.084 421.238 702.656C419.833 712.228 410.715 718.872 400.887 717.507C391.06 716.142 384.241 707.264 385.646 697.692C387.051 688.119 396.169 681.476 405.997 682.841Z" fill="url(#paint2_radial_329_181)" fill-opacity="0.7" style="mix-blend-mode:screen"/>
<g style="mix-blend-mode:screen">
<path d="M403.672 698.626C404.552 698.744 405.176 699.541 405.054 700.397C404.933 701.254 404.114 701.862 403.235 701.744C402.356 701.626 401.732 700.829 401.876 699.973C401.997 699.116 402.816 698.508 403.695 698.626L403.672 698.626Z" fill="#F6E6FC"/>
</g>
<path style="mix-blend-mode:screen" d="M183.874 753.028C199.269 755.169 209.965 769.073 207.761 784.068C205.556 799.063 191.277 809.485 175.881 807.343C160.486 805.202 149.79 791.298 151.994 776.303C154.198 761.308 168.478 750.886 183.874 753.028Z" fill="url(#paint3_radial_329_181)" fill-opacity="0.7"/>
<g style="mix-blend-mode:screen">
<path d="M180.24 777.748C181.616 777.937 182.596 779.199 182.379 780.538C182.186 781.877 180.889 782.833 179.515 782.622C178.139 782.434 177.159 781.172 177.375 779.833C177.569 778.493 178.866 777.538 180.24 777.748Z" fill="#F6E6FC"/>
</g>
<path style="mix-blend-mode:screen" d="M398.791 576.405C414.186 578.547 424.882 592.451 422.678 607.446C420.473 622.441 406.194 632.863 390.798 630.721C375.403 628.58 364.707 614.676 366.911 599.681C369.115 584.686 383.395 574.264 398.791 576.405Z" fill="url(#paint4_radial_329_181)" fill-opacity="0.7"/>
<g style="mix-blend-mode:screen">
<path d="M395.158 601.104C396.533 601.293 397.513 602.555 397.297 603.894C397.103 605.233 395.807 606.188 394.432 605.978C393.057 605.79 392.076 604.527 392.293 603.188C392.487 601.849 393.783 600.894 395.158 601.104Z" fill="#F6E6FC"/>
</g>
<path style="mix-blend-mode:screen" d="M81.5888 373.359C96.9843 375.5 107.68 389.404 105.476 404.399C103.271 419.394 88.9916 429.816 73.5961 427.674C58.2006 425.533 47.5051 411.629 49.7093 396.634C51.9135 381.639 66.1933 371.217 81.5888 373.359Z" fill="url(#paint5_radial_329_181)" fill-opacity="0.7"/>
<g style="mix-blend-mode:screen">
<path d="M77.9555 398.079C79.3305 398.268 80.3111 399.53 80.0945 400.869C79.9005 402.208 78.6044 403.164 77.2295 402.953C75.8545 402.765 74.874 401.503 75.0905 400.164C75.2845 398.824 76.5807 397.869 77.9555 398.079Z" fill="#F6E6FC"/>
</g>
<path style="mix-blend-mode:screen" d="M15.1055 919.829C30.501 921.97 41.1966 935.874 38.9924 950.869C36.7882 965.864 22.5084 976.286 7.11285 974.144C-8.28265 972.003 -18.9782 958.099 -16.774 943.104C-14.5698 928.109 -0.289959 917.687 15.1055 919.829Z" fill="url(#paint6_radial_329_181)" fill-opacity="0.7"/>
<g style="mix-blend-mode:screen">
<path d="M11.4724 944.549C12.8474 944.738 13.8279 946 13.6114 947.339C13.4174 948.678 12.1212 949.634 10.7464 949.423C9.37136 949.235 8.3908 947.973 8.60736 946.634C8.80134 945.294 10.0976 944.339 11.4724 944.549Z" fill="#F6E6FC"/>
</g>
<path style="mix-blend-mode:screen" d="M333.42 632.439C348.815 634.58 359.511 648.484 357.307 663.479C355.103 678.474 340.823 688.896 325.427 686.755C310.032 684.613 299.336 670.709 301.54 655.714C303.745 640.719 318.024 630.297 333.42 632.439Z" fill="url(#paint7_radial_329_181)" fill-opacity="0.7"/>
<g style="mix-blend-mode:screen">
<path d="M329.787 657.16C331.162 657.348 332.142 658.61 331.926 659.949C331.732 661.289 330.436 662.244 329.061 662.034C327.686 661.845 326.705 660.583 326.922 659.244C327.116 657.905 328.412 656.949 329.787 657.16Z" fill="#F6E6FC"/>
</g>
<path style="mix-blend-mode:screen" d="M67.7228 845.781C83.1183 847.923 93.8139 861.827 91.6097 876.822C89.4054 891.817 75.1257 902.239 59.7302 900.097C44.3347 897.956 33.6391 884.052 35.8433 869.057C38.0475 854.062 52.3273 843.64 67.7228 845.781Z" fill="url(#paint8_radial_329_181)" fill-opacity="0.7"/>
<g style="mix-blend-mode:screen">
<path d="M64.0893 870.502C65.4643 870.691 66.4449 871.953 66.2283 873.292C66.0343 874.631 64.7381 875.587 63.3633 875.376C61.9883 875.188 61.0077 873.926 61.2243 872.587C61.4183 871.247 62.7145 870.292 64.0893 870.502Z" fill="#F6E6FC"/>
</g>
<path style="mix-blend-mode:screen" d="M265.894 652.671C279.396 654.553 288.755 666.73 286.84 679.881C284.902 693.032 272.396 702.151 258.894 700.29C245.392 698.408 236.034 686.231 237.948 673.08C239.886 659.929 252.392 650.788 265.894 652.671Z" fill="url(#paint9_radial_329_181)" fill-opacity="0.7"/>
<g style="mix-blend-mode:screen">
<path d="M262.698 674.34C263.915 674.505 264.761 675.612 264.569 676.775C264.399 677.961 263.263 678.786 262.068 678.599C260.851 678.434 260.004 677.327 260.196 676.164C260.366 674.978 261.503 674.153 262.698 674.34Z" fill="#F6E6FC"/>
</g>
<path style="mix-blend-mode:screen" d="M175.329 894.888C188.831 896.771 198.212 908.948 196.274 922.099C194.337 935.25 181.83 944.39 168.328 942.508C154.826 940.626 145.468 928.449 147.383 915.298C149.32 902.147 161.826 893.028 175.329 894.888Z" fill="url(#paint10_radial_329_181)" fill-opacity="0.7"/>
<g style="mix-blend-mode:screen">
<path d="M172.155 916.536C173.372 916.701 174.219 917.808 174.026 918.971C173.857 920.157 172.72 920.982 171.525 920.795C170.308 920.63 169.461 919.523 169.654 918.359C169.823 917.174 170.96 916.349 172.155 916.536Z" fill="#F6E6FC"/>
</g>
<path style="mix-blend-mode:screen" d="M155.211 399.251C168.713 401.133 178.071 413.31 176.156 426.461C174.219 439.612 161.713 448.731 148.211 446.871C134.709 444.989 125.35 432.812 127.265 419.661C129.18 406.509 141.709 397.369 155.211 399.251Z" fill="url(#paint11_radial_329_181)" fill-opacity="0.7"/>
<g style="mix-blend-mode:screen">
<path d="M152.037 420.921C153.254 421.086 154.101 422.193 153.909 423.356C153.739 424.542 152.602 425.366 151.385 425.201C150.167 425.036 149.321 423.929 149.513 422.766C149.683 421.58 150.82 420.755 152.014 420.942L152.037 420.921Z" fill="#F6E6FC"/>
</g>
<g opacity="0.65">
<g style="mix-blend-mode:screen">
<path d="M288.842 748.793C289.609 748.888 290.122 749.574 290.024 750.321C289.926 751.067 289.221 751.566 288.454 751.471C287.688 751.376 287.175 750.69 287.273 749.944C287.371 749.198 288.076 748.699 288.842 748.793Z" fill="#F6E6FC"/>
</g>
<path style="mix-blend-mode:color-dodge" opacity="0.5" d="M290.029 740.713C295.371 741.466 299.07 746.27 298.318 751.473C297.544 756.677 292.61 760.281 287.267 759.55C281.925 758.82 278.226 753.994 278.978 748.79C279.753 743.587 284.687 739.983 290.029 740.713Z" fill="url(#paint12_radial_329_181)" fill-opacity="0.7"/>
</g>
<g opacity="0.65">
<g style="mix-blend-mode:screen">
<path d="M28.9121 461.888C30.3097 462.077 31.2676 463.339 31.0734 464.7C30.8792 466.061 29.5833 466.994 28.1857 466.806C26.7881 466.617 25.8301 465.355 26.0243 463.994C26.2185 462.633 27.5145 461.699 28.9121 461.888Z" fill="#F6E6FC"/>
</g>
<path style="mix-blend-mode:color-dodge" opacity="0.5" d="M31.1148 447.025C40.9427 448.39 47.761 457.268 46.356 466.84C44.9509 476.412 35.8329 483.056 26.005 481.691C16.1771 480.326 9.35884 471.448 10.7639 461.876C12.1689 452.303 21.2869 445.66 31.1148 447.025Z" fill="url(#paint13_radial_329_181)" fill-opacity="0.7"/>
</g>
<g opacity="0.65">
<g style="mix-blend-mode:screen">
<path d="M291.662 612.862C293.059 613.051 294.017 614.313 293.823 615.674C293.629 617.035 292.333 617.969 290.935 617.78C289.538 617.592 288.58 616.33 288.774 614.968C288.968 613.607 290.264 612.674 291.662 612.862Z" fill="#F6E6FC"/>
</g>
<path style="mix-blend-mode:color-dodge" opacity="0.5" d="M293.842 597.977C303.67 599.342 310.488 608.22 309.083 617.792C307.678 627.365 298.56 634.008 288.732 632.643C278.904 631.278 272.086 622.4 273.491 612.828C274.896 603.256 284.014 596.612 293.842 597.977Z" fill="url(#paint14_radial_329_181)" fill-opacity="0.7"/>
</g>
<g opacity="0.65">
<g style="mix-blend-mode:screen">
<path d="M347.545 722.457C348.943 722.646 349.901 723.907 349.707 725.269C349.513 726.63 348.217 727.563 346.819 727.375C345.421 727.186 344.463 725.924 344.658 724.563C344.852 723.202 346.148 722.268 347.545 722.457Z" fill="#F6E6FC"/>
</g>
<g opacity="0.5">
<path d="M349.726 707.571C359.554 708.936 366.372 717.814 364.967 727.387C363.562 736.959 354.444 743.603 344.616 742.238C334.788 740.873 327.97 731.995 329.375 722.422C330.78 712.85 339.898 706.206 349.726 707.571Z" fill="url(#paint15_radial_329_181)" fill-opacity="0.7" style="mix-blend-mode:color-dodge"/>
</g>
</g>
<g opacity="0.65">
<g style="mix-blend-mode:screen">
<path d="M212.547 633.434C213.945 633.623 214.903 634.885 214.708 636.246C214.514 637.607 213.218 638.541 211.821 638.352C210.423 638.163 209.465 636.901 209.659 635.54C209.853 634.179 211.149 633.245 212.547 633.434Z" fill="#F6E6FC"/>
</g>
<path style="mix-blend-mode:color-dodge" opacity="0.5" d="M214.727 618.549C224.555 619.914 231.374 628.792 229.969 638.364C228.564 647.936 219.446 654.58 209.618 653.215C199.79 651.85 192.971 642.972 194.376 633.4C195.782 623.827 204.9 617.184 214.727 618.549Z" fill="url(#paint16_radial_329_181)" fill-opacity="0.7"/>
</g>
<g opacity="0.65">
<g style="mix-blend-mode:screen">
<path d="M233.052 492.645C234.45 492.833 235.408 494.095 235.213 495.456C235.019 496.818 233.723 497.751 232.326 497.562C230.928 497.374 229.97 496.112 230.164 494.751C230.359 493.389 231.654 492.456 233.052 492.645Z" fill="#F6E6FC"/>
</g>
<g opacity="0.5">
<path d="M235.233 477.759C245.061 479.124 251.879 488.002 250.474 497.575C249.069 507.147 239.951 513.791 230.123 512.426C220.295 511.061 213.477 502.183 214.882 492.61C216.287 483.038 225.405 476.394 235.233 477.759Z" fill="url(#paint17_radial_329_181)" fill-opacity="0.7" style="mix-blend-mode:color-dodge"/>
</g>
</g>
<g opacity="0.65">
<g style="mix-blend-mode:screen">
<path d="M251.057 835.99C252.455 836.178 253.413 837.44 253.219 838.802C253.025 840.163 251.729 841.096 250.331 840.908C248.933 840.719 247.975 839.457 248.17 838.096C248.364 836.735 249.66 835.801 251.057 835.99Z" fill="#F6E6FC"/>
</g>
<path style="mix-blend-mode:color-dodge" opacity="0.5" d="M253.238 821.105C263.066 822.47 269.884 831.348 268.479 840.92C267.074 850.492 257.956 857.136 248.128 855.771C238.3 854.406 231.482 845.528 232.887 835.956C234.292 826.383 243.41 819.74 253.238 821.105Z" fill="url(#paint18_radial_329_181)" fill-opacity="0.7"/>
</g>
<g opacity="0.65">
<g style="mix-blend-mode:screen">
<path d="M137.153 837.474C138.551 837.663 139.509 838.925 139.314 840.286C139.12 841.647 137.824 842.581 136.427 842.392C135.029 842.204 134.071 840.942 134.265 839.58C134.459 838.219 135.755 837.286 137.153 837.474Z" fill="#F6E6FC"/>
</g>
<path style="mix-blend-mode:color-dodge" opacity="0.5" d="M139.356 822.589C149.184 823.954 156.002 832.833 154.597 842.405C153.192 851.977 144.074 858.621 134.246 857.256C124.418 855.891 117.6 847.013 119.005 837.44C120.41 827.868 129.528 821.224 139.356 822.589Z" fill="url(#paint19_radial_329_181)" fill-opacity="0.7"/>
</g>
<g clip-path="url(#clip0_329_181)">
<path style="mix-blend-mode:screen" opacity="0.57" d="M370.647 327.528C325.748 286.209 266.962 277.044 239.343 307.057C211.724 337.07 225.733 394.895 270.631 436.214C315.53 477.533 374.317 486.698 401.935 456.686C429.554 426.673 415.546 368.847 370.647 327.528Z" fill="url(#paint20_radial_329_181)"/>
<path d="M271.129 338.379C285.601 341.41 288.957 320.165 275.084 317.374C261.323 314.61 256.657 335.348 271.129 338.379ZM274.322 321.384C282.904 323.12 280.832 336.26 271.882 334.381C262.931 332.503 265.819 319.67 274.322 321.384Z" fill="url(#paint21_linear_329_181)"/>
<g style="mix-blend-mode:screen" opacity="0.51">
<path d="M281.541 323.163C280.262 318.175 273.757 317.521 269.959 319.066C266.16 320.61 265.144 327.318 265.427 329.299C265.72 331.267 261.707 329.648 262.639 325.233C263.887 320.219 268.415 316.027 275.084 317.374C284.18 319.21 285.873 328.974 281.881 334.632C279.582 336.939 282.833 328.161 281.532 323.175L281.541 323.163Z" fill="#838CA3"/>
</g>
<g style="mix-blend-mode:multiply" opacity="0.79">
<path d="M271.882 334.381C280.832 336.26 282.913 323.107 274.322 321.384C271.782 320.868 269.756 321.669 268.372 323.085C271.315 318.979 278.658 317.828 279.951 324.879C281.244 331.93 277.598 335.985 272.634 336.294C267.67 336.604 266.133 329.675 267.223 331.214C268.091 332.719 269.597 333.905 271.873 334.394L271.882 334.381Z" fill="#A192A4"/>
</g>
<g style="mix-blend-mode:multiply" opacity="0.5">
<path d="M264.627 321.058C264.557 321.253 264.444 321.453 264.302 321.67C262.152 324.944 265.765 329.609 266.546 326.639C265.93 329.846 267.449 333.474 271.885 334.403C276.108 335.286 278.799 332.835 279.561 329.814C278.926 332.893 280.992 331.76 281.802 327.635C282.612 323.509 284.61 327.362 283.109 332.358C282.586 333.715 281.787 334.96 280.759 335.977C280.625 336.105 280.501 336.22 280.346 336.351C280.279 336.415 280.2 336.47 280.133 336.534C279.929 336.704 279.713 336.866 279.494 337.006C279.375 337.088 279.257 337.17 279.147 337.24C274.023 340.3 265.777 336.137 263.689 333.394C261.446 329.565 261.994 324.521 264.627 321.058Z" fill="#A192C8"/>
</g>
<g style="mix-blend-mode:multiply" opacity="0.79">
<path d="M283.105 323.764C281.477 322.944 279.855 328.229 279.855 328.229C279.855 328.229 278.645 322.361 274.322 321.384C274.322 321.384 274.731 317.946 276.584 317.756C276.584 317.756 279.185 318.166 281.008 320.197C282.831 322.228 283.105 323.764 283.105 323.764Z" fill="#A192A4"/>
</g>
<path d="M282.889 323.089C282.889 323.089 281.991 321.675 280.62 322.871C279.248 324.068 279.56 327.152 279.56 327.152L275.606 321.852C275.606 321.852 275.154 318.396 277.764 317.805C280.374 317.213 284.098 318.939 282.898 323.077L282.889 323.089Z" fill="#440937"/>
<path d="M248.794 358.043C243.388 371.118 262.897 380.185 268.44 366.471C273.983 352.758 254.17 345.06 248.794 358.043ZM264.701 364.867C261.276 373.345 249.206 367.741 252.555 359.645C255.882 351.627 268.135 356.378 264.701 364.867Z" fill="url(#paint22_linear_329_181)"/>
<g style="mix-blend-mode:screen" opacity="0.51">
<path d="M250.002 366.628C246.582 362.772 249.658 357.018 253.058 354.738C256.445 352.448 262.585 355.338 264.071 356.679C265.543 358.01 266.436 353.775 262.262 352.092C257.403 350.333 251.414 351.757 248.794 358.044C245.242 366.615 252.406 373.465 259.326 373.31C262.529 372.687 253.423 370.484 250.002 366.628Z" fill="#838CA3"/>
</g>
<g style="mix-blend-mode:multiply" opacity="0.79">
<path d="M264.701 364.868C261.276 373.345 249.206 367.742 252.555 359.645C253.548 357.253 255.336 356.008 257.274 355.654C252.212 355.815 247.18 361.263 252.299 366.277C257.418 371.29 262.826 370.515 265.845 366.561C268.864 362.608 263.976 357.463 264.643 359.237C265.411 360.8 265.555 362.713 264.679 364.871L264.701 364.868Z" fill="#A192A4"/>
</g>
<g style="mix-blend-mode:multiply" opacity="0.5">
<path d="M257.677 351.413C257.89 351.458 258.112 351.492 258.361 351.489C262.279 351.535 264.134 357.125 261.241 356.117C264.247 357.381 266.402 360.668 264.701 364.867C263.078 368.86 259.553 369.735 256.61 368.69C259.519 369.881 257.436 370.962 253.55 369.324C249.677 367.696 251.766 371.503 256.734 373.04C258.158 373.346 259.621 373.397 261.057 373.104C261.236 373.068 261.404 373.022 261.592 372.973C261.686 372.949 261.781 372.925 261.863 372.891C262.124 372.821 262.371 372.72 262.608 372.632C262.742 372.58 262.876 372.529 262.997 372.468C268.39 369.912 269.533 360.752 268.415 357.5C266.484 353.507 261.996 351.152 257.665 351.404L257.677 351.413Z" fill="#A192C8"/>
</g>
<g style="mix-blend-mode:multiply" opacity="0.79">
<path d="M264.676 371.369C264.676 371.369 265.432 367.924 263.597 366.797C263.597 366.797 265.85 364.779 265.097 360.964C264.344 357.15 257.24 353.29 253.664 357.758C253.664 357.758 252.38 356.226 250.448 356.622C248.526 357.006 254.817 350.335 255.547 349.817C256.277 349.299 260.633 350.815 262.267 351.45C263.901 352.085 270.596 357.557 272.322 359.363C274.047 361.169 272.197 367.063 272.076 367.428C271.963 367.781 266.361 370.008 266.361 370.008C266.361 370.008 266.346 370.282 264.679 371.39L264.676 371.369Z" fill="#A192A4"/>
</g>
<path d="M276.89 329.675C276.89 329.675 280.924 302.096 280.145 295.069C279.366 288.042 259.488 262.524 259.488 262.524L259.113 310.179L255.326 304.909C255.326 304.909 253.45 265.128 252.989 259.707C252.527 254.287 239.459 235.201 239.459 235.201C239.459 235.201 237.924 273.168 240.318 285.244C240.318 285.244 234.695 268.524 233.493 254.985C232.671 245.758 235.073 234.842 233.845 231.128C232.617 227.414 217.308 208.607 201.513 193.922C195.433 188.264 188.501 183.108 188.501 183.108C188.501 183.108 194.924 221.183 196.636 225.925C198.335 230.658 226.394 263.75 227.238 267.138C228.082 270.527 207.255 245.742 205.271 243.723C203.286 241.704 198.198 237.588 198.198 237.588C198.198 237.588 204.732 263.238 211.363 276.228C218.015 289.214 239.456 311.684 239.456 311.684L271.284 338.552L277.7 332.678L276.911 329.672L276.89 329.675Z" fill="url(#paint23_linear_329_181)"/>
<path style="mix-blend-mode:multiply" opacity="0.5" d="M271.263 338.556L277.679 332.681L276.89 329.676C276.89 329.676 280.924 302.096 280.145 295.07C279.366 288.043 259.488 262.524 259.488 262.524L259.421 270.324C263.64 276.944 270.453 286.952 272.159 292.564C272.276 290.2 277.266 298.71 278.381 303.765C279.497 308.82 274.742 322.041 273.506 320.317C272.258 318.583 269.682 313.194 269.682 313.194C267.597 309.94 259.197 299.693 259.234 294.57L259.113 310.179L255.326 304.909C255.326 304.909 253.45 265.128 252.989 259.708C252.527 254.287 239.459 235.201 239.459 235.201C239.459 235.201 239.339 238.152 239.216 242.679C239.216 242.679 246.078 255.157 247.985 260.653C247.397 259.13 252.4 269.093 253.122 272.01C253.844 274.927 252.561 304.871 251.834 303.965C251.462 303.497 249.572 300.921 247.843 298.561C245.637 296.585 241.311 288.383 240.305 285.235C240.305 285.235 234.683 268.515 233.481 254.976C232.659 245.749 235.06 234.833 233.833 231.119C232.605 227.405 217.296 208.598 201.501 193.913C195.421 188.255 188.489 183.099 188.489 183.099C188.489 183.099 189.117 186.801 190.032 192.049C190.032 192.049 222.294 222.93 226.407 231.163C226.62 231.588 226.818 232.06 226.986 232.546C226.986 232.546 230.664 233.801 230.963 242.103C231.262 250.404 236.744 280.096 236.744 280.096L230.784 271.715C234.715 279.963 248.408 303.033 233.919 289.802C219.43 276.57 211.329 276.222 211.329 276.222C217.982 289.208 239.423 311.678 239.423 311.678L271.251 338.547L271.263 338.556Z" fill="url(#paint24_linear_329_181)"/>
<path style="mix-blend-mode:multiply" opacity="0.5" d="M233.833 231.119C232.605 227.405 217.296 208.598 201.501 193.913C195.421 188.255 188.489 183.099 188.489 183.099C188.489 183.099 189.117 186.801 190.032 192.049C190.032 192.049 222.294 222.93 226.407 231.163C230.521 239.395 226.861 259.196 229.913 269.808C229.913 269.808 227.515 267.327 226.654 266.016C226.964 266.515 227.15 266.901 227.205 267.132C228.049 270.521 207.221 245.736 205.237 243.717C203.253 241.698 198.165 237.582 198.165 237.582C198.165 237.582 199.158 241.481 200.767 247.02C198.774 239.863 233.078 278.09 235.112 284.024C237.147 289.958 211.684 274.378 207.767 268.116C208.93 271.079 210.133 273.862 211.341 276.231C217.994 289.217 239.435 311.687 239.435 311.687L271.263 338.556L277.679 332.681L276.89 329.676C276.89 329.676 280.924 302.096 280.145 295.07C279.366 288.043 259.488 262.524 259.488 262.524L259.421 270.324C264.337 278.018 272.763 290.337 272.555 294.952C272.344 299.546 271.758 316.46 269.673 313.206C267.588 309.952 259.188 299.705 259.225 294.582L259.104 310.191L255.317 304.921C255.317 304.921 253.441 265.141 252.98 259.72C252.518 254.299 239.45 235.214 239.45 235.214C239.45 235.214 239.33 238.165 239.207 242.691C239.207 242.691 246.069 255.169 247.976 260.665C249.883 266.162 250.231 297.86 248.841 298.929C247.464 300.007 241.475 289 240.296 285.247C240.296 285.247 234.674 268.528 233.472 254.988C232.65 245.761 235.051 234.845 233.824 231.131L233.833 231.119Z" fill="url(#paint25_linear_329_181)"/>
<g style="mix-blend-mode:multiply" opacity="0.44">
<path d="M214.988 282.27C223.67 295.161 239.435 311.687 239.435 311.687L271.263 338.556L275.94 334.267C272.727 320.341 266.557 310.111 259.155 302.589L259.101 310.17L255.314 304.9C255.314 304.9 255.195 302.472 255.02 298.749C241.225 287.102 224.629 283.43 214.988 282.27Z" fill="#8700CA"/>
</g>
<path d="M285.355 321.269C279.895 328.734 277.199 334.944 274.717 334.985C273.427 335.007 268.477 332.001 267.56 330.307C266.894 329.067 267.23 327.171 267.592 325.826L251.121 344.259L251.376 355.968C251.376 355.968 253.86 353.286 256.203 354.015C258.536 354.756 264.022 357.479 265.849 361.432C268.002 366.067 262.846 388.244 269.038 398.396C275.23 408.547 287.503 418.902 319.112 431.275C350.709 443.639 383.031 445.066 388.376 438.769C395.181 430.752 379.342 392.789 362.084 369.253C344.816 345.728 325.924 329.825 310.003 317.897C294.082 305.968 289.353 315.806 285.364 321.256L285.355 321.269ZM333.279 347.557C356.91 369.614 386.878 414.287 373.803 427.299C360.715 440.302 316.317 427.09 297.076 412.009C277.835 396.928 268.995 377.095 273.205 355.673C280.253 319.936 309.639 325.511 333.279 347.557Z" fill="url(#paint26_linear_329_181)"/>
<path style="mix-blend-mode:screen" opacity="0.35" d="M273.214 355.661C280.262 319.924 309.648 325.499 333.288 347.545C356.919 369.602 386.887 414.275 373.812 427.287C360.725 440.29 316.327 427.078 297.085 411.997C277.844 396.915 269.004 377.082 273.214 355.661Z" fill="url(#paint27_linear_329_181)"/>
<g style="mix-blend-mode:multiply" opacity="0.79">
<path d="M279.847 350.385C286.397 344.61 283.938 334.956 282.351 331.924C281.067 329.479 283.182 324.829 284.018 323.155C279.442 329.744 276.993 334.941 274.717 334.985C273.427 335.007 268.477 332.001 267.56 330.307C266.894 329.067 267.23 327.171 267.592 325.826L259.212 335.21L251.251 350.02L251.369 355.773C251.482 355.724 251.595 355.675 251.707 355.627C252.397 354.984 254.076 353.657 255.764 353.915C258.051 352.587 262.082 346.294 263.699 341.118C265.391 335.714 264.997 347.147 263.447 349.521C261.896 351.894 258.019 354.102 256.181 354.018C258.515 354.759 264.001 357.482 265.828 361.435C266.348 362.567 266.441 364.727 266.372 367.507C267.261 362.718 273.272 356.141 279.822 350.367L279.847 350.385Z" fill="#A192A4"/>
</g>
<path style="mix-blend-mode:multiply" d="M255.498 350.085C255.498 350.085 263.569 350.068 266.289 352.601C269.019 355.121 272.885 339.942 272.885 339.942C272.885 339.942 264.393 336.564 263.288 333.398C262.182 330.231 255.498 350.085 255.498 350.085Z" fill="url(#paint28_linear_329_181)"/>
<path d="M228.683 329.614C234.214 317.792 244.452 300.83 251.097 303.071C257.733 305.325 266.268 311.511 268.01 316.009C269.752 320.507 266.29 333.347 261.943 341.077C258.496 347.199 252.079 357.92 245.673 359.545C239.258 361.182 227.223 357.563 223.92 353.929C220.618 350.296 225.51 336.436 228.704 329.611L228.683 329.614Z" fill="url(#paint29_linear_329_181)"/>
<path d="M297.739 411.327C316.478 426.013 359.717 438.87 372.452 426.211C385.186 413.552 356.003 370.038 332.999 348.564C328.711 344.572 324.241 341.128 319.744 338.404C319.683 338.359 319.622 338.313 319.552 338.28C319.373 338.164 319.184 338.061 318.995 337.958C315.164 335.867 311.265 336.632 313.564 342.366C316.034 348.531 312.67 358.118 305.325 367.592C297.98 377.067 282.589 389.694 287.504 401.701C290.478 405.089 293.892 408.293 297.736 411.306L297.739 411.327Z" fill="url(#paint30_linear_329_181)"/>
<path style="mix-blend-mode:multiply" opacity="0.5" d="M319.753 338.392C319.753 338.392 319.631 338.301 319.561 338.267C319.43 338.188 319.287 338.1 319.157 338.021C332.458 348.652 322.829 367.516 316.678 375.091C310.351 382.876 295.569 395.199 286.662 395.444C286.45 397.528 286.685 399.624 287.526 401.698C290.487 405.076 293.914 408.29 297.757 411.303C301.08 413.868 284.717 399.385 295.69 394.377C307.817 388.846 312.241 392.732 319.674 374.009C327.085 355.29 347.215 369.592 357.314 383.66C367.414 397.727 375.017 413.782 371.26 400.761C363.605 383.203 347.163 361.722 333.039 348.536C328.751 344.544 324.281 341.1 319.783 338.377L319.753 338.392Z" fill="url(#paint31_linear_329_181)"/>
<path d="M281.657 393.576C288.429 401.025 308.91 384.647 316.669 375.103C323.218 367.047 333.689 346.248 316.363 336.118C302.205 327.848 325.887 347.758 303.871 360.706C286.496 370.934 268.552 379.157 281.645 393.567L281.657 393.576Z" fill="#C41A67"/>
<path d="M218.758 333.601L220.222 327.894C220.222 327.894 214.431 329.713 212.828 329.367C211.224 329.021 205.875 325.279 205.875 325.279L228.852 291.441C228.852 291.441 234.153 296.82 235.578 298.571C236.993 300.335 236.037 304.655 236.037 304.655L240.802 301.516C240.802 301.516 246.462 311.896 246.965 313.432C247.455 314.959 244.92 320.396 240.418 326.812C236.909 331.824 232.558 336.034 230.764 337.464C230.305 337.824 229.699 337.921 229.158 337.706L218.777 333.577L218.758 333.601Z" fill="url(#paint32_linear_329_181)"/>
<path d="M218.758 333.601L220.222 327.894C220.222 327.894 226.697 324.857 230.689 318.287C234.689 311.704 236.019 304.679 236.019 304.679L240.784 301.54C240.784 301.54 238.294 312.296 232.338 320.017C227.133 326.761 218.746 333.592 218.746 333.592L218.758 333.601Z" fill="#6F1B1A"/>
<path style="mix-blend-mode:multiply" opacity="0.5" d="M349.813 434.662C357.178 435.105 390.216 438.418 377.621 407.541C365.026 376.665 386.68 420.411 383.173 430.138C379.667 439.866 341.618 434.186 349.826 434.671L349.813 434.662Z" fill="url(#paint33_linear_329_181)"/>
<path style="mix-blend-mode:screen" opacity="0.5" d="M388.367 438.781C395.171 430.764 379.333 392.801 362.075 369.265C351.893 355.383 341.15 344.178 330.776 334.866C323.159 328.874 331.377 339.213 339.919 345.974C348.497 352.762 360.62 368.593 370.529 384.133C380.447 399.661 392.837 427.133 384.773 435.613C376.709 444.093 342.849 438.377 334.269 435.522C325.677 432.658 312.634 428.683 319.103 431.287C350.699 443.651 383.022 445.078 388.367 438.781Z" fill="url(#paint34_linear_329_181)"/>
<path style="mix-blend-mode:screen" opacity="0.5" d="M373.803 427.299C363.236 437.8 332.238 431.207 310.568 420.331C299.584 415.485 311.415 422.676 317.448 425.048C323.503 427.418 337.117 430.985 344.848 432.919C347.215 433.514 350.552 434.361 354.252 434.927C365.571 435.368 388.42 434.069 377.6 407.544C376.315 404.415 375.401 402.058 374.777 400.354C368.42 388.749 355.785 372.916 352.34 368.662C369.698 390.924 383.436 417.714 373.803 427.299Z" fill="url(#paint35_linear_329_181)"/>
<g style="mix-blend-mode:multiply" opacity="0.47">
<path d="M228.307 305.536C227.99 310.981 229.088 317.81 226.638 321.334C224.188 324.858 216.825 322.992 213.835 323.203C210.845 323.415 205.875 325.279 205.875 325.279C205.875 325.279 215.27 329.201 220.222 327.894C225.174 326.586 229.176 322.893 231.349 319.257C233.523 315.62 238.123 302.607 236.287 299.502C234.439 296.388 228.843 291.453 228.843 291.453L228.298 305.548L228.307 305.536Z" fill="#9E2E46"/>
</g>
<g style="mix-blend-mode:multiply" opacity="0.47">
<path d="M228.368 303.908C229.267 302.529 234.724 307.701 234.758 309.304C234.792 310.907 229.59 323.508 220.222 327.894L218.758 333.601C218.758 333.601 226.674 327.881 232.35 320.026C238.014 312.162 237.678 309.287 238.591 308.45C239.503 307.613 244.239 314.659 244.271 316.85C244.302 319.04 237.482 332.405 231.958 334.577C226.435 336.749 225.881 336.448 225.881 336.448C225.881 336.448 229.535 338.293 230.399 338.103C231.263 337.914 236.983 333.4 242.388 325.019C247.793 316.638 247.719 314.149 246.998 312.677C246.264 311.196 240.808 301.559 240.808 301.559L236.441 304.369C236.441 304.369 237.356 301.728 236.29 299.523C235.224 297.318 228.846 291.475 228.846 291.475L228.209 304.018L228.358 303.92L228.368 303.908Z" fill="#9E2E46"/>
</g>
<path d="M223.885 313.873C237.242 292.215 224.305 279.272 211.351 276.219C198.384 273.156 182.518 289.437 182.418 304.131C182.327 318.812 196.67 326.784 205.875 325.279C215.079 323.774 221.337 318.009 223.885 313.873Z" fill="url(#paint36_linear_329_181)"/>
<g style="mix-blend-mode:multiply" opacity="0.46">
<path d="M195.743 284.748C194.161 285.996 192.693 287.424 191.382 288.97C187.387 293.694 184.907 299.515 184.864 304.671C184.821 311.044 188.062 315.165 190.798 317.5C194.575 320.728 199.747 322.475 203.665 321.837C211.872 320.497 217.111 315.203 218.91 312.294C223.823 304.342 225.167 297.12 222.804 291.396C220.66 286.216 215.448 282.216 208.867 280.649C205.009 279.736 200.216 281.238 195.743 284.748Z" fill="#AD15AA"/>
</g>
<g style="mix-blend-mode:multiply">
<path d="M210.748 324.026C195.7 326.988 192.064 303.432 202.937 292.496C213.832 281.556 223.954 284.179 227.355 291.536C230.756 298.893 229.525 320.323 210.739 324.038L210.748 324.026Z" fill="#97159A"/>
</g>
<g style="mix-blend-mode:multiply" opacity="0.44">
<path d="M210.323 299.683C213.185 283.866 225.222 282.943 228.08 293.562C230.929 304.193 221.35 325.374 215.044 318.14C208.737 310.907 209.276 305.494 210.333 299.671L210.323 299.683Z" fill="#8700CA"/>
</g>
<path d="M206.512 320.548C211.503 318.681 217.648 312.888 217.129 314.495C216.609 316.101 214.359 318.825 210.725 319.77C207.09 320.715 205.73 320.856 206.512 320.548Z" fill="#B12EED"/>
<g style="mix-blend-mode:multiply" opacity="0.51">
<path d="M222.302 289.936C224.447 298.005 219.631 310.724 216.527 314.918C213.423 319.112 227.232 310.09 228.12 302.107C229.008 294.124 220.62 283.582 222.311 289.923L222.302 289.936Z" fill="#AD00CA"/>
</g>
<g style="mix-blend-mode:multiply" opacity="0.51">
<path d="M201.999 324.694C194.062 324.507 191.331 318.26 193.297 319.314C195.262 320.369 205.481 321.239 208.118 320.231C210.746 319.235 205.978 324.786 201.999 324.694Z" fill="#AD00CA"/>
</g>
<g style="mix-blend-mode:color-dodge" opacity="0.22">
<path d="M199.927 281.345C204.166 276.956 212.047 275.999 217.372 279.419C224.015 283.692 225.338 284.741 214.627 283.92C206.851 283.34 194.94 286.504 199.915 281.336L199.927 281.345Z" fill="#5617A0"/>
</g>
<g style="mix-blend-mode:color-dodge" opacity="0.22">
<path d="M222.178 305.828C224.229 300.275 224.073 298.048 223.673 294.346C223.272 290.644 227.3 297.52 227.149 299.954C226.989 302.4 220.71 309.841 222.19 305.837L222.178 305.828Z" fill="#A617A0"/>
</g>
<g style="mix-blend-mode:multiply" opacity="0.51">
<path d="M204.954 292.543C199.662 294.736 198.089 286.183 200.23 286.419C202.363 286.667 208.82 290.935 204.954 292.543Z" fill="#AD00CA"/>
</g>
<g style="mix-blend-mode:multiply" opacity="0.51">
<path d="M205.85 296.826C204.387 297.46 203.647 295.556 205.713 295.107C207.757 294.662 208.357 295.739 205.85 296.826Z" fill="#AD00CA"/>
</g>
<g style="mix-blend-mode:multiply" opacity="0.51">
<path d="M211.576 291.441C207.316 294.997 205.155 286.441 207.829 286.6C210.503 286.76 214.118 289.317 211.576 291.441Z" fill="#AD00CA"/>
</g>
<g style="mix-blend-mode:multiply" opacity="0.51">
<path d="M206.734 307.315C205.942 305.353 212.157 306.037 212.045 307.227C211.933 308.416 207.773 309.861 206.734 307.315Z" fill="#AD00CA"/>
</g>
<g style="mix-blend-mode:multiply" opacity="0.51">
<path d="M208.586 311.971C209.175 310.931 207.897 309.212 207.106 309.761C206.316 310.309 205.856 316.807 208.586 311.971Z" fill="#AD00CA"/>
</g>
<path style="mix-blend-mode:screen" d="M183.462 298.907C180.845 310.897 197.224 326.552 209.147 309.446C221.059 292.33 213.365 277.614 204.927 277.868C196.488 278.122 185.924 287.656 183.462 298.907Z" fill="url(#paint37_linear_329_181)"/>
<path style="mix-blend-mode:screen" d="M184.916 306.022C183.11 300.164 188.851 288.442 195.003 284.898C201.156 281.353 193.218 285.176 190.719 296.095C188.208 307.006 198.453 313.142 201.496 314.205C204.55 315.277 197.125 316.918 193.273 314.83C189.421 312.742 186.604 311.506 184.928 306.031L184.916 306.022Z" fill="url(#paint38_linear_329_181)"/>
<g style="mix-blend-mode:screen">
<path d="M186.291 306.748C189.932 304.172 187.68 296.422 186.29 296.122C184.89 295.834 183.761 301.298 184.2 303.908C184.639 306.518 185.461 307.324 186.3 306.736L186.291 306.748Z" fill="#DBDDFF"/>
</g>
<g style="mix-blend-mode:screen">
<path d="M186.801 310.456C186.003 309.136 188.821 304.234 189.269 305.006C189.728 305.788 189.285 314.598 186.801 310.456Z" fill="#DBDDFF"/>
</g>
<g style="mix-blend-mode:multiply" opacity="0.5">
<path d="M228.126 350.447C228.126 350.447 255.887 328.841 253.158 307.296C253.158 307.296 262.76 315.382 263.48 320.636C264.188 325.88 259.032 347.981 248.692 353.843C238.351 359.704 228.138 350.456 228.138 350.456L228.126 350.447Z" fill="#A1AEC8"/>
</g>
<g style="mix-blend-mode:multiply" opacity="0.24">
<path d="M226.785 344.5C226.785 344.5 235.483 347.045 245.011 332.553C254.538 318.061 249.46 308.782 249.46 308.782C249.46 308.782 245.397 326.38 226.797 344.509L226.785 344.5Z" fill="#838CA3"/>
</g>
<g style="mix-blend-mode:multiply" opacity="0.5">
<path d="M250.647 345.88C245.963 346.932 240.852 345.308 238.999 344.585C237.146 343.862 231.8 347.345 231.8 347.345C234.165 345.202 236.081 343.178 236.081 343.178C236.081 343.178 228.43 349.686 226.257 346.955C224.084 344.225 228.559 337.466 228.559 337.466L225.896 336.402C225.896 336.402 222.532 344.773 222.845 350.824C222.983 353.379 225.374 352.395 228.099 350.407C228.135 350.434 236.482 357.126 243.704 355.579C250.925 354.033 254.813 348.26 256.232 345.655C257.652 343.05 255.332 344.828 250.647 345.88Z" fill="#A192C8"/>
</g>
<g style="mix-blend-mode:multiply" opacity="0.79">
<path d="M251.764 319.556C251.764 319.556 252.597 311.266 250.515 307.501C248.433 303.736 245.189 309.764 245.189 309.764L243.296 306.407C243.296 306.407 246.826 302.76 249.634 302.868C252.442 302.976 255.385 307.215 251.764 319.556Z" fill="#A192A4"/>
</g>
<g style="mix-blend-mode:multiply" opacity="0.79">
<path d="M236.081 343.178C236.081 343.178 228.43 349.686 226.257 346.955C224.084 344.225 228.559 337.466 228.559 337.466L225.896 336.402C225.896 336.402 222.532 344.773 222.845 350.824C223.155 356.853 236.09 343.165 236.09 343.165L236.081 343.178Z" fill="#A192A4"/>
</g>
<path opacity="0.5" d="M240.375 339.552C240.375 339.552 248.893 327.954 251.161 323.152C251.161 323.152 261.777 336.808 257.417 341.182C253.056 345.556 240.375 339.552 240.375 339.552Z" fill="url(#paint39_linear_329_181)"/>
<g style="mix-blend-mode:screen" opacity="0.51">
<path d="M265.158 319.308C265.9 324.406 261.391 337.146 256.232 345.655C255.801 346.358 255.351 347.009 254.889 347.651C258.192 340.68 249.474 326.621 244.999 332.543C240.231 338.855 232.423 346.766 232.423 346.766C229.65 349.707 246.581 354.58 252.988 349.934C248.014 355.178 241.639 357.092 236.552 357.007C233.154 356.951 230.979 356.328 233.781 357.915C236.584 359.501 242.587 361.661 248.189 358.445C253.803 355.239 261.675 340.267 264.859 329.576C268.042 318.884 269.888 316.598 264.066 310.925C258.244 305.251 264.417 314.21 265.146 319.299L265.158 319.308Z" fill="#838CA3"/>
</g>
<g style="mix-blend-mode:multiply" opacity="0.5">
<path d="M249.625 302.88C246.817 302.772 243.287 306.419 243.287 306.419L245.18 309.776C245.18 309.776 248.436 303.757 250.506 307.513C252.588 311.278 251.755 319.568 251.755 319.568C252.171 318.15 252.496 316.854 252.748 315.656C252.498 319.364 251.617 323.989 254.184 328.858C254.988 330.372 256.342 332.242 257.792 336.37C259.242 340.497 259.111 339.886 261.18 334.156C263.249 328.427 264.642 321.24 261.936 316.913C259.711 313.364 254.921 308.901 253.262 307.411C252.731 304.238 251.155 302.943 249.625 302.88Z" fill="#A192C8"/>
</g>
<path d="M235.175 343.905C231.453 348.263 237.977 344.351 241.327 340.361C244.69 336.38 250.757 324.731 247.716 328.307C244.676 331.883 236.309 342.569 235.163 343.896L235.175 343.905Z" fill="#E8E6ED"/>
<path d="M253.981 353.149C253.033 354.643 251.957 350.549 252.869 348.875C253.79 347.19 259.961 343.393 259.189 345.742C258.418 348.091 253.972 353.161 253.972 353.161L253.981 353.149Z" fill="#E8E6ED"/>
<path d="M239.212 345.163C242.267 340.552 244.614 337.521 244.913 339.684C245.212 341.846 245.009 343.69 243.644 344.777C242.279 345.864 237.111 348.321 239.212 345.163Z" fill="#E8E6ED"/>
<g style="mix-blend-mode:multiply" opacity="0.5">
<path d="M266.555 376.977C266.567 368.033 267.066 362.877 271.442 372.713C275.809 382.561 274.501 390.723 275.835 394.65C277.169 398.577 298.392 415.504 307.596 420.138C316.8 424.772 306.286 423.966 295.783 418.985C285.28 414.005 273.333 405.624 270.309 398.474C266.141 388.641 266.545 381.455 266.552 376.956L266.555 376.977Z" fill="#A192C8"/>
</g>
<g style="mix-blend-mode:multiply" opacity="0.5">
<path d="M281.928 330.561C286.281 331.067 288.955 329.553 295.853 327.119C302.772 324.681 315.941 331.887 329.319 342.062C342.696 352.236 329.817 334.776 319.203 326.139C308.592 317.523 300.689 310.823 294.657 312.557C288.613 314.282 278.624 330.177 281.928 330.561Z" fill="#A192C8"/>
</g>
<g style="mix-blend-mode:screen" opacity="0.7">
<path d="M293.957 325.185C296.266 325.299 305.956 327.941 307.093 326.55C308.23 325.159 304.404 314.006 299.643 312.776C294.894 311.556 291.013 313.134 290.647 318.543C290.291 323.94 291.067 325.034 293.945 325.176L293.957 325.185Z" fill="#B48CAE"/>
</g>
<g style="mix-blend-mode:screen" opacity="0.9">
<path d="M267.665 390.335C267.544 382.888 270.951 377.705 272.301 381.358C273.65 385.011 276.172 391.766 274.029 395.691C271.886 399.617 269.908 398.021 268.994 394.979C268.08 391.938 267.675 390.323 267.675 390.323L267.665 390.335Z" fill="#B48CAE"/>
</g>
<g style="mix-blend-mode:multiply" opacity="0.5">
<path d="M333.141 429.849C343.993 432.107 362.643 436.842 369.797 434.675C376.95 432.509 359.066 439.105 351.673 437.861C344.281 436.618 329.315 431.354 324.939 429.179C320.561 426.982 322.648 427.671 333.141 429.849Z" fill="#A60045"/>
</g>
<g style="mix-blend-mode:multiply" opacity="0.5">
<path d="M375.319 401.787C372.093 392.623 362.746 381.533 360.907 375.897C359.055 370.252 370.489 384.236 373.032 389.62C375.583 394.991 376.942 406.367 375.319 401.787Z" fill="#A60045"/>
</g>
<g style="mix-blend-mode:multiply" opacity="0.5">
<path d="M348.994 361.916C345.247 356.238 337.477 349.334 339.851 350.504C342.224 351.674 351.39 359.073 351.39 359.073L348.994 361.916Z" fill="#A60045"/>
</g>
<path d="M306.49 331.211C313.725 333.78 314.576 333.354 319.031 336.616C323.486 339.877 308.459 327.592 302.923 327.17C297.386 326.747 286.789 330.744 293.123 330.357C299.468 329.979 303.408 330.099 306.499 331.198L306.49 331.211Z" fill="#E8E6ED"/>
<g style="mix-blend-mode:screen" opacity="0.5">
<path d="M322.183 344.204C324.858 347.254 325.703 352.087 324.826 356.733C323.958 361.367 316.188 366.664 312.881 373.234C309.565 379.816 301.404 388.147 298.007 390.373C294.622 392.607 286.683 395.441 291.717 394.328C300.422 391.08 311.443 381.546 316.669 375.103C322.175 368.337 330.443 352.559 322.659 341.691C320.039 338.72 319.508 341.154 322.192 344.192L322.183 344.204Z" fill="#C41A67"/>
</g>
<g style="mix-blend-mode:screen" opacity="0.75">
<path d="M310.889 381.321C319.704 372.929 322.284 366.442 323.657 362.909C325.043 359.386 317.302 369.59 315.292 371.03C313.282 372.47 311.907 378.416 310.295 380.82C308.684 383.224 307.474 384.56 310.877 381.312L310.889 381.321Z" fill="#C41A67"/>
</g>
<path style="mix-blend-mode:multiply" opacity="0.57" d="M348.083 366.175C371.433 392.946 363.045 404.471 358.701 411.917C354.345 419.355 334.541 430.898 316.793 422.904C299.055 414.898 291.329 416.712 302.98 424.396C307.711 426.63 313.048 428.917 319.094 431.299C350.69 443.663 383.013 445.09 388.358 438.793C395.162 430.777 379.324 392.813 362.066 369.277C348.402 350.657 333.718 336.824 320.283 325.94C309.599 317.878 325.884 340.762 348.062 366.179L348.083 366.175Z" fill="url(#paint40_linear_329_181)"/>
<path style="mix-blend-mode:multiply" opacity="0.26" d="M278.517 384.78C280.841 377.417 284.565 371.863 299.152 366.218C313.739 360.572 316.001 357.553 314.783 347.308C313.562 337.042 316.197 339.282 318.538 343.26C320.882 347.259 324.191 352.304 322.161 356.333C320.131 360.362 310.104 361.213 304.442 365.144C298.77 369.087 303.908 368.469 310.003 364.977C316.097 361.484 324.385 358.133 319.286 362.276C314.186 366.419 310.345 368.198 305.771 377.677C301.196 387.155 291.086 391.289 285.775 390.236C280.463 389.184 277.004 389.615 278.529 384.789L278.517 384.78Z" fill="url(#paint41_linear_329_181)"/>
<path style="mix-blend-mode:screen" d="M300.637 409.26C289.842 398.454 275.55 374.612 282.139 360.161C288.715 345.701 288.18 345.604 299.152 366.218C310.134 386.819 324.262 395.789 327.949 397.259C331.637 398.729 329.441 419.721 326.923 421.712C324.405 423.703 310.851 419.497 300.64 409.281L300.637 409.26Z" fill="url(#paint42_linear_329_181)"/>
<path style="mix-blend-mode:screen" opacity="0.44" d="M360.56 397.971C364.327 407.503 362.614 419.885 365.032 418.941C367.45 417.997 367.853 406.248 365.69 399.952C363.527 393.656 356.251 387.083 360.56 397.971Z" fill="url(#paint43_linear_329_181)"/>
<g style="mix-blend-mode:multiply" opacity="0.67">
<path d="M356.378 441.196C356.378 441.196 372.284 411.545 375.831 391.565L386.404 415.072L386.949 417.362C386.949 417.362 381.414 435.606 368.397 442.351L366.919 442.346L356.378 441.196Z" fill="#6E2F9B"/>
</g>
<path d="M318.497 352.371C309.642 353.435 309.792 348.644 309.602 347.323C309.206 344.707 314.879 344.415 316.897 345.984C318.914 347.552 320.933 352.087 318.509 352.381L318.497 352.371Z" fill="#E8E6ED"/>
<path d="M326.163 353.858C324.075 351.495 324.14 353.083 323.578 354.392C323.015 355.7 329.73 357.899 326.163 353.858Z" fill="#E8E6ED"/>
<path d="M306.589 385.056C312.832 380.63 316.28 375.876 317.387 374.272C318.502 372.656 312.459 376.587 311.374 378.72C310.298 380.841 300.464 389.401 306.58 385.069L306.589 385.056Z" fill="#E8E6ED"/>
<g style="mix-blend-mode:multiply" opacity="0.67">
<path d="M295.092 417.27C295.092 417.27 298.629 421.478 302.94 422.446C307.26 423.402 310.185 421.527 303.097 414.296C296 407.078 279.523 382.778 275.691 370.593C271.859 358.408 271.993 359.573 272.674 359.019C273.343 358.456 310.097 400.287 310.097 400.287C310.097 400.287 321.953 410.69 324.357 411.845C326.761 413 329.445 409.062 328.191 407.818C326.946 406.562 303.28 387.824 293.198 378.274C283.116 368.724 273.481 353.656 273.481 353.656C273.481 353.656 268.658 357.151 267.928 357.516C267.198 357.881 270.771 374.928 273.964 379.392C277.169 383.865 295.089 417.249 295.089 417.249L295.092 417.27Z" fill="#6E2F9B"/>
</g>
<path d="M264.693 354.199C264.693 354.199 274.969 389.668 288.815 422.603L292.253 423.544C292.253 423.544 292.471 419.754 298.654 415.966C298.654 415.966 270.676 374.572 268.441 354.042C268.441 354.042 298.336 392.596 319.822 414.549L322.709 414.298L325.357 411.169C325.357 411.169 285.631 375.056 269.2 351.455L264.681 354.19L264.693 354.199Z" fill="#98193B"/>
<g style="mix-blend-mode:multiply" opacity="0.47">
<path d="M293.451 413.931C293.451 413.931 288.789 418.402 288.815 422.603L292.253 423.544C292.253 423.544 292.471 419.754 298.654 415.966C298.654 415.966 272.883 377.841 268.822 356.627L266.302 353.218L264.681 354.19C264.681 354.19 265.683 357.621 267.468 363.33L268.718 362.118C268.718 362.118 279.54 394.803 293.451 413.931Z" fill="#9E2E46"/>
</g>
<g style="mix-blend-mode:multiply" opacity="0.47">
<path d="M268.432 354.054C268.432 354.054 269.673 355.668 271.85 358.42L272.649 357.48C284.423 374.893 322.696 411.17 322.696 411.17L319.826 414.57L322.712 414.319L325.361 411.19C325.361 411.19 285.634 375.078 269.203 351.477L266.314 353.227L268.834 356.636C268.663 355.748 268.529 354.887 268.432 354.054Z" fill="#9E2E46"/>
</g>
<g style="mix-blend-mode:multiply" opacity="0.79">
<path d="M285.222 413.828C285.222 413.828 288.32 409.516 290.875 409.074C293.43 408.631 294.912 410.255 294.912 410.255L293.671 408.412L291.424 404.029C291.424 404.029 285.841 402.831 285.349 404.325C284.857 405.819 283.676 411.91 283.676 411.91L285.219 413.807L285.222 413.828Z" fill="#9E2E46"/>
</g>
<g style="mix-blend-mode:multiply" opacity="0.79">
<path d="M317.348 411.916C317.348 411.916 319.952 411.89 321.05 410.602C322.135 409.306 321.986 407.958 321.986 407.958L320.193 406.444L317.348 411.916Z" fill="#9E2E46"/>
</g>
<path d="M256.193 354.027L259.041 355.248C259.041 355.248 263.621 350.81 266.906 344.624C270.201 338.425 270.305 332.858 270.305 332.858L268.166 331.122C268.166 331.122 269.564 328.673 270.367 328.514C271.17 328.355 272.851 330.526 274.788 330.325C276.726 330.123 277.383 329.246 278.438 328.878C279.506 328.518 283.546 335.936 277.165 347.673C270.785 359.41 264.998 362.695 264.195 362.854C263.392 363.012 261.839 360.062 259.718 358.606C257.597 357.15 255.787 356.802 255.404 356.476C255.02 356.151 256.206 354.036 256.206 354.036L256.193 354.027Z" fill="url(#paint44_linear_329_181)"/>
<path d="M268.175 331.11C268.175 331.11 269.053 328.822 270.376 328.502C271.691 328.194 274.124 341.535 268.223 350.02C262.322 358.505 255.769 357.13 255.401 356.455C255.044 355.789 256.203 354.015 256.203 354.015L259.175 354.969C259.175 354.969 269.118 345.426 270.193 333.059L268.163 331.101L268.175 331.11Z" fill="#A9244C"/>
<path d="M352.968 440.675L348.349 439.838C348.349 439.838 344.3 431.444 352.088 404.13C359.876 376.817 365.076 373.68 365.076 373.68L367.648 377.451C367.648 377.451 368.414 374.451 368.568 372.495C368.719 370.518 357.145 351.012 354.218 350.682C351.158 350.327 337.44 375.916 333.8 400.103C330.16 424.29 334.252 438.969 336.964 441.514C339.675 444.059 347.478 443.765 349.397 443.284C351.317 442.802 352.968 440.675 352.968 440.675Z" fill="url(#paint45_linear_329_181)"/>
<path d="M353.357 440.738L356.369 441.208C356.369 441.208 374.884 415.659 375.822 391.577L374.09 388.36C374.09 388.36 377.67 387.411 378.729 388.281C380.007 389.315 386.1 408.705 386.773 411.966C387.447 415.226 377.458 431.881 371.541 437.902C365.624 443.923 364.182 444.325 363.437 444.432C362.689 444.518 356.169 443.91 355.393 443.423C354.629 442.946 353.336 440.741 353.336 440.741L353.357 440.738Z" fill="url(#paint46_linear_329_181)"/>
<path d="M287.878 407.721C289.8 406.424 293.059 408.087 293.683 408.421C296.377 400.233 285.792 387.094 278.002 390.438C269.097 394.258 275.485 413.66 285.347 414.017L285.222 413.828C285.222 413.828 285.737 409.159 287.878 407.721Z" fill="url(#paint47_linear_329_181)"/>
<path d="M309.155 395.836C309.841 400.095 305.333 398.731 305.32 398.722C303.92 404.573 313.468 416.003 319.723 410.673C324.014 407.026 315.121 395.991 309.164 395.824L309.155 395.836Z" fill="url(#paint48_linear_329_181)"/>
<path style="mix-blend-mode:multiply" opacity="0.5" d="M216.25 258.468C217.917 259.337 224.417 265.272 225.616 266.36C220.805 261.9 206.862 245.353 205.249 243.726C203.265 241.707 198.177 237.591 198.177 237.591C198.177 237.591 199.17 241.49 200.779 247.029C200.072 244.523 203.824 247.581 209.08 252.869C209.801 253.58 214.406 257.505 216.25 258.468Z" fill="url(#paint49_linear_329_181)"/>
<path style="mix-blend-mode:screen" opacity="0.53" d="M197.886 226.387C195.129 216.623 190.936 194.342 195.203 198.793C199.47 203.244 221.012 227.405 221.485 231.618C221.968 235.819 199.903 233.562 197.877 226.399L197.886 226.387Z" fill="url(#paint50_linear_329_181)"/>
<path style="mix-blend-mode:screen" opacity="0.53" d="M207.653 264.819C203.402 255.095 200.986 246.956 204.486 250.148C207.985 253.341 221.473 266.411 222.877 270.295C224.29 274.167 209.172 268.295 207.653 264.819Z" fill="url(#paint51_linear_329_181)"/>
<path style="mix-blend-mode:screen" opacity="0.53" d="M240.594 277.012C239.712 270.25 239.326 244.206 241.013 248.093C242.7 251.98 246.893 261.223 246.977 265.828C247.061 270.434 241.18 281.632 240.594 277.012Z" fill="url(#paint52_linear_329_181)"/>
<path style="mix-blend-mode:screen" opacity="0.53" d="M260.273 291.965C259.158 286.834 259.471 272.946 261.921 276.55C264.372 280.153 269.506 286.338 268.078 288.651C266.649 290.964 261.252 296.443 260.273 291.965Z" fill="url(#paint53_linear_329_181)"/>
<g style="mix-blend-mode:screen" opacity="0.5">
<path d="M220.801 223.655C212.641 214.177 199.947 201.72 196.423 198.281C192.887 194.834 210.02 217.041 213.571 219.378C217.131 221.704 225.883 229.553 220.813 223.664L220.801 223.655Z" fill="#C41A67"/>
</g>
<g style="mix-blend-mode:screen" opacity="0.5">
<path d="M204.774 248.749C202.342 246.718 210.092 256.82 213.631 259.985C217.17 263.149 227.423 272.903 221.358 266.135C215.283 259.378 206.612 250.278 204.774 248.749Z" fill="#C41A67"/>
</g>
<g style="mix-blend-mode:screen" opacity="0.5">
<path d="M247.976 260.665C247.288 258.743 244.645 253.038 243.125 250.094C241.606 247.15 246.092 259.197 247.138 263.535C248.192 267.86 249.475 274.163 249.267 271.041C249.047 267.911 248.567 262.287 247.988 260.675L247.976 260.665Z" fill="#C41A67"/>
</g>
<path d="M228.307 305.536C227.863 311.076 222.519 320.643 213.835 323.203C213.835 323.203 220.941 322.521 225.012 317.721C229.074 312.934 228.316 305.523 228.316 305.523L228.307 305.536Z" fill="#E28959"/>
<path d="M219.011 333.391C219.011 333.391 232.571 323.232 237.494 311.107C237.494 311.107 237.095 331.602 219.011 333.391Z" fill="#E28959"/>
<g style="mix-blend-mode:multiply" opacity="0.47">
<path d="M236.177 318.521C234.987 323.94 238.558 331.881 232.335 332.806C226.111 333.731 220.639 334.364 220.639 334.364C220.639 334.364 228.203 337.788 229.739 337.818C231.275 337.847 235.721 334.906 240.467 327.913C245.225 320.929 247.358 316.711 246.977 313.441C246.595 310.171 240.814 301.525 240.814 301.525C240.814 301.525 237.736 308.779 237.515 311.104C237.245 313.848 236.787 315.804 236.198 318.518L236.177 318.521Z" fill="#9E2E46"/>
</g>
<g style="mix-blend-mode:multiply" opacity="0.47">
<path d="M345.415 406.467C340.777 429.754 343.399 443.503 348.047 443.488C348.625 443.427 349.093 443.36 349.419 443.281C351.338 442.799 352.989 440.672 352.989 440.672L348.371 439.835C348.371 439.835 344.321 431.441 352.109 404.127C359.897 376.813 365.098 373.677 365.098 373.677L367.67 377.448C367.67 377.448 368.435 374.448 368.589 372.492C362.668 355.891 350.062 383.168 345.415 406.467Z" fill="#6E2F9B"/>
</g>
<g style="mix-blend-mode:screen" opacity="0.57">
<path d="M374.099 388.347L375.831 391.565C374.893 415.647 356.378 441.196 356.378 441.196L353.366 440.726C353.366 440.726 354.648 442.922 355.424 443.408C357.389 443.322 358.089 443.96 368.808 427.168C379.517 410.388 381.275 394.142 378.769 388.253C377.71 387.384 374.13 388.332 374.13 388.332L374.099 388.347Z" fill="#5F316E"/>
</g>
<g style="mix-blend-mode:screen" opacity="0.57">
<path d="M335.71 439.586C335.71 439.586 326.828 401.038 352.676 351.674C352.676 351.674 322.74 394.116 335.71 439.586Z" fill="#5F316E"/>
</g>
<g style="mix-blend-mode:screen">
<path d="M332.608 421.125C333.274 427.972 334.817 407.726 335.845 401.863C336.874 396.001 340.59 377.496 345.267 367.753C349.944 358.009 337.292 378.219 334.568 395.527C331.844 412.836 332.62 421.134 332.62 421.134L332.608 421.125Z" fill="#5F316E"/>
</g>
<g style="mix-blend-mode:multiply" opacity="0.67">
<path d="M349.406 443.271C351.326 442.79 352.977 440.662 352.977 440.662L348.359 439.825C348.359 439.825 345.909 432.212 353.697 404.899C361.485 377.585 365.097 373.677 365.097 373.677L367.67 377.448C367.67 377.448 368.435 374.448 368.589 372.492C368.74 370.514 357.166 351.008 354.24 350.678C354.097 350.666 353.92 350.724 353.729 350.828C350.315 355.816 346.324 363.451 342.529 375.11C339.482 384.479 346.165 397.145 345.932 401.134C345.691 405.134 341.68 424.007 340.802 425.763C339.921 427.497 334.804 427.883 334.672 432.194C334.552 436.514 339.193 440.77 342.422 443.436C345.306 443.773 348.318 443.558 349.41 443.293L349.406 443.271Z" fill="#6E2F9B"/>
</g>
<g style="mix-blend-mode:multiply">
<path d="M284.345 412.487L277.352 392.879C277.352 392.879 280.779 388.888 283.281 391.333L291.616 405.751C291.616 405.751 285.951 403.293 284.358 412.497L284.345 412.487Z" fill="#AD15AA"/>
</g>
<g style="mix-blend-mode:multiply">
<path d="M316.761 411.305C316.761 411.305 320.586 408.659 319.484 405.894L310.296 397.205C310.296 397.205 309.045 401.665 306.778 400.48L316.761 411.305Z" fill="#AD15AA"/>
</g>
<path style="mix-blend-mode:screen" d="M274.014 397.79C273.917 404.921 279.424 414.464 283.34 407.97C287.255 401.476 286.234 391.17 281.981 390.226C277.707 389.286 274.088 392.847 274.014 397.79Z" fill="url(#paint54_linear_329_181)"/>
<path style="mix-blend-mode:screen" d="M307.084 405.195C309.17 409.21 315.131 412.896 315.366 408.093C315.61 403.277 311.936 397.806 309.266 398.58C306.592 399.333 305.632 402.415 307.088 405.216L307.084 405.195Z" fill="url(#paint55_linear_329_181)"/>
<g style="mix-blend-mode:multiply" opacity="0.44">
<path d="M285.222 413.828C285.222 413.828 285.737 409.158 287.878 407.721C289.8 406.424 293.059 408.087 293.683 408.421C295.815 401.922 289.593 392.318 283.046 390.302C286.578 391.599 290.267 395.731 287.443 399.678C284.789 403.373 283.652 413.717 280.99 412.577C282.332 413.45 283.798 413.978 285.35 414.038L285.225 413.85L285.222 413.828Z" fill="#8700CA"/>
</g>
<g style="mix-blend-mode:multiply" opacity="0.44">
<path d="M319.736 410.682C324.026 407.035 315.133 396 309.176 395.833C309.863 400.092 305.354 398.729 305.342 398.719C304.738 402.468 307.03 399.585 308.016 399.031C308.989 398.468 311.413 397.034 314.326 400.984C317.251 404.943 316.429 412.026 312.018 410.735C314.556 412.294 317.382 412.682 319.745 410.67L319.736 410.682Z" fill="#8700CA"/>
</g>
<path style="mix-blend-mode:screen" d="M278.386 406.084C276.966 399.203 282.421 393.977 284.745 392.905C287.059 391.845 280.839 388.097 276.865 392.21C272.891 396.322 274.722 401.894 276 404.068C277.267 406.234 279.097 409.448 278.398 406.093L278.386 406.084Z" fill="url(#paint56_linear_329_181)"/>
<path style="mix-blend-mode:screen" d="M309.422 407.783C306.674 405.134 306.468 401.654 308.077 400.141C309.695 398.616 311.596 399.224 312.013 400.088C312.43 400.951 310.094 400.645 309.609 403.551C309.123 406.456 311.254 409.573 309.413 407.795L309.422 407.783Z" fill="url(#paint57_linear_329_181)"/>
<g style="mix-blend-mode:screen">
<path d="M274.679 400.531C273.987 397.066 274.968 394.59 276.96 393.326C278.952 392.062 277.407 399.705 276.638 401.315C275.869 402.925 275.136 402.736 274.691 400.54L274.679 400.531Z" fill="#DBDDFF"/>
</g>
<g style="mix-blend-mode:screen">
<path d="M308.064 404.903C307.374 405.545 306.524 402.57 307.305 401.35C308.086 400.129 310.007 403.07 308.064 404.903Z" fill="#DBDDFF"/>
</g>
<g style="mix-blend-mode:multiply" opacity="0.7">
<path d="M286.922 405.218C286.121 402.28 289.051 397.937 290.195 398.034C292.242 398.219 294.496 405.001 293.332 406.2C292.155 407.391 287.37 406.827 286.934 405.227L286.922 405.218Z" fill="#AD00CA"/>
</g>
<g style="mix-blend-mode:multiply" opacity="0.7">
<path d="M318.336 410.318C318.294 404.641 314.922 400.442 316.89 401.594C318.859 402.746 320.4 405.839 320.379 407.895C320.359 409.952 318.343 411.273 318.336 410.318Z" fill="#AD00CA"/>
</g>
<g style="mix-blend-mode:screen" opacity="0.5">
<path d="M259.45 356.733C259.45 356.733 273.226 354.148 271.97 334.847C271.97 334.847 269.709 347.808 259.45 356.733Z" fill="#A9244C"/>
</g>
<g style="mix-blend-mode:multiply" opacity="0.47">
<path d="M271.748 341.637C271.032 346.119 274.32 352.231 271.994 355.336C269.668 358.44 265.644 357.952 262.86 358.015C260.077 358.077 257.841 357.333 259.873 358.704C261.906 360.075 262.862 362.654 264.192 362.833C265.521 363.011 275.897 354.211 278.41 348.168C280.923 342.125 282.479 331.905 278.697 328.862C278.697 328.862 278.532 328.549 277.082 329.572C275.631 330.595 271.968 329.295 270.686 327.708C269.417 326.13 267.563 330.329 267.563 330.329C267.563 330.329 268.382 331.95 270.193 333.059C270.193 333.059 269.704 327.675 270.903 328.991C272.102 330.308 272.388 337.612 271.748 341.637Z" fill="#9E2E46"/>
</g>
<g style="mix-blend-mode:multiply" opacity="0.47">
<path d="M267.459 363.342C267.459 363.342 267.991 361.288 268.489 360.825C268.997 360.351 269.812 360.809 269.812 360.809L269.279 358.68L266.716 360.96L267.459 363.342Z" fill="#9E2E46"/>
</g>
<g style="mix-blend-mode:multiply" opacity="0.47">
<path d="M271.64 358.168C271.64 358.168 272.147 357.237 272.597 357.042C273.026 356.85 273.166 356.841 273.166 356.841L272.137 355.5L270.851 357.14L271.649 358.156L271.64 358.168Z" fill="#9E2E46"/>
</g>
<g style="mix-blend-mode:screen">
<path d="M358.023 438.798C358.023 438.798 364.437 436.857 371.847 421.995C379.257 407.133 375.502 396.469 375.502 396.469C375.502 396.469 374.275 414.215 358.023 438.798Z" fill="#5F316E"/>
</g>
<g style="mix-blend-mode:multiply" opacity="0.67">
<path d="M375.613 413.849C373.905 417.625 373.2 427.418 370.845 431.298C368.489 435.178 362.98 436.392 360.058 440.114C360.004 440.187 359.934 440.23 359.888 440.291C357.292 443.553 356.58 443.362 355.424 443.408C356.187 443.885 362.719 444.502 363.467 444.417C364.216 444.331 365.654 443.908 371.571 437.887C377.489 431.866 387.487 415.199 386.804 411.951C386.13 408.69 380.028 389.312 378.759 388.266C380.58 392.557 380.147 402.344 375.634 413.846L375.613 413.849Z" fill="#6E2F9B"/>
</g>
<g style="mix-blend-mode:multiply" opacity="0.47">
<path d="M233.833 231.119C233.833 231.119 219.943 230.786 217.014 210.42C217.014 210.42 231.013 224.482 233.833 231.119Z" fill="#6E2F9B"/>
</g>
<g style="mix-blend-mode:multiply" opacity="0.47">
<path d="M252.977 259.698C252.977 259.698 242.999 260.206 246.153 245.596C246.153 245.596 252.656 256.854 252.977 259.698Z" fill="#6E2F9B"/>
</g>
<g style="mix-blend-mode:multiply" opacity="0.47">
<path d="M279.947 294.066C279.947 294.066 265.731 292.899 269.645 276.311C269.645 276.311 279.68 289.095 279.947 294.066Z" fill="#6E2F9B"/>
</g>
<g style="mix-blend-mode:multiply" opacity="0.47">
<path d="M293.451 413.931L298.644 415.978C298.644 415.978 293.587 418.594 292.244 423.556L288.806 422.615C288.806 422.615 288.239 419.339 293.442 413.943L293.451 413.931Z" fill="#9E2E46"/>
</g>
<g style="mix-blend-mode:multiply" opacity="0.47">
<path d="M319.813 414.561L322.683 411.161L325.348 411.181L322.7 414.31L319.813 414.561Z" fill="#9E2E46"/>
</g>
<g style="mix-blend-mode:multiply" opacity="0.47">
<path d="M193.399 210.841C193.399 210.841 216.626 214.996 226.528 220.78L214.022 206.449L191.514 200.496L193.399 210.841Z" fill="#6E2F9B"/>
</g>
<path d="M248.925 366.087C248.414 366.236 201.217 380.426 147.793 345.398C104.766 317.191 83.5909 275.039 63.1247 234.273C58.168 224.401 53.0316 214.185 47.7495 204.545C18.6812 151.518 -5.29465 119.774 -37.7533 91.3118C-49.993 80.5828 -60.7499 72.9225 -68.5916 67.3324C-79.6407 59.4532 -85.7266 55.1215 -85.7867 49.8495C-85.8339 46.2599 -82.9451 43.6725 -80.7677 42.0346C-49.5636 18.523 0.391506 51.0282 14.9492 61.5551C35.4436 76.359 43.8955 92.9553 52.8345 110.525C63.4938 131.455 74.5031 153.084 107.476 174.519C136.505 193.38 151.78 196.1 185.23 202.06C192.188 203.3 200.082 204.71 208.975 206.412C237.49 211.906 263.611 231.096 277.141 256.515C288.214 277.299 289.629 299.761 281.129 319.756L278.191 320.101C278.646 316.374 278.714 313.061 279.422 310.57C284.239 293.841 282.044 275.717 272.993 258.729C260.118 234.542 235.235 216.26 208.07 211.018C199.199 209.314 191.338 207.909 184.38 206.669C151.311 200.785 134.73 197.829 104.898 178.442C70.8724 156.332 59.5737 134.125 48.6283 112.638C39.9481 95.5858 31.752 79.4853 12.1765 65.3319C-1.72695 55.2762 -49.33 24.1722 -77.9856 45.7536C-80.0931 47.3488 -81.1602 48.6971 -81.1354 49.7801C-81.1007 52.6762 -74.3849 57.4608 -65.9011 63.513C-57.9741 69.167 -47.1077 76.9094 -34.6945 87.7873C-2.21155 116.268 22.86 149.441 51.837 202.285C57.1617 211.996 62.3042 222.254 67.2883 232.166C87.5018 272.381 108.379 313.967 150.362 341.488C201.902 375.276 251.135 361.337 251.624 361.191L248.925 366.087Z" fill="url(#paint58_linear_329_181)"/>
<path d="M67.2953 136.147C72.8038 127.729 56.644 98.3633 46.6531 103.48C36.4615 108.712 49.9609 141.121 63.2687 138.528C63.2686 138.376 63.5103 134.527 67.2953 136.147Z" fill="url(#paint59_linear_329_181)"/>
<path d="M107.01 174.608C108.596 168.611 98.3273 164.89 95.5308 169.865C91.0564 177.841 99.6704 182.528 104.74 178.095C104.386 177.299 103.853 175.321 107.01 174.608Z" fill="#D50055"/>
<path d="M68.9233 235.538C74.6009 231.258 67.1046 222.391 61.4448 225.735C55.7972 229.087 58.3136 237.625 64.58 237.15C64.6225 236.84 65.4994 231.814 68.9111 235.529L68.9233 235.538Z" fill="#D50055"/>
<path style="mix-blend-mode:screen" d="M135.096 331.475C120.72 318.727 99.2884 297.615 98.8471 297.189C111.723 315.313 127.253 331.948 147.793 345.398C160.503 353.724 173.069 359.223 184.871 362.8C166.293 355.686 149.581 344.305 135.096 331.475Z" fill="url(#paint60_linear_329_181)"/>
<path style="mix-blend-mode:screen" d="M285.583 286.01C286.158 278.191 272.837 257.719 271.65 256.336C272.101 257.129 272.57 257.899 272.999 258.695C281.682 275.009 284.026 292.351 279.95 308.494C279.935 308.54 279.941 308.583 279.947 308.625C278.076 320.889 284.9 295.572 285.593 285.998L285.583 286.01Z" fill="url(#paint61_linear_329_181)"/>
<path style="mix-blend-mode:screen" d="M87.5771 165.617C94.0738 170.237 87.2166 162.116 82.7091 156.819C78.2289 151.561 64.5349 140.313 69.1311 146.608C74.1106 152.923 80.0818 159.26 87.5649 165.608L87.5771 165.617Z" fill="url(#paint62_linear_329_181)"/>
<path style="mix-blend-mode:screen" d="M198.788 209.253C214.057 212.007 190.201 204.15 172.31 201.446C154.431 198.752 122.996 189.037 132.41 193.467C148.229 200.206 162.801 202.799 184.398 206.645C188.813 207.424 193.619 208.288 198.797 209.241L198.788 209.253Z" fill="url(#paint63_linear_329_181)"/>
<g opacity="0.65">
<path d="M71.7472 109.064C63.5264 96.5044 49.1529 91.3695 39.6431 97.5951C30.1333 103.821 29.0883 119.049 37.3091 131.609C45.5298 144.169 59.9033 149.304 69.4132 143.078C78.923 136.852 79.968 121.624 71.7472 109.064Z" fill="url(#paint64_radial_329_181)" style="mix-blend-mode:screen"/>
</g>
<path style="mix-blend-mode:screen" d="M1.96746 58.4622C1.96746 58.4622 2.02832 58.5078 2.05266 58.5261C6.26702 61.1704 9.75424 63.5931 12.1795 65.3531C27.1966 76.2053 35.5127 88.2141 42.4935 100.914C45.5279 104.347 35.5007 81.7617 27.1835 74.0667C18.7902 66.2956 -3.172 55.0487 -0.0438456 57.2404C0.610362 57.6355 1.25545 58.0428 1.87619 58.4318C1.90053 58.4501 1.92487 58.4683 1.94922 58.4866L1.96746 58.4622Z" fill="url(#paint65_linear_329_181)"/>
<g opacity="0.57">
<path d="M73.9019 239.877C69.259 244.932 61.3833 245.247 56.3285 240.604C51.2736 235.962 50.9599 228.086 55.6029 223.03C60.2459 217.975 68.1216 217.66 73.1764 222.303C78.2312 226.945 78.5449 234.821 73.9019 239.877Z" fill="url(#paint66_radial_329_181)" style="mix-blend-mode:screen"/>
</g>
<g style="mix-blend-mode:multiply" opacity="0.65">
<path d="M63.9405 235.569C63.9405 235.569 65.2836 232.203 67.6753 233.729L64.4569 226.813C64.4569 226.813 61.2932 226.8 60.5885 229.389L63.9283 235.559L63.9405 235.569Z" fill="#B04247"/>
</g>
<g style="mix-blend-mode:multiply" opacity="0.65">
<path d="M103.097 177.245C103.097 177.245 102.015 173.944 105.513 173.334L99.1474 168.869C99.1474 168.869 96.471 170.285 96.7217 173.096L103.084 177.235L103.097 177.245Z" fill="#B04247"/>
</g>
<g style="mix-blend-mode:multiply">
<path d="M61.7134 136.774C61.7134 136.774 60.5622 133.668 65.6819 133.684C65.6819 133.684 55.4601 118.308 50.8309 105.868C50.8309 105.868 48.0254 104.185 46.028 107.079C46.028 107.079 49.7404 116.76 61.7226 136.761L61.7134 136.774Z" fill="#AD15AA"/>
</g>
<path d="M49.3437 197.775C52.2594 187.111 37.1711 159.536 26.4537 165.876C13.9329 173.278 30.2195 207.396 46.2576 201.488C46.2576 201.488 45.4708 196.983 49.3437 197.775Z" fill="url(#paint67_linear_329_181)"/>
<g opacity="0.65">
<path d="M53.196 172.341C61.418 184.906 60.372 200.127 50.8562 206.359C41.3404 212.592 26.9676 207.449 18.7487 194.905C10.5267 182.339 11.5727 167.119 21.0885 160.886C30.6043 154.654 44.9771 159.796 53.196 172.341Z" fill="url(#paint68_radial_329_181)" style="mix-blend-mode:screen"/>
</g>
<g style="mix-blend-mode:multiply">
<path d="M26.6189 168.014L44.8787 199.371C44.8787 199.371 44.8307 194.109 48.345 195.734L31.5527 166.959C31.5527 166.959 29.663 165.676 26.6281 168.002L26.6189 168.014Z" fill="#AD15AA"/>
</g>
<path style="mix-blend-mode:screen" d="M22.7517 180.151C25.0672 188.425 34.7023 197.582 37.0104 188.744C39.3185 179.905 34.6257 168.311 29.3753 168.673C24.1158 169.047 21.1339 174.397 22.7395 180.142L22.7517 180.151Z" fill="url(#paint69_linear_329_181)"/>
<g style="mix-blend-mode:multiply" opacity="0.65">
<path d="M44.0334 200.373C44.0334 200.373 45.691 192.529 48.7074 196.595C48.7074 196.595 50.5978 178.548 33.3749 167.013C31.823 165.964 29.9002 165.512 28.1087 166.051C24.4435 167.164 23.6452 171.222 23.6331 171.213C21.0655 177.938 23.1279 170.797 27.1336 169.179C29.1166 168.384 35.5605 170.437 39.4489 178.919C43.3281 187.414 39.0748 200.269 31.3676 196.148C35.4669 200.037 39.9884 202.322 44.0425 200.361L44.0334 200.373Z" fill="#814283"/>
</g>
<path style="mix-blend-mode:screen" d="M26.0487 185.872C21.9759 179.893 22.9374 173.334 26.523 171.135C30.1086 168.937 33.4069 170.8 33.864 172.549C34.3119 174.31 30.0798 172.831 28.0561 178.043C26.0202 183.246 28.77 189.849 26.0578 185.86L26.0487 185.872Z" fill="url(#paint70_linear_329_181)"/>
<g style="mix-blend-mode:screen">
<path d="M24.6407 179.989C23.1019 180.927 22.6947 175.053 24.5982 173.096C26.5017 171.138 28.9562 177.349 24.6407 179.989Z" fill="#DBDDFF"/>
</g>
<g style="mix-blend-mode:multiply" opacity="0.65">
<path d="M40.109 193.004C42.2369 182.453 37.5938 173.329 40.8044 176.248C44.015 179.166 48.2096 185.16 47.3625 188.954C46.5063 192.76 39.7356 194.796 40.0968 192.995L40.109 193.004Z" fill="#814283"/>
</g>
<path style="mix-blend-mode:screen" d="M43.7408 115.002C44.891 122.725 52.8533 132.644 56.1629 125.335C59.4725 118.026 56.4895 106.915 51.4668 106.212C46.4441 105.509 42.9385 109.63 43.7408 115.002Z" fill="url(#paint71_linear_329_181)"/>
<g style="mix-blend-mode:multiply" opacity="0.65">
<path d="M61.3545 136.923C61.3545 136.923 63.9222 130.35 66.2572 134.514C66.2572 134.514 70.3177 119.024 55.4668 105.54C54.1308 104.33 52.3661 103.54 50.6017 103.663C46.9879 103.921 45.727 107.328 45.7148 107.319C42.4378 112.733 45.2887 106.848 49.2826 106.21C51.2689 105.892 57.0957 108.947 59.7185 117.165C62.3291 125.374 56.6693 135.845 49.8956 130.732C53.2923 134.95 57.2786 137.822 61.3637 136.911L61.3545 136.923Z" fill="#814283"/>
</g>
<path style="mix-blend-mode:screen" d="M46.1495 120.665C43.044 114.613 44.7877 109.039 48.4589 107.817C52.1301 106.595 55.0301 108.863 55.2316 110.496C55.4331 112.13 51.6205 110.014 49.0366 114.199C46.4527 118.383 48.2289 124.713 46.1495 120.665Z" fill="url(#paint72_linear_329_181)"/>
<g style="mix-blend-mode:screen">
<path d="M45.5661 115.229C43.9905 115.759 44.3472 110.514 46.4031 109.165C48.4589 107.817 49.9946 113.757 45.5661 115.229Z" fill="#DBDDFF"/>
</g>
<g style="mix-blend-mode:multiply" opacity="0.65">
<path d="M58.5771 129.672C61.9255 120.814 58.691 111.891 61.3542 115.083C64.0173 118.276 67.2445 124.343 65.9622 127.526C64.6798 130.709 57.9997 131.178 58.5771 129.672Z" fill="#814283"/>
</g>
<g opacity="0.57">
<path d="M109.648 181.944C105.005 187 97.1294 187.314 92.0746 182.672C87.0198 178.029 86.6939 170.144 91.3491 165.098C95.992 160.042 103.868 159.728 108.923 164.37C113.977 169.013 114.303 176.898 109.648 181.944Z" fill="url(#paint73_radial_329_181)" style="mix-blend-mode:screen"/>
</g>
<path style="mix-blend-mode:screen" d="M94.6208 175.646C95.7535 178.243 100.171 179.196 101.13 175.125C102.078 171.045 99.6339 168.321 97.2618 169.889C94.9019 171.466 93.8412 173.846 94.6208 175.646Z" fill="url(#paint74_linear_329_181)"/>
<g style="mix-blend-mode:multiply" opacity="0.65">
<path d="M104.399 177.764C104.399 177.764 103.604 175.477 106.718 174.237C106.718 174.237 107.12 167.486 99.2564 167.658C98.5415 167.674 97.6777 168.015 96.8749 168.706C95.2328 170.136 94.9233 171.919 94.9142 171.931C93.8357 175.248 94.683 171.91 96.4679 170.187C97.3467 169.344 99.6645 168.838 101.509 171.094C103.341 173.341 102.151 179.064 98.6471 179.556C100.53 179.96 102.59 179.621 104.399 177.764Z" fill="#B04247"/>
</g>
<path style="mix-blend-mode:screen" d="M96.1606 176.99C93.9672 176.696 93.8866 173.252 95.4829 171.426C97.0791 169.6 99.324 169.115 99.5463 169.681C99.7686 170.246 97.8524 170.825 96.9926 173.394C96.1237 175.974 97.7091 177.181 96.1698 176.978L96.1606 176.99Z" fill="url(#paint75_linear_329_181)"/>
<g style="mix-blend-mode:multiply" opacity="0.65">
<path d="M102.19 176.451C103.039 171.766 100.863 169.47 102.336 169.737C103.808 170.004 105.762 171.201 105.41 172.914C105.057 174.627 102.044 177.254 102.19 176.451Z" fill="#B04247"/>
</g>
<path style="mix-blend-mode:screen" d="M58.432 230.187C58.2264 232.922 61.589 235.765 64.2495 232.721C66.9191 229.665 66.0536 226.204 63.3098 226.467C60.566 226.73 58.5742 228.298 58.432 230.187Z" fill="url(#paint76_linear_329_181)"/>
<g style="mix-blend-mode:multiply" opacity="0.65">
<path d="M64.4824 236.545C64.4824 236.545 64.249 231.504 69.4582 234.495C69.4582 234.495 72.872 228.898 66.0442 225.455C65.4235 225.142 64.5291 225.042 63.5192 225.274C61.4691 225.753 60.3746 227.138 60.3746 227.138C57.9298 229.488 60.192 227.001 62.5006 226.355C63.6382 226.029 65.0986 226.591 65.6474 229.359C66.1962 232.127 63.3447 236.567 60.1196 235.367C61.5529 236.574 62.6908 237.008 64.4915 236.533L64.4824 236.545Z" fill="#B04247"/>
</g>
<path style="mix-blend-mode:screen" d="M59.1416 232.03C57.398 230.781 58.8934 227.796 61.0863 226.949C63.2915 226.111 65.4333 226.727 65.3636 227.302C65.2939 227.877 63.3924 227.498 61.4798 229.315C59.5671 231.133 60.3741 232.897 59.1386 232.009L59.1416 232.03Z" fill="url(#paint77_linear_329_181)"/>
<g style="mix-blend-mode:multiply" opacity="0.65">
<path d="M63.7789 234.668C66.649 231.041 65.8111 228.075 66.9614 228.975C68.1117 229.875 69.2229 231.791 68.1618 233.105C67.0885 234.411 63.2924 235.292 63.7789 234.668Z" fill="#B04247"/>
</g>
<g style="mix-blend-mode:multiply" opacity="0.79">
<path d="M249.629 368.268C249.847 366.454 255.15 368.052 255.15 368.052C255.15 368.052 250.962 363.774 252.555 359.645C252.555 359.645 249.481 358.064 248.287 359.507C248.287 359.507 247.162 361.896 247.845 364.536C248.527 367.176 249.638 368.256 249.638 368.256L249.629 368.268Z" fill="#A192A4"/>
</g>
<path d="M249.191 367.711C249.191 367.711 248.515 366.178 250.282 365.697C252.049 365.215 254.432 367.21 254.432 367.21L252.236 360.984C252.236 360.984 249.625 358.685 247.682 360.518C245.729 362.362 245.092 366.409 249.203 367.72L249.191 367.711Z" fill="#440937"/>
<path style="mix-blend-mode:screen" d="M246.878 366.207C247.846 367.274 251.044 363.208 251.272 361.839C251.499 360.47 249.138 359.309 247.669 360.508C246.201 361.708 245.472 364.659 246.878 366.207Z" fill="url(#paint78_linear_329_181)"/>
</g>
<defs>
<radialGradient id="paint0_radial_329_181" cx="0" cy="0" r="1" gradientUnits="userSpaceOnUse" gradientTransform="translate(307.656 793.463) rotate(-81.6368) scale(20.1925 20.7082)">
<stop stop-color="#EC8331"/>
<stop offset="1" stop-color="#864A1C" stop-opacity="0"/>
</radialGradient>
<radialGradient id="paint1_radial_329_181" cx="0" cy="0" r="1" gradientUnits="userSpaceOnUse" gradientTransform="translate(263.606 546.251) rotate(-81.6368) scale(27.4513 28.1524)">
<stop stop-color="#EC8331"/>
<stop offset="1" stop-color="#864A1C" stop-opacity="0"/>
</radialGradient>
<radialGradient id="paint2_radial_329_181" cx="0" cy="0" r="1" gradientUnits="userSpaceOnUse" gradientTransform="translate(403.467 700.149) rotate(-81.6368) scale(17.509 17.9561)">
<stop stop-color="#EC8331"/>
<stop offset="1" stop-color="#864A1C" stop-opacity="0"/>
</radialGradient>
<radialGradient id="paint3_radial_329_181" cx="0" cy="0" r="1" gradientUnits="userSpaceOnUse" gradientTransform="translate(179.896 780.165) rotate(-81.6368) scale(27.4513 28.1524)">
<stop stop-color="#EC8331"/>
<stop offset="1" stop-color="#864A1C" stop-opacity="0"/>
</radialGradient>
<radialGradient id="paint4_radial_329_181" cx="0" cy="0" r="1" gradientUnits="userSpaceOnUse" gradientTransform="translate(394.812 603.52) rotate(-81.6368) scale(27.4513 28.1524)">
<stop stop-color="#EC8331"/>
<stop offset="1" stop-color="#864A1C" stop-opacity="0"/>
</radialGradient>
<radialGradient id="paint5_radial_329_181" cx="0" cy="0" r="1" gradientUnits="userSpaceOnUse" gradientTransform="translate(77.5865 400.479) rotate(-81.6368) scale(27.4513 28.1524)">
<stop stop-color="#EC8331"/>
<stop offset="1" stop-color="#864A1C" stop-opacity="0"/>
</radialGradient>
<radialGradient id="paint6_radial_329_181" cx="0" cy="0" r="1" gradientUnits="userSpaceOnUse" gradientTransform="translate(11.1142 946.969) rotate(-81.6368) scale(27.4513 28.1524)">
<stop stop-color="#EC8331"/>
<stop offset="1" stop-color="#864A1C" stop-opacity="0"/>
</radialGradient>
<radialGradient id="paint7_radial_329_181" cx="0" cy="0" r="1" gradientUnits="userSpaceOnUse" gradientTransform="translate(329.437 659.561) rotate(-81.6368) scale(27.4513 28.1524)">
<stop stop-color="#EC8331"/>
<stop offset="1" stop-color="#864A1C" stop-opacity="0"/>
</radialGradient>
<radialGradient id="paint8_radial_329_181" cx="0" cy="0" r="1" gradientUnits="userSpaceOnUse" gradientTransform="translate(63.7426 872.945) rotate(-81.6368) scale(27.4513 28.1524)">
<stop stop-color="#EC8331"/>
<stop offset="1" stop-color="#864A1C" stop-opacity="0"/>
</radialGradient>
<radialGradient id="paint9_radial_329_181" cx="0" cy="0" r="1" gradientUnits="userSpaceOnUse" gradientTransform="translate(262.398 676.453) rotate(-81.6368) scale(24.0639 24.6784)">
<stop stop-color="#EC8331"/>
<stop offset="1" stop-color="#864A1C" stop-opacity="0"/>
</radialGradient>
<radialGradient id="paint10_radial_329_181" cx="0" cy="0" r="1" gradientUnits="userSpaceOnUse" gradientTransform="translate(171.859 918.682) rotate(-81.6368) scale(24.0639 24.6784)">
<stop stop-color="#EC8331"/>
<stop offset="1" stop-color="#864A1C" stop-opacity="0"/>
</radialGradient>
<radialGradient id="paint11_radial_329_181" cx="0" cy="0" r="1" gradientUnits="userSpaceOnUse" gradientTransform="translate(151.724 423.023) rotate(-81.6368) scale(24.0639 24.6784)">
<stop stop-color="#EC8331"/>
<stop offset="1" stop-color="#864A1C" stop-opacity="0"/>
</radialGradient>
<radialGradient id="paint12_radial_329_181" cx="0" cy="0" r="1" gradientUnits="userSpaceOnUse" gradientTransform="translate(288.674 750.113) rotate(-81.6368) scale(9.52437 9.76759)">
<stop stop-color="#E8AB55"/>
<stop offset="1" stop-color="#826030" stop-opacity="0"/>
</radialGradient>
<radialGradient id="paint13_radial_329_181" cx="0" cy="0" r="1" gradientUnits="userSpaceOnUse" gradientTransform="translate(28.5668 464.342) rotate(-81.6368) scale(17.531 17.9787)">
<stop stop-color="#E8AB55"/>
<stop offset="1" stop-color="#826030" stop-opacity="0"/>
</radialGradient>
<radialGradient id="paint14_radial_329_181" cx="0" cy="0" r="1" gradientUnits="userSpaceOnUse" gradientTransform="translate(291.311 615.289) rotate(-81.6368) scale(17.531 17.9787)">
<stop stop-color="#E8AB55"/>
<stop offset="1" stop-color="#826030" stop-opacity="0"/>
</radialGradient>
<radialGradient id="paint15_radial_329_181" cx="0" cy="0" r="1" gradientUnits="userSpaceOnUse" gradientTransform="translate(347.212 724.89) rotate(-81.6368) scale(17.531 17.9787)">
<stop stop-color="#E8AB55"/>
<stop offset="1" stop-color="#826030" stop-opacity="0"/>
</radialGradient>
<radialGradient id="paint16_radial_329_181" cx="0" cy="0" r="1" gradientUnits="userSpaceOnUse" gradientTransform="translate(212.189 635.859) rotate(-81.6368) scale(17.531 17.9787)">
<stop stop-color="#E8AB55"/>
<stop offset="1" stop-color="#826030" stop-opacity="0"/>
</radialGradient>
<radialGradient id="paint17_radial_329_181" cx="0" cy="0" r="1" gradientUnits="userSpaceOnUse" gradientTransform="translate(232.696 495.072) rotate(-81.6368) scale(17.531 17.9787)">
<stop stop-color="#E8AB55"/>
<stop offset="1" stop-color="#826030" stop-opacity="0"/>
</radialGradient>
<radialGradient id="paint18_radial_329_181" cx="0" cy="0" r="1" gradientUnits="userSpaceOnUse" gradientTransform="translate(250.7 838.431) rotate(-81.6368) scale(17.531 17.9787)">
<stop stop-color="#E8AB55"/>
<stop offset="1" stop-opacity="0"/>
</radialGradient>
<radialGradient id="paint19_radial_329_181" cx="0" cy="0" r="1" gradientUnits="userSpaceOnUse" gradientTransform="translate(136.816 839.919) rotate(-81.6368) scale(17.531 17.9787)">
<stop stop-color="#E8AB55"/>
<stop offset="1" stop-color="#826030" stop-opacity="0"/>
</radialGradient>
<radialGradient id="paint20_radial_329_181" cx="0" cy="0" r="1" gradientUnits="userSpaceOnUse" gradientTransform="translate(324.042 389.566) rotate(42.6224) scale(110.108 73.9382)">
<stop stop-color="#FF0986"/>
<stop offset="1" stop-color="#990550" stop-opacity="0"/>
</radialGradient>
<linearGradient id="paint21_linear_329_181" x1="273.865" y1="343.073" x2="272.748" y2="321.487" gradientUnits="userSpaceOnUse">
<stop stop-color="#EFABC4"/>
<stop offset="1" stop-color="#8E8096"/>
</linearGradient>
<linearGradient id="paint22_linear_329_181" x1="270.806" y1="371.38" x2="253.497" y2="358.412" gradientUnits="userSpaceOnUse">
<stop stop-color="#EFABC4"/>
<stop offset="1" stop-color="#8E8096"/>
</linearGradient>
<linearGradient id="paint23_linear_329_181" x1="277.081" y1="300.564" x2="176.985" y2="216.032" gradientUnits="userSpaceOnUse">
<stop stop-color="#DD2A84"/>
<stop offset="1" stop-color="#6C0DBF"/>
</linearGradient>
<linearGradient id="paint24_linear_329_181" x1="293.267" y1="314.234" x2="167.479" y2="208.005" gradientUnits="userSpaceOnUse">
<stop stop-color="#814283"/>
<stop offset="1" stop-color="#D50055"/>
</linearGradient>
<linearGradient id="paint25_linear_329_181" x1="293.267" y1="314.234" x2="167.479" y2="208.005" gradientUnits="userSpaceOnUse">
<stop stop-color="#814283"/>
<stop offset="1" stop-color="#D50055"/>
</linearGradient>
<linearGradient id="paint26_linear_329_181" x1="395.073" y1="394.608" x2="264.365" y2="361.013" gradientUnits="userSpaceOnUse">
<stop stop-color="#EFABC4"/>
<stop offset="1" stop-color="#8E8096"/>
</linearGradient>
<linearGradient id="paint27_linear_329_181" x1="372.855" y1="428.496" x2="274.432" y2="345.377" gradientUnits="userSpaceOnUse">
<stop stop-color="#D3CFD8"/>
<stop offset="1" stop-color="#9C8CA3"/>
</linearGradient>
<linearGradient id="paint28_linear_329_181" x1="257.461" y1="339.802" x2="270.087" y2="349.649" gradientUnits="userSpaceOnUse">
<stop stop-color="#9C8CA3"/>
<stop offset="1" stop-color="#D3CFD8"/>
</linearGradient>
<linearGradient id="paint29_linear_329_181" x1="259.072" y1="345.225" x2="229.871" y2="320.564" gradientUnits="userSpaceOnUse">
<stop stop-color="#EFABC4"/>
<stop offset="1" stop-color="#8E8096"/>
</linearGradient>
<linearGradient id="paint30_linear_329_181" x1="371.542" y1="427.387" x2="312.442" y2="377.476" gradientUnits="userSpaceOnUse">
<stop stop-color="#D50055"/>
<stop offset="1" stop-color="#812C68"/>
</linearGradient>
<linearGradient id="paint31_linear_329_181" x1="371.542" y1="427.387" x2="274.909" y2="345.779" gradientUnits="userSpaceOnUse">
<stop stop-color="#D50055"/>
<stop offset="1" stop-color="#814283"/>
</linearGradient>
<linearGradient id="paint32_linear_329_181" x1="240.069" y1="327.583" x2="215.724" y2="307.024" gradientUnits="userSpaceOnUse">
<stop stop-color="#9E2E46"/>
<stop offset="0.66" stop-color="#C55738"/>
<stop offset="1" stop-color="#D56833"/>
</linearGradient>
<linearGradient id="paint33_linear_329_181" x1="355.613" y1="440.614" x2="384.773" y2="406.087" gradientUnits="userSpaceOnUse">
<stop stop-color="#D50055"/>
<stop offset="1" stop-color="#814283"/>
</linearGradient>
<linearGradient id="paint34_linear_329_181" x1="385.154" y1="434.323" x2="258.784" y2="327.603" gradientUnits="userSpaceOnUse">
<stop stop-color="#EFABC4"/>
<stop offset="1" stop-color="#9C8CA3"/>
</linearGradient>
<linearGradient id="paint35_linear_329_181" x1="381.836" y1="438.251" x2="255.467" y2="331.531" gradientUnits="userSpaceOnUse">
<stop stop-color="#EFABC4"/>
<stop offset="1" stop-color="#9C8CA3"/>
</linearGradient>
<linearGradient id="paint36_linear_329_181" x1="184.068" y1="295.241" x2="226.096" y2="305.872" gradientUnits="userSpaceOnUse">
<stop offset="0.03" stop-color="#450085"/>
<stop offset="0.48" stop-color="#8800A9"/>
<stop offset="0.6" stop-color="#8E07B7"/>
<stop offset="0.83" stop-color="#9F1CDE"/>
<stop offset="1" stop-color="#AD2DFD"/>
</linearGradient>
<linearGradient id="paint37_linear_329_181" x1="182.918" y1="299.008" x2="215.701" y2="296.236" gradientUnits="userSpaceOnUse">
<stop stop-color="#AD7AE2"/>
<stop offset="1"/>
</linearGradient>
<linearGradient id="paint38_linear_329_181" x1="184.307" y1="300.899" x2="200.909" y2="299.511" gradientUnits="userSpaceOnUse">
<stop stop-color="#B54DFF"/>
<stop offset="0.1" stop-color="#9B42DA"/>
<stop offset="0.29" stop-color="#6C2E99"/>
<stop offset="0.47" stop-color="#451D62"/>
<stop offset="0.63" stop-color="#271037"/>
<stop offset="0.78" stop-color="#110719"/>
<stop offset="0.91" stop-color="#040206"/>
<stop offset="1"/>
</linearGradient>
<linearGradient id="paint39_linear_329_181" x1="257.408" y1="341.231" x2="244.87" y2="330.643" gradientUnits="userSpaceOnUse">
<stop stop-color="#D56833"/>
<stop offset="0.34" stop-color="#C55738"/>
<stop offset="1" stop-color="#9E2E46"/>
</linearGradient>
<linearGradient id="paint40_linear_329_181" x1="387.713" y1="439.59" x2="289.697" y2="356.815" gradientUnits="userSpaceOnUse">
<stop stop-color="white"/>
<stop offset="0.1" stop-color="#E7EAF4"/>
<stop offset="0.27" stop-color="#C5CAE3"/>
<stop offset="0.45" stop-color="#A9B1D6"/>
<stop offset="0.63" stop-color="#96A0CD"/>
<stop offset="0.81" stop-color="#8A95C7"/>
<stop offset="1" stop-color="#8792C6"/>
</linearGradient>
<linearGradient id="paint41_linear_329_181" x1="309.446" y1="374.447" x2="294.874" y2="362.141" gradientUnits="userSpaceOnUse">
<stop stop-color="#D50055"/>
<stop offset="1" stop-color="#814283"/>
</linearGradient>
<linearGradient id="paint42_linear_329_181" x1="320.005" y1="378.068" x2="287.685" y2="398.158" gradientUnits="userSpaceOnUse">
<stop offset="0.16"/>
<stop offset="0.18" stop-color="#070407"/>
<stop offset="0.49" stop-color="#703C70"/>
<stop offset="0.74" stop-color="#BD66BD"/>
<stop offset="0.91" stop-color="#EC80EC"/>
<stop offset="1" stop-color="#FF8AFF"/>
</linearGradient>
<linearGradient id="paint43_linear_329_181" x1="368.109" y1="398.803" x2="356.665" y2="412.354" gradientUnits="userSpaceOnUse">
<stop stop-color="#FF8AFF"/>
<stop offset="0.1" stop-color="#EC80EC"/>
<stop offset="0.31" stop-color="#BD66BD"/>
<stop offset="0.61" stop-color="#703C70"/>
<stop offset="0.97" stop-color="#070407"/>
<stop offset="1"/>
</linearGradient>
<linearGradient id="paint44_linear_329_181" x1="257.459" y1="358.238" x2="280.759" y2="330.648" gradientUnits="userSpaceOnUse">
<stop stop-color="#82223B"/>
<stop offset="1" stop-color="#98193B"/>
</linearGradient>
<linearGradient id="paint45_linear_329_181" x1="335.617" y1="394.28" x2="361.244" y2="400.097" gradientUnits="userSpaceOnUse">
<stop offset="0.1" stop-color="#5F316E"/>
<stop offset="1" stop-color="#361C3E"/>
</linearGradient>
<linearGradient id="paint46_linear_329_181" x1="360.513" y1="413.055" x2="382.818" y2="422.616" gradientUnits="userSpaceOnUse">
<stop stop-color="#5F316E"/>
<stop offset="1" stop-color="#361C3E"/>
</linearGradient>
<linearGradient id="paint47_linear_329_181" x1="274.063" y1="402.743" x2="293.74" y2="401.085" gradientUnits="userSpaceOnUse">
<stop offset="0.03" stop-color="#450085"/>
<stop offset="0.48" stop-color="#8800A9"/>
<stop offset="0.6" stop-color="#8E07B7"/>
<stop offset="0.83" stop-color="#9F1CDE"/>
<stop offset="1" stop-color="#AD2DFD"/>
</linearGradient>
<linearGradient id="paint48_linear_329_181" x1="305.542" y1="404.599" x2="320.46" y2="403.342" gradientUnits="userSpaceOnUse">
<stop offset="0.03" stop-color="#450085"/>
<stop offset="0.48" stop-color="#8800A9"/>
<stop offset="0.6" stop-color="#8E07B7"/>
<stop offset="0.83" stop-color="#9F1CDE"/>
<stop offset="1" stop-color="#AD2DFD"/>
</linearGradient>
<linearGradient id="paint49_linear_329_181" x1="226.58" y1="265.222" x2="196.391" y2="239.727" gradientUnits="userSpaceOnUse">
<stop stop-color="#814283"/>
<stop offset="1" stop-color="#D50055"/>
</linearGradient>
<linearGradient id="paint50_linear_329_181" x1="194.611" y1="216.918" x2="220.064" y2="214.763" gradientUnits="userSpaceOnUse">
<stop stop-color="#B54DFF"/>
<stop offset="0.1" stop-color="#9B42DA"/>
<stop offset="0.29" stop-color="#6C2E99"/>
<stop offset="0.47" stop-color="#451D62"/>
<stop offset="0.63" stop-color="#271037"/>
<stop offset="0.78" stop-color="#110719"/>
<stop offset="0.91" stop-color="#040206"/>
<stop offset="1"/>
</linearGradient>
<linearGradient id="paint51_linear_329_181" x1="203.702" y1="261.291" x2="222.038" y2="259.735" gradientUnits="userSpaceOnUse">
<stop stop-color="#B54DFF"/>
<stop offset="0.1" stop-color="#9B42DA"/>
<stop offset="0.29" stop-color="#6C2E99"/>
<stop offset="0.47" stop-color="#451D62"/>
<stop offset="0.63" stop-color="#271037"/>
<stop offset="0.78" stop-color="#110719"/>
<stop offset="0.91" stop-color="#040206"/>
<stop offset="1"/>
</linearGradient>
<linearGradient id="paint52_linear_329_181" x1="239.429" y1="262.713" x2="246.709" y2="263.805" gradientUnits="userSpaceOnUse">
<stop stop-color="#E74DFF"/>
<stop offset="0.1" stop-color="#C642DA"/>
<stop offset="0.29" stop-color="#8A2E99"/>
<stop offset="0.47" stop-color="#591D62"/>
<stop offset="0.63" stop-color="#321037"/>
<stop offset="0.78" stop-color="#160719"/>
<stop offset="0.91" stop-color="#060206"/>
<stop offset="1"/>
</linearGradient>
<linearGradient id="paint53_linear_329_181" x1="259.641" y1="284.441" x2="267.973" y2="286.362" gradientUnits="userSpaceOnUse">
<stop stop-color="#E74DFF"/>
<stop offset="0.1" stop-color="#C642DA"/>
<stop offset="0.29" stop-color="#8A2E99"/>
<stop offset="0.47" stop-color="#591D62"/>
<stop offset="0.63" stop-color="#321037"/>
<stop offset="0.78" stop-color="#160719"/>
<stop offset="0.91" stop-color="#060206"/>
<stop offset="1"/>
</linearGradient>
<linearGradient id="paint54_linear_329_181" x1="274.168" y1="400.661" x2="285.926" y2="399.682" gradientUnits="userSpaceOnUse">
<stop stop-color="#AD7AE2"/>
<stop offset="1"/>
</linearGradient>
<linearGradient id="paint55_linear_329_181" x1="308.073" y1="406.714" x2="314.363" y2="402.615" gradientUnits="userSpaceOnUse">
<stop stop-color="#AD7AE2"/>
<stop offset="1"/>
</linearGradient>
<linearGradient id="paint56_linear_329_181" x1="274.473" y1="399.405" x2="285.747" y2="398.455" gradientUnits="userSpaceOnUse">
<stop stop-color="#B54DFF"/>
<stop offset="0.1" stop-color="#9B42DA"/>
<stop offset="0.29" stop-color="#6C2E99"/>
<stop offset="0.47" stop-color="#451D62"/>
<stop offset="0.63" stop-color="#271037"/>
<stop offset="0.78" stop-color="#110719"/>
<stop offset="0.91" stop-color="#040206"/>
<stop offset="1"/>
</linearGradient>
<linearGradient id="paint57_linear_329_181" x1="307.125" y1="404.044" x2="312.312" y2="403.607" gradientUnits="userSpaceOnUse">
<stop stop-color="#B54DFF"/>
<stop offset="0.1" stop-color="#9B42DA"/>
<stop offset="0.29" stop-color="#6C2E99"/>
<stop offset="0.47" stop-color="#451D62"/>
<stop offset="0.63" stop-color="#271037"/>
<stop offset="0.78" stop-color="#110719"/>
<stop offset="0.91" stop-color="#040206"/>
<stop offset="1"/>
</linearGradient>
<linearGradient id="paint58_linear_329_181" x1="269.657" y1="338.417" x2="-97.6357" y2="63.2293" gradientUnits="userSpaceOnUse">
<stop stop-color="#440937"/>
<stop offset="1" stop-color="#7F3F32"/>
</linearGradient>
<linearGradient id="paint59_linear_329_181" x1="70.2869" y1="132.154" x2="40.94" y2="110.166" gradientUnits="userSpaceOnUse">
<stop stop-color="#AD2DFD"/>
<stop offset="0.17" stop-color="#9F1CDE"/>
<stop offset="0.4" stop-color="#8E07B7"/>
<stop offset="0.52" stop-color="#8800A9"/>
<stop offset="0.97" stop-color="#450085"/>
</linearGradient>
<linearGradient id="paint60_linear_329_181" x1="227.551" y1="399.586" x2="-142.127" y2="122.612" gradientUnits="userSpaceOnUse">
<stop stop-color="#520C33"/>
<stop offset="1" stop-color="#7F3F32"/>
</linearGradient>
<linearGradient id="paint61_linear_329_181" x1="300.253" y1="302.551" x2="-69.4251" y2="25.5763" gradientUnits="userSpaceOnUse">
<stop stop-color="#520C33"/>
<stop offset="1" stop-color="#7F3F32"/>
</linearGradient>
<linearGradient id="paint62_linear_329_181" x1="291.169" y1="314.676" x2="-78.5094" y2="37.7013" gradientUnits="userSpaceOnUse">
<stop stop-color="#520C33"/>
<stop offset="1" stop-color="#7F3F32"/>
</linearGradient>
<linearGradient id="paint63_linear_329_181" x1="301.098" y1="301.398" x2="-68.5676" y2="24.4322" gradientUnits="userSpaceOnUse">
<stop stop-color="#520C33"/>
<stop offset="1" stop-color="#7F3F32"/>
</linearGradient>
<radialGradient id="paint64_radial_329_181" cx="0" cy="0" r="1" gradientUnits="userSpaceOnUse" gradientTransform="translate(54.5178 120.321) rotate(-33.2105) scale(20.5806 27.1639)">
<stop offset="0.25" stop-color="#C409C1"/>
<stop offset="1" stop-color="#5E045D" stop-opacity="0"/>
</radialGradient>
<linearGradient id="paint65_linear_329_181" x1="308.088" y1="292.094" x2="-61.5902" y2="15.1194" gradientUnits="userSpaceOnUse">
<stop stop-color="#520C33"/>
<stop offset="1" stop-color="#7F3F32"/>
</linearGradient>
<radialGradient id="paint66_radial_329_181" cx="0" cy="0" r="1" gradientUnits="userSpaceOnUse" gradientTransform="translate(60.9181 232.799) rotate(42.6224) scale(12.4526 12.4541)">
<stop stop-color="#FF0986"/>
<stop offset="1" stop-color="#990550" stop-opacity="0"/>
</radialGradient>
<linearGradient id="paint67_linear_329_181" x1="51.1769" y1="195.328" x2="20.7102" y2="172.501" gradientUnits="userSpaceOnUse">
<stop stop-color="#AD2DFD"/>
<stop offset="0.17" stop-color="#9F1CDE"/>
<stop offset="0.4" stop-color="#8E07B7"/>
<stop offset="0.52" stop-color="#8800A9"/>
<stop offset="0.97" stop-color="#450085"/>
</linearGradient>
<radialGradient id="paint68_radial_329_181" cx="0" cy="0" r="1" gradientUnits="userSpaceOnUse" gradientTransform="translate(35.9772 183.592) rotate(-33.2205) scale(20.5806 27.1639)">
<stop offset="0.25" stop-color="#C409C1"/>
<stop offset="1" stop-color="#5E045D" stop-opacity="0"/>
</radialGradient>
<linearGradient id="paint69_linear_329_181" x1="23.9329" y1="183.316" x2="37.2038" y2="178.151" gradientUnits="userSpaceOnUse">
<stop stop-color="#AD7AE2"/>
<stop offset="1"/>
</linearGradient>
<linearGradient id="paint70_linear_329_181" x1="23.2967" y1="177.953" x2="33.127" y2="179.17" gradientUnits="userSpaceOnUse">
<stop stop-color="#B54DFF"/>
<stop offset="0.1" stop-color="#9B42DA"/>
<stop offset="0.29" stop-color="#6C2E99"/>
<stop offset="0.47" stop-color="#451D62"/>
<stop offset="0.63" stop-color="#271037"/>
<stop offset="0.78" stop-color="#110719"/>
<stop offset="0.91" stop-color="#040206"/>
<stop offset="1"/>
</linearGradient>
<linearGradient id="paint71_linear_329_181" x1="38.18" y1="130.903" x2="51.0793" y2="128.618" gradientUnits="userSpaceOnUse">
<stop stop-color="#AD7AE2"/>
<stop offset="1"/>
</linearGradient>
<linearGradient id="paint72_linear_329_181" x1="43.4262" y1="113.931" x2="52.2917" y2="116.9" gradientUnits="userSpaceOnUse">
<stop stop-color="#B54DFF"/>
<stop offset="0.1" stop-color="#9B42DA"/>
<stop offset="0.29" stop-color="#6C2E99"/>
<stop offset="0.47" stop-color="#451D62"/>
<stop offset="0.63" stop-color="#271037"/>
<stop offset="0.78" stop-color="#110719"/>
<stop offset="0.91" stop-color="#040206"/>
<stop offset="1"/>
</linearGradient>
<radialGradient id="paint73_radial_329_181" cx="0" cy="0" r="1" gradientUnits="userSpaceOnUse" gradientTransform="translate(96.7007 174.807) rotate(42.6224) scale(12.4526 12.4541)">
<stop stop-color="#FF0986"/>
<stop offset="1" stop-color="#990550" stop-opacity="0"/>
</radialGradient>
<linearGradient id="paint74_linear_329_181" x1="84.0369" y1="232.656" x2="90.0549" y2="227.956" gradientUnits="userSpaceOnUse">
<stop stop-color="#AD7A79"/>
<stop offset="1"/>
</linearGradient>
<linearGradient id="paint75_linear_329_181" x1="84.7011" y1="188.745" x2="90.3837" y2="187.97" gradientUnits="userSpaceOnUse">
<stop stop-color="#FF599A"/>
<stop offset="1"/>
</linearGradient>
<linearGradient id="paint76_linear_329_181" x1="31.7864" y1="264.218" x2="39.1097" y2="262.938" gradientUnits="userSpaceOnUse">
<stop stop-color="#AD7A79"/>
<stop offset="1"/>
</linearGradient>
<linearGradient id="paint77_linear_329_181" x1="53.7565" y1="231.45" x2="58.9923" y2="233.367" gradientUnits="userSpaceOnUse">
<stop stop-color="#FF599A"/>
<stop offset="1"/>
</linearGradient>
<linearGradient id="paint78_linear_329_181" x1="246.224" y1="365.735" x2="250.319" y2="360.27" gradientUnits="userSpaceOnUse">
<stop stop-color="#520C33"/>
<stop offset="1" stop-color="#7F3F32"/>
</linearGradient>
<clipPath id="clip0_329_181">
<rect width="158" height="636" fill="white" transform="translate(-145 126.447) rotate(-53.1583)"/>
</clipPath>
</defs>
</svg>
