<svg width="283" height="342" viewBox="0 0 283 342" fill="none" xmlns="http://www.w3.org/2000/svg">
<g clip-path="url(#clip0_288_5067)">
<path style="mix-blend-mode:screen" opacity="0.5" d="M141.461 270.115C212.556 270.115 270.189 212.503 270.189 141.435C270.189 70.3668 212.556 12.7549 141.461 12.7549C70.3673 12.7549 12.7341 70.3668 12.7341 141.435C12.7341 212.503 70.3673 270.115 141.461 270.115Z" fill="url(#paint0_radial_288_5067)"/>
<path style="mix-blend-mode:screen" opacity="0.5" fill-rule="evenodd" clip-rule="evenodd" d="M163.823 0H145.21H137.739H119.125L141.461 141.435L141.487 140.511V141.435L163.823 0Z" fill="url(#paint1_linear_288_5067)"/>
<path style="mix-blend-mode:screen" opacity="0.5" fill-rule="evenodd" clip-rule="evenodd" d="M57.2264 25.6387L44.0816 38.8044L38.7671 44.0912L25.6222 57.2569L141.461 141.486L140.82 140.819L141.487 141.435L57.2264 25.6387Z" fill="url(#paint2_linear_288_5067)"/>
<path style="mix-blend-mode:screen" opacity="0.5" fill-rule="evenodd" clip-rule="evenodd" d="M0 119.107V137.739V145.207V163.814L141.487 141.486L140.563 141.46L141.487 141.435L0 119.107Z" fill="url(#paint3_linear_288_5067)"/>
<path style="mix-blend-mode:screen" opacity="0.5" fill-rule="evenodd" clip-rule="evenodd" d="M25.6479 225.665L38.8185 238.83L44.1072 244.143L57.2778 257.283L141.538 141.486L140.871 142.128L141.487 141.435L25.6479 225.665Z" fill="url(#paint4_linear_288_5067)"/>
<path style="mix-blend-mode:screen" opacity="0.5" fill-rule="evenodd" clip-rule="evenodd" d="M119.151 282.896H137.79H145.261H163.875L141.539 141.435L141.513 142.385L141.487 141.435L119.151 282.896Z" fill="url(#paint5_linear_288_5067)"/>
<path style="mix-blend-mode:screen" opacity="0.5" fill-rule="evenodd" clip-rule="evenodd" d="M225.748 257.257L238.918 244.091L244.233 238.805L257.378 225.639L141.539 141.409L142.18 142.076L141.487 141.435L225.748 257.257Z" fill="url(#paint6_linear_288_5067)"/>
<path style="mix-blend-mode:screen" opacity="0.5" fill-rule="evenodd" clip-rule="evenodd" d="M283 163.763V145.156V137.688V119.082L141.487 141.409L142.437 141.435H141.487L283 163.763Z" fill="url(#paint7_linear_288_5067)"/>
<path style="mix-blend-mode:screen" opacity="0.5" fill-rule="evenodd" clip-rule="evenodd" d="M257.352 57.2053L244.182 44.0653L238.893 38.7528L225.722 25.6128L141.461 141.409L142.129 140.768L141.487 141.435L257.352 57.2053Z" fill="url(#paint8_linear_288_5067)"/>
<g opacity="0.5">
<path d="M219.308 173.663C237.122 130.672 216.7 81.3851 173.693 63.5777C130.686 45.7703 81.3815 66.1855 63.5675 109.176C45.7536 152.167 66.1763 201.454 109.183 219.261C152.19 237.069 201.495 216.653 219.308 173.663Z" fill="url(#paint9_radial_288_5067)" style="mix-blend-mode:screen"/>
</g>
<path fill-rule="evenodd" clip-rule="evenodd" d="M50.1405 324.599C50.1405 324.599 40.5643 317.901 37.7659 296.395H244.567C244.567 296.395 244.823 309.073 224.978 330.323C224.978 330.323 199.458 343.899 134.812 341.794C68.5998 339.639 50.1662 324.599 50.1662 324.599H50.1405Z" fill="url(#paint10_radial_288_5067)"/>
<path fill-rule="evenodd" clip-rule="evenodd" d="M37.7659 296.394C35.4296 288.9 74.8642 275.145 137.739 275.145C200.613 275.145 241.999 289.157 244.567 296.394C247.134 303.632 205.645 320.647 137.739 320.647C69.8322 320.647 40.4873 305.069 37.7659 296.394Z" fill="#FFD8EE"/>
<path fill-rule="evenodd" clip-rule="evenodd" d="M49.7041 291.672C49.7041 291.672 32.092 258.591 37.3294 234.185H244.13C244.13 234.185 244.233 274.452 224.541 297.421C224.541 297.421 199.022 310.997 134.376 308.893C68.1634 306.737 49.7297 291.698 49.7297 291.698L49.7041 291.672Z" fill="url(#paint11_linear_288_5067)"/>
<path fill-rule="evenodd" clip-rule="evenodd" d="M37.3294 234.159C34.9931 226.665 74.4277 212.909 137.302 212.909C200.177 212.909 241.563 226.922 244.13 234.159C246.698 241.396 205.209 258.412 137.302 258.412C69.3957 258.412 40.0508 242.834 37.3294 234.159Z" fill="#A4A0C2"/>
<path fill-rule="evenodd" clip-rule="evenodd" d="M217.481 235.673C217.584 236.084 217.378 236.546 216.916 237.008C210.421 243.475 152.142 254.459 114.247 251.405C113.991 251.38 113.76 251.354 113.529 251.354C95.5314 249.84 82.6946 247.35 74.094 244.553C65.596 241.781 61.2058 238.753 60.0249 236.135C59.7168 235.493 59.6398 234.878 59.7168 234.313C60.487 228.949 126.109 223.406 158.432 228.436C171.962 230.566 175.967 233.107 173.81 235.442C172.167 237.29 166.699 238.984 159.074 240.216C153.271 241.14 146.185 241.807 138.586 242.064C131.885 242.294 126.16 242.269 121.333 242.064C109.215 241.576 102.669 240.087 99.9216 239.292C98.8433 238.984 98.3555 238.779 98.3555 238.779C98.3555 238.779 103.388 231.233 111.475 233.748C119.562 236.263 121.564 240.062 121.564 240.062C121.564 240.062 154.632 241.191 161.821 236.7C162.334 236.392 162.719 236.058 162.95 235.673C166.416 230.001 69.062 227.178 68.8052 237.29C68.8052 237.752 68.9079 238.188 69.1903 238.625C74.4277 248.043 136.327 254.87 176.583 242.833C182.899 240.96 186.262 238.881 187.16 236.751C190.909 228.025 152.835 218.632 105.878 219.12H105.262C87.5726 219.351 68.6769 220.968 50.2689 224.561L59.7168 221.558C59.7168 221.558 81.6934 215.219 130.396 217.041C179.125 218.863 215.966 229.539 217.481 235.673Z" fill="#4C95C7"/>
<path fill-rule="evenodd" clip-rule="evenodd" d="M121.333 242.064C109.215 241.576 102.669 240.088 99.9216 239.292C102.001 237.239 106.058 234.39 111.475 236.084C118.124 238.163 120.666 241.089 121.333 242.064Z" fill="#00FFED"/>
<path fill-rule="evenodd" clip-rule="evenodd" d="M162.95 238.034C163.233 237.572 162.822 237.11 161.821 236.7C162.334 236.392 162.719 236.058 162.95 235.673C166.416 230.001 69.062 227.178 68.8052 237.29C68.8052 237.752 68.9079 238.188 69.1903 238.624C68.9336 238.932 68.8052 239.266 68.8052 239.625C68.7539 241.371 70.6794 243.039 74.094 244.553C65.596 241.781 61.2058 238.753 60.0249 236.135C64.9028 230.951 127.213 225.921 158.432 230.797C167.495 232.208 172.295 233.851 173.81 235.442C172.167 237.29 166.699 238.984 159.074 240.216C161.025 239.625 162.411 238.907 162.95 238.034Z" fill="#00FFED"/>
<path fill-rule="evenodd" clip-rule="evenodd" d="M216.916 237.008C210.421 243.475 152.142 254.459 114.247 251.405C113.991 251.38 113.76 251.354 113.529 251.354C133.888 252.329 157.636 250.841 176.583 245.169C185.209 242.577 188.341 239.651 187.16 236.751C190.909 228.025 152.835 218.632 105.878 219.12C113.144 218.992 121.308 219.043 130.396 219.376C176.532 221.096 211.987 230.771 216.916 237.008Z" fill="#00FFED"/>
<path style="mix-blend-mode:multiply" opacity="0.5" fill-rule="evenodd" clip-rule="evenodd" d="M49.7041 291.672C49.7041 291.672 66.4946 313.256 120.563 317.259C197.661 322.983 224.541 297.395 224.541 297.395C224.541 297.395 129.806 320.647 49.7041 291.672Z" fill="url(#paint12_linear_288_5067)"/>
<path fill-rule="evenodd" clip-rule="evenodd" d="M60.3329 248.736C60.3329 248.736 83.2081 256.205 107.059 256.076C130.91 255.948 167.263 257.282 167.263 257.282C167.263 257.282 138.843 266.65 113.811 265.136C88.7793 263.622 60.3586 248.762 60.3586 248.762L60.3329 248.736Z" fill="#8B6F8B"/>
<path fill-rule="evenodd" clip-rule="evenodd" d="M211.114 250.584C211.114 250.584 227.417 240.242 232.449 238.368C237.506 236.52 241.922 238.368 241.922 238.368C241.922 238.368 234.708 252.509 211.114 250.584Z" fill="#8B6F8B"/>
<path fill-rule="evenodd" clip-rule="evenodd" d="M38.0226 235.673C38.0226 235.673 40.1022 235.032 43.4911 237.547C46.8543 240.062 58.5871 248.12 58.5871 248.12C58.5871 248.12 45.0058 251.919 40.9751 248.12C39.2806 246.504 38.0483 235.673 38.0483 235.673H38.0226Z" fill="#8B6F8B"/>
<g style="mix-blend-mode:soft-light">
<path fill-rule="evenodd" clip-rule="evenodd" d="M152.707 341.974L155.043 320.647C155.043 320.647 178.842 319.877 197.635 315.694L189.163 339.433C189.163 339.433 164.824 342 152.681 341.974H152.707Z" fill="#FFCCB5"/>
</g>
<g style="mix-blend-mode:soft-light">
<path fill-rule="evenodd" clip-rule="evenodd" d="M55.1212 327.525L50.2432 306.763C50.2432 306.763 63.3624 312.203 70.8848 313.872L71.6036 333.556C71.6036 333.556 62.5665 331.323 55.1212 327.525Z" fill="#FFCCB5"/>
</g>
<path fill-rule="evenodd" clip-rule="evenodd" d="M162.95 235.673V238.034C162.95 238.034 161.436 239.497 160.049 239.882L159.587 237.778C159.587 237.778 162 236.751 162.925 235.673H162.95Z" fill="#4C95C7"/>
<path fill-rule="evenodd" clip-rule="evenodd" d="M187.392 235.494L187.212 238.933L184.413 241.884V239.574C184.413 239.574 187.263 238.471 187.366 235.494H187.392Z" fill="#4C95C7"/>
<path fill-rule="evenodd" clip-rule="evenodd" d="M68.8309 240.062V236.674C68.8309 236.674 68.4715 238.573 71.1415 240.601L71.4496 243.167C71.4496 243.167 68.8052 241.781 68.8052 240.062H68.8309Z" fill="#4C95C7"/>
<path style="mix-blend-mode:screen" opacity="0.5" d="M140.229 272.835C203.539 272.835 254.862 255.519 254.862 234.159C254.862 212.799 203.539 195.483 140.229 195.483C76.9193 195.483 25.5966 212.799 25.5966 234.159C25.5966 255.519 76.9193 272.835 140.229 272.835Z" fill="url(#paint13_radial_288_5067)"/>
<path fill-rule="evenodd" clip-rule="evenodd" d="M114.915 282.921L119.716 278.43L131.038 287.669L147.443 271.937L152.861 276.403L131.474 295.137L114.915 282.921Z" fill="#4C95C7"/>
<path fill-rule="evenodd" clip-rule="evenodd" d="M115.711 282.151L131.68 293.341L151.68 275.53L147.443 271.937L131.038 287.669L119.716 278.43L115.711 282.151Z" fill="#00FFED"/>
<path style="mix-blend-mode:screen" opacity="0.5" d="M131.243 304.556C147.904 304.556 161.41 295.145 161.41 283.537C161.41 271.929 147.904 262.518 131.243 262.518C114.583 262.518 101.077 271.929 101.077 283.537C101.077 295.145 114.583 304.556 131.243 304.556Z" fill="url(#paint14_radial_288_5067)"/>
<g filter="url(#filter0_d_288_5067)">
<path d="M68.533 127.28C68.917 127.728 68.789 128.176 68.405 128.624C68.149 128.88 67.893 129.072 67.701 129.328C66.229 130.864 65.333 132.656 64.821 134.576C63.733 139.312 63.157 144.048 63.221 148.848C63.285 156.016 63.157 163.184 63.093 170.352C63.093 171.312 62.901 172.272 62.837 173.168C62.773 173.744 62.517 174.256 61.877 174.448C61.301 174.64 60.789 174.384 60.341 174C59.253 173.04 58.293 172.016 57.589 170.736C56.309 168.432 54.901 166.256 53.493 164.016C50.101 158.512 47.349 152.752 44.789 146.928C44.661 146.672 44.533 146.416 44.405 146.16C44.277 146.224 44.213 146.224 44.085 146.224C44.149 150.768 44.149 155.376 44.469 159.92C44.661 163.312 45.301 166.704 46.581 169.968C47.093 171.376 47.669 172.656 49.077 173.488C49.589 173.808 49.973 174.32 49.653 174.896C49.397 175.536 48.757 175.6 48.117 175.536C46.837 175.28 45.621 175.088 44.341 174.896C41.909 174.512 39.541 174.128 37.109 173.744C36.789 173.744 36.533 173.68 36.213 173.616C35.701 173.424 35.317 173.168 35.317 172.656C35.317 172.144 35.573 171.76 36.085 171.568C36.405 171.44 36.789 171.376 37.109 171.248C38.389 170.992 39.157 170.288 39.349 169.136C39.605 167.792 39.861 166.384 39.861 165.04C39.797 155.888 39.541 146.672 39.477 137.52C39.413 135.216 38.325 133.872 36.213 133.04C35.893 132.912 35.573 132.848 35.381 132.656C35.125 132.4 34.805 132.016 34.805 131.632C34.805 131.376 35.189 130.992 35.509 130.864C35.765 130.672 36.149 130.672 36.533 130.672C40.501 130.928 44.533 131.248 48.565 131.504C49.845 131.632 51.125 131.76 52.405 131.888C52.661 131.952 52.981 132.016 53.301 132.08C53.749 132.272 54.005 132.656 53.877 133.104C53.749 133.36 53.429 133.68 53.109 133.808C52.789 134 52.277 134 51.829 134.064C50.677 134.384 49.973 135.216 50.229 136.304C50.613 137.84 50.933 139.44 51.637 140.912C53.813 145.392 56.117 149.808 58.421 154.224C58.549 154.48 58.677 154.736 58.997 155.184C59.061 154.672 59.061 154.48 59.061 154.352C58.933 148.912 58.869 143.472 58.741 138.032C58.677 137.072 58.613 136.048 58.549 135.088C58.421 134 58.165 133.04 57.333 132.144C56.501 131.248 56.693 130.544 57.845 130.16C60.981 129.072 64.117 128.048 67.253 126.96C67.701 126.832 68.213 126.832 68.533 127.28ZM89.055 145.904C90.463 149.04 90.591 152.368 90.271 155.696C89.759 159.984 88.287 163.888 85.727 167.536C82.655 171.952 78.175 172.72 73.375 170.8C71.199 169.968 69.599 168.432 68.383 166.512C66.335 163.376 65.439 159.984 65.759 156.528C65.567 153.712 65.951 151.152 66.975 148.72C68.895 144.496 71.903 141.424 76.767 140.4C79.391 139.888 81.951 140.144 84.383 141.168C86.623 142.128 88.095 143.792 89.055 145.904ZM80.991 164.016C82.591 159.472 82.463 154.736 82.015 150.064C81.887 148.72 81.567 147.376 81.247 146.096C80.991 145.2 80.543 144.368 79.711 143.792C78.943 143.216 78.495 143.216 77.791 143.856C76.831 144.56 76.191 145.456 75.743 146.48C74.015 150.192 73.631 154.096 73.759 158C73.823 160.304 74.399 162.608 75.487 164.656C76.191 166 77.087 167.216 78.623 168.112C79.071 167.6 79.583 167.088 79.839 166.576C80.287 165.744 80.671 164.912 80.991 164.016ZM117.822 141.104C118.654 141.232 118.91 142.064 118.398 142.768C118.334 142.896 118.206 143.024 118.078 143.088C116.094 144.56 114.878 146.608 113.79 148.656C113.406 149.36 113.086 150.064 112.766 150.704C110.526 156.464 108.222 162.16 106.75 168.112C106.558 168.688 106.43 169.2 106.302 169.712C105.982 170.608 105.406 171.12 104.51 171.312C103.614 171.504 103.038 170.928 102.654 170.288C102.206 169.52 101.886 168.688 101.63 167.856C100.094 162.992 98.686 158.192 97.15 153.328C96.638 151.664 95.806 150 95.038 148.336C94.718 147.632 94.142 147.056 93.63 146.48C93.054 145.84 92.35 145.52 91.518 145.52C90.686 145.584 90.238 145.136 90.174 144.496C90.11 143.92 90.494 143.472 91.326 143.344C94.27 142.832 97.15 142.064 99.966 141.168C100.158 141.104 100.286 141.04 100.478 140.976C100.99 140.912 101.438 140.976 101.63 141.488C101.822 142 101.694 142.576 101.31 142.768C99.774 143.344 99.966 144.688 99.966 145.84C100.03 148.08 100.478 150.256 101.118 152.432C101.822 154.8 102.59 157.232 103.358 159.792C103.55 159.472 103.614 159.344 103.678 159.216C104.766 155.248 105.918 151.344 107.006 147.376C107.262 146.544 107.39 145.648 107.582 144.816C107.71 144.048 107.454 143.536 106.814 143.088C105.918 142.448 105.726 142 105.982 141.488C106.174 140.912 106.686 140.784 107.71 140.912C110.654 141.424 113.598 141.296 116.542 141.104C116.99 141.104 117.438 141.04 117.822 141.104ZM135.566 143.536C136.526 145.648 136.91 147.888 136.91 150.256C136.91 150.704 136.91 151.152 136.91 151.536C136.91 152.56 136.59 152.944 135.63 153.008C134.35 153.072 133.07 153.072 131.726 153.136C129.422 153.264 127.054 153.392 124.494 153.584C124.558 155.696 124.494 157.68 124.686 159.664C124.75 160.496 125.07 161.392 125.454 162.16C126.414 164.016 128.398 164.336 129.87 162.8C130.702 161.84 131.406 160.752 132.046 159.664C132.366 159.152 132.558 158.512 132.814 157.936C133.134 157.232 133.262 156.336 134.35 156.4C135.054 156.464 135.374 157.04 135.438 158.448C135.566 160.752 135.63 163.12 135.758 165.488C135.822 166.192 135.822 166.896 135.886 167.6C135.95 168.176 135.758 168.624 135.182 168.88C134.606 169.072 134.222 168.816 133.902 168.368C133.134 167.344 131.982 166.832 130.83 166.448C130.318 166.256 129.934 166.32 129.614 166.704C129.166 167.088 128.654 167.536 128.27 167.984C125.518 170.8 121.742 169.456 120.078 167.408C119.118 166.192 118.414 164.848 118.094 163.376C117.198 159.152 116.878 154.864 117.518 150.576C117.774 148.72 118.35 146.992 119.118 145.392C120.59 142.576 122.766 140.656 125.71 139.504C128.526 138.352 134.03 139.888 135.566 143.536ZM125.006 150.64C126.99 150.576 128.846 150.512 130.83 150.448C130.574 147.952 130.382 145.584 129.358 143.408C129.23 143.152 129.038 142.96 128.91 142.704C128.462 142.256 128.142 142.192 127.694 142.704C127.502 142.896 127.31 143.216 127.182 143.472C125.966 145.648 125.454 148.08 125.006 150.64ZM177.055 168.816C177.503 169.2 177.951 169.584 177.695 170.224C177.503 170.992 176.863 170.992 176.223 171.056C175.199 171.12 174.175 171.184 173.151 171.312C171.807 171.504 170.591 172.016 169.439 172.72C168.543 173.232 167.647 173.616 166.751 174.064C166.239 174.32 165.727 174.256 165.407 173.808C165.215 173.488 165.215 172.976 165.215 172.592C165.215 172.336 165.407 172.08 165.535 171.824C167.839 167.408 168.735 162.672 168.607 157.744C168.607 155.44 168.543 153.2 168.415 150.96C168.351 149.872 168.095 148.848 167.839 147.824C167.711 147.376 167.391 146.928 167.135 146.544C166.111 146.8 165.791 147.44 165.407 148.144C164.383 149.872 163.743 151.856 163.359 153.84C162.847 156.784 162.911 159.664 163.295 162.608C163.423 164.08 163.935 165.424 164.895 166.576C164.895 166.64 164.959 166.64 164.959 166.704C165.279 167.152 165.471 167.664 165.087 168.048C164.767 168.304 164.255 168.432 163.871 168.368C162.591 168.24 161.375 167.984 160.095 167.728C158.367 167.408 156.639 167.664 154.975 168.112C154.527 168.24 154.015 168.368 153.567 168.368C152.607 168.368 152.159 167.472 152.671 166.704C152.799 166.512 152.927 166.32 153.119 166.192C154.271 165.168 154.783 163.824 154.847 162.288C155.039 159.216 155.295 156.208 155.359 153.136C155.423 151.088 155.231 149.104 155.103 147.056C155.039 146.352 154.847 145.52 154.143 145.008C153.375 145.136 152.991 145.712 152.735 146.352C151.967 148.08 151.199 149.744 150.623 151.536C150.047 153.328 149.727 155.184 149.279 157.04C148.703 159.664 148.895 162.352 149.087 165.04C149.151 165.936 149.343 166.832 149.535 167.792C149.727 168.944 150.111 169.968 150.879 170.864C151.199 171.312 151.519 171.76 151.199 172.336C150.815 172.976 150.239 172.976 149.663 172.848C148.063 172.336 146.463 171.824 144.863 171.312C142.751 170.672 140.703 170.096 138.655 169.456C138.335 169.328 138.015 169.264 137.759 169.136C136.991 168.688 137.055 167.728 137.823 167.344C138.079 167.216 138.335 167.152 138.591 167.088C140.127 166.96 140.831 166 141.343 164.72C141.983 162.992 142.239 161.2 142.303 159.408C142.367 156.272 142.367 153.2 142.303 150.064C142.303 148.4 142.047 146.736 141.343 145.136C140.767 143.6 139.871 142.384 138.143 141.808C137.375 141.552 137.119 141.104 137.183 140.464C137.311 139.696 137.887 139.568 138.463 139.568C140.959 139.312 143.455 139.056 145.887 138.864C147.487 138.672 149.087 138.48 150.623 138.352C151.071 138.288 151.583 138.224 151.967 138.352C152.351 138.48 152.735 138.864 152.799 139.248C152.927 139.504 152.607 139.952 152.415 140.208C152.287 140.4 151.903 140.464 151.711 140.656C151.327 140.976 150.879 141.36 150.687 141.808C150.047 143.216 149.855 144.752 149.791 146.608C150.175 146.096 150.367 145.84 150.559 145.584C151.519 144.304 152.351 142.896 153.375 141.68C155.871 138.736 158.559 138.928 160.543 142.256C161.311 143.536 161.695 145.008 162.271 146.416C162.399 146.8 162.527 147.248 162.655 147.888C162.975 147.248 163.167 146.736 163.423 146.288C164.063 144.816 164.895 143.472 166.047 142.32C167.903 140.592 170.399 140.528 172.319 142.256C173.727 143.6 174.559 145.328 175.071 147.184C175.903 150.32 175.711 153.52 175.455 156.72C175.327 158.576 175.007 160.496 174.879 162.352C174.687 164.208 175.199 165.872 175.903 167.536C176.095 168.048 176.607 168.432 177.055 168.816ZM202.07 147.696C202.966 151.152 202.582 154.608 201.75 158.064C201.366 159.472 200.982 160.88 200.47 162.224C200.022 163.376 199.51 164.528 198.806 165.552C197.142 168.112 194.326 168.688 191.766 167.024C190.742 166.384 189.91 165.552 189.014 164.72C188.566 164.272 188.182 163.696 187.734 163.184C187.67 163.248 187.542 163.248 187.478 163.312C187.542 163.888 187.478 164.528 187.606 165.104C187.926 166.32 188.374 166.704 189.654 166.768C189.846 166.768 190.038 166.768 190.166 166.768C191.254 166.96 191.638 167.984 190.87 168.688C190.358 169.2 189.654 169.584 188.95 169.84C185.942 170.992 182.87 172.016 179.862 173.104C179.414 173.232 179.03 173.488 178.582 173.488C178.198 173.424 177.75 173.168 177.558 172.848C177.366 172.592 177.622 172.144 177.686 171.76C177.75 171.696 177.814 171.632 177.878 171.568C179.99 170.224 180.246 167.984 180.566 165.744C181.142 161.264 181.206 156.656 181.334 152.112C181.398 147.44 181.526 142.832 181.59 138.16C181.59 137.648 181.59 137.072 181.59 136.56C181.59 135.28 181.014 134.384 179.734 133.936C179.478 133.872 179.222 133.808 178.966 133.68C178.518 133.488 178.198 133.104 178.262 132.528C178.39 131.952 178.838 131.632 179.414 131.632C180.054 131.696 180.63 131.824 181.27 131.824C184.15 132.016 187.094 132.208 189.974 132.4C190.678 132.464 191.318 132.528 191.958 132.592C192.534 132.656 192.854 133.04 192.854 133.616C192.854 134.064 192.598 134.448 192.15 134.576C191.958 134.64 191.83 134.704 191.638 134.768C190.486 134.96 189.782 135.792 189.398 136.816C189.078 138.032 188.694 139.184 188.566 140.464C188.31 142.32 188.31 144.24 188.182 146.16C188.182 146.288 188.182 146.48 188.246 146.736C188.886 146.032 189.462 145.456 190.038 144.88C192.086 142.576 194.646 141.872 197.59 142.32C198.87 142.512 199.958 143.152 200.598 144.304C201.238 145.328 201.814 146.48 202.07 147.696ZM195.03 156.976C195.35 154.608 195.67 152.176 195.158 149.744C194.966 148.72 194.71 147.696 194.262 146.736C193.686 145.584 192.726 145.456 191.766 146.224C191.254 146.608 190.806 147.056 190.422 147.504C188.758 149.616 187.862 152.048 188.246 154.736C188.246 155.696 188.182 156.528 188.246 157.424C188.31 158.832 188.758 160.112 189.462 161.328C190.358 162.992 192.278 163.248 193.558 161.84C193.942 161.456 194.262 160.944 194.39 160.368C194.71 159.28 194.902 158.128 195.03 156.976ZM221.566 143.536C222.526 145.648 222.91 147.888 222.91 150.256C222.91 150.704 222.91 151.152 222.91 151.536C222.91 152.56 222.59 152.944 221.63 153.008C220.35 153.072 219.07 153.072 217.726 153.136C215.422 153.264 213.054 153.392 210.494 153.584C210.558 155.696 210.494 157.68 210.686 159.664C210.75 160.496 211.07 161.392 211.454 162.16C212.414 164.016 214.398 164.336 215.87 162.8C216.702 161.84 217.406 160.752 218.046 159.664C218.366 159.152 218.558 158.512 218.814 157.936C219.134 157.232 219.262 156.336 220.35 156.4C221.054 156.464 221.374 157.04 221.438 158.448C221.566 160.752 221.63 163.12 221.758 165.488C221.822 166.192 221.822 166.896 221.886 167.6C221.95 168.176 221.758 168.624 221.182 168.88C220.606 169.072 220.222 168.816 219.902 168.368C219.134 167.344 217.982 166.832 216.83 166.448C216.318 166.256 215.934 166.32 215.614 166.704C215.166 167.088 214.654 167.536 214.27 167.984C211.518 170.8 207.742 169.456 206.078 167.408C205.118 166.192 204.414 164.848 204.094 163.376C203.198 159.152 202.878 154.864 203.518 150.576C203.774 148.72 204.35 146.992 205.118 145.392C206.59 142.576 208.766 140.656 211.71 139.504C214.526 138.352 220.03 139.888 221.566 143.536ZM211.006 150.64C212.99 150.576 214.846 150.512 216.83 150.448C216.574 147.952 216.382 145.584 215.358 143.408C215.23 143.152 215.038 142.96 214.91 142.704C214.462 142.256 214.142 142.192 213.694 142.704C213.502 142.896 213.31 143.216 213.182 143.472C211.966 145.648 211.454 148.08 211.006 150.64ZM249.011 143.92C249.651 146.8 248.499 149.808 245.875 151.728C245.427 152.048 244.979 152.112 244.531 151.792C244.019 151.472 244.019 151.024 244.147 150.512C244.211 150.384 244.275 150.256 244.275 150.128C244.915 148.208 244.211 147.184 242.163 147.248C238.963 147.376 236.531 149.04 234.611 151.472C234.419 151.728 234.355 152.112 234.291 152.432C234.291 156.4 233.715 160.304 234.227 164.272C234.291 164.72 234.355 165.168 234.483 165.552C234.739 166.704 235.379 167.408 236.659 167.536C237.811 167.6 238.195 167.92 238.259 168.56C238.323 169.2 238.003 169.584 236.851 169.84C234.419 170.352 231.923 170.8 229.427 171.376C227.379 171.824 225.331 172.4 223.283 172.912C222.899 172.976 222.515 173.04 222.259 172.976C221.427 172.784 221.363 171.888 222.003 171.184C222.643 170.544 223.347 169.904 223.923 169.2C225.075 167.664 225.587 165.872 225.907 164.016C226.995 158.064 227.251 152.048 226.547 146.032C226.419 145.072 226.163 144.176 225.843 143.344C225.459 142.256 224.883 141.36 223.603 141.104C223.027 140.976 222.707 140.592 222.771 139.952C222.899 139.248 223.347 138.736 223.987 138.672C224.499 138.608 225.011 138.672 225.587 138.672C228.851 138.672 232.179 138.736 235.507 138.736C235.827 138.736 236.147 138.672 236.467 138.736C237.555 138.864 237.939 139.76 237.299 140.656C237.171 140.848 236.979 140.976 236.851 141.104C235.571 142.128 235.251 143.536 234.931 145.2C236.147 144.048 237.043 143.152 238.003 142.32C239.475 141.104 241.203 140.272 243.187 140.144C245.939 139.888 248.499 141.488 249.011 143.92Z" fill="white"/>
</g>
</g>
<defs>
<filter id="filter0_d_288_5067" x="30.805" y="126.832" width="222.846" height="56.7681" filterUnits="userSpaceOnUse" color-interpolation-filters="sRGB">
<feFlood flood-opacity="0" result="BackgroundImageFix"/>
<feColorMatrix in="SourceAlpha" type="matrix" values="0 0 0 0 0 0 0 0 0 0 0 0 0 0 0 0 0 0 127 0" result="hardAlpha"/>
<feOffset dy="4"/>
<feGaussianBlur stdDeviation="2"/>
<feComposite in2="hardAlpha" operator="out"/>
<feColorMatrix type="matrix" values="0 0 0 0 0 0 0 0 0 0 0 0 0 0 0 0 0 0 0.25 0"/>
<feBlend mode="normal" in2="BackgroundImageFix" result="effect1_dropShadow_288_5067"/>
<feBlend mode="normal" in="SourceGraphic" in2="effect1_dropShadow_288_5067" result="shape"/>
</filter>
<radialGradient id="paint0_radial_288_5067" cx="0" cy="0" r="1" gradientUnits="userSpaceOnUse" gradientTransform="translate(141.461 141.435) scale(128.727 128.68)">
<stop stop-color="#FF002F"/>
<stop offset="1" stop-color="#99001C" stop-opacity="0"/>
</radialGradient>
<linearGradient id="paint1_linear_288_5067" x1="141.487" y1="141.435" x2="141.487" y2="0" gradientUnits="userSpaceOnUse">
<stop stop-color="#FF002F"/>
<stop offset="1" stop-color="#99001C" stop-opacity="0"/>
</linearGradient>
<linearGradient id="paint2_linear_288_5067" x1="141.503" y1="141.475" x2="41.4749" y2="41.4105" gradientUnits="userSpaceOnUse">
<stop stop-color="#FF002F"/>
<stop offset="1" stop-color="#99001C" stop-opacity="0"/>
</linearGradient>
<linearGradient id="paint3_linear_288_5067" x1="141.487" y1="141.46" x2="0" y2="141.46" gradientUnits="userSpaceOnUse">
<stop stop-color="#FF002F"/>
<stop offset="1" stop-color="#99001C" stop-opacity="0"/>
</linearGradient>
<linearGradient id="paint4_linear_288_5067" x1="141.529" y1="141.456" x2="41.5192" y2="241.503" gradientUnits="userSpaceOnUse">
<stop stop-color="#FF002F"/>
<stop offset="1" stop-color="#99001C" stop-opacity="0"/>
</linearGradient>
<linearGradient id="paint5_linear_288_5067" x1="141.513" y1="141.435" x2="141.513" y2="282.87" gradientUnits="userSpaceOnUse">
<stop stop-color="#FF002F"/>
<stop offset="1" stop-color="#99001C" stop-opacity="0"/>
</linearGradient>
<linearGradient id="paint6_linear_288_5067" x1="141.528" y1="141.412" x2="241.538" y2="241.459" gradientUnits="userSpaceOnUse">
<stop stop-color="#FF002F"/>
<stop offset="1" stop-color="#99001C" stop-opacity="0"/>
</linearGradient>
<linearGradient id="paint7_linear_288_5067" x1="141.513" y1="141.435" x2="283" y2="141.435" gradientUnits="userSpaceOnUse">
<stop stop-color="#FF002F"/>
<stop offset="1" stop-color="#99001C" stop-opacity="0"/>
</linearGradient>
<linearGradient id="paint8_linear_288_5067" x1="141.484" y1="141.413" x2="241.494" y2="41.3661" gradientUnits="userSpaceOnUse">
<stop stop-color="#FF002F"/>
<stop offset="1" stop-color="#99001C" stop-opacity="0"/>
</linearGradient>
<radialGradient id="paint9_radial_288_5067" cx="0" cy="0" r="1" gradientUnits="userSpaceOnUse" gradientTransform="translate(141.452 141.423) scale(84.2864 84.2553)">
<stop stop-color="#994C00"/>
<stop offset="1" stop-color="#FF7E00" stop-opacity="0"/>
</radialGradient>
<radialGradient id="paint10_radial_288_5067" cx="0" cy="0" r="1" gradientUnits="userSpaceOnUse" gradientTransform="translate(141.153 319.184) scale(74.8642 74.8365)">
<stop stop-color="#FF9689"/>
<stop offset="0.99" stop-color="#FF909C"/>
</radialGradient>
<linearGradient id="paint11_linear_288_5067" x1="140.229" y1="309.072" x2="140.229" y2="234.159" gradientUnits="userSpaceOnUse">
<stop stop-color="#48365E"/>
<stop offset="1" stop-color="#685763"/>
</linearGradient>
<linearGradient id="paint12_linear_288_5067" x1="49.7041" y1="304.889" x2="224.541" y2="304.889" gradientUnits="userSpaceOnUse">
<stop stop-color="#C77CBD"/>
<stop offset="1" stop-color="#974577"/>
</linearGradient>
<radialGradient id="paint13_radial_288_5067" cx="0" cy="0" r="1" gradientUnits="userSpaceOnUse" gradientTransform="translate(140.125 234.502) scale(114.579 38.7574)">
<stop stop-color="#0038FF"/>
<stop offset="1" stop-color="#002299" stop-opacity="0"/>
</radialGradient>
<radialGradient id="paint14_radial_288_5067" cx="0" cy="0" r="1" gradientUnits="userSpaceOnUse" gradientTransform="translate(131.303 283.955) scale(30.1921 21.0638)">
<stop stop-color="#006FFF"/>
<stop offset="1"/>
</radialGradient>
<clipPath id="clip0_288_5067">
<rect width="283" height="342" fill="white"/>
</clipPath>
</defs>
</svg>
