<svg width="767" height="329" viewBox="0 0 767 329" fill="none" xmlns="http://www.w3.org/2000/svg">
<g clip-path="url(#clip0_6238_14104)">
<path d="M680.636 314.155C677.165 315.664 668.682 317.052 656.699 318.35C584.222 325.954 383.544 329.001 383.544 329.001C383.544 329.001 110.963 324.867 86.4218 314.155C61.8804 303.413 40.6294 103.261 60.9145 92.1867C97.2888 72.3314 383.544 75.0472 383.544 75.0472C383.544 75.0472 669.799 72.3616 706.174 92.1867C726.459 103.291 705.208 303.413 680.666 314.155H680.636Z" fill="url(#paint0_linear_6238_14104)"/>
<path d="M639.282 308.15C618.151 316.78 383.514 320.099 383.514 320.099C383.514 320.099 148.877 316.78 127.747 308.15C111.205 301.36 96.4139 200.967 99.1005 153.351C99.8853 140.074 101.998 130.931 105.772 128.969C137.105 112.916 383.514 115.089 383.514 115.089C383.514 115.089 629.954 112.916 661.257 128.969C664.457 130.599 666.479 137.449 667.476 147.557C671.883 192.247 656.548 301.058 639.312 308.119L639.282 308.15Z" fill="url(#paint1_linear_6238_14104)"/>
<path d="M651.327 139.2C621.111 125.017 383.516 126.918 383.516 126.918C383.516 126.918 145.921 124.987 115.704 139.2C98.8604 147.105 116.519 290.015 136.895 297.68C157.271 305.344 383.516 308.271 383.516 308.271C383.516 308.271 609.761 305.344 630.137 297.68C650.512 290.015 668.171 147.105 651.327 139.2Z" fill="url(#paint2_linear_6238_14104)"/>
<g style="mix-blend-mode:multiply" opacity="0.66">
<path d="M73.1701 290.497C73.1701 290.497 65.1104 263.852 69.8194 249.79C74.5285 235.729 79.3281 228.336 80.0827 223.146C80.8374 217.956 60.4617 164.304 60.824 146.923C61.1862 129.542 83.041 125.891 102.088 111.256C121.136 96.591 134.116 81.0508 134.116 81.0508H123.007L51.6172 123.99L59.3147 207.998L61.156 270.521L73.1399 290.527L73.1701 290.497Z" fill="#9B64A1"/>
</g>
<path d="M76.764 123.598C64.1764 131.715 53.7923 119.886 53.7923 119.886C53.7923 119.886 60.5842 175.258 66.4403 201.963C67.6176 207.304 68.7345 211.528 69.791 213.882C73.9567 223.387 71.2097 233.888 68.9458 243.363C68.9156 243.484 68.8552 243.604 68.8552 243.665C68.01 247.165 67.2554 250.545 66.9837 253.653V253.834C66.8931 254.588 66.8629 255.312 66.8629 256.006C66.8629 267.141 71.9946 286.363 72.5983 288.686C72.6285 288.777 72.6285 288.837 72.6285 288.867H72.5379C65.2631 286.574 57.2939 281.353 50.2002 275.168C41.6877 267.744 34.3826 258.843 30.8207 251.601C30.7301 251.48 30.6999 251.359 30.6697 251.239C29.5227 248.885 28.8284 246.743 28.5869 244.872C27.1078 232.409 54.4866 235.94 52.8264 212.222C52.8264 212.041 52.7962 211.8 52.7962 211.588C50.7737 189.289 10.7167 134.943 2.6268 108.148C1.84196 105.583 1.3288 103.26 1.20805 101.268C-0.271071 78.4555 29.0699 41.9737 52.7962 30.2356C76.4621 18.4673 131.854 51.0565 137.982 58.4494C144.109 65.8725 89.3214 115.45 76.764 123.598Z" fill="url(#paint3_linear_6238_14104)"/>
<path d="M125.635 81.2317C125.635 81.2317 332.863 64.9069 356.71 51.5695C380.557 38.232 383.545 74.925 383.545 74.925L125.665 81.2317H125.635Z" fill="url(#paint4_linear_6238_14104)"/>
<g style="mix-blend-mode:multiply" opacity="0.5">
<path d="M137.981 58.4801C137.679 62.9158 93.2749 105.855 66.1376 106.338C39.0002 106.821 30.6085 89.6812 31.0914 81.2321C31.5744 72.7831 58.4703 51.4191 69.8203 48.643C81.2005 45.8668 92.2788 61.045 95.2672 64.9376C98.2255 68.8302 82.6796 82.8918 73.4124 84.7325C64.1453 86.5732 55.6328 77.3094 55.6328 77.3094C55.6328 77.3094 72.6578 67.3214 75.2538 64.9074C77.8498 62.4934 58.2288 62.8856 51.1954 67.6835C44.162 72.4813 60.8248 88.4138 74.8916 89.5303C88.9583 90.6468 105.983 70.6708 106.346 63.2477C106.708 55.8548 78.4233 45.1125 69.8203 46.2289C61.187 47.3454 28.6162 74.3522 26.7748 81.202C24.9335 88.0517 23.4543 124.141 56.5686 141.251C56.5686 141.251 57.1119 131.323 59.3457 128.366C61.5795 125.409 69.6995 131.685 89.3205 118.016C108.942 104.316 140.728 64.7263 137.981 58.4499V58.4801Z" fill="#9B64A1"/>
</g>
<g style="mix-blend-mode:multiply" opacity="0.5">
<path d="M30.669 251.329C28.7371 242.488 54.1538 254.196 60.0703 262.705C65.9868 271.214 72.6881 288.957 72.6881 288.957C72.6881 288.957 38.6683 273.598 30.669 251.299V251.329Z" fill="#9B64A1"/>
</g>
<g style="mix-blend-mode:multiply" opacity="0.5">
<path d="M66.982 253.864C66.982 253.864 57.1414 239.41 56.7791 230.901C56.4169 222.391 66.4387 201.963 66.4387 201.963C66.4387 201.963 70.1516 212.796 72.7174 222.784C75.2832 232.772 66.5293 244.118 66.982 253.894V253.864Z" fill="#9B64A1"/>
</g>
<g style="mix-blend-mode:multiply" opacity="0.5">
<path d="M52.8246 212.312C52.8246 212.131 52.7944 211.89 52.7944 211.679C50.7719 189.379 10.7149 135.034 2.625 108.238C2.625 108.238 43.4065 158.359 47.4816 172.813C51.0738 185.426 54.9074 196.38 52.8246 212.312Z" fill="#9B64A1"/>
</g>
<path d="M1.20721 101.358C1.20721 101.358 -5.76579 57.8458 13.6439 30.7787C33.0536 3.71155 71.5711 0 75.2539 0C78.9366 0 70.8165 21.3942 61.9418 27.7008C53.0368 34.0376 4.92011 53.9834 1.20721 101.358Z" fill="url(#paint5_linear_6238_14104)"/>
<g style="mix-blend-mode:multiply" opacity="0.5">
<path d="M75.2544 0C75.2544 0 43.6797 11.8287 25.9604 29.2398C8.27135 46.6207 3.83398 85.094 3.83398 85.094C3.83398 85.094 23.455 42.8186 61.9423 27.7008C61.9423 27.7008 78.9673 9.98799 75.2544 0Z" fill="#9B64A1"/>
</g>
<g style="mix-blend-mode:soft-light" opacity="0.5">
<path d="M18.5651 61.9188C13.0108 69.523 57.3241 51.0557 69.8212 46.2579C82.2881 41.46 105.622 59.9574 111.176 61.7981C116.73 63.6388 134.118 58.0866 134.118 58.0866C134.118 58.0866 95.6303 30.4159 73.2322 28.3338C50.8341 26.2517 18.5953 61.9188 18.5953 61.9188H18.5651Z" fill="white"/>
</g>
<g style="mix-blend-mode:soft-light" opacity="0.5">
<path d="M13.6446 30.7781C10.4751 40.7058 24.5116 27.2476 39.7858 18.2253C55.0902 9.20289 69.821 2.23242 69.821 2.23242C69.821 2.23242 30.1564 3.83171 13.6748 30.7781H13.6446Z" fill="white"/>
</g>
<g style="mix-blend-mode:multiply" opacity="0.5">
<path d="M34.1713 113.217C27.802 104.526 30.5792 91.0078 30.5792 91.0078C30.5792 91.0078 39.6954 102.263 56.7506 105.703C73.7756 109.143 76.764 123.567 76.764 123.567C76.764 123.567 67.2855 130.598 54.2451 123.567C41.2047 116.536 34.1713 113.187 34.1713 113.187V113.217Z" fill="#9B64A1"/>
</g>
<g style="mix-blend-mode:multiply" opacity="0.5">
<path d="M76.7637 48.9746C76.7637 48.9746 92.7623 58.2082 95.63 66.0839C98.4675 73.9898 105.984 65.4201 105.803 61.1956C105.622 56.971 89.6532 49.3367 76.7637 48.9746Z" fill="#9B64A1"/>
</g>
<g style="mix-blend-mode:soft-light" opacity="0.5">
<path d="M31.9371 237.992C30.4881 244.6 55.6634 256.067 60.463 260.865C65.2626 265.663 63.2703 252.355 59.2857 239.953C55.271 227.551 53.0372 227.461 50.1091 227.883C47.1811 228.336 31.9371 237.962 31.9371 237.962V237.992Z" fill="white"/>
</g>
<path d="M35.3477 93.7235C35.3477 93.7235 51.5878 104.828 68.6128 103.862C85.6378 102.867 105.017 89.1973 105.017 89.1973C105.017 89.1973 87.2075 104.345 68.2808 106.216C49.354 108.087 35.3477 93.7537 35.3477 93.7537V93.7235Z" fill="white"/>
<path d="M34.1699 74.8947C34.1699 74.8947 59.7074 53.2893 66.3785 51.6599C73.0497 50.0304 82.7998 52.4142 82.7998 52.4142C82.7998 52.4142 78.0002 47.7974 69.8198 48.6423C61.6393 49.4571 38.879 67.532 34.1699 74.8947Z" fill="white"/>
<path d="M58.4695 79.8736C58.5903 76.8259 70.8157 68.0449 70.8157 68.0449C70.8157 68.0449 55.1491 76.7957 55.632 77.3087C56.115 77.8217 58.4695 79.8736 58.4695 79.8736Z" fill="white"/>
<path d="M19.1973 37.7787C19.1973 37.7787 25.4458 26.0406 34.1998 19.1305C42.9538 12.2204 65.1708 4.31445 65.1708 4.31445C65.1708 4.31445 31.0604 18.9192 19.2275 37.7787H19.1973Z" fill="white"/>
<g style="mix-blend-mode:multiply" opacity="0.5">
<path d="M3.83398 85.0944C3.83398 85.0944 8.66377 50.2119 21.9759 35.8787C35.288 21.5455 57.4446 29.6324 57.4446 29.6324C57.4446 29.6324 40.963 36.5426 28.0433 52.5052C15.1236 68.4679 3.83398 85.0944 3.83398 85.0944Z" fill="#9B64A1"/>
</g>
<g style="mix-blend-mode:soft-light" opacity="0.5">
<path d="M36.4336 244.841C40.1163 236.09 52.6737 250.182 53.4284 253.863C54.1831 257.545 36.4336 244.841 36.4336 244.841Z" fill="white"/>
</g>
<g style="mix-blend-mode:multiply" opacity="0.5">
<path d="M371.168 49.6989C366.459 47.1642 345.117 74.8952 345.117 74.8952H383.514C383.514 74.8952 381.642 55.3417 371.168 49.6989Z" fill="#9B64A1"/>
</g>
<g style="mix-blend-mode:soft-light" opacity="0.5">
<path d="M222.23 73.989C222.23 73.989 330.357 71.062 340.681 69.342C351.005 67.622 364.317 49.0039 364.317 49.0039C364.317 49.0039 341.798 57.1512 309.589 63.7294C277.381 70.3076 222.23 73.989 222.23 73.989Z" fill="white"/>
</g>
<path d="M66.38 103.894C63.9349 102.988 81.9259 95.4748 84.8841 95.8369C87.8424 96.199 80.0543 108.993 66.38 103.894Z" fill="#EED7F2"/>
<path d="M63.2087 29.5416C53.0661 33.5247 75.1322 35.9991 82.0448 34.2791C88.9575 32.5591 75.6152 24.6834 63.2087 29.5416Z" fill="#EED7F2"/>
<path d="M28.0124 18.2552C23.1524 25.1351 34.6835 22.7815 42.1395 16.6861C49.5955 10.5907 31.846 12.8237 28.0124 18.2552Z" fill="#EED7F2"/>
<path d="M360.059 54.3753C358.279 43.8743 347.864 62.0699 349.374 64.9366C350.853 67.8032 360.693 58.117 360.059 54.3753Z" fill="#EED7F2"/>
<g style="mix-blend-mode:multiply" opacity="0.66">
<path d="M693.829 290.497C693.829 290.497 701.888 263.852 697.179 249.79C692.47 235.729 687.671 228.336 686.916 223.146C686.161 217.956 706.537 164.304 706.175 146.923C705.813 129.542 683.958 125.891 664.91 111.256C645.863 96.591 632.883 81.0508 632.883 81.0508H643.991L715.382 123.99L707.684 207.998L705.843 270.521L693.859 290.527L693.829 290.497Z" fill="#9B64A1"/>
</g>
<path d="M690.237 123.598C702.824 131.715 713.209 119.887 713.209 119.887C713.209 119.887 706.417 175.258 700.561 201.963C699.383 207.304 698.266 211.529 697.21 213.882C693.044 223.388 695.791 233.889 698.055 243.364C698.085 243.484 698.146 243.605 698.146 243.665C698.991 247.166 699.745 250.545 700.017 253.653V253.834C700.108 254.589 700.138 255.313 700.138 256.007C700.138 267.142 695.006 286.363 694.403 288.687C694.372 288.777 694.372 288.838 694.372 288.868H694.463C701.738 286.574 709.707 281.354 716.801 275.168C725.313 267.745 732.618 258.843 736.18 251.601C736.271 251.481 736.301 251.36 736.331 251.239C737.478 248.886 738.172 246.743 738.414 244.872C739.893 232.41 712.514 235.94 714.174 212.223C714.174 212.042 714.205 211.8 714.205 211.589C716.227 189.29 756.284 134.944 764.374 108.149C765.159 105.584 765.672 103.26 765.793 101.269C767.272 78.3355 737.931 41.8537 714.205 30.1457C690.539 18.3774 635.147 50.9666 629.019 58.3595C622.892 65.7826 677.679 115.36 690.237 123.508V123.598Z" fill="url(#paint6_linear_6238_14104)"/>
<path d="M641.366 81.2317C641.366 81.2317 434.138 64.9069 410.291 51.5695C386.444 38.232 383.455 74.925 383.455 74.925L641.335 81.2317H641.366Z" fill="url(#paint7_linear_6238_14104)"/>
<g style="mix-blend-mode:multiply" opacity="0.5">
<path d="M629.019 58.4801C629.32 62.9158 673.724 105.855 700.862 106.338C727.999 106.821 736.391 89.6812 735.908 81.2321C735.425 72.7831 708.529 51.4191 697.179 48.643C685.799 45.8668 674.72 61.045 671.732 64.9376C668.774 68.8302 684.32 82.8918 693.587 84.7325C702.854 86.5732 711.366 77.3094 711.366 77.3094C711.366 77.3094 694.341 67.3214 691.745 64.9074C689.149 62.4934 708.77 62.8856 715.804 67.6835C722.837 72.4813 706.174 88.4138 692.108 89.5303C678.041 90.6468 661.016 70.6708 660.654 63.2477C660.291 55.8548 688.576 45.1125 697.179 46.2289C705.812 47.3454 738.383 74.3522 740.224 81.202C742.066 88.0517 743.545 124.141 710.431 141.251C710.431 141.251 709.887 131.323 707.653 128.366C705.42 125.409 697.3 131.685 677.679 118.016C658.058 104.316 626.272 64.7263 629.019 58.4499V58.4801Z" fill="#9B64A1"/>
</g>
<g style="mix-blend-mode:multiply" opacity="0.5">
<path d="M736.3 251.331C738.232 242.49 712.816 254.197 706.899 262.707C700.983 271.216 694.281 288.959 694.281 288.959C694.281 288.959 728.301 273.6 736.3 251.301V251.331Z" fill="#9B64A1"/>
</g>
<g style="mix-blend-mode:multiply" opacity="0.5">
<path d="M700.018 253.864C700.018 253.864 709.859 239.41 710.221 230.901C710.583 222.391 700.561 201.963 700.561 201.963C700.561 201.963 696.848 212.796 694.282 222.784C691.717 232.772 700.471 244.118 700.018 253.894V253.864Z" fill="#9B64A1"/>
</g>
<g style="mix-blend-mode:multiply" opacity="0.5">
<path d="M714.144 212.312C714.144 212.131 714.174 211.89 714.174 211.679C716.197 189.379 756.254 135.034 764.343 108.238C764.343 108.238 723.562 158.359 719.487 172.813C715.895 185.426 712.061 196.38 714.144 212.312Z" fill="#9B64A1"/>
</g>
<path d="M765.763 101.359C765.763 101.359 772.736 57.8467 753.327 30.7494C733.917 3.68225 695.43 -0.0292969 691.717 -0.0292969C688.004 -0.0292969 696.154 21.3649 705.029 27.6715C713.903 33.9781 762.05 53.9541 765.733 101.329L765.763 101.359Z" fill="url(#paint8_linear_6238_14104)"/>
<g style="mix-blend-mode:multiply" opacity="0.5">
<path d="M691.746 0C691.746 0 723.32 11.8287 741.04 29.2397C758.759 46.6207 763.196 85.1242 763.196 85.1242C763.196 85.1242 743.575 42.8488 705.088 27.731C705.088 27.731 688.063 10.0182 691.776 0.0301752L691.746 0Z" fill="#9B64A1"/>
</g>
<g style="mix-blend-mode:soft-light" opacity="0.5">
<path d="M748.406 61.9208C753.96 69.5249 709.647 51.0577 697.15 46.2598C684.683 41.462 661.349 59.9594 655.795 61.8001C650.241 63.6407 632.854 58.0885 632.854 58.0885C632.854 58.0885 671.341 30.4179 693.739 28.3358C716.137 26.2537 748.376 61.9208 748.376 61.9208H748.406Z" fill="white"/>
</g>
<g style="mix-blend-mode:soft-light" opacity="0.5">
<path d="M753.357 30.7801C756.527 40.7077 742.49 27.2496 727.216 18.2272C711.942 9.20484 697.211 2.23438 697.211 2.23438C697.211 2.23438 736.876 3.83366 753.357 30.7801Z" fill="white"/>
</g>
<g style="mix-blend-mode:multiply" opacity="0.5">
<path d="M732.829 113.219C739.198 104.528 736.421 91.0098 736.421 91.0098C736.421 91.0098 727.305 102.265 710.25 105.705C693.195 109.145 690.236 123.569 690.236 123.569C690.236 123.569 699.715 130.6 712.755 123.569C725.796 116.538 732.829 113.189 732.829 113.189V113.219Z" fill="#9B64A1"/>
</g>
<g style="mix-blend-mode:multiply" opacity="0.5">
<path d="M690.238 48.9746C690.238 48.9746 674.239 58.2082 671.371 66.0839C668.534 73.9898 661.017 65.4201 661.199 61.1956C661.38 56.971 677.348 49.3367 690.238 48.9746Z" fill="#9B64A1"/>
</g>
<g style="mix-blend-mode:soft-light" opacity="0.5">
<path d="M735.064 237.992C736.513 244.6 711.337 256.067 706.538 260.865C701.738 265.663 703.731 252.355 707.715 239.953C711.7 227.551 713.964 227.461 716.892 227.883C719.82 228.336 735.064 237.962 735.064 237.962V237.992Z" fill="white"/>
</g>
<path d="M731.652 93.7255C731.652 93.7255 715.412 104.83 698.387 103.864C681.362 102.869 661.982 89.1992 661.982 89.1992C661.982 89.1992 679.792 104.347 698.719 106.218C717.646 108.089 731.652 93.7557 731.652 93.7557V93.7255Z" fill="white"/>
<path d="M732.8 74.8947C732.8 74.8947 707.262 53.2893 700.591 51.6599C693.92 50.0606 684.17 52.4142 684.17 52.4142C684.17 52.4142 688.97 47.7974 697.15 48.6423C705.33 49.4571 728.091 67.532 732.8 74.8947Z" fill="white"/>
<path d="M708.5 79.8755C708.38 76.8279 696.154 68.0469 696.154 68.0469C696.154 68.0469 711.821 76.7977 711.338 77.3107C710.855 77.8236 708.5 79.8755 708.5 79.8755Z" fill="white"/>
<path d="M747.802 37.7807C747.802 37.7807 741.553 26.0425 732.799 19.1324C724.045 12.2223 701.828 4.31641 701.828 4.31641C701.828 4.31641 735.938 18.9212 747.771 37.7807H747.802Z" fill="white"/>
<g style="mix-blend-mode:multiply" opacity="0.5">
<path d="M763.167 85.0944C763.167 85.0944 758.337 50.2119 745.025 35.8787C731.713 21.5455 709.557 29.6324 709.557 29.6324C709.557 29.6324 726.038 36.5426 738.958 52.5052C751.878 68.4377 763.167 85.0944 763.167 85.0944Z" fill="#9B64A1"/>
</g>
<g style="mix-blend-mode:soft-light" opacity="0.5">
<path d="M730.565 244.843C726.882 236.092 714.325 250.184 713.57 253.865C712.816 257.547 730.565 244.843 730.565 244.843Z" fill="white"/>
</g>
<g style="mix-blend-mode:multiply" opacity="0.5">
<path d="M395.831 49.6989C400.54 47.1642 421.881 74.8952 421.881 74.8952H383.484C383.484 74.8952 385.356 55.3417 395.831 49.6989Z" fill="#9B64A1"/>
</g>
<g style="mix-blend-mode:soft-light" opacity="0.5">
<path d="M544.77 73.9909C544.77 73.9909 436.643 71.0639 426.319 69.3439C415.996 67.6239 402.684 49.0059 402.684 49.0059C402.684 49.0059 425.202 57.1532 457.411 63.7314C489.62 70.3095 544.77 73.9909 544.77 73.9909Z" fill="white"/>
</g>
<path d="M700.62 103.894C703.065 102.988 685.074 95.4748 682.116 95.8369C679.158 96.199 686.946 108.993 700.62 103.894Z" fill="#EED7F2"/>
<path d="M703.761 29.5416C713.904 33.5247 691.838 35.9991 684.925 34.2791C678.013 32.5591 691.355 24.6834 703.761 29.5416Z" fill="#EED7F2"/>
<path d="M738.958 18.2571C743.818 25.1371 732.287 22.7834 724.831 16.688C717.375 10.5927 735.124 12.8256 738.958 18.2571Z" fill="#EED7F2"/>
<path d="M406.939 54.3772C408.72 43.8762 419.135 62.0719 417.625 64.9385C416.146 67.8052 406.306 58.1189 406.939 54.3772Z" fill="#EED7F2"/>
<g style="mix-blend-mode:multiply" opacity="0.5">
<path d="M680.636 314.154L656.699 318.349C584.222 325.953 383.544 329 383.544 329C383.544 329 110.963 324.866 86.4219 314.154C86.4219 314.154 214.502 321.004 392.177 319.978C569.853 318.952 680.667 314.154 680.667 314.154H680.636Z" fill="#9B64A1"/>
</g>
<g style="mix-blend-mode:soft-light" opacity="0.5">
<path d="M127.748 308.149C127.748 308.149 204.391 308.481 383.515 308.3C562.64 308.119 632.883 309.718 632.883 309.718C632.883 309.718 548.905 319.163 380.316 320.038C211.726 320.944 127.748 308.119 127.748 308.119V308.149Z" fill="white"/>
</g>
<g style="mix-blend-mode:multiply" opacity="0.5">
<path d="M667.476 147.589L664.94 152.718C664.94 152.718 600.885 128.065 380.556 128.065C160.228 128.065 100.429 152.718 100.429 152.718L99.1309 153.382C99.9157 140.105 102.029 130.962 105.802 129.001C137.135 112.947 383.545 115.12 383.545 115.12C383.545 115.12 629.985 112.947 661.288 129.001C664.487 130.63 666.51 137.48 667.506 147.589H667.476Z" fill="#9B64A1"/>
</g>
<g style="mix-blend-mode:soft-light" opacity="0.5">
<path d="M134.117 85.095C106.013 87.7202 171.698 105.071 380.315 112.041C588.931 118.982 624.581 85.095 624.581 85.095C624.581 85.095 348.438 65.119 134.117 85.095Z" fill="white"/>
</g>
<g style="mix-blend-mode:soft-light" opacity="0.5">
<path d="M118.692 149.337C94.8148 153.169 231.196 209.627 413.46 208.299C595.724 206.972 633.034 162.403 636.596 157.545C640.158 152.686 421.52 100.544 118.722 149.307L118.692 149.337Z" fill="white"/>
</g>
<g style="mix-blend-mode:multiply" opacity="0.2">
<path d="M127.204 272.121C114.919 211.921 261.11 218.62 436.794 212.283C612.507 205.977 646.587 205.765 644.837 240.407C643.086 275.048 613.202 302.658 451.434 303.654C289.666 304.649 134.419 307.667 127.174 272.09L127.204 272.121Z" fill="#CF6481"/>
</g>
<g style="mix-blend-mode:multiply" opacity="0.2">
<path d="M360.09 216.147C304.396 226.557 435.615 260.172 504.802 244.934C573.989 229.695 575.226 212.314 575.226 212.314C575.226 212.314 400.811 208.542 360.059 216.147H360.09Z" fill="#CF6481"/>
</g>
<path d="M397.311 319.707C397.311 319.707 426.108 311.982 486.148 308.15C546.189 304.317 564.632 313.943 564.632 313.943C564.632 313.943 414.305 319.405 397.311 319.737V319.707Z" fill="#EED7F2"/>
<g style="mix-blend-mode:soft-light" opacity="0.5">
<path d="M548.332 164.364C524.485 186.06 579.031 177.732 586.638 165.843C594.245 153.954 557.206 156.277 548.332 164.364Z" fill="white"/>
</g>
<g style="mix-blend-mode:soft-light">
<path d="M345.117 79.0005C345.117 79.0005 510.658 77.7029 565.023 81.2334C565.023 81.2334 460.247 94.5708 345.117 79.0005Z" fill="white"/>
</g>
<g style="mix-blend-mode:soft-light" opacity="0.5">
<path d="M134.117 283.557C147.882 289.049 193.765 260.051 269.381 253.262C344.998 246.472 523.609 300.938 523.609 300.938C523.609 300.938 233.218 311.771 134.117 283.557Z" fill="white"/>
</g>
<g style="mix-blend-mode:multiply" opacity="0.5">
<path d="M731.29 140.889C726.883 139.532 720.725 148.222 723.864 155.374C726.973 162.465 741.342 143.937 731.29 140.889Z" fill="#9B64A1"/>
</g>
<g style="mix-blend-mode:multiply" opacity="0.5">
<path d="M724.377 147.015C723.954 152.265 730.595 152.567 733.131 149.851C735.696 147.105 735.606 140.919 730.716 140.799C725.795 140.678 724.377 147.045 724.377 147.045V147.015Z" fill="#9B64A1"/>
</g>
<path d="M723.02 151.541C724.468 148.403 728.332 152.265 730.717 152.446C733.102 152.627 728.996 157.757 726.249 157.003C723.502 156.248 723.02 151.541 723.02 151.541Z" fill="white"/>
<path style="mix-blend-mode:screen" opacity="0.8" d="M397.311 272.362C543.669 272.362 662.315 232.521 662.315 183.375C662.315 134.229 543.669 94.3887 397.311 94.3887C250.953 94.3887 132.307 134.229 132.307 183.375C132.307 232.521 250.953 272.362 397.311 272.362Z" fill="url(#paint9_radial_6238_14104)"/>
<path d="M501.18 153.231C495.052 164.517 518.99 171.246 523.971 158.935C528.951 146.623 505.225 145.748 501.18 153.231Z" fill="#EED7F2"/>
<g style="mix-blend-mode:soft-light" opacity="0.8">
<path d="M128.201 225.892C146.765 214.305 166.447 204.649 186.46 195.868C206.534 187.177 227 179.362 247.919 172.934C258.303 169.464 268.929 166.809 279.464 163.912C290.029 161.106 300.775 158.994 311.431 156.489C322.207 154.648 332.954 152.506 343.791 150.876L360.061 148.764C365.494 148.1 370.898 147.225 376.361 146.923C419.92 143.001 463.992 142.669 507.43 148.824C512.863 149.488 518.236 150.665 523.64 151.57C528.983 152.808 534.386 153.803 539.638 155.342C550.234 158.179 560.708 161.679 570.549 166.688C580.329 171.637 589.687 178.185 596.117 187.449C599.135 192.156 601.127 197.678 601.248 203.351C601.369 208.994 599.86 214.667 597.022 219.495C591.377 229.241 582.593 236.514 573.326 242.368C563.938 248.161 553.856 252.718 543.502 256.369C522.794 263.671 500.909 267.685 478.964 268.137C457.019 268.59 434.983 265.753 414.004 259.266C403.529 256.037 393.326 251.752 383.787 246.29C374.309 240.829 365.283 234.069 358.702 225.107C355.473 220.641 352.907 215.512 352.061 209.959C351.186 204.437 352.273 198.614 355.08 193.755C357.827 188.867 361.932 184.974 366.34 181.655C370.686 178.275 375.486 175.499 380.346 172.995C400.027 163.188 421.369 157.394 442.741 152.838C464.173 148.432 485.907 145.535 507.762 144.027C529.556 142.639 551.592 142.276 573.235 145.686C551.592 142.427 529.586 142.97 507.792 144.509C485.998 146.169 464.324 149.247 442.952 153.803C421.671 158.42 400.39 164.244 380.889 174.051C376.06 176.525 371.35 179.301 367.064 182.621C362.778 185.88 358.793 189.712 356.167 194.389C353.51 199.006 352.514 204.528 353.36 209.778C354.175 215.059 356.65 220.008 359.789 224.323C366.189 233.043 375.094 239.682 384.481 245.053C393.93 250.454 404.042 254.649 414.426 257.817C435.255 264.214 457.14 266.96 478.904 266.447C500.668 265.934 522.342 261.891 542.868 254.619C553.131 250.998 563.063 246.441 572.27 240.738C581.356 234.975 589.898 227.793 595.241 218.529C597.958 213.943 599.377 208.632 599.256 203.411C599.135 198.161 597.324 193.001 594.487 188.535C588.389 179.724 579.303 173.266 569.704 168.378C560.044 163.429 549.66 159.959 539.155 157.092C533.933 155.554 528.56 154.528 523.277 153.29C517.904 152.385 512.561 151.178 507.158 150.514C463.931 144.268 419.92 144.479 376.452 148.311C370.988 148.583 365.585 149.458 360.182 150.092L343.941 152.144C333.135 153.713 322.419 155.825 311.642 157.636C300.987 160.08 290.27 162.192 279.705 164.938C269.17 167.805 258.545 170.43 248.161 173.84C227.212 180.086 206.715 187.75 186.611 196.29C166.568 204.95 146.796 214.425 128.141 225.862L128.201 225.892Z" fill="#EED7F2"/>
<path d="M199.5 208.51C230.562 204.406 261.925 202.385 293.258 201.781C324.622 201.238 356.015 201.992 387.258 204.829C418.47 207.846 449.592 212.795 479.929 220.822C495.053 224.956 510.116 229.512 524.635 235.517C539.124 241.522 553.221 248.492 566.564 256.73C539.487 240.888 509.874 229.935 479.597 222.119C449.29 214.334 418.229 209.627 387.077 206.82C355.925 203.773 324.591 202.777 293.288 203.079C277.622 203.26 261.985 203.833 246.349 204.738C230.712 205.583 215.076 206.7 199.5 208.45V208.51Z" fill="#EED7F2"/>
<path d="M243.572 218.679C249.73 213.64 256.25 209.084 262.861 204.648C269.563 200.363 276.385 196.259 283.388 192.457C297.364 184.823 311.853 178.154 326.765 172.541C341.707 167.05 356.951 162.252 372.528 158.993C380.285 157.152 388.164 155.945 396.012 154.708C403.861 153.471 411.83 153.109 419.739 152.264C403.981 154.285 388.254 156.609 372.89 160.501C357.434 164.062 342.281 168.83 327.49 174.412C312.608 179.814 298.179 186.482 284.112 193.785C270.076 201.147 256.371 209.234 243.572 218.649V218.679Z" fill="#EED7F2"/>
<path d="M311.824 145.687C329.785 144.571 347.836 144.691 365.797 146.14C383.758 147.588 401.658 150.243 419.227 154.377C436.735 158.753 453.91 164.577 470.271 172.211C486.481 180.207 501.574 190.316 514.977 202.356C501.091 190.859 485.817 181.324 469.637 173.599C453.246 166.297 436.221 160.533 418.774 156.339C401.356 152.084 383.547 149.459 365.676 147.679C347.806 145.989 329.815 145.325 311.824 145.687Z" fill="#EED7F2"/>
</g>
<g filter="url(#filter0_i_6238_14104)">
<path d="M234.82 194.448C234.916 192.432 234.628 190.416 234.532 188.304C228.004 188.784 222.34 190.224 218.116 194.928C217.636 195.408 217.252 195.984 216.484 195.792C215.62 195.504 215.428 194.832 215.428 194.16C215.524 193.392 215.62 192.72 215.908 192.048C217.252 188.016 218.692 183.984 220.132 179.952C220.42 179.184 220.516 178.128 221.764 178.128C223.012 178.128 223.204 179.088 223.396 180.048C223.588 181.488 224.644 182.16 226.084 182.352C227.812 182.544 229.54 182.64 231.268 182.736C237.988 182.832 244.804 183.024 251.62 183.12C253.156 183.12 254.692 183.024 256.132 182.832C257.956 182.544 258.34 182.064 258.628 180.432C258.724 179.76 258.724 179.184 258.724 178.608C258.82 177.744 258.628 176.688 259.876 176.4C261.028 176.208 261.508 176.976 261.892 177.84C262.852 179.856 263.812 181.872 264.772 183.888C266.02 186.48 267.172 189.072 268.324 191.664C268.516 192.048 268.804 192.432 268.804 192.816C268.708 193.392 268.42 194.064 268.036 194.352C267.748 194.64 266.884 194.448 266.404 194.256C265.828 194.064 265.444 193.68 264.964 193.392C260.644 190.416 255.556 189.456 250.372 188.688C250.084 188.592 249.604 188.688 249.028 188.688C248.932 189.36 248.932 190.032 248.836 190.704C248.74 197.136 248.644 203.568 248.452 210C248.356 217.104 248.164 224.208 248.068 231.312C248.068 232.656 248.26 233.904 248.452 235.152C248.74 237.168 249.7 238.8 251.14 240.24C251.908 241.008 252.772 241.872 253.54 242.736C254.02 243.216 254.212 243.888 253.828 244.56C253.444 245.328 252.772 245.424 252.004 245.328C245.476 244.272 239.14 245.808 232.804 246.48C231.46 246.576 230.212 247.152 228.964 247.536C228.292 247.728 227.524 247.92 227.044 247.248C226.468 246.48 226.564 245.712 227.236 245.232C232.996 240.528 234.34 234.192 234.532 227.568C234.628 224.976 234.532 222.384 234.628 219.792C234.724 211.344 234.82 202.896 234.82 194.448ZM268.922 182.832C269.978 182.736 271.13 182.736 272.282 182.736C276.698 182.64 281.018 182.064 285.242 180.912C287.546 180.24 289.754 179.664 291.962 178.992C292.346 178.896 292.826 178.608 293.114 178.704C293.69 178.992 294.362 179.28 294.65 179.76C295.13 180.432 294.65 181.104 294.074 181.584C293.882 181.776 293.498 181.872 293.21 182.064C289.85 183.6 287.93 186.384 287.738 190.128C287.354 195.12 287.258 200.112 286.97 205.104C286.49 213.36 286.394 221.712 286.874 230.064C287.066 233.136 287.354 236.304 287.642 239.376C287.834 241.296 288.698 242.736 290.426 243.696C290.714 243.888 291.002 244.08 291.194 244.272C292.058 245.232 291.77 246.768 290.522 247.056C289.658 247.248 288.602 247.152 287.738 246.864C282.17 245.04 276.41 243.504 270.554 242.64C270.074 242.544 269.498 242.448 269.018 242.256C268.346 241.968 267.866 241.392 268.058 240.624C268.25 240.048 268.73 239.28 269.114 239.184C272.666 238.512 273.338 235.632 273.626 232.752C274.01 229.872 274.202 226.896 274.202 224.016C274.202 213.84 274.202 203.664 274.106 193.488C274.106 189.456 272.474 187.152 268.634 186C267.77 185.712 267.194 185.232 267.29 184.272C267.386 183.312 267.962 182.832 268.922 182.832ZM302.1 187.248C302.1 186.288 302.1 185.328 302.1 183.984C300.948 183.888 299.988 183.888 299.028 183.696C298.548 183.696 297.972 183.6 297.684 183.312C296.916 182.832 297.204 181.68 298.164 181.296C299.028 181.008 299.892 180.912 300.756 180.816C304.788 180.24 308.82 179.664 312.852 179.088C313.524 178.992 314.196 178.8 314.868 178.8C316.404 178.704 317.172 179.664 316.692 181.104C316.308 181.968 316.596 182.544 316.884 183.216C318.42 186.672 319.956 190.128 321.396 193.68C323.412 198.192 325.236 202.704 327.156 207.216C327.252 207.312 327.348 207.504 327.636 207.888C328.02 206.736 328.5 205.872 328.692 204.912C330.228 199.344 331.764 193.872 333.108 188.208C333.492 186.672 333.204 184.944 333.108 183.312C333.012 182.352 332.532 181.68 331.476 181.296C330.42 181.008 330.132 180.24 330.42 179.472C330.708 178.608 331.476 178.416 332.244 178.512C332.724 178.608 333.3 178.704 333.78 178.992C335.988 180.048 338.292 180.336 340.596 180.336C343.668 180.432 346.74 180.24 349.812 180.144C350.676 180.144 351.54 180.144 352.308 180.24C352.98 180.24 353.556 180.624 353.556 181.392C353.46 182.064 352.98 182.64 352.308 182.544C350.58 182.352 350.292 183.6 350.1 184.848C349.524 188.784 348.852 192.72 348.468 196.656C348.18 200.304 348.18 204.048 348.084 207.696C347.892 213.072 347.7 218.448 347.604 223.92C347.508 227.472 347.604 231.024 348.372 234.48C348.948 236.88 349.908 238.992 352.212 240.24C352.884 240.624 353.268 241.2 353.076 241.968C352.98 242.736 352.404 243.12 351.732 243.216C350.1 243.696 348.372 243.984 346.74 244.368C343.572 245.232 340.5 246.096 337.332 246.96C336.372 247.248 335.508 247.632 334.548 247.92C333.78 248.112 333.204 247.92 332.724 247.344C332.34 246.672 332.628 246.096 333.012 245.616C336.276 241.968 337.044 237.648 337.044 232.944C336.948 224.592 336.756 216.24 336.66 207.888C336.66 204.912 336.756 201.936 336.756 198.96C336.756 198.288 336.756 197.712 336.468 197.04C336.276 197.52 336.084 198 335.988 198.576C335.124 201.36 334.26 204.144 333.492 207.024C332.34 211.44 331.188 215.952 330.036 220.368C329.364 222.864 328.596 225.456 327.828 227.952C327.636 228.72 327.252 229.584 326.772 230.256C325.62 232.08 323.316 232.08 322.068 230.352C321.78 229.872 321.588 229.488 321.396 229.008C319.092 222.768 316.692 216.624 314.484 210.384C312.948 206.064 311.604 201.648 310.26 197.328C310.068 196.656 309.78 196.08 309.492 195.504C309.396 195.504 309.3 195.504 309.108 195.504C309.108 195.888 309.108 196.272 309.108 196.656C308.628 207.504 308.244 218.352 307.764 229.2C307.572 232.656 307.764 236.112 309.492 239.184C310.164 240.528 311.028 241.776 312.18 242.64C312.468 242.832 312.756 243.12 313.044 243.408C313.716 243.984 314.58 244.56 314.196 245.616C313.908 246.48 312.852 246.864 311.412 246.576C310.26 246.288 309.204 246 308.052 245.616C303.636 243.984 299.22 242.352 294.804 240.816C294.228 240.528 293.556 240.336 293.076 240.048C292.116 239.376 292.212 238.224 293.268 237.744C294.036 237.36 294.9 237.168 295.764 237.072C297.876 236.784 299.22 235.728 299.508 233.52C299.892 230.736 300.564 228.048 300.66 225.36C301.236 212.688 301.62 199.92 302.1 187.248ZM374.861 202.416C374.765 203.856 374.861 205.296 374.861 206.928C376.109 206.736 377.069 206.16 377.741 205.392C378.797 204.24 379.661 202.992 380.621 201.84C380.909 201.36 381.197 200.88 381.485 200.496C382.541 199.344 383.885 199.728 384.269 201.168C384.365 201.84 384.365 202.608 384.365 203.28C384.077 207.408 383.789 211.44 383.597 215.472C383.309 218.832 383.117 222.192 382.829 225.648C382.733 227.28 382.253 227.952 381.293 227.952C380.333 227.952 379.949 227.184 379.853 225.552C379.661 222.192 379.565 218.832 379.181 215.568C378.893 212.592 377.549 211.536 374.477 211.248C373.325 220.176 373.037 229.2 373.037 238.416C373.805 238.224 374.285 238.128 374.765 237.936C376.877 236.688 378.989 235.44 381.005 234.096C383.693 232.272 385.133 229.392 386.381 226.512C387.437 224.304 388.301 222 389.261 219.792C389.645 218.928 390.221 218.16 390.893 217.488C391.949 216.624 393.197 217.104 393.485 218.448C393.677 219.408 393.677 220.464 393.485 221.424C393.101 224.976 392.717 228.528 392.141 232.08C391.277 237.264 390.221 242.544 389.357 247.728C389.165 248.784 389.069 249.936 387.821 250.32C386.669 250.704 385.901 249.84 385.325 249.072C383.021 246.384 379.949 245.04 376.493 244.272C369.773 242.928 362.957 243.024 356.141 244.176C355.469 244.272 354.797 244.464 354.125 244.464C353.453 244.56 352.877 244.272 352.685 243.504C352.397 242.64 352.877 242.064 353.645 241.776C353.837 241.68 354.029 241.584 354.221 241.584C357.197 240.72 359.213 238.608 360.173 235.728C361.325 232.56 361.709 229.392 361.709 226.128C361.901 218.256 361.997 210.384 362.093 202.512C362.189 198.48 362.285 194.448 362.477 190.416C362.669 187.536 361.421 185.52 358.925 184.272C358.445 183.984 357.869 183.696 357.485 183.216C357.197 182.928 356.909 182.16 357.101 181.872C357.293 181.392 357.965 180.912 358.445 180.912C359.213 180.816 360.173 181.008 360.941 181.2C364.781 182.256 368.717 183.216 372.653 183.408C375.245 183.504 377.837 183.504 380.429 183.312C383.597 183.024 386.573 182.064 389.165 180.144C389.549 179.856 389.933 179.568 390.317 179.376C391.661 178.8 392.813 179.28 393.101 180.624C393.389 181.68 393.485 182.736 393.389 183.792C393.005 190.608 392.429 197.328 391.949 204.144C391.949 204.72 391.853 205.392 391.565 205.872C391.277 206.256 390.701 206.736 390.221 206.832C389.837 206.832 389.261 206.448 388.973 206.064C388.589 205.68 388.493 205.104 388.397 204.624C387.533 202.128 386.861 199.632 385.997 197.232C384.653 193.68 382.541 190.608 379.085 188.688C378.797 188.496 378.413 188.304 378.029 188.112C376.493 187.44 375.821 187.728 375.629 189.456C375.341 193.776 375.053 198.096 374.861 202.416ZM413.905 233.424C413.713 236.112 414.097 239.088 414.865 240.912C416.113 241.2 417.169 240.624 418.129 239.952C419.761 238.704 421.009 237.072 421.969 235.248C424.465 230.256 427.153 225.264 428.593 219.696C429.361 217.008 430.225 214.416 430.993 211.728C431.089 211.44 431.185 211.152 431.281 210.864C431.761 209.808 432.529 209.328 433.489 209.52C434.257 209.712 434.929 210.384 434.929 211.44C434.929 212.88 434.833 214.32 434.833 215.76C434.545 220.848 434.065 225.84 433.969 230.928C433.873 233.808 434.257 236.784 434.545 239.76C434.833 242.544 434.257 243.312 431.569 243.6C423.889 244.176 416.305 244.848 408.625 245.52C405.361 245.808 402.097 246.384 398.833 246.768C397.873 246.864 396.817 246.96 395.857 246.96C395.089 246.96 394.417 246.672 394.129 245.808C393.841 245.04 394.225 244.368 394.801 243.792C396.145 242.448 397.489 241.008 398.737 239.568C400.465 237.36 401.329 234.864 401.521 232.08C401.713 228.048 401.905 224.112 401.905 220.176C401.809 211.728 401.713 203.376 401.425 194.928C401.425 192.72 401.137 190.416 400.849 188.208C400.465 186 399.601 184.272 397.105 183.888C396.241 183.792 395.761 183.216 395.761 182.352C395.761 181.488 396.337 181.008 397.393 180.912C397.969 180.912 398.545 180.816 399.121 180.816C404.977 181.008 410.833 181.104 416.785 181.2C417.457 181.296 418.225 181.104 418.993 181.104C419.569 181.104 420.241 181.2 420.817 181.392C421.489 181.584 421.873 182.16 421.681 182.832C421.489 183.312 421.105 183.792 420.625 184.08C420.241 184.272 419.665 184.272 419.185 184.272C417.457 184.368 416.305 185.232 415.921 186.864C415.345 189.36 414.673 191.76 414.577 194.256C414.193 200.4 414.001 206.544 413.905 212.592C413.905 218.256 414.001 223.824 414.001 229.488C414.001 230.832 414.001 232.08 413.905 233.424ZM436.547 182.832C437.603 182.736 438.755 182.736 439.907 182.736C444.323 182.64 448.643 182.064 452.867 180.912C455.171 180.24 457.379 179.664 459.587 178.992C459.971 178.896 460.451 178.608 460.739 178.704C461.315 178.992 461.987 179.28 462.275 179.76C462.755 180.432 462.275 181.104 461.699 181.584C461.507 181.776 461.123 181.872 460.835 182.064C457.475 183.6 455.555 186.384 455.363 190.128C454.979 195.12 454.883 200.112 454.595 205.104C454.115 213.36 454.019 221.712 454.499 230.064C454.691 233.136 454.979 236.304 455.267 239.376C455.459 241.296 456.323 242.736 458.051 243.696C458.339 243.888 458.627 244.08 458.819 244.272C459.683 245.232 459.395 246.768 458.147 247.056C457.283 247.248 456.227 247.152 455.363 246.864C449.795 245.04 444.035 243.504 438.179 242.64C437.699 242.544 437.123 242.448 436.643 242.256C435.971 241.968 435.491 241.392 435.683 240.624C435.875 240.048 436.355 239.28 436.739 239.184C440.291 238.512 440.963 235.632 441.251 232.752C441.635 229.872 441.827 226.896 441.827 224.016C441.827 213.84 441.827 203.664 441.731 193.488C441.731 189.456 440.099 187.152 436.259 186C435.395 185.712 434.819 185.232 434.915 184.272C435.011 183.312 435.587 182.832 436.547 182.832ZM511.846 175.92C512.422 176.592 512.23 177.264 511.654 177.936C511.27 178.32 510.886 178.608 510.598 178.992C508.39 181.296 507.046 183.984 506.278 186.864C504.646 193.968 503.782 201.072 503.878 208.272C503.974 219.024 503.782 229.776 503.686 240.528C503.686 241.968 503.398 243.408 503.302 244.752C503.206 245.616 502.822 246.384 501.862 246.672C500.998 246.96 500.23 246.576 499.558 246C497.926 244.56 496.486 243.024 495.43 241.104C493.51 237.648 491.398 234.384 489.286 231.024C484.198 222.768 480.07 214.128 476.23 205.392C476.038 205.008 475.846 204.624 475.654 204.24C475.462 204.336 475.366 204.336 475.174 204.336C475.27 211.152 475.27 218.064 475.75 224.88C476.038 229.968 476.998 235.056 478.918 239.952C479.686 242.064 480.55 243.984 482.662 245.232C483.43 245.712 484.006 246.48 483.526 247.344C483.142 248.304 482.182 248.4 481.222 248.304C479.302 247.92 477.478 247.632 475.558 247.344C471.91 246.768 468.358 246.192 464.71 245.616C464.23 245.616 463.846 245.52 463.366 245.424C462.598 245.136 462.022 244.752 462.022 243.984C462.022 243.216 462.406 242.64 463.174 242.352C463.654 242.16 464.23 242.064 464.71 241.872C466.63 241.488 467.782 240.432 468.07 238.704C468.454 236.688 468.838 234.576 468.838 232.56C468.742 218.832 468.358 205.008 468.262 191.28C468.166 187.824 466.534 185.808 463.366 184.56C462.886 184.368 462.406 184.272 462.118 183.984C461.734 183.6 461.254 183.024 461.254 182.448C461.254 182.064 461.83 181.488 462.31 181.296C462.694 181.008 463.27 181.008 463.846 181.008C469.798 181.392 475.846 181.872 481.894 182.256C483.814 182.448 485.734 182.64 487.654 182.832C488.038 182.928 488.518 183.024 488.998 183.12C489.67 183.408 490.054 183.984 489.862 184.656C489.67 185.04 489.19 185.52 488.71 185.712C488.23 186 487.462 186 486.79 186.096C485.062 186.576 484.006 187.824 484.39 189.456C484.966 191.76 485.446 194.16 486.502 196.368C489.766 203.088 493.222 209.712 496.678 216.336C496.87 216.72 497.062 217.104 497.542 217.776C497.638 217.008 497.638 216.72 497.638 216.528C497.446 208.368 497.35 200.208 497.158 192.048C497.062 190.608 496.966 189.072 496.87 187.632C496.678 186 496.294 184.56 495.046 183.216C493.798 181.872 494.086 180.816 495.814 180.24C500.518 178.608 505.222 177.072 509.926 175.44C510.598 175.248 511.366 175.248 511.846 175.92ZM530.767 202.416C530.671 203.856 530.767 205.296 530.767 206.928C532.015 206.736 532.975 206.16 533.647 205.392C534.703 204.24 535.567 202.992 536.527 201.84C536.815 201.36 537.103 200.88 537.391 200.496C538.447 199.344 539.791 199.728 540.175 201.168C540.271 201.84 540.271 202.608 540.271 203.28C539.983 207.408 539.695 211.44 539.503 215.472C539.215 218.832 539.023 222.192 538.735 225.648C538.639 227.28 538.159 227.952 537.199 227.952C536.239 227.952 535.855 227.184 535.759 225.552C535.567 222.192 535.471 218.832 535.087 215.568C534.799 212.592 533.455 211.536 530.383 211.248C529.231 220.176 528.943 229.2 528.943 238.416C529.711 238.224 530.191 238.128 530.671 237.936C532.783 236.688 534.895 235.44 536.911 234.096C539.599 232.272 541.039 229.392 542.287 226.512C543.343 224.304 544.207 222 545.167 219.792C545.551 218.928 546.127 218.16 546.799 217.488C547.855 216.624 549.103 217.104 549.391 218.448C549.583 219.408 549.583 220.464 549.391 221.424C549.007 224.976 548.623 228.528 548.047 232.08C547.183 237.264 546.127 242.544 545.263 247.728C545.071 248.784 544.975 249.936 543.727 250.32C542.575 250.704 541.807 249.84 541.231 249.072C538.927 246.384 535.855 245.04 532.399 244.272C525.679 242.928 518.863 243.024 512.047 244.176C511.375 244.272 510.703 244.464 510.031 244.464C509.359 244.56 508.783 244.272 508.591 243.504C508.303 242.64 508.783 242.064 509.551 241.776C509.743 241.68 509.935 241.584 510.127 241.584C513.103 240.72 515.119 238.608 516.079 235.728C517.231 232.56 517.615 229.392 517.615 226.128C517.807 218.256 517.903 210.384 517.999 202.512C518.095 198.48 518.191 194.448 518.383 190.416C518.575 187.536 517.327 185.52 514.831 184.272C514.351 183.984 513.775 183.696 513.391 183.216C513.103 182.928 512.815 182.16 513.007 181.872C513.199 181.392 513.871 180.912 514.351 180.912C515.119 180.816 516.079 181.008 516.847 181.2C520.687 182.256 524.623 183.216 528.559 183.408C531.151 183.504 533.743 183.504 536.335 183.312C539.503 183.024 542.479 182.064 545.071 180.144C545.455 179.856 545.839 179.568 546.223 179.376C547.567 178.8 548.719 179.28 549.007 180.624C549.295 181.68 549.391 182.736 549.295 183.792C548.911 190.608 548.335 197.328 547.855 204.144C547.855 204.72 547.759 205.392 547.471 205.872C547.183 206.256 546.607 206.736 546.127 206.832C545.743 206.832 545.167 206.448 544.879 206.064C544.495 205.68 544.399 205.104 544.303 204.624C543.439 202.128 542.767 199.632 541.903 197.232C540.559 193.68 538.447 190.608 534.991 188.688C534.703 188.496 534.319 188.304 533.935 188.112C532.399 187.44 531.727 187.728 531.535 189.456C531.247 193.776 530.959 198.096 530.767 202.416Z" fill="white"/>
</g>
</g>
<defs>
<filter id="filter0_i_6238_14104" x="215.428" y="175.248" width="334.156" height="79.4551" filterUnits="userSpaceOnUse" color-interpolation-filters="sRGB">
<feFlood flood-opacity="0" result="BackgroundImageFix"/>
<feBlend mode="normal" in="SourceGraphic" in2="BackgroundImageFix" result="shape"/>
<feColorMatrix in="SourceAlpha" type="matrix" values="0 0 0 0 0 0 0 0 0 0 0 0 0 0 0 0 0 0 127 0" result="hardAlpha"/>
<feOffset dy="4"/>
<feGaussianBlur stdDeviation="2"/>
<feComposite in2="hardAlpha" operator="arithmetic" k2="-1" k3="1"/>
<feColorMatrix type="matrix" values="0 0 0 0 0 0 0 0 0 0 0 0 0 0 0 0 0 0 0.25 0"/>
<feBlend mode="normal" in2="shape" result="effect1_innerShadow_6238_14104"/>
</filter>
<linearGradient id="paint0_linear_6238_14104" x1="383.514" y1="329.001" x2="383.514" y2="74.9265" gradientUnits="userSpaceOnUse">
<stop stop-color="#876F78"/>
<stop offset="0.46" stop-color="#655167"/>
<stop offset="1" stop-color="#B4A6B5"/>
</linearGradient>
<linearGradient id="paint1_linear_6238_14104" x1="383.514" y1="320.099" x2="383.514" y2="115.028" gradientUnits="userSpaceOnUse">
<stop stop-color="#CFB6B4"/>
<stop offset="0.43" stop-color="#A690A5"/>
<stop offset="1" stop-color="#5C475E"/>
</linearGradient>
<linearGradient id="paint2_linear_6238_14104" x1="383.516" y1="308.301" x2="383.516" y2="126.858" gradientUnits="userSpaceOnUse">
<stop stop-color="#B300A1"/>
<stop offset="0.39" stop-color="#8F0062"/>
<stop offset="1" stop-color="#FF52F9"/>
</linearGradient>
<linearGradient id="paint3_linear_6238_14104" x1="69.8212" y1="288.927" x2="69.8212" y2="27.7009" gradientUnits="userSpaceOnUse">
<stop stop-color="#705B71"/>
<stop offset="0.4" stop-color="#9F8A9F"/>
<stop offset="1" stop-color="#BCA0A9"/>
</linearGradient>
<linearGradient id="paint4_linear_6238_14104" x1="254.56" y1="81.2317" x2="254.56" y2="48.6425" gradientUnits="userSpaceOnUse">
<stop stop-color="#705B71"/>
<stop offset="0.4" stop-color="#9F8A9F"/>
<stop offset="1" stop-color="#BCA0A9"/>
</linearGradient>
<linearGradient id="paint5_linear_6238_14104" x1="38.0947" y1="101.358" x2="38.0947" y2="0" gradientUnits="userSpaceOnUse">
<stop stop-color="#705B71"/>
<stop offset="0.4" stop-color="#9F8A9F"/>
<stop offset="1" stop-color="#BCA0A9"/>
</linearGradient>
<linearGradient id="paint6_linear_6238_14104" x1="697.18" y1="288.928" x2="697.18" y2="27.7016" gradientUnits="userSpaceOnUse">
<stop stop-color="#705B71"/>
<stop offset="0.4" stop-color="#9F8A9F"/>
<stop offset="1" stop-color="#BCA0A9"/>
</linearGradient>
<linearGradient id="paint7_linear_6238_14104" x1="512.441" y1="81.2317" x2="512.441" y2="48.6425" gradientUnits="userSpaceOnUse">
<stop stop-color="#705B71"/>
<stop offset="0.4" stop-color="#9F8A9F"/>
<stop offset="1" stop-color="#BCA0A9"/>
</linearGradient>
<linearGradient id="paint8_linear_6238_14104" x1="728.906" y1="101.359" x2="728.906" y2="0.000874043" gradientUnits="userSpaceOnUse">
<stop stop-color="#705B71"/>
<stop offset="0.4" stop-color="#9F8A9F"/>
<stop offset="1" stop-color="#BCA0A9"/>
</linearGradient>
<radialGradient id="paint9_radial_6238_14104" cx="0" cy="0" r="1" gradientUnits="userSpaceOnUse" gradientTransform="translate(396.608 183.375) scale(265.277 88.9866)">
<stop stop-color="#FF7ABD"/>
<stop offset="1"/>
</radialGradient>
<clipPath id="clip0_6238_14104">
<rect width="767" height="329" fill="white"/>
</clipPath>
</defs>
</svg>
