<svg width="410" height="255" viewBox="0 0 410 255" fill="none" xmlns="http://www.w3.org/2000/svg">
<path d="M324.948 72.2785C354.016 85.0341 366.438 101.922 389.839 125.572C413.239 149.223 415.361 176.195 400.894 198.852C386.427 221.508 372.226 229.078 349.943 240.488C320.092 255.773 299.92 255.163 267.267 254.921C221.823 254.586 199.175 228.404 153.828 224.944C111.161 221.687 81.6154 260.446 44.7157 235.491C19.2173 218.247 -0.583923 199.107 0.0131226 164.988C0.710663 125.128 31.1042 106.776 63.9426 94.4843C99.2892 81.2537 120.542 111.788 157.674 113.359C224.414 116.184 262.517 44.8827 324.948 72.2785Z" fill="#E17F57"/>
<path d="M55.331 168.296C56.879 168.116 57.131 167.684 57.131 165.164V152.348C57.131 149.864 56.807 149.288 55.331 149.216V149H58.931L65.519 160.376L71.927 143.96H75.851V144.176C74.447 144.176 74.051 144.968 74.051 147.308V169.808C74.051 172.04 74.591 172.868 75.635 172.94V173.156H67.139V172.94C69.911 172.724 70.775 172.004 70.775 169.808V150.116L65.699 166.64L58.463 154.148L59.975 165.344C60.299 167.684 60.839 168.116 63.107 168.296V168.512H55.331V168.296ZM85.8911 158.828C85.8911 154.148 84.7751 151.016 83.1551 151.016C81.4631 151.016 80.2031 154.472 80.1311 158.828H85.8911ZM80.1311 159.656C80.2391 163.76 81.4631 166.352 84.0191 166.352C86.1431 166.352 87.9431 164.588 88.4111 162.176H88.6271C88.0151 165.452 86.4311 167.792 82.9031 167.792C78.9791 167.792 76.6751 164.948 76.6751 159.44C76.6751 153.752 79.1591 149.864 83.2991 149.864C87.1511 149.864 89.2751 153.284 89.0951 159.656H80.1311ZM88.4046 169.448C90.8526 169.268 91.3926 168.656 91.3926 166.316V145.796C91.3926 144.032 91.1046 143.204 89.9166 143.312L88.4046 143.456V143.276L94.6686 141.188V166.316C94.6686 168.656 95.2086 169.268 97.6566 169.448V169.664H88.4046V169.448ZM105.265 164.948C105.193 164.588 105.157 164.192 105.157 163.76V158.612C104.725 158.036 104.041 157.712 103.213 157.712C101.449 157.712 100.693 159.224 100.693 161.924C100.693 164.624 101.449 165.992 102.889 165.992C103.537 165.992 104.509 165.668 105.265 164.948ZM98.6053 150.044C99.9373 148.928 101.917 148.28 103.681 148.28C106.813 148.28 108.433 150.332 108.433 154.796V164.3C108.433 166.64 108.973 167.252 111.421 167.432V167.648H108.325C106.705 167.648 105.733 166.784 105.337 165.344C104.257 166.748 103.069 167.36 101.665 167.36C99.0373 167.36 97.4173 165.164 97.4173 162.14C97.4173 158.648 99.5413 156.452 102.169 156.452C103.501 156.452 104.581 156.992 105.157 158V155.984C105.157 151.808 104.617 149.576 103.213 149.576C101.449 149.576 99.1453 153.14 98.7493 155.84H98.6053V150.044ZM110.659 147.056H119.911V147.272C117.463 147.452 116.923 148.064 116.923 150.404V158.576L121.531 150.62C122.215 149.396 121.783 148.64 119.983 148.496V148.28H127.291V148.496C125.635 148.532 124.879 149.828 123.223 151.988L121.819 153.824L125.923 167.396C126.607 169.664 127.039 170.348 128.515 170.528V170.744H120.739V170.528C123.187 170.348 123.331 169.664 122.647 167.396L119.515 156.884L116.923 160.304V165.02C116.923 167.36 117.463 167.972 119.911 168.152V168.368H110.659V168.152C113.107 167.972 113.647 167.36 113.647 165.02V150.404C113.647 148.064 113.107 147.452 110.659 147.272V147.056ZM133.235 161.06C133.235 164.696 133.775 165.812 135.503 165.812C136.979 165.812 138.131 165.02 139.211 163.796C139.175 163.58 139.175 163.328 139.175 163.112V153.212C139.175 151.448 138.887 150.62 137.699 150.728L136.187 150.872V150.692L142.451 148.604V163.652C142.451 165.992 142.991 166.604 145.439 166.784V167H142.343C140.615 167 139.607 165.992 139.283 164.372C137.375 167.18 135.863 168.188 133.919 168.188C131.219 168.188 129.959 166.244 129.959 162.248V151.628C129.959 149.864 129.671 149.036 128.483 149.144L126.971 149.288V149.108L133.235 147.02V161.06ZM144.83 147.056H154.082V147.272C151.634 147.452 151.094 148.064 151.094 150.404V158.576L155.702 150.62C156.386 149.396 155.954 148.64 154.154 148.496V148.28H161.462V148.496C159.806 148.532 159.05 149.828 157.394 151.988L155.99 153.824L160.094 167.396C160.778 169.664 161.21 170.348 162.686 170.528V170.744H154.91V170.528C157.358 170.348 157.502 169.664 156.818 167.396L153.686 156.884L151.094 160.304V165.02C151.094 167.36 151.634 167.972 154.082 168.152V168.368H144.83V168.152C147.278 167.972 147.818 167.36 147.818 165.02V150.404C147.818 148.064 147.278 147.452 144.83 147.272V147.056ZM169.531 164.948C169.459 164.588 169.423 164.192 169.423 163.76V158.612C168.991 158.036 168.307 157.712 167.479 157.712C165.715 157.712 164.959 159.224 164.959 161.924C164.959 164.624 165.715 165.992 167.155 165.992C167.803 165.992 168.775 165.668 169.531 164.948ZM162.871 150.044C164.203 148.928 166.183 148.28 167.947 148.28C171.079 148.28 172.699 150.332 172.699 154.796V164.3C172.699 166.64 173.239 167.252 175.687 167.432V167.648H172.591C170.971 167.648 169.999 166.784 169.603 165.344C168.523 166.748 167.335 167.36 165.931 167.36C163.303 167.36 161.683 165.164 161.683 162.14C161.683 158.648 163.807 156.452 166.435 156.452C167.767 156.452 168.847 156.992 169.423 158V155.984C169.423 151.808 168.883 149.576 167.479 149.576C165.715 149.576 163.411 153.14 163.015 155.84H162.871V150.044ZM177.631 153.968C177.631 152.204 177.343 151.376 176.155 151.484L174.643 151.628V151.448L180.907 149.36V153.536C182.743 150.872 184.255 149.9 186.163 149.9C188.863 149.9 190.123 151.844 190.123 155.84V167.252C190.123 169.592 190.663 170.204 193.111 170.384V170.6H183.859V170.384C186.307 170.204 186.847 169.592 186.847 167.252V157.028C186.847 153.392 186.307 152.276 184.579 152.276C183.139 152.276 181.987 153.068 180.907 154.256V163.652C180.907 165.992 181.447 166.604 183.895 166.784V167H174.643V166.784C177.091 166.604 177.631 165.992 177.631 163.652V153.968ZM212.106 156.38C212.106 152.672 211.026 150.476 209.406 150.476C208.47 150.476 207.606 151.196 206.958 152.06V161.132C207.606 161.96 208.65 162.356 209.334 162.356C210.882 162.356 212.106 160.304 212.106 156.38ZM200.694 174.416C203.142 174.236 203.682 173.624 203.682 171.284V152.42C203.682 150.656 203.394 149.828 202.206 149.936L200.694 150.08V149.9L206.958 147.812V151.34C207.894 149.936 209.406 149 210.99 149C214.59 149 215.49 153.572 215.49 156.344C215.49 159.224 214.518 163.832 210.846 163.832C209.478 163.832 207.786 163.148 206.958 161.672V171.284C206.958 173.624 207.498 174.236 209.946 174.416V174.632H200.694V174.416ZM226.27 158.828C226.27 154.148 225.154 151.016 223.534 151.016C221.842 151.016 220.582 154.472 220.51 158.828H226.27ZM220.51 159.656C220.618 163.76 221.842 166.352 224.398 166.352C226.522 166.352 228.322 164.588 228.79 162.176H229.006C228.394 165.452 226.81 167.792 223.282 167.792C219.358 167.792 217.054 164.948 217.054 159.44C217.054 153.752 219.538 149.864 223.678 149.864C227.53 149.864 229.654 153.284 229.474 159.656H220.51ZM233.037 153.968C233.037 152.204 232.749 151.376 231.561 151.484L230.049 151.628V151.448L236.313 149.36V153.536C238.149 150.872 239.625 149.9 241.461 149.9C243.801 149.9 244.773 151.556 244.881 154.904C246.645 152.492 248.049 151.592 249.813 151.592C252.369 151.592 253.269 153.536 253.269 157.532V166.748C253.269 169.088 253.809 169.7 256.257 169.88V170.096H247.005V169.88C249.453 169.7 249.993 169.088 249.993 166.748V158.72C249.993 155.084 249.813 153.968 248.193 153.968C246.969 153.968 245.889 154.616 244.917 155.696V161.816C244.917 164.156 245.457 164.768 247.905 164.948V165.164H238.653V164.948C241.101 164.768 241.641 164.156 241.641 161.816V157.028C241.641 153.392 241.461 152.276 239.841 152.276C238.509 152.276 237.393 153.068 236.313 154.256V165.776C236.313 168.116 236.853 168.728 239.301 168.908V169.124H230.049V168.908C232.497 168.728 233.037 168.116 233.037 165.776V153.968ZM267.3 159.116C267.3 153.572 266.364 151.124 264.6 151.124C263.916 151.124 262.836 151.52 262.188 152.348V166.028L262.08 166.064H262.188V166.208C262.764 166.892 263.52 167.324 264.348 167.324C266.256 167.324 267.3 164.948 267.3 159.116ZM258.912 147.524C258.912 145.58 258.516 144.932 257.436 145.04L255.924 145.184V145.004L262.188 142.916V151.844C262.944 150.512 264.456 149.648 266.004 149.648C269.028 149.648 270.684 152.852 270.684 159.08C270.684 162.176 270.252 168.8 265.86 168.8C264.456 168.8 262.98 168.116 262.152 166.856C261.936 168.764 260.892 169.952 259.02 169.952H255.924V169.736C258.372 169.556 258.912 168.944 258.912 166.604V147.524ZM280.343 164.948C280.271 164.588 280.235 164.192 280.235 163.76V158.612C279.803 158.036 279.119 157.712 278.291 157.712C276.527 157.712 275.771 159.224 275.771 161.924C275.771 164.624 276.527 165.992 277.967 165.992C278.615 165.992 279.587 165.668 280.343 164.948ZM273.683 150.044C275.015 148.928 276.995 148.28 278.759 148.28C281.891 148.28 283.511 150.332 283.511 154.796V164.3C283.511 166.64 284.051 167.252 286.499 167.432V167.648H283.403C281.783 167.648 280.811 166.784 280.415 165.344C279.335 166.748 278.147 167.36 276.743 167.36C274.115 167.36 272.495 165.164 272.495 162.14C272.495 158.648 274.619 156.452 277.247 156.452C278.579 156.452 279.659 156.992 280.235 158V155.984C280.235 151.808 279.695 149.576 278.291 149.576C276.527 149.576 274.223 153.14 273.827 155.84H273.683V150.044ZM286.486 169.484C288.934 169.304 289.474 168.692 289.474 166.352V163.976L286.846 154.004C286.378 152.168 285.802 151.484 284.578 151.484V151.268H292.678V151.484C290.554 151.628 289.726 152.132 290.086 153.752L291.886 161.852L294.442 150.692C295.018 148.244 294.262 148.136 291.814 147.956V147.74H298.474V147.956C297.466 148.028 297.142 148.208 296.782 149.504L292.75 163.652V166.352C292.75 168.692 293.29 169.304 295.738 169.484V169.7H286.486V169.484ZM305.339 164.948C305.267 164.588 305.231 164.192 305.231 163.76V158.612C304.799 158.036 304.115 157.712 303.287 157.712C301.523 157.712 300.767 159.224 300.767 161.924C300.767 164.624 301.523 165.992 302.963 165.992C303.611 165.992 304.583 165.668 305.339 164.948ZM298.679 150.044C300.011 148.928 301.991 148.28 303.755 148.28C306.887 148.28 308.507 150.332 308.507 154.796V164.3C308.507 166.64 309.047 167.252 311.495 167.432V167.648H308.399C306.779 167.648 305.807 166.784 305.411 165.344C304.331 166.748 303.143 167.36 301.739 167.36C299.111 167.36 297.491 165.164 297.491 162.14C297.491 158.648 299.615 156.452 302.243 156.452C303.575 156.452 304.655 156.992 305.231 158V155.984C305.231 151.808 304.691 149.576 303.287 149.576C301.523 149.576 299.219 153.14 298.823 155.84H298.679V150.044ZM317.419 157.028C320.407 157.028 322.099 156.128 322.099 153.392C322.099 151.052 320.875 149.36 317.419 149.324V157.028ZM317.419 148.46C322.999 148.46 325.483 149.792 325.483 152.78C325.483 154.76 324.367 156.128 322.675 156.92L325.267 166.172C325.915 168.476 326.275 169.16 327.823 169.304V169.52H320.047V169.304C322.495 169.124 322.567 168.476 321.991 166.172L319.867 157.748C319.111 157.856 318.283 157.928 317.419 157.928V163.292C317.419 165.632 317.959 166.244 320.407 166.424V166.64H311.155V166.424C313.603 166.244 314.143 165.632 314.143 163.292V151.808C314.143 149.468 313.603 148.856 311.155 148.676V148.46H317.419ZM335.433 164.948C335.361 164.588 335.325 164.192 335.325 163.76V158.612C334.893 158.036 334.209 157.712 333.381 157.712C331.617 157.712 330.861 159.224 330.861 161.924C330.861 164.624 331.617 165.992 333.057 165.992C333.705 165.992 334.677 165.668 335.433 164.948ZM328.773 150.044C330.105 148.928 332.085 148.28 333.849 148.28C336.981 148.28 338.601 150.332 338.601 154.796V164.3C338.601 166.64 339.141 167.252 341.589 167.432V167.648H338.493C336.873 167.648 335.901 166.784 335.505 165.344C334.425 166.748 333.237 167.36 331.833 167.36C329.205 167.36 327.585 165.164 327.585 162.14C327.585 158.648 329.709 156.452 332.337 156.452C333.669 156.452 334.749 156.992 335.325 158V155.984C335.325 151.808 334.785 149.576 333.381 149.576C331.617 149.576 329.313 153.14 328.917 155.84H328.773V150.044ZM343.533 153.968C343.533 152.204 343.245 151.376 342.057 151.484L340.545 151.628V151.448L346.809 149.36V153.536C348.645 150.872 350.157 149.9 352.065 149.9C354.765 149.9 356.025 151.844 356.025 155.84V167.252C356.025 169.592 356.565 170.204 359.013 170.384V170.6H349.761V170.384C352.209 170.204 352.749 169.592 352.749 167.252V157.028C352.749 153.392 352.209 152.276 350.481 152.276C349.041 152.276 347.889 153.068 346.809 154.256V163.652C346.809 165.992 347.349 166.604 349.797 166.784V167H340.545V166.784C342.993 166.604 343.533 165.992 343.533 163.652V153.968ZM60.4551 188.968C60.4551 187.204 60.1671 186.376 58.9791 186.484L57.4671 186.628V186.448L63.7311 184.36V188.536C65.5671 185.872 67.0431 184.9 68.8791 184.9C71.2191 184.9 72.1911 186.556 72.2991 189.904C74.0631 187.492 75.4671 186.592 77.2311 186.592C79.7871 186.592 80.6871 188.536 80.6871 192.532V201.748C80.6871 204.088 81.2271 204.7 83.6751 204.88V205.096H74.4231V204.88C76.8711 204.7 77.4111 204.088 77.4111 201.748V193.72C77.4111 190.084 77.2311 188.968 75.6111 188.968C74.3871 188.968 73.3071 189.616 72.3351 190.696V196.816C72.3351 199.156 72.8751 199.768 75.3231 199.948V200.164H66.0711V199.948C68.5191 199.768 69.0591 199.156 69.0591 196.816V192.028C69.0591 188.392 68.8791 187.276 67.2591 187.276C65.9271 187.276 64.8111 188.068 63.7311 189.256V200.776C63.7311 203.116 64.2711 203.728 66.7191 203.908V204.124H57.4671V203.908C59.9151 203.728 60.4551 203.116 60.4551 200.776V188.968ZM92.9223 193.828C92.9223 189.148 91.8063 186.016 90.1863 186.016C88.4943 186.016 87.2343 189.472 87.1623 193.828H92.9223ZM87.1623 194.656C87.2703 198.76 88.4943 201.352 91.0503 201.352C93.1743 201.352 94.9743 199.588 95.4423 197.176H95.6583C95.0463 200.452 93.4623 202.792 89.9343 202.792C86.0103 202.792 83.7063 199.948 83.7063 194.44C83.7063 188.752 86.1903 184.864 90.3303 184.864C94.1823 184.864 96.3063 188.284 96.1263 194.656H87.1623ZM95.4359 204.448C97.8839 204.268 98.4239 203.656 98.4239 201.316V180.796C98.4239 179.032 98.1359 178.204 96.9479 178.312L95.4359 178.456V178.276L101.7 176.188V201.316C101.7 203.656 102.24 204.268 104.688 204.448V204.664H95.4359V204.448ZM112.297 199.948C112.225 199.588 112.189 199.192 112.189 198.76V193.612C111.757 193.036 111.073 192.712 110.245 192.712C108.481 192.712 107.725 194.224 107.725 196.924C107.725 199.624 108.481 200.992 109.921 200.992C110.569 200.992 111.541 200.668 112.297 199.948ZM105.637 185.044C106.969 183.928 108.949 183.28 110.713 183.28C113.845 183.28 115.465 185.332 115.465 189.796V199.3C115.465 201.64 116.005 202.252 118.453 202.432V202.648H115.357C113.737 202.648 112.765 201.784 112.369 200.344C111.289 201.748 110.101 202.36 108.697 202.36C106.069 202.36 104.449 200.164 104.449 197.14C104.449 193.648 106.573 191.452 109.201 191.452C110.533 191.452 111.613 191.992 112.189 193V190.984C112.189 186.808 111.649 184.576 110.245 184.576C108.481 184.576 106.177 188.14 105.781 190.84H105.637V185.044ZM117.338 204.448C119.786 204.268 120.326 203.656 120.326 201.316V180.796C120.326 179.032 120.038 178.204 118.85 178.312L117.338 178.456V178.276L123.602 176.188V201.316C123.602 203.656 124.142 204.268 126.59 204.448V204.664H117.338V204.448ZM131.864 196.06C131.864 199.696 132.404 200.812 134.132 200.812C135.608 200.812 136.76 200.02 137.84 198.796C137.804 198.58 137.804 198.328 137.804 198.112V188.212C137.804 186.448 137.516 185.62 136.328 185.728L134.816 185.872V185.692L141.08 183.604V198.652C141.08 200.992 141.62 201.604 144.068 201.784V202H140.972C139.244 202 138.236 200.992 137.912 199.372C136.004 202.18 134.492 203.188 132.548 203.188C129.848 203.188 128.588 201.244 128.588 197.248V186.628C128.588 184.864 128.3 184.036 127.112 184.144L125.6 184.288V184.108L131.864 182.02V196.06ZM145.516 180.616C145.516 179.32 146.38 178.456 147.676 178.456C148.972 178.456 149.836 179.32 149.836 180.616C149.836 181.876 148.972 182.74 147.676 182.74C146.38 182.74 145.516 181.876 145.516 180.616ZM146.236 188.968C146.236 187.204 145.948 186.376 144.76 186.484L143.248 186.628V186.448L149.512 184.36V200.02C149.512 202.36 150.052 202.972 152.5 203.152V203.368H143.248V203.152C145.696 202.972 146.236 202.36 146.236 200.02V188.968ZM171.429 194.116C171.429 188.572 170.493 186.124 168.729 186.124C168.045 186.124 166.965 186.52 166.317 187.348V201.028L166.209 201.064H166.317V201.208C166.893 201.892 167.649 202.324 168.477 202.324C170.385 202.324 171.429 199.948 171.429 194.116ZM163.041 182.524C163.041 180.58 162.645 179.932 161.565 180.04L160.053 180.184V180.004L166.317 177.916V186.844C167.073 185.512 168.585 184.648 170.133 184.648C173.157 184.648 174.813 187.852 174.813 194.08C174.813 197.176 174.381 203.8 169.989 203.8C168.585 203.8 167.109 203.116 166.281 201.856C166.065 203.764 165.021 204.952 163.149 204.952H160.053V204.736C162.501 204.556 163.041 203.944 163.041 201.604V182.524ZM184.472 199.948C184.4 199.588 184.364 199.192 184.364 198.76V193.612C183.932 193.036 183.248 192.712 182.42 192.712C180.656 192.712 179.9 194.224 179.9 196.924C179.9 199.624 180.656 200.992 182.096 200.992C182.744 200.992 183.716 200.668 184.472 199.948ZM177.812 185.044C179.144 183.928 181.124 183.28 182.888 183.28C186.02 183.28 187.64 185.332 187.64 189.796V199.3C187.64 201.64 188.18 202.252 190.628 202.432V202.648H187.532C185.912 202.648 184.94 201.784 184.544 200.344C183.464 201.748 182.276 202.36 180.872 202.36C178.244 202.36 176.624 200.164 176.624 197.14C176.624 193.648 178.748 191.452 181.376 191.452C182.708 191.452 183.788 191.992 184.364 193V190.984C184.364 186.808 183.824 184.576 182.42 184.576C180.656 184.576 178.352 188.14 177.956 190.84H177.812V185.044ZM192.572 188.968C192.572 187.204 192.284 186.376 191.096 186.484L189.584 186.628V186.448L195.848 184.36V188.536C197.684 185.872 199.196 184.9 201.104 184.9C203.804 184.9 205.064 186.844 205.064 190.84V202.252C205.064 204.592 205.604 205.204 208.052 205.384V205.6H198.8V205.384C201.248 205.204 201.788 204.592 201.788 202.252V192.028C201.788 188.392 201.248 187.276 199.52 187.276C198.08 187.276 196.928 188.068 195.848 189.256V198.652C195.848 200.992 196.388 201.604 198.836 201.784V202H189.584V201.784C192.032 201.604 192.572 200.992 192.572 198.652V188.968ZM207.549 182.056H216.801V182.272C214.353 182.452 213.813 183.064 213.813 185.404V193.576L218.421 185.62C219.105 184.396 218.673 183.64 216.873 183.496V183.28H224.181V183.496C222.525 183.532 221.769 184.828 220.113 186.988L218.709 188.824L222.813 202.396C223.497 204.664 223.929 205.348 225.405 205.528V205.744H217.629V205.528C220.077 205.348 220.221 204.664 219.537 202.396L216.405 191.884L213.813 195.304V200.02C213.813 202.36 214.353 202.972 216.801 203.152V203.368H207.549V203.152C209.997 202.972 210.537 202.36 210.537 200.02V185.404C210.537 183.064 209.997 182.452 207.549 182.272V182.056ZM239.231 205.6C242.543 205.564 244.235 204.304 244.235 200.776C244.235 196.996 242.327 193.864 239.231 193.828V205.6ZM239.231 192.748C242.543 192.712 244.235 191.452 244.235 187.924C244.235 184.144 242.327 181.984 239.231 181.948V192.748ZM239.231 180.868C244.595 180.868 247.619 182.74 247.619 187.024C247.619 190.408 245.711 192.424 242.939 193.288C245.963 194.332 247.619 196.708 247.619 199.876C247.619 204.628 243.875 206.68 239.231 206.68H232.967V206.464C235.415 206.284 235.955 205.672 235.955 203.332V184.216C235.955 181.876 235.415 181.264 232.967 181.084V180.868H239.231ZM256.269 205.96C251.841 205.96 249.609 201.208 249.609 192.064C249.609 183.172 251.733 178.24 256.377 178.24C258.141 178.24 260.013 178.96 261.489 180.256L260.409 190.12L260.193 190.156C259.617 183.244 258.141 179.716 256.197 179.716C254.073 179.716 253.065 183.928 253.065 191.956C253.065 199.84 254.037 204.592 256.449 204.592C258.465 204.592 259.941 201.208 260.517 194.296L260.733 194.332L261.309 203.62C259.833 204.916 258.321 205.96 256.269 205.96ZM267.571 197.32H270.955L268.795 189.688L267.571 197.32ZM275.635 202.288C276.139 204.016 276.787 204.628 277.939 204.628V204.844H269.731V204.628C271.927 204.484 272.791 203.98 272.287 202.18L271.243 198.4H267.391L266.959 200.884C266.671 202.504 267.571 202.612 269.695 202.756V202.972H262.639V202.756C263.755 202.72 264.367 202.54 264.619 201.532L268.471 186.52C269.083 184.072 267.355 182.056 264.871 181.876V181.66H269.731L275.635 202.288ZM278.284 202L286.024 176.8H287.104L279.364 202H278.284ZM294.803 178.996C292.463 178.996 291.455 183.208 291.455 191.596C291.455 199.84 292.427 204.736 294.623 204.736C296.171 204.736 297.035 202.288 297.035 197.212V196.276C297.035 194.404 296.207 193.792 293.363 193.612V193.396H301.139V193.576C300.239 193.648 300.059 194.08 300.059 195.304V197.212C300.059 202.936 298.223 205.96 294.659 205.96C290.231 205.96 287.999 201.208 287.999 191.704C287.999 182.452 290.123 177.52 295.055 177.52C296.963 177.52 298.331 178.24 299.807 179.536L298.727 189.4L298.511 189.436C297.935 182.524 296.963 178.996 294.803 178.996ZM302.589 193.612C302.589 187.528 304.929 184 308.781 184C312.525 184 314.757 187.384 314.757 192.892C314.757 198.76 312.201 202.792 308.277 202.792C304.677 202.792 302.589 199.336 302.589 193.612ZM306.045 193C306.045 198.076 307.017 201.352 308.745 201.352C310.365 201.352 311.301 198.364 311.301 193.54C311.301 188.5 310.293 185.296 308.565 185.296C306.981 185.296 306.045 188.032 306.045 193ZM321.075 192.388C324.387 192.352 326.079 191.092 326.079 187.744C326.079 184.108 324.063 181.624 321.075 181.588V192.388ZM321.075 180.508C326.439 180.508 329.463 182.38 329.463 186.664C329.463 191.416 325.719 193.468 321.075 193.468V200.02C321.075 202.36 321.615 202.972 324.063 203.152V203.368H314.811V203.152C317.259 202.972 317.799 202.36 317.799 200.02V183.856C317.799 181.516 317.259 180.904 314.811 180.724V180.508H321.075ZM338.386 199.948C338.314 199.588 338.278 199.192 338.278 198.76V193.612C337.846 193.036 337.162 192.712 336.334 192.712C334.57 192.712 333.814 194.224 333.814 196.924C333.814 199.624 334.57 200.992 336.01 200.992C336.658 200.992 337.63 200.668 338.386 199.948ZM331.726 185.044C333.058 183.928 335.038 183.28 336.802 183.28C339.934 183.28 341.554 185.332 341.554 189.796V199.3C341.554 201.64 342.094 202.252 344.542 202.432V202.648H341.446C339.826 202.648 338.854 201.784 338.458 200.344C337.378 201.748 336.19 202.36 334.786 202.36C332.158 202.36 330.538 200.164 330.538 197.14C330.538 193.648 332.662 191.452 335.29 191.452C336.622 191.452 337.702 191.992 338.278 193V190.984C338.278 186.808 337.738 184.576 336.334 184.576C334.57 184.576 332.266 188.14 331.87 190.84H331.726V185.044ZM344.529 204.484C346.977 204.304 347.517 203.692 347.517 201.352V198.976L344.889 189.004C344.421 187.168 343.845 186.484 342.621 186.484V186.268H350.721V186.484C348.597 186.628 347.769 187.132 348.129 188.752L349.929 196.852L352.485 185.692C353.061 183.244 352.305 183.136 349.857 182.956V182.74H356.517V182.956C355.509 183.028 355.185 183.208 354.825 184.504L350.793 198.652V201.352C350.793 203.692 351.333 204.304 353.781 204.484V204.7H344.529V204.484Z" fill="#3F1536"/>
<path d="M150.428 4.65314C131.307 11.5275 116.407 19.8335 111.928 39.6531C105.529 67.9669 133.309 89.7981 161.928 94.6531C181.261 97.9328 194.38 92.9222 210.428 81.6531C223.855 72.2244 234.637 64.9618 236.428 48.6531C238.962 25.5696 218.161 12.8354 196.428 4.65314C179.616 -1.67641 167.333 -1.4244 150.428 4.65314Z" fill="#743C75"/>
<path d="M175.891 59.04C174.355 60.896 172.755 62.752 170.963 64.8C173.779 63.584 176.083 62.048 178.067 60.064C180.627 57.632 182.995 55.072 184.403 51.744C184.403 51.68 184.531 51.552 184.595 51.424C184.851 50.976 185.235 50.72 185.811 50.848C186.323 50.912 186.643 51.36 186.643 51.872C186.707 52.64 186.707 53.344 186.643 54.112C186.451 57.12 186.195 60.128 186.131 63.136C186.067 64.736 186.323 66.336 186.451 67.936C186.451 68.192 186.515 68.448 186.515 68.704C186.515 69.472 186.131 69.856 185.363 69.792C181.779 69.536 178.195 69.216 174.611 69.024C169.875 68.768 165.075 68.64 160.275 69.088C158.739 69.216 158.099 68.512 158.547 67.04C159.123 65.248 159.955 63.712 161.363 62.432C165.267 58.784 168.531 54.624 171.795 50.4C174.099 47.456 176.019 44.128 177.363 40.608C178.707 36.832 178.835 33.056 177.171 29.344C176.723 28.384 176.083 27.488 175.379 26.72C174.547 25.824 173.907 25.824 172.947 26.592C172.307 27.04 171.667 27.552 171.219 28.192C170.067 29.792 168.979 31.456 167.955 33.184C167.123 34.592 166.611 36.064 166.675 37.728C166.739 38.24 166.675 38.816 166.483 39.328C166.163 40.224 165.203 40.352 164.627 39.584C164.371 39.328 164.243 39.008 164.115 38.688C162.899 34.912 161.683 31.2 160.403 27.424C160.403 27.296 160.339 27.104 160.339 26.912C160.211 25.888 160.915 25.248 161.875 25.632C163.795 26.4 165.523 26.016 167.315 25.312C169.555 24.352 171.731 23.264 174.227 23.008C175.763 22.816 177.427 22.752 178.963 22.944C181.907 23.392 184.019 25.056 185.363 27.808C186.963 31.072 187.027 34.464 186.323 37.92C184.595 45.856 181.139 52.896 175.891 59.04Z" fill="white"/>
</svg>
