<svg width="445" height="245" viewBox="0 0 445 245" fill="none" xmlns="http://www.w3.org/2000/svg">
<path d="M135.428 4.65314C116.307 11.5275 101.407 19.8335 96.9278 39.6531C90.5292 67.9669 118.309 89.7981 146.928 94.6531C166.261 97.9328 179.38 92.9222 195.428 81.6531C208.855 72.2244 219.637 64.9618 221.428 48.6531C223.962 25.5696 203.161 12.8354 181.428 4.65314C164.616 -1.67641 152.333 -1.4244 135.428 4.65314Z" fill="#743C75"/>
<path d="M166.374 45.984C166.374 46.24 166.438 46.56 166.438 46.944C168.102 46.816 169.51 46.432 170.662 45.216C170.854 44.96 170.982 44.704 171.174 44.448C171.494 44.064 171.942 43.808 172.454 43.936C173.094 44.128 173.222 44.64 173.222 45.216C173.222 48.544 173.286 51.936 173.286 55.328C173.222 56.096 172.966 56.48 172.39 56.544C171.686 56.672 171.302 56.224 171.11 55.648C170.598 53.6 169.254 52.256 167.27 51.616C167.078 51.552 166.886 51.616 166.63 51.552C166.822 55.392 166.63 59.168 167.654 62.816C167.782 63.328 167.91 63.84 168.166 64.352C168.614 65.184 169.19 65.888 170.278 65.824C170.47 65.824 170.726 65.824 170.854 65.888C171.11 66.208 171.494 66.528 171.558 66.848C171.622 67.104 171.238 67.552 170.982 67.744C170.534 68 169.958 68.128 169.446 68.256C165.158 68.96 160.806 69.664 156.454 70.304C156.07 70.368 155.622 70.368 155.174 70.368C154.598 70.432 154.086 70.24 153.894 69.664C153.702 69.088 154.022 68.704 154.47 68.384C154.662 68.256 154.79 68.128 154.982 68C158.054 66.336 159.398 63.584 159.654 60.256C159.846 57.44 159.718 54.56 159.718 51.68C159.59 51.616 159.526 51.552 159.462 51.552C154.15 51.296 148.838 51.232 143.526 51.936C143.334 52 143.078 52 142.886 52C142.31 52.064 141.798 51.936 141.67 51.424C141.542 50.976 141.606 50.464 141.798 50.08C142.182 49.44 142.694 48.992 143.142 48.416C146.79 43.744 150.502 39.072 154.15 34.4C155.942 32.16 157.734 29.92 159.462 27.616C160.102 26.784 160.678 25.888 161.318 24.992C161.83 24.288 162.406 23.584 162.982 22.944C163.622 22.24 164.39 22.112 165.286 22.304C165.862 22.432 166.31 22.752 166.374 23.392C166.438 24.16 166.566 24.992 166.566 25.76C166.502 30.688 166.374 35.616 166.31 40.48C166.31 42.336 166.31 44.128 166.374 45.984ZM159.654 46.752C159.462 42.016 159.334 37.344 159.142 32.352C155.238 37.28 151.526 41.952 147.75 46.752C151.782 46.752 155.686 46.752 159.654 46.752Z" fill="white"/>
<path d="M302.49 109.813C272.349 104.992 258.939 84.0639 228.423 85.0326C200.537 85.9178 189.095 105.69 161.508 109.813C121.587 115.78 97.0092 79.7364 59.3471 94.1357C31.0415 104.958 12.8573 118.442 2.6479 146.732C-8.62049 177.956 20.1111 163.208 13.8855 195.787C10.3099 214.499 42.3252 216.262 59.3471 214.499C82.786 212.073 117.579 230.177 117.579 230.177L211.567 241.809C211.567 241.809 267.73 248.989 302.49 241.809C331.246 235.869 343.76 220.656 372.47 214.499C394.781 209.715 414.043 224.896 430.701 209.442C446.431 194.85 446.977 176.457 441.428 155.835C433.53 126.481 407.306 119.087 378.089 109.813C349.975 100.89 331.635 114.475 302.49 109.813Z" fill="#E17F57"/>
<path d="M52.0305 161.786C53.5785 161.606 53.8305 161.174 53.8305 158.654V145.838C53.8305 143.354 53.5065 142.778 52.0305 142.706V142.49H55.6305L62.2185 153.866L68.6265 137.45H72.5505V137.666C71.1465 137.666 70.7505 138.458 70.7505 140.798V163.298C70.7505 165.53 71.2905 166.358 72.3345 166.43V166.646H63.8385V166.43C66.6105 166.214 67.4745 165.494 67.4745 163.298V143.606L62.3985 160.13L55.1625 147.638L56.6745 158.834C56.9985 161.174 57.5385 161.606 59.8065 161.786V162.002H52.0305V161.786ZM82.5906 152.318C82.5906 147.638 81.4746 144.506 79.8546 144.506C78.1626 144.506 76.9026 147.962 76.8306 152.318H82.5906ZM76.8306 153.146C76.9386 157.25 78.1626 159.842 80.7186 159.842C82.8426 159.842 84.6426 158.078 85.1106 155.666H85.3266C84.7146 158.942 83.1306 161.282 79.6026 161.282C75.6786 161.282 73.3746 158.438 73.3746 152.93C73.3746 147.242 75.8586 143.354 79.9986 143.354C83.8506 143.354 85.9746 146.774 85.7946 153.146H76.8306ZM89.3578 147.458C89.3578 145.694 89.0698 144.866 87.8818 144.974L86.3698 145.118V144.938L92.6338 142.85V147.026C94.4698 144.362 95.9818 143.39 97.8898 143.39C100.59 143.39 101.85 145.334 101.85 149.33V160.742C101.85 163.082 102.39 163.694 104.838 163.874V164.09H95.5858V163.874C98.0338 163.694 98.5738 163.082 98.5738 160.742V150.518C98.5738 146.882 98.0338 145.766 96.3058 145.766C94.8658 145.766 93.7138 146.558 92.6338 147.746V157.142C92.6338 159.482 93.1738 160.094 95.6218 160.274V160.49H86.3698V160.274C88.8178 160.094 89.3578 159.482 89.3578 157.142V147.458ZM114.266 152.318C114.266 147.638 113.15 144.506 111.53 144.506C109.838 144.506 108.578 147.962 108.506 152.318H114.266ZM108.506 153.146C108.614 157.25 109.838 159.842 112.394 159.842C114.518 159.842 116.318 158.078 116.786 155.666H117.002C116.39 158.942 114.806 161.282 111.278 161.282C107.354 161.282 105.05 158.438 105.05 152.93C105.05 147.242 107.534 143.354 111.674 143.354C115.526 143.354 117.65 146.774 117.47 153.146H108.506ZM123.888 150.518C126.876 150.518 128.568 149.618 128.568 146.882C128.568 144.542 127.344 142.85 123.888 142.814V150.518ZM123.888 141.95C129.468 141.95 131.952 143.282 131.952 146.27C131.952 148.25 130.836 149.618 129.144 150.41L131.736 159.662C132.384 161.966 132.744 162.65 134.292 162.794V163.01H126.516V162.794C128.964 162.614 129.036 161.966 128.46 159.662L126.336 151.238C125.58 151.346 124.752 151.418 123.888 151.418V156.782C123.888 159.122 124.428 159.734 126.876 159.914V160.13H117.624V159.914C120.072 159.734 120.612 159.122 120.612 156.782V145.298C120.612 142.958 120.072 142.346 117.624 142.166V141.95H123.888ZM136.907 139.106C136.907 137.81 137.771 136.946 139.067 136.946C140.363 136.946 141.227 137.81 141.227 139.106C141.227 140.366 140.363 141.23 139.067 141.23C137.771 141.23 136.907 140.366 136.907 139.106ZM137.627 147.458C137.627 145.694 137.339 144.866 136.151 144.974L134.639 145.118V144.938L140.903 142.85V158.51C140.903 160.85 141.443 161.462 143.891 161.642V161.858H134.639V161.642C137.087 161.462 137.627 160.85 137.627 158.51V147.458ZM147.225 147.458C147.225 145.694 146.937 144.866 145.749 144.974L144.237 145.118V144.938L150.501 142.85V147.026C152.337 144.362 153.813 143.39 155.649 143.39C157.989 143.39 158.961 145.046 159.069 148.394C160.833 145.982 162.237 145.082 164.001 145.082C166.557 145.082 167.457 147.026 167.457 151.022V160.238C167.457 162.578 167.997 163.19 170.445 163.37V163.586H161.193V163.37C163.641 163.19 164.181 162.578 164.181 160.238V152.21C164.181 148.574 164.001 147.458 162.381 147.458C161.157 147.458 160.077 148.106 159.105 149.186V155.306C159.105 157.646 159.645 158.258 162.093 158.438V158.654H152.841V158.438C155.289 158.258 155.829 157.646 155.829 155.306V150.518C155.829 146.882 155.649 145.766 154.029 145.766C152.697 145.766 151.581 146.558 150.501 147.746V159.266C150.501 161.606 151.041 162.218 153.489 162.398V162.614H144.237V162.398C146.685 162.218 147.225 161.606 147.225 159.266V147.458ZM178.184 158.438C178.112 158.078 178.076 157.682 178.076 157.25V152.102C177.644 151.526 176.96 151.202 176.132 151.202C174.368 151.202 173.612 152.714 173.612 155.414C173.612 158.114 174.368 159.482 175.808 159.482C176.456 159.482 177.428 159.158 178.184 158.438ZM171.524 143.534C172.856 142.418 174.836 141.77 176.6 141.77C179.732 141.77 181.352 143.822 181.352 148.286V157.79C181.352 160.13 181.892 160.742 184.34 160.922V161.138H181.244C179.624 161.138 178.652 160.274 178.256 158.834C177.176 160.238 175.988 160.85 174.584 160.85C171.956 160.85 170.336 158.654 170.336 155.63C170.336 152.138 172.46 149.942 175.088 149.942C176.42 149.942 177.5 150.482 178.076 151.49V149.474C178.076 145.298 177.536 143.066 176.132 143.066C174.368 143.066 172.064 146.63 171.668 149.33H171.524V143.534ZM201.665 152.318C201.665 147.638 200.549 144.506 198.929 144.506C197.237 144.506 195.977 147.962 195.905 152.318H201.665ZM195.905 153.146C196.013 157.25 197.237 159.842 199.793 159.842C201.917 159.842 203.717 158.078 204.185 155.666H204.401C203.789 158.942 202.205 161.282 198.677 161.282C194.753 161.282 192.449 158.438 192.449 152.93C192.449 147.242 194.933 143.354 199.073 143.354C202.925 143.354 205.049 146.774 204.869 153.146H195.905ZM208.432 147.458C208.432 145.694 208.144 144.866 206.956 144.974L205.444 145.118V144.938L211.708 142.85V147.026C213.544 144.362 215.02 143.39 216.856 143.39C219.196 143.39 220.168 145.046 220.276 148.394C222.04 145.982 223.444 145.082 225.208 145.082C227.764 145.082 228.664 147.026 228.664 151.022V160.238C228.664 162.578 229.204 163.19 231.652 163.37V163.586H222.4V163.37C224.848 163.19 225.388 162.578 225.388 160.238V152.21C225.388 148.574 225.208 147.458 223.588 147.458C222.364 147.458 221.284 148.106 220.312 149.186V155.306C220.312 157.646 220.852 158.258 223.3 158.438V158.654H214.048V158.438C216.496 158.258 217.036 157.646 217.036 155.306V150.518C217.036 146.882 216.856 145.766 215.236 145.766C213.904 145.766 212.788 146.558 211.708 147.746V159.266C211.708 161.606 212.248 162.218 214.696 162.398V162.614H205.444V162.398C207.892 162.218 208.432 161.606 208.432 159.266V147.458ZM239.391 158.438C239.319 158.078 239.283 157.682 239.283 157.25V152.102C238.851 151.526 238.167 151.202 237.339 151.202C235.575 151.202 234.819 152.714 234.819 155.414C234.819 158.114 235.575 159.482 237.015 159.482C237.663 159.482 238.635 159.158 239.391 158.438ZM232.731 143.534C234.063 142.418 236.043 141.77 237.807 141.77C240.939 141.77 242.559 143.822 242.559 148.286V157.79C242.559 160.13 243.099 160.742 245.547 160.922V161.138H242.451C240.831 161.138 239.859 160.274 239.463 158.834C238.383 160.238 237.195 160.85 235.791 160.85C233.163 160.85 231.543 158.654 231.543 155.63C231.543 152.138 233.667 149.942 236.295 149.942C237.627 149.942 238.707 150.482 239.283 151.49V149.474C239.283 145.298 238.743 143.066 237.339 143.066C235.575 143.066 233.271 146.63 232.875 149.33H232.731V143.534ZM248.177 139.106C248.177 137.81 249.041 136.946 250.337 136.946C251.633 136.946 252.497 137.81 252.497 139.106C252.497 140.366 251.633 141.23 250.337 141.23C249.041 141.23 248.177 140.366 248.177 139.106ZM248.897 147.458C248.897 145.694 248.609 144.866 247.421 144.974L245.909 145.118V144.938L252.173 142.85V158.51C252.173 160.85 252.713 161.462 255.161 161.642V161.858H245.909V161.642C248.357 161.462 248.897 160.85 248.897 158.51V147.458ZM255.506 162.938C257.954 162.758 258.494 162.146 258.494 159.806V139.286C258.494 137.522 258.206 136.694 257.018 136.802L255.506 136.946V136.766L261.77 134.678V159.806C261.77 162.146 262.31 162.758 264.758 162.938V163.154H255.506V162.938ZM279.511 164.45C275.083 164.45 272.851 159.698 272.851 150.554C272.851 141.662 274.975 136.73 279.619 136.73C281.383 136.73 283.255 137.45 284.731 138.746L283.651 148.61L283.435 148.646C282.859 141.734 281.383 138.206 279.439 138.206C277.315 138.206 276.307 142.418 276.307 150.446C276.307 158.33 277.279 163.082 279.691 163.082C281.707 163.082 283.183 159.698 283.759 152.786L283.975 152.822L284.551 162.11C283.075 163.406 281.563 164.45 279.511 164.45ZM285.108 162.938C287.556 162.758 288.096 162.146 288.096 159.806V144.83C288.096 142.49 287.556 141.878 285.108 141.698V141.482H297.384L297.672 146.702L297.456 146.738C296.844 144.29 295.548 142.958 293.352 142.526L291.372 142.382V151.742C293.712 151.742 294.36 151.418 294.504 149.366H294.72V157.358H294.504C294.324 154.154 293.712 152.57 291.372 152.57V162.254C295.44 162.254 297.168 161.174 297.996 157.898L298.212 157.934L297.924 163.154H285.108V162.938ZM306.3 164.45C301.872 164.45 299.64 159.698 299.64 150.554C299.64 141.662 301.764 136.73 306.408 136.73C308.172 136.73 310.044 137.45 311.52 138.746L310.44 148.61L310.224 148.646C309.648 141.734 308.172 138.206 306.228 138.206C304.104 138.206 303.096 142.418 303.096 150.446C303.096 158.33 304.068 163.082 306.48 163.082C308.496 163.082 309.972 159.698 310.548 152.786L310.764 152.822L311.34 162.11C309.864 163.406 308.352 164.45 306.3 164.45ZM319.097 164.45C314.669 164.45 312.437 159.698 312.437 150.554C312.437 141.662 314.561 136.73 319.205 136.73C320.969 136.73 322.841 137.45 324.317 138.746L323.237 148.61L323.021 148.646C322.445 141.734 320.969 138.206 319.025 138.206C316.901 138.206 315.893 142.418 315.893 150.446C315.893 158.33 316.865 163.082 319.277 163.082C321.293 163.082 322.769 159.698 323.345 152.786L323.561 152.822L324.137 162.11C322.661 163.406 321.149 164.45 319.097 164.45ZM341.037 136.139C342.631 136.139 344.03 136.92 345.233 138.482C345.991 139.865 346.409 141.318 346.487 142.842C346.432 144.592 346.248 145.873 345.936 146.686C345.436 148.295 344.241 150.264 342.35 152.592C341.787 153.514 341.053 154.404 340.147 155.264C339.03 156.318 338.467 156.959 338.459 157.186V157.232C338.475 157.475 339.092 157.615 340.311 157.654C341.092 157.748 341.737 157.795 342.244 157.795H342.432C343.955 157.795 345.045 157.42 345.701 156.67C346.131 155.967 346.494 155.123 346.791 154.139C347.026 152.896 347.354 152.006 347.776 151.467H347.823C348.018 151.537 348.123 151.756 348.139 152.123L348.198 153.248L347.787 159.107C347.85 160.232 347.647 160.795 347.178 160.795H347.084C347.037 160.795 346.557 160.561 345.643 160.092C344.869 159.936 343.502 159.811 341.541 159.717H339.807C337.354 159.873 335.631 160.107 334.639 160.42C334.522 160.42 333.768 160.623 332.377 161.029H332.237C331.916 160.896 331.752 160.725 331.744 160.514C331.729 160.271 332.213 159.678 333.198 158.732C334.565 157.053 335.655 155.771 336.467 154.889L338.881 151.748C339.514 150.92 340.276 149.623 341.166 147.857C341.83 146.201 342.116 144.404 342.022 142.467C341.912 140.428 341.502 139.178 340.791 138.717C340.479 138.467 340.116 138.342 339.701 138.342C338.858 138.342 337.955 138.779 336.994 139.654C336.784 140.053 336.662 140.693 336.631 141.576C336.303 143.17 335.885 144.498 335.377 145.561C334.885 146.506 334.475 147.006 334.147 147.061H334.006C333.811 146.936 333.709 146.779 333.701 146.592L333.678 146.076C333.741 144.381 333.78 142.756 333.795 141.201C333.725 140.396 333.573 139.24 333.338 137.732C333.315 137.295 333.444 137.076 333.725 137.076C333.912 137.076 334.334 137.357 334.991 137.92C335.233 138.014 335.409 138.061 335.518 138.061H335.659C335.885 138.061 336.412 137.748 337.241 137.123C338.28 136.467 339.545 136.139 341.037 136.139ZM352.709 159.799C351.537 159.26 350.69 158.283 350.166 156.869C349.698 155.049 349.432 152.736 349.369 149.932L349.428 146.592C349.608 143.561 349.823 141.627 350.073 140.791C350.909 138.291 352.94 137.041 356.166 137.041C357.276 137.041 358.424 137.303 359.612 137.826C360.784 138.365 361.631 139.342 362.155 140.756C362.623 142.576 362.889 144.889 362.951 147.693L362.893 151.033C362.713 154.064 362.498 155.998 362.248 156.834C361.412 159.334 359.381 160.584 356.155 160.584C355.045 160.584 353.897 160.322 352.709 159.799ZM357.584 139.279C357.358 139.131 357.108 139.057 356.834 139.057H356.717C355.819 139.057 354.994 139.635 354.244 140.791C353.979 141.104 353.752 142.104 353.565 143.791V152.463C353.666 155.338 353.838 157.041 354.08 157.572C354.166 157.846 354.362 158.092 354.666 158.311L354.643 158.346C354.869 158.494 355.119 158.568 355.393 158.568H355.51C356.409 158.568 357.233 157.99 357.983 156.834C358.248 156.521 358.475 155.521 358.662 153.834V145.162C358.561 142.287 358.389 140.584 358.147 140.053C358.061 139.779 357.866 139.533 357.561 139.314L357.584 139.279ZM373.451 136.139C375.045 136.139 376.444 136.92 377.647 138.482C378.405 139.865 378.823 141.318 378.901 142.842C378.846 144.592 378.662 145.873 378.35 146.686C377.85 148.295 376.655 150.264 374.764 152.592C374.201 153.514 373.467 154.404 372.561 155.264C371.444 156.318 370.881 156.959 370.873 157.186V157.232C370.889 157.475 371.506 157.615 372.725 157.654C373.506 157.748 374.151 157.795 374.659 157.795H374.846C376.369 157.795 377.459 157.42 378.116 156.67C378.545 155.967 378.909 155.123 379.205 154.139C379.44 152.896 379.768 152.006 380.19 151.467H380.237C380.432 151.537 380.537 151.756 380.553 152.123L380.612 153.248L380.201 159.107C380.264 160.232 380.061 160.795 379.592 160.795H379.498C379.451 160.795 378.971 160.561 378.057 160.092C377.284 159.936 375.916 159.811 373.955 159.717H372.221C369.768 159.873 368.045 160.107 367.053 160.42C366.936 160.42 366.182 160.623 364.791 161.029H364.651C364.33 160.896 364.166 160.725 364.159 160.514C364.143 160.271 364.627 159.678 365.612 158.732C366.979 157.053 368.069 155.771 368.881 154.889L371.295 151.748C371.928 150.92 372.69 149.623 373.58 147.857C374.244 146.201 374.53 144.404 374.436 142.467C374.326 140.428 373.916 139.178 373.205 138.717C372.893 138.467 372.53 138.342 372.116 138.342C371.272 138.342 370.369 138.779 369.409 139.654C369.198 140.053 369.076 140.693 369.045 141.576C368.717 143.17 368.299 144.498 367.791 145.561C367.299 146.506 366.889 147.006 366.561 147.061H366.42C366.225 146.936 366.123 146.779 366.116 146.592L366.092 146.076C366.155 144.381 366.194 142.756 366.209 141.201C366.139 140.396 365.987 139.24 365.752 137.732C365.729 137.295 365.858 137.076 366.139 137.076C366.326 137.076 366.748 137.357 367.405 137.92C367.647 138.014 367.823 138.061 367.932 138.061H368.073C368.299 138.061 368.826 137.748 369.655 137.123C370.694 136.467 371.959 136.139 373.451 136.139ZM394.123 136.771C394.506 136.771 394.698 137.182 394.698 138.002V139.186C394.698 139.709 394.651 141.057 394.557 143.229V144.986C394.471 146.572 394.428 147.639 394.428 148.186C394.428 148.951 394.635 149.334 395.049 149.334C395.049 149.357 395.135 149.385 395.307 149.416C395.901 149.416 396.545 148.83 397.241 147.658C397.428 147.4 397.635 147.182 397.862 147.002H398.073C398.252 147.088 398.342 147.307 398.342 147.658C398.28 148.479 398.233 149.4 398.201 150.424C398.233 150.768 398.248 151.092 398.248 151.396V153.986C398.139 154.189 398.022 154.291 397.897 154.291C397.709 154.291 397.33 154.014 396.76 153.459C396.377 153.162 395.85 153.014 395.178 153.014C394.709 153.014 394.475 153.338 394.475 153.986C394.553 156.096 394.756 157.209 395.084 157.326C395.084 157.6 395.584 157.936 396.584 158.334C397.053 158.412 397.389 158.557 397.592 158.768V158.814C397.592 159.104 397.123 159.322 396.186 159.471C392.272 160.439 389.959 160.982 389.248 161.1C388.983 161.037 388.85 160.963 388.85 160.877V160.572C388.85 160.354 389.276 159.768 390.127 158.814C390.362 158.252 390.479 157.756 390.479 157.326V156.354C390.479 156.182 390.506 155.318 390.561 153.764V153.588C390.483 153.15 390.194 152.932 389.694 152.932C389.045 152.932 388.576 152.947 388.287 152.979C388.147 152.979 386.932 152.936 384.643 152.85H383.764C382.444 152.85 381.784 152.6 381.784 152.1V152.053C381.784 151.771 382.311 151.01 383.366 149.768C384.295 148.518 385.393 147.158 386.659 145.689C387.409 144.619 388.272 143.533 389.248 142.432L393.069 137.521C393.553 137.021 393.905 136.771 394.123 136.771ZM387.186 149.334C387.264 149.537 387.424 149.639 387.666 149.639C389.596 149.639 390.561 149.521 390.561 149.287C390.741 149.037 390.83 148.334 390.83 147.178V146.393C390.83 145.455 390.729 144.986 390.526 144.986H390.303C389.975 145.213 389.463 145.811 388.768 146.779C388.44 147.107 387.912 147.885 387.186 149.111V149.334ZM153.172 197.974C155.62 197.794 156.16 197.182 156.16 194.842V192.466L153.532 182.494C153.064 180.658 152.488 179.974 151.264 179.974V179.758H159.364V179.974C157.24 180.118 156.412 180.622 156.772 182.242L158.572 190.342L161.128 179.182C161.704 176.734 160.948 176.626 158.5 176.446V176.23H165.16V176.446C164.152 176.518 163.828 176.698 163.468 177.994L159.436 192.142V194.842C159.436 197.182 159.976 197.794 162.424 197.974V198.19H153.172V197.974ZM172.025 193.438C171.953 193.078 171.917 192.682 171.917 192.25V187.102C171.485 186.526 170.801 186.202 169.973 186.202C168.209 186.202 167.453 187.714 167.453 190.414C167.453 193.114 168.209 194.482 169.649 194.482C170.297 194.482 171.269 194.158 172.025 193.438ZM165.365 178.534C166.697 177.418 168.677 176.77 170.441 176.77C173.573 176.77 175.193 178.822 175.193 183.286V192.79C175.193 195.13 175.733 195.742 178.181 195.922V196.138H175.085C173.465 196.138 172.493 195.274 172.097 193.834C171.017 195.238 169.829 195.85 168.425 195.85C165.797 195.85 164.177 193.654 164.177 190.63C164.177 187.138 166.301 184.942 168.929 184.942C170.261 184.942 171.341 185.482 171.917 186.49V184.474C171.917 180.298 171.377 178.066 169.973 178.066C168.209 178.066 165.905 181.63 165.509 184.33H165.365V178.534ZM180.125 182.458C180.125 180.694 179.837 179.866 178.649 179.974L177.137 180.118V179.938L183.401 177.85V182.026C185.237 179.362 186.749 178.39 188.657 178.39C191.357 178.39 192.617 180.334 192.617 184.33V195.742C192.617 198.082 193.157 198.694 195.605 198.874V199.09H186.353V198.874C188.801 198.694 189.341 198.082 189.341 195.742V185.518C189.341 181.882 188.801 180.766 187.073 180.766C185.633 180.766 184.481 181.558 183.401 182.746V192.142C183.401 194.482 183.941 195.094 186.389 195.274V195.49H177.137V195.274C179.585 195.094 180.125 194.482 180.125 192.142V182.458ZM199.061 186.094C199.061 191.638 199.997 194.086 201.761 194.086C202.445 194.086 203.525 193.69 204.173 192.862V179.182L204.281 179.146H204.173V179.002C203.597 178.318 202.841 177.886 202.013 177.886C200.105 177.886 199.061 180.262 199.061 186.094ZM198.197 204.274C202.301 204.49 204.173 202.618 204.173 196.282V193.366C203.417 194.698 201.905 195.562 200.357 195.562C197.333 195.562 195.677 192.358 195.677 186.13C195.677 183.034 196.109 176.41 200.501 176.41C201.905 176.41 203.381 177.094 204.209 178.354C204.425 176.446 205.469 175.258 207.341 175.258H210.437V175.474C207.989 175.654 207.449 176.266 207.449 178.606V196.714C207.269 200.926 204.605 204.598 199.817 204.598C199.277 204.598 198.773 204.526 198.197 204.454V204.274ZM229.365 187.606C229.365 182.062 228.429 179.614 226.665 179.614C225.981 179.614 224.901 180.01 224.253 180.838V194.518L224.145 194.554H224.253V194.698C224.829 195.382 225.585 195.814 226.413 195.814C228.321 195.814 229.365 193.438 229.365 187.606ZM220.977 176.014C220.977 174.07 220.581 173.422 219.501 173.53L217.989 173.674V173.494L224.253 171.406V180.334C225.009 179.002 226.521 178.138 228.069 178.138C231.093 178.138 232.749 181.342 232.749 187.57C232.749 190.666 232.317 197.29 227.925 197.29C226.521 197.29 225.045 196.606 224.217 195.346C224.001 197.254 222.957 198.442 221.085 198.442H217.989V198.226C220.437 198.046 220.977 197.434 220.977 195.094V176.014ZM243.636 187.318C243.636 182.638 242.52 179.506 240.9 179.506C239.208 179.506 237.948 182.962 237.876 187.318H243.636ZM237.876 188.146C237.984 192.25 239.208 194.842 241.764 194.842C243.888 194.842 245.688 193.078 246.156 190.666H246.372C245.76 193.942 244.176 196.282 240.648 196.282C236.724 196.282 234.42 193.438 234.42 187.93C234.42 182.242 236.904 178.354 241.044 178.354C244.896 178.354 247.02 181.774 246.84 188.146H237.876ZM253.257 185.518C256.245 185.518 257.937 184.618 257.937 181.882C257.937 179.542 256.713 177.85 253.257 177.814V185.518ZM253.257 176.95C258.837 176.95 261.321 178.282 261.321 181.27C261.321 183.25 260.205 184.618 258.513 185.41L261.105 194.662C261.753 196.966 262.113 197.65 263.661 197.794V198.01H255.885V197.794C258.333 197.614 258.405 196.966 257.829 194.662L255.705 186.238C254.949 186.346 254.121 186.418 253.257 186.418V191.782C253.257 194.122 253.797 194.734 256.245 194.914V195.13H246.993V194.914C249.441 194.734 249.981 194.122 249.981 191.782V180.298C249.981 177.958 249.441 177.346 246.993 177.166V176.95H253.257ZM266.276 174.106C266.276 172.81 267.14 171.946 268.436 171.946C269.732 171.946 270.596 172.81 270.596 174.106C270.596 175.366 269.732 176.23 268.436 176.23C267.14 176.23 266.276 175.366 266.276 174.106ZM266.996 182.458C266.996 180.694 266.708 179.866 265.52 179.974L264.008 180.118V179.938L270.272 177.85V193.51C270.272 195.85 270.812 196.462 273.26 196.642V196.858H264.008V196.642C266.456 196.462 266.996 195.85 266.996 193.51V182.458ZM278.986 177.346C277.474 177.346 276.718 178.678 276.718 180.19C276.718 185.158 284.638 186.958 284.638 192.682C284.638 195.49 282.766 197.542 279.454 197.542C277.654 197.542 275.566 196.93 273.982 195.526L274.918 187.03L275.134 186.994C275.638 193.078 277.006 195.994 279.31 195.994C280.678 195.994 281.434 194.986 281.434 193.51C281.434 188.794 273.478 186.49 273.478 180.982C273.478 178.03 275.782 175.798 279.238 175.798C281.218 175.798 282.766 176.518 284.278 177.814L283.342 186.31L283.126 186.346C282.622 180.262 281.254 177.346 278.986 177.346ZM287.792 174.106C287.792 172.81 288.656 171.946 289.952 171.946C291.248 171.946 292.112 172.81 292.112 174.106C292.112 175.366 291.248 176.23 289.952 176.23C288.656 176.23 287.792 175.366 287.792 174.106ZM288.512 182.458C288.512 180.694 288.224 179.866 287.036 179.974L285.524 180.118V179.938L291.788 177.85V193.51C291.788 195.85 292.328 196.462 294.776 196.642V196.858H285.524V196.642C287.972 196.462 288.512 195.85 288.512 193.51V182.458ZM295.302 183.538C295.302 182.278 296.202 181.414 297.498 181.414C298.758 181.414 299.658 182.278 299.658 183.538C299.658 184.87 298.758 185.734 297.498 185.734C296.202 185.734 295.302 184.87 295.302 183.538ZM295.302 193.654C295.302 192.394 296.202 191.53 297.498 191.53C298.758 191.53 299.658 192.394 299.658 193.654C299.658 194.986 298.758 195.85 297.498 195.85C296.202 195.85 295.302 194.986 295.302 193.654Z" fill="#3F1536"/>
</svg>
