<svg width="394" height="252" viewBox="0 0 394 252" fill="none" xmlns="http://www.w3.org/2000/svg">
<path d="M182.428 4.65314C163.307 11.5275 148.407 19.8335 143.928 39.6531C137.529 67.9669 165.309 89.7981 193.928 94.6531C213.261 97.9328 226.38 92.9222 242.428 81.6531C255.855 72.2244 266.637 64.9618 268.428 48.6531C270.962 25.5696 250.161 12.8354 228.428 4.65314C211.616 -1.67641 199.333 -1.4244 182.428 4.65314Z" fill="#743C75"/>
<path d="M206.938 40.416C206.874 40.416 206.938 40.48 206.874 40.608C208.154 40.672 209.434 40.672 210.65 40.864C215.066 41.632 218.33 45.152 218.522 49.696C218.778 56.8 215.642 62.048 209.498 65.504C205.21 67.872 200.602 68.896 195.738 69.216C193.882 69.344 192.09 69.664 190.362 70.56C189.274 71.136 188.57 70.624 188.634 69.408C188.698 69.088 188.698 68.768 188.826 68.448C189.85 64.864 189.914 61.216 190.042 57.504C190.106 55.712 190.042 53.92 190.106 52.064C190.106 51.616 190.17 51.168 190.234 50.784C190.362 50.272 190.746 50.016 191.258 50.08C191.578 50.208 191.962 50.464 192.154 50.784C192.346 51.104 192.346 51.616 192.41 52.064C192.538 54.688 193.242 57.184 194.522 59.552C195.866 62.112 197.914 63.52 200.73 63.904C203.866 64.416 205.466 63.584 207.13 60.832C209.05 57.696 209.818 54.368 208.922 50.656C208.026 46.752 205.338 44.704 201.818 44.448C200.986 44.32 200.154 44.32 199.322 44.256C198.682 44.256 197.978 44.384 197.722 43.616C197.466 42.912 197.85 42.4 198.362 41.952C200.09 40.608 201.05 38.688 201.818 36.704C203.034 33.952 203.418 31.136 202.842 28.128C202.714 27.616 202.522 27.104 202.266 26.656C201.242 25.12 199.386 24.992 198.234 26.4C197.466 27.424 196.698 28.448 196.122 29.6C195.226 31.584 194.458 33.632 193.69 35.616C193.498 36 193.434 36.384 193.242 36.768C193.05 37.28 192.666 37.536 192.09 37.472C191.578 37.408 191.194 37.024 191.13 36.512C191.002 35.744 190.938 34.912 190.874 34.144C190.426 30.752 190.042 27.36 189.594 23.968C189.466 23.2 189.53 22.624 190.234 22.112C190.874 21.728 191.386 21.664 191.834 22.304C192.602 23.264 193.626 23.584 194.65 23.456C196.57 23.264 198.426 22.88 200.346 22.624C201.434 22.432 202.586 22.24 203.738 22.176C211.162 21.6 213.85 28.192 212.186 33.248C211.29 35.744 209.818 37.856 207.834 39.648C207.514 39.904 207.258 40.16 206.938 40.416Z" fill="white"/>
<path d="M210.872 111.069C175.29 110.852 157.785 94.2074 122.217 93.3139C86.688 92.4213 55.8196 83.8699 32.5611 106.556C19.2812 119.51 15.5411 130.724 15.0305 147.848C14.4812 166.271 21.3861 176.827 32.5611 192.659C51.6229 219.666 73.9823 229.269 108.193 241.698C163.17 261.672 201.996 247.463 261.46 241.698C300.639 237.9 335.241 251.101 360.633 225.634C378.87 207.341 379.187 189.872 377.162 166.026C375.218 143.149 373.403 125.845 352.619 111.069C331.757 96.2386 311.273 100.338 283.999 100.078C254.994 99.8008 239.878 111.247 210.872 111.069Z" fill="#E17F57"/>
<path d="M44.206 150.296C45.754 150.116 46.006 149.684 46.006 147.164V134.348C46.006 131.864 45.682 131.288 44.206 131.216V131H47.806L54.394 142.376L60.802 125.96H64.726V126.176C63.322 126.176 62.926 126.968 62.926 129.308V151.808C62.926 154.04 63.466 154.868 64.51 154.94V155.156H56.014V154.94C58.786 154.724 59.65 154.004 59.65 151.808V132.116L54.574 148.64L47.338 136.148L48.85 147.344C49.174 149.684 49.714 150.116 51.982 150.296V150.512H44.206V150.296ZM74.7661 140.828C74.7661 136.148 73.6501 133.016 72.0301 133.016C70.3381 133.016 69.0781 136.472 69.0061 140.828H74.7661ZM69.0061 141.656C69.1141 145.76 70.3381 148.352 72.8941 148.352C75.0181 148.352 76.8181 146.588 77.2861 144.176H77.5021C76.8901 147.452 75.3061 149.792 71.7781 149.792C67.8541 149.792 65.5501 146.948 65.5501 141.44C65.5501 135.752 68.0341 131.864 72.1741 131.864C76.0261 131.864 78.1501 135.284 77.9701 141.656H69.0061ZM77.2796 151.448C79.7276 151.268 80.2676 150.656 80.2676 148.316V127.796C80.2676 126.032 79.9796 125.204 78.7916 125.312L77.2796 125.456V125.276L83.5436 123.188V148.316C83.5436 150.656 84.0836 151.268 86.5316 151.448V151.664H77.2796V151.448ZM94.1403 146.948C94.0683 146.588 94.0323 146.192 94.0323 145.76V140.612C93.6003 140.036 92.9163 139.712 92.0883 139.712C90.3243 139.712 89.5683 141.224 89.5683 143.924C89.5683 146.624 90.3243 147.992 91.7643 147.992C92.4123 147.992 93.3843 147.668 94.1403 146.948ZM87.4803 132.044C88.8123 130.928 90.7923 130.28 92.5563 130.28C95.6883 130.28 97.3083 132.332 97.3083 136.796V146.3C97.3083 148.64 97.8483 149.252 100.296 149.432V149.648H97.2003C95.5803 149.648 94.6083 148.784 94.2123 147.344C93.1323 148.748 91.9443 149.36 90.5403 149.36C87.9123 149.36 86.2923 147.164 86.2923 144.14C86.2923 140.648 88.4163 138.452 91.0443 138.452C92.3763 138.452 93.4563 138.992 94.0323 140V137.984C94.0323 133.808 93.4923 131.576 92.0883 131.576C90.3243 131.576 88.0203 135.14 87.6243 137.84H87.4803V132.044ZM99.5335 129.056H108.786V129.272C106.338 129.452 105.798 130.064 105.798 132.404V140.576L110.406 132.62C111.09 131.396 110.658 130.64 108.858 130.496V130.28H116.166V130.496C114.51 130.532 113.754 131.828 112.098 133.988L110.694 135.824L114.798 149.396C115.482 151.664 115.914 152.348 117.39 152.528V152.744H109.614V152.528C112.062 152.348 112.206 151.664 111.522 149.396L108.39 138.884L105.798 142.304V147.02C105.798 149.36 106.338 149.972 108.786 150.152V150.368H99.5335V150.152C101.982 149.972 102.522 149.36 102.522 147.02V132.404C102.522 130.064 101.982 129.452 99.5335 129.272V129.056ZM122.11 143.06C122.11 146.696 122.65 147.812 124.378 147.812C125.854 147.812 127.006 147.02 128.086 145.796C128.05 145.58 128.05 145.328 128.05 145.112V135.212C128.05 133.448 127.762 132.62 126.574 132.728L125.062 132.872V132.692L131.326 130.604V145.652C131.326 147.992 131.866 148.604 134.314 148.784V149H131.218C129.49 149 128.482 147.992 128.158 146.372C126.25 149.18 124.738 150.188 122.794 150.188C120.094 150.188 118.834 148.244 118.834 144.248V133.628C118.834 131.864 118.546 131.036 117.358 131.144L115.846 131.288V131.108L122.11 129.02V143.06ZM133.705 129.056H142.957V129.272C140.509 129.452 139.969 130.064 139.969 132.404V140.576L144.577 132.62C145.261 131.396 144.829 130.64 143.029 130.496V130.28H150.337V130.496C148.681 130.532 147.925 131.828 146.269 133.988L144.865 135.824L148.969 149.396C149.653 151.664 150.085 152.348 151.561 152.528V152.744H143.785V152.528C146.233 152.348 146.377 151.664 145.693 149.396L142.561 138.884L139.969 142.304V147.02C139.969 149.36 140.509 149.972 142.957 150.152V150.368H133.705V150.152C136.153 149.972 136.693 149.36 136.693 147.02V132.404C136.693 130.064 136.153 129.452 133.705 129.272V129.056ZM158.406 146.948C158.334 146.588 158.298 146.192 158.298 145.76V140.612C157.866 140.036 157.182 139.712 156.354 139.712C154.59 139.712 153.834 141.224 153.834 143.924C153.834 146.624 154.59 147.992 156.03 147.992C156.678 147.992 157.65 147.668 158.406 146.948ZM151.746 132.044C153.078 130.928 155.058 130.28 156.822 130.28C159.954 130.28 161.574 132.332 161.574 136.796V146.3C161.574 148.64 162.114 149.252 164.562 149.432V149.648H161.466C159.846 149.648 158.874 148.784 158.478 147.344C157.398 148.748 156.21 149.36 154.806 149.36C152.178 149.36 150.558 147.164 150.558 144.14C150.558 140.648 152.682 138.452 155.31 138.452C156.642 138.452 157.722 138.992 158.298 140V137.984C158.298 133.808 157.758 131.576 156.354 131.576C154.59 131.576 152.286 135.14 151.89 137.84H151.746V132.044ZM166.506 135.968C166.506 134.204 166.218 133.376 165.03 133.484L163.518 133.628V133.448L169.782 131.36V135.536C171.618 132.872 173.13 131.9 175.038 131.9C177.738 131.9 178.998 133.844 178.998 137.84V149.252C178.998 151.592 179.538 152.204 181.986 152.384V152.6H172.734V152.384C175.182 152.204 175.722 151.592 175.722 149.252V139.028C175.722 135.392 175.182 134.276 173.454 134.276C172.014 134.276 170.862 135.068 169.782 136.256V145.652C169.782 147.992 170.322 148.604 172.77 148.784V149H163.518V148.784C165.966 148.604 166.506 147.992 166.506 145.652V135.968ZM200.981 138.38C200.981 134.672 199.901 132.476 198.281 132.476C197.345 132.476 196.481 133.196 195.833 134.06V143.132C196.481 143.96 197.525 144.356 198.209 144.356C199.757 144.356 200.981 142.304 200.981 138.38ZM189.569 156.416C192.017 156.236 192.557 155.624 192.557 153.284V134.42C192.557 132.656 192.269 131.828 191.081 131.936L189.569 132.08V131.9L195.833 129.812V133.34C196.769 131.936 198.281 131 199.865 131C203.465 131 204.365 135.572 204.365 138.344C204.365 141.224 203.393 145.832 199.721 145.832C198.353 145.832 196.661 145.148 195.833 143.672V153.284C195.833 155.624 196.373 156.236 198.821 156.416V156.632H189.569V156.416ZM215.145 140.828C215.145 136.148 214.029 133.016 212.409 133.016C210.717 133.016 209.457 136.472 209.385 140.828H215.145ZM209.385 141.656C209.493 145.76 210.717 148.352 213.273 148.352C215.397 148.352 217.197 146.588 217.665 144.176H217.881C217.269 147.452 215.685 149.792 212.157 149.792C208.233 149.792 205.929 146.948 205.929 141.44C205.929 135.752 208.413 131.864 212.553 131.864C216.405 131.864 218.529 135.284 218.349 141.656H209.385ZM221.912 135.968C221.912 134.204 221.624 133.376 220.436 133.484L218.924 133.628V133.448L225.188 131.36V135.536C227.024 132.872 228.536 131.9 230.444 131.9C233.144 131.9 234.404 133.844 234.404 137.84V149.252C234.404 151.592 234.944 152.204 237.392 152.384V152.6H228.14V152.384C230.588 152.204 231.128 151.592 231.128 149.252V139.028C231.128 135.392 230.588 134.276 228.86 134.276C227.42 134.276 226.268 135.068 225.188 136.256V145.652C225.188 147.992 225.728 148.604 228.176 148.784V149H218.924V148.784C221.372 148.604 221.912 147.992 221.912 145.652V135.968ZM240.778 142.304C240.778 146.624 241.822 149.324 243.73 149.324C244.666 149.324 245.422 148.64 245.962 147.812V136.544C245.386 135.716 244.63 135.356 243.874 135.356C242.002 135.356 240.778 137.66 240.778 142.304ZM245.962 129.524C245.962 127.76 245.674 126.932 244.486 127.04L242.974 127.184V127.004L249.238 124.916V148.604C249.238 150.944 249.778 151.556 252.226 151.736V151.952H249.13C247.15 151.952 246.106 150.62 245.962 148.496C245.098 149.9 243.694 150.8 242.11 150.8C238.114 150.8 237.394 145.436 237.394 142.484C237.394 139.28 238.222 133.88 242.434 133.88C243.766 133.88 245.206 134.528 245.962 135.968V129.524ZM259.761 146.948C259.689 146.588 259.653 146.192 259.653 145.76V140.612C259.221 140.036 258.537 139.712 257.709 139.712C255.945 139.712 255.189 141.224 255.189 143.924C255.189 146.624 255.945 147.992 257.385 147.992C258.033 147.992 259.005 147.668 259.761 146.948ZM253.101 132.044C254.433 130.928 256.413 130.28 258.177 130.28C261.309 130.28 262.929 132.332 262.929 136.796V146.3C262.929 148.64 263.469 149.252 265.917 149.432V149.648H262.821C261.201 149.648 260.229 148.784 259.833 147.344C258.753 148.748 257.565 149.36 256.161 149.36C253.533 149.36 251.913 147.164 251.913 144.14C251.913 140.648 254.037 138.452 256.665 138.452C257.997 138.452 259.077 138.992 259.653 140V137.984C259.653 133.808 259.113 131.576 257.709 131.576C255.945 131.576 253.641 135.14 253.245 137.84H253.101V132.044ZM269.268 133.916C269.268 129.992 271.644 127.436 275.316 127.436H278.196L278.556 133.376L278.34 133.412C277.62 130.64 276.288 128.948 274.776 128.948C273.408 128.948 272.544 130.352 272.544 133.916V135.896L277.224 136.004V136.292L272.544 136.364V145.76C272.544 148.1 273.084 148.712 275.532 148.892V149.108H266.28V148.892C268.728 148.712 269.268 148.1 269.268 145.76V136.4L267.36 136.436V135.752L269.268 135.788V133.916ZM289.039 150.404C288.679 152.276 287.347 153.428 285.439 153.428C282.595 153.428 281.479 150.872 281.479 146.444V134.78L279.463 135.068V133.196H281.479C283.243 132.836 284.179 131.828 284.647 129.848H284.755V133.232L288.247 133.268V133.88L284.755 134.348V145.076C284.755 150.476 285.259 152.132 286.951 152.132C287.959 152.132 288.571 151.52 288.787 150.404H289.039ZM296.464 146.948C296.392 146.588 296.356 146.192 296.356 145.76V140.612C295.924 140.036 295.24 139.712 294.412 139.712C292.648 139.712 291.892 141.224 291.892 143.924C291.892 146.624 292.648 147.992 294.088 147.992C294.736 147.992 295.708 147.668 296.464 146.948ZM289.804 132.044C291.136 130.928 293.116 130.28 294.88 130.28C298.012 130.28 299.632 132.332 299.632 136.796V146.3C299.632 148.64 300.172 149.252 302.62 149.432V149.648H299.524C297.904 149.648 296.932 148.784 296.536 147.344C295.456 148.748 294.268 149.36 292.864 149.36C290.236 149.36 288.616 147.164 288.616 144.14C288.616 140.648 290.74 138.452 293.368 138.452C294.7 138.452 295.78 138.992 296.356 140V137.984C296.356 133.808 295.816 131.576 294.412 131.576C292.648 131.576 290.344 135.14 289.948 137.84H289.804V132.044ZM308.544 139.028C311.532 139.028 313.224 138.128 313.224 135.392C313.224 133.052 312 131.36 308.544 131.324V139.028ZM308.544 130.46C314.124 130.46 316.608 131.792 316.608 134.78C316.608 136.76 315.492 138.128 313.8 138.92L316.392 148.172C317.04 150.476 317.4 151.16 318.948 151.304V151.52H311.172V151.304C313.62 151.124 313.692 150.476 313.116 148.172L310.992 139.748C310.236 139.856 309.408 139.928 308.544 139.928V145.292C308.544 147.632 309.084 148.244 311.532 148.424V148.64H302.28V148.424C304.728 148.244 305.268 147.632 305.268 145.292V133.808C305.268 131.468 304.728 130.856 302.28 130.676V130.46H308.544ZM326.558 146.948C326.486 146.588 326.45 146.192 326.45 145.76V140.612C326.018 140.036 325.334 139.712 324.506 139.712C322.742 139.712 321.986 141.224 321.986 143.924C321.986 146.624 322.742 147.992 324.182 147.992C324.83 147.992 325.802 147.668 326.558 146.948ZM319.898 132.044C321.23 130.928 323.21 130.28 324.974 130.28C328.106 130.28 329.726 132.332 329.726 136.796V146.3C329.726 148.64 330.266 149.252 332.714 149.432V149.648H329.618C327.998 149.648 327.026 148.784 326.63 147.344C325.55 148.748 324.362 149.36 322.958 149.36C320.33 149.36 318.71 147.164 318.71 144.14C318.71 140.648 320.834 138.452 323.462 138.452C324.794 138.452 325.874 138.992 326.45 140V137.984C326.45 133.808 325.91 131.576 324.506 131.576C322.742 131.576 320.438 135.14 320.042 137.84H319.898V132.044ZM334.658 135.968C334.658 134.204 334.37 133.376 333.182 133.484L331.67 133.628V133.448L337.934 131.36V135.536C339.77 132.872 341.282 131.9 343.19 131.9C345.89 131.9 347.15 133.844 347.15 137.84V149.252C347.15 151.592 347.69 152.204 350.138 152.384V152.6H340.886V152.384C343.334 152.204 343.874 151.592 343.874 149.252V139.028C343.874 135.392 343.334 134.276 341.606 134.276C340.166 134.276 339.014 135.068 337.934 136.256V145.652C337.934 147.992 338.474 148.604 340.922 148.784V149H331.67V148.784C334.118 148.604 334.658 147.992 334.658 145.652V135.968ZM123.936 177.304C123.936 181.624 124.98 184.324 126.888 184.324C127.824 184.324 128.58 183.64 129.12 182.812V171.544C128.544 170.716 127.788 170.356 127.032 170.356C125.16 170.356 123.936 172.66 123.936 177.304ZM129.12 164.524C129.12 162.76 128.832 161.932 127.644 162.04L126.132 162.184V162.004L132.396 159.916V183.604C132.396 185.944 132.936 186.556 135.384 186.736V186.952H132.288C130.308 186.952 129.264 185.62 129.12 183.496C128.256 184.9 126.852 185.8 125.268 185.8C121.272 185.8 120.552 180.436 120.552 177.484C120.552 174.28 121.38 168.88 125.592 168.88C126.924 168.88 128.364 169.528 129.12 170.968V164.524ZM144.041 175.828C144.041 171.148 142.925 168.016 141.305 168.016C139.613 168.016 138.353 171.472 138.281 175.828H144.041ZM138.281 176.656C138.389 180.76 139.613 183.352 142.169 183.352C144.293 183.352 146.093 181.588 146.561 179.176H146.777C146.165 182.452 144.581 184.792 141.053 184.792C137.129 184.792 134.825 181.948 134.825 176.44C134.825 170.752 137.309 166.864 141.449 166.864C145.301 166.864 147.425 170.284 147.245 176.656H138.281ZM150.809 170.968C150.809 169.204 150.521 168.376 149.333 168.484L147.821 168.628V168.448L154.085 166.36V170.536C155.921 167.872 157.433 166.9 159.341 166.9C162.041 166.9 163.301 168.844 163.301 172.84V184.252C163.301 186.592 163.841 187.204 166.289 187.384V187.6H157.037V187.384C159.485 187.204 160.025 186.592 160.025 184.252V174.028C160.025 170.392 159.485 169.276 157.757 169.276C156.317 169.276 155.165 170.068 154.085 171.256V180.652C154.085 182.992 154.625 183.604 157.073 183.784V184H147.821V183.784C150.269 183.604 150.809 182.992 150.809 180.652V170.968ZM169.745 174.604C169.745 180.148 170.681 182.596 172.445 182.596C173.129 182.596 174.209 182.2 174.857 181.372V167.692L174.965 167.656H174.857V167.512C174.281 166.828 173.525 166.396 172.697 166.396C170.789 166.396 169.745 168.772 169.745 174.604ZM168.881 192.784C172.985 193 174.857 191.128 174.857 184.792V181.876C174.101 183.208 172.589 184.072 171.041 184.072C168.017 184.072 166.361 180.868 166.361 174.64C166.361 171.544 166.793 164.92 171.185 164.92C172.589 164.92 174.065 165.604 174.893 166.864C175.109 164.956 176.153 163.768 178.025 163.768H181.121V163.984C178.673 164.164 178.133 164.776 178.133 167.116V185.224C177.953 189.436 175.289 193.108 170.501 193.108C169.961 193.108 169.457 193.036 168.881 192.964V192.784ZM188.658 181.948C188.586 181.588 188.55 181.192 188.55 180.76V175.612C188.118 175.036 187.434 174.712 186.606 174.712C184.842 174.712 184.086 176.224 184.086 178.924C184.086 181.624 184.842 182.992 186.282 182.992C186.93 182.992 187.902 182.668 188.658 181.948ZM181.998 167.044C183.33 165.928 185.31 165.28 187.074 165.28C190.206 165.28 191.826 167.332 191.826 171.796V181.3C191.826 183.64 192.366 184.252 194.814 184.432V184.648H191.718C190.098 184.648 189.126 183.784 188.73 182.344C187.65 183.748 186.462 184.36 185.058 184.36C182.43 184.36 180.81 182.164 180.81 179.14C180.81 175.648 182.934 173.452 185.562 173.452C186.894 173.452 187.974 173.992 188.55 175V172.984C188.55 168.808 188.01 166.576 186.606 166.576C184.842 166.576 182.538 170.14 182.142 172.84H181.998V167.044ZM196.758 170.968C196.758 169.204 196.47 168.376 195.282 168.484L193.77 168.628V168.448L200.034 166.36V170.536C201.87 167.872 203.382 166.9 205.29 166.9C207.99 166.9 209.25 168.844 209.25 172.84V184.252C209.25 186.592 209.79 187.204 212.238 187.384V187.6H202.986V187.384C205.434 187.204 205.974 186.592 205.974 184.252V174.028C205.974 170.392 205.434 169.276 203.706 169.276C202.266 169.276 201.114 170.068 200.034 171.256V180.652C200.034 182.992 200.574 183.604 203.022 183.784V184H193.77V183.784C196.218 183.604 196.758 182.992 196.758 180.652V170.968ZM219.821 164.056H229.073V164.272C226.625 164.452 226.085 165.064 226.085 167.404V175.576L230.693 167.62C231.377 166.396 230.945 165.64 229.145 165.496V165.28H236.453V165.496C234.797 165.532 234.041 166.828 232.385 168.988L230.981 170.824L235.085 184.396C235.769 186.664 236.201 187.348 237.677 187.528V187.744H229.901V187.528C232.349 187.348 232.493 186.664 231.809 184.396L228.677 173.884L226.085 177.304V182.02C226.085 184.36 226.625 184.972 229.073 185.152V185.368H219.821V185.152C222.269 184.972 222.809 184.36 222.809 182.02V167.404C222.809 165.064 222.269 164.452 219.821 164.272V164.056ZM236.942 186.448C239.39 186.268 239.93 185.656 239.93 183.316V162.796C239.93 161.032 239.642 160.204 238.454 160.312L236.942 160.456V160.276L243.206 158.188V183.316C243.206 185.656 243.746 186.268 246.194 186.448V186.664H236.942V186.448ZM248.807 162.616C248.807 161.32 249.671 160.456 250.967 160.456C252.263 160.456 253.127 161.32 253.127 162.616C253.127 163.876 252.263 164.74 250.967 164.74C249.671 164.74 248.807 163.876 248.807 162.616ZM249.527 170.968C249.527 169.204 249.239 168.376 248.051 168.484L246.539 168.628V168.448L252.803 166.36V182.02C252.803 184.36 253.343 184.972 255.791 185.152V185.368H246.539V185.152C248.987 184.972 249.527 184.36 249.527 182.02V170.968ZM256.137 164.056H265.389V164.272C262.941 164.452 262.401 165.064 262.401 167.404V175.576L267.009 167.62C267.693 166.396 267.261 165.64 265.461 165.496V165.28H272.769V165.496C271.113 165.532 270.357 166.828 268.701 168.988L267.297 170.824L271.401 184.396C272.085 186.664 272.517 187.348 273.993 187.528V187.744H266.217V187.528C268.665 187.348 268.809 186.664 268.125 184.396L264.993 173.884L262.401 177.304V182.02C262.401 184.36 262.941 184.972 265.389 185.152V185.368H256.137V185.152C258.585 184.972 259.125 184.36 259.125 182.02V167.404C259.125 165.064 258.585 164.452 256.137 164.272V164.056ZM119.719 208.848C123.031 208.812 124.723 207.552 124.723 204.024C124.723 200.244 122.815 197.976 119.719 197.94V208.848ZM119.719 196.86C125.083 196.86 128.107 198.84 128.107 203.124C128.107 206.04 126.703 207.912 124.543 208.956L127.495 219.396C128.143 221.7 128.503 222.384 130.051 222.528V222.744H122.419V222.528C124.867 222.348 124.939 221.7 124.363 219.396L121.879 209.748C121.195 209.856 120.475 209.928 119.719 209.928V221.088C119.719 223.428 120.259 224.04 122.707 224.22V224.436H113.455V224.22C115.903 224.04 116.443 223.428 116.443 221.088V200.208C116.443 197.868 115.903 197.256 113.455 197.076V196.86H119.719ZM129.241 221.448C131.689 221.268 132.229 220.656 132.229 218.316V203.34C132.229 201 131.689 200.388 129.241 200.208V199.992H141.517L141.805 205.212L141.589 205.248C140.977 202.8 139.681 201.468 137.485 201.036L135.505 200.892V210.252C137.845 210.252 138.493 209.928 138.637 207.876H138.853V215.868H138.637C138.457 212.664 137.845 211.08 135.505 211.08V220.764C139.573 220.764 141.301 219.684 142.129 216.408L142.345 216.444L142.057 221.664H129.241V221.448ZM150.577 195.996C148.237 195.996 147.229 200.208 147.229 208.596C147.229 216.84 148.201 221.736 150.397 221.736C151.945 221.736 152.809 219.288 152.809 214.212V213.276C152.809 211.404 151.981 210.792 149.137 210.612V210.396H156.913V210.576C156.013 210.648 155.833 211.08 155.833 212.304V214.212C155.833 219.936 153.997 222.96 150.433 222.96C146.005 222.96 143.773 218.208 143.773 208.704C143.773 199.452 145.897 194.52 150.829 194.52C152.737 194.52 154.105 195.24 155.581 196.536L154.501 206.4L154.285 206.436C153.709 199.524 152.737 195.996 150.577 195.996ZM157.049 199.992H166.301V200.208C163.853 200.388 163.313 201 163.313 203.34V217.164C163.313 219.504 163.853 220.116 166.301 220.296V220.512H157.049V220.296C159.497 220.116 160.037 219.504 160.037 217.164V203.34C160.037 201 159.497 200.388 157.049 200.208V199.992ZM167.574 202.476C167.574 198.48 169.878 196.248 173.514 196.248C175.422 196.248 176.79 196.86 178.374 198.264L177.294 208.128L177.078 208.164C176.538 201.54 175.278 197.724 173.19 197.724C171.93 197.724 170.814 199.128 170.814 201.576C170.814 208.236 178.986 210.144 178.986 217.128C178.986 220.764 176.79 222.744 173.118 222.744C171.066 222.744 169.698 222.132 168.114 220.728L169.194 210.864L169.41 210.828C169.806 218.28 171.354 221.268 173.226 221.268C174.558 221.268 175.53 219.684 175.53 217.452C175.53 211.044 167.574 209.928 167.574 202.476ZM179.338 199.02L179.626 193.8H193.27L193.558 199.02L193.342 199.056C192.406 196.176 190.858 194.772 189.13 194.772H188.086V221.376C188.086 223.716 188.626 224.328 191.074 224.508V224.724H181.822V224.508C184.27 224.328 184.81 223.716 184.81 221.376V194.736H183.694C182.11 194.736 180.49 196.176 179.554 199.056L179.338 199.02ZM190.272 221.448C192.72 221.268 193.26 220.656 193.26 218.316V203.34C193.26 201 192.72 200.388 190.272 200.208V199.992H202.548L202.836 205.212L202.62 205.248C202.008 202.8 200.712 201.468 198.516 201.036L196.536 200.892V210.252C198.876 210.252 199.524 209.928 199.668 207.876H199.884V215.868H199.668C199.488 212.664 198.876 211.08 196.536 211.08V220.764C200.604 220.764 202.332 219.684 203.16 216.408L203.376 216.444L203.088 221.664H190.272V221.448ZM209.649 208.848C212.961 208.812 214.653 207.552 214.653 204.024C214.653 200.244 212.745 197.976 209.649 197.94V208.848ZM209.649 196.86C215.013 196.86 218.037 198.84 218.037 203.124C218.037 206.04 216.633 207.912 214.473 208.956L217.425 219.396C218.073 221.7 218.433 222.384 219.981 222.528V222.744H212.349V222.528C214.797 222.348 214.869 221.7 214.293 219.396L211.809 209.748C211.125 209.856 210.405 209.928 209.649 209.928V221.088C209.649 223.428 210.189 224.04 212.637 224.22V224.436H203.385V224.22C205.833 224.04 206.373 223.428 206.373 221.088V200.208C206.373 197.868 205.833 197.256 203.385 197.076V196.86H209.649ZM241.522 224.004L230.326 203.196L231.946 217.344C232.198 219.684 232.81 220.116 235.078 220.296V220.512H227.194V220.296C228.922 220.08 228.994 219.432 228.994 217.164V200.856C228.994 198.372 228.67 197.796 227.194 197.724V197.508H230.794L240.334 215.076L238.858 203.196C238.57 200.928 237.67 200.136 235.222 199.956V199.74H243.466V199.956C242.062 199.956 241.666 200.748 241.666 203.088V224.004H241.522ZM244.249 210.828C244.249 202.944 246.625 198.516 250.873 198.516C254.797 198.516 256.957 202.26 256.957 209.136C256.957 216.48 254.509 221.952 250.189 221.952C245.869 221.952 244.249 217.344 244.249 210.828ZM247.705 210.18C247.705 216.912 248.893 220.512 250.549 220.512C252.205 220.512 253.501 216.66 253.501 210.072C253.501 203.844 252.349 199.812 250.585 199.812C248.785 199.812 247.705 203.736 247.705 210.18ZM273.107 222.168L268.967 204.312L264.071 225.732H263.927L258.563 198.192C258.167 196.14 257.519 195.456 256.295 195.456V195.24H264.395V195.456C262.271 195.6 261.515 196.14 261.803 197.904L265.079 216.876L267.959 199.992C267.419 198.372 266.303 197.796 265.187 197.796V197.544H273.215V197.796C271.091 197.94 270.875 198.48 271.271 200.244L274.187 213.78L276.527 202.332C277.067 199.704 276.347 199.596 273.899 199.38V199.164H280.559V199.38C279.551 199.452 279.227 199.668 278.867 201.072L273.323 222.168H273.107Z" fill="#3F1536"/>
</svg>
