<svg width="337" height="254" viewBox="0 0 337 254" fill="none" xmlns="http://www.w3.org/2000/svg">
<path d="M69.9086 88.6805C46.016 100.221 35.8056 115.501 16.5714 136.899C-2.66268 158.297 -4.40677 182.7 7.48438 203.199C19.3755 223.698 31.0485 230.546 49.3639 240.87C73.9002 254.699 90.4801 254.147 117.319 253.929C154.673 253.625 176.227 244.001 213.5 240.87C248.57 237.923 269.916 258.927 300.246 236.349C321.204 220.748 337.48 203.43 336.989 172.56C336.416 136.496 311.434 119.893 284.442 108.771C255.389 96.8009 235.02 113.078 204.5 114.5C149.643 117.056 121.224 63.8939 69.9086 88.6805Z" fill="#E17F57"/>
<path d="M37.5517 156.296C39.0997 156.116 39.3517 155.684 39.3517 153.164V140.348C39.3517 137.864 39.0277 137.288 37.5517 137.216V137H41.1517L47.7397 148.376L54.1477 131.96H58.0717V132.176C56.6677 132.176 56.2717 132.968 56.2717 135.308V157.808C56.2717 160.04 56.8117 160.868 57.8557 160.94V161.156H49.3597V160.94C52.1317 160.724 52.9957 160.004 52.9957 157.808V138.116L47.9197 154.64L40.6837 142.148L42.1957 153.344C42.5197 155.684 43.0597 156.116 45.3277 156.296V156.512H37.5517V156.296ZM68.1118 146.828C68.1118 142.148 66.9958 139.016 65.3758 139.016C63.6838 139.016 62.4238 142.472 62.3518 146.828H68.1118ZM62.3518 147.656C62.4598 151.76 63.6838 154.352 66.2398 154.352C68.3638 154.352 70.1638 152.588 70.6318 150.176H70.8478C70.2358 153.452 68.6518 155.792 65.1238 155.792C61.1998 155.792 58.8958 152.948 58.8958 147.44C58.8958 141.752 61.3798 137.864 65.5198 137.864C69.3718 137.864 71.4958 141.284 71.3158 147.656H62.3518ZM74.8789 141.968C74.8789 140.204 74.5909 139.376 73.4029 139.484L71.8909 139.628V139.448L78.1549 137.36V141.536C79.9909 138.872 81.5029 137.9 83.4109 137.9C86.1109 137.9 87.3709 139.844 87.3709 143.84V155.252C87.3709 157.592 87.9109 158.204 90.3589 158.384V158.6H81.1069V158.384C83.5549 158.204 84.0949 157.592 84.0949 155.252V145.028C84.0949 141.392 83.5549 140.276 81.8269 140.276C80.3869 140.276 79.2349 141.068 78.1549 142.256V151.652C78.1549 153.992 78.6949 154.604 81.1429 154.784V155H71.8909V154.784C74.3389 154.604 74.8789 153.992 74.8789 151.652V141.968ZM90.7811 157.484C93.2291 157.304 93.7691 156.692 93.7691 154.352V151.976L91.1411 142.004C90.6731 140.168 90.0971 139.484 88.8731 139.484V139.268H96.9731V139.484C94.8491 139.628 94.0211 140.132 94.3811 141.752L96.1811 149.852L98.7371 138.692C99.3131 136.244 98.5571 136.136 96.1091 135.956V135.74H102.769V135.956C101.761 136.028 101.437 136.208 101.077 137.504L97.0451 151.652V154.352C97.0451 156.692 97.5851 157.304 100.033 157.484V157.7H90.7811V157.484ZM104.639 133.616C104.639 132.32 105.503 131.456 106.799 131.456C108.095 131.456 108.959 132.32 108.959 133.616C108.959 134.876 108.095 135.74 106.799 135.74C105.503 135.74 104.639 134.876 104.639 133.616ZM105.359 141.968C105.359 140.204 105.071 139.376 103.883 139.484L102.371 139.628V139.448L108.635 137.36V153.02C108.635 155.36 109.175 155.972 111.623 156.152V156.368H102.371V156.152C104.819 155.972 105.359 155.36 105.359 153.02V141.968ZM119.513 152.948C119.441 152.588 119.405 152.192 119.405 151.76V146.612C118.973 146.036 118.289 145.712 117.461 145.712C115.697 145.712 114.941 147.224 114.941 149.924C114.941 152.624 115.697 153.992 117.137 153.992C117.785 153.992 118.757 153.668 119.513 152.948ZM112.853 138.044C114.185 136.928 116.165 136.28 117.929 136.28C121.061 136.28 122.681 138.332 122.681 142.796V152.3C122.681 154.64 123.221 155.252 125.669 155.432V155.648H122.573C120.953 155.648 119.981 154.784 119.585 153.344C118.505 154.748 117.317 155.36 115.913 155.36C113.285 155.36 111.665 153.164 111.665 150.14C111.665 146.648 113.789 144.452 116.417 144.452C117.749 144.452 118.829 144.992 119.405 146V143.984C119.405 139.808 118.865 137.576 117.461 137.576C115.697 137.576 113.393 141.14 112.997 143.84H112.853V138.044ZM135.615 144.38C135.615 140.672 134.535 138.476 132.915 138.476C131.979 138.476 131.115 139.196 130.467 140.06V149.132C131.115 149.96 132.159 150.356 132.843 150.356C134.391 150.356 135.615 148.304 135.615 144.38ZM124.203 162.416C126.651 162.236 127.191 161.624 127.191 159.284V140.42C127.191 138.656 126.903 137.828 125.715 137.936L124.203 138.08V137.9L130.467 135.812V139.34C131.403 137.936 132.915 137 134.499 137C138.099 137 138.999 141.572 138.999 144.344C138.999 147.224 138.027 151.832 134.355 151.832C132.987 151.832 131.295 151.148 130.467 149.672V159.284C130.467 161.624 131.007 162.236 133.455 162.416V162.632H124.203V162.416ZM138.934 135.056H148.186V135.272C145.738 135.452 145.198 136.064 145.198 138.404V146.576L149.806 138.62C150.49 137.396 150.058 136.64 148.258 136.496V136.28H155.566V136.496C153.91 136.532 153.154 137.828 151.498 139.988L150.094 141.824L154.198 155.396C154.882 157.664 155.314 158.348 156.79 158.528V158.744H149.014V158.528C151.462 158.348 151.606 157.664 150.922 155.396L147.79 144.884L145.198 148.304V153.02C145.198 155.36 145.738 155.972 148.186 156.152V156.368H138.934V156.152C141.382 155.972 141.922 155.36 141.922 153.02V138.404C141.922 136.064 141.382 135.452 138.934 135.272V135.056ZM163.634 152.948C163.562 152.588 163.526 152.192 163.526 151.76V146.612C163.094 146.036 162.41 145.712 161.582 145.712C159.818 145.712 159.062 147.224 159.062 149.924C159.062 152.624 159.818 153.992 161.258 153.992C161.906 153.992 162.878 153.668 163.634 152.948ZM156.974 138.044C158.306 136.928 160.286 136.28 162.05 136.28C165.182 136.28 166.802 138.332 166.802 142.796V152.3C166.802 154.64 167.342 155.252 169.79 155.432V155.648H166.694C165.074 155.648 164.102 154.784 163.706 153.344C162.626 154.748 161.438 155.36 160.034 155.36C157.406 155.36 155.786 153.164 155.786 150.14C155.786 146.648 157.91 144.452 160.538 144.452C161.87 144.452 162.95 144.992 163.526 146V143.984C163.526 139.808 162.986 137.576 161.582 137.576C159.818 137.576 157.514 141.14 157.118 143.84H156.974V138.044ZM171.734 141.968C171.734 140.204 171.446 139.376 170.258 139.484L168.746 139.628V139.448L175.01 137.36V141.536C176.846 138.872 178.358 137.9 180.266 137.9C182.966 137.9 184.226 139.844 184.226 143.84V155.252C184.226 157.592 184.766 158.204 187.214 158.384V158.6H177.962V158.384C180.41 158.204 180.95 157.592 180.95 155.252V145.028C180.95 141.392 180.41 140.276 178.682 140.276C177.242 140.276 176.09 141.068 175.01 142.256V151.652C175.01 153.992 175.55 154.604 177.998 154.784V155H168.746V154.784C171.194 154.604 171.734 153.992 171.734 151.652V141.968ZM198.721 148.304C198.721 152.624 199.765 155.324 201.673 155.324C202.609 155.324 203.365 154.64 203.905 153.812V142.544C203.329 141.716 202.573 141.356 201.817 141.356C199.945 141.356 198.721 143.66 198.721 148.304ZM203.905 135.524C203.905 133.76 203.617 132.932 202.429 133.04L200.917 133.184V133.004L207.181 130.916V154.604C207.181 156.944 207.721 157.556 210.169 157.736V157.952H207.073C205.093 157.952 204.049 156.62 203.905 154.496C203.041 155.9 201.637 156.8 200.053 156.8C196.057 156.8 195.337 151.436 195.337 148.484C195.337 145.28 196.165 139.88 200.377 139.88C201.709 139.88 203.149 140.528 203.905 141.968V135.524ZM217.705 152.948C217.633 152.588 217.597 152.192 217.597 151.76V146.612C217.165 146.036 216.481 145.712 215.653 145.712C213.889 145.712 213.133 147.224 213.133 149.924C213.133 152.624 213.889 153.992 215.329 153.992C215.977 153.992 216.949 153.668 217.705 152.948ZM211.045 138.044C212.377 136.928 214.357 136.28 216.121 136.28C219.253 136.28 220.873 138.332 220.873 142.796V152.3C220.873 154.64 221.413 155.252 223.861 155.432V155.648H220.765C219.145 155.648 218.173 154.784 217.777 153.344C216.697 154.748 215.509 155.36 214.105 155.36C211.477 155.36 209.857 153.164 209.857 150.14C209.857 146.648 211.981 144.452 214.609 144.452C215.941 144.452 217.021 144.992 217.597 146V143.984C217.597 139.808 217.057 137.576 215.653 137.576C213.889 137.576 211.585 141.14 211.189 143.84H211.045V138.044ZM232.639 156.404C232.279 158.276 230.947 159.428 229.039 159.428C226.195 159.428 225.079 156.872 225.079 152.444V140.78L223.063 141.068V139.196H225.079C226.843 138.836 227.779 137.828 228.247 135.848H228.355V139.232L231.847 139.268V139.88L228.355 140.348V151.076C228.355 156.476 228.859 158.132 230.551 158.132C231.559 158.132 232.171 157.52 232.387 156.404H232.639ZM240.064 152.948C239.992 152.588 239.956 152.192 239.956 151.76V146.612C239.524 146.036 238.84 145.712 238.012 145.712C236.248 145.712 235.492 147.224 235.492 149.924C235.492 152.624 236.248 153.992 237.688 153.992C238.336 153.992 239.308 153.668 240.064 152.948ZM233.404 138.044C234.736 136.928 236.716 136.28 238.48 136.28C241.612 136.28 243.232 138.332 243.232 142.796V152.3C243.232 154.64 243.772 155.252 246.22 155.432V155.648H243.124C241.504 155.648 240.532 154.784 240.136 153.344C239.056 154.748 237.868 155.36 236.464 155.36C233.836 155.36 232.216 153.164 232.216 150.14C232.216 146.648 234.34 144.452 236.968 144.452C238.3 144.452 239.38 144.992 239.956 146V143.984C239.956 139.808 239.416 137.576 238.012 137.576C236.248 137.576 233.944 141.14 233.548 143.84H233.404V138.044ZM257.713 148.304C257.713 152.624 258.757 155.324 260.665 155.324C261.601 155.324 262.357 154.64 262.897 153.812V142.544C262.321 141.716 261.565 141.356 260.809 141.356C258.937 141.356 257.713 143.66 257.713 148.304ZM262.897 135.524C262.897 133.76 262.609 132.932 261.421 133.04L259.909 133.184V133.004L266.173 130.916V154.604C266.173 156.944 266.713 157.556 269.161 157.736V157.952H266.065C264.085 157.952 263.041 156.62 262.897 154.496C262.033 155.9 260.629 156.8 259.045 156.8C255.049 156.8 254.329 151.436 254.329 148.484C254.329 145.28 255.157 139.88 259.369 139.88C260.701 139.88 262.141 140.528 262.897 141.968V135.524ZM270.928 133.616C270.928 132.32 271.792 131.456 273.088 131.456C274.384 131.456 275.248 132.32 275.248 133.616C275.248 134.876 274.384 135.74 273.088 135.74C271.792 135.74 270.928 134.876 270.928 133.616ZM271.648 141.968C271.648 140.204 271.36 139.376 270.172 139.484L268.66 139.628V139.448L274.924 137.36V153.02C274.924 155.36 275.464 155.972 277.912 156.152V156.368H268.66V156.152C271.108 155.972 271.648 155.36 271.648 153.02V141.968ZM283.819 145.028C286.807 145.028 288.499 144.128 288.499 141.392C288.499 139.052 287.275 137.36 283.819 137.324V145.028ZM283.819 136.46C289.399 136.46 291.883 137.792 291.883 140.78C291.883 142.76 290.767 144.128 289.075 144.92L291.667 154.172C292.315 156.476 292.675 157.16 294.223 157.304V157.52H286.447V157.304C288.895 157.124 288.967 156.476 288.391 154.172L286.267 145.748C285.511 145.856 284.683 145.928 283.819 145.928V151.292C283.819 153.632 284.359 154.244 286.807 154.424V154.64H277.555V154.424C280.003 154.244 280.543 153.632 280.543 151.292V139.808C280.543 137.468 280.003 136.856 277.555 136.676V136.46H283.819ZM296.839 133.616C296.839 132.32 297.703 131.456 298.999 131.456C300.295 131.456 301.159 132.32 301.159 133.616C301.159 134.876 300.295 135.74 298.999 135.74C297.703 135.74 296.839 134.876 296.839 133.616ZM297.559 141.968C297.559 140.204 297.271 139.376 296.083 139.484L294.571 139.628V139.448L300.835 137.36V153.02C300.835 155.36 301.375 155.972 303.823 156.152V156.368H294.571V156.152C297.019 155.972 297.559 155.36 297.559 153.02V141.968ZM70.313 183.304C70.313 187.624 71.357 190.324 73.265 190.324C74.201 190.324 74.957 189.64 75.497 188.812V177.544C74.921 176.716 74.165 176.356 73.409 176.356C71.537 176.356 70.313 178.66 70.313 183.304ZM75.497 170.524C75.497 168.76 75.209 167.932 74.021 168.04L72.509 168.184V168.004L78.773 165.916V189.604C78.773 191.944 79.313 192.556 81.761 192.736V192.952H78.665C76.685 192.952 75.641 191.62 75.497 189.496C74.633 190.9 73.229 191.8 71.645 191.8C67.649 191.8 66.929 186.436 66.929 183.484C66.929 180.28 67.757 174.88 71.969 174.88C73.301 174.88 74.741 175.528 75.497 176.968V170.524ZM89.2965 187.948C89.2245 187.588 89.1885 187.192 89.1885 186.76V181.612C88.7565 181.036 88.0725 180.712 87.2445 180.712C85.4805 180.712 84.7245 182.224 84.7245 184.924C84.7245 187.624 85.4805 188.992 86.9205 188.992C87.5685 188.992 88.5405 188.668 89.2965 187.948ZM82.6365 173.044C83.9685 171.928 85.9485 171.28 87.7125 171.28C90.8445 171.28 92.4645 173.332 92.4645 177.796V187.3C92.4645 189.64 93.0045 190.252 95.4525 190.432V190.648H92.3565C90.7365 190.648 89.7645 189.784 89.3685 188.344C88.2885 189.748 87.1005 190.36 85.6965 190.36C83.0685 190.36 81.4485 188.164 81.4485 185.14C81.4485 181.648 83.5725 179.452 86.2005 179.452C87.5325 179.452 88.6125 179.992 89.1885 181V178.984C89.1885 174.808 88.6485 172.576 87.2445 172.576C85.4805 172.576 83.1765 176.14 82.7805 178.84H82.6365V173.044ZM97.3965 176.968C97.3965 175.204 97.1085 174.376 95.9205 174.484L94.4085 174.628V174.448L100.673 172.36V176.536C102.509 173.872 104.021 172.9 105.929 172.9C108.629 172.9 109.889 174.844 109.889 178.84V190.252C109.889 192.592 110.429 193.204 112.877 193.384V193.6H103.625V193.384C106.073 193.204 106.613 192.592 106.613 190.252V180.028C106.613 176.392 106.073 175.276 104.345 175.276C102.905 175.276 101.753 176.068 100.673 177.256V186.652C100.673 188.992 101.213 189.604 103.661 189.784V190H94.4085V189.784C96.8565 189.604 97.3965 188.992 97.3965 186.652V176.968ZM131.871 179.38C131.871 175.672 130.791 173.476 129.171 173.476C128.235 173.476 127.371 174.196 126.723 175.06V184.132C127.371 184.96 128.415 185.356 129.099 185.356C130.647 185.356 131.871 183.304 131.871 179.38ZM120.459 197.416C122.907 197.236 123.447 196.624 123.447 194.284V175.42C123.447 173.656 123.159 172.828 121.971 172.936L120.459 173.08V172.9L126.723 170.812V174.34C127.659 172.936 129.171 172 130.755 172C134.355 172 135.255 176.572 135.255 179.344C135.255 182.224 134.283 186.832 130.611 186.832C129.243 186.832 127.551 186.148 126.723 184.672V194.284C126.723 196.624 127.263 197.236 129.711 197.416V197.632H120.459V197.416ZM146.036 181.828C146.036 177.148 144.92 174.016 143.3 174.016C141.608 174.016 140.348 177.472 140.276 181.828H146.036ZM140.276 182.656C140.384 186.76 141.608 189.352 144.164 189.352C146.288 189.352 148.088 187.588 148.556 185.176H148.772C148.16 188.452 146.576 190.792 143.048 190.792C139.124 190.792 136.82 187.948 136.82 182.44C136.82 176.752 139.304 172.864 143.444 172.864C147.296 172.864 149.42 176.284 149.24 182.656H140.276ZM155.657 180.028C158.645 180.028 160.337 179.128 160.337 176.392C160.337 174.052 159.113 172.36 155.657 172.324V180.028ZM155.657 171.46C161.237 171.46 163.721 172.792 163.721 175.78C163.721 177.76 162.605 179.128 160.913 179.92L163.505 189.172C164.153 191.476 164.513 192.16 166.061 192.304V192.52H158.285V192.304C160.733 192.124 160.805 191.476 160.229 189.172L158.105 180.748C157.349 180.856 156.521 180.928 155.657 180.928V186.292C155.657 188.632 156.197 189.244 158.645 189.424V189.64H149.393V189.424C151.841 189.244 152.381 188.632 152.381 186.292V174.808C152.381 172.468 151.841 171.856 149.393 171.676V171.46H155.657ZM171.683 171.856C170.171 171.856 169.415 173.188 169.415 174.7C169.415 179.668 177.335 181.468 177.335 187.192C177.335 190 175.463 192.052 172.151 192.052C170.351 192.052 168.263 191.44 166.679 190.036L167.615 181.54L167.831 181.504C168.335 187.588 169.703 190.504 172.007 190.504C173.375 190.504 174.131 189.496 174.131 188.02C174.131 183.304 166.175 181 166.175 175.492C166.175 172.54 168.479 170.308 171.935 170.308C173.915 170.308 175.463 171.028 176.975 172.324L176.039 180.82L175.823 180.856C175.319 174.772 173.951 171.856 171.683 171.856ZM179.709 192.484C182.157 192.304 182.697 191.692 182.697 189.352V186.976L180.069 177.004C179.601 175.168 179.025 174.484 177.801 174.484V174.268H185.901V174.484C183.777 174.628 182.949 175.132 183.309 176.752L185.109 184.852L187.665 173.692C188.241 171.244 187.485 171.136 185.037 170.956V170.74H191.697V170.956C190.689 171.028 190.365 171.208 190.005 172.504L185.973 186.652V189.352C185.973 191.692 186.513 192.304 188.961 192.484V192.7H179.709V192.484ZM198.562 187.948C198.49 187.588 198.454 187.192 198.454 186.76V181.612C198.022 181.036 197.338 180.712 196.51 180.712C194.746 180.712 193.99 182.224 193.99 184.924C193.99 187.624 194.746 188.992 196.186 188.992C196.834 188.992 197.806 188.668 198.562 187.948ZM191.902 173.044C193.234 171.928 195.214 171.28 196.978 171.28C200.11 171.28 201.73 173.332 201.73 177.796V187.3C201.73 189.64 202.27 190.252 204.718 190.432V190.648H201.622C200.002 190.648 199.03 189.784 198.634 188.344C197.554 189.748 196.366 190.36 194.962 190.36C192.334 190.36 190.714 188.164 190.714 185.14C190.714 181.648 192.838 179.452 195.466 179.452C196.798 179.452 197.878 179.992 198.454 181V178.984C198.454 174.808 197.914 172.576 196.51 172.576C194.746 172.576 192.442 176.14 192.046 178.84H191.902V173.044ZM210.641 180.028C213.629 180.028 215.321 179.128 215.321 176.392C215.321 174.052 214.097 172.36 210.641 172.324V180.028ZM210.641 171.46C216.221 171.46 218.705 172.792 218.705 175.78C218.705 177.76 217.589 179.128 215.897 179.92L218.489 189.172C219.137 191.476 219.497 192.16 221.045 192.304V192.52H213.269V192.304C215.717 192.124 215.789 191.476 215.213 189.172L213.089 180.748C212.333 180.856 211.505 180.928 210.641 180.928V186.292C210.641 188.632 211.181 189.244 213.629 189.424V189.64H204.377V189.424C206.825 189.244 207.365 188.632 207.365 186.292V174.808C207.365 172.468 206.825 171.856 204.377 171.676V171.46H210.641ZM228.656 187.948C228.584 187.588 228.548 187.192 228.548 186.76V181.612C228.116 181.036 227.432 180.712 226.604 180.712C224.84 180.712 224.084 182.224 224.084 184.924C224.084 187.624 224.84 188.992 226.28 188.992C226.928 188.992 227.9 188.668 228.656 187.948ZM221.996 173.044C223.328 171.928 225.308 171.28 227.072 171.28C230.204 171.28 231.824 173.332 231.824 177.796V187.3C231.824 189.64 232.364 190.252 234.812 190.432V190.648H231.716C230.096 190.648 229.124 189.784 228.728 188.344C227.648 189.748 226.46 190.36 225.056 190.36C222.428 190.36 220.808 188.164 220.808 185.14C220.808 181.648 222.932 179.452 225.56 179.452C226.892 179.452 227.972 179.992 228.548 181V178.984C228.548 174.808 228.008 172.576 226.604 172.576C224.84 172.576 222.536 176.14 222.14 178.84H221.996V173.044ZM243.59 191.404C243.23 193.276 241.898 194.428 239.99 194.428C237.146 194.428 236.03 191.872 236.03 187.444V175.78L234.014 176.068V174.196H236.03C237.794 173.836 238.73 172.828 239.198 170.848H239.306V174.232L242.798 174.268V174.88L239.306 175.348V186.076C239.306 191.476 239.81 193.132 241.502 193.132C242.51 193.132 243.122 192.52 243.338 191.404H243.59ZM251.015 187.948C250.943 187.588 250.907 187.192 250.907 186.76V181.612C250.475 181.036 249.791 180.712 248.963 180.712C247.199 180.712 246.443 182.224 246.443 184.924C246.443 187.624 247.199 188.992 248.639 188.992C249.287 188.992 250.259 188.668 251.015 187.948ZM244.355 173.044C245.687 171.928 247.667 171.28 249.431 171.28C252.563 171.28 254.183 173.332 254.183 177.796V187.3C254.183 189.64 254.723 190.252 257.171 190.432V190.648H254.075C252.455 190.648 251.483 189.784 251.087 188.344C250.007 189.748 248.819 190.36 247.415 190.36C244.787 190.36 243.167 188.164 243.167 185.14C243.167 181.648 245.291 179.452 247.919 179.452C249.251 179.452 250.331 179.992 250.907 181V178.984C250.907 174.808 250.367 172.576 248.963 172.576C247.199 172.576 244.895 176.14 244.499 178.84H244.355V173.044ZM259.115 176.968C259.115 175.204 258.827 174.376 257.639 174.484L256.127 174.628V174.448L262.391 172.36V176.536C264.227 173.872 265.739 172.9 267.647 172.9C270.347 172.9 271.607 174.844 271.607 178.84V190.252C271.607 192.592 272.147 193.204 274.595 193.384V193.6H265.343V193.384C267.791 193.204 268.331 192.592 268.331 190.252V180.028C268.331 176.392 267.791 175.276 266.063 175.276C264.623 175.276 263.471 176.068 262.391 177.256V186.652C262.391 188.992 262.931 189.604 265.379 189.784V190H256.127V189.784C258.575 189.604 259.115 188.992 259.115 186.652V176.968ZM101.619 214.38C101.619 210.672 100.539 208.476 98.9193 208.476C97.9833 208.476 97.1193 209.196 96.4713 210.06V219.132C97.1193 219.96 98.1633 220.356 98.8473 220.356C100.395 220.356 101.619 218.304 101.619 214.38ZM90.2073 232.416C92.6553 232.236 93.1953 231.624 93.1953 229.284V210.42C93.1953 208.656 92.9073 207.828 91.7193 207.936L90.2073 208.08V207.9L96.4713 205.812V209.34C97.4073 207.936 98.9193 207 100.503 207C104.103 207 105.003 211.572 105.003 214.344C105.003 217.224 104.031 221.832 100.359 221.832C98.9913 221.832 97.2993 221.148 96.4713 219.672V229.284C96.4713 231.624 97.0113 232.236 99.4593 232.416V232.632H90.2073V232.416ZM115.784 216.828C115.784 212.148 114.668 209.016 113.048 209.016C111.356 209.016 110.096 212.472 110.024 216.828H115.784ZM110.024 217.656C110.132 221.76 111.356 224.352 113.912 224.352C116.036 224.352 117.836 222.588 118.304 220.176H118.52C117.908 223.452 116.324 225.792 112.796 225.792C108.872 225.792 106.568 222.948 106.568 217.44C106.568 211.752 109.052 207.864 113.192 207.864C117.044 207.864 119.168 211.284 118.988 217.656H110.024ZM122.551 211.968C122.551 210.204 122.263 209.376 121.075 209.484L119.563 209.628V209.448L125.827 207.36V211.536C127.663 208.872 129.175 207.9 131.083 207.9C133.783 207.9 135.043 209.844 135.043 213.84V225.252C135.043 227.592 135.583 228.204 138.031 228.384V228.6H128.779V228.384C131.227 228.204 131.767 227.592 131.767 225.252V215.028C131.767 211.392 131.227 210.276 129.499 210.276C128.059 210.276 126.907 211.068 125.827 212.256V221.652C125.827 223.992 126.367 224.604 128.815 224.784V225H119.563V224.784C122.011 224.604 122.551 223.992 122.551 221.652V211.968ZM141.417 218.304C141.417 222.624 142.461 225.324 144.369 225.324C145.305 225.324 146.061 224.64 146.601 223.812V212.544C146.025 211.716 145.269 211.356 144.513 211.356C142.641 211.356 141.417 213.66 141.417 218.304ZM146.601 205.524C146.601 203.76 146.312 202.932 145.125 203.04L143.613 203.184V203.004L149.877 200.916V224.604C149.877 226.944 150.417 227.556 152.865 227.736V227.952H149.769C147.789 227.952 146.745 226.62 146.601 224.496C145.737 225.9 144.333 226.8 142.749 226.8C138.753 226.8 138.033 221.436 138.033 218.484C138.033 215.28 138.861 209.88 143.073 209.88C144.405 209.88 145.845 210.528 146.601 211.968V205.524ZM160.4 222.948C160.328 222.588 160.292 222.192 160.292 221.76V216.612C159.86 216.036 159.176 215.712 158.348 215.712C156.584 215.712 155.828 217.224 155.828 219.924C155.828 222.624 156.584 223.992 158.024 223.992C158.672 223.992 159.644 223.668 160.4 222.948ZM153.74 208.044C155.072 206.928 157.052 206.28 158.816 206.28C161.948 206.28 163.568 208.332 163.568 212.796V222.3C163.568 224.64 164.108 225.252 166.556 225.432V225.648H163.46C161.84 225.648 160.868 224.784 160.472 223.344C159.392 224.748 158.204 225.36 156.8 225.36C154.172 225.36 152.552 223.164 152.552 220.14C152.552 216.648 154.676 214.452 157.304 214.452C158.636 214.452 159.716 214.992 160.292 216V213.984C160.292 209.808 159.752 207.576 158.348 207.576C156.584 207.576 154.28 211.14 153.884 213.84H153.74V208.044ZM169.906 209.916C169.906 205.992 172.282 203.436 175.954 203.436H178.834L179.194 209.376L178.978 209.412C178.258 206.64 176.926 204.948 175.414 204.948C174.046 204.948 173.182 206.352 173.182 209.916V211.896L177.862 212.004V212.292L173.182 212.364V221.76C173.182 224.1 173.722 224.712 176.17 224.892V225.108H166.918V224.892C169.366 224.712 169.906 224.1 169.906 221.76V212.4L167.998 212.436V211.752L169.906 211.788V209.916ZM189.678 226.404C189.318 228.276 187.986 229.428 186.078 229.428C183.234 229.428 182.118 226.872 182.118 222.444V210.78L180.102 211.068V209.196H182.118C183.882 208.836 184.818 207.828 185.286 205.848H185.394V209.232L188.886 209.268V209.88L185.394 210.348V221.076C185.394 226.476 185.898 228.132 187.59 228.132C188.598 228.132 189.21 227.52 189.426 226.404H189.678ZM197.103 222.948C197.031 222.588 196.995 222.192 196.995 221.76V216.612C196.563 216.036 195.879 215.712 195.051 215.712C193.287 215.712 192.531 217.224 192.531 219.924C192.531 222.624 193.287 223.992 194.727 223.992C195.375 223.992 196.347 223.668 197.103 222.948ZM190.443 208.044C191.775 206.928 193.755 206.28 195.519 206.28C198.651 206.28 200.271 208.332 200.271 212.796V222.3C200.271 224.64 200.811 225.252 203.259 225.432V225.648H200.163C198.543 225.648 197.571 224.784 197.175 223.344C196.095 224.748 194.907 225.36 193.503 225.36C190.875 225.36 189.255 223.164 189.255 220.14C189.255 216.648 191.379 214.452 194.007 214.452C195.339 214.452 196.419 214.992 196.995 216V213.984C196.995 209.808 196.455 207.576 195.051 207.576C193.287 207.576 190.983 211.14 190.587 213.84H190.443V208.044ZM209.182 215.028C212.17 215.028 213.862 214.128 213.862 211.392C213.862 209.052 212.638 207.36 209.182 207.324V215.028ZM209.182 206.46C214.762 206.46 217.246 207.792 217.246 210.78C217.246 212.76 216.13 214.128 214.438 214.92L217.03 224.172C217.678 226.476 218.038 227.16 219.586 227.304V227.52H211.81V227.304C214.258 227.124 214.33 226.476 213.754 224.172L211.63 215.748C210.874 215.856 210.046 215.928 209.182 215.928V221.292C209.182 223.632 209.722 224.244 212.17 224.424V224.64H202.918V224.424C205.366 224.244 205.906 223.632 205.906 221.292V209.808C205.906 207.468 205.366 206.856 202.918 206.676V206.46H209.182ZM227.197 222.948C227.125 222.588 227.089 222.192 227.089 221.76V216.612C226.657 216.036 225.973 215.712 225.145 215.712C223.381 215.712 222.625 217.224 222.625 219.924C222.625 222.624 223.381 223.992 224.821 223.992C225.469 223.992 226.441 223.668 227.197 222.948ZM220.537 208.044C221.869 206.928 223.849 206.28 225.613 206.28C228.745 206.28 230.365 208.332 230.365 212.796V222.3C230.365 224.64 230.905 225.252 233.353 225.432V225.648H230.257C228.637 225.648 227.665 224.784 227.269 223.344C226.189 224.748 225.001 225.36 223.597 225.36C220.969 225.36 219.349 223.164 219.349 220.14C219.349 216.648 221.473 214.452 224.101 214.452C225.433 214.452 226.513 214.992 227.089 216V213.984C227.089 209.808 226.549 207.576 225.145 207.576C223.381 207.576 221.077 211.14 220.681 213.84H220.537V208.044ZM235.297 211.968C235.297 210.204 235.009 209.376 233.821 209.484L232.309 209.628V209.448L238.573 207.36V211.536C240.409 208.872 241.921 207.9 243.829 207.9C246.529 207.9 247.789 209.844 247.789 213.84V225.252C247.789 227.592 248.329 228.204 250.777 228.384V228.6H241.525V228.384C243.973 228.204 244.513 227.592 244.513 225.252V215.028C244.513 211.392 243.973 210.276 242.245 210.276C240.805 210.276 239.653 211.068 238.573 212.256V221.652C238.573 223.992 239.113 224.604 241.561 224.784V225H232.309V224.784C234.757 224.604 235.297 223.992 235.297 221.652V211.968Z" fill="#3F1536"/>
<path d="M206.791 0.220372C187.191 -0.367731 172 -0.800555 158.291 13.2204C145.634 26.1657 141.647 39.9862 145.291 57.7204C151.27 86.8155 182.588 93.7336 212.291 93.7204C232.979 93.7112 249.807 92.7164 262.291 76.2204C273.795 61.0208 275.277 45.2507 267.791 27.7204C257.529 3.68896 232.91 1.00408 206.791 0.220372Z" fill="#743C75"/>
<path d="M201.782 31.2125C201.782 30.8925 201.782 30.5085 201.718 30.1245C200.694 30.1885 199.798 30.2525 198.966 30.2525C198.262 30.3165 197.686 30.1885 197.494 29.4205C197.302 28.8445 197.75 28.2045 198.454 27.8845C202.23 26.4125 205.494 23.9805 208.566 21.4205C209.014 21.0365 209.398 20.5885 209.846 20.2685C210.678 19.6285 211.638 20.0125 211.638 21.0365C211.638 22.2525 211.51 23.4685 211.318 24.6205C210.55 28.6525 210.166 32.7485 210.038 36.9085C209.91 41.0045 209.654 45.0365 209.654 49.1325C209.654 51.8845 209.782 54.6365 210.038 57.3245C210.23 58.9885 211.062 60.4605 212.086 61.7405C212.534 62.3805 213.238 62.7645 213.878 63.2765C214.07 63.4045 214.39 63.4685 214.582 63.5965C215.158 63.9165 215.542 64.3005 215.478 64.9405C215.35 65.6445 214.902 65.9005 214.262 65.9645C212.79 66.2205 211.382 66.4125 209.91 66.7325C206.966 67.3085 203.958 67.9485 200.95 68.5885C200.374 68.7165 199.798 69.0365 199.222 69.1005C198.838 69.1645 198.262 69.0365 198.006 68.7805C197.622 68.3965 197.814 67.8845 198.134 67.4365C198.198 67.3725 198.262 67.2445 198.39 67.1805C200.694 65.3245 201.078 62.7005 201.526 60.0765C201.718 58.9245 201.782 57.7725 201.782 56.6205C201.782 48.1725 201.782 39.6605 201.782 31.2125Z" fill="white"/>
</svg>
