<svg width="411" height="406" viewBox="0 0 411 406" fill="none" xmlns="http://www.w3.org/2000/svg">
<path style="mix-blend-mode:screen" opacity="0.42" d="M130.302 348.596C130.302 348.596 165.126 341.272 152.164 304.106C139.203 266.94 36.3827 261.86 39.6172 228.074C42.8517 194.287 102.773 188.096 182.928 193.152C263.082 198.232 327.867 189.774 310.868 166.123C293.869 142.472 170.792 139.66 141.634 144.15C112.477 148.662 147.301 150.907 147.301 150.907C147.301 150.907 59.0479 164.776 33.9509 142.354C8.85386 119.932 77.6759 115.419 123.006 119.932C168.361 124.445 259.848 118.798 259.848 103.038C259.848 87.2789 236.356 65.3056 204.79 74.8746C173.2 84.4436 135.968 82.7661 132.734 68.1172C129.499 53.4684 150.535 47.8451 182.125 53.4684C213.715 59.0916 242.046 27.0059 218.555 20.8156C218.555 20.8156 238.599 22.564 241.621 36.7167C244.667 50.8694 200.942 61.5489 174.216 56.9888C147.49 52.4288 151.149 71.9921 217.941 66.6996C284.732 61.4307 316.629 71.9685 324.822 81.9155C333.014 91.839 315.094 115.702 271.393 120.995C227.668 126.264 259.258 129.855 314.197 130.918C369.16 131.982 417.725 159.862 406.818 174.629C395.886 189.419 306.312 210.944 311.789 242.415C311.789 242.415 286.291 213.472 244.384 218.977C202.476 224.459 176.364 241.777 188.523 255.292C200.658 268.807 268.985 231.216 288.722 261.411C288.722 261.411 268.678 247.259 254.418 262.475C240.157 277.691 235.294 280.431 207.954 275.989C180.638 271.548 173.649 294.159 206.75 299.428C239.85 304.697 250.475 313.58 235.294 318.637C220.113 323.716 170.627 323.291 172.445 351.786C174.263 380.304 128.791 383.99 128.791 383.99C128.791 383.99 116.703 379.926 146.451 358.378C176.199 336.83 130.349 348.549 130.349 348.549L130.302 348.596Z" fill="url(#paint0_linear_416_723)"/>
<path style="mix-blend-mode:screen" opacity="0.71" d="M205.427 405.301C318.882 405.301 410.855 314.571 410.855 202.651C410.855 90.7298 318.882 0 205.427 0C91.973 0 0 90.7298 0 202.651C0 314.571 91.973 405.301 205.427 405.301Z" fill="url(#paint1_radial_416_723)"/>
<g clip-path="url(#clip0_416_723)">
<path d="M77.3903 109.56C77.3903 109.56 102.55 113.84 102.71 114.52C102.87 115.2 105.95 134.57 107.98 137.65C110.02 140.73 103.86 143.81 103.86 143.81L76.3003 115.72L77.4003 109.56H77.3903Z" fill="#FFC59F"/>
<path d="M109.02 117.84C109.02 117.84 110.96 115.87 111.35 115.82C111.74 115.77 114.33 116.37 114.33 116.37C114.33 116.37 115.58 127.15 116.76 129.16C117.93 131.17 112.69 131.46 112.69 131.46L109.03 117.84H109.02Z" fill="#FFC59F"/>
<path d="M116.75 118.74C116.75 118.74 118.69 116.8 119.24 116.76C119.79 116.72 155.97 119.79 179.36 120.21C202.75 120.63 234.39 119.17 234.91 120.11C235.43 121.05 237.42 144.33 242.53 151.85C247.65 159.37 234.8 163.96 234.8 163.96L116.75 118.75V118.74Z" fill="#FFC59F"/>
<path d="M245.77 123.11C245.77 123.11 248.53 118.95 249.39 119.03C250.25 119.11 295.04 116.6 320.57 113.31C346.1 110.02 360.04 106.26 360.04 106.26L359.1 116.44L245.77 123.1V123.11Z" fill="#FFC59F"/>
<path d="M143.34 282.13C143.34 282.13 145.35 281.21 145.86 279.49C146.37 277.77 146.21 269.98 146.21 269.98L139.16 270.61L143.33 282.14L143.34 282.13Z" fill="#FFC59F"/>
<path d="M269.77 282.93C269.77 282.93 271.71 282.15 272.57 280.51C273.43 278.87 274.53 267.2 274.53 267.2L268.46 265.52L269.77 282.94V282.93Z" fill="#FFC59F"/>
<path d="M289.83 285.18C289.83 285.18 293.24 285.12 294.88 282.23C296.52 279.33 301.93 263.2 301.93 263.2L294.96 260.22L289.83 285.18Z" fill="#FFC59F"/>
<path d="M143.34 282.13C143.34 282.13 145.35 281.21 145.86 279.49C146.37 277.77 146.21 269.98 146.21 269.98L139.16 270.61L143.33 282.14L143.34 282.13Z" fill="#DB6345"/>
<path d="M269.77 282.93C269.77 282.93 271.71 282.15 272.57 280.51C273.43 278.87 274.53 267.2 274.53 267.2L268.46 265.52L269.77 282.94V282.93Z" fill="#DB6345"/>
<path d="M289.83 285.18C289.83 285.18 293.24 285.12 294.88 282.23C296.52 279.33 301.93 263.2 301.93 263.2L294.96 260.22L289.83 285.18Z" fill="#DB6345"/>
<path d="M371.15 108.3L366.77 162.18L358.76 295.2C358.76 295.2 338.08 291.56 309.36 287.69C305.35 287.14 301.18 286.6 296.88 286.05C297.34 281.26 297.72 275.27 297.76 271.08C297.81 267.64 297.62 265.41 297.06 266.01C296.61 266.5 295.74 268.5 294.69 271.24C293.22 275.11 291.38 280.47 289.81 285.17C285.01 284.6 280.08 284.02 275.08 283.48C274.5 279.68 273.7 274.93 273 272.27C272.69 271.08 272.39 270.31 272.14 270.24C271.86 270.16 271.56 271 271.25 272.34C270.68 274.91 270.1 279.34 269.74 282.91C248 280.65 225.12 278.89 204.59 278.59C186.11 278.33 167.15 279.55 149.48 281.43C148.04 278.8 146.3 275.79 145.21 274.47C144.66 273.79 144.28 273.55 144.19 274C144.16 274.11 144.13 274.26 144.11 274.43C143.88 275.86 143.56 279.09 143.31 282.12C129.33 283.76 116.31 285.77 105.2 287.71C83.11 291.57 68.46 295.19 68.46 295.19L56.98 109.56C56.98 109.56 72.29 113.01 98.69 116.53C99.26 116.61 99.84 116.68 100.42 116.76C101.12 120.99 102.89 131.27 104.18 136.53C104.81 139.13 105.33 140.51 105.53 139.31C105.66 138.56 105.87 137.28 106.13 135.7C106.95 130.67 108.26 122.51 109.01 117.84C109.93 117.95 110.86 118.07 111.8 118.18C112.04 122.4 112.63 131.85 113.88 130.02C114.94 128.46 116.11 122.43 116.74 118.74C141.07 121.42 171.74 123.71 206.7 123.96C214.78 124.02 222.85 123.91 230.82 123.69C231.02 124.9 231.23 126.25 231.48 127.68C233.61 140.43 237.32 160.47 239.07 156.22C240.7 152.28 243.31 137.79 244.92 128.17C245.25 126.24 245.53 124.51 245.76 123.1C278.55 121.51 308.9 118.01 331.53 114.8C355.77 111.37 371.15 108.29 371.15 108.29V108.3Z" fill="url(#paint2_linear_416_723)"/>
<path style="mix-blend-mode:multiply" opacity="0.5" d="M105.23 287.72C83.14 291.58 68.49 295.2 68.49 295.2L56.98 109.56C56.98 109.56 72.29 113.01 98.69 116.53C92.58 138.05 87.19 170.23 90.6 211.99C93.9 252.39 99.94 275.09 105.22 287.72H105.23Z" fill="url(#paint3_linear_416_723)"/>
<path style="mix-blend-mode:multiply" opacity="0.5" d="M371.15 108.3L366.77 162.18L358.76 295.2C358.76 295.2 338.08 291.56 309.36 287.69C316.92 269.48 327.82 236.8 332 192.36C335.09 159.55 333.8 133.42 331.53 114.82C355.77 111.39 371.15 108.31 371.15 108.31V108.3Z" fill="url(#paint4_linear_416_723)"/>
<path d="M39.1304 108.3C39.1304 108.3 39.3904 104.85 57.2504 104.02C75.1004 103.18 77.9804 107.36 77.9804 107.36L66.6504 117.17L47.0204 116.7L39.1404 108.29L39.1304 108.3Z" fill="#872316"/>
<path d="M72.6001 349.21C72.6001 349.21 67.2801 349.86 66.7501 348.16C66.2201 346.45 68.3401 325.28 68.3401 325.28L72.6001 349.22V349.21Z" fill="#FC6212"/>
<path d="M75.61 317.53C75.66 317.61 75.71 317.7 75.76 317.76C75.81 317.84 75.84 317.91 75.86 317.97C75.91 318.05 75.94 318.12 75.96 318.18C75.99 318.27 76.01 318.33 76.04 318.42V318.44C77.6 323.02 79.3 340.57 79.12 346.81C79.1 346.86 79.1 346.88 79.11 346.92C79.03 349.37 69.78 349.83 67.49 348.49C67.19 348.31 67 348.08 66.98 347.84C66.74 344.25 68.49 319.69 69.09 318.18C69.81 316.37 74.58 316.41 75.6 317.53H75.61Z" fill="url(#paint5_linear_416_723)"/>
<g style="mix-blend-mode:multiply" opacity="0.8">
<path d="M71.8401 315.74C73.9701 315.64 75.0701 316.73 75.6101 317.53C75.6601 317.61 75.7101 317.7 75.7601 317.76C75.8101 317.84 75.8401 317.91 75.8601 317.97C75.9101 318.05 75.9401 318.12 75.9601 318.18C76.0101 318.33 76.0401 318.42 76.0401 318.42V318.44C77.6001 323.02 79.3001 340.57 79.1201 346.81C79.1201 346.81 76.3601 338.06 75.7101 329.99C75.0401 321.9 75.7701 318.68 74.8401 317.88C73.9101 317.08 69.9801 316.95 69.1001 318.18C68.7001 318.73 68.4201 315.87 71.8401 315.73V315.74Z" fill="#D42F55"/>
</g>
<g style="mix-blend-mode:soft-light" opacity="0.5">
<path d="M73.7099 347.64C73.5899 348.08 68.9099 348.97 68.3899 347.66C67.8699 346.35 68.8199 319.24 69.9899 318.49C71.1599 317.74 74.6499 344.03 73.6999 347.64H73.7099Z" fill="white"/>
</g>
<path d="M71.78 326.78C77.49 326.38 83.04 325.41 87.52 324.37C90.73 323.63 93.4 322.86 95.27 322.2C97.03 321.6 98.08 321.09 98.17 320.84C98.58 319.71 98.38 312.77 98.21 308.23C98.12 305.9 98.03 304.22 98.03 304.22L92.89 304.39L90.1 304.47L45.71 305.89C45.71 305.89 47.53 321.89 47.97 322.68C48.25 323.19 56.98 326.57 67.21 326.87H67.23C68.73 326.92 70.22 326.89 71.76 326.79L71.78 326.78Z" fill="url(#paint6_linear_416_723)"/>
<g style="mix-blend-mode:multiply" opacity="0.8">
<path d="M87.5199 324.36C93.7199 322.93 97.9899 321.35 98.1699 320.83C98.7799 319.14 98.0299 304.21 98.0299 304.21L93.6599 306.09C88.3899 307.19 80.8999 309.54 80.4299 312.53C79.0799 321.1 80.9899 323.72 81.6399 324.42C82.3799 325.22 84.4999 324.8 87.5099 324.36H87.5199Z" fill="#D42F55"/>
</g>
<path d="M74.6099 310.25C89.0499 308.67 98.5599 306.45 98.0299 304.22C97.6299 302.44 94.4999 299.75 87.4599 298.17C83.4799 297.27 78.2599 296.74 71.5399 296.94C70.5499 296.96 69.5199 297.01 68.4699 297.08C47.6599 298.36 46.0799 304.07 45.7199 305.88C45.3299 307.67 60.1699 311.82 74.6099 310.24V310.25Z" fill="#FF7A00"/>
<g style="mix-blend-mode:soft-light" opacity="0.5">
<path d="M96.3798 304.14C97.9198 302.82 88.2598 296.43 72.9798 298.28C57.6998 300.12 56.6898 306.97 57.8498 307.81C59.0098 308.65 87.7098 311.59 96.3798 304.14Z" fill="white"/>
</g>
<path d="M61.6001 312.27C61.2001 311.54 54.7901 309.12 53.8601 310.71C52.9301 312.3 53.5301 323.69 54.4301 324.24C55.3201 324.79 60.9901 325.88 61.1701 324.95C61.3501 324.02 62.0301 313.04 61.6101 312.27H61.6001Z" fill="#FF6500"/>
<path d="M47.1799 307.15C46.9999 306.92 52.0899 308.38 57.4899 309.21C63.5499 310.15 69.9699 310.5 69.3099 310.57C59.8199 311.71 47.9299 308.1 47.1699 307.14L47.1799 307.15Z" fill="#FFA457"/>
<g style="mix-blend-mode:multiply" opacity="0.5">
<path d="M95.2801 322.2C97.0401 321.6 98.0901 321.09 98.1801 320.84C98.5901 319.71 98.3901 312.77 98.2201 308.23C92.8901 308.17 84.5401 308.88 83.8401 313.9C83.1701 318.72 89.6301 321.24 95.2801 322.2Z" fill="#D42F55"/>
</g>
<path d="M84.5401 301.78C84.3001 308.72 57.3001 308.48 57.1901 302.2C57.1701 301.05 57.1401 299.82 57.1201 298.53C57.1201 297.62 57.1001 296.67 57.0901 295.68C56.8201 274.33 56.7501 237 54.5101 205.07C52.7101 179.39 47.7001 130.66 45.3601 108.51C44.6901 102.1 44.2301 97.9101 44.1401 97.1301C44.1401 97.0401 44.1401 97 44.1401 97L69.5701 95.3C69.5701 95.3 69.5701 95.35 69.5701 95.43C69.5301 97.3 69.1501 118.49 69.9101 148.96C70.3001 165.12 70.5701 183.95 72.3301 203.77C73.5801 217.88 75.0901 231.47 76.6201 243.82C79.7301 269.05 82.9001 289.07 84.0801 297.53C84.4101 299.86 84.5901 301.32 84.5701 301.77L84.5401 301.78Z" fill="url(#paint7_linear_416_723)"/>
<g style="mix-blend-mode:multiply" opacity="0.8">
<path d="M44.1304 97.1299L69.5404 95.4299C69.5104 97.2999 69.1204 118.49 69.8804 148.95C67.4204 131.52 63.9204 113.01 60.8504 112.9C56.6204 112.74 49.8704 110.49 45.3604 108.5C44.6904 102.1 44.2404 97.9099 44.1404 97.1199L44.1304 97.1299Z" fill="#D42F55"/>
</g>
<path d="M51.7903 50.14C51.7903 50.14 46.4303 50.2 46.1403 51.96C45.8503 53.72 50.7603 74.43 50.7603 74.43L51.7903 50.14Z" fill="#FC6212"/>
<path d="M56.06 104.13C61.77 103.73 67.32 102.76 71.8 101.72C75.01 100.98 77.68 100.21 79.55 99.5501C81.31 98.9501 82.36 98.4401 82.45 98.1901C82.86 97.0601 82.66 90.1201 82.49 85.5801C82.4 83.2501 82.31 81.5701 82.31 81.5701L77.17 81.7401L74.38 81.8201L30 83.2301C30 83.2301 31.82 99.2301 32.26 100.02C32.54 100.53 41.27 103.91 51.5 104.21H51.52C53.02 104.26 54.51 104.23 56.05 104.13H56.06Z" fill="url(#paint8_linear_416_723)"/>
<g style="mix-blend-mode:multiply" opacity="0.8">
<path d="M71.8104 101.71C78.0104 100.28 82.2804 98.7001 82.4604 98.1801C83.0704 96.4901 82.3204 81.5601 82.3204 81.5601L77.9504 83.4401C72.6804 84.5401 65.1904 86.8901 64.7204 89.8801C63.3704 98.4501 65.2804 101.07 65.9304 101.77C66.6704 102.57 68.7904 102.15 71.8004 101.71H71.8104Z" fill="#D42F55"/>
</g>
<path d="M58.9002 87.59C73.3402 86.01 82.8502 83.79 82.3202 81.56C81.9202 79.78 78.7902 77.09 71.7502 75.51C67.7702 74.61 62.5502 74.08 55.8302 74.28C54.8402 74.3 53.8102 74.35 52.7602 74.42C31.9502 75.71 30.3702 81.42 30.0002 83.23C29.6102 85.02 44.4502 89.17 58.8902 87.59H58.9002Z" fill="#FF7A00"/>
<g style="mix-blend-mode:multiply" opacity="0.5">
<path d="M71.7501 75.51C67.7701 74.61 62.5501 74.08 55.8301 74.28C56.2101 77.36 57.0201 80.84 58.6001 81.16C60.4101 81.55 67.1201 78.26 71.7501 75.51Z" fill="#D42F55"/>
</g>
<g style="mix-blend-mode:soft-light" opacity="0.5">
<path d="M80.6703 81.49C82.2103 80.17 72.5504 73.78 57.2703 75.63C41.9903 77.47 40.9803 84.32 42.1403 85.16C43.3003 86 72.0003 88.94 80.6703 81.49Z" fill="white"/>
</g>
<path d="M58.9704 81.14C59.0104 81.05 59.0504 80.96 59.0904 80.89C59.1304 80.8 59.1504 80.73 59.1604 80.67C59.2004 80.58 59.2204 80.51 59.2304 80.45C59.2504 80.36 59.2604 80.29 59.2804 80.2V80.18C60.2204 75.43 59.5704 57.81 58.5604 51.65C58.5403 51.61 58.5304 51.59 58.5304 51.54C58.1304 49.13 48.8904 49.9 46.8004 51.54C46.5304 51.76 46.3704 52.01 46.3904 52.25C46.6304 55.84 51.6304 79.95 52.4204 81.37C53.3704 83.07 58.1004 82.4 58.9604 81.15L58.9704 81.14Z" fill="url(#paint9_linear_416_723)"/>
<g style="mix-blend-mode:multiply" opacity="0.8">
<path d="M52.59 53.67C55.25 53.29 57.77 52.58 58.57 51.64C58.55 51.6 58.54 51.58 58.54 51.53C58.14 49.12 48.9 49.89 46.81 51.53C46.69 51.71 46.66 51.89 46.69 52.07C46.9 52.89 48.86 54.19 52.58 53.68L52.59 53.67Z" fill="#D42F55"/>
</g>
<g style="mix-blend-mode:multiply" opacity="0.8">
<path d="M55.4702 83.42C57.5902 83.23 58.5402 82 58.9702 81.14C59.0102 81.05 59.0502 80.96 59.0902 80.89C59.1302 80.8 59.1502 80.73 59.1602 80.67C59.2002 80.58 59.2202 80.51 59.2302 80.45C59.2602 80.29 59.2802 80.2 59.2802 80.2V80.18C60.2202 75.43 59.5702 57.81 58.5602 51.65C58.5602 51.65 56.9902 60.69 57.4102 68.78C57.8202 76.89 58.9702 79.98 58.1502 80.9C57.3302 81.81 53.4602 82.47 52.4202 81.37C51.9502 80.87 52.0502 83.75 55.4602 83.43L55.4702 83.42Z" fill="#D42F55"/>
</g>
<g style="mix-blend-mode:multiply" opacity="0.8">
<path d="M57.9901 51.2901C58.0701 50.7601 51.5501 48.9401 49.2901 51.0101C47.0301 53.0801 57.7401 53.0301 57.9901 51.2901Z" fill="#D42F55"/>
</g>
<g style="mix-blend-mode:soft-light" opacity="0.5">
<path d="M53.6503 54.79C53.4803 54.37 48.7203 54.11 48.3803 55.48C48.0403 56.85 52.0303 80.35 53.2903 80.94C54.5503 81.53 55.0803 58.24 53.6503 54.79Z" fill="white"/>
</g>
<path d="M47.5803 53C47.5803 53 47.9403 53.82 49.7903 53.93C51.2003 54.02 51.8003 53.76 51.8003 53.76C51.8003 53.76 51.5503 53.75 49.7203 53.61C49.0203 53.56 47.7803 52.83 47.5703 53H47.5803Z" fill="#FFA457"/>
<path d="M45.8901 89.62C45.4901 88.89 39.0801 86.47 38.1501 88.06C37.2201 89.65 37.8201 101.04 38.7201 101.59C39.6101 102.14 45.2801 103.23 45.4601 102.3C45.6401 101.37 46.3201 90.39 45.9001 89.62H45.8901Z" fill="#FF6500"/>
<path d="M31.4602 84.5001C31.2802 84.2701 36.3702 85.7301 41.7702 86.5601C47.8302 87.5001 54.2502 87.8501 53.5902 87.9301C44.1002 89.0701 32.2102 85.4601 31.4502 84.5001H31.4602Z" fill="#FFA457"/>
<g style="mix-blend-mode:multiply" opacity="0.5">
<path d="M79.5603 99.5401C81.3203 98.9401 82.3703 98.4301 82.4603 98.1801C82.8703 97.0501 82.6703 90.1101 82.5003 85.5701C77.1703 85.5101 68.8203 86.2201 68.1203 91.2401C67.4503 96.0601 73.9103 98.5801 79.5603 99.5401Z" fill="#D42F55"/>
</g>
<g style="mix-blend-mode:multiply" opacity="0.8">
<path d="M76.3 242.16C76.27 241.87 76.25 241.69 76.25 241.6C76.28 241.75 76.33 242.17 76.39 242.84C76.34 242.59 76.31 242.36 76.3 242.16Z" fill="#D42F55"/>
</g>
<g style="mix-blend-mode:multiply" opacity="0.8">
<path d="M89.6401 298.72C89.6401 298.72 89.5801 298.75 89.5601 298.75C84.3901 299.38 85.9501 300.94 86.0401 301.57C86.1201 302.2 86.2701 306.9 70.7701 307.68C55.2601 308.46 55.3401 302.51 54.0101 300.94C53.4601 300.28 51.9501 300.4 50.3701 300.78C51.9901 299.95 54.1701 299.17 57.1301 298.52C57.1301 297.61 57.1101 296.66 57.1001 295.67C57.4901 296.68 58.0001 297.53 58.6001 298.22C61.8601 301.98 67.9001 301.02 74.4201 297.81C74.8001 297.62 75.1301 297.32 75.4401 296.91C80.8401 289.79 77.2201 250.59 76.3901 242.86C76.4501 243.15 76.5001 243.47 76.5901 243.83C79.7001 269.06 82.8701 289.08 84.0501 297.54C85.2801 297.72 86.4201 297.93 87.4701 298.17C88.2401 298.34 88.9601 298.53 89.6401 298.72Z" fill="#D42F55"/>
</g>
<path d="M83.6804 257.42C81.2904 236.15 78.7604 209.55 78.6004 190.99C78.4104 169.44 78.2204 143.45 78.1004 126.23C78.0204 115.42 77.9804 108.06 77.9704 107.41V107.36C77.9704 107.36 70.6104 111.44 57.7704 112.06C56.8004 112.11 54.8404 113.7 54.7504 114.7C54.2804 120.12 53.4304 128.71 52.6504 130.11C51.7804 131.64 50.3904 120.35 49.7104 114.28C49.5904 113.18 49.4804 112.25 49.4204 111.6C43.1204 110.59 39.3004 108.4 39.1504 108.31V108.39C39.1504 108.46 39.1504 108.52 39.1504 108.59L51.0404 293.12C51.0404 293.12 49.2404 299.53 72.9904 298.29C88.0004 297.51 88.0004 292.18 88.0004 292.18C88.0004 292.18 85.9004 277.08 83.6904 257.43L83.6804 257.42Z" fill="url(#paint10_linear_416_723)"/>
<path d="M52.4904 111.51C52.4604 111.25 42.8104 109.85 42.9904 107.96C43.0504 107.3 43.8704 106.7 45.1204 106.23C45.0504 105.62 45.0004 105.04 44.9304 104.48C42.6404 105.27 39.5704 106.59 39.1804 108.05C39.1604 108.13 39.1404 108.22 39.1304 108.3V108.38C39.1304 108.45 39.1304 108.51 39.1304 108.58C39.3704 110.42 42.9504 113.21 49.6804 114.27C49.6004 113.59 50.6104 129.79 52.4304 130.25C52.5304 130.28 52.5004 111.76 52.4704 111.51H52.4904ZM69.4404 103.12C69.4404 103.76 69.4404 104.43 69.4404 105.13C71.9604 105.99 73.1404 106.77 73.1204 107.18C73.0704 108.01 68.0804 110.62 58.2404 111.2C57.1104 111.27 54.8404 113.7 54.7504 114.7C55.8604 114.72 57.0104 114.7 58.2404 114.62C71.2504 113.86 77.7804 108.58 77.9704 107.4C77.9704 107.38 77.9704 107.37 77.9704 107.36C78.0104 106.65 74.2604 104.2 69.4404 103.11V103.12Z" fill="#FFC59F"/>
<path d="M384.99 108.3C384.99 108.3 384.73 104.85 366.87 104.02C349.01 103.19 346.14 107.36 346.14 107.36L357.47 117.17L377.1 116.7L384.98 108.29L384.99 108.3Z" fill="#872316"/>
<path d="M351.52 349.21C351.52 349.21 356.84 349.86 357.37 348.16C357.9 346.45 355.78 325.28 355.78 325.28L351.52 349.22V349.21Z" fill="#FC6212"/>
<path d="M348.51 317.53C348.46 317.61 348.41 317.7 348.36 317.76C348.31 317.84 348.28 317.91 348.26 317.97C348.21 318.05 348.18 318.12 348.16 318.18C348.13 318.27 348.11 318.33 348.08 318.42V318.44C346.52 323.02 344.82 340.57 345 346.81C345.02 346.86 345.02 346.88 345.01 346.92C345.09 349.37 354.34 349.83 356.63 348.49C356.93 348.31 357.12 348.08 357.14 347.84C357.38 344.25 355.63 319.69 355.03 318.18C354.31 316.37 349.54 316.41 348.52 317.53H348.51Z" fill="url(#paint11_linear_416_723)"/>
<g style="mix-blend-mode:multiply" opacity="0.8">
<path d="M352.28 315.74C350.15 315.64 349.05 316.73 348.51 317.53C348.46 317.61 348.41 317.7 348.36 317.76C348.31 317.84 348.28 317.91 348.26 317.97C348.21 318.05 348.18 318.12 348.16 318.18C348.11 318.33 348.08 318.42 348.08 318.42V318.44C346.52 323.02 344.82 340.57 345 346.81C345 346.81 347.76 338.06 348.41 329.99C349.08 321.9 348.35 318.68 349.28 317.88C350.21 317.08 354.14 316.95 355.02 318.18C355.42 318.73 355.7 315.87 352.28 315.73V315.74Z" fill="#D42F55"/>
</g>
<g style="mix-blend-mode:soft-light" opacity="0.5">
<path d="M350.41 347.64C350.53 348.08 355.21 348.97 355.73 347.66C356.25 346.35 355.3 319.24 354.13 318.49C352.96 317.74 349.46 344.03 350.42 347.64H350.41Z" fill="white"/>
</g>
<path d="M352.34 326.78C346.63 326.38 341.08 325.41 336.6 324.37C333.39 323.63 330.72 322.86 328.85 322.2C327.09 321.6 326.04 321.09 325.95 320.84C325.54 319.71 325.74 312.77 325.91 308.23C326 305.9 326.09 304.22 326.09 304.22L331.23 304.39L334.02 304.47L378.41 305.89C378.41 305.89 376.59 321.89 376.15 322.68C375.87 323.19 367.14 326.57 356.91 326.87H356.89C355.39 326.92 353.9 326.89 352.36 326.79L352.34 326.78Z" fill="url(#paint12_linear_416_723)"/>
<g style="mix-blend-mode:multiply" opacity="0.8">
<path d="M336.59 324.36C330.39 322.93 326.12 321.35 325.94 320.83C325.33 319.14 326.08 304.21 326.08 304.21L330.45 306.09C335.72 307.19 343.21 309.54 343.68 312.53C345.03 321.1 343.12 323.72 342.47 324.42C341.73 325.22 339.61 324.8 336.6 324.36H336.59Z" fill="#D42F55"/>
</g>
<path d="M349.5 310.25C335.06 308.67 325.55 306.45 326.08 304.22C326.48 302.44 329.61 299.75 336.65 298.17C340.63 297.27 345.85 296.74 352.57 296.94C353.56 296.96 354.59 297.01 355.64 297.08C376.45 298.36 378.03 304.07 378.39 305.88C378.78 307.67 363.94 311.82 349.5 310.24V310.25Z" fill="#FF7A00"/>
<g style="mix-blend-mode:soft-light" opacity="0.5">
<path d="M327.73 304.14C326.19 302.82 335.85 296.43 351.13 298.28C366.41 300.12 367.42 306.97 366.26 307.81C365.1 308.65 336.4 311.59 327.73 304.14Z" fill="white"/>
</g>
<path d="M362.51 312.27C362.91 311.54 369.32 309.12 370.25 310.71C371.18 312.3 370.58 323.69 369.68 324.24C368.79 324.79 363.12 325.88 362.94 324.95C362.76 324.02 362.09 313.04 362.5 312.27H362.51Z" fill="#FF6500"/>
<path d="M376.94 307.15C377.12 306.92 372.03 308.38 366.63 309.21C360.57 310.15 354.15 310.5 354.81 310.57C364.3 311.71 376.19 308.1 376.95 307.14L376.94 307.15Z" fill="#FFA457"/>
<g style="mix-blend-mode:multiply" opacity="0.5">
<path d="M328.84 322.2C327.08 321.6 326.03 321.09 325.94 320.84C325.53 319.71 325.73 312.77 325.9 308.23C331.23 308.17 339.58 308.88 340.28 313.9C340.95 318.72 334.49 321.24 328.84 322.2Z" fill="#D42F55"/>
</g>
<path d="M339.58 301.78C339.82 308.72 366.82 308.48 366.93 302.2C366.95 301.05 366.98 299.82 367 298.53C367 297.62 367.02 296.67 367.03 295.68C367.3 274.33 367.37 237 369.61 205.07C371.41 179.39 376.42 130.66 378.76 108.51C379.43 102.1 379.89 97.9101 379.98 97.1301C379.98 97.0401 379.98 97 379.98 97L354.55 95.3C354.55 95.3 354.55 95.35 354.55 95.43C354.59 97.3 354.97 118.49 354.21 148.96C353.82 165.12 353.55 183.95 351.79 203.77C350.54 217.88 349.03 231.47 347.5 243.82C344.39 269.05 341.22 289.07 340.04 297.53C339.71 299.86 339.53 301.32 339.55 301.77L339.58 301.78Z" fill="url(#paint13_linear_416_723)"/>
<g style="mix-blend-mode:multiply" opacity="0.8">
<path d="M379.98 97.1299L354.57 95.4299C354.6 97.2999 354.99 118.49 354.23 148.95C356.69 131.52 360.19 113.01 363.26 112.9C367.49 112.74 374.24 110.49 378.75 108.5C379.42 102.1 379.87 97.9099 379.97 97.1199L379.98 97.1299Z" fill="#D42F55"/>
</g>
<path d="M372.33 50.14C372.33 50.14 377.69 50.2 377.98 51.96C378.27 53.72 373.36 74.43 373.36 74.43L372.32 50.14H372.33Z" fill="#FC6212"/>
<path d="M368.05 104.13C362.34 103.73 356.79 102.76 352.31 101.72C349.1 100.98 346.43 100.21 344.56 99.5501C342.8 98.9501 341.75 98.4401 341.66 98.1901C341.25 97.0601 341.45 90.1201 341.62 85.5801C341.71 83.2501 341.8 81.5701 341.8 81.5701L346.94 81.7401L349.73 81.8201L394.12 83.2401C394.12 83.2401 392.3 99.2401 391.86 100.03C391.58 100.54 382.85 103.92 372.62 104.22H372.6C371.1 104.27 369.61 104.24 368.07 104.14L368.05 104.13Z" fill="url(#paint14_linear_416_723)"/>
<g style="mix-blend-mode:multiply" opacity="0.8">
<path d="M352.31 101.71C346.11 100.28 341.84 98.7001 341.66 98.1801C341.05 96.4901 341.8 81.5601 341.8 81.5601L346.17 83.4401C351.44 84.5401 358.93 86.8901 359.4 89.8801C360.75 98.4501 358.84 101.07 358.19 101.77C357.45 102.57 355.33 102.15 352.32 101.71H352.31Z" fill="#D42F55"/>
</g>
<path d="M365.22 87.59C350.78 86.01 341.27 83.79 341.8 81.56C342.2 79.78 345.33 77.09 352.37 75.51C356.35 74.61 361.57 74.08 368.29 74.28C369.28 74.3 370.31 74.35 371.36 74.42C392.17 75.7 393.75 81.41 394.11 83.22C394.5 85.01 379.66 89.16 365.22 87.58V87.59Z" fill="#FF7A00"/>
<g style="mix-blend-mode:multiply" opacity="0.5">
<path d="M352.36 75.51C356.34 74.61 361.56 74.08 368.28 74.28C367.9 77.36 367.09 80.84 365.51 81.16C363.7 81.55 356.99 78.26 352.36 75.51Z" fill="#D42F55"/>
</g>
<g style="mix-blend-mode:soft-light" opacity="0.5">
<path d="M343.45 81.49C341.91 80.17 351.57 73.78 366.85 75.63C382.13 77.47 383.14 84.32 381.98 85.16C380.82 86 352.12 88.94 343.45 81.49Z" fill="white"/>
</g>
<path d="M365.14 81.14C365.1 81.05 365.06 80.96 365.02 80.89C364.98 80.8 364.96 80.73 364.95 80.67C364.91 80.58 364.89 80.51 364.88 80.45C364.86 80.36 364.85 80.29 364.83 80.2V80.18C363.89 75.43 364.54 57.81 365.55 51.65C365.57 51.61 365.58 51.59 365.58 51.54C365.98 49.13 375.22 49.9 377.31 51.54C377.58 51.76 377.74 52.01 377.72 52.25C377.48 55.84 372.48 79.95 371.69 81.37C370.74 83.07 366.01 82.4 365.15 81.15L365.14 81.14Z" fill="url(#paint15_linear_416_723)"/>
<g style="mix-blend-mode:multiply" opacity="0.8">
<path d="M371.53 53.67C368.87 53.29 366.35 52.58 365.55 51.64C365.57 51.6 365.58 51.58 365.58 51.53C365.98 49.12 375.22 49.89 377.31 51.53C377.43 51.71 377.46 51.89 377.43 52.07C377.22 52.89 375.26 54.19 371.54 53.68L371.53 53.67Z" fill="#D42F55"/>
</g>
<g style="mix-blend-mode:multiply" opacity="0.8">
<path d="M368.64 83.42C366.52 83.23 365.57 82 365.14 81.14C365.1 81.05 365.06 80.96 365.02 80.89C364.98 80.8 364.96 80.73 364.95 80.67C364.91 80.58 364.89 80.51 364.88 80.45C364.85 80.29 364.83 80.2 364.83 80.2V80.18C363.89 75.43 364.54 57.81 365.55 51.65C365.55 51.65 367.12 60.69 366.69 68.78C366.28 76.89 365.13 79.98 365.95 80.9C366.77 81.81 370.64 82.47 371.68 81.37C372.15 80.87 372.05 83.75 368.64 83.43V83.42Z" fill="#D42F55"/>
</g>
<g style="mix-blend-mode:multiply" opacity="0.8">
<path d="M366.12 51.2901C366.04 50.7601 372.56 48.9401 374.82 51.0101C377.08 53.0801 366.37 53.0301 366.12 51.2901Z" fill="#D42F55"/>
</g>
<g style="mix-blend-mode:soft-light" opacity="0.5">
<path d="M370.47 54.79C370.64 54.37 375.4 54.11 375.74 55.48C376.08 56.85 372.09 80.35 370.83 80.94C369.57 81.53 369.04 58.24 370.47 54.79Z" fill="white"/>
</g>
<path d="M376.54 53C376.54 53 376.18 53.82 374.33 53.93C372.92 54.02 372.32 53.76 372.32 53.76C372.32 53.76 372.57 53.75 374.4 53.61C375.1 53.56 376.34 52.83 376.55 53H376.54Z" fill="#FFA457"/>
<path d="M378.23 89.62C378.63 88.89 385.04 86.47 385.97 88.06C386.9 89.65 386.3 101.04 385.4 101.59C384.51 102.14 378.84 103.23 378.66 102.3C378.48 101.37 377.81 90.39 378.22 89.62H378.23Z" fill="#FF6500"/>
<path d="M392.66 84.5001C392.84 84.2701 387.75 85.7301 382.35 86.5601C376.29 87.5001 369.87 87.8501 370.53 87.9301C380.02 89.0701 391.91 85.4601 392.67 84.5001H392.66Z" fill="#FFA457"/>
<g style="mix-blend-mode:multiply" opacity="0.5">
<path d="M344.56 99.5401C342.8 98.9401 341.75 98.4301 341.66 98.1801C341.25 97.0501 341.45 90.1101 341.62 85.5701C346.95 85.5101 355.3 86.2201 356 91.2401C356.67 96.0601 350.21 98.5801 344.56 99.5401Z" fill="#D42F55"/>
</g>
<g style="mix-blend-mode:multiply" opacity="0.8">
<path d="M347.82 242.16C347.85 241.87 347.87 241.69 347.87 241.6C347.84 241.75 347.79 242.17 347.73 242.84C347.78 242.59 347.81 242.36 347.82 242.16Z" fill="#D42F55"/>
</g>
<g style="mix-blend-mode:multiply" opacity="0.8">
<path d="M334.47 298.72C334.47 298.72 334.53 298.75 334.55 298.75C339.72 299.38 338.16 300.94 338.07 301.57C337.99 302.2 337.83 306.9 353.34 307.68C368.85 308.46 368.77 302.51 370.1 300.94C370.65 300.28 372.16 300.4 373.74 300.78C372.12 299.95 369.94 299.17 366.98 298.52C366.98 297.61 367 296.66 367.01 295.67C366.62 296.68 366.11 297.53 365.51 298.22C362.25 301.98 356.21 301.02 349.69 297.81C349.31 297.62 348.98 297.32 348.67 296.91C343.27 289.79 346.89 250.59 347.72 242.86C347.66 243.15 347.61 243.47 347.52 243.83C344.41 269.06 341.24 289.08 340.06 297.54C338.83 297.72 337.69 297.93 336.64 298.17C335.87 298.34 335.15 298.53 334.47 298.72Z" fill="#D42F55"/>
</g>
<path d="M348.07 298.04C348.07 298.04 350.17 297.61 350.64 296.4C351.11 295.2 352.08 286.98 352.08 286.98L349.63 285.7L348.07 298.04Z" fill="#FFC59F"/>
<path d="M357.28 298.44C357.28 298.44 361.21 296.36 361.6 294.87C361.99 293.38 367 270.24 367 270.24L364.42 265.38L357.28 298.43V298.44Z" fill="#FFC59F"/>
<path d="M348.07 298.04C348.07 298.04 350.17 297.61 350.64 296.4C351.11 295.2 352.08 286.98 352.08 286.98L349.63 285.7L348.07 298.04Z" fill="#DB6345"/>
<path d="M357.28 298.44C357.28 298.44 361.21 296.36 361.6 294.87C361.99 293.38 367 270.24 367 270.24L364.42 265.38L357.28 298.43V298.44Z" fill="#DB6345"/>
<path d="M384.99 108.31C384.84 108.39 381.02 110.58 374.72 111.6C374.65 112.25 367.33 112.11 366.37 112.06C353.52 111.44 346.17 107.36 346.17 107.36V107.41C346.17 108.34 346.07 122.63 345.93 141.12V141.14C345.82 156.62 345.69 175.04 345.54 191C345.36 211.67 342.24 242.33 339.65 264.48C337.76 280.58 336.14 292.18 336.14 292.18C336.14 292.18 336.14 296.76 348.07 298.04C348.99 294.41 351.03 286.66 351.42 287.27C351.81 287.86 352.48 294.95 352.78 298.36C354.41 298.43 355.9 298.45 357.28 298.44C357.8 296.3 358.75 292.46 359.82 288.29C362.1 279.4 364.96 268.98 365.51 270.29C366.06 271.61 366.31 281.31 366.42 289.07C366.47 292.72 366.49 295.94 366.5 297.67C373.96 296.2 373.09 293.1 373.09 293.1L384.98 108.57C384.98 108.5 384.98 108.44 384.98 108.37V108.29L384.99 108.31Z" fill="url(#paint16_linear_416_723)"/>
<path d="M384.93 108.06C384.54 106.59 381.47 105.28 379.18 104.49C379.11 105.04 379.06 105.63 378.99 106.24C380.24 106.71 381.06 107.31 381.12 107.97C381.28 109.65 373.66 111.14 371.95 111.4C358.78 113.34 351.04 108.01 351 107.19C350.98 106.79 352.17 106 354.68 105.14C354.68 104.44 354.68 103.77 354.68 103.13C349.86 104.22 346.11 106.66 346.15 107.38C346.15 107.38 346.15 107.4 346.15 107.42C346.35 108.59 352.85 114.7 365.88 114.64C378.12 114.58 384.72 110.44 384.97 108.6C384.97 108.53 384.97 108.47 384.97 108.4V108.32C384.97 108.24 384.94 108.15 384.92 108.07L384.93 108.06Z" fill="#FFC59F"/>
<g style="mix-blend-mode:multiply" opacity="0.2">
<path d="M308.51 270.25C307.53 270.45 303.7 270.75 297.77 271.09C297.82 267.65 297.63 265.42 297.07 266.02C296.62 266.51 295.75 268.51 294.7 271.25C288.85 271.58 281.46 271.93 273.02 272.27C272.71 271.08 272.41 270.31 272.16 270.24C271.88 270.16 271.58 271 271.27 272.34C234.33 273.85 178.7 275.37 145.23 274.46C144.68 273.78 144.3 273.54 144.21 273.99C144.18 274.1 144.15 274.25 144.13 274.42C129.46 274 119.26 273.09 117.11 271.48C110.84 266.78 85.1603 159.02 99.8903 139.61C100.74 138.49 102.19 137.46 104.17 136.51C104.8 139.11 105.32 140.49 105.52 139.29C105.65 138.54 105.86 137.26 106.12 135.68C125.51 128.1 181.23 126.17 231.47 127.66C233.6 140.41 237.31 160.45 239.06 156.2C240.69 152.26 243.3 137.77 244.91 128.15C285.32 129.87 319.4 133.79 323.53 138.67C333.87 150.89 316.01 268.66 308.49 270.23L308.51 270.25Z" fill="#EF7A98"/>
</g>
<g style="mix-blend-mode:multiply" opacity="0.2">
<path d="M83.6802 257.42C79.4202 244.03 74.9202 226.03 73.6902 206.97C71.7502 177.01 76.0402 141.1 78.1002 126.23C78.2202 143.45 78.4102 169.45 78.6002 190.99C78.7602 209.55 81.3002 236.15 83.6802 257.42Z" fill="#EF7A98"/>
</g>
<g style="mix-blend-mode:multiply" opacity="0.2">
<path d="M349.33 207.39C347.44 233.15 343.19 252.24 339.63 264.47C342.22 242.32 345.34 211.67 345.52 190.99C345.66 175.02 345.79 156.61 345.91 141.13C348.66 156.97 351.29 180.59 349.33 207.39Z" fill="#EF7A98"/>
</g>
<g style="mix-blend-mode:screen" opacity="0.3">
<path d="M54.4704 291.13C52.9704 288.75 42.5704 123.44 45.4904 122.19C46.9204 121.58 57.0704 154.58 61.1504 164.58C64.2804 172.25 77.7804 287.63 76.6004 289.87C74.3004 294.26 58.0104 296.76 54.4604 291.12L54.4704 291.13Z" fill="#FF8390"/>
</g>
<g style="mix-blend-mode:screen" opacity="0.3">
<path d="M369.9 288.72C369.51 288.58 368.14 288.89 366.42 289.08C366.31 281.32 366.06 271.62 365.51 270.3C364.96 268.98 362.1 279.41 359.82 288.3C358.3 287.47 357.11 285.99 356.75 283.41C355.94 277.72 352.45 123.36 352.05 121.36C351.21 117.19 374.6 117.6 379.61 119.27C384.63 120.94 371.48 289.31 369.9 288.73V288.72Z" fill="#FF8390"/>
</g>
<path d="M49.7002 114.28C49.7002 114.28 51.9402 111.15 52.4902 111.52C53.0402 111.89 52.7202 130.1 52.4502 130.26C52.1802 130.42 50.8002 129.76 49.7002 114.28Z" fill="#DB6345"/>
<path d="M100.42 116.76C100.42 116.76 102.08 114.26 102.71 114.52C103.34 114.78 106.57 133.24 106.55 133.58C106.53 133.92 105.95 139.88 105.38 139.74C104.39 139.51 102.29 128.98 100.43 116.77L100.42 116.76Z" fill="#DB6345"/>
<path d="M111.81 118.18C111.81 118.18 114.28 115.98 114.33 116.37C114.83 120.32 115.71 124.79 115.64 124.85C115.56 124.92 114.36 130.68 113.54 130.24C112.39 129.63 111.78 119 111.82 118.17L111.81 118.18Z" fill="#DB6345"/>
<path d="M230.83 123.69C230.83 123.69 234.59 119.37 234.9 120.1C235.21 120.83 236.51 135.28 241.22 149.39C241.45 150.09 239.45 157.53 238.56 157.06C237.67 156.59 232.5 138.35 230.83 123.69Z" fill="#DB6345"/>
<g style="mix-blend-mode:screen" opacity="0.3">
<path d="M50.5601 217.78C44.6901 216.74 54.9501 295.78 60.5801 290.76C66.2201 285.75 76.0901 222.32 50.5601 217.78Z" fill="#FF8390"/>
</g>
<g style="mix-blend-mode:multiply" opacity="0.3">
<path d="M44.6101 112.98C44.5401 113.03 48.8201 114.41 49.1701 115.43C49.5201 116.45 50.1301 131.6 52.3201 130.84C54.5101 130.08 54.4101 118.19 54.4101 118.19C54.4101 118.19 53.1401 130.6 52.4401 130.25C51.1201 129.6 49.8901 114.41 49.6901 114.27C49.4901 114.13 44.6801 112.92 44.6001 112.98H44.6101Z" fill="#C60055"/>
</g>
<path d="M55.1802 114.52C54.6402 114.45 56.1402 111.6 58.2302 111.21C60.3202 110.82 68.7002 109.67 69.3302 110.74C69.9602 111.81 60.2502 115.2 55.1802 114.52Z" fill="#FFDEC8"/>
<path d="M363.25 111.91C364.33 111.7 368.61 112.58 373.7 111.44C378.79 110.3 379.61 108.82 380.9 108.74C382.19 108.66 384.35 109.01 383.88 109.84C383.41 110.66 378.48 113.6 372.49 114.23C366.5 114.86 357.34 113.06 363.25 111.92V111.91Z" fill="#FFDEC8"/>
<path d="M117.47 118.74C117.13 118.68 118.53 116.78 119.23 116.76C119.93 116.74 136.75 117.82 137.14 118.44C137.53 119.07 136.63 120.24 136.2 120.24C135.77 120.24 119.09 119.03 117.46 118.73L117.47 118.74Z" fill="#FFDEC8"/>
<path d="M247.14 122.69C246.6 122.59 247.61 119.37 249.38 119.04C251.15 118.71 275.48 117.21 275.56 118.44C275.64 119.67 270.6 121.02 267.62 121.39C264.64 121.76 252.38 123.66 247.13 122.7L247.14 122.69Z" fill="#FFDEC8"/>
<g style="mix-blend-mode:multiply" opacity="0.3">
<path d="M87.8703 114.92C87.8703 114.92 97.7803 117.39 99.0303 119.74C100.28 122.09 104.04 149.5 106.23 144.09C108.42 138.69 109.01 117.84 109.01 117.84C109.01 117.84 105.96 138.77 105.55 138.74C103.44 138.61 101.77 117.81 100.41 116.76C99.0504 115.71 87.8604 114.92 87.8604 114.92H87.8703Z" fill="#C60055"/>
</g>
<g style="mix-blend-mode:multiply" opacity="0.3">
<path d="M109.35 117.86C109.39 117.92 110.64 118.27 110.97 119.7C111.3 121.13 111.34 135.44 113.53 133.91C115.72 132.38 116.74 118.74 116.74 118.74C116.74 118.74 114.73 130.19 113.73 129.68C112.73 129.17 112.29 118.3 111.81 118.17C111.33 118.04 109.35 117.85 109.35 117.85V117.86Z" fill="#C60055"/>
</g>
<g style="mix-blend-mode:multiply" opacity="0.3">
<path d="M212.03 123.97C212.4 124.07 227.43 124.86 228.58 126.95C229.73 129.04 232.23 165.84 239.44 160.57C246.64 155.3 245.77 123.12 245.77 123.12C245.77 123.12 241.74 155.46 238.82 155.25C235.9 155.04 232.19 124.11 230.83 123.71C229.47 123.31 212.04 123.98 212.04 123.98L212.03 123.97Z" fill="#C60055"/>
</g>
<g style="mix-blend-mode:multiply" opacity="0.3">
<path d="M122.8 284.85C122.8 284.85 141.52 282.34 142.14 280.93C142.77 279.52 142.84 272.47 144.22 272.82C145.59 273.17 149.51 281.43 149.51 281.43C149.51 281.43 144.94 272.77 144.39 274.06C143.85 275.35 143.8 282.02 143.34 282.12C142.88 282.22 122.8 284.84 122.8 284.84V284.85Z" fill="#C60055"/>
</g>
<g style="mix-blend-mode:multiply" opacity="0.3">
<path d="M252.13 281.16C252.13 281.16 267.17 282.62 268.05 281.06C268.93 279.5 269.72 266.7 272.07 267.64C274.42 268.58 275.11 283.49 275.11 283.49C275.11 283.49 273.12 270.38 272.18 270.82C270.47 271.63 270.71 282.92 269.77 282.93C268.83 282.94 252.13 281.16 252.13 281.16Z" fill="#C60055"/>
</g>
<g style="mix-blend-mode:multiply" opacity="0.3">
<path d="M280.63 284.07C280.63 284.07 287.44 283.99 288.19 282.9C288.93 281.8 295.16 260.19 297.7 263.09C300.25 265.99 296.89 286.06 296.89 286.06C296.89 286.06 298.14 266.65 297.23 267C296.32 267.35 290.34 284.85 289.83 285.18C289.32 285.52 280.63 284.07 280.63 284.07Z" fill="#C60055"/>
</g>
<g style="mix-blend-mode:multiply" opacity="0.2">
<path d="M119 217.78C119.18 219.61 116.43 228.13 113.41 234.54C111.27 239.11 109 242.61 107.57 241.9C106.13 241.18 104.4 239.63 102.79 237.58C99.2803 233.14 96.3103 226.39 98.0303 220.92C100.53 212.93 118.7 214.65 119.01 217.78H119Z" fill="#C60055"/>
</g>
<g style="mix-blend-mode:multiply" opacity="0.2">
<path d="M124.1 211.53C123.7 212.7 122.93 213.88 121.74 214.96C120.98 215.65 119.64 214.72 118.48 213.17C116.41 210.41 114.91 205.65 118.22 204.55C122.27 203.2 125.55 207.29 124.1 211.53Z" fill="#C60055"/>
</g>
<g style="mix-blend-mode:multiply" opacity="0.2">
<path d="M124.56 241.59C122.99 242.5 126.52 251.77 126.67 247.93C126.83 244.09 126.59 240.41 124.56 241.59Z" fill="#C60055"/>
</g>
<g style="mix-blend-mode:multiply" opacity="0.2">
<path d="M250.25 170.48C248.1 172.63 252.76 186.46 257.3 179.09C261.84 171.73 252.13 168.6 250.25 170.48Z" fill="#C60055"/>
</g>
<g style="mix-blend-mode:multiply" opacity="0.2">
<path d="M252.91 159.52C249.58 160.35 252.44 166.41 254.16 164.85C255.88 163.29 256.67 158.59 252.91 159.52Z" fill="#C60055"/>
</g>
<g style="mix-blend-mode:multiply" opacity="0.2">
<path d="M310.28 213.24C306.47 212.31 302.24 223.58 309.65 222.95C317.06 222.32 315.39 214.49 310.28 213.24Z" fill="#C60055"/>
</g>
<g style="mix-blend-mode:multiply" opacity="0.2">
<path d="M360.23 252.6C359.68 255.84 358.66 258.8 357.05 260.85C356.46 261.6 355.41 261.4 354.22 260.57C351.28 258.46 347.61 252.26 348.81 246.44C350.47 238.3 355.28 230.68 358.09 232.66C360.12 234.09 361.66 244.27 360.22 252.6H360.23Z" fill="#C60055"/>
</g>
<g style="mix-blend-mode:multiply" opacity="0.2">
<path d="M62.0401 133.88C58.8301 133.67 58.9101 141.97 60.9401 141.66C62.9801 141.35 64.3901 134.04 62.0401 133.88Z" fill="#C60055"/>
</g>
<g style="mix-blend-mode:multiply" opacity="0.2">
<path d="M62.9303 129.6C61.5503 131.23 65.5903 133.52 65.7503 131.79C65.9103 130.07 64.6503 127.56 62.9303 129.6Z" fill="#C60055"/>
</g>
<g style="mix-blend-mode:multiply" opacity="0.2">
<path d="M119 217.78C119.18 219.61 116.43 228.13 113.41 234.54C112.55 231.93 117.5 220.35 117.12 218.1C116.71 215.65 109.19 214.96 101.61 218.25C94.0402 221.54 102.96 237.41 102.96 237.41C102.96 237.41 102.89 237.49 102.77 237.58C99.2602 233.14 96.2902 226.39 98.0102 220.92C100.51 212.93 118.68 214.65 118.99 217.78H119Z" fill="#C60055"/>
</g>
<g style="mix-blend-mode:multiply" opacity="0.2">
<path d="M124.1 211.53C124.04 211.37 124.01 211.18 123.99 210.97C123.8 209.31 123.15 205.26 118.97 205.1C114.8 204.95 118.66 213.01 118.66 213.01C118.66 213.01 118.59 213.09 118.48 213.17C116.41 210.41 114.91 205.65 118.22 204.55C122.27 203.2 125.55 207.29 124.1 211.53Z" fill="#C60055"/>
</g>
<g style="mix-blend-mode:multiply" opacity="0.2">
<path d="M360.23 252.6H360.19C358.62 252.54 358.99 234.69 356.53 233.91C354.08 233.13 350.26 241.53 349.69 247.95C349.12 254.38 354.02 259.7 354.44 260.02C354.67 260.19 354.52 260.43 354.21 260.57C351.27 258.46 347.6 252.26 348.8 246.44C350.46 238.3 355.27 230.68 358.08 232.66C360.11 234.09 361.65 244.27 360.21 252.6H360.23Z" fill="#C60055"/>
</g>
<g style="mix-blend-mode:multiply" opacity="0.1">
<path d="M123.6 267.11C124.29 262.11 181.24 194.02 227.59 202.79C273.95 211.56 311.96 257.5 305.69 263.35C299.43 269.2 121.92 279.22 123.6 267.11Z" fill="#EF7A98"/>
</g>
<g filter="url(#filter0_i_416_723)">
<path d="M177.137 209.648C177.089 209.024 176.945 208.4 176.849 207.632C174.689 208.208 172.625 208.736 170.609 209.264C170.369 209.36 170.129 209.648 170.033 209.888C169.553 211.52 169.169 213.152 169.121 214.88C169.121 215.792 169.361 216.656 169.937 217.376C170.177 217.664 170.369 218.048 170.465 218.432C170.609 219.056 170.177 219.44 169.553 219.344C169.361 219.296 169.217 219.248 169.073 219.2C166.769 218.192 164.513 217.232 162.209 216.224C161.777 216.08 161.537 215.792 161.585 215.312C161.681 214.832 162.017 214.688 162.449 214.688C163.937 214.736 164.849 213.872 165.473 212.72C166.241 211.136 167.009 209.552 167.585 207.92C169.025 203.792 170.417 199.664 171.761 195.536C172.145 194.48 172.385 193.376 172.769 192.32C173.537 190.112 174.353 187.952 175.121 185.744C175.169 185.648 175.217 185.6 175.265 185.504C175.601 184.928 175.985 184.304 176.753 184.352C177.473 184.4 178.001 184.928 178.193 185.6C178.721 187.04 179.297 188.528 179.633 190.016C180.305 193.088 180.833 196.208 181.409 199.328C181.985 202.256 182.561 205.184 183.233 208.112C183.569 209.696 184.145 211.232 184.673 212.768C185.105 214.064 185.681 214.304 187.073 213.968C187.217 213.92 187.409 213.824 187.553 213.872C187.841 213.968 188.225 214.064 188.369 214.256C188.465 214.496 188.417 214.928 188.273 215.168C188.081 215.456 187.745 215.648 187.409 215.84C184.769 217.232 182.129 218.624 179.489 220.016C178.913 220.352 178.385 220.736 177.809 221.12C177.569 221.216 177.329 221.408 177.089 221.456C176.849 221.456 176.465 221.36 176.321 221.168C176.177 220.976 176.225 220.64 176.225 220.352C176.225 220.256 176.321 220.16 176.369 220.112C177.761 218.864 177.761 217.184 177.713 215.6C177.617 213.584 177.329 211.616 177.137 209.648ZM176.465 205.424C175.841 202.352 175.217 199.328 174.545 196.112C172.577 199.52 172.241 203.168 171.233 206.672C173.057 206.24 174.737 205.808 176.465 205.424ZM197.453 211.712C197.357 213.056 197.549 214.544 197.933 215.456C198.557 215.6 199.085 215.312 199.565 214.976C200.381 214.352 201.005 213.536 201.485 212.624C202.733 210.128 204.077 207.632 204.797 204.848C205.181 203.504 205.613 202.208 205.997 200.864C206.045 200.72 206.093 200.576 206.141 200.432C206.381 199.904 206.765 199.664 207.245 199.76C207.629 199.856 207.965 200.192 207.965 200.72C207.965 201.44 207.917 202.16 207.917 202.88C207.773 205.424 207.533 207.92 207.485 210.464C207.437 211.904 207.629 213.392 207.773 214.88C207.917 216.272 207.629 216.656 206.285 216.8C202.445 217.088 198.653 217.424 194.813 217.76C193.181 217.904 191.549 218.192 189.917 218.384C189.437 218.432 188.909 218.48 188.429 218.48C188.045 218.48 187.709 218.336 187.565 217.904C187.421 217.52 187.613 217.184 187.901 216.896C188.573 216.224 189.245 215.504 189.869 214.784C190.733 213.68 191.165 212.432 191.261 211.04C191.357 209.024 191.453 207.056 191.453 205.088C191.405 200.864 191.357 196.688 191.213 192.464C191.213 191.36 191.069 190.208 190.925 189.104C190.733 188 190.301 187.136 189.053 186.944C188.621 186.896 188.381 186.608 188.381 186.176C188.381 185.744 188.669 185.504 189.197 185.456C189.485 185.456 189.773 185.408 190.061 185.408C192.989 185.504 195.917 185.552 198.893 185.6C199.229 185.648 199.613 185.552 199.997 185.552C200.285 185.552 200.621 185.6 200.909 185.696C201.245 185.792 201.437 186.08 201.341 186.416C201.245 186.656 201.053 186.896 200.813 187.04C200.621 187.136 200.333 187.136 200.093 187.136C199.229 187.184 198.653 187.616 198.461 188.432C198.173 189.68 197.837 190.88 197.789 192.128C197.597 195.2 197.501 198.272 197.453 201.296C197.453 204.128 197.501 206.912 197.501 209.744C197.501 210.416 197.501 211.04 197.453 211.712ZM221.332 203.12C221.38 201.536 221.764 194.096 221.812 191.984C221.812 191.504 221.764 191.024 221.62 190.544C221.476 189.776 221.044 189.2 220.276 188.96C220.132 188.912 220.036 188.864 219.94 188.816C219.556 188.576 219.316 188.288 219.412 187.808C219.556 187.376 219.94 187.328 220.324 187.328C221.524 187.376 222.676 187.424 223.876 187.52C225.988 187.712 228.1 187.904 230.212 187.712C230.644 187.664 231.076 187.616 231.508 187.712C231.748 187.808 232.036 188.048 232.132 188.288C232.276 188.576 232.084 188.864 231.796 189.056C231.796 189.056 231.748 189.056 231.7 189.104C229.636 190.016 229.012 191.936 228.82 193.952C228.58 196.832 228.484 199.712 228.34 202.592C228.148 205.904 227.716 209.168 227.044 212.384C226.804 213.728 226.228 214.928 225.364 216.032C224.116 217.568 222.58 218.624 220.516 218.816C220.372 218.816 220.18 218.816 220.036 218.864C218.356 219.44 216.676 219.152 214.996 218.672C212.932 218.096 211.54 216.752 210.724 214.784C209.812 212.528 209.572 210.176 209.524 207.776C209.476 202.736 209.38 197.744 209.332 192.752C209.332 191.168 208.996 189.776 207.988 188.528C207.748 188.192 207.412 187.904 207.076 187.664C206.788 187.424 206.548 187.232 206.596 186.848C206.692 186.416 207.028 186.224 207.412 186.176C208.084 186.08 208.804 186.032 209.476 185.936C211.828 185.504 214.132 185.072 216.436 184.64C217.012 184.544 217.54 184.496 218.068 184.448C218.452 184.4 218.836 184.544 218.98 184.928C219.076 185.36 218.884 185.6 218.596 185.792C218.164 186.176 217.732 186.56 217.204 186.896C214.948 188.192 213.892 190.352 213.22 192.704C212.548 195.008 212.596 197.408 212.644 199.76C212.692 202.64 212.74 205.52 212.836 208.4C212.884 209.648 213.028 210.944 213.316 212.144C213.556 213.056 213.988 213.92 214.516 214.688C215.476 216.08 217.348 216.08 218.5 214.832C219.7 213.488 220.18 211.808 220.564 210.176C221.092 207.872 221.236 205.472 221.332 203.12ZM247.229 203.936C246.989 204.08 246.749 204.224 246.365 204.464C249.581 205.424 251.117 207.728 252.125 210.464C252.605 211.808 252.893 213.2 253.277 214.544C253.661 215.792 254.093 217.04 255.101 217.952C255.389 218.24 255.773 218.48 256.157 218.624C256.541 218.816 256.925 218.72 257.117 218.288C257.165 218.24 257.165 218.192 257.213 218.144C257.357 217.76 257.645 217.616 258.029 217.712C258.461 217.808 258.653 218.144 258.557 218.576C258.413 219.68 258.269 220.832 257.549 221.792C256.589 223.136 255.389 224.144 253.661 224.336C251.837 224.528 250.157 223.52 249.293 221.696C248.909 220.88 248.621 220.016 248.381 219.2C247.613 216.608 246.845 214.016 246.077 211.472C245.645 209.888 244.925 208.4 243.869 207.104C243.437 206.624 242.957 206.24 242.333 206.096C242.093 206.096 241.853 206.096 241.469 206.096C241.565 207.344 241.661 208.448 241.805 209.552C241.853 210.176 241.997 210.704 242.093 211.328C242.381 213.296 243.437 214.784 245.069 215.936C245.165 215.984 245.261 216.032 245.309 216.08C245.597 216.32 245.789 216.608 245.693 216.944C245.549 217.328 245.261 217.52 244.877 217.52C244.589 217.568 244.349 217.568 244.061 217.52C240.653 217.136 237.341 217.52 234.077 218.576C233.741 218.672 233.405 218.864 233.021 218.96C232.685 219.104 232.349 219.104 232.109 218.768C231.821 218.48 231.965 218.144 232.157 217.856C232.205 217.808 232.253 217.76 232.301 217.712C234.125 216.08 234.701 213.92 234.941 211.664C235.133 209.312 235.277 206.96 235.277 204.656C235.277 200.096 235.181 195.536 235.085 190.976C235.085 190.208 234.893 189.44 234.653 188.72C234.365 187.856 233.693 187.376 232.781 187.184C232.637 187.184 232.541 187.136 232.397 187.136C231.965 187.088 231.581 186.944 231.485 186.464C231.437 186.08 231.725 185.648 232.253 185.408C232.493 185.312 232.733 185.264 232.973 185.216C236.813 184.496 240.653 184.448 244.493 185.264C247.373 185.888 249.629 187.52 251.261 189.872C253.325 192.896 253.565 197.504 250.637 201.104C249.677 202.256 248.525 203.168 247.229 203.936ZM243.149 188C242.909 187.76 242.621 187.616 242.189 187.376C241.373 192.704 240.845 197.888 241.325 203.216C241.661 203.12 241.853 203.024 242.045 202.928C243.581 202.064 244.733 200.816 245.357 199.184C245.693 198.176 245.933 197.12 246.173 196.064C246.845 192.752 245.597 190.16 243.149 188Z" fill="#A34216"/>
</g>
</g>
<defs>
<filter id="filter0_i_416_723" x="161.537" y="184.304" width="97.1167" height="44.2241" filterUnits="userSpaceOnUse" color-interpolation-filters="sRGB">
<feFlood flood-opacity="0" result="BackgroundImageFix"/>
<feBlend mode="normal" in="SourceGraphic" in2="BackgroundImageFix" result="shape"/>
<feColorMatrix in="SourceAlpha" type="matrix" values="0 0 0 0 0 0 0 0 0 0 0 0 0 0 0 0 0 0 127 0" result="hardAlpha"/>
<feOffset dy="4"/>
<feGaussianBlur stdDeviation="2"/>
<feComposite in2="hardAlpha" operator="arithmetic" k2="-1" k3="1"/>
<feColorMatrix type="matrix" values="0 0 0 0 0 0 0 0 0 0 0 0 0 0 0 0 0 0 0.25 0"/>
<feBlend mode="normal" in2="shape" result="effect1_innerShadow_416_723"/>
</filter>
<linearGradient id="paint0_linear_416_723" x1="215.462" y1="250.496" x2="231.091" y2="-259.45" gradientUnits="userSpaceOnUse">
<stop stop-color="#003248"/>
<stop offset="1" stop-color="#0079AE"/>
</linearGradient>
<radialGradient id="paint1_radial_416_723" cx="0" cy="0" r="1" gradientUnits="userSpaceOnUse" gradientTransform="translate(205.269 203.21) scale(205.326 203.196)">
<stop stop-color="#00FFFF"/>
<stop offset="1" stop-color="#009999" stop-opacity="0"/>
</radialGradient>
<linearGradient id="paint2_linear_416_723" x1="11.46" y1="201.75" x2="459.34" y2="201.75" gradientUnits="userSpaceOnUse">
<stop stop-color="#E65E49"/>
<stop offset="0.02" stop-color="#E7624C"/>
<stop offset="0.2" stop-color="#F48361"/>
<stop offset="0.35" stop-color="#FC966F"/>
<stop offset="0.45" stop-color="#FF9E74"/>
<stop offset="0.57" stop-color="#FC976F"/>
<stop offset="0.73" stop-color="#F58463"/>
<stop offset="0.92" stop-color="#E9664E"/>
<stop offset="1" stop-color="#E45845"/>
</linearGradient>
<linearGradient id="paint3_linear_416_723" x1="104.96" y1="328.64" x2="58.51" y2="61.7901" gradientUnits="userSpaceOnUse">
<stop stop-color="#C60055"/>
<stop offset="1" stop-color="white"/>
</linearGradient>
<linearGradient id="paint4_linear_416_723" x1="363.86" y1="333.57" x2="318.03" y2="70.2901" gradientUnits="userSpaceOnUse">
<stop stop-color="#C60055"/>
<stop offset="1" stop-color="white"/>
</linearGradient>
<linearGradient id="paint5_linear_416_723" x1="78.8576" y1="332.713" x2="61.876" y2="333.406" gradientUnits="userSpaceOnUse">
<stop stop-color="#A71100"/>
<stop offset="0.39" stop-color="#D83303"/>
<stop offset="1" stop-color="#EC5C11"/>
</linearGradient>
<linearGradient id="paint6_linear_416_723" x1="103.642" y1="316.823" x2="37.8014" y2="312.851" gradientUnits="userSpaceOnUse">
<stop stop-color="#A71100"/>
<stop offset="0.39" stop-color="#D83303"/>
<stop offset="1" stop-color="#EC5C11"/>
</linearGradient>
<linearGradient id="paint7_linear_416_723" x1="44.1301" y1="201.13" x2="84.5401" y2="201.13" gradientUnits="userSpaceOnUse">
<stop stop-color="#A71100"/>
<stop offset="0.39" stop-color="#D83303"/>
<stop offset="1" stop-color="#EC5C11"/>
</linearGradient>
<linearGradient id="paint8_linear_416_723" x1="87.9467" y1="94.1566" x2="22.1058" y2="90.1842" gradientUnits="userSpaceOnUse">
<stop stop-color="#A71100"/>
<stop offset="0.39" stop-color="#D83303"/>
<stop offset="1" stop-color="#EC5C11"/>
</linearGradient>
<linearGradient id="paint9_linear_416_723" x1="60.1751" y1="65.6334" x2="43.2515" y2="67.1944" gradientUnits="userSpaceOnUse">
<stop stop-color="#A71100"/>
<stop offset="0.39" stop-color="#D83303"/>
<stop offset="1" stop-color="#EC5C11"/>
</linearGradient>
<linearGradient id="paint10_linear_416_723" x1="88.0204" y1="202.86" x2="18.3604" y2="203.05" gradientUnits="userSpaceOnUse">
<stop stop-color="#FFA274"/>
<stop offset="1" stop-color="#E47745"/>
</linearGradient>
<linearGradient id="paint11_linear_416_723" x1="345.236" y1="332.741" x2="362.217" y2="333.444" gradientUnits="userSpaceOnUse">
<stop stop-color="#A71100"/>
<stop offset="0.39" stop-color="#D83303"/>
<stop offset="1" stop-color="#EC5C11"/>
</linearGradient>
<linearGradient id="paint12_linear_416_723" x1="320.441" y1="316.861" x2="386.283" y2="312.879" gradientUnits="userSpaceOnUse">
<stop stop-color="#A71100"/>
<stop offset="0.39" stop-color="#D83303"/>
<stop offset="1" stop-color="#EC5C11"/>
</linearGradient>
<linearGradient id="paint13_linear_416_723" x1="380" y1="50" x2="339.58" y2="50" gradientUnits="userSpaceOnUse">
<stop stop-color="#A71100"/>
<stop offset="0.39" stop-color="#D83303"/>
<stop offset="1" stop-color="#EC5C11"/>
</linearGradient>
<linearGradient id="paint14_linear_416_723" x1="336.147" y1="94.194" x2="401.988" y2="90.2117" gradientUnits="userSpaceOnUse">
<stop stop-color="#A71100"/>
<stop offset="0.39" stop-color="#D83303"/>
<stop offset="1" stop-color="#EC5C11"/>
</linearGradient>
<linearGradient id="paint15_linear_416_723" x1="363.919" y1="65.6709" x2="380.842" y2="67.2318" gradientUnits="userSpaceOnUse">
<stop stop-color="#A71100"/>
<stop offset="0.39" stop-color="#D83303"/>
<stop offset="1" stop-color="#EC5C11"/>
</linearGradient>
<linearGradient id="paint16_linear_416_723" x1="336.13" y1="202.83" x2="405.79" y2="203.02" gradientUnits="userSpaceOnUse">
<stop stop-color="#FFA274"/>
<stop offset="1" stop-color="#E47745"/>
</linearGradient>
<clipPath id="clip0_416_723">
<rect width="364.12" height="299.33" fill="white" transform="translate(30 50)"/>
</clipPath>
</defs>
</svg>
