<svg width="634" height="406" viewBox="0 0 634 406" fill="none" xmlns="http://www.w3.org/2000/svg">
<path style="mix-blend-mode:screen" opacity="0.42" d="M201.072 348.596C201.072 348.596 254.81 341.272 234.809 304.106C214.807 266.94 56.1431 261.86 61.1344 228.074C66.1256 194.287 158.592 188.096 282.28 193.152C405.969 198.232 505.94 189.774 479.708 166.123C453.477 142.472 263.554 139.66 218.56 144.15C173.565 148.662 227.303 150.907 227.303 150.907C227.303 150.907 91.1184 164.776 52.3906 142.354C13.6627 119.932 119.864 115.419 189.814 119.932C259.801 124.445 400.978 118.798 400.978 103.038C400.978 87.2789 364.727 65.3056 316.017 74.8746C267.27 84.4436 209.816 82.7661 204.825 68.1172C199.833 53.4684 232.295 47.8451 281.041 53.4684C329.788 59.0916 373.507 27.0059 337.257 20.8156C337.257 20.8156 368.188 22.564 372.852 36.7167C377.551 50.8694 310.078 61.5489 268.837 56.9888C227.595 52.4288 233.242 71.9921 336.31 66.6996C439.378 61.4307 488.598 71.9685 501.24 81.9155C513.882 91.839 486.23 115.702 418.793 120.995C351.32 126.264 400.067 129.855 484.845 130.918C569.661 131.982 644.602 159.862 627.77 174.629C610.902 189.419 472.677 210.944 481.129 242.415C481.129 242.415 441.782 213.472 377.114 218.977C312.446 224.459 272.152 241.777 290.915 255.292C309.641 268.807 415.077 231.216 445.535 261.411C445.535 261.411 414.603 247.259 392.598 262.475C370.593 277.691 363.088 280.431 320.899 275.989C278.746 271.548 267.962 294.159 319.041 299.428C370.119 304.697 386.514 313.58 363.088 318.637C339.662 323.716 263.299 323.291 266.104 351.786C268.909 380.304 198.74 383.99 198.74 383.99C198.74 383.99 180.087 379.926 225.992 358.378C271.897 336.83 201.145 348.549 201.145 348.549L201.072 348.596Z" fill="url(#paint0_linear_528_9)"/>
<path style="mix-blend-mode:screen" opacity="0.71" d="M317 405.301C492.074 405.301 634 314.571 634 202.651C634 90.7298 492.074 0 317 0C141.926 0 0 90.7298 0 202.651C0 314.571 141.926 405.301 317 405.301Z" fill="url(#paint1_radial_528_9)"/>
<g clip-path="url(#clip0_528_9)">
<path d="M119.423 109.56C119.423 109.56 158.248 113.84 158.495 114.52C158.742 115.2 163.494 134.57 166.627 137.65C169.775 140.73 160.269 143.81 160.269 143.81L117.741 115.72L119.438 109.56H119.423Z" fill="#FFC59F"/>
<path d="M168.231 117.84C168.231 117.84 171.225 115.87 171.827 115.82C172.429 115.77 176.425 116.37 176.425 116.37C176.425 116.37 178.354 127.15 180.175 129.16C181.981 131.17 173.895 131.46 173.895 131.46L168.247 117.84H168.231Z" fill="#FFC59F"/>
<path d="M180.16 118.74C180.16 118.74 183.153 116.8 184.002 116.76C184.851 116.72 240.681 119.79 276.775 120.21C312.868 120.63 361.693 119.17 362.495 120.11C363.298 121.05 366.368 144.33 374.254 151.85C382.155 159.37 362.326 163.96 362.326 163.96L180.16 118.75V118.74Z" fill="#FFC59F"/>
<path d="M379.254 123.11C379.254 123.11 383.513 118.95 384.84 119.03C386.167 119.11 455.284 116.6 494.68 113.31C534.076 110.02 555.587 106.26 555.587 106.26L554.136 116.44L379.254 123.1V123.11Z" fill="#FFC59F"/>
<path d="M221.191 282.13C221.191 282.13 224.293 281.21 225.08 279.49C225.867 277.77 225.62 269.98 225.62 269.98L214.741 270.61L221.176 282.14L221.191 282.13Z" fill="#FFC59F"/>
<path d="M416.289 282.93C416.289 282.93 419.283 282.15 420.61 280.51C421.937 278.87 423.634 267.2 423.634 267.2L414.268 265.52L416.289 282.94V282.93Z" fill="#FFC59F"/>
<path d="M447.244 285.18C447.244 285.18 452.506 285.12 455.037 282.23C457.568 279.33 465.916 263.2 465.916 263.2L455.16 260.22L447.244 285.18Z" fill="#FFC59F"/>
<path d="M221.191 282.13C221.191 282.13 224.293 281.21 225.08 279.49C225.867 277.77 225.62 269.98 225.62 269.98L214.741 270.61L221.176 282.14L221.191 282.13Z" fill="#DB6345"/>
<path d="M416.289 282.93C416.289 282.93 419.283 282.15 420.61 280.51C421.937 278.87 423.634 267.2 423.634 267.2L414.268 265.52L416.289 282.94V282.93Z" fill="#DB6345"/>
<path d="M447.244 285.18C447.244 285.18 452.506 285.12 455.037 282.23C457.568 279.33 465.916 263.2 465.916 263.2L455.16 260.22L447.244 285.18Z" fill="#DB6345"/>
<path d="M572.731 108.3L565.972 162.18L553.611 295.2C553.611 295.2 521.7 291.56 477.381 287.69C471.193 287.14 464.758 286.6 458.123 286.05C458.833 281.26 459.419 275.27 459.481 271.08C459.558 267.64 459.265 265.41 458.401 266.01C457.706 266.5 456.364 268.5 454.743 271.24C452.475 275.11 449.636 280.47 447.213 285.17C439.806 284.6 432.198 284.02 424.483 283.48C423.588 279.68 422.353 274.93 421.273 272.27C420.795 271.08 420.332 270.31 419.946 270.24C419.514 270.16 419.051 271 418.573 272.34C417.693 274.91 416.798 279.34 416.242 282.91C382.695 280.65 347.388 278.89 315.708 278.59C287.191 278.33 257.933 279.55 230.666 281.43C228.444 278.8 225.759 275.79 224.077 274.47C223.228 273.79 222.642 273.55 222.503 274C222.457 274.11 222.411 274.26 222.38 274.43C222.025 275.86 221.531 279.09 221.145 282.12C199.572 283.76 179.481 285.77 162.337 287.71C128.249 291.57 105.642 295.19 105.642 295.19L87.9272 109.56C87.9272 109.56 111.552 113.01 152.291 116.53C153.171 116.61 154.066 116.68 154.961 116.76C156.041 120.99 158.772 131.27 160.763 136.53C161.735 139.13 162.537 140.51 162.846 139.31C163.047 138.56 163.371 137.28 163.772 135.7C165.037 130.67 167.059 122.51 168.216 117.84C169.636 117.95 171.071 118.07 172.521 118.18C172.892 122.4 173.802 131.85 175.731 130.02C177.367 128.46 179.172 122.43 180.144 118.74C217.689 121.42 265.016 123.71 318.964 123.96C331.432 124.02 343.885 123.91 356.184 123.69C356.493 124.9 356.817 126.25 357.202 127.68C360.489 140.43 366.214 160.47 368.915 156.22C371.43 152.28 375.458 137.79 377.942 128.17C378.451 126.24 378.883 124.51 379.238 123.1C429.837 121.51 476.671 118.01 511.592 114.8C548.997 111.37 572.731 108.29 572.731 108.29V108.3Z" fill="url(#paint2_linear_528_9)"/>
<path style="mix-blend-mode:multiply" opacity="0.5" d="M162.383 287.72C128.295 291.58 105.689 295.2 105.689 295.2L87.9272 109.56C87.9272 109.56 111.552 113.01 152.291 116.53C142.862 138.05 134.545 170.23 139.807 211.99C144.899 252.39 154.22 275.09 162.368 287.72H162.383Z" fill="url(#paint3_linear_528_9)"/>
<path style="mix-blend-mode:multiply" opacity="0.5" d="M572.731 108.3L565.972 162.18L553.611 295.2C553.611 295.2 521.699 291.56 477.381 287.69C489.047 269.48 505.867 236.8 512.317 192.36C517.085 159.55 515.095 133.42 511.592 114.82C548.997 111.39 572.731 108.31 572.731 108.31V108.3Z" fill="url(#paint4_linear_528_9)"/>
<path d="M60.3823 108.3C60.3823 108.3 60.7835 104.85 88.3437 104.02C115.889 103.18 120.333 107.36 120.333 107.36L102.849 117.17L72.5576 116.7L60.3978 108.29L60.3823 108.3Z" fill="#872316"/>
<path d="M112.031 349.21C112.031 349.21 103.821 349.86 103.003 348.16C102.185 346.45 105.457 325.28 105.457 325.28L112.031 349.22V349.21Z" fill="#FC6212"/>
<path d="M116.676 317.53C116.753 317.61 116.83 317.7 116.907 317.76C116.984 317.84 117.03 317.91 117.061 317.97C117.138 318.05 117.185 318.12 117.216 318.18C117.262 318.27 117.293 318.33 117.339 318.42V318.44C119.746 323.02 122.37 340.57 122.092 346.81C122.061 346.86 122.061 346.88 122.076 346.92C121.953 349.37 107.679 349.83 104.145 348.49C103.682 348.31 103.389 348.08 103.358 347.84C102.988 344.25 105.688 319.69 106.614 318.18C107.725 316.37 115.086 316.41 116.66 317.53H116.676Z" fill="url(#paint5_linear_528_9)"/>
<g style="mix-blend-mode:multiply" opacity="0.8">
<path d="M110.858 315.74C114.145 315.64 115.842 316.73 116.676 317.53C116.753 317.61 116.83 317.7 116.907 317.76C116.984 317.84 117.031 317.91 117.061 317.97C117.139 318.05 117.185 318.12 117.216 318.18C117.293 318.33 117.339 318.42 117.339 318.42V318.44C119.746 323.02 122.37 340.57 122.092 346.81C122.092 346.81 117.833 338.06 116.83 329.99C115.796 321.9 116.922 318.68 115.487 317.88C114.052 317.08 107.988 316.95 106.63 318.18C106.013 318.73 105.581 315.87 110.858 315.73V315.74Z" fill="#D42F55"/>
</g>
<g style="mix-blend-mode:soft-light" opacity="0.5">
<path d="M113.743 347.64C113.558 348.08 106.336 348.97 105.534 347.66C104.732 346.35 106.198 319.24 108.003 318.49C109.809 317.74 115.194 344.03 113.728 347.64H113.743Z" fill="white"/>
</g>
<path d="M110.765 326.78C119.577 326.38 128.141 325.41 135.054 324.37C140.008 323.63 144.128 322.86 147.013 322.2C149.729 321.6 151.35 321.09 151.488 320.84C152.121 319.71 151.812 312.77 151.55 308.23C151.411 305.9 151.272 304.22 151.272 304.22L143.341 304.39L139.035 304.47L70.5361 305.89C70.5361 305.89 73.3446 321.89 74.0236 322.68C74.4557 323.19 87.9271 326.57 103.713 326.87H103.744C106.059 326.92 108.358 326.89 110.735 326.79L110.765 326.78Z" fill="url(#paint6_linear_528_9)"/>
<g style="mix-blend-mode:multiply" opacity="0.8">
<path d="M135.054 324.36C144.622 322.93 151.211 321.35 151.488 320.83C152.43 319.14 151.272 304.21 151.272 304.21L144.529 306.09C136.397 307.19 124.839 309.54 124.113 312.53C122.03 321.1 124.978 323.72 125.981 324.42C127.123 325.22 130.394 324.8 135.039 324.36H135.054Z" fill="#D42F55"/>
</g>
<path d="M115.133 310.25C137.415 308.67 152.09 306.45 151.272 304.22C150.655 302.44 145.825 299.75 134.962 298.17C128.82 297.27 120.765 296.74 110.395 296.94C108.867 296.96 107.278 297.01 105.658 297.08C73.5453 298.36 71.1072 304.07 70.5516 305.88C69.9498 307.67 92.8498 311.82 115.133 310.24V310.25Z" fill="#FF7A00"/>
<g style="mix-blend-mode:soft-light" opacity="0.5">
<path d="M148.726 304.14C151.103 302.82 136.196 296.43 112.617 298.28C89.0381 300.12 87.4796 306.97 89.2696 307.81C91.0596 308.65 135.347 311.59 148.726 304.14Z" fill="white"/>
</g>
<path d="M95.0566 312.27C94.4393 311.54 84.5479 309.12 83.1128 310.71C81.6777 312.3 82.6035 323.69 83.9923 324.24C85.3657 324.79 94.1152 325.88 94.393 324.95C94.6708 324.02 95.7201 313.04 95.072 312.27H95.0566Z" fill="#FF6500"/>
<path d="M72.8045 307.15C72.5267 306.92 80.3812 308.38 88.7141 309.21C98.0654 310.15 107.972 310.5 106.954 310.57C92.3096 311.71 73.9618 308.1 72.7891 307.14L72.8045 307.15Z" fill="#FFA457"/>
<g style="mix-blend-mode:multiply" opacity="0.5">
<path d="M147.029 322.2C149.745 321.6 151.365 321.09 151.504 320.84C152.137 319.71 151.828 312.77 151.566 308.23C143.341 308.17 130.456 308.88 129.375 313.9C128.342 318.72 138.31 321.24 147.029 322.2Z" fill="#D42F55"/>
</g>
<path d="M130.456 301.78C130.086 308.72 88.4213 308.48 88.2515 302.2C88.2207 301.05 88.1744 299.82 88.1435 298.53C88.1435 297.62 88.1127 296.67 88.0972 295.68C87.6806 274.33 87.5726 237 84.116 205.07C81.3383 179.39 73.6073 130.66 69.9964 108.51C68.9625 102.1 68.2527 97.91 68.1138 97.13C68.1138 97.04 68.1138 97 68.1138 97L107.355 95.3C107.355 95.3 107.355 95.35 107.355 95.43C107.294 97.3 106.707 118.49 107.88 148.96C108.482 165.12 108.899 183.95 111.614 203.77C113.543 217.88 115.873 231.47 118.234 243.82C123.034 269.05 127.925 289.07 129.746 297.53C130.255 299.86 130.533 301.32 130.502 301.77L130.456 301.78Z" fill="url(#paint7_linear_528_9)"/>
<g style="mix-blend-mode:multiply" opacity="0.8">
<path d="M68.0981 97.13L107.309 95.43C107.263 97.3 106.661 118.49 107.834 148.95C104.038 131.52 98.6366 113.01 93.8992 112.9C87.3718 112.74 76.9557 110.49 69.9962 108.5C68.9623 102.1 68.2679 97.91 68.1136 97.12L68.0981 97.13Z" fill="#D42F55"/>
</g>
<path d="M79.9184 50.14C79.9184 50.14 71.6472 50.2 71.1997 51.96C70.7522 53.72 78.329 74.43 78.329 74.43L79.9184 50.14Z" fill="#FC6212"/>
<path d="M86.5078 104.13C95.319 103.73 103.883 102.76 110.797 101.72C115.75 100.98 119.87 100.21 122.756 99.5499C125.472 98.9499 127.092 98.4399 127.231 98.1899C127.864 97.0599 127.555 90.1199 127.293 85.5799C127.154 83.2499 127.015 81.5699 127.015 81.5699L119.083 81.7399L114.778 81.8199L46.2939 83.2299C46.2939 83.2299 49.1024 99.2299 49.7814 100.02C50.2135 100.53 63.685 103.91 79.4711 104.21H79.502C81.8167 104.26 84.1159 104.23 86.4923 104.13H86.5078Z" fill="url(#paint8_linear_528_9)"/>
<g style="mix-blend-mode:multiply" opacity="0.8">
<path d="M110.812 101.71C120.379 100.28 126.968 98.7 127.246 98.18C128.188 96.49 127.03 81.56 127.03 81.56L120.287 83.44C112.155 84.54 100.597 86.89 99.8712 89.88C97.788 98.45 100.735 101.07 101.738 101.77C102.88 102.57 106.152 102.15 110.797 101.71H110.812Z" fill="#D42F55"/>
</g>
<path d="M90.8901 87.59C113.173 86.01 127.848 83.79 127.03 81.56C126.413 79.78 121.583 77.09 110.719 75.51C104.578 74.61 96.5225 74.08 86.1527 74.28C84.625 74.3 83.0356 74.35 81.4154 74.42C49.3029 75.71 46.8648 81.42 46.2938 83.23C45.692 85.02 68.592 89.17 90.8747 87.59H90.8901Z" fill="#FF7A00"/>
<g style="mix-blend-mode:multiply" opacity="0.5">
<path d="M110.719 75.51C104.578 74.61 96.5226 74.08 86.1528 74.28C86.7392 77.36 87.9892 80.84 90.4273 81.16C93.2203 81.55 103.575 78.26 110.719 75.51Z" fill="#D42F55"/>
</g>
<g style="mix-blend-mode:soft-light" opacity="0.5">
<path d="M124.484 81.49C126.86 80.17 111.954 73.78 88.3749 75.63C64.7959 77.47 63.2374 84.32 65.0274 85.16C66.8174 86 111.105 88.94 124.484 81.49Z" fill="white"/>
</g>
<path d="M90.9981 81.14C91.0598 81.05 91.1216 80.96 91.1833 80.89C91.245 80.8 91.2759 80.73 91.2913 80.67C91.353 80.58 91.3839 80.51 91.3993 80.45C91.4302 80.36 91.4456 80.29 91.4765 80.2V80.18C92.927 75.43 91.924 57.81 90.3654 51.65C90.3346 51.61 90.3191 51.59 90.3191 51.54C89.7019 49.13 75.4434 49.9 72.2183 51.54C71.8016 51.76 71.5547 52.01 71.5856 52.25C71.9559 55.84 79.6716 79.95 80.8906 81.37C82.3566 83.07 89.6556 82.4 90.9827 81.15L90.9981 81.14Z" fill="url(#paint9_linear_528_9)"/>
<g style="mix-blend-mode:multiply" opacity="0.8">
<path d="M81.1529 53.67C85.2576 53.29 89.1463 52.58 90.3808 51.64C90.3499 51.6 90.3345 51.58 90.3345 51.53C89.7172 49.12 75.4587 49.89 72.2336 51.53C72.0484 51.71 72.0021 51.89 72.0484 52.07C72.3725 52.89 75.397 54.19 81.1374 53.68L81.1529 53.67Z" fill="#D42F55"/>
</g>
<g style="mix-blend-mode:multiply" opacity="0.8">
<path d="M85.5973 83.42C88.8687 83.23 90.3347 82 90.9982 81.14C91.06 81.05 91.1217 80.96 91.1834 80.89C91.2451 80.8 91.276 80.73 91.2914 80.67C91.3532 80.58 91.384 80.51 91.3995 80.45C91.4457 80.29 91.4766 80.2 91.4766 80.2V80.18C92.9271 75.43 91.9241 57.81 90.3656 51.65C90.3656 51.65 87.9429 60.69 88.591 68.78C89.2236 76.89 90.9982 79.98 89.7329 80.9C88.4675 81.81 82.4956 82.47 80.8908 81.37C80.1655 80.87 80.3198 83.75 85.5819 83.43L85.5973 83.42Z" fill="#D42F55"/>
</g>
<g style="mix-blend-mode:multiply" opacity="0.8">
<path d="M89.4859 51.29C89.6093 50.76 79.5481 48.94 76.0607 51.01C72.5732 53.08 89.1001 53.03 89.4859 51.29Z" fill="#D42F55"/>
</g>
<g style="mix-blend-mode:soft-light" opacity="0.5">
<path d="M82.7889 54.79C82.5265 54.37 75.1813 54.11 74.6566 55.48C74.1319 56.85 80.289 80.35 82.2333 80.94C84.1777 81.53 84.9955 58.24 82.7889 54.79Z" fill="white"/>
</g>
<path d="M73.4222 53C73.4222 53 73.9777 53.82 76.8325 53.93C79.0083 54.02 79.9342 53.76 79.9342 53.76C79.9342 53.76 79.5484 53.75 76.7245 53.61C75.6443 53.56 73.7308 52.83 73.4067 53H73.4222Z" fill="#FFA457"/>
<path d="M70.8139 89.62C70.1966 88.89 60.3052 86.47 58.8701 88.06C57.435 89.65 58.3609 101.04 59.7497 101.59C61.1231 102.14 69.8726 103.23 70.1503 102.3C70.4281 101.37 71.4774 90.39 70.8293 89.62H70.8139Z" fill="#FF6500"/>
<path d="M48.5467 84.5C48.2689 84.27 56.1234 85.73 64.4563 86.56C73.8076 87.5 83.7145 87.85 82.696 87.93C68.0518 89.07 49.704 85.46 48.5312 84.5H48.5467Z" fill="#FFA457"/>
<g style="mix-blend-mode:multiply" opacity="0.5">
<path d="M122.771 99.54C125.487 98.94 127.107 98.43 127.246 98.18C127.879 97.05 127.57 90.11 127.308 85.57C119.083 85.51 106.198 86.22 105.118 91.24C104.084 96.06 114.052 98.58 122.771 99.54Z" fill="#D42F55"/>
</g>
<g style="mix-blend-mode:multiply" opacity="0.8">
<path d="M117.741 242.16C117.694 241.87 117.664 241.69 117.664 241.6C117.71 241.75 117.787 242.17 117.88 242.84C117.802 242.59 117.756 242.36 117.741 242.16Z" fill="#D42F55"/>
</g>
<g style="mix-blend-mode:multiply" opacity="0.8">
<path d="M138.326 298.72C138.326 298.72 138.233 298.75 138.202 298.75C130.224 299.38 132.631 300.94 132.77 301.57C132.894 302.2 133.125 306.9 109.207 307.68C85.2729 308.46 85.3964 302.51 83.344 300.94C82.4953 300.28 80.1652 300.4 77.7271 300.78C80.2269 299.95 83.5909 299.17 88.1586 298.52C88.1586 297.61 88.1277 296.66 88.1123 295.67C88.7141 296.68 89.5011 297.53 90.427 298.22C95.4576 301.98 104.778 301.02 114.839 297.81C115.426 297.62 115.935 297.32 116.413 296.91C124.746 289.79 119.16 250.59 117.879 242.86C117.972 243.15 118.049 243.47 118.188 243.83C122.987 269.06 127.879 289.08 129.699 297.54C131.598 297.72 133.357 297.93 134.977 298.17C136.165 298.34 137.276 298.53 138.326 298.72Z" fill="#D42F55"/>
</g>
<path d="M129.129 257.42C125.441 236.15 121.537 209.55 121.29 190.99C120.997 169.44 120.703 143.45 120.518 126.23C120.395 115.42 120.333 108.06 120.318 107.41V107.36C120.318 107.36 108.96 111.44 89.1466 112.06C87.6497 112.11 84.6252 113.7 84.4863 114.7C83.761 120.12 82.4494 128.71 81.2458 130.11C79.9032 131.64 77.7583 120.35 76.709 114.28C76.5238 113.18 76.3541 112.25 76.2615 111.6C66.5398 110.59 60.645 108.4 60.4136 108.31V108.39C60.4136 108.46 60.4136 108.52 60.4136 108.59L78.7613 293.12C78.7613 293.12 75.9837 299.53 112.633 298.29C135.795 297.51 135.795 292.18 135.795 292.18C135.795 292.18 132.555 277.08 129.144 257.43L129.129 257.42Z" fill="url(#paint10_linear_528_9)"/>
<path d="M80.9985 111.51C80.9522 111.25 66.061 109.85 66.3388 107.96C66.4314 107.3 67.6967 106.7 69.6256 106.23C69.5176 105.62 69.4405 105.04 69.3324 104.48C65.7987 105.27 61.0613 106.59 60.4595 108.05C60.4286 108.13 60.3978 108.22 60.3823 108.3V108.38C60.3823 108.45 60.3823 108.51 60.3823 108.58C60.7527 110.42 66.2771 113.21 76.6623 114.27C76.5388 113.59 78.0974 129.79 80.9059 130.25C81.0602 130.28 81.0139 111.76 80.9676 111.51H80.9985ZM107.154 103.12C107.154 103.76 107.154 104.43 107.154 105.13C111.043 105.99 112.864 106.77 112.833 107.18C112.756 108.01 105.056 110.62 89.8714 111.2C88.1277 111.27 84.6248 113.7 84.4859 114.7C86.1988 114.72 87.9734 114.7 89.8714 114.62C109.947 113.86 120.024 108.58 120.317 107.4C120.317 107.38 120.317 107.37 120.317 107.36C120.379 106.65 114.592 104.2 107.154 103.11V103.12Z" fill="#FFC59F"/>
<path d="M594.088 108.3C594.088 108.3 593.686 104.85 566.126 104.02C538.566 103.19 534.137 107.36 534.137 107.36L551.621 117.17L581.912 116.7L594.072 108.29L594.088 108.3Z" fill="#872316"/>
<path d="M542.439 349.21C542.439 349.21 550.649 349.86 551.467 348.16C552.285 346.45 549.013 325.28 549.013 325.28L542.439 349.22V349.21Z" fill="#FC6212"/>
<path d="M537.795 317.53C537.717 317.61 537.64 317.7 537.563 317.76C537.486 317.84 537.44 317.91 537.409 317.97C537.332 318.05 537.285 318.12 537.254 318.18C537.208 318.27 537.177 318.33 537.131 318.42V318.44C534.724 323.02 532.1 340.57 532.378 346.81C532.409 346.86 532.409 346.88 532.394 346.92C532.517 349.37 546.791 349.83 550.325 348.49C550.788 348.31 551.081 348.08 551.112 347.84C551.482 344.25 548.782 319.69 547.856 318.18C546.745 316.37 539.384 316.41 537.81 317.53H537.795Z" fill="url(#paint11_linear_528_9)"/>
<g style="mix-blend-mode:multiply" opacity="0.8">
<path d="M543.612 315.74C540.325 315.64 538.628 316.73 537.795 317.53C537.717 317.61 537.64 317.7 537.563 317.76C537.486 317.84 537.44 317.91 537.409 317.97C537.332 318.05 537.285 318.12 537.254 318.18C537.177 318.33 537.131 318.42 537.131 318.42V318.44C534.724 323.02 532.1 340.57 532.378 346.81C532.378 346.81 536.637 338.06 537.64 329.99C538.674 321.9 537.548 318.68 538.983 317.88C540.418 317.08 546.482 316.95 547.84 318.18C548.458 318.73 548.89 315.87 543.612 315.73V315.74Z" fill="#D42F55"/>
</g>
<g style="mix-blend-mode:soft-light" opacity="0.5">
<path d="M540.726 347.64C540.912 348.08 548.133 348.97 548.936 347.66C549.738 346.35 548.272 319.24 546.467 318.49C544.661 317.74 539.261 344.03 540.742 347.64H540.726Z" fill="white"/>
</g>
<path d="M543.705 326.78C534.894 326.38 526.329 325.41 519.416 324.37C514.463 323.63 510.343 322.86 507.457 322.2C504.741 321.6 503.121 321.09 502.982 320.84C502.349 319.71 502.658 312.77 502.92 308.23C503.059 305.9 503.198 304.22 503.198 304.22L511.13 304.39L515.435 304.47L583.934 305.89C583.934 305.89 581.126 321.89 580.447 322.68C580.015 323.19 566.543 326.57 550.757 326.87H550.726C548.412 326.92 546.112 326.89 543.736 326.79L543.705 326.78Z" fill="url(#paint12_linear_528_9)"/>
<g style="mix-blend-mode:multiply" opacity="0.8">
<path d="M519.401 324.36C509.833 322.93 503.244 321.35 502.967 320.83C502.025 319.14 503.183 304.21 503.183 304.21L509.926 306.09C518.058 307.19 529.616 309.54 530.342 312.53C532.425 321.1 529.477 323.72 528.474 324.42C527.332 325.22 524.061 324.8 519.416 324.36H519.401Z" fill="#D42F55"/>
</g>
<path d="M539.322 310.25C517.04 308.67 502.365 306.45 503.182 304.22C503.8 302.44 508.63 299.75 519.493 298.17C525.635 297.27 533.69 296.74 544.06 296.94C545.588 296.96 547.177 297.01 548.797 297.08C580.91 298.36 583.348 304.07 583.903 305.88C584.505 307.67 561.605 311.82 539.322 310.24V310.25Z" fill="#FF7A00"/>
<g style="mix-blend-mode:soft-light" opacity="0.5">
<path d="M505.728 304.14C503.352 302.82 518.259 296.43 541.838 298.28C565.416 300.12 566.975 306.97 565.185 307.81C563.395 308.65 519.107 311.59 505.728 304.14Z" fill="white"/>
</g>
<path d="M559.399 312.27C560.016 311.54 569.907 309.12 571.342 310.71C572.778 312.3 571.852 323.69 570.463 324.24C569.089 324.79 560.34 325.88 560.062 324.95C559.784 324.02 558.751 313.04 559.383 312.27H559.399Z" fill="#FF6500"/>
<path d="M581.666 307.15C581.943 306.92 574.089 308.38 565.756 309.21C556.405 310.15 546.498 310.5 547.516 310.57C562.161 311.71 580.508 308.1 581.681 307.14L581.666 307.15Z" fill="#FFA457"/>
<g style="mix-blend-mode:multiply" opacity="0.5">
<path d="M507.441 322.2C504.725 321.6 503.105 321.09 502.966 320.84C502.334 319.71 502.642 312.77 502.905 308.23C511.129 308.17 524.015 308.88 525.095 313.9C526.129 318.72 516.16 321.24 507.441 322.2Z" fill="#D42F55"/>
</g>
<path d="M524.014 301.78C524.385 308.72 566.049 308.48 566.219 302.2C566.25 301.05 566.296 299.82 566.327 298.53C566.327 297.62 566.358 296.67 566.373 295.68C566.79 274.33 566.898 237 570.354 205.07C573.132 179.39 580.863 130.66 584.474 108.51C585.508 102.1 586.218 97.91 586.357 97.13C586.357 97.04 586.357 97 586.357 97L547.115 95.3C547.115 95.3 547.115 95.35 547.115 95.43C547.177 97.3 547.763 118.49 546.59 148.96C545.989 165.12 545.572 183.95 542.856 203.77C540.927 217.88 538.597 231.47 536.236 243.82C531.437 269.05 526.545 289.07 524.724 297.53C524.215 299.86 523.937 301.32 523.968 301.77L524.014 301.78Z" fill="url(#paint13_linear_528_9)"/>
<g style="mix-blend-mode:multiply" opacity="0.8">
<path d="M586.357 97.13L547.146 95.43C547.192 97.3 547.794 118.49 546.621 148.95C550.417 131.52 555.818 113.01 560.556 112.9C567.083 112.74 577.499 110.49 584.458 108.5C585.492 102.1 586.187 97.91 586.341 97.12L586.357 97.13Z" fill="#D42F55"/>
</g>
<path d="M574.552 50.14C574.552 50.14 582.823 50.2 583.27 51.96C583.718 53.72 576.141 74.43 576.141 74.43L574.536 50.14H574.552Z" fill="#FC6212"/>
<path d="M567.947 104.13C559.136 103.73 550.572 102.76 543.658 101.72C538.705 100.98 534.585 100.21 531.699 99.5499C528.983 98.9499 527.363 98.4399 527.224 98.1899C526.591 97.0599 526.9 90.1199 527.162 85.5799C527.301 83.2499 527.44 81.5699 527.44 81.5699L535.372 81.7399L539.677 81.8199L608.176 83.2399C608.176 83.2399 605.368 99.2399 604.689 100.03C604.257 100.54 590.785 103.92 574.999 104.22H574.968C572.654 104.27 570.354 104.24 567.978 104.14L567.947 104.13Z" fill="url(#paint14_linear_528_9)"/>
<g style="mix-blend-mode:multiply" opacity="0.8">
<path d="M543.659 101.71C534.091 100.28 527.502 98.7 527.224 98.18C526.283 96.49 527.44 81.56 527.44 81.56L534.184 83.44C542.316 84.54 553.874 86.89 554.599 89.88C556.683 98.45 553.735 101.07 552.732 101.77C551.59 102.57 548.319 102.15 543.674 101.71H543.659Z" fill="#D42F55"/>
</g>
<path d="M563.58 87.59C541.298 86.01 526.622 83.79 527.44 81.56C528.057 79.78 532.887 77.09 543.751 75.51C549.893 74.61 557.948 74.08 568.318 74.28C569.845 74.3 571.435 74.35 573.055 74.42C605.167 75.7 607.606 81.41 608.161 83.22C608.763 85.01 585.863 89.16 563.58 87.58V87.59Z" fill="#FF7A00"/>
<g style="mix-blend-mode:multiply" opacity="0.5">
<path d="M543.735 75.51C549.877 74.61 557.932 74.08 568.302 74.28C567.716 77.36 566.466 80.84 564.027 81.16C561.234 81.55 550.88 78.26 543.735 75.51Z" fill="#D42F55"/>
</g>
<g style="mix-blend-mode:soft-light" opacity="0.5">
<path d="M529.986 81.49C527.61 80.17 542.516 73.78 566.095 75.63C589.674 77.47 591.233 84.32 589.443 85.16C587.653 86 543.365 88.94 529.986 81.49Z" fill="white"/>
</g>
<path d="M563.457 81.14C563.395 81.05 563.333 80.96 563.271 80.89C563.21 80.8 563.179 80.73 563.163 80.67C563.102 80.58 563.071 80.51 563.055 80.45C563.024 80.36 563.009 80.29 562.978 80.2V80.18C561.528 75.43 562.531 57.81 564.089 51.65C564.12 51.61 564.135 51.59 564.135 51.54C564.753 49.13 579.011 49.9 582.236 51.54C582.653 51.76 582.9 52.01 582.869 52.25C582.499 55.84 574.783 79.95 573.564 81.37C572.098 83.07 564.799 82.4 563.472 81.15L563.457 81.14Z" fill="url(#paint15_linear_528_9)"/>
<g style="mix-blend-mode:multiply" opacity="0.8">
<path d="M573.317 53.67C569.213 53.29 565.324 52.58 564.089 51.64C564.12 51.6 564.136 51.58 564.136 51.53C564.753 49.12 579.011 49.89 582.237 51.53C582.422 51.71 582.468 51.89 582.422 52.07C582.098 52.89 579.073 54.19 573.333 53.68L573.317 53.67Z" fill="#D42F55"/>
</g>
<g style="mix-blend-mode:multiply" opacity="0.8">
<path d="M568.858 83.42C565.586 83.23 564.12 82 563.457 81.14C563.395 81.05 563.333 80.96 563.271 80.89C563.21 80.8 563.179 80.73 563.163 80.67C563.102 80.58 563.071 80.51 563.055 80.45C563.009 80.29 562.978 80.2 562.978 80.2V80.18C561.528 75.43 562.531 57.81 564.089 51.65C564.089 51.65 566.512 60.69 565.848 68.78C565.216 76.89 563.441 79.98 564.706 80.9C565.972 81.81 571.944 82.47 573.549 81.37C574.274 80.87 574.12 83.75 568.858 83.43V83.42Z" fill="#D42F55"/>
</g>
<g style="mix-blend-mode:multiply" opacity="0.8">
<path d="M564.969 51.29C564.845 50.76 574.907 48.94 578.394 51.01C581.882 53.08 565.355 53.03 564.969 51.29Z" fill="#D42F55"/>
</g>
<g style="mix-blend-mode:soft-light" opacity="0.5">
<path d="M571.682 54.79C571.944 54.37 579.289 54.11 579.814 55.48C580.339 56.85 574.182 80.35 572.237 80.94C570.293 81.53 569.475 58.24 571.682 54.79Z" fill="white"/>
</g>
<path d="M581.048 53C581.048 53 580.493 53.82 577.638 53.93C575.462 54.02 574.536 53.76 574.536 53.76C574.536 53.76 574.922 53.75 577.746 53.61C578.826 53.56 580.739 52.83 581.064 53H581.048Z" fill="#FFA457"/>
<path d="M583.656 89.62C584.274 88.89 594.165 86.47 595.6 88.06C597.035 89.65 596.109 101.04 594.721 101.59C593.347 102.14 584.598 103.23 584.32 102.3C584.042 101.37 583.008 90.39 583.641 89.62H583.656Z" fill="#FF6500"/>
<path d="M605.923 84.5C606.201 84.27 598.347 85.73 590.014 86.56C580.662 87.5 570.756 87.85 571.774 87.93C586.418 89.07 604.766 85.46 605.939 84.5H605.923Z" fill="#FFA457"/>
<g style="mix-blend-mode:multiply" opacity="0.5">
<path d="M531.699 99.54C528.983 98.94 527.363 98.43 527.224 98.18C526.591 97.05 526.9 90.11 527.162 85.57C535.387 85.51 548.272 86.22 549.353 91.24C550.386 96.06 540.418 98.58 531.699 99.54Z" fill="#D42F55"/>
</g>
<g style="mix-blend-mode:multiply" opacity="0.8">
<path d="M536.73 242.16C536.776 241.87 536.807 241.69 536.807 241.6C536.761 241.75 536.683 242.17 536.591 242.84C536.668 242.59 536.714 242.36 536.73 242.16Z" fill="#D42F55"/>
</g>
<g style="mix-blend-mode:multiply" opacity="0.8">
<path d="M516.129 298.72C516.129 298.72 516.222 298.75 516.253 298.75C524.231 299.38 521.824 300.94 521.685 301.57C521.561 302.2 521.314 306.9 545.248 307.68C569.182 308.46 569.059 302.51 571.111 300.94C571.96 300.28 574.29 300.4 576.728 300.78C574.228 299.95 570.864 299.17 566.296 298.52C566.296 297.61 566.327 296.66 566.343 295.67C565.741 296.68 564.954 297.53 564.028 298.22C558.997 301.98 549.677 301.02 539.616 297.81C539.029 297.62 538.52 297.32 538.042 296.91C529.709 289.79 535.295 250.59 536.576 242.86C536.483 243.15 536.406 243.47 536.267 243.83C531.468 269.06 526.576 289.08 524.755 297.54C522.857 297.72 521.098 297.93 519.478 298.17C518.29 298.34 517.179 298.53 516.129 298.72Z" fill="#D42F55"/>
</g>
<path d="M537.116 298.04C537.116 298.04 540.356 297.61 541.082 296.4C541.807 295.2 543.304 286.98 543.304 286.98L539.523 285.7L537.116 298.04Z" fill="#FFC59F"/>
<path d="M551.328 298.44C551.328 298.44 557.392 296.36 557.994 294.87C558.596 293.38 566.327 270.24 566.327 270.24L562.346 265.38L551.328 298.43V298.44Z" fill="#FFC59F"/>
<path d="M537.116 298.04C537.116 298.04 540.356 297.61 541.082 296.4C541.807 295.2 543.304 286.98 543.304 286.98L539.523 285.7L537.116 298.04Z" fill="#DB6345"/>
<path d="M551.328 298.44C551.328 298.44 557.392 296.36 557.994 294.87C558.596 293.38 566.327 270.24 566.327 270.24L562.346 265.38L551.328 298.43V298.44Z" fill="#DB6345"/>
<path d="M594.088 108.31C593.856 108.39 587.961 110.58 578.24 111.6C578.132 112.25 566.836 112.11 565.355 112.06C545.526 111.44 534.184 107.36 534.184 107.36V107.41C534.184 108.34 534.029 122.63 533.813 141.12V141.14C533.643 156.62 533.443 175.04 533.211 191C532.934 211.67 528.119 242.33 524.122 264.48C521.206 280.58 518.706 292.18 518.706 292.18C518.706 292.18 518.706 296.76 537.116 298.04C538.535 294.41 541.683 286.66 542.285 287.27C542.887 287.86 543.921 294.95 544.384 298.36C546.899 298.43 549.198 298.45 551.328 298.44C552.13 296.3 553.596 292.46 555.247 288.29C558.766 279.4 563.179 268.98 564.028 270.29C564.876 271.61 565.262 281.31 565.432 289.07C565.509 292.72 565.54 295.94 565.555 297.67C577.067 296.2 575.724 293.1 575.724 293.1L594.072 108.57C594.072 108.5 594.072 108.44 594.072 108.37V108.29L594.088 108.31Z" fill="url(#paint16_linear_528_9)"/>
<path d="M593.995 108.06C593.393 106.59 588.656 105.28 585.122 104.49C585.014 105.04 584.937 105.63 584.829 106.24C586.758 106.71 588.023 107.31 588.116 107.97C588.363 109.65 576.604 111.14 573.965 111.4C553.643 113.34 541.699 108.01 541.637 107.19C541.606 106.79 543.442 106 547.316 105.14C547.316 104.44 547.316 103.77 547.316 103.13C539.878 104.22 534.091 106.66 534.153 107.38C534.153 107.38 534.153 107.4 534.153 107.42C534.461 108.59 544.492 114.7 564.599 114.64C583.487 114.58 593.671 110.44 594.057 108.6C594.057 108.53 594.057 108.47 594.057 108.4V108.32C594.057 108.24 594.011 108.15 593.98 108.07L593.995 108.06Z" fill="#FFC59F"/>
<g style="mix-blend-mode:multiply" opacity="0.2">
<path d="M476.07 270.25C474.557 270.45 468.647 270.75 459.496 271.09C459.574 267.65 459.28 265.42 458.416 266.02C457.722 266.51 456.379 268.51 454.759 271.25C445.732 271.58 434.328 271.93 421.304 272.27C420.826 271.08 420.363 270.31 419.977 270.24C419.545 270.16 419.082 271 418.604 272.34C361.601 273.85 275.757 275.37 224.108 274.46C223.26 273.78 222.673 273.54 222.534 273.99C222.488 274.1 222.442 274.25 222.411 274.42C199.773 274 184.033 273.09 180.716 271.48C171.04 266.78 131.413 159.02 154.143 139.61C155.455 138.49 157.692 137.46 160.748 136.51C161.72 139.11 162.522 140.49 162.831 139.29C163.031 138.54 163.355 137.26 163.757 135.68C193.678 128.1 279.661 126.17 357.187 127.66C360.474 140.41 366.199 160.45 368.9 156.2C371.415 152.26 375.442 137.77 377.927 128.15C440.285 129.87 492.874 133.79 499.247 138.67C515.203 150.89 487.643 268.66 476.039 270.23L476.07 270.25Z" fill="#EF7A98"/>
</g>
<g style="mix-blend-mode:multiply" opacity="0.2">
<path d="M129.129 257.42C122.555 244.03 115.611 226.03 113.713 206.97C110.719 177.01 117.339 141.1 120.518 126.23C120.703 143.45 120.997 169.45 121.29 190.99C121.537 209.55 125.456 236.15 129.129 257.42Z" fill="#EF7A98"/>
</g>
<g style="mix-blend-mode:multiply" opacity="0.2">
<path d="M539.06 207.39C536.143 233.15 529.585 252.24 524.091 264.47C528.088 242.32 532.903 211.67 533.18 190.99C533.396 175.02 533.597 156.61 533.782 141.13C538.026 156.97 542.084 180.59 539.06 207.39Z" fill="#EF7A98"/>
</g>
<g style="mix-blend-mode:screen" opacity="0.3">
<path d="M84.0542 291.13C81.7395 288.75 65.691 123.44 70.197 122.19C72.4036 121.58 88.0663 154.58 94.3623 164.58C99.1923 172.25 120.024 287.63 118.204 289.87C114.654 294.26 89.5169 296.76 84.0388 291.12L84.0542 291.13Z" fill="#FF8390"/>
</g>
<g style="mix-blend-mode:screen" opacity="0.3">
<path d="M570.802 288.72C570.2 288.58 568.086 288.89 565.432 289.08C565.262 281.32 564.876 271.62 564.028 270.3C563.179 268.98 558.766 279.41 555.247 288.3C552.902 287.47 551.065 285.99 550.51 283.41C549.26 277.72 543.874 123.36 543.257 121.36C541.961 117.19 578.055 117.6 585.786 119.27C593.532 120.94 573.24 289.31 570.802 288.73V288.72Z" fill="#FF8390"/>
</g>
<path d="M76.6934 114.28C76.6934 114.28 80.15 111.15 80.9987 111.52C81.8474 111.89 81.3536 130.1 80.937 130.26C80.5203 130.42 78.3908 129.76 76.6934 114.28Z" fill="#DB6345"/>
<path d="M154.96 116.76C154.96 116.76 157.522 114.26 158.494 114.52C159.466 114.78 164.451 133.24 164.42 133.58C164.389 133.92 163.494 139.88 162.614 139.74C161.087 139.51 157.846 128.98 154.976 116.77L154.96 116.76Z" fill="#DB6345"/>
<path d="M172.537 118.18C172.537 118.18 176.348 115.98 176.425 116.37C177.197 120.32 178.555 124.79 178.447 124.85C178.323 124.92 176.472 130.68 175.206 130.24C173.432 129.63 172.49 119 172.552 118.17L172.537 118.18Z" fill="#DB6345"/>
<path d="M356.2 123.69C356.2 123.69 362.002 119.37 362.48 120.1C362.959 120.83 364.965 135.28 372.233 149.39C372.588 150.09 369.501 157.53 368.128 157.06C366.755 156.59 358.777 138.35 356.2 123.69Z" fill="#DB6345"/>
<g style="mix-blend-mode:screen" opacity="0.3">
<path d="M78.0204 217.78C68.9622 216.74 84.7947 295.78 93.4825 290.76C102.186 285.75 117.416 222.32 78.0204 217.78Z" fill="#FF8390"/>
</g>
<g style="mix-blend-mode:multiply" opacity="0.3">
<path d="M68.8387 112.98C68.7307 113.03 75.3352 114.41 75.8753 115.43C76.4154 116.45 77.3567 131.6 80.7362 130.84C84.1156 130.08 83.9613 118.19 83.9613 118.19C83.9613 118.19 82.0015 130.6 80.9213 130.25C78.8844 129.6 76.9864 114.41 76.6777 114.27C76.3691 114.13 68.9467 112.92 68.8232 112.98H68.8387Z" fill="#C60055"/>
</g>
<path d="M85.1495 114.52C84.3163 114.45 86.6309 111.6 89.8561 111.21C93.0812 110.82 106.013 109.67 106.985 110.74C107.957 111.81 92.9732 115.2 85.1495 114.52Z" fill="#FFDEC8"/>
<path d="M560.54 111.91C562.207 111.7 568.811 112.58 576.666 111.44C584.52 110.3 585.786 108.82 587.776 108.74C589.767 108.66 593.1 109.01 592.375 109.84C591.65 110.66 584.042 113.6 574.799 114.23C565.555 114.86 551.42 113.06 560.54 111.92V111.91Z" fill="#FFDEC8"/>
<path d="M181.271 118.74C180.746 118.68 182.906 116.78 183.987 116.76C185.067 116.74 211.022 117.82 211.624 118.44C212.226 119.07 210.837 120.24 210.173 120.24C209.51 120.24 183.771 119.03 181.255 118.73L181.271 118.74Z" fill="#FFDEC8"/>
<path d="M381.368 122.69C380.534 122.59 382.093 119.37 384.824 119.04C387.556 118.71 425.1 117.21 425.223 118.44C425.347 119.67 417.569 121.02 412.971 121.39C408.372 121.76 389.454 123.66 381.352 122.7L381.368 122.69Z" fill="#FFDEC8"/>
<g style="mix-blend-mode:multiply" opacity="0.3">
<path d="M135.595 114.92C135.595 114.92 150.887 117.39 152.816 119.74C154.745 122.09 160.547 149.5 163.926 144.09C167.306 138.69 168.216 117.84 168.216 117.84C168.216 117.84 163.51 138.77 162.877 138.74C159.621 138.61 157.044 117.81 154.945 116.76C152.847 115.71 135.579 114.92 135.579 114.92H135.595Z" fill="#C60055"/>
</g>
<g style="mix-blend-mode:multiply" opacity="0.3">
<path d="M168.741 117.86C168.802 117.92 170.731 118.27 171.241 119.7C171.75 121.13 171.812 135.44 175.191 133.91C178.57 132.38 180.144 118.74 180.144 118.74C180.144 118.74 177.043 130.19 175.5 129.68C173.956 129.17 173.278 118.3 172.537 118.17C171.796 118.04 168.741 117.85 168.741 117.85V117.86Z" fill="#C60055"/>
</g>
<g style="mix-blend-mode:multiply" opacity="0.3">
<path d="M327.189 123.97C327.76 124.07 350.953 124.86 352.728 126.95C354.502 129.04 358.36 165.84 369.486 160.57C380.597 155.3 379.254 123.12 379.254 123.12C379.254 123.12 373.035 155.46 368.529 155.25C364.023 155.04 358.298 124.11 356.2 123.71C354.101 123.31 327.204 123.98 327.204 123.98L327.189 123.97Z" fill="#C60055"/>
</g>
<g style="mix-blend-mode:multiply" opacity="0.3">
<path d="M189.496 284.85C189.496 284.85 218.383 282.34 219.34 280.93C220.312 279.52 220.42 272.47 222.549 272.82C224.663 273.17 230.712 281.43 230.712 281.43C230.712 281.43 223.66 272.77 222.812 274.06C221.978 275.35 221.901 282.02 221.191 282.12C220.482 282.22 189.496 284.84 189.496 284.84V284.85Z" fill="#C60055"/>
</g>
<g style="mix-blend-mode:multiply" opacity="0.3">
<path d="M389.068 281.16C389.068 281.16 412.277 282.62 413.635 281.06C414.993 279.5 416.212 266.7 419.838 267.64C423.465 268.58 424.529 283.49 424.529 283.49C424.529 283.49 421.459 270.38 420.008 270.82C417.369 271.63 417.74 282.92 416.289 282.93C414.839 282.94 389.068 281.16 389.068 281.16Z" fill="#C60055"/>
</g>
<g style="mix-blend-mode:multiply" opacity="0.3">
<path d="M433.047 284.07C433.047 284.07 443.556 283.99 444.713 282.9C445.855 281.8 455.469 260.19 459.389 263.09C463.323 265.99 458.139 286.06 458.139 286.06C458.139 286.06 460.067 266.65 458.663 267C457.259 267.35 448.031 284.85 447.244 285.18C446.457 285.52 433.047 284.07 433.047 284.07Z" fill="#C60055"/>
</g>
<g style="mix-blend-mode:multiply" opacity="0.2">
<path d="M183.632 217.78C183.909 219.61 179.666 228.13 175.006 234.54C171.703 239.11 168.2 242.61 165.994 241.9C163.772 241.18 161.102 239.63 158.618 237.58C153.201 233.14 148.618 226.39 151.272 220.92C155.13 212.93 183.169 214.65 183.647 217.78H183.632Z" fill="#C60055"/>
</g>
<g style="mix-blend-mode:multiply" opacity="0.2">
<path d="M191.502 211.53C190.885 212.7 189.696 213.88 187.86 214.96C186.687 215.65 184.619 214.72 182.829 213.17C179.635 210.41 177.32 205.65 182.428 204.55C188.678 203.2 193.739 207.29 191.502 211.53Z" fill="#C60055"/>
</g>
<g style="mix-blend-mode:multiply" opacity="0.2">
<path d="M192.211 241.59C189.789 242.5 195.236 251.77 195.467 247.93C195.714 244.09 195.344 240.41 192.211 241.59Z" fill="#C60055"/>
</g>
<g style="mix-blend-mode:multiply" opacity="0.2">
<path d="M386.167 170.48C382.85 172.63 390.04 186.46 397.046 179.09C404.052 171.73 389.068 168.6 386.167 170.48Z" fill="#C60055"/>
</g>
<g style="mix-blend-mode:multiply" opacity="0.2">
<path d="M390.272 159.52C385.133 160.35 389.546 166.41 392.201 164.85C394.855 163.29 396.074 158.59 390.272 159.52Z" fill="#C60055"/>
</g>
<g style="mix-blend-mode:multiply" opacity="0.2">
<path d="M478.801 213.24C472.921 212.31 466.394 223.58 477.828 222.95C489.263 222.32 486.686 214.49 478.801 213.24Z" fill="#C60055"/>
</g>
<g style="mix-blend-mode:multiply" opacity="0.2">
<path d="M555.88 252.6C555.031 255.84 553.457 258.8 550.973 260.85C550.062 261.6 548.442 261.4 546.606 260.57C542.069 258.46 536.406 252.26 538.257 246.44C540.819 238.3 548.241 230.68 552.578 232.66C555.71 234.09 558.087 244.27 555.864 252.6H555.88Z" fill="#C60055"/>
</g>
<g style="mix-blend-mode:multiply" opacity="0.2">
<path d="M95.7356 133.88C90.7822 133.67 90.9056 141.97 94.0382 141.66C97.1861 141.35 99.362 134.04 95.7356 133.88Z" fill="#C60055"/>
</g>
<g style="mix-blend-mode:multiply" opacity="0.2">
<path d="M97.1091 129.6C94.9795 131.23 101.214 133.52 101.461 131.79C101.708 130.07 99.7632 127.56 97.1091 129.6Z" fill="#C60055"/>
</g>
<g style="mix-blend-mode:multiply" opacity="0.2">
<path d="M183.632 217.78C183.91 219.61 179.666 228.13 175.006 234.54C173.679 231.93 181.317 220.35 180.731 218.1C180.098 215.65 168.494 214.96 156.797 218.25C145.115 221.54 158.88 237.41 158.88 237.41C158.88 237.41 158.772 237.49 158.587 237.58C153.171 233.14 148.587 226.39 151.242 220.92C155.099 212.93 183.138 214.65 183.616 217.78H183.632Z" fill="#C60055"/>
</g>
<g style="mix-blend-mode:multiply" opacity="0.2">
<path d="M191.502 211.53C191.409 211.37 191.363 211.18 191.332 210.97C191.039 209.31 190.036 205.26 183.586 205.1C177.151 204.95 183.107 213.01 183.107 213.01C183.107 213.01 182.999 213.09 182.829 213.17C179.635 210.41 177.32 205.65 182.428 204.55C188.678 203.2 193.739 207.29 191.502 211.53Z" fill="#C60055"/>
</g>
<g style="mix-blend-mode:multiply" opacity="0.2">
<path d="M555.88 252.6H555.818C553.395 252.54 553.966 234.69 550.17 233.91C546.389 233.13 540.495 241.53 539.615 247.95C538.736 254.38 546.297 259.7 546.945 260.02C547.3 260.19 547.068 260.43 546.59 260.57C542.053 258.46 536.39 252.26 538.242 246.44C540.803 238.3 548.226 230.68 552.562 232.66C555.694 234.09 558.071 244.27 555.849 252.6H555.88Z" fill="#C60055"/>
</g>
<g style="mix-blend-mode:multiply" opacity="0.1">
<path d="M190.73 267.11C191.795 262.11 279.676 194.02 351.2 202.79C422.739 211.56 481.393 257.5 471.718 263.35C462.058 269.2 188.138 279.22 190.73 267.11Z" fill="#EF7A98"/>
</g>
<g filter="url(#filter0_i_528_9)">
<path d="M190.128 202.048C190.128 202.096 190.128 202.144 190.08 202.24C190.368 202.288 190.656 202.384 190.944 202.384C192.384 202.576 193.776 203.056 195.12 203.632C198.096 204.928 198.72 207.808 198.336 209.968C197.904 212.128 196.848 214 195.168 215.44C192.192 217.984 188.736 219.328 184.992 219.952C181.968 220.432 178.896 220.528 175.824 220.384C175.296 220.384 174.72 220.384 174.528 219.76C174.384 219.28 174.672 218.944 175.536 218.608C176.976 218.08 177.744 216.832 178.512 215.632C179.28 214.48 179.616 213.184 179.712 211.792C179.712 210.64 179.712 209.536 179.712 208.384C179.712 203.008 179.712 197.632 179.712 192.256C179.712 191.968 179.712 191.632 179.712 191.344C179.664 190.384 179.184 189.712 178.32 189.328C177.936 189.136 177.456 188.992 177.024 188.848C176.592 188.704 176.208 188.512 176.208 187.984C176.208 187.552 176.496 187.264 177.216 187.216C180.96 186.88 184.752 186.736 188.496 187.648C190.368 188.08 191.952 189.088 193.152 190.528C194.88 192.64 195.168 194.944 194.16 197.44C193.44 199.168 192.192 200.368 190.8 201.472C190.56 201.664 190.368 201.856 190.128 202.048ZM186 204.4C186.144 208.624 186.48 212.848 186.864 217.168C188.064 216.4 189.648 214.576 190.368 213.136C191.088 211.744 191.664 210.256 191.616 208.576C191.52 205.648 188.832 203.584 186 204.4ZM187.296 189.952C187.008 189.664 186.672 189.472 186.192 189.136C185.664 192.112 185.568 201.184 186.048 202.384C186.816 201.904 187.392 201.232 187.824 200.416C188.592 199.024 189.168 197.536 189.36 195.952C189.648 193.648 188.976 191.632 187.296 189.952ZM217.554 215.392C217.938 215.44 218.226 215.68 218.274 216.064C218.274 216.496 218.034 216.736 217.602 216.88C217.506 216.928 217.41 216.928 217.266 216.976C215.394 217.312 213.522 217.648 211.65 217.984C211.266 218.08 210.834 218.128 210.45 218.128C209.394 218.224 208.626 217.792 208.098 216.88C207.714 217.216 207.378 217.504 206.994 217.792C205.074 219.136 202.674 218.992 201.042 217.36C199.842 216.208 199.314 214.768 199.17 213.184C198.834 210.016 199.938 207.28 202.434 205.024C203.826 203.728 205.602 203.104 207.666 203.344C208.194 203.392 208.722 203.584 209.346 203.728C209.346 203.392 209.346 203.056 209.298 202.768C209.01 201.232 208.722 199.744 207.762 198.4C206.802 197.104 205.602 196.96 204.402 198.112C203.586 198.976 202.914 199.936 202.338 200.944C201.858 201.808 201.57 202.768 201.186 203.728C201.09 203.872 201.09 204.064 200.994 204.208C200.802 204.592 200.514 204.88 199.986 204.832C199.458 204.784 199.218 204.448 199.17 204.016C198.93 201.376 198.546 198.784 198.834 196.144C198.882 195.904 198.882 195.664 198.93 195.472C199.074 194.992 199.41 194.704 199.938 194.656C200.514 194.608 200.802 194.944 200.946 195.424C201.042 195.808 201.186 196.192 201.33 196.528C201.714 197.248 202.05 197.344 202.818 196.912C203.538 196.528 204.21 196.144 204.882 195.76C208.818 193.36 212.802 194.992 214.578 198.112C215.49 199.696 215.922 201.424 215.874 203.2C215.73 205.888 215.442 208.576 215.25 211.264C215.154 212.08 215.106 212.896 215.202 213.712C215.346 214.768 215.778 215.104 216.93 215.296C217.122 215.296 217.362 215.344 217.554 215.392ZM208.05 213.712C208.914 211.696 208.914 209.536 208.722 207.424C208.674 207.04 208.53 206.704 208.338 206.368C207.858 205.552 207.138 205.456 206.37 206.128C206.13 206.368 205.89 206.656 205.65 206.992C204.546 208.72 203.922 210.592 203.778 212.56C203.682 214.096 203.874 215.632 205.17 217.072C205.65 216.688 206.226 216.4 206.562 216.016C207.138 215.296 207.714 214.528 208.05 213.712ZM236.326 200.272C236.998 202.864 236.71 205.456 236.086 208.048C235.798 209.104 235.51 210.16 235.126 211.168C234.79 212.032 234.406 212.896 233.878 213.664C232.63 215.584 230.518 216.016 228.598 214.768C227.83 214.288 227.206 213.664 226.534 213.04C226.198 212.704 225.91 212.272 225.574 211.888C225.526 211.936 225.43 211.936 225.382 211.984C225.43 212.416 225.382 212.896 225.478 213.328C225.718 214.24 226.054 214.528 227.014 214.576C227.158 214.576 227.302 214.576 227.398 214.576C228.214 214.72 228.502 215.488 227.926 216.016C227.542 216.4 227.014 216.688 226.486 216.88C224.23 217.744 221.926 218.512 219.67 219.328C219.334 219.424 219.046 219.616 218.71 219.616C218.422 219.568 218.086 219.376 217.942 219.136C217.798 218.944 217.99 218.608 218.038 218.32C218.086 218.272 218.134 218.224 218.182 218.176C219.766 217.168 219.958 215.488 220.198 213.808C220.63 210.448 220.678 206.992 220.774 203.584C220.822 200.08 220.918 196.624 220.966 193.12C220.966 192.736 220.966 192.304 220.966 191.92C220.966 190.96 220.534 190.288 219.574 189.952C219.382 189.904 219.19 189.856 218.998 189.76C218.662 189.616 218.422 189.328 218.47 188.896C218.566 188.464 218.902 188.224 219.334 188.224C219.814 188.272 220.246 188.368 220.726 188.368C222.886 188.512 225.094 188.656 227.254 188.8C227.782 188.848 228.262 188.896 228.742 188.944C229.174 188.992 229.414 189.28 229.414 189.712C229.414 190.048 229.222 190.336 228.886 190.432C228.742 190.48 228.646 190.528 228.502 190.576C227.638 190.72 227.11 191.344 226.822 192.112C226.582 193.024 226.294 193.888 226.198 194.848C226.006 196.24 226.006 197.68 225.91 199.12C225.91 199.216 225.91 199.36 225.958 199.552C226.438 199.024 226.87 198.592 227.302 198.16C228.838 196.432 230.758 195.904 232.966 196.24C233.926 196.384 234.742 196.864 235.222 197.728C235.702 198.496 236.134 199.36 236.326 200.272ZM231.046 207.232C231.286 205.456 231.526 203.632 231.142 201.808C230.998 201.04 230.806 200.272 230.47 199.552C230.038 198.688 229.318 198.592 228.598 199.168C228.214 199.456 227.878 199.792 227.59 200.128C226.342 201.712 225.67 203.536 225.958 205.552C225.958 206.272 225.91 206.896 225.958 207.568C226.006 208.624 226.342 209.584 226.87 210.496C227.542 211.744 228.982 211.936 229.942 210.88C230.23 210.592 230.47 210.208 230.566 209.776C230.806 208.96 230.95 208.096 231.046 207.232ZM256.132 215.392C256.516 215.44 256.804 215.68 256.852 216.064C256.852 216.496 256.612 216.736 256.18 216.88C256.084 216.928 255.988 216.928 255.844 216.976C253.972 217.312 252.1 217.648 250.228 217.984C249.844 218.08 249.412 218.128 249.028 218.128C247.972 218.224 247.204 217.792 246.676 216.88C246.292 217.216 245.956 217.504 245.572 217.792C243.652 219.136 241.252 218.992 239.62 217.36C238.42 216.208 237.892 214.768 237.748 213.184C237.412 210.016 238.516 207.28 241.012 205.024C242.404 203.728 244.18 203.104 246.244 203.344C246.772 203.392 247.3 203.584 247.924 203.728C247.924 203.392 247.924 203.056 247.876 202.768C247.588 201.232 247.3 199.744 246.34 198.4C245.38 197.104 244.18 196.96 242.98 198.112C242.164 198.976 241.492 199.936 240.916 200.944C240.436 201.808 240.148 202.768 239.764 203.728C239.668 203.872 239.668 204.064 239.572 204.208C239.38 204.592 239.092 204.88 238.564 204.832C238.036 204.784 237.796 204.448 237.748 204.016C237.508 201.376 237.124 198.784 237.412 196.144C237.46 195.904 237.46 195.664 237.508 195.472C237.652 194.992 237.988 194.704 238.516 194.656C239.092 194.608 239.38 194.944 239.524 195.424C239.62 195.808 239.764 196.192 239.908 196.528C240.292 197.248 240.628 197.344 241.396 196.912C242.116 196.528 242.788 196.144 243.46 195.76C247.396 193.36 251.38 194.992 253.156 198.112C254.068 199.696 254.5 201.424 254.452 203.2C254.308 205.888 254.02 208.576 253.828 211.264C253.732 212.08 253.684 212.896 253.78 213.712C253.924 214.768 254.356 215.104 255.508 215.296C255.7 215.296 255.94 215.344 256.132 215.392ZM246.628 213.712C247.492 211.696 247.492 209.536 247.3 207.424C247.252 207.04 247.108 206.704 246.916 206.368C246.436 205.552 245.716 205.456 244.948 206.128C244.708 206.368 244.468 206.656 244.228 206.992C243.124 208.72 242.5 210.592 242.356 212.56C242.26 214.096 242.452 215.632 243.748 217.072C244.228 216.688 244.804 216.4 245.14 216.016C245.716 215.296 246.292 214.528 246.628 213.712ZM274.616 212.896C275.048 213.376 274.856 214.048 274.232 214.192C273.896 214.24 273.56 214.24 273.224 214.24C271.064 214.336 268.856 214.432 266.648 214.528C266.216 214.576 265.832 214.528 265.64 214.096C265.448 213.664 265.64 213.28 266.024 213.088C267.224 212.416 267.32 211.36 267.128 210.208C266.888 208.432 266.312 206.752 265.448 205.216C265.304 204.976 265.16 204.784 265.016 204.592C264.536 204.88 264.44 205.264 264.44 205.696C264.488 206.272 264.44 206.896 264.44 207.472C264.488 209.728 264.488 212.032 264.536 214.336C264.536 215.44 264.92 216.4 266.12 216.928C266.36 217.024 266.648 217.36 266.696 217.6C266.792 217.984 266.504 218.272 266.12 218.416C264.776 218.992 263.384 219.568 261.992 220.144C260.696 220.672 259.352 221.2 258.008 221.68C257.432 221.92 256.856 222.112 256.232 222.304C255.8 222.448 255.368 222.4 255.128 221.92C254.888 221.488 255.08 221.056 255.512 220.816C257.432 219.856 257.912 218.128 258.056 216.256C258.2 213.952 258.344 211.6 258.44 209.296C258.536 204.976 258.632 200.608 258.68 196.288C258.728 194.608 258.536 192.928 258.44 191.296C258.44 191.008 258.344 190.72 258.248 190.432C257.912 189.376 257.432 188.416 256.28 187.984C255.896 187.84 255.656 187.504 255.752 187.072C255.848 186.64 256.232 186.448 256.76 186.544C257.576 186.688 258.392 186.832 259.208 187.072C262.088 187.936 265.016 188.512 267.944 188.944C268.232 188.992 268.52 189.04 268.856 189.088C269.288 189.184 269.576 189.472 269.576 189.904C269.576 190.288 269.24 190.624 268.712 190.672C268.424 190.72 268.184 190.672 267.896 190.72C267.032 190.816 266.216 191.104 265.592 191.728C265.112 192.16 264.872 192.64 264.824 193.264C264.728 196.048 264.632 198.832 264.536 201.616C264.536 201.712 264.584 201.856 264.632 202.144C265.976 200.416 267.272 198.88 268.04 196.864C267.752 196.768 267.56 196.624 267.32 196.528C266.936 196.336 266.648 196.096 266.744 195.616C266.792 195.184 267.176 194.992 267.752 194.992C267.752 194.992 267.8 194.992 267.848 194.992C269.384 195.328 270.872 195.04 272.408 194.848C272.744 194.8 273.032 194.752 273.368 194.752C273.8 194.752 274.088 194.896 274.184 195.328C274.28 195.76 274.088 196.048 273.752 196.24C273.608 196.288 273.512 196.336 273.368 196.384C271.88 196.912 270.632 197.872 269.576 199.024C268.712 199.888 267.848 200.848 267.032 201.712C268.328 204.544 269.576 207.28 271.352 209.776C272.168 210.832 273.08 211.744 274.136 212.512C274.328 212.656 274.472 212.752 274.616 212.896ZM306.053 209.776C304.085 211.792 301.637 212.896 298.565 212.944C298.565 214.576 298.661 216.16 299.237 217.648C299.381 217.984 299.765 218.32 300.101 218.512C300.677 218.944 300.917 219.184 300.773 219.568C300.581 220.048 300.149 220.096 299.717 220.096C296.789 219.904 294.005 220.432 291.221 221.008C290.789 221.104 290.405 221.248 289.973 221.392C289.541 221.488 289.157 221.488 288.917 221.104C288.677 220.768 288.821 220.432 289.061 220.144C289.205 220 289.349 219.856 289.493 219.712C290.405 218.704 291.029 217.6 291.173 216.256C291.413 214.144 291.701 211.984 291.749 209.824C291.893 203.584 291.941 197.344 291.989 191.152C292.037 190.192 291.461 189.568 290.357 189.232C290.021 189.184 289.685 189.136 289.397 189.088C288.917 189.04 288.629 188.848 288.581 188.368C288.533 187.936 288.821 187.648 289.397 187.552C290.741 187.312 292.085 187.12 293.429 186.976C295.109 186.736 296.837 186.496 298.565 186.4C301.445 186.256 304.229 186.784 306.581 188.512C308.693 190.096 309.893 192.304 310.469 194.8C311.765 200.512 310.133 205.504 306.053 209.776ZM299.813 188.752C299.429 189.856 298.277 208.528 298.517 210.16C298.613 210.112 298.709 210.112 298.757 210.064C298.853 210.016 298.997 209.92 299.093 209.824C300.821 208.288 302.261 206.464 303.125 204.304C304.181 201.424 304.565 198.496 304.373 195.424C304.277 193.216 303.269 191.344 301.637 189.808C301.157 189.328 300.533 188.896 299.813 188.752ZM324.917 197.152C325.637 198.736 325.925 200.416 325.925 202.192C325.925 202.528 325.925 202.864 325.925 203.152C325.925 203.92 325.685 204.208 324.965 204.256C324.005 204.304 323.045 204.304 322.037 204.352C320.309 204.448 318.533 204.544 316.613 204.688C316.661 206.272 316.613 207.76 316.757 209.248C316.805 209.872 317.045 210.544 317.333 211.12C318.053 212.512 319.541 212.752 320.645 211.6C321.269 210.88 321.797 210.064 322.277 209.248C322.517 208.864 322.661 208.384 322.853 207.952C323.093 207.424 323.189 206.752 324.005 206.8C324.533 206.848 324.773 207.28 324.821 208.336C324.917 210.064 324.965 211.84 325.061 213.616C325.109 214.144 325.109 214.672 325.157 215.2C325.205 215.632 325.061 215.968 324.629 216.16C324.197 216.304 323.909 216.112 323.669 215.776C323.093 215.008 322.229 214.624 321.365 214.336C320.981 214.192 320.693 214.24 320.453 214.528C320.117 214.816 319.733 215.152 319.445 215.488C317.381 217.6 314.549 216.592 313.301 215.056C312.581 214.144 312.053 213.136 311.813 212.032C311.141 208.864 310.901 205.648 311.381 202.432C311.573 201.04 312.005 199.744 312.581 198.544C313.685 196.432 315.317 194.992 317.525 194.128C319.637 193.264 323.765 194.416 324.917 197.152ZM316.997 202.48C318.485 202.432 319.877 202.384 321.365 202.336C321.173 200.464 321.029 198.688 320.261 197.056C320.165 196.864 320.021 196.72 319.925 196.528C319.589 196.192 319.349 196.144 319.013 196.528C318.869 196.672 318.725 196.912 318.629 197.104C317.717 198.736 317.333 200.56 316.997 202.48ZM350.089 213.664C350.569 214.096 350.473 214.768 349.849 215.008C349.753 215.056 349.657 215.104 349.561 215.104C347.737 215.152 346.105 215.968 344.473 216.736C343.465 217.168 342.409 217.6 341.353 218.032C340.921 218.224 340.489 218.272 340.153 217.888C339.865 217.504 339.961 217.12 340.153 216.784C341.401 214.576 341.833 212.128 341.881 209.68C342.025 206.56 341.929 203.392 341.353 200.32C341.257 199.696 341.017 199.072 340.729 198.544C340.249 197.776 339.481 197.632 338.761 198.112C338.233 198.448 337.705 198.88 337.321 199.36C336.409 200.608 335.689 202.048 335.257 203.536C335.161 203.92 335.113 204.352 335.113 204.736C334.969 208.24 334.873 211.792 335.161 215.296C335.209 215.632 335.257 215.968 335.257 216.304C335.353 217.024 335.689 217.552 336.505 217.552C336.553 217.552 336.601 217.552 336.601 217.6C337.273 217.744 337.561 217.984 337.561 218.416C337.513 218.896 337.081 219.184 336.457 219.184C333.721 219.184 330.985 219.04 328.297 218.56C327.769 218.464 327.241 218.464 326.713 218.416C326.089 218.32 325.753 218.032 325.705 217.6C325.657 217.072 325.993 216.784 326.425 216.64C328.201 216.064 328.873 214.768 329.065 213.04C329.161 211.936 329.353 210.832 329.353 209.776C329.401 206.512 329.401 203.248 329.353 199.984C329.353 199.12 329.161 198.256 328.969 197.44C328.777 196.672 328.345 196.048 327.481 195.808C327.001 195.712 326.713 195.472 326.761 194.896C326.809 194.368 327.241 194.272 327.673 194.224C329.689 193.984 331.705 193.744 333.721 193.504C334.489 193.408 335.257 193.168 336.073 192.976C336.361 192.928 336.745 192.832 337.033 192.928C337.273 192.976 337.609 193.216 337.657 193.456C337.705 193.696 337.513 193.984 337.369 194.224C337.321 194.32 337.177 194.416 337.033 194.416C336.025 194.656 335.593 195.376 335.497 196.384C335.449 197.056 335.353 197.776 335.305 198.448C335.401 198.496 335.449 198.496 335.545 198.544C335.785 198.16 335.977 197.728 336.217 197.344C336.889 196.24 337.657 195.28 338.665 194.464C340.345 193.168 342.265 193.12 344.041 194.224C345.481 195.184 346.393 196.576 346.969 198.16C347.641 200.08 347.833 202.048 347.881 204.064C347.977 205.6 347.929 207.184 347.929 208.768C347.977 209.584 348.025 210.4 348.169 211.216C348.265 212.224 348.745 212.992 349.657 213.424C349.801 213.472 349.993 213.568 350.089 213.664ZM368.222 194.944C368.606 194.992 368.846 195.232 368.846 195.616C368.846 195.952 368.654 196.192 368.318 196.24C367.022 196.48 366.398 197.44 365.966 198.544C364.526 201.952 363.182 205.36 361.79 208.768C361.406 209.68 361.118 210.592 360.734 211.504C359.87 213.424 359.342 215.488 358.814 217.552C358.574 218.464 358.526 219.424 358.862 220.336C359.054 220.864 359.294 221.344 360.014 221.392C360.542 221.44 360.782 221.776 360.734 222.16C360.686 222.592 360.398 222.784 360.014 222.832C356.942 223.456 353.822 221.392 353.342 218.416C353.15 217.216 353.342 216.112 353.63 214.96C354.206 212.848 354.926 210.736 355.886 208.768C356.078 208.24 356.318 207.76 356.462 207.424C355.454 205.888 354.494 204.544 353.63 203.152C352.43 201.232 351.278 199.312 349.598 197.728C349.31 197.44 348.878 197.248 348.542 197.104C348.158 196.96 347.822 196.816 347.87 196.336C347.918 195.904 348.206 195.664 348.638 195.616C349.262 195.52 349.934 195.52 350.558 195.472C352.142 195.376 353.726 195.28 355.358 195.232C355.646 195.184 355.982 195.184 356.27 195.28C356.51 195.376 356.798 195.616 356.846 195.856C356.894 196.096 356.702 196.528 356.558 196.624C355.454 197.104 355.406 198.064 355.55 199.024C355.79 200.992 356.558 202.768 357.422 204.688C357.518 204.544 357.614 204.448 357.662 204.352C358.382 202.864 359.15 201.376 359.774 199.84C360.158 198.88 360.302 197.824 360.542 196.768C360.638 196.144 360.398 195.568 359.822 195.232C359.822 195.184 359.774 195.184 359.774 195.184C359.15 194.704 359.006 194.368 359.246 193.984C359.438 193.648 359.822 193.504 360.446 193.744C362.75 194.608 365.15 194.656 367.502 194.848C367.742 194.848 367.982 194.896 368.222 194.944ZM377.968 198.256C377.824 199.024 377.68 199.792 377.632 200.512C377.44 203.968 377.248 207.424 377.056 210.88C377.056 211.504 377.152 212.128 377.248 212.752C377.392 213.616 377.824 214.336 378.592 214.768C378.784 214.912 379.024 215.008 379.12 215.2C379.312 215.488 379.504 215.872 379.456 216.16C379.36 216.448 378.976 216.688 378.688 216.832C378.4 216.976 378.016 216.928 377.68 216.928C375.376 217.072 373.072 217.168 370.72 217.264C370.192 217.312 369.664 217.408 369.136 217.456C368.752 217.504 368.416 217.408 368.224 216.976C368.08 216.592 368.224 216.256 368.56 216.016C370.288 214.624 370.96 212.752 371.2 210.64C371.488 208.048 371.728 205.408 372.016 202.576C371.968 201.808 371.92 200.8 371.824 199.792C371.728 198.784 371.152 198.112 370.192 197.728C370.048 197.68 369.952 197.632 369.808 197.584C369.424 197.392 369.136 197.152 369.184 196.672C369.232 196.192 369.568 195.952 369.952 195.856C370.528 195.712 371.104 195.616 371.728 195.568C373.936 195.424 376.144 195.328 378.4 195.184C378.736 195.184 379.072 195.088 379.36 195.184C379.6 195.28 379.936 195.52 379.984 195.76C380.032 195.952 379.888 196.336 379.696 196.528C379.552 196.72 379.264 196.816 379.024 196.912C378.448 197.2 378.064 197.632 377.968 198.256ZM374.704 193.36C373.84 193.408 373.024 193.168 372.4 192.496C370.912 191.056 370.864 188.176 372.304 186.64C373.024 185.872 373.936 185.92 374.8 185.824C377.248 185.824 378.736 187.648 378.208 190C377.776 191.968 376.48 193.216 374.704 193.36ZM398.616 212.368C398.808 214.096 397.896 216.112 395.88 216.832C394.152 217.36 392.424 217.6 390.648 217.696C389.016 217.744 387.336 217.792 385.704 217.984C384.024 218.176 382.488 218.848 381.096 219.808C380.76 220.048 380.376 220.192 379.992 219.904C379.656 219.616 379.704 219.232 379.848 218.896C380.136 218.224 380.424 217.552 380.76 216.88C381.672 215.104 382.632 213.376 383.592 211.6C383.64 211.456 383.736 211.312 383.832 211.216C384.072 211.072 384.36 210.88 384.552 210.928C384.744 211.024 384.984 211.312 385.08 211.552C385.176 211.696 385.08 211.936 385.08 212.128C385.08 213.424 385.608 214.24 386.856 214.576C387.864 214.864 388.92 214.96 389.832 215.152C390.504 215.056 391.08 215.056 391.56 214.912C392.376 214.72 392.76 214.048 392.52 213.232C392.28 212.464 391.944 211.792 391.272 211.36C390.456 210.784 389.64 210.208 388.776 209.68C387.24 208.816 385.656 207.952 384.312 206.752C383.352 205.888 382.536 204.976 382.104 203.728C381.768 202.72 381.72 201.76 382.152 200.8C383.256 197.968 385.224 196.192 388.344 195.808C389.592 195.664 390.84 196.048 391.992 196.528C392.952 196.96 393.912 197.008 394.92 196.672C395.688 196.432 396.264 196 396.552 195.184C396.6 194.992 396.696 194.8 396.792 194.656C397.128 194.272 397.656 194.32 397.896 194.752C398.04 195.04 398.088 195.328 398.088 195.616C398.184 197.152 398.232 198.688 398.328 200.224C398.328 200.848 398.424 201.472 398.472 202.096C398.472 202.336 398.472 202.624 398.472 202.864C398.472 203.248 398.328 203.584 397.944 203.584C397.704 203.584 397.368 203.44 397.176 203.248C396.84 202.816 396.6 202.288 396.264 201.808C394.824 199.792 392.76 199.312 390.456 199.504C389.64 199.6 388.776 199.888 388.536 200.848C388.296 201.76 388.728 202.576 389.448 203.104C390.216 203.728 391.08 204.256 391.944 204.784C392.808 205.312 393.768 205.744 394.632 206.272C396.888 207.664 398.376 209.584 398.616 212.368ZM408.484 198.256C408.34 199.024 408.196 199.792 408.148 200.512C407.956 203.968 407.764 207.424 407.572 210.88C407.572 211.504 407.668 212.128 407.764 212.752C407.908 213.616 408.34 214.336 409.108 214.768C409.3 214.912 409.54 215.008 409.636 215.2C409.828 215.488 410.02 215.872 409.972 216.16C409.876 216.448 409.492 216.688 409.204 216.832C408.916 216.976 408.532 216.928 408.196 216.928C405.892 217.072 403.588 217.168 401.236 217.264C400.708 217.312 400.18 217.408 399.652 217.456C399.268 217.504 398.932 217.408 398.74 216.976C398.596 216.592 398.74 216.256 399.076 216.016C400.804 214.624 401.476 212.752 401.716 210.64C402.004 208.048 402.244 205.408 402.532 202.576C402.484 201.808 402.436 200.8 402.34 199.792C402.244 198.784 401.668 198.112 400.708 197.728C400.564 197.68 400.468 197.632 400.324 197.584C399.94 197.392 399.652 197.152 399.7 196.672C399.748 196.192 400.084 195.952 400.468 195.856C401.044 195.712 401.62 195.616 402.244 195.568C404.452 195.424 406.66 195.328 408.916 195.184C409.252 195.184 409.588 195.088 409.876 195.184C410.116 195.28 410.452 195.52 410.5 195.76C410.548 195.952 410.404 196.336 410.212 196.528C410.068 196.72 409.78 196.816 409.54 196.912C408.964 197.2 408.58 197.632 408.484 198.256ZM405.22 193.36C404.356 193.408 403.54 193.168 402.916 192.496C401.428 191.056 401.38 188.176 402.82 186.64C403.54 185.872 404.452 185.92 405.316 185.824C407.764 185.824 409.252 187.648 408.724 190C408.292 191.968 406.996 193.216 405.22 193.36ZM432.78 221.2C433.068 221.488 433.212 221.872 432.924 222.16C432.732 222.4 432.348 222.544 432.06 222.544C431.532 222.544 431.052 222.4 430.524 222.256C428.028 221.776 425.58 221.2 423.036 221.248C422.844 221.248 422.7 221.248 422.556 221.2C422.124 221.104 421.788 220.864 421.836 220.48C421.836 220.192 422.076 219.904 422.268 219.664C422.364 219.52 422.604 219.424 422.796 219.376C423.9 219.04 424.38 218.128 424.524 217.072C424.716 215.824 424.86 214.624 424.86 213.376C424.86 210.688 424.86 208 424.716 205.312C424.668 204.112 424.38 202.96 424.14 201.808C423.996 201.28 423.708 200.8 423.42 200.368C423.132 199.936 422.652 199.792 422.22 200.08C421.692 200.368 421.164 200.704 420.828 201.136C420.204 201.952 419.724 202.864 419.196 203.776C419.052 204.064 419.004 204.4 419.004 204.736C418.908 206.8 418.812 208.864 418.812 210.88C418.812 212.08 418.956 213.232 419.148 214.384C419.34 215.584 419.916 216.64 421.212 217.072C421.548 217.168 421.788 217.408 421.74 217.792C421.74 218.176 421.548 218.464 421.164 218.512C420.3 218.752 419.436 218.944 418.572 219.088C416.556 219.376 414.54 219.616 412.524 219.904C412.092 219.952 411.708 220.048 411.276 220.096C410.892 220.144 410.604 220 410.46 219.664C410.268 219.28 410.364 218.944 410.652 218.656C410.7 218.608 410.748 218.56 410.844 218.56C412.332 217.648 412.62 216.16 412.812 214.624C412.86 214.096 412.908 213.616 412.908 213.136C412.86 207.52 412.86 201.952 412.764 196.384C412.716 194.944 412.428 193.552 412.14 192.112C411.948 191.056 411.372 190.24 410.364 189.76C410.22 189.712 410.028 189.616 409.932 189.472C409.788 189.232 409.596 188.848 409.644 188.608C409.74 188.368 410.076 188.128 410.364 188.032C410.652 187.984 410.94 188.032 411.276 188.08C414.3 188.32 417.276 188.272 420.3 187.648C420.54 187.552 420.78 187.504 421.068 187.504C421.5 187.456 421.884 187.552 422.028 187.984C422.172 188.464 421.932 188.752 421.596 188.992C421.548 189.04 421.5 189.088 421.404 189.136C420.06 189.808 419.484 191.008 419.34 192.4C419.244 193.792 419.196 195.184 419.148 196.576C419.148 197.536 419.148 198.448 419.148 199.456C420.204 198.496 421.068 197.584 422.076 196.816C423.42 195.808 424.956 195.28 426.684 195.76C427.884 196.048 428.844 196.672 429.564 197.728C430.332 198.976 430.716 200.368 430.908 201.76C431.196 204.544 431.244 207.28 431.004 210.016C430.86 212.176 430.716 214.336 430.62 216.496C430.572 216.88 430.62 217.216 430.62 217.6C430.572 218.896 431.196 219.808 432.108 220.624C432.348 220.768 432.588 220.96 432.78 221.2ZM451.179 215.392C451.563 215.44 451.851 215.68 451.899 216.064C451.899 216.496 451.659 216.736 451.227 216.88C451.131 216.928 451.035 216.928 450.891 216.976C449.019 217.312 447.147 217.648 445.275 217.984C444.891 218.08 444.459 218.128 444.075 218.128C443.019 218.224 442.251 217.792 441.723 216.88C441.339 217.216 441.003 217.504 440.619 217.792C438.699 219.136 436.299 218.992 434.667 217.36C433.467 216.208 432.939 214.768 432.795 213.184C432.459 210.016 433.563 207.28 436.059 205.024C437.451 203.728 439.227 203.104 441.291 203.344C441.819 203.392 442.347 203.584 442.971 203.728C442.971 203.392 442.971 203.056 442.923 202.768C442.635 201.232 442.347 199.744 441.387 198.4C440.427 197.104 439.227 196.96 438.027 198.112C437.211 198.976 436.539 199.936 435.963 200.944C435.483 201.808 435.195 202.768 434.811 203.728C434.715 203.872 434.715 204.064 434.619 204.208C434.427 204.592 434.139 204.88 433.611 204.832C433.083 204.784 432.843 204.448 432.795 204.016C432.555 201.376 432.171 198.784 432.459 196.144C432.507 195.904 432.507 195.664 432.555 195.472C432.699 194.992 433.035 194.704 433.563 194.656C434.139 194.608 434.427 194.944 434.571 195.424C434.667 195.808 434.811 196.192 434.955 196.528C435.339 197.248 435.675 197.344 436.443 196.912C437.163 196.528 437.835 196.144 438.507 195.76C442.443 193.36 446.427 194.992 448.203 198.112C449.115 199.696 449.547 201.424 449.499 203.2C449.355 205.888 449.067 208.576 448.875 211.264C448.779 212.08 448.731 212.896 448.827 213.712C448.971 214.768 449.403 215.104 450.555 215.296C450.747 215.296 450.987 215.344 451.179 215.392ZM441.675 213.712C442.539 211.696 442.539 209.536 442.347 207.424C442.299 207.04 442.155 206.704 441.963 206.368C441.483 205.552 440.763 205.456 439.995 206.128C439.755 206.368 439.515 206.656 439.275 206.992C438.171 208.72 437.547 210.592 437.403 212.56C437.307 214.096 437.499 215.632 438.795 217.072C439.275 216.688 439.851 216.4 440.187 216.016C440.763 215.296 441.339 214.528 441.675 213.712ZM475.855 213.664C476.335 214.096 476.239 214.768 475.615 215.008C475.519 215.056 475.423 215.104 475.327 215.104C473.503 215.152 471.871 215.968 470.239 216.736C469.231 217.168 468.175 217.6 467.119 218.032C466.687 218.224 466.255 218.272 465.919 217.888C465.631 217.504 465.727 217.12 465.919 216.784C467.167 214.576 467.599 212.128 467.647 209.68C467.791 206.56 467.695 203.392 467.119 200.32C467.023 199.696 466.783 199.072 466.495 198.544C466.015 197.776 465.247 197.632 464.527 198.112C463.999 198.448 463.471 198.88 463.087 199.36C462.175 200.608 461.455 202.048 461.023 203.536C460.927 203.92 460.879 204.352 460.879 204.736C460.735 208.24 460.639 211.792 460.927 215.296C460.975 215.632 461.023 215.968 461.023 216.304C461.119 217.024 461.455 217.552 462.271 217.552C462.319 217.552 462.367 217.552 462.367 217.6C463.039 217.744 463.327 217.984 463.327 218.416C463.279 218.896 462.847 219.184 462.223 219.184C459.487 219.184 456.751 219.04 454.063 218.56C453.535 218.464 453.007 218.464 452.479 218.416C451.855 218.32 451.519 218.032 451.471 217.6C451.423 217.072 451.759 216.784 452.191 216.64C453.967 216.064 454.639 214.768 454.831 213.04C454.927 211.936 455.119 210.832 455.119 209.776C455.167 206.512 455.167 203.248 455.119 199.984C455.119 199.12 454.927 198.256 454.735 197.44C454.543 196.672 454.111 196.048 453.247 195.808C452.767 195.712 452.479 195.472 452.527 194.896C452.575 194.368 453.007 194.272 453.439 194.224C455.455 193.984 457.471 193.744 459.487 193.504C460.255 193.408 461.023 193.168 461.839 192.976C462.127 192.928 462.511 192.832 462.799 192.928C463.039 192.976 463.375 193.216 463.423 193.456C463.471 193.696 463.279 193.984 463.135 194.224C463.087 194.32 462.943 194.416 462.799 194.416C461.791 194.656 461.359 195.376 461.263 196.384C461.215 197.056 461.119 197.776 461.071 198.448C461.167 198.496 461.215 198.496 461.311 198.544C461.551 198.16 461.743 197.728 461.983 197.344C462.655 196.24 463.423 195.28 464.431 194.464C466.111 193.168 468.031 193.12 469.807 194.224C471.247 195.184 472.159 196.576 472.735 198.16C473.407 200.08 473.599 202.048 473.647 204.064C473.743 205.6 473.695 207.184 473.695 208.768C473.743 209.584 473.791 210.4 473.935 211.216C474.031 212.224 474.511 212.992 475.423 213.424C475.567 213.472 475.759 213.568 475.855 213.664Z" fill="#A34216"/>
</g>
</g>
<defs>
<filter id="filter0_i_528_9" x="174.384" y="185.824" width="301.951" height="41.632" filterUnits="userSpaceOnUse" color-interpolation-filters="sRGB">
<feFlood flood-opacity="0" result="BackgroundImageFix"/>
<feBlend mode="normal" in="SourceGraphic" in2="BackgroundImageFix" result="shape"/>
<feColorMatrix in="SourceAlpha" type="matrix" values="0 0 0 0 0 0 0 0 0 0 0 0 0 0 0 0 0 0 127 0" result="hardAlpha"/>
<feOffset dy="4"/>
<feGaussianBlur stdDeviation="2"/>
<feComposite in2="hardAlpha" operator="arithmetic" k2="-1" k3="1"/>
<feColorMatrix type="matrix" values="0 0 0 0 0 0 0 0 0 0 0 0 0 0 0 0 0 0 0.25 0"/>
<feBlend mode="normal" in2="shape" result="effect1_innerShadow_528_9"/>
</filter>
<linearGradient id="paint0_linear_528_9" x1="332.484" y1="250.496" x2="342.618" y2="-259.728" gradientUnits="userSpaceOnUse">
<stop stop-color="#003248"/>
<stop offset="1" stop-color="#0079AE" stop-opacity="0"/>
</linearGradient>
<radialGradient id="paint1_radial_528_9" cx="0" cy="0" r="1" gradientUnits="userSpaceOnUse" gradientTransform="translate(316.756 203.21) scale(316.843 203.196)">
<stop stop-color="#00FFFF"/>
<stop offset="1" stop-color="#009999" stop-opacity="0"/>
</radialGradient>
<linearGradient id="paint2_linear_528_9" x1="17.6842" y1="201.75" x2="708.819" y2="201.75" gradientUnits="userSpaceOnUse">
<stop stop-color="#E65E49"/>
<stop offset="0.02" stop-color="#E7624C"/>
<stop offset="0.2" stop-color="#F48361"/>
<stop offset="0.35" stop-color="#FC966F"/>
<stop offset="0.45" stop-color="#FF9E74"/>
<stop offset="0.57" stop-color="#FC976F"/>
<stop offset="0.73" stop-color="#F58463"/>
<stop offset="0.92" stop-color="#E9664E"/>
<stop offset="1" stop-color="#E45845"/>
</linearGradient>
<linearGradient id="paint3_linear_528_9" x1="161.966" y1="328.64" x2="131.343" y2="57.159" gradientUnits="userSpaceOnUse">
<stop stop-color="#C60055"/>
<stop offset="1" stop-color="white"/>
</linearGradient>
<linearGradient id="paint4_linear_528_9" x1="561.481" y1="333.57" x2="531.266" y2="65.7206" gradientUnits="userSpaceOnUse">
<stop stop-color="#C60055"/>
<stop offset="1" stop-color="white"/>
</linearGradient>
<linearGradient id="paint5_linear_528_9" x1="121.687" y1="332.714" x2="95.5424" y2="334.36" gradientUnits="userSpaceOnUse">
<stop stop-color="#A71100"/>
<stop offset="0.39" stop-color="#D83303"/>
<stop offset="1" stop-color="#EC5C11"/>
</linearGradient>
<linearGradient id="paint6_linear_528_9" x1="159.933" y1="316.823" x2="58.8386" y2="307.412" gradientUnits="userSpaceOnUse">
<stop stop-color="#A71100"/>
<stop offset="0.39" stop-color="#D83303"/>
<stop offset="1" stop-color="#EC5C11"/>
</linearGradient>
<linearGradient id="paint7_linear_528_9" x1="68.0983" y1="201.13" x2="130.456" y2="201.13" gradientUnits="userSpaceOnUse">
<stop stop-color="#A71100"/>
<stop offset="0.39" stop-color="#D83303"/>
<stop offset="1" stop-color="#EC5C11"/>
</linearGradient>
<linearGradient id="paint8_linear_528_9" x1="135.713" y1="94.1565" x2="34.6186" y2="84.7445" gradientUnits="userSpaceOnUse">
<stop stop-color="#A71100"/>
<stop offset="0.39" stop-color="#D83303"/>
<stop offset="1" stop-color="#EC5C11"/>
</linearGradient>
<linearGradient id="paint9_linear_528_9" x1="92.8571" y1="65.6334" x2="67.0427" y2="69.3075" gradientUnits="userSpaceOnUse">
<stop stop-color="#A71100"/>
<stop offset="0.39" stop-color="#D83303"/>
<stop offset="1" stop-color="#EC5C11"/>
</linearGradient>
<linearGradient id="paint10_linear_528_9" x1="135.826" y1="202.86" x2="28.3331" y2="203.312" gradientUnits="userSpaceOnUse">
<stop stop-color="#FFA274"/>
<stop offset="1" stop-color="#E47745"/>
</linearGradient>
<linearGradient id="paint11_linear_528_9" x1="532.743" y1="332.741" x2="558.885" y2="334.411" gradientUnits="userSpaceOnUse">
<stop stop-color="#A71100"/>
<stop offset="0.39" stop-color="#D83303"/>
<stop offset="1" stop-color="#EC5C11"/>
</linearGradient>
<linearGradient id="paint12_linear_528_9" x1="494.481" y1="316.861" x2="595.573" y2="307.426" gradientUnits="userSpaceOnUse">
<stop stop-color="#A71100"/>
<stop offset="0.39" stop-color="#D83303"/>
<stop offset="1" stop-color="#EC5C11"/>
</linearGradient>
<linearGradient id="paint13_linear_528_9" x1="586.388" y1="50" x2="524.014" y2="50" gradientUnits="userSpaceOnUse">
<stop stop-color="#A71100"/>
<stop offset="0.39" stop-color="#D83303"/>
<stop offset="1" stop-color="#EC5C11"/>
</linearGradient>
<linearGradient id="paint14_linear_528_9" x1="518.716" y1="94.1939" x2="619.809" y2="84.7585" gradientUnits="userSpaceOnUse">
<stop stop-color="#A71100"/>
<stop offset="0.39" stop-color="#D83303"/>
<stop offset="1" stop-color="#EC5C11"/>
</linearGradient>
<linearGradient id="paint15_linear_528_9" x1="561.572" y1="65.6708" x2="587.386" y2="69.345" gradientUnits="userSpaceOnUse">
<stop stop-color="#A71100"/>
<stop offset="0.39" stop-color="#D83303"/>
<stop offset="1" stop-color="#EC5C11"/>
</linearGradient>
<linearGradient id="paint16_linear_528_9" x1="518.691" y1="202.83" x2="626.184" y2="203.282" gradientUnits="userSpaceOnUse">
<stop stop-color="#FFA274"/>
<stop offset="1" stop-color="#E47745"/>
</linearGradient>
<clipPath id="clip0_528_9">
<rect width="561.883" height="299.33" fill="white" transform="translate(46.2939 50)"/>
</clipPath>
</defs>
</svg>
