<svg width="484" height="406" viewBox="0 0 484 406" fill="none" xmlns="http://www.w3.org/2000/svg">
<path style="mix-blend-mode:screen" opacity="0.42" d="M153.5 348.596C153.5 348.596 194.524 341.271 179.255 304.106C163.985 266.94 42.8603 261.86 46.6707 228.073C50.481 194.286 121.07 188.096 215.495 193.152C309.92 198.232 386.238 189.774 366.213 166.123C346.188 142.472 201.199 139.66 166.85 144.149C132.501 148.662 173.525 150.907 173.525 150.907C173.525 150.907 69.5607 164.776 39.9956 142.354C10.4305 119.932 91.505 115.419 144.906 119.932C198.334 124.444 306.109 118.797 306.109 103.038C306.109 87.2788 278.436 65.3055 241.25 74.8745C204.036 84.4435 160.175 82.766 156.365 68.1171C152.554 53.4682 177.336 47.845 214.549 53.4682C251.763 59.0915 285.138 27.0058 257.465 20.8154C257.465 20.8154 281.078 22.5638 284.638 36.7165C288.226 50.8692 236.716 61.5488 205.232 56.9887C173.748 52.4286 178.059 71.992 256.741 66.6995C335.424 61.4306 372.999 71.9683 382.65 81.9154C392.301 91.8388 371.191 115.702 319.71 120.995C268.2 126.264 305.414 129.855 370.135 130.918C434.883 131.981 492.094 159.862 479.245 174.629C466.367 189.419 360.845 210.944 367.298 242.415C367.298 242.415 337.26 213.472 287.892 218.977C238.524 224.458 207.763 241.777 222.087 255.292C236.382 268.807 316.873 231.216 340.124 261.411C340.124 261.411 316.511 247.259 299.712 262.475C282.913 277.691 277.184 280.431 244.977 275.989C212.797 271.547 204.564 294.159 243.558 299.428C282.552 304.696 295.068 313.58 277.184 318.637C259.3 323.716 201.004 323.291 203.146 351.785C205.288 380.304 151.72 383.989 151.72 383.989C151.72 383.989 137.48 379.925 172.524 358.377C207.568 336.829 153.556 348.549 153.556 348.549L153.5 348.596Z" fill="url(#paint0_linear_528_6558)"/>
<path style="mix-blend-mode:screen" opacity="0.71" d="M242 405.301C375.653 405.301 484 314.571 484 202.651C484 90.7298 375.653 0 242 0C108.347 0 0 90.7298 0 202.651C0 314.571 108.347 405.301 242 405.301Z" fill="url(#paint1_radial_528_6558)"/>
<g clip-path="url(#clip0_528_6558)">
<path d="M91.1683 109.56C91.1683 109.56 120.808 113.84 120.996 114.52C121.185 115.2 124.813 134.57 127.204 137.65C129.608 140.73 122.351 143.81 122.351 143.81L89.8843 115.72L91.1801 109.56H91.1683Z" fill="#FFC59F"/>
<path d="M128.429 117.84C128.429 117.84 130.715 115.87 131.174 115.82C131.633 115.77 134.685 116.37 134.685 116.37C134.685 116.37 136.157 127.15 137.547 129.16C138.925 131.17 132.753 131.46 132.753 131.46L128.441 117.84H128.429Z" fill="#FFC59F"/>
<path d="M137.536 118.74C137.536 118.74 139.821 116.8 140.469 116.76C141.117 116.72 183.738 119.79 211.292 120.21C238.846 120.63 276.119 119.17 276.732 120.11C277.344 121.05 279.689 144.33 285.708 151.85C291.74 159.37 276.602 163.96 276.602 163.96L137.536 118.75V118.74Z" fill="#FFC59F"/>
<path d="M289.525 123.11C289.525 123.11 292.777 118.95 293.79 119.03C294.803 119.11 347.567 116.6 377.642 113.31C407.717 110.02 424.139 106.26 424.139 106.26L423.032 116.44L289.525 123.1V123.11Z" fill="#FFC59F"/>
<path d="M168.859 282.13C168.859 282.13 171.227 281.21 171.828 279.49C172.429 277.77 172.24 269.98 172.24 269.98L163.935 270.61L168.847 282.14L168.859 282.13Z" fill="#FFC59F"/>
<path d="M317.798 282.93C317.798 282.93 320.083 282.15 321.097 280.51C322.11 278.87 323.406 267.2 323.406 267.2L316.255 265.52L317.798 282.94V282.93Z" fill="#FFC59F"/>
<path d="M341.429 285.18C341.429 285.18 345.446 285.12 347.378 282.23C349.31 279.33 355.683 263.2 355.683 263.2L347.473 260.22L341.429 285.18Z" fill="#FFC59F"/>
<path d="M168.859 282.13C168.859 282.13 171.227 281.21 171.828 279.49C172.429 277.77 172.24 269.98 172.24 269.98L163.935 270.61L168.847 282.14L168.859 282.13Z" fill="#DB6345"/>
<path d="M317.798 282.93C317.798 282.93 320.083 282.15 321.097 280.51C322.11 278.87 323.406 267.2 323.406 267.2L316.255 265.52L317.798 282.94V282.93Z" fill="#DB6345"/>
<path d="M341.429 285.18C341.429 285.18 345.446 285.12 347.378 282.23C349.31 279.33 355.683 263.2 355.683 263.2L347.473 260.22L341.429 285.18Z" fill="#DB6345"/>
<path d="M437.227 108.3L432.067 162.18L422.631 295.2C422.631 295.2 398.269 291.56 364.436 287.69C359.712 287.14 354.8 286.6 349.734 286.05C350.276 281.26 350.724 275.27 350.771 271.08C350.83 267.64 350.606 265.41 349.946 266.01C349.416 266.5 348.391 268.5 347.154 271.24C345.423 275.11 343.255 280.47 341.406 285.17C335.751 284.6 329.943 284.02 324.053 283.48C323.37 279.68 322.428 274.93 321.603 272.27C321.238 271.08 320.884 270.31 320.59 270.24C320.26 270.16 319.907 271 319.541 272.34C318.87 274.91 318.187 279.34 317.763 282.91C292.152 280.65 265.199 278.89 241.014 278.59C219.244 278.33 196.908 279.55 176.092 281.43C174.396 278.8 172.346 275.79 171.062 274.47C170.414 273.79 169.967 273.55 169.861 274C169.825 274.11 169.79 274.26 169.766 274.43C169.495 275.86 169.119 279.09 168.824 282.12C152.355 283.76 137.017 285.77 123.929 287.71C97.9065 291.57 80.6483 295.19 80.6483 295.19L67.1245 109.56C67.1245 109.56 85.1602 113.01 116.26 116.53C116.932 116.61 117.615 116.68 118.298 116.76C119.123 120.99 121.208 131.27 122.728 136.53C123.47 139.13 124.082 140.51 124.318 139.31C124.471 138.56 124.718 137.28 125.025 135.7C125.991 130.67 127.534 122.51 128.418 117.84C129.501 117.95 130.597 118.07 131.704 118.18C131.987 122.4 132.682 131.85 134.155 130.02C135.403 128.46 136.782 122.43 137.524 118.74C166.185 121.42 202.315 123.71 243.499 123.96C253.018 124.02 262.525 123.91 271.914 123.69C272.149 124.9 272.397 126.25 272.691 127.68C275.2 140.43 279.571 160.47 281.632 156.22C283.553 152.28 286.627 137.79 288.524 128.17C288.913 126.24 289.242 124.51 289.513 123.1C328.141 121.51 363.894 118.01 390.553 114.8C419.109 111.37 437.227 108.29 437.227 108.29V108.3Z" fill="url(#paint2_linear_528_6558)"/>
<path style="mix-blend-mode:multiply" opacity="0.5" d="M123.965 287.72C97.9418 291.58 80.6837 295.2 80.6837 295.2L67.1245 109.56C67.1245 109.56 85.1602 113.01 116.26 116.53C109.062 138.05 102.713 170.23 106.73 211.99C110.617 252.39 117.733 275.09 123.953 287.72H123.965Z" fill="url(#paint3_linear_528_6558)"/>
<path style="mix-blend-mode:multiply" opacity="0.5" d="M437.227 108.3L432.067 162.18L422.631 295.2C422.631 295.2 398.269 291.56 364.436 287.69C373.342 269.48 386.183 236.8 391.107 192.36C394.747 159.55 393.227 133.42 390.553 114.82C419.109 111.39 437.227 108.31 437.227 108.31V108.3Z" fill="url(#paint4_linear_528_6558)"/>
<path d="M46.0967 108.3C46.0967 108.3 46.403 104.85 67.4426 104.02C88.4705 103.18 91.8632 107.36 91.8632 107.36L78.5161 117.17L55.3914 116.7L46.1085 108.29L46.0967 108.3Z" fill="#872316"/>
<path d="M85.5254 349.21C85.5254 349.21 79.2583 349.86 78.6339 348.16C78.0095 346.45 80.507 325.28 80.507 325.28L85.5254 349.22V349.21Z" fill="#FC6212"/>
<path d="M89.0713 317.53C89.1302 317.61 89.1891 317.7 89.248 317.76C89.3069 317.84 89.3422 317.91 89.3658 317.97C89.4247 318.05 89.46 318.12 89.4836 318.18C89.5189 318.27 89.5425 318.33 89.5778 318.42V318.44C91.4156 323.02 93.4182 340.57 93.2062 346.81C93.1826 346.86 93.1826 346.88 93.1944 346.92C93.1002 349.37 82.2034 349.83 79.5057 348.49C79.1523 348.31 78.9284 348.08 78.9049 347.84C78.6221 344.25 80.6837 319.69 81.3905 318.18C82.2387 316.37 87.8579 316.41 89.0595 317.53H89.0713Z" fill="url(#paint5_linear_528_6558)"/>
<g style="mix-blend-mode:multiply" opacity="0.8">
<path d="M84.6303 315.74C87.1395 315.64 88.4353 316.73 89.0714 317.53C89.1303 317.61 89.1892 317.7 89.2481 317.76C89.307 317.84 89.3424 317.91 89.3659 317.97C89.4249 318.05 89.4602 318.12 89.4838 318.18C89.5427 318.33 89.578 318.42 89.578 318.42V318.44C91.4157 323.02 93.4184 340.57 93.2063 346.81C93.2063 346.81 89.955 338.06 89.1892 329.99C88.4 321.9 89.2599 318.68 88.1644 317.88C87.0688 317.08 82.4391 316.95 81.4025 318.18C80.9312 318.73 80.6014 315.87 84.6303 315.73V315.74Z" fill="#D42F55"/>
</g>
<g style="mix-blend-mode:soft-light" opacity="0.5">
<path d="M86.8329 347.64C86.6916 348.08 81.1784 348.97 80.5658 347.66C79.9532 346.35 81.0724 319.24 82.4507 318.49C83.8289 317.74 87.9403 344.03 86.8212 347.64H86.8329Z" fill="white"/>
</g>
<path d="M84.5594 326.78C91.286 326.38 97.8241 325.41 103.102 324.37C106.883 323.63 110.028 322.86 112.231 322.2C114.305 321.6 115.542 321.09 115.648 320.84C116.131 319.71 115.895 312.77 115.695 308.23C115.589 305.9 115.483 304.22 115.483 304.22L109.428 304.39L106.141 304.47L53.8481 305.89C53.8481 305.89 55.9922 321.89 56.5105 322.68C56.8403 323.19 67.1246 326.57 79.1758 326.87H79.1994C80.9664 326.92 82.7217 326.89 84.5359 326.79L84.5594 326.78Z" fill="url(#paint6_linear_528_6558)"/>
<g style="mix-blend-mode:multiply" opacity="0.8">
<path d="M103.101 324.36C110.405 322.93 115.435 321.35 115.648 320.83C116.366 319.14 115.483 304.21 115.483 304.21L110.335 306.09C104.126 307.19 95.3029 309.54 94.7492 312.53C93.1589 321.1 95.4089 323.72 96.1747 324.42C97.0464 325.22 99.5438 324.8 103.09 324.36H103.101Z" fill="#D42F55"/>
</g>
<path d="M87.8933 310.25C104.904 308.67 116.107 306.45 115.483 304.22C115.012 302.44 111.324 299.75 103.031 298.17C98.3424 297.27 92.1931 296.74 84.2767 296.94C83.1105 296.96 81.8971 297.01 80.6602 297.08C56.1453 298.36 54.284 304.07 53.8599 305.88C53.4005 307.67 70.8825 311.82 87.8933 310.24V310.25Z" fill="#FF7A00"/>
<g style="mix-blend-mode:soft-light" opacity="0.5">
<path d="M113.539 304.14C115.353 302.82 103.973 296.43 85.9731 298.28C67.9728 300.12 66.783 306.97 68.1495 307.81C69.516 308.65 103.326 311.59 113.539 304.14Z" fill="white"/>
</g>
<path d="M72.5671 312.27C72.0959 311.54 64.5447 309.12 63.4491 310.71C62.3535 312.3 63.0603 323.69 64.1206 324.24C65.169 324.79 71.8485 325.88 72.0605 324.95C72.2726 324.02 73.0736 313.04 72.5788 312.27H72.5671Z" fill="#FF6500"/>
<path d="M55.5797 307.15C55.3676 306.92 61.3638 308.38 67.7252 309.21C74.864 310.15 82.427 310.5 81.6495 310.57C70.47 311.71 56.4632 308.1 55.5679 307.14L55.5797 307.15Z" fill="#FFA457"/>
<g style="mix-blend-mode:multiply" opacity="0.5">
<path d="M112.243 322.2C114.317 321.6 115.554 321.09 115.66 320.84C116.143 319.71 115.907 312.77 115.707 308.23C109.428 308.17 99.5912 308.88 98.7666 313.9C97.9773 318.72 105.587 321.24 112.243 322.2Z" fill="#D42F55"/>
</g>
<path d="M99.591 301.78C99.3083 308.72 67.5014 308.48 67.3719 302.2C67.3483 301.05 67.313 299.82 67.2894 298.53C67.2894 297.62 67.2658 296.67 67.254 295.68C66.936 274.33 66.8535 237 64.2147 205.07C62.0943 179.39 56.1923 130.66 53.4357 108.51C52.6465 102.1 52.1046 97.9098 51.9985 97.1298C51.9985 97.0398 51.9985 96.9998 51.9985 96.9998L81.9559 95.2998C81.9559 95.2998 81.9559 95.3498 81.9559 95.4298C81.9088 97.2998 81.4611 118.49 82.3564 148.96C82.8159 165.12 83.1339 183.95 85.2073 203.77C86.6798 217.88 88.4586 231.47 90.261 243.82C93.9247 269.05 97.6591 289.07 99.0491 297.53C99.4379 299.86 99.6499 301.32 99.6264 301.77L99.591 301.78Z" fill="url(#paint7_linear_528_6558)"/>
<g style="mix-blend-mode:multiply" opacity="0.8">
<path d="M51.9868 97.1297L81.9206 95.4297C81.8853 97.2997 81.4258 118.49 82.3211 148.95C79.4232 131.52 75.3001 113.01 71.6835 112.9C66.7004 112.74 58.7487 110.49 53.4358 108.5C52.6465 102.1 52.1164 97.9097 51.9986 97.1197L51.9868 97.1297Z" fill="#D42F55"/>
</g>
<path d="M61.0103 50.1396C61.0103 50.1396 54.696 50.1996 54.3544 51.9596C54.0128 53.7196 59.7969 74.4296 59.7969 74.4296L61.0103 50.1396Z" fill="#FC6212"/>
<path d="M66.0408 104.13C72.7674 103.73 79.3055 102.76 84.583 101.72C88.3645 100.98 91.5099 100.21 93.7128 99.5498C95.7861 98.9498 97.0231 98.4398 97.1291 98.1898C97.6121 97.0598 97.3765 90.1198 97.1762 85.5798C97.0702 83.2498 96.9642 81.5698 96.9642 81.5698L90.9091 81.7398L87.6224 81.8198L35.3413 83.2298C35.3413 83.2298 37.4853 99.2298 38.0037 100.02C38.3335 100.53 48.6177 103.91 60.669 104.21H60.6926C62.4596 104.26 64.2149 104.23 66.029 104.13H66.0408Z" fill="url(#paint8_linear_528_6558)"/>
<g style="mix-blend-mode:multiply" opacity="0.8">
<path d="M84.5947 101.71C91.8985 100.28 96.9286 98.6996 97.1407 98.1796C97.8593 96.4896 96.9758 81.5596 96.9758 81.5596L91.8278 83.4396C85.6195 84.5396 76.7961 86.8896 76.2424 89.8796C74.6521 98.4496 76.9021 101.07 77.6678 101.77C78.5396 102.57 81.037 102.15 84.5829 101.71H84.5947Z" fill="#D42F55"/>
</g>
<path d="M69.3865 87.5899C86.3973 86.0099 97.6004 83.7899 96.976 81.5599C96.5048 79.7799 92.8176 77.0899 84.5242 75.5099C79.8357 74.6099 73.6863 74.0799 65.7699 74.2799C64.6037 74.2999 63.3903 74.3499 62.1534 74.4199C37.6385 75.7099 35.7773 81.4199 35.3414 83.2299C34.8819 85.0199 52.3639 89.1699 69.3747 87.5899H69.3865Z" fill="#FF7A00"/>
<g style="mix-blend-mode:multiply" opacity="0.5">
<path d="M84.5238 75.5099C79.8352 74.6099 73.6859 74.0799 65.7695 74.2799C66.2172 77.3599 67.1714 80.8399 69.0327 81.1599C71.1649 81.5499 79.0695 78.2599 84.5238 75.5099Z" fill="#D42F55"/>
</g>
<g style="mix-blend-mode:soft-light" opacity="0.5">
<path d="M95.0322 81.4899C96.8464 80.1699 85.4666 73.7799 67.4663 75.6299C49.466 77.4699 48.2762 84.3199 49.6427 85.1599C51.0092 85.9999 84.8187 88.9399 95.0322 81.4899Z" fill="white"/>
</g>
<path d="M69.4686 81.1396C69.5157 81.0496 69.5628 80.9596 69.61 80.8896C69.6571 80.7996 69.6806 80.7296 69.6924 80.6696C69.7395 80.5796 69.7631 80.5096 69.7749 80.4496C69.7984 80.3596 69.8102 80.2896 69.8338 80.1996V80.1796C70.9411 75.4296 70.1754 57.8096 68.9856 51.6496C68.962 51.6096 68.9503 51.5896 68.9503 51.5396C68.479 49.1296 57.594 49.8996 55.1319 51.5396C54.8139 51.7596 54.6254 52.0096 54.649 52.2496C54.9317 55.8396 60.8218 79.9496 61.7525 81.3696C62.8716 83.0696 68.4437 82.3996 69.4568 81.1496L69.4686 81.1396Z" fill="url(#paint9_linear_528_6558)"/>
<g style="mix-blend-mode:multiply" opacity="0.8">
<path d="M61.9529 53.6698C65.0864 53.2898 68.0551 52.5798 68.9975 51.6398C68.974 51.5998 68.9622 51.5798 68.9622 51.5298C68.491 49.1198 57.6059 49.8898 55.1439 51.5298C55.0025 51.7098 54.9672 51.8898 55.0025 52.0698C55.2499 52.8898 57.5588 54.1898 61.9411 53.6798L61.9529 53.6698Z" fill="#D42F55"/>
</g>
<g style="mix-blend-mode:multiply" opacity="0.8">
<path d="M65.3457 83.4199C67.8431 83.2299 68.9623 81.9999 69.4688 81.1399C69.516 81.0499 69.5631 80.9599 69.6102 80.8899C69.6573 80.7999 69.6809 80.7299 69.6927 80.6699C69.7398 80.5799 69.7633 80.5099 69.7751 80.4499C69.8105 80.2899 69.834 80.1999 69.834 80.1999V80.1799C70.9414 75.4299 70.1757 57.8099 68.9858 51.6499C68.9858 51.6499 67.1363 60.6899 67.6311 68.7799C68.1141 76.8899 69.4688 79.9799 68.5028 80.8999C67.5369 81.8099 62.9779 82.4699 61.7527 81.3699C61.199 80.8699 61.3169 83.7499 65.3339 83.4299L65.3457 83.4199Z" fill="#D42F55"/>
</g>
<g style="mix-blend-mode:multiply" opacity="0.8">
<path d="M68.3144 51.2896C68.4087 50.7596 60.7279 48.9396 58.0655 51.0096C55.4032 53.0796 68.0199 53.0296 68.3144 51.2896Z" fill="#D42F55"/>
</g>
<g style="mix-blend-mode:soft-light" opacity="0.5">
<path d="M63.2016 54.7899C63.0013 54.3699 57.3939 54.1099 56.9934 55.4799C56.5928 56.8499 61.2932 80.3499 62.7775 80.9399C64.2618 81.5299 64.8862 58.2399 63.2016 54.7899Z" fill="white"/>
</g>
<path d="M56.0508 52.9997C56.0508 52.9997 56.4749 53.8197 58.6543 53.9297C60.3153 54.0197 61.0221 53.7597 61.0221 53.7597C61.0221 53.7597 60.7276 53.7497 58.5718 53.6097C57.7472 53.5597 56.2864 52.8297 56.0391 52.9997H56.0508Z" fill="#FFA457"/>
<path d="M54.0602 89.62C53.589 88.89 46.0378 86.47 44.9423 88.06C43.8467 89.65 44.5535 101.04 45.6137 101.59C46.6622 102.14 53.3416 103.23 53.5537 102.3C53.7657 101.37 54.5668 90.39 54.072 89.62H54.0602Z" fill="#FF6500"/>
<path d="M37.0611 84.4998C36.8491 84.2698 42.8452 85.7299 49.2066 86.5599C56.3455 87.4999 63.9084 87.8499 63.1309 87.9299C51.9514 89.0698 37.9446 85.4598 37.0493 84.4998H37.0611Z" fill="#FFA457"/>
<g style="mix-blend-mode:multiply" opacity="0.5">
<path d="M93.7242 99.5397C95.7976 98.9397 97.0345 98.4297 97.1405 98.1797C97.6235 97.0497 97.3879 90.1097 97.1877 85.5697C90.9087 85.5097 81.0722 86.2197 80.2476 91.2397C79.4583 96.0597 87.0684 98.5797 93.7242 99.5397Z" fill="#D42F55"/>
</g>
<g style="mix-blend-mode:multiply" opacity="0.8">
<path d="M89.8841 242.16C89.8488 241.87 89.8252 241.69 89.8252 241.6C89.8605 241.75 89.9194 242.17 89.9901 242.84C89.9312 242.59 89.8959 242.36 89.8841 242.16Z" fill="#D42F55"/>
</g>
<g style="mix-blend-mode:multiply" opacity="0.8">
<path d="M105.599 298.72C105.599 298.72 105.529 298.75 105.505 298.75C99.4145 299.38 101.252 300.94 101.358 301.57C101.453 302.2 101.629 306.9 83.3697 307.68C65.0985 308.46 65.1927 302.51 63.6259 300.94C62.978 300.28 61.1992 300.4 59.3379 300.78C61.2463 299.95 63.8144 299.17 67.3014 298.52C67.3014 297.61 67.2778 296.66 67.266 295.67C67.7255 296.68 68.3263 297.53 69.0331 298.22C72.8735 301.98 79.9888 301.02 87.6696 297.81C88.1172 297.62 88.506 297.32 88.8711 296.91C95.2325 289.79 90.968 250.59 89.9903 242.86C90.061 243.15 90.1199 243.47 90.2259 243.83C93.8896 269.06 97.6239 289.08 99.014 297.54C100.463 297.72 101.806 297.93 103.043 298.17C103.95 298.34 104.798 298.53 105.599 298.72Z" fill="#D42F55"/>
</g>
<path d="M98.5779 257.42C95.7624 236.15 92.782 209.55 92.5935 190.99C92.3696 169.44 92.1458 143.45 92.0045 126.23C91.9102 115.42 91.8631 108.06 91.8513 107.41V107.36C91.8513 107.36 83.181 111.44 68.0551 112.06C66.9124 112.11 64.6034 113.7 64.4974 114.7C63.9437 120.12 62.9424 128.71 62.0235 130.11C60.9987 131.64 59.3612 120.35 58.5601 114.28C58.4188 113.18 58.2892 112.25 58.2185 111.6C50.7969 110.59 46.2968 108.4 46.1201 108.31V108.39C46.1201 108.46 46.1201 108.52 46.1201 108.59L60.1269 293.12C60.1269 293.12 58.0065 299.53 85.9847 298.29C103.667 297.51 103.667 292.18 103.667 292.18C103.667 292.18 101.193 277.08 98.5897 257.43L98.5779 257.42Z" fill="url(#paint10_linear_528_6558)"/>
<path d="M61.8352 111.51C61.7998 111.25 50.4318 109.85 50.6439 107.96C50.7146 107.3 51.6806 106.7 53.1531 106.23C53.0706 105.62 53.0117 105.04 52.9293 104.48C50.2316 105.27 46.615 106.59 46.1556 108.05C46.132 108.13 46.1085 108.22 46.0967 108.3V108.38C46.0967 108.45 46.0967 108.51 46.0967 108.58C46.3794 110.42 50.5968 113.21 58.5249 114.27C58.4307 113.59 59.6205 129.79 61.7645 130.25C61.8823 130.28 61.847 111.76 61.8116 111.51H61.8352ZM81.8028 103.12C81.8028 103.76 81.8028 104.43 81.8028 105.13C84.7715 105.99 86.1615 106.77 86.138 107.18C86.0791 108.01 80.2007 110.62 68.6089 111.2C67.2777 111.27 64.6036 113.7 64.4975 114.7C65.8052 114.72 67.1599 114.7 68.6089 114.62C83.9351 113.86 91.6276 108.58 91.8514 107.4C91.8514 107.38 91.8514 107.37 91.8514 107.36C91.8986 106.65 87.4809 104.2 81.8028 103.11V103.12Z" fill="#FFC59F"/>
<path d="M453.531 108.3C453.531 108.3 453.224 104.85 432.185 104.02C411.145 103.19 407.764 107.36 407.764 107.36L421.111 117.17L444.236 116.7L453.519 108.29L453.531 108.3Z" fill="#872316"/>
<path d="M414.102 349.21C414.102 349.21 420.369 349.86 420.994 348.16C421.618 346.45 419.12 325.28 419.12 325.28L414.102 349.22V349.21Z" fill="#FC6212"/>
<path d="M410.556 317.53C410.497 317.61 410.438 317.7 410.379 317.76C410.321 317.84 410.285 317.91 410.262 317.97C410.203 318.05 410.167 318.12 410.144 318.18C410.109 318.27 410.085 318.33 410.05 318.42V318.44C408.212 323.02 406.209 340.57 406.421 346.81C406.445 346.86 406.445 346.88 406.433 346.92C406.527 349.37 417.424 349.83 420.122 348.49C420.475 348.31 420.699 348.08 420.723 347.84C421.005 344.25 418.944 319.69 418.237 318.18C417.389 316.37 411.77 316.41 410.568 317.53H410.556Z" fill="url(#paint11_linear_528_6558)"/>
<g style="mix-blend-mode:multiply" opacity="0.8">
<path d="M414.997 315.74C412.488 315.64 411.192 316.73 410.556 317.53C410.497 317.61 410.438 317.7 410.379 317.76C410.321 317.84 410.285 317.91 410.262 317.97C410.203 318.05 410.167 318.12 410.144 318.18C410.085 318.33 410.05 318.42 410.05 318.42V318.44C408.212 323.02 406.209 340.57 406.421 346.81C406.421 346.81 409.673 338.06 410.438 329.99C411.228 321.9 410.368 318.68 411.463 317.88C412.559 317.08 417.188 316.95 418.225 318.18C418.696 318.73 419.026 315.87 414.997 315.73V315.74Z" fill="#D42F55"/>
</g>
<g style="mix-blend-mode:soft-light" opacity="0.5">
<path d="M412.795 347.64C412.936 348.08 418.449 348.97 419.062 347.66C419.674 346.35 418.555 319.24 417.177 318.49C415.799 317.74 411.675 344.03 412.806 347.64H412.795Z" fill="white"/>
</g>
<path d="M415.068 326.78C408.341 326.38 401.803 325.41 396.526 324.37C392.744 323.63 389.599 322.86 387.396 322.2C385.323 321.6 384.086 321.09 383.98 320.84C383.497 319.71 383.732 312.77 383.933 308.23C384.039 305.9 384.145 304.22 384.145 304.22L390.2 304.39L393.486 304.47L445.779 305.89C445.779 305.89 443.635 321.89 443.117 322.68C442.787 323.19 432.503 326.57 420.452 326.87H420.428C418.661 326.92 416.906 326.89 415.092 326.79L415.068 326.78Z" fill="url(#paint12_linear_528_6558)"/>
<g style="mix-blend-mode:multiply" opacity="0.8">
<path d="M396.514 324.36C389.21 322.93 384.18 321.35 383.968 320.83C383.25 319.14 384.133 304.21 384.133 304.21L389.281 306.09C395.489 307.19 404.313 309.54 404.866 312.53C406.457 321.1 404.207 323.72 403.441 324.42C402.569 325.22 400.072 324.8 396.526 324.36H396.514Z" fill="#D42F55"/>
</g>
<path d="M411.722 310.25C394.711 308.67 383.508 306.45 384.133 304.22C384.604 302.44 388.291 299.75 396.585 298.17C401.273 297.27 407.422 296.74 415.339 296.94C416.505 296.96 417.718 297.01 418.955 297.08C443.47 298.36 445.332 304.07 445.756 305.88C446.215 307.67 428.733 311.82 411.722 310.24V310.25Z" fill="#FF7A00"/>
<g style="mix-blend-mode:soft-light" opacity="0.5">
<path d="M386.076 304.14C384.262 302.82 395.642 296.43 413.642 298.28C431.643 300.12 432.833 306.97 431.466 307.81C430.1 308.65 396.29 311.59 386.076 304.14Z" fill="white"/>
</g>
<path d="M427.048 312.27C427.52 311.54 435.071 309.12 436.166 310.71C437.262 312.3 436.555 323.69 435.495 324.24C434.447 324.79 427.767 325.88 427.555 324.95C427.343 324.02 426.554 313.04 427.037 312.27H427.048Z" fill="#FF6500"/>
<path d="M444.047 307.15C444.26 306.92 438.263 308.38 431.902 309.21C424.763 310.15 417.2 310.5 417.978 310.57C429.157 311.71 443.164 308.1 444.059 307.14L444.047 307.15Z" fill="#FFA457"/>
<g style="mix-blend-mode:multiply" opacity="0.5">
<path d="M387.384 322.2C385.311 321.6 384.074 321.09 383.968 320.84C383.485 319.71 383.721 312.77 383.921 308.23C390.2 308.17 400.036 308.88 400.861 313.9C401.65 318.72 394.04 321.24 387.384 322.2Z" fill="#D42F55"/>
</g>
<path d="M400.037 301.78C400.319 308.72 432.126 308.48 432.256 302.2C432.279 301.05 432.315 299.82 432.338 298.53C432.338 297.62 432.362 296.67 432.374 295.68C432.692 274.33 432.774 237 435.413 205.07C437.533 179.39 443.435 130.66 446.192 108.51C446.981 102.1 447.523 97.9098 447.629 97.1298C447.629 97.0398 447.629 96.9998 447.629 96.9998L417.672 95.2998C417.672 95.2998 417.672 95.3498 417.672 95.4298C417.719 97.2998 418.167 118.49 417.271 148.96C416.812 165.12 416.494 183.95 414.42 203.77C412.948 217.88 411.169 231.47 409.367 243.82C405.703 269.05 401.969 289.07 400.579 297.53C400.19 299.86 399.978 301.32 400.001 301.77L400.037 301.78Z" fill="url(#paint13_linear_528_6558)"/>
<g style="mix-blend-mode:multiply" opacity="0.8">
<path d="M447.629 97.1297L417.695 95.4297C417.731 97.2997 418.19 118.49 417.295 148.95C420.193 131.52 424.316 113.01 427.933 112.9C432.916 112.74 440.867 110.49 446.18 108.5C446.97 102.1 447.5 97.9097 447.617 97.1197L447.629 97.1297Z" fill="#D42F55"/>
</g>
<path d="M438.617 50.1396C438.617 50.1396 444.932 50.1996 445.273 51.9596C445.615 53.7196 439.831 74.4296 439.831 74.4296L438.605 50.1396H438.617Z" fill="#FC6212"/>
<path d="M433.575 104.13C426.849 103.73 420.311 102.76 415.033 101.72C411.252 100.98 408.106 100.21 405.903 99.5498C403.83 98.9498 402.593 98.4398 402.487 98.1898C402.004 97.0598 402.24 90.1198 402.44 85.5798C402.546 83.2498 402.652 81.5698 402.652 81.5698L408.707 81.7398L411.994 81.8198L464.287 83.2398C464.287 83.2398 462.143 99.2398 461.624 100.03C461.294 100.54 451.01 103.92 438.959 104.22H438.935C437.168 104.27 435.413 104.24 433.599 104.14L433.575 104.13Z" fill="url(#paint14_linear_528_6558)"/>
<g style="mix-blend-mode:multiply" opacity="0.8">
<path d="M415.033 101.71C407.729 100.28 402.699 98.6996 402.487 98.1796C401.769 96.4896 402.652 81.5596 402.652 81.5596L407.8 83.4396C414.008 84.5396 422.832 86.8896 423.385 89.8796C424.976 98.4496 422.726 101.07 421.96 101.77C421.088 102.57 418.591 102.15 415.045 101.71H415.033Z" fill="#D42F55"/>
</g>
<path d="M430.241 87.5899C413.231 86.0099 402.027 83.7899 402.652 81.5599C403.123 79.7799 406.81 77.0899 415.104 75.5099C419.792 74.6099 425.941 74.0799 433.858 74.2799C435.024 74.2999 436.237 74.3499 437.474 74.4199C461.989 75.6999 463.851 81.4099 464.275 83.2199C464.734 85.0099 447.252 89.1599 430.241 87.5799V87.5899Z" fill="#FF7A00"/>
<g style="mix-blend-mode:multiply" opacity="0.5">
<path d="M415.092 75.5099C419.78 74.6099 425.93 74.0799 433.846 74.2799C433.398 77.3599 432.444 80.8399 430.583 81.1599C428.451 81.5499 420.546 78.2599 415.092 75.5099Z" fill="#D42F55"/>
</g>
<g style="mix-blend-mode:soft-light" opacity="0.5">
<path d="M404.596 81.4899C402.781 80.1699 414.161 73.7799 432.161 75.6299C450.162 77.4699 451.352 84.3199 449.985 85.1599C448.619 85.9999 414.809 88.9399 404.596 81.4899Z" fill="white"/>
</g>
<path d="M430.147 81.1396C430.1 81.0496 430.053 80.9596 430.006 80.8896C429.959 80.7996 429.935 80.7296 429.923 80.6696C429.876 80.5796 429.853 80.5096 429.841 80.4496C429.817 80.3596 429.806 80.2896 429.782 80.1996V80.1796C428.675 75.4296 429.44 57.8096 430.63 51.6496C430.654 51.6096 430.666 51.5896 430.666 51.5396C431.137 49.1296 442.022 49.8996 444.484 51.5396C444.802 51.7596 444.99 52.0096 444.967 52.2496C444.684 55.8396 438.794 79.9496 437.863 81.3696C436.744 83.0696 431.172 82.3996 430.159 81.1496L430.147 81.1396Z" fill="url(#paint15_linear_528_6558)"/>
<g style="mix-blend-mode:multiply" opacity="0.8">
<path d="M437.675 53.6698C434.541 53.2898 431.573 52.5798 430.63 51.6398C430.654 51.5998 430.666 51.5798 430.666 51.5298C431.137 49.1198 442.022 49.8898 444.484 51.5298C444.625 51.7098 444.661 51.8898 444.625 52.0698C444.378 52.8898 442.069 54.1898 437.687 53.6798L437.675 53.6698Z" fill="#D42F55"/>
</g>
<g style="mix-blend-mode:multiply" opacity="0.8">
<path d="M434.27 83.4199C431.773 83.2299 430.654 81.9999 430.147 81.1399C430.1 81.0499 430.053 80.9599 430.006 80.8899C429.959 80.7999 429.935 80.7299 429.923 80.6699C429.876 80.5799 429.853 80.5099 429.841 80.4499C429.806 80.2899 429.782 80.1999 429.782 80.1999V80.1799C428.675 75.4299 429.44 57.8099 430.63 51.6499C430.63 51.6499 432.48 60.6899 431.973 68.7799C431.49 76.8899 430.135 79.9799 431.101 80.8999C432.067 81.8099 436.626 82.4699 437.852 81.3699C438.405 80.8699 438.287 83.7499 434.27 83.4299V83.4199Z" fill="#D42F55"/>
</g>
<g style="mix-blend-mode:multiply" opacity="0.8">
<path d="M431.302 51.2896C431.207 50.7596 438.888 48.9396 441.551 51.0096C444.213 53.0796 431.596 53.0296 431.302 51.2896Z" fill="#D42F55"/>
</g>
<g style="mix-blend-mode:soft-light" opacity="0.5">
<path d="M436.426 54.7899C436.626 54.3699 442.234 54.1099 442.634 55.4799C443.035 56.8499 438.334 80.3499 436.85 80.9399C435.366 81.5299 434.741 58.2399 436.426 54.7899Z" fill="white"/>
</g>
<path d="M443.577 52.9997C443.577 52.9997 443.153 53.8197 440.973 53.9297C439.312 54.0197 438.605 53.7597 438.605 53.7597C438.605 53.7597 438.9 53.7497 441.056 53.6097C441.88 53.5597 443.341 52.8297 443.589 52.9997H443.577Z" fill="#FFA457"/>
<path d="M445.568 89.62C446.039 88.89 453.59 86.47 454.685 88.06C455.781 89.65 455.074 101.04 454.014 101.59C452.966 102.14 446.286 103.23 446.074 102.3C445.862 101.37 445.073 90.39 445.556 89.62H445.568Z" fill="#FF6500"/>
<path d="M462.567 84.4998C462.779 84.2698 456.782 85.7299 450.421 86.5599C443.282 87.4999 435.719 87.8499 436.497 87.9299C447.676 89.0698 461.683 85.4598 462.578 84.4998H462.567Z" fill="#FFA457"/>
<g style="mix-blend-mode:multiply" opacity="0.5">
<path d="M405.903 99.5397C403.83 98.9397 402.593 98.4297 402.487 98.1797C402.004 97.0497 402.24 90.1097 402.44 85.5697C408.719 85.5097 418.555 86.2197 419.38 91.2397C420.169 96.0597 412.559 98.5797 405.903 99.5397Z" fill="#D42F55"/>
</g>
<g style="mix-blend-mode:multiply" opacity="0.8">
<path d="M409.743 242.16C409.779 241.87 409.802 241.69 409.802 241.6C409.767 241.75 409.708 242.17 409.637 242.84C409.696 242.59 409.731 242.36 409.743 242.16Z" fill="#D42F55"/>
</g>
<g style="mix-blend-mode:multiply" opacity="0.8">
<path d="M394.017 298.72C394.017 298.72 394.087 298.75 394.111 298.75C400.201 299.38 398.364 300.94 398.258 301.57C398.163 302.2 397.975 306.9 416.246 307.68C434.517 308.46 434.423 302.51 435.99 300.94C436.638 300.28 438.417 300.4 440.278 300.78C438.369 299.95 435.801 299.17 432.314 298.52C432.314 297.61 432.338 296.66 432.35 295.67C431.89 296.68 431.29 297.53 430.583 298.22C426.742 301.98 419.627 301.02 411.946 297.81C411.499 297.62 411.11 297.32 410.745 296.91C404.383 289.79 408.648 250.59 409.626 242.86C409.555 243.15 409.496 243.47 409.39 243.83C405.726 269.06 401.992 289.08 400.602 297.54C399.153 297.72 397.81 297.93 396.573 298.17C395.666 298.34 394.818 298.53 394.017 298.72Z" fill="#D42F55"/>
</g>
<path d="M410.038 298.04C410.038 298.04 412.512 297.61 413.066 296.4C413.619 295.2 414.762 286.98 414.762 286.98L411.876 285.7L410.038 298.04Z" fill="#FFC59F"/>
<path d="M420.888 298.44C420.888 298.44 425.517 296.36 425.977 294.87C426.436 293.38 432.338 270.24 432.338 270.24L429.299 265.38L420.888 298.43V298.44Z" fill="#FFC59F"/>
<path d="M410.038 298.04C410.038 298.04 412.512 297.61 413.066 296.4C413.619 295.2 414.762 286.98 414.762 286.98L411.876 285.7L410.038 298.04Z" fill="#DB6345"/>
<path d="M420.888 298.44C420.888 298.44 425.517 296.36 425.977 294.87C426.436 293.38 432.338 270.24 432.338 270.24L429.299 265.38L420.888 298.43V298.44Z" fill="#DB6345"/>
<path d="M453.531 108.31C453.354 108.39 448.854 110.58 441.432 111.6C441.35 112.25 432.727 112.11 431.596 112.06C416.458 111.44 407.8 107.36 407.8 107.36V107.41C407.8 108.34 407.682 122.63 407.517 141.12V141.14C407.387 156.62 407.234 175.04 407.057 191C406.845 211.67 403.17 242.33 400.119 264.48C397.892 280.58 395.984 292.18 395.984 292.18C395.984 292.18 395.984 296.76 410.038 298.04C411.122 294.41 413.525 286.66 413.984 287.27C414.444 287.86 415.233 294.95 415.586 298.36C417.507 298.43 419.262 298.45 420.887 298.44C421.5 296.3 422.619 292.46 423.88 288.29C426.566 279.4 429.935 268.98 430.583 270.29C431.231 271.61 431.525 281.31 431.655 289.07C431.714 292.72 431.737 295.94 431.749 297.67C440.537 296.2 439.512 293.1 439.512 293.1L453.519 108.57C453.519 108.5 453.519 108.44 453.519 108.37V108.29L453.531 108.31Z" fill="url(#paint16_linear_528_6558)"/>
<path d="M453.46 108.06C453.001 106.59 449.384 105.28 446.687 104.49C446.604 105.04 446.545 105.63 446.463 106.24C447.935 106.71 448.901 107.31 448.972 107.97C449.161 109.65 440.184 111.14 438.169 111.4C422.655 113.34 413.537 108.01 413.49 107.19C413.466 106.79 414.868 106 417.825 105.14C417.825 104.44 417.825 103.77 417.825 103.13C412.147 104.22 407.729 106.66 407.776 107.38C407.776 107.38 407.776 107.4 407.776 107.42C408.012 108.59 415.669 114.7 431.019 114.64C445.438 114.58 453.213 110.44 453.507 108.6C453.507 108.53 453.507 108.47 453.507 108.4V108.32C453.507 108.24 453.472 108.15 453.449 108.07L453.46 108.06Z" fill="#FFC59F"/>
<g style="mix-blend-mode:multiply" opacity="0.2">
<path d="M363.435 270.25C362.28 270.45 357.769 270.75 350.783 271.09C350.842 267.65 350.618 265.42 349.958 266.02C349.428 266.51 348.403 268.51 347.166 271.25C340.275 271.58 331.569 271.93 321.627 272.27C321.261 271.08 320.908 270.31 320.613 270.24C320.284 270.16 319.93 271 319.565 272.34C276.049 273.85 210.515 275.37 171.086 274.46C170.438 273.78 169.99 273.54 169.884 273.99C169.849 274.1 169.814 274.25 169.79 274.42C152.508 274 140.492 273.09 137.96 271.48C130.573 266.78 100.322 159.02 117.674 139.61C118.675 138.49 120.383 137.46 122.716 136.51C123.458 139.11 124.071 140.49 124.306 139.29C124.459 138.54 124.707 137.26 125.013 135.68C147.855 128.1 213.495 126.17 272.679 127.66C275.189 140.41 279.559 160.45 281.621 156.2C283.541 152.26 286.615 137.77 288.512 128.15C336.116 129.87 376.264 133.79 381.129 138.67C393.31 150.89 372.27 268.66 363.411 270.23L363.435 270.25Z" fill="#EF7A98"/>
</g>
<g style="mix-blend-mode:multiply" opacity="0.2">
<path d="M98.578 257.42C93.5596 244.03 88.2585 226.03 86.8095 206.97C84.5241 177.01 89.5779 141.1 92.0046 126.23C92.146 143.45 92.3698 169.45 92.5936 190.99C92.7821 209.55 95.7743 236.15 98.578 257.42Z" fill="#EF7A98"/>
</g>
<g style="mix-blend-mode:multiply" opacity="0.2">
<path d="M411.522 207.39C409.296 233.15 404.289 252.24 400.095 264.47C403.146 242.32 406.822 211.67 407.034 190.99C407.199 175.02 407.352 156.61 407.493 141.13C410.733 156.97 413.831 180.59 411.522 207.39Z" fill="#EF7A98"/>
</g>
<g style="mix-blend-mode:screen" opacity="0.3">
<path d="M64.1675 291.13C62.4005 288.75 50.1489 123.44 53.5888 122.19C55.2734 121.58 67.2304 154.58 72.0368 164.58C75.724 172.25 91.6274 287.63 90.2374 289.87C87.5279 294.26 68.3377 296.76 64.1557 291.12L64.1675 291.13Z" fill="#FF8390"/>
</g>
<g style="mix-blend-mode:screen" opacity="0.3">
<path d="M435.754 288.72C435.295 288.58 433.681 288.89 431.655 289.08C431.525 281.32 431.23 271.62 430.583 270.3C429.935 268.98 426.565 279.41 423.88 288.3C422.089 287.47 420.687 285.99 420.263 283.41C419.309 277.72 415.197 123.36 414.726 121.36C413.737 117.19 441.291 117.6 447.193 119.27C453.106 120.94 437.615 289.31 435.754 288.73V288.72Z" fill="#FF8390"/>
</g>
<path d="M58.5483 114.28C58.5483 114.28 61.1871 111.15 61.835 111.52C62.483 111.89 62.106 130.1 61.7879 130.26C61.4699 130.42 59.8442 129.76 58.5483 114.28Z" fill="#DB6345"/>
<path d="M118.298 116.76C118.298 116.76 120.254 114.26 120.996 114.52C121.738 114.78 125.543 133.24 125.52 133.58C125.496 133.92 124.813 139.88 124.141 139.74C122.975 139.51 120.501 128.98 118.31 116.77L118.298 116.76Z" fill="#DB6345"/>
<path d="M131.716 118.18C131.716 118.18 134.626 115.98 134.684 116.37C135.273 120.32 136.31 124.79 136.228 124.85C136.133 124.92 134.72 130.68 133.754 130.24C132.399 129.63 131.68 119 131.728 118.17L131.716 118.18Z" fill="#DB6345"/>
<path d="M271.925 123.69C271.925 123.69 276.355 119.37 276.72 120.1C277.085 120.83 278.617 135.28 284.165 149.39C284.436 150.09 282.08 157.53 281.031 157.06C279.983 156.59 273.893 138.35 271.925 123.69Z" fill="#DB6345"/>
<g style="mix-blend-mode:screen" opacity="0.3">
<path d="M59.5617 217.78C52.6467 216.74 64.7333 295.78 71.3656 290.76C78.0097 285.75 89.6369 222.32 59.5617 217.78Z" fill="#FF8390"/>
</g>
<g style="mix-blend-mode:multiply" opacity="0.3">
<path d="M52.5523 112.98C52.4698 113.03 57.5118 114.41 57.9241 115.43C58.3364 116.45 59.055 131.6 61.6349 130.84C64.2148 130.08 64.097 118.19 64.097 118.19C64.097 118.19 62.6009 130.6 61.7763 130.25C60.2213 129.6 58.7723 114.41 58.5367 114.27C58.3011 114.13 52.6348 112.92 52.5405 112.98H52.5523Z" fill="#C60055"/>
</g>
<path d="M65.0041 114.52C64.368 114.45 66.135 111.6 68.5971 111.21C71.0592 110.82 80.9311 109.67 81.6733 110.74C82.4154 111.81 70.9767 115.2 65.0041 114.52Z" fill="#FFDEC8"/>
<path d="M427.921 111.91C429.193 111.7 434.235 112.58 440.231 111.44C446.227 110.3 447.193 108.82 448.713 108.74C450.232 108.66 452.777 109.01 452.223 109.84C451.67 110.66 445.862 113.6 438.806 114.23C431.749 114.86 420.958 113.06 427.921 111.92V111.91Z" fill="#FFDEC8"/>
<path d="M138.383 118.74C137.983 118.68 139.632 116.78 140.457 116.76C141.281 116.74 161.096 117.82 161.555 118.44C162.015 119.07 160.955 120.24 160.448 120.24C159.941 120.24 140.292 119.03 138.372 118.73L138.383 118.74Z" fill="#FFDEC8"/>
<path d="M291.139 122.69C290.503 122.59 291.693 119.37 293.778 119.04C295.863 118.71 324.525 117.21 324.619 118.44C324.713 119.67 318.776 121.02 315.265 121.39C311.755 121.76 297.312 123.66 291.127 122.7L291.139 122.69Z" fill="#FFDEC8"/>
<g style="mix-blend-mode:multiply" opacity="0.3">
<path d="M103.514 114.92C103.514 114.92 115.188 117.39 116.661 119.74C118.133 122.09 122.563 149.5 125.142 144.09C127.722 138.69 128.417 117.84 128.417 117.84C128.417 117.84 124.824 138.77 124.341 138.74C121.856 138.61 119.888 117.81 118.286 116.76C116.684 115.71 103.502 114.92 103.502 114.92H103.514Z" fill="#C60055"/>
</g>
<g style="mix-blend-mode:multiply" opacity="0.3">
<path d="M128.818 117.86C128.865 117.92 130.338 118.27 130.726 119.7C131.115 121.13 131.162 135.44 133.742 133.91C136.322 132.38 137.524 118.74 137.524 118.74C137.524 118.74 135.156 130.19 133.978 129.68C132.8 129.17 132.281 118.3 131.716 118.17C131.15 118.04 128.818 117.85 128.818 117.85V117.86Z" fill="#C60055"/>
</g>
<g style="mix-blend-mode:multiply" opacity="0.3">
<path d="M249.778 123.97C250.214 124.07 267.92 124.86 269.275 126.95C270.629 129.04 273.575 165.84 282.068 160.57C290.55 155.3 289.525 123.12 289.525 123.12C289.525 123.12 284.778 155.46 281.338 155.25C277.898 155.04 273.527 124.11 271.925 123.71C270.323 123.31 249.79 123.98 249.79 123.98L249.778 123.97Z" fill="#C60055"/>
</g>
<g style="mix-blend-mode:multiply" opacity="0.3">
<path d="M144.663 284.85C144.663 284.85 166.715 282.34 167.446 280.93C168.188 279.52 168.27 272.47 169.896 272.82C171.51 273.17 176.128 281.43 176.128 281.43C176.128 281.43 170.744 272.77 170.096 274.06C169.46 275.35 169.401 282.02 168.859 282.12C168.317 282.22 144.663 284.84 144.663 284.84V284.85Z" fill="#C60055"/>
</g>
<g style="mix-blend-mode:multiply" opacity="0.3">
<path d="M297.018 281.16C297.018 281.16 314.735 282.62 315.772 281.06C316.809 279.5 317.739 266.7 320.508 267.64C323.276 268.58 324.089 283.49 324.089 283.49C324.089 283.49 321.744 270.38 320.637 270.82C318.623 271.63 318.905 282.92 317.798 282.93C316.691 282.94 297.018 281.16 297.018 281.16Z" fill="#C60055"/>
</g>
<g style="mix-blend-mode:multiply" opacity="0.3">
<path d="M330.591 284.07C330.591 284.07 338.614 283.99 339.497 282.9C340.369 281.8 347.708 260.19 350.7 263.09C353.704 265.99 349.746 286.06 349.746 286.06C349.746 286.06 351.219 266.65 350.147 267C349.075 267.35 342.03 284.85 341.429 285.18C340.828 285.52 330.591 284.07 330.591 284.07Z" fill="#C60055"/>
</g>
<g style="mix-blend-mode:multiply" opacity="0.2">
<path d="M140.186 217.78C140.398 219.61 137.158 228.13 133.601 234.54C131.08 239.11 128.406 242.61 126.721 241.9C125.025 241.18 122.987 239.63 121.09 237.58C116.955 233.14 113.456 226.39 115.482 220.92C118.428 212.93 139.832 214.65 140.198 217.78H140.186Z" fill="#C60055"/>
</g>
<g style="mix-blend-mode:multiply" opacity="0.2">
<path d="M146.194 211.53C145.723 212.7 144.816 213.88 143.414 214.96C142.518 215.65 140.94 214.72 139.573 213.17C137.135 210.41 135.368 205.65 139.267 204.55C144.038 203.2 147.902 207.29 146.194 211.53Z" fill="#C60055"/>
</g>
<g style="mix-blend-mode:multiply" opacity="0.2">
<path d="M146.736 241.59C144.886 242.5 149.045 251.77 149.221 247.93C149.41 244.09 149.127 240.41 146.736 241.59Z" fill="#C60055"/>
</g>
<g style="mix-blend-mode:multiply" opacity="0.2">
<path d="M294.802 170.48C292.27 172.63 297.759 186.46 303.108 179.09C308.456 171.73 297.017 168.6 294.802 170.48Z" fill="#C60055"/>
</g>
<g style="mix-blend-mode:multiply" opacity="0.2">
<path d="M297.936 159.52C294.013 160.35 297.382 166.41 299.409 164.85C301.435 163.29 302.365 158.59 297.936 159.52Z" fill="#C60055"/>
</g>
<g style="mix-blend-mode:multiply" opacity="0.2">
<path d="M365.52 213.24C361.032 212.31 356.049 223.58 364.778 222.95C373.507 222.32 371.54 214.49 365.52 213.24Z" fill="#C60055"/>
</g>
<g style="mix-blend-mode:multiply" opacity="0.2">
<path d="M424.363 252.6C423.715 255.84 422.513 258.8 420.616 260.85C419.921 261.6 418.684 261.4 417.283 260.57C413.819 258.46 409.496 252.26 410.909 246.44C412.865 238.3 418.531 230.68 421.842 232.66C424.233 234.09 426.047 244.27 424.351 252.6H424.363Z" fill="#C60055"/>
</g>
<g style="mix-blend-mode:multiply" opacity="0.2">
<path d="M73.0854 133.88C69.304 133.67 69.3982 141.97 71.7896 141.66C74.1928 141.35 75.8538 134.04 73.0854 133.88Z" fill="#C60055"/>
</g>
<g style="mix-blend-mode:multiply" opacity="0.2">
<path d="M74.1337 129.6C72.5081 131.23 77.2673 133.52 77.4558 131.79C77.6443 130.07 76.16 127.56 74.1337 129.6Z" fill="#C60055"/>
</g>
<g style="mix-blend-mode:multiply" opacity="0.2">
<path d="M140.186 217.78C140.398 219.61 137.158 228.13 133.601 234.54C132.588 231.93 138.419 220.35 137.971 218.1C137.488 215.65 128.629 214.96 119.7 218.25C110.782 221.54 121.29 237.41 121.29 237.41C121.29 237.41 121.208 237.49 121.066 237.58C116.932 233.14 113.433 226.39 115.459 220.92C118.404 212.93 139.809 214.65 140.174 217.78H140.186Z" fill="#C60055"/>
</g>
<g style="mix-blend-mode:multiply" opacity="0.2">
<path d="M146.194 211.53C146.123 211.37 146.088 211.18 146.064 210.97C145.84 209.31 145.075 205.26 140.151 205.1C135.238 204.95 139.785 213.01 139.785 213.01C139.785 213.01 139.703 213.09 139.573 213.17C137.135 210.41 135.368 205.65 139.267 204.55C144.038 203.2 147.902 207.29 146.194 211.53Z" fill="#C60055"/>
</g>
<g style="mix-blend-mode:multiply" opacity="0.2">
<path d="M424.363 252.6H424.315C422.466 252.54 422.902 234.69 420.004 233.91C417.118 233.13 412.618 241.53 411.946 247.95C411.275 254.38 417.047 259.7 417.542 260.02C417.813 260.19 417.636 260.43 417.271 260.57C413.807 258.46 409.484 252.26 410.898 246.44C412.853 238.3 418.52 230.68 421.83 232.66C424.221 234.09 426.035 244.27 424.339 252.6H424.363Z" fill="#C60055"/>
</g>
<g style="mix-blend-mode:multiply" opacity="0.1">
<path d="M145.605 267.11C146.418 262.11 213.507 194.02 268.108 202.79C322.722 211.56 367.499 257.5 360.113 263.35C352.738 269.2 143.626 279.22 145.605 267.11Z" fill="#EF7A98"/>
</g>
<g filter="url(#filter0_i_528_6558)">
<path d="M162.312 202.048C162.312 202.096 162.312 202.144 162.264 202.24C162.552 202.288 162.84 202.384 163.128 202.384C164.568 202.576 165.96 203.056 167.304 203.632C170.28 204.928 170.904 207.808 170.52 209.968C170.088 212.128 169.032 214 167.352 215.44C164.376 217.984 160.92 219.328 157.176 219.952C154.152 220.432 151.08 220.528 148.008 220.384C147.48 220.384 146.904 220.384 146.712 219.76C146.568 219.28 146.856 218.944 147.72 218.608C149.16 218.08 149.928 216.832 150.696 215.632C151.464 214.48 151.8 213.184 151.896 211.792C151.896 210.64 151.896 209.536 151.896 208.384C151.896 203.008 151.896 197.632 151.896 192.256C151.896 191.968 151.896 191.632 151.896 191.344C151.848 190.384 151.368 189.712 150.504 189.328C150.12 189.136 149.64 188.992 149.208 188.848C148.776 188.704 148.392 188.512 148.392 187.984C148.392 187.552 148.68 187.264 149.4 187.216C153.144 186.88 156.936 186.736 160.68 187.648C162.552 188.08 164.136 189.088 165.336 190.528C167.064 192.64 167.352 194.944 166.344 197.44C165.624 199.168 164.376 200.368 162.984 201.472C162.744 201.664 162.552 201.856 162.312 202.048ZM158.184 204.4C158.328 208.624 158.664 212.848 159.048 217.168C160.248 216.4 161.832 214.576 162.552 213.136C163.272 211.744 163.848 210.256 163.8 208.576C163.704 205.648 161.016 203.584 158.184 204.4ZM159.48 189.952C159.192 189.664 158.856 189.472 158.376 189.136C157.848 192.112 157.752 201.184 158.232 202.384C159 201.904 159.576 201.232 160.008 200.416C160.776 199.024 161.352 197.536 161.544 195.952C161.832 193.648 161.16 191.632 159.48 189.952ZM189.738 215.392C190.122 215.44 190.41 215.68 190.458 216.064C190.458 216.496 190.218 216.736 189.786 216.88C189.69 216.928 189.594 216.928 189.45 216.976C187.578 217.312 185.706 217.648 183.834 217.984C183.45 218.08 183.018 218.128 182.634 218.128C181.578 218.224 180.81 217.792 180.282 216.88C179.898 217.216 179.562 217.504 179.178 217.792C177.258 219.136 174.858 218.992 173.226 217.36C172.026 216.208 171.498 214.768 171.354 213.184C171.018 210.016 172.122 207.28 174.618 205.024C176.01 203.728 177.786 203.104 179.85 203.344C180.378 203.392 180.906 203.584 181.53 203.728C181.53 203.392 181.53 203.056 181.482 202.768C181.194 201.232 180.906 199.744 179.946 198.4C178.986 197.104 177.786 196.96 176.586 198.112C175.77 198.976 175.098 199.936 174.522 200.944C174.042 201.808 173.754 202.768 173.37 203.728C173.274 203.872 173.274 204.064 173.178 204.208C172.986 204.592 172.698 204.88 172.17 204.832C171.642 204.784 171.402 204.448 171.354 204.016C171.114 201.376 170.73 198.784 171.018 196.144C171.066 195.904 171.066 195.664 171.114 195.472C171.258 194.992 171.594 194.704 172.122 194.656C172.698 194.608 172.986 194.944 173.13 195.424C173.226 195.808 173.37 196.192 173.514 196.528C173.898 197.248 174.234 197.344 175.002 196.912C175.722 196.528 176.394 196.144 177.066 195.76C181.002 193.36 184.986 194.992 186.762 198.112C187.674 199.696 188.106 201.424 188.058 203.2C187.914 205.888 187.626 208.576 187.434 211.264C187.338 212.08 187.29 212.896 187.386 213.712C187.53 214.768 187.962 215.104 189.114 215.296C189.306 215.296 189.546 215.344 189.738 215.392ZM180.234 213.712C181.098 211.696 181.098 209.536 180.906 207.424C180.858 207.04 180.714 206.704 180.522 206.368C180.042 205.552 179.322 205.456 178.554 206.128C178.314 206.368 178.074 206.656 177.834 206.992C176.73 208.72 176.106 210.592 175.962 212.56C175.866 214.096 176.058 215.632 177.354 217.072C177.834 216.688 178.41 216.4 178.746 216.016C179.322 215.296 179.898 214.528 180.234 213.712ZM208.51 200.272C209.182 202.864 208.894 205.456 208.27 208.048C207.982 209.104 207.694 210.16 207.31 211.168C206.974 212.032 206.59 212.896 206.062 213.664C204.814 215.584 202.702 216.016 200.782 214.768C200.014 214.288 199.39 213.664 198.718 213.04C198.382 212.704 198.094 212.272 197.758 211.888C197.71 211.936 197.614 211.936 197.566 211.984C197.614 212.416 197.566 212.896 197.662 213.328C197.902 214.24 198.238 214.528 199.198 214.576C199.342 214.576 199.486 214.576 199.582 214.576C200.398 214.72 200.686 215.488 200.11 216.016C199.726 216.4 199.198 216.688 198.67 216.88C196.414 217.744 194.11 218.512 191.854 219.328C191.518 219.424 191.23 219.616 190.894 219.616C190.606 219.568 190.27 219.376 190.126 219.136C189.982 218.944 190.174 218.608 190.222 218.32C190.27 218.272 190.318 218.224 190.366 218.176C191.95 217.168 192.142 215.488 192.382 213.808C192.814 210.448 192.862 206.992 192.958 203.584C193.006 200.08 193.102 196.624 193.15 193.12C193.15 192.736 193.15 192.304 193.15 191.92C193.15 190.96 192.718 190.288 191.758 189.952C191.566 189.904 191.374 189.856 191.182 189.76C190.846 189.616 190.606 189.328 190.654 188.896C190.75 188.464 191.086 188.224 191.518 188.224C191.998 188.272 192.43 188.368 192.91 188.368C195.07 188.512 197.278 188.656 199.438 188.8C199.966 188.848 200.446 188.896 200.926 188.944C201.358 188.992 201.598 189.28 201.598 189.712C201.598 190.048 201.406 190.336 201.07 190.432C200.926 190.48 200.83 190.528 200.686 190.576C199.822 190.72 199.294 191.344 199.006 192.112C198.766 193.024 198.478 193.888 198.382 194.848C198.19 196.24 198.19 197.68 198.094 199.12C198.094 199.216 198.094 199.36 198.142 199.552C198.622 199.024 199.054 198.592 199.486 198.16C201.022 196.432 202.942 195.904 205.15 196.24C206.11 196.384 206.926 196.864 207.406 197.728C207.886 198.496 208.318 199.36 208.51 200.272ZM203.23 207.232C203.47 205.456 203.71 203.632 203.326 201.808C203.182 201.04 202.99 200.272 202.654 199.552C202.222 198.688 201.502 198.592 200.782 199.168C200.398 199.456 200.062 199.792 199.774 200.128C198.526 201.712 197.854 203.536 198.142 205.552C198.142 206.272 198.094 206.896 198.142 207.568C198.19 208.624 198.526 209.584 199.054 210.496C199.726 211.744 201.166 211.936 202.126 210.88C202.414 210.592 202.654 210.208 202.75 209.776C202.99 208.96 203.134 208.096 203.23 207.232ZM228.316 215.392C228.7 215.44 228.988 215.68 229.036 216.064C229.036 216.496 228.796 216.736 228.364 216.88C228.268 216.928 228.172 216.928 228.028 216.976C226.156 217.312 224.284 217.648 222.412 217.984C222.028 218.08 221.596 218.128 221.212 218.128C220.156 218.224 219.388 217.792 218.86 216.88C218.476 217.216 218.14 217.504 217.756 217.792C215.836 219.136 213.436 218.992 211.804 217.36C210.604 216.208 210.076 214.768 209.932 213.184C209.596 210.016 210.7 207.28 213.196 205.024C214.588 203.728 216.364 203.104 218.428 203.344C218.956 203.392 219.484 203.584 220.108 203.728C220.108 203.392 220.108 203.056 220.06 202.768C219.772 201.232 219.484 199.744 218.524 198.4C217.564 197.104 216.364 196.96 215.164 198.112C214.348 198.976 213.676 199.936 213.1 200.944C212.62 201.808 212.332 202.768 211.948 203.728C211.852 203.872 211.852 204.064 211.756 204.208C211.564 204.592 211.276 204.88 210.748 204.832C210.22 204.784 209.98 204.448 209.932 204.016C209.692 201.376 209.308 198.784 209.596 196.144C209.644 195.904 209.644 195.664 209.692 195.472C209.836 194.992 210.172 194.704 210.7 194.656C211.276 194.608 211.564 194.944 211.708 195.424C211.804 195.808 211.948 196.192 212.092 196.528C212.476 197.248 212.812 197.344 213.58 196.912C214.3 196.528 214.972 196.144 215.644 195.76C219.58 193.36 223.564 194.992 225.34 198.112C226.252 199.696 226.684 201.424 226.636 203.2C226.492 205.888 226.204 208.576 226.012 211.264C225.916 212.08 225.868 212.896 225.964 213.712C226.108 214.768 226.54 215.104 227.692 215.296C227.884 215.296 228.124 215.344 228.316 215.392ZM218.812 213.712C219.676 211.696 219.676 209.536 219.484 207.424C219.436 207.04 219.292 206.704 219.1 206.368C218.62 205.552 217.9 205.456 217.132 206.128C216.892 206.368 216.652 206.656 216.412 206.992C215.308 208.72 214.684 210.592 214.54 212.56C214.444 214.096 214.636 215.632 215.932 217.072C216.412 216.688 216.988 216.4 217.324 216.016C217.9 215.296 218.476 214.528 218.812 213.712ZM246.8 212.896C247.232 213.376 247.04 214.048 246.416 214.192C246.08 214.24 245.744 214.24 245.408 214.24C243.248 214.336 241.04 214.432 238.832 214.528C238.4 214.576 238.016 214.528 237.824 214.096C237.632 213.664 237.824 213.28 238.208 213.088C239.408 212.416 239.504 211.36 239.312 210.208C239.072 208.432 238.496 206.752 237.632 205.216C237.488 204.976 237.344 204.784 237.2 204.592C236.72 204.88 236.624 205.264 236.624 205.696C236.672 206.272 236.624 206.896 236.624 207.472C236.672 209.728 236.672 212.032 236.72 214.336C236.72 215.44 237.104 216.4 238.304 216.928C238.544 217.024 238.832 217.36 238.88 217.6C238.976 217.984 238.688 218.272 238.304 218.416C236.96 218.992 235.568 219.568 234.176 220.144C232.88 220.672 231.536 221.2 230.192 221.68C229.616 221.92 229.04 222.112 228.416 222.304C227.984 222.448 227.552 222.4 227.312 221.92C227.072 221.488 227.264 221.056 227.696 220.816C229.616 219.856 230.096 218.128 230.24 216.256C230.384 213.952 230.528 211.6 230.624 209.296C230.72 204.976 230.816 200.608 230.864 196.288C230.912 194.608 230.72 192.928 230.624 191.296C230.624 191.008 230.528 190.72 230.432 190.432C230.096 189.376 229.616 188.416 228.464 187.984C228.08 187.84 227.84 187.504 227.936 187.072C228.032 186.64 228.416 186.448 228.944 186.544C229.76 186.688 230.576 186.832 231.392 187.072C234.272 187.936 237.2 188.512 240.128 188.944C240.416 188.992 240.704 189.04 241.04 189.088C241.472 189.184 241.76 189.472 241.76 189.904C241.76 190.288 241.424 190.624 240.896 190.672C240.608 190.72 240.368 190.672 240.08 190.72C239.216 190.816 238.4 191.104 237.776 191.728C237.296 192.16 237.056 192.64 237.008 193.264C236.912 196.048 236.816 198.832 236.72 201.616C236.72 201.712 236.768 201.856 236.816 202.144C238.16 200.416 239.456 198.88 240.224 196.864C239.936 196.768 239.744 196.624 239.504 196.528C239.12 196.336 238.832 196.096 238.928 195.616C238.976 195.184 239.36 194.992 239.936 194.992C239.936 194.992 239.984 194.992 240.032 194.992C241.568 195.328 243.056 195.04 244.592 194.848C244.928 194.8 245.216 194.752 245.552 194.752C245.984 194.752 246.272 194.896 246.368 195.328C246.464 195.76 246.272 196.048 245.936 196.24C245.792 196.288 245.696 196.336 245.552 196.384C244.064 196.912 242.816 197.872 241.76 199.024C240.896 199.888 240.032 200.848 239.216 201.712C240.512 204.544 241.76 207.28 243.536 209.776C244.352 210.832 245.264 211.744 246.32 212.512C246.512 212.656 246.656 212.752 246.8 212.896ZM273.918 191.104C273.102 190.48 272.238 190.096 271.086 190.288C270.366 193.84 270.318 197.44 270.51 201.136C270.75 200.944 270.99 200.848 271.086 200.704C271.662 199.888 272.238 199.024 272.814 198.16C272.958 197.872 273.054 197.584 273.15 197.344C273.39 196.864 273.678 196.528 274.206 196.576C274.782 196.624 275.022 197.056 275.118 197.536C275.358 198.736 275.598 199.984 275.742 201.232C276.078 204.016 276.318 206.8 276.606 209.584C276.654 209.824 276.654 210.112 276.606 210.352C276.606 210.736 276.366 210.976 275.982 211.024C275.598 211.12 275.262 210.928 275.166 210.496C275.07 210.256 275.07 210.016 275.022 209.728C274.686 208.336 274.446 206.848 274.014 205.504C273.486 203.968 272.334 203.296 270.846 203.44C270.798 203.44 270.702 203.488 270.606 203.536C270.558 203.728 270.51 204.016 270.51 204.256C270.606 207.376 270.702 210.496 270.798 213.616C270.846 214.288 271.038 215.008 271.182 215.68C271.374 216.544 271.95 217.12 272.814 217.36C273.678 217.648 273.87 217.888 273.822 218.368C273.726 218.848 273.39 219.088 272.574 219.136C270.606 219.136 268.686 219.424 266.766 219.904C265.374 220.288 264.03 220.72 262.83 221.536C262.254 221.872 261.87 221.824 261.582 221.44C261.294 221.056 261.39 220.672 261.87 220.192C262.302 219.808 262.782 219.424 263.166 218.944C263.982 218.032 264.414 216.928 264.414 215.68C264.414 213.472 264.414 211.312 264.414 209.104C264.366 203.968 264.318 198.88 264.27 193.744C264.27 192.928 264.27 192.064 264.27 191.248C264.318 190.576 264.03 190.096 263.502 189.76C262.974 189.424 262.398 189.136 261.87 188.848C261.534 188.704 261.246 188.56 261.006 188.368C260.43 187.888 260.622 187.168 261.342 186.976C261.534 186.928 261.822 186.928 262.014 186.976C264.558 187.312 267.102 187.696 269.646 187.984C271.758 188.272 273.87 188.32 275.982 187.936C277.422 187.648 278.718 187.072 279.822 186.16C279.918 186.112 280.014 186.064 280.062 186.016C280.398 185.776 280.782 185.632 281.07 185.872C281.31 186.112 281.502 186.544 281.454 186.832C281.406 187.744 281.214 188.608 281.118 189.52C281.022 190.816 280.878 192.16 280.782 193.456C280.638 196.048 280.542 198.64 280.398 201.232C280.398 201.28 280.398 201.328 280.35 201.328C280.302 202.096 280.014 202.48 279.534 202.528C279.102 202.576 278.814 202.288 278.526 201.616C278.382 201.28 278.286 200.896 278.19 200.56C277.518 198.064 276.462 195.664 275.454 193.312C275.118 192.448 274.686 191.68 273.918 191.104ZM290.762 198.256C290.618 199.024 290.474 199.792 290.426 200.512C290.234 203.968 290.042 207.424 289.85 210.88C289.85 211.504 289.946 212.128 290.042 212.752C290.186 213.616 290.618 214.336 291.386 214.768C291.578 214.912 291.818 215.008 291.914 215.2C292.106 215.488 292.298 215.872 292.25 216.16C292.154 216.448 291.77 216.688 291.482 216.832C291.194 216.976 290.81 216.928 290.474 216.928C288.17 217.072 285.866 217.168 283.514 217.264C282.986 217.312 282.458 217.408 281.93 217.456C281.546 217.504 281.21 217.408 281.018 216.976C280.874 216.592 281.018 216.256 281.354 216.016C283.082 214.624 283.754 212.752 283.994 210.64C284.282 208.048 284.522 205.408 284.81 202.576C284.762 201.808 284.714 200.8 284.618 199.792C284.522 198.784 283.946 198.112 282.986 197.728C282.842 197.68 282.746 197.632 282.602 197.584C282.218 197.392 281.93 197.152 281.978 196.672C282.026 196.192 282.362 195.952 282.746 195.856C283.322 195.712 283.898 195.616 284.522 195.568C286.73 195.424 288.938 195.328 291.194 195.184C291.53 195.184 291.866 195.088 292.154 195.184C292.394 195.28 292.73 195.52 292.778 195.76C292.826 195.952 292.682 196.336 292.49 196.528C292.346 196.72 292.058 196.816 291.818 196.912C291.242 197.2 290.858 197.632 290.762 198.256ZM287.498 193.36C286.634 193.408 285.818 193.168 285.194 192.496C283.706 191.056 283.658 188.176 285.098 186.64C285.818 185.872 286.73 185.92 287.594 185.824C290.042 185.824 291.53 187.648 291.002 190C290.57 191.968 289.274 193.216 287.498 193.36ZM316.93 213.664C317.41 214.096 317.314 214.768 316.69 215.008C316.594 215.056 316.498 215.104 316.402 215.104C314.578 215.152 312.946 215.968 311.314 216.736C310.306 217.168 309.25 217.6 308.194 218.032C307.762 218.224 307.33 218.272 306.994 217.888C306.706 217.504 306.802 217.12 306.994 216.784C308.242 214.576 308.674 212.128 308.722 209.68C308.866 206.56 308.77 203.392 308.194 200.32C308.098 199.696 307.858 199.072 307.57 198.544C307.09 197.776 306.322 197.632 305.602 198.112C305.074 198.448 304.546 198.88 304.162 199.36C303.25 200.608 302.53 202.048 302.098 203.536C302.002 203.92 301.954 204.352 301.954 204.736C301.81 208.24 301.714 211.792 302.002 215.296C302.05 215.632 302.098 215.968 302.098 216.304C302.194 217.024 302.53 217.552 303.346 217.552C303.394 217.552 303.442 217.552 303.442 217.6C304.114 217.744 304.402 217.984 304.402 218.416C304.354 218.896 303.922 219.184 303.298 219.184C300.562 219.184 297.826 219.04 295.138 218.56C294.61 218.464 294.082 218.464 293.554 218.416C292.93 218.32 292.594 218.032 292.546 217.6C292.498 217.072 292.834 216.784 293.266 216.64C295.042 216.064 295.714 214.768 295.906 213.04C296.002 211.936 296.194 210.832 296.194 209.776C296.242 206.512 296.242 203.248 296.194 199.984C296.194 199.12 296.002 198.256 295.81 197.44C295.618 196.672 295.186 196.048 294.322 195.808C293.842 195.712 293.554 195.472 293.602 194.896C293.65 194.368 294.082 194.272 294.514 194.224C296.53 193.984 298.546 193.744 300.562 193.504C301.33 193.408 302.098 193.168 302.914 192.976C303.202 192.928 303.586 192.832 303.874 192.928C304.114 192.976 304.45 193.216 304.498 193.456C304.546 193.696 304.354 193.984 304.21 194.224C304.162 194.32 304.018 194.416 303.874 194.416C302.866 194.656 302.434 195.376 302.338 196.384C302.29 197.056 302.194 197.776 302.146 198.448C302.242 198.496 302.29 198.496 302.386 198.544C302.626 198.16 302.818 197.728 303.058 197.344C303.73 196.24 304.498 195.28 305.506 194.464C307.186 193.168 309.106 193.12 310.882 194.224C312.322 195.184 313.234 196.576 313.81 198.16C314.482 200.08 314.674 202.048 314.722 204.064C314.818 205.6 314.77 207.184 314.77 208.768C314.818 209.584 314.866 210.4 315.01 211.216C315.106 212.224 315.586 212.992 316.498 213.424C316.642 213.472 316.834 213.568 316.93 213.664ZM336.363 215.392C336.747 215.44 337.035 215.68 337.083 216.064C337.083 216.496 336.843 216.736 336.411 216.88C336.315 216.928 336.219 216.928 336.075 216.976C334.203 217.312 332.331 217.648 330.459 217.984C330.075 218.08 329.643 218.128 329.259 218.128C328.203 218.224 327.435 217.792 326.907 216.88C326.523 217.216 326.187 217.504 325.803 217.792C323.883 219.136 321.483 218.992 319.851 217.36C318.651 216.208 318.123 214.768 317.979 213.184C317.643 210.016 318.747 207.28 321.243 205.024C322.635 203.728 324.411 203.104 326.475 203.344C327.003 203.392 327.531 203.584 328.155 203.728C328.155 203.392 328.155 203.056 328.107 202.768C327.819 201.232 327.531 199.744 326.571 198.4C325.611 197.104 324.411 196.96 323.211 198.112C322.395 198.976 321.723 199.936 321.147 200.944C320.667 201.808 320.379 202.768 319.995 203.728C319.899 203.872 319.899 204.064 319.803 204.208C319.611 204.592 319.323 204.88 318.795 204.832C318.267 204.784 318.027 204.448 317.979 204.016C317.739 201.376 317.355 198.784 317.643 196.144C317.691 195.904 317.691 195.664 317.739 195.472C317.883 194.992 318.219 194.704 318.747 194.656C319.323 194.608 319.611 194.944 319.755 195.424C319.851 195.808 319.995 196.192 320.139 196.528C320.523 197.248 320.859 197.344 321.627 196.912C322.347 196.528 323.019 196.144 323.691 195.76C327.627 193.36 331.611 194.992 333.387 198.112C334.299 199.696 334.731 201.424 334.683 203.2C334.539 205.888 334.251 208.576 334.059 211.264C333.963 212.08 333.915 212.896 334.011 213.712C334.155 214.768 334.587 215.104 335.739 215.296C335.931 215.296 336.171 215.344 336.363 215.392ZM326.859 213.712C327.723 211.696 327.723 209.536 327.531 207.424C327.483 207.04 327.339 206.704 327.147 206.368C326.667 205.552 325.947 205.456 325.179 206.128C324.939 206.368 324.699 206.656 324.459 206.992C323.355 208.72 322.731 210.592 322.587 212.56C322.491 214.096 322.683 215.632 323.979 217.072C324.459 216.688 325.035 216.4 325.371 216.016C325.947 215.296 326.523 214.528 326.859 213.712ZM350.959 220.624C351.055 221.104 350.719 221.344 350.335 221.536C349.663 221.872 348.943 222.112 348.127 221.968C346.783 221.728 345.391 221.488 344.047 221.2C341.887 220.672 339.679 220.24 337.423 220.336C337.039 220.336 336.655 220.24 336.511 219.76C336.367 219.328 336.607 218.992 336.991 218.8C336.991 218.752 337.039 218.752 337.087 218.752C338.767 218.032 339.295 216.592 339.535 214.912C339.775 213.184 340.015 211.456 340.111 209.68C340.399 203.728 340.591 197.824 340.399 191.872C340.351 190.48 339.583 189.52 338.191 189.136C337.999 189.088 337.807 189.04 337.615 188.992C337.231 188.896 336.943 188.656 336.991 188.224C336.991 187.744 337.279 187.504 337.711 187.408C338.287 187.312 338.815 187.264 339.391 187.216C342.175 186.928 344.959 186.64 347.695 186.4C347.839 186.352 347.983 186.352 348.223 186.352C348.559 186.4 349.039 186.448 349.519 186.544C350.095 186.64 350.335 186.88 350.335 187.312C350.335 187.744 349.999 188.224 349.519 188.32C349.279 188.368 349.039 188.368 348.847 188.32C348.079 188.224 347.599 188.56 347.311 189.184C346.975 189.952 346.735 190.768 346.543 191.536C346.399 192.4 346.351 193.264 346.303 194.128C346.159 199.456 346.063 204.736 345.919 210.064C345.871 211.6 345.775 213.136 345.775 214.672C345.775 215.248 345.823 215.872 345.871 216.448C346.159 218.416 347.455 219.664 349.423 219.904C349.663 219.904 349.903 219.952 350.095 219.952C350.527 220 350.911 220.144 350.959 220.624Z" fill="#A34216"/>
</g>
</g>
<defs>
<filter id="filter0_i_528_6558" x="146.568" y="185.632" width="204.487" height="40.8164" filterUnits="userSpaceOnUse" color-interpolation-filters="sRGB">
<feFlood flood-opacity="0" result="BackgroundImageFix"/>
<feBlend mode="normal" in="SourceGraphic" in2="BackgroundImageFix" result="shape"/>
<feColorMatrix in="SourceAlpha" type="matrix" values="0 0 0 0 0 0 0 0 0 0 0 0 0 0 0 0 0 0 127 0" result="hardAlpha"/>
<feOffset dy="4"/>
<feGaussianBlur stdDeviation="2"/>
<feComposite in2="hardAlpha" operator="arithmetic" k2="-1" k3="1"/>
<feColorMatrix type="matrix" values="0 0 0 0 0 0 0 0 0 0 0 0 0 0 0 0 0 0 0.25 0"/>
<feBlend mode="normal" in2="shape" result="effect1_innerShadow_528_6558"/>
</filter>
<linearGradient id="paint0_linear_528_6558" x1="253.821" y1="250.496" x2="267.092" y2="-259.584" gradientUnits="userSpaceOnUse">
<stop stop-color="#003248"/>
<stop offset="1" stop-color="#0079AE" stop-opacity="0"/>
</linearGradient>
<radialGradient id="paint1_radial_528_6558" cx="0" cy="0" r="1" gradientUnits="userSpaceOnUse" gradientTransform="translate(241.814 203.21) scale(241.88 203.196)">
<stop stop-color="#00FFFF"/>
<stop offset="1" stop-color="#009999" stop-opacity="0"/>
</radialGradient>
<linearGradient id="paint2_linear_528_6558" x1="13.5005" y1="201.75" x2="541.117" y2="201.75" gradientUnits="userSpaceOnUse">
<stop stop-color="#E65E49"/>
<stop offset="0.02" stop-color="#E7624C"/>
<stop offset="0.2" stop-color="#F48361"/>
<stop offset="0.35" stop-color="#FC966F"/>
<stop offset="0.45" stop-color="#FF9E74"/>
<stop offset="0.57" stop-color="#FC976F"/>
<stop offset="0.73" stop-color="#F58463"/>
<stop offset="0.92" stop-color="#E9664E"/>
<stop offset="1" stop-color="#E45845"/>
</linearGradient>
<linearGradient id="paint3_linear_528_6558" x1="123.646" y1="328.64" x2="83.8896" y2="59.5787" gradientUnits="userSpaceOnUse">
<stop stop-color="#C60055"/>
<stop offset="1" stop-color="white"/>
</linearGradient>
<linearGradient id="paint4_linear_528_6558" x1="428.639" y1="333.57" x2="389.413" y2="68.1083" gradientUnits="userSpaceOnUse">
<stop stop-color="#C60055"/>
<stop offset="1" stop-color="white"/>
</linearGradient>
<linearGradient id="paint5_linear_528_6558" x1="92.8971" y1="332.713" x2="72.9052" y2="333.674" gradientUnits="userSpaceOnUse">
<stop stop-color="#A71100"/>
<stop offset="0.39" stop-color="#D83303"/>
<stop offset="1" stop-color="#EC5C11"/>
</linearGradient>
<linearGradient id="paint6_linear_528_6558" x1="122.094" y1="316.824" x2="44.6405" y2="311.319" gradientUnits="userSpaceOnUse">
<stop stop-color="#A71100"/>
<stop offset="0.39" stop-color="#D83303"/>
<stop offset="1" stop-color="#EC5C11"/>
</linearGradient>
<linearGradient id="paint7_linear_528_6558" x1="51.9868" y1="201.13" x2="99.591" y2="201.13" gradientUnits="userSpaceOnUse">
<stop stop-color="#A71100"/>
<stop offset="0.39" stop-color="#D83303"/>
<stop offset="1" stop-color="#EC5C11"/>
</linearGradient>
<linearGradient id="paint8_linear_528_6558" x1="103.604" y1="94.1563" x2="26.1506" y2="88.6514" gradientUnits="userSpaceOnUse">
<stop stop-color="#A71100"/>
<stop offset="0.39" stop-color="#D83303"/>
<stop offset="1" stop-color="#EC5C11"/>
</linearGradient>
<linearGradient id="paint9_linear_528_6558" x1="70.8878" y1="65.6329" x2="51.0162" y2="67.7921" gradientUnits="userSpaceOnUse">
<stop stop-color="#A71100"/>
<stop offset="0.39" stop-color="#D83303"/>
<stop offset="1" stop-color="#EC5C11"/>
</linearGradient>
<linearGradient id="paint10_linear_528_6558" x1="103.691" y1="202.86" x2="21.6291" y2="203.124" gradientUnits="userSpaceOnUse">
<stop stop-color="#FFA274"/>
<stop offset="1" stop-color="#E47745"/>
</linearGradient>
<linearGradient id="paint11_linear_528_6558" x1="406.7" y1="332.741" x2="426.69" y2="333.716" gradientUnits="userSpaceOnUse">
<stop stop-color="#A71100"/>
<stop offset="0.39" stop-color="#D83303"/>
<stop offset="1" stop-color="#EC5C11"/>
</linearGradient>
<linearGradient id="paint12_linear_528_6558" x1="377.49" y1="316.861" x2="454.944" y2="311.342" gradientUnits="userSpaceOnUse">
<stop stop-color="#A71100"/>
<stop offset="0.39" stop-color="#D83303"/>
<stop offset="1" stop-color="#EC5C11"/>
</linearGradient>
<linearGradient id="paint13_linear_528_6558" x1="447.653" y1="49.9998" x2="400.037" y2="49.9998" gradientUnits="userSpaceOnUse">
<stop stop-color="#A71100"/>
<stop offset="0.39" stop-color="#D83303"/>
<stop offset="1" stop-color="#EC5C11"/>
</linearGradient>
<linearGradient id="paint14_linear_528_6558" x1="395.992" y1="94.1938" x2="473.446" y2="88.6751" gradientUnits="userSpaceOnUse">
<stop stop-color="#A71100"/>
<stop offset="0.39" stop-color="#D83303"/>
<stop offset="1" stop-color="#EC5C11"/>
</linearGradient>
<linearGradient id="paint15_linear_528_6558" x1="428.708" y1="65.6704" x2="448.58" y2="67.8296" gradientUnits="userSpaceOnUse">
<stop stop-color="#A71100"/>
<stop offset="0.39" stop-color="#D83303"/>
<stop offset="1" stop-color="#EC5C11"/>
</linearGradient>
<linearGradient id="paint16_linear_528_6558" x1="395.972" y1="202.83" x2="478.034" y2="203.094" gradientUnits="userSpaceOnUse">
<stop stop-color="#FFA274"/>
<stop offset="1" stop-color="#E47745"/>
</linearGradient>
<clipPath id="clip0_528_6558">
<rect width="428.945" height="299.33" fill="white" transform="translate(35.3413 50)"/>
</clipPath>
</defs>
</svg>
