<svg width="567" height="406" viewBox="0 0 567 406" fill="none" xmlns="http://www.w3.org/2000/svg">
<path style="mix-blend-mode:screen" opacity="0.42" d="M179.823 348.596C179.823 348.596 227.882 341.271 209.995 304.106C192.107 266.94 50.2102 261.86 54.674 228.073C59.1377 194.286 141.832 188.096 252.449 193.152C363.067 198.232 452.473 189.774 429.014 166.123C405.554 142.472 235.702 139.66 195.463 144.149C155.223 148.662 203.283 150.907 203.283 150.907C203.283 150.907 81.4893 164.776 46.8542 142.354C12.219 119.932 107.197 115.419 169.755 119.932C232.346 124.444 358.603 118.797 358.603 103.038C358.603 87.2788 326.184 65.3055 282.621 74.8745C239.026 84.4435 187.643 82.766 183.179 68.1171C178.715 53.4682 207.746 47.845 251.342 53.4682C294.937 59.0915 334.036 27.0058 301.616 20.8154C301.616 20.8154 329.279 22.5638 333.449 36.7165C337.653 50.8692 277.31 61.5488 240.427 56.9887C203.543 52.4286 208.594 71.992 300.769 66.6995C392.945 61.4306 436.964 71.9683 448.27 81.9154C459.576 91.8388 434.846 115.702 374.536 120.995C314.193 126.264 357.789 129.855 433.608 130.918C509.46 131.981 576.482 159.862 561.429 174.629C546.343 189.419 422.725 210.944 430.285 242.415C430.285 242.415 395.096 213.472 337.262 218.977C279.428 224.458 243.392 241.777 260.172 255.292C276.919 268.807 371.213 231.216 398.452 261.411C398.452 261.411 370.789 247.259 351.109 262.475C331.429 277.691 324.717 280.431 286.987 275.989C249.289 271.547 239.645 294.159 285.325 299.428C331.006 304.696 345.668 313.58 324.717 318.637C303.767 323.716 235.474 323.291 237.983 351.785C240.492 380.304 177.738 383.989 177.738 383.989C177.738 383.989 161.056 379.925 202.11 358.377C243.163 336.829 179.888 348.549 179.888 348.549L179.823 348.596Z" fill="url(#paint0_linear_528_6421)"/>
<path style="mix-blend-mode:screen" opacity="0.71" d="M283.5 405.301C440.073 405.301 567 314.571 567 202.651C567 90.7298 440.073 0 283.5 0C126.927 0 0 90.7298 0 202.651C0 314.571 126.927 405.301 283.5 405.301Z" fill="url(#paint1_radial_528_6421)"/>
<g clip-path="url(#clip0_528_6421)">
<path d="M106.803 109.56C106.803 109.56 141.525 113.84 141.745 114.52C141.966 115.2 146.217 134.57 149.018 137.65C151.834 140.73 143.333 143.81 143.333 143.81L105.298 115.72L106.816 109.56H106.803Z" fill="#FFC59F"/>
<path d="M150.454 117.84C150.454 117.84 153.131 115.87 153.669 115.82C154.207 115.77 157.782 116.37 157.782 116.37C157.782 116.37 159.507 127.15 161.135 129.16C162.75 131.17 155.518 131.46 155.518 131.46L150.467 117.84H150.454Z" fill="#FFC59F"/>
<path d="M161.121 118.74C161.121 118.74 163.798 116.8 164.557 116.76C165.316 116.72 215.247 119.79 247.526 120.21C279.805 120.63 323.47 119.17 324.188 120.11C324.905 121.05 327.652 144.33 334.704 151.85C341.77 159.37 324.036 163.96 324.036 163.96L161.121 118.75V118.74Z" fill="#FFC59F"/>
<path d="M339.175 123.11C339.175 123.11 342.984 118.95 344.171 119.03C345.358 119.11 407.17 116.6 442.403 113.31C477.636 110.02 496.874 106.26 496.874 106.26L495.576 116.44L339.175 123.1V123.11Z" fill="#FFC59F"/>
<path d="M197.817 282.13C197.817 282.13 200.591 281.21 201.295 279.49C201.998 277.77 201.778 269.98 201.778 269.98L192.048 270.61L197.803 282.14L197.817 282.13Z" fill="#FFC59F"/>
<path d="M372.297 282.93C372.297 282.93 374.974 282.15 376.161 280.51C377.348 278.87 378.866 267.2 378.866 267.2L370.489 265.52L372.297 282.94V282.93Z" fill="#FFC59F"/>
<path d="M399.98 285.18C399.98 285.18 404.686 285.12 406.95 282.23C409.213 279.33 416.679 263.2 416.679 263.2L407.06 260.22L399.98 285.18Z" fill="#FFC59F"/>
<path d="M197.817 282.13C197.817 282.13 200.591 281.21 201.295 279.49C201.998 277.77 201.778 269.98 201.778 269.98L192.048 270.61L197.803 282.14L197.817 282.13Z" fill="#DB6345"/>
<path d="M372.297 282.93C372.297 282.93 374.974 282.15 376.161 280.51C377.348 278.87 378.866 267.2 378.866 267.2L370.489 265.52L372.297 282.94V282.93Z" fill="#DB6345"/>
<path d="M399.98 285.18C399.98 285.18 404.686 285.12 406.95 282.23C409.213 279.33 416.679 263.2 416.679 263.2L407.06 260.22L399.98 285.18Z" fill="#DB6345"/>
<path d="M512.206 108.3L506.161 162.18L495.107 295.2C495.107 295.2 466.568 291.56 426.933 287.69C421.399 287.14 415.644 286.6 409.71 286.05C410.345 281.26 410.869 275.27 410.924 271.08C410.993 267.64 410.731 265.41 409.958 266.01C409.337 266.5 408.136 268.5 406.687 271.24C404.659 275.11 402.119 280.47 399.953 285.17C393.328 284.6 386.525 284.02 379.625 283.48C378.824 279.68 377.72 274.93 376.754 272.27C376.326 271.08 375.912 270.31 375.567 270.24C375.181 270.16 374.767 271 374.339 272.34C373.552 274.91 372.752 279.34 372.255 282.91C342.253 280.65 310.677 278.89 282.345 278.59C256.842 278.33 230.676 279.55 206.29 281.43C204.303 278.8 201.902 275.79 200.398 274.47C199.639 273.79 199.114 273.55 198.99 274C198.948 274.11 198.907 274.26 198.879 274.43C198.562 275.86 198.12 279.09 197.775 282.12C178.482 283.76 160.514 285.77 145.182 287.71C114.696 291.57 94.4787 295.19 94.4787 295.19L78.6357 109.56C78.6357 109.56 99.7643 113.01 136.198 116.53C136.984 116.61 137.785 116.68 138.585 116.76C139.551 120.99 141.994 131.27 143.774 136.53C144.644 139.13 145.361 140.51 145.637 139.31C145.817 138.56 146.106 137.28 146.465 135.7C147.597 130.67 149.405 122.51 150.44 117.84C151.709 117.95 152.993 118.07 154.29 118.18C154.621 122.4 155.436 131.85 157.161 130.02C158.623 128.46 160.238 122.43 161.108 118.74C194.684 121.42 237.01 123.71 285.257 123.96C296.408 124.02 307.545 123.91 318.544 123.69C318.82 124.9 319.109 126.25 319.454 127.68C322.394 140.43 327.514 160.47 329.929 156.22C332.179 152.28 335.78 137.79 338.002 128.17C338.458 126.24 338.844 124.51 339.162 123.1C384.413 121.51 426.298 118.01 457.528 114.8C490.981 111.37 512.206 108.29 512.206 108.29V108.3Z" fill="url(#paint2_linear_528_6421)"/>
<path style="mix-blend-mode:multiply" opacity="0.5" d="M145.223 287.72C114.738 291.58 94.5201 295.2 94.5201 295.2L78.6357 109.56C78.6357 109.56 99.7643 113.01 136.198 116.53C127.766 138.05 120.327 170.23 125.033 211.99C129.587 252.39 137.923 275.09 145.209 287.72H145.223Z" fill="url(#paint3_linear_528_6421)"/>
<path style="mix-blend-mode:multiply" opacity="0.5" d="M512.206 108.3L506.161 162.18L495.107 295.2C495.107 295.2 466.568 291.56 426.933 287.69C437.366 269.48 452.408 236.8 458.177 192.36C462.441 159.55 460.661 133.42 457.528 114.82C490.981 111.39 512.206 108.31 512.206 108.31V108.3Z" fill="url(#paint4_linear_528_6421)"/>
<path d="M54.002 108.3C54.002 108.3 54.3608 104.85 79.0085 104.02C103.642 103.18 107.617 107.36 107.617 107.36L91.9809 117.17L64.8905 116.7L54.0158 108.29L54.002 108.3Z" fill="#872316"/>
<path d="M100.192 349.21C100.192 349.21 92.8503 349.86 92.1189 348.16C91.3874 346.45 94.3131 325.28 94.3131 325.28L100.192 349.22V349.21Z" fill="#FC6212"/>
<path d="M104.346 317.53C104.415 317.61 104.484 317.7 104.553 317.76C104.622 317.84 104.664 317.91 104.691 317.97C104.76 318.05 104.802 318.12 104.829 318.18C104.871 318.27 104.898 318.33 104.94 318.42V318.44C107.092 323.02 109.438 340.57 109.19 346.81C109.162 346.86 109.162 346.88 109.176 346.92C109.066 349.37 96.3004 349.83 93.1401 348.49C92.7261 348.31 92.4639 348.08 92.4363 347.84C92.105 344.25 94.5201 319.69 95.3482 318.18C96.3418 316.37 102.925 316.41 104.332 317.53H104.346Z" fill="url(#paint5_linear_528_6421)"/>
<g style="mix-blend-mode:multiply" opacity="0.8">
<path d="M99.1435 315.74C102.083 315.64 103.601 316.73 104.346 317.53C104.415 317.61 104.484 317.7 104.553 317.76C104.622 317.84 104.664 317.91 104.691 317.97C104.76 318.05 104.802 318.12 104.829 318.18C104.898 318.33 104.94 318.42 104.94 318.42V318.44C107.093 323.02 109.439 340.57 109.19 346.81C109.19 346.81 105.381 338.06 104.484 329.99C103.56 321.9 104.567 318.68 103.284 317.88C102 317.08 96.5766 316.95 95.3622 318.18C94.8102 318.73 94.4238 315.87 99.1435 315.73V315.74Z" fill="#D42F55"/>
</g>
<g style="mix-blend-mode:soft-light" opacity="0.5">
<path d="M101.724 347.64C101.559 348.08 95.1 348.97 94.3824 347.66C93.6647 346.35 94.9758 319.24 96.5904 318.49C98.2051 317.74 103.021 344.03 101.71 347.64H101.724Z" fill="white"/>
</g>
<path d="M99.0604 326.78C106.941 326.38 114.6 325.41 120.782 324.37C125.212 323.63 128.897 322.86 131.478 322.2C133.907 321.6 135.356 321.09 135.48 320.84C136.046 319.71 135.77 312.77 135.535 308.23C135.411 305.9 135.287 304.22 135.287 304.22L128.193 304.39L124.343 304.47L63.0825 305.89C63.0825 305.89 65.5942 321.89 66.2014 322.68C66.5878 323.19 78.6357 326.57 92.7536 326.87H92.7812C94.8513 326.92 96.9075 326.89 99.0328 326.79L99.0604 326.78Z" fill="url(#paint6_linear_528_6421)"/>
<g style="mix-blend-mode:multiply" opacity="0.8">
<path d="M120.782 324.36C129.339 322.93 135.232 321.35 135.48 320.83C136.322 319.14 135.287 304.21 135.287 304.21L129.256 306.09C121.983 307.19 111.647 309.54 110.998 312.53C109.135 321.1 111.771 323.72 112.668 324.42C113.689 325.22 116.615 324.8 120.769 324.36H120.782Z" fill="#D42F55"/>
</g>
<path d="M102.966 310.25C122.894 308.67 136.018 306.45 135.287 304.22C134.735 302.44 130.415 299.75 120.7 298.17C115.207 297.27 108.003 296.74 98.7292 296.94C97.363 296.96 95.9415 297.01 94.4925 297.08C65.7736 298.36 63.5931 304.07 63.0963 305.88C62.5581 307.67 83.038 311.82 102.966 310.24V310.25Z" fill="#FF7A00"/>
<g style="mix-blend-mode:soft-light" opacity="0.5">
<path d="M133.01 304.14C135.135 302.82 121.804 296.43 100.717 298.28C79.6294 300.12 78.2355 306.97 79.8364 307.81C81.4372 308.65 121.045 311.59 133.01 304.14Z" fill="white"/>
</g>
<path d="M85.0117 312.27C84.4596 311.54 75.6135 309.12 74.3301 310.71C73.0466 312.3 73.8746 323.69 75.1167 324.24C76.3449 324.79 84.1698 325.88 84.4182 324.95C84.6666 324.02 85.6051 313.04 85.0255 312.27H85.0117Z" fill="#FF6500"/>
<path d="M65.111 307.15C64.8626 306.92 71.887 308.38 79.3393 309.21C87.7024 310.15 96.5623 310.5 95.6515 310.57C82.5548 311.71 66.146 308.1 65.0972 307.14L65.111 307.15Z" fill="#FFA457"/>
<g style="mix-blend-mode:multiply" opacity="0.5">
<path d="M131.492 322.2C133.921 321.6 135.37 321.09 135.494 320.84C136.06 319.71 135.784 312.77 135.549 308.23C128.193 308.17 116.67 308.88 115.704 313.9C114.779 318.72 123.695 321.24 131.492 322.2Z" fill="#D42F55"/>
</g>
<path d="M116.67 301.78C116.339 308.72 79.0775 308.48 78.9257 302.2C78.8981 301.05 78.8567 299.82 78.8291 298.53C78.8291 297.62 78.8015 296.67 78.7877 295.68C78.415 274.33 78.3184 237 75.2271 205.07C72.743 179.39 65.829 130.66 62.5997 108.51C61.675 102.1 61.0402 97.9098 60.916 97.1298C60.916 97.0398 60.916 96.9998 60.916 96.9998L96.0107 95.2998C96.0107 95.2998 96.0107 95.3498 96.0107 95.4298C95.9555 97.2998 95.4311 118.49 96.4799 148.96C97.0181 165.12 97.3907 183.95 99.8196 203.77C101.545 217.88 103.629 231.47 105.74 243.82C110.032 269.05 114.407 289.07 116.035 297.53C116.491 299.86 116.739 301.32 116.711 301.77L116.67 301.78Z" fill="url(#paint7_linear_528_6421)"/>
<g style="mix-blend-mode:multiply" opacity="0.8">
<path d="M60.9019 97.1297L95.9689 95.4297C95.9275 97.2997 95.3893 118.49 96.4381 148.95C93.0432 131.52 88.213 113.01 83.9763 112.9C78.1387 112.74 68.8233 110.49 62.5993 108.5C61.6747 102.1 61.0537 97.9097 60.9157 97.1197L60.9019 97.1297Z" fill="#D42F55"/>
</g>
<path d="M71.473 50.1396C71.473 50.1396 64.076 50.1996 63.6757 51.9596C63.2755 53.7196 70.0516 74.4296 70.0516 74.4296L71.473 50.1396Z" fill="#FC6212"/>
<path d="M77.366 104.13C85.246 103.73 92.9053 102.76 99.0879 101.72C103.518 100.98 107.203 100.21 109.783 99.5498C112.212 98.9498 113.661 98.4398 113.785 98.1898C114.351 97.0598 114.075 90.1198 113.841 85.5798C113.716 83.2498 113.592 81.5698 113.592 81.5698L106.499 81.7398L102.648 81.8198L41.4019 83.2298C41.4019 83.2298 43.9135 99.2298 44.5208 100.02C44.9072 100.53 56.955 103.91 71.0729 104.21H71.1005C73.1706 104.26 75.2269 104.23 77.3522 104.13H77.366Z" fill="url(#paint8_linear_528_6421)"/>
<g style="mix-blend-mode:multiply" opacity="0.8">
<path d="M99.1018 101.71C107.658 100.28 113.551 98.6996 113.799 98.1796C114.641 96.4896 113.606 81.5596 113.606 81.5596L107.575 83.4396C100.302 84.5396 89.9659 86.8896 89.3172 89.8796C87.4542 98.4496 90.0901 101.07 90.9871 101.77C92.0083 102.57 94.934 102.15 99.088 101.71H99.1018Z" fill="#D42F55"/>
</g>
<path d="M81.2854 87.5899C101.213 86.0099 114.338 83.7899 113.606 81.5599C113.054 79.7799 108.735 77.0899 99.0191 75.5099C93.5265 74.6099 86.3226 74.0799 77.0487 74.2799C75.6824 74.2999 74.261 74.3499 72.8119 74.4199C44.0931 75.7099 41.9126 81.4199 41.402 83.2299C40.8638 85.0199 61.3437 89.1699 81.2716 87.5899H81.2854Z" fill="#FF7A00"/>
<g style="mix-blend-mode:multiply" opacity="0.5">
<path d="M99.0192 75.5099C93.5266 74.6099 86.3228 74.0799 77.0488 74.2799C77.5732 77.3599 78.6911 80.8399 80.8716 81.1599C83.3695 81.5499 92.6296 78.2599 99.0192 75.5099Z" fill="#D42F55"/>
</g>
<g style="mix-blend-mode:soft-light" opacity="0.5">
<path d="M111.329 81.4899C113.454 80.1699 100.123 73.7799 79.0359 75.6299C57.9487 77.4699 56.5549 84.3199 58.1557 85.1599C59.7566 85.9999 99.364 88.9399 111.329 81.4899Z" fill="white"/>
</g>
<path d="M81.3819 81.1396C81.4371 81.0496 81.4923 80.9596 81.5475 80.8896C81.6027 80.7996 81.6303 80.7296 81.6441 80.6696C81.6993 80.5796 81.7269 80.5096 81.7407 80.4496C81.7683 80.3596 81.7821 80.2896 81.8097 80.1996V80.1796C83.107 75.4296 82.2099 57.8096 80.8161 51.6496C80.7885 51.6096 80.7747 51.5896 80.7747 51.5396C80.2227 49.1296 67.471 49.8996 64.5867 51.5396C64.2141 51.7596 63.9933 52.0096 64.0209 52.2496C64.3521 55.8396 71.2523 79.9496 72.3426 81.3696C73.6536 83.0696 80.1813 82.3996 81.3681 81.1496L81.3819 81.1396Z" fill="url(#paint9_linear_528_6421)"/>
<g style="mix-blend-mode:multiply" opacity="0.8">
<path d="M72.5771 53.6698C76.2481 53.2898 79.7258 52.5798 80.8298 51.6398C80.8022 51.5998 80.7884 51.5798 80.7884 51.5298C80.2364 49.1198 67.4848 49.8898 64.6005 51.5298C64.4349 51.7098 64.3935 51.8898 64.4349 52.0698C64.7247 52.8898 67.4296 54.1898 72.5633 53.6798L72.5771 53.6698Z" fill="#D42F55"/>
</g>
<g style="mix-blend-mode:multiply" opacity="0.8">
<path d="M76.5517 83.4199C79.4774 83.2299 80.7885 81.9999 81.3819 81.1399C81.4371 81.0499 81.4923 80.9599 81.5475 80.8899C81.6027 80.7999 81.6303 80.7299 81.6441 80.6699C81.6993 80.5799 81.7269 80.5099 81.7407 80.4499C81.7821 80.2899 81.8097 80.1999 81.8097 80.1999V80.1799C83.1069 75.4299 82.2099 57.8099 80.8161 51.6499C80.8161 51.6499 78.6494 60.6899 79.229 68.7799C79.7948 76.8899 81.3819 79.9799 80.2502 80.8999C79.1186 81.8099 73.7778 82.4699 72.3425 81.3699C71.6939 80.8699 71.8319 83.7499 76.5379 83.4299L76.5517 83.4199Z" fill="#D42F55"/>
</g>
<g style="mix-blend-mode:multiply" opacity="0.8">
<path d="M80.0297 51.2896C80.1401 50.7596 71.1422 48.9396 68.0233 51.0096C64.9044 53.0796 79.6847 53.0296 80.0297 51.2896Z" fill="#D42F55"/>
</g>
<g style="mix-blend-mode:soft-light" opacity="0.5">
<path d="M74.0404 54.7899C73.8058 54.3699 67.2367 54.1099 66.7675 55.4799C66.2983 56.8499 71.8047 80.3499 73.5436 80.9399C75.2824 81.5299 76.0138 58.2399 74.0404 54.7899Z" fill="white"/>
</g>
<path d="M65.6632 52.9997C65.6632 52.9997 66.16 53.8197 68.7131 53.9297C70.659 54.0197 71.487 53.7597 71.487 53.7597C71.487 53.7597 71.142 53.7497 68.6165 53.6097C67.6505 53.5597 65.9392 52.8297 65.6494 52.9997H65.6632Z" fill="#FFA457"/>
<path d="M63.331 89.62C62.779 88.89 53.9328 86.47 52.6494 88.06C51.366 89.65 52.194 101.04 53.436 101.59C54.6643 102.14 62.4892 103.23 62.7376 102.3C62.986 101.37 63.9244 90.39 63.3448 89.62H63.331Z" fill="#FF6500"/>
<path d="M43.4166 84.4998C43.1682 84.2698 50.1927 85.7299 57.6449 86.5599C66.008 87.4999 74.868 87.8499 73.9571 87.9299C60.8605 89.0698 44.4517 85.4598 43.4028 84.4998H43.4166Z" fill="#FFA457"/>
<g style="mix-blend-mode:multiply" opacity="0.5">
<path d="M109.797 99.5397C112.226 98.9397 113.675 98.4297 113.8 98.1797C114.365 97.0497 114.089 90.1097 113.855 85.5697C106.499 85.5097 94.9757 86.2197 94.0097 91.2397C93.0851 96.0597 102 98.5797 109.797 99.5397Z" fill="#D42F55"/>
</g>
<g style="mix-blend-mode:multiply" opacity="0.8">
<path d="M105.298 242.16C105.257 241.87 105.229 241.69 105.229 241.6C105.271 241.75 105.34 242.17 105.423 242.84C105.354 242.59 105.312 242.36 105.298 242.16Z" fill="#D42F55"/>
</g>
<g style="mix-blend-mode:multiply" opacity="0.8">
<path d="M123.708 298.72C123.708 298.72 123.625 298.75 123.598 298.75C116.463 299.38 118.616 300.94 118.74 301.57C118.85 302.2 119.057 306.9 97.6667 307.68C76.2621 308.46 76.3725 302.51 74.5371 300.94C73.778 300.28 71.6942 300.4 69.5137 300.78C71.7494 299.95 74.7579 299.17 78.8428 298.52C78.8428 297.61 78.8152 296.66 78.8014 295.67C79.3396 296.68 80.0435 297.53 80.8715 298.22C85.3704 301.98 93.7059 301.02 102.704 297.81C103.228 297.62 103.684 297.32 104.112 296.91C111.564 289.79 106.568 250.59 105.423 242.86C105.505 243.15 105.574 243.47 105.699 243.83C109.991 269.06 114.365 289.08 115.994 297.54C117.691 297.72 119.264 297.93 120.714 298.17C121.776 298.34 122.77 298.53 123.708 298.72Z" fill="#D42F55"/>
</g>
<path d="M115.483 257.42C112.185 236.15 108.693 209.55 108.472 190.99C108.21 169.44 107.948 143.45 107.782 126.23C107.672 115.42 107.617 108.06 107.603 107.41V107.36C107.603 107.36 97.4457 111.44 79.7258 112.06C78.3872 112.11 75.6823 113.7 75.5581 114.7C74.9095 120.12 73.7364 128.71 72.66 130.11C71.4593 131.64 69.5411 120.35 68.6026 114.28C68.437 113.18 68.2852 112.25 68.2024 111.6C59.5081 110.59 54.2363 108.4 54.0293 108.31V108.39C54.0293 108.46 54.0293 108.52 54.0293 108.59L70.4381 293.12C70.4381 293.12 67.954 299.53 100.73 298.29C121.445 297.51 121.445 292.18 121.445 292.18C121.445 292.18 118.547 277.08 115.497 257.43L115.483 257.42Z" fill="url(#paint10_linear_528_6421)"/>
<path d="M72.4394 111.51C72.398 111.25 59.0805 109.85 59.3289 107.96C59.4117 107.3 60.5434 106.7 62.2685 106.23C62.1718 105.62 62.1028 105.04 62.0062 104.48C58.8459 105.27 54.6092 106.59 54.071 108.05C54.0434 108.13 54.0158 108.22 54.002 108.3V108.38C54.002 108.45 54.002 108.51 54.002 108.58C54.3332 110.42 59.2737 113.21 68.5615 114.27C68.4511 113.59 69.8449 129.79 72.3566 130.25C72.4946 130.28 72.4532 111.76 72.4118 111.51H72.4394ZM95.8313 103.12C95.8313 103.76 95.8313 104.43 95.8313 105.13C99.309 105.99 100.937 106.77 100.91 107.18C100.841 108.01 93.9544 110.62 80.3747 111.2C78.8153 111.27 75.6825 113.7 75.5583 114.7C77.0902 114.72 78.6772 114.7 80.3747 114.62C98.3292 113.86 107.341 108.58 107.603 107.4C107.603 107.38 107.603 107.37 107.603 107.36C107.658 106.65 102.483 104.2 95.8313 103.11V103.12Z" fill="#FFC59F"/>
<path d="M531.306 108.3C531.306 108.3 530.947 104.85 506.299 104.02C481.652 103.19 477.691 107.36 477.691 107.36L493.327 117.17L520.417 116.7L531.292 108.29L531.306 108.3Z" fill="#872316"/>
<path d="M485.116 349.21C485.116 349.21 492.458 349.86 493.189 348.16C493.92 346.45 490.995 325.28 490.995 325.28L485.116 349.22V349.21Z" fill="#FC6212"/>
<path d="M480.962 317.53C480.893 317.61 480.824 317.7 480.755 317.76C480.686 317.84 480.644 317.91 480.617 317.97C480.548 318.05 480.506 318.12 480.479 318.18C480.437 318.27 480.41 318.33 480.368 318.42V318.44C478.215 323.02 475.869 340.57 476.118 346.81C476.145 346.86 476.145 346.88 476.132 346.92C476.242 349.37 489.007 349.83 492.168 348.49C492.582 348.31 492.844 348.08 492.872 347.84C493.203 344.25 490.788 319.69 489.96 318.18C488.966 316.37 482.383 316.41 480.976 317.53H480.962Z" fill="url(#paint11_linear_528_6421)"/>
<g style="mix-blend-mode:multiply" opacity="0.8">
<path d="M486.165 315.74C483.225 315.64 481.707 316.73 480.962 317.53C480.893 317.61 480.824 317.7 480.755 317.76C480.686 317.84 480.644 317.91 480.617 317.97C480.548 318.05 480.506 318.12 480.479 318.18C480.41 318.33 480.368 318.42 480.368 318.42V318.44C478.215 323.02 475.869 340.57 476.118 346.81C476.118 346.81 479.927 338.06 480.824 329.99C481.748 321.9 480.741 318.68 482.024 317.88C483.308 317.08 488.731 316.95 489.946 318.18C490.498 318.73 490.884 315.87 486.165 315.73V315.74Z" fill="#D42F55"/>
</g>
<g style="mix-blend-mode:soft-light" opacity="0.5">
<path d="M483.584 347.64C483.749 348.08 490.208 348.97 490.925 347.66C491.643 346.35 490.332 319.24 488.717 318.49C487.103 317.74 482.273 344.03 483.597 347.64H483.584Z" fill="white"/>
</g>
<path d="M486.247 326.78C478.367 326.38 470.708 325.41 464.525 324.37C460.095 323.63 456.411 322.86 453.83 322.2C451.401 321.6 449.952 321.09 449.828 320.84C449.262 319.71 449.538 312.77 449.773 308.23C449.897 305.9 450.021 304.22 450.021 304.22L457.115 304.39L460.965 304.47L522.225 305.89C522.225 305.89 519.714 321.89 519.106 322.68C518.72 323.19 506.672 326.57 492.554 326.87H492.527C490.457 326.92 488.4 326.89 486.275 326.79L486.247 326.78Z" fill="url(#paint12_linear_528_6421)"/>
<g style="mix-blend-mode:multiply" opacity="0.8">
<path d="M464.512 324.36C455.955 322.93 450.063 321.35 449.814 320.83C448.972 319.14 450.007 304.21 450.007 304.21L456.038 306.09C463.311 307.19 473.648 309.54 474.296 312.53C476.159 321.1 473.524 323.72 472.626 324.42C471.605 325.22 468.68 324.8 464.526 324.36H464.512Z" fill="#D42F55"/>
</g>
<path d="M482.328 310.25C462.4 308.67 449.276 306.45 450.007 304.22C450.559 302.44 454.879 299.75 464.594 298.17C470.087 297.27 477.291 296.74 486.565 296.94C487.931 296.96 489.352 297.01 490.801 297.08C519.52 298.36 521.701 304.07 522.198 305.88C522.736 307.67 502.256 311.82 482.328 310.24V310.25Z" fill="#FF7A00"/>
<g style="mix-blend-mode:soft-light" opacity="0.5">
<path d="M452.284 304.14C450.159 302.82 463.49 296.43 484.577 298.28C505.665 300.12 507.058 306.97 505.458 307.81C503.857 308.65 464.249 311.59 452.284 304.14Z" fill="white"/>
</g>
<path d="M500.282 312.27C500.834 311.54 509.681 309.12 510.964 310.71C512.247 312.3 511.419 323.69 510.177 324.24C508.949 324.79 501.124 325.88 500.876 324.95C500.627 324.02 499.703 313.04 500.269 312.27H500.282Z" fill="#FF6500"/>
<path d="M520.197 307.15C520.445 306.92 513.421 308.38 505.968 309.21C497.605 310.15 488.745 310.5 489.656 310.57C502.753 311.71 519.162 308.1 520.21 307.14L520.197 307.15Z" fill="#FFA457"/>
<g style="mix-blend-mode:multiply" opacity="0.5">
<path d="M453.816 322.2C451.387 321.6 449.938 321.09 449.814 320.84C449.248 319.71 449.524 312.77 449.759 308.23C457.115 308.17 468.638 308.88 469.604 313.9C470.529 318.72 461.614 321.24 453.816 322.2Z" fill="#D42F55"/>
</g>
<path d="M468.638 301.78C468.969 308.72 506.231 308.48 506.383 302.2C506.41 301.05 506.452 299.82 506.479 298.53C506.479 297.62 506.507 296.67 506.521 295.68C506.893 274.33 506.99 237 510.081 205.07C512.565 179.39 519.479 130.66 522.709 108.51C523.633 102.1 524.268 97.9098 524.392 97.1298C524.392 97.0398 524.392 96.9998 524.392 96.9998L489.298 95.2998C489.298 95.2998 489.298 95.3498 489.298 95.4298C489.353 97.2998 489.877 118.49 488.828 148.96C488.29 165.12 487.918 183.95 485.489 203.77C483.764 217.88 481.68 231.47 479.568 243.82C475.276 269.05 470.902 289.07 469.273 297.53C468.818 299.86 468.569 301.32 468.597 301.77L468.638 301.78Z" fill="url(#paint13_linear_528_6421)"/>
<g style="mix-blend-mode:multiply" opacity="0.8">
<path d="M524.392 97.1297L489.325 95.4297C489.367 97.2997 489.905 118.49 488.856 148.95C492.251 131.52 497.081 113.01 501.318 112.9C507.155 112.74 516.471 110.49 522.695 108.5C523.619 102.1 524.24 97.9097 524.378 97.1197L524.392 97.1297Z" fill="#D42F55"/>
</g>
<path d="M513.835 50.1396C513.835 50.1396 521.232 50.1996 521.632 51.9596C522.032 53.7196 515.256 74.4296 515.256 74.4296L513.821 50.1396H513.835Z" fill="#FC6212"/>
<path d="M507.928 104.13C500.048 103.73 492.389 102.76 486.206 101.72C481.776 100.98 478.091 100.21 475.511 99.5498C473.082 98.9498 471.633 98.4398 471.509 98.1898C470.943 97.0598 471.219 90.1198 471.453 85.5798C471.577 83.2498 471.702 81.5698 471.702 81.5698L478.795 81.7398L482.646 81.8198L543.906 83.2398C543.906 83.2398 541.394 99.2398 540.787 100.03C540.401 100.54 528.353 103.92 514.235 104.22H514.207C512.137 104.27 510.081 104.24 507.956 104.14L507.928 104.13Z" fill="url(#paint14_linear_528_6421)"/>
<g style="mix-blend-mode:multiply" opacity="0.8">
<path d="M486.206 101.71C477.65 100.28 471.757 98.6996 471.509 98.1796C470.667 96.4896 471.702 81.5596 471.702 81.5596L477.733 83.4396C485.005 84.5396 495.342 86.8896 495.991 89.8796C497.854 98.4496 495.218 101.07 494.321 101.77C493.3 102.57 490.374 102.15 486.22 101.71H486.206Z" fill="#D42F55"/>
</g>
<path d="M504.022 87.5899C484.094 86.0099 470.97 83.7899 471.701 81.5599C472.253 79.7799 476.573 77.0899 486.289 75.5099C491.781 74.6099 498.985 74.0799 508.259 74.2799C509.625 74.2999 511.047 74.3499 512.496 74.4199C541.215 75.6999 543.395 81.4099 543.892 83.2199C544.43 85.0099 523.95 89.1599 504.022 87.5799V87.5899Z" fill="#FF7A00"/>
<g style="mix-blend-mode:multiply" opacity="0.5">
<path d="M486.275 75.5099C491.768 74.6099 498.971 74.0799 508.245 74.2799C507.721 77.3599 506.603 80.8399 504.423 81.1599C501.925 81.5499 492.665 78.2599 486.275 75.5099Z" fill="#D42F55"/>
</g>
<g style="mix-blend-mode:soft-light" opacity="0.5">
<path d="M473.979 81.4899C471.853 80.1699 485.185 73.7799 506.272 75.6299C527.359 77.4699 528.753 84.3199 527.152 85.1599C525.551 85.9999 485.944 88.9399 473.979 81.4899Z" fill="white"/>
</g>
<path d="M503.912 81.1396C503.857 81.0496 503.802 80.9596 503.747 80.8896C503.691 80.7996 503.664 80.7296 503.65 80.6696C503.595 80.5796 503.567 80.5096 503.553 80.4496C503.526 80.3596 503.512 80.2896 503.484 80.1996V80.1796C502.187 75.4296 503.084 57.8096 504.478 51.6496C504.506 51.6096 504.519 51.5896 504.519 51.5396C505.071 49.1296 517.823 49.8996 520.707 51.5396C521.08 51.7596 521.301 52.0096 521.273 52.2496C520.942 55.8396 514.042 79.9496 512.952 81.3696C511.641 83.0696 505.113 82.3996 503.926 81.1496L503.912 81.1396Z" fill="url(#paint15_linear_528_6421)"/>
<g style="mix-blend-mode:multiply" opacity="0.8">
<path d="M512.731 53.6698C509.06 53.2898 505.582 52.5798 504.478 51.6398C504.506 51.5998 504.519 51.5798 504.519 51.5298C505.071 49.1198 517.823 49.8898 520.707 51.5298C520.873 51.7098 520.914 51.8898 520.873 52.0698C520.583 52.8898 517.878 54.1898 512.745 53.6798L512.731 53.6698Z" fill="#D42F55"/>
</g>
<g style="mix-blend-mode:multiply" opacity="0.8">
<path d="M508.742 83.4199C505.817 83.2299 504.506 81.9999 503.912 81.1399C503.857 81.0499 503.802 80.9599 503.747 80.8899C503.691 80.7999 503.664 80.7299 503.65 80.6699C503.595 80.5799 503.567 80.5099 503.553 80.4499C503.512 80.2899 503.484 80.1999 503.484 80.1999V80.1799C502.187 75.4299 503.084 57.8099 504.478 51.6499C504.478 51.6499 506.645 60.6899 506.051 68.7799C505.485 76.8899 503.898 79.9799 505.03 80.8999C506.162 81.8099 511.502 82.4699 512.938 81.3699C513.586 80.8699 513.448 83.7499 508.742 83.4299V83.4199Z" fill="#D42F55"/>
</g>
<g style="mix-blend-mode:multiply" opacity="0.8">
<path d="M505.265 51.2896C505.154 50.7596 514.152 48.9396 517.271 51.0096C520.39 53.0796 505.61 53.0296 505.265 51.2896Z" fill="#D42F55"/>
</g>
<g style="mix-blend-mode:soft-light" opacity="0.5">
<path d="M511.268 54.7899C511.502 54.3699 518.071 54.1099 518.541 55.4799C519.01 56.8499 513.503 80.3499 511.765 80.9399C510.026 81.5299 509.294 58.2399 511.268 54.7899Z" fill="white"/>
</g>
<path d="M519.645 52.9997C519.645 52.9997 519.148 53.8197 516.595 53.9297C514.649 54.0197 513.821 53.7597 513.821 53.7597C513.821 53.7597 514.166 53.7497 516.691 53.6097C517.657 53.5597 519.369 52.8297 519.658 52.9997H519.645Z" fill="#FFA457"/>
<path d="M521.977 89.62C522.529 88.89 531.375 86.47 532.658 88.06C533.942 89.65 533.114 101.04 531.872 101.59C530.643 102.14 522.819 103.23 522.57 102.3C522.322 101.37 521.397 90.39 521.963 89.62H521.977Z" fill="#FF6500"/>
<path d="M541.891 84.4998C542.139 84.2698 535.115 85.7299 527.663 86.5599C519.3 87.4999 510.44 87.8499 511.35 87.9299C524.447 89.0698 540.856 85.4598 541.905 84.4998H541.891Z" fill="#FFA457"/>
<g style="mix-blend-mode:multiply" opacity="0.5">
<path d="M475.511 99.5397C473.082 98.9397 471.633 98.4297 471.509 98.1797C470.943 97.0497 471.219 90.1097 471.453 85.5697C478.809 85.5097 490.332 86.2197 491.298 91.2397C492.223 96.0597 483.308 98.5797 475.511 99.5397Z" fill="#D42F55"/>
</g>
<g style="mix-blend-mode:multiply" opacity="0.8">
<path d="M480.009 242.16C480.051 241.87 480.078 241.69 480.078 241.6C480.037 241.75 479.968 242.17 479.885 242.84C479.954 242.59 479.996 242.36 480.009 242.16Z" fill="#D42F55"/>
</g>
<g style="mix-blend-mode:multiply" opacity="0.8">
<path d="M461.586 298.72C461.586 298.72 461.669 298.75 461.696 298.75C468.831 299.38 466.678 300.94 466.554 301.57C466.444 302.2 466.223 306.9 487.627 307.68C509.032 308.46 508.922 302.51 510.757 300.94C511.516 300.28 513.6 300.4 515.78 300.78C513.545 299.95 510.536 299.17 506.451 298.52C506.451 297.61 506.479 296.66 506.493 295.67C505.955 296.68 505.251 297.53 504.423 298.22C499.924 301.98 491.588 301.02 482.59 297.81C482.066 297.62 481.61 297.32 481.183 296.91C473.73 289.79 478.726 250.59 479.872 242.86C479.789 243.15 479.72 243.47 479.596 243.83C475.304 269.06 470.929 289.08 469.3 297.54C467.603 297.72 466.03 297.93 464.581 298.17C463.518 298.34 462.524 298.53 461.586 298.72Z" fill="#D42F55"/>
</g>
<path d="M480.354 298.04C480.354 298.04 483.253 297.61 483.901 296.4C484.55 295.2 485.888 286.98 485.888 286.98L482.507 285.7L480.354 298.04Z" fill="#FFC59F"/>
<path d="M493.065 298.44C493.065 298.44 498.489 296.36 499.027 294.87C499.565 293.38 506.479 270.24 506.479 270.24L502.919 265.38L493.065 298.43V298.44Z" fill="#FFC59F"/>
<path d="M480.354 298.04C480.354 298.04 483.253 297.61 483.901 296.4C484.55 295.2 485.888 286.98 485.888 286.98L482.507 285.7L480.354 298.04Z" fill="#DB6345"/>
<path d="M493.065 298.44C493.065 298.44 498.489 296.36 499.027 294.87C499.565 293.38 506.479 270.24 506.479 270.24L502.919 265.38L493.065 298.43V298.44Z" fill="#DB6345"/>
<path d="M531.306 108.31C531.099 108.39 525.827 110.58 517.133 111.6C517.036 112.25 506.934 112.11 505.61 112.06C487.876 111.44 477.733 107.36 477.733 107.36V107.41C477.733 108.34 477.594 122.63 477.401 141.12V141.14C477.249 156.62 477.07 175.04 476.863 191C476.615 211.67 472.309 242.33 468.735 264.48C466.126 280.58 463.891 292.18 463.891 292.18C463.891 292.18 463.891 296.76 480.355 298.04C481.624 294.41 484.44 286.66 484.978 287.27C485.516 287.86 486.441 294.95 486.855 298.36C489.104 298.43 491.16 298.45 493.065 298.44C493.782 296.3 495.094 292.46 496.57 288.29C499.717 279.4 503.664 268.98 504.423 270.29C505.182 271.61 505.527 281.31 505.679 289.07C505.748 292.72 505.775 295.94 505.789 297.67C516.084 296.2 514.883 293.1 514.883 293.1L531.292 108.57C531.292 108.5 531.292 108.44 531.292 108.37V108.29L531.306 108.31Z" fill="url(#paint16_linear_528_6421)"/>
<path d="M531.223 108.06C530.685 106.59 526.448 105.28 523.288 104.49C523.191 105.04 523.122 105.63 523.025 106.24C524.75 106.71 525.882 107.31 525.965 107.97C526.186 109.65 515.67 111.14 513.31 111.4C495.135 113.34 484.453 108.01 484.398 107.19C484.37 106.79 486.012 106 489.476 105.14C489.476 104.44 489.476 103.77 489.476 103.13C482.825 104.22 477.649 106.66 477.705 107.38C477.705 107.38 477.705 107.4 477.705 107.42C477.981 108.59 486.951 114.7 504.933 114.64C521.825 114.58 530.933 110.44 531.278 108.6C531.278 108.53 531.278 108.47 531.278 108.4V108.32C531.278 108.24 531.237 108.15 531.209 108.07L531.223 108.06Z" fill="#FFC59F"/>
<g style="mix-blend-mode:multiply" opacity="0.2">
<path d="M425.76 270.25C424.407 270.45 419.122 270.75 410.938 271.09C411.007 267.65 410.745 265.42 409.972 266.02C409.351 266.51 408.15 268.51 406.701 271.25C398.628 271.58 388.429 271.93 376.782 272.27C376.354 271.08 375.94 270.31 375.595 270.24C375.209 270.16 374.795 271 374.367 272.34C323.388 273.85 246.616 275.37 200.425 274.46C199.666 273.78 199.142 273.54 199.018 273.99C198.976 274.1 198.935 274.25 198.907 274.42C178.662 274 164.585 273.09 161.618 271.48C152.965 266.78 117.526 159.02 137.854 139.61C139.027 138.49 141.028 137.46 143.76 136.51C144.63 139.11 145.347 140.49 145.623 139.29C145.803 138.54 146.093 137.26 146.452 135.68C173.211 128.1 250.107 126.17 319.441 127.66C322.38 140.41 327.5 160.45 329.915 156.2C332.165 152.26 335.767 137.77 337.989 128.15C393.756 129.87 440.789 133.79 446.488 138.67C460.758 150.89 436.11 268.66 425.732 270.23L425.76 270.25Z" fill="#EF7A98"/>
</g>
<g style="mix-blend-mode:multiply" opacity="0.2">
<path d="M115.483 257.42C109.604 244.03 103.394 226.03 101.696 206.97C99.0191 177.01 104.939 141.1 107.782 126.23C107.948 143.45 108.21 169.45 108.472 190.99C108.693 209.55 112.199 236.15 115.483 257.42Z" fill="#EF7A98"/>
</g>
<g style="mix-blend-mode:multiply" opacity="0.2">
<path d="M482.093 207.39C479.485 233.15 473.62 252.24 468.707 264.47C472.281 242.32 476.587 211.67 476.836 190.99C477.029 175.02 477.208 156.61 477.374 141.13C481.169 156.97 484.798 180.59 482.093 207.39Z" fill="#EF7A98"/>
</g>
<g style="mix-blend-mode:screen" opacity="0.3">
<path d="M75.1719 291.13C73.1019 288.75 58.7494 123.44 62.7791 122.19C64.7526 121.58 78.7601 154.58 84.3907 164.58C88.7102 172.25 107.341 287.63 105.712 289.87C102.538 294.26 80.0573 296.76 75.1581 291.12L75.1719 291.13Z" fill="#FF8390"/>
</g>
<g style="mix-blend-mode:screen" opacity="0.3">
<path d="M510.481 288.72C509.943 288.58 508.052 288.89 505.678 289.08C505.526 281.32 505.181 271.62 504.422 270.3C503.663 268.98 499.716 279.41 496.57 288.3C494.472 287.47 492.83 285.99 492.333 283.41C491.215 277.72 486.399 123.36 485.847 121.36C484.688 117.19 516.967 117.6 523.881 119.27C530.809 120.94 512.661 289.31 510.481 288.73V288.72Z" fill="#FF8390"/>
</g>
<path d="M68.5889 114.28C68.5889 114.28 71.6802 111.15 72.4392 111.52C73.1982 111.89 72.7566 130.1 72.384 130.26C72.0114 130.42 70.1069 129.76 68.5889 114.28Z" fill="#DB6345"/>
<path d="M138.585 116.76C138.585 116.76 140.876 114.26 141.745 114.52C142.615 114.78 147.072 133.24 147.045 133.58C147.017 133.92 146.217 139.88 145.43 139.74C144.064 139.51 141.166 128.98 138.599 116.77L138.585 116.76Z" fill="#DB6345"/>
<path d="M154.304 118.18C154.304 118.18 157.712 115.98 157.781 116.37C158.471 120.32 159.686 124.79 159.589 124.85C159.479 124.92 157.823 130.68 156.691 130.24C155.104 129.63 154.262 119 154.318 118.17L154.304 118.18Z" fill="#DB6345"/>
<path d="M318.558 123.69C318.558 123.69 323.747 119.37 324.174 120.1C324.602 120.83 326.396 135.28 332.896 149.39C333.214 150.09 330.454 157.53 329.225 157.06C327.997 156.59 320.862 138.35 318.558 123.69Z" fill="#DB6345"/>
<g style="mix-blend-mode:screen" opacity="0.3">
<path d="M69.7759 217.78C61.675 216.74 75.8343 295.78 83.604 290.76C91.3875 285.75 105.009 222.32 69.7759 217.78Z" fill="#FF8390"/>
</g>
<g style="mix-blend-mode:multiply" opacity="0.3">
<path d="M61.5646 112.98C61.468 113.03 67.3746 114.41 67.8576 115.43C68.3406 116.45 69.1825 131.6 72.2048 130.84C75.2271 130.08 75.0891 118.19 75.0891 118.19C75.0891 118.19 73.3364 130.6 72.3704 130.25C70.5487 129.6 68.8512 114.41 68.5752 114.27C68.2992 114.13 61.6612 112.92 61.5508 112.98H61.5646Z" fill="#C60055"/>
</g>
<path d="M76.1515 114.52C75.4063 114.45 77.4763 111.6 80.3606 111.21C83.2449 110.82 94.8098 109.67 95.6792 110.74C96.5486 111.81 83.1483 115.2 76.1515 114.52Z" fill="#FFDEC8"/>
<path d="M501.304 111.91C502.794 111.7 508.701 112.58 515.725 111.44C522.75 110.3 523.881 108.82 525.662 108.74C527.442 108.66 530.423 109.01 529.774 109.84C529.125 110.66 522.322 113.6 514.055 114.23C505.789 114.86 493.148 113.06 501.304 111.92V111.91Z" fill="#FFDEC8"/>
<path d="M162.115 118.74C161.646 118.68 163.578 116.78 164.544 116.76C165.51 116.74 188.722 117.82 189.26 118.44C189.799 119.07 188.557 120.24 187.963 120.24C187.37 120.24 164.35 119.03 162.101 118.73L162.115 118.74Z" fill="#FFDEC8"/>
<path d="M341.066 122.69C340.321 122.59 341.715 119.37 344.157 119.04C346.6 118.71 380.177 117.21 380.287 118.44C380.398 119.67 373.442 121.02 369.33 121.39C365.217 121.76 348.298 123.66 341.052 122.7L341.066 122.69Z" fill="#FFDEC8"/>
<g style="mix-blend-mode:multiply" opacity="0.3">
<path d="M121.265 114.92C121.265 114.92 134.942 117.39 136.667 119.74C138.392 122.09 143.581 149.5 146.603 144.09C149.625 138.69 150.44 117.84 150.44 117.84C150.44 117.84 146.23 138.77 145.665 138.74C142.753 138.61 140.448 117.81 138.571 116.76C136.694 115.71 121.251 114.92 121.251 114.92H121.265Z" fill="#C60055"/>
</g>
<g style="mix-blend-mode:multiply" opacity="0.3">
<path d="M150.909 117.86C150.964 117.92 152.689 118.27 153.145 119.7C153.6 121.13 153.655 135.44 156.678 133.91C159.7 132.38 161.108 118.74 161.108 118.74C161.108 118.74 158.334 130.19 156.954 129.68C155.574 129.17 154.967 118.3 154.304 118.17C153.642 118.04 150.909 117.85 150.909 117.85V117.86Z" fill="#C60055"/>
</g>
<g style="mix-blend-mode:multiply" opacity="0.3">
<path d="M292.612 123.97C293.123 124.07 313.865 124.86 315.452 126.95C317.039 129.04 320.489 165.84 330.439 160.57C340.376 155.3 339.175 123.12 339.175 123.12C339.175 123.12 333.614 155.46 329.584 155.25C325.554 155.04 320.434 124.11 318.557 123.71C316.68 123.31 292.626 123.98 292.626 123.98L292.612 123.97Z" fill="#C60055"/>
</g>
<g style="mix-blend-mode:multiply" opacity="0.3">
<path d="M169.471 284.85C169.471 284.85 195.305 282.34 196.161 280.93C197.03 279.52 197.127 272.47 199.031 272.82C200.922 273.17 206.332 281.43 206.332 281.43C206.332 281.43 200.025 272.77 199.266 274.06C198.521 275.35 198.452 282.02 197.817 282.12C197.182 282.22 169.471 284.84 169.471 284.84V284.85Z" fill="#C60055"/>
</g>
<g style="mix-blend-mode:multiply" opacity="0.3">
<path d="M347.953 281.16C347.953 281.16 368.709 282.62 369.923 281.06C371.137 279.5 372.228 266.7 375.471 267.64C378.714 268.58 379.666 283.49 379.666 283.49C379.666 283.49 376.92 270.38 375.623 270.82C373.263 271.63 373.594 282.92 372.297 282.93C370.999 282.94 347.953 281.16 347.953 281.16Z" fill="#C60055"/>
</g>
<g style="mix-blend-mode:multiply" opacity="0.3">
<path d="M387.284 284.07C387.284 284.07 396.682 283.99 397.717 282.9C398.738 281.8 407.336 260.19 410.841 263.09C414.36 265.99 409.723 286.06 409.723 286.06C409.723 286.06 411.448 266.65 410.193 267C408.937 267.35 400.684 284.85 399.98 285.18C399.276 285.52 387.284 284.07 387.284 284.07Z" fill="#C60055"/>
</g>
<g style="mix-blend-mode:multiply" opacity="0.2">
<path d="M164.226 217.78C164.475 219.61 160.68 228.13 156.512 234.54C153.558 239.11 150.426 242.61 148.452 241.9C146.465 241.18 144.078 239.63 141.856 237.58C137.012 233.14 132.913 226.39 135.287 220.92C138.737 212.93 163.812 214.65 164.24 217.78H164.226Z" fill="#C60055"/>
</g>
<g style="mix-blend-mode:multiply" opacity="0.2">
<path d="M171.265 211.53C170.713 212.7 169.65 213.88 168.008 214.96C166.959 215.65 165.11 214.72 163.509 213.17C160.652 210.41 158.582 205.65 163.15 204.55C168.739 203.2 173.266 207.29 171.265 211.53Z" fill="#C60055"/>
</g>
<g style="mix-blend-mode:multiply" opacity="0.2">
<path d="M171.899 241.59C169.733 242.5 174.604 251.77 174.811 247.93C175.032 244.09 174.701 240.41 171.899 241.59Z" fill="#C60055"/>
</g>
<g style="mix-blend-mode:multiply" opacity="0.2">
<path d="M345.358 170.48C342.391 172.63 348.822 186.46 355.087 179.09C361.353 171.73 347.952 168.6 345.358 170.48Z" fill="#C60055"/>
</g>
<g style="mix-blend-mode:multiply" opacity="0.2">
<path d="M349.029 159.52C344.433 160.35 348.38 166.41 350.754 164.85C353.128 163.29 354.218 158.59 349.029 159.52Z" fill="#C60055"/>
</g>
<g style="mix-blend-mode:multiply" opacity="0.2">
<path d="M428.203 213.24C422.945 212.31 417.107 223.58 427.333 222.95C437.559 222.32 435.255 214.49 428.203 213.24Z" fill="#C60055"/>
</g>
<g style="mix-blend-mode:multiply" opacity="0.2">
<path d="M497.136 252.6C496.377 255.84 494.969 258.8 492.747 260.85C491.933 261.6 490.484 261.4 488.842 260.57C484.784 258.46 479.719 252.26 481.376 246.44C483.666 238.3 490.304 230.68 494.182 232.66C496.984 234.09 499.109 244.27 497.122 252.6H497.136Z" fill="#C60055"/>
</g>
<g style="mix-blend-mode:multiply" opacity="0.2">
<path d="M85.6188 133.88C81.1888 133.67 81.2992 141.97 84.1007 141.66C86.916 141.35 88.8619 134.04 85.6188 133.88Z" fill="#C60055"/>
</g>
<g style="mix-blend-mode:multiply" opacity="0.2">
<path d="M86.847 129.6C84.9425 131.23 90.5179 133.52 90.7387 131.79C90.9595 130.07 89.2206 127.56 86.847 129.6Z" fill="#C60055"/>
</g>
<g style="mix-blend-mode:multiply" opacity="0.2">
<path d="M164.227 217.78C164.475 219.61 160.68 228.13 156.512 234.54C155.325 231.93 162.156 220.35 161.632 218.1C161.066 215.65 150.688 214.96 140.227 218.25C129.78 221.54 142.091 237.41 142.091 237.41C142.091 237.41 141.994 237.49 141.828 237.58C136.984 233.14 132.886 226.39 135.259 220.92C138.709 212.93 163.785 214.65 164.213 217.78H164.227Z" fill="#C60055"/>
</g>
<g style="mix-blend-mode:multiply" opacity="0.2">
<path d="M171.265 211.53C171.182 211.37 171.141 211.18 171.113 210.97C170.851 209.31 169.954 205.26 164.185 205.1C158.43 204.95 163.757 213.01 163.757 213.01C163.757 213.01 163.661 213.09 163.509 213.17C160.652 210.41 158.582 205.65 163.15 204.55C168.739 203.2 173.266 207.29 171.265 211.53Z" fill="#C60055"/>
</g>
<g style="mix-blend-mode:multiply" opacity="0.2">
<path d="M497.136 252.6H497.081C494.914 252.54 495.425 234.69 492.03 233.91C488.649 233.13 483.377 241.53 482.59 247.95C481.803 254.38 488.566 259.7 489.145 260.02C489.463 260.19 489.256 260.43 488.828 260.57C484.771 258.46 479.706 252.26 481.362 246.44C483.653 238.3 490.291 230.68 494.169 232.66C496.97 234.09 499.095 244.27 497.108 252.6H497.136Z" fill="#C60055"/>
</g>
<g style="mix-blend-mode:multiply" opacity="0.1">
<path d="M170.574 267.11C171.527 262.11 250.121 194.02 314.086 202.79C378.065 211.56 430.521 257.5 421.868 263.35C413.229 269.2 168.256 279.22 170.574 267.11Z" fill="#EF7A98"/>
</g>
<g filter="url(#filter0_i_528_6421)">
<path d="M170.425 202.048C170.425 202.096 170.425 202.144 170.377 202.24C170.665 202.288 170.953 202.384 171.241 202.384C172.681 202.576 174.073 203.056 175.417 203.632C178.393 204.928 179.017 207.808 178.633 209.968C178.201 212.128 177.145 214 175.465 215.44C172.489 217.984 169.033 219.328 165.289 219.952C162.265 220.432 159.193 220.528 156.121 220.384C155.593 220.384 155.017 220.384 154.825 219.76C154.681 219.28 154.969 218.944 155.833 218.608C157.273 218.08 158.041 216.832 158.809 215.632C159.577 214.48 159.913 213.184 160.009 211.792C160.009 210.64 160.009 209.536 160.009 208.384C160.009 203.008 160.009 197.632 160.009 192.256C160.009 191.968 160.009 191.632 160.009 191.344C159.961 190.384 159.481 189.712 158.617 189.328C158.233 189.136 157.753 188.992 157.321 188.848C156.889 188.704 156.505 188.512 156.505 187.984C156.505 187.552 156.793 187.264 157.513 187.216C161.257 186.88 165.049 186.736 168.793 187.648C170.665 188.08 172.249 189.088 173.449 190.528C175.177 192.64 175.465 194.944 174.457 197.44C173.737 199.168 172.489 200.368 171.097 201.472C170.857 201.664 170.665 201.856 170.425 202.048ZM166.297 204.4C166.441 208.624 166.777 212.848 167.161 217.168C168.361 216.4 169.945 214.576 170.665 213.136C171.385 211.744 171.961 210.256 171.913 208.576C171.817 205.648 169.129 203.584 166.297 204.4ZM167.593 189.952C167.305 189.664 166.969 189.472 166.489 189.136C165.961 192.112 165.865 201.184 166.345 202.384C167.113 201.904 167.689 201.232 168.121 200.416C168.889 199.024 169.465 197.536 169.657 195.952C169.945 193.648 169.273 191.632 167.593 189.952ZM197.851 215.392C198.235 215.44 198.523 215.68 198.571 216.064C198.571 216.496 198.331 216.736 197.899 216.88C197.803 216.928 197.707 216.928 197.563 216.976C195.691 217.312 193.819 217.648 191.947 217.984C191.563 218.08 191.131 218.128 190.747 218.128C189.691 218.224 188.923 217.792 188.395 216.88C188.011 217.216 187.675 217.504 187.291 217.792C185.371 219.136 182.971 218.992 181.339 217.36C180.139 216.208 179.611 214.768 179.467 213.184C179.131 210.016 180.235 207.28 182.731 205.024C184.123 203.728 185.899 203.104 187.963 203.344C188.491 203.392 189.019 203.584 189.643 203.728C189.643 203.392 189.643 203.056 189.595 202.768C189.307 201.232 189.019 199.744 188.059 198.4C187.099 197.104 185.899 196.96 184.699 198.112C183.883 198.976 183.211 199.936 182.635 200.944C182.155 201.808 181.867 202.768 181.483 203.728C181.387 203.872 181.387 204.064 181.291 204.208C181.099 204.592 180.811 204.88 180.283 204.832C179.755 204.784 179.515 204.448 179.467 204.016C179.227 201.376 178.843 198.784 179.131 196.144C179.179 195.904 179.179 195.664 179.227 195.472C179.371 194.992 179.707 194.704 180.235 194.656C180.811 194.608 181.099 194.944 181.243 195.424C181.339 195.808 181.483 196.192 181.627 196.528C182.011 197.248 182.347 197.344 183.115 196.912C183.835 196.528 184.507 196.144 185.179 195.76C189.115 193.36 193.099 194.992 194.875 198.112C195.787 199.696 196.219 201.424 196.171 203.2C196.027 205.888 195.739 208.576 195.547 211.264C195.451 212.08 195.403 212.896 195.499 213.712C195.643 214.768 196.075 215.104 197.227 215.296C197.419 215.296 197.659 215.344 197.851 215.392ZM188.347 213.712C189.211 211.696 189.211 209.536 189.019 207.424C188.971 207.04 188.827 206.704 188.635 206.368C188.155 205.552 187.435 205.456 186.667 206.128C186.427 206.368 186.187 206.656 185.947 206.992C184.843 208.72 184.219 210.592 184.075 212.56C183.979 214.096 184.171 215.632 185.467 217.072C185.947 216.688 186.523 216.4 186.859 216.016C187.435 215.296 188.011 214.528 188.347 213.712ZM216.624 200.272C217.296 202.864 217.008 205.456 216.384 208.048C216.096 209.104 215.808 210.16 215.424 211.168C215.088 212.032 214.704 212.896 214.176 213.664C212.928 215.584 210.816 216.016 208.896 214.768C208.128 214.288 207.504 213.664 206.832 213.04C206.496 212.704 206.208 212.272 205.872 211.888C205.824 211.936 205.728 211.936 205.68 211.984C205.728 212.416 205.68 212.896 205.776 213.328C206.016 214.24 206.352 214.528 207.312 214.576C207.456 214.576 207.6 214.576 207.696 214.576C208.512 214.72 208.8 215.488 208.224 216.016C207.84 216.4 207.312 216.688 206.784 216.88C204.528 217.744 202.224 218.512 199.968 219.328C199.632 219.424 199.344 219.616 199.008 219.616C198.72 219.568 198.384 219.376 198.24 219.136C198.096 218.944 198.288 218.608 198.336 218.32C198.384 218.272 198.432 218.224 198.48 218.176C200.064 217.168 200.256 215.488 200.496 213.808C200.928 210.448 200.976 206.992 201.072 203.584C201.12 200.08 201.216 196.624 201.264 193.12C201.264 192.736 201.264 192.304 201.264 191.92C201.264 190.96 200.832 190.288 199.872 189.952C199.68 189.904 199.488 189.856 199.296 189.76C198.96 189.616 198.72 189.328 198.768 188.896C198.864 188.464 199.2 188.224 199.632 188.224C200.112 188.272 200.544 188.368 201.024 188.368C203.184 188.512 205.392 188.656 207.552 188.8C208.08 188.848 208.56 188.896 209.04 188.944C209.472 188.992 209.712 189.28 209.712 189.712C209.712 190.048 209.52 190.336 209.184 190.432C209.04 190.48 208.944 190.528 208.8 190.576C207.936 190.72 207.408 191.344 207.12 192.112C206.88 193.024 206.592 193.888 206.496 194.848C206.304 196.24 206.304 197.68 206.208 199.12C206.208 199.216 206.208 199.36 206.256 199.552C206.736 199.024 207.168 198.592 207.6 198.16C209.136 196.432 211.056 195.904 213.264 196.24C214.224 196.384 215.04 196.864 215.52 197.728C216 198.496 216.432 199.36 216.624 200.272ZM211.344 207.232C211.584 205.456 211.824 203.632 211.44 201.808C211.296 201.04 211.104 200.272 210.768 199.552C210.336 198.688 209.616 198.592 208.896 199.168C208.512 199.456 208.176 199.792 207.888 200.128C206.64 201.712 205.968 203.536 206.256 205.552C206.256 206.272 206.208 206.896 206.256 207.568C206.304 208.624 206.64 209.584 207.168 210.496C207.84 211.744 209.28 211.936 210.24 210.88C210.528 210.592 210.768 210.208 210.864 209.776C211.104 208.96 211.248 208.096 211.344 207.232ZM236.43 215.392C236.814 215.44 237.102 215.68 237.15 216.064C237.15 216.496 236.91 216.736 236.478 216.88C236.382 216.928 236.286 216.928 236.142 216.976C234.27 217.312 232.398 217.648 230.526 217.984C230.142 218.08 229.71 218.128 229.326 218.128C228.27 218.224 227.502 217.792 226.974 216.88C226.59 217.216 226.254 217.504 225.87 217.792C223.95 219.136 221.55 218.992 219.918 217.36C218.718 216.208 218.19 214.768 218.046 213.184C217.71 210.016 218.814 207.28 221.31 205.024C222.702 203.728 224.478 203.104 226.542 203.344C227.07 203.392 227.598 203.584 228.222 203.728C228.222 203.392 228.222 203.056 228.174 202.768C227.886 201.232 227.598 199.744 226.638 198.4C225.678 197.104 224.478 196.96 223.278 198.112C222.462 198.976 221.79 199.936 221.214 200.944C220.734 201.808 220.446 202.768 220.062 203.728C219.966 203.872 219.966 204.064 219.87 204.208C219.678 204.592 219.39 204.88 218.862 204.832C218.334 204.784 218.094 204.448 218.046 204.016C217.806 201.376 217.422 198.784 217.71 196.144C217.758 195.904 217.758 195.664 217.806 195.472C217.95 194.992 218.286 194.704 218.814 194.656C219.39 194.608 219.678 194.944 219.822 195.424C219.918 195.808 220.062 196.192 220.206 196.528C220.59 197.248 220.926 197.344 221.694 196.912C222.414 196.528 223.086 196.144 223.758 195.76C227.694 193.36 231.678 194.992 233.454 198.112C234.366 199.696 234.798 201.424 234.75 203.2C234.606 205.888 234.318 208.576 234.126 211.264C234.03 212.08 233.982 212.896 234.078 213.712C234.222 214.768 234.654 215.104 235.806 215.296C235.998 215.296 236.238 215.344 236.43 215.392ZM226.926 213.712C227.79 211.696 227.79 209.536 227.598 207.424C227.55 207.04 227.406 206.704 227.214 206.368C226.734 205.552 226.014 205.456 225.246 206.128C225.006 206.368 224.766 206.656 224.526 206.992C223.422 208.72 222.798 210.592 222.654 212.56C222.558 214.096 222.75 215.632 224.046 217.072C224.526 216.688 225.102 216.4 225.438 216.016C226.014 215.296 226.59 214.528 226.926 213.712ZM254.914 212.896C255.346 213.376 255.154 214.048 254.53 214.192C254.194 214.24 253.858 214.24 253.522 214.24C251.362 214.336 249.154 214.432 246.946 214.528C246.514 214.576 246.13 214.528 245.938 214.096C245.746 213.664 245.938 213.28 246.322 213.088C247.522 212.416 247.618 211.36 247.426 210.208C247.186 208.432 246.61 206.752 245.746 205.216C245.602 204.976 245.458 204.784 245.314 204.592C244.834 204.88 244.738 205.264 244.738 205.696C244.786 206.272 244.738 206.896 244.738 207.472C244.786 209.728 244.786 212.032 244.834 214.336C244.834 215.44 245.218 216.4 246.418 216.928C246.658 217.024 246.946 217.36 246.994 217.6C247.09 217.984 246.802 218.272 246.418 218.416C245.074 218.992 243.682 219.568 242.29 220.144C240.994 220.672 239.65 221.2 238.306 221.68C237.73 221.92 237.154 222.112 236.53 222.304C236.098 222.448 235.666 222.4 235.426 221.92C235.186 221.488 235.378 221.056 235.81 220.816C237.73 219.856 238.21 218.128 238.354 216.256C238.498 213.952 238.642 211.6 238.738 209.296C238.834 204.976 238.93 200.608 238.978 196.288C239.026 194.608 238.834 192.928 238.738 191.296C238.738 191.008 238.642 190.72 238.546 190.432C238.21 189.376 237.73 188.416 236.578 187.984C236.194 187.84 235.954 187.504 236.05 187.072C236.146 186.64 236.53 186.448 237.058 186.544C237.874 186.688 238.69 186.832 239.506 187.072C242.386 187.936 245.314 188.512 248.242 188.944C248.53 188.992 248.818 189.04 249.154 189.088C249.586 189.184 249.874 189.472 249.874 189.904C249.874 190.288 249.538 190.624 249.01 190.672C248.722 190.72 248.482 190.672 248.194 190.72C247.33 190.816 246.514 191.104 245.89 191.728C245.41 192.16 245.17 192.64 245.122 193.264C245.026 196.048 244.93 198.832 244.834 201.616C244.834 201.712 244.882 201.856 244.93 202.144C246.274 200.416 247.57 198.88 248.338 196.864C248.05 196.768 247.858 196.624 247.618 196.528C247.234 196.336 246.946 196.096 247.042 195.616C247.09 195.184 247.474 194.992 248.05 194.992C248.05 194.992 248.098 194.992 248.146 194.992C249.682 195.328 251.17 195.04 252.706 194.848C253.042 194.8 253.33 194.752 253.666 194.752C254.098 194.752 254.386 194.896 254.482 195.328C254.578 195.76 254.386 196.048 254.05 196.24C253.906 196.288 253.81 196.336 253.666 196.384C252.178 196.912 250.93 197.872 249.874 199.024C249.01 199.888 248.146 200.848 247.33 201.712C248.626 204.544 249.874 207.28 251.65 209.776C252.466 210.832 253.378 211.744 254.434 212.512C254.626 212.656 254.77 212.752 254.914 212.896ZM269.983 216.976C269.743 215.056 269.599 213.136 269.407 211.168C269.407 210.304 269.407 209.392 269.407 208.48C269.407 207.808 269.599 207.52 270.031 207.472C270.559 207.328 270.847 207.712 271.039 208.096C272.287 210.496 274.063 212.512 275.791 214.48C276.319 215.104 276.991 215.632 277.711 216.064C278.239 216.448 278.863 216.736 279.535 216.88C280.879 217.168 282.175 216.208 282.367 214.864C282.463 214.192 282.367 213.52 282.079 212.896C280.927 210.304 279.151 208.192 276.991 206.32C275.935 205.408 274.735 204.592 273.631 203.68C272.863 203.008 272.143 202.288 271.471 201.52C270.463 200.32 269.983 198.976 269.935 197.44C269.887 195.472 270.175 193.6 271.135 191.872C272.911 188.656 276.271 187.312 279.871 188.272C280.447 188.416 280.975 188.512 281.503 188.368C282.895 188.032 284.383 187.744 285.583 186.88C285.679 186.832 285.775 186.784 285.871 186.736C286.207 186.496 286.543 186.4 286.927 186.64C287.311 186.928 287.359 187.312 287.263 187.744C287.071 188.608 286.927 189.424 286.735 190.24C286.255 192.496 285.727 194.752 285.247 197.008C285.199 197.2 285.103 197.44 285.055 197.632C284.911 197.968 284.623 198.16 284.287 198.064C283.999 198.016 283.711 197.776 283.615 197.536C283.423 197.2 283.375 196.768 283.279 196.336C282.847 194.656 282.319 192.976 280.975 191.776C280.543 191.344 280.015 191.056 279.439 190.816C278.575 190.48 277.807 190.816 277.279 191.536C276.895 192.16 276.703 192.832 276.847 193.552C277.087 194.992 277.663 196.336 278.767 197.344C279.631 198.16 280.639 198.832 281.551 199.552C282.847 200.56 284.287 201.424 285.487 202.528C288.415 205.264 289.183 208.672 288.511 212.416C288.031 215.056 286.399 216.88 284.095 218.224C282.511 219.136 280.735 219.616 278.959 219.952C278.335 220.096 277.711 220.192 277.135 220.336C275.071 220.912 273.535 222.064 272.959 224.224C272.863 224.464 272.863 224.752 272.671 224.896C272.479 225.136 272.191 225.376 271.903 225.328C271.663 225.328 271.375 225.04 271.231 224.8C271.087 224.56 271.087 224.224 271.039 223.888C270.655 221.584 270.319 219.28 269.983 216.976ZM302.964 197.152C303.684 198.736 303.972 200.416 303.972 202.192C303.972 202.528 303.972 202.864 303.972 203.152C303.972 203.92 303.732 204.208 303.012 204.256C302.052 204.304 301.092 204.304 300.084 204.352C298.356 204.448 296.58 204.544 294.66 204.688C294.708 206.272 294.66 207.76 294.804 209.248C294.852 209.872 295.092 210.544 295.38 211.12C296.1 212.512 297.588 212.752 298.692 211.6C299.316 210.88 299.844 210.064 300.324 209.248C300.564 208.864 300.708 208.384 300.9 207.952C301.14 207.424 301.236 206.752 302.052 206.8C302.58 206.848 302.82 207.28 302.868 208.336C302.964 210.064 303.012 211.84 303.108 213.616C303.156 214.144 303.156 214.672 303.204 215.2C303.252 215.632 303.108 215.968 302.676 216.16C302.244 216.304 301.956 216.112 301.716 215.776C301.14 215.008 300.276 214.624 299.412 214.336C299.028 214.192 298.74 214.24 298.5 214.528C298.164 214.816 297.78 215.152 297.492 215.488C295.428 217.6 292.596 216.592 291.348 215.056C290.628 214.144 290.1 213.136 289.86 212.032C289.188 208.864 288.948 205.648 289.428 202.432C289.62 201.04 290.052 199.744 290.628 198.544C291.732 196.432 293.364 194.992 295.572 194.128C297.684 193.264 301.812 194.416 302.964 197.152ZM295.044 202.48C296.532 202.432 297.924 202.384 299.412 202.336C299.22 200.464 299.076 198.688 298.308 197.056C298.212 196.864 298.068 196.72 297.972 196.528C297.636 196.192 297.396 196.144 297.06 196.528C296.916 196.672 296.772 196.912 296.676 197.104C295.764 198.736 295.38 200.56 295.044 202.48ZM334.081 216.112C334.417 216.4 334.753 216.688 334.561 217.168C334.417 217.744 333.937 217.744 333.457 217.792C332.689 217.84 331.921 217.888 331.153 217.984C330.145 218.128 329.233 218.512 328.369 219.04C327.697 219.424 327.025 219.712 326.353 220.048C325.969 220.24 325.585 220.192 325.345 219.856C325.201 219.616 325.201 219.232 325.201 218.944C325.201 218.752 325.345 218.56 325.441 218.368C327.169 215.056 327.841 211.504 327.745 207.808C327.745 206.08 327.697 204.4 327.601 202.72C327.553 201.904 327.361 201.136 327.169 200.368C327.073 200.032 326.833 199.696 326.641 199.408C325.873 199.6 325.633 200.08 325.345 200.608C324.577 201.904 324.097 203.392 323.809 204.88C323.425 207.088 323.473 209.248 323.761 211.456C323.857 212.56 324.241 213.568 324.961 214.432C324.961 214.48 325.009 214.48 325.009 214.528C325.249 214.864 325.393 215.248 325.105 215.536C324.865 215.728 324.481 215.824 324.193 215.776C323.233 215.68 322.321 215.488 321.361 215.296C320.065 215.056 318.769 215.248 317.521 215.584C317.185 215.68 316.801 215.776 316.465 215.776C315.745 215.776 315.409 215.104 315.793 214.528C315.889 214.384 315.985 214.24 316.129 214.144C316.993 213.376 317.377 212.368 317.425 211.216C317.569 208.912 317.761 206.656 317.809 204.352C317.857 202.816 317.713 201.328 317.617 199.792C317.569 199.264 317.425 198.64 316.897 198.256C316.321 198.352 316.033 198.784 315.841 199.264C315.265 200.56 314.689 201.808 314.257 203.152C313.825 204.496 313.585 205.888 313.249 207.28C312.817 209.248 312.961 211.264 313.105 213.28C313.153 213.952 313.297 214.624 313.441 215.344C313.585 216.208 313.873 216.976 314.449 217.648C314.689 217.984 314.929 218.32 314.689 218.752C314.401 219.232 313.969 219.232 313.537 219.136C312.337 218.752 311.137 218.368 309.937 217.984C308.353 217.504 306.817 217.072 305.281 216.592C305.041 216.496 304.801 216.448 304.609 216.352C304.033 216.016 304.081 215.296 304.657 215.008C304.849 214.912 305.041 214.864 305.233 214.816C306.385 214.72 306.913 214 307.297 213.04C307.777 211.744 307.969 210.4 308.017 209.056C308.065 206.704 308.065 204.4 308.017 202.048C308.017 200.8 307.825 199.552 307.297 198.352C306.865 197.2 306.193 196.288 304.897 195.856C304.321 195.664 304.129 195.328 304.177 194.848C304.273 194.272 304.705 194.176 305.137 194.176C307.009 193.984 308.881 193.792 310.705 193.648C311.905 193.504 313.105 193.36 314.257 193.264C314.593 193.216 314.977 193.168 315.265 193.264C315.553 193.36 315.841 193.648 315.889 193.936C315.985 194.128 315.745 194.464 315.601 194.656C315.505 194.8 315.217 194.848 315.073 194.992C314.785 195.232 314.449 195.52 314.305 195.856C313.825 196.912 313.681 198.064 313.633 199.456C313.921 199.072 314.065 198.88 314.209 198.688C314.929 197.728 315.553 196.672 316.321 195.76C318.193 193.552 320.209 193.696 321.697 196.192C322.273 197.152 322.561 198.256 322.993 199.312C323.089 199.6 323.185 199.936 323.281 200.416C323.521 199.936 323.665 199.552 323.857 199.216C324.337 198.112 324.961 197.104 325.825 196.24C327.217 194.944 329.089 194.896 330.529 196.192C331.585 197.2 332.209 198.496 332.593 199.888C333.217 202.24 333.073 204.64 332.881 207.04C332.785 208.432 332.545 209.872 332.449 211.264C332.305 212.656 332.689 213.904 333.217 215.152C333.361 215.536 333.745 215.824 334.081 216.112ZM344.391 198.256C344.247 199.024 344.103 199.792 344.055 200.512C343.863 203.968 343.671 207.424 343.479 210.88C343.479 211.504 343.575 212.128 343.671 212.752C343.815 213.616 344.247 214.336 345.015 214.768C345.207 214.912 345.447 215.008 345.543 215.2C345.735 215.488 345.927 215.872 345.879 216.16C345.783 216.448 345.399 216.688 345.111 216.832C344.823 216.976 344.439 216.928 344.103 216.928C341.799 217.072 339.495 217.168 337.143 217.264C336.615 217.312 336.087 217.408 335.559 217.456C335.175 217.504 334.839 217.408 334.647 216.976C334.503 216.592 334.647 216.256 334.983 216.016C336.711 214.624 337.383 212.752 337.623 210.64C337.911 208.048 338.151 205.408 338.439 202.576C338.391 201.808 338.343 200.8 338.247 199.792C338.151 198.784 337.575 198.112 336.615 197.728C336.471 197.68 336.375 197.632 336.231 197.584C335.847 197.392 335.559 197.152 335.607 196.672C335.655 196.192 335.991 195.952 336.375 195.856C336.951 195.712 337.527 195.616 338.151 195.568C340.359 195.424 342.567 195.328 344.823 195.184C345.159 195.184 345.495 195.088 345.783 195.184C346.023 195.28 346.359 195.52 346.407 195.76C346.455 195.952 346.311 196.336 346.119 196.528C345.975 196.72 345.687 196.816 345.447 196.912C344.871 197.2 344.487 197.632 344.391 198.256ZM341.127 193.36C340.263 193.408 339.447 193.168 338.823 192.496C337.335 191.056 337.287 188.176 338.727 186.64C339.447 185.872 340.359 185.92 341.223 185.824C343.671 185.824 345.159 187.648 344.631 190C344.199 191.968 342.903 193.216 341.127 193.36ZM367.896 199.6C367.8 200.32 367.656 201.088 367.608 201.856C367.368 205.312 367.176 208.768 367.032 212.224C366.984 212.848 367.08 213.472 367.176 214.096C367.32 214.96 367.752 215.632 368.52 216.112C368.712 216.256 368.952 216.352 369.048 216.544C369.24 216.832 369.432 217.216 369.384 217.504C369.288 217.744 368.952 218.032 368.616 218.176C368.328 218.272 367.992 218.272 367.656 218.272C365.304 218.368 363 218.464 360.648 218.608C360.12 218.656 359.592 218.752 359.064 218.8C358.68 218.848 358.344 218.704 358.2 218.32C358.008 217.936 358.152 217.6 358.488 217.36C360.216 215.968 360.888 214.048 361.128 211.936C361.464 209.344 361.656 206.704 361.944 203.872C361.896 203.104 361.896 202.096 361.8 201.136C361.656 200.224 361.176 199.552 360.408 199.168C358.248 199.264 356.136 199.312 354.024 199.36C353.736 201.856 353.496 204.352 353.496 206.848C353.688 209.296 353.832 211.696 354.12 214.096C354.168 214.864 354.504 215.584 354.792 216.256C354.984 216.784 355.368 217.168 355.944 217.264C356.232 217.312 356.568 217.36 356.76 217.552C357 217.696 357.24 218.032 357.24 218.224C357.192 218.512 356.952 218.848 356.712 218.992C356.232 219.184 355.656 219.232 355.128 219.376C352.536 219.904 349.944 220.432 347.352 220.96C346.824 221.056 346.344 221.248 345.816 221.392C345.432 221.488 345.096 221.392 344.856 221.008C344.664 220.624 344.808 220.288 345.048 220.048C347.208 217.84 347.832 215.056 347.88 212.176C347.976 208.768 347.88 205.408 347.976 202C348.072 198.928 348.216 195.904 348.888 192.88C349.08 192.208 349.272 191.536 349.512 190.912C351.048 186.784 355.08 185.152 357.816 185.248C359.544 185.296 361.128 185.92 362.232 187.36C362.472 187.648 362.856 187.84 363.192 188.032C363.432 188.176 363.72 188.272 364.008 188.368C364.44 188.512 364.824 188.704 364.824 189.232C364.824 189.712 364.488 189.904 364.104 190.096C362.76 190.72 361.416 191.392 360.072 192.016C359.64 192.256 359.256 192.304 358.92 191.92C358.584 191.584 358.68 191.2 359.112 190.672C359.4 190.432 359.688 190.192 359.928 189.904C360.552 189.232 360.6 188.752 360.12 188.176C359.544 187.408 358.728 187.216 358.008 187.6C357.24 188.032 356.616 188.608 356.136 189.328C355.416 190.48 354.936 191.728 354.744 193.072C354.6 194.32 354.456 195.52 354.312 196.768C355.944 196.768 359.304 196.864 361.56 196.912C361.608 196.912 361.608 196.912 361.656 196.912C363.864 196.768 366.12 196.624 368.328 196.528C368.664 196.48 369 196.432 369.336 196.528C369.576 196.576 369.864 196.816 369.912 197.056C369.96 197.296 369.816 197.632 369.672 197.824C369.528 198.016 369.24 198.112 369 198.256C368.376 198.496 368.04 198.976 367.896 199.6ZM394.043 213.664C394.523 214.096 394.427 214.768 393.803 215.008C393.707 215.056 393.611 215.104 393.515 215.104C391.691 215.152 390.059 215.968 388.427 216.736C387.419 217.168 386.363 217.6 385.307 218.032C384.875 218.224 384.443 218.272 384.107 217.888C383.819 217.504 383.915 217.12 384.107 216.784C385.355 214.576 385.787 212.128 385.835 209.68C385.979 206.56 385.883 203.392 385.307 200.32C385.211 199.696 384.971 199.072 384.683 198.544C384.203 197.776 383.435 197.632 382.715 198.112C382.187 198.448 381.659 198.88 381.275 199.36C380.363 200.608 379.643 202.048 379.211 203.536C379.115 203.92 379.067 204.352 379.067 204.736C378.923 208.24 378.827 211.792 379.115 215.296C379.163 215.632 379.211 215.968 379.211 216.304C379.307 217.024 379.643 217.552 380.459 217.552C380.507 217.552 380.555 217.552 380.555 217.6C381.227 217.744 381.515 217.984 381.515 218.416C381.467 218.896 381.035 219.184 380.411 219.184C377.675 219.184 374.939 219.04 372.251 218.56C371.723 218.464 371.195 218.464 370.667 218.416C370.043 218.32 369.707 218.032 369.659 217.6C369.611 217.072 369.947 216.784 370.379 216.64C372.155 216.064 372.827 214.768 373.019 213.04C373.115 211.936 373.307 210.832 373.307 209.776C373.355 206.512 373.355 203.248 373.307 199.984C373.307 199.12 373.115 198.256 372.923 197.44C372.731 196.672 372.299 196.048 371.435 195.808C370.955 195.712 370.667 195.472 370.715 194.896C370.763 194.368 371.195 194.272 371.627 194.224C373.643 193.984 375.659 193.744 377.675 193.504C378.443 193.408 379.211 193.168 380.027 192.976C380.315 192.928 380.699 192.832 380.987 192.928C381.227 192.976 381.563 193.216 381.611 193.456C381.659 193.696 381.467 193.984 381.323 194.224C381.275 194.32 381.131 194.416 380.987 194.416C379.979 194.656 379.547 195.376 379.451 196.384C379.403 197.056 379.307 197.776 379.259 198.448C379.355 198.496 379.403 198.496 379.499 198.544C379.739 198.16 379.931 197.728 380.171 197.344C380.843 196.24 381.611 195.28 382.619 194.464C384.299 193.168 386.219 193.12 387.995 194.224C389.435 195.184 390.347 196.576 390.923 198.16C391.595 200.08 391.787 202.048 391.835 204.064C391.931 205.6 391.883 207.184 391.883 208.768C391.931 209.584 391.979 210.4 392.123 211.216C392.219 212.224 392.699 212.992 393.611 213.424C393.755 213.472 393.947 213.568 394.043 213.664ZM413.476 215.392C413.86 215.44 414.148 215.68 414.196 216.064C414.196 216.496 413.956 216.736 413.524 216.88C413.428 216.928 413.332 216.928 413.188 216.976C411.316 217.312 409.444 217.648 407.572 217.984C407.188 218.08 406.756 218.128 406.372 218.128C405.316 218.224 404.548 217.792 404.02 216.88C403.636 217.216 403.3 217.504 402.916 217.792C400.996 219.136 398.596 218.992 396.964 217.36C395.764 216.208 395.236 214.768 395.092 213.184C394.756 210.016 395.86 207.28 398.356 205.024C399.748 203.728 401.524 203.104 403.588 203.344C404.116 203.392 404.644 203.584 405.268 203.728C405.268 203.392 405.268 203.056 405.22 202.768C404.932 201.232 404.644 199.744 403.684 198.4C402.724 197.104 401.524 196.96 400.324 198.112C399.508 198.976 398.836 199.936 398.26 200.944C397.78 201.808 397.492 202.768 397.108 203.728C397.012 203.872 397.012 204.064 396.916 204.208C396.724 204.592 396.436 204.88 395.908 204.832C395.38 204.784 395.14 204.448 395.092 204.016C394.852 201.376 394.468 198.784 394.756 196.144C394.804 195.904 394.804 195.664 394.852 195.472C394.996 194.992 395.332 194.704 395.86 194.656C396.436 194.608 396.724 194.944 396.868 195.424C396.964 195.808 397.108 196.192 397.252 196.528C397.636 197.248 397.972 197.344 398.74 196.912C399.46 196.528 400.132 196.144 400.804 195.76C404.74 193.36 408.724 194.992 410.5 198.112C411.412 199.696 411.844 201.424 411.796 203.2C411.652 205.888 411.364 208.576 411.172 211.264C411.076 212.08 411.028 212.896 411.124 213.712C411.268 214.768 411.7 215.104 412.852 215.296C413.044 215.296 413.284 215.344 413.476 215.392ZM403.972 213.712C404.836 211.696 404.836 209.536 404.644 207.424C404.596 207.04 404.452 206.704 404.26 206.368C403.78 205.552 403.06 205.456 402.292 206.128C402.052 206.368 401.812 206.656 401.572 206.992C400.468 208.72 399.844 210.592 399.7 212.56C399.604 214.096 399.796 215.632 401.092 217.072C401.572 216.688 402.148 216.4 402.484 216.016C403.06 215.296 403.636 214.528 403.972 213.712ZM428.073 220.624C428.169 221.104 427.833 221.344 427.449 221.536C426.777 221.872 426.057 222.112 425.241 221.968C423.897 221.728 422.505 221.488 421.161 221.2C419.001 220.672 416.793 220.24 414.537 220.336C414.153 220.336 413.769 220.24 413.625 219.76C413.481 219.328 413.721 218.992 414.105 218.8C414.105 218.752 414.153 218.752 414.201 218.752C415.881 218.032 416.409 216.592 416.649 214.912C416.889 213.184 417.129 211.456 417.225 209.68C417.513 203.728 417.705 197.824 417.513 191.872C417.465 190.48 416.697 189.52 415.305 189.136C415.113 189.088 414.921 189.04 414.729 188.992C414.345 188.896 414.057 188.656 414.105 188.224C414.105 187.744 414.393 187.504 414.825 187.408C415.401 187.312 415.929 187.264 416.505 187.216C419.289 186.928 422.073 186.64 424.809 186.4C424.953 186.352 425.097 186.352 425.337 186.352C425.673 186.4 426.153 186.448 426.633 186.544C427.209 186.64 427.449 186.88 427.449 187.312C427.449 187.744 427.113 188.224 426.633 188.32C426.393 188.368 426.153 188.368 425.961 188.32C425.193 188.224 424.713 188.56 424.425 189.184C424.089 189.952 423.849 190.768 423.657 191.536C423.513 192.4 423.465 193.264 423.417 194.128C423.273 199.456 423.177 204.736 423.033 210.064C422.985 211.6 422.889 213.136 422.889 214.672C422.889 215.248 422.937 215.872 422.985 216.448C423.273 218.416 424.569 219.664 426.537 219.904C426.777 219.904 427.017 219.952 427.209 219.952C427.641 220 428.025 220.144 428.073 220.624Z" fill="#A34216"/>
</g>
</g>
<defs>
<filter id="filter0_i_528_6421" x="154.682" y="185.152" width="273.487" height="44.2241" filterUnits="userSpaceOnUse" color-interpolation-filters="sRGB">
<feFlood flood-opacity="0" result="BackgroundImageFix"/>
<feBlend mode="normal" in="SourceGraphic" in2="BackgroundImageFix" result="shape"/>
<feColorMatrix in="SourceAlpha" type="matrix" values="0 0 0 0 0 0 0 0 0 0 0 0 0 0 0 0 0 0 127 0" result="hardAlpha"/>
<feOffset dy="4"/>
<feGaussianBlur stdDeviation="2"/>
<feComposite in2="hardAlpha" operator="arithmetic" k2="-1" k3="1"/>
<feColorMatrix type="matrix" values="0 0 0 0 0 0 0 0 0 0 0 0 0 0 0 0 0 0 0.25 0"/>
<feBlend mode="normal" in2="shape" result="effect1_innerShadow_528_6421"/>
</filter>
<linearGradient id="paint0_linear_528_6421" x1="297.348" y1="250.496" x2="308.678" y2="-259.677" gradientUnits="userSpaceOnUse">
<stop stop-color="#003248"/>
<stop offset="1" stop-color="#0079AE" stop-opacity="0"/>
</linearGradient>
<radialGradient id="paint1_radial_528_6421" cx="0" cy="0" r="1" gradientUnits="userSpaceOnUse" gradientTransform="translate(283.282 203.21) scale(283.36 203.196)">
<stop stop-color="#00FFFF"/>
<stop offset="1" stop-color="#009999" stop-opacity="0"/>
</radialGradient>
<linearGradient id="paint2_linear_528_6421" x1="15.8159" y1="201.75" x2="633.913" y2="201.75" gradientUnits="userSpaceOnUse">
<stop stop-color="#E65E49"/>
<stop offset="0.02" stop-color="#E7624C"/>
<stop offset="0.2" stop-color="#F48361"/>
<stop offset="0.35" stop-color="#FC966F"/>
<stop offset="0.45" stop-color="#FF9E74"/>
<stop offset="0.57" stop-color="#FC976F"/>
<stop offset="0.73" stop-color="#F58463"/>
<stop offset="0.92" stop-color="#E9664E"/>
<stop offset="1" stop-color="#E45845"/>
</linearGradient>
<linearGradient id="paint3_linear_528_6421" x1="144.851" y1="328.64" x2="110.716" y2="58.0096" gradientUnits="userSpaceOnUse">
<stop stop-color="#C60055"/>
<stop offset="1" stop-color="white"/>
</linearGradient>
<linearGradient id="paint4_linear_528_6421" x1="502.145" y1="333.57" x2="468.466" y2="66.5602" gradientUnits="userSpaceOnUse">
<stop stop-color="#C60055"/>
<stop offset="1" stop-color="white"/>
</linearGradient>
<linearGradient id="paint5_linear_528_6421" x1="108.828" y1="332.713" x2="85.4278" y2="334.031" gradientUnits="userSpaceOnUse">
<stop stop-color="#A71100"/>
<stop offset="0.39" stop-color="#D83303"/>
<stop offset="1" stop-color="#EC5C11"/>
</linearGradient>
<linearGradient id="paint6_linear_528_6421" x1="143.032" y1="316.824" x2="52.4654" y2="309.283" gradientUnits="userSpaceOnUse">
<stop stop-color="#A71100"/>
<stop offset="0.39" stop-color="#D83303"/>
<stop offset="1" stop-color="#EC5C11"/>
</linearGradient>
<linearGradient id="paint7_linear_528_6421" x1="60.9022" y1="201.13" x2="116.67" y2="201.13" gradientUnits="userSpaceOnUse">
<stop stop-color="#A71100"/>
<stop offset="0.39" stop-color="#D83303"/>
<stop offset="1" stop-color="#EC5C11"/>
</linearGradient>
<linearGradient id="paint8_linear_528_6421" x1="121.371" y1="94.1563" x2="30.8045" y2="86.6156" gradientUnits="userSpaceOnUse">
<stop stop-color="#A71100"/>
<stop offset="0.39" stop-color="#D83303"/>
<stop offset="1" stop-color="#EC5C11"/>
</linearGradient>
<linearGradient id="paint9_linear_528_6421" x1="83.0445" y1="65.6329" x2="59.8659" y2="68.5833" gradientUnits="userSpaceOnUse">
<stop stop-color="#A71100"/>
<stop offset="0.39" stop-color="#D83303"/>
<stop offset="1" stop-color="#EC5C11"/>
</linearGradient>
<linearGradient id="paint10_linear_528_6421" x1="121.472" y1="202.86" x2="25.3387" y2="203.222" gradientUnits="userSpaceOnUse">
<stop stop-color="#FFA274"/>
<stop offset="1" stop-color="#E47745"/>
</linearGradient>
<linearGradient id="paint11_linear_528_6421" x1="476.444" y1="332.741" x2="499.842" y2="334.078" gradientUnits="userSpaceOnUse">
<stop stop-color="#A71100"/>
<stop offset="0.39" stop-color="#D83303"/>
<stop offset="1" stop-color="#EC5C11"/>
</linearGradient>
<linearGradient id="paint12_linear_528_6421" x1="442.225" y1="316.861" x2="532.791" y2="309.302" gradientUnits="userSpaceOnUse">
<stop stop-color="#A71100"/>
<stop offset="0.39" stop-color="#D83303"/>
<stop offset="1" stop-color="#EC5C11"/>
</linearGradient>
<linearGradient id="paint13_linear_528_6421" x1="524.42" y1="49.9998" x2="468.638" y2="49.9998" gradientUnits="userSpaceOnUse">
<stop stop-color="#A71100"/>
<stop offset="0.39" stop-color="#D83303"/>
<stop offset="1" stop-color="#EC5C11"/>
</linearGradient>
<linearGradient id="paint14_linear_528_6421" x1="463.9" y1="94.1938" x2="554.466" y2="86.6342" gradientUnits="userSpaceOnUse">
<stop stop-color="#A71100"/>
<stop offset="0.39" stop-color="#D83303"/>
<stop offset="1" stop-color="#EC5C11"/>
</linearGradient>
<linearGradient id="paint15_linear_528_6421" x1="502.226" y1="65.6704" x2="525.405" y2="68.6208" gradientUnits="userSpaceOnUse">
<stop stop-color="#A71100"/>
<stop offset="0.39" stop-color="#D83303"/>
<stop offset="1" stop-color="#EC5C11"/>
</linearGradient>
<linearGradient id="paint16_linear_528_6421" x1="463.877" y1="202.83" x2="560.01" y2="203.192" gradientUnits="userSpaceOnUse">
<stop stop-color="#FFA274"/>
<stop offset="1" stop-color="#E47745"/>
</linearGradient>
<clipPath id="clip0_528_6421">
<rect width="502.504" height="299.33" fill="white" transform="translate(41.4019 50)"/>
</clipPath>
</defs>
</svg>
