<svg width="507" height="924" viewBox="0 0 507 924" fill="none" xmlns="http://www.w3.org/2000/svg">
<path style="mix-blend-mode:screen" d="M340.812 628.529C357.175 630.805 368.527 645.567 366.185 661.472C363.843 677.41 348.682 688.471 332.351 686.196C315.988 683.92 304.636 669.158 306.978 653.252C309.32 637.315 324.481 626.254 340.812 628.529Z" fill="url(#paint0_radial_416_1815)" fill-opacity="0.7"/>
<g style="mix-blend-mode:screen">
<path d="M336.933 654.764C338.397 654.968 339.426 656.31 339.217 657.736C339.007 659.161 337.629 660.164 336.165 659.96C334.701 659.756 333.672 658.414 333.881 656.989C334.091 655.563 335.47 654.56 336.933 654.764Z" fill="#F6E6FC"/>
</g>
<path style="mix-blend-mode:screen" d="M278.762 261.372C300.981 264.463 316.417 284.529 313.235 306.17C310.054 327.81 289.446 342.851 267.227 339.76C245.008 336.67 229.573 316.604 232.754 294.963C235.935 273.322 256.543 258.282 278.762 261.372Z" fill="url(#paint1_radial_416_1815)" fill-opacity="0.7"/>
<g style="mix-blend-mode:screen">
<path d="M273.518 297.049C275.503 297.321 276.918 299.143 276.605 301.075C276.325 303.008 274.455 304.387 272.471 304.083C270.486 303.811 269.071 301.99 269.384 300.057C269.664 298.124 271.534 296.746 273.518 297.049Z" fill="#F6E6FC"/>
</g>
<path d="M478.517 497.672C492.7 499.642 502.54 512.454 500.512 526.269C498.485 540.084 485.326 549.672 471.142 547.702C456.959 545.732 447.118 532.919 449.146 519.104C451.174 505.29 464.333 495.702 478.517 497.672Z" fill="url(#paint2_radial_416_1815)" fill-opacity="0.7" style="mix-blend-mode:screen"/>
<g style="mix-blend-mode:screen">
<path d="M475.161 520.453C476.43 520.623 477.33 521.774 477.155 523.009C476.98 524.245 475.798 525.123 474.53 524.952C473.261 524.782 472.36 523.632 472.568 522.396C472.743 521.161 473.925 520.283 475.194 520.453L475.161 520.453Z" fill="#F6E6FC"/>
</g>
<path style="mix-blend-mode:screen" d="M157.949 598.965C180.168 602.055 195.603 622.122 192.422 643.762C189.241 665.403 168.633 680.444 146.414 677.353C124.195 674.263 108.759 654.197 111.941 632.556C115.122 610.915 135.73 595.874 157.949 598.965Z" fill="url(#paint3_radial_416_1815)" fill-opacity="0.7"/>
<g style="mix-blend-mode:screen">
<path d="M152.705 634.642C154.69 634.914 156.105 636.736 155.792 638.668C155.512 640.601 153.642 641.98 151.657 641.676C149.673 641.404 148.258 639.583 148.57 637.65C148.85 635.717 150.721 634.338 152.705 634.642Z" fill="#F6E6FC"/>
</g>
<path style="mix-blend-mode:screen" d="M468.116 344.065C490.334 347.156 505.77 367.222 502.589 388.862C499.408 410.503 478.799 425.544 456.581 422.453C434.362 419.363 418.926 399.297 422.107 377.656C425.288 356.015 445.897 340.974 468.116 344.065Z" fill="url(#paint4_radial_416_1815)" fill-opacity="0.7"/>
<g style="mix-blend-mode:screen">
<path d="M462.872 379.71C464.857 379.982 466.272 381.804 465.959 383.736C465.679 385.669 463.809 387.048 461.825 386.744C459.84 386.472 458.425 384.651 458.738 382.718C459.018 380.786 460.888 379.407 462.872 379.71Z" fill="#F6E6FC"/>
</g>
<path style="mix-blend-mode:screen" d="M10.3319 51.0292C32.5506 54.1197 47.9863 74.1859 44.8052 95.8267C41.6241 117.467 21.0156 132.508 -1.20308 129.417C-23.4218 126.327 -38.8575 106.261 -35.6764 84.62C-32.4953 62.9793 -11.8868 47.9386 10.3319 51.0292Z" fill="url(#paint5_radial_416_1815)" fill-opacity="0.7"/>
<g style="mix-blend-mode:screen">
<path d="M5.08824 86.7063C7.07268 86.9783 8.48777 88.7997 8.17524 90.7322C7.89527 92.6651 6.02464 94.0439 4.04052 93.7402C2.05609 93.4682 0.640943 91.6468 0.953478 89.7143C1.23344 87.7815 3.10413 86.4026 5.08824 86.7063Z" fill="#F6E6FC"/>
</g>
<path style="mix-blend-mode:screen" d="M373.773 424.932C395.991 428.023 411.427 448.089 408.246 469.73C405.065 491.37 384.457 506.411 362.238 503.32C340.019 500.23 324.583 480.164 327.765 458.523C330.946 436.882 351.554 421.842 373.773 424.932Z" fill="url(#paint6_radial_416_1815)" fill-opacity="0.7"/>
<g style="mix-blend-mode:screen">
<path d="M368.529 460.609C370.514 460.881 371.929 462.703 371.616 464.635C371.336 466.568 369.466 467.947 367.481 467.643C365.497 467.371 364.082 465.55 364.394 463.617C364.674 461.685 366.545 460.306 368.529 460.609Z" fill="#F6E6FC"/>
</g>
<path style="mix-blend-mode:screen" d="M-9.6796 732.827C12.5391 735.918 27.9748 755.984 24.7937 777.624C21.6126 799.265 1.00414 814.306 -21.2146 811.215C-43.4332 808.125 -58.869 788.059 -55.6879 766.418C-52.5068 744.777 -31.8983 729.737 -9.6796 732.827Z" fill="url(#paint7_radial_416_1815)" fill-opacity="0.7"/>
<path style="mix-blend-mode:screen" d="M276.32 454.131C295.806 456.847 309.312 474.421 306.549 493.4C303.753 512.38 285.704 525.54 266.218 522.855C246.732 520.139 233.225 502.565 235.989 483.586C238.785 464.606 256.834 451.414 276.32 454.131Z" fill="url(#paint8_radial_416_1815)" fill-opacity="0.7"/>
<g style="mix-blend-mode:screen">
<path d="M271.707 485.403C273.464 485.642 274.686 487.239 274.408 488.918C274.163 490.629 272.522 491.82 270.798 491.55C269.042 491.312 267.82 489.715 268.097 488.036C268.342 486.325 269.983 485.134 271.707 485.403Z" fill="#F6E6FC"/>
</g>
<path style="mix-blend-mode:screen" d="M145.616 803.697C165.102 806.414 178.641 823.988 175.845 842.967C173.049 861.946 155 875.138 135.514 872.422C116.028 869.705 102.521 852.132 105.285 833.152C108.081 814.173 126.13 801.013 145.616 803.697Z" fill="url(#paint9_radial_416_1815)" fill-opacity="0.7"/>
<g style="mix-blend-mode:screen">
<path d="M141.036 834.939C142.793 835.177 144.015 836.774 143.737 838.454C143.492 840.165 141.851 841.355 140.127 841.086C138.371 840.847 137.149 839.25 137.426 837.571C137.671 835.86 139.312 834.669 141.036 834.939Z" fill="#F6E6FC"/>
</g>
<path style="mix-blend-mode:screen" d="M116.583 88.3969C136.069 91.1134 149.575 108.687 146.811 127.667C144.015 146.646 125.966 159.806 106.48 157.121C86.994 154.405 73.4879 136.831 76.2514 117.852C79.015 98.8721 97.0966 85.6803 116.583 88.3969Z" fill="url(#paint10_radial_416_1815)" fill-opacity="0.7"/>
<g style="mix-blend-mode:screen">
<path d="M112.002 119.67C113.759 119.908 114.981 121.506 114.703 123.185C114.458 124.896 112.817 126.086 111.061 125.848C109.304 125.61 108.082 124.012 108.359 122.333C108.605 120.622 110.245 119.432 111.969 119.701L112.002 119.67Z" fill="#F6E6FC"/>
</g>
<g opacity="0.65">
<g style="mix-blend-mode:screen">
<path d="M309.439 592.854C310.545 592.991 311.285 593.981 311.144 595.059C311.003 596.136 309.985 596.856 308.879 596.719C307.772 596.582 307.033 595.592 307.174 594.515C307.315 593.438 308.332 592.717 309.439 592.854Z" fill="#F6E6FC"/>
</g>
<path style="mix-blend-mode:color-dodge" opacity="0.5" d="M311.151 581.193C318.861 582.279 324.199 589.213 323.114 596.722C321.997 604.232 314.876 609.433 307.166 608.379C299.455 607.325 294.118 600.359 295.203 592.85C296.32 585.341 303.441 580.139 311.151 581.193Z" fill="url(#paint11_radial_416_1815)" fill-opacity="0.7"/>
</g>
<g opacity="0.65">
<g style="mix-blend-mode:screen">
<path d="M313.507 396.68C315.524 396.952 316.907 398.773 316.627 400.738C316.346 402.702 314.476 404.05 312.459 403.777C310.442 403.505 309.06 401.684 309.34 399.719C309.62 397.755 311.49 396.408 313.507 396.68Z" fill="#F6E6FC"/>
</g>
<path style="mix-blend-mode:color-dodge" opacity="0.5" d="M316.654 375.197C330.838 377.167 340.678 389.98 338.65 403.795C336.622 417.609 323.463 427.198 309.28 425.228C295.096 423.258 285.256 410.445 287.284 396.63C289.312 382.816 302.471 373.227 316.654 375.197Z" fill="url(#paint12_radial_416_1815)" fill-opacity="0.7"/>
</g>
<g opacity="0.65">
<g style="mix-blend-mode:screen">
<path d="M394.159 554.845C396.176 555.117 397.559 556.938 397.279 558.903C396.998 560.868 395.128 562.215 393.111 561.942C391.094 561.67 389.711 559.849 389.992 557.885C390.272 555.92 392.142 554.573 394.159 554.845Z" fill="#F6E6FC"/>
</g>
<g opacity="0.5">
<path d="M397.306 533.363C411.49 535.333 421.33 548.145 419.302 561.96C417.274 575.775 404.115 585.363 389.932 583.393C375.748 581.423 365.908 568.61 367.936 554.795C369.963 540.981 383.123 531.393 397.306 533.363Z" fill="url(#paint13_radial_416_1815)" fill-opacity="0.7" style="mix-blend-mode:color-dodge"/>
</g>
</g>
<g opacity="0.65">
<g style="mix-blend-mode:screen">
<path d="M199.33 426.368C201.347 426.641 202.729 428.462 202.449 430.426C202.169 432.391 200.298 433.738 198.281 433.466C196.264 433.193 194.882 431.372 195.162 429.408C195.442 427.443 197.313 426.096 199.33 426.368Z" fill="#F6E6FC"/>
</g>
<path style="mix-blend-mode:color-dodge" opacity="0.5" d="M202.477 404.886C216.66 406.856 226.5 419.669 224.472 433.483C222.445 447.298 209.286 456.886 195.102 454.916C180.918 452.946 171.078 440.133 173.106 426.319C175.134 412.504 188.293 402.916 202.477 404.886Z" fill="url(#paint14_radial_416_1815)" fill-opacity="0.7"/>
</g>
<g opacity="0.65">
<g style="mix-blend-mode:screen">
<path d="M228.923 223.182C230.94 223.454 232.322 225.275 232.042 227.24C231.762 229.205 229.891 230.552 227.874 230.279C225.857 230.007 224.475 228.186 224.755 226.221C225.035 224.257 226.906 222.91 228.923 223.182Z" fill="#F6E6FC"/>
</g>
<g opacity="0.5">
<path d="M232.069 201.7C246.253 203.67 256.093 216.482 254.065 230.297C252.037 244.112 238.878 253.7 224.695 251.73C210.511 249.76 200.671 236.947 202.699 223.132C204.727 209.318 217.886 199.73 232.069 201.7Z" fill="url(#paint15_radial_416_1815)" fill-opacity="0.7" style="mix-blend-mode:color-dodge"/>
</g>
</g>
<g opacity="0.65">
<g style="mix-blend-mode:screen">
<path d="M254.908 718.696C256.925 718.968 258.307 720.789 258.027 722.754C257.747 724.718 255.877 726.066 253.86 725.793C251.843 725.521 250.46 723.7 250.74 721.735C251.021 719.771 252.891 718.424 254.908 718.696Z" fill="#F6E6FC"/>
</g>
<path style="mix-blend-mode:color-dodge" opacity="0.5" d="M258.055 697.213C272.238 699.183 282.078 711.996 280.051 725.811C278.023 739.625 264.864 749.214 250.68 747.244C236.497 745.274 226.657 732.461 228.684 718.646C230.712 704.832 243.871 695.243 258.055 697.213Z" fill="url(#paint16_radial_416_1815)" fill-opacity="0.7"/>
</g>
<g opacity="0.65">
<g style="mix-blend-mode:screen">
<path d="M90.5217 720.838C92.5387 721.111 93.9212 722.932 93.641 724.896C93.3607 726.861 91.4903 728.208 89.4733 727.936C87.4563 727.663 86.0738 725.842 86.354 723.878C86.6343 721.913 88.5047 720.566 90.5217 720.838Z" fill="#F6E6FC"/>
</g>
<path style="mix-blend-mode:color-dodge" opacity="0.5" d="M93.7012 699.356C107.885 701.326 117.725 714.139 115.697 727.954C113.669 741.768 100.51 751.356 86.3267 749.386C72.1431 747.416 62.303 734.604 64.3307 720.789C66.3585 706.974 79.5176 697.386 93.7012 699.356Z" fill="url(#paint17_radial_416_1815)" fill-opacity="0.7"/>
</g>
<defs>
<radialGradient id="paint0_radial_416_1815" cx="0" cy="0" r="1" gradientUnits="userSpaceOnUse" gradientTransform="translate(336.591 657.321) rotate(-81.6368) scale(29.1418 29.886)">
<stop stop-color="#EC8331"/>
<stop offset="1" stop-color="#864A1C" stop-opacity="0"/>
</radialGradient>
<radialGradient id="paint1_radial_416_1815" cx="0" cy="0" r="1" gradientUnits="userSpaceOnUse" gradientTransform="translate(273.018 300.547) rotate(-81.6368) scale(39.6176 40.6293)">
<stop stop-color="#EC8331"/>
<stop offset="1" stop-color="#864A1C" stop-opacity="0"/>
</radialGradient>
<radialGradient id="paint2_radial_416_1815" cx="0" cy="0" r="1" gradientUnits="userSpaceOnUse" gradientTransform="translate(474.865 522.651) rotate(-81.6368) scale(25.2689 25.9142)">
<stop stop-color="#EC8331"/>
<stop offset="1" stop-color="#864A1C" stop-opacity="0"/>
</radialGradient>
<radialGradient id="paint3_radial_416_1815" cx="0" cy="0" r="1" gradientUnits="userSpaceOnUse" gradientTransform="translate(152.208 638.129) rotate(-81.6368) scale(39.6176 40.6293)">
<stop stop-color="#EC8331"/>
<stop offset="1" stop-color="#864A1C" stop-opacity="0"/>
</radialGradient>
<radialGradient id="paint4_radial_416_1815" cx="0" cy="0" r="1" gradientUnits="userSpaceOnUse" gradientTransform="translate(462.374 383.197) rotate(-81.6368) scale(39.6175 40.6293)">
<stop stop-color="#EC8331"/>
<stop offset="1" stop-color="#864A1C" stop-opacity="0"/>
</radialGradient>
<radialGradient id="paint5_radial_416_1815" cx="0" cy="0" r="1" gradientUnits="userSpaceOnUse" gradientTransform="translate(4.55581 90.1698) rotate(-81.6368) scale(39.6176 40.6293)">
<stop stop-color="#EC8331"/>
<stop offset="1" stop-color="#864A1C" stop-opacity="0"/>
</radialGradient>
<radialGradient id="paint6_radial_416_1815" cx="0" cy="0" r="1" gradientUnits="userSpaceOnUse" gradientTransform="translate(368.025 464.075) rotate(-81.6368) scale(39.6176 40.6293)">
<stop stop-color="#EC8331"/>
<stop offset="1" stop-color="#864A1C" stop-opacity="0"/>
</radialGradient>
<radialGradient id="paint7_radial_416_1815" cx="0" cy="0" r="1" gradientUnits="userSpaceOnUse" gradientTransform="translate(-15.4238 772.029) rotate(-81.6368) scale(39.6176 40.6293)">
<stop stop-color="#EC8331"/>
<stop offset="1" stop-color="#864A1C" stop-opacity="0"/>
</radialGradient>
<radialGradient id="paint8_radial_416_1815" cx="0" cy="0" r="1" gradientUnits="userSpaceOnUse" gradientTransform="translate(271.275 488.453) rotate(-81.6368) scale(34.7289 35.6157)">
<stop stop-color="#EC8331"/>
<stop offset="1" stop-color="#864A1C" stop-opacity="0"/>
</radialGradient>
<radialGradient id="paint9_radial_416_1815" cx="0" cy="0" r="1" gradientUnits="userSpaceOnUse" gradientTransform="translate(140.608 838.037) rotate(-81.6368) scale(34.7289 35.6158)">
<stop stop-color="#EC8331"/>
<stop offset="1" stop-color="#864A1C" stop-opacity="0"/>
</radialGradient>
<radialGradient id="paint10_radial_416_1815" cx="0" cy="0" r="1" gradientUnits="userSpaceOnUse" gradientTransform="translate(111.551 122.704) rotate(-81.6368) scale(34.7289 35.6158)">
<stop stop-color="#EC8331"/>
<stop offset="1" stop-color="#864A1C" stop-opacity="0"/>
</radialGradient>
<radialGradient id="paint11_radial_416_1815" cx="0" cy="0" r="1" gradientUnits="userSpaceOnUse" gradientTransform="translate(309.195 594.759) rotate(-81.6368) scale(13.7455 14.0965)">
<stop stop-color="#E8AB55"/>
<stop offset="1" stop-color="#826030" stop-opacity="0"/>
</radialGradient>
<radialGradient id="paint12_radial_416_1815" cx="0" cy="0" r="1" gradientUnits="userSpaceOnUse" gradientTransform="translate(313.001 400.182) rotate(-81.6368) scale(25.3006 25.9467)">
<stop stop-color="#E8AB55"/>
<stop offset="1" stop-color="#826030" stop-opacity="0"/>
</radialGradient>
<radialGradient id="paint13_radial_416_1815" cx="0" cy="0" r="1" gradientUnits="userSpaceOnUse" gradientTransform="translate(393.678 558.356) rotate(-81.6368) scale(25.3006 25.9467)">
<stop stop-color="#E8AB55"/>
<stop offset="1" stop-color="#826030" stop-opacity="0"/>
</radialGradient>
<radialGradient id="paint14_radial_416_1815" cx="0" cy="0" r="1" gradientUnits="userSpaceOnUse" gradientTransform="translate(198.812 429.868) rotate(-81.6368) scale(25.3006 25.9468)">
<stop stop-color="#E8AB55"/>
<stop offset="1" stop-color="#826030" stop-opacity="0"/>
</radialGradient>
<radialGradient id="paint15_radial_416_1815" cx="0" cy="0" r="1" gradientUnits="userSpaceOnUse" gradientTransform="translate(228.408 226.685) rotate(-81.6368) scale(25.3007 25.9468)">
<stop stop-color="#E8AB55"/>
<stop offset="1" stop-color="#826030" stop-opacity="0"/>
</radialGradient>
<radialGradient id="paint16_radial_416_1815" cx="0" cy="0" r="1" gradientUnits="userSpaceOnUse" gradientTransform="translate(254.392 722.219) rotate(-81.6368) scale(25.3006 25.9468)">
<stop stop-color="#E8AB55"/>
<stop offset="1" stop-opacity="0"/>
</radialGradient>
<radialGradient id="paint17_radial_416_1815" cx="0" cy="0" r="1" gradientUnits="userSpaceOnUse" gradientTransform="translate(90.0352 724.366) rotate(-81.6368) scale(25.3006 25.9468)">
<stop stop-color="#E8AB55"/>
<stop offset="1" stop-color="#826030" stop-opacity="0"/>
</radialGradient>
</defs>
</svg>
