<svg width="607" height="924" viewBox="0 0 607 924" fill="none" xmlns="http://www.w3.org/2000/svg">
<g opacity="0.71">
<path d="M113.898 612.187C169.069 631.187 235.881 582.458 263.125 503.347C290.369 424.236 267.729 344.702 212.557 325.702C157.385 306.702 90.5739 355.431 63.3298 434.542C36.0857 513.652 58.7256 593.187 113.898 612.187Z" fill="url(#paint0_radial_604_9)" fill-opacity="0.7" style="mix-blend-mode:screen"/>
</g>
<path d="M194.563 337.346C194.563 337.346 177.039 394.163 164.308 401.778C151.583 409.374 114.142 423.672 101.293 448.204C90.545 468.71 92.2352 551.436 93.0607 577.903C93.2378 583.26 95.9118 588.215 100.316 591.266C110.037 598.018 128.425 609.079 145.66 610.034C151.487 610.359 156.998 607.445 160.253 602.64C173.541 583.134 211.574 525.899 218.88 499.794C227.767 468.055 205.962 437.746 208.274 415.742C210.587 393.739 230.693 349.788 230.693 349.788L194.544 337.339L194.563 337.346Z" fill="url(#paint1_linear_604_9)"/>
<path d="M117.598 439.445C117.598 439.445 135.487 425.475 149.77 422.282C164.053 419.09 162.494 427.105 174.867 430.925C187.241 434.745 193.482 434.478 195.418 431.425C197.354 428.372 201.462 433.506 201.462 433.506C201.462 433.506 208.214 453.588 205.984 453.703C203.754 453.818 156.447 449.126 152.819 449.326C149.191 449.527 117.61 439.471 117.61 439.471L117.598 439.445Z" fill="#5600CC"/>
<path d="M182.064 399.571C186.212 396.208 195.168 406.711 189.225 410.086C183.282 413.461 173.329 406.65 182.064 399.571Z" fill="#9700FF"/>
<path d="M196.272 394.945C193.45 393.111 195.608 389.168 198.801 389.68C201.995 390.191 201.573 398.388 196.272 394.945Z" fill="#9700FF"/>
<path style="mix-blend-mode:multiply" opacity="0.25" d="M117.159 597.213C103.819 590.329 78.3076 564.543 125.599 579.064C172.903 593.61 157.811 618.232 117.159 597.213Z" fill="url(#paint2_linear_604_9)"/>
<path d="M128.697 585.847C160.976 595.219 206.6 519.121 213.074 493.718C218.078 474.112 208.392 448.606 202.192 434.871C199.393 429.117 194.43 425.306 197.088 434.648C199.728 443.984 188.563 444.909 189.334 438.45C190.087 431.985 188.786 422.185 183.198 420.555C177.61 418.925 173.507 435.059 154.76 430.788C136.308 426.577 118.174 439.055 117.616 439.452C112.847 443.945 108.766 449.495 105.815 456.78C94.1797 485.491 96.4169 576.474 128.715 585.853L128.697 585.847Z" fill="url(#paint3_linear_604_9)"/>
<g style="mix-blend-mode:multiply" opacity="0.18">
<path d="M108.736 458.941C99.9104 482.611 96.0179 517.519 112.58 507.525C129.142 497.532 151.248 511.617 140.955 521.08C130.669 530.524 126.878 514.319 129.503 514.341C129.503 514.341 119.605 524.675 129.376 528.04C139.148 531.405 144.551 525.071 146.816 535.496C149.08 545.921 104.438 536.978 119.738 515.055C119.738 515.055 113.692 526.19 105.961 514.576C105.961 514.576 95.4675 524.621 108.447 533.714C121.427 542.807 134.11 534.903 136.365 547.069C138.619 559.235 122.809 544.481 114.181 543.422C105.553 542.363 110.872 568.991 122.782 576.602C134.693 584.213 150.689 583.628 149.134 574.14C147.572 564.672 134.938 558.429 133.419 566.018C133.419 566.018 139.333 560.405 144.032 572.383C148.712 584.355 124.075 568.263 126.763 562.17C129.451 556.077 144.552 559.009 146.911 563.288C146.911 563.288 147.488 555.376 152.909 556.759C158.329 558.142 152.956 575.457 152.956 575.457C152.956 575.457 158.099 565.292 165.355 565.626C172.611 565.961 183.751 530.984 162.901 534.164C142.058 537.325 165.289 559.152 169.207 545.267C169.207 545.267 163.636 547.929 160.152 542.148C156.667 536.367 174.841 536.553 170.498 550.019C166.162 563.467 147.193 547.793 149.261 542.705C151.329 537.618 156.093 522.867 164.401 525.161C172.709 527.455 186.029 537.149 178.64 548.515C178.64 548.515 204.3 522.805 189.429 507.156C174.54 491.5 165.174 510.319 165.174 510.319C165.174 510.319 174.544 502.618 182.414 508.691C190.284 514.763 163.906 521.461 158.809 515.04C153.719 508.601 167.224 477.886 190.323 490.8C213.416 503.733 209.693 441.342 189.968 444.195C170.242 447.047 181.697 473.225 181.697 473.225C181.697 473.225 179.17 457.203 188.181 457.638C197.186 458.091 204.29 476.907 198.428 481.025C192.567 485.142 172.09 479.288 176.089 464.863C176.089 464.863 157.588 487.154 146.899 478.199C136.203 469.262 149.307 446.562 159.628 446.312C169.961 446.089 169.872 455.703 165.266 462.291C160.653 468.898 158.997 453.954 158.997 453.954C158.997 453.954 145.787 467.666 156.983 470.198C168.178 472.73 182.868 448.726 178.11 439.06C173.351 429.394 149.278 448.296 139.59 444.077C129.902 439.858 129.247 435.829 129.247 435.829C129.247 435.829 139.008 452.555 131.039 461.263C123.051 469.965 124.281 441.747 124.281 441.747C124.281 441.747 107.986 463.747 122.966 471.617C137.947 479.487 150.003 481.537 135 490.429C119.997 499.32 100.742 487.961 110.694 482.058C120.645 476.155 125.097 487.018 125.097 487.018C125.097 487.018 128.244 471.396 111.44 475.612C111.44 475.612 112.559 448.511 108.711 458.891L108.736 458.941Z" fill="#6D15FF"/>
</g>
<path style="mix-blend-mode:color-dodge" opacity="0.21" d="M205.372 327.178C205.372 327.178 188.831 396.921 167.548 411.51C146.259 426.117 117.451 428.068 105.815 456.78C94.1797 485.491 96.4168 576.474 128.715 585.853C161.014 595.232 207.264 520.863 213.093 493.724C221.126 456.333 197.602 431.505 200.78 414.632C203.964 397.741 229.01 337.735 229.01 337.735L205.385 327.203L205.372 327.178Z" fill="url(#paint4_linear_604_9)"/>
<path d="M185.174 464.902C186.44 458.719 178.006 444.194 173.632 446.743C169.258 449.293 183.869 471.261 185.174 464.902Z" fill="white"/>
<path style="mix-blend-mode:multiply" opacity="0.25" d="M194.563 337.346C194.563 337.346 177.039 394.163 164.308 401.778C151.583 409.374 114.142 423.672 101.293 448.204C90.545 468.71 92.2352 551.436 93.0607 577.903C93.2378 583.26 95.9118 588.215 100.316 591.266C110.037 598.018 128.425 609.079 145.66 610.034C151.487 610.359 156.998 607.445 160.253 602.64C168.218 590.947 185.098 565.659 198.9 541.665C146.748 625.895 98.5659 589.865 111.991 510.643C125.416 431.421 161.856 441.553 177.633 413.659C193.391 385.757 200.132 357.378 200.132 357.378C217.205 367.061 225.405 361.962 225.405 361.962C228.469 354.654 230.693 349.788 230.693 349.788L194.544 337.339L194.563 337.346Z" fill="url(#paint5_linear_604_9)"/>
<path style="mix-blend-mode:multiply" opacity="0.25" d="M123.334 458.379C123.334 458.379 110.74 494.767 112.674 532.018C112.674 532.018 135.317 551.394 169.148 557.792C169.148 557.792 187.537 538.824 189.981 529.159C189.981 529.159 170.184 524.085 154.02 484.245C137.856 444.404 123.334 458.379 123.334 458.379Z" fill="url(#paint6_linear_604_9)"/>
<path d="M125.002 457.083C125.002 457.083 112.408 493.471 114.342 530.722C114.342 530.722 136.985 550.098 170.816 556.496C170.816 556.496 189.205 537.528 191.649 527.862C191.649 527.862 171.852 522.789 155.688 482.949C139.524 443.108 125.002 457.083 125.002 457.083Z" fill="url(#paint7_linear_604_9)"/>
<path d="M132.927 454.559C132.927 454.559 139.751 443.733 157.209 440.247C174.668 436.761 177.281 438.103 185.544 446.643C193.8 455.202 206.754 473.91 204.86 491.456C202.967 509.002 189.204 521.998 178.832 515.484C168.479 508.977 132.908 454.552 132.908 454.552L132.927 454.559Z" fill="url(#paint8_linear_604_9)"/>
<g style="mix-blend-mode:multiply" opacity="0.28">
<path d="M169.354 497.448C167.323 495.088 167.612 486.971 173.461 480.874C179.309 474.777 189.546 468.657 191.681 472.67C193.809 476.702 188.172 489.219 184.39 493.842C180.607 498.465 171.764 500.232 169.36 497.429L169.354 497.448Z" fill="#DD402E"/>
</g>
<g style="mix-blend-mode:multiply" opacity="0.28">
<path d="M158.811 490.391C158.811 490.391 162.326 492.905 163.06 485.698C163.794 478.49 161.895 460.521 156.988 460.155C153.377 459.878 146.409 468.553 147.919 476.092C149.43 483.63 158.83 490.398 158.83 490.398L158.811 490.391Z" fill="#DD402E"/>
</g>
<g style="mix-blend-mode:multiply" opacity="0.28">
<path d="M200.366 477.783C196.468 475.222 195.975 466.5 195.975 466.5C194.027 475.705 198.434 481.069 198.434 481.069C198.434 481.069 186.515 490.728 194.274 497.246C202.034 503.763 192.446 517.231 186.666 515.24C180.887 513.25 184.856 506.064 179.761 504.961C175.293 503.99 173.616 509.044 173.283 510.316C175.514 512.766 177.43 514.602 178.851 515.491C189.204 521.998 202.986 509.009 204.88 491.463C205.796 482.869 203.165 473.998 199.265 466.183C199.522 466.902 204.165 480.268 200.373 477.765L200.366 477.783Z" fill="#DD402E"/>
</g>
<g style="mix-blend-mode:multiply" opacity="0.28">
<path d="M132.927 454.559C132.927 454.559 141.835 468.196 152.033 482.615L148.085 473.774C148.085 473.774 136.123 458.791 142.919 460.585C149.714 462.378 154.872 454.068 154.872 454.068C154.872 454.068 137.792 455.352 145.34 447.99C152.805 440.685 167.688 438.623 168.022 438.57C165.168 438.785 161.688 439.352 157.254 440.241C139.801 443.708 132.971 454.553 132.971 454.553L132.927 454.559Z" fill="#DD402E"/>
</g>
<path d="M169.354 497.448C167.323 495.088 167.612 486.971 173.461 480.874C179.309 474.777 189.546 468.657 191.681 472.67C193.809 476.702 188.172 489.219 184.39 493.842C180.607 498.465 171.764 500.232 169.36 497.429L169.354 497.448Z" fill="url(#paint9_linear_604_9)"/>
<path d="M158.811 490.391C158.811 490.391 162.326 492.905 163.06 485.698C163.794 478.49 161.895 460.521 156.988 460.155C153.377 459.878 146.409 468.553 147.919 476.092C149.43 483.63 158.83 490.398 158.83 490.398L158.811 490.391Z" fill="url(#paint10_linear_604_9)"/>
<g style="mix-blend-mode:multiply" opacity="0.28">
<path d="M172.435 495.167C175.695 495.912 183.49 491.136 186.867 481.33C190.224 471.58 187.725 471.56 187.7 471.572C183.599 472.472 177.472 476.687 173.455 480.893C171.414 483.027 170.07 485.401 169.255 487.705C169.245 488.101 169.262 494.474 172.428 495.186L172.435 495.167Z" fill="#DD402E"/>
</g>
<g style="mix-blend-mode:multiply" opacity="0.28">
<path d="M158.398 460.83C156.745 461.227 154.912 462.697 153.203 466.375C148.174 477.125 160.071 492.969 163.06 485.698C163.705 479.237 162.239 464.17 158.398 460.83Z" fill="#DD402E"/>
</g>
<path style="mix-blend-mode:multiply" opacity="0.28" d="M173.461 480.874C177.479 476.668 183.599 472.472 187.706 471.553C174.292 463.172 176.535 471.762 170.857 470.395C165.178 469.028 168.43 463.865 165.29 462.342C162.15 460.819 158.417 460.836 158.417 460.836C162.264 464.158 163.724 479.244 163.078 485.704C171.404 472.475 168.696 489.572 168.696 489.572C169.421 486.733 170.873 483.618 173.473 480.899L173.461 480.874Z" fill="url(#paint11_linear_604_9)"/>
<path style="mix-blend-mode:multiply" opacity="0.28" d="M194.274 497.246C202.033 503.763 192.446 517.231 186.666 515.24C180.886 513.25 184.856 506.064 179.761 504.961C175.293 503.99 173.616 509.044 173.283 510.316C175.514 512.766 177.43 514.602 178.851 515.491C189.204 521.998 202.986 509.009 204.88 491.463C205.024 490.189 205.055 488.875 205.035 487.587C204.286 493.738 200.857 499.534 196.972 495.527C191.703 490.098 198.46 481.057 198.46 481.057L194.104 485.755C191.724 489.118 190.02 493.637 194.3 497.234L194.274 497.246Z" fill="url(#paint12_linear_604_9)"/>
<path style="mix-blend-mode:screen" d="M156.671 448.783C160.014 457.604 186.246 469.495 190.536 469.208C194.782 468.926 195.936 459.153 188.093 449.454C187.221 448.439 186.349 447.487 185.544 446.643C179.377 440.274 176.358 437.911 167.985 438.557C167.985 438.557 153.315 439.936 156.677 448.764L156.671 448.783Z" fill="url(#paint13_linear_604_9)"/>
<path d="M132.336 463.98C132.336 463.98 124.556 475.442 137.166 505.422C149.769 535.42 149.711 534.98 153.302 534.031C156.893 533.082 182.182 520.925 182.182 520.925C182.182 520.925 147.638 476.604 145.18 472.795C142.722 468.985 132.355 463.986 132.355 463.986L132.336 463.98Z" fill="#FF006F"/>
<g style="mix-blend-mode:multiply" opacity="0.28">
<path d="M187.824 526.188C181.297 522.637 167.525 512.116 155.688 482.949C139.524 443.108 125.002 457.083 125.002 457.083C125.002 457.083 116.386 481.98 114.5 511.675C114.577 511.449 120.75 491.447 139.739 494.709C158.848 497.99 181.138 541.201 170.816 556.496C170.816 556.496 180.173 546.815 186.427 537.769L187.824 526.188Z" fill="#DD402E"/>
</g>
<path d="M161.854 493.541C161.854 493.541 164.764 487.23 164.545 491.904C164.545 491.904 167.725 487.745 164.695 496.789C161.665 505.832 161.854 493.541 161.854 493.541Z" fill="url(#paint14_linear_604_9)"/>
<g style="mix-blend-mode:multiply" opacity="0.28">
<path d="M161.854 493.541C161.854 493.541 164.764 487.23 164.545 491.904C164.545 491.904 167.725 487.745 164.695 496.789C161.665 505.832 161.854 493.541 161.854 493.541Z" fill="#DD402E"/>
</g>
<path d="M89.3589 456.072C89.3589 456.072 104.6 441.168 127.542 446.652C127.542 446.652 149.906 462.739 158.462 483.883C167.011 505.046 196.374 528.88 196.374 528.88C196.374 528.88 199.336 541.5 192.152 553.189C192.152 553.189 183.798 546.257 177.195 527.76C170.592 509.263 145.101 477.243 135.031 470.708C124.962 464.172 115.046 468.932 89.3589 456.072Z" fill="url(#paint15_linear_604_9)"/>
<path style="mix-blend-mode:screen" opacity="0.78" d="M218.892 499.819C227.779 468.08 205.974 437.771 208.287 415.767C210.497 394.611 229.163 353.191 230.609 350.032L214.789 347.106C214.789 347.106 192.856 414.341 184.47 430.071C176.308 445.332 154.094 444.281 145.052 484.54C136.029 524.805 160.309 589.757 207.39 526.37C212.735 516.17 216.951 506.862 218.904 499.844L218.892 499.819Z" fill="url(#paint16_linear_604_9)"/>
<path opacity="0.72" d="M214.252 475.988C209.48 476.698 181.889 460.682 192.785 450.628C203.682 440.575 228.998 473.775 214.252 475.988Z" fill="white"/>
<g style="mix-blend-mode:multiply" opacity="0.28">
<path d="M180.408 527.48C176.092 519.71 177.316 520.132 152.93 486.307C128.545 452.482 101.414 458.92 107.648 451.275C113.055 444.626 124.065 446.043 126.869 446.526C104.313 441.511 89.3585 456.072 89.3585 456.072C115.046 468.931 124.98 464.178 135.031 470.708C145.082 477.237 170.592 509.263 177.195 527.76C183.798 546.257 192.151 553.189 192.151 553.189C198.013 543.629 197.112 533.463 196.596 530.07C195.69 555.206 184.719 535.205 180.427 527.486L180.408 527.48Z" fill="#DD402E"/>
</g>
<path d="M131.154 505.999L148.065 500.497L143.326 498.234L129.409 503.423L132.048 495.758L117.765 509.164L136.85 510.252L131.154 505.999Z" fill="#862924"/>
<g style="mix-blend-mode:multiply" opacity="0.25">
<path d="M184.78 365.266C184.78 365.266 192.052 381.514 217.269 379.901L184.78 365.266Z" fill="#002AAE"/>
</g>
<path d="M193.511 317.041L189.277 333.004C187.979 337.936 189.945 343.11 194.13 346.001C200.837 350.623 211.759 356.822 223.709 358.142C228.885 358.706 233.836 355.767 235.919 351L242.415 336.173C244.326 331.788 243.53 326.639 240.206 323.203C234.911 317.724 224.71 310.533 206.385 308.215C200.493 307.468 195.011 311.338 193.485 317.053L193.511 317.041Z" fill="#B00077"/>
<path style="mix-blend-mode:multiply" opacity="0.56" d="M199.913 340.281C200.18 335.897 202.009 316.521 213.051 317.298C224.099 318.056 242.816 327.549 242.835 327.555C242.309 325.966 241.435 324.467 240.213 323.185C234.937 317.711 224.716 310.514 206.392 308.196C200.5 307.449 195.018 311.319 193.492 317.035L189.259 332.997C187.96 337.929 189.927 343.104 194.112 345.995C200.818 350.616 211.741 356.815 223.69 358.135C227.42 358.558 230.99 357.119 233.507 354.519C219.474 357.23 199.608 344.652 199.875 340.268L199.913 340.281Z" fill="url(#paint17_linear_604_9)"/>
<path d="M186.445 360.859C186.445 360.859 187.715 367.138 204.055 372.345C220.401 377.533 221.018 374.089 221.018 374.089C221.018 374.089 221.71 378.867 218.688 379.57C215.666 380.274 206.064 377.702 200.668 375.697C195.272 373.692 178.638 365.61 186.445 360.859Z" fill="#B00077"/>
<path d="M216.675 378.141C216.675 378.141 215.421 404.775 243.362 431.272C243.362 431.272 246.713 431.753 247.081 429.4C247.081 429.4 219.336 404.842 218.689 378.835L216.656 378.135L216.675 378.141Z" fill="#B00077"/>
<path d="M218.706 376.95C218.706 376.95 213.724 397.593 250.45 419.739C250.45 419.739 253.029 417.265 251.374 415.223C251.374 415.223 221.048 400.115 220.709 377.618L218.713 376.931L218.706 376.95Z" fill="#B00077"/>
<path d="M256.212 391.757C239.243 376.268 219.892 377.358 219.892 377.358C219.892 377.358 220.519 394.679 235.18 401.031C249.834 407.402 273.18 407.246 256.212 391.757ZM239.483 400.033C224.429 393.966 221.672 378.98 221.672 378.98C221.672 378.98 240.257 382.985 251.213 391.78C262.149 400.568 254.543 406.081 239.483 400.033Z" fill="#B00077"/>
<path d="M257.672 359.079C248.248 358.313 218.725 376.956 218.725 376.956L218.415 377.858C257.808 380.455 267.103 359.826 257.672 359.079ZM221.441 376.715C221.441 376.715 247.661 362.65 253.117 364.235C258.573 365.82 244.474 377.04 221.441 376.715Z" fill="#B00077"/>
<path style="mix-blend-mode:multiply" opacity="0.56" d="M224.998 391.704C223.846 389.605 222.425 386.699 222.025 384.376C221.725 382.738 222.68 383.635 223.917 385.301C222.181 381.719 221.672 378.98 221.672 378.98C221.672 378.98 228.376 380.427 236.085 383.481C233.284 382.012 230.949 380.599 230.729 379.892C230.252 378.341 236.625 380.263 238.433 380.822C234.593 379.374 231.025 378.481 228.096 377.998C231.743 377.867 235.045 377.512 238.046 376.991C235.482 377.221 219.963 378.559 234.439 375.601C234.736 375.535 235.007 375.482 235.285 375.409C231.166 376.239 226.546 376.75 221.428 376.689C221.428 376.689 227.882 373.238 235.046 369.926C225.333 373.117 239.026 365.707 244.334 362.891C235.496 366.845 225.5 372.754 221.049 375.466C221.069 374.674 220.987 374.058 220.987 374.058C220.987 374.058 220.84 374.911 218.679 375.133C218.853 376.097 218.652 377.351 216.662 378.116C213.086 379.511 193.058 372.11 191.742 370.122C190.425 368.135 194.19 368.212 194.19 368.212C187.156 364.298 186.432 360.834 186.432 360.834C178.619 365.603 195.26 373.666 200.656 375.672C205.154 377.347 212.596 379.405 216.686 379.637C216.777 382.001 217.228 387.053 219.231 393.71C217.099 383.268 218.635 385.289 220.094 388.271C220.039 388.063 219.959 387.867 219.923 387.665C220.039 388 220.168 388.359 220.304 388.7C220.983 390.153 221.605 391.649 221.758 392.059C218.443 381.566 222.53 387.618 224.998 391.704Z" fill="url(#paint18_linear_604_9)"/>
<path style="mix-blend-mode:screen" d="M21.2272 51.0294C-0.991531 54.1199 -16.4272 74.1861 -13.2461 95.8269C-10.065 117.468 10.5435 132.508 32.7622 129.418C54.9809 126.327 70.4166 106.261 67.2355 84.6203C64.0544 62.9795 43.4459 47.9389 21.2272 51.0294Z" fill="url(#paint19_radial_604_9)" fill-opacity="0.7"/>
<g style="mix-blend-mode:screen">
<path d="M26.4708 86.7066C24.4864 86.9786 23.0713 88.8 23.3838 90.7326C23.6638 92.6654 25.5344 94.0442 27.5186 93.7405C29.503 93.4685 30.9181 91.6471 30.6056 89.7146C30.3256 87.7818 28.455 86.4029 26.4708 86.7066Z" fill="#F6E6FC"/>
</g>
<path style="mix-blend-mode:screen" d="M213.649 3.88886C191.43 6.97939 175.994 27.0456 179.175 48.6863C182.356 70.3271 202.965 85.3677 225.184 82.2772C247.402 79.1866 262.838 59.1205 259.657 37.4797C256.476 15.8389 235.867 0.798324 213.649 3.88886Z" fill="url(#paint20_radial_604_9)" fill-opacity="0.7"/>
<g style="mix-blend-mode:screen">
<path d="M218.892 39.566C216.908 39.838 215.493 41.6594 215.805 43.5919C216.085 45.5247 217.956 46.9036 219.94 46.5999C221.924 46.3279 223.34 44.5065 223.027 42.574C222.747 40.6411 220.876 39.2623 218.892 39.566Z" fill="#F6E6FC"/>
</g>
<path style="mix-blend-mode:screen" d="M504.87 314.498C482.651 317.589 467.215 337.655 470.396 359.296C473.578 380.936 494.186 395.977 516.405 392.887C538.623 389.796 554.059 369.73 550.878 348.089C547.697 326.448 527.088 311.408 504.87 314.498Z" fill="url(#paint21_radial_604_9)" fill-opacity="0.7"/>
<g style="mix-blend-mode:screen">
<path d="M510.113 350.175C508.129 350.447 506.714 352.269 507.026 354.201C507.306 356.134 509.177 357.513 511.161 357.209C513.146 356.937 514.561 355.116 514.248 353.184C513.968 351.251 512.098 349.872 510.113 350.175Z" fill="#F6E6FC"/>
</g>
<path style="mix-blend-mode:screen" d="M481.52 475.334C459.301 478.424 443.865 498.491 447.046 520.131C450.227 541.772 470.836 556.813 493.055 553.722C515.273 550.632 530.709 530.565 527.528 508.925C524.347 487.284 503.738 472.243 481.52 475.334Z" fill="url(#paint22_radial_604_9)" fill-opacity="0.7"/>
<g style="mix-blend-mode:screen">
<path d="M486.763 511.011C484.779 511.283 483.364 513.104 483.676 515.037C483.956 516.97 485.827 518.349 487.811 518.045C489.795 517.773 491.211 515.952 490.898 514.019C490.618 512.086 488.747 510.707 486.763 511.011Z" fill="#F6E6FC"/>
</g>
<path style="mix-blend-mode:screen" d="M117.175 839.692C94.9567 842.782 79.521 862.848 82.7021 884.489C85.8832 906.13 106.492 921.17 128.71 918.08C150.929 914.989 166.365 894.923 163.184 873.282C160.003 851.642 139.394 836.601 117.175 839.692Z" fill="url(#paint23_radial_604_9)" fill-opacity="0.7"/>
<g style="mix-blend-mode:screen">
<path d="M122.419 875.369C120.435 875.641 119.02 877.462 119.332 879.395C119.612 881.327 121.483 882.706 123.467 882.403C125.451 882.131 126.866 880.309 126.554 878.377C126.274 876.444 124.403 875.065 122.419 875.369Z" fill="#F6E6FC"/>
</g>
<path style="mix-blend-mode:screen" d="M41.2384 732.827C19.0197 735.918 3.584 755.984 6.7651 777.625C9.94621 799.265 30.5547 814.306 52.7734 811.216C74.9921 808.125 90.4278 788.059 87.2467 766.418C84.0656 744.777 63.4571 729.737 41.2384 732.827Z" fill="url(#paint24_radial_604_9)" fill-opacity="0.7"/>
<g style="mix-blend-mode:screen">
<path d="M46.4821 768.504C44.4977 768.776 43.0825 770.598 43.3951 772.53C43.675 774.463 45.5457 775.842 47.5298 775.538C49.5142 775.266 50.9294 773.445 50.6168 771.512C50.3369 769.58 48.4662 768.201 46.4821 768.504Z" fill="#F6E6FC"/>
</g>
<path style="mix-blend-mode:screen" d="M387.902 722.387C365.683 725.477 350.248 745.544 353.429 767.184C356.61 788.825 377.218 803.866 399.437 800.775C421.656 797.685 437.091 777.618 433.91 755.978C430.729 734.337 410.121 719.296 387.902 722.387Z" fill="url(#paint25_radial_604_9)" fill-opacity="0.7"/>
<g style="mix-blend-mode:screen">
<path d="M393.145 758.032C391.161 758.304 389.746 760.126 390.058 762.058C390.338 763.991 392.209 765.37 394.193 765.066C396.177 764.794 397.592 762.973 397.28 761.04C397 759.107 395.129 757.728 393.145 758.032Z" fill="#F6E6FC"/>
</g>
<path style="mix-blend-mode:screen" d="M562.997 578.148C543.511 580.865 530.005 598.439 532.768 617.418C535.532 636.398 553.613 649.589 573.099 646.873C592.585 644.156 606.091 626.583 603.328 607.603C600.532 588.624 582.483 575.464 562.997 578.148Z" fill="url(#paint26_radial_604_9)" fill-opacity="0.7"/>
<g style="mix-blend-mode:screen">
<path d="M567.577 609.39C565.82 609.628 564.599 611.225 564.876 612.904C565.121 614.615 566.762 615.806 568.486 615.537C570.242 615.298 571.464 613.701 571.187 612.022C570.942 610.311 569.301 609.12 567.577 609.39Z" fill="#F6E6FC"/>
</g>
<path style="mix-blend-mode:screen" d="M273.766 88.3872C254.28 91.1037 240.774 108.677 243.537 127.657C246.333 146.636 264.382 159.796 283.868 157.112C303.354 154.395 316.893 136.821 314.097 117.842C311.301 98.8628 293.252 85.6706 273.766 88.3872Z" fill="url(#paint27_radial_604_9)" fill-opacity="0.7"/>
<g style="mix-blend-mode:screen">
<path d="M278.346 119.629C276.589 119.867 275.367 121.464 275.645 123.143C275.89 124.854 277.531 126.045 279.255 125.807C281.012 125.569 282.233 123.971 281.956 122.292C281.711 120.581 280.07 119.391 278.346 119.66L278.346 119.629Z" fill="#F6E6FC"/>
</g>
<path style="mix-blend-mode:screen" d="M232.731 746.885C213.245 749.602 199.738 767.176 202.502 786.155C205.298 805.134 223.347 818.326 242.833 815.61C262.319 812.893 275.825 795.32 273.062 776.34C270.266 757.361 252.217 744.169 232.731 746.885Z" fill="url(#paint28_radial_604_9)" fill-opacity="0.7"/>
<g style="mix-blend-mode:screen">
<path d="M237.344 778.158C235.587 778.396 234.365 779.994 234.643 781.673C234.888 783.384 236.528 784.575 238.252 784.305C240.009 784.067 241.231 782.469 240.954 780.79C240.708 779.079 239.068 777.889 237.344 778.158Z" fill="#F6E6FC"/>
</g>
<path style="mix-blend-mode:screen" d="M329.199 212.983C309.713 215.7 296.174 233.274 298.97 252.253C301.766 271.232 319.815 284.393 339.301 281.708C358.787 278.991 372.294 261.417 369.53 242.438C366.734 223.459 348.685 210.267 329.199 212.983Z" fill="url(#paint29_radial_604_9)" fill-opacity="0.7"/>
<g style="mix-blend-mode:screen">
<path d="M333.779 244.256C332.023 244.495 330.801 246.092 331.078 247.771C331.323 249.482 332.964 250.673 334.688 250.403C336.445 250.165 337.666 248.568 337.389 246.889C337.144 245.177 335.503 243.987 333.779 244.256Z" fill="#F6E6FC"/>
</g>
<g opacity="0.65">
<g style="mix-blend-mode:screen">
<path d="M392.624 438.013C390.607 438.286 389.224 440.107 389.505 442.071C389.785 444.036 391.655 445.383 393.672 445.111C395.689 444.838 397.072 443.017 396.791 441.053C396.511 439.088 394.641 437.741 392.624 438.013Z" fill="#F6E6FC"/>
</g>
<g opacity="0.5">
<path d="M389.477 416.531C375.294 418.501 365.453 431.314 367.481 445.128C369.509 458.943 382.668 468.531 396.852 466.561C411.035 464.591 420.875 451.778 418.847 437.964C416.82 424.149 403.661 414.561 389.477 416.531Z" fill="url(#paint30_radial_604_9)" fill-opacity="0.7" style="mix-blend-mode:color-dodge"/>
</g>
</g>
<g opacity="0.65">
<g style="mix-blend-mode:screen">
<path d="M97.2498 178.794C95.2328 179.066 93.8503 180.887 94.1306 182.852C94.4108 184.817 96.2811 186.164 98.2982 185.891C100.315 185.619 101.698 183.798 101.417 181.833C101.137 179.869 99.2669 178.522 97.2498 178.794Z" fill="#F6E6FC"/>
</g>
<path style="mix-blend-mode:color-dodge" opacity="0.5" d="M94.0708 157.344C79.8873 159.314 70.0472 172.126 72.0749 185.941C74.1027 199.756 87.2618 209.344 101.445 207.374C115.629 205.404 125.469 192.591 123.441 178.776C121.413 164.962 108.254 155.374 94.0708 157.344Z" fill="url(#paint31_radial_604_9)" fill-opacity="0.7"/>
</g>
<g opacity="0.65">
<g style="mix-blend-mode:screen">
<path d="M395.376 604.809C393.359 605.081 391.977 606.902 392.257 608.867C392.537 610.831 394.408 612.179 396.425 611.906C398.442 611.634 399.824 609.813 399.544 607.848C399.264 605.884 397.393 604.537 395.376 604.809Z" fill="#F6E6FC"/>
</g>
<path style="mix-blend-mode:color-dodge" opacity="0.5" d="M392.23 583.326C378.046 585.296 368.206 598.109 370.234 611.924C372.261 625.738 385.42 635.327 399.604 633.357C413.788 631.387 423.628 618.574 421.6 604.759C419.572 590.945 406.413 581.356 392.23 583.326Z" fill="url(#paint32_radial_604_9)" fill-opacity="0.7"/>
</g>
<defs>
<radialGradient id="paint0_radial_604_9" cx="0" cy="0" r="1" gradientUnits="userSpaceOnUse" gradientTransform="translate(163.307 468.414) rotate(19.0027) scale(105.592 151.016)">
<stop stop-color="#FF0EFF"/>
<stop offset="1" stop-color="#990899" stop-opacity="0"/>
</radialGradient>
<linearGradient id="paint1_linear_604_9" x1="117.205" y1="545.22" x2="274.803" y2="311.959" gradientUnits="userSpaceOnUse">
<stop offset="0.17" stop-color="#065E72"/>
<stop offset="1" stop-color="#6ABDFE"/>
</linearGradient>
<linearGradient id="paint2_linear_604_9" x1="123.364" y1="598.152" x2="130.26" y2="578.127" gradientUnits="userSpaceOnUse">
<stop stop-color="white"/>
<stop offset="0.11" stop-color="#CCDCE5"/>
<stop offset="0.24" stop-color="#96B9CA"/>
<stop offset="0.37" stop-color="#689AB2"/>
<stop offset="0.5" stop-color="#42809F"/>
<stop offset="0.63" stop-color="#256D91"/>
<stop offset="0.76" stop-color="#105F86"/>
<stop offset="0.88" stop-color="#045680"/>
<stop offset="1" stop-color="#00547E"/>
</linearGradient>
<linearGradient id="paint3_linear_604_9" x1="123.541" y1="579.658" x2="174.689" y2="431.137" gradientUnits="userSpaceOnUse">
<stop stop-color="#FF38B5"/>
<stop offset="0.22" stop-color="#E52AC7"/>
<stop offset="0.75" stop-color="#AC0BEF"/>
<stop offset="1" stop-color="#9700FF"/>
</linearGradient>
<linearGradient id="paint4_linear_604_9" x1="137.273" y1="540.09" x2="200.079" y2="357.716" gradientUnits="userSpaceOnUse">
<stop stop-color="#EFE2EF"/>
<stop offset="0.23" stop-color="#EBE0EF"/>
<stop offset="0.45" stop-color="#E0D9F1"/>
<stop offset="0.66" stop-color="#CDCFF5"/>
<stop offset="0.86" stop-color="#B3C1FA"/>
<stop offset="1" stop-color="#9DB5FF"/>
</linearGradient>
<linearGradient id="paint5_linear_604_9" x1="247.721" y1="437.081" x2="-25.3924" y2="570.644" gradientUnits="userSpaceOnUse">
<stop offset="0.44" stop-color="#002AAE"/>
<stop offset="0.5" stop-color="#042DAF"/>
<stop offset="0.57" stop-color="#1037B3"/>
<stop offset="0.64" stop-color="#2549B9"/>
<stop offset="0.71" stop-color="#4261C3"/>
<stop offset="0.78" stop-color="#6881CF"/>
<stop offset="0.85" stop-color="#96A7DD"/>
<stop offset="0.92" stop-color="#CCD4EE"/>
<stop offset="0.98" stop-color="white"/>
</linearGradient>
<linearGradient id="paint6_linear_604_9" x1="131.879" y1="565.782" x2="156.955" y2="492.967" gradientUnits="userSpaceOnUse">
<stop offset="0.44" stop-color="#002AAE"/>
<stop offset="0.5" stop-color="#042DAF"/>
<stop offset="0.57" stop-color="#1037B3"/>
<stop offset="0.64" stop-color="#2549B9"/>
<stop offset="0.71" stop-color="#4261C3"/>
<stop offset="0.78" stop-color="#6881CF"/>
<stop offset="0.85" stop-color="#96A7DD"/>
<stop offset="0.92" stop-color="#CCD4EE"/>
<stop offset="0.98" stop-color="white"/>
</linearGradient>
<linearGradient id="paint7_linear_604_9" x1="133.547" y1="564.486" x2="158.623" y2="491.671" gradientUnits="userSpaceOnUse">
<stop stop-color="#F4FFBF"/>
<stop offset="0.02" stop-color="#F4F6BB"/>
<stop offset="0.13" stop-color="#F7D4AE"/>
<stop offset="0.24" stop-color="#FAB8A3"/>
<stop offset="0.36" stop-color="#FCA39A"/>
<stop offset="0.49" stop-color="#FD9394"/>
<stop offset="0.65" stop-color="#FE8A91"/>
<stop offset="0.87" stop-color="#FF8890"/>
</linearGradient>
<linearGradient id="paint8_linear_604_9" x1="197.526" y1="465.605" x2="140.991" y2="493.268" gradientUnits="userSpaceOnUse">
<stop stop-color="#FFF1D2"/>
<stop offset="0.36" stop-color="#E5BDB1"/>
<stop offset="1" stop-color="#B55B74"/>
</linearGradient>
<linearGradient id="paint9_linear_604_9" x1="174.791" y1="499.761" x2="185.122" y2="469.76" gradientUnits="userSpaceOnUse">
<stop stop-color="#C35752"/>
<stop offset="0.35" stop-color="#A8423D"/>
<stop offset="0.75" stop-color="#8F2F2A"/>
<stop offset="1" stop-color="#862924"/>
</linearGradient>
<linearGradient id="paint10_linear_604_9" x1="152.29" y1="488.23" x2="161.457" y2="461.61" gradientUnits="userSpaceOnUse">
<stop stop-color="#C35752"/>
<stop offset="0.35" stop-color="#A8423D"/>
<stop offset="0.75" stop-color="#8F2F2A"/>
<stop offset="1" stop-color="#862924"/>
</linearGradient>
<linearGradient id="paint11_linear_604_9" x1="164.605" y1="488.121" x2="175.631" y2="459.514" gradientUnits="userSpaceOnUse">
<stop stop-color="white"/>
<stop offset="0.1" stop-color="#FDF8F8"/>
<stop offset="0.25" stop-color="#FAE7E5"/>
<stop offset="0.42" stop-color="#F5CCC7"/>
<stop offset="0.61" stop-color="#EFA59C"/>
<stop offset="0.81" stop-color="#E67467"/>
<stop offset="1" stop-color="#DD402E"/>
</linearGradient>
<linearGradient id="paint12_linear_604_9" x1="183.831" y1="517.542" x2="192.118" y2="493.477" gradientUnits="userSpaceOnUse">
<stop stop-color="white"/>
<stop offset="0.1" stop-color="#FDF8F8"/>
<stop offset="0.25" stop-color="#FAE7E5"/>
<stop offset="0.42" stop-color="#F5CCC7"/>
<stop offset="0.61" stop-color="#EFA59C"/>
<stop offset="0.81" stop-color="#E67467"/>
<stop offset="1" stop-color="#DD402E"/>
</linearGradient>
<linearGradient id="paint13_linear_604_9" x1="189.123" y1="448.422" x2="162.918" y2="461.237" gradientUnits="userSpaceOnUse">
<stop stop-color="#FFFF52"/>
<stop offset="0.34" stop-color="#9B9B31"/>
<stop offset="0.65" stop-color="#474717"/>
<stop offset="0.86" stop-color="#131306"/>
<stop offset="0.96"/>
</linearGradient>
<linearGradient id="paint14_linear_604_9" x1="161.702" y1="499.73" x2="164.905" y2="490.431" gradientUnits="userSpaceOnUse">
<stop stop-color="#C35752"/>
<stop offset="0.35" stop-color="#A8423D"/>
<stop offset="0.75" stop-color="#8F2F2A"/>
<stop offset="1" stop-color="#862924"/>
</linearGradient>
<linearGradient id="paint15_linear_604_9" x1="155.359" y1="496.684" x2="103.355" y2="522.116" gradientUnits="userSpaceOnUse">
<stop stop-color="#F4FFBF"/>
<stop offset="0.42" stop-color="#F9C6A8"/>
<stop offset="0.81" stop-color="#FD9996"/>
<stop offset="1" stop-color="#FF8890"/>
</linearGradient>
<linearGradient id="paint16_linear_604_9" x1="152.81" y1="439.447" x2="311.927" y2="479.955" gradientUnits="userSpaceOnUse">
<stop offset="0.14"/>
<stop offset="0.26" stop-color="#3A3A00"/>
<stop offset="0.41" stop-color="#757500"/>
<stop offset="0.55" stop-color="#A6A600"/>
<stop offset="0.69" stop-color="#CCCC00"/>
<stop offset="0.81" stop-color="#E8E800"/>
<stop offset="0.92" stop-color="#F9F900"/>
<stop offset="1" stop-color="#FFFF00"/>
</linearGradient>
<linearGradient id="paint17_linear_604_9" x1="190.891" y1="324.586" x2="238.242" y2="340.893" gradientUnits="userSpaceOnUse">
<stop offset="0.11" stop-color="#6D2EAE"/>
<stop offset="0.31" stop-color="#6E30AF"/>
<stop offset="0.44" stop-color="#7439B2"/>
<stop offset="0.55" stop-color="#7F47B8"/>
<stop offset="0.65" stop-color="#8D5CC0"/>
<stop offset="0.74" stop-color="#A077CA"/>
<stop offset="0.82" stop-color="#B798D7"/>
<stop offset="0.9" stop-color="#D3C0E6"/>
<stop offset="0.97" stop-color="#F2ECF7"/>
<stop offset="1" stop-color="white"/>
</linearGradient>
<linearGradient id="paint18_linear_604_9" x1="184.802" y1="362.143" x2="238.516" y2="380.641" gradientUnits="userSpaceOnUse">
<stop stop-color="white"/>
<stop offset="0.03" stop-color="#F2ECF7"/>
<stop offset="0.1" stop-color="#D3C0E6"/>
<stop offset="0.18" stop-color="#B798D7"/>
<stop offset="0.26" stop-color="#A077CA"/>
<stop offset="0.35" stop-color="#8D5CC0"/>
<stop offset="0.45" stop-color="#7F47B8"/>
<stop offset="0.56" stop-color="#7439B2"/>
<stop offset="0.69" stop-color="#6E30AF"/>
<stop offset="0.89" stop-color="#6D2EAE"/>
</linearGradient>
<radialGradient id="paint19_radial_604_9" cx="0" cy="0" r="1" gradientUnits="userSpaceOnUse" gradientTransform="translate(27.0033 90.1701) rotate(-98.3632) scale(39.6176 40.6293)">
<stop stop-color="#EC8331"/>
<stop offset="1" stop-color="#864A1C" stop-opacity="0"/>
</radialGradient>
<radialGradient id="paint20_radial_604_9" cx="0" cy="0" r="1" gradientUnits="userSpaceOnUse" gradientTransform="translate(219.415 43.0325) rotate(-98.3632) scale(39.6176 40.6293)">
<stop stop-color="#EC8331"/>
<stop offset="1" stop-color="#864A1C" stop-opacity="0"/>
</radialGradient>
<radialGradient id="paint21_radial_604_9" cx="0" cy="0" r="1" gradientUnits="userSpaceOnUse" gradientTransform="translate(510.634 353.68) rotate(-98.3632) scale(39.6176 40.6293)">
<stop stop-color="#EC8331"/>
<stop offset="1" stop-color="#864A1C" stop-opacity="0"/>
</radialGradient>
<radialGradient id="paint22_radial_604_9" cx="0" cy="0" r="1" gradientUnits="userSpaceOnUse" gradientTransform="translate(487.277 514.516) rotate(-98.3632) scale(39.6176 40.6293)">
<stop stop-color="#EC8331"/>
<stop offset="1" stop-color="#864A1C" stop-opacity="0"/>
</radialGradient>
<radialGradient id="paint23_radial_604_9" cx="0" cy="0" r="1" gradientUnits="userSpaceOnUse" gradientTransform="translate(122.936 878.86) rotate(-98.3632) scale(39.6176 40.6293)">
<stop stop-color="#EC8331"/>
<stop offset="1" stop-color="#864A1C" stop-opacity="0"/>
</radialGradient>
<radialGradient id="paint24_radial_604_9" cx="0" cy="0" r="1" gradientUnits="userSpaceOnUse" gradientTransform="translate(46.9826 772.029) rotate(-98.3632) scale(39.6176 40.6293)">
<stop stop-color="#EC8331"/>
<stop offset="1" stop-color="#864A1C" stop-opacity="0"/>
</radialGradient>
<radialGradient id="paint25_radial_604_9" cx="0" cy="0" r="1" gradientUnits="userSpaceOnUse" gradientTransform="translate(393.655 761.555) rotate(-98.3632) scale(39.6176 40.6293)">
<stop stop-color="#EC8331"/>
<stop offset="1" stop-color="#864A1C" stop-opacity="0"/>
</radialGradient>
<radialGradient id="paint26_radial_604_9" cx="0" cy="0" r="1" gradientUnits="userSpaceOnUse" gradientTransform="translate(568.024 612.475) rotate(-98.3632) scale(34.7288 35.6158)">
<stop stop-color="#EC8331"/>
<stop offset="1" stop-color="#864A1C" stop-opacity="0"/>
</radialGradient>
<radialGradient id="paint27_radial_604_9" cx="0" cy="0" r="1" gradientUnits="userSpaceOnUse" gradientTransform="translate(278.815 122.697) rotate(-98.3632) scale(34.7289 35.6158)">
<stop stop-color="#EC8331"/>
<stop offset="1" stop-color="#864A1C" stop-opacity="0"/>
</radialGradient>
<radialGradient id="paint28_radial_604_9" cx="0" cy="0" r="1" gradientUnits="userSpaceOnUse" gradientTransform="translate(237.757 781.22) rotate(-98.3632) scale(34.7288 35.6158)">
<stop stop-color="#EC8331"/>
<stop offset="1" stop-color="#864A1C" stop-opacity="0"/>
</radialGradient>
<radialGradient id="paint29_radial_604_9" cx="0" cy="0" r="1" gradientUnits="userSpaceOnUse" gradientTransform="translate(334.255 247.312) rotate(-98.3632) scale(34.7289 35.6158)">
<stop stop-color="#EC8331"/>
<stop offset="1" stop-color="#864A1C" stop-opacity="0"/>
</radialGradient>
<radialGradient id="paint30_radial_604_9" cx="0" cy="0" r="1" gradientUnits="userSpaceOnUse" gradientTransform="translate(393.16 441.525) rotate(-98.3632) scale(25.3006 25.9468)">
<stop stop-color="#E8AB55"/>
<stop offset="1" stop-opacity="0"/>
</radialGradient>
<radialGradient id="paint31_radial_604_9" cx="0" cy="0" r="1" gradientUnits="userSpaceOnUse" gradientTransform="translate(97.7481 182.335) rotate(-98.3632) scale(25.3006 25.9468)">
<stop stop-color="#E8AB55"/>
<stop offset="1" stop-color="#826030" stop-opacity="0"/>
</radialGradient>
<radialGradient id="paint32_radial_604_9" cx="0" cy="0" r="1" gradientUnits="userSpaceOnUse" gradientTransform="translate(395.899 608.327) rotate(-98.3632) scale(25.3006 25.9468)">
<stop stop-color="#E8AB55"/>
<stop offset="1" stop-opacity="0"/>
</radialGradient>
</defs>
</svg>
