<svg width="306" height="316" viewBox="0 0 306 316" fill="none" xmlns="http://www.w3.org/2000/svg">
<path style="mix-blend-mode:screen" opacity="0.61" d="M153 316.008C237.5 316.008 306 247.572 306 163.151C306 78.7309 237.5 10.2947 153 10.2947C68.5004 10.2947 0 78.7309 0 163.151C0 247.572 68.5004 316.008 153 316.008Z" fill="url(#paint0_radial_416_1997)"/>
<path fill-rule="evenodd" clip-rule="evenodd" d="M44.6587 216.677C41.3107 220.085 36.0327 224.421 35.2764 228.16C34.5832 231.56 37.1198 243.711 40.8065 244.727C50.3858 247.363 65.8181 246.82 78.2412 248.41C89.6638 249.874 107.562 249.89 116.834 256.76C119.78 258.948 121.19 265.874 124.499 267.063C132.148 269.801 141.302 270.462 149.558 271.698C156.75 272.776 169.071 276.491 173.396 273.87C175.215 272.768 176.208 266.087 177.114 265.347C180.895 262.238 200.747 263.726 212.563 263.072C224.994 262.38 243.751 264.78 251.566 260.042C253.874 258.641 254.874 252.518 255.89 249.103C258.002 242.019 259.9 234.865 261.87 227.75C264.627 217.818 267.581 208.012 270.834 198.237C253.259 214.568 237.268 232.181 222.418 251.023C163.643 236.534 104.687 224.555 44.6508 216.685L44.6587 216.677Z" fill="#7DFFFF"/>
<path d="M295.649 121.092C285.943 167.795 266.564 212.577 251.298 257.61C251.298 257.61 251.258 257.705 250.943 257.815C246.382 259.365 240.749 259.208 235.786 259.483C215.297 260.609 180.225 256.461 174.199 261.097C173.167 261.892 171.473 270.998 169.504 271.336C163.178 272.43 148.762 267.259 138.182 266.142C133.849 265.685 126.507 265.913 123.679 262.655C121.804 260.491 120.639 255.556 119.307 254.344C107.908 243.995 67.8267 242.35 41.7123 239.855C40.8694 235.865 39.9871 231.89 39.0732 227.916C41.2002 225.075 43.5399 222.895 45.7062 220.085C47.0139 218.385 47.4708 216.897 48.7864 215.205C50.8267 212.592 52.8749 209.979 54.8758 207.327C57.3888 204.037 59.8939 200.74 62.4069 197.45C62.4778 197.355 62.5172 197.308 62.5881 197.214C84.0705 168.999 104.387 140.918 121.434 109.744C121.434 109.744 124.57 110.995 129.375 112.805C140.829 117.134 152.315 121.407 163.903 125.358C170.512 127.617 181.549 133.346 187.197 131.599C187.488 131.513 188.568 131.159 190.19 130.804C206.08 127.381 222.213 124.658 238.205 121.675C240.411 121.266 242.624 120.856 244.822 120.447C250.659 119.369 256.505 118.291 262.334 117.252C263.193 117.102 264.044 116.945 264.871 116.795C266.793 116.449 268.66 116.118 270.44 115.796C272.788 115.379 275.017 114.985 277.05 114.631C281.437 113.86 286.046 113.246 290.205 112.349C290.221 112.349 290.229 112.349 290.229 112.349C291.978 115.292 293.79 118.212 295.649 121.092Z" fill="url(#paint1_linear_416_1997)"/>
<g style="mix-blend-mode:soft-light" opacity="0.8">
<path d="M290.229 112.357C291.379 113.411 285.471 130.261 282.611 138.824C277.759 153.361 272.827 167.881 267.77 182.347C262.838 196.435 257.891 210.452 253.424 224.689C251.431 231.04 249.509 243.452 244.649 246.631C241.206 248.882 234.463 248.685 229.594 249.236C220.913 250.212 212.201 250.873 203.512 251.818C191.38 253.14 179.248 254.462 167.101 255.651C167.101 255.651 167.101 255.651 167.101 255.659C167.534 258.279 168.606 266.96 166.297 267.047C160.043 267.275 148.541 264.52 139.608 263.592C135.386 263.151 130.344 262.073 127.051 260.617C124.081 259.295 123.892 253.982 124.577 250.653C96.4541 241.728 67.8976 234.259 39.0811 227.932C72.5217 188.273 106.955 150.213 133.747 105.564C144.61 110.554 155.489 115.528 166.4 120.424C176.972 125.169 189.883 133.63 198.919 134.22C210.798 134.999 228.925 127.223 243.719 123.595C259.215 119.802 289.496 111.695 290.237 112.372L290.229 112.357Z" fill="white"/>
</g>
<g style="mix-blend-mode:multiply" opacity="0.8">
<path d="M182.699 233.331C177.507 240.737 172.584 248.434 167.093 255.643C167.093 255.643 167.093 255.643 167.093 255.651C167.117 255.777 167.448 257.524 167.519 259.657C167.582 261.38 168.598 267.739 166.29 267.031C153.551 263.143 137.284 265.26 127.043 260.593C124.058 259.232 123.884 253.959 124.57 250.629C125.286 249.748 125.641 249.307 126.358 248.442C132.006 241.516 137.654 234.598 143.295 227.672C154.607 228.624 165.912 229.639 177.216 230.702C179.957 230.962 181.328 231.095 184.077 231.355C184.077 231.355 183.558 232.103 182.691 233.331H182.699Z" fill="#912774"/>
</g>
<g style="mix-blend-mode:multiply" opacity="0.5">
<path d="M167.093 255.651C167.117 255.777 167.999 258.862 167.519 259.657C167.472 259.728 167.18 259.822 167.007 259.877C155.056 263.875 134.787 257.784 126.35 248.442C131.998 241.516 137.647 234.598 143.287 227.672C154.599 228.624 165.904 229.639 177.208 230.702C179.548 231.827 182.628 233.126 182.683 233.331C183.235 235.424 172.568 248.434 167.078 255.643C167.078 255.643 167.078 255.643 167.078 255.651H167.093Z" fill="#BE5286"/>
</g>
<path d="M282.107 118.149C266.392 158.893 249.336 198.796 238.946 241.327C215.368 243.767 192.026 247.033 168.614 250.724C163.667 244.467 154.584 242.122 147.415 241.154C141.208 240.319 131.329 240.138 127.469 246.773C101.15 237.431 73.9166 230.198 46.7938 223.626C45.8957 220.628 44.974 217.637 44.0287 214.662C46.2581 211.916 48.4638 209.153 50.6617 206.383C47.3294 205.737 43.9972 205.108 40.6649 204.478C39.6093 200.417 38.5537 196.356 37.4902 192.303C57.2553 173.485 74.5704 151.771 87.9073 128.089C95.4777 114.647 104.064 88.1239 107.885 86.2429C115.881 82.3156 159.397 105.848 182.676 120.361C183.219 120.699 183.731 121.163 184.117 121.706C186.094 124.437 187.197 131.591 187.197 131.591C187.363 131.623 191.128 123.123 194.051 120.723C209.074 108.351 238.158 88.5883 251.022 88.6748C252.346 88.6827 254.465 92.2637 254.465 92.2637C253.07 96.7891 251.66 101.307 250.25 105.824C255.694 104.951 261.145 104.093 266.588 103.243C267.455 104.329 267.896 104.864 268.778 105.934C267.825 108.579 267.345 109.901 266.384 112.53C269.543 111.908 272.702 111.286 275.86 110.68C277.901 113.199 279.988 115.693 282.115 118.141L282.107 118.149Z" fill="url(#paint2_linear_416_1997)"/>
<g style="mix-blend-mode:multiply" opacity="0.38">
<path d="M109.791 89.0054C96.5646 105.092 89.0966 132.41 76.0354 152.243C70.332 160.908 63.0136 168.692 55.971 176.373C52.9932 179.616 43.3825 189.532 44.5169 191.091C47.8885 195.687 70.9779 196.97 83.9131 199.898C95.9029 202.605 112.832 204.108 122.529 211.231C128.516 215.63 137.859 229.175 139.687 228.695C144.902 227.341 155.34 195.915 162.642 179.765C167.55 168.912 172.427 158.051 177.114 147.096C179.548 141.398 184.582 133.598 184.196 129.396C183.345 120.29 158.956 109.138 147.927 104.187C138.419 99.9136 129.005 95.2387 119.465 90.9258C117.078 89.8475 111.627 86.7703 109.791 89.0133V89.0054Z" fill="#EAACB6"/>
</g>
<g style="mix-blend-mode:multiply" opacity="0.38">
<path d="M191.364 124.272C199.187 119.259 207.096 114.371 215.045 109.555C224.805 103.644 244.791 91.3035 247.571 92.9877C248.958 93.8299 243.404 107.312 241.655 111.68C236.582 124.382 230.39 137.644 226.94 150.882C219.858 178.081 206.505 197.741 203.63 199.591C198.533 202.865 162.997 204.919 146.083 222.1C161.146 189.477 176.223 156.863 191.356 124.272H191.364Z" fill="#EAACB6"/>
</g>
<g style="mix-blend-mode:multiply" opacity="0.5">
<path d="M282.107 118.149C266.391 158.893 249.336 198.796 238.945 241.327C215.367 243.767 192.026 247.033 168.614 250.724C163.666 244.467 154.583 242.122 147.415 241.154C141.207 240.319 131.329 240.138 127.468 246.773C101.149 237.431 73.9161 230.198 46.7933 223.626C46.0292 221.612 44.0204 215.426 45.9425 214.867C59.9018 210.837 103.087 222.21 103.087 222.21C103.15 222.06 67.4958 210.097 50.6534 206.383C47.3211 205.737 43.9889 205.108 40.6566 204.478C39.601 200.417 38.5454 196.356 37.4819 192.303C52.1344 195.223 66.7632 198.276 81.329 201.598C90.4356 203.675 99.55 205.824 108.546 208.35C113.052 209.617 120.174 213.309 123.388 215.953C130.249 221.604 140.813 237.518 140.813 237.518C141.436 237.462 145.107 228.246 148.006 225.24C154.489 218.527 169.401 215.276 179.13 211.514C188.796 207.776 204.236 204.998 208.396 200.976C224.521 185.401 237.582 127.688 250.329 90.485C251.164 88.0452 254.456 92.2637 254.456 92.2637C253.062 96.7891 251.652 101.307 250.242 105.824C238.748 139.832 225.971 192.366 212.114 206.587C206.757 212.081 173.411 219.802 173.411 219.802C173.419 219.841 216.785 217.031 222.386 212.978C222.386 212.978 237.315 173.949 244.672 154.4C250.998 137.581 257.639 120.054 266.037 104.164C266.478 103.337 268.77 105.926 268.77 105.926C267.817 108.571 267.336 109.893 266.375 112.522C254.748 143.743 236.598 184.606 225.916 222.202C218.471 223.131 211.027 224.059 203.598 225.114C211.964 224.524 228.681 225.94 228.681 225.94C231.911 222.863 247.981 181.528 256.394 159.082C262.192 143.633 270.401 113.435 275.309 111.617C276.238 111.27 280.303 116.063 282.115 118.133L282.107 118.149Z" fill="#BE5286"/>
</g>
<g style="mix-blend-mode:multiply" opacity="0.8">
<path d="M245.87 248.284C247.422 249.496 250.549 256.367 249.312 257.178C245.697 259.523 233.013 259.153 222.71 258.791C213.115 258.445 198.312 259.421 188.836 257.902C180.974 256.642 200.298 252.747 201.243 252.597C209.152 251.377 219.866 250.74 227.869 249.575C233.061 248.819 242.994 246.033 245.87 248.284Z" fill="#912774"/>
</g>
<g style="mix-blend-mode:multiply" opacity="0.8">
<path d="M42.2088 229.624C41.2162 230.521 40.8459 238.493 43.1698 239.312C47.471 240.831 68.8353 242.869 78.2176 242.869C88.4664 242.869 88.6003 240.697 81.0693 238.462C74.326 236.463 67.4252 234.621 60.5401 232.937C55.2936 231.654 44.0285 227.971 42.2088 229.616V229.624Z" fill="#912774"/>
</g>
<g style="mix-blend-mode:multiply" opacity="0.8">
<path d="M140.475 241.909C136.654 240.052 125.452 247.363 125.019 252.739C124.877 254.47 125.578 259.09 127.571 258.563C130.375 257.823 143.381 243.318 140.475 241.901V241.909Z" fill="#912774"/>
</g>
<path style="mix-blend-mode:multiply" opacity="0.7" d="M146.083 222.1C143.854 226.948 142.003 232.284 140.805 237.517C134.582 227.845 129.903 221.061 122.253 215.103C144.492 186.801 165.478 155.383 183.392 124.154C183.668 123.186 183.809 122.698 184.093 121.714C186.047 124.618 188.245 129.23 187.173 131.599C172.891 163.293 159.869 192.137 146.068 222.1H146.083Z" fill="url(#paint3_linear_416_1997)"/>
<path style="mix-blend-mode:multiply" opacity="0.99" d="M250.935 257.815C250.439 258.917 240.741 259.208 235.778 259.483C215.289 260.609 180.225 256.453 174.191 261.097C173.151 261.892 171.497 270.958 169.496 271.336C162.626 272.65 147.084 267.173 135.701 265.929C131.864 265.512 126.177 265.654 123.679 262.655C121.804 260.404 120.639 255.556 119.307 254.344C107.908 243.995 67.8267 242.35 41.7122 239.855C40.8693 235.865 39.987 231.89 39.0732 227.916C45.013 227.318 50.9527 226.719 56.8925 226.121C53.5287 225.271 50.1571 224.445 46.7854 223.642C46.36 222.218 46.1395 221.509 45.7062 220.093C45.6274 219.833 45.588 219.707 45.5093 219.447C44.9184 217.535 44.6191 216.583 44.0125 214.67C46.2419 211.923 48.4476 209.161 50.6455 206.391C47.3369 205.666 40.9481 204.439 40.696 203.778C39.9555 201.802 38.443 194.199 39.0023 193.483C39.861 192.374 65.0537 197.489 76.7363 200.126C91.6015 203.471 109.003 206.485 121.655 214.702C129.572 219.841 140.742 237.533 140.805 237.525C141.483 237.494 146.099 226.798 150.18 224.185C166.148 213.97 183.156 211.939 207.143 202.235C208.671 201.613 212.106 206.603 212.106 206.603C224.151 196.356 245.129 121.714 245.129 121.714C245.129 121.714 244.231 128.616 244.152 133.189C244.034 139.706 245.531 148.694 245.003 153.487C244.68 156.414 227.145 197.678 223.135 213.002C222.457 215.599 225.908 222.218 225.908 222.218C225.908 222.218 230.784 201.133 261.428 125.901C262.673 129.128 262.878 132.158 264.201 135.361C253.338 170.754 232.596 220.809 228.665 225.964C227.255 227.813 236.96 236.565 236.55 239.501C236.235 241.775 226.247 242.704 222.544 243.082C225.624 245.049 228.704 247.025 231.785 248.992C231.8 249.008 231.816 249.008 231.832 249.024C231.832 249.024 232.084 249.024 232.241 248.937C232.241 248.937 232.241 248.937 232.249 248.937C233.423 248.851 237.787 247.859 241.206 247.639C243.475 247.497 245.405 247.607 245.87 248.292C247.847 251.267 251.179 257.272 250.935 257.815Z" fill="url(#paint4_linear_416_1997)"/>
<g opacity="0.24">
<path d="M166.124 241.649C191.065 235.086 228.326 234.362 228.326 234.362C228.326 234.385 166.124 241.649 166.124 241.649Z" fill="url(#paint5_linear_416_1997)"/>
<path d="M196.934 220.809C167.361 226.066 152.212 231.158 152.212 231.158C162.658 224.508 196.934 220.809 196.934 220.809Z" fill="url(#paint6_linear_416_1997)"/>
<path d="M128.225 227.664C128.327 227.562 116.85 217.409 110.414 214.828C96.7694 209.35 68.1577 206.328 68.1577 206.328C68.1577 206.343 97.2421 209.909 110.933 218.031C115.329 220.636 128.233 227.664 128.233 227.664H128.225Z" fill="url(#paint7_linear_416_1997)"/>
<path d="M122.75 240.115C123.002 239.847 100.716 227.074 54.6553 220.817C54.6316 220.817 122.75 240.115 122.75 240.115Z" fill="url(#paint8_linear_416_1997)"/>
</g>
<g style="mix-blend-mode:multiply" opacity="0.7">
<path d="M165.659 251.841C162.256 248.032 151.298 239.532 145.556 243.538C143.57 244.931 130.509 258.649 137.079 259.822C143.933 261.042 157.876 265.268 163.17 261.396C165.384 259.775 167.944 254.407 165.651 251.841H165.659Z" fill="#BE5286"/>
</g>
<g style="mix-blend-mode:multiply" opacity="0.7">
<path d="M248.06 244.947C247.595 247.843 251.282 253.353 251.881 252.51C255.528 247.458 257.245 238.045 259.774 230.867C263.563 220.101 267.959 209.255 270.834 198.229C271.543 195.49 264.17 195.506 263.5 197.623C258.561 213.364 250.502 229.671 248.052 244.947H248.06Z" fill="#8C2669"/>
</g>
<g style="mix-blend-mode:soft-light" opacity="0.5">
<path d="M288.48 114.481C287.33 110.68 280.555 126.224 280.13 127.57C276.892 137.903 271.945 147.859 267.722 157.878C265.351 163.505 258.939 174.044 260.648 178.081C262.358 182.111 270.582 169.676 271.48 167.74C275.805 158.461 278.964 148.135 282.233 138.25C284.628 131.001 290.095 119.841 288.472 114.474L288.48 114.481Z" fill="white"/>
</g>
<g style="mix-blend-mode:soft-light" opacity="0.5">
<path d="M124.042 245.293C128.186 244.617 135.252 229.938 102.449 225.319C93.5081 224.059 84.3385 222.887 75.2398 222.47C69.8121 222.218 54.4822 221.824 53.6944 224.823C53.3005 226.334 60.674 228.9 63.2106 229.718C71.1355 232.252 79.2338 234.259 87.2926 236.313C99.4951 239.422 116.172 246.584 124.042 245.301V245.293Z" fill="#C263FF"/>
</g>
<g style="mix-blend-mode:soft-light" opacity="0.5">
<path d="M230.099 239.194C231.06 235.644 213.8 228.12 208.301 226.137C196.603 221.911 173.766 220.108 161.65 224.288C154.308 226.822 147.817 227.853 151.48 235.88C153.67 240.673 168.424 249.276 173.49 249.811C182.683 250.779 196.76 249.315 204.205 248.048C210.988 246.891 229.027 243.121 230.091 239.194H230.099Z" fill="#C263FF"/>
</g>
<path fill-rule="evenodd" clip-rule="evenodd" d="M180.147 101.802C180.147 102.818 179.32 103.644 178.303 103.644C177.287 103.644 176.46 102.818 176.46 101.802C176.46 100.787 177.287 99.9608 178.303 99.9608C179.32 99.9608 180.147 100.787 180.147 101.802Z" fill="white"/>
<path fill-rule="evenodd" clip-rule="evenodd" d="M148.675 83.8267C148.675 84.4485 148.171 84.9522 147.548 84.9522C146.926 84.9522 146.422 84.4485 146.422 83.8267C146.422 83.205 146.926 82.7013 147.548 82.7013C148.171 82.7013 148.675 83.205 148.675 83.8267Z" fill="white"/>
<path d="M193.916 89.7845C194.46 89.7845 194.901 89.344 194.901 88.8007C194.901 88.2573 194.46 87.8169 193.916 87.8169C193.373 87.8169 192.932 88.2573 192.932 88.8007C192.932 89.344 193.373 89.7845 193.916 89.7845Z" fill="white"/>
<path d="M128.303 53.2114C129.247 53.2114 130.013 52.4467 130.013 51.5035C130.013 50.5603 129.247 49.7957 128.303 49.7957C127.359 49.7957 126.594 50.5603 126.594 51.5035C126.594 52.4467 127.359 53.2114 128.303 53.2114Z" fill="white"/>
<path fill-rule="evenodd" clip-rule="evenodd" d="M209.097 82.8272C209.097 83.0397 208.923 83.2128 208.711 83.2128C208.498 83.2128 208.325 83.0397 208.325 82.8272C208.325 82.6147 208.498 82.4415 208.711 82.4415C208.923 82.4415 209.097 82.6147 209.097 82.8272Z" fill="white"/>
<path fill-rule="evenodd" clip-rule="evenodd" d="M197.375 99.6223C197.375 99.8348 197.201 100.008 196.989 100.008C196.776 100.008 196.603 99.8348 196.603 99.6223C196.603 99.4098 196.776 99.2367 196.989 99.2367C197.201 99.2367 197.375 99.4098 197.375 99.6223Z" fill="white"/>
<path fill-rule="evenodd" clip-rule="evenodd" d="M143.311 59.0589C143.311 59.2714 143.137 59.4445 142.925 59.4445C142.712 59.4445 142.539 59.2714 142.539 59.0589C142.539 58.8464 142.712 58.6732 142.925 58.6732C143.137 58.6732 143.311 58.8464 143.311 59.0589Z" fill="white"/>
<path fill-rule="evenodd" clip-rule="evenodd" d="M162.036 100.008C162.036 100.22 161.862 100.394 161.65 100.394C161.437 100.394 161.264 100.22 161.264 100.008C161.264 99.7955 161.437 99.6223 161.65 99.6223C161.862 99.6223 162.036 99.7955 162.036 100.008Z" fill="white"/>
<path fill-rule="evenodd" clip-rule="evenodd" d="M187.623 75.1851C187.623 75.3976 187.449 75.5707 187.237 75.5707C187.024 75.5707 186.851 75.3976 186.851 75.1851C186.851 74.9726 187.024 74.7994 187.237 74.7994C187.449 74.7994 187.623 74.9726 187.623 75.1851Z" fill="white"/>
<path style="mix-blend-mode:screen" opacity="0.61" d="M178.366 234.322C239.824 234.322 289.646 184.547 289.646 123.147C289.646 61.746 239.824 11.9711 178.366 11.9711C116.908 11.9711 67.0864 61.746 67.0864 123.147C67.0864 184.547 116.908 234.322 178.366 234.322Z" fill="url(#paint9_radial_416_1997)"/>
<defs>
<radialGradient id="paint0_radial_416_1997" cx="0" cy="0" r="1" gradientUnits="userSpaceOnUse" gradientTransform="translate(153 163.151) scale(153 152.857)">
<stop stop-color="#8680E8"/>
<stop offset="1" stop-color="#4B4882" stop-opacity="0"/>
</radialGradient>
<linearGradient id="paint1_linear_416_1997" x1="39.0732" y1="190.619" x2="295.649" y2="190.619" gradientUnits="userSpaceOnUse">
<stop stop-color="#3D069A"/>
<stop offset="1" stop-color="#6509BA"/>
</linearGradient>
<linearGradient id="paint2_linear_416_1997" x1="37.4824" y1="168.275" x2="282.107" y2="168.275" gradientUnits="userSpaceOnUse">
<stop stop-color="#F8EEE1"/>
<stop offset="1" stop-color="#E3C0AA"/>
</linearGradient>
<linearGradient id="paint3_linear_416_1997" x1="154.867" y1="237.517" x2="154.867" y2="121.714" gradientUnits="userSpaceOnUse">
<stop stop-color="#FFA4DA"/>
<stop offset="1" stop-color="white"/>
</linearGradient>
<linearGradient id="paint4_linear_416_1997" x1="151.543" y1="121.714" x2="151.543" y2="271.541" gradientUnits="userSpaceOnUse">
<stop stop-color="#FFBDB8"/>
<stop offset="1" stop-color="#8C2669"/>
</linearGradient>
<linearGradient id="paint5_linear_416_1997" x1="166.124" y1="238.006" x2="228.334" y2="238.006" gradientUnits="userSpaceOnUse">
<stop stop-color="#F8EEE1"/>
<stop offset="1" stop-color="#E3C0AA"/>
</linearGradient>
<linearGradient id="paint6_linear_416_1997" x1="152.212" y1="225.988" x2="196.934" y2="225.988" gradientUnits="userSpaceOnUse">
<stop stop-color="#F8EEE1"/>
<stop offset="1" stop-color="#E3C0AA"/>
</linearGradient>
<linearGradient id="paint7_linear_416_1997" x1="68.1577" y1="217" x2="128.225" y2="217" gradientUnits="userSpaceOnUse">
<stop stop-color="#F8EEE1"/>
<stop offset="1" stop-color="#E3C0AA"/>
</linearGradient>
<linearGradient id="paint8_linear_416_1997" x1="54.6553" y1="230.458" x2="122.75" y2="230.458" gradientUnits="userSpaceOnUse">
<stop stop-color="#F8EEE1"/>
<stop offset="1" stop-color="#E3C0AA"/>
</linearGradient>
<radialGradient id="paint9_radial_416_1997" cx="0" cy="0" r="1" gradientUnits="userSpaceOnUse" gradientTransform="translate(178.366 123.147) scale(111.28 111.176)">
<stop stop-color="#8680E8"/>
<stop offset="1" stop-color="#4B4882" stop-opacity="0"/>
</radialGradient>
</defs>
</svg>
