<svg width="374" height="367" viewBox="0 0 374 367" fill="none" xmlns="http://www.w3.org/2000/svg">
<path d="M113.597 110.266C114.307 108.726 115.077 107.176 115.917 105.596C115.917 105.596 114.867 107.316 113.597 110.266Z" fill="url(#paint0_linear_436_2612)"/>
<path d="M316.136 246.816C283.376 313.486 225.616 319.896 258.936 296.746C282.756 280.196 294.656 258.056 299.516 246.716C318.546 223.376 307.796 191.006 307.796 191.006C315.136 242.186 281.496 264.926 266.866 261.376C252.236 257.826 242.416 267.046 242.416 267.046C309.746 207.126 286.076 151.076 286.076 151.076C299.836 215.836 245.376 259.326 245.376 259.326C290.296 197.806 275.976 153.276 275.976 153.276C285.136 215.656 215.376 295.036 215.376 295.036C215.376 295.036 194.036 253.566 228.366 201.226C262.696 148.886 232.996 105.876 232.996 105.876C267.986 185.376 186.386 261.626 163.986 208.896C147.906 171.056 135.006 171.756 128.816 145.006C122.086 115.956 137.676 84.1658 137.676 84.1658C121.986 117.806 119.446 139.936 133.706 163.086C142.766 177.786 157.826 202.326 161.846 211.336C156.016 199.666 143.816 186.796 122.206 163.086C103.186 142.206 109.506 119.746 113.586 110.246C101.756 135.746 107.896 155.446 134.726 181.326C163.176 208.776 180.246 263.126 180.246 263.126C180.246 263.126 187.006 319.916 165.956 285.766C155.756 269.216 141.746 262.086 127.356 256.946C119.056 247.526 109.886 237.056 96.8064 221.426C92.1064 215.816 87.2864 210.256 82.5164 204.886C85.4964 188.866 90.0864 177.806 90.0864 177.806C90.0864 177.806 84.4064 187.266 80.4864 202.606C57.0964 176.486 35.3564 155.356 35.3564 155.356C35.3564 155.356 57.1264 179.036 79.8964 205.056C78.1364 212.596 76.8664 221.396 76.8564 231.096C59.1264 210.476 52.4864 178.386 52.4864 178.386C52.4864 178.386 56.0364 211.016 76.9264 234.616C77.2764 246.026 79.4264 258.546 84.5964 271.636C104.776 322.716 183.976 331.256 185.196 330.946L227.626 325.936C312.256 310.836 320.356 231.586 320.356 231.586C319.126 236.976 317.726 242.046 316.156 246.806L316.136 246.816ZM157.896 292.346C148.346 280.856 141.046 272.496 133.676 264.136C169.206 282.416 177.216 315.576 157.896 292.346ZM121.336 254.926C107.986 250.556 94.7264 247.016 84.2664 238.456C82.8264 237.276 81.4464 236.016 80.1164 234.686C79.7864 224.996 80.6664 215.716 82.0364 207.556C96.9164 224.606 111.926 242.366 121.336 254.936V254.926ZM97.4164 285.796C85.9264 271.256 81.3364 254.326 80.2864 238.226C88.4764 246.356 99.0064 253.036 112.536 256.296C117.056 257.386 121.286 258.756 125.256 260.316C125.946 261.316 126.596 262.256 127.176 263.146C145.006 290.446 189.746 323.846 189.746 323.846C189.746 323.846 131.666 329.086 97.4264 285.786L97.4164 285.796ZM282.916 260.026C288.996 256.836 293.796 253.056 297.596 248.936C273.826 292.676 229.576 311.586 229.576 311.586C229.576 311.586 242.186 281.386 282.916 260.026ZM232.626 321.166C284.486 311.136 306.406 271.166 313.526 254.126C288.266 319.446 232.626 321.166 232.626 321.166Z" fill="url(#paint1_linear_436_2612)"/>
<g style="mix-blend-mode:multiply" opacity="0.44">
<path d="M113.597 110.266C114.307 108.726 115.077 107.176 115.917 105.596C115.917 105.596 114.867 107.316 113.597 110.266Z" fill="url(#paint2_linear_436_2612)"/>
<path d="M316.136 246.816C283.376 313.486 225.616 319.896 258.936 296.746C282.756 280.196 294.656 258.056 299.516 246.716C318.546 223.376 307.796 191.006 307.796 191.006C315.136 242.186 281.496 264.926 266.866 261.376C252.236 257.826 242.416 267.046 242.416 267.046C309.746 207.126 286.076 151.076 286.076 151.076C299.836 215.836 245.376 259.326 245.376 259.326C290.296 197.806 275.976 153.276 275.976 153.276C285.136 215.656 215.376 295.036 215.376 295.036C215.376 295.036 194.036 253.566 228.366 201.226C262.696 148.886 232.996 105.876 232.996 105.876C267.986 185.376 186.386 261.626 163.986 208.896C147.906 171.056 135.006 171.756 128.816 145.006C122.086 115.956 137.676 84.1658 137.676 84.1658C121.986 117.806 119.446 139.936 133.706 163.086C142.766 177.786 157.826 202.326 161.846 211.336C156.016 199.666 143.816 186.796 122.206 163.086C103.186 142.206 109.506 119.746 113.586 110.246C101.756 135.746 107.896 155.446 134.726 181.326C163.176 208.776 180.246 263.126 180.246 263.126C180.246 263.126 187.006 319.916 165.956 285.766C155.756 269.216 141.746 262.086 127.356 256.946C119.056 247.526 109.886 237.056 96.8064 221.426C92.1064 215.816 87.2864 210.256 82.5164 204.886C85.4964 188.866 90.0864 177.806 90.0864 177.806C90.0864 177.806 84.4064 187.266 80.4864 202.606C57.0964 176.486 35.3564 155.356 35.3564 155.356C35.3564 155.356 57.1264 179.036 79.8964 205.056C78.1364 212.596 76.8664 221.396 76.8564 231.096C59.1264 210.476 52.4864 178.386 52.4864 178.386C52.4864 178.386 56.0364 211.016 76.9264 234.616C77.2764 246.026 79.4264 258.546 84.5964 271.636C104.776 322.716 183.976 331.256 185.196 330.946L227.626 325.936C312.256 310.836 320.356 231.586 320.356 231.586C319.126 236.976 317.726 242.046 316.156 246.806L316.136 246.816ZM157.896 292.346C148.346 280.856 141.046 272.496 133.676 264.136C169.206 282.416 177.216 315.576 157.896 292.346ZM121.336 254.926C107.986 250.556 94.7264 247.016 84.2664 238.456C82.8264 237.276 81.4464 236.016 80.1164 234.686C79.7864 224.996 80.6664 215.716 82.0364 207.556C96.9164 224.606 111.926 242.366 121.336 254.936V254.926ZM97.4164 285.796C85.9264 271.256 81.3364 254.326 80.2864 238.226C88.4764 246.356 99.0064 253.036 112.536 256.296C117.056 257.386 121.286 258.756 125.256 260.316C125.946 261.316 126.596 262.256 127.176 263.146C145.006 290.446 189.746 323.846 189.746 323.846C189.746 323.846 131.666 329.086 97.4264 285.786L97.4164 285.796ZM282.916 260.026C288.996 256.836 293.796 253.056 297.596 248.936C273.826 292.676 229.576 311.586 229.576 311.586C229.576 311.586 242.186 281.386 282.916 260.026ZM232.626 321.166C284.486 311.136 306.406 271.166 313.526 254.126C288.266 319.446 232.626 321.166 232.626 321.166Z" fill="url(#paint3_linear_436_2612)"/>
</g>
<path d="M203.227 312.806C203.227 312.806 154.607 248.596 153.997 185.906C153.387 123.216 205.367 115.886 222.187 157.466C239.007 199.056 203.227 312.806 203.227 312.806Z" fill="url(#paint4_linear_436_2612)"/>
<path style="mix-blend-mode:screen" d="M203.756 294.056C202.896 297.036 198.956 297.646 197.216 295.076C186.356 279.016 159.046 234.336 158.616 190.506C158.086 135.776 203.466 129.376 218.146 165.676C230.436 196.056 210.566 270.546 203.756 294.056Z" fill="url(#paint5_linear_436_2612)"/>
<path style="mix-blend-mode:multiply" opacity="0.56" d="M203.226 312.806C203.226 312.806 239.006 199.056 222.186 157.466C221.456 155.666 220.646 153.996 219.796 152.376C237.366 188.216 200.346 259.566 190.336 256.686C180.286 253.796 149.986 194.526 157.576 159.516C155.236 166.846 153.896 175.616 153.996 185.896C154.606 248.586 203.226 312.796 203.226 312.796V312.806Z" fill="url(#paint6_linear_436_2612)"/>
<path d="M208.416 305.576C208.416 305.576 199.366 237.996 228.206 199.166C257.036 160.336 283.646 145.046 261.316 203.756C238.996 262.466 208.416 305.586 208.416 305.586V305.576Z" fill="url(#paint7_linear_436_2612)"/>
<path d="M211.167 312.606C211.167 312.606 259.176 237.386 285.776 237.076C312.376 236.766 254.897 307.716 211.167 312.606Z" fill="url(#paint8_linear_436_2612)"/>
<path d="M213.006 322.696C213.006 322.696 260.406 283.246 275.076 291.816C289.756 300.376 255.196 330.036 213.006 322.696Z" fill="url(#paint9_linear_436_2612)"/>
<path d="M200.466 317.496C200.466 317.496 162.546 167.966 122.496 178.976C82.4363 189.986 165.916 295.476 200.466 317.496Z" fill="url(#paint10_linear_436_2612)"/>
<path d="M191.856 321.166C191.856 321.166 152.156 263.066 113.926 257.866C75.7062 252.666 126.976 304.646 191.856 321.166Z" fill="url(#paint11_linear_436_2612)"/>
<path style="mix-blend-mode:screen" d="M219.146 285.266C217.236 288.266 212.596 287.046 212.416 283.496C211.506 265.546 212.176 228.836 229.856 205.026C253.996 172.516 276.266 159.716 257.576 208.866C244.406 243.506 227.806 271.656 219.146 285.266Z" fill="url(#paint12_linear_436_2612)"/>
<path style="mix-blend-mode:screen" d="M228.327 303.226C224.967 304.356 222.077 300.626 224.087 297.706C235.347 281.346 262.557 244.506 279.287 244.306C298.937 244.076 261.847 291.926 228.327 303.226Z" fill="url(#paint13_linear_436_2612)"/>
<path style="mix-blend-mode:screen" d="M227.866 320.996C224.416 320.896 223.006 316.496 225.756 314.416C237.686 305.396 261.156 289.236 270.076 294.436C281.156 300.896 258.426 321.856 227.866 320.996Z" fill="url(#paint14_linear_436_2612)"/>
<path style="mix-blend-mode:screen" d="M183.717 298.286C186.467 300.626 190.587 297.966 189.597 294.496C181.217 265.126 155.497 184.106 128.607 191.496C98.8366 199.676 152.437 271.626 183.727 298.296L183.717 298.286Z" fill="url(#paint15_linear_436_2612)"/>
<path style="mix-blend-mode:screen" d="M172.096 311.676C175.546 312.836 178.366 308.756 176.096 305.906C165.156 292.176 142.456 267.136 120.376 264.136C91.8961 260.266 125.446 296.016 172.086 311.676H172.096Z" fill="url(#paint16_linear_436_2612)"/>
<g style="mix-blend-mode:multiply" opacity="0.22">
<path d="M144.807 195.206C148.287 196.366 146.537 208.736 141.407 205.966C136.277 203.196 141.327 194.046 144.807 195.206Z" fill="#780078"/>
</g>
<g style="mix-blend-mode:multiply" opacity="0.22">
<path d="M168.666 195.596C171.336 194.296 171.376 192.056 168.666 192.066C165.956 192.076 167.056 196.376 168.666 195.596Z" fill="#780078"/>
</g>
<g style="mix-blend-mode:multiply" opacity="0.22">
<path d="M235.086 199.406C234.236 196.436 242.986 195.766 243.286 198.626C243.586 201.486 235.936 202.376 235.086 199.406Z" fill="#780078"/>
</g>
<g style="mix-blend-mode:multiply" opacity="0.22">
<path d="M244.306 196.796C246.496 196.596 246.546 194.806 245.066 194.666C243.586 194.516 242.966 196.926 244.306 196.796Z" fill="#780078"/>
</g>
<g style="mix-blend-mode:multiply" opacity="0.22">
<path d="M276.726 259.796C274.596 258.836 277.256 254.986 279.926 256.766C282.596 258.546 278.856 260.756 276.726 259.796Z" fill="#780078"/>
</g>
<g style="mix-blend-mode:multiply" opacity="0.22">
<path d="M235.926 244.596C238.896 243.816 239.096 238.336 235.286 239.516C231.476 240.706 232.956 245.366 235.926 244.596Z" fill="#780078"/>
</g>
<g style="mix-blend-mode:multiply" opacity="0.22">
<path d="M235.377 320.076C238.347 319.296 238.547 313.816 234.737 314.996C230.927 316.176 232.407 320.846 235.377 320.076Z" fill="#780078"/>
</g>
<g style="mix-blend-mode:multiply" opacity="0.22">
<path d="M226.437 251.226C225.107 249.146 226.937 248.246 228.097 249.886C229.257 251.526 226.437 251.226 226.437 251.226Z" fill="#780078"/>
</g>
<g style="mix-blend-mode:multiply" opacity="0.22">
<path d="M190.286 232.986C186.136 232.246 188.656 226.606 192.956 227.496C197.256 228.386 194.436 233.726 190.286 232.986Z" fill="#780078"/>
</g>
<g style="mix-blend-mode:multiply" opacity="0.22">
<path d="M194.436 221.646C195.626 220.686 196.806 223.566 195.096 224.426C193.386 225.286 193.246 222.616 194.436 221.646Z" fill="#780078"/>
</g>
<g style="mix-blend-mode:multiply" opacity="0.22">
<path d="M202.147 231.756C204.077 230.026 201.837 227.806 200.217 228.546C198.597 229.286 200.217 233.486 202.147 231.756Z" fill="#780078"/>
</g>
<g style="mix-blend-mode:multiply" opacity="0.22">
<path d="M195.226 149.616C191.076 148.876 193.596 143.236 197.896 144.126C202.196 145.016 199.376 150.356 195.226 149.616Z" fill="#780078"/>
</g>
<g style="mix-blend-mode:multiply" opacity="0.22">
<path d="M199.377 138.276C200.567 137.316 201.747 140.196 200.037 141.056C198.337 141.906 198.187 139.246 199.377 138.276Z" fill="#780078"/>
</g>
<g style="mix-blend-mode:multiply" opacity="0.22">
<path d="M207.087 148.386C209.017 146.656 206.777 144.436 205.157 145.176C203.537 145.916 205.157 150.116 207.087 148.386Z" fill="#780078"/>
</g>
<g style="mix-blend-mode:multiply" opacity="0.22">
<path d="M136.286 279.346C133.166 276.546 138.506 271.786 142.066 273.566C145.626 275.346 139.096 281.866 136.286 279.346Z" fill="#780078"/>
</g>
<g style="mix-blend-mode:multiply" opacity="0.22">
<path d="M133.456 187.196C130.616 185.846 132.066 182.256 134.466 183.776C136.866 185.296 134.726 187.806 133.456 187.196Z" fill="#780078"/>
</g>
<g style="mix-blend-mode:multiply" opacity="0.22">
<path d="M174.867 276.636C177.757 272.736 183.307 280.756 179.157 283.056C175.007 285.356 172.647 279.616 174.867 276.636Z" fill="#780078"/>
</g>
<g style="mix-blend-mode:multiply" opacity="0.22">
<path d="M177.636 267.406C180.056 266.096 181.386 268.836 179.016 269.986C176.646 271.136 175.216 268.716 177.636 267.406Z" fill="#780078"/>
</g>
<g style="mix-blend-mode:multiply" opacity="0.22">
<path d="M229.766 212.376C230.956 212.876 233.376 217.086 227.176 214.726C220.976 212.376 223.436 209.706 229.766 212.376Z" fill="#780078"/>
</g>
<g style="mix-blend-mode:multiply" opacity="0.22">
<path d="M161.546 247.826C160.696 244.856 169.446 244.186 169.746 247.046C170.046 249.906 162.396 250.796 161.546 247.826Z" fill="#780078"/>
</g>
<g style="mix-blend-mode:multiply" opacity="0.22">
<path d="M170.777 245.216C172.967 245.016 173.017 243.226 171.537 243.086C170.057 242.936 169.437 245.346 170.777 245.216Z" fill="#780078"/>
</g>
<g style="mix-blend-mode:multiply" opacity="0.22">
<path d="M232.687 292.736C231.837 289.766 240.587 289.096 240.887 291.956C241.187 294.816 233.537 295.706 232.687 292.736Z" fill="#780078"/>
</g>
<g style="mix-blend-mode:multiply" opacity="0.22">
<path d="M241.906 290.126C244.096 289.926 244.146 288.136 242.666 287.996C241.186 287.846 240.566 290.256 241.906 290.126Z" fill="#780078"/>
</g>
<g style="mix-blend-mode:multiply" opacity="0.22">
<path d="M159.177 297.866C160.367 298.366 162.787 302.576 156.587 300.216C150.387 297.866 152.847 295.196 159.177 297.866Z" fill="#780078"/>
</g>
<path style="mix-blend-mode:multiply" opacity="0.56" d="M286.316 237.096C292.796 237.076 298.606 246.666 276.766 265.976C251.696 288.146 226.056 288.456 250.276 261.936C250.986 261.156 251.606 260.286 252.156 259.336C230.956 281.616 211.176 312.596 211.176 312.596C254.596 307.736 311.566 237.766 286.316 237.086V237.096Z" fill="url(#paint17_linear_436_2612)"/>
<path style="mix-blend-mode:multiply" opacity="0.56" d="M264.526 305.576C252.296 313.676 224.396 316.776 239.866 303.906C241.266 302.746 242.726 301.616 244.236 300.526C228.326 309.956 213.006 322.696 213.006 322.696C255.206 330.036 289.756 300.376 275.076 291.816C273.986 291.176 272.696 290.836 271.276 290.696C276.996 291.466 276.146 297.876 264.526 305.576Z" fill="url(#paint18_linear_436_2612)"/>
<path style="mix-blend-mode:multiply" opacity="0.56" d="M191.856 321.166C191.856 321.166 166.996 284.816 137.686 267.056C181.776 294.236 127.506 297.856 103.986 270.276C114.566 285.626 150.436 310.626 191.856 321.166Z" fill="url(#paint19_linear_436_2612)"/>
<path style="mix-blend-mode:multiply" opacity="0.56" d="M208.416 305.576C208.416 305.576 238.996 262.456 261.316 203.746C266.336 190.556 268.866 181.106 269.476 174.816C267.776 184.666 262.416 198.826 248.476 217.806C221.546 254.466 209.506 246.256 214.506 226.926C202.826 263.696 208.426 305.556 208.426 305.556L208.416 305.576Z" fill="url(#paint20_linear_436_2612)"/>
<path style="mix-blend-mode:multiply" opacity="0.56" d="M200.466 317.496C200.466 317.496 184.616 255.026 162.596 213.816C201.216 291.976 127.386 244.196 114.866 208.806C127.416 244.946 176.106 301.976 200.466 317.496Z" fill="url(#paint21_linear_436_2612)"/>
<path d="M122.216 225.276C122.216 225.276 161.016 280.436 194.346 307.226C194.346 307.226 192.926 279.246 164.126 216.736C164.126 216.736 190.066 270.236 199.846 307.226C199.846 307.226 198.926 284.166 182.416 249.926C182.416 249.926 194.346 266.436 205.966 312.616C205.966 312.616 197.706 281.116 203.826 223.636C203.826 223.636 200.156 264.926 205.966 290.606C205.966 290.606 202.016 259.806 216.066 222.306C216.066 222.306 204.126 250.546 211.166 294.886C211.166 294.886 238.806 259.406 257.396 213.696C257.396 213.696 244.186 257.576 212.996 305.586C212.996 305.586 233.056 277.336 253.906 257.516C253.906 257.516 233.556 281.576 224.846 298.316C216.136 315.056 249.686 294.496 261.576 285.976C261.576 285.976 249.546 296.826 238.346 303.826C238.346 303.826 247.526 298.556 250.106 297.236C250.106 297.236 229.246 310.006 224.396 316.786C219.546 323.566 245.126 323.626 259.816 316.306C259.816 316.306 246.416 324.466 227.606 325.956C227.606 325.956 252.606 328.666 273.706 324.386C273.706 324.386 256.126 329.966 237.626 328.206C237.626 328.206 249.526 330.806 260.406 327.826C260.406 327.826 253.986 330.656 242.746 329.966C242.746 329.966 253.826 330.726 259.486 335.166C259.486 335.166 246.036 329.586 221.646 332.266C221.646 332.266 227.076 332.116 231.206 336.086C231.206 336.086 226.236 332.796 219.816 333.486C213.396 334.176 185.726 343.886 178.456 351.446C178.456 351.446 187.396 339.516 199.246 336.076C199.246 336.076 188.926 338.526 170.506 336.456C170.506 336.456 179.606 337.216 190.536 335.466C190.536 335.466 153.996 327.366 123.876 330.116C123.876 330.116 159.576 324.616 184.116 328.506C184.116 328.506 156.366 324.306 134.116 304.736C134.116 304.736 160.516 325.766 183.046 322.476C183.046 322.476 166.536 322.626 153.076 312.236C153.076 312.236 165.006 320.266 178.606 319.036C178.606 319.036 147.786 309.956 124.126 289.346C124.126 289.346 155.816 310.476 173.246 312.616C190.676 314.756 147.816 274.006 147.816 274.006C147.816 274.006 164.076 286.166 175.996 298.246C175.996 298.246 132.416 253.706 122.216 225.286V225.276Z" fill="url(#paint22_linear_436_2612)"/>
<g style="mix-blend-mode:screen">
<path d="M223.086 191.126C225.396 177.096 225.046 163.306 219.896 152.626C204.316 122.736 168.816 124.036 157.526 159.756C152.996 181.146 162.476 211.446 172.836 232.486C157.346 197.446 190.546 157.396 207.496 157.396C224.446 157.396 224.346 182.576 223.076 191.126H223.086Z" fill="url(#paint23_linear_436_2612)"/>
<path d="M260.167 199.626C265.707 189.446 268.377 181.216 269.487 174.816C271.577 153.106 250.566 169.046 228.216 199.156C227.706 199.846 227.236 200.556 226.746 201.266C222.336 207.656 218.867 214.726 216.167 222.116C218.497 216.486 222.046 211.156 226.146 206.406C243.286 186.546 270.246 176.966 260.176 199.626H260.167Z" fill="url(#paint24_linear_436_2612)"/>
<path d="M250.226 261.386C250.856 260.706 251.496 260.036 252.126 259.366C251.496 260.016 250.856 260.696 250.226 261.386Z" fill="url(#paint25_linear_436_2612)"/>
<path d="M287.186 237.156C286.906 237.126 286.616 237.096 286.316 237.096C286.136 237.096 285.966 237.076 285.786 237.076C276.256 237.186 263.976 246.926 252.136 259.366C251.586 260.306 250.976 261.166 250.276 261.936C242.576 270.366 239.926 276.076 240.686 279.246C241.476 265.166 303.106 235.886 281.446 261.556C296.856 246.016 292.756 237.906 287.186 237.156Z" fill="url(#paint26_linear_436_2612)"/>
<path d="M271.326 290.706C264.506 289.996 254.256 294.586 244.236 300.536C242.726 301.626 241.266 302.756 239.866 303.916C237.696 305.716 236.406 307.196 235.786 308.396C244.466 296.966 278.726 294.526 266.226 304.396C276.176 297.256 276.706 291.456 271.326 290.706Z" fill="url(#paint27_linear_436_2612)"/>
<path d="M271.276 290.696C271.756 290.756 272.176 290.816 272.586 290.906C272.166 290.816 271.726 290.746 271.276 290.696Z" fill="url(#paint28_linear_436_2612)"/>
<path d="M122.496 178.976C110.686 182.226 109.616 193.686 114.866 208.806C119.796 222.746 134.246 238.606 147.586 247.936C125.066 229.216 126.686 188.446 137.246 189.836C147.546 191.196 157.136 204.406 157.616 205.076C146.786 187.276 134.736 175.616 122.486 178.986L122.496 178.976Z" fill="url(#paint29_linear_436_2612)"/>
<path d="M113.926 257.876C100.076 255.996 98.0063 261.626 104.056 270.356C110.136 277.446 118.236 282.466 126.166 285.536C98.4663 271.366 128.476 261.906 145.136 272.106C143.476 270.846 141.566 269.526 139.406 268.136C131.146 262.896 122.506 259.026 113.926 257.866V257.876Z" fill="url(#paint30_linear_436_2612)"/>
<path d="M104.976 271.646C104.646 271.206 104.346 270.786 104.056 270.356C104.036 270.326 104.006 270.306 103.986 270.276C104.296 270.726 104.626 271.176 104.976 271.646Z" fill="url(#paint31_linear_436_2612)"/>
<path d="M137.686 267.056C138.286 267.426 138.846 267.786 139.416 268.146C139.726 268.346 140.046 268.526 140.356 268.736C139.476 268.166 138.586 267.606 137.686 267.056Z" fill="url(#paint32_linear_436_2612)"/>
</g>
<path style="mix-blend-mode:screen" d="M168.636 141.566C183.746 122.346 236.316 144.926 205.556 195.686C174.796 246.446 142.916 174.286 168.636 141.566Z" fill="url(#paint33_linear_436_2612)"/>
<path style="mix-blend-mode:screen" d="M117.526 182.956C127.636 167.916 163.706 200.156 158.736 228.596C153.766 257.036 99.1764 210.246 117.526 182.956Z" fill="url(#paint34_linear_436_2612)"/>
<path style="mix-blend-mode:screen" d="M103.076 260.366C114.866 251.756 147.926 270.966 130.136 279.246C118.426 284.706 95.8463 265.636 103.076 260.366Z" fill="url(#paint35_linear_436_2612)"/>
<path style="mix-blend-mode:screen" d="M228.316 219.766C216.406 211.806 253.116 165.086 265.266 165.316C277.416 165.546 248.696 233.386 228.316 219.766Z" fill="url(#paint36_linear_436_2612)"/>
<path style="mix-blend-mode:screen" d="M283.106 238.456C295.916 238.046 290.876 256.666 274.716 263.156C258.566 269.646 268.656 238.916 283.106 238.456Z" fill="url(#paint37_linear_436_2612)"/>
<path style="mix-blend-mode:screen" d="M247.146 305.576C240.576 305.566 253.566 293.386 266.756 291.446C279.946 289.506 271.356 305.616 247.146 305.576Z" fill="url(#paint38_linear_436_2612)"/>
<path d="M171.526 150.156C172.646 145.236 181.786 143.926 186.216 148.816C190.646 153.706 168.286 164.376 171.526 150.156Z" fill="white"/>
<path d="M168.786 154.856C170.176 153.946 174.886 163.586 170.986 165.396C167.086 167.206 166.346 156.456 168.786 154.856Z" fill="white"/>
<path d="M135.536 230.346C135.706 228.696 146.156 231.106 145.106 235.276C144.056 239.446 135.236 233.246 135.536 230.346Z" fill="white"/>
<path d="M168.356 166.326C170.836 167.096 168.606 170.406 167.526 169.706C166.446 169.006 166.906 165.876 168.356 166.326Z" fill="white"/>
<path d="M248.386 177.866C250.886 178.576 248.736 181.936 247.646 181.266C246.546 180.586 246.936 177.456 248.386 177.866Z" fill="white"/>
<path d="M253.836 200.786C256.386 200.276 256.006 204.246 254.726 204.146C253.446 204.046 252.356 201.086 253.836 200.786Z" fill="white"/>
<path d="M123.706 273.186C126.256 272.676 125.876 276.646 124.596 276.546C123.316 276.446 122.226 273.486 123.706 273.186Z" fill="white"/>
<path d="M269.036 293.406C271.266 292.896 270.936 296.836 269.816 296.746C268.696 296.646 267.746 293.706 269.036 293.406Z" fill="white"/>
<path d="M201.036 199.586C199.666 197.456 204.676 188.356 208.926 193.816C213.176 199.276 202.406 201.716 201.036 199.586Z" fill="white"/>
<path d="M252.286 179.686C251.576 178.036 256.176 168.726 258.506 172.806C260.836 176.886 252.996 181.336 252.286 179.686Z" fill="white"/>
<path d="M275.986 245.296C276.166 243.506 284.696 237.586 284.756 242.286C284.816 246.986 275.806 247.086 275.986 245.296Z" fill="white"/>
<path d="M196.136 205.416C195.066 203.736 199.136 201.476 201.396 202.246C203.656 203.026 198.246 208.716 196.136 205.416Z" fill="white"/>
<path d="M118.096 190.496C115.836 188.176 119.886 178.616 126.606 184.576C133.326 190.536 120.356 192.816 118.096 190.496Z" fill="white"/>
<path d="M116.186 197.046C114.866 195.426 118.846 192.846 121.296 193.466C123.746 194.086 118.786 200.236 116.186 197.046Z" fill="white"/>
<path d="M262.066 298.156C259.976 297.266 262.776 293.346 265.536 292.886C268.296 292.426 266.176 299.916 262.066 298.156Z" fill="white"/>
<path d="M248.136 305.656C247.756 304.876 252.046 304.406 252.286 305.626C252.516 306.846 248.526 306.436 248.136 305.656Z" fill="white"/>
<path d="M117.186 262.236C118.226 264.686 107.166 267.626 106.486 263.676C105.806 259.726 116.136 259.786 117.186 262.236Z" fill="white"/>
<path d="M90.0762 141.226C105.706 135.396 97.3762 165.946 86.8062 187.296C86.8062 187.296 87.7762 181.066 85.2262 188.056C85.2262 188.056 87.9262 182.796 85.7562 164.356C83.5762 145.916 86.3662 142.606 90.0762 141.226Z" fill="url(#paint39_linear_436_2612)"/>
<path d="M46.8862 149.856C56.8862 148.056 58.2362 159.556 56.6362 169.886C55.0262 180.206 54.9262 187.886 55.7562 190.436C55.7562 190.436 55.1362 188.776 55.4262 192.806C55.4262 192.806 50.7862 182.716 46.4262 171.086C42.0662 159.456 39.6562 151.166 46.8862 149.866V149.856Z" fill="url(#paint40_linear_436_2612)"/>
<path d="M40.5964 160.576C40.5964 160.576 39.8764 160.336 41.2664 161.866C41.2664 161.866 35.5864 157.446 25.3764 151.936C15.1664 146.436 17.7464 134.216 26.0064 135.826C34.2664 137.436 37.1364 156.806 40.5864 160.576H40.5964Z" fill="url(#paint41_linear_436_2612)"/>
<path d="M109.476 126.086C111.056 117.576 137.826 91.906 126.356 79.296C114.886 66.686 103.996 88.816 105.256 103.606C106.516 118.396 107.856 132.846 107.856 132.846C108.696 123.786 109.476 126.086 109.476 126.086Z" fill="url(#paint42_linear_436_2612)"/>
<path d="M129.986 106.696C129.986 106.696 130.136 98.2459 146.806 86.3259C163.476 74.3959 167.906 58.9559 150.786 59.8759C133.666 60.7959 128.486 107.336 128.486 107.336C128.486 107.336 130.686 101.306 129.996 106.696H129.986Z" fill="url(#paint43_linear_436_2612)"/>
<path d="M237.597 118.436C237.597 118.436 236.527 113.916 239.557 119.306C239.557 119.306 237.617 112.996 235.477 100.766C233.337 88.5358 219.347 64.3758 209.487 71.0258C199.627 77.6758 232.457 100.466 237.597 118.426V118.436Z" fill="url(#paint44_linear_436_2612)"/>
<path d="M271.866 138.086C277.786 137.836 277.576 161.716 277.576 161.716C277.576 161.716 276.846 160.826 276.806 164.326C276.806 164.326 276.276 160.026 269.966 150.676C263.656 141.326 267.276 138.276 271.856 138.086H271.866Z" fill="url(#paint45_linear_436_2612)"/>
<path d="M288.006 164.326C288.006 164.326 287.726 158.336 288.906 161.786C288.906 161.786 288.226 153.196 288.436 142.306C288.646 131.416 288.716 117.246 279.536 114.036C270.366 110.826 273.576 126.006 279.076 138.086C284.576 150.156 287.996 164.326 287.996 164.326H288.006Z" fill="url(#paint46_linear_436_2612)"/>
<path d="M310.186 202.436C310.186 202.436 308.996 199.946 308.826 205.196C308.826 205.196 308.016 194.076 299.036 183.636C290.066 173.196 301.786 168.046 306.716 172.976C311.646 177.906 307.906 192.566 310.176 202.436H310.186Z" fill="url(#paint47_linear_436_2612)"/>
<path d="M315.206 252.406C315.206 252.406 318.886 244.236 324.156 240.196C329.426 236.156 333.096 215.976 324.496 217.586C315.896 219.196 316.776 243.596 313.526 252.406C313.526 252.406 316.256 249.516 315.196 252.406H315.206Z" fill="url(#paint48_linear_436_2612)"/>
<path style="mix-blend-mode:multiply" opacity="0.56" d="M85.4963 187.356C87.6963 181.556 86.8063 187.296 86.8063 187.296C91.3663 178.076 95.5063 167.156 97.4863 158.176C94.5463 166.766 86.2063 169.016 84.9863 153.286C84.9863 156.196 85.2163 159.816 85.7463 164.366C87.4963 179.146 86.1063 185.446 85.4863 187.366L85.4963 187.356Z" fill="url(#paint49_linear_436_2612)"/>
<path style="mix-blend-mode:multiply" opacity="0.56" d="M43.4365 162.276C44.1765 164.906 45.2265 167.856 46.4365 171.076C50.7965 182.706 55.4365 192.796 55.4365 192.796C55.1465 188.766 55.7665 190.426 55.7665 190.426C54.9365 187.876 55.0365 180.196 56.6465 169.876C57.1665 166.526 57.3665 163.056 57.0665 159.946C57.2265 175.466 47.2765 175.046 43.4365 162.266V162.276Z" fill="url(#paint50_linear_436_2612)"/>
<path style="mix-blend-mode:multiply" opacity="0.56" d="M23.1562 150.446C23.8263 150.976 24.5462 151.486 25.3862 151.936C35.5962 157.436 41.2762 161.866 41.2762 161.866C39.8862 160.336 40.6063 160.576 40.6063 160.576C38.4263 158.196 36.4762 149.586 33.2463 143.166C36.5863 149.376 28.6863 154.006 23.1562 150.446Z" fill="url(#paint51_linear_436_2612)"/>
<path style="mix-blend-mode:multiply" opacity="0.56" d="M105.256 103.606C106.516 118.396 107.856 132.846 107.856 132.846C108.696 123.786 109.476 126.086 109.476 126.086C110.376 121.236 119.466 110.796 124.986 100.386C117.176 115.246 104.246 101.146 108.896 84.9058C106.216 90.4958 104.746 97.6458 105.256 103.606Z" fill="url(#paint52_linear_436_2612)"/>
<path style="mix-blend-mode:multiply" opacity="0.56" d="M130.037 106.266C130.317 104.416 132.327 96.686 146.807 86.326C150.977 83.346 154.377 80.136 156.867 77.026C147.937 87.936 131.647 84.706 138.377 70.616C131.017 84.616 128.477 107.336 128.477 107.336C128.477 107.336 130.537 101.706 130.027 106.266H130.037Z" fill="url(#paint53_linear_436_2612)"/>
<path style="mix-blend-mode:multiply" opacity="0.56" d="M239.557 119.316C239.557 119.316 237.617 113.006 235.477 100.776C234.527 95.3558 231.256 87.5958 227.036 81.2158C234.086 92.4758 225.497 99.2458 212.667 84.1958C220.327 94.0758 234.376 107.206 237.596 118.446C237.596 118.446 236.527 113.926 239.557 119.316Z" fill="url(#paint54_linear_436_2612)"/>
<path style="mix-blend-mode:multiply" opacity="0.56" d="M276.816 164.326C276.856 160.826 277.586 161.716 277.586 161.716C277.586 161.716 277.676 151.466 276.066 144.466C277.616 151.366 274.286 156.096 267.826 146.956C268.356 148.066 269.046 149.296 269.976 150.676C276.286 160.026 276.816 164.326 276.816 164.326Z" fill="url(#paint55_linear_436_2612)"/>
<path style="mix-blend-mode:multiply" opacity="0.56" d="M288.006 164.326C288.006 164.326 287.726 158.336 288.906 161.786C288.906 161.786 288.226 153.196 288.436 142.306C288.476 140.096 288.516 137.756 288.466 135.396C287.646 141.666 279.936 139.856 275.056 127.116C276.026 130.676 277.446 134.516 279.076 138.086C284.576 150.156 287.996 164.326 287.996 164.326H288.006Z" fill="url(#paint56_linear_436_2612)"/>
<path style="mix-blend-mode:multiply" opacity="0.56" d="M308.826 205.196C308.996 199.946 310.186 202.436 310.186 202.436C308.626 195.666 309.896 186.646 309.256 180.056C309.946 188.816 304.996 190.856 296.616 180.036C297.146 181.156 297.936 182.356 299.036 183.636C308.006 194.076 308.826 205.196 308.826 205.196Z" fill="url(#paint57_linear_436_2612)"/>
<path style="mix-blend-mode:multiply" opacity="0.56" d="M315.206 252.406C315.206 252.406 318.886 244.236 324.156 240.196C325.866 238.886 327.396 235.886 328.406 232.486C325.566 240.446 314.826 240.186 318.266 226.406C316.006 234.756 315.616 246.776 313.526 252.406C313.526 252.406 316.256 249.516 315.196 252.406H315.206Z" fill="url(#paint58_linear_436_2612)"/>
<path style="mix-blend-mode:screen" d="M90.0766 141.226C87.2866 142.266 85.0166 144.406 84.9966 153.276C85.1066 154.706 85.2766 155.976 85.4966 157.116C85.6666 150.026 97.5666 146.476 98.6766 150.066C99.0366 142.866 96.7366 138.736 90.0766 141.226Z" fill="url(#paint59_linear_436_2612)"/>
<path style="mix-blend-mode:screen" d="M46.8865 149.856C41.6665 150.796 41.4865 155.406 43.4265 162.276C44.5465 166.026 46.2065 168.676 47.9665 170.206C42.5265 164.176 53.2065 149.966 56.1365 155.436C54.7665 151.436 51.9265 148.946 46.8765 149.856H46.8865Z" fill="url(#paint60_linear_436_2612)"/>
<path style="mix-blend-mode:screen" d="M28.8665 151.526C21.6565 150.716 22.7665 138.536 27.1665 139.386C31.5665 140.236 33.2465 143.166 33.2465 143.166C34.3565 145.376 35.3165 147.856 36.1865 150.236C33.8665 143.846 30.8665 136.766 26.0165 135.826C18.4365 134.356 15.6765 144.506 23.1565 150.446C24.9665 151.616 27.0265 151.886 28.8665 151.526Z" fill="url(#paint61_linear_436_2612)"/>
<path style="mix-blend-mode:screen" d="M126.357 79.2959C118.967 71.1659 111.817 77.4759 107.997 86.9559C108.277 86.2559 108.577 85.5759 108.887 84.9059C106.517 93.1759 108.707 100.876 112.457 104.496C104.137 94.1759 131.857 77.6959 128.477 90.7559C128.227 91.7059 128.117 92.5059 128.097 93.2059C129.777 87.9459 129.757 83.0359 126.357 79.2959Z" fill="url(#paint62_linear_436_2612)"/>
<path style="mix-blend-mode:screen" d="M150.776 59.8758C145.616 60.1558 141.546 64.5858 138.376 70.6158C136.206 75.1458 136.436 78.5558 138.026 80.7258C134.176 73.1958 165.116 58.8758 160.126 71.6058C160.026 71.8658 159.966 72.1258 159.936 72.3858C163.736 65.0658 161.436 59.2958 150.776 59.8658V59.8758Z" fill="url(#paint63_linear_436_2612)"/>
<path style="mix-blend-mode:screen" d="M221.316 91.6559C208.016 80.9059 216.276 69.1259 223.926 76.9859C219.256 71.3359 213.946 68.0359 209.486 71.0459C205.436 73.7759 208.596 79.2459 214.086 85.9859C213.596 85.3859 213.116 84.7859 212.666 84.2059C215.876 87.9659 218.816 90.3659 221.306 91.6759L221.316 91.6559Z" fill="url(#paint64_linear_436_2612)"/>
<path style="mix-blend-mode:screen" d="M271.866 138.086C267.636 138.266 264.256 140.886 268.696 148.616C268.366 148.036 268.076 147.486 267.826 146.956C270.296 150.446 272.296 151.906 273.756 151.996C269.236 150.466 270.816 133.966 275.176 141.456C274.376 139.376 273.296 138.016 271.866 138.076V138.086Z" fill="url(#paint65_linear_436_2612)"/>
<path style="mix-blend-mode:screen" d="M279.546 114.036C273.086 111.776 272.776 118.646 275.076 127.116C277.086 132.356 279.566 135.716 281.856 137.456C274.196 130.916 283.116 113.946 286.586 121.926C285.276 118.196 283.116 115.286 279.546 114.036Z" fill="url(#paint66_linear_436_2612)"/>
<path style="mix-blend-mode:screen" d="M296.626 180.036C298.406 182.346 300.026 184.026 301.476 185.226C296.536 180.766 303.236 170.016 307.166 173.526C307.016 173.336 306.886 173.136 306.726 172.976C302.406 168.656 292.856 172.086 296.626 180.036Z" fill="url(#paint67_linear_436_2612)"/>
<path style="mix-blend-mode:screen" d="M324.496 217.586C321.396 218.166 319.536 221.706 318.266 226.406C316.816 232.226 317.896 235.606 319.836 237.006C315.076 233.016 328.896 214.336 329.616 223.996C329.486 219.936 328.016 216.926 324.496 217.586Z" fill="url(#paint68_linear_436_2612)"/>
<g style="mix-blend-mode:multiply" opacity="0.44">
<path d="M200.467 321.166C176.307 305.266 195.267 310.926 195.267 310.926C195.267 310.926 156.597 279.096 138.437 253.696C154.737 276.496 176.007 298.236 176.007 298.236C164.077 286.156 147.827 273.996 147.827 273.996C167.497 289.816 189.747 317.506 189.747 317.506C189.747 317.506 163.267 314.956 141.517 301.996C160.577 313.716 178.617 319.036 178.617 319.036C193.487 320.906 200.477 324.056 200.477 324.056C182.127 313.636 200.477 321.176 200.477 321.176L200.467 321.166Z" fill="#510057"/>
</g>
<g style="mix-blend-mode:multiply" opacity="0.44">
<path d="M201.217 321.166C208.777 325.906 202.147 325.146 202.147 325.146C207.167 327.146 202.457 327.906 198.437 328.186C210.157 327.896 204.507 329.996 200.607 331.146C209.677 328.736 213.637 328.486 215.277 328.606C205.557 326.636 214.837 326.086 214.837 326.086C207.337 326.126 211.167 323.156 211.167 323.156C205.817 325.146 210.407 317.496 210.407 317.496C219.277 310.766 213.007 322.696 213.007 322.696C231.657 323.356 216.987 325.596 216.987 325.596C220.367 326.086 224.167 326.166 228.067 325.986C227.787 325.956 227.617 325.936 227.617 325.936C235.637 325.296 242.657 323.446 248.097 321.536C221.917 326.646 216.537 321.156 216.537 321.156C218.967 317.586 233.427 306.526 246.667 299.096C243.047 301.116 238.367 303.806 238.367 303.806C243.797 300.416 249.407 296.126 253.767 292.596C243.137 300.896 216.847 313.976 216.847 313.976C218.157 308.206 221.407 294.856 232.917 280.126C221.387 293.796 213.027 305.566 213.027 305.566C227.177 283.786 237.617 262.866 244.817 246.486C244.217 247.766 236.707 263.536 224.337 281.126C211.427 299.476 211.197 308.376 211.197 308.376C211.197 308.376 208.907 300.816 211.197 294.856C209.217 282.376 208.737 271.176 209.077 261.526C209.007 262.136 208.937 262.876 208.877 263.836C207.777 281.276 210.587 314.826 210.587 314.826L205.997 290.586L209.817 316.116C209.817 316.116 203.497 297.936 201.827 276.576C202.727 300.126 205.997 312.596 205.997 312.596C201.297 293.926 196.547 280.106 192.557 270.266C192.577 270.316 197.367 283.196 201.237 300.906C205.117 318.656 203.237 326.346 199.877 307.206C195.477 290.556 187.797 270.566 180.687 253.606C187.627 272.276 197.277 310.906 197.277 310.906C204.157 317.916 201.237 321.146 201.237 321.146L201.217 321.166Z" fill="#510057"/>
</g>
<g style="mix-blend-mode:multiply" opacity="0.44">
<path d="M221.646 332.256C240.776 330.156 253.136 333.126 257.596 334.516C236.306 327.176 221.646 332.256 221.646 332.256Z" fill="#510057"/>
</g>
<g style="mix-blend-mode:multiply" opacity="0.44">
<path d="M215.756 332.486C211.456 333.526 188.386 342.316 179.256 350.666C187.556 343.226 213.596 334.136 219.806 333.476C225.426 332.876 229.926 335.316 230.966 335.936C227.366 333.476 220.096 331.436 215.756 332.486Z" fill="#510057"/>
</g>
<g style="mix-blend-mode:multiply" opacity="0.44">
<path d="M153.236 312.336C166.656 322.606 183.036 322.466 183.036 322.466C185.056 322.236 186.236 321.166 186.236 321.166C168.026 322.316 154.826 313.456 153.236 312.336Z" fill="#510057"/>
</g>
<g style="mix-blend-mode:multiply" opacity="0.44">
<path d="M218.207 330.656C218.207 330.656 235.027 328.506 242.747 329.956C253.987 330.646 260.407 327.816 260.407 327.816C249.527 330.796 237.627 328.196 237.627 328.196C250.197 329.386 262.327 327.196 268.827 325.666C261.597 327.056 252.897 326.726 239.917 327.576C223.897 328.636 218.207 330.646 218.207 330.646V330.656Z" fill="#510057"/>
</g>
<g style="mix-blend-mode:multiply" opacity="0.44">
<path d="M191.856 328.356C160.006 326.826 134.106 304.736 134.106 304.736C153.666 321.946 177.476 327.266 182.936 328.306C183.406 328.376 183.806 328.446 184.096 328.516C189.576 329.676 191.846 328.366 191.846 328.366L191.856 328.356Z" fill="#510057"/>
</g>
<g style="mix-blend-mode:multiply" opacity="0.44">
<path d="M123.866 330.116C153.986 327.366 190.526 335.466 190.526 335.466L197.096 333.706C168.816 325.906 123.866 330.116 123.866 330.116Z" fill="#510057"/>
</g>
<path d="M233.186 217.366C232.856 217.676 232.336 217.646 232.026 217.316C231.716 216.986 231.746 216.466 232.076 216.156C232.406 215.846 232.926 215.876 233.236 216.206C233.546 216.536 233.516 217.056 233.186 217.366Z" fill="white"/>
<path d="M219.686 171.566C219.686 172.016 219.316 172.386 218.866 172.386C218.416 172.386 218.046 172.016 218.046 171.566C218.046 171.116 218.416 170.746 218.866 170.746C219.316 170.746 219.686 171.116 219.686 171.566Z" fill="white"/>
<path d="M165.626 207.186C166.079 207.186 166.446 206.819 166.446 206.366C166.446 205.913 166.079 205.546 165.626 205.546C165.173 205.546 164.806 205.913 164.806 206.366C164.806 206.819 165.173 207.186 165.626 207.186Z" fill="white"/>
<path style="mix-blend-mode:screen" opacity="0.68" d="M165.626 222.606C174.595 222.606 181.866 215.335 181.866 206.366C181.866 197.397 174.595 190.126 165.626 190.126C156.657 190.126 149.386 197.397 149.386 206.366C149.386 215.335 156.657 222.606 165.626 222.606Z" fill="url(#paint69_radial_436_2612)"/>
<path d="M223.816 154.776C224.269 154.776 224.636 154.409 224.636 153.956C224.636 153.503 224.269 153.136 223.816 153.136C223.363 153.136 222.996 153.503 222.996 153.956C222.996 154.409 223.363 154.776 223.816 154.776Z" fill="white"/>
<path d="M179.016 157.626C179.016 158.076 178.646 158.446 178.196 158.446C177.746 158.446 177.376 158.076 177.376 157.626C177.376 157.176 177.746 156.806 178.196 156.806C178.646 156.806 179.016 157.176 179.016 157.626Z" fill="white"/>
<path d="M250.286 162.076C250.286 162.526 249.916 162.896 249.466 162.896C249.016 162.896 248.646 162.526 248.646 162.076C248.646 161.626 249.016 161.256 249.466 161.256C249.916 161.256 250.286 161.626 250.286 162.076Z" fill="white"/>
<path d="M139.886 297.756C139.886 298.206 139.516 298.576 139.066 298.576C138.616 298.576 138.246 298.206 138.246 297.756C138.246 297.306 138.616 296.936 139.066 296.936C139.516 296.936 139.886 297.306 139.886 297.756Z" fill="white"/>
<path d="M125.456 279.066C125.706 279.446 125.606 279.956 125.236 280.206C124.856 280.456 124.346 280.356 124.096 279.986C123.846 279.606 123.946 279.096 124.316 278.846C124.696 278.596 125.206 278.696 125.456 279.066Z" fill="white"/>
<path d="M169.626 258.406C169.626 258.856 169.256 259.226 168.806 259.226C168.356 259.226 167.986 258.856 167.986 258.406C167.986 257.956 168.356 257.586 168.806 257.586C169.256 257.586 169.626 257.956 169.626 258.406Z" fill="white"/>
<path d="M187.057 238.226C187.057 238.676 186.686 239.046 186.236 239.046C185.786 239.046 185.417 238.676 185.417 238.226C185.417 237.776 185.786 237.406 186.236 237.406C186.686 237.406 187.057 237.776 187.057 238.226Z" fill="white"/>
<path d="M159.036 116.836C159.016 117.286 158.636 117.646 158.186 117.626C157.736 117.606 157.376 117.226 157.396 116.776C157.416 116.326 157.796 115.966 158.246 115.986C158.696 116.006 159.056 116.386 159.036 116.836Z" fill="white"/>
<path d="M209.496 290.046C209.496 290.496 209.126 290.866 208.676 290.866C208.226 290.866 207.856 290.496 207.856 290.046C207.856 289.596 208.226 289.226 208.676 289.226C209.126 289.226 209.496 289.596 209.496 290.046Z" fill="white"/>
<path d="M125.596 237.496C126.049 237.496 126.416 237.129 126.416 236.676C126.416 236.223 126.049 235.856 125.596 235.856C125.143 235.856 124.776 236.223 124.776 236.676C124.776 237.129 125.143 237.496 125.596 237.496Z" fill="white"/>
<path d="M148.016 193.306C148.016 193.756 147.646 194.126 147.196 194.126C146.746 194.126 146.376 193.756 146.376 193.306C146.376 192.856 146.746 192.486 147.196 192.486C147.646 192.486 148.016 192.856 148.016 193.306Z" fill="white"/>
<path d="M123.596 197.766C123.596 198.216 123.226 198.586 122.776 198.586C122.326 198.586 121.956 198.216 121.956 197.766C121.956 197.316 122.326 196.946 122.776 196.946C123.226 196.946 123.596 197.316 123.596 197.766Z" fill="white"/>
<path d="M278.116 251.936C277.786 252.246 277.266 252.216 276.956 251.886C276.646 251.556 276.676 251.036 277.006 250.726C277.336 250.416 277.856 250.446 278.166 250.776C278.476 251.106 278.446 251.626 278.116 251.936Z" fill="white"/>
<path d="M267.596 300.316C267.596 300.766 267.226 301.136 266.776 301.136C266.326 301.136 265.956 300.766 265.956 300.316C265.956 299.866 266.326 299.496 266.776 299.496C267.226 299.496 267.596 299.866 267.596 300.316Z" fill="white"/>
<path d="M233.776 309.466C233.446 309.776 232.926 309.746 232.616 309.416C232.306 309.086 232.336 308.566 232.666 308.256C232.996 307.946 233.516 307.976 233.826 308.306C234.136 308.636 234.106 309.156 233.776 309.466Z" fill="white"/>
<path d="M87.6761 223.936C87.6761 224.386 87.3061 224.756 86.8561 224.756C86.4061 224.756 86.0361 224.386 86.0361 223.936C86.0361 223.486 86.4061 223.116 86.8561 223.116C87.3061 223.116 87.6761 223.486 87.6761 223.936Z" fill="white"/>
<path d="M146.176 140.876C146.629 140.876 146.996 140.509 146.996 140.056C146.996 139.603 146.629 139.236 146.176 139.236C145.723 139.236 145.356 139.603 145.356 140.056C145.356 140.509 145.723 140.876 146.176 140.876Z" fill="white"/>
<path style="mix-blend-mode:screen" opacity="0.68" d="M146.176 156.296C155.145 156.296 162.416 149.025 162.416 140.056C162.416 131.087 155.145 123.816 146.176 123.816C137.207 123.816 129.936 131.087 129.936 140.056C129.936 149.025 137.207 156.296 146.176 156.296Z" fill="url(#paint70_radial_436_2612)"/>
<path d="M199.716 148.666C199.716 149.116 199.346 149.486 198.896 149.486C198.446 149.486 198.076 149.116 198.076 148.666C198.076 148.216 198.446 147.846 198.896 147.846C199.346 147.846 199.716 148.216 199.716 148.666Z" fill="white"/>
<path d="M223.146 91.506C223.146 91.956 222.776 92.326 222.326 92.326C221.876 92.326 221.506 91.956 221.506 91.506C221.506 91.056 221.876 90.686 222.326 90.686C222.776 90.686 223.146 91.056 223.146 91.506Z" fill="white"/>
<path d="M218.996 211.186C218.996 211.396 218.826 211.566 218.616 211.566C218.406 211.566 218.236 211.396 218.236 211.186C218.236 210.976 218.406 210.806 218.616 210.806C218.826 210.806 218.996 210.976 218.996 211.186Z" fill="white"/>
<path style="mix-blend-mode:screen" opacity="0.68" d="M218.616 218.746C222.791 218.746 226.176 215.361 226.176 211.186C226.176 207.011 222.791 203.626 218.616 203.626C214.441 203.626 211.056 207.011 211.056 211.186C211.056 215.361 214.441 218.746 218.616 218.746Z" fill="url(#paint71_radial_436_2612)"/>
<path d="M224.316 201.246C224.316 201.456 224.146 201.626 223.936 201.626C223.726 201.626 223.556 201.456 223.556 201.246C223.556 201.036 223.726 200.866 223.936 200.866C224.146 200.866 224.316 201.036 224.316 201.246Z" fill="white"/>
<path d="M104.366 125.536C104.366 125.746 104.196 125.916 103.986 125.916C103.776 125.916 103.606 125.746 103.606 125.536C103.606 125.326 103.776 125.156 103.986 125.156C104.196 125.156 104.366 125.326 104.366 125.536Z" fill="white"/>
<path style="mix-blend-mode:screen" opacity="0.68" d="M103.986 133.096C108.162 133.096 111.546 129.711 111.546 125.536C111.546 121.361 108.162 117.976 103.986 117.976C99.811 117.976 96.4263 121.361 96.4263 125.536C96.4263 129.711 99.811 133.096 103.986 133.096Z" fill="url(#paint72_radial_436_2612)"/>
<path d="M94.0466 252.026C94.0466 252.236 93.8766 252.406 93.6666 252.406C93.4566 252.406 93.2866 252.236 93.2866 252.026C93.2866 251.816 93.4566 251.646 93.6666 251.646C93.8766 251.646 94.0466 251.816 94.0466 252.026Z" fill="white"/>
<path style="mix-blend-mode:screen" opacity="0.68" d="M93.6664 259.586C97.8417 259.586 101.226 256.201 101.226 252.026C101.226 247.851 97.8417 244.466 93.6664 244.466C89.4912 244.466 86.1064 247.851 86.1064 252.026C86.1064 256.201 89.4912 259.586 93.6664 259.586Z" fill="url(#paint73_radial_436_2612)"/>
<path d="M65.7961 152.146C65.7961 152.356 65.6261 152.526 65.4161 152.526C65.2061 152.526 65.0361 152.356 65.0361 152.146C65.0361 151.936 65.2061 151.766 65.4161 151.766C65.6261 151.766 65.7961 151.936 65.7961 152.146Z" fill="white"/>
<path d="M135.946 328.096C136.156 328.096 136.326 327.926 136.326 327.716C136.326 327.506 136.156 327.336 135.946 327.336C135.737 327.336 135.566 327.506 135.566 327.716C135.566 327.926 135.737 328.096 135.946 328.096Z" fill="white"/>
<path style="mix-blend-mode:screen" opacity="0.68" d="M135.946 335.276C140.122 335.276 143.506 331.891 143.506 327.716C143.506 323.541 140.122 320.156 135.946 320.156C131.771 320.156 128.386 323.541 128.386 327.716C128.386 331.891 131.771 335.276 135.946 335.276Z" fill="url(#paint74_radial_436_2612)"/>
<path d="M150.856 246.376C150.856 246.586 150.686 246.756 150.476 246.756C150.266 246.756 150.096 246.586 150.096 246.376C150.096 246.166 150.266 245.996 150.476 245.996C150.686 245.996 150.856 246.166 150.856 246.376Z" fill="white"/>
<path style="mix-blend-mode:screen" opacity="0.68" d="M150.476 253.936C154.651 253.936 158.036 250.551 158.036 246.376C158.036 242.201 154.651 238.816 150.476 238.816C146.301 238.816 142.916 242.201 142.916 246.376C142.916 250.551 146.301 253.936 150.476 253.936Z" fill="url(#paint75_radial_436_2612)"/>
<path d="M266.086 187.656C265.926 187.796 265.686 187.786 265.546 187.636C265.406 187.476 265.416 187.236 265.566 187.096C265.726 186.956 265.966 186.966 266.106 187.116C266.246 187.266 266.236 187.516 266.086 187.656Z" fill="white"/>
<path d="M161.007 298.706C161.007 298.916 160.837 299.086 160.627 299.086C160.417 299.086 160.247 298.916 160.247 298.706C160.247 298.496 160.417 298.326 160.627 298.326C160.837 298.326 161.007 298.496 161.007 298.706Z" fill="white"/>
<path d="M109.156 320.166C109.156 320.376 108.986 320.546 108.776 320.546C108.566 320.546 108.396 320.376 108.396 320.166C108.396 319.956 108.566 319.786 108.776 319.786C108.986 319.786 109.156 319.956 109.156 320.166Z" fill="white"/>
<path d="M70.616 262.706C70.616 262.916 70.446 263.086 70.236 263.086C70.026 263.086 69.856 262.916 69.856 262.706C69.856 262.496 70.026 262.326 70.236 262.326C70.446 262.326 70.616 262.496 70.616 262.706Z" fill="white"/>
<path style="mix-blend-mode:screen" opacity="0.68" d="M70.226 270.266C74.4013 270.266 77.786 266.881 77.786 262.706C77.786 258.531 74.4013 255.146 70.226 255.146C66.0507 255.146 62.666 258.531 62.666 262.706C62.666 266.881 66.0507 270.266 70.226 270.266Z" fill="url(#paint76_radial_436_2612)"/>
<path d="M188.876 308.476C188.876 308.686 188.706 308.856 188.496 308.856C188.286 308.856 188.116 308.686 188.116 308.476C188.116 308.266 188.286 308.096 188.496 308.096C188.706 308.096 188.876 308.266 188.876 308.476Z" fill="white"/>
<path d="M271.096 274.126C270.936 274.266 270.696 274.256 270.556 274.106C270.416 273.946 270.426 273.706 270.576 273.566C270.736 273.426 270.976 273.436 271.116 273.586C271.256 273.746 271.246 273.986 271.096 274.126Z" fill="white"/>
<path d="M278.456 224.606C278.296 224.746 278.056 224.736 277.916 224.586C277.776 224.426 277.786 224.186 277.936 224.046C278.086 223.906 278.336 223.916 278.476 224.066C278.616 224.226 278.606 224.466 278.456 224.606Z" fill="white"/>
<path d="M259.317 104.196C259.317 104.406 259.147 104.576 258.937 104.576C258.727 104.576 258.557 104.406 258.557 104.196C258.557 103.986 258.727 103.816 258.937 103.816C259.147 103.816 259.317 103.986 259.317 104.196Z" fill="white"/>
<path d="M224.136 281.566C224.136 281.776 223.966 281.946 223.756 281.946C223.546 281.946 223.376 281.776 223.376 281.566C223.376 281.356 223.546 281.186 223.756 281.186C223.966 281.186 224.136 281.356 224.136 281.566Z" fill="white"/>
<path d="M179.576 82.4358C179.416 82.5758 179.176 82.5558 179.036 82.3958C178.896 82.2358 178.916 81.9958 179.076 81.8558C179.236 81.7158 179.476 81.7358 179.616 81.8958C179.756 82.0558 179.736 82.2958 179.576 82.4358Z" fill="white"/>
<path d="M180.527 110.556C180.367 110.696 180.127 110.676 179.987 110.516C179.847 110.356 179.867 110.116 180.027 109.976C180.187 109.836 180.427 109.856 180.567 110.016C180.707 110.176 180.687 110.416 180.527 110.556Z" fill="white"/>
<path d="M264.656 320.776C264.656 320.986 264.486 321.156 264.276 321.156C264.066 321.156 263.896 320.986 263.896 320.776C263.896 320.566 264.066 320.396 264.276 320.396C264.486 320.396 264.656 320.566 264.656 320.776Z" fill="white"/>
<path d="M66.176 181.826C66.176 182.036 66.006 182.206 65.796 182.206C65.586 182.206 65.416 182.036 65.416 181.826C65.416 181.616 65.586 181.446 65.796 181.446C66.006 181.446 66.176 181.616 66.176 181.826Z" fill="white"/>
<path d="M207.806 259.066C207.806 259.276 207.636 259.446 207.426 259.446C207.216 259.446 207.046 259.276 207.046 259.066C207.046 258.856 207.216 258.686 207.426 258.686C207.636 258.686 207.806 258.856 207.806 259.066Z" fill="white"/>
<path d="M185.036 174.276C185.036 174.486 184.866 174.656 184.656 174.656C184.446 174.656 184.276 174.486 184.276 174.276C184.276 174.066 184.446 173.896 184.656 173.896C184.866 173.896 185.036 174.066 185.036 174.276Z" fill="white"/>
<path d="M149.496 171.906C149.496 172.116 149.326 172.286 149.116 172.286C148.906 172.286 148.736 172.116 148.736 171.906C148.736 171.696 148.906 171.526 149.116 171.526C149.326 171.526 149.496 171.696 149.496 171.906Z" fill="white"/>
<path d="M97.8762 133.406C97.8762 133.616 97.7062 133.786 97.4962 133.786C97.2862 133.786 97.1162 133.616 97.1162 133.406C97.1162 133.196 97.2862 133.026 97.4962 133.026C97.7062 133.026 97.8762 133.196 97.8762 133.406Z" fill="white"/>
<path style="mix-blend-mode:screen" opacity="0.68" d="M97.496 140.966C101.671 140.966 105.056 137.581 105.056 133.406C105.056 129.231 101.671 125.846 97.496 125.846C93.3208 125.846 89.936 129.231 89.936 133.406C89.936 137.581 93.3208 140.966 97.496 140.966Z" fill="url(#paint77_radial_436_2612)"/>
<path d="M254.596 191.696C254.436 191.836 254.196 191.826 254.056 191.676C253.916 191.516 253.926 191.276 254.076 191.136C254.236 190.996 254.476 191.006 254.616 191.156C254.756 191.316 254.746 191.556 254.596 191.696Z" fill="white"/>
<path d="M254.416 176.716C254.416 176.926 254.246 177.096 254.036 177.096C253.826 177.096 253.656 176.926 253.656 176.716C253.656 176.506 253.826 176.336 254.036 176.336C254.246 176.336 254.416 176.506 254.416 176.716Z" fill="white"/>
<path style="mix-blend-mode:screen" opacity="0.68" d="M254.036 184.276C258.211 184.276 261.596 180.891 261.596 176.716C261.596 172.541 258.211 169.156 254.036 169.156C249.861 169.156 246.476 172.541 246.476 176.716C246.476 180.891 249.861 184.276 254.036 184.276Z" fill="url(#paint78_radial_436_2612)"/>
<path d="M273.836 234.626C273.676 234.766 273.436 234.756 273.296 234.606C273.156 234.456 273.166 234.206 273.316 234.066C273.466 233.926 273.716 233.936 273.856 234.086C273.996 234.246 273.986 234.486 273.836 234.626Z" fill="white"/>
<path d="M191.136 268.256C191.136 268.466 190.966 268.636 190.756 268.636C190.546 268.636 190.376 268.466 190.376 268.256C190.376 268.046 190.546 267.876 190.756 267.876C190.966 267.876 191.136 268.046 191.136 268.256Z" fill="white"/>
<path style="mix-blend-mode:screen" opacity="0.68" d="M190.756 275.816C194.932 275.816 198.316 272.431 198.316 268.256C198.316 264.081 194.932 260.696 190.756 260.696C186.581 260.696 183.196 264.081 183.196 268.256C183.196 272.431 186.581 275.816 190.756 275.816Z" fill="url(#paint79_radial_436_2612)"/>
<path d="M215.716 271.566C215.716 271.776 215.546 271.946 215.336 271.946C215.126 271.946 214.956 271.776 214.956 271.566C214.956 271.356 215.126 271.186 215.336 271.186C215.546 271.186 215.716 271.356 215.716 271.566Z" fill="white"/>
<path d="M233.406 257.096C233.406 257.306 233.236 257.476 233.026 257.476C232.816 257.476 232.646 257.306 232.646 257.096C232.646 256.886 232.816 256.716 233.026 256.716C233.236 256.716 233.406 256.886 233.406 257.096Z" fill="white"/>
<path d="M77.6062 184.296C77.6062 184.506 77.4362 184.676 77.2262 184.676C77.0162 184.676 76.8462 184.506 76.8462 184.296C76.8462 184.086 77.0162 183.916 77.2262 183.916C77.4362 183.916 77.6062 184.086 77.6062 184.296Z" fill="white"/>
<path d="M251.946 267.056C251.946 267.266 251.776 267.436 251.566 267.436C251.356 267.436 251.186 267.266 251.186 267.056C251.186 266.846 251.356 266.676 251.566 266.676C251.776 266.676 251.946 266.846 251.946 267.056Z" fill="white"/>
<path d="M143.306 83.606C143.306 83.816 143.126 83.986 142.906 83.976C142.696 83.976 142.526 83.796 142.536 83.576C142.536 83.366 142.716 83.196 142.936 83.206C143.146 83.206 143.316 83.386 143.306 83.606Z" fill="white"/>
<path d="M321.967 299.096C321.967 299.306 321.797 299.476 321.587 299.476C321.377 299.476 321.207 299.306 321.207 299.096C321.207 298.886 321.377 298.716 321.587 298.716C321.797 298.716 321.967 298.886 321.967 299.096Z" fill="white"/>
<path style="mix-blend-mode:screen" opacity="0.68" d="M321.586 306.656C325.762 306.656 329.146 303.271 329.146 299.096C329.146 294.921 325.762 291.536 321.586 291.536C317.411 291.536 314.026 294.921 314.026 299.096C314.026 303.271 317.411 306.656 321.586 306.656Z" fill="url(#paint80_radial_436_2612)"/>
<defs>
<linearGradient id="paint0_linear_436_2612" x1="114.757" y1="110.266" x2="114.757" y2="107.036" gradientUnits="userSpaceOnUse">
<stop offset="0.04" stop-color="#1F003D"/>
<stop offset="1" stop-color="#9741C7"/>
</linearGradient>
<linearGradient id="paint1_linear_436_2612" x1="177.836" y1="330.966" x2="177.836" y2="110.366" gradientUnits="userSpaceOnUse">
<stop offset="0.19" stop-color="#2F0253"/>
<stop offset="1" stop-color="#9741C7"/>
</linearGradient>
<linearGradient id="paint2_linear_436_2612" x1="114.757" y1="110.266" x2="114.757" y2="105.596" gradientUnits="userSpaceOnUse">
<stop stop-color="#510057"/>
<stop offset="1" stop-color="white"/>
</linearGradient>
<linearGradient id="paint3_linear_436_2612" x1="177.836" y1="330.966" x2="177.836" y2="211.536" gradientUnits="userSpaceOnUse">
<stop stop-color="#510057"/>
<stop offset="1" stop-color="white"/>
</linearGradient>
<linearGradient id="paint4_linear_436_2612" x1="144.757" y1="164.306" x2="240.497" y2="260.046" gradientUnits="userSpaceOnUse">
<stop stop-color="#FFFF00"/>
<stop offset="0.15" stop-color="#FFDE20"/>
<stop offset="0.48" stop-color="#FF8C71"/>
<stop offset="0.96" stop-color="#FF0AF3"/>
<stop offset="1" stop-color="#FF00FE"/>
</linearGradient>
<linearGradient id="paint5_linear_436_2612" x1="190.336" y1="296.696" x2="190.336" y2="142.946" gradientUnits="userSpaceOnUse">
<stop stop-color="#FF5E77"/>
<stop offset="0.53"/>
</linearGradient>
<linearGradient id="paint6_linear_436_2612" x1="190.336" y1="343.076" x2="190.336" y2="182.656" gradientUnits="userSpaceOnUse">
<stop offset="0.16" stop-color="white"/>
<stop offset="1" stop-color="#9C006D"/>
</linearGradient>
<linearGradient id="paint7_linear_436_2612" x1="213.166" y1="210.726" x2="254.846" y2="252.396" gradientUnits="userSpaceOnUse">
<stop stop-color="#FFFF00"/>
<stop offset="0.15" stop-color="#FFDE20"/>
<stop offset="0.48" stop-color="#FF8C71"/>
<stop offset="0.96" stop-color="#FF0AF3"/>
<stop offset="1" stop-color="#FF00FE"/>
</linearGradient>
<linearGradient id="paint8_linear_436_2612" x1="251.856" y1="312.606" x2="251.856" y2="242.736" gradientUnits="userSpaceOnUse">
<stop stop-color="#FF00FE"/>
<stop offset="0.04" stop-color="#FF0AF3"/>
<stop offset="0.52" stop-color="#FF8C71"/>
<stop offset="0.85" stop-color="#FFDE20"/>
<stop offset="1" stop-color="#FFFF00"/>
</linearGradient>
<linearGradient id="paint9_linear_436_2612" x1="261.466" y1="283.956" x2="234.736" y2="330.246" gradientUnits="userSpaceOnUse">
<stop stop-color="#FFFF00"/>
<stop offset="0.15" stop-color="#FFDE20"/>
<stop offset="0.48" stop-color="#FF8C71"/>
<stop offset="0.96" stop-color="#FF0AF3"/>
<stop offset="1" stop-color="#FF00FE"/>
</linearGradient>
<linearGradient id="paint10_linear_436_2612" x1="108.326" y1="190.126" x2="209.866" y2="291.656" gradientUnits="userSpaceOnUse">
<stop stop-color="#FFFF00"/>
<stop offset="0.15" stop-color="#FFDE20"/>
<stop offset="0.48" stop-color="#FF8C71"/>
<stop offset="0.96" stop-color="#FF0AF3"/>
<stop offset="1" stop-color="#FF00FE"/>
</linearGradient>
<linearGradient id="paint11_linear_436_2612" x1="107.876" y1="253.656" x2="177.946" y2="323.736" gradientUnits="userSpaceOnUse">
<stop stop-color="#FFFF00"/>
<stop offset="0.15" stop-color="#FFDE20"/>
<stop offset="0.48" stop-color="#FF8C71"/>
<stop offset="0.96" stop-color="#FF0AF3"/>
<stop offset="1" stop-color="#FF00FE"/>
</linearGradient>
<linearGradient id="paint12_linear_436_2612" x1="238.346" y1="286.966" x2="238.346" y2="176.226" gradientUnits="userSpaceOnUse">
<stop stop-color="#FF5E77"/>
<stop offset="0.53"/>
</linearGradient>
<linearGradient id="paint13_linear_436_2612" x1="254.097" y1="303.436" x2="254.097" y2="244.306" gradientUnits="userSpaceOnUse">
<stop stop-color="#FF5E77"/>
<stop offset="0.53"/>
</linearGradient>
<linearGradient id="paint14_linear_436_2612" x1="248.626" y1="321.016" x2="248.626" y2="293.426" gradientUnits="userSpaceOnUse">
<stop stop-color="#FF5E77"/>
<stop offset="0.53"/>
</linearGradient>
<linearGradient id="paint15_linear_436_2612" x1="154.817" y1="299.176" x2="154.817" y2="191.016" gradientUnits="userSpaceOnUse">
<stop stop-color="#FF5E77"/>
<stop offset="0.53"/>
</linearGradient>
<linearGradient id="paint16_linear_436_2612" x1="143.396" y1="311.876" x2="143.396" y2="263.846" gradientUnits="userSpaceOnUse">
<stop stop-color="#FF5E77"/>
<stop offset="0.53"/>
</linearGradient>
<linearGradient id="paint17_linear_436_2612" x1="251.846" y1="312.606" x2="251.846" y2="266.426" gradientUnits="userSpaceOnUse">
<stop stop-color="white"/>
<stop offset="1" stop-color="#9C006D"/>
</linearGradient>
<linearGradient id="paint18_linear_436_2612" x1="241.226" y1="322.026" x2="250.256" y2="299.606" gradientUnits="userSpaceOnUse">
<stop stop-color="white"/>
<stop offset="1" stop-color="#9C006D"/>
</linearGradient>
<linearGradient id="paint19_linear_436_2612" x1="147.916" y1="321.166" x2="147.916" y2="267.056" gradientUnits="userSpaceOnUse">
<stop offset="0.16" stop-color="white"/>
<stop offset="1" stop-color="#9C006D"/>
</linearGradient>
<linearGradient id="paint20_linear_436_2612" x1="238.276" y1="305.576" x2="238.276" y2="201.756" gradientUnits="userSpaceOnUse">
<stop offset="0.16" stop-color="white"/>
<stop offset="1" stop-color="#9C006D"/>
</linearGradient>
<linearGradient id="paint21_linear_436_2612" x1="157.666" y1="317.496" x2="157.666" y2="228.336" gradientUnits="userSpaceOnUse">
<stop offset="0.16" stop-color="white"/>
<stop offset="1" stop-color="#9C006D"/>
</linearGradient>
<linearGradient id="paint22_linear_436_2612" x1="197.966" y1="368.256" x2="197.966" y2="272.986" gradientUnits="userSpaceOnUse">
<stop stop-color="#2F0253"/>
<stop offset="1" stop-color="#9741C7"/>
</linearGradient>
<linearGradient id="paint23_linear_436_2612" x1="190.416" y1="232.486" x2="190.416" y2="131.486" gradientUnits="userSpaceOnUse">
<stop offset="0.24"/>
<stop offset="1" stop-color="#B3E72C"/>
</linearGradient>
<linearGradient id="paint24_linear_436_2612" x1="242.887" y1="222.116" x2="242.887" y2="164.776" gradientUnits="userSpaceOnUse">
<stop offset="0.24"/>
<stop offset="1" stop-color="#B3E72C"/>
</linearGradient>
<linearGradient id="paint25_linear_436_2612" x1="251.176" y1="261.386" x2="251.176" y2="259.366" gradientUnits="userSpaceOnUse">
<stop offset="0.24"/>
<stop offset="1" stop-color="#B3E72C"/>
</linearGradient>
<linearGradient id="paint26_linear_436_2612" x1="266.376" y1="279.246" x2="266.376" y2="237.076" gradientUnits="userSpaceOnUse">
<stop offset="0.24"/>
<stop offset="1" stop-color="#B3E72C"/>
</linearGradient>
<linearGradient id="paint27_linear_436_2612" x1="255.246" y1="308.396" x2="255.246" y2="290.626" gradientUnits="userSpaceOnUse">
<stop offset="0.24"/>
<stop offset="1" stop-color="#B3E72C"/>
</linearGradient>
<linearGradient id="paint28_linear_436_2612" x1="271.936" y1="290.906" x2="271.936" y2="290.696" gradientUnits="userSpaceOnUse">
<stop offset="0.24"/>
<stop offset="1" stop-color="#B3E72C"/>
</linearGradient>
<linearGradient id="paint29_linear_436_2612" x1="134.736" y1="247.936" x2="134.736" y2="178.396" gradientUnits="userSpaceOnUse">
<stop offset="0.24"/>
<stop offset="1" stop-color="#B3E72C"/>
</linearGradient>
<linearGradient id="paint30_linear_436_2612" x1="122.996" y1="285.536" x2="122.996" y2="257.506" gradientUnits="userSpaceOnUse">
<stop offset="0.24"/>
<stop offset="1" stop-color="#B3E72C"/>
</linearGradient>
<linearGradient id="paint31_linear_436_2612" x1="104.476" y1="271.646" x2="104.476" y2="270.276" gradientUnits="userSpaceOnUse">
<stop offset="0.24"/>
<stop offset="1" stop-color="#B3E72C"/>
</linearGradient>
<linearGradient id="paint32_linear_436_2612" x1="139.016" y1="268.736" x2="139.016" y2="267.056" gradientUnits="userSpaceOnUse">
<stop offset="0.24"/>
<stop offset="1" stop-color="#B3E72C"/>
</linearGradient>
<linearGradient id="paint33_linear_436_2612" x1="187.126" y1="213.256" x2="187.126" y2="134.766" gradientUnits="userSpaceOnUse">
<stop/>
<stop offset="1" stop-color="#FFFF77"/>
</linearGradient>
<linearGradient id="paint34_linear_436_2612" x1="136.486" y1="237.446" x2="136.486" y2="179.126" gradientUnits="userSpaceOnUse">
<stop/>
<stop offset="1" stop-color="#FFFF77"/>
</linearGradient>
<linearGradient id="paint35_linear_436_2612" x1="126.136" y1="275.146" x2="109.646" y2="260.536" gradientUnits="userSpaceOnUse">
<stop/>
<stop offset="1" stop-color="#FFFF77"/>
</linearGradient>
<linearGradient id="paint36_linear_436_2612" x1="247.066" y1="221.576" x2="247.066" y2="165.316" gradientUnits="userSpaceOnUse">
<stop/>
<stop offset="1" stop-color="#FFFF77"/>
</linearGradient>
<linearGradient id="paint37_linear_436_2612" x1="273.246" y1="261.476" x2="284.706" y2="238.576" gradientUnits="userSpaceOnUse">
<stop/>
<stop offset="1" stop-color="#FFFF77"/>
</linearGradient>
<linearGradient id="paint38_linear_436_2612" x1="269.316" y1="289.356" x2="249.586" y2="309.086" gradientUnits="userSpaceOnUse">
<stop stop-color="#FFFF77"/>
<stop offset="1"/>
</linearGradient>
<linearGradient id="paint39_linear_436_2612" x1="91.8562" y1="188.046" x2="91.8562" y2="140.496" gradientUnits="userSpaceOnUse">
<stop stop-color="#FF00FE"/>
<stop offset="0.04" stop-color="#FF0AF3"/>
<stop offset="0.52" stop-color="#FF8C71"/>
<stop offset="0.85" stop-color="#FFDE20"/>
<stop offset="1" stop-color="#FFFF00"/>
</linearGradient>
<linearGradient id="paint40_linear_436_2612" x1="49.7462" y1="192.806" x2="49.7462" y2="149.666" gradientUnits="userSpaceOnUse">
<stop stop-color="#FF00FE"/>
<stop offset="0.04" stop-color="#FF0AF3"/>
<stop offset="0.52" stop-color="#FF8C71"/>
<stop offset="0.85" stop-color="#FFDE20"/>
<stop offset="1" stop-color="#FFFF00"/>
</linearGradient>
<linearGradient id="paint41_linear_436_2612" x1="29.9964" y1="161.866" x2="29.9964" y2="135.686" gradientUnits="userSpaceOnUse">
<stop stop-color="#FF00FE"/>
<stop offset="0.04" stop-color="#FF0AF3"/>
<stop offset="0.52" stop-color="#FF8C71"/>
<stop offset="0.85" stop-color="#FFDE20"/>
<stop offset="1" stop-color="#FFFF00"/>
</linearGradient>
<linearGradient id="paint42_linear_436_2612" x1="117.176" y1="132.846" x2="117.176" y2="75.556" gradientUnits="userSpaceOnUse">
<stop stop-color="#FF00FE"/>
<stop offset="0.04" stop-color="#FF0AF3"/>
<stop offset="0.52" stop-color="#FF8C71"/>
<stop offset="0.85" stop-color="#FFDE20"/>
<stop offset="1" stop-color="#FFFF00"/>
</linearGradient>
<linearGradient id="paint43_linear_436_2612" x1="145.066" y1="107.336" x2="145.066" y2="59.8359" gradientUnits="userSpaceOnUse">
<stop stop-color="#FF00FE"/>
<stop offset="0.04" stop-color="#FF0AF3"/>
<stop offset="0.52" stop-color="#FF8C71"/>
<stop offset="0.85" stop-color="#FFDE20"/>
<stop offset="1" stop-color="#FFFF00"/>
</linearGradient>
<linearGradient id="paint44_linear_436_2612" x1="223.607" y1="119.316" x2="223.607" y2="69.8958" gradientUnits="userSpaceOnUse">
<stop stop-color="#FF00FE"/>
<stop offset="0.04" stop-color="#FF0AF3"/>
<stop offset="0.52" stop-color="#FF8C71"/>
<stop offset="0.85" stop-color="#FFDE20"/>
<stop offset="1" stop-color="#FFFF00"/>
</linearGradient>
<linearGradient id="paint45_linear_436_2612" x1="272.086" y1="164.326" x2="272.086" y2="138.086" gradientUnits="userSpaceOnUse">
<stop stop-color="#FF00FE"/>
<stop offset="0.04" stop-color="#FF0AF3"/>
<stop offset="0.52" stop-color="#FF8C71"/>
<stop offset="0.85" stop-color="#FFDE20"/>
<stop offset="1" stop-color="#FFFF00"/>
</linearGradient>
<linearGradient id="paint46_linear_436_2612" x1="281.346" y1="164.326" x2="281.346" y2="113.606" gradientUnits="userSpaceOnUse">
<stop stop-color="#FF00FE"/>
<stop offset="0.04" stop-color="#FF0AF3"/>
<stop offset="0.52" stop-color="#FF8C71"/>
<stop offset="0.85" stop-color="#FFDE20"/>
<stop offset="1" stop-color="#FFFF00"/>
</linearGradient>
<linearGradient id="paint47_linear_436_2612" x1="302.976" y1="205.196" x2="302.976" y2="171.096" gradientUnits="userSpaceOnUse">
<stop stop-color="#FF00FE"/>
<stop offset="0.04" stop-color="#FF0AF3"/>
<stop offset="0.52" stop-color="#FF8C71"/>
<stop offset="0.85" stop-color="#FFDE20"/>
<stop offset="1" stop-color="#FFFF00"/>
</linearGradient>
<linearGradient id="paint48_linear_436_2612" x1="321.586" y1="252.406" x2="321.586" y2="217.496" gradientUnits="userSpaceOnUse">
<stop stop-color="#FF00FE"/>
<stop offset="0.04" stop-color="#FF0AF3"/>
<stop offset="0.52" stop-color="#FF8C71"/>
<stop offset="0.85" stop-color="#FFDE20"/>
<stop offset="1" stop-color="#FFFF00"/>
</linearGradient>
<linearGradient id="paint49_linear_436_2612" x1="91.2463" y1="187.356" x2="91.2463" y2="153.276" gradientUnits="userSpaceOnUse">
<stop offset="0.16" stop-color="white"/>
<stop offset="1" stop-color="#9C006D"/>
</linearGradient>
<linearGradient id="paint50_linear_436_2612" x1="50.3165" y1="192.806" x2="50.3165" y2="159.956" gradientUnits="userSpaceOnUse">
<stop offset="0.16" stop-color="white"/>
<stop offset="1" stop-color="#9C006D"/>
</linearGradient>
<linearGradient id="paint51_linear_436_2612" x1="32.2162" y1="161.866" x2="32.2162" y2="143.166" gradientUnits="userSpaceOnUse">
<stop offset="0.16" stop-color="white"/>
<stop offset="1" stop-color="#9C006D"/>
</linearGradient>
<linearGradient id="paint52_linear_436_2612" x1="115.066" y1="132.846" x2="115.066" y2="84.9058" gradientUnits="userSpaceOnUse">
<stop offset="0.16" stop-color="white"/>
<stop offset="1" stop-color="#9C006D"/>
</linearGradient>
<linearGradient id="paint53_linear_436_2612" x1="142.677" y1="107.336" x2="142.677" y2="70.616" gradientUnits="userSpaceOnUse">
<stop offset="0.16" stop-color="white"/>
<stop offset="1" stop-color="#9C006D"/>
</linearGradient>
<linearGradient id="paint54_linear_436_2612" x1="226.117" y1="119.316" x2="226.117" y2="81.2158" gradientUnits="userSpaceOnUse">
<stop offset="0.16" stop-color="white"/>
<stop offset="1" stop-color="#9C006D"/>
</linearGradient>
<linearGradient id="paint55_linear_436_2612" x1="272.706" y1="164.326" x2="272.706" y2="144.466" gradientUnits="userSpaceOnUse">
<stop offset="0.16" stop-color="white"/>
<stop offset="1" stop-color="#9C006D"/>
</linearGradient>
<linearGradient id="paint56_linear_436_2612" x1="281.996" y1="164.326" x2="281.996" y2="127.116" gradientUnits="userSpaceOnUse">
<stop offset="0.16" stop-color="white"/>
<stop offset="1" stop-color="#9C006D"/>
</linearGradient>
<linearGradient id="paint57_linear_436_2612" x1="303.406" y1="205.196" x2="303.406" y2="180.036" gradientUnits="userSpaceOnUse">
<stop offset="0.16" stop-color="white"/>
<stop offset="1" stop-color="#9C006D"/>
</linearGradient>
<linearGradient id="paint58_linear_436_2612" x1="320.966" y1="252.406" x2="320.966" y2="226.406" gradientUnits="userSpaceOnUse">
<stop offset="0.16" stop-color="white"/>
<stop offset="1" stop-color="#9C006D"/>
</linearGradient>
<linearGradient id="paint59_linear_436_2612" x1="91.8566" y1="157.116" x2="91.8566" y2="140.496" gradientUnits="userSpaceOnUse">
<stop offset="0.24"/>
<stop offset="1" stop-color="#B3E72C"/>
</linearGradient>
<linearGradient id="paint60_linear_436_2612" x1="49.2165" y1="170.206" x2="49.2165" y2="149.666" gradientUnits="userSpaceOnUse">
<stop offset="0.24"/>
<stop offset="1" stop-color="#B3E72C"/>
</linearGradient>
<linearGradient id="paint61_linear_436_2612" x1="27.4665" y1="151.666" x2="27.4665" y2="135.686" gradientUnits="userSpaceOnUse">
<stop offset="0.24"/>
<stop offset="1" stop-color="#B3E72C"/>
</linearGradient>
<linearGradient id="paint62_linear_436_2612" x1="118.547" y1="104.496" x2="118.547" y2="75.5559" gradientUnits="userSpaceOnUse">
<stop offset="0.24"/>
<stop offset="1" stop-color="#B3E72C"/>
</linearGradient>
<linearGradient id="paint63_linear_436_2612" x1="149.226" y1="80.7358" x2="149.226" y2="59.8358" gradientUnits="userSpaceOnUse">
<stop offset="0.24"/>
<stop offset="1" stop-color="#B3E72C"/>
</linearGradient>
<linearGradient id="paint64_linear_436_2612" x1="215.786" y1="91.6559" x2="215.786" y2="69.9059" gradientUnits="userSpaceOnUse">
<stop offset="0.24"/>
<stop offset="1" stop-color="#B3E72C"/>
</linearGradient>
<linearGradient id="paint65_linear_436_2612" x1="270.886" y1="152.006" x2="270.886" y2="138.086" gradientUnits="userSpaceOnUse">
<stop offset="0.24"/>
<stop offset="1" stop-color="#B3E72C"/>
</linearGradient>
<linearGradient id="paint66_linear_436_2612" x1="280.176" y1="137.466" x2="280.176" y2="113.606" gradientUnits="userSpaceOnUse">
<stop offset="0.24"/>
<stop offset="1" stop-color="#B3E72C"/>
</linearGradient>
<linearGradient id="paint67_linear_436_2612" x1="301.466" y1="185.226" x2="301.466" y2="171.096" gradientUnits="userSpaceOnUse">
<stop offset="0.24"/>
<stop offset="1" stop-color="#B3E72C"/>
</linearGradient>
<linearGradient id="paint68_linear_436_2612" x1="323.606" y1="237.006" x2="323.606" y2="217.496" gradientUnits="userSpaceOnUse">
<stop offset="0.24"/>
<stop offset="1" stop-color="#B3E72C"/>
</linearGradient>
<radialGradient id="paint69_radial_436_2612" cx="0" cy="0" r="1" gradientUnits="userSpaceOnUse" gradientTransform="translate(165.626 206.366) scale(16.24)">
<stop stop-color="#FFFF00"/>
<stop offset="1" stop-color="#999900" stop-opacity="0"/>
</radialGradient>
<radialGradient id="paint70_radial_436_2612" cx="0" cy="0" r="1" gradientUnits="userSpaceOnUse" gradientTransform="translate(146.176 140.056) scale(16.24 16.24)">
<stop stop-color="#FFFF00"/>
<stop offset="1" stop-color="#999900" stop-opacity="0"/>
</radialGradient>
<radialGradient id="paint71_radial_436_2612" cx="0" cy="0" r="1" gradientUnits="userSpaceOnUse" gradientTransform="translate(218.616 211.186) scale(7.56 7.56001)">
<stop stop-color="#FFFF00"/>
<stop offset="1" stop-color="#999900" stop-opacity="0"/>
</radialGradient>
<radialGradient id="paint72_radial_436_2612" cx="0" cy="0" r="1" gradientUnits="userSpaceOnUse" gradientTransform="translate(103.986 125.536) scale(7.56 7.56)">
<stop stop-color="#FFFF00"/>
<stop offset="1" stop-color="#999900" stop-opacity="0"/>
</radialGradient>
<radialGradient id="paint73_radial_436_2612" cx="0" cy="0" r="1" gradientUnits="userSpaceOnUse" gradientTransform="translate(93.6664 252.026) scale(7.56 7.56)">
<stop stop-color="#FFFF00"/>
<stop offset="1" stop-color="#999900" stop-opacity="0"/>
</radialGradient>
<radialGradient id="paint74_radial_436_2612" cx="0" cy="0" r="1" gradientUnits="userSpaceOnUse" gradientTransform="translate(135.946 327.716) scale(7.56)">
<stop stop-color="#FFFF00"/>
<stop offset="1" stop-color="#999900" stop-opacity="0"/>
</radialGradient>
<radialGradient id="paint75_radial_436_2612" cx="0" cy="0" r="1" gradientUnits="userSpaceOnUse" gradientTransform="translate(150.476 246.376) scale(7.56)">
<stop stop-color="#FFFF00"/>
<stop offset="1" stop-color="#999900" stop-opacity="0"/>
</radialGradient>
<radialGradient id="paint76_radial_436_2612" cx="0" cy="0" r="1" gradientUnits="userSpaceOnUse" gradientTransform="translate(70.226 262.706) scale(7.56 7.56)">
<stop stop-color="#FFFF00"/>
<stop offset="1" stop-color="#999900" stop-opacity="0"/>
</radialGradient>
<radialGradient id="paint77_radial_436_2612" cx="0" cy="0" r="1" gradientUnits="userSpaceOnUse" gradientTransform="translate(97.496 133.406) scale(7.56 7.56001)">
<stop stop-color="#FFFF00"/>
<stop offset="1" stop-color="#999900" stop-opacity="0"/>
</radialGradient>
<radialGradient id="paint78_radial_436_2612" cx="0" cy="0" r="1" gradientUnits="userSpaceOnUse" gradientTransform="translate(254.036 176.716) scale(7.56 7.56001)">
<stop stop-color="#FFFF00"/>
<stop offset="1" stop-color="#999900" stop-opacity="0"/>
</radialGradient>
<radialGradient id="paint79_radial_436_2612" cx="0" cy="0" r="1" gradientUnits="userSpaceOnUse" gradientTransform="translate(190.756 268.256) scale(7.56 7.56001)">
<stop stop-color="#FFFF00"/>
<stop offset="1" stop-color="#999900" stop-opacity="0"/>
</radialGradient>
<radialGradient id="paint80_radial_436_2612" cx="0" cy="0" r="1" gradientUnits="userSpaceOnUse" gradientTransform="translate(321.586 299.096) scale(7.56)">
<stop stop-color="#FFFF00"/>
<stop offset="1" stop-color="#999900" stop-opacity="0"/>
</radialGradient>
</defs>
</svg>
