<svg width="522" height="599" viewBox="0 0 522 599" fill="none" xmlns="http://www.w3.org/2000/svg">
<path opacity="0.24" d="M400.149 449.841C400.149 449.841 413.113 409.949 423.566 394.867C434.02 379.785 388.755 316.099 355.411 298.739C322.059 281.362 278.688 270.781 271.285 260.234C263.882 249.687 261.147 224.565 265.047 216.247C268.929 207.936 306.013 195.92 306.464 181.486C306.915 167.052 265.657 138.069 241.002 137.29C216.365 136.505 216.68 143.496 203.822 147.995C190.954 152.519 185.224 150.26 180.434 156.391C175.618 162.513 168.887 183.678 156.49 184.177C144.111 184.67 142.416 137.295 151.258 127.777C160.091 118.283 172.263 113.169 174.595 110.416C176.909 107.671 169.957 77.6344 157.699 71.1988C157.699 71.1988 172.991 97.2888 143.238 126.698C143.238 126.698 137.31 145.666 143.263 174.338C149.217 203.01 154.088 206.302 156.455 205.746C158.822 205.189 161.338 186.333 191.299 182.218C221.26 178.104 233.387 202.832 227.047 222.873C220.699 242.896 183.304 279.992 179.623 302.241C175.942 324.489 213.351 349.488 211.741 369.441C210.125 389.375 190.636 409.144 207.424 440.833C224.211 472.523 345.165 506.795 400.174 449.851L400.149 449.841Z" fill="url(#paint0_linear_416_2117)"/>
<path style="mix-blend-mode:screen" opacity="0.32" d="M392.619 442.131C392.619 442.131 405.385 400.929 416.749 392.304C428.113 383.679 377.53 308.557 346.036 299.371C314.543 290.185 263.794 279.526 257.838 273.288C251.893 267.026 245.684 224.337 254.303 211.432C262.939 198.52 288.21 180.844 289.682 171.511C291.154 162.178 245.298 142.05 230.975 144.703C216.635 147.364 213.182 153.613 204.295 155.904C195.424 158.188 176.643 175.677 176.643 175.677C176.643 175.677 196.632 160.94 213.28 167.204C229.928 173.468 237.879 196.866 230.805 221.286C223.732 245.705 190.504 280.328 192.746 299.064C194.988 317.8 221.075 351.919 224.112 370.794C227.15 389.67 214.218 408.773 219.458 432.932C224.697 457.092 297.666 476.094 343.762 467.486C389.858 458.878 392.594 442.121 392.594 442.121L392.619 442.131Z" fill="url(#paint1_linear_416_2117)"/>
<path d="M357.067 529.842C447.45 491.897 489.175 385.996 450.262 293.306C411.349 200.616 306.533 156.236 216.15 194.181C125.766 232.125 84.0415 338.026 122.955 430.717C161.868 523.407 266.684 567.787 357.067 529.842Z" fill="url(#paint2_radial_416_2117)" fill-opacity="0.7" style="mix-blend-mode:screen"/>
<path d="M232.431 273.11C232.489 278.06 239.954 283.403 242.868 277.972C246.539 271.12 235.652 271.215 232.431 273.11Z" fill="white"/>
<path d="M234.596 290.138C234.935 291.246 235.746 292.259 236.554 293.068C238.433 292.715 239.234 292.135 239.811 290.524C238.528 289.605 237.302 289.707 235.892 290.253L234.603 290.156L234.596 290.138Z" fill="white"/>
<path d="M291.241 306.057C291.016 315.73 298.661 318.46 306.233 313.748C305.399 305.315 298.097 295.012 290.766 304.966L291.216 306.047L291.241 306.057Z" fill="white"/>
<path d="M325.862 279.982C326.047 280.867 326.633 281.831 327.054 282.597C328.56 282.379 329.992 281.495 330.894 280.321C330.217 277.86 328.374 276.09 326.033 275.531C325.464 276.669 325.711 277.507 325.952 278.676L325.887 279.992L325.862 279.982Z" fill="white"/>
<path d="M226.364 417.343C226.549 418.228 227.134 419.192 227.548 419.94C229.054 419.722 230.486 418.839 231.388 417.665C230.711 415.204 228.868 413.434 226.527 412.874C225.958 414.012 226.205 414.851 226.446 416.019L226.381 417.336L226.364 417.343Z" fill="white"/>
<path d="M236.5 247.078C236.449 246.955 236.398 246.833 236.347 246.711C237.198 248.752 236.695 252.113 239.49 252.73C240.774 253.013 241.938 252.467 243.083 252.317C244.347 252.159 244.804 252.029 244.893 250.621C244.949 249.676 244.499 248.595 244.233 247.662C243.852 246.306 244.591 245.773 243.042 245.149C241.123 244.373 238.003 245.284 236.423 246.598C236.453 246.769 236.494 246.916 236.524 247.088L236.5 247.078Z" fill="white"/>
<path d="M272.906 240.113C272.176 239.148 272.798 236.269 273.914 235.804C275.5 235.143 277.497 237.381 278.32 238.471C279.671 240.242 278.432 241.638 276.539 240.974C275.819 240.721 275.096 240.409 274.408 240.183C273.862 240.002 273.991 240.214 273.412 239.903C273.069 239.718 272.736 239.263 272.431 239.022L272.889 240.121L272.906 240.113Z" fill="white"/>
<path d="M221.038 305.429C220.938 305.287 220.83 305.127 220.73 304.985C219.582 305.422 220.085 306.973 220.969 307.423C221.608 307.73 222.205 307.297 222.773 307.285C223.012 307.268 223.665 307.364 223.837 307.333C225.76 306.941 227.417 306.742 229.309 305.831C233.608 303.773 230.008 298.13 227.841 296.024C226.595 294.803 225.327 292.937 223.336 293.071C221.482 293.188 219.641 294.467 218.751 295.964C217.765 297.624 218.362 299.401 218.572 301.033C218.698 302.024 218.595 302.661 219.049 303.7C219.517 304.774 219.957 305.88 220.408 306.961L221.013 305.419L221.038 305.429Z" fill="white"/>
<path d="M188.063 232.835C186.965 231.819 186.193 230.851 186.588 229.295C186.674 228.911 186.974 227.865 187.233 227.552C187.336 227.407 188.767 226.176 188.784 226.169C189.663 225.823 191.307 226.673 192.025 227.315C192.224 227.499 193.115 228.458 193.266 228.722C193.755 229.603 193.147 230.205 193.483 231.109C192.644 231.601 192.251 232.277 191.482 232.741C190.564 233.287 189.512 232.579 188.594 232.634L188.071 232.852L188.063 232.835Z" fill="white"/>
<path d="M396.334 303.545C394.024 298.347 404.125 300.442 402 304.377C401.078 306.092 399.198 306.098 397.511 305.634C396.314 305.314 393.681 304.201 393.531 302.81L396.334 303.545Z" fill="white"/>
<path d="M375.397 265.582C375.863 267.537 375.46 268.974 377.953 268.672C379.046 268.544 381.179 269.047 381.556 267.498C381.864 266.223 380.572 264.448 379.661 263.784C378.363 262.831 376.729 262.591 375.395 263.761C375.426 263.932 375.466 264.079 375.497 264.251L375.432 265.567L375.397 265.582Z" fill="white"/>
<path d="M305.524 298.447C305.467 299.391 305.389 300.284 306.078 301.102C306.313 301.372 306.882 301.606 307.21 301.51C307.626 301.378 307.8 301.06 308.249 300.811C308.837 300.505 308.936 300.545 308.628 299.855C308.468 299.471 308.174 299.062 307.81 298.825C307.371 298.557 306.159 297.957 305.687 298.051L305.541 298.439L305.524 298.447Z" fill="white"/>
<path d="M338.209 279.606C338.209 279.606 338.095 279.776 338.055 279.875C338.139 279.144 338.707 278.396 339.557 278.471C339.985 278.518 340.336 278.965 340.586 279.271C340.843 279.593 341.078 279.863 341.298 280.243C341.776 281.047 341.43 282.132 340.4 282.213C339.822 282.25 338.104 281.369 338.034 280.661L338.216 279.624L338.209 279.606Z" fill="white"/>
<path d="M189.102 444.252C189.102 444.252 188.989 444.422 188.948 444.521C189.04 443.808 189.6 443.042 190.45 443.117C190.879 443.164 191.236 443.629 191.479 443.917C191.736 444.239 191.972 444.51 192.191 444.889C192.669 445.693 192.324 446.778 191.294 446.86C190.715 446.896 188.998 446.015 188.928 445.307L189.109 444.27L189.102 444.252Z" fill="white"/>
<path d="M196.303 392.986C195.639 394.634 195.641 396.947 196.168 398.651C196.554 399.923 198.628 400.676 199.689 401.257C200.463 401.692 201.261 402.035 202.104 402.338C202.773 402.571 203.462 402.652 204.122 402.91C204.782 403.167 205.434 403.161 206.057 403.331C206.248 403.395 206.665 403.61 206.846 403.555C207.045 403.493 207.481 402.82 207.632 402.593C208.646 401.147 209.512 399.64 210.299 398.043C210.76 397.135 211.57 395.691 211.387 394.663C211.06 392.895 209.245 391.584 208.036 390.451C207.104 389.59 206.01 388.143 204.786 387.711C204 387.445 203.25 387.758 202.523 388.122C202.059 388.336 202.087 388.55 201.739 388.797C201.312 389.097 200.904 389.247 200.506 389.618C199.98 390.123 199.326 390.764 198.604 391.045C197.82 391.372 197.213 391.83 196.296 392.969L196.303 392.986Z" fill="white"/>
<path d="M193.353 408.298C193.637 408.978 193.996 410.036 194.833 410.179C195.687 410.314 196.11 408.971 196.396 408.381C196.243 408.26 195.847 407.996 195.723 407.945C195.501 407.853 195.372 407.887 195.097 407.817C194.756 407.734 193.657 407.21 193.894 408.073L193.371 408.291L193.353 408.298Z" fill="white"/>
<path d="M243.011 417.222C243.147 417.697 242.663 417.714 242.331 417.505C241.98 417.303 241.903 416.823 241.751 416.457C241.322 415.428 241.807 415.021 242.816 414.888C244.251 414.699 246.104 414.479 247.146 415.949C247.694 416.723 247.654 417.17 247.102 417.809C246.661 418.321 246.34 418.925 245.766 419.267C245.122 419.637 244.477 419.415 244.051 418.835C243.904 418.63 243.897 418.367 243.768 418.155C243.675 418.03 243.489 418.025 243.41 417.935C243.131 417.56 242.995 417.085 242.796 416.656L243.021 417.197L243.011 417.222Z" fill="white"/>
<path d="M319.991 345.534C319.991 345.534 319.819 345.564 319.742 345.576C319.457 344.549 320.907 344.64 321.455 344.924C322.06 345.245 323.09 345.9 322.952 346.797C322.804 347.718 321.627 347.595 321.011 347.442C320.177 347.257 319.664 346.223 319.341 345.498L319.998 345.551L319.991 345.534Z" fill="white"/>
<path d="M375.952 299.615C375.382 300.016 375.445 302.18 375.974 302.615C376.35 302.929 377.256 302.695 377.697 302.674C378.258 302.645 378.794 302.606 379.317 302.634C379.442 302.049 379.303 300.879 379.05 300.371C378.785 299.785 378.096 299.458 377.755 298.884C377.371 299.044 377.011 298.867 376.613 298.992C376.19 299.106 375.667 299.324 375.344 299.582C375.374 299.651 375.375 299.753 375.387 299.83L375.91 299.612L375.952 299.615Z" fill="white"/>
<path d="M369.786 331.025C369.422 331.279 369.428 331.932 369.391 332.336C369.348 332.968 369.349 333.561 369.306 334.193C369.252 335.095 369.165 336.605 370.226 336.941C371.378 337.3 372.974 336.758 374.129 336.584C375.284 336.409 376.945 336.516 377.64 335.386C378.333 334.299 378.182 333.298 378.066 332.037C377.939 330.8 377.753 329.567 377.7 328.361C377.678 327.818 377.45 327.319 377.361 326.763C377.305 326.479 377.495 326.297 377.332 325.956C377.18 325.59 376.784 325.427 376.473 325.27C376.106 325.075 375.549 324.918 375.147 324.984C374.856 325.023 374.638 325.236 374.362 325.311C374.044 325.382 373.787 325.305 373.454 325.341C373.111 325.402 372.704 325.653 372.373 325.792C371.979 325.976 371.95 326.152 371.656 326.377C371.135 326.799 370.614 327.118 370.187 327.665C369.805 328.172 369.458 328.665 369.221 329.275C369.017 329.769 369.151 330.532 368.714 330.858L369.741 331.064L369.786 331.025Z" fill="white"/>
<path d="M380.979 332.398C380.979 332.398 380.808 332.429 380.731 332.441C380.433 331.971 380.896 331.266 381.037 330.819C381.391 330.835 381.686 330.855 381.973 331.002C382.333 331.179 382.704 331.577 383.023 331.854C383.584 332.316 385.106 333.217 384.28 333.888C383.58 334.467 382.836 333.958 382.137 333.656C381.611 333.425 380.51 333.188 380.187 332.708L380.989 332.374L380.979 332.398Z" fill="white"/>
<path d="M410.923 336.786C410.974 337.399 410.746 338.128 410.734 338.788C410.73 339.466 410.714 340.066 410.71 340.743C410.695 342.182 411.371 342.33 412.651 342.554C413.689 342.736 414.672 342.837 415.705 342.959C416.025 342.99 416.807 343.196 417.1 343.115C417.635 342.974 417.687 342.461 417.834 341.929C418.137 340.841 418.275 339.698 418.157 338.581C418.082 337.957 418.092 337.196 417.993 336.664C417.909 336.167 417.6 335.476 417.099 335.256C416.054 334.811 414.392 334.849 413.355 335.158C412.171 335.508 410.604 335.629 409.589 336.482C409.618 336.552 409.619 336.653 409.631 336.73L410.92 336.828L410.923 336.786Z" fill="white"/>
<path d="M415.04 348.825C414.2 348.97 414.309 348.249 414.483 347.685C414.701 346.981 415.037 346.902 415.682 346.633C416.658 346.226 417.802 346.466 418.777 346.94C419.441 347.257 419.541 347.399 419.236 348.141C419.05 348.627 418.668 349.135 418.251 349.411C417.657 349.802 415.053 350.477 414.877 349.22L415.022 348.832L415.04 348.825Z" fill="white"/>
<path d="M277.735 221.112C277.32 220.753 276.553 220.336 276.512 219.698C276.454 219.067 276.968 218.484 277.433 218.127C278.38 217.404 280.092 218.124 280.926 218.8C281.519 219.289 281.927 219.631 281.808 220.377C281.708 220.971 281.65 221.323 281.104 221.632C280.178 222.161 278.093 222.559 277.461 221.288C277.384 221.299 277.307 221.311 277.23 221.322L277.753 221.104L277.735 221.112Z" fill="white"/>
<path d="M253.23 277.993C252.555 278.09 252.453 278.828 251.889 279.145C252.832 280.082 253.777 280.63 255.188 280.431C256.479 280.241 257.111 278.811 257.522 277.637C257.734 277.016 258.087 276.685 257.425 276.224C257.045 275.952 255.977 276.09 255.627 276.134C254.298 276.381 252.701 277.067 251.877 278.086L253.248 277.985L253.23 277.993Z" fill="white"/>
<path d="M220.212 215.016C219.071 215.225 218.946 214.09 218.56 213.31C218.205 212.557 216.771 211.62 217.475 210.855C218.024 210.258 219.027 210.454 219.662 210.456C220.22 210.469 220.439 210.357 221.068 210.443C221.462 210.504 221.828 210.597 222.212 210.682C224.264 211.137 225.297 212.487 224.258 214.414C223.791 215.305 223.124 216.013 222.053 216.193C221.462 216.296 220.32 216.158 219.968 215.609L220.202 215.041L220.212 215.016Z" fill="white"/>
<path d="M212.351 206.318C212.315 206.23 212.278 206.143 212.235 206.039C212.659 207.745 214.214 207.302 214.679 205.962C214.942 205.218 214.45 204.726 213.754 204.382C212.74 203.863 212.296 204.417 212.009 205.498L212.351 206.318Z" fill="white"/>
<path d="M162.374 165.351C162.233 165.307 162.075 165.271 161.934 165.227C161.841 166.084 163.451 167.297 164.104 167.782C165.054 168.491 166.063 168.603 167 167.66C167.701 166.938 168.111 165.662 168.734 164.849C169.495 163.877 169.956 163.214 168.678 162.212C167.433 161.236 164.764 159.545 163.247 160.177C161.249 161.03 160.738 163.781 161.572 165.685L162.374 165.351Z" fill="white"/>
<path d="M156.45 170.235C156.382 170.366 156.296 170.504 156.228 170.634C155.671 169.986 155.03 168.35 155.646 167.52C156.252 166.715 157.247 167.385 158.087 167.731C158.712 168.003 160.32 168.622 159.876 169.667C159.673 170.161 157.319 170.896 156.808 170.945C156.678 170.733 156.531 170.528 156.392 170.341C156.28 170.367 156.161 170.376 156.032 170.409L156.433 170.242L156.45 170.235Z" fill="white"/>
<path d="M183.882 401.725C183.637 400.598 185.035 398.256 186.04 397.918C187.237 397.501 188.891 398.573 189.551 399.567C191.198 402.094 185.899 405.632 184.45 401.959L183.882 401.725Z" fill="white"/>
<path d="M199.954 382.008C201.154 383.76 203.463 380.853 201.608 379.497C201.286 379.263 199.988 379.046 199.699 379.187C199.146 379.48 198.836 380.898 199.211 381.356L199.954 382.008Z" fill="white"/>
<path d="M234.424 436.193C233.326 436.405 232.86 435.289 233.192 434.414C233.479 433.68 234.265 433.209 234.855 432.758C235.542 432.247 236.542 431.749 237.384 432.052C238.136 432.333 238.291 433.148 238.835 433.863C239.736 435.043 240.105 436.813 238.639 437.813C237.219 438.774 234.973 437.56 234.424 436.193Z" fill="white"/>
<path d="M374.572 346.142C373.514 344.782 377.004 341.567 377.852 340.804C378.583 340.152 379.529 339.573 380.608 339.267C381.429 339.027 382.247 339.321 383.036 339.79C385.014 340.951 386.799 343.073 388.365 344.672C388.981 345.316 390.047 346.202 389.939 347.27C389.896 347.657 389.569 348.1 389.49 348.501C389.386 349.036 389.417 349.453 389.196 349.955C388.696 351.063 388.053 352.171 387.334 353.146C386.883 353.784 386.382 354.791 385.775 355.249C384.398 356.314 381.345 355.273 380.017 354.394C378.575 353.439 377.113 352.534 375.752 351.525C374.769 350.788 374.301 350.451 374.275 349.111C374.263 348.297 374.506 347.111 374.245 346.34C374.335 346.261 374.433 346.2 374.523 346.122L374.572 346.142Z" fill="white"/>
<path d="M366.156 319.417C365.965 319.497 365.789 319.468 365.661 319.358C364.98 320.522 366.168 320.968 367.018 321.043C367.616 321.102 369.843 320.849 370.123 320.097C370.393 319.371 368.807 318.313 368.291 318.057C366.997 317.409 366.235 317.788 365.421 318.782L366.164 319.435L366.156 319.417Z" fill="white"/>
<path d="M387.223 287.037C387.186 287.831 387.199 289.483 388.238 289.521C389.007 289.549 390.626 288.526 391.011 287.976C391.685 287.04 391.289 285.548 390.867 284.536C390.409 283.438 390.066 282.025 389.413 281.048C388.162 279.175 385.188 280.68 383.654 281.32C383.131 281.538 382.583 281.746 382.05 281.988C381.454 282.277 381.395 282.527 380.989 282.881C380.567 283.241 380.273 283.322 379.953 283.783C379.569 284.332 379.768 284.515 379.496 285.14C380.736 286.445 382.263 287.508 383.353 288.896C383.71 289.361 383.577 289.826 384.242 289.999C384.608 290.092 385.255 289.925 385.623 289.874C386.76 289.707 387.577 289.408 388.325 288.502L387.241 287.03L387.223 287.037Z" fill="white"/>
<path d="M375.37 280.003C375.129 279.817 374.93 279.634 374.723 279.433C375.189 277.213 378.213 280.148 377.281 281.151C376.887 281.581 375.099 282.101 374.604 281.898C373.765 281.552 373.647 280.434 374.376 279.926L375.345 279.993L375.37 280.003Z" fill="white"/>
<path d="M242.706 277.978C243.381 279.498 242.918 282.413 245.578 282.021C246.1 281.947 246.493 281.517 246.99 281.432C247.393 281.367 247.711 281.541 248.131 281.469C249.286 281.294 249.573 280.315 250.448 279.909C250.067 278.553 250.167 276.977 249.233 275.667C248.932 275.24 248.462 274.801 248.095 274.361C247.773 273.983 247.133 273.574 246.636 273.413C245.427 273.016 244.003 274.019 243.236 274.83C242.579 275.513 241.455 277.087 242.298 278.127L242.699 277.96L242.706 277.978Z" fill="white"/>
<path d="M235.27 262C235.173 262.061 235.065 262.147 234.968 262.208C235.134 263.981 235.911 263.636 237.149 263.121C238.09 262.728 239.276 261.988 238.52 260.912C237.464 259.407 234.231 259.26 234.695 261.749L235.263 261.983L235.27 262Z" fill="white"/>
<path d="M208.602 221.922C208.505 221.983 208.397 222.068 208.3 222.129C208.466 223.902 209.261 223.551 210.481 223.042C211.423 222.65 212.608 221.91 211.852 220.833C210.803 219.346 207.58 219.175 208.027 221.67L208.595 221.904L208.602 221.922Z" fill="white"/>
<path d="M193.199 187.465C192.981 186.942 192.808 185.888 192.216 185.991C192.291 186.759 192.9 188.367 193.773 188.597C194.671 188.837 195.303 187.652 195.922 187.272C196.763 186.737 197.356 186.981 197.662 185.85C197.966 184.762 197.521 184.579 196.943 183.878C196.104 182.897 194.809 180.919 193.33 182.232C192.644 182.845 192.165 185.869 192.456 186.812L193.199 187.465Z" fill="white"/>
<path d="M201.166 187.481C200.355 186.714 199.646 185.945 200.377 184.801C200.994 183.828 201.998 184.126 202.925 184.681C203.64 185.12 204.785 185.952 204.227 186.922C203.69 187.842 201.842 188.121 200.932 188.049L201.166 187.481Z" fill="white"/>
<path style="mix-blend-mode:screen" opacity="0.32" d="M145.378 124.517C145.378 124.517 164.804 116.482 171.122 107.729C177.447 98.9937 167.235 75.9645 157.706 71.2162C157.706 71.2162 160.249 89.8882 156.503 102.994C152.756 116.099 145.378 124.517 145.378 124.517Z" fill="url(#paint3_linear_416_2117)"/>
<defs>
<linearGradient id="paint0_linear_416_2117" x1="344.337" y1="480.027" x2="170.134" y2="65.2843" gradientUnits="userSpaceOnUse">
<stop stop-color="#FF87DF"/>
<stop offset="1" stop-color="#E431FF"/>
</linearGradient>
<linearGradient id="paint1_linear_416_2117" x1="296.209" y1="469.1" x2="93.852" y2="34.5802" gradientUnits="userSpaceOnUse">
<stop offset="0.43" stop-color="#B300FF"/>
<stop offset="1" stop-color="#6B0099" stop-opacity="0"/>
</linearGradient>
<radialGradient id="paint2_radial_416_2117" cx="0" cy="0" r="1" gradientUnits="userSpaceOnUse" gradientTransform="translate(283.488 360.583) rotate(-22.7737) scale(177.117 181.635)">
<stop stop-color="#FF73FF"/>
<stop offset="1" stop-color="#994599" stop-opacity="0"/>
</radialGradient>
<linearGradient id="paint3_linear_416_2117" x1="122.622" y1="0.587311" x2="60.8858" y2="113.309" gradientUnits="userSpaceOnUse">
<stop offset="0.43" stop-color="#B300FF"/>
<stop offset="1" stop-color="#6B0099" stop-opacity="0"/>
</linearGradient>
</defs>
</svg>
