<svg width="1278" height="2779" viewBox="0 0 1278 2779" fill="none" xmlns="http://www.w3.org/2000/svg">
<path d="M1231.15 1334.74L435.991 826.704C405.588 807.28 405.138 763.031 435.139 742.992L887.945 440.54C949.275 399.575 946.671 308.578 883.097 271.188L434.325 7.24738C416.629 -3.16046 394.369 -1.6933 378.192 10.9471L281.5 86.5L392.5 157.5L665.257 311.495C697.933 329.943 699.399 376.472 667.949 396.941L452.75 537L201.061 700.622C139.995 740.322 140.496 829.897 202.004 868.909L978.11 1361.17C1009.87 1381.32 1008.86 1428 976.246 1446.74L580 1674.5L52.5121 1963.06C-8.58076 1996.49 -17.6617 2080.56 34.8854 2126.25L785.5 2779H887L548.5 2428L286.248 2128.41C265.605 2104.83 271.497 2068.28 298.505 2052.39L1228.04 1505.19C1292.35 1467.33 1294.03 1374.92 1231.15 1334.74Z" fill="url(#paint0_linear_416_3560)"/>
<path d="M1231.15 1334.74L435.991 826.704C405.588 807.28 405.138 763.031 435.139 742.992L887.945 440.54C949.275 399.575 946.671 308.578 883.097 271.188L434.325 7.24738C416.629 -3.16046 394.369 -1.6933 378.192 10.9471L281.5 86.5L392.5 157.5L665.257 311.495C697.933 329.943 699.399 376.472 667.949 396.941L452.75 537L201.061 700.622C139.995 740.322 140.496 829.897 202.004 868.909L978.11 1361.17C1009.87 1381.32 1008.86 1428 976.246 1446.74L580 1674.5L52.5121 1963.06C-8.58076 1996.49 -17.6617 2080.56 34.8854 2126.25L785.5 2779H887L548.5 2428L286.248 2128.41C265.605 2104.83 271.497 2068.28 298.505 2052.39L1228.04 1505.19C1292.35 1467.33 1294.03 1374.92 1231.15 1334.74Z" fill="url(#paint1_linear_416_3560)" fill-opacity="0.75"/>
<path d="M1231.15 1334.74L435.991 826.704C405.588 807.28 405.138 763.031 435.139 742.992L887.945 440.54C949.275 399.575 946.671 308.578 883.097 271.188L434.325 7.24738C416.629 -3.16046 394.369 -1.6933 378.192 10.9471L281.5 86.5L392.5 157.5L665.257 311.495C697.933 329.943 699.399 376.472 667.949 396.941L452.75 537L201.061 700.622C139.995 740.322 140.496 829.897 202.004 868.909L978.11 1361.17C1009.87 1381.32 1008.86 1428 976.246 1446.74L580 1674.5L52.5121 1963.06C-8.58076 1996.49 -17.6617 2080.56 34.8854 2126.25L785.5 2779H887L548.5 2428L286.248 2128.41C265.605 2104.83 271.497 2068.28 298.505 2052.39L1228.04 1505.19C1292.35 1467.33 1294.03 1374.92 1231.15 1334.74Z" fill="url(#paint2_linear_416_3560)" fill-opacity="0.75"/>
<defs>
<linearGradient id="paint0_linear_416_3560" x1="639" y1="-10" x2="639" y2="2784.5" gradientUnits="userSpaceOnUse">
<stop stop-color="#C11E69"/>
<stop offset="1" stop-color="#9E346C"/>
</linearGradient>
<linearGradient id="paint1_linear_416_3560" x1="1368.5" y1="1387.25" x2="476.5" y2="1387.25" gradientUnits="userSpaceOnUse">
<stop stop-color="#6E7197"/>
<stop offset="1" stop-color="#6A6C8C" stop-opacity="0"/>
</linearGradient>
<linearGradient id="paint2_linear_416_3560" x1="1368.5" y1="1387.25" x2="-229" y2="1387" gradientUnits="userSpaceOnUse">
<stop offset="0.701603" stop-color="#404257" stop-opacity="0"/>
<stop offset="1" stop-color="#404257"/>
</linearGradient>
</defs>
</svg>
