<svg width="21" height="26" viewBox="0 0 21 26" fill="none" xmlns="http://www.w3.org/2000/svg">
<path opacity="0.24" d="M13.8617 24.9514C13.8617 24.9514 15.3964 23.1625 16.2646 22.6062C17.1327 22.0499 16.1616 17.7683 14.8074 16.1472C13.4531 14.525 11.4323 13.0388 11.2763 12.3317C11.1203 11.6246 11.5215 10.2626 11.9036 9.91541C12.2846 9.56825 14.4677 9.74661 14.8031 9.00771C15.1385 8.26881 13.625 5.87375 12.3631 5.30047C11.1023 4.72718 10.9675 5.09663 10.2033 5.05204C9.43812 5.00852 9.18977 4.76753 8.80875 4.98198C8.42668 5.19537 7.62007 6.14766 6.9663 5.9056C6.31358 5.66355 7.24967 3.16976 7.91406 2.86719C8.57739 2.56569 9.31925 2.56356 9.49968 2.4712C9.67904 2.37884 9.96772 0.670663 9.47102 0.0718994C9.47102 0.0718994 9.70027 1.75566 7.52137 2.63788C7.52137 2.63788 6.80391 3.49356 6.49295 5.10937C6.18198 6.72519 6.36346 7.00121 6.49825 7.02351C6.63304 7.0458 7.17113 6.12218 8.81406 6.55639C10.457 6.9906 10.5514 8.53528 9.78942 9.43767C9.02739 10.339 6.28599 11.4548 5.61417 12.5292C4.94235 13.6035 6.34224 15.7088 5.8275 16.7088C5.31275 17.7078 3.87466 18.3119 4.06039 20.3184C4.24612 22.3249 9.77881 26.7169 13.8628 24.9525L13.8617 24.9514Z" fill="url(#paint0_linear_586_9)"/>
<path style="mix-blend-mode:screen" opacity="0.32" d="M13.6378 24.3887C13.6378 24.3887 15.1905 22.5277 15.9663 22.326C16.7422 22.1243 15.7424 17.1346 14.3075 15.9774C12.8726 14.8202 10.4708 13.1704 10.2967 12.7181C10.1237 12.2648 10.7245 9.91648 11.4504 9.43344C12.1774 8.95039 13.8702 8.57988 14.1483 8.12762C14.4264 7.67537 12.4831 5.64021 11.6828 5.46822C10.8815 5.29623 10.5674 5.54572 10.0569 5.47247C9.54745 5.39921 8.19532 5.90031 8.19532 5.90031C8.19532 5.90031 9.55063 5.56801 10.2787 6.25277C11.0068 6.93753 10.9134 8.32296 10.0187 9.43662C9.12398 10.5503 6.65216 11.6278 6.36348 12.6481C6.0748 13.6683 6.69036 16.0018 6.43989 17.0464C6.18942 18.0911 5.10581 18.8024 4.85533 20.1687C4.60486 21.535 7.97881 24.0978 10.5557 24.6478C13.1326 25.1977 13.6367 24.3877 13.6367 24.3877L13.6378 24.3887Z" fill="url(#paint1_linear_586_9)"/>
<path d="M10.7525 24.95C16.2605 24.9355 20.7137 20.3447 20.6989 14.6961C20.6842 9.04741 16.207 4.47997 10.6989 4.49439C5.19088 4.50881 0.737693 9.09964 0.752477 14.7483C0.76726 20.3969 5.24441 24.9644 10.7525 24.95Z" fill="url(#paint2_radial_586_9)" fill-opacity="0.7" style="mix-blend-mode:screen"/>
<path d="M8.98293 12.1597C8.87892 12.4177 9.15062 12.8561 9.41913 12.6374C9.75769 12.3614 9.19095 12.131 8.98293 12.1597Z" fill="white"/>
<path d="M8.72714 13.0897C8.72077 13.1545 8.74094 13.2245 8.76535 13.284C8.87042 13.3063 8.92455 13.2936 8.98929 13.2224C8.94259 13.1471 8.87679 13.1258 8.79188 13.1237L8.72714 13.0908V13.0897Z" fill="white"/>
<path d="M11.321 15.1398C11.1003 15.6366 11.4378 15.9434 11.9324 15.8627C12.0714 15.4073 11.9154 14.7151 11.32 15.0729V15.1387L11.321 15.1398Z" fill="white"/>
<path d="M13.6803 14.5357C13.6708 14.5856 13.6803 14.6482 13.6856 14.697C13.7684 14.7183 13.8618 14.7034 13.934 14.662C13.952 14.5197 13.8947 14.3881 13.7854 14.3085C13.7313 14.3552 13.726 14.404 13.7132 14.4698L13.6814 14.5367L13.6803 14.5357Z" fill="white"/>
<path d="M5.55058 19.5095C5.54103 19.5594 5.55058 19.622 5.55589 19.6698C5.63867 19.691 5.73207 19.6762 5.80424 19.6348C5.82228 19.4925 5.76497 19.3609 5.65565 19.2812C5.60152 19.328 5.59622 19.3768 5.58348 19.4426L5.55164 19.5095H5.55058Z" fill="white"/>
<path d="M9.7566 10.8975C9.7566 10.89 9.7566 10.8826 9.7566 10.8752C9.7566 10.9994 9.6579 11.1629 9.7895 11.2552C9.85 11.2977 9.92217 11.2945 9.98479 11.3115C10.0538 11.3306 10.0803 11.3338 10.1153 11.2627C10.1387 11.2149 10.1387 11.1491 10.145 11.0949C10.1546 11.0164 10.2045 11.0047 10.1376 10.9389C10.0548 10.8571 9.87335 10.837 9.76297 10.8709C9.76085 10.8805 9.75979 10.889 9.75766 10.8985L9.7566 10.8975Z" fill="white"/>
<path d="M11.7955 11.3231C11.7785 11.2573 11.8729 11.1214 11.9409 11.1214C12.0374 11.1214 12.0926 11.2806 12.1117 11.355C12.1436 11.476 12.0491 11.5216 11.9653 11.4463C11.9334 11.4176 11.9027 11.3857 11.8719 11.3592C11.8475 11.338 11.8496 11.3518 11.8262 11.3231C11.8124 11.3061 11.805 11.2753 11.7944 11.2562V11.3231H11.7955Z" fill="white"/>
<path d="M7.69336 13.5898C7.69124 13.5802 7.68912 13.5696 7.687 13.5601C7.61801 13.558 7.61058 13.6493 7.64667 13.6917C7.6732 13.7214 7.71353 13.7119 7.74325 13.7236C7.75598 13.7278 7.78782 13.7469 7.79737 13.749C7.90563 13.7703 7.99584 13.7958 8.11365 13.7894C8.3811 13.7756 8.31636 13.4051 8.2495 13.249C8.21129 13.1588 8.18582 13.0346 8.07969 12.9985C7.98098 12.9645 7.85787 12.991 7.77933 13.0494C7.6923 13.1142 7.68487 13.2193 7.66046 13.3085C7.6456 13.3626 7.6265 13.3934 7.62756 13.4571C7.62862 13.5229 7.62756 13.5898 7.62756 13.6556L7.6923 13.5887L7.69336 13.5898Z" fill="white"/>
<path d="M7.55224 9.11172C7.51722 9.03529 7.49811 8.9684 7.55224 8.89621C7.56498 8.87816 7.60318 8.83039 7.62335 8.81977C7.63184 8.81447 7.73266 8.78156 7.73373 8.78156C7.78679 8.78262 7.85366 8.86224 7.877 8.91108C7.88337 8.92488 7.90884 8.99388 7.91097 9.01087C7.91733 9.06714 7.87276 9.08518 7.87064 9.13933C7.81651 9.14676 7.78149 9.1733 7.7316 9.18073C7.67217 9.18922 7.6329 9.12977 7.58408 9.11279H7.55224V9.11172Z" fill="white"/>
<path d="M16.8261 17.281C16.8187 16.9615 17.2973 17.2885 17.102 17.4466C17.0171 17.5157 16.9195 17.4753 16.842 17.4148C16.7868 17.3723 16.6743 17.2577 16.6966 17.1823L16.8261 17.281Z" fill="white"/>
<path d="M16.5607 14.8595C16.5427 14.971 16.4906 15.0368 16.6265 15.075C16.6859 15.092 16.7857 15.1642 16.8388 15.092C16.8823 15.0325 16.8536 14.9126 16.8207 14.8584C16.774 14.7809 16.6944 14.7332 16.6 14.765C16.5978 14.7746 16.5968 14.783 16.5947 14.7926L16.5628 14.8595H16.5607Z" fill="white"/>
<path d="M12.2264 15.0537C12.203 15.1015 12.1797 15.1461 12.1977 15.2034C12.2041 15.2225 12.2285 15.2469 12.2476 15.2491C12.272 15.2512 12.2879 15.2385 12.3166 15.2353C12.3537 15.2321 12.358 15.2363 12.3569 15.1939C12.3569 15.1705 12.3505 15.1429 12.3367 15.1227C12.3198 15.0994 12.2699 15.0421 12.2433 15.0367L12.2274 15.0537H12.2264Z" fill="white"/>
<path d="M14.3288 14.783C14.3288 14.783 14.3192 14.7894 14.315 14.7936C14.3352 14.7575 14.3808 14.731 14.4233 14.7533C14.4445 14.765 14.453 14.7958 14.4593 14.817C14.4657 14.8393 14.4721 14.8584 14.4753 14.8828C14.4827 14.9348 14.4413 14.9837 14.3861 14.9656C14.3553 14.955 14.2853 14.8722 14.297 14.834L14.3288 14.7841V14.783Z" fill="white"/>
<path d="M3.03631 20.0997C3.03631 20.0997 3.02676 20.1061 3.02252 20.1103C3.04268 20.0753 3.08832 20.0477 3.13077 20.07C3.152 20.0817 3.16049 20.1135 3.16686 20.1337C3.17322 20.156 3.17959 20.1751 3.18278 20.1995C3.1902 20.2515 3.14881 20.3004 3.09362 20.2823C3.06285 20.2717 2.9928 20.1889 3.00447 20.1507L3.03631 20.1008V20.0997Z" fill="white"/>
<path d="M4.51797 17.5964C4.44792 17.6675 4.39804 17.7875 4.38849 17.8873C4.38106 17.9616 4.47233 18.0454 4.51479 18.0985C4.54557 18.1378 4.57953 18.1728 4.61667 18.2068C4.64639 18.2334 4.68035 18.2525 4.70901 18.2801C4.73766 18.3077 4.77163 18.3215 4.80028 18.3438C4.80877 18.3512 4.82575 18.3714 4.83637 18.3724C4.84804 18.3735 4.88519 18.348 4.89792 18.3395C4.98177 18.2864 5.05925 18.227 5.1346 18.1612C5.17811 18.124 5.25135 18.0667 5.26408 18.0094C5.28531 17.9106 5.21951 17.8034 5.1813 17.7185C5.15158 17.6537 5.12611 17.555 5.07198 17.5061C5.03696 17.4754 4.99132 17.4753 4.94568 17.4785C4.91703 17.4796 4.91384 17.4913 4.8905 17.4966C4.86184 17.503 4.83743 17.5019 4.80877 17.5125C4.77057 17.5274 4.72281 17.5465 4.67929 17.5454C4.63153 17.5454 4.59014 17.556 4.51797 17.5953V17.5964Z" fill="white"/>
<path d="M4.03394 18.3269C4.03394 18.3683 4.0297 18.4309 4.07003 18.4564C4.11142 18.4819 4.16236 18.4214 4.18996 18.3969C4.18465 18.3874 4.16979 18.3651 4.16448 18.3598C4.15493 18.3502 4.1475 18.3492 4.13477 18.3396C4.11885 18.3279 4.07321 18.277 4.06684 18.3269H4.035H4.03394Z" fill="white"/>
<path d="M6.41662 19.8629C6.41344 19.8905 6.38797 19.881 6.37523 19.8629C6.36143 19.8449 6.3678 19.8183 6.3678 19.796C6.3678 19.7334 6.40176 19.7228 6.45695 19.7376C6.53549 19.7589 6.63632 19.7875 6.6586 19.8863C6.67028 19.9383 6.6586 19.9606 6.61615 19.9818C6.58219 19.9988 6.55247 20.0232 6.51532 20.0285C6.47393 20.0338 6.44528 20.0084 6.43572 19.9691C6.43254 19.9553 6.43785 19.9415 6.43572 19.9277C6.4336 19.9192 6.42405 19.9149 6.42193 19.9086C6.41556 19.8831 6.41874 19.8555 6.41768 19.829V19.8619L6.41662 19.8629Z" fill="white"/>
<path d="M11.9589 17.8086C11.9589 17.8086 11.9494 17.8065 11.9451 17.8055C11.9526 17.746 12.0258 17.7821 12.0481 17.8086C12.0725 17.8384 12.1118 17.8946 12.0852 17.9382C12.0576 17.9828 11.9993 17.9509 11.9706 17.9297C11.9313 17.9021 11.9271 17.8373 11.926 17.7927L11.9589 17.8097V17.8086Z" fill="white"/>
<path d="M15.854 16.6367C15.8158 16.6452 15.7723 16.7588 15.7903 16.7928C15.8031 16.8172 15.8551 16.8246 15.8784 16.8331C15.9081 16.8437 15.9368 16.8533 15.9633 16.866C15.9824 16.8384 16.0005 16.7747 15.9984 16.7429C15.9973 16.7068 15.9686 16.6749 15.9633 16.6378C15.94 16.6378 15.9251 16.6208 15.9018 16.6187C15.8774 16.6155 15.8455 16.6155 15.8232 16.6219C15.8232 16.6261 15.8211 16.6314 15.8201 16.6357H15.8519L15.854 16.6367Z" fill="white"/>
<path d="M14.8551 18.1325C14.8307 18.1378 14.8169 18.1718 14.8063 18.192C14.7904 18.2238 14.7776 18.2546 14.7617 18.2864C14.7394 18.3321 14.7023 18.4085 14.75 18.4489C14.802 18.4924 14.8965 18.4988 14.9602 18.5147C15.0239 18.5306 15.1077 18.572 15.1682 18.5285C15.2276 18.4871 15.2414 18.4319 15.2627 18.3639C15.2828 18.2971 15.2998 18.2291 15.3231 18.1654C15.3338 18.1367 15.3327 18.106 15.3401 18.0752C15.3433 18.0592 15.3571 18.0539 15.3561 18.0327C15.3561 18.0104 15.3391 17.9934 15.3263 17.9786C15.3115 17.9605 15.286 17.9403 15.2637 17.935C15.2478 17.9308 15.2319 17.9372 15.216 17.935C15.1979 17.9319 15.1862 17.9223 15.1682 17.917C15.1491 17.9127 15.1226 17.917 15.1024 17.917C15.078 17.918 15.0727 17.9265 15.0525 17.9319C15.0164 17.9425 14.9825 17.9478 14.9485 17.9669C14.9177 17.9849 14.8891 18.003 14.8636 18.0295C14.8424 18.0508 14.8328 18.0932 14.8031 18.1007L14.8519 18.1336L14.8551 18.1325Z" fill="white"/>
<path d="M15.406 18.4457C15.406 18.4457 15.3965 18.4436 15.3922 18.4426C15.3869 18.4118 15.4262 18.3852 15.4432 18.3651C15.4612 18.3735 15.4761 18.381 15.4878 18.3948C15.5026 18.4118 15.5132 18.4404 15.5238 18.4617C15.5429 18.4978 15.6024 18.5774 15.5451 18.5944C15.4962 18.6092 15.4687 18.5668 15.4389 18.536C15.4166 18.5126 15.3646 18.4765 15.3583 18.4447H15.4071L15.406 18.4457Z" fill="white"/>
<path d="M16.8642 19.3205C16.8536 19.3534 16.826 19.3863 16.8112 19.4202C16.7963 19.4553 16.7825 19.4861 16.7677 19.5211C16.7358 19.5954 16.7677 19.6177 16.8292 19.657C16.8791 19.6888 16.9279 19.7154 16.9789 19.744C16.9948 19.7525 17.0309 19.7801 17.0478 19.7823C17.0786 19.7865 17.0924 19.761 17.1115 19.7366C17.1508 19.6867 17.1826 19.6305 17.2007 19.5699C17.2102 19.536 17.2272 19.4967 17.2336 19.467C17.2399 19.4394 17.2389 19.3969 17.2177 19.3746C17.1731 19.3289 17.0861 19.295 17.0256 19.2886C16.9566 19.2812 16.8727 19.2536 16.8016 19.2759C16.8016 19.2801 16.7995 19.2854 16.7984 19.2897L16.8632 19.3226L16.8642 19.3205Z" fill="white"/>
<path d="M16.8177 20.0339C16.771 20.0233 16.7922 19.9883 16.8134 19.9628C16.8399 19.9309 16.859 19.9341 16.8983 19.9341C16.9577 19.9341 17.0119 19.9713 17.0522 20.0169C17.0798 20.0477 17.0819 20.0573 17.0501 20.0891C17.0299 20.1103 16.9991 20.1284 16.9715 20.1337C16.9323 20.1411 16.7826 20.1199 16.8007 20.0509L16.8166 20.0339H16.8177Z" fill="white"/>
<path d="M12.4566 10.442C12.4428 10.4144 12.4121 10.3762 12.4237 10.3422C12.4343 10.3082 12.4736 10.2891 12.5055 10.2806C12.5702 10.2636 12.6434 10.3379 12.6721 10.391C12.6922 10.4292 12.706 10.4558 12.6838 10.4919C12.6657 10.5205 12.6551 10.5375 12.6201 10.5418C12.5606 10.5492 12.4439 10.5248 12.4386 10.4452C12.4343 10.4441 12.4301 10.443 12.4259 10.442H12.4577H12.4566Z" fill="white"/>
<path d="M9.95615 12.8625C9.91901 12.853 9.89778 12.889 9.86169 12.8933C9.89035 12.9623 9.9275 13.0111 10.005 13.0313C10.0761 13.0494 10.1398 12.9888 10.1865 12.9368C10.2109 12.9092 10.2363 12.8997 10.2119 12.8614C10.1981 12.8392 10.1398 12.8232 10.1207 12.8179C10.0464 12.802 9.94872 12.8031 9.88398 12.8381L9.95721 12.8625H9.95615Z" fill="white"/>
<path d="M9.60491 8.88254C9.54123 8.86873 9.55927 8.80716 9.55609 8.75832C9.55396 8.71161 9.49984 8.63199 9.5529 8.60757C9.59429 8.58846 9.64205 8.62031 9.67495 8.63411C9.70361 8.64685 9.71741 8.64579 9.74819 8.66384C9.76729 8.67552 9.78427 8.68826 9.80231 8.701C9.89889 8.76894 9.9233 8.8613 9.82778 8.9388C9.78427 8.9749 9.73439 8.99719 9.67495 8.98339C9.64205 8.97596 9.5858 8.94411 9.57943 8.90802L9.60385 8.8836L9.60491 8.88254Z" fill="white"/>
<path d="M9.38518 8.26134C9.38518 8.25603 9.38518 8.25072 9.38518 8.24435C9.37032 8.34202 9.46053 8.35264 9.5136 8.29319C9.54331 8.26028 9.52845 8.22418 9.4998 8.19127C9.45841 8.14244 9.42338 8.16155 9.38518 8.21144V8.26134Z" fill="white"/>
<path d="M7.67862 5.05631C7.67225 5.051 7.66482 5.04569 7.65846 5.04038C7.63511 5.08285 7.69242 5.18052 7.71577 5.2198C7.74973 5.27713 7.79961 5.30473 7.8686 5.27607C7.9206 5.25377 7.96942 5.19645 8.01931 5.16778C8.0798 5.13381 8.11801 5.10939 8.07343 5.02977C8.02992 4.95227 7.92803 4.80682 7.8357 4.80682C7.71364 4.80789 7.62768 4.93953 7.6298 5.05631H7.67862Z" fill="white"/>
<path d="M7.26565 5.18149C7.25928 5.1868 7.25185 5.1921 7.24549 5.19741C7.23063 5.15176 7.23275 5.05303 7.28263 5.0233C7.33145 4.99464 7.3686 5.05091 7.40468 5.087C7.43122 5.1146 7.50126 5.18149 7.45563 5.22608C7.4344 5.24731 7.29643 5.23457 7.26883 5.22608C7.26671 5.21228 7.26353 5.19847 7.26034 5.18573C7.25398 5.18467 7.24761 5.18255 7.24018 5.18149H7.26459H7.26565Z" fill="white"/>
<path d="M3.68481 17.7811C3.69649 17.7174 3.8196 17.6261 3.87904 17.6304C3.95015 17.6346 4.01276 17.7259 4.0255 17.7918C4.05628 17.9584 3.70498 18.0274 3.70923 17.8056L3.68481 17.7811Z" fill="white"/>
<path d="M4.94462 17.1059C4.96903 17.2227 5.15158 17.1218 5.08471 17.0114C5.07304 16.9923 5.01042 16.953 4.99238 16.9541C4.95735 16.9572 4.91066 17.0241 4.92021 17.056L4.94462 17.1059Z" fill="white"/>
<path d="M5.56121 20.6613C5.49966 20.6486 5.49966 20.5806 5.53574 20.5424C5.56652 20.5106 5.61746 20.5031 5.65779 20.4925C5.70449 20.4808 5.76711 20.4766 5.80426 20.5106C5.83716 20.5413 5.8276 20.587 5.84034 20.6358C5.86157 20.7165 5.84246 20.8163 5.74482 20.8365C5.65036 20.8556 5.56015 20.7441 5.56121 20.6613Z" fill="white"/>
<path d="M14.7767 19.02C14.7512 18.9266 15.0017 18.8353 15.0622 18.8141C15.1142 18.796 15.1757 18.7865 15.2384 18.7939C15.2861 18.7992 15.3222 18.8321 15.353 18.8735C15.4305 18.9765 15.4772 19.1251 15.5239 19.2419C15.5419 19.2886 15.578 19.3576 15.5493 19.4107C15.5387 19.4298 15.5122 19.4458 15.4994 19.4649C15.4825 19.4904 15.475 19.5126 15.4527 19.5339C15.4029 19.5806 15.3456 19.6241 15.2872 19.6592C15.25 19.6825 15.2023 19.7239 15.1609 19.7345C15.0664 19.76 14.9306 19.64 14.8807 19.5657C14.8266 19.485 14.7703 19.4065 14.7215 19.3247C14.6865 19.2653 14.6695 19.2377 14.6971 19.1676C14.7141 19.1251 14.7523 19.0689 14.7555 19.0232C14.7618 19.0211 14.7682 19.02 14.7746 19.0179L14.7767 19.02Z" fill="white"/>
<path d="M14.9179 17.4519C14.9062 17.4519 14.8977 17.4466 14.8935 17.4381C14.833 17.4838 14.885 17.5326 14.9275 17.5549C14.9572 17.5708 15.0782 17.6059 15.1089 17.573C15.1387 17.5411 15.0792 17.4519 15.058 17.4275C15.0049 17.3659 14.9572 17.3691 14.8935 17.4031L14.9179 17.453V17.4519Z" fill="white"/>
<path d="M16.7104 16.2279C16.6913 16.2683 16.6562 16.3543 16.7093 16.3787C16.7486 16.3967 16.8547 16.3787 16.8866 16.3585C16.9417 16.3245 16.9534 16.2385 16.9534 16.177C16.9534 16.1101 16.9662 16.0294 16.9534 15.9646C16.929 15.8404 16.7422 15.8542 16.6488 15.8542C16.617 15.8542 16.5841 15.8532 16.5512 15.8542C16.514 15.8564 16.5055 15.868 16.4769 15.8776C16.4472 15.8871 16.4302 15.885 16.4037 15.902C16.3718 15.9222 16.3782 15.936 16.3506 15.9625C16.3867 16.057 16.4429 16.1451 16.4695 16.2407C16.4779 16.2725 16.461 16.2937 16.4917 16.3171C16.5087 16.3298 16.5459 16.3352 16.566 16.3405C16.6287 16.3564 16.6775 16.3585 16.7358 16.3277L16.7114 16.2279H16.7104Z" fill="white"/>
<path d="M16.2476 15.6068C16.2391 15.592 16.2328 15.5782 16.2264 15.5633C16.2986 15.4582 16.392 15.6758 16.3219 15.7077C16.2922 15.7215 16.1882 15.7098 16.167 15.6886C16.1309 15.6525 16.1489 15.592 16.1977 15.5813L16.2466 15.6058L16.2476 15.6068Z" fill="white"/>
<path d="M9.41059 12.6342C9.41271 12.7276 9.32568 12.8688 9.47214 12.906C9.5008 12.9134 9.53052 12.8996 9.55811 12.906C9.5804 12.9113 9.59313 12.9272 9.61648 12.9325C9.68016 12.9485 9.71625 12.9039 9.77037 12.9018C9.77993 12.8232 9.8192 12.7436 9.79903 12.6555C9.79266 12.6268 9.7778 12.5939 9.76825 12.5631C9.75976 12.5366 9.73535 12.5015 9.71306 12.4824C9.65894 12.4357 9.56342 12.4569 9.5061 12.4824C9.45728 12.5036 9.36495 12.561 9.38617 12.6332H9.41059V12.6342Z" fill="white"/>
<path d="M9.37029 11.6448C9.36392 11.6459 9.35649 11.648 9.35012 11.6491C9.32041 11.7446 9.36817 11.7436 9.44352 11.7436C9.50083 11.7436 9.57831 11.7308 9.56239 11.6586C9.5401 11.5578 9.3756 11.4803 9.34588 11.6194L9.37029 11.6438V11.6448Z" fill="white"/>
<path d="M8.85346 8.98964C8.84709 8.9907 8.83966 8.99283 8.8333 8.99389C8.80358 9.08944 8.8524 9.08837 8.92669 9.08837C8.984 9.08837 9.06148 9.07564 9.04556 9.00344C9.02327 8.90365 8.85983 8.82509 8.82905 8.96416L8.85346 8.98858V8.98964Z" fill="white"/>
<path d="M8.79936 6.86963C8.79936 6.83778 8.81316 6.77939 8.78026 6.77196C8.76752 6.81337 8.76434 6.90998 8.80467 6.94076C8.84606 6.97261 8.90443 6.92484 8.94476 6.91847C8.99995 6.90891 9.02542 6.93439 9.06575 6.88237C9.10502 6.83248 9.08592 6.81337 9.07106 6.76453C9.04877 6.69552 9.02436 6.56494 8.91929 6.60104C8.87047 6.61803 8.78026 6.76453 8.77495 6.81974L8.79936 6.86963Z" fill="white"/>
<path d="M9.21218 7.04263C9.1867 6.9853 9.16654 6.9301 9.22916 6.88657C9.28222 6.84941 9.32786 6.88657 9.36395 6.93541C9.39154 6.97363 9.43293 7.04157 9.38305 7.07979C9.33529 7.11588 9.2334 7.09041 9.18776 7.06705L9.21218 7.04263Z" fill="white"/>
<path style="mix-blend-mode:screen" opacity="0.32" d="M7.67957 2.57109C7.67957 2.57109 8.86082 2.57428 9.37768 2.25685C9.89455 1.94048 9.86271 0.525317 9.47108 0.0730591C9.47108 0.0730591 9.19938 1.09648 8.72179 1.69524C8.24419 2.29401 7.67957 2.57109 7.67957 2.57109Z" fill="url(#paint3_linear_586_9)"/>
<defs>
<linearGradient id="paint0_linear_586_9" x1="10.3145" y1="25.3106" x2="10.2439" y2="0.0339341" gradientUnits="userSpaceOnUse">
<stop stop-color="#FF87DF"/>
<stop offset="1" stop-color="#E431FF"/>
</linearGradient>
<linearGradient id="paint1_linear_586_9" x1="8.05437" y1="23.7036" x2="6.95104" y2="-3.20742" gradientUnits="userSpaceOnUse">
<stop offset="0.43" stop-color="#B300FF"/>
<stop offset="1" stop-color="#6B0099" stop-opacity="0"/>
</linearGradient>
<radialGradient id="paint2_radial_586_9" cx="0" cy="0" r="1" gradientUnits="userSpaceOnUse" gradientTransform="translate(10.5947 14.5806) rotate(-0.150045) scale(9.95225 10.2062)">
<stop stop-color="#FF73FF"/>
<stop offset="1" stop-color="#994599" stop-opacity="0"/>
</radialGradient>
<linearGradient id="paint3_linear_586_9" x1="9.17804" y1="-4.34857" x2="3.53951" y2="0.163472" gradientUnits="userSpaceOnUse">
<stop offset="0.43" stop-color="#B300FF"/>
<stop offset="1" stop-color="#6B0099" stop-opacity="0"/>
</linearGradient>
</defs>
</svg>
