<svg width="1920" height="232" viewBox="0 0 1920 232" fill="none" xmlns="http://www.w3.org/2000/svg">
<path d="M190.034 220.878C353.317 226.533 487.316 183.963 489.331 125.797C491.345 67.6306 360.612 15.8933 197.329 10.2387C34.0466 4.58401 -99.953 47.1532 -101.967 105.32C-103.982 163.486 26.7516 215.223 190.034 220.878Z" fill="url(#paint0_radial_430_10)" fill-opacity="0.7" style="mix-blend-mode:screen"/>
<path d="M1739.65 220.878C1902.93 226.533 2036.93 183.963 2038.95 125.797C2040.96 67.6306 1910.23 15.8933 1746.94 10.2387C1583.66 4.58401 1449.66 47.1532 1447.65 105.32C1445.63 163.486 1576.37 215.223 1739.65 220.878Z" fill="url(#paint1_radial_430_10)" fill-opacity="0.7" style="mix-blend-mode:screen"/>
<path d="M959.5 131.148C583.691 131.148 0 58 0 58V131.148C0 131.148 584.596 162 959.5 162C1334.4 162 1919 131.148 1919 131.148V58C1919 58 1335.31 131.148 959.5 131.148Z" fill="url(#paint2_linear_430_10)"/>
<defs>
<radialGradient id="paint0_radial_430_10" cx="0" cy="0" r="1" gradientUnits="userSpaceOnUse" gradientTransform="translate(189.861 113.963) rotate(1.98343) scale(295.203 105.16)">
<stop stop-color="#FF73FF"/>
<stop offset="1" stop-color="#994599" stop-opacity="0"/>
</radialGradient>
<radialGradient id="paint1_radial_430_10" cx="0" cy="0" r="1" gradientUnits="userSpaceOnUse" gradientTransform="translate(1739.48 113.963) rotate(1.98343) scale(295.203 105.16)">
<stop stop-color="#FF73FF"/>
<stop offset="1" stop-color="#994599" stop-opacity="0"/>
</radialGradient>
<linearGradient id="paint2_linear_430_10" x1="959.5" y1="58" x2="959.5" y2="162" gradientUnits="userSpaceOnUse">
<stop stop-color="#BA88BD"/>
<stop offset="1" stop-color="#E1CEE5"/>
</linearGradient>
</defs>
</svg>
