<svg width="449" height="242" viewBox="0 0 449 242" fill="none" xmlns="http://www.w3.org/2000/svg">
<path d="M345.644 174.579C349.568 170.517 346.54 165.212 346.549 160.275C343.541 127.042 342.227 105.323 347.406 71.7107C348.058 69.4757 347.309 67.0949 346.267 65.2195C346.676 61.2353 345.002 57.3484 341.545 55.2494C340.231 54.3943 338.596 53.7529 336.989 53.4128C337.077 49.4189 342.237 44.3076 337.252 41.5187C336.259 41.0134 335.383 39.0407 334.263 38.9144C331.878 38.7687 328.519 41.4021 328.324 44.2007C328.091 47.4755 330.087 49.0691 329.941 53.5488C325.637 54.5789 321.412 58.1063 321.305 62.7027C318.9 65.1126 320.254 68.7469 320.604 71.7204C315.629 70.3405 311.842 67.0366 306.75 65.9386C305.826 68.9607 304.375 68.8441 305.173 65.5984C304.677 65.4916 304.18 65.3847 303.674 65.2778C299.42 75.8503 297.112 78.7461 299.488 66.7743C291.32 65.2 282.966 63.9562 274.584 62.9845C274.117 66.3078 273.026 65.89 272.919 62.7901C261.198 62.7512 216.132 54.8704 211.994 64.8794C209.171 67.0658 206.25 62.0807 204.099 60.6134C189.933 61.2839 175.661 62.6735 160.99 64.8599C160.853 68.6983 159.889 69.1939 158.926 65.1806C157.592 65.3944 156.258 65.6179 154.924 65.8511C155.246 72.1966 154.272 73.5181 152.86 66.2204C144.575 67.7363 136.466 69.5729 128.667 71.769C129.028 68.64 130.498 65.2292 127.986 62.6735C127.879 58.0869 123.654 54.5595 119.36 53.5391C119.214 49.0594 121.21 47.4657 120.976 44.191C120.782 41.4118 118.309 38.7881 115.924 38.9338L115.291 39.0893C114.171 39.2059 111.825 40.5081 111.825 40.5081C106.831 43.4039 112.205 49.2635 112.321 53.4225C106.548 54.4817 102.284 59.4182 103.043 65.3069C101.973 67.2213 101.311 69.6409 101.973 71.905C107.522 107.976 105.682 134.544 101.612 170.226C102.313 171.985 103.219 173.656 104.445 175.085C104.991 179.234 108.778 182.596 113.743 183.607C113.86 185.657 113.723 187.698 113.217 189.68C108.456 199.262 122.923 200.466 125.25 192.926C125.766 188.942 120.957 188.495 120.762 183.422C124.491 182.46 128.093 179.827 129.106 175.969C131.695 175.075 134.236 174.123 136.826 173.19C142.979 170.964 150.962 168.671 156.667 168.273C156.92 164.716 158.595 158.74 161.155 164.93C163.2 165.464 165.419 164.327 167.444 164.949C170.122 163.608 173.451 164.609 176.343 164.298C205.968 163.696 236.976 160.44 268.256 165.27C270.271 149.061 274.506 146.885 270.865 165.581C272.102 165.736 273.542 165.902 274.769 166.067C275.081 154.571 277.33 159.313 276.59 166.31C282.83 167.155 288.788 168.01 294.542 169.06C295.009 168.38 295.632 167.68 296.499 167.592C296.703 167.369 297.064 167.359 297.229 167.573C298.319 167.68 298.534 169.264 299.312 169.964C306.439 170.741 312.972 173.763 320.195 175.949C321.198 179.807 324.81 182.45 328.548 183.422C328.354 188.495 326.777 189.855 325.959 193.917C327.302 200.612 343.123 199.446 338.362 189.904C338.362 189.904 335.451 185.657 335.568 183.607C340.348 182.645 344.008 179.496 344.778 175.561C345.079 175.26 345.371 174.939 345.654 174.589L345.644 174.579Z" fill="#3EEDFF"/>
<path d="M117.199 38.7395C121.833 38.6228 122.894 40.8773 122.953 42.4904C123.07 45.736 121.035 47.3394 121.337 52.1106C121.648 56.8819 122.719 57.9022 123.751 61.5268C124.326 63.548 123.011 66.0162 118.504 66.4632C114.23 66.4827 112.448 64.2671 112.828 62.1876C113.509 58.4561 114.483 57.3192 114.337 52.5382C114.191 47.7572 112.02 46.4065 111.835 43.1609C111.737 41.5381 112.584 39.1767 117.199 38.7395Z" fill="url(#paint0_linear_528_5031)"/>
<path d="M118.046 53.7723C118.144 53.5002 118.397 46.9604 118.406 44.6573C118.406 43.3746 118.309 41.9656 117.501 42.1114C116.751 42.4904 116.654 43.8508 116.81 45.0849C117.102 47.3005 117.92 53.5682 118.036 53.782L118.046 53.7723Z" fill="#FFF5CC"/>
<g style="mix-blend-mode:multiply" opacity="0.15">
<path d="M114.337 52.5381C114.191 47.7571 112.02 46.4161 111.835 43.1608C111.766 42.0239 112.175 40.5274 114.006 39.5751C111.718 41.023 112.545 44.0159 114.249 47.0769C115.612 49.5257 115.729 51.9842 114.103 56.7555C114.298 55.6477 114.405 54.3553 114.346 52.5284L114.337 52.5381Z" fill="#CC0631"/>
</g>
<path d="M113.85 39.6917C113.85 39.6917 113.87 39.6625 113.879 39.6528C114.678 39.2155 115.749 38.8851 117.209 38.7491C121.629 38.6325 122.797 40.6828 122.943 42.2765C122.125 39.8277 118.659 38.0786 113.86 39.7014L113.85 39.6917Z" fill="#FFF5CC"/>
<path d="M104.981 61.1186C104.942 62.0126 105.001 64.0241 105.001 64.0241L129.982 63.8783C129.982 63.8783 129.982 62.1972 129.963 60.9728C129.933 55.5019 124.316 51.0999 117.413 51.1388C110.511 51.1777 105.225 55.4728 104.981 61.1186Z" fill="url(#paint1_linear_528_5031)"/>
<path d="M105.001 64.0242C105.03 69.4951 110.647 73.8971 117.55 73.8582C124.452 73.8193 130.011 69.3493 129.982 63.8784C129.953 58.4075 124.335 54.0055 117.433 54.0444C110.53 54.0833 104.971 58.5533 105.001 64.0242Z" fill="url(#paint2_linear_528_5031)"/>
<path d="M110.043 53.1115C112.088 51.8871 114.619 51.1583 117.423 51.1388C122.388 51.1097 126.672 53.3933 128.707 56.7069C124.442 51.168 116.099 50.0116 110.043 53.1115Z" fill="#FFF5CC"/>
<g style="mix-blend-mode:multiply" opacity="0.35">
<path d="M104.981 61.1185C105.117 57.8923 106.909 55.1132 109.703 53.3154C108.574 54.1706 108.447 56.1432 109.06 56.6679C109.06 56.6679 109.06 56.6874 109.051 56.6874C111.261 55.0743 114.191 54.0734 117.433 54.054C124.326 54.0151 129.943 58.4171 129.982 63.888C130.011 69.3589 124.443 73.8289 117.55 73.8678C110.647 73.9066 105.03 69.5047 105.001 64.0337C105.001 64.0337 104.942 62.0125 104.981 61.1282V61.1185Z" fill="#CC0631"/>
</g>
<path d="M117.598 58.2811C121.775 58.2616 125.202 60.9728 125.513 64.4419H125.533L126.292 78.0463L109.43 78.3961L109.732 65.1124C109.732 65.1124 109.732 65.0444 109.732 65.0153C109.713 61.3129 113.237 58.3005 117.608 58.2714L117.598 58.2811Z" fill="url(#paint3_linear_528_5031)"/>
<path d="M336.006 38.7395C331.382 38.6228 330.311 40.8773 330.252 42.4904C330.135 45.736 332.17 47.3394 331.868 52.1106C331.557 56.8819 330.486 57.9022 329.454 61.5268C328.88 63.548 330.194 66.0162 334.701 66.4632C338.975 66.4827 340.757 64.2671 340.377 62.1876C339.696 58.4561 338.722 57.3192 338.868 52.5382C339.014 47.7572 341.185 46.4065 341.37 43.1609C341.468 41.5381 340.621 39.1767 336.006 38.7395Z" fill="url(#paint4_linear_528_5031)"/>
<path d="M335.168 53.7723C335.071 53.5002 334.818 46.9604 334.808 44.6573C334.808 43.3746 334.905 41.9656 335.714 42.1114C336.463 42.4904 336.561 43.8508 336.405 45.0849C336.113 47.3005 335.295 53.5682 335.178 53.782L335.168 53.7723Z" fill="#FFF5CC"/>
<g style="mix-blend-mode:multiply" opacity="0.25">
<path d="M338.868 52.5381C339.014 47.7571 341.185 46.4161 341.37 43.1608C341.438 42.0239 341.029 40.5274 339.199 39.5751C341.487 41.023 340.659 44.0159 338.956 47.0769C337.593 49.5257 337.476 51.9842 339.102 56.7555C338.907 55.6477 338.8 54.3553 338.858 52.5284L338.868 52.5381Z" fill="#CC0631"/>
</g>
<path d="M339.365 39.6917C339.365 39.6917 339.345 39.6625 339.335 39.6528C338.537 39.2155 337.466 38.8851 336.006 38.7491C331.586 38.6325 330.418 40.6828 330.271 42.2765C331.089 39.8277 334.555 38.0786 339.355 39.7014L339.365 39.6917Z" fill="#FFF5CC"/>
<path d="M348.224 61.1185C348.263 62.0125 348.205 64.024 348.205 64.024L323.223 63.8783C323.223 63.8783 323.223 62.1972 323.243 60.9728C323.272 55.5019 328.889 51.0999 335.792 51.1387C342.694 51.1776 347.981 55.4727 348.224 61.1185Z" fill="url(#paint5_linear_528_5031)"/>
<path d="M348.205 64.0241C348.176 69.495 342.558 73.897 335.656 73.8581C328.753 73.8193 323.194 69.3493 323.223 63.8784C323.252 58.4074 328.87 54.0055 335.772 54.0443C342.675 54.0832 348.234 58.5532 348.205 64.0241Z" fill="url(#paint6_linear_528_5031)"/>
<path d="M343.171 53.1114C341.127 51.887 338.596 51.1582 335.792 51.1388C330.827 51.1096 326.543 53.3932 324.508 56.7068C328.772 51.1679 337.116 50.0115 343.171 53.1114Z" fill="#FFF5CC"/>
<g style="mix-blend-mode:multiply" opacity="0.35">
<path d="M348.224 61.1185C348.088 57.8923 346.297 55.1131 343.502 53.3154C344.632 54.1705 344.758 56.1431 344.145 56.6679C344.145 56.6679 344.145 56.6873 344.155 56.6873C341.945 55.0742 339.014 54.0733 335.772 54.0539C328.88 54.015 323.262 58.417 323.223 63.8879C323.194 69.3588 328.763 73.8288 335.656 73.8677C342.558 73.9066 348.176 69.5046 348.205 64.0337C348.205 64.0337 348.263 62.0125 348.224 61.1282V61.1185Z" fill="#CC0631"/>
</g>
<path d="M335.607 58.281C331.43 58.2616 328.003 60.9727 327.692 64.4419H327.672L326.913 78.0462L343.775 78.3961L343.473 65.1124C343.473 65.1124 343.473 65.0443 343.473 65.0152C343.493 61.3129 339.968 58.3005 335.597 58.2713L335.607 58.281Z" fill="url(#paint7_linear_528_5031)"/>
<path d="M344.924 77.4536C333.504 72.6629 320.818 68.9412 307.539 66.094C306.614 69.1161 305.164 68.9995 305.962 65.7538C305.465 65.647 304.969 65.5401 304.463 65.4332C300.208 76.0057 299.069 76.8123 301.445 64.8307C293.277 63.2565 284.923 62.0126 276.541 61.0409C276.074 64.3643 274.983 63.9464 274.876 60.8465C257.82 59.0683 241.308 58.1645 224.845 58.2034C222.723 58.767 220.377 58.3492 218.225 58.9322C217.047 59.2529 215.889 60.0497 215.158 61.0603C214.72 61.6628 214.331 62.2944 213.941 62.9358C213.669 63.3925 213.328 63.548 212.773 63.5383C211.215 63.5188 209.804 62.1584 208.723 61.1867C207.827 60.3801 206.98 59.457 206.046 58.6698C191.871 59.3403 177.608 60.7299 162.937 62.9164C162.8 66.7547 161.837 67.2503 160.873 63.237C159.539 63.4508 158.205 63.6743 156.872 63.9075C157.193 70.253 156.219 71.5746 154.808 64.2768C138.335 67.2892 122.524 71.5746 108.544 77.4342C115.437 111.639 106.772 153.609 104.192 164.94C103.764 166.815 103.55 168.243 103.55 168.243C111.718 188.874 137.313 167.884 156.852 166.523C157.475 164.347 157.456 161.956 159.656 160.615C161.33 159.546 162.275 161.266 163.083 162.957C164.134 163.307 165.458 162.996 166.5 162.879C167.474 162.773 168.467 162.743 169.372 162.977C170.17 162.462 171.193 162.248 172.156 162.335C174.211 162.345 176.245 162.335 178.27 162.326C178.416 162.199 178.562 162.083 178.718 161.976C179.39 161.509 180.237 161.305 181.045 161.432C181.454 161.5 181.814 161.674 182.145 161.888C182.486 161.976 182.817 162.102 183.138 162.248C212.014 161.636 238.796 158.448 268.646 163.239C270.914 148.663 273.124 148.692 271.255 163.55C272.491 163.705 273.728 163.861 274.954 164.026C275.168 157.593 276.57 158.584 276.775 164.269C283.015 165.114 289.1 166.076 294.863 167.126C295.331 166.446 295.954 165.746 296.82 165.659C297.025 165.435 297.385 165.425 297.55 165.639C298.641 165.746 298.865 167.33 299.634 168.03C318.102 170.022 343.288 186.988 349.899 168.253C349.899 168.253 336.872 117.305 344.895 77.4342L344.924 77.4536Z" fill="url(#paint8_linear_528_5031)"/>
<path style="mix-blend-mode:multiply" opacity="0.35" d="M344.924 77.4538C336.464 73.9069 327.303 70.9431 317.732 68.4943C317.694 68.5332 317.655 68.5623 317.625 68.6012C323.116 81.331 323.106 96.6262 323.106 117.995C323.106 139.363 320.215 161.024 314.101 171.246L314.335 171.548C329.532 176.28 344.963 182.334 349.928 168.273C349.928 168.273 336.902 117.324 344.924 77.4538Z" fill="url(#paint9_linear_528_5031)"/>
<g style="mix-blend-mode:multiply" opacity="0.35">
<path d="M344.924 77.4536C333.504 72.6629 320.819 68.9412 307.54 66.094C306.615 69.1161 305.164 68.9995 305.963 65.7538C305.466 65.647 304.969 65.5401 304.463 65.4332C300.209 76.0057 299.07 76.8123 301.445 64.8307C293.277 63.2565 284.924 62.0126 276.542 61.0409C276.074 64.3643 274.984 63.9464 274.877 60.8465C257.82 59.0683 241.309 58.1645 224.846 58.2034C222.723 58.767 220.377 58.3492 218.226 58.9322C217.048 59.2529 215.889 60.0497 215.159 61.0603C214.721 61.6628 214.331 62.2944 213.942 62.9358C213.669 63.3925 213.329 63.548 212.774 63.5383C211.216 63.5188 209.804 62.1584 208.724 61.1867C207.828 60.3801 206.981 59.457 206.046 58.6698C191.871 59.3403 177.609 60.7299 162.937 62.9164C162.801 66.7547 161.837 67.2503 160.873 63.237C159.54 63.4508 158.206 63.6743 156.872 63.9075C157.193 70.253 156.22 71.5746 154.808 64.2768C138.336 67.2892 122.525 71.5746 108.545 77.4342C116.586 117.314 103.56 168.273 103.56 168.273C111.728 188.903 137.323 167.913 156.862 166.553C157.485 164.376 157.466 161.985 159.666 160.644C161.341 159.576 162.285 161.296 163.093 162.986C164.145 163.336 165.469 163.025 166.51 162.909C167.484 162.802 168.477 162.773 169.382 163.006C170.181 162.491 171.203 162.277 172.167 162.364C174.221 162.374 176.256 162.364 178.281 162.355C178.427 162.228 178.573 162.112 178.728 162.005C179.4 161.538 180.247 161.334 181.055 161.461C181.464 161.529 181.824 161.704 182.155 161.917C182.496 162.005 182.827 162.131 183.148 162.277C212.024 161.665 238.807 158.477 268.656 163.268C270.924 148.692 273.134 148.721 271.265 163.579C272.501 163.735 273.738 163.89 274.964 164.055C275.179 157.622 276.581 158.613 276.785 164.298C283.026 165.144 289.11 166.106 294.874 167.155C295.341 166.475 295.964 165.775 296.831 165.688C297.035 165.464 297.395 165.455 297.561 165.668C298.651 165.775 298.875 167.359 299.644 168.059C318.113 170.051 343.298 187.018 349.909 168.282C349.909 168.282 336.883 117.334 344.905 77.4633L344.924 77.4536ZM319.573 169.643C318.794 169.342 317.957 169.05 317.09 168.778C317.042 168.418 316.925 168.069 316.75 167.777C316.331 167.058 315.718 166.514 315.416 165.727C314.783 164.046 315.338 162.083 314.316 160.518C313.391 159.109 311.512 158.39 310.139 159.653C309.604 160.149 309.302 160.839 308.844 161.393C308.289 162.053 307.287 161.859 306.644 162.481C306.079 163.025 305.904 163.803 305.787 164.551C305.709 165.046 305.573 165.668 305.252 166.086C303.811 165.834 302.438 165.6 301.192 165.406C301.26 163.929 300.666 162.773 299.449 162.326C299.41 162.053 299.372 161.781 299.342 161.509C299.196 160.275 299.099 159.031 299.06 157.788C299.06 157.593 299.06 157.389 299.06 157.195C299.07 156.884 299.079 156.573 299.099 156.272C299.138 155.63 299.148 154.999 299.167 154.367C299.167 154.289 299.187 154.202 299.196 154.124C299.401 152.326 299.557 150.529 299.625 148.721C299.664 147.749 299.673 146.778 299.634 145.806C299.595 144.941 299.391 144.135 299.274 143.279C299.255 143.163 299.06 143.192 299.07 143.309C299.079 144.076 299.07 144.844 299.041 145.621C299.031 145.631 299.021 145.631 299.011 145.65C298.427 146.962 298.408 148.41 298.194 149.8C297.979 151.199 297.901 152.618 297.794 154.027C297.678 155.523 297.541 157.01 297.259 158.477C297.123 159.158 296.986 159.838 296.831 160.508C296.743 160.897 296.597 161.266 296.509 161.645C296.441 161.947 296.412 162.228 296.344 162.51C295.614 162.879 295.02 163.521 294.562 164.493H294.552V164.473C294.552 164.065 294.552 163.657 294.562 163.249C294.582 162.326 294.66 161.412 294.718 160.489C294.845 158.652 294.913 156.787 295.331 154.989C295.38 154.775 295.049 154.678 295 154.901C294.533 156.719 293.929 158.487 293.628 160.343C293.482 161.237 293.394 162.141 293.326 163.045C293.297 163.462 293.267 163.88 293.248 164.298C289.081 163.725 282.101 163.249 278.479 162.724C278.567 159.673 276.376 153.862 273.845 158.74C273.806 155.329 274.03 148.896 272.248 148.566C269.97 148.148 267.935 153.172 266.602 160.091C264.158 159.76 261.568 159.41 258.891 159.07C258.774 158.895 258.609 158.75 258.385 158.672C258.161 158.594 257.927 158.516 257.703 158.439C257.625 158.351 257.557 158.244 257.528 158.128C257.411 157.749 257.226 157.379 256.905 157.146C256.662 156.971 256.408 156.796 256.155 156.631C255.046 155.922 253.799 155.446 252.534 155.096C251.434 154.795 250.256 154.416 249.272 155.164C248.786 155.533 248.425 156.068 248.046 156.534C247.724 156.932 247.452 157.35 247.179 157.768C242.623 157.36 237.95 157.088 233.316 157.088C230.239 157.088 227.221 157.146 224.223 157.234C223.775 157.243 223.376 157.01 223.152 156.66C223.142 156.534 223.132 156.408 223.123 156.281C223.064 155.348 223.025 154.425 222.977 153.492C222.938 152.628 222.879 151.792 222.733 150.937C222.568 149.975 222.558 148.984 222.499 148.012C222.499 147.847 222.237 147.837 222.237 148.012C222.237 148.906 222.285 149.81 222.207 150.694C222.13 151.607 222.081 152.492 222.091 153.405C222.032 153.424 221.984 153.454 221.964 153.502C221.857 153.716 221.906 153.939 221.867 154.173C221.828 154.416 221.818 154.668 221.828 154.921C221.837 155.31 221.867 155.689 221.886 156.068V156.087C221.915 156.748 221.39 157.302 220.728 157.321C220.718 157.321 220.708 157.321 220.698 157.321C220.114 157.341 219.598 157.078 219.258 156.66C219.287 155.786 219.267 154.911 219.287 154.085C219.326 152.006 219.433 149.916 219.316 147.847C219.102 143.804 219.618 139.626 218.927 135.622C218.897 135.447 218.634 135.505 218.625 135.661C218.313 139.81 218.586 143.94 218.021 148.08C217.768 149.936 217.661 151.802 217.505 153.667C217.418 154.688 217.252 155.834 217.213 156.962C216.872 157.272 216.424 157.477 215.928 157.496C212.316 157.642 208.704 157.807 205.063 157.972C198.55 158.254 190.908 158.429 184.161 158.584C184.161 158.584 184.141 158.575 184.132 158.575C182.778 156.563 181.941 154.124 181.454 151.666C181.445 151.5 181.425 151.335 181.415 151.17C181.172 147.915 181.143 144.62 180.491 141.414C180.432 141.112 180.023 141.219 179.994 141.482C179.809 143.367 179.838 145.223 179.916 147.108C179.994 148.974 179.994 150.849 180.15 152.715C180.169 152.958 180.208 153.211 180.237 153.454C180.208 153.862 180.179 154.27 180.121 154.678C179.984 155.63 179.78 156.544 179.536 157.457C178.816 158.225 177.891 159.245 177.2 160.091C176.47 160.091 164.816 160.518 164.816 160.518C163.901 158.361 162.197 154.882 160.007 155.805C157.378 156.913 156.054 162.617 155.46 164.493C154.711 164.619 153.932 164.735 153.124 164.862C152.997 164.716 152.842 164.609 152.598 164.561C151.78 164.415 151.07 164.055 150.524 163.414C149.901 162.695 149.785 161.704 149.171 160.965C148.577 160.256 147.633 159.906 146.757 160.295C146.007 160.625 145.773 161.344 145.52 162.063C145.238 162.87 144.634 162.879 143.875 162.967C143.135 163.054 142.395 163.2 141.85 163.754C141.383 164.23 141.159 164.872 141.013 165.513C140.954 165.668 140.915 165.834 140.906 166.008C140.838 166.387 140.76 166.834 140.594 167.223C138.462 167.777 136.349 168.448 134.344 169.293C127.607 172.111 124.141 174.9 115.914 174.9C109.956 174.9 106.111 169.167 104.261 165.552C106.432 156.408 120.325 116.595 114.396 80.6118C120.023 78.4254 126.721 75.4518 133.779 72.7212C133.867 72.8184 133.955 72.9156 134.042 73.0128C134.081 73.1196 134.11 73.2168 134.149 73.3237C134.334 73.8582 134.626 74.3538 134.967 74.8105C135.619 75.685 136.564 76.1223 137.596 76.4041C138.043 76.5207 138.618 76.754 139.056 76.511C139.591 76.2098 139.582 75.5296 139.63 74.9951C139.689 74.2566 139.689 73.5083 139.63 72.7698C139.611 72.4977 139.689 72.2159 139.893 72.041C140.176 71.7981 140.545 71.6912 140.857 71.4774C141.324 71.147 141.607 70.7097 141.626 70.1267C141.626 70.0489 141.607 69.9712 141.577 69.8935C145.569 68.5622 149.59 67.4058 153.513 66.6187C154.428 68.9412 158.264 77.2204 158.264 77.2204C158.264 77.2204 159.569 66.2883 159.841 65.6664C160.104 65.7053 163.882 73.0711 163.882 73.0711C163.882 73.0711 164.329 67.503 165.459 64.5489C177.92 62.7997 192.173 61.7211 204.45 61.07C204.722 61.3324 210.116 64.3643 213.309 66.1523C215.47 78.2407 215.354 79.6012 215.558 82.5455C216.269 79.7761 216.337 67.4252 217.69 63.1399C218.235 62.0029 218.683 61.0798 218.712 61.07C219.209 60.934 228.059 61.3421 229.383 61.07C229.383 61.07 232.712 61.1478 237.677 61.313C237.677 61.7697 237.629 62.2264 237.599 62.6831C237.531 63.6743 237.463 64.6655 237.414 65.6567C237.366 66.6478 237.317 67.639 237.307 68.6302C237.307 69.67 237.444 70.6903 237.424 71.7301C237.424 71.8467 237.609 71.8467 237.609 71.7301C237.638 70.7292 237.843 69.7477 237.921 68.7565C237.999 67.7654 238.057 66.7742 238.135 65.783C238.203 64.8307 238.281 63.8784 238.359 62.9358C238.407 62.4208 238.417 61.8863 238.514 61.381C238.514 61.3713 238.514 61.3616 238.514 61.3519C241.844 61.4685 245.806 61.6142 249.964 61.8086C249.886 62.2847 250.158 62.8386 250.742 62.79C251.219 62.7512 251.696 62.7414 252.174 62.7317C252.193 62.7317 252.203 62.7512 252.222 62.7512C252.894 63.033 253.605 63.2468 254.345 63.2468C254.841 63.2468 255.299 63.0913 255.756 62.9649C256.778 63.0816 257.791 63.237 258.813 63.3828C259.407 63.6646 259.991 63.9853 260.546 64.2865C261.422 64.7724 262.221 65.4623 263.253 65.5692C264.392 65.6858 265.55 65.2291 266.631 64.9376C267.858 64.6072 269.074 64.2865 270.301 63.9561C270.691 63.8492 270.914 63.5383 270.983 63.1884C271.761 63.2662 272.511 63.3439 273.212 63.4314C274.215 65.2777 275.646 68.2998 276.396 69.9323C276.435 70.5834 276.464 71.2345 276.493 71.8855C276.522 72.6629 276.396 73.5569 276.697 74.2955C276.727 74.3538 276.775 74.4121 276.824 74.4509C276.824 74.4509 276.824 74.4704 276.824 74.4801C276.824 74.9465 276.795 75.4324 276.824 75.8988C276.853 76.3458 277.038 76.7151 277.116 77.1427C277.136 77.2496 277.311 77.2496 277.33 77.1427C277.408 76.7151 277.593 76.3361 277.632 75.8988C277.671 75.4907 277.671 75.0826 277.69 74.6842C277.7 74.4898 277.72 74.2955 277.739 74.1011C277.817 73.4403 277.934 72.7893 277.973 72.1285C277.992 71.7786 278.002 71.4288 278.012 71.079C278.08 70.5057 278.138 69.9421 278.216 69.3784C278.323 68.5233 278.528 67.6585 278.421 66.813C278.401 66.6867 278.323 66.5798 278.226 66.5021C278.557 65.5012 278.907 64.5392 279.238 63.8589C284.651 64.5489 294.728 65.5012 299.8 66.3855C299.109 70.7875 297.415 77.9492 298.953 78.2407C301.562 78.746 302.867 72.2062 304.6 68.5719C304.707 68.7954 304.862 69.0092 305.028 69.2035C305.047 69.3493 305.067 69.5048 305.086 69.6505C305.154 70.1753 305.223 70.7 305.291 71.2248C305.349 71.7495 305.369 72.2742 305.369 72.799C305.369 73.0711 305.349 73.3431 305.378 73.6152C305.408 73.897 305.485 74.14 305.466 74.4315C305.456 74.6064 305.748 74.655 305.778 74.4704C305.826 74.1886 305.953 73.9651 306.031 73.7027C306.109 73.45 306.128 73.178 306.147 72.9156C306.177 72.6143 306.186 72.3228 306.206 72.0216C306.255 71.8661 306.313 71.7009 306.362 71.5454C306.479 71.1664 306.576 70.7097 306.79 70.3696C306.907 70.185 307.033 70.0198 307.141 69.8352C307.15 69.806 307.17 69.7866 307.179 69.7671C307.734 69.4853 308.319 68.8731 308.873 67.7362C324.966 71.9438 330.457 77.2593 339.151 80.6312C333.193 116.751 346.94 156.689 349.072 165.629C347.689 168.525 345.109 179.691 319.573 169.652V169.643Z" fill="#771D62"/>
</g>
<g style="mix-blend-mode:multiply" opacity="0.35">
<path d="M259.504 153.988C259.445 153.92 259.397 153.842 259.338 153.774C259.241 153.667 259.124 153.599 258.998 153.551C258.91 153.502 258.822 153.483 258.725 153.483C258.579 153.454 258.443 153.454 258.297 153.502C258.209 153.541 258.121 153.57 258.043 153.609C258.005 153.629 257.966 153.658 257.927 153.697C257.878 153.706 257.829 153.697 257.781 153.726C257.712 153.745 257.644 153.784 257.596 153.833C257.498 153.891 257.43 153.969 257.372 154.076C257.343 154.144 257.313 154.212 257.284 154.28C257.245 154.425 257.245 154.581 257.284 154.736C257.284 154.746 257.284 154.765 257.294 154.775C257.304 154.804 257.352 154.95 257.401 155.018C257.44 155.067 257.498 155.144 257.537 155.193C257.537 155.193 257.537 155.203 257.547 155.212C257.547 155.212 257.557 155.212 257.566 155.222C257.596 155.251 257.644 155.281 257.664 155.3C257.683 155.319 257.732 155.349 257.761 155.378C257.771 155.378 257.781 155.397 257.8 155.397C257.858 155.426 257.917 155.446 257.975 155.465C258.024 155.494 258.063 155.533 258.112 155.553C258.19 155.601 258.277 155.621 258.374 155.621C258.511 155.65 258.657 155.65 258.793 155.601C258.793 155.601 258.803 155.601 258.813 155.601C258.9 155.562 258.978 155.533 259.066 155.494C259.075 155.494 259.085 155.494 259.095 155.475C259.095 155.475 259.095 155.475 259.105 155.475C259.329 155.31 259.29 155.358 259.416 155.193C259.514 155.086 259.572 154.97 259.611 154.824C259.66 154.629 259.66 154.445 259.611 154.25C259.582 154.163 259.533 154.076 259.504 153.988Z" fill="#771D62"/>
</g>
<g style="mix-blend-mode:multiply" opacity="0.35">
<path d="M287.864 67.8141C287.815 67.7752 287.757 67.7363 287.708 67.6877C287.62 67.6294 287.523 67.6003 287.416 67.5906C287.309 67.5711 287.202 67.5711 287.104 67.6003C287.075 67.6003 287.046 67.6294 287.017 67.6392C286.987 67.6392 286.958 67.6392 286.929 67.6489C286.919 67.6489 286.9 67.6489 286.89 67.6586C286.832 67.678 286.773 67.7072 286.715 67.7363C286.676 67.7655 286.637 67.7946 286.598 67.8238C286.54 67.8724 286.501 67.9404 286.481 68.0084C286.462 68.0473 286.452 68.0959 286.442 68.1445C286.442 68.1445 286.442 68.1639 286.433 68.1639C286.413 68.2222 286.403 68.2902 286.403 68.3485C286.403 68.4166 286.413 68.4846 286.452 68.5429C286.471 68.6109 286.51 68.6595 286.559 68.7081C286.598 68.7372 286.627 68.7567 286.666 68.7858C286.666 68.7858 286.686 68.7858 286.695 68.7858C286.715 68.8247 286.734 68.8636 286.764 68.8927C286.832 68.9704 286.919 69.0287 287.017 69.0579C287.114 69.1065 287.211 69.1259 287.318 69.1259C287.426 69.1259 287.533 69.1065 287.62 69.0579C287.718 69.0287 287.805 68.9704 287.873 68.8927C287.912 68.8344 287.951 68.7858 288 68.7372C288.068 68.6109 288.107 68.4846 288.107 68.3388C288.107 68.2708 288.088 68.2028 288.078 68.125C288.039 67.989 287.971 67.8724 287.873 67.7752L287.864 67.8141Z" fill="#771D62"/>
</g>
<g style="mix-blend-mode:multiply" opacity="0.35">
<path d="M308.347 79.2416C308.24 79.1444 308.123 79.0861 307.977 79.0473C307.831 78.9987 307.685 78.9987 307.549 79.0278C307.403 79.0278 307.266 79.0764 307.149 79.1542C307.13 79.1639 307.111 79.1833 307.101 79.193C307.101 79.193 307.101 79.193 307.081 79.193C306.935 79.193 306.799 79.2319 306.672 79.2999C306.575 79.3485 306.497 79.4165 306.449 79.5137C306.38 79.5914 306.332 79.6886 306.302 79.7858C306.254 79.9218 306.244 80.0676 306.225 80.2134C306.225 80.2522 306.225 80.2814 306.225 80.3202C306.225 80.398 306.244 80.5049 306.264 80.5729C306.264 80.5729 306.264 80.5923 306.264 80.6021C306.264 80.6215 306.273 80.6409 306.283 80.6604C306.322 80.7672 306.361 80.8741 306.41 80.9713C306.429 81.0005 306.439 81.0393 306.468 81.0685C306.507 81.1365 306.556 81.1948 306.604 81.2531C306.643 81.3309 306.692 81.4086 306.78 81.4961C306.848 81.5544 306.935 81.6127 307.003 81.671C307.013 81.6807 307.033 81.6904 307.042 81.7001C307.159 81.7779 307.305 81.8362 307.442 81.8848C307.529 81.8945 307.627 81.9139 307.714 81.9236C307.86 81.9236 307.987 81.9042 308.113 81.8362C308.201 81.807 308.279 81.7681 308.337 81.7001C308.454 81.6321 308.542 81.5349 308.6 81.4086C308.688 81.2823 308.746 81.1268 308.795 80.9713C308.853 80.8158 308.863 80.6506 308.863 80.4854C308.863 80.1453 308.775 79.8344 308.62 79.5429C308.551 79.4165 308.454 79.3194 308.337 79.2416H308.347Z" fill="#771D62"/>
</g>
<g style="mix-blend-mode:multiply" opacity="0.35">
<path d="M308.123 156.097C308.123 156.097 307.948 156.019 307.909 156.009C307.889 156.009 307.695 155.98 307.675 155.98C307.627 155.98 307.578 155.99 307.539 156C307.5 156 307.442 156 307.403 156.019C307.364 156.029 307.325 156.048 307.296 156.058C307.266 156.068 307.227 156.087 307.188 156.107C307.14 156.145 307.091 156.184 307.042 156.223C306.974 156.291 306.916 156.369 306.887 156.456C306.857 156.515 306.838 156.573 306.838 156.641C306.838 156.641 306.838 156.66 306.838 156.67C306.838 156.728 306.818 156.796 306.809 156.865C306.809 156.894 306.828 156.923 306.828 156.952C306.828 156.952 306.828 156.952 306.818 156.962C306.78 157.02 306.76 157.078 306.75 157.137L306.721 157.205C306.721 157.205 306.711 157.292 306.702 157.331C306.702 157.36 306.711 157.428 306.721 157.467C306.721 157.467 306.721 157.467 306.721 157.477C306.721 157.477 306.721 157.486 306.721 157.496C306.731 157.545 306.76 157.593 306.78 157.632C306.78 157.632 306.78 157.642 306.78 157.652C306.809 157.69 306.838 157.729 306.867 157.768C306.877 157.778 306.887 157.788 306.896 157.807C306.935 157.846 306.984 157.875 307.033 157.904C307.062 157.924 307.091 157.933 307.13 157.943C307.159 157.963 307.188 157.992 307.227 158.001C307.276 158.031 307.334 158.05 307.393 158.05C307.48 158.069 307.568 158.069 307.665 158.04C307.734 158.021 307.802 157.992 307.87 157.953C307.889 157.953 307.899 157.933 307.919 157.924C307.948 157.904 307.967 157.875 307.996 157.856C308.035 157.836 308.084 157.817 308.113 157.788C308.143 157.768 308.172 157.749 308.191 157.729C308.24 157.671 308.298 157.603 308.337 157.535C308.396 157.448 308.425 157.35 308.464 157.253C308.435 157.321 308.405 157.38 308.386 157.448C308.425 157.37 308.454 157.292 308.483 157.214C308.483 157.195 308.493 157.185 308.493 157.166C308.493 157.166 308.493 157.156 308.493 157.146C308.503 157.069 308.522 156.981 308.522 156.903C308.522 156.884 308.522 156.874 308.522 156.855C308.522 156.699 308.483 156.554 308.405 156.408C308.328 156.272 308.22 156.175 308.094 156.097H308.123Z" fill="#771D62"/>
</g>
<g style="mix-blend-mode:multiply" opacity="0.35">
<path d="M306.079 151.811C305.971 151.763 305.874 151.714 305.747 151.724L305.572 151.743C305.514 151.763 305.465 151.782 305.416 151.811C305.319 151.87 305.241 151.947 305.183 152.045C305.124 152.151 305.095 152.258 305.095 152.375C305.095 152.482 305.105 152.598 305.115 152.705C305.115 152.793 305.134 152.871 305.173 152.948C305.202 153.026 305.241 153.094 305.309 153.152C305.368 153.211 305.436 153.259 305.514 153.288C305.592 153.327 305.67 153.347 305.757 153.347C305.816 153.347 305.874 153.327 305.923 153.327C306.03 153.298 306.127 153.24 306.205 153.162C306.234 153.123 306.273 153.075 306.302 153.036C306.361 152.939 306.39 152.832 306.39 152.715C306.39 152.608 306.4 152.492 306.41 152.385C306.41 152.268 306.38 152.151 306.322 152.054C306.263 151.957 306.186 151.879 306.088 151.821L306.079 151.811Z" fill="#771D62"/>
</g>
<g style="mix-blend-mode:multiply" opacity="0.35">
<path d="M287.523 159.76C287.523 159.76 287.513 159.741 287.504 159.731C287.504 159.731 287.504 159.721 287.504 159.712C287.484 159.692 287.474 159.673 287.455 159.653C287.445 159.634 287.426 159.615 287.406 159.595C287.367 159.556 287.338 159.527 287.299 159.488C287.241 159.43 287.182 159.391 287.104 159.362C287.036 159.323 286.958 159.304 286.88 159.313C286.803 159.313 286.725 159.323 286.657 159.362C286.579 159.381 286.52 159.43 286.462 159.488C286.433 159.527 286.403 159.566 286.365 159.605C286.306 159.692 286.287 159.799 286.287 159.906C286.287 159.955 286.296 160.013 286.306 160.062C286.335 160.159 286.384 160.246 286.462 160.324L286.579 160.44C286.579 160.44 286.657 160.499 286.696 160.538C286.696 160.538 286.705 160.538 286.715 160.538C286.725 160.538 286.734 160.547 286.744 160.557C286.764 160.567 286.793 160.577 286.812 160.586L286.939 160.645C287.007 160.664 287.085 160.674 287.153 160.654C287.202 160.654 287.25 160.645 287.289 160.615C287.358 160.596 287.416 160.557 287.465 160.499C287.494 160.46 287.523 160.421 287.552 160.392C287.572 160.353 287.591 160.304 287.611 160.266C287.63 160.198 287.64 160.12 287.611 160.052C287.611 159.984 287.581 159.916 287.543 159.848C287.533 159.828 287.523 159.799 287.513 159.78L287.523 159.76Z" fill="#771D62"/>
</g>
<g style="mix-blend-mode:multiply" opacity="0.35">
<path d="M145.51 125.059C145.617 125.05 145.705 125.04 145.802 125.001C146.026 124.913 146.114 124.875 146.289 124.739C146.445 124.622 146.542 124.525 146.649 124.35C146.649 124.35 146.649 124.34 146.649 124.33C146.698 124.292 146.737 124.253 146.776 124.224C146.854 124.146 146.932 124.049 146.99 123.951C147.126 123.747 147.175 123.495 147.185 123.242C147.185 123.194 147.185 123.155 147.185 123.106C147.175 122.98 147.156 122.844 147.126 122.717C147.097 122.601 147.039 122.484 146.99 122.368C146.971 122.319 146.951 122.27 146.922 122.231C146.834 122.076 146.717 121.93 146.591 121.814C146.386 121.619 146.172 121.503 145.909 121.406C145.744 121.347 145.549 121.318 145.364 121.328C144.916 121.357 144.507 121.512 144.186 121.833C144.069 121.95 143.962 122.086 143.875 122.231C143.816 122.348 143.768 122.465 143.719 122.591C143.699 122.63 143.69 122.669 143.68 122.708C143.592 123.048 143.592 123.417 143.68 123.757C143.719 123.883 143.777 124 143.826 124.117C143.845 124.156 143.865 124.194 143.884 124.233C143.953 124.34 144.03 124.437 144.118 124.535C144.147 124.564 144.176 124.593 144.215 124.622C144.303 124.7 144.43 124.797 144.546 124.855C144.644 124.904 144.751 124.952 144.858 124.991C144.887 124.991 144.907 125.001 144.936 125.011C145.179 125.059 145.277 125.059 145.51 125.03V125.059Z" fill="#771D62"/>
</g>
<g style="mix-blend-mode:multiply" opacity="0.35">
<path d="M143.116 127.547C143.116 127.547 143.096 127.547 143.086 127.537C142.999 127.44 142.882 127.372 142.755 127.333C142.629 127.294 142.492 127.294 142.366 127.333C142.239 127.372 142.132 127.431 142.045 127.518C142.015 127.547 141.986 127.576 141.947 127.605C141.889 127.664 141.84 127.732 141.821 127.8C141.782 127.878 141.762 127.955 141.772 128.043C141.772 128.101 141.782 128.15 141.791 128.208C141.821 128.315 141.869 128.402 141.947 128.48C141.976 128.509 142.006 128.538 142.045 128.567C142.132 128.655 142.249 128.723 142.366 128.752C142.492 128.791 142.629 128.791 142.755 128.752C142.882 128.713 142.999 128.645 143.086 128.548C143.096 128.548 143.106 128.548 143.116 128.538C143.203 128.49 143.271 128.422 143.32 128.334C143.369 128.247 143.398 128.15 143.398 128.043C143.398 127.936 143.369 127.839 143.32 127.751C143.271 127.664 143.203 127.596 143.116 127.547Z" fill="#771D62"/>
</g>
<g style="mix-blend-mode:multiply" opacity="0.35">
<path d="M138.559 119.958L138.393 119.831C138.325 119.802 138.267 119.773 138.199 119.754C138.092 119.724 137.985 119.715 137.877 119.744C137.77 119.744 137.673 119.783 137.576 119.841C137.566 119.841 137.556 119.851 137.537 119.861C137.537 119.861 137.527 119.861 137.517 119.861C137.478 119.88 137.488 119.88 137.43 119.929C137.332 120.006 137.284 120.035 137.215 120.162C137.186 120.23 137.157 120.288 137.128 120.356C137.128 120.356 137.128 120.366 137.128 120.376C137.128 120.385 137.128 120.395 137.118 120.414C137.079 120.55 137.079 120.696 137.118 120.832C137.157 120.968 137.225 121.085 137.323 121.182C137.42 121.279 137.537 121.347 137.673 121.386C137.809 121.425 137.955 121.425 138.092 121.386C138.179 121.357 138.286 121.328 138.354 121.279C138.413 121.24 138.462 121.192 138.52 121.153C138.559 121.095 138.608 121.046 138.647 120.988C138.647 120.988 138.647 120.978 138.647 120.968C138.647 120.959 138.656 120.939 138.666 120.929C138.695 120.861 138.724 120.803 138.744 120.735C138.773 120.628 138.783 120.521 138.754 120.414C138.754 120.346 138.734 120.278 138.695 120.21C138.666 120.113 138.608 120.026 138.53 119.958H138.559Z" fill="#771D62"/>
</g>
<g style="mix-blend-mode:multiply" opacity="0.35">
<path d="M133.555 77.7548C133.74 77.5605 133.769 77.269 133.594 77.0455C133.438 76.8414 133.127 76.7539 132.903 76.9094C132.815 76.9677 132.737 77.0357 132.659 77.094C132.698 77.0649 132.737 77.0357 132.776 77.0066C132.601 77.1232 132.455 77.2398 132.348 77.4244C132.28 77.541 132.221 77.6771 132.173 77.8131C132.036 77.9686 131.958 78.163 131.949 78.3767C131.949 78.5419 132.007 78.6974 132.104 78.8237C132.104 78.9015 132.114 78.9792 132.134 79.0472C132.182 79.2805 132.397 79.4748 132.62 79.5331C132.747 79.5623 132.874 79.5623 132.99 79.5331C133.107 79.504 133.214 79.4359 133.302 79.3485C133.38 79.2902 133.448 79.2222 133.516 79.1541C133.643 79.0084 133.691 78.9209 133.76 78.7363C133.789 78.6391 133.808 78.5322 133.808 78.4253C133.808 78.3184 133.789 78.2115 133.76 78.1047C133.711 77.9686 133.652 77.852 133.555 77.7451V77.7548Z" fill="#771D62"/>
</g>
<g style="mix-blend-mode:multiply" opacity="0.35">
<path d="M147.866 156.699C147.778 156.466 147.69 156.301 147.515 156.116C147.408 156 147.272 155.893 147.126 155.834C147.009 155.786 146.882 155.728 146.756 155.698C146.629 155.669 146.493 155.65 146.357 155.64C146.22 155.63 146.094 155.64 145.948 155.669C145.919 155.669 145.889 155.679 145.86 155.689C145.811 155.698 145.782 155.718 145.734 155.737C145.617 155.786 145.519 155.834 145.442 155.932C145.364 156.009 145.305 156.097 145.266 156.204C145.218 156.301 145.188 156.408 145.198 156.524C145.208 156.748 145.286 156.962 145.442 157.117C145.49 157.166 145.549 157.205 145.607 157.243C145.627 157.428 145.646 157.535 145.734 157.7C145.782 157.788 145.841 157.865 145.909 157.933C146.045 158.069 146.24 158.186 146.425 158.225C146.649 158.274 146.824 158.274 147.048 158.225C147.252 158.176 147.418 158.069 147.574 157.933C147.72 157.797 147.846 157.574 147.885 157.38C147.905 157.282 147.934 157.156 147.924 157.049C147.924 156.962 147.905 156.865 147.885 156.767C147.885 156.748 147.875 156.719 147.866 156.699Z" fill="#771D62"/>
</g>
<g style="mix-blend-mode:multiply" opacity="0.35">
<path d="M251.317 66.2009C251.278 66.0357 251.19 65.8802 251.073 65.7636C251.025 65.715 250.947 65.6567 250.908 65.6373C250.801 65.5595 250.674 65.5401 250.547 65.5304C250.411 65.5304 250.285 65.5595 250.158 65.6276C250.09 65.6664 250.031 65.715 249.983 65.783C249.973 65.7928 249.973 65.8122 249.963 65.8219C249.944 65.8219 249.915 65.8219 249.895 65.8414C249.856 65.8511 249.827 65.8705 249.798 65.8997C249.749 65.9288 249.71 65.9677 249.691 66.0163C249.681 66.0551 249.662 66.0843 249.652 66.1232C249.632 66.2009 249.632 66.2786 249.652 66.3564C249.671 66.4438 249.681 66.541 249.691 66.6285C249.7 66.7159 249.73 66.8034 249.749 66.9006C249.749 66.8714 249.749 66.8325 249.739 66.8034C249.739 66.8811 249.749 66.9589 249.788 67.0269C249.817 67.1046 249.856 67.1824 249.924 67.2407C249.973 67.2795 250.012 67.3087 250.061 67.3476C250.168 67.4059 250.275 67.435 250.392 67.435C250.547 67.435 250.742 67.3864 250.869 67.299C250.927 67.2601 250.986 67.2115 251.034 67.1726C251.044 67.1726 251.054 67.1532 251.063 67.1435C251.122 67.0755 251.18 67.0074 251.219 66.9297C251.258 66.852 251.297 66.7645 251.317 66.6868C251.317 66.6771 251.317 66.6576 251.317 66.6479C251.346 66.4438 251.356 66.4633 251.317 66.2592V66.2398V66.2009Z" fill="#771D62"/>
</g>
<path style="mix-blend-mode:multiply" opacity="0.35" d="M130.469 117.762C130.469 96.4027 130.809 82.4485 135.249 68.6109C125.874 71.05 116.888 73.9652 108.564 77.4538C115.252 110.668 107.035 151.773 104.212 164.493C103.647 167.039 103.569 168.263 103.569 168.263C109.352 182.868 123.868 176.62 138.783 171.237C132.669 161.004 130.478 139.12 130.478 117.752L130.469 117.762Z" fill="url(#paint10_linear_528_5031)"/>
<path d="M321.666 164.483C322.785 169.818 329.259 173.52 334.604 173.52C339.861 172.578 340.718 170.119 341.76 167.408C341.76 167.408 341.672 157.681 341.76 154.843C341.847 152.006 322.96 150.004 322.571 154.843L321.666 164.483Z" fill="#A145A6"/>
<g style="mix-blend-mode:multiply" opacity="0.35">
<path d="M341.76 154.843C341.847 152.006 323.272 149.839 322.882 154.678L321.656 164.483C322.201 167.077 324.012 169.283 326.348 170.867C326.348 170.867 327.137 171.372 328.042 171.858C330.135 172.918 332.453 173.52 334.594 173.52C339.852 172.577 340.708 170.119 341.75 167.408C341.75 167.408 341.662 157.681 341.75 154.843H341.76Z" fill="#771D62"/>
</g>
<path d="M329.162 165.426C328.987 163.531 330.457 161.296 334.945 161.296C339.346 161.986 340.825 164.308 341.76 167.408V155.524C341.76 152.249 329.172 151.481 329.172 155.524V165.426H329.162Z" fill="url(#paint11_linear_528_5031)"/>
<path d="M342.763 156.135L326.963 155.688L326.213 169.303L343.065 169.652L342.763 156.135Z" fill="url(#paint12_linear_528_5031)"/>
<g style="mix-blend-mode:multiply" opacity="0.25">
<path d="M342.773 156.612L340.407 156.068L338.898 156.029L338.752 157.545L338.83 160.936L342.91 162.53L342.773 156.612Z" fill="#CC0631"/>
</g>
<path d="M349.694 67.7072C349.246 64.6559 347.883 62.1683 345.975 60.2734C345.625 61.0702 344.048 62.8679 344.048 62.4306C344.048 61.3131 344.281 60.1859 344.651 59.1267C337.34 53.4712 324.586 54.783 321.656 63.9271C324.362 79.2321 325.063 101.572 324.849 113.777C324.615 126.76 322.279 161.5 321.656 164.483C323.554 158.332 328.607 156.554 334.809 156.903C338.07 157.088 341.37 157.924 344.048 159.576C344.34 159.041 344.807 158.623 345.401 158.371C345.712 158.244 345.956 158.555 345.995 158.818C346.112 159.809 346.491 160.761 346.705 161.733C348.263 163.404 349.353 165.552 349.694 168.263C347.922 156.719 345.829 126.585 345.79 112.65C345.761 101.368 347.056 83.6049 349.694 67.7072Z" fill="url(#paint13_linear_528_5031)"/>
<path d="M131.589 164.483C130.469 169.818 123.995 173.52 118.65 173.52C113.393 172.578 112.536 170.119 111.494 167.408C111.494 167.408 111.582 157.681 111.494 154.843C111.407 152.006 130.294 150.004 130.683 154.843L131.589 164.483Z" fill="#A145A6"/>
<g style="mix-blend-mode:multiply" opacity="0.35">
<path d="M131.589 164.483C130.469 169.818 123.995 173.52 118.65 173.52C113.393 172.578 112.536 170.119 111.494 167.408C111.494 167.408 111.582 157.681 111.494 154.843C111.407 152.006 130.294 150.004 130.683 154.843L131.589 164.483Z" fill="#771D62"/>
</g>
<path d="M111.494 155.533V167.417C112.156 165.212 113.101 163.404 115.164 162.296L116.099 160.178C116.099 160.178 116.187 161.266 116.284 161.811C116.878 161.597 117.55 161.432 118.309 161.305C122.388 161.305 123.965 163.152 124.092 164.91V155.533C124.092 151.491 111.504 152.258 111.504 155.533H111.494Z" fill="url(#paint14_linear_528_5031)"/>
<path d="M110.442 156.135L126.243 155.688L127.003 169.303L110.141 169.652L110.442 156.135Z" fill="url(#paint15_linear_528_5031)"/>
<g style="mix-blend-mode:multiply" opacity="0.25">
<path d="M110.433 156.612L112.798 156.067L114.317 156.029L114.463 157.544L114.376 160.936L110.296 162.53L110.433 156.612Z" fill="#CC0631"/>
</g>
<g style="mix-blend-mode:multiply" opacity="0.15">
<path d="M112.059 154.406C111.903 154.591 111.747 154.814 111.591 155.057C111.533 155.212 111.494 155.368 111.494 155.533V167.418C112.01 165.707 112.711 164.23 113.957 163.142C113.714 162.617 113.587 161.47 113.519 160.1C113.49 158.886 118.436 155.766 124.024 158.108C124.043 158.108 124.063 158.108 124.082 158.108V155.533C124.082 155.417 124.072 155.31 124.053 155.203L113.081 153.745C112.672 153.939 112.322 154.153 112.059 154.396V154.406Z" fill="#8E1613"/>
</g>
<path d="M131.588 63.9272C130.897 61.7699 129.651 60.0596 128.074 58.7672C127.402 59.7195 125.523 59.5057 125.708 61.0897C125.504 62.0031 124.043 61.5075 123.683 60.9245C122.778 59.5543 123.42 57.708 122.894 56.231C118.027 55.0163 112.263 56.1144 108.281 59.3891C108.953 62.4015 108.048 65.6471 107.055 60.5261C105.273 62.3918 103.998 64.8017 103.569 67.7267C106.198 83.6244 107.503 101.398 107.473 112.67C107.444 126.605 105.341 156.738 103.569 168.283C104.611 158.332 118.757 153.949 126.74 158.468C126.925 157.545 127.032 156.612 127.159 155.689C127.188 155.494 127.421 155.349 127.606 155.349H127.947C128.2 155.349 128.415 155.562 128.415 155.815C128.424 156.699 128.814 157.477 129.184 158.264C129.573 159.09 129.924 159.935 129.933 160.868C129.933 160.975 129.904 161.062 129.846 161.13C130.605 162.093 131.209 163.21 131.598 164.502C129.125 141.356 126.107 93.3418 131.598 63.9466L131.588 63.9272Z" fill="url(#paint16_linear_528_5031)"/>
<g style="mix-blend-mode:multiply" opacity="0.35">
<path d="M128.074 58.7574C127.402 59.7098 125.523 59.496 125.708 61.0799C125.504 61.9933 124.043 61.4978 123.683 60.9147C122.778 59.5446 123.42 57.6982 122.894 56.2212C118.027 55.0065 112.263 56.1046 108.281 59.3794C108.953 62.3918 108.048 65.6374 107.055 60.5163C105.273 62.382 103.998 64.792 103.569 67.7169C103.696 68.4554 103.813 69.2037 103.93 69.9519C104.767 68.0376 105.867 66.3662 107.249 64.9863C108.505 68.0764 109.362 68.436 109.459 63.1983C111.406 61.935 113.753 61.1285 116.547 60.8661C116.547 60.9827 116.566 61.0993 116.566 61.2062C116.615 62.2168 116.732 63.2275 116.8 64.2381C116.858 65.2098 116.946 66.1816 117.053 67.1533C117.102 67.6003 117.17 68.0473 117.248 68.4943C117.345 69.019 117.618 69.4758 117.705 69.9908C117.735 70.1657 118.036 70.1268 118.017 69.9519C117.959 69.4369 118.095 68.9121 118.066 68.3874C118.036 67.9404 118.007 67.4934 117.959 67.0464C117.871 66.0747 117.803 65.1029 117.754 64.1312C117.705 63.1497 117.754 62.1877 117.793 61.2062C117.793 61.0702 117.812 60.9244 117.822 60.7787C119.088 60.7301 120.295 60.7787 121.444 60.9341C122.369 63.723 125.095 64.3352 127.042 63.0137C128.687 64.1603 130.011 65.7831 130.917 67.9404C131.131 66.5702 131.345 65.2292 131.588 63.9271C130.897 61.7698 129.651 60.0596 128.074 58.7672V58.7574Z" fill="#771D62"/>
</g>
<g style="mix-blend-mode:multiply" opacity="0.35">
<path d="M131.588 164.483C131.306 161.811 131.014 158.788 130.722 155.514C130.216 155.067 129.7 154.678 129.154 154.318C128.054 150.461 126.896 150.567 126.166 152.803C122.671 151.5 118.806 151.53 115.31 152.287C115.583 148.974 115.505 145.582 115.622 142.288C115.778 137.838 115.924 133.397 116.07 128.946C116.07 128.869 115.953 128.869 115.953 128.946C115.749 133.339 115.437 137.702 115.028 142.074C114.824 144.232 114.561 146.379 114.317 148.527C114.162 149.887 113.967 151.277 113.84 152.657C109.401 153.92 105.799 156.32 104.738 158.545C104.348 162.423 103.949 165.785 103.569 168.273C104.611 158.322 118.757 153.939 126.74 158.458C126.925 157.535 127.032 156.602 127.159 155.679C127.188 155.485 127.421 155.339 127.606 155.339H127.947C128.2 155.339 128.415 155.553 128.415 155.805C128.424 156.689 128.814 157.467 129.184 158.254C129.573 159.08 129.924 159.925 129.933 160.858C129.933 160.965 129.904 161.053 129.846 161.121C130.605 162.083 131.209 163.2 131.598 164.493L131.588 164.483Z" fill="#771D62"/>
</g>
<g style="mix-blend-mode:multiply" opacity="0.35">
<path d="M115.447 122.883C115.476 122.057 115.476 121.24 115.476 120.414C115.476 120.317 115.33 120.317 115.33 120.414C115.33 121.24 115.33 122.057 115.359 122.883C115.359 122.931 115.437 122.931 115.437 122.883H115.447Z" fill="#771D62"/>
</g>
<g style="mix-blend-mode:multiply" opacity="0.35">
<path d="M115.671 127.362C115.71 126.546 115.69 125.72 115.7 124.894C115.7 124.807 115.564 124.807 115.564 124.894C115.564 125.72 115.554 126.536 115.593 127.362C115.593 127.411 115.671 127.411 115.671 127.362Z" fill="#771D62"/>
</g>
<g style="mix-blend-mode:multiply" opacity="0.35">
<path d="M345.975 60.2734C345.625 61.0702 344.048 62.8679 344.048 62.4306C344.048 61.3131 344.281 60.1859 344.651 59.1267C337.34 53.4712 324.586 54.783 321.656 63.9271C321.792 64.724 322.25 67.6683 322.376 68.4943C322.376 68.4943 324.518 59.3599 336.541 60.2928C336.541 60.5843 336.551 60.8661 336.551 61.1479C336.551 62.1002 336.502 63.0526 336.464 64.0049C336.386 65.9095 336.21 67.8141 336.21 69.7284C336.21 69.8839 336.473 69.9325 336.503 69.7673C336.775 67.9307 336.882 66.0747 337.087 64.2284C337.194 63.2372 337.301 62.2557 337.447 61.2646C337.486 60.9925 337.534 60.7204 337.593 60.4386C339.423 60.7981 341.302 61.7407 342.938 62.8388V67.1436L345.596 63.2469C347.367 65.1126 348.662 67.4157 349.071 69.9422C349.168 69.8936 349.266 69.8353 349.363 69.777C349.47 69.0871 349.577 68.3971 349.694 67.7169C349.246 64.6656 347.883 62.178 345.975 60.2831V60.2734Z" fill="#771D62"/>
</g>
<g style="mix-blend-mode:multiply" opacity="0.35">
<path d="M336.395 70.2919C336.337 70.2336 336.22 70.2433 336.172 70.3211C336.123 70.4183 336.142 70.496 336.152 70.5932C336.162 70.6903 336.172 70.7875 336.172 70.8847C336.172 71.079 336.172 71.2734 336.172 71.4677C336.142 71.8564 336.064 72.2354 335.938 72.595C335.87 72.8087 336.201 72.8962 336.269 72.6824C336.395 72.2937 336.473 71.8856 336.503 71.4775C336.512 71.2734 336.522 71.079 336.503 70.875C336.503 70.7778 336.493 70.6806 336.483 70.5835C336.473 70.4669 336.473 70.36 336.386 70.2822L336.395 70.2919Z" fill="#771D62"/>
</g>
<g style="mix-blend-mode:multiply" opacity="0.35">
<path d="M348.497 158.302C348.068 157.564 347.572 156.893 347.027 156.281C346.881 152.579 345.781 152.472 344.573 154.163C343.278 153.298 341.838 152.657 340.329 152.19C340.251 151.082 340.173 149.965 340.095 148.857C339.998 147.545 339.9 146.224 339.793 144.912C339.686 143.542 339.404 142.181 339.258 140.821C339.238 140.627 338.936 140.607 338.936 140.821C338.956 142.24 338.859 143.658 338.927 145.067C338.985 146.379 339.053 147.701 339.131 149.013C339.19 149.975 339.238 150.937 339.297 151.899C338.128 151.607 336.931 151.432 335.743 151.335C335.743 151.189 335.733 151.044 335.724 150.898C335.704 149.771 335.617 148.653 335.48 147.536C335.48 147.458 335.373 147.458 335.363 147.536C335.227 148.653 335.14 149.771 335.12 150.898C335.12 151.024 335.11 151.16 335.101 151.287C329.561 151.005 324.245 152.628 322.571 154.824C322.182 159.896 321.851 163.579 321.666 164.463C323.564 158.312 328.617 156.534 334.818 156.884C338.08 157.068 341.38 157.904 344.057 159.556C344.349 159.022 344.817 158.604 345.411 158.351C345.722 158.225 345.966 158.536 346.004 158.798C346.121 159.789 346.501 160.742 346.715 161.713C348.273 163.385 349.363 165.532 349.704 168.243C349.315 165.697 348.906 162.257 348.516 158.283L348.497 158.302Z" fill="#771D62"/>
</g>
<path d="M346.9 169.225C346.939 170.119 346.881 172.131 346.881 172.131L321.899 171.985C321.899 171.985 321.899 170.304 321.919 169.079C321.948 163.608 327.566 159.206 334.468 159.245C341.371 159.284 346.657 163.579 346.9 169.225Z" fill="url(#paint17_linear_528_5031)"/>
<path d="M346.881 172.13C346.852 177.601 341.234 182.003 334.332 181.964C327.429 181.926 321.87 177.456 321.9 171.985C321.929 166.514 327.546 162.112 334.449 162.151C341.351 162.19 346.91 166.66 346.881 172.13Z" fill="url(#paint18_linear_528_5031)"/>
<g style="mix-blend-mode:multiply" opacity="0.25">
<path d="M343.493 165.309C344.72 166.805 345.43 168.584 345.421 170.498C345.391 175.707 340.037 179.905 333.475 179.866C327.829 179.836 323.126 176.678 321.938 172.49C322.24 177.728 327.653 181.935 334.342 181.974C341.244 182.013 346.862 177.611 346.891 172.14C346.91 169.497 345.606 167.097 343.503 165.309H343.493Z" fill="#CC0631"/>
</g>
<path d="M323.224 167.602C324.158 164.813 333.29 158.555 342.198 164.337C336.104 161.16 327.498 161.976 323.224 167.602Z" fill="#FFF5CC"/>
<path d="M334.634 168.273C330 168.156 328.939 170.411 328.88 172.024C328.763 175.269 330.798 176.873 330.496 181.644C330.185 186.415 329.114 187.436 328.082 191.06C327.507 193.081 328.822 195.55 333.329 195.997C337.603 196.016 339.385 193.8 339.005 191.721C338.324 187.989 337.35 186.852 337.496 182.072C337.642 177.291 339.813 175.95 339.998 172.694C340.096 171.071 339.249 168.71 334.634 168.273Z" fill="url(#paint19_linear_528_5031)"/>
<path d="M333.748 175.133C333.631 175.396 332.901 181.897 332.716 184.2C332.609 185.482 332.619 186.891 333.437 186.804C334.215 186.483 334.41 185.133 334.342 183.889C334.215 181.663 333.865 175.347 333.758 175.124L333.748 175.133Z" fill="#FFF5CC"/>
<path d="M339.035 192.557C338.927 194.617 336.338 196.152 333.271 195.987C330.195 195.822 327.8 194.014 327.907 191.954C328.014 189.894 330.604 188.359 333.67 188.524C336.747 188.689 339.142 190.497 339.035 192.557Z" fill="url(#paint20_linear_528_5031)"/>
<path d="M328.296 190.74C330.224 188.689 332.58 188.174 335.919 188.971C333.816 188.077 330.301 187.708 328.296 190.74Z" fill="#FFF5CC"/>
<g style="mix-blend-mode:multiply" opacity="0.15">
<path d="M338.041 187.727C337.672 186.25 337.409 184.715 337.487 182.072C337.633 177.291 339.804 175.95 339.989 172.694C340.086 171.071 339.239 168.71 334.624 168.273C332.862 168.224 331.626 168.525 330.75 169.002C334.011 168.817 338.596 170.867 337.72 174.463C336.854 178.068 336.153 181.77 338.032 187.727H338.041Z" fill="#CC0631"/>
</g>
<g style="mix-blend-mode:multiply" opacity="0.35">
<path d="M336.825 189.379C337.516 189.991 337.915 190.749 337.866 191.556C337.769 193.363 335.51 194.714 332.813 194.568C330.146 194.422 328.063 192.877 328.111 191.089C327.994 191.371 327.916 191.663 327.897 191.964C327.79 194.024 330.185 195.831 333.261 195.997C336.338 196.162 338.918 194.626 339.025 192.566C339.093 191.303 338.217 190.137 336.815 189.379H336.825Z" fill="#CC0631"/>
</g>
<path d="M106.305 169.225C106.266 170.119 106.325 172.131 106.325 172.131L131.306 171.985C131.306 171.985 131.306 170.304 131.287 169.079C131.258 163.608 125.64 159.206 118.738 159.245C111.835 159.284 106.549 163.579 106.305 169.225Z" fill="url(#paint21_linear_528_5031)"/>
<path d="M106.325 172.131C106.354 177.601 111.971 182.003 118.874 181.965C125.776 181.926 131.335 177.456 131.306 171.985C131.277 166.514 125.66 162.112 118.757 162.151C111.855 162.19 106.296 166.66 106.325 172.131Z" fill="url(#paint22_linear_528_5031)"/>
<g style="mix-blend-mode:multiply" opacity="0.25">
<path d="M109.713 165.309C108.486 166.805 107.775 168.584 107.785 170.498C107.814 175.707 113.169 179.905 119.731 179.866C125.377 179.836 130.08 176.678 131.267 172.49C130.966 177.728 125.553 181.935 118.864 181.974C111.962 182.013 106.344 177.611 106.315 172.14C106.296 169.497 107.6 167.097 109.703 165.309H109.713Z" fill="#CC0631"/>
</g>
<path d="M129.982 167.602C129.048 164.813 119.916 158.555 111.008 164.337C117.102 161.16 125.709 161.976 129.982 167.602Z" fill="#FFF5CC"/>
<path d="M118.572 168.273C123.206 168.156 124.267 170.41 124.325 172.024C124.442 175.269 122.407 176.873 122.709 181.644C123.021 186.415 124.092 187.435 125.124 191.06C125.698 193.081 124.384 195.549 119.876 195.996C115.602 196.016 113.821 193.8 114.2 191.721C114.882 187.989 115.855 186.852 115.709 182.071C115.563 177.29 113.392 175.949 113.207 172.694C113.11 171.071 113.957 168.71 118.572 168.273Z" fill="url(#paint23_linear_528_5031)"/>
<path d="M119.467 175.133C119.584 175.396 120.314 181.897 120.499 184.2C120.606 185.482 120.597 186.891 119.779 186.804C119 186.483 118.805 185.133 118.873 183.889C119 181.663 119.351 175.347 119.458 175.124L119.467 175.133Z" fill="#FFF5CC"/>
<path d="M114.171 192.557C114.278 194.617 116.868 196.152 119.934 195.987C123.011 195.822 125.406 194.014 125.299 191.954C125.192 189.894 122.602 188.359 119.535 188.524C116.459 188.689 114.064 190.497 114.171 192.557Z" fill="url(#paint24_linear_528_5031)"/>
<path d="M124.919 190.74C122.992 188.689 120.636 188.174 117.296 188.971C119.399 188.077 122.914 187.708 124.919 190.74Z" fill="#FFF5CC"/>
<g style="mix-blend-mode:multiply" opacity="0.15">
<path d="M115.164 187.727C115.534 186.25 115.797 184.715 115.719 182.072C115.573 177.291 113.402 175.95 113.217 172.694C113.12 171.071 113.967 168.71 118.581 168.273C120.344 168.224 121.58 168.525 122.456 169.002C119.195 168.817 114.609 170.867 115.486 174.463C116.352 178.068 117.053 181.77 115.174 187.727H115.164Z" fill="#CC0631"/>
</g>
<g style="mix-blend-mode:multiply" opacity="0.35">
<path d="M116.381 189.379C115.689 189.991 115.29 190.749 115.339 191.556C115.436 193.363 117.695 194.714 120.392 194.568C123.059 194.422 125.143 192.877 125.094 191.089C125.211 191.371 125.289 191.663 125.308 191.964C125.415 194.024 123.02 195.831 119.944 195.997C116.867 196.162 114.288 194.626 114.18 192.566C114.112 191.303 114.989 190.137 116.39 189.379H116.381Z" fill="#CC0631"/>
</g>
<g style="mix-blend-mode:screen">
<path d="M156.317 52.6549L157.991 62.4501L162.1 64.345L157.991 66.2496L156.317 76.0447L154.642 66.2496L150.524 64.345L154.642 62.4501L156.317 52.6549Z" fill="#FCCD47"/>
</g>
<g style="mix-blend-mode:screen">
<path d="M174.922 57.1346C174.922 58.3784 173.909 59.389 172.663 59.389C171.417 59.389 170.404 58.3784 170.404 57.1346C170.404 55.8907 171.417 54.8801 172.663 54.8801C173.909 54.8801 174.922 55.8907 174.922 57.1346Z" fill="#FCCD47"/>
</g>
<g style="mix-blend-mode:screen">
<path d="M148.781 71.4871C148.781 72.3714 148.07 73.0808 147.185 73.0808C146.299 73.0808 145.588 72.3714 145.588 71.4871C145.588 70.6029 146.299 69.8935 147.185 69.8935C148.07 69.8935 148.781 70.6029 148.781 71.4871Z" fill="#FCCD47"/>
</g>
<g style="mix-blend-mode:screen">
<path d="M288.867 142.415L290.58 160.635L298.846 162.578L290.58 164.512L288.867 182.742L287.153 164.512L278.878 162.578L287.153 160.635L288.867 142.415Z" fill="#FCCD47"/>
</g>
<g style="mix-blend-mode:screen">
<path d="M300.452 180.322C301.333 180.322 302.048 179.609 302.048 178.729C302.048 177.849 301.333 177.135 300.452 177.135C299.57 177.135 298.855 177.849 298.855 178.729C298.855 179.609 299.57 180.322 300.452 180.322Z" fill="#FCCD47"/>
</g>
<path d="M349.928 168.273C349.529 165.678 348.691 163.822 346.705 161.743C346.579 160.168 346.345 156.087 344.048 159.576C341.643 157.807 333.553 155.038 327.341 157.739C321.948 160.081 321.85 163.628 321.656 164.483C322.824 161.908 323.905 159.955 327.614 158.448C331.703 156.932 336.337 156.388 344.388 160.295C345.021 159.323 345.732 157.185 346.365 162.19C347.416 163.113 349.061 164.561 349.918 168.273H349.928Z" fill="#F294F7"/>
<path d="M131.589 164.483C131.306 162.578 130.664 161.985 129.836 161.111C130.187 159.274 128.668 157.146 128.668 155.97C128.668 154.795 127.042 154.396 126.867 155.63C126.702 156.864 126.38 158.273 126.38 158.273C123.995 156.757 118.621 155.689 113.198 157.71C107.766 159.731 103.891 163.2 103.56 168.273C104.621 163.705 108.613 160.168 113.442 158.38C119.049 156.301 123.946 157.146 126.76 159.226C126.925 157.933 127.656 154.795 128.337 157.039C129.019 159.284 129.457 159.566 129.184 161.189C130.138 161.859 131.316 163.084 131.598 164.493L131.589 164.483Z" fill="#F294F7"/>
<path d="M318.594 156.376C336.601 109.106 290.162 61.6226 214.871 50.3178C139.579 39.013 63.9463 68.1682 45.9399 115.438C27.9335 162.707 74.3722 210.191 149.664 221.496C224.955 232.8 300.588 203.645 318.594 156.376Z" fill="url(#paint25_radial_528_5031)" fill-opacity="0.7" style="mix-blend-mode:screen"/>
<path d="M305.258 126.527C323.264 79.2577 276.826 31.7739 201.534 20.4692C126.243 9.16441 50.6099 38.3195 32.6035 85.589C14.5971 132.858 61.0358 180.342 136.327 191.647C211.619 202.952 287.252 173.797 305.258 126.527Z" fill="url(#paint26_radial_528_5031)" fill-opacity="0.7" style="mix-blend-mode:screen"/>
<path style="mix-blend-mode:screen" d="M416.397 148.12C434.403 100.85 387.964 53.3664 312.673 42.0616C237.381 30.7568 161.749 59.9119 143.742 107.181C125.736 154.451 172.174 201.935 247.466 213.239C322.757 224.544 398.39 195.389 416.397 148.12Z" fill="url(#paint27_radial_528_5031)" fill-opacity="0.7"/>
<g filter="url(#filter0_d_528_5031)">
<path d="M200.473 123.35C205.273 123.35 205.033 132.51 197.913 132.51C193.793 132.51 191.113 128.71 189.393 121.91L186.473 110.39L184.873 112.55V119.15C184.873 121.27 185.353 122.15 187.913 122.15V123.03L176.113 123.67V122.15H177.673C179.553 122.15 180.353 121.59 180.353 119.87V98.43C180.353 96.07 177.873 95.51 176.833 95.51H175.993V94.67H187.833V95.51C186.633 95.51 184.873 95.95 184.873 98.03V109.03L191.313 100.51C192.153 99.43 191.713 98.39 190.313 98.15L188.793 97.99L188.873 97.15L199.233 98.19L199.153 99.03L198.273 98.99H198.313C195.793 98.71 194.753 99.43 193.793 100.79L189.873 105.91L193.433 119.47C194.473 123.47 195.793 129.51 199.193 129.51C202.633 129.51 203.113 124.91 200.673 124.91C200.153 124.91 199.713 125.35 199.753 125.95C199.753 126.95 201.113 127.15 201.113 127.15C200.753 127.55 200.273 127.71 199.833 127.71C198.833 127.71 197.833 126.87 197.833 125.67C197.833 124.23 199.193 123.35 200.473 123.35ZM202.609 97.95C201.209 97.95 200.129 96.83 200.129 95.47C200.129 94.11 201.209 92.99 202.609 92.99C203.969 92.99 205.049 94.11 205.049 95.47C205.049 96.83 203.969 97.95 202.609 97.95ZM201.209 104.99C201.209 102.63 198.689 102.03 197.689 102.03L196.809 102.07V101.19L209.729 100.47V101.35L207.849 101.47C206.489 101.63 205.329 102.23 205.329 103.87V117.79C205.329 119.87 205.769 121.11 208.009 121.35L209.889 121.51V122.39L196.969 121.95V120.43L198.249 120.55C200.169 120.55 201.209 120.23 201.209 118.47V104.99ZM239.022 118.83C239.062 120.67 239.742 121.35 240.742 121.39H241.782V122.63L231.302 122.67V121.15L231.822 121.19C233.422 121.23 234.062 120.79 234.062 118.99C234.102 116.87 234.102 114.03 234.022 111.67C234.022 111.59 234.022 111.55 234.022 111.47C233.982 107.63 233.662 103.79 231.382 103.79C229.262 103.79 228.742 107.19 228.542 109.79C228.542 109.83 228.542 109.87 228.502 109.91V110.91L228.182 114.35V114.39C228.062 116.55 228.822 117.31 230.302 117.35L230.262 118.27L220.022 117.91L220.062 116.99H220.422C221.302 117.03 222.782 116.47 223.102 114.83L223.502 110.31C223.822 106.51 223.542 102.83 221.182 102.51C219.142 102.23 218.062 104.75 218.062 107.35V119.59C218.062 121.71 218.342 122.75 220.182 122.83V123.71L209.742 123.75V122.23L211.462 122.35C213.022 122.31 213.982 121.91 213.982 120.27V104.99C213.982 102.63 211.502 102.07 210.462 102.07L211.102 101.99L209.582 102.07V101.19L218.062 100.79V102.91C218.942 101.23 220.422 100.31 222.422 100.31C224.702 100.31 226.982 101.79 227.982 105.11C228.702 102.91 230.302 101.47 232.862 101.51C235.742 101.51 239.022 104.31 239.022 111.59V118.83ZM247.531 97.95C246.131 97.95 245.051 96.83 245.051 95.47C245.051 94.11 246.131 92.99 247.531 92.99C248.891 92.99 249.971 94.11 249.971 95.47C249.971 96.83 248.891 97.95 247.531 97.95ZM246.131 104.99C246.131 102.63 243.611 102.03 242.611 102.03L241.731 102.07V101.19L254.651 100.47V101.35L252.771 101.47C251.411 101.63 250.251 102.23 250.251 103.87V117.79C250.251 119.87 250.691 121.11 252.931 121.35L254.811 121.51V122.39L241.891 121.95V120.43L243.171 120.55C245.091 120.55 246.131 120.23 246.131 118.47V104.99ZM273.782 126.87H273.622L275.102 126.95L275.022 127.63L267.342 127.23L267.462 124.55C266.982 125.11 265.622 126.07 262.782 126.07C257.422 126.07 254.582 122.39 254.582 117.39C254.582 111.15 258.502 108.63 262.142 108.63C264.862 108.63 267.422 110.03 268.182 112.31L268.302 110.19C268.622 104.23 268.262 100.55 264.822 100.55C263.102 100.55 261.862 101.07 261.262 102.83C260.902 104.11 261.102 105.55 263.062 106.19L262.902 107.03L258.182 105.55H258.022V105.47C259.342 100.03 262.542 99.07 264.782 99.07C271.222 99.07 272.942 103.91 272.582 109.75C272.582 109.79 272.582 109.79 272.582 109.83L271.702 124.43C271.622 126.07 272.822 126.79 273.782 126.87ZM264.422 123.75C266.262 123.75 267.142 123.19 267.582 122.83L268.022 115.51C267.342 116.71 265.982 117.23 264.702 117.15C262.782 117.03 261.782 115.79 261.902 114.07C261.942 112.87 262.862 112.31 263.862 112.31C264.702 112.31 265.622 112.75 266.022 113.59C266.022 113.59 264.462 113.39 264.102 114.47C263.862 115.15 264.422 115.59 265.062 115.59C265.822 115.59 266.742 115.03 266.822 113.63C266.902 112.19 265.582 110.99 263.742 110.99C257.782 110.99 257.862 123.75 264.422 123.75Z" fill="#F5F5F5"/>
</g>
<defs>
<filter id="filter0_d_528_5031" x="171.993" y="92.99" width="107.109" height="47.52" filterUnits="userSpaceOnUse" color-interpolation-filters="sRGB">
<feFlood flood-opacity="0" result="BackgroundImageFix"/>
<feColorMatrix in="SourceAlpha" type="matrix" values="0 0 0 0 0 0 0 0 0 0 0 0 0 0 0 0 0 0 127 0" result="hardAlpha"/>
<feOffset dy="4"/>
<feGaussianBlur stdDeviation="2"/>
<feComposite in2="hardAlpha" operator="out"/>
<feColorMatrix type="matrix" values="0 0 0 0 0 0 0 0 0 0 0 0 0 0 0 0 0 0 0.25 0"/>
<feBlend mode="normal" in2="BackgroundImageFix" result="effect1_dropShadow_528_5031"/>
<feBlend mode="normal" in="SourceGraphic" in2="effect1_dropShadow_528_5031" result="shape"/>
</filter>
<linearGradient id="paint0_linear_528_5031" x1="111.072" y1="52.3241" x2="124.048" y2="51.7985" gradientUnits="userSpaceOnUse">
<stop stop-color="#B83D00"/>
<stop offset="0.25" stop-color="#E4790F"/>
<stop offset="0.56" stop-color="#FEE34D"/>
<stop offset="0.62" stop-color="#FAD444"/>
<stop offset="0.75" stop-color="#F1AF2E"/>
<stop offset="0.91" stop-color="#E4790F"/>
</linearGradient>
<linearGradient id="paint1_linear_528_5031" x1="130.386" y1="59.1773" x2="105.333" y2="57.127" gradientUnits="userSpaceOnUse">
<stop offset="0.06" stop-color="#E47B10"/>
<stop offset="0.14" stop-color="#E68417"/>
<stop offset="0.27" stop-color="#ED9D2B"/>
<stop offset="0.44" stop-color="#F8C74C"/>
<stop offset="0.53" stop-color="#FEDE5F"/>
<stop offset="0.61" stop-color="#F7C64C"/>
<stop offset="0.78" stop-color="#ED9D2B"/>
<stop offset="0.92" stop-color="#E68417"/>
<stop offset="1" stop-color="#E47B10"/>
</linearGradient>
<linearGradient id="paint2_linear_528_5031" x1="117.507" y1="73.9081" x2="117.5" y2="54.0843" gradientUnits="userSpaceOnUse">
<stop stop-color="#CF4B0B"/>
<stop offset="0.99" stop-color="#E8B321"/>
</linearGradient>
<linearGradient id="paint3_linear_528_5031" x1="127.023" y1="69.4816" x2="109.48" y2="68.0458" gradientUnits="userSpaceOnUse">
<stop offset="0.06" stop-color="#E47B10"/>
<stop offset="0.14" stop-color="#E68417"/>
<stop offset="0.27" stop-color="#ED9D2B"/>
<stop offset="0.44" stop-color="#F8C74C"/>
<stop offset="0.53" stop-color="#FEDE5F"/>
<stop offset="0.61" stop-color="#F7C64C"/>
<stop offset="0.78" stop-color="#ED9D2B"/>
<stop offset="0.92" stop-color="#E68417"/>
<stop offset="1" stop-color="#E47B10"/>
</linearGradient>
<linearGradient id="paint4_linear_528_5031" x1="342.076" y1="52.6352" x2="329.1" y2="52.1096" gradientUnits="userSpaceOnUse">
<stop offset="0.06" stop-color="#E47B10"/>
<stop offset="0.14" stop-color="#E68417"/>
<stop offset="0.27" stop-color="#ED9D2B"/>
<stop offset="0.44" stop-color="#F8C74C"/>
<stop offset="0.53" stop-color="#FEDE5F"/>
<stop offset="0.61" stop-color="#F7C64C"/>
<stop offset="0.78" stop-color="#ED9D2B"/>
<stop offset="0.92" stop-color="#E68417"/>
<stop offset="1" stop-color="#E47B10"/>
</linearGradient>
<linearGradient id="paint5_linear_528_5031" x1="322.833" y1="59.1356" x2="347.896" y2="57.0844" gradientUnits="userSpaceOnUse">
<stop offset="0.06" stop-color="#E47B10"/>
<stop offset="0.14" stop-color="#E68417"/>
<stop offset="0.27" stop-color="#ED9D2B"/>
<stop offset="0.44" stop-color="#F8C74C"/>
<stop offset="0.53" stop-color="#FEDE5F"/>
<stop offset="0.61" stop-color="#F7C64C"/>
<stop offset="0.78" stop-color="#ED9D2B"/>
<stop offset="0.92" stop-color="#E68417"/>
<stop offset="1" stop-color="#E47B10"/>
</linearGradient>
<linearGradient id="paint6_linear_528_5031" x1="335.71" y1="73.8799" x2="335.717" y2="54.0658" gradientUnits="userSpaceOnUse">
<stop stop-color="#CF4B0B"/>
<stop offset="0.99" stop-color="#E8B321"/>
</linearGradient>
<linearGradient id="paint7_linear_528_5031" x1="326.207" y1="69.4487" x2="343.74" y2="68.0138" gradientUnits="userSpaceOnUse">
<stop offset="0.06" stop-color="#E47B10"/>
<stop offset="0.14" stop-color="#E68417"/>
<stop offset="0.27" stop-color="#ED9D2B"/>
<stop offset="0.44" stop-color="#F8C74C"/>
<stop offset="0.53" stop-color="#FEDE5F"/>
<stop offset="0.61" stop-color="#F7C64C"/>
<stop offset="0.78" stop-color="#ED9D2B"/>
<stop offset="0.92" stop-color="#E68417"/>
<stop offset="1" stop-color="#E47B10"/>
</linearGradient>
<linearGradient id="paint8_linear_528_5031" x1="348.856" y1="117.761" x2="103.351" y2="117.761" gradientUnits="userSpaceOnUse">
<stop stop-color="#8A3D90"/>
<stop offset="0.47" stop-color="#D457D4"/>
<stop offset="1" stop-color="#C14FC1"/>
</linearGradient>
<linearGradient id="paint9_linear_528_5031" x1="314.101" y1="122.747" x2="349.928" y2="122.747" gradientUnits="userSpaceOnUse">
<stop stop-color="#FFA8A6"/>
<stop offset="1" stop-color="#8E1613"/>
</linearGradient>
<linearGradient id="paint10_linear_528_5031" x1="103.56" y1="122.951" x2="138.773" y2="122.951" gradientUnits="userSpaceOnUse">
<stop stop-color="#8E1613"/>
<stop offset="1" stop-color="#FFA8A6"/>
</linearGradient>
<linearGradient id="paint11_linear_528_5031" x1="329.152" y1="160.091" x2="341.76" y2="160.091" gradientUnits="userSpaceOnUse">
<stop stop-color="#38C1C9"/>
<stop offset="0.37" stop-color="#7EFFF5"/>
<stop offset="0.68" stop-color="#4CC8CE"/>
<stop offset="1" stop-color="#399B97"/>
</linearGradient>
<linearGradient id="paint12_linear_528_5031" x1="325.715" y1="163.448" x2="343.229" y2="162.014" gradientUnits="userSpaceOnUse">
<stop offset="0.09" stop-color="#E4790F"/>
<stop offset="0.58" stop-color="#E4790F"/>
<stop offset="0.6" stop-color="#E2770E"/>
<stop offset="1" stop-color="#B83D00"/>
</linearGradient>
<linearGradient id="paint13_linear_528_5031" x1="321.665" y1="111.999" x2="349.694" y2="111.999" gradientUnits="userSpaceOnUse">
<stop stop-color="#8A3D90"/>
<stop offset="0.47" stop-color="#D457D4"/>
<stop offset="1" stop-color="#C14FC1"/>
</linearGradient>
<linearGradient id="paint14_linear_528_5031" x1="124.102" y1="160.091" x2="111.494" y2="160.091" gradientUnits="userSpaceOnUse">
<stop stop-color="#38C1C9"/>
<stop offset="0.37" stop-color="#7EFFF5"/>
<stop offset="0.68" stop-color="#4CC8CE"/>
<stop offset="1" stop-color="#399B97"/>
</linearGradient>
<linearGradient id="paint15_linear_528_5031" x1="127.505" y1="163.489" x2="109.991" y2="162.056" gradientUnits="userSpaceOnUse">
<stop offset="0.09" stop-color="#E4790F"/>
<stop offset="0.58" stop-color="#E4790F"/>
<stop offset="0.6" stop-color="#E2770E"/>
<stop offset="1" stop-color="#B83D00"/>
</linearGradient>
<linearGradient id="paint16_linear_528_5031" x1="131.588" y1="111.999" x2="103.56" y2="111.999" gradientUnits="userSpaceOnUse">
<stop stop-color="#8A3D90"/>
<stop offset="0.47" stop-color="#D457D4"/>
<stop offset="1" stop-color="#C14FC1"/>
</linearGradient>
<linearGradient id="paint17_linear_528_5031" x1="321.502" y1="167.243" x2="346.565" y2="165.192" gradientUnits="userSpaceOnUse">
<stop offset="0.09" stop-color="#E4790F"/>
<stop offset="0.25" stop-color="#F1AF2E"/>
<stop offset="0.38" stop-color="#FAD444"/>
<stop offset="0.44" stop-color="#FEE34D"/>
<stop offset="0.75" stop-color="#E2770E"/>
<stop offset="1" stop-color="#B83D00"/>
</linearGradient>
<linearGradient id="paint18_linear_528_5031" x1="334.386" y1="181.99" x2="334.383" y2="162.166" gradientUnits="userSpaceOnUse">
<stop stop-color="#CF4B0B"/>
<stop offset="0.99" stop-color="#E8B321"/>
</linearGradient>
<linearGradient id="paint19_linear_528_5031" x1="340.64" y1="182.734" x2="327.664" y2="182.209" gradientUnits="userSpaceOnUse">
<stop stop-color="#B83D00"/>
<stop offset="0.25" stop-color="#E4790F"/>
<stop offset="0.56" stop-color="#FEE34D"/>
<stop offset="0.62" stop-color="#FAD444"/>
<stop offset="0.75" stop-color="#F1AF2E"/>
<stop offset="0.91" stop-color="#E4790F"/>
</linearGradient>
<linearGradient id="paint20_linear_528_5031" x1="335.128" y1="195.191" x2="335.077" y2="187.731" gradientUnits="userSpaceOnUse">
<stop stop-color="#CF4B0B"/>
<stop offset="0.99" stop-color="#E8B321"/>
</linearGradient>
<linearGradient id="paint21_linear_528_5031" x1="131.718" y1="167.275" x2="106.665" y2="165.224" gradientUnits="userSpaceOnUse">
<stop offset="0.09" stop-color="#E4790F"/>
<stop offset="0.25" stop-color="#F1AF2E"/>
<stop offset="0.38" stop-color="#FAD444"/>
<stop offset="0.44" stop-color="#FEE34D"/>
<stop offset="0.75" stop-color="#E2770E"/>
<stop offset="1" stop-color="#B83D00"/>
</linearGradient>
<linearGradient id="paint22_linear_528_5031" x1="118.832" y1="182.009" x2="118.835" y2="162.194" gradientUnits="userSpaceOnUse">
<stop stop-color="#CF4B0B"/>
<stop offset="0.99" stop-color="#E8B321"/>
</linearGradient>
<linearGradient id="paint23_linear_528_5031" x1="112.51" y1="182.432" x2="125.495" y2="181.905" gradientUnits="userSpaceOnUse">
<stop stop-color="#B83D00"/>
<stop offset="0.25" stop-color="#E4790F"/>
<stop offset="0.56" stop-color="#FEE34D"/>
<stop offset="0.62" stop-color="#FAD444"/>
<stop offset="0.75" stop-color="#F1AF2E"/>
<stop offset="0.91" stop-color="#E4790F"/>
</linearGradient>
<linearGradient id="paint24_linear_528_5031" x1="118.145" y1="195.106" x2="118.197" y2="187.645" gradientUnits="userSpaceOnUse">
<stop stop-color="#CF4B0B"/>
<stop offset="0.99" stop-color="#E8B321"/>
</linearGradient>
<radialGradient id="paint25_radial_528_5031" cx="0" cy="0" r="1" gradientUnits="userSpaceOnUse" gradientTransform="translate(182.273 135.899) scale(140.172 88.0025)">
<stop stop-color="#C700FF"/>
<stop offset="1" stop-color="#770099" stop-opacity="0"/>
</radialGradient>
<radialGradient id="paint26_radial_528_5031" cx="0" cy="0" r="1" gradientUnits="userSpaceOnUse" gradientTransform="translate(168.936 106.05) scale(140.172 88.0025)">
<stop stop-color="#C700FF"/>
<stop offset="1" stop-color="#770099" stop-opacity="0"/>
</radialGradient>
<radialGradient id="paint27_radial_528_5031" cx="0" cy="0" r="1" gradientUnits="userSpaceOnUse" gradientTransform="translate(280.075 127.643) scale(140.172 88.0025)">
<stop stop-color="#C700FF"/>
<stop offset="1" stop-color="#770099" stop-opacity="0"/>
</radialGradient>
</defs>
</svg>
