<svg width="523" height="339" viewBox="0 0 523 339" fill="none" xmlns="http://www.w3.org/2000/svg">
<path fill-rule="evenodd" clip-rule="evenodd" d="M401.594 187.486L311.574 222.006L310.924 228.146L283.994 224.956L284.564 218.516L194.854 196.236L133.374 144.796L252.694 177.016L260.224 183.656L269.364 182.666L268.614 177.636L343.224 150.756L401.594 187.486Z" fill="url(#paint0_radial_528_8191)"/>
<path fill-rule="evenodd" clip-rule="evenodd" d="M135.114 140.296L133.374 144.796L194.854 196.236L284.564 218.516L283.994 224.956L310.924 228.146L311.574 222.006L401.594 187.486L402.124 181.466L309.374 218.246L308.324 225.926L286.214 222.356L286.654 217.406L196.624 193.286L135.114 140.296Z" fill="#512E18"/>
<path fill-rule="evenodd" clip-rule="evenodd" d="M283.994 224.956L245.144 175.406L252.694 177.016L284.784 216.056L283.994 224.956Z" fill="#512E18"/>
<path fill-rule="evenodd" clip-rule="evenodd" d="M196.624 193.286L194.854 196.236L133.374 144.796L135.114 140.296L196.624 193.286Z" fill="#341018"/>
<path fill-rule="evenodd" clip-rule="evenodd" d="M252.694 177.016L135.114 140.296L196.624 193.286L286.654 217.406L252.694 177.016Z" fill="url(#paint1_radial_528_8191)"/>
<path fill-rule="evenodd" clip-rule="evenodd" d="M402.124 181.466L343.224 150.756L268.614 177.636L309.374 218.246L402.124 181.466Z" fill="url(#paint2_radial_528_8191)"/>
<path fill-rule="evenodd" clip-rule="evenodd" d="M144.194 122.706L144.314 143.166L201.064 190.346L283.264 213.386L286.644 217.416L286.204 222.366C292.624 218.646 307.394 224.456 307.394 224.456L307.684 216.566L396.374 178.476L397.544 163.676L336.114 143.106C312.654 154.206 260.384 155.536 258.634 158.386C256.884 161.226 258.614 168.706 258.614 168.706C258.614 168.706 251.044 159.506 246.794 156.736C242.544 153.956 222.134 147.646 201.324 140.396C180.854 133.266 145.654 119.306 144.554 118.866L161.534 134.926L144.184 122.726L144.194 122.706Z" fill="url(#paint3_linear_528_8191)"/>
<path fill-rule="evenodd" clip-rule="evenodd" d="M205.904 169.856L144.564 118.856L158.724 132.686L144.194 122.706L144.314 143.166L201.064 190.336L205.904 169.856Z" fill="#ECA4A5"/>
<path style="mix-blend-mode:multiply" opacity="0.5" fill-rule="evenodd" clip-rule="evenodd" d="M258.624 168.686L290.754 202.696C290.754 202.696 295.804 209.366 297.194 215.616C297.194 215.616 304.684 206.046 310.314 203.406L258.634 158.356C258.634 158.356 256.915 160.866 258.615 168.676L258.624 168.686Z" fill="url(#paint4_linear_528_8191)"/>
<path fill-rule="evenodd" clip-rule="evenodd" d="M201.064 190.336L283.264 213.376L286.644 217.406L286.204 222.356C292.624 218.636 307.394 224.446 307.394 224.446L307.684 216.556L396.374 178.466L397.544 163.666C383.804 175.126 317.864 198.956 310.324 203.416C302.794 207.886 297.204 215.626 297.204 215.626C297.204 215.626 291.474 203.646 286.104 201.256C280.734 198.856 205.904 169.856 205.904 169.856L201.074 190.346L201.064 190.336Z" fill="#AC5C77"/>
<path d="M313.954 194.046L314.224 193.996C332.844 190.426 382.844 165.746 383.344 165.496L384.584 164.886L335.444 146.596L335.234 146.676C303.704 158.936 275.564 161.336 275.284 161.366L273.804 161.486L313.954 194.046ZM381.574 165.036C373.754 168.856 331.284 189.376 314.274 192.766L276.844 162.406C283.014 161.736 307.944 158.536 335.454 147.866L381.574 165.036Z" fill="#D67E77"/>
<path style="mix-blend-mode:multiply" opacity="0.5" fill-rule="evenodd" clip-rule="evenodd" d="M370.184 164.806L369.874 168.276L322.554 187.766L311.804 186.806L285.514 166.776L285.864 162.886C285.864 162.886 312.544 158.936 334.914 150.006L340.084 150.806L370.184 164.806Z" fill="url(#paint5_linear_528_8191)"/>
<path style="mix-blend-mode:multiply" opacity="0.5" fill-rule="evenodd" clip-rule="evenodd" d="M272.864 189.726L244.074 157.066L171.194 131.376L207.614 164.136C207.614 164.136 259.594 181.646 272.874 189.726H272.864Z" fill="url(#paint6_linear_528_8191)"/>
<path style="mix-blend-mode:multiply" opacity="0.72" fill-rule="evenodd" clip-rule="evenodd" d="M201.064 190.336L209.784 196.816L286.654 217.406L283.274 213.376L201.064 190.336Z" fill="url(#paint7_radial_528_8191)"/>
<path fill-rule="evenodd" clip-rule="evenodd" d="M239.174 192.596C239.174 192.596 244.204 199.326 248.054 212.816L244.764 215.176L233.334 211.506C233.334 211.506 229.874 194.076 223.614 187.786L239.174 192.596Z" fill="url(#paint8_linear_528_8191)"/>
<path fill-rule="evenodd" clip-rule="evenodd" d="M283.514 204.396C283.514 204.396 290.054 215.336 290.504 227.346L286.244 233.606L277.824 226.756C277.824 226.756 274.144 205.106 271.524 199.746L283.514 204.396Z" fill="url(#paint9_linear_528_8191)"/>
<path style="mix-blend-mode:multiply" opacity="0.72" fill-rule="evenodd" clip-rule="evenodd" d="M223.614 187.786V196.666L225.694 201.076L224.244 203.536L231.904 205.646C231.904 205.646 229.614 193.906 223.614 187.796V187.786Z" fill="url(#paint10_radial_528_8191)"/>
<path style="mix-blend-mode:multiply" opacity="0.72" fill-rule="evenodd" clip-rule="evenodd" d="M271.514 199.756L270.614 209.836L273.224 213.786L273.054 215.666L275.874 216.416C275.874 216.416 273.984 205.056 271.504 199.756H271.514Z" fill="url(#paint11_radial_528_8191)"/>
<path d="M144.564 118.855L158.724 132.695L144.194 122.715L144.314 143.175L135.104 140.305L133.374 144.805L194.854 196.245L224.244 203.545L231.904 205.645C232.844 209.045 233.334 211.505 233.334 211.505L244.764 215.175L248.054 212.815C247.684 211.535 247.304 210.325 246.924 209.165L273.064 215.655L275.884 216.405V216.395C277.014 222.005 277.824 226.755 277.824 226.755L286.244 233.605L290.504 227.345C290.484 226.795 290.434 226.255 290.394 225.715L310.934 228.145L311.574 222.005L401.594 187.485L402.134 181.465L396.384 178.465L397.554 163.665L336.124 143.095C312.664 154.195 260.394 155.525 258.644 158.375C258.644 158.375 258.574 158.495 258.494 158.675C257.874 159.945 257.784 161.895 257.904 163.755C257.904 163.795 257.904 163.845 257.914 163.885C257.954 164.515 258.024 165.135 258.104 165.705C258.124 165.875 258.144 166.045 258.174 166.225C258.384 167.665 258.624 168.685 258.624 168.685C258.624 168.685 251.054 159.485 246.804 156.715C242.554 153.935 222.144 147.625 201.334 140.375C180.864 133.245 145.664 119.285 144.564 118.845V118.855ZM144.744 116.765C144.944 116.785 145.134 116.825 145.324 116.905L145.604 117.015C154.234 120.425 183.784 132.055 202.024 138.405C208.164 140.545 214.154 142.565 219.944 144.515C234.334 149.365 244.734 152.865 247.954 154.965C250.224 156.445 253.274 159.525 255.774 162.245C255.784 160.375 256.064 158.895 256.624 157.755C256.724 157.535 256.824 157.355 256.824 157.355C257.944 155.535 260.774 155.075 276.184 153.295C293.834 151.255 320.514 148.175 335.234 141.205C335.574 141.045 335.944 140.975 336.314 141.015C336.474 141.025 336.634 141.065 336.794 141.115L398.224 161.685C399.134 161.985 399.724 162.875 399.644 163.835L398.584 177.255L403.104 179.615C403.854 180.005 404.294 180.815 404.224 181.655L403.684 187.675C403.614 188.475 403.094 189.155 402.354 189.445L313.524 223.505L313.014 228.375C312.954 228.935 312.674 229.445 312.244 229.795C311.824 230.135 311.284 230.295 310.754 230.245C310.734 230.245 310.714 230.245 310.694 230.245L292.474 228.085C292.414 228.245 292.334 228.395 292.244 228.545L287.984 234.805C287.654 235.285 287.134 235.615 286.554 235.695C286.394 235.715 286.224 235.725 286.064 235.705C285.654 235.665 285.254 235.515 284.934 235.245L276.514 228.395C276.124 228.075 275.854 227.625 275.774 227.125C275.774 227.085 275.084 223.055 274.104 218.115L272.544 217.695L250.044 212.105C250.044 212.105 250.074 212.205 250.084 212.255C250.324 213.105 250.014 214.015 249.294 214.525L246.004 216.885C245.594 217.175 245.094 217.315 244.604 217.265C244.454 217.255 244.294 217.225 244.154 217.175L232.724 213.505C232.004 213.275 231.464 212.665 231.314 211.925C231.314 211.905 230.934 210.035 230.224 207.355L223.714 205.565L194.374 198.275C194.064 198.195 193.784 198.055 193.534 197.845L132.054 146.405C131.364 145.835 131.124 144.885 131.444 144.045L133.174 139.545C133.514 138.655 134.394 138.135 135.314 138.215C135.464 138.225 135.604 138.255 135.754 138.305L142.224 140.325L142.124 122.725C142.124 121.945 142.544 121.225 143.234 120.865C143.324 120.815 143.414 120.775 143.514 120.745L143.124 120.355C142.414 119.655 142.294 118.555 142.834 117.725C143.264 117.065 144.014 116.715 144.774 116.775L144.744 116.765Z" fill="white"/>
<path style="mix-blend-mode:screen" opacity="0.61" d="M262.019 285.35C158.087 276.093 78.2927 218.526 83.7934 156.771C89.294 95.0162 178.006 52.4585 281.938 61.7158C385.87 70.9732 465.664 128.54 460.163 190.295C454.663 252.05 365.95 294.608 262.019 285.35Z" fill="url(#paint12_radial_528_8191)" fill-opacity="0.7"/>
<path style="mix-blend-mode:screen" opacity="0.61" d="M247.988 316.802C111.028 304.603 5.87589 228.739 13.1248 147.357C20.3737 65.9738 137.278 9.88949 274.238 22.0888C411.198 34.288 516.35 110.151 509.101 191.534C501.852 272.917 384.948 329.001 247.988 316.802Z" fill="url(#paint13_radial_528_8191)"/>
<path fill-rule="evenodd" clip-rule="evenodd" d="M275.314 41.2654C275.174 42.8154 276.324 44.1854 277.874 44.3254C279.424 44.4654 280.794 43.3154 280.934 41.7654C281.074 40.2154 279.924 38.8454 278.374 38.7054C276.824 38.5654 275.454 39.7154 275.314 41.2654Z" fill="white"/>
<path fill-rule="evenodd" clip-rule="evenodd" d="M227.953 130.676C227.903 131.256 228.333 131.776 228.913 131.826C229.493 131.876 230.013 131.446 230.063 130.866C230.113 130.286 229.683 129.766 229.103 129.716C228.523 129.666 228.003 130.096 227.953 130.676Z" fill="white"/>
<path fill-rule="evenodd" clip-rule="evenodd" d="M189.713 101.496C189.613 102.616 190.443 103.606 191.563 103.706C192.683 103.806 193.673 102.976 193.773 101.856C193.873 100.736 193.043 99.7456 191.923 99.6456C190.803 99.5456 189.813 100.376 189.713 101.496Z" fill="white"/>
<path fill-rule="evenodd" clip-rule="evenodd" d="M257.083 121.266C256.983 122.386 257.813 123.376 258.933 123.476C260.053 123.576 261.043 122.746 261.143 121.626C261.243 120.506 260.413 119.516 259.293 119.416C258.173 119.316 257.183 120.146 257.083 121.266Z" fill="white"/>
<defs>
<radialGradient id="paint0_radial_528_8191" cx="0" cy="0" r="1" gradientUnits="userSpaceOnUse" gradientTransform="translate(266.017 183.948) rotate(-174.91) scale(99.87 99.87)">
<stop offset="0.02" stop-color="#754A13"/>
<stop offset="0.99" stop-color="#4F4013"/>
</radialGradient>
<radialGradient id="paint1_radial_528_8191" cx="0" cy="0" r="1" gradientUnits="userSpaceOnUse" gradientTransform="translate(210.998 178.787) rotate(-174.91) scale(60.11 60.11)">
<stop offset="0.02" stop-color="#754A13"/>
<stop offset="0.99" stop-color="#4F4013"/>
</radialGradient>
<radialGradient id="paint2_radial_528_8191" cx="0" cy="0" r="1" gradientUnits="userSpaceOnUse" gradientTransform="translate(334.978 185.201) rotate(-174.91) scale(53.27 53.27)">
<stop offset="0.02" stop-color="#754A13"/>
<stop offset="0.99" stop-color="#4F4013"/>
</radialGradient>
<linearGradient id="paint3_linear_528_8191" x1="395.754" y1="186.7" x2="140.634" y2="163.976" gradientUnits="userSpaceOnUse">
<stop stop-color="#FFDBD3"/>
<stop offset="1" stop-color="#FFE2BD"/>
</linearGradient>
<linearGradient id="paint4_linear_528_8191" x1="281.408" y1="214.153" x2="286.165" y2="160.754" gradientUnits="userSpaceOnUse">
<stop stop-color="#7C0037"/>
<stop offset="1" stop-color="white"/>
</linearGradient>
<linearGradient id="paint5_linear_528_8191" x1="325.982" y1="188.014" x2="329.417" y2="149.457" gradientUnits="userSpaceOnUse">
<stop stop-color="#C25683"/>
<stop offset="1" stop-color="#FFDBC4"/>
</linearGradient>
<linearGradient id="paint6_linear_528_8191" x1="275.165" y1="165.216" x2="169.135" y2="155.772" gradientUnits="userSpaceOnUse">
<stop stop-color="#C25683"/>
<stop offset="1" stop-color="white"/>
</linearGradient>
<radialGradient id="paint7_radial_528_8191" cx="0" cy="0" r="1" gradientUnits="userSpaceOnUse" gradientTransform="translate(243.978 203.811) rotate(-174.91) scale(31.73 31.73)">
<stop stop-color="#220831"/>
<stop offset="1" stop-color="#1F001E"/>
</radialGradient>
<linearGradient id="paint8_linear_528_8191" x1="234.708" y1="214.21" x2="236.962" y2="188.91" gradientUnits="userSpaceOnUse">
<stop offset="0.02" stop-color="#B81F13"/>
<stop offset="0.99" stop-color="#B31B36"/>
</linearGradient>
<linearGradient id="paint9_linear_528_8191" x1="279.394" y1="232.928" x2="282.269" y2="200.646" gradientUnits="userSpaceOnUse">
<stop offset="0.02" stop-color="#B81F13"/>
<stop offset="0.99" stop-color="#B31B36"/>
</linearGradient>
<radialGradient id="paint10_radial_528_8191" cx="0" cy="0" r="1" gradientUnits="userSpaceOnUse" gradientTransform="translate(227.879 196.655) rotate(-174.91) scale(6.95993 6.96)">
<stop stop-color="#220831"/>
<stop offset="1" stop-color="#1F001E"/>
</radialGradient>
<radialGradient id="paint11_radial_528_8191" cx="0" cy="0" r="1" gradientUnits="userSpaceOnUse" gradientTransform="translate(273.822 208.026) rotate(-174.91) scale(6.08987 6.08999)">
<stop stop-color="#220831"/>
<stop offset="1" stop-color="#1F001E"/>
</radialGradient>
<radialGradient id="paint12_radial_528_8191" cx="0" cy="0" r="1" gradientUnits="userSpaceOnUse" gradientTransform="translate(277.163 173.995) rotate(-174.91) scale(188.597 112.26)">
<stop stop-color="#FF8000"/>
<stop offset="1" stop-color="#994D00" stop-opacity="0"/>
</radialGradient>
<radialGradient id="paint13_radial_528_8191" cx="0" cy="0" r="1" gradientUnits="userSpaceOnUse" gradientTransform="translate(266.322 169.909) rotate(-174.91) scale(248.522 147.93)">
<stop stop-color="#FF8000"/>
<stop offset="1" stop-color="#994D00" stop-opacity="0"/>
</radialGradient>
</defs>
</svg>
