<svg width="412" height="242" viewBox="0 0 412 242" fill="none" xmlns="http://www.w3.org/2000/svg">
<path d="M342.129 169.579C346.59 165.517 343.147 160.212 343.158 155.275C339.737 122.042 338.243 100.323 344.133 66.7108C344.874 64.4758 344.022 62.095 342.837 60.2195C343.302 56.2354 341.398 52.3484 337.468 50.2495C335.973 49.3943 334.113 48.753 332.286 48.4129C332.386 44.419 338.254 39.3076 332.585 36.5187C331.456 36.0134 330.459 34.0408 329.186 33.9145C326.474 33.7687 322.654 36.4021 322.433 39.2007C322.167 42.4755 324.436 44.0692 324.27 48.5489C319.377 49.579 314.572 53.1064 314.45 57.7027C311.715 60.1126 313.254 63.7469 313.653 66.7205C307.995 65.3406 303.689 62.0367 297.898 60.9386C296.846 63.9607 295.197 63.8441 296.105 60.5985C295.54 60.4916 294.975 60.3847 294.4 60.2778C289.561 70.8504 286.938 73.7462 289.639 61.7743C280.35 60.2001 270.851 58.9563 261.318 57.9845C260.787 61.3079 259.547 60.89 259.425 57.7902C246.095 57.7513 194.845 49.8705 190.14 59.8794C186.929 62.0658 183.608 57.0808 181.161 55.6135C165.052 56.284 148.822 57.6736 132.137 59.86C131.982 63.6984 130.886 64.1939 129.79 60.1807C128.273 60.3944 126.756 60.6179 125.239 60.8512C125.605 67.1966 124.498 68.5182 122.892 61.2204C113.47 62.7363 104.248 64.5729 95.3798 66.7691C95.7894 63.6401 97.4612 60.2292 94.6048 57.6736C94.483 53.0869 89.678 49.5595 84.7955 48.5392C84.6294 44.0595 86.8991 42.4658 86.6334 39.191C86.4119 36.4118 83.5998 33.7881 80.8873 33.9339L80.1677 34.0894C78.8944 34.206 76.2262 35.5081 76.2262 35.5081C70.5466 38.4039 76.658 44.2635 76.7909 48.4226C70.2255 49.4818 65.3762 54.4182 66.2398 60.307C65.0219 62.2213 64.2691 64.641 65.0219 66.9051C71.3327 102.976 69.2402 129.544 64.6123 165.226C65.4094 166.985 66.4391 168.656 67.8341 170.085C68.4541 174.234 72.7609 177.596 78.4073 178.607C78.5402 180.657 78.3852 182.698 77.8094 184.68C72.3955 194.262 88.8477 195.467 91.4937 187.926C92.0805 183.942 86.6112 183.495 86.3898 178.422C90.6301 177.46 94.7266 174.827 95.878 170.969C98.823 170.075 101.713 169.123 104.658 168.19C111.655 165.964 120.733 163.671 127.221 163.273C127.509 159.716 129.413 153.74 132.325 159.93C134.65 160.464 137.174 159.327 139.477 159.949C142.522 158.608 146.308 159.609 149.597 159.298C183.287 158.696 218.549 155.441 254.122 160.27C256.414 144.061 261.23 141.885 257.089 160.581C258.495 160.736 260.134 160.902 261.529 161.067C261.883 149.571 264.44 154.313 263.599 161.31C270.696 162.155 277.471 163.01 284.015 164.06C284.546 163.38 285.255 162.68 286.24 162.593C286.473 162.369 286.882 162.359 287.07 162.573C288.31 162.68 288.554 164.264 289.44 164.964C297.544 165.741 304.973 168.763 313.188 170.949C314.328 174.807 318.436 177.45 322.687 178.422C322.466 183.495 320.672 184.855 319.742 188.917C321.27 195.612 339.261 194.446 333.847 184.904C333.847 184.904 330.537 180.657 330.67 178.607C336.106 177.645 340.269 174.496 341.143 170.561C341.486 170.26 341.819 169.939 342.14 169.589L342.129 169.579Z" fill="#3EEDFF"/>
<path d="M82.338 33.7397C87.608 33.6231 88.8148 35.8775 88.8812 37.4906C89.0141 40.7362 86.7002 42.3396 87.0434 47.1109C87.3977 51.8821 88.6155 52.9024 89.7891 56.527C90.4423 58.5483 88.9476 61.0165 83.8216 61.4635C78.9612 61.4829 76.9352 59.2674 77.3669 57.1878C78.1419 53.4563 79.2491 52.3194 79.083 47.5384C78.9169 42.7575 76.448 41.4067 76.2377 38.1611C76.1269 36.5383 77.0902 34.177 82.338 33.7397Z" fill="url(#paint0_linear_528_5908)"/>
<path d="M83.3011 48.7724C83.4119 48.5003 83.6997 41.9605 83.7108 39.6575C83.7108 38.3748 83.6001 36.9657 82.6811 37.1115C81.8286 37.4905 81.7179 38.8509 81.8951 40.085C82.2272 42.3006 83.1572 48.5683 83.2901 48.7821L83.3011 48.7724Z" fill="#FFF5CC"/>
<g style="mix-blend-mode:multiply" opacity="0.15">
<path d="M79.0828 47.5382C78.9167 42.7573 76.4478 41.4163 76.2374 38.1609C76.1599 37.024 76.6249 35.5275 78.7064 34.5752C76.1046 36.0231 77.0457 39.0161 78.9832 42.077C80.5332 44.5258 80.666 46.9843 78.8171 51.7556C79.0385 50.6478 79.1603 49.3554 79.0939 47.5285L79.0828 47.5382Z" fill="#CC0631"/>
</g>
<path d="M78.5293 34.692C78.5293 34.692 78.5514 34.6628 78.5625 34.6531C79.4704 34.2158 80.6882 33.8854 82.3489 33.7494C87.3754 33.6328 88.7039 35.6832 88.87 37.2768C87.94 34.828 83.9986 33.0789 78.5404 34.7017L78.5293 34.692Z" fill="#FFF5CC"/>
<path d="M68.4434 56.1187C68.3992 57.0127 68.4656 59.0242 68.4656 59.0242L96.8749 58.8785C96.8749 58.8785 96.8749 57.1973 96.8527 55.973C96.8195 50.502 90.4313 46.1001 82.5817 46.1389C74.732 46.1778 68.7202 50.4729 68.4434 56.1187Z" fill="url(#paint1_linear_528_5908)"/>
<path d="M68.4655 59.0242C68.4987 64.4951 74.8869 68.8971 82.7365 68.8583C90.5862 68.8194 96.9079 64.3494 96.8747 58.8785C96.8415 53.4076 90.4533 49.0056 82.6037 49.0444C74.754 49.0833 68.4322 53.5533 68.4655 59.0242Z" fill="url(#paint2_linear_528_5908)"/>
<path d="M74.2002 48.1116C76.5252 46.8872 79.4038 46.1584 82.5923 46.1389C88.2388 46.1098 93.1102 48.3934 95.4241 51.707C90.5748 46.1681 81.0866 45.0117 74.2002 48.1116Z" fill="#FFF5CC"/>
<g style="mix-blend-mode:multiply" opacity="0.35">
<path d="M68.4434 56.1185C68.5984 52.8923 70.6356 50.1132 73.8131 48.3154C72.5288 49.1706 72.3849 51.1432 73.0824 51.6679C73.0824 51.6679 73.0824 51.6874 73.0713 51.6874C75.5845 50.0743 78.917 49.0734 82.6038 49.054C90.4424 49.0151 96.8306 53.4171 96.8749 58.888C96.9081 64.3589 90.5752 68.8289 82.7367 68.8678C74.887 68.9066 68.4988 64.5047 68.4656 59.0337C68.4656 59.0337 68.3992 57.0125 68.4434 56.1282V56.1185Z" fill="#CC0631"/>
</g>
<path d="M82.7919 53.2812C87.5415 53.2618 91.4386 55.9729 91.7929 59.442H91.8151L92.6786 73.0464L73.5029 73.3963L73.8461 60.1125C73.8461 60.1125 73.8461 60.0445 73.8461 60.0154C73.824 56.313 77.8319 53.3006 82.8029 53.2715L82.7919 53.2812Z" fill="url(#paint3_linear_528_5908)"/>
<path d="M331.168 33.7397C325.909 33.6231 324.691 35.8775 324.625 37.4906C324.492 40.7362 326.806 42.3396 326.463 47.1109C326.108 51.8821 324.89 52.9024 323.717 56.527C323.064 58.5483 324.558 61.0165 329.684 61.4635C334.545 61.4829 336.571 59.2674 336.139 57.1878C335.364 53.4563 334.257 52.3194 334.423 47.5384C334.589 42.7575 337.058 41.4067 337.268 38.1611C337.379 36.5383 336.416 34.177 331.168 33.7397Z" fill="url(#paint4_linear_528_5908)"/>
<path d="M330.215 48.7724C330.105 48.5003 329.817 41.9605 329.806 39.6575C329.806 38.3748 329.916 36.9657 330.835 37.1115C331.688 37.4905 331.799 38.8509 331.621 40.085C331.289 42.3006 330.359 48.5683 330.226 48.7821L330.215 48.7724Z" fill="#FFF5CC"/>
<g style="mix-blend-mode:multiply" opacity="0.25">
<path d="M334.423 47.5382C334.589 42.7573 337.058 41.4163 337.268 38.1609C337.345 37.024 336.88 35.5275 334.799 34.5752C337.401 36.0231 336.46 39.0161 334.522 42.077C332.972 44.5258 332.839 46.9843 334.688 51.7556C334.467 50.6478 334.345 49.3554 334.411 47.5285L334.423 47.5382Z" fill="#CC0631"/>
</g>
<path d="M334.987 34.692C334.987 34.692 334.965 34.6628 334.954 34.6531C334.046 34.2158 332.828 33.8854 331.168 33.7494C326.141 33.6328 324.813 35.6832 324.646 37.2768C325.576 34.828 329.518 33.0789 334.976 34.7017L334.987 34.692Z" fill="#FFF5CC"/>
<path d="M345.063 56.1187C345.107 57.0127 345.041 59.0242 345.041 59.0242L316.631 58.8785C316.631 58.8785 316.631 57.1973 316.653 55.973C316.687 50.502 323.075 46.1001 330.925 46.1389C338.774 46.1778 344.786 50.4729 345.063 56.1187Z" fill="url(#paint5_linear_528_5908)"/>
<path d="M345.041 59.0242C345.008 64.4951 338.619 68.8971 330.77 68.8583C322.92 68.8194 316.598 64.3494 316.631 58.8785C316.665 53.4076 323.053 49.0056 330.903 49.0444C338.752 49.0833 345.074 53.5533 345.041 59.0242Z" fill="url(#paint6_linear_528_5908)"/>
<path d="M339.317 48.1116C336.992 46.8872 334.113 46.1584 330.925 46.1389C325.278 46.1098 320.407 48.3934 318.093 51.707C322.942 46.1681 332.43 45.0117 339.317 48.1116Z" fill="#FFF5CC"/>
<g style="mix-blend-mode:multiply" opacity="0.35">
<path d="M345.063 56.1185C344.908 52.8923 342.871 50.1132 339.693 48.3154C340.978 49.1706 341.121 51.1432 340.424 51.6679C340.424 51.6679 340.424 51.6874 340.435 51.6874C337.922 50.0743 334.589 49.0734 330.903 49.054C323.064 49.0151 316.676 53.4171 316.631 58.888C316.598 64.3589 322.931 68.8289 330.77 68.8678C338.619 68.9066 345.008 64.5047 345.041 59.0337C345.041 59.0337 345.107 57.0125 345.063 56.1282V56.1185Z" fill="#CC0631"/>
</g>
<path d="M330.714 53.2812C325.965 53.2618 322.068 55.9729 321.713 59.442H321.691L320.828 73.0464L340.003 73.3963L339.66 60.1125C339.66 60.1125 339.66 60.0445 339.66 60.0154C339.682 56.313 335.674 53.3006 330.703 53.2715L330.714 53.2812Z" fill="url(#paint7_linear_528_5908)"/>
<path d="M341.309 72.4538C328.322 67.6631 313.896 63.9413 298.795 61.0941C297.743 64.1163 296.093 63.9996 297.001 60.754C296.437 60.6471 295.872 60.5402 295.296 60.4334C290.458 71.0059 289.163 71.8125 291.864 59.8309C282.575 58.2567 273.076 57.0128 263.544 56.0411C263.012 59.3644 261.772 58.9466 261.65 55.8467C242.253 54.0684 223.476 53.1647 204.754 53.2036C202.341 53.7672 199.673 53.3494 197.226 53.9324C195.886 54.2531 194.569 55.0499 193.738 56.0605C193.24 56.663 192.797 57.2946 192.354 57.936C192.044 58.3927 191.657 58.5482 191.026 58.5385C189.254 58.519 187.649 57.1586 186.42 56.1868C185.401 55.3803 184.438 54.4571 183.375 53.67C167.255 54.3405 151.036 55.7301 134.351 57.9165C134.196 61.7549 133.1 62.2505 132.004 58.2372C130.487 58.451 128.97 58.6745 127.454 58.9077C127.819 65.2532 126.712 66.5748 125.106 59.277C106.374 62.2894 88.3936 66.5748 72.4951 72.4344C80.3336 106.64 70.4801 148.609 67.5461 159.94C67.059 161.815 66.8154 163.244 66.8154 163.244C76.1044 183.874 105.211 162.884 127.431 161.524C128.14 159.347 128.118 156.956 130.62 155.615C132.524 154.547 133.598 156.267 134.517 157.957C135.713 158.307 137.219 157.996 138.403 157.88C139.51 157.773 140.64 157.744 141.669 157.977C142.577 157.462 143.74 157.248 144.836 157.335C147.172 157.345 149.486 157.335 151.789 157.326C151.955 157.199 152.121 157.083 152.298 156.976C153.062 156.509 154.025 156.305 154.944 156.432C155.409 156.5 155.819 156.675 156.195 156.888C156.583 156.976 156.959 157.102 157.324 157.248C190.162 156.636 220.62 153.448 254.565 158.239C257.144 143.663 259.657 143.692 257.532 158.55C258.938 158.706 260.344 158.861 261.739 159.026C261.982 152.593 263.577 153.585 263.809 159.269C270.906 160.115 277.826 161.077 284.38 162.126C284.911 161.446 285.62 160.746 286.605 160.659C286.838 160.435 287.247 160.426 287.436 160.639C288.676 160.746 288.93 162.33 289.805 163.03C310.807 165.022 339.449 181.989 346.967 163.253C346.967 163.253 332.153 112.305 341.276 72.4344L341.309 72.4538Z" fill="url(#paint8_linear_528_5908)"/>
<path style="mix-blend-mode:multiply" opacity="0.35" d="M341.309 72.4538C331.688 68.907 321.27 65.9432 310.387 63.4944C310.343 63.5333 310.298 63.5624 310.265 63.6013C316.509 76.3311 316.498 91.6263 316.498 112.995C316.498 134.364 313.21 156.024 306.257 166.246L306.523 166.548C323.806 171.28 341.354 177.334 347 163.273C347 163.273 332.187 112.324 341.309 72.4538Z" fill="url(#paint9_linear_528_5908)"/>
<g style="mix-blend-mode:multiply" opacity="0.35">
<path d="M341.31 72.4538C328.323 67.6631 313.897 63.9413 298.796 61.0941C297.744 64.1163 296.094 63.9996 297.002 60.754C296.437 60.6471 295.873 60.5402 295.297 60.4334C290.459 71.0059 289.163 71.8125 291.865 59.8309C282.576 58.2567 273.077 57.0128 263.544 56.0411C263.013 59.3644 261.773 58.9466 261.651 55.8467C242.254 54.0684 223.477 53.1647 204.755 53.2036C202.341 53.7672 199.673 53.3494 197.226 53.9324C195.887 54.2531 194.569 55.0499 193.739 56.0605C193.241 56.663 192.798 57.2946 192.355 57.936C192.045 58.3927 191.657 58.5482 191.026 58.5385C189.255 58.519 187.65 57.1586 186.421 56.1868C185.402 55.3803 184.439 54.4571 183.376 53.67C167.256 54.3405 151.036 55.7301 134.352 57.9165C134.197 61.7549 133.101 62.2505 132.005 58.2372C130.488 58.451 128.971 58.6745 127.454 58.9077C127.82 65.2532 126.712 66.5748 125.107 59.277C106.374 62.2894 88.3943 66.5748 72.4957 72.4344C81.6407 112.315 66.8271 163.273 66.8271 163.273C76.1161 183.903 105.223 162.913 127.443 161.553C128.152 159.376 128.13 156.986 130.632 155.645C132.536 154.576 133.61 156.296 134.529 157.987C135.725 158.336 137.23 158.025 138.415 157.909C139.522 157.802 140.651 157.773 141.681 158.006C142.589 157.491 143.751 157.277 144.847 157.365C147.184 157.374 149.497 157.365 151.8 157.355C151.966 157.229 152.132 157.112 152.31 157.005C153.074 156.539 154.037 156.335 154.956 156.461C155.421 156.529 155.83 156.704 156.207 156.918C156.594 157.005 156.971 157.131 157.336 157.277C190.174 156.665 220.631 153.478 254.576 158.268C257.156 143.692 259.669 143.721 257.543 158.579C258.95 158.735 260.356 158.89 261.751 159.055C261.994 152.623 263.588 153.614 263.821 159.298C270.918 160.144 277.837 161.106 284.392 162.155C284.923 161.475 285.632 160.775 286.617 160.688C286.85 160.464 287.259 160.455 287.447 160.669C288.687 160.775 288.942 162.359 289.817 163.059C310.819 165.051 339.461 182.018 346.978 163.283C346.978 163.283 332.165 112.334 341.288 72.4635L341.31 72.4538ZM312.48 164.643C311.594 164.342 310.642 164.05 309.657 163.778C309.601 163.419 309.468 163.069 309.269 162.777C308.793 162.058 308.096 161.514 307.752 160.727C307.033 159.046 307.664 157.083 306.501 155.518C305.45 154.109 303.313 153.39 301.752 154.653C301.143 155.149 300.8 155.839 300.279 156.393C299.648 157.054 298.508 156.859 297.777 157.481C297.135 158.025 296.936 158.803 296.803 159.551C296.714 160.047 296.559 160.669 296.194 161.086C294.555 160.834 292.994 160.601 291.577 160.406C291.655 158.929 290.979 157.773 289.595 157.326C289.551 157.054 289.507 156.782 289.473 156.509C289.307 155.275 289.197 154.032 289.152 152.788C289.152 152.593 289.152 152.389 289.152 152.195C289.163 151.884 289.175 151.573 289.197 151.272C289.241 150.63 289.252 149.999 289.274 149.367C289.274 149.289 289.296 149.202 289.307 149.124C289.54 147.326 289.717 145.529 289.795 143.721C289.839 142.75 289.85 141.778 289.806 140.806C289.761 139.941 289.529 139.135 289.396 138.28C289.374 138.163 289.152 138.192 289.163 138.309C289.175 139.076 289.163 139.844 289.13 140.621C289.119 140.631 289.108 140.631 289.097 140.651C288.433 141.962 288.411 143.41 288.167 144.8C287.923 146.199 287.835 147.618 287.713 149.027C287.58 150.524 287.425 152.01 287.104 153.478C286.949 154.158 286.794 154.838 286.617 155.509C286.517 155.897 286.351 156.267 286.252 156.646C286.174 156.947 286.141 157.229 286.063 157.51C285.233 157.88 284.558 158.521 284.037 159.493H284.026V159.473C284.026 159.065 284.026 158.657 284.037 158.249C284.06 157.326 284.148 156.412 284.215 155.489C284.358 153.653 284.436 151.787 284.912 149.989C284.967 149.775 284.591 149.678 284.536 149.902C284.004 151.719 283.318 153.487 282.975 155.343C282.808 156.237 282.709 157.141 282.631 158.045C282.598 158.463 282.565 158.881 282.543 159.298C277.804 158.725 269.866 158.249 265.747 157.724C265.847 154.673 263.356 148.862 260.477 153.74C260.433 150.329 260.688 143.896 258.662 143.566C256.071 143.148 253.757 148.172 252.24 155.091C249.461 154.76 246.516 154.411 243.472 154.07C243.339 153.895 243.151 153.75 242.896 153.672C242.641 153.594 242.376 153.517 242.121 153.439C242.032 153.351 241.955 153.244 241.922 153.128C241.789 152.749 241.578 152.38 241.213 152.146C240.936 151.971 240.648 151.797 240.361 151.631C239.098 150.922 237.681 150.446 236.242 150.096C234.991 149.795 233.651 149.416 232.533 150.164C231.98 150.533 231.57 151.068 231.138 151.534C230.773 151.933 230.463 152.35 230.153 152.768C224.971 152.36 219.657 152.088 214.387 152.088C210.888 152.088 207.456 152.146 204.046 152.234C203.537 152.244 203.083 152.01 202.828 151.66C202.817 151.534 202.806 151.408 202.795 151.281C202.729 150.349 202.685 149.425 202.629 148.493C202.585 147.628 202.519 146.792 202.352 145.937C202.164 144.975 202.153 143.984 202.087 143.012C202.087 142.847 201.788 142.837 201.788 143.012C201.788 143.906 201.843 144.81 201.755 145.694C201.666 146.607 201.611 147.492 201.622 148.405C201.555 148.425 201.5 148.454 201.478 148.502C201.356 148.716 201.411 148.94 201.367 149.173C201.323 149.416 201.312 149.668 201.323 149.921C201.334 150.31 201.367 150.689 201.389 151.068V151.087C201.422 151.748 200.825 152.302 200.072 152.321C200.061 152.321 200.05 152.321 200.038 152.321C199.374 152.341 198.787 152.078 198.4 151.66C198.433 150.786 198.411 149.911 198.433 149.085C198.477 147.006 198.599 144.917 198.466 142.847C198.223 138.804 198.81 134.626 198.023 130.622C197.99 130.447 197.691 130.506 197.68 130.661C197.326 134.81 197.636 138.94 196.994 143.08C196.706 144.936 196.584 146.802 196.407 148.668C196.307 149.688 196.119 150.834 196.075 151.962C195.687 152.273 195.178 152.477 194.614 152.496C190.506 152.642 186.399 152.807 182.258 152.972C174.851 153.254 166.16 153.429 158.487 153.585C158.487 153.585 158.465 153.575 158.454 153.575C156.915 151.563 155.963 149.124 155.41 146.666C155.399 146.501 155.376 146.335 155.365 146.17C155.089 142.915 155.055 139.621 154.314 136.414C154.247 136.113 153.782 136.219 153.749 136.482C153.539 138.367 153.572 140.223 153.66 142.108C153.749 143.974 153.749 145.849 153.926 147.715C153.948 147.958 153.992 148.211 154.026 148.454C153.992 148.862 153.959 149.27 153.893 149.678C153.738 150.63 153.505 151.544 153.229 152.457C152.409 153.225 151.357 154.245 150.571 155.091C149.741 155.091 136.489 155.518 136.489 155.518C135.448 153.361 133.51 149.882 131.019 150.805C128.03 151.913 126.524 157.617 125.849 159.493C124.996 159.619 124.111 159.736 123.192 159.862C123.048 159.716 122.871 159.609 122.594 159.561C121.664 159.415 120.856 159.055 120.236 158.414C119.527 157.695 119.394 156.704 118.697 155.965C118.021 155.256 116.947 154.906 115.951 155.295C115.099 155.625 114.833 156.344 114.545 157.063C114.224 157.87 113.537 157.88 112.674 157.967C111.832 158.055 110.991 158.2 110.371 158.754C109.84 159.23 109.585 159.872 109.419 160.513C109.352 160.669 109.308 160.834 109.297 161.009C109.22 161.388 109.131 161.835 108.943 162.223C106.518 162.777 104.116 163.448 101.835 164.293C94.1736 167.111 90.2321 169.9 80.8768 169.9C74.1011 169.9 69.7279 164.167 67.6243 160.552C70.0932 151.408 85.8921 111.596 79.1496 75.612C85.5489 73.4255 93.1661 70.452 101.193 67.7214C101.292 67.8186 101.392 67.9158 101.492 68.0129C101.536 68.1198 101.569 68.217 101.614 68.3239C101.824 68.8584 102.156 69.3539 102.544 69.8107C103.285 70.6852 104.359 71.1225 105.533 71.4043C106.042 71.5209 106.695 71.7541 107.194 71.5112C107.802 71.21 107.791 70.5298 107.847 69.9953C107.913 69.2568 107.913 68.5085 107.847 67.77C107.825 67.4979 107.913 67.2161 108.146 67.0412C108.467 66.7983 108.887 66.6914 109.242 66.4776C109.773 66.1472 110.094 65.7099 110.116 65.1269C110.116 65.0491 110.094 64.9714 110.061 64.8937C114.6 63.5624 119.173 62.406 123.635 61.6189C124.675 63.9413 129.037 72.2206 129.037 72.2206C129.037 72.2206 130.521 61.2885 130.831 60.6666C131.13 60.7054 135.426 68.0712 135.426 68.0712C135.426 68.0712 135.935 62.5032 137.219 59.5491C151.391 57.7999 167.599 56.7213 181.56 56.0702C181.87 56.3326 188.004 59.3644 191.635 61.1524C194.093 73.2409 193.96 74.6014 194.193 77.5457C195.001 74.7763 195.079 62.4254 196.617 58.14C197.237 57.0031 197.747 56.0799 197.78 56.0702C198.345 55.9342 208.408 56.3423 209.914 56.0702C209.914 56.0702 213.701 56.148 219.347 56.3132C219.347 56.7699 219.292 57.2266 219.258 57.6833C219.181 58.6745 219.104 59.6657 219.048 60.6569C218.993 61.648 218.937 62.6392 218.926 63.6304C218.926 64.6701 219.081 65.6905 219.059 66.7302C219.059 66.8469 219.27 66.8469 219.27 66.7302C219.303 65.7293 219.535 64.7479 219.624 63.7567C219.712 62.7655 219.779 61.7744 219.867 60.7832C219.945 59.8309 220.033 58.8786 220.122 57.936C220.177 57.421 220.188 56.8865 220.299 56.3812C220.299 56.3715 220.299 56.3618 220.299 56.352C224.086 56.4686 228.592 56.6144 233.319 56.8088C233.231 57.2849 233.541 57.8388 234.205 57.7902C234.747 57.7513 235.29 57.7416 235.832 57.7319C235.855 57.7319 235.866 57.7513 235.888 57.7513C236.652 58.0332 237.46 58.2469 238.301 58.2469C238.866 58.2469 239.386 58.0915 239.907 57.9651C241.069 58.0817 242.221 58.2372 243.383 58.383C244.058 58.6648 244.723 58.9855 245.354 59.2867C246.35 59.7726 247.258 60.4625 248.432 60.5694C249.727 60.686 251.045 60.2293 252.273 59.9378C253.668 59.6074 255.052 59.2867 256.447 58.9563C256.89 58.8494 257.145 58.5385 257.222 58.1886C258.108 58.2664 258.961 58.3441 259.758 58.4316C260.898 60.2779 262.526 63.3 263.378 64.9325C263.422 65.5836 263.456 66.2347 263.489 66.8857C263.522 67.6631 263.378 68.5571 263.721 69.2956C263.755 69.3539 263.81 69.4122 263.865 69.4511C263.865 69.4511 263.865 69.4706 263.865 69.4803C263.865 69.9467 263.832 70.4326 263.865 70.899C263.898 71.346 264.109 71.7153 264.197 72.1428C264.22 72.2497 264.419 72.2497 264.441 72.1428C264.53 71.7153 264.74 71.3363 264.784 70.899C264.828 70.4909 264.828 70.0828 264.851 69.6843C264.862 69.49 264.884 69.2956 264.906 69.1013C264.995 68.4405 265.127 67.7894 265.172 67.1287C265.194 66.7788 265.205 66.429 265.216 66.0792C265.293 65.5058 265.36 64.9422 265.448 64.3786C265.57 63.5235 265.803 62.6586 265.681 61.8132C265.659 61.6869 265.57 61.58 265.46 61.5023C265.836 60.5014 266.235 59.5394 266.611 58.8591C272.767 59.5491 284.226 60.5014 289.994 61.3857C289.208 65.7877 287.281 72.9494 289.031 73.2409C291.998 73.7462 293.481 67.2064 295.452 63.5721C295.574 63.7956 295.751 64.0094 295.939 64.2037C295.961 64.3495 295.983 64.505 296.006 64.6507C296.083 65.1755 296.161 65.7002 296.238 66.2249C296.305 66.7497 296.327 67.2744 296.327 67.7992C296.327 68.0712 296.305 68.3433 296.338 68.6154C296.371 68.8972 296.46 69.1402 296.437 69.4317C296.426 69.6066 296.758 69.6552 296.792 69.4706C296.847 69.1887 296.991 68.9652 297.08 68.7029C297.168 68.4502 297.19 68.1781 297.212 67.9158C297.246 67.6145 297.257 67.323 297.279 67.0218C297.334 66.8663 297.401 66.7011 297.456 66.5456C297.589 66.1666 297.7 65.7099 297.943 65.3698C298.076 65.1852 298.22 65.02 298.342 64.8353C298.353 64.8062 298.375 64.7868 298.386 64.7673C299.017 64.4855 299.681 63.8733 300.312 62.7364C318.613 66.944 324.858 72.2595 334.745 75.6314C327.969 111.751 343.602 151.69 346.026 160.63C344.454 163.525 341.52 174.691 312.48 164.653V164.643Z" fill="#771D62"/>
</g>
<g style="mix-blend-mode:multiply" opacity="0.35">
<path d="M244.169 148.988C244.102 148.92 244.047 148.843 243.981 148.775C243.87 148.668 243.737 148.6 243.593 148.551C243.493 148.502 243.394 148.483 243.283 148.483C243.117 148.454 242.962 148.454 242.796 148.502C242.696 148.541 242.597 148.57 242.508 148.609C242.464 148.629 242.42 148.658 242.375 148.697C242.32 148.707 242.265 148.697 242.209 148.726C242.132 148.745 242.054 148.784 241.999 148.833C241.888 148.891 241.811 148.969 241.744 149.076C241.711 149.144 241.678 149.212 241.645 149.28C241.6 149.426 241.6 149.581 241.645 149.737C241.645 149.746 241.645 149.766 241.656 149.775C241.667 149.805 241.722 149.95 241.777 150.018C241.822 150.067 241.888 150.145 241.932 150.193C241.932 150.193 241.932 150.203 241.943 150.213C241.943 150.213 241.955 150.213 241.966 150.222C241.999 150.252 242.054 150.281 242.076 150.3C242.098 150.32 242.154 150.349 242.187 150.378C242.198 150.378 242.209 150.397 242.231 150.397C242.298 150.427 242.364 150.446 242.431 150.465C242.486 150.495 242.53 150.533 242.586 150.553C242.674 150.601 242.774 150.621 242.885 150.621C243.04 150.65 243.206 150.65 243.361 150.601C243.361 150.601 243.372 150.601 243.383 150.601C243.482 150.563 243.571 150.533 243.671 150.495C243.682 150.495 243.693 150.495 243.704 150.475C243.704 150.475 243.704 150.475 243.715 150.475C243.97 150.31 243.925 150.358 244.069 150.193C244.18 150.086 244.246 149.97 244.291 149.824C244.346 149.63 244.346 149.445 244.291 149.251C244.257 149.163 244.202 149.076 244.169 148.988Z" fill="#771D62"/>
</g>
<g style="mix-blend-mode:multiply" opacity="0.35">
<path d="M276.42 62.8142C276.365 62.7753 276.298 62.7365 276.243 62.6879C276.143 62.6296 276.033 62.6004 275.911 62.5907C275.789 62.5713 275.667 62.5713 275.556 62.6004C275.523 62.6004 275.49 62.6296 275.457 62.6393C275.424 62.6393 275.39 62.6393 275.357 62.649C275.346 62.649 275.324 62.649 275.313 62.6587C275.246 62.6781 275.18 62.7073 275.114 62.7365C275.069 62.7656 275.025 62.7948 274.981 62.8239C274.914 62.8725 274.87 62.9405 274.848 63.0085C274.826 63.0474 274.815 63.096 274.804 63.1446C274.804 63.1446 274.804 63.164 274.792 63.164C274.77 63.2223 274.759 63.2903 274.759 63.3487C274.759 63.4167 274.77 63.4847 274.815 63.543C274.837 63.611 274.881 63.6596 274.936 63.7082C274.981 63.7373 275.014 63.7568 275.058 63.7859C275.058 63.7859 275.08 63.7859 275.091 63.7859C275.114 63.8248 275.136 63.8637 275.169 63.8928C275.246 63.9706 275.346 64.0289 275.457 64.058C275.567 64.1066 275.678 64.126 275.8 64.126C275.922 64.126 276.044 64.1066 276.143 64.058C276.254 64.0289 276.354 63.9706 276.431 63.8928C276.475 63.8345 276.52 63.7859 276.575 63.7373C276.652 63.611 276.697 63.4847 276.697 63.3389C276.697 63.2709 276.675 63.2029 276.664 63.1252C276.619 62.9891 276.542 62.8725 276.431 62.7753L276.42 62.8142Z" fill="#771D62"/>
</g>
<g style="mix-blend-mode:multiply" opacity="0.35">
<path d="M299.714 74.2417C299.592 74.1446 299.459 74.0863 299.293 74.0474C299.127 73.9988 298.961 73.9988 298.806 74.028C298.64 74.028 298.485 74.0765 298.352 74.1543C298.33 74.164 298.308 74.1834 298.297 74.1931C298.297 74.1931 298.297 74.1931 298.275 74.1931C298.109 74.1931 297.954 74.232 297.81 74.3C297.699 74.3486 297.61 74.4166 297.555 74.5138C297.477 74.5916 297.422 74.6887 297.389 74.7859C297.334 74.922 297.322 75.0677 297.3 75.2135C297.3 75.2523 297.3 75.2815 297.3 75.3204C297.3 75.3981 297.322 75.505 297.345 75.573C297.345 75.573 297.345 75.5925 297.345 75.6022C297.345 75.6216 297.356 75.641 297.367 75.6605C297.411 75.7674 297.455 75.8743 297.511 75.9714C297.533 76.0006 297.544 76.0395 297.577 76.0686C297.621 76.1366 297.677 76.1949 297.732 76.2532C297.776 76.331 297.832 76.4087 297.931 76.4962C298.009 76.5545 298.109 76.6128 298.186 76.6711C298.197 76.6808 298.219 76.6905 298.23 76.7002C298.363 76.778 298.529 76.8363 298.684 76.8849C298.784 76.8946 298.895 76.914 298.994 76.9237C299.16 76.9237 299.304 76.9043 299.448 76.8363C299.548 76.8071 299.636 76.7683 299.703 76.7002C299.836 76.6322 299.935 76.535 300.002 76.4087C300.101 76.2824 300.168 76.1269 300.223 75.9714C300.29 75.816 300.301 75.6508 300.301 75.4856C300.301 75.1455 300.201 74.8345 300.024 74.543C299.946 74.4167 299.836 74.3195 299.703 74.2417H299.714Z" fill="#771D62"/>
</g>
<g style="mix-blend-mode:multiply" opacity="0.35">
<path d="M299.459 151.097C299.459 151.097 299.26 151.019 299.216 151.009C299.193 151.009 298.972 150.98 298.95 150.98C298.895 150.98 298.839 150.99 298.795 151C298.751 151 298.684 151 298.64 151.019C298.596 151.029 298.551 151.048 298.518 151.058C298.485 151.068 298.441 151.087 298.396 151.107C298.341 151.145 298.286 151.184 298.23 151.223C298.153 151.291 298.086 151.369 298.053 151.456C298.02 151.515 297.998 151.573 297.998 151.641C297.998 151.641 297.998 151.66 297.998 151.67C297.998 151.728 297.976 151.796 297.965 151.865C297.965 151.894 297.987 151.923 297.987 151.952C297.987 151.952 297.987 151.952 297.976 151.962C297.931 152.02 297.909 152.078 297.898 152.137L297.865 152.205C297.865 152.205 297.854 152.292 297.843 152.331C297.843 152.36 297.854 152.428 297.865 152.467C297.865 152.467 297.865 152.467 297.865 152.477C297.865 152.477 297.865 152.486 297.865 152.496C297.876 152.545 297.909 152.593 297.931 152.632C297.931 152.632 297.931 152.642 297.931 152.652C297.965 152.69 297.998 152.729 298.031 152.768C298.042 152.778 298.053 152.788 298.064 152.807C298.108 152.846 298.164 152.875 298.219 152.904C298.252 152.924 298.286 152.933 298.33 152.943C298.363 152.963 298.396 152.992 298.441 153.001C298.496 153.031 298.562 153.05 298.629 153.05C298.728 153.069 298.828 153.069 298.939 153.04C299.016 153.021 299.094 152.992 299.171 152.953C299.193 152.953 299.205 152.933 299.227 152.924C299.26 152.904 299.282 152.875 299.315 152.856C299.36 152.836 299.415 152.817 299.448 152.788C299.481 152.768 299.515 152.749 299.537 152.729C299.592 152.671 299.658 152.603 299.703 152.535C299.769 152.448 299.802 152.35 299.847 152.253C299.813 152.321 299.78 152.38 299.758 152.448C299.802 152.37 299.836 152.292 299.869 152.214C299.869 152.195 299.88 152.185 299.88 152.166C299.88 152.166 299.88 152.156 299.88 152.146C299.891 152.069 299.913 151.981 299.913 151.903C299.913 151.884 299.913 151.874 299.913 151.855C299.913 151.699 299.869 151.554 299.78 151.408C299.692 151.272 299.57 151.175 299.426 151.097H299.459Z" fill="#771D62"/>
</g>
<g style="mix-blend-mode:multiply" opacity="0.35">
<path d="M297.134 146.812C297.012 146.763 296.901 146.714 296.757 146.724L296.558 146.744C296.492 146.763 296.436 146.782 296.381 146.812C296.27 146.87 296.182 146.948 296.115 147.045C296.049 147.152 296.016 147.259 296.016 147.375C296.016 147.482 296.027 147.599 296.038 147.706C296.038 147.793 296.06 147.871 296.104 147.949C296.137 148.026 296.182 148.094 296.259 148.153C296.326 148.211 296.403 148.26 296.492 148.289C296.58 148.328 296.669 148.347 296.768 148.347C296.835 148.347 296.901 148.328 296.957 148.328C297.078 148.298 297.189 148.24 297.278 148.162C297.311 148.123 297.355 148.075 297.388 148.036C297.455 147.939 297.488 147.832 297.488 147.715C297.488 147.608 297.499 147.492 297.51 147.385C297.51 147.268 297.477 147.152 297.411 147.055C297.344 146.957 297.256 146.88 297.145 146.821L297.134 146.812Z" fill="#771D62"/>
</g>
<g style="mix-blend-mode:multiply" opacity="0.35">
<path d="M276.033 154.76C276.033 154.76 276.021 154.741 276.01 154.731C276.01 154.731 276.01 154.721 276.01 154.712C275.988 154.692 275.977 154.673 275.955 154.653C275.944 154.634 275.922 154.615 275.9 154.595C275.855 154.556 275.822 154.527 275.778 154.488C275.711 154.43 275.645 154.391 275.556 154.362C275.479 154.323 275.39 154.304 275.302 154.313C275.213 154.313 275.125 154.323 275.047 154.362C274.959 154.381 274.892 154.43 274.826 154.488C274.793 154.527 274.759 154.566 274.715 154.605C274.649 154.692 274.626 154.799 274.626 154.906C274.626 154.955 274.638 155.013 274.649 155.062C274.682 155.159 274.737 155.246 274.826 155.324L274.959 155.44C274.959 155.44 275.047 155.499 275.091 155.538C275.091 155.538 275.103 155.538 275.114 155.538C275.125 155.538 275.136 155.547 275.147 155.557C275.169 155.567 275.202 155.577 275.224 155.586L275.368 155.645C275.446 155.664 275.534 155.674 275.612 155.654C275.667 155.654 275.723 155.645 275.767 155.615C275.844 155.596 275.911 155.557 275.966 155.499C275.999 155.46 276.033 155.421 276.066 155.392C276.088 155.353 276.11 155.304 276.132 155.266C276.154 155.198 276.165 155.12 276.132 155.052C276.132 154.984 276.099 154.916 276.055 154.848C276.044 154.828 276.033 154.799 276.021 154.78L276.033 154.76Z" fill="#771D62"/>
</g>
<g style="mix-blend-mode:multiply" opacity="0.35">
<path d="M114.534 120.06C114.655 120.05 114.755 120.04 114.866 120.001C115.12 119.914 115.22 119.875 115.419 119.739C115.596 119.622 115.707 119.525 115.829 119.35C115.829 119.35 115.829 119.34 115.829 119.331C115.884 119.292 115.929 119.253 115.973 119.224C116.061 119.146 116.15 119.049 116.216 118.952C116.371 118.748 116.427 118.495 116.438 118.242C116.438 118.194 116.438 118.155 116.438 118.106C116.427 117.98 116.405 117.844 116.371 117.718C116.338 117.601 116.272 117.484 116.216 117.368C116.194 117.319 116.172 117.271 116.139 117.232C116.039 117.076 115.906 116.93 115.763 116.814C115.53 116.62 115.286 116.503 114.988 116.406C114.799 116.347 114.578 116.318 114.368 116.328C113.858 116.357 113.393 116.513 113.028 116.833C112.895 116.95 112.773 117.086 112.674 117.232C112.607 117.348 112.552 117.465 112.496 117.591C112.474 117.63 112.463 117.669 112.452 117.708C112.353 118.048 112.353 118.417 112.452 118.757C112.496 118.884 112.563 119 112.618 119.117C112.64 119.156 112.663 119.195 112.685 119.234C112.762 119.34 112.851 119.438 112.95 119.535C112.984 119.564 113.017 119.593 113.061 119.622C113.161 119.7 113.305 119.797 113.438 119.855C113.548 119.904 113.67 119.953 113.792 119.991C113.825 119.991 113.847 120.001 113.88 120.011C114.157 120.06 114.268 120.06 114.534 120.03V120.06Z" fill="#771D62"/>
</g>
<g style="mix-blend-mode:multiply" opacity="0.35">
<path d="M111.81 122.547C111.81 122.547 111.788 122.547 111.777 122.537C111.678 122.44 111.545 122.372 111.401 122.333C111.257 122.294 111.102 122.294 110.958 122.333C110.814 122.372 110.692 122.431 110.593 122.518C110.559 122.547 110.526 122.576 110.482 122.605C110.415 122.664 110.36 122.732 110.338 122.8C110.294 122.878 110.272 122.955 110.283 123.043C110.283 123.101 110.294 123.15 110.305 123.208C110.338 123.315 110.393 123.402 110.482 123.48C110.515 123.509 110.548 123.538 110.593 123.567C110.692 123.655 110.825 123.723 110.958 123.752C111.102 123.791 111.257 123.791 111.401 123.752C111.545 123.713 111.678 123.645 111.777 123.548C111.788 123.548 111.799 123.548 111.81 123.538C111.91 123.49 111.988 123.422 112.043 123.334C112.098 123.247 112.132 123.15 112.132 123.043C112.132 122.936 112.098 122.839 112.043 122.751C111.988 122.664 111.91 122.596 111.81 122.547Z" fill="#771D62"/>
</g>
<g style="mix-blend-mode:multiply" opacity="0.35">
<path d="M106.628 114.958L106.44 114.831C106.363 114.802 106.296 114.773 106.219 114.754C106.097 114.724 105.975 114.715 105.853 114.744C105.732 114.744 105.621 114.783 105.51 114.841C105.499 114.841 105.488 114.851 105.466 114.861C105.466 114.861 105.455 114.861 105.444 114.861C105.399 114.88 105.41 114.88 105.344 114.929C105.233 115.006 105.178 115.035 105.1 115.162C105.067 115.23 105.034 115.288 105.001 115.356C105.001 115.356 105.001 115.366 105.001 115.376C105.001 115.385 105.001 115.395 104.99 115.414C104.945 115.55 104.945 115.696 104.99 115.832C105.034 115.968 105.112 116.085 105.222 116.182C105.333 116.279 105.466 116.347 105.621 116.386C105.776 116.425 105.942 116.425 106.097 116.386C106.197 116.357 106.318 116.328 106.396 116.279C106.462 116.24 106.518 116.192 106.584 116.153C106.628 116.095 106.684 116.046 106.728 115.988C106.728 115.988 106.728 115.978 106.728 115.968C106.728 115.959 106.739 115.939 106.75 115.929C106.783 115.861 106.817 115.803 106.839 115.735C106.872 115.628 106.883 115.521 106.85 115.414C106.85 115.346 106.828 115.278 106.783 115.21C106.75 115.113 106.684 115.026 106.595 114.958H106.628Z" fill="#771D62"/>
</g>
<g style="mix-blend-mode:multiply" opacity="0.35">
<path d="M100.938 72.7549C101.148 72.5605 101.182 72.269 100.982 72.0455C100.805 71.8414 100.451 71.754 100.196 71.9095C100.097 71.9678 100.008 72.0358 99.9195 72.0941C99.9638 72.065 100.008 72.0358 100.052 72.0066C99.8531 72.1233 99.687 72.2399 99.5653 72.4245C99.4878 72.5411 99.4213 72.6771 99.366 72.8132C99.211 72.9687 99.1224 73.163 99.1113 73.3768C99.1113 73.542 99.1778 73.6975 99.2885 73.8238C99.2885 73.9015 99.2995 73.9793 99.3217 74.0473C99.377 74.2805 99.6206 74.4749 99.8753 74.5332C100.019 74.5623 100.163 74.5623 100.296 74.5332C100.429 74.504 100.551 74.436 100.65 74.3485C100.739 74.2902 100.816 74.2222 100.894 74.1542C101.038 74.0084 101.093 73.921 101.171 73.7363C101.204 73.6392 101.226 73.5323 101.226 73.4254C101.226 73.3185 101.204 73.2116 101.171 73.1047C101.115 72.9687 101.049 72.8521 100.938 72.7452V72.7549Z" fill="#771D62"/>
</g>
<g style="mix-blend-mode:multiply" opacity="0.35">
<path d="M117.212 151.699C117.113 151.466 117.013 151.301 116.814 151.116C116.692 151 116.537 150.893 116.371 150.834C116.238 150.786 116.094 150.728 115.95 150.698C115.806 150.669 115.651 150.65 115.496 150.64C115.341 150.63 115.197 150.64 115.031 150.669C114.998 150.669 114.965 150.679 114.932 150.689C114.876 150.698 114.843 150.718 114.788 150.737C114.655 150.786 114.544 150.834 114.456 150.932C114.367 151.009 114.301 151.097 114.256 151.204C114.201 151.301 114.168 151.408 114.179 151.524C114.19 151.748 114.279 151.962 114.456 152.117C114.511 152.166 114.577 152.205 114.644 152.243C114.666 152.428 114.688 152.535 114.788 152.7C114.843 152.788 114.91 152.865 114.987 152.933C115.142 153.069 115.364 153.186 115.574 153.225C115.829 153.274 116.028 153.274 116.282 153.225C116.515 153.176 116.703 153.069 116.88 152.933C117.046 152.797 117.19 152.574 117.235 152.38C117.257 152.282 117.29 152.156 117.279 152.049C117.279 151.962 117.257 151.865 117.235 151.767C117.235 151.748 117.224 151.719 117.212 151.699Z" fill="#771D62"/>
</g>
<g style="mix-blend-mode:multiply" opacity="0.35">
<path d="M234.858 61.201C234.814 61.0358 234.714 60.8803 234.581 60.7637C234.526 60.7151 234.437 60.6568 234.393 60.6374C234.271 60.5597 234.127 60.5402 233.983 60.5305C233.828 60.5305 233.684 60.5597 233.541 60.6277C233.463 60.6666 233.397 60.7151 233.341 60.7832C233.33 60.7929 233.33 60.8123 233.319 60.822C233.297 60.822 233.264 60.822 233.242 60.8415C233.197 60.8512 233.164 60.8706 233.131 60.8998C233.076 60.9289 233.031 60.9678 233.009 61.0164C232.998 61.0553 232.976 61.0844 232.965 61.1233C232.943 61.201 232.943 61.2788 232.965 61.3565C232.987 61.444 232.998 61.5411 233.009 61.6286C233.02 61.716 233.053 61.8035 233.076 61.9007C233.076 61.8715 233.076 61.8327 233.064 61.8035C233.064 61.8812 233.076 61.959 233.12 62.027C233.153 62.1047 233.197 62.1825 233.275 62.2408C233.33 62.2797 233.374 62.3088 233.43 62.3477C233.552 62.406 233.673 62.4351 233.806 62.4351C233.983 62.4351 234.205 62.3865 234.349 62.2991C234.415 62.2602 234.482 62.2116 234.537 62.1728C234.548 62.1728 234.559 62.1533 234.57 62.1436C234.637 62.0756 234.703 62.0076 234.747 61.9298C234.792 61.8521 234.836 61.7646 234.858 61.6869C234.858 61.6772 234.858 61.6577 234.858 61.648C234.891 61.444 234.902 61.4634 234.858 61.2593V61.2399V61.201Z" fill="#771D62"/>
</g>
<path style="mix-blend-mode:multiply" opacity="0.35" d="M97.4282 112.762C97.4282 91.4029 97.8157 77.4487 102.864 63.6111C92.2025 66.0502 81.9836 68.9654 72.5175 72.4539C80.1236 105.668 70.7793 146.773 67.5686 159.493C66.9265 162.039 66.8379 163.263 66.8379 163.263C73.4143 177.868 89.9218 171.62 106.883 166.237C99.9304 156.004 97.4393 134.121 97.4393 112.752L97.4282 112.762Z" fill="url(#paint10_linear_528_5908)"/>
<path d="M314.86 159.483C316.133 164.818 323.496 168.52 329.574 168.52C335.552 167.578 336.527 165.119 337.711 162.408C337.711 162.408 337.612 152.681 337.711 149.843C337.811 147.006 316.332 145.004 315.89 149.843L314.86 159.483Z" fill="#A145A6"/>
<g style="mix-blend-mode:multiply" opacity="0.35">
<path d="M337.711 149.843C337.811 147.006 316.686 144.839 316.244 149.678L314.849 159.483C315.469 162.078 317.528 164.283 320.185 165.867C320.185 165.867 321.082 166.373 322.111 166.859C324.492 167.918 327.127 168.52 329.563 168.52C335.541 167.578 336.515 165.119 337.7 162.408C337.7 162.408 337.6 152.681 337.7 149.843H337.711Z" fill="#771D62"/>
</g>
<path d="M323.385 160.426C323.186 158.531 324.858 156.296 329.962 156.296C334.966 156.986 336.649 159.308 337.712 162.408V150.524C337.712 147.249 323.396 146.481 323.396 150.524V160.426H323.385Z" fill="url(#paint11_linear_528_5908)"/>
<path d="M338.853 151.135L320.884 150.688L320.031 164.303L339.196 164.652L338.853 151.135Z" fill="url(#paint12_linear_528_5908)"/>
<g style="mix-blend-mode:multiply" opacity="0.25">
<path d="M338.864 151.612L336.174 151.067L334.458 151.029L334.292 152.544L334.38 155.936L339.019 157.53L338.864 151.612Z" fill="#CC0631"/>
</g>
<path d="M346.734 62.7073C346.225 59.656 344.675 57.1683 342.505 55.2734C342.106 56.0703 340.313 57.868 340.313 57.4307C340.313 56.3132 340.579 55.186 340.999 54.1268C332.685 48.4712 318.181 49.7831 314.849 58.9272C317.926 74.2321 318.724 96.5725 318.48 108.778C318.214 121.76 315.557 156.5 314.849 159.483C317.008 153.332 322.754 151.554 329.806 151.903C333.515 152.088 337.268 152.924 340.313 154.576C340.645 154.041 341.176 153.623 341.852 153.371C342.206 153.244 342.483 153.555 342.527 153.818C342.66 154.809 343.092 155.761 343.335 156.733C345.107 158.404 346.347 160.552 346.734 163.263C344.719 151.719 342.339 121.585 342.295 107.65C342.261 96.3684 343.734 78.605 346.734 62.7073Z" fill="url(#paint13_linear_528_5908)"/>
<path d="M98.7019 159.483C97.4286 164.818 90.0662 168.52 83.9879 168.52C78.0094 167.578 77.0351 165.119 75.8504 162.408C75.8504 162.408 75.9501 152.681 75.8504 149.843C75.7508 147.006 97.2294 145.004 97.6722 149.843L98.7019 159.483Z" fill="#A145A6"/>
<g style="mix-blend-mode:multiply" opacity="0.35">
<path d="M98.7019 159.483C97.4286 164.818 90.0662 168.52 83.9879 168.52C78.0094 167.578 77.0351 165.119 75.8504 162.408C75.8504 162.408 75.9501 152.681 75.8504 149.843C75.7508 147.006 97.2294 145.004 97.6722 149.843L98.7019 159.483Z" fill="#771D62"/>
</g>
<path d="M75.8501 150.533V162.418C76.603 160.212 77.6769 158.404 80.024 157.297L81.0869 155.178C81.0869 155.178 81.1865 156.266 81.2972 156.811C81.9726 156.597 82.7365 156.432 83.6001 156.305C88.239 156.305 90.0326 158.152 90.1765 159.911V150.533C90.1765 146.491 75.8612 147.258 75.8612 150.533H75.8501Z" fill="url(#paint14_linear_528_5908)"/>
<path d="M74.6542 151.136L92.6232 150.689L93.4867 164.303L74.311 164.653L74.6542 151.136Z" fill="url(#paint15_linear_528_5908)"/>
<g style="mix-blend-mode:multiply" opacity="0.25">
<path d="M74.6428 151.612L77.3331 151.068L79.0603 151.029L79.2264 152.545L79.1267 155.936L74.4878 157.53L74.6428 151.612Z" fill="#CC0631"/>
</g>
<g style="mix-blend-mode:multiply" opacity="0.15">
<path d="M76.4922 149.406C76.3151 149.591 76.138 149.814 75.9608 150.057C75.8944 150.213 75.8501 150.368 75.8501 150.533V162.418C76.4369 160.708 77.234 159.23 78.6512 158.142C78.3744 157.617 78.2305 156.471 78.153 155.101C78.1197 153.886 83.744 150.767 90.099 153.108C90.1212 153.108 90.1433 153.108 90.1654 153.108V150.533C90.1654 150.417 90.1544 150.31 90.1322 150.203L77.6547 148.745C77.1897 148.94 76.7912 149.153 76.4922 149.396V149.406Z" fill="#8E1613"/>
</g>
<path d="M98.7014 58.9272C97.9154 56.7699 96.4982 55.0596 94.7047 53.7672C93.9407 54.7195 91.8039 54.5057 92.0143 56.0897C91.7818 57.0031 90.1211 56.5075 89.7114 55.9245C88.6818 54.5543 89.4125 52.708 88.8147 51.231C83.279 50.0163 76.7247 51.1144 72.1965 54.3891C72.9604 57.4015 71.9307 60.6471 70.8015 55.5261C68.7754 57.3918 67.325 59.8017 66.8379 62.7267C69.8272 78.6244 71.3107 96.3975 71.2775 107.67C71.2443 121.605 68.8529 151.738 66.8379 163.283C68.0225 153.332 84.1093 148.949 93.1879 153.468C93.3982 152.545 93.52 151.612 93.6639 150.689C93.6972 150.494 93.9629 150.349 94.1732 150.349H94.5607C94.8486 150.349 95.0922 150.562 95.0922 150.815C95.1032 151.699 95.5461 152.477 95.9668 153.264C96.4097 154.09 96.8082 154.935 96.8193 155.868C96.8193 155.975 96.7861 156.062 96.7197 156.13C97.5832 157.093 98.2697 158.21 98.7125 159.502C95.9004 136.356 92.4682 88.3418 98.7125 58.9466L98.7014 58.9272Z" fill="url(#paint16_linear_528_5908)"/>
<g style="mix-blend-mode:multiply" opacity="0.35">
<path d="M94.7047 53.7574C93.9407 54.7098 91.8039 54.496 92.0143 56.0799C91.7818 56.9933 90.1211 56.4978 89.7115 55.9147C88.6818 54.5446 89.4125 52.6982 88.8147 51.2212C83.279 50.0065 76.7247 51.1046 72.1965 54.3794C72.9604 57.3918 71.9307 60.6374 70.8015 55.5163C68.7754 57.382 67.325 59.792 66.8379 62.7169C66.9818 63.4554 67.1147 64.2037 67.2475 64.9519C68.1997 63.0376 69.4507 61.3662 71.0229 59.9863C72.4511 63.0764 73.4254 63.436 73.5361 58.1983C75.7504 56.935 78.4186 56.1285 81.5961 55.8661C81.5961 55.9827 81.6182 56.0993 81.6182 56.2062C81.6736 57.2168 81.8065 58.2275 81.884 59.2381C81.9504 60.2098 82.05 61.1816 82.1718 62.1533C82.2272 62.6003 82.3047 63.0473 82.3932 63.4943C82.504 64.019 82.814 64.4758 82.9136 64.9908C82.9468 65.1657 83.29 65.1268 83.2679 64.9519C83.2015 64.4369 83.3565 63.9121 83.3232 63.3874C83.29 62.9404 83.2568 62.4934 83.2015 62.0464C83.1018 61.0747 83.0243 60.1029 82.969 59.1312C82.9136 58.1497 82.969 57.1877 83.0132 56.2062C83.0132 56.0702 83.0354 55.9244 83.0465 55.7787C84.4857 55.7301 85.8586 55.7787 87.165 55.9341C88.2168 58.723 91.3168 59.3352 93.5311 58.0137C95.4022 59.1603 96.9079 60.7831 97.9375 62.9404C98.1811 61.5702 98.4247 60.2292 98.7014 58.9271C97.9154 56.7698 96.4982 55.0596 94.7047 53.7672V53.7574Z" fill="#771D62"/>
</g>
<g style="mix-blend-mode:multiply" opacity="0.35">
<path d="M98.7014 159.483C98.3804 156.811 98.0482 153.789 97.7161 150.514C97.1404 150.067 96.5536 149.678 95.9336 149.319C94.6825 145.461 93.365 145.568 92.5347 147.803C88.56 146.501 84.1647 146.53 80.19 147.288C80.5 143.974 80.4115 140.583 80.5443 137.288C80.7215 132.838 80.8875 128.397 81.0536 123.946C81.0536 123.869 80.9207 123.869 80.9207 123.946C80.6882 128.339 80.334 132.702 79.869 137.075C79.6365 139.232 79.3375 141.38 79.0607 143.527C78.8836 144.888 78.6622 146.277 78.5182 147.657C73.4697 148.92 69.3732 151.32 68.1665 153.546C67.7236 157.423 67.2697 160.785 66.8379 163.273C68.0225 153.322 84.1093 148.94 93.1879 153.458C93.3982 152.535 93.52 151.602 93.6639 150.679C93.6972 150.485 93.9629 150.339 94.1732 150.339H94.5607C94.8486 150.339 95.0922 150.553 95.0922 150.805C95.1032 151.69 95.5461 152.467 95.9668 153.254C96.4097 154.08 96.8082 154.926 96.8193 155.858C96.8193 155.965 96.7861 156.053 96.7197 156.121C97.5832 157.083 98.2697 158.2 98.7125 159.493L98.7014 159.483Z" fill="#771D62"/>
</g>
<g style="mix-blend-mode:multiply" opacity="0.35">
<path d="M80.3453 117.883C80.3785 117.057 80.3785 116.24 80.3785 115.414C80.3785 115.317 80.2124 115.317 80.2124 115.414C80.2124 116.24 80.2124 117.057 80.2456 117.883C80.2456 117.931 80.3342 117.931 80.3342 117.883H80.3453Z" fill="#771D62"/>
</g>
<g style="mix-blend-mode:multiply" opacity="0.35">
<path d="M80.5996 122.363C80.6439 121.546 80.6217 120.72 80.6328 119.894C80.6328 119.807 80.4778 119.807 80.4778 119.894C80.4778 120.72 80.4667 121.537 80.511 122.363C80.511 122.411 80.5996 122.411 80.5996 122.363Z" fill="#771D62"/>
</g>
<g style="mix-blend-mode:multiply" opacity="0.35">
<path d="M342.505 55.2734C342.106 56.0703 340.313 57.868 340.313 57.4307C340.313 56.3132 340.579 55.186 340.999 54.1268C332.685 48.4712 318.181 49.7831 314.849 58.9272C315.004 59.724 315.524 62.6684 315.668 63.4944C315.668 63.4944 318.104 54.36 331.777 55.2929C331.777 55.5844 331.788 55.8662 331.788 56.148C331.788 57.1003 331.733 58.0526 331.688 59.0049C331.6 60.9095 331.4 62.8142 331.4 64.7285C331.4 64.884 331.699 64.9326 331.733 64.7674C332.043 62.9308 332.164 61.0747 332.397 59.2284C332.519 58.2372 332.64 57.2558 332.806 56.2646C332.851 55.9925 332.906 55.7204 332.973 55.4386C335.054 55.7982 337.191 56.7408 339.051 57.8388V62.1437L342.073 58.247C344.088 60.1127 345.561 62.4157 346.026 64.9423C346.136 64.8937 346.247 64.8354 346.358 64.7771C346.48 64.0871 346.601 63.3972 346.734 62.717C346.225 59.6657 344.675 57.1781 342.505 55.2832V55.2734Z" fill="#771D62"/>
</g>
<g style="mix-blend-mode:multiply" opacity="0.35">
<path d="M331.611 65.2921C331.544 65.2338 331.412 65.2435 331.356 65.3213C331.301 65.4184 331.323 65.4962 331.334 65.5934C331.345 65.6905 331.356 65.7877 331.356 65.8849C331.356 66.0792 331.356 66.2736 331.356 66.4679C331.323 66.8566 331.234 67.2356 331.091 67.5951C331.013 67.8089 331.389 67.8964 331.467 67.6826C331.611 67.2939 331.699 66.8858 331.733 66.4776C331.744 66.2736 331.755 66.0792 331.733 65.8752C331.733 65.778 331.722 65.6808 331.711 65.5836C331.699 65.467 331.699 65.3601 331.6 65.2824L331.611 65.2921Z" fill="#771D62"/>
</g>
<g style="mix-blend-mode:multiply" opacity="0.35">
<path d="M345.373 153.303C344.886 152.564 344.321 151.894 343.701 151.282C343.535 147.579 342.284 147.472 340.911 149.163C339.438 148.298 337.8 147.657 336.084 147.19C335.995 146.083 335.907 144.965 335.818 143.857C335.707 142.546 335.597 141.224 335.475 139.912C335.353 138.542 335.032 137.182 334.866 135.821C334.844 135.627 334.501 135.607 334.501 135.821C334.523 137.24 334.412 138.659 334.489 140.068C334.556 141.379 334.633 142.701 334.722 144.013C334.788 144.975 334.844 145.937 334.91 146.899C333.582 146.607 332.22 146.433 330.869 146.335C330.869 146.19 330.858 146.044 330.847 145.898C330.825 144.771 330.725 143.653 330.57 142.536C330.57 142.458 330.448 142.458 330.437 142.536C330.282 143.653 330.183 144.771 330.161 145.898C330.161 146.024 330.15 146.16 330.138 146.287C323.839 146.005 317.794 147.628 315.89 149.824C315.447 154.896 315.07 158.579 314.86 159.464C317.019 153.312 322.765 151.534 329.817 151.884C333.526 152.069 337.279 152.904 340.324 154.556C340.656 154.022 341.188 153.604 341.863 153.351C342.217 153.225 342.494 153.536 342.538 153.798C342.671 154.79 343.103 155.742 343.347 156.714C345.118 158.385 346.358 160.532 346.746 163.244C346.303 160.698 345.838 157.258 345.395 153.283L345.373 153.303Z" fill="#771D62"/>
</g>
<path d="M343.557 164.225C343.602 165.119 343.535 167.131 343.535 167.131L315.126 166.985C315.126 166.985 315.126 165.304 315.148 164.079C315.181 158.608 321.57 154.207 329.419 154.245C337.269 154.284 343.281 158.579 343.557 164.225Z" fill="url(#paint17_linear_528_5908)"/>
<path d="M343.535 167.131C343.502 172.602 337.114 177.004 329.264 176.965C321.415 176.926 315.093 172.456 315.126 166.985C315.159 161.514 321.548 157.112 329.397 157.151C337.247 157.19 343.569 161.66 343.535 167.131Z" fill="url(#paint18_linear_528_5908)"/>
<g style="mix-blend-mode:multiply" opacity="0.25">
<path d="M339.683 160.309C341.078 161.806 341.886 163.584 341.875 165.498C341.841 170.707 335.752 174.905 328.29 174.866C321.869 174.837 316.521 171.678 315.17 167.49C315.514 172.728 321.669 176.936 329.275 176.974C337.125 177.013 343.513 172.611 343.546 167.14C343.569 164.497 342.085 162.097 339.694 160.309H339.683Z" fill="#CC0631"/>
</g>
<path d="M316.632 162.602C317.695 159.813 328.08 153.555 338.21 159.337C331.279 156.16 321.492 156.976 316.632 162.602Z" fill="#FFF5CC"/>
<path d="M329.607 163.273C324.337 163.156 323.131 165.411 323.064 167.024C322.931 170.269 325.245 171.873 324.902 176.644C324.548 181.415 323.33 182.436 322.156 186.06C321.503 188.081 322.998 190.55 328.124 190.997C332.984 191.016 335.01 188.801 334.578 186.721C333.803 182.99 332.696 181.853 332.862 177.072C333.028 172.291 335.497 170.95 335.708 167.694C335.818 166.072 334.855 163.71 329.607 163.273Z" fill="url(#paint19_linear_528_5908)"/>
<path d="M328.6 170.133C328.468 170.396 327.637 176.897 327.427 179.2C327.305 180.483 327.316 181.892 328.246 181.804C329.132 181.483 329.353 180.133 329.276 178.889C329.132 176.664 328.733 170.347 328.611 170.124L328.6 170.133Z" fill="#FFF5CC"/>
<path d="M334.612 187.557C334.49 189.617 331.545 191.152 328.058 190.987C324.559 190.822 321.836 189.014 321.958 186.954C322.079 184.894 325.024 183.359 328.512 183.524C332.01 183.689 334.734 185.497 334.612 187.557Z" fill="url(#paint20_linear_528_5908)"/>
<path d="M322.4 185.74C324.592 183.689 327.271 183.174 331.069 183.971C328.677 183.077 324.681 182.708 322.4 185.74Z" fill="#FFF5CC"/>
<g style="mix-blend-mode:multiply" opacity="0.15">
<path d="M333.483 182.727C333.062 181.25 332.763 179.715 332.852 177.072C333.018 172.291 335.487 170.95 335.697 167.694C335.808 166.072 334.845 163.71 329.597 163.273C327.593 163.224 326.187 163.526 325.19 164.002C328.899 163.817 334.114 165.867 333.118 169.463C332.132 173.068 331.335 176.77 333.472 182.727H333.483Z" fill="#CC0631"/>
</g>
<g style="mix-blend-mode:multiply" opacity="0.35">
<path d="M332.099 184.379C332.885 184.991 333.339 185.749 333.283 186.556C333.173 188.363 330.604 189.714 327.537 189.568C324.504 189.422 322.135 187.877 322.19 186.089C322.057 186.371 321.968 186.663 321.946 186.964C321.825 189.024 324.548 190.832 328.047 190.997C331.545 191.162 334.479 189.627 334.601 187.566C334.678 186.303 333.682 185.137 332.088 184.379H332.099Z" fill="#CC0631"/>
</g>
<path d="M69.9493 164.225C69.905 165.119 69.9714 167.131 69.9714 167.131L98.3807 166.985C98.3807 166.985 98.3807 165.304 98.3586 164.079C98.3254 158.608 91.9371 154.207 84.0875 154.245C76.2379 154.284 70.2261 158.579 69.9493 164.225Z" fill="url(#paint21_linear_528_5908)"/>
<path d="M69.9713 167.131C70.0045 172.602 76.3927 177.004 84.2424 176.965C92.092 176.926 98.4138 172.456 98.3806 166.985C98.3474 161.514 91.9592 157.112 84.1095 157.151C76.2599 157.19 69.9381 161.66 69.9713 167.131Z" fill="url(#paint22_linear_528_5908)"/>
<g style="mix-blend-mode:multiply" opacity="0.25">
<path d="M73.8246 160.309C72.4296 161.806 71.6214 163.584 71.6325 165.498C71.6657 170.707 77.755 174.905 85.2171 174.866C91.6385 174.837 96.986 171.678 98.3368 167.49C97.9935 172.728 91.8378 176.936 84.2318 176.974C76.3821 177.013 69.9939 172.611 69.9607 167.14C69.9386 164.497 71.4221 162.097 73.8135 160.309H73.8246Z" fill="#CC0631"/>
</g>
<path d="M96.8751 162.602C95.8122 159.814 85.4272 153.556 75.2969 159.337C82.2276 156.16 92.0147 156.976 96.8751 162.602Z" fill="#FFF5CC"/>
<path d="M83.899 163.273C89.169 163.156 90.3758 165.41 90.4423 167.024C90.5751 170.269 88.2612 171.873 88.6044 176.644C88.9587 181.415 90.1765 182.435 91.3501 186.06C92.0033 188.081 90.5087 190.549 85.3826 190.996C80.5223 191.016 78.4962 188.8 78.928 186.721C79.703 182.989 80.8101 181.852 80.644 177.071C80.478 172.29 78.009 170.949 77.7987 167.694C77.688 166.071 78.6512 163.71 83.899 163.273Z" fill="url(#paint23_linear_528_5908)"/>
<path d="M84.9177 170.133C85.0506 170.396 85.881 176.897 86.0913 179.2C86.2131 180.482 86.202 181.891 85.272 181.804C84.3863 181.483 84.1649 180.132 84.2424 178.889C84.3863 176.663 84.7849 170.347 84.9067 170.124L84.9177 170.133Z" fill="#FFF5CC"/>
<path d="M78.8946 187.557C79.0163 189.617 81.9613 191.152 85.4488 190.987C88.9474 190.822 91.671 189.014 91.5492 186.954C91.4274 184.894 88.4824 183.359 84.9949 183.524C81.4963 183.689 78.7728 185.497 78.8946 187.557Z" fill="url(#paint24_linear_528_5908)"/>
<path d="M91.1177 185.739C88.9255 183.689 86.2462 183.174 82.4487 183.971C84.8402 183.077 88.8369 182.708 91.1177 185.739Z" fill="#FFF5CC"/>
<g style="mix-blend-mode:multiply" opacity="0.15">
<path d="M80.0242 182.727C80.4449 181.25 80.7438 179.715 80.6553 177.072C80.4892 172.291 78.0203 170.95 77.8099 167.694C77.6992 166.072 78.6624 163.71 83.9103 163.273C85.9142 163.224 87.3203 163.526 88.3167 164.002C84.6078 163.817 79.3931 165.867 80.3896 169.463C81.3749 173.068 82.1721 176.77 80.0353 182.727H80.0242Z" fill="#CC0631"/>
</g>
<g style="mix-blend-mode:multiply" opacity="0.35">
<path d="M81.4072 184.379C80.6212 184.991 80.1672 185.749 80.2226 186.556C80.3333 188.363 82.9019 189.714 85.9687 189.568C89.0022 189.422 91.3715 187.877 91.3162 186.089C91.449 186.371 91.5376 186.663 91.5597 186.964C91.6815 189.024 88.9579 190.832 85.4594 190.997C81.9608 191.162 79.0269 189.627 78.9051 187.566C78.8276 186.303 79.824 185.137 81.4183 184.379H81.4072Z" fill="#CC0631"/>
</g>
<g style="mix-blend-mode:screen">
<path d="M126.823 47.655L128.727 57.4502L133.399 59.3451L128.727 61.2497L126.823 71.0449L124.919 61.2497L120.235 59.3451L124.919 57.4502L126.823 47.655Z" fill="#FCCD47"/>
</g>
<g style="mix-blend-mode:screen">
<path d="M147.98 52.1348C147.98 53.3786 146.829 54.3893 145.412 54.3893C143.995 54.3893 142.843 53.3786 142.843 52.1348C142.843 50.891 143.995 49.8804 145.412 49.8804C146.829 49.8804 147.98 50.891 147.98 52.1348Z" fill="#FCCD47"/>
</g>
<g style="mix-blend-mode:screen">
<path d="M118.253 66.4872C118.253 67.3715 117.445 68.0809 116.438 68.0809C115.43 68.0809 114.622 67.3715 114.622 66.4872C114.622 65.6029 115.43 64.8936 116.438 64.8936C117.445 64.8936 118.253 65.6029 118.253 66.4872Z" fill="#FCCD47"/>
</g>
<g style="mix-blend-mode:screen">
<path d="M277.56 137.415L279.509 155.635L288.909 157.578L279.509 159.512L277.56 177.742L275.612 159.512L266.201 157.578L275.612 155.635L277.56 137.415Z" fill="#FCCD47"/>
</g>
<g style="mix-blend-mode:screen">
<path d="M290.735 175.322C291.738 175.322 292.551 174.609 292.551 173.729C292.551 172.849 291.738 172.135 290.735 172.135C289.732 172.135 288.919 172.849 288.919 173.729C288.919 174.609 289.732 175.322 290.735 175.322Z" fill="#FCCD47"/>
</g>
<path d="M347 163.273C346.546 160.678 345.594 158.822 343.335 156.743C343.191 155.169 342.926 151.087 340.313 154.576C337.578 152.807 328.378 150.038 321.314 152.739C315.181 155.081 315.07 158.628 314.849 159.483C316.177 156.908 317.406 154.955 321.624 153.449C326.274 151.933 331.544 151.389 340.7 155.295C341.42 154.323 342.228 152.185 342.948 157.19C344.144 158.113 346.015 159.561 346.989 163.273H347Z" fill="#F294F7"/>
<path d="M98.7018 159.483C98.3807 157.578 97.65 156.986 96.7089 156.111C97.1075 154.275 95.3803 152.146 95.3803 150.971C95.3803 149.795 93.5314 149.396 93.3321 150.63C93.1439 151.865 92.7786 153.274 92.7786 153.274C90.0661 151.758 83.9546 150.689 77.7879 152.71C71.61 154.731 67.2036 158.2 66.8271 163.273C68.0339 158.706 72.5732 155.169 78.0646 153.381C84.4418 151.301 90.0107 152.146 93.2103 154.226C93.3986 152.934 94.2289 149.795 95.0039 152.04C95.7789 154.284 96.2771 154.566 95.9671 156.189C97.0521 156.859 98.3918 158.084 98.7128 159.493L98.7018 159.483Z" fill="#F294F7"/>
<path d="M318.594 156.376C336.601 109.106 290.162 61.6225 214.871 50.3177C139.579 39.0129 63.9463 68.168 45.9399 115.437C27.9335 162.707 74.3722 210.191 149.664 221.495C224.955 232.8 300.588 203.645 318.594 156.376Z" fill="url(#paint25_radial_528_5908)" fill-opacity="0.7" style="mix-blend-mode:screen"/>
<path d="M305.258 126.527C323.264 79.2576 276.826 31.7738 201.534 20.4691C126.243 9.16428 50.6099 38.3194 32.6035 85.5888C14.5971 132.858 61.0358 180.342 136.327 191.647C211.619 202.952 287.252 173.796 305.258 126.527Z" fill="url(#paint26_radial_528_5908)" fill-opacity="0.7" style="mix-blend-mode:screen"/>
<path style="mix-blend-mode:screen" d="M379.397 143.119C397.403 95.8499 350.964 48.3661 275.673 37.0613C200.381 25.7566 124.749 54.9117 106.742 102.181C88.7357 149.451 135.174 196.934 210.466 208.239C285.757 219.544 361.39 190.389 379.397 143.119Z" fill="url(#paint27_radial_528_5908)" fill-opacity="0.7"/>
<g filter="url(#filter0_d_528_5908)">
<path d="M126.658 92.04V92.08L133.218 91.48V92.36L131.818 92.48H131.778C130.498 92.6 129.378 93.08 129.378 95.6V123.36C129.378 124.36 129.738 125.28 132.258 125.28H132.858V126.16H122.138V125.28C123.338 125.28 124.578 125.08 124.578 123.56V99.6L120.258 115.2H116.098L112.178 102.04V115.32C112.178 117.44 112.898 118.32 115.497 118.32H117.058V119.2L105.618 119.84V118.32H107.178V118.28C109.058 118.28 109.858 117.76 109.858 116V94.24C109.858 91.88 107.418 91.32 106.378 91.28H105.498V90.44H112.898V90.48L113.618 90.44L119.298 110.64L123.498 92.32L126.658 92.04ZM151.49 122.04H151.33L152.81 122.12L152.73 122.8L145.05 122.4L145.17 119.72C144.69 120.28 143.33 121.24 140.49 121.24C135.13 121.24 132.29 117.56 132.29 112.56C132.29 106.32 136.21 103.8 139.85 103.8C142.57 103.8 145.13 105.2 145.89 107.48L146.01 105.36C146.33 99.4 145.97 95.72 142.53 95.72C140.81 95.72 139.57 96.24 138.97 98C138.61 99.28 138.81 100.72 140.77 101.36L140.61 102.2L135.89 100.72H135.73V100.64C137.05 95.2 140.25 94.24 142.49 94.24C148.93 94.24 150.65 99.08 150.29 104.92C150.29 104.96 150.29 104.96 150.29 105L149.41 119.6C149.33 121.24 150.53 121.96 151.49 122.04ZM142.13 118.92C143.97 118.92 144.85 118.36 145.29 118L145.73 110.68C145.05 111.88 143.69 112.4 142.41 112.32C140.49 112.2 139.49 110.96 139.61 109.24C139.65 108.04 140.57 107.48 141.57 107.48C142.41 107.48 143.33 107.92 143.73 108.76C143.73 108.76 142.17 108.56 141.81 109.64C141.57 110.32 142.13 110.76 142.77 110.76C143.53 110.76 144.45 110.2 144.53 108.8C144.61 107.36 143.29 106.16 141.45 106.16C135.49 106.16 135.57 118.92 142.13 118.92ZM161.133 112.48C161.133 110.96 162.373 110.08 163.733 110.08C165.333 110.08 167.133 111.36 167.133 114.28C167.133 117.68 164.533 119.64 161.693 119.64C158.213 119.64 154.293 116.68 154.293 109.84V95.88L150.613 95.96L150.493 94.28L154.293 94.24V89L159.173 88.76V94.16L164.413 94.12L164.533 95.6L159.173 95.76V110.28C159.173 114.44 160.213 116.96 162.693 116.96C164.013 116.96 165.413 115.64 165.413 113.4C165.413 112.2 164.733 111.68 164.093 111.68C163.533 111.68 163.053 112.08 163.053 112.68C163.053 113.68 164.413 113.96 164.413 113.96C164.013 114.36 163.533 114.56 163.053 114.56C162.053 114.56 161.133 113.8 161.133 112.48ZM178.237 111.12C175.917 111.12 173.677 109.96 173.077 107.88C173.237 115.56 175.477 118.72 178.437 118.72C180.877 118.72 182.237 116.04 182.237 113.16L185.277 112.64C185.237 117.92 181.877 120.36 178.197 120.36C173.797 120.68 167.837 116.96 167.837 107.88C167.837 102.44 171.117 96.12 177.557 96.12C187.117 96.12 188.917 111.12 178.237 111.12ZM173.117 105.68C173.437 104.8 174.197 104.04 175.597 104.04C177.797 104.04 178.597 106.2 177.357 107.36C177.357 107.36 177.117 106 176.117 105.96C174.837 105.88 175.317 109.36 178.197 109.36C183.117 109.36 183.077 97.6 178.077 97.6C176.317 97.6 173.557 99.92 173.117 105.68ZM214.542 114C214.582 115.84 215.262 116.52 216.262 116.56H217.302V117.8L206.822 117.84V116.32L207.342 116.36C208.942 116.4 209.582 115.96 209.582 114.16C209.622 112.04 209.622 109.2 209.542 106.84C209.542 106.76 209.542 106.72 209.542 106.64C209.502 102.8 209.182 98.96 206.902 98.96C204.782 98.96 204.262 102.36 204.062 104.96C204.062 105 204.062 105.04 204.022 105.08V106.08L203.702 109.52V109.56C203.582 111.72 204.342 112.48 205.822 112.52L205.782 113.44L195.542 113.08L195.582 112.16H195.942C196.822 112.2 198.302 111.64 198.622 110L199.022 105.48C199.342 101.68 199.062 98 196.702 97.68C194.662 97.4 193.582 99.92 193.582 102.52V114.76C193.582 116.88 193.862 117.92 195.702 118V118.88L185.262 118.92V117.4L186.982 117.52C188.542 117.48 189.502 117.08 189.502 115.44V100.16C189.502 97.8 187.022 97.24 185.982 97.24L186.622 97.16L185.102 97.24V96.36L193.582 95.96V98.08C194.462 96.4 195.942 95.48 197.942 95.48C200.222 95.48 202.502 96.96 203.502 100.28C204.222 98.08 205.822 96.64 208.382 96.68C211.262 96.68 214.542 99.48 214.542 106.76V114ZM237.232 122.04H237.072L238.552 122.12L238.472 122.8L230.792 122.4L230.912 119.72C230.432 120.28 229.072 121.24 226.232 121.24C220.872 121.24 218.032 117.56 218.032 112.56C218.032 106.32 221.952 103.8 225.592 103.8C228.312 103.8 230.872 105.2 231.632 107.48L231.752 105.36C232.072 99.4 231.712 95.72 228.272 95.72C226.552 95.72 225.312 96.24 224.712 98C224.352 99.28 224.552 100.72 226.512 101.36L226.352 102.2L221.632 100.72H221.472V100.64C222.792 95.2 225.992 94.24 228.232 94.24C234.672 94.24 236.392 99.08 236.032 104.92C236.032 104.96 236.032 104.96 236.032 105L235.152 119.6C235.072 121.24 236.272 121.96 237.232 122.04ZM227.872 118.92C229.712 118.92 230.592 118.36 231.032 118L231.472 110.68C230.792 111.88 229.432 112.4 228.152 112.32C226.232 112.2 225.232 110.96 225.352 109.24C225.392 108.04 226.312 107.48 227.312 107.48C228.152 107.48 229.072 107.92 229.472 108.76C229.472 108.76 227.912 108.56 227.552 109.64C227.312 110.32 227.872 110.76 228.512 110.76C229.272 110.76 230.192 110.2 230.272 108.8C230.352 107.36 229.032 106.16 227.192 106.16C221.232 106.16 221.312 118.92 227.872 118.92ZM246.875 112.48C246.875 110.96 248.115 110.08 249.475 110.08C251.075 110.08 252.875 111.36 252.875 114.28C252.875 117.68 250.275 119.64 247.435 119.64C243.955 119.64 240.035 116.68 240.035 109.84V95.88L236.355 95.96L236.235 94.28L240.035 94.24V89L244.915 88.76V94.16L250.155 94.12L250.275 95.6L244.915 95.76V110.28C244.915 114.44 245.955 116.96 248.435 116.96C249.755 116.96 251.155 115.64 251.155 113.4C251.155 112.2 250.475 111.68 249.835 111.68C249.275 111.68 248.795 112.08 248.795 112.68C248.795 113.68 250.155 113.96 250.155 113.96C249.755 114.36 249.275 114.56 248.795 114.56C247.795 114.56 246.875 113.8 246.875 112.48ZM258.598 93.12C257.198 93.12 256.118 92 256.118 90.64C256.118 89.28 257.198 88.16 258.598 88.16C259.958 88.16 261.038 89.28 261.038 90.64C261.038 92 259.958 93.12 258.598 93.12ZM257.198 100.16C257.198 97.8 254.678 97.2 253.678 97.2L252.798 97.24V96.36L265.718 95.64V96.52L263.838 96.64C262.478 96.8 261.318 97.4 261.318 99.04V112.96C261.318 115.04 261.758 116.28 263.998 116.52L265.878 116.68V117.56L252.958 117.12V115.6L254.238 115.72C256.158 115.72 257.198 115.4 257.198 113.64V100.16ZM287.645 122.76C287.645 121.24 288.885 120.36 290.245 120.36C291.845 120.36 293.645 121.64 293.645 124.56C293.645 128.08 290.925 130.2 288.045 130.2C283.565 130.2 281.285 126.64 280.085 120.12L277.165 104.72L274.685 107.52V113C274.685 115.12 275.165 116.04 277.765 116.04V116.88L265.965 117.56V116.04H267.485C269.365 116.04 270.205 115.44 270.205 113.72V90.52C270.205 88.12 267.725 87.6 266.725 87.6H265.805V86.72H279.085V87.6H278.005C276.805 87.6 274.685 88.04 274.685 90.12V104.52L281.405 97.04C282.285 95.96 281.885 95.16 280.525 94.88L278.965 94.76L279.045 93.88L289.405 94.92L289.365 95.8L288.445 95.72H288.485C286.005 95.48 284.765 96.24 283.645 97.44L280.525 101L284.445 121.2C285.285 125.32 286.445 127.28 288.925 127.28C290.645 127.28 291.925 125.92 291.925 123.68C291.925 122.48 291.245 121.96 290.605 121.96C290.085 121.96 289.565 122.36 289.565 123C289.565 124 290.925 124.24 290.925 124.24C290.525 124.68 290.045 124.88 289.525 124.88C288.565 124.88 287.645 124.12 287.645 122.76ZM306.373 122.04H306.213L307.693 122.12L307.613 122.8L299.933 122.4L300.053 119.72C299.573 120.28 298.213 121.24 295.373 121.24C290.013 121.24 287.173 117.56 287.173 112.56C287.173 106.32 291.093 103.8 294.733 103.8C297.453 103.8 300.013 105.2 300.773 107.48L300.893 105.36C301.213 99.4 300.853 95.72 297.413 95.72C295.693 95.72 294.453 96.24 293.853 98C293.493 99.28 293.693 100.72 295.653 101.36L295.493 102.2L290.773 100.72H290.613V100.64C291.933 95.2 295.133 94.24 297.372 94.24C303.813 94.24 305.533 99.08 305.173 104.92C305.173 104.96 305.173 104.96 305.173 105L304.293 119.6C304.213 121.24 305.413 121.96 306.373 122.04ZM297.013 118.92C298.853 118.92 299.733 118.36 300.173 118L300.613 110.68C299.933 111.88 298.572 112.4 297.293 112.32C295.373 112.2 294.373 110.96 294.493 109.24C294.533 108.04 295.453 107.48 296.453 107.48C297.293 107.48 298.213 107.92 298.613 108.76C298.613 108.76 297.053 108.56 296.693 109.64C296.453 110.32 297.013 110.76 297.653 110.76C298.413 110.76 299.333 110.2 299.413 108.8C299.493 107.36 298.173 106.16 296.333 106.16C290.373 106.16 290.453 118.92 297.013 118.92Z" fill="#F5F5F5"/>
</g>
<defs>
<filter id="filter0_d_528_5908" x="101.498" y="86.72" width="210.195" height="51.48" filterUnits="userSpaceOnUse" color-interpolation-filters="sRGB">
<feFlood flood-opacity="0" result="BackgroundImageFix"/>
<feColorMatrix in="SourceAlpha" type="matrix" values="0 0 0 0 0 0 0 0 0 0 0 0 0 0 0 0 0 0 127 0" result="hardAlpha"/>
<feOffset dy="4"/>
<feGaussianBlur stdDeviation="2"/>
<feComposite in2="hardAlpha" operator="out"/>
<feColorMatrix type="matrix" values="0 0 0 0 0 0 0 0 0 0 0 0 0 0 0 0 0 0 0.25 0"/>
<feBlend mode="normal" in2="BackgroundImageFix" result="effect1_dropShadow_528_5908"/>
<feBlend mode="normal" in="SourceGraphic" in2="effect1_dropShadow_528_5908" result="shape"/>
</filter>
<linearGradient id="paint0_linear_528_5908" x1="75.37" y1="47.3243" x2="90.1195" y2="46.645" gradientUnits="userSpaceOnUse">
<stop stop-color="#B83D00"/>
<stop offset="0.25" stop-color="#E4790F"/>
<stop offset="0.56" stop-color="#FEE34D"/>
<stop offset="0.62" stop-color="#FAD444"/>
<stop offset="0.75" stop-color="#F1AF2E"/>
<stop offset="0.91" stop-color="#E4790F"/>
</linearGradient>
<linearGradient id="paint1_linear_528_5908" x1="97.3344" y1="54.1774" x2="68.8991" y2="51.531" gradientUnits="userSpaceOnUse">
<stop offset="0.06" stop-color="#E47B10"/>
<stop offset="0.14" stop-color="#E68417"/>
<stop offset="0.27" stop-color="#ED9D2B"/>
<stop offset="0.44" stop-color="#F8C74C"/>
<stop offset="0.53" stop-color="#FEDE5F"/>
<stop offset="0.61" stop-color="#F7C64C"/>
<stop offset="0.78" stop-color="#ED9D2B"/>
<stop offset="0.92" stop-color="#E68417"/>
<stop offset="1" stop-color="#E47B10"/>
</linearGradient>
<linearGradient id="paint2_linear_528_5908" x1="82.6885" y1="68.9081" x2="82.6821" y2="49.0843" gradientUnits="userSpaceOnUse">
<stop stop-color="#CF4B0B"/>
<stop offset="0.99" stop-color="#E8B321"/>
</linearGradient>
<linearGradient id="paint3_linear_528_5908" x1="93.5093" y1="64.4817" x2="73.5979" y2="62.6285" gradientUnits="userSpaceOnUse">
<stop offset="0.06" stop-color="#E47B10"/>
<stop offset="0.14" stop-color="#E68417"/>
<stop offset="0.27" stop-color="#ED9D2B"/>
<stop offset="0.44" stop-color="#F8C74C"/>
<stop offset="0.53" stop-color="#FEDE5F"/>
<stop offset="0.61" stop-color="#F7C64C"/>
<stop offset="0.78" stop-color="#ED9D2B"/>
<stop offset="0.92" stop-color="#E68417"/>
<stop offset="1" stop-color="#E47B10"/>
</linearGradient>
<linearGradient id="paint4_linear_528_5908" x1="338.071" y1="47.6354" x2="323.321" y2="46.9561" gradientUnits="userSpaceOnUse">
<stop offset="0.06" stop-color="#E47B10"/>
<stop offset="0.14" stop-color="#E68417"/>
<stop offset="0.27" stop-color="#ED9D2B"/>
<stop offset="0.44" stop-color="#F8C74C"/>
<stop offset="0.53" stop-color="#FEDE5F"/>
<stop offset="0.61" stop-color="#F7C64C"/>
<stop offset="0.78" stop-color="#ED9D2B"/>
<stop offset="0.92" stop-color="#E68417"/>
<stop offset="1" stop-color="#E47B10"/>
</linearGradient>
<linearGradient id="paint5_linear_528_5908" x1="316.188" y1="54.1358" x2="344.634" y2="51.4883" gradientUnits="userSpaceOnUse">
<stop offset="0.06" stop-color="#E47B10"/>
<stop offset="0.14" stop-color="#E68417"/>
<stop offset="0.27" stop-color="#ED9D2B"/>
<stop offset="0.44" stop-color="#F8C74C"/>
<stop offset="0.53" stop-color="#FEDE5F"/>
<stop offset="0.61" stop-color="#F7C64C"/>
<stop offset="0.78" stop-color="#ED9D2B"/>
<stop offset="0.92" stop-color="#E68417"/>
<stop offset="1" stop-color="#E47B10"/>
</linearGradient>
<linearGradient id="paint6_linear_528_5908" x1="330.832" y1="68.88" x2="330.838" y2="49.0659" gradientUnits="userSpaceOnUse">
<stop stop-color="#CF4B0B"/>
<stop offset="0.99" stop-color="#E8B321"/>
</linearGradient>
<linearGradient id="paint7_linear_528_5908" x1="320.025" y1="64.4489" x2="339.925" y2="62.5968" gradientUnits="userSpaceOnUse">
<stop offset="0.06" stop-color="#E47B10"/>
<stop offset="0.14" stop-color="#E68417"/>
<stop offset="0.27" stop-color="#ED9D2B"/>
<stop offset="0.44" stop-color="#F8C74C"/>
<stop offset="0.53" stop-color="#FEDE5F"/>
<stop offset="0.61" stop-color="#F7C64C"/>
<stop offset="0.78" stop-color="#ED9D2B"/>
<stop offset="0.92" stop-color="#E68417"/>
<stop offset="1" stop-color="#E47B10"/>
</linearGradient>
<linearGradient id="paint8_linear_528_5908" x1="345.781" y1="112.762" x2="66.5889" y2="112.762" gradientUnits="userSpaceOnUse">
<stop stop-color="#8A3D90"/>
<stop offset="0.47" stop-color="#D457D4"/>
<stop offset="1" stop-color="#C14FC1"/>
</linearGradient>
<linearGradient id="paint9_linear_528_5908" x1="306.257" y1="117.747" x2="347" y2="117.747" gradientUnits="userSpaceOnUse">
<stop stop-color="#FFA8A6"/>
<stop offset="1" stop-color="#8E1613"/>
</linearGradient>
<linearGradient id="paint10_linear_528_5908" x1="66.8268" y1="117.951" x2="106.872" y2="117.951" gradientUnits="userSpaceOnUse">
<stop stop-color="#8E1613"/>
<stop offset="1" stop-color="#FFA8A6"/>
</linearGradient>
<linearGradient id="paint11_linear_528_5908" x1="323.374" y1="155.091" x2="337.712" y2="155.091" gradientUnits="userSpaceOnUse">
<stop stop-color="#38C1C9"/>
<stop offset="0.37" stop-color="#7EFFF5"/>
<stop offset="0.68" stop-color="#4CC8CE"/>
<stop offset="1" stop-color="#399B97"/>
</linearGradient>
<linearGradient id="paint12_linear_528_5908" x1="319.465" y1="158.448" x2="339.343" y2="156.598" gradientUnits="userSpaceOnUse">
<stop offset="0.09" stop-color="#E4790F"/>
<stop offset="0.58" stop-color="#E4790F"/>
<stop offset="0.6" stop-color="#E2770E"/>
<stop offset="1" stop-color="#B83D00"/>
</linearGradient>
<linearGradient id="paint13_linear_528_5908" x1="314.86" y1="106.999" x2="346.734" y2="106.999" gradientUnits="userSpaceOnUse">
<stop stop-color="#8A3D90"/>
<stop offset="0.47" stop-color="#D457D4"/>
<stop offset="1" stop-color="#C14FC1"/>
</linearGradient>
<linearGradient id="paint14_linear_528_5908" x1="90.1876" y1="155.091" x2="75.8501" y2="155.091" gradientUnits="userSpaceOnUse">
<stop stop-color="#38C1C9"/>
<stop offset="0.37" stop-color="#7EFFF5"/>
<stop offset="0.68" stop-color="#4CC8CE"/>
<stop offset="1" stop-color="#399B97"/>
</linearGradient>
<linearGradient id="paint15_linear_528_5908" x1="94.0575" y1="158.49" x2="74.1792" y2="156.639" gradientUnits="userSpaceOnUse">
<stop offset="0.09" stop-color="#E4790F"/>
<stop offset="0.58" stop-color="#E4790F"/>
<stop offset="0.6" stop-color="#E2770E"/>
<stop offset="1" stop-color="#B83D00"/>
</linearGradient>
<linearGradient id="paint16_linear_528_5908" x1="98.7014" y1="106.999" x2="66.8268" y2="106.999" gradientUnits="userSpaceOnUse">
<stop stop-color="#8A3D90"/>
<stop offset="0.47" stop-color="#D457D4"/>
<stop offset="1" stop-color="#C14FC1"/>
</linearGradient>
<linearGradient id="paint17_linear_528_5908" x1="314.675" y1="162.243" x2="343.121" y2="159.595" gradientUnits="userSpaceOnUse">
<stop offset="0.09" stop-color="#E4790F"/>
<stop offset="0.25" stop-color="#F1AF2E"/>
<stop offset="0.38" stop-color="#FAD444"/>
<stop offset="0.44" stop-color="#FEE34D"/>
<stop offset="0.75" stop-color="#E2770E"/>
<stop offset="1" stop-color="#B83D00"/>
</linearGradient>
<linearGradient id="paint18_linear_528_5908" x1="329.326" y1="176.99" x2="329.323" y2="157.166" gradientUnits="userSpaceOnUse">
<stop stop-color="#CF4B0B"/>
<stop offset="0.99" stop-color="#E8B321"/>
</linearGradient>
<linearGradient id="paint19_linear_528_5908" x1="336.437" y1="177.734" x2="321.688" y2="177.055" gradientUnits="userSpaceOnUse">
<stop stop-color="#B83D00"/>
<stop offset="0.25" stop-color="#E4790F"/>
<stop offset="0.56" stop-color="#FEE34D"/>
<stop offset="0.62" stop-color="#FAD444"/>
<stop offset="0.75" stop-color="#F1AF2E"/>
<stop offset="0.91" stop-color="#E4790F"/>
</linearGradient>
<linearGradient id="paint20_linear_528_5908" x1="330.17" y1="190.191" x2="330.125" y2="182.731" gradientUnits="userSpaceOnUse">
<stop stop-color="#CF4B0B"/>
<stop offset="0.99" stop-color="#E8B321"/>
</linearGradient>
<linearGradient id="paint21_linear_528_5908" x1="98.8488" y1="162.275" x2="70.4135" y2="159.628" gradientUnits="userSpaceOnUse">
<stop offset="0.09" stop-color="#E4790F"/>
<stop offset="0.25" stop-color="#F1AF2E"/>
<stop offset="0.38" stop-color="#FAD444"/>
<stop offset="0.44" stop-color="#FEE34D"/>
<stop offset="0.75" stop-color="#E2770E"/>
<stop offset="1" stop-color="#B83D00"/>
</linearGradient>
<linearGradient id="paint22_linear_528_5908" x1="84.1951" y1="177.009" x2="84.1973" y2="157.195" gradientUnits="userSpaceOnUse">
<stop stop-color="#CF4B0B"/>
<stop offset="0.99" stop-color="#E8B321"/>
</linearGradient>
<linearGradient id="paint23_linear_528_5908" x1="77.0053" y1="177.432" x2="91.7657" y2="176.751" gradientUnits="userSpaceOnUse">
<stop stop-color="#B83D00"/>
<stop offset="0.25" stop-color="#E4790F"/>
<stop offset="0.56" stop-color="#FEE34D"/>
<stop offset="0.62" stop-color="#FAD444"/>
<stop offset="0.75" stop-color="#F1AF2E"/>
<stop offset="0.91" stop-color="#E4790F"/>
</linearGradient>
<linearGradient id="paint24_linear_528_5908" x1="83.4141" y1="190.106" x2="83.4592" y2="182.645" gradientUnits="userSpaceOnUse">
<stop stop-color="#CF4B0B"/>
<stop offset="0.99" stop-color="#E8B321"/>
</linearGradient>
<radialGradient id="paint25_radial_528_5908" cx="0" cy="0" r="1" gradientUnits="userSpaceOnUse" gradientTransform="translate(182.273 135.899) scale(140.172 88.0025)">
<stop stop-color="#C700FF"/>
<stop offset="1" stop-color="#770099" stop-opacity="0"/>
</radialGradient>
<radialGradient id="paint26_radial_528_5908" cx="0" cy="0" r="1" gradientUnits="userSpaceOnUse" gradientTransform="translate(168.936 106.05) scale(140.172 88.0025)">
<stop stop-color="#C700FF"/>
<stop offset="1" stop-color="#770099" stop-opacity="0"/>
</radialGradient>
<radialGradient id="paint27_radial_528_5908" cx="0" cy="0" r="1" gradientUnits="userSpaceOnUse" gradientTransform="translate(243.075 122.643) scale(140.172 88.0025)">
<stop stop-color="#C700FF"/>
<stop offset="1" stop-color="#770099" stop-opacity="0"/>
</radialGradient>
</defs>
</svg>
