<svg width="499" height="406" viewBox="0 0 499 406" fill="none" xmlns="http://www.w3.org/2000/svg">
<path style="mix-blend-mode:screen" opacity="0.42" d="M158.257 348.596C158.257 348.596 200.552 341.272 184.81 304.106C169.067 266.94 44.1884 261.86 48.1169 228.074C52.0453 194.287 124.822 188.096 222.173 193.152C319.524 198.232 398.208 189.774 377.562 166.123C356.916 142.472 207.434 139.66 172.021 144.15C136.608 148.662 178.903 150.907 178.903 150.907C178.903 150.907 71.7163 164.776 41.2349 142.354C10.7535 119.932 94.3408 115.419 149.396 119.932C204.481 124.445 315.596 118.798 315.596 103.038C315.596 87.2789 287.065 65.3056 248.726 74.8746C210.359 84.4436 165.139 82.7661 161.211 68.1172C157.282 53.4684 182.831 47.8451 221.198 53.4684C259.565 59.0916 293.975 27.0059 265.444 20.8156C265.444 20.8156 289.789 22.564 293.459 36.7167C297.158 50.8694 244.052 61.5489 211.592 56.9888C179.132 52.4288 183.577 71.9921 264.698 66.6996C345.819 61.4307 384.559 71.9685 394.509 81.9155C404.459 91.839 382.695 115.702 329.618 120.995C276.512 126.264 314.879 129.855 381.606 130.918C448.361 131.982 507.345 159.862 494.097 174.629C480.821 189.419 372.028 210.944 378.681 242.415C378.681 242.415 347.712 213.472 296.814 218.977C245.916 224.459 214.202 241.777 228.969 255.292C243.708 268.807 326.693 231.216 350.665 261.411C350.665 261.411 326.32 247.259 309.001 262.475C291.681 277.691 285.774 280.431 252.569 275.989C219.392 271.548 210.904 294.159 251.106 299.428C291.308 304.697 304.212 313.58 285.774 318.637C267.336 323.716 207.234 323.291 209.442 351.786C211.65 380.304 156.422 383.99 156.422 383.99C156.422 383.99 141.74 379.926 177.871 358.378C214.001 336.83 158.314 348.549 158.314 348.549L158.257 348.596Z" fill="url(#paint0_linear_531_24733)"/>
<path style="mix-blend-mode:screen" opacity="0.71" d="M249.5 405.301C387.295 405.301 499 314.571 499 202.651C499 90.7298 387.295 0 249.5 0C111.705 0 0 90.7298 0 202.651C0 314.571 111.705 405.301 249.5 405.301Z" fill="url(#paint1_radial_531_24733)"/>
<g clip-path="url(#clip0_531_24733)">
<path d="M93.9928 109.56C93.9928 109.56 124.551 113.84 124.745 114.52C124.939 115.2 128.68 134.57 131.146 137.65C133.623 140.73 126.142 143.81 126.142 143.81L92.6689 115.72L94.0049 109.56H93.9928Z" fill="#FFC59F"/>
<path d="M132.409 117.84C132.409 117.84 134.765 115.87 135.239 115.82C135.713 115.77 138.858 116.37 138.858 116.37C138.858 116.37 140.377 127.15 141.81 129.16C143.231 131.17 136.867 131.46 136.867 131.46L132.421 117.84H132.409Z" fill="#FFC59F"/>
<path d="M141.798 118.74C141.798 118.74 144.154 116.8 144.822 116.76C145.49 116.72 189.432 119.79 217.84 120.21C246.248 120.63 284.676 119.17 285.308 120.11C285.94 121.05 288.357 144.33 294.563 151.85C300.781 159.37 285.174 163.96 285.174 163.96L141.798 118.75V118.74Z" fill="#FFC59F"/>
<path d="M298.498 123.11C298.498 123.11 301.85 118.95 302.895 119.03C303.939 119.11 358.339 116.6 389.346 113.31C420.353 110.02 437.284 106.26 437.284 106.26L436.142 116.44L298.498 123.1V123.11Z" fill="#FFC59F"/>
<path d="M174.092 282.13C174.092 282.13 176.534 281.21 177.153 279.49C177.772 277.77 177.578 269.98 177.578 269.98L169.016 270.61L174.08 282.14L174.092 282.13Z" fill="#FFC59F"/>
<path d="M327.647 282.93C327.647 282.93 330.003 282.15 331.047 280.51C332.092 278.87 333.428 267.2 333.428 267.2L326.056 265.52L327.647 282.94V282.93Z" fill="#FFC59F"/>
<path d="M352.011 285.18C352.011 285.18 356.152 285.12 358.144 282.23C360.136 279.33 366.707 263.2 366.707 263.2L358.241 260.22L352.011 285.18Z" fill="#FFC59F"/>
<path d="M174.092 282.13C174.092 282.13 176.534 281.21 177.153 279.49C177.772 277.77 177.578 269.98 177.578 269.98L169.016 270.61L174.08 282.14L174.092 282.13Z" fill="#DB6345"/>
<path d="M327.647 282.93C327.647 282.93 330.003 282.15 331.047 280.51C332.092 278.87 333.428 267.2 333.428 267.2L326.056 265.52L327.647 282.94V282.93Z" fill="#DB6345"/>
<path d="M352.011 285.18C352.011 285.18 356.152 285.12 358.144 282.23C360.136 279.33 366.707 263.2 366.707 263.2L358.241 260.22L352.011 285.18Z" fill="#DB6345"/>
<path d="M450.777 108.3L445.457 162.18L435.728 295.2C435.728 295.2 410.612 291.56 375.73 287.69C370.86 287.14 365.795 286.6 360.573 286.05C361.131 281.26 361.593 275.27 361.641 271.08C361.702 267.64 361.471 265.41 360.791 266.01C360.245 266.5 359.188 268.5 357.913 271.24C356.127 275.11 353.893 280.47 351.986 285.17C346.156 284.6 340.168 284.02 334.096 283.48C333.391 279.68 332.419 274.93 331.569 272.27C331.193 271.08 330.828 270.31 330.525 270.24C330.185 270.16 329.82 271 329.444 272.34C328.752 274.91 328.047 279.34 327.61 282.91C301.206 280.65 273.417 278.89 248.483 278.59C226.038 278.33 203.01 279.55 181.549 281.43C179.8 278.8 177.687 275.79 176.363 274.47C175.695 273.79 175.234 273.55 175.124 274C175.088 274.11 175.051 274.26 175.027 274.43C174.748 275.86 174.359 279.09 174.055 282.12C157.076 283.76 141.263 285.77 127.769 287.71C100.94 291.57 83.147 295.19 83.147 295.19L69.2041 109.56C69.2041 109.56 87.7987 113.01 119.863 116.53C120.555 116.61 121.259 116.68 121.964 116.76C122.814 120.99 124.964 131.27 126.53 136.53C127.296 139.13 127.927 140.51 128.17 139.31C128.328 138.56 128.583 137.28 128.899 135.7C129.895 130.67 131.486 122.51 132.397 117.84C133.514 117.95 134.644 118.07 135.785 118.18C136.077 122.4 136.793 131.85 138.312 130.02C139.599 128.46 141.02 122.43 141.785 118.74C171.335 121.42 208.585 123.71 251.045 123.96C260.859 124.02 270.66 123.91 280.34 123.69C280.583 124.9 280.838 126.25 281.142 127.68C283.729 140.43 288.234 160.47 290.36 156.22C292.34 152.28 295.51 137.79 297.465 128.17C297.866 126.24 298.206 124.51 298.485 123.1C338.31 121.51 375.171 118.01 402.656 114.8C432.097 111.37 450.777 108.29 450.777 108.29V108.3Z" fill="url(#paint2_linear_531_24733)"/>
<path style="mix-blend-mode:multiply" opacity="0.5" d="M127.806 287.72C100.977 291.58 83.1835 295.2 83.1835 295.2L69.2041 109.56C69.2041 109.56 87.7987 113.01 119.863 116.53C112.442 138.05 105.895 170.23 110.037 211.99C114.045 252.39 121.381 275.09 127.794 287.72H127.806Z" fill="url(#paint3_linear_531_24733)"/>
<path style="mix-blend-mode:multiply" opacity="0.5" d="M450.777 108.3L445.457 162.18L435.729 295.2C435.729 295.2 410.612 291.56 375.73 287.69C384.912 269.48 398.151 236.8 403.228 192.36C406.981 159.55 405.414 133.42 402.657 114.82C432.097 111.39 450.777 108.31 450.777 108.31V108.3Z" fill="url(#paint4_linear_531_24733)"/>
<path d="M47.5244 108.3C47.5244 108.3 47.8402 104.85 69.5319 104.02C91.2115 103.18 94.7093 107.36 94.7093 107.36L80.9486 117.17L57.1071 116.7L47.5366 108.29L47.5244 108.3Z" fill="#872316"/>
<path d="M88.1752 349.21C88.1752 349.21 81.7138 349.86 81.0701 348.16C80.4264 346.45 83.0012 325.28 83.0012 325.28L88.1752 349.22V349.21Z" fill="#FC6212"/>
<path d="M91.831 317.53C91.8918 317.61 91.9525 317.7 92.0132 317.76C92.0739 317.84 92.1104 317.91 92.1347 317.97C92.1954 318.05 92.2318 318.12 92.2561 318.18C92.2926 318.27 92.3168 318.33 92.3533 318.42V318.44C94.248 323.02 96.3127 340.57 96.0941 346.81C96.0698 346.86 96.0698 346.88 96.0819 346.92C95.9848 349.37 84.7503 349.83 81.969 348.49C81.6046 348.31 81.3738 348.08 81.3495 347.84C81.058 344.25 83.1835 319.69 83.9122 318.18C84.7867 316.37 90.58 316.41 91.8189 317.53H91.831Z" fill="url(#paint5_linear_531_24733)"/>
<g style="mix-blend-mode:multiply" opacity="0.8">
<path d="M87.2519 315.74C89.8389 315.64 91.1749 316.73 91.8307 317.53C91.8915 317.61 91.9522 317.7 92.0129 317.76C92.0736 317.84 92.1101 317.91 92.1344 317.97C92.1951 318.05 92.2315 318.12 92.2558 318.18C92.3165 318.33 92.353 318.42 92.353 318.42V318.44C94.2477 323.02 96.3124 340.57 96.0938 346.81C96.0938 346.81 92.7416 338.06 91.9522 329.99C91.1384 321.9 92.0251 318.68 90.8955 317.88C89.766 317.08 84.9929 316.95 83.9241 318.18C83.4382 318.73 83.0982 315.87 87.2519 315.73V315.74Z" fill="#D42F55"/>
</g>
<g style="mix-blend-mode:soft-light" opacity="0.5">
<path d="M89.5232 347.64C89.3775 348.08 83.6934 348.97 83.0618 347.66C82.4303 346.35 83.5841 319.24 85.0051 318.49C86.4261 317.74 90.6649 344.03 89.5111 347.64H89.5232Z" fill="white"/>
</g>
<path d="M87.1797 326.78C94.1147 326.38 100.855 325.41 106.297 324.37C110.195 323.63 113.438 322.86 115.709 322.2C117.847 321.6 119.122 321.09 119.231 320.84C119.729 319.71 119.486 312.77 119.28 308.23C119.171 305.9 119.061 304.22 119.061 304.22L112.819 304.39L109.43 304.47L55.5166 305.89C55.5166 305.89 57.7271 321.89 58.2615 322.68C58.6015 323.19 69.2045 326.57 81.6292 326.87H81.6535C83.4753 326.92 85.285 326.89 87.1554 326.79L87.1797 326.78Z" fill="url(#paint6_linear_531_24733)"/>
<g style="mix-blend-mode:multiply" opacity="0.8">
<path d="M106.297 324.36C113.827 322.93 119.013 321.35 119.231 320.83C119.972 319.14 119.061 304.21 119.061 304.21L113.754 306.09C107.353 307.19 98.2563 309.54 97.6854 312.53C96.0458 321.1 98.3656 323.72 99.155 324.42C100.054 325.22 102.629 324.8 106.284 324.36H106.297Z" fill="#D42F55"/>
</g>
<path d="M90.6168 310.25C108.155 308.67 119.705 306.45 119.061 304.22C118.576 302.44 114.774 299.75 106.224 298.17C101.39 297.27 95.0498 296.74 86.8881 296.94C85.6857 296.96 84.4348 297.01 83.1595 297.08C57.8849 298.36 55.9659 304.07 55.5287 305.88C55.055 307.67 73.0788 311.82 90.6168 310.24V310.25Z" fill="#FF7A00"/>
<g style="mix-blend-mode:soft-light" opacity="0.5">
<path d="M117.057 304.14C118.927 302.82 107.195 296.43 88.6367 298.28C70.0786 300.12 68.8519 306.97 70.2607 307.81C71.6696 308.65 106.527 311.59 117.057 304.14Z" fill="white"/>
</g>
<path d="M74.8154 312.27C74.3296 311.54 66.5444 309.12 65.4149 310.71C64.2854 312.3 65.0141 323.69 66.1072 324.24C67.1881 324.79 74.0746 325.88 74.2932 324.95C74.5118 324.02 75.3377 313.04 74.8276 312.27H74.8154Z" fill="#FF6500"/>
<path d="M57.3022 307.15C57.0836 306.92 63.2656 308.38 69.8241 309.21C77.1842 310.15 84.9816 310.5 84.18 310.57C72.654 311.71 58.2131 308.1 57.29 307.14L57.3022 307.15Z" fill="#FFA457"/>
<g style="mix-blend-mode:multiply" opacity="0.5">
<path d="M115.721 322.2C117.859 321.6 119.134 321.09 119.243 320.84C119.741 319.71 119.499 312.77 119.292 308.23C112.819 308.17 102.677 308.88 101.827 313.9C101.013 318.72 108.859 321.24 115.721 322.2Z" fill="#D42F55"/>
</g>
<path d="M102.677 301.78C102.385 308.72 69.5927 308.48 69.4591 302.2C69.4348 301.05 69.3984 299.82 69.3741 298.53C69.3741 297.62 69.3498 296.67 69.3377 295.68C69.0098 274.33 68.9247 237 66.2042 205.07C64.018 179.39 57.9331 130.66 55.0911 108.51C54.2774 102.1 53.7187 97.91 53.6094 97.13C53.6094 97.04 53.6094 97 53.6094 97L84.4952 95.3C84.4952 95.3 84.4952 95.35 84.4952 95.43C84.4466 97.3 83.9851 118.49 84.9081 148.96C85.3818 165.12 85.7097 183.95 87.8473 203.77C89.3655 217.88 91.1994 231.47 93.0577 243.82C96.8349 269.05 100.685 289.07 102.118 297.53C102.519 299.86 102.738 301.32 102.713 301.77L102.677 301.78Z" fill="url(#paint7_linear_531_24733)"/>
<g style="mix-blend-mode:multiply" opacity="0.8">
<path d="M53.5977 97.13L84.4592 95.43C84.4227 97.3 83.949 118.49 84.8721 148.95C81.8843 131.52 77.6334 113.01 73.9048 112.9C68.7673 112.74 60.5691 110.49 55.0915 108.5C54.2778 102.1 53.7313 97.91 53.6098 97.12L53.5977 97.13Z" fill="#D42F55"/>
</g>
<path d="M62.9006 50.14C62.9006 50.14 56.3907 50.2 56.0384 51.96C55.6862 53.72 61.6496 74.43 61.6496 74.43L62.9006 50.14Z" fill="#FC6212"/>
<path d="M68.0875 104.13C75.0225 103.73 81.7632 102.76 87.2043 101.72C91.103 100.98 94.3459 100.21 96.617 99.5499C98.7546 98.9499 100.03 98.4399 100.139 98.1899C100.637 97.0599 100.394 90.1199 100.188 85.5799C100.078 83.2499 99.9692 81.5699 99.9692 81.5699L93.7264 81.7399L90.3379 81.8199L36.4365 83.2299C36.4365 83.2299 38.647 99.2299 39.1814 100.02C39.5215 100.53 50.1244 103.91 62.5492 104.21H62.5735C64.3953 104.26 66.2049 104.23 68.0753 104.13H68.0875Z" fill="url(#paint8_linear_531_24733)"/>
<g style="mix-blend-mode:multiply" opacity="0.8">
<path d="M87.2164 101.71C94.7466 100.28 99.9327 98.7 100.151 98.18C100.892 96.49 99.9813 81.56 99.9813 81.56L94.6737 83.44C88.2731 84.54 79.1762 86.89 78.6053 89.88C76.9657 98.45 79.2855 101.07 80.0749 101.77C80.9737 102.57 83.5485 102.15 87.2043 101.71H87.2164Z" fill="#D42F55"/>
</g>
<path d="M71.5361 87.59C89.0741 86.01 100.624 83.79 99.9807 81.56C99.4949 79.78 95.6934 77.09 87.143 75.51C82.3091 74.61 75.9692 74.08 67.8075 74.28C66.6051 74.3 65.3541 74.35 64.0789 74.42C38.8043 75.71 36.8853 81.42 36.4359 83.23C35.9622 85.02 53.986 89.17 71.524 87.59H71.5361Z" fill="#FF7A00"/>
<g style="mix-blend-mode:multiply" opacity="0.5">
<path d="M87.1431 75.51C82.3092 74.61 75.9693 74.08 67.8076 74.28C68.2691 77.36 69.2529 80.84 71.1719 81.16C73.3702 81.55 81.5198 78.26 87.1431 75.51Z" fill="#D42F55"/>
</g>
<g style="mix-blend-mode:soft-light" opacity="0.5">
<path d="M97.9769 81.49C99.8473 80.17 88.1149 73.78 69.5567 75.63C50.9985 77.47 49.7718 84.32 51.1807 85.16C52.5895 86 87.4469 88.94 97.9769 81.49Z" fill="white"/>
</g>
<path d="M71.6218 81.14C71.6704 81.05 71.719 80.96 71.7675 80.89C71.8161 80.8 71.8404 80.73 71.8526 80.67C71.9011 80.58 71.9254 80.51 71.9376 80.45C71.9619 80.36 71.974 80.29 71.9983 80.2V80.18C73.14 75.43 72.3505 57.81 71.1238 51.65C71.0995 51.61 71.0874 51.59 71.0874 51.54C70.6016 49.13 59.3792 49.9 56.8408 51.54C56.5129 51.76 56.3186 52.01 56.3429 52.25C56.6343 55.84 62.7071 79.95 63.6665 81.37C64.8204 83.07 70.5651 82.4 71.6096 81.15L71.6218 81.14Z" fill="url(#paint9_linear_531_24733)"/>
<g style="mix-blend-mode:multiply" opacity="0.8">
<path d="M63.8723 53.67C67.103 53.29 70.1636 52.58 71.1353 51.64C71.111 51.6 71.0988 51.58 71.0988 51.53C70.613 49.12 59.3906 49.89 56.8522 51.53C56.7065 51.71 56.6701 51.89 56.7065 52.07C56.9616 52.89 59.3421 54.19 63.8601 53.68L63.8723 53.67Z" fill="#D42F55"/>
</g>
<g style="mix-blend-mode:multiply" opacity="0.8">
<path d="M67.3707 83.42C69.9456 83.23 71.0994 82 71.6216 81.14C71.6702 81.05 71.7188 80.96 71.7674 80.89C71.816 80.8 71.8402 80.73 71.8524 80.67C71.901 80.58 71.9253 80.51 71.9374 80.45C71.9738 80.29 71.9981 80.2 71.9981 80.2V80.18C73.1398 75.43 72.3504 57.81 71.1237 51.65C71.1237 51.65 69.2168 60.69 69.7269 68.78C70.2249 76.89 71.6216 79.98 70.6257 80.9C69.6298 81.81 64.9295 82.47 63.6664 81.37C63.0955 80.87 63.217 83.75 67.3586 83.43L67.3707 83.42Z" fill="#D42F55"/>
</g>
<g style="mix-blend-mode:multiply" opacity="0.8">
<path d="M70.4311 51.29C70.5282 50.76 62.6094 48.94 59.8646 51.01C57.1197 53.08 70.1274 53.03 70.4311 51.29Z" fill="#D42F55"/>
</g>
<g style="mix-blend-mode:soft-light" opacity="0.5">
<path d="M65.1599 54.79C64.9534 54.37 59.1722 54.11 58.7592 55.48C58.3463 56.85 63.1923 80.35 64.7226 80.94C66.253 81.53 66.8967 58.24 65.1599 54.79Z" fill="white"/>
</g>
<path d="M57.7875 53C57.7875 53 58.2248 53.82 60.4717 53.93C62.1842 54.02 62.9129 53.76 62.9129 53.76C62.9129 53.76 62.6093 53.75 60.3867 53.61C59.5365 53.56 58.0304 52.83 57.7754 53H57.7875Z" fill="#FFA457"/>
<path d="M55.7353 89.62C55.2495 88.89 47.4643 86.47 46.3348 88.06C45.2053 89.65 45.934 101.04 47.0271 101.59C48.108 102.14 54.9945 103.23 55.2131 102.3C55.4317 101.37 56.2576 90.39 55.7475 89.62H55.7353Z" fill="#FF6500"/>
<path d="M38.2094 84.5C37.9908 84.27 44.1728 85.73 50.7313 86.56C58.0915 87.5 65.8888 87.85 65.0872 87.93C53.5612 89.07 39.1203 85.46 38.1973 84.5H38.2094Z" fill="#FFA457"/>
<g style="mix-blend-mode:multiply" opacity="0.5">
<path d="M96.6285 99.54C98.7661 98.94 100.041 98.43 100.151 98.18C100.649 97.05 100.406 90.11 100.199 85.57C93.7258 85.51 83.5844 86.22 82.7342 91.24C81.9204 96.06 89.7664 98.58 96.6285 99.54Z" fill="#D42F55"/>
</g>
<g style="mix-blend-mode:multiply" opacity="0.8">
<path d="M92.6692 242.16C92.6327 241.87 92.6084 241.69 92.6084 241.6C92.6449 241.75 92.7058 242.17 92.7788 242.84C92.7179 242.59 92.6814 242.36 92.6692 242.16Z" fill="#D42F55"/>
</g>
<g style="mix-blend-mode:multiply" opacity="0.8">
<path d="M108.871 298.72C108.871 298.72 108.798 298.75 108.774 298.75C102.494 299.38 104.389 300.94 104.498 301.57C104.596 302.2 104.778 306.9 85.9524 307.68C67.1149 308.46 67.2121 302.51 65.5967 300.94C64.9287 300.28 63.0948 300.4 61.1758 300.78C63.1433 299.95 65.791 299.17 69.3861 298.52C69.3861 297.61 69.3618 296.66 69.3496 295.67C69.8233 296.68 70.4427 297.53 71.1715 298.22C75.1309 301.98 82.4667 301.02 90.3855 297.81C90.847 297.62 91.2478 297.32 91.6243 296.91C98.1828 289.79 93.7862 250.59 92.7781 242.86C92.851 243.15 92.9117 243.47 93.0211 243.83C96.7983 269.06 100.648 289.08 102.082 297.54C103.575 297.72 104.96 297.93 106.235 298.17C107.17 298.34 108.045 298.53 108.871 298.72Z" fill="#D42F55"/>
</g>
<path d="M101.632 257.42C98.7296 236.15 95.6568 209.55 95.4625 190.99C95.2317 169.44 95.001 143.45 94.8552 126.23C94.758 115.42 94.7095 108.06 94.6973 107.41V107.36C94.6973 107.36 85.7583 111.44 70.1636 112.06C68.9855 112.11 66.605 113.7 66.4957 114.7C65.9248 120.12 64.8925 128.71 63.9451 130.11C62.8885 131.64 61.2003 120.35 60.3744 114.28C60.2286 113.18 60.095 112.25 60.0222 111.6C52.3706 110.59 47.731 108.4 47.5488 108.31V108.39C47.5488 108.46 47.5488 108.52 47.5488 108.59L61.9897 293.12C61.9897 293.12 59.8036 299.53 88.6489 298.29C106.879 297.51 106.879 292.18 106.879 292.18C106.879 292.18 104.329 277.08 101.645 257.43L101.632 257.42Z" fill="url(#paint10_linear_531_24733)"/>
<path d="M63.7507 111.51C63.7142 111.25 51.9939 109.85 52.2125 107.96C52.2854 107.3 53.2813 106.7 54.7995 106.23C54.7145 105.62 54.6538 105.04 54.5688 104.48C51.7875 105.27 48.0588 106.59 47.5851 108.05C47.5609 108.13 47.5366 108.22 47.5244 108.3V108.38C47.5244 108.45 47.5244 108.51 47.5244 108.58C47.8159 110.42 52.164 113.21 60.3378 114.27C60.2407 113.59 61.4673 129.79 63.6778 130.25C63.7993 130.28 63.7628 111.76 63.7264 111.51H63.7507ZM84.3372 103.12C84.3372 103.76 84.3372 104.43 84.3372 105.13C87.3978 105.99 88.831 106.77 88.8067 107.18C88.7459 108.01 82.6854 110.62 70.7343 111.2C69.3619 111.27 66.6049 113.7 66.4956 114.7C67.8437 114.72 69.2404 114.7 70.7343 114.62C86.5355 113.86 94.4664 108.58 94.6972 107.4C94.6972 107.38 94.6972 107.37 94.6972 107.36C94.7458 106.65 90.1912 104.2 84.3372 103.11V103.12Z" fill="#FFC59F"/>
<path d="M467.586 108.3C467.586 108.3 467.27 104.85 445.579 104.02C423.887 103.19 420.401 107.36 420.401 107.36L434.162 117.17L458.004 116.7L467.574 108.29L467.586 108.3Z" fill="#872316"/>
<path d="M426.936 349.21C426.936 349.21 433.397 349.86 434.041 348.16C434.684 346.45 432.11 325.28 432.11 325.28L426.936 349.22V349.21Z" fill="#FC6212"/>
<path d="M423.28 317.53C423.219 317.61 423.159 317.7 423.098 317.76C423.037 317.84 423.001 317.91 422.976 317.97C422.916 318.05 422.879 318.12 422.855 318.18C422.818 318.27 422.794 318.33 422.758 318.42V318.44C420.863 323.02 418.798 340.57 419.017 346.81C419.041 346.86 419.041 346.88 419.029 346.92C419.126 349.37 430.361 349.83 433.142 348.49C433.506 348.31 433.737 348.08 433.762 347.84C434.053 344.25 431.928 319.69 431.199 318.18C430.324 316.37 424.531 316.41 423.292 317.53H423.28Z" fill="url(#paint11_linear_531_24733)"/>
<g style="mix-blend-mode:multiply" opacity="0.8">
<path d="M427.859 315.74C425.272 315.64 423.936 316.73 423.28 317.53C423.219 317.61 423.159 317.7 423.098 317.76C423.037 317.84 423.001 317.91 422.976 317.97C422.916 318.05 422.879 318.12 422.855 318.18C422.794 318.33 422.758 318.42 422.758 318.42V318.44C420.863 323.02 418.798 340.57 419.017 346.81C419.017 346.81 422.369 338.06 423.159 329.99C423.972 321.9 423.086 318.68 424.215 317.88C425.345 317.08 430.118 316.95 431.187 318.18C431.672 318.73 432.013 315.87 427.859 315.73V315.74Z" fill="#D42F55"/>
</g>
<g style="mix-blend-mode:soft-light" opacity="0.5">
<path d="M425.587 347.64C425.733 348.08 431.417 348.97 432.049 347.66C432.68 346.35 431.526 319.24 430.105 318.49C428.684 317.74 424.433 344.03 425.599 347.64H425.587Z" fill="white"/>
</g>
<path d="M427.932 326.78C420.997 326.38 414.256 325.41 408.815 324.37C404.916 323.63 401.674 322.86 399.402 322.2C397.265 321.6 395.989 321.09 395.88 320.84C395.382 319.71 395.625 312.77 395.832 308.23C395.941 305.9 396.05 304.22 396.05 304.22L402.293 304.39L405.681 304.47L459.595 305.89C459.595 305.89 457.385 321.89 456.85 322.68C456.51 323.19 445.907 326.57 433.482 326.87H433.458C431.636 326.92 429.827 326.89 427.956 326.79L427.932 326.78Z" fill="url(#paint12_linear_531_24733)"/>
<g style="mix-blend-mode:multiply" opacity="0.8">
<path d="M408.802 324.36C401.272 322.93 396.086 321.35 395.867 320.83C395.127 319.14 396.037 304.21 396.037 304.21L401.345 306.09C407.746 307.19 416.843 309.54 417.413 312.53C419.053 321.1 416.733 323.72 415.944 324.42C415.045 325.22 412.47 324.8 408.814 324.36H408.802Z" fill="#D42F55"/>
</g>
<path d="M424.482 310.25C406.944 308.67 395.394 306.45 396.037 304.22C396.523 302.44 400.325 299.75 408.875 298.17C413.709 297.27 420.049 296.74 428.211 296.94C429.413 296.96 430.664 297.01 431.939 297.08C457.214 298.36 459.133 304.07 459.57 305.88C460.044 307.67 442.02 311.82 424.482 310.24V310.25Z" fill="#FF7A00"/>
<g style="mix-blend-mode:soft-light" opacity="0.5">
<path d="M398.042 304.14C396.171 302.82 407.904 296.43 426.462 298.28C445.02 300.12 446.247 306.97 444.838 307.81C443.429 308.65 408.572 311.59 398.042 304.14Z" fill="white"/>
</g>
<path d="M440.283 312.27C440.769 311.54 448.554 309.12 449.684 310.71C450.813 312.3 450.084 323.69 448.991 324.24C447.91 324.79 441.024 325.88 440.805 324.95C440.587 324.02 439.773 313.04 440.271 312.27H440.283Z" fill="#FF6500"/>
<path d="M457.809 307.15C458.027 306.92 451.845 308.38 445.287 309.21C437.927 310.15 430.129 310.5 430.931 310.57C442.457 311.71 456.898 308.1 457.821 307.14L457.809 307.15Z" fill="#FFA457"/>
<g style="mix-blend-mode:multiply" opacity="0.5">
<path d="M399.39 322.2C397.252 321.6 395.977 321.09 395.867 320.84C395.37 319.71 395.612 312.77 395.819 308.23C402.292 308.17 412.434 308.88 413.284 313.9C414.098 318.72 406.252 321.24 399.39 322.2Z" fill="#D42F55"/>
</g>
<path d="M412.434 301.78C412.725 308.72 445.518 308.48 445.651 302.2C445.676 301.05 445.712 299.82 445.737 298.53C445.737 297.62 445.761 296.67 445.773 295.68C446.101 274.33 446.186 237 448.906 205.07C451.093 179.39 457.178 130.66 460.02 108.51C460.833 102.1 461.392 97.91 461.501 97.13C461.501 97.04 461.501 97 461.501 97L430.615 95.3C430.615 95.3 430.615 95.35 430.615 95.43C430.664 97.3 431.126 118.49 430.203 148.96C429.729 165.12 429.401 183.95 427.263 203.77C425.745 217.88 423.911 231.47 422.053 243.82C418.276 269.05 414.426 289.07 412.992 297.53C412.592 299.86 412.373 301.32 412.397 301.77L412.434 301.78Z" fill="url(#paint13_linear_531_24733)"/>
<g style="mix-blend-mode:multiply" opacity="0.8">
<path d="M461.501 97.13L430.64 95.43C430.676 97.3 431.15 118.49 430.227 148.95C433.214 131.52 437.465 113.01 441.194 112.9C446.331 112.74 454.53 110.49 460.007 108.5C460.821 102.1 461.367 97.91 461.489 97.12L461.501 97.13Z" fill="#D42F55"/>
</g>
<path d="M452.21 50.14C452.21 50.14 458.72 50.2 459.073 51.96C459.425 53.72 453.461 74.43 453.461 74.43L452.198 50.14H452.21Z" fill="#FC6212"/>
<path d="M447.012 104.13C440.077 103.73 433.336 102.76 427.895 101.72C423.996 100.98 420.754 100.21 418.482 99.5499C416.345 98.9499 415.07 98.4399 414.96 98.1899C414.462 97.0599 414.705 90.1199 414.912 85.5799C415.021 83.2499 415.13 81.5699 415.13 81.5699L421.373 81.7399L424.762 81.8199L478.675 83.2399C478.675 83.2399 476.465 99.2399 475.93 100.03C475.59 100.54 464.987 103.92 452.562 104.22H452.538C450.716 104.27 448.907 104.24 447.036 104.14L447.012 104.13Z" fill="url(#paint14_linear_531_24733)"/>
<g style="mix-blend-mode:multiply" opacity="0.8">
<path d="M427.895 101.71C420.365 100.28 415.179 98.7 414.96 98.18C414.219 96.49 415.13 81.56 415.13 81.56L420.438 83.44C426.838 84.54 435.935 86.89 436.506 89.88C438.146 98.45 435.826 101.07 435.037 101.77C434.138 102.57 431.563 102.15 427.907 101.71H427.895Z" fill="#D42F55"/>
</g>
<path d="M443.575 87.59C426.037 86.01 414.486 83.79 415.13 81.56C415.616 79.78 419.417 77.09 427.968 75.51C432.802 74.61 439.142 74.08 447.303 74.28C448.506 74.3 449.757 74.35 451.032 74.42C476.307 75.7 478.226 81.41 478.663 83.22C479.136 85.01 461.113 89.16 443.575 87.58V87.59Z" fill="#FF7A00"/>
<g style="mix-blend-mode:multiply" opacity="0.5">
<path d="M427.956 75.51C432.79 74.61 439.13 74.08 447.292 74.28C446.83 77.36 445.846 80.84 443.927 81.16C441.729 81.55 433.579 78.26 427.956 75.51Z" fill="#D42F55"/>
</g>
<g style="mix-blend-mode:soft-light" opacity="0.5">
<path d="M417.135 81.49C415.264 80.17 426.997 73.78 445.555 75.63C464.113 77.47 465.34 84.32 463.931 85.16C462.522 86 427.665 88.94 417.135 81.49Z" fill="white"/>
</g>
<path d="M443.478 81.14C443.429 81.05 443.381 80.96 443.332 80.89C443.284 80.8 443.259 80.73 443.247 80.67C443.199 80.58 443.174 80.51 443.162 80.45C443.138 80.36 443.126 80.29 443.101 80.2V80.18C441.96 75.43 442.749 57.81 443.976 51.65C444 51.61 444.012 51.59 444.012 51.54C444.498 49.13 455.72 49.9 458.259 51.54C458.587 51.76 458.781 52.01 458.757 52.25C458.465 55.84 452.393 79.95 451.433 81.37C450.279 83.07 444.535 82.4 443.49 81.15L443.478 81.14Z" fill="url(#paint15_linear_531_24733)"/>
<g style="mix-blend-mode:multiply" opacity="0.8">
<path d="M451.239 53.67C448.008 53.29 444.947 52.58 443.976 51.64C444 51.6 444.012 51.58 444.012 51.53C444.498 49.12 455.72 49.89 458.259 51.53C458.404 51.71 458.441 51.89 458.404 52.07C458.149 52.89 455.769 54.19 451.251 53.68L451.239 53.67Z" fill="#D42F55"/>
</g>
<g style="mix-blend-mode:multiply" opacity="0.8">
<path d="M447.729 83.42C445.154 83.23 444 82 443.478 81.14C443.429 81.05 443.381 80.96 443.332 80.89C443.284 80.8 443.259 80.73 443.247 80.67C443.199 80.58 443.174 80.51 443.162 80.45C443.126 80.29 443.101 80.2 443.101 80.2V80.18C441.96 75.43 442.749 57.81 443.976 51.65C443.976 51.65 445.883 60.69 445.36 68.78C444.862 76.89 443.466 79.98 444.462 80.9C445.458 81.81 450.158 82.47 451.421 81.37C451.992 80.87 451.87 83.75 447.729 83.43V83.42Z" fill="#D42F55"/>
</g>
<g style="mix-blend-mode:multiply" opacity="0.8">
<path d="M444.668 51.29C444.571 50.76 452.49 48.94 455.234 51.01C457.979 53.08 444.972 53.03 444.668 51.29Z" fill="#D42F55"/>
</g>
<g style="mix-blend-mode:soft-light" opacity="0.5">
<path d="M449.951 54.79C450.158 54.37 455.939 54.11 456.352 55.48C456.765 56.85 451.919 80.35 450.389 80.94C448.858 81.53 448.215 58.24 449.951 54.79Z" fill="white"/>
</g>
<path d="M457.324 53C457.324 53 456.886 53.82 454.639 53.93C452.927 54.02 452.198 53.76 452.198 53.76C452.198 53.76 452.502 53.75 454.724 53.61C455.575 53.56 457.081 52.83 457.336 53H457.324Z" fill="#FFA457"/>
<path d="M459.376 89.62C459.862 88.89 467.647 86.47 468.776 88.06C469.906 89.65 469.177 101.04 468.084 101.59C467.003 102.14 460.117 103.23 459.898 102.3C459.68 101.37 458.866 90.39 459.364 89.62H459.376Z" fill="#FF6500"/>
<path d="M476.902 84.5C477.12 84.27 470.938 85.73 464.38 86.56C457.02 87.5 449.222 87.85 450.024 87.93C461.55 89.07 475.991 85.46 476.914 84.5H476.902Z" fill="#FFA457"/>
<g style="mix-blend-mode:multiply" opacity="0.5">
<path d="M418.482 99.54C416.345 98.94 415.07 98.43 414.96 98.18C414.462 97.05 414.705 90.11 414.912 85.57C421.385 85.51 431.527 86.22 432.377 91.24C433.191 96.06 425.345 98.58 418.482 99.54Z" fill="#D42F55"/>
</g>
<g style="mix-blend-mode:multiply" opacity="0.8">
<path d="M422.442 242.16C422.478 241.87 422.502 241.69 422.502 241.6C422.466 241.75 422.405 242.17 422.332 242.84C422.393 242.59 422.429 242.36 422.442 242.16Z" fill="#D42F55"/>
</g>
<g style="mix-blend-mode:multiply" opacity="0.8">
<path d="M406.228 298.72C406.228 298.72 406.3 298.75 406.325 298.75C412.604 299.38 410.709 300.94 410.6 301.57C410.503 302.2 410.308 306.9 429.146 307.68C447.983 308.46 447.886 302.51 449.502 300.94C450.17 300.28 452.004 300.4 453.923 300.78C451.955 299.95 449.307 299.17 445.712 298.52C445.712 297.61 445.737 296.66 445.749 295.67C445.275 296.68 444.656 297.53 443.927 298.22C439.968 301.98 432.632 301.02 424.713 297.81C424.251 297.62 423.851 297.32 423.474 296.91C416.916 289.79 421.312 250.59 422.32 242.86C422.247 243.15 422.187 243.47 422.077 243.83C418.3 269.06 414.45 289.08 413.017 297.54C411.523 297.72 410.138 297.93 408.863 298.17C407.928 298.34 407.053 298.53 406.228 298.72Z" fill="#D42F55"/>
</g>
<path d="M422.745 298.04C422.745 298.04 425.296 297.61 425.866 296.4C426.437 295.2 427.615 286.98 427.615 286.98L424.64 285.7L422.745 298.04Z" fill="#FFC59F"/>
<path d="M433.932 298.44C433.932 298.44 438.705 296.36 439.178 294.87C439.652 293.38 445.737 270.24 445.737 270.24L442.603 265.38L433.932 298.43V298.44Z" fill="#FFC59F"/>
<path d="M422.745 298.04C422.745 298.04 425.296 297.61 425.866 296.4C426.437 295.2 427.615 286.98 427.615 286.98L424.64 285.7L422.745 298.04Z" fill="#DB6345"/>
<path d="M433.932 298.44C433.932 298.44 438.705 296.36 439.178 294.87C439.652 293.38 445.737 270.24 445.737 270.24L442.603 265.38L433.932 298.43V298.44Z" fill="#DB6345"/>
<path d="M467.586 108.31C467.404 108.39 462.764 110.58 455.113 111.6C455.028 112.25 446.137 112.11 444.971 112.06C429.365 111.44 420.438 107.36 420.438 107.36V107.41C420.438 108.34 420.316 122.63 420.146 141.12V141.14C420.013 156.62 419.855 175.04 419.673 191C419.454 211.67 415.665 242.33 412.519 264.48C410.223 280.58 408.256 292.18 408.256 292.18C408.256 292.18 408.256 296.76 422.745 298.04C423.863 294.41 426.34 286.66 426.814 287.27C427.288 287.86 428.101 294.95 428.466 298.36C430.446 298.43 432.255 298.45 433.931 298.44C434.563 296.3 435.717 292.46 437.016 288.29C439.785 279.4 443.259 268.98 443.927 270.29C444.595 271.61 444.899 281.31 445.032 289.07C445.093 292.72 445.117 295.94 445.129 297.67C454.19 296.2 453.133 293.1 453.133 293.1L467.574 108.57C467.574 108.5 467.574 108.44 467.574 108.37V108.29L467.586 108.31Z" fill="url(#paint16_linear_531_24733)"/>
<path d="M467.513 108.06C467.04 106.59 463.311 105.28 460.53 104.49C460.445 105.04 460.384 105.63 460.299 106.24C461.817 106.71 462.813 107.31 462.886 107.97C463.08 109.65 453.826 111.14 451.749 111.4C435.753 113.34 426.353 108.01 426.304 107.19C426.28 106.79 427.725 106 430.774 105.14C430.774 104.44 430.774 103.77 430.774 103.13C424.919 104.22 420.365 106.66 420.413 107.38C420.413 107.38 420.413 107.4 420.413 107.42C420.656 108.59 428.551 114.7 444.376 114.64C459.242 114.58 467.258 110.44 467.562 108.6C467.562 108.53 467.562 108.47 467.562 108.4V108.32C467.562 108.24 467.526 108.15 467.501 108.07L467.513 108.06Z" fill="#FFC59F"/>
<g style="mix-blend-mode:multiply" opacity="0.2">
<path d="M374.698 270.25C373.508 270.45 368.857 270.75 361.654 271.09C361.715 267.65 361.484 265.42 360.804 266.02C360.258 266.51 359.201 268.51 357.926 271.25C350.821 271.58 341.845 271.93 331.594 272.27C331.218 271.08 330.854 270.31 330.55 270.24C330.21 270.16 329.845 271 329.469 272.34C284.604 273.85 217.039 275.37 176.388 274.46C175.72 273.78 175.259 273.54 175.149 273.99C175.113 274.1 175.076 274.25 175.052 274.42C157.235 274 144.846 273.09 142.235 271.48C134.62 266.78 103.431 159.02 121.321 139.61C122.353 138.49 124.114 137.46 126.519 136.51C127.284 139.11 127.916 140.49 128.159 139.29C128.317 138.54 128.572 137.26 128.887 135.68C152.437 128.1 220.112 126.17 281.13 127.66C283.717 140.41 288.223 160.45 290.349 156.2C292.328 152.26 295.498 137.77 297.454 128.15C346.533 129.87 387.925 133.79 392.941 138.67C405.499 150.89 383.808 268.66 374.674 270.23L374.698 270.25Z" fill="#EF7A98"/>
</g>
<g style="mix-blend-mode:multiply" opacity="0.2">
<path d="M101.633 257.42C96.4586 244.03 90.9932 226.03 89.4993 206.97C87.1431 177.01 92.3535 141.1 94.8554 126.23C95.0012 143.45 95.2319 169.45 95.4627 190.99C95.657 209.55 98.742 236.15 101.633 257.42Z" fill="#EF7A98"/>
</g>
<g style="mix-blend-mode:multiply" opacity="0.2">
<path d="M424.275 207.39C421.98 233.15 416.818 252.24 412.494 264.47C415.64 242.32 419.429 211.67 419.648 190.99C419.818 175.02 419.976 156.61 420.121 141.13C423.461 156.97 426.656 180.59 424.275 207.39Z" fill="#EF7A98"/>
</g>
<g style="mix-blend-mode:screen" opacity="0.3">
<path d="M66.1562 291.13C64.3344 288.75 51.7032 123.44 55.2496 122.19C56.9864 121.58 69.314 154.58 74.2694 164.58C78.0709 172.25 94.4672 287.63 93.034 289.87C90.2406 294.26 70.4557 296.76 66.1441 291.12L66.1562 291.13Z" fill="#FF8390"/>
</g>
<g style="mix-blend-mode:screen" opacity="0.3">
<path d="M449.259 288.72C448.785 288.58 447.122 288.89 445.033 289.08C444.899 281.32 444.595 271.62 443.927 270.3C443.259 268.98 439.786 279.41 437.017 288.3C435.17 287.47 433.725 285.99 433.288 283.41C432.304 277.72 428.065 123.36 427.58 121.36C426.559 117.19 454.967 117.6 461.052 119.27C467.149 120.94 451.178 289.31 449.259 288.73V288.72Z" fill="#FF8390"/>
</g>
<path d="M60.3623 114.28C60.3623 114.28 63.0829 111.15 63.7509 111.52C64.4189 111.89 64.0302 130.1 63.7023 130.26C63.3744 130.42 61.6983 129.76 60.3623 114.28Z" fill="#DB6345"/>
<path d="M121.964 116.76C121.964 116.76 123.98 114.26 124.745 114.52C125.51 114.78 129.433 133.24 129.409 133.58C129.385 133.92 128.68 139.88 127.988 139.74C126.786 139.51 124.235 128.98 121.976 116.77L121.964 116.76Z" fill="#DB6345"/>
<path d="M135.798 118.18C135.798 118.18 138.798 115.98 138.859 116.37C139.466 120.32 140.535 124.79 140.45 124.85C140.352 124.92 138.895 130.68 137.899 130.24C136.502 129.63 135.761 119 135.81 118.17L135.798 118.18Z" fill="#DB6345"/>
<path d="M280.353 123.69C280.353 123.69 284.919 119.37 285.296 120.1C285.672 120.83 287.251 135.28 292.972 149.39C293.251 150.09 290.822 157.53 289.741 157.06C288.66 156.59 282.381 138.35 280.353 123.69Z" fill="#DB6345"/>
<g style="mix-blend-mode:screen" opacity="0.3">
<path d="M61.4066 217.78C54.2773 216.74 66.7385 295.78 73.5763 290.76C80.4263 285.75 92.4139 222.32 61.4066 217.78Z" fill="#FF8390"/>
</g>
<g style="mix-blend-mode:multiply" opacity="0.3">
<path d="M54.1801 112.98C54.0951 113.03 59.2933 114.41 59.7184 115.43C60.1435 116.45 60.8844 131.6 63.5442 130.84C66.2041 130.08 66.0826 118.19 66.0826 118.19C66.0826 118.19 64.5402 130.6 63.69 130.25C62.0868 129.6 60.5929 114.41 60.35 114.27C60.1071 114.13 54.2651 112.92 54.168 112.98H54.1801Z" fill="#C60055"/>
</g>
<path d="M67.0184 114.52C66.3625 114.45 68.1844 111.6 70.7227 111.21C73.2611 110.82 83.439 109.67 84.2042 110.74C84.9693 111.81 73.1761 115.2 67.0184 114.52Z" fill="#FFDEC8"/>
<path d="M441.182 111.91C442.494 111.7 447.692 112.58 453.874 111.44C460.056 110.3 461.052 108.82 462.619 108.74C464.186 108.66 466.809 109.01 466.238 109.84C465.667 110.66 459.68 113.6 452.404 114.23C445.129 114.86 434.004 113.06 441.182 111.92V111.91Z" fill="#FFDEC8"/>
<path d="M142.672 118.74C142.259 118.68 143.959 116.78 144.81 116.76C145.66 116.74 166.088 117.82 166.562 118.44C167.036 119.07 165.943 120.24 165.42 120.24C164.898 120.24 144.64 119.03 142.66 118.73L142.672 118.74Z" fill="#FFDEC8"/>
<path d="M300.161 122.69C299.505 122.59 300.732 119.37 302.882 119.04C305.032 118.71 334.581 117.21 334.678 118.44C334.776 119.67 328.654 121.02 325.035 121.39C321.416 121.76 306.525 123.66 300.149 122.7L300.161 122.69Z" fill="#FFDEC8"/>
<g style="mix-blend-mode:multiply" opacity="0.3">
<path d="M106.721 114.92C106.721 114.92 118.757 117.39 120.275 119.74C121.794 122.09 126.36 149.5 129.02 144.09C131.68 138.69 132.397 117.84 132.397 117.84C132.397 117.84 128.692 138.77 128.194 138.74C125.632 138.61 123.603 117.81 121.951 116.76C120.3 115.71 106.709 114.92 106.709 114.92H106.721Z" fill="#C60055"/>
</g>
<g style="mix-blend-mode:multiply" opacity="0.3">
<path d="M132.81 117.86C132.858 117.92 134.376 118.27 134.777 119.7C135.178 121.13 135.227 135.44 137.886 133.91C140.546 132.38 141.785 118.74 141.785 118.74C141.785 118.74 139.344 130.19 138.129 129.68C136.915 129.17 136.38 118.3 135.797 118.17C135.214 118.04 132.81 117.85 132.81 117.85V117.86Z" fill="#C60055"/>
</g>
<g style="mix-blend-mode:multiply" opacity="0.3">
<path d="M257.519 123.97C257.968 124.07 276.222 124.86 277.619 126.95C279.016 129.04 282.052 165.84 290.809 160.57C299.554 155.3 298.497 123.12 298.497 123.12C298.497 123.12 293.603 155.46 290.056 155.25C286.51 155.04 282.004 124.11 280.352 123.71C278.7 123.31 257.531 123.98 257.531 123.98L257.519 123.97Z" fill="#C60055"/>
</g>
<g style="mix-blend-mode:multiply" opacity="0.3">
<path d="M149.146 284.85C149.146 284.85 171.882 282.34 172.635 280.93C173.4 279.52 173.485 272.47 175.161 272.82C176.825 273.17 181.586 281.43 181.586 281.43C181.586 281.43 176.035 272.77 175.367 274.06C174.712 275.35 174.651 282.02 174.092 282.12C173.533 282.22 149.146 284.84 149.146 284.84V284.85Z" fill="#C60055"/>
</g>
<g style="mix-blend-mode:multiply" opacity="0.3">
<path d="M306.222 281.16C306.222 281.16 324.488 282.62 325.557 281.06C326.626 279.5 327.585 266.7 330.44 267.64C333.294 268.58 334.132 283.49 334.132 283.49C334.132 283.49 331.715 270.38 330.573 270.82C328.496 271.63 328.788 282.92 327.646 282.93C326.505 282.94 306.222 281.16 306.222 281.16Z" fill="#C60055"/>
</g>
<g style="mix-blend-mode:multiply" opacity="0.3">
<path d="M340.837 284.07C340.837 284.07 349.108 283.99 350.019 282.9C350.918 281.8 358.484 260.19 361.569 263.09C364.666 265.99 360.585 286.06 360.585 286.06C360.585 286.06 362.104 266.65 360.998 267C359.893 267.35 352.63 284.85 352.011 285.18C351.391 285.52 340.837 284.07 340.837 284.07Z" fill="#C60055"/>
</g>
<g style="mix-blend-mode:multiply" opacity="0.2">
<path d="M144.53 217.78C144.749 219.61 141.409 228.13 137.741 234.54C135.142 239.11 132.385 242.61 130.648 241.9C128.899 241.18 126.798 239.63 124.843 237.58C120.58 233.14 116.972 226.39 119.061 220.92C122.098 212.93 144.166 214.65 144.542 217.78H144.53Z" fill="#C60055"/>
</g>
<g style="mix-blend-mode:multiply" opacity="0.2">
<path d="M150.724 211.53C150.239 212.7 149.303 213.88 147.858 214.96C146.935 215.65 145.308 214.72 143.899 213.17C141.385 210.41 139.563 205.65 143.583 204.55C148.502 203.2 152.486 207.29 150.724 211.53Z" fill="#C60055"/>
</g>
<g style="mix-blend-mode:multiply" opacity="0.2">
<path d="M151.283 241.59C149.376 242.5 153.663 251.77 153.845 247.93C154.04 244.09 153.748 240.41 151.283 241.59Z" fill="#C60055"/>
</g>
<g style="mix-blend-mode:multiply" opacity="0.2">
<path d="M303.938 170.48C301.327 172.63 306.987 186.46 312.501 179.09C318.015 171.73 306.222 168.6 303.938 170.48Z" fill="#C60055"/>
</g>
<g style="mix-blend-mode:multiply" opacity="0.2">
<path d="M307.169 159.52C303.125 160.35 306.598 166.41 308.687 164.85C310.776 163.29 311.736 158.59 307.169 159.52Z" fill="#C60055"/>
</g>
<g style="mix-blend-mode:multiply" opacity="0.2">
<path d="M376.847 213.24C372.22 212.31 367.082 223.58 376.082 222.95C385.082 222.32 383.054 214.49 376.847 213.24Z" fill="#C60055"/>
</g>
<g style="mix-blend-mode:multiply" opacity="0.2">
<path d="M437.514 252.6C436.846 255.84 435.607 258.8 433.652 260.85C432.935 261.6 431.66 261.4 430.215 260.57C426.644 258.46 422.187 252.26 423.644 246.44C425.66 238.3 431.502 230.68 434.915 232.66C437.38 234.09 439.251 244.27 437.502 252.6H437.514Z" fill="#C60055"/>
</g>
<g style="mix-blend-mode:multiply" opacity="0.2">
<path d="M75.3498 133.88C71.4512 133.67 71.5483 141.97 74.0138 141.66C76.4915 141.35 78.204 134.04 75.3498 133.88Z" fill="#C60055"/>
</g>
<g style="mix-blend-mode:multiply" opacity="0.2">
<path d="M76.4313 129.6C74.7553 131.23 79.662 133.52 79.8563 131.79C80.0507 130.07 78.5203 127.56 76.4313 129.6Z" fill="#C60055"/>
</g>
<g style="mix-blend-mode:multiply" opacity="0.2">
<path d="M144.53 217.78C144.749 219.61 141.409 228.13 137.741 234.54C136.696 231.93 142.708 220.35 142.247 218.1C141.749 215.65 132.616 214.96 123.409 218.25C114.215 221.54 125.049 237.41 125.049 237.41C125.049 237.41 124.964 237.49 124.818 237.58C120.555 233.14 116.948 226.39 119.037 220.92C122.073 212.93 144.142 214.65 144.518 217.78H144.53Z" fill="#C60055"/>
</g>
<g style="mix-blend-mode:multiply" opacity="0.2">
<path d="M150.724 211.53C150.652 211.37 150.615 211.18 150.591 210.97C150.36 209.31 149.571 205.26 144.494 205.1C139.429 204.95 144.117 213.01 144.117 213.01C144.117 213.01 144.032 213.09 143.899 213.17C141.385 210.41 139.563 205.65 143.583 204.55C148.502 203.2 152.486 207.29 150.724 211.53Z" fill="#C60055"/>
</g>
<g style="mix-blend-mode:multiply" opacity="0.2">
<path d="M437.515 252.6H437.466C435.559 252.54 436.008 234.69 433.021 233.91C430.045 233.13 425.406 241.53 424.713 247.95C424.021 254.38 429.972 259.7 430.482 260.02C430.762 260.19 430.579 260.43 430.203 260.57C426.632 258.46 422.175 252.26 423.632 246.44C425.648 238.3 431.49 230.68 434.903 232.66C437.369 234.09 439.239 244.27 437.49 252.6H437.515Z" fill="#C60055"/>
</g>
<g style="mix-blend-mode:multiply" opacity="0.1">
<path d="M150.117 267.11C150.955 262.11 220.123 194.02 276.417 202.79C332.723 211.56 378.888 257.5 371.273 263.35C363.67 269.2 148.077 279.22 150.117 267.11Z" fill="#EF7A98"/>
</g>
<g filter="url(#filter0_i_531_24733)">
<path d="M179.86 209.776C177.892 211.792 175.444 212.896 172.372 212.944C172.372 214.576 172.468 216.16 173.044 217.648C173.188 217.984 173.572 218.32 173.908 218.512C174.484 218.944 174.724 219.184 174.58 219.568C174.388 220.048 173.956 220.096 173.524 220.096C170.596 219.904 167.812 220.432 165.028 221.008C164.596 221.104 164.212 221.248 163.78 221.392C163.348 221.488 162.964 221.488 162.724 221.104C162.484 220.768 162.628 220.432 162.868 220.144C163.012 220 163.156 219.856 163.3 219.712C164.212 218.704 164.836 217.6 164.98 216.256C165.22 214.144 165.508 211.984 165.556 209.824C165.7 203.584 165.748 197.344 165.796 191.152C165.844 190.192 165.268 189.568 164.164 189.232C163.828 189.184 163.492 189.136 163.204 189.088C162.724 189.04 162.436 188.848 162.388 188.368C162.34 187.936 162.628 187.648 163.204 187.552C164.548 187.312 165.892 187.12 167.236 186.976C168.916 186.736 170.644 186.496 172.372 186.4C175.252 186.256 178.036 186.784 180.388 188.512C182.5 190.096 183.7 192.304 184.276 194.8C185.572 200.512 183.94 205.504 179.86 209.776ZM173.62 188.752C173.236 189.856 172.084 208.528 172.324 210.16C172.42 210.112 172.516 210.112 172.564 210.064C172.66 210.016 172.804 209.92 172.9 209.824C174.628 208.288 176.068 206.464 176.932 204.304C177.988 201.424 178.372 198.496 178.18 195.424C178.084 193.216 177.076 191.344 175.444 189.808C174.964 189.328 174.34 188.896 173.62 188.752ZM198.724 197.152C199.444 198.736 199.732 200.416 199.732 202.192C199.732 202.528 199.732 202.864 199.732 203.152C199.732 203.92 199.492 204.208 198.772 204.256C197.812 204.304 196.852 204.304 195.844 204.352C194.116 204.448 192.34 204.544 190.42 204.688C190.468 206.272 190.42 207.76 190.564 209.248C190.612 209.872 190.852 210.544 191.14 211.12C191.86 212.512 193.348 212.752 194.452 211.6C195.076 210.88 195.604 210.064 196.084 209.248C196.324 208.864 196.468 208.384 196.66 207.952C196.9 207.424 196.996 206.752 197.812 206.8C198.34 206.848 198.58 207.28 198.628 208.336C198.724 210.064 198.772 211.84 198.868 213.616C198.916 214.144 198.916 214.672 198.964 215.2C199.012 215.632 198.868 215.968 198.436 216.16C198.004 216.304 197.716 216.112 197.476 215.776C196.9 215.008 196.036 214.624 195.172 214.336C194.788 214.192 194.5 214.24 194.26 214.528C193.924 214.816 193.54 215.152 193.252 215.488C191.188 217.6 188.356 216.592 187.108 215.056C186.388 214.144 185.86 213.136 185.62 212.032C184.948 208.864 184.708 205.648 185.188 202.432C185.38 201.04 185.812 199.744 186.388 198.544C187.492 196.432 189.124 194.992 191.332 194.128C193.444 193.264 197.572 194.416 198.724 197.152ZM190.804 202.48C192.292 202.432 193.684 202.384 195.172 202.336C194.98 200.464 194.836 198.688 194.068 197.056C193.972 196.864 193.828 196.72 193.732 196.528C193.396 196.192 193.156 196.144 192.82 196.528C192.676 196.672 192.532 196.912 192.436 197.104C191.524 198.736 191.14 200.56 190.804 202.48ZM223.896 213.664C224.376 214.096 224.28 214.768 223.656 215.008C223.56 215.056 223.464 215.104 223.368 215.104C221.544 215.152 219.912 215.968 218.28 216.736C217.272 217.168 216.216 217.6 215.16 218.032C214.728 218.224 214.296 218.272 213.96 217.888C213.672 217.504 213.768 217.12 213.96 216.784C215.208 214.576 215.64 212.128 215.688 209.68C215.832 206.56 215.736 203.392 215.16 200.32C215.064 199.696 214.824 199.072 214.536 198.544C214.056 197.776 213.288 197.632 212.568 198.112C212.04 198.448 211.512 198.88 211.128 199.36C210.216 200.608 209.496 202.048 209.064 203.536C208.968 203.92 208.92 204.352 208.92 204.736C208.776 208.24 208.68 211.792 208.968 215.296C209.016 215.632 209.064 215.968 209.064 216.304C209.16 217.024 209.496 217.552 210.312 217.552C210.36 217.552 210.408 217.552 210.408 217.6C211.08 217.744 211.368 217.984 211.368 218.416C211.32 218.896 210.888 219.184 210.264 219.184C207.528 219.184 204.792 219.04 202.104 218.56C201.576 218.464 201.048 218.464 200.52 218.416C199.896 218.32 199.56 218.032 199.512 217.6C199.464 217.072 199.8 216.784 200.232 216.64C202.008 216.064 202.68 214.768 202.872 213.04C202.968 211.936 203.16 210.832 203.16 209.776C203.208 206.512 203.208 203.248 203.16 199.984C203.16 199.12 202.968 198.256 202.776 197.44C202.584 196.672 202.152 196.048 201.288 195.808C200.808 195.712 200.52 195.472 200.568 194.896C200.616 194.368 201.048 194.272 201.48 194.224C203.496 193.984 205.512 193.744 207.528 193.504C208.296 193.408 209.064 193.168 209.88 192.976C210.168 192.928 210.552 192.832 210.84 192.928C211.08 192.976 211.416 193.216 211.464 193.456C211.512 193.696 211.32 193.984 211.176 194.224C211.128 194.32 210.984 194.416 210.84 194.416C209.832 194.656 209.4 195.376 209.304 196.384C209.256 197.056 209.16 197.776 209.112 198.448C209.208 198.496 209.256 198.496 209.352 198.544C209.592 198.16 209.784 197.728 210.024 197.344C210.696 196.24 211.464 195.28 212.472 194.464C214.152 193.168 216.072 193.12 217.848 194.224C219.288 195.184 220.2 196.576 220.776 198.16C221.448 200.08 221.64 202.048 221.688 204.064C221.784 205.6 221.736 207.184 221.736 208.768C221.784 209.584 221.832 210.4 221.976 211.216C222.072 212.224 222.552 212.992 223.464 213.424C223.608 213.472 223.8 213.568 223.896 213.664ZM242.029 194.944C242.413 194.992 242.653 195.232 242.653 195.616C242.653 195.952 242.461 196.192 242.125 196.24C240.829 196.48 240.205 197.44 239.773 198.544C238.333 201.952 236.989 205.36 235.597 208.768C235.213 209.68 234.925 210.592 234.541 211.504C233.677 213.424 233.149 215.488 232.621 217.552C232.381 218.464 232.333 219.424 232.669 220.336C232.861 220.864 233.101 221.344 233.821 221.392C234.349 221.44 234.589 221.776 234.541 222.16C234.493 222.592 234.205 222.784 233.821 222.832C230.749 223.456 227.629 221.392 227.149 218.416C226.957 217.216 227.149 216.112 227.437 214.96C228.013 212.848 228.733 210.736 229.693 208.768C229.885 208.24 230.125 207.76 230.269 207.424C229.261 205.888 228.301 204.544 227.437 203.152C226.237 201.232 225.085 199.312 223.405 197.728C223.117 197.44 222.685 197.248 222.349 197.104C221.965 196.96 221.629 196.816 221.677 196.336C221.725 195.904 222.013 195.664 222.445 195.616C223.069 195.52 223.741 195.52 224.365 195.472C225.949 195.376 227.533 195.28 229.165 195.232C229.453 195.184 229.789 195.184 230.077 195.28C230.317 195.376 230.605 195.616 230.653 195.856C230.701 196.096 230.509 196.528 230.365 196.624C229.261 197.104 229.213 198.064 229.357 199.024C229.597 200.992 230.365 202.768 231.229 204.688C231.325 204.544 231.421 204.448 231.469 204.352C232.189 202.864 232.957 201.376 233.581 199.84C233.965 198.88 234.109 197.824 234.349 196.768C234.445 196.144 234.205 195.568 233.629 195.232C233.629 195.184 233.581 195.184 233.581 195.184C232.957 194.704 232.813 194.368 233.053 193.984C233.245 193.648 233.629 193.504 234.253 193.744C236.557 194.608 238.957 194.656 241.309 194.848C241.549 194.848 241.789 194.896 242.029 194.944ZM251.775 198.256C251.631 199.024 251.487 199.792 251.439 200.512C251.247 203.968 251.055 207.424 250.863 210.88C250.863 211.504 250.959 212.128 251.055 212.752C251.199 213.616 251.631 214.336 252.399 214.768C252.591 214.912 252.831 215.008 252.927 215.2C253.119 215.488 253.311 215.872 253.263 216.16C253.167 216.448 252.783 216.688 252.495 216.832C252.207 216.976 251.823 216.928 251.487 216.928C249.183 217.072 246.879 217.168 244.527 217.264C243.999 217.312 243.471 217.408 242.943 217.456C242.559 217.504 242.223 217.408 242.031 216.976C241.887 216.592 242.031 216.256 242.367 216.016C244.095 214.624 244.767 212.752 245.007 210.64C245.295 208.048 245.535 205.408 245.823 202.576C245.775 201.808 245.727 200.8 245.631 199.792C245.535 198.784 244.959 198.112 243.999 197.728C243.855 197.68 243.759 197.632 243.615 197.584C243.231 197.392 242.943 197.152 242.991 196.672C243.039 196.192 243.375 195.952 243.759 195.856C244.335 195.712 244.911 195.616 245.535 195.568C247.743 195.424 249.951 195.328 252.207 195.184C252.543 195.184 252.879 195.088 253.167 195.184C253.407 195.28 253.743 195.52 253.791 195.76C253.839 195.952 253.695 196.336 253.503 196.528C253.359 196.72 253.071 196.816 252.831 196.912C252.255 197.2 251.871 197.632 251.775 198.256ZM248.511 193.36C247.647 193.408 246.831 193.168 246.207 192.496C244.719 191.056 244.671 188.176 246.111 186.64C246.831 185.872 247.743 185.92 248.607 185.824C251.055 185.824 252.543 187.648 252.015 190C251.583 191.968 250.287 193.216 248.511 193.36ZM272.423 212.368C272.615 214.096 271.703 216.112 269.687 216.832C267.959 217.36 266.231 217.6 264.455 217.696C262.823 217.744 261.143 217.792 259.511 217.984C257.831 218.176 256.295 218.848 254.903 219.808C254.567 220.048 254.183 220.192 253.799 219.904C253.463 219.616 253.511 219.232 253.655 218.896C253.943 218.224 254.231 217.552 254.567 216.88C255.479 215.104 256.439 213.376 257.399 211.6C257.447 211.456 257.543 211.312 257.639 211.216C257.879 211.072 258.167 210.88 258.359 210.928C258.551 211.024 258.791 211.312 258.887 211.552C258.983 211.696 258.887 211.936 258.887 212.128C258.887 213.424 259.415 214.24 260.663 214.576C261.671 214.864 262.727 214.96 263.639 215.152C264.311 215.056 264.887 215.056 265.367 214.912C266.183 214.72 266.567 214.048 266.327 213.232C266.087 212.464 265.751 211.792 265.079 211.36C264.263 210.784 263.447 210.208 262.583 209.68C261.047 208.816 259.463 207.952 258.119 206.752C257.159 205.888 256.343 204.976 255.911 203.728C255.575 202.72 255.527 201.76 255.959 200.8C257.063 197.968 259.031 196.192 262.151 195.808C263.399 195.664 264.647 196.048 265.799 196.528C266.759 196.96 267.719 197.008 268.727 196.672C269.495 196.432 270.071 196 270.359 195.184C270.407 194.992 270.503 194.8 270.599 194.656C270.935 194.272 271.463 194.32 271.703 194.752C271.847 195.04 271.895 195.328 271.895 195.616C271.991 197.152 272.039 198.688 272.135 200.224C272.135 200.848 272.231 201.472 272.279 202.096C272.279 202.336 272.279 202.624 272.279 202.864C272.279 203.248 272.135 203.584 271.751 203.584C271.511 203.584 271.175 203.44 270.983 203.248C270.647 202.816 270.407 202.288 270.071 201.808C268.631 199.792 266.567 199.312 264.263 199.504C263.447 199.6 262.583 199.888 262.343 200.848C262.103 201.76 262.535 202.576 263.255 203.104C264.023 203.728 264.887 204.256 265.751 204.784C266.615 205.312 267.575 205.744 268.439 206.272C270.695 207.664 272.183 209.584 272.423 212.368ZM282.291 198.256C282.147 199.024 282.003 199.792 281.955 200.512C281.763 203.968 281.571 207.424 281.379 210.88C281.379 211.504 281.475 212.128 281.571 212.752C281.715 213.616 282.147 214.336 282.915 214.768C283.107 214.912 283.347 215.008 283.443 215.2C283.635 215.488 283.827 215.872 283.779 216.16C283.683 216.448 283.299 216.688 283.011 216.832C282.723 216.976 282.339 216.928 282.003 216.928C279.699 217.072 277.395 217.168 275.043 217.264C274.515 217.312 273.987 217.408 273.459 217.456C273.075 217.504 272.739 217.408 272.547 216.976C272.403 216.592 272.547 216.256 272.883 216.016C274.611 214.624 275.283 212.752 275.523 210.64C275.811 208.048 276.051 205.408 276.339 202.576C276.291 201.808 276.243 200.8 276.147 199.792C276.051 198.784 275.475 198.112 274.515 197.728C274.371 197.68 274.275 197.632 274.131 197.584C273.747 197.392 273.459 197.152 273.507 196.672C273.555 196.192 273.891 195.952 274.275 195.856C274.851 195.712 275.427 195.616 276.051 195.568C278.259 195.424 280.467 195.328 282.723 195.184C283.059 195.184 283.395 195.088 283.683 195.184C283.923 195.28 284.259 195.52 284.307 195.76C284.355 195.952 284.211 196.336 284.019 196.528C283.875 196.72 283.587 196.816 283.347 196.912C282.771 197.2 282.387 197.632 282.291 198.256ZM279.027 193.36C278.163 193.408 277.347 193.168 276.723 192.496C275.235 191.056 275.187 188.176 276.627 186.64C277.347 185.872 278.259 185.92 279.123 185.824C281.571 185.824 283.059 187.648 282.531 190C282.099 191.968 280.803 193.216 279.027 193.36ZM306.587 221.2C306.875 221.488 307.019 221.872 306.731 222.16C306.539 222.4 306.155 222.544 305.867 222.544C305.339 222.544 304.859 222.4 304.331 222.256C301.835 221.776 299.387 221.2 296.843 221.248C296.651 221.248 296.507 221.248 296.363 221.2C295.931 221.104 295.595 220.864 295.643 220.48C295.643 220.192 295.883 219.904 296.075 219.664C296.171 219.52 296.411 219.424 296.603 219.376C297.707 219.04 298.187 218.128 298.331 217.072C298.523 215.824 298.667 214.624 298.667 213.376C298.667 210.688 298.667 208 298.523 205.312C298.475 204.112 298.187 202.96 297.947 201.808C297.803 201.28 297.515 200.8 297.227 200.368C296.939 199.936 296.459 199.792 296.027 200.08C295.499 200.368 294.971 200.704 294.635 201.136C294.011 201.952 293.531 202.864 293.003 203.776C292.859 204.064 292.811 204.4 292.811 204.736C292.715 206.8 292.619 208.864 292.619 210.88C292.619 212.08 292.763 213.232 292.955 214.384C293.147 215.584 293.723 216.64 295.019 217.072C295.355 217.168 295.595 217.408 295.547 217.792C295.547 218.176 295.355 218.464 294.971 218.512C294.107 218.752 293.243 218.944 292.379 219.088C290.363 219.376 288.347 219.616 286.331 219.904C285.899 219.952 285.515 220.048 285.083 220.096C284.699 220.144 284.411 220 284.267 219.664C284.075 219.28 284.171 218.944 284.459 218.656C284.507 218.608 284.555 218.56 284.651 218.56C286.139 217.648 286.427 216.16 286.619 214.624C286.667 214.096 286.715 213.616 286.715 213.136C286.667 207.52 286.667 201.952 286.571 196.384C286.523 194.944 286.235 193.552 285.947 192.112C285.755 191.056 285.179 190.24 284.171 189.76C284.027 189.712 283.835 189.616 283.739 189.472C283.595 189.232 283.403 188.848 283.451 188.608C283.547 188.368 283.883 188.128 284.171 188.032C284.459 187.984 284.747 188.032 285.083 188.08C288.107 188.32 291.083 188.272 294.107 187.648C294.347 187.552 294.587 187.504 294.875 187.504C295.307 187.456 295.691 187.552 295.835 187.984C295.979 188.464 295.739 188.752 295.403 188.992C295.355 189.04 295.307 189.088 295.211 189.136C293.867 189.808 293.291 191.008 293.147 192.4C293.051 193.792 293.003 195.184 292.955 196.576C292.955 197.536 292.955 198.448 292.955 199.456C294.011 198.496 294.875 197.584 295.883 196.816C297.227 195.808 298.763 195.28 300.491 195.76C301.691 196.048 302.651 196.672 303.371 197.728C304.139 198.976 304.523 200.368 304.715 201.76C305.003 204.544 305.051 207.28 304.811 210.016C304.667 212.176 304.523 214.336 304.427 216.496C304.379 216.88 304.427 217.216 304.427 217.6C304.379 218.896 305.003 219.808 305.915 220.624C306.155 220.768 306.395 220.96 306.587 221.2ZM324.986 215.392C325.37 215.44 325.658 215.68 325.706 216.064C325.706 216.496 325.466 216.736 325.034 216.88C324.938 216.928 324.842 216.928 324.698 216.976C322.826 217.312 320.954 217.648 319.082 217.984C318.698 218.08 318.266 218.128 317.882 218.128C316.826 218.224 316.058 217.792 315.53 216.88C315.146 217.216 314.81 217.504 314.426 217.792C312.506 219.136 310.106 218.992 308.474 217.36C307.274 216.208 306.746 214.768 306.602 213.184C306.266 210.016 307.37 207.28 309.866 205.024C311.258 203.728 313.034 203.104 315.098 203.344C315.626 203.392 316.154 203.584 316.778 203.728C316.778 203.392 316.778 203.056 316.73 202.768C316.442 201.232 316.154 199.744 315.194 198.4C314.234 197.104 313.034 196.96 311.834 198.112C311.018 198.976 310.346 199.936 309.77 200.944C309.29 201.808 309.002 202.768 308.618 203.728C308.522 203.872 308.522 204.064 308.426 204.208C308.234 204.592 307.946 204.88 307.418 204.832C306.89 204.784 306.65 204.448 306.602 204.016C306.362 201.376 305.978 198.784 306.266 196.144C306.314 195.904 306.314 195.664 306.362 195.472C306.506 194.992 306.842 194.704 307.37 194.656C307.946 194.608 308.234 194.944 308.378 195.424C308.474 195.808 308.618 196.192 308.762 196.528C309.146 197.248 309.482 197.344 310.25 196.912C310.97 196.528 311.642 196.144 312.314 195.76C316.25 193.36 320.234 194.992 322.01 198.112C322.922 199.696 323.354 201.424 323.306 203.2C323.162 205.888 322.874 208.576 322.682 211.264C322.586 212.08 322.538 212.896 322.634 213.712C322.778 214.768 323.21 215.104 324.362 215.296C324.554 215.296 324.794 215.344 324.986 215.392ZM315.482 213.712C316.346 211.696 316.346 209.536 316.154 207.424C316.106 207.04 315.962 206.704 315.77 206.368C315.29 205.552 314.57 205.456 313.802 206.128C313.562 206.368 313.322 206.656 313.082 206.992C311.978 208.72 311.354 210.592 311.21 212.56C311.114 214.096 311.306 215.632 312.602 217.072C313.082 216.688 313.658 216.4 313.994 216.016C314.57 215.296 315.146 214.528 315.482 213.712ZM349.662 213.664C350.142 214.096 350.046 214.768 349.422 215.008C349.326 215.056 349.23 215.104 349.134 215.104C347.31 215.152 345.678 215.968 344.046 216.736C343.038 217.168 341.982 217.6 340.926 218.032C340.494 218.224 340.062 218.272 339.726 217.888C339.438 217.504 339.534 217.12 339.726 216.784C340.974 214.576 341.406 212.128 341.454 209.68C341.598 206.56 341.502 203.392 340.926 200.32C340.83 199.696 340.59 199.072 340.302 198.544C339.822 197.776 339.054 197.632 338.334 198.112C337.806 198.448 337.278 198.88 336.894 199.36C335.982 200.608 335.262 202.048 334.83 203.536C334.734 203.92 334.686 204.352 334.686 204.736C334.542 208.24 334.446 211.792 334.734 215.296C334.782 215.632 334.83 215.968 334.83 216.304C334.926 217.024 335.262 217.552 336.078 217.552C336.126 217.552 336.174 217.552 336.174 217.6C336.846 217.744 337.134 217.984 337.134 218.416C337.086 218.896 336.654 219.184 336.03 219.184C333.294 219.184 330.558 219.04 327.87 218.56C327.342 218.464 326.814 218.464 326.286 218.416C325.662 218.32 325.326 218.032 325.278 217.6C325.23 217.072 325.566 216.784 325.998 216.64C327.774 216.064 328.446 214.768 328.638 213.04C328.734 211.936 328.926 210.832 328.926 209.776C328.974 206.512 328.974 203.248 328.926 199.984C328.926 199.12 328.734 198.256 328.542 197.44C328.35 196.672 327.918 196.048 327.054 195.808C326.574 195.712 326.286 195.472 326.334 194.896C326.382 194.368 326.814 194.272 327.246 194.224C329.262 193.984 331.278 193.744 333.294 193.504C334.062 193.408 334.83 193.168 335.646 192.976C335.934 192.928 336.318 192.832 336.606 192.928C336.846 192.976 337.182 193.216 337.23 193.456C337.278 193.696 337.086 193.984 336.942 194.224C336.894 194.32 336.75 194.416 336.606 194.416C335.598 194.656 335.166 195.376 335.07 196.384C335.022 197.056 334.926 197.776 334.878 198.448C334.974 198.496 335.022 198.496 335.118 198.544C335.358 198.16 335.55 197.728 335.79 197.344C336.462 196.24 337.23 195.28 338.238 194.464C339.918 193.168 341.838 193.12 343.614 194.224C345.054 195.184 345.966 196.576 346.542 198.16C347.214 200.08 347.406 202.048 347.454 204.064C347.55 205.6 347.502 207.184 347.502 208.768C347.55 209.584 347.598 210.4 347.742 211.216C347.838 212.224 348.318 212.992 349.23 213.424C349.374 213.472 349.566 213.568 349.662 213.664Z" fill="#A34216"/>
</g>
</g>
<defs>
<filter id="filter0_i_531_24733" x="162.341" y="185.824" width="187.801" height="41.632" filterUnits="userSpaceOnUse" color-interpolation-filters="sRGB">
<feFlood flood-opacity="0" result="BackgroundImageFix"/>
<feBlend mode="normal" in="SourceGraphic" in2="BackgroundImageFix" result="shape"/>
<feColorMatrix in="SourceAlpha" type="matrix" values="0 0 0 0 0 0 0 0 0 0 0 0 0 0 0 0 0 0 127 0" result="hardAlpha"/>
<feOffset dy="4"/>
<feGaussianBlur stdDeviation="2"/>
<feComposite in2="hardAlpha" operator="arithmetic" k2="-1" k3="1"/>
<feColorMatrix type="matrix" values="0 0 0 0 0 0 0 0 0 0 0 0 0 0 0 0 0 0 0.25 0"/>
<feBlend mode="normal" in2="shape" result="effect1_innerShadow_531_24733"/>
</filter>
<linearGradient id="paint0_linear_531_24733" x1="261.687" y1="250.496" x2="274.56" y2="-259.604" gradientUnits="userSpaceOnUse">
<stop stop-color="#003248"/>
<stop offset="1" stop-color="#0079AE" stop-opacity="0"/>
</linearGradient>
<radialGradient id="paint1_radial_531_24733" cx="0" cy="0" r="1" gradientUnits="userSpaceOnUse" gradientTransform="translate(249.308 203.21) scale(249.377 203.196)">
<stop stop-color="#00FFFF"/>
<stop offset="1" stop-color="#009999" stop-opacity="0"/>
</radialGradient>
<linearGradient id="paint2_linear_531_24733" x1="13.9182" y1="201.75" x2="557.887" y2="201.75" gradientUnits="userSpaceOnUse">
<stop stop-color="#E65E49"/>
<stop offset="0.02" stop-color="#E7624C"/>
<stop offset="0.2" stop-color="#F48361"/>
<stop offset="0.35" stop-color="#FC966F"/>
<stop offset="0.45" stop-color="#FF9E74"/>
<stop offset="0.57" stop-color="#FC976F"/>
<stop offset="0.73" stop-color="#F58463"/>
<stop offset="0.92" stop-color="#E9664E"/>
<stop offset="1" stop-color="#E45845"/>
</linearGradient>
<linearGradient id="paint3_linear_531_24733" x1="127.478" y1="328.64" x2="88.8672" y2="59.2382" gradientUnits="userSpaceOnUse">
<stop stop-color="#C60055"/>
<stop offset="1" stop-color="white"/>
</linearGradient>
<linearGradient id="paint4_linear_531_24733" x1="441.923" y1="333.57" x2="403.828" y2="67.7722" gradientUnits="userSpaceOnUse">
<stop stop-color="#C60055"/>
<stop offset="1" stop-color="white"/>
</linearGradient>
<linearGradient id="paint5_linear_531_24733" x1="95.7754" y1="332.714" x2="75.1669" y2="333.735" gradientUnits="userSpaceOnUse">
<stop stop-color="#A71100"/>
<stop offset="0.39" stop-color="#D83303"/>
<stop offset="1" stop-color="#EC5C11"/>
</linearGradient>
<linearGradient id="paint6_linear_531_24733" x1="125.878" y1="316.823" x2="46.0489" y2="310.974" gradientUnits="userSpaceOnUse">
<stop stop-color="#A71100"/>
<stop offset="0.39" stop-color="#D83303"/>
<stop offset="1" stop-color="#EC5C11"/>
</linearGradient>
<linearGradient id="paint7_linear_531_24733" x1="53.5972" y1="201.13" x2="102.677" y2="201.13" gradientUnits="userSpaceOnUse">
<stop stop-color="#A71100"/>
<stop offset="0.39" stop-color="#D83303"/>
<stop offset="1" stop-color="#EC5C11"/>
</linearGradient>
<linearGradient id="paint8_linear_531_24733" x1="106.815" y1="94.1565" x2="26.9862" y2="88.3069" gradientUnits="userSpaceOnUse">
<stop stop-color="#A71100"/>
<stop offset="0.39" stop-color="#D83303"/>
<stop offset="1" stop-color="#EC5C11"/>
</linearGradient>
<linearGradient id="paint9_linear_531_24733" x1="73.085" y1="65.6334" x2="52.6126" y2="67.9267" gradientUnits="userSpaceOnUse">
<stop stop-color="#A71100"/>
<stop offset="0.39" stop-color="#D83303"/>
<stop offset="1" stop-color="#EC5C11"/>
</linearGradient>
<linearGradient id="paint10_linear_531_24733" x1="106.903" y1="202.86" x2="22.2988" y2="203.14" gradientUnits="userSpaceOnUse">
<stop stop-color="#FFA274"/>
<stop offset="1" stop-color="#E47745"/>
</linearGradient>
<linearGradient id="paint11_linear_531_24733" x1="419.304" y1="332.741" x2="439.911" y2="333.777" gradientUnits="userSpaceOnUse">
<stop stop-color="#A71100"/>
<stop offset="0.39" stop-color="#D83303"/>
<stop offset="1" stop-color="#EC5C11"/>
</linearGradient>
<linearGradient id="paint12_linear_531_24733" x1="389.189" y1="316.861" x2="469.018" y2="310.997" gradientUnits="userSpaceOnUse">
<stop stop-color="#A71100"/>
<stop offset="0.39" stop-color="#D83303"/>
<stop offset="1" stop-color="#EC5C11"/>
</linearGradient>
<linearGradient id="paint13_linear_531_24733" x1="461.526" y1="50" x2="412.434" y2="50" gradientUnits="userSpaceOnUse">
<stop stop-color="#A71100"/>
<stop offset="0.39" stop-color="#D83303"/>
<stop offset="1" stop-color="#EC5C11"/>
</linearGradient>
<linearGradient id="paint14_linear_531_24733" x1="408.264" y1="94.1939" x2="488.093" y2="88.3297" gradientUnits="userSpaceOnUse">
<stop stop-color="#A71100"/>
<stop offset="0.39" stop-color="#D83303"/>
<stop offset="1" stop-color="#EC5C11"/>
</linearGradient>
<linearGradient id="paint15_linear_531_24733" x1="441.994" y1="65.6708" x2="462.467" y2="67.9642" gradientUnits="userSpaceOnUse">
<stop stop-color="#A71100"/>
<stop offset="0.39" stop-color="#D83303"/>
<stop offset="1" stop-color="#EC5C11"/>
</linearGradient>
<linearGradient id="paint16_linear_531_24733" x1="408.244" y1="202.83" x2="492.848" y2="203.11" gradientUnits="userSpaceOnUse">
<stop stop-color="#FFA274"/>
<stop offset="1" stop-color="#E47745"/>
</linearGradient>
<clipPath id="clip0_531_24733">
<rect width="442.239" height="299.33" fill="white" transform="translate(36.4365 50)"/>
</clipPath>
</defs>
</svg>
