<svg width="532" height="242" viewBox="0 0 532 242" fill="none" xmlns="http://www.w3.org/2000/svg">
<path d="M409.539 174.579C414.188 170.517 410.6 165.212 410.612 160.275C407.047 127.042 405.49 105.323 411.627 71.7108C412.4 69.4758 411.511 67.095 410.277 65.2195C410.762 61.2354 408.777 57.3484 404.682 55.2495C403.125 54.3943 401.187 53.753 399.284 53.4129C399.388 49.419 405.501 44.3076 399.595 41.5187C398.419 41.0134 397.381 39.0408 396.054 38.9145C393.228 38.7687 389.248 41.4021 389.018 44.2007C388.741 47.4755 391.105 49.0692 390.932 53.5489C385.834 54.579 380.828 58.1064 380.701 62.7027C377.852 65.1126 379.455 68.7469 379.87 71.7205C373.976 70.3406 369.488 67.0367 363.456 65.9386C362.36 68.9607 360.641 68.8441 361.587 65.5985C360.999 65.4916 360.41 65.3847 359.81 65.2778C354.77 75.8504 352.036 78.7462 354.85 66.7743C345.172 65.2001 335.275 63.9563 325.343 62.9845C324.789 66.3079 323.497 65.89 323.371 62.7902C309.482 62.7513 256.086 54.8705 251.183 64.8794C247.838 67.0658 244.377 62.0808 241.828 60.6135C225.044 61.284 208.134 62.6736 190.75 64.86C190.588 68.6984 189.446 69.1939 188.304 65.1807C186.724 65.3944 185.144 65.6179 183.563 65.8512C183.944 72.1966 182.791 73.5182 181.118 66.2204C171.301 67.7363 161.693 69.5729 152.453 71.7691C152.88 68.6401 154.622 65.2292 151.645 62.6736C151.519 58.0869 146.512 54.5595 141.425 53.5392C141.252 49.0595 143.617 47.4658 143.34 44.191C143.109 41.4118 140.179 38.7881 137.353 38.9339L136.603 39.0894C135.277 39.206 132.497 40.5081 132.497 40.5081C126.579 43.4039 132.947 49.2635 133.085 53.4226C126.245 54.4818 121.192 59.4182 122.092 65.307C120.823 67.2213 120.039 69.641 120.823 71.9051C127.398 107.976 125.218 134.544 120.396 170.226C121.227 171.985 122.3 173.656 123.753 175.085C124.399 179.234 128.886 182.596 134.769 183.607C134.908 185.657 134.746 187.698 134.146 189.68C128.506 199.262 145.647 200.467 148.404 192.926C149.015 188.942 143.317 188.495 143.086 183.422C147.504 182.46 151.772 179.827 152.972 175.969C156.04 175.075 159.051 174.123 162.119 173.19C169.41 170.964 178.869 168.671 185.628 168.273C185.928 164.716 187.912 158.74 190.946 164.93C193.368 165.464 195.998 164.327 198.398 164.949C201.57 163.608 205.515 164.609 208.941 164.298C244.043 163.696 280.782 160.441 317.845 165.27C320.233 149.061 325.251 146.885 320.937 165.581C322.402 165.736 324.109 165.902 325.562 166.067C325.931 154.571 328.596 159.313 327.719 166.31C335.113 167.155 342.173 168.01 348.99 169.06C349.544 168.38 350.282 167.68 351.309 167.593C351.551 167.369 351.978 167.359 352.174 167.573C353.466 167.68 353.72 169.264 354.643 169.964C363.086 170.741 370.827 173.763 379.386 175.949C380.574 179.807 384.853 182.45 389.283 183.422C389.052 188.495 387.184 189.855 386.215 193.917C387.806 200.612 406.551 199.446 400.91 189.904C400.91 189.904 397.461 185.657 397.6 183.607C403.264 182.645 407.601 179.496 408.512 175.561C408.87 175.26 409.216 174.939 409.55 174.589L409.539 174.579Z" fill="#3EEDFF"/>
<path d="M138.865 38.7397C144.356 38.6231 145.614 40.8775 145.683 42.4906C145.821 45.7362 143.41 47.3396 143.768 52.1109C144.137 56.8821 145.406 57.9024 146.629 61.527C147.309 63.5483 145.752 66.0165 140.411 66.4635C135.347 66.4829 133.236 64.2674 133.686 62.1878C134.494 58.4563 135.647 57.3194 135.474 52.5384C135.301 47.7575 132.729 46.4067 132.509 43.1611C132.394 41.5383 133.398 39.177 138.865 38.7397Z" fill="url(#paint0_linear_632_24)"/>
<path d="M139.869 53.7724C139.984 53.5003 140.284 46.9605 140.296 44.6575C140.296 43.3748 140.18 41.9657 139.223 42.1115C138.335 42.4905 138.219 43.8509 138.404 45.085C138.75 47.3006 139.719 53.5683 139.857 53.7821L139.869 53.7724Z" fill="#FFF5CC"/>
<g style="mix-blend-mode:multiply" opacity="0.15">
<path d="M135.474 52.5382C135.301 47.7573 132.728 46.4163 132.509 43.1609C132.429 42.024 132.913 40.5275 135.082 39.5752C132.371 41.0231 133.351 44.0161 135.37 47.077C136.985 49.5258 137.123 51.9843 135.197 56.7556C135.428 55.6478 135.555 54.3554 135.485 52.5285L135.474 52.5382Z" fill="#CC0631"/>
</g>
<path d="M134.897 39.692C134.897 39.692 134.921 39.6628 134.932 39.6531C135.878 39.2158 137.147 38.8854 138.877 38.7494C144.114 38.6328 145.498 40.6832 145.671 42.2768C144.702 39.828 140.596 38.0789 134.909 39.7017L134.897 39.692Z" fill="#FFF5CC"/>
<path d="M124.388 61.1187C124.342 62.0127 124.411 64.0242 124.411 64.0242L154.01 63.8785C154.01 63.8785 154.01 62.1973 153.987 60.973C153.953 55.502 147.297 51.1001 139.118 51.1389C130.94 51.1778 124.676 55.4729 124.388 61.1187Z" fill="url(#paint1_linear_632_24)"/>
<path d="M124.411 64.024C124.446 69.4949 131.102 73.8969 139.28 73.858C147.459 73.8191 154.045 69.3491 154.011 63.8782C153.976 58.4073 147.32 54.0053 139.142 54.0442C130.963 54.0831 124.377 58.5531 124.411 64.024Z" fill="url(#paint2_linear_632_24)"/>
<path d="M130.386 53.1116C132.808 51.8872 135.807 51.1584 139.129 51.1389C145.012 51.1098 150.088 53.3934 152.499 56.707C147.446 51.1681 137.561 50.0117 130.386 53.1116Z" fill="#FFF5CC"/>
<g style="mix-blend-mode:multiply" opacity="0.35">
<path d="M124.388 61.1185C124.549 57.8923 126.672 55.1132 129.983 53.3154C128.644 54.1706 128.494 56.1432 129.221 56.6679C129.221 56.6679 129.221 56.6874 129.21 56.6874C131.828 55.0743 135.3 54.0734 139.142 54.054C147.308 54.0151 153.964 58.4171 154.01 63.888C154.045 69.3589 147.447 73.8289 139.28 73.8678C131.101 73.9066 124.446 69.5047 124.411 64.0337C124.411 64.0337 124.342 62.0125 124.388 61.1282V61.1185Z" fill="#CC0631"/>
</g>
<path d="M139.337 58.2812C144.286 58.2618 148.346 60.9729 148.715 64.442H148.738L149.638 78.0464L129.659 78.3963L130.017 65.1125C130.017 65.1125 130.017 65.0445 130.017 65.0154C129.994 61.313 134.169 58.3006 139.349 58.2715L139.337 58.2812Z" fill="url(#paint3_linear_632_24)"/>
<path d="M398.119 38.7397C392.64 38.6231 391.371 40.8775 391.302 42.4906C391.164 45.7362 393.575 47.3396 393.217 52.1109C392.848 56.8821 391.579 57.9024 390.356 61.527C389.676 63.5483 391.233 66.0165 396.574 66.4635C401.638 66.4829 403.749 64.2674 403.299 62.1878C402.491 58.4563 401.338 57.3194 401.511 52.5384C401.684 47.7575 404.256 46.4067 404.475 43.1611C404.591 41.5383 403.587 39.177 398.119 38.7397Z" fill="url(#paint4_linear_632_24)"/>
<path d="M397.128 53.7724C397.013 53.5003 396.713 46.9605 396.701 44.6575C396.701 43.3748 396.817 41.9657 397.774 42.1115C398.662 42.4905 398.778 43.8509 398.593 45.085C398.247 47.3006 397.278 53.5683 397.14 53.7821L397.128 53.7724Z" fill="#FFF5CC"/>
<g style="mix-blend-mode:multiply" opacity="0.25">
<path d="M401.511 52.5382C401.684 47.7573 404.256 46.4163 404.475 43.1609C404.556 42.024 404.072 40.5275 401.903 39.5752C404.614 41.0231 403.633 44.0161 401.615 47.077C400 49.5258 399.861 51.9843 401.788 56.7556C401.557 55.6478 401.43 54.3554 401.499 52.5285L401.511 52.5382Z" fill="#CC0631"/>
</g>
<path d="M402.099 39.692C402.099 39.692 402.076 39.6628 402.065 39.6531C401.119 39.2158 399.85 38.8854 398.119 38.7494C392.882 38.6328 391.498 40.6832 391.325 42.2768C392.294 39.828 396.401 38.0789 402.088 39.7017L402.099 39.692Z" fill="#FFF5CC"/>
<path d="M412.596 61.1187C412.642 62.0127 412.573 64.0242 412.573 64.0242L382.974 63.8785C382.974 63.8785 382.974 62.1973 382.997 60.973C383.031 55.502 389.687 51.1001 397.866 51.1389C406.044 51.1778 412.308 55.4729 412.596 61.1187Z" fill="url(#paint5_linear_632_24)"/>
<path d="M412.573 64.024C412.539 69.4949 405.883 73.8969 397.704 73.858C389.526 73.8191 382.939 69.3491 382.974 63.8782C383.008 58.4073 389.664 54.0053 397.843 54.0442C406.021 54.0831 412.608 58.5531 412.573 64.024Z" fill="url(#paint6_linear_632_24)"/>
<path d="M406.609 53.1116C404.187 51.8872 401.188 51.1584 397.865 51.1389C391.982 51.1098 386.907 53.3934 384.496 56.707C389.549 51.1681 399.434 50.0117 406.609 53.1116Z" fill="#FFF5CC"/>
<g style="mix-blend-mode:multiply" opacity="0.35">
<path d="M412.596 61.1185C412.435 57.8923 410.312 55.1132 407.002 53.3154C408.34 54.1706 408.49 56.1432 407.763 56.6679C407.763 56.6679 407.763 56.6874 407.775 56.6874C405.156 55.0743 401.684 54.0734 397.843 54.054C389.676 54.0151 383.02 58.4171 382.974 63.888C382.939 69.3589 389.537 73.8289 397.704 73.8678C405.883 73.9066 412.539 69.5047 412.573 64.0337C412.573 64.0337 412.642 62.0125 412.596 61.1282V61.1185Z" fill="#CC0631"/>
</g>
<path d="M397.648 58.2812C392.699 58.2618 388.639 60.9729 388.27 64.442H388.246L387.347 78.0464L407.326 78.3963L406.968 65.1125C406.968 65.1125 406.968 65.0445 406.968 65.0154C406.991 61.313 402.815 58.3006 397.636 58.2715L397.648 58.2812Z" fill="url(#paint7_linear_632_24)"/>
<path d="M408.686 77.4536C395.155 72.6629 380.124 68.9411 364.39 66.0939C363.294 69.116 361.576 68.9994 362.522 65.7538C361.933 65.6469 361.345 65.54 360.745 65.4331C355.704 76.0057 354.355 76.8122 357.169 64.8306C347.491 63.2564 337.594 62.0126 327.662 61.0408C327.108 64.3642 325.816 63.9463 325.69 60.8465C305.48 59.0682 285.916 58.1645 266.41 58.2034C263.895 58.767 261.115 58.3491 258.566 58.9322C257.17 59.2528 255.798 60.0497 254.932 61.0603C254.413 61.6628 253.952 62.2944 253.49 62.9357C253.167 63.3925 252.764 63.5479 252.106 63.5382C250.261 63.5188 248.588 62.1583 247.308 61.1866C246.246 60.3801 245.243 59.4569 244.135 58.6698C227.34 59.3403 210.441 60.7299 193.057 62.9163C192.896 66.7547 191.754 67.2503 190.612 63.237C189.032 63.4508 187.451 63.6743 185.871 63.9075C186.252 70.2529 185.098 71.5745 183.425 64.2767C163.908 67.2891 145.175 71.5745 128.61 77.4341C136.777 111.639 126.511 153.609 123.454 164.939C122.946 166.815 122.692 168.243 122.692 168.243C132.37 188.873 162.697 167.884 185.848 166.523C186.586 164.347 186.563 161.956 189.17 160.615C191.154 159.546 192.273 161.266 193.23 162.957C194.476 163.307 196.045 162.996 197.279 162.879C198.433 162.772 199.609 162.743 200.682 162.977C201.628 162.462 202.839 162.248 203.981 162.335C206.415 162.345 208.826 162.335 211.225 162.325C211.398 162.199 211.571 162.083 211.756 161.976C212.552 161.509 213.555 161.305 214.513 161.431C214.997 161.5 215.424 161.674 215.816 161.888C216.22 161.976 216.612 162.102 216.993 162.248C251.206 161.636 282.94 158.448 318.307 163.239C320.995 148.663 323.613 148.692 321.398 163.55C322.863 163.705 324.328 163.861 325.782 164.026C326.036 157.593 327.697 158.584 327.939 164.269C335.333 165.114 342.542 166.076 349.371 167.126C349.925 166.446 350.663 165.746 351.69 165.659C351.932 165.435 352.359 165.425 352.555 165.639C353.847 165.746 354.112 167.33 355.024 168.03C376.906 170.022 406.748 186.988 414.58 168.253C414.58 168.253 399.146 117.305 408.651 77.4341L408.686 77.4536Z" fill="url(#paint8_linear_632_24)"/>
<path style="mix-blend-mode:multiply" opacity="0.35" d="M408.686 77.4536C398.661 73.9067 387.807 70.9429 376.468 68.4941C376.422 68.533 376.375 68.5622 376.341 68.601C382.847 81.3308 382.835 96.6261 382.835 117.995C382.835 139.363 379.409 161.023 372.165 171.246L372.442 171.547C390.448 176.28 408.732 182.334 414.615 168.273C414.615 168.273 399.181 117.324 408.686 77.4536Z" fill="url(#paint9_linear_632_24)"/>
<g style="mix-blend-mode:multiply" opacity="0.35">
<path d="M408.686 77.4536C395.155 72.6629 380.125 68.9411 364.39 66.0939C363.295 69.116 361.576 68.9994 362.522 65.7538C361.933 65.6469 361.345 65.54 360.745 65.4331C355.704 76.0057 354.355 76.8122 357.169 64.8306C347.491 63.2564 337.594 62.0126 327.662 61.0408C327.109 64.3642 325.817 63.9463 325.69 60.8465C305.48 59.0682 285.916 58.1645 266.41 58.2034C263.895 58.767 261.115 58.3491 258.566 58.9322C257.17 59.2528 255.798 60.0497 254.933 61.0603C254.413 61.6628 253.952 62.2944 253.491 62.9357C253.168 63.3925 252.764 63.5479 252.106 63.5382C250.261 63.5188 248.588 62.1583 247.308 61.1866C246.247 60.3801 245.243 59.4569 244.136 58.6698C227.34 59.3403 210.441 60.7299 193.058 62.9163C192.896 66.7547 191.754 67.2503 190.612 63.237C189.032 63.4508 187.451 63.6743 185.871 63.9075C186.252 70.2529 185.098 71.5745 183.426 64.2767C163.908 67.2891 145.175 71.5745 128.61 77.4341C138.138 117.314 122.704 168.273 122.704 168.273C132.382 188.903 162.708 167.913 185.86 166.553C186.598 164.376 186.575 161.985 189.182 160.644C191.166 159.575 192.285 161.295 193.242 162.986C194.488 163.336 196.057 163.025 197.291 162.909C198.444 162.802 199.621 162.772 200.694 163.006C201.64 162.491 202.851 162.277 203.993 162.364C206.427 162.374 208.838 162.364 211.237 162.355C211.41 162.228 211.583 162.112 211.768 162.005C212.564 161.538 213.567 161.334 214.525 161.461C215.009 161.529 215.436 161.704 215.828 161.917C216.232 162.005 216.624 162.131 217.005 162.277C251.218 161.665 282.952 158.477 318.319 163.268C321.006 148.692 323.625 148.721 321.41 163.579C322.875 163.735 324.34 163.89 325.794 164.055C326.047 157.622 327.708 158.613 327.951 164.298C335.345 165.144 342.554 166.106 349.383 167.155C349.937 166.475 350.675 165.775 351.702 165.688C351.944 165.464 352.371 165.454 352.567 165.668C353.859 165.775 354.124 167.359 355.035 168.059C376.918 170.051 406.759 187.017 414.592 168.282C414.592 168.282 399.158 117.334 408.663 77.4633L408.686 77.4536ZM378.648 169.643C377.725 169.341 376.733 169.05 375.707 168.778C375.649 168.418 375.51 168.068 375.303 167.777C374.807 167.058 374.08 166.514 373.722 165.727C372.973 164.045 373.63 162.083 372.419 160.518C371.323 159.109 369.097 158.39 367.47 159.653C366.836 160.149 366.478 160.839 365.936 161.393C365.279 162.053 364.091 161.859 363.329 162.481C362.66 163.025 362.453 163.803 362.314 164.551C362.222 165.046 362.06 165.668 361.68 166.086C359.972 165.833 358.346 165.6 356.869 165.406C356.95 163.929 356.247 162.772 354.805 162.325C354.759 162.053 354.712 161.781 354.678 161.509C354.505 160.275 354.389 159.031 354.343 157.787C354.343 157.593 354.343 157.389 354.343 157.195C354.355 156.884 354.366 156.573 354.389 156.272C354.436 155.63 354.447 154.999 354.47 154.367C354.47 154.289 354.493 154.202 354.505 154.124C354.747 152.326 354.932 150.529 355.012 148.721C355.058 147.749 355.07 146.778 355.024 145.806C354.978 144.941 354.735 144.134 354.597 143.279C354.574 143.163 354.343 143.192 354.355 143.308C354.366 144.076 354.355 144.844 354.32 145.621C354.309 145.631 354.297 145.631 354.286 145.65C353.593 146.962 353.57 148.41 353.317 149.8C353.063 151.199 352.971 152.618 352.844 154.027C352.705 155.523 352.544 157.01 352.209 158.477C352.048 159.158 351.886 159.838 351.702 160.508C351.598 160.897 351.425 161.266 351.321 161.645C351.24 161.947 351.206 162.228 351.125 162.51C350.26 162.879 349.556 163.521 349.014 164.492H349.002V164.473C349.002 164.065 349.002 163.657 349.014 163.249C349.037 162.325 349.129 161.412 349.199 160.489C349.348 158.652 349.429 156.787 349.925 154.989C349.983 154.775 349.591 154.678 349.533 154.901C348.979 156.719 348.264 158.487 347.907 160.343C347.734 161.237 347.63 162.141 347.549 163.045C347.514 163.462 347.48 163.88 347.457 164.298C342.52 163.725 334.249 163.249 329.958 162.724C330.062 159.673 327.466 153.862 324.467 158.74C324.421 155.329 324.686 148.896 322.575 148.566C319.876 148.148 317.465 153.172 315.885 160.09C312.989 159.76 309.921 159.41 306.749 159.07C306.61 158.895 306.414 158.749 306.149 158.672C305.884 158.594 305.607 158.516 305.342 158.439C305.249 158.351 305.169 158.244 305.134 158.128C304.995 157.749 304.776 157.379 304.396 157.146C304.107 156.971 303.807 156.796 303.507 156.631C302.192 155.922 300.716 155.446 299.216 155.096C297.913 154.794 296.517 154.416 295.352 155.164C294.775 155.533 294.348 156.067 293.899 156.534C293.518 156.932 293.195 157.35 292.872 157.768C287.473 157.36 281.937 157.088 276.446 157.088C272.801 157.088 269.225 157.146 265.672 157.234C265.141 157.243 264.668 157.01 264.403 156.66C264.391 156.534 264.38 156.408 264.368 156.281C264.299 155.348 264.253 154.425 264.195 153.492C264.149 152.627 264.08 151.792 263.907 150.937C263.711 149.975 263.699 148.983 263.63 148.012C263.63 147.847 263.319 147.837 263.319 148.012C263.319 148.906 263.376 149.809 263.284 150.694C263.192 151.607 263.134 152.491 263.146 153.405C263.076 153.424 263.019 153.453 262.996 153.502C262.869 153.716 262.926 153.939 262.88 154.173C262.834 154.416 262.823 154.668 262.834 154.921C262.846 155.31 262.88 155.688 262.903 156.067V156.087C262.938 156.748 262.315 157.302 261.531 157.321C261.519 157.321 261.508 157.321 261.496 157.321C260.804 157.34 260.193 157.078 259.789 156.66C259.823 155.786 259.8 154.911 259.823 154.085C259.87 152.006 259.997 149.916 259.858 147.847C259.604 143.804 260.216 139.626 259.397 135.622C259.362 135.447 259.051 135.505 259.039 135.661C258.67 139.81 258.993 143.94 258.324 148.08C258.024 149.936 257.897 151.802 257.713 153.667C257.609 154.688 257.413 155.834 257.366 156.961C256.963 157.272 256.432 157.476 255.844 157.496C251.564 157.642 247.285 157.807 242.971 157.972C235.253 158.254 226.198 158.429 218.204 158.584C218.204 158.584 218.181 158.575 218.17 158.575C216.566 156.563 215.574 154.124 214.998 151.665C214.986 151.5 214.963 151.335 214.951 151.17C214.663 147.915 214.628 144.62 213.856 141.414C213.786 141.112 213.302 141.219 213.267 141.482C213.048 143.367 213.083 145.223 213.175 147.108C213.267 148.974 213.267 150.849 213.452 152.715C213.475 152.958 213.521 153.211 213.556 153.453C213.521 153.862 213.486 154.27 213.417 154.678C213.256 155.63 213.013 156.544 212.725 157.457C211.871 158.225 210.776 159.245 209.957 160.09C209.092 160.09 195.284 160.518 195.284 160.518C194.2 158.361 192.181 154.882 189.585 155.805C186.471 156.913 184.902 162.617 184.198 164.492C183.31 164.619 182.387 164.735 181.43 164.862C181.28 164.716 181.095 164.609 180.807 164.56C179.838 164.415 178.996 164.055 178.35 163.414C177.612 162.695 177.473 161.704 176.747 160.965C176.043 160.256 174.924 159.906 173.886 160.295C172.998 160.625 172.721 161.344 172.421 162.063C172.086 162.87 171.371 162.879 170.472 162.967C169.595 163.054 168.718 163.2 168.072 163.754C167.519 164.23 167.253 164.871 167.08 165.513C167.011 165.668 166.965 165.833 166.953 166.008C166.873 166.387 166.78 166.834 166.584 167.223C164.058 167.777 161.555 168.447 159.179 169.293C151.196 172.111 147.09 174.9 137.342 174.9C130.283 174.9 125.726 169.167 123.535 165.552C126.107 156.408 142.568 116.595 135.543 80.6117C142.21 78.4253 150.146 75.4518 158.509 72.7212C158.613 72.8183 158.717 72.9155 158.821 73.0127C158.867 73.1196 158.902 73.2168 158.948 73.3237C159.167 73.8581 159.513 74.3537 159.917 74.8104C160.69 75.685 161.809 76.1223 163.031 76.4041C163.562 76.5207 164.242 76.7539 164.762 76.511C165.396 76.2097 165.384 75.5295 165.442 74.9951C165.511 74.2565 165.511 73.5083 165.442 72.7698C165.419 72.4977 165.511 72.2159 165.754 72.041C166.088 71.798 166.526 71.6911 166.896 71.4773C167.449 71.1469 167.784 70.7097 167.807 70.1266C167.807 70.0489 167.784 69.9711 167.749 69.8934C172.479 68.5621 177.243 67.4057 181.891 66.6186C182.976 68.9411 187.521 77.2203 187.521 77.2203C187.521 77.2203 189.066 66.2882 189.389 65.6663C189.701 65.7052 194.176 73.071 194.176 73.071C194.176 73.071 194.707 67.5029 196.045 64.5488C210.81 62.7997 227.698 61.7211 242.244 61.07C242.567 61.3324 248.957 64.3642 252.741 66.1522C255.302 78.2407 255.163 79.6011 255.405 82.5455C256.248 79.776 256.328 67.4252 257.932 63.1398C258.578 62.0029 259.108 61.0797 259.143 61.07C259.731 60.9339 270.217 61.3421 271.786 61.07C271.786 61.07 275.731 61.1477 281.614 61.3129C281.614 61.7696 281.556 62.2264 281.521 62.6831C281.441 63.6743 281.36 64.6654 281.302 65.6566C281.244 66.6478 281.187 67.639 281.175 68.6301C281.175 69.6699 281.337 70.6902 281.314 71.73C281.314 71.8466 281.533 71.8466 281.533 71.73C281.567 70.7291 281.81 69.7476 281.902 68.7565C281.994 67.7653 282.063 66.7741 282.156 65.7829C282.236 64.8306 282.329 63.8783 282.421 62.9357C282.479 62.4207 282.49 61.8863 282.606 61.3809C282.606 61.3712 282.606 61.3615 282.606 61.3518C286.551 61.4684 291.245 61.6142 296.171 61.8085C296.079 62.2847 296.402 62.8386 297.094 62.79C297.659 62.7511 298.224 62.7414 298.79 62.7317C298.813 62.7317 298.824 62.7511 298.847 62.7511C299.643 63.0329 300.485 63.2467 301.362 63.2467C301.95 63.2467 302.492 63.0912 303.035 62.9649C304.246 63.0815 305.445 63.237 306.657 63.3827C307.36 63.6645 308.052 63.9852 308.71 64.2865C309.748 64.7723 310.694 65.4623 311.917 65.5692C313.266 65.6858 314.639 65.229 315.919 64.9375C317.373 64.6071 318.815 64.2865 320.268 63.9561C320.73 63.8492 320.995 63.5382 321.076 63.1884C321.998 63.2661 322.887 63.3439 323.717 63.4313C324.905 65.2776 326.601 68.2997 327.489 69.9323C327.535 70.5833 327.57 71.2344 327.605 71.8855C327.639 72.6629 327.489 73.5569 327.847 74.2954C327.881 74.3537 327.939 74.412 327.997 74.4509C327.997 74.4509 327.997 74.4703 327.997 74.48C327.997 74.9465 327.962 75.4323 327.997 75.8988C328.031 76.3458 328.251 76.715 328.343 77.1426C328.366 77.2495 328.574 77.2495 328.597 77.1426C328.689 76.715 328.908 76.3361 328.954 75.8988C329 75.4906 329 75.0825 329.023 74.6841C329.035 74.4897 329.058 74.2954 329.081 74.101C329.173 73.4403 329.312 72.7892 329.358 72.1284C329.381 71.7786 329.393 71.4288 329.404 71.0789C329.485 70.5056 329.554 69.942 329.646 69.3784C329.773 68.5232 330.015 67.6584 329.889 66.813C329.865 66.6867 329.773 66.5798 329.658 66.502C330.05 65.5011 330.465 64.5391 330.857 63.8589C337.271 64.5488 349.21 65.5011 355.22 66.3854C354.401 70.7874 352.394 77.9491 354.216 78.2407C357.308 78.746 358.854 72.2062 360.907 68.5718C361.034 68.7953 361.218 69.0091 361.414 69.2035C361.437 69.3492 361.46 69.5047 361.484 69.6505C361.564 70.1752 361.645 70.7 361.726 71.2247C361.795 71.7494 361.818 72.2742 361.818 72.7989C361.818 73.071 361.795 73.3431 361.83 73.6152C361.864 73.897 361.956 74.1399 361.933 74.4314C361.922 74.6064 362.268 74.6549 362.303 74.4703C362.36 74.1885 362.51 73.965 362.602 73.7026C362.695 73.45 362.718 73.1779 362.741 72.9155C362.775 72.6143 362.787 72.3228 362.81 72.0215C362.868 71.866 362.937 71.7008 362.995 71.5454C363.133 71.1664 363.248 70.7097 363.502 70.3696C363.641 70.1849 363.791 70.0197 363.917 69.8351C363.929 69.8059 363.952 69.7865 363.964 69.7671C364.621 69.4853 365.313 68.8731 365.971 67.7361C385.039 71.9438 391.544 77.2592 401.845 80.6312C394.786 116.751 411.074 156.689 413.6 165.629C411.962 168.525 408.905 179.691 378.648 169.652V169.643Z" fill="#771D62"/>
</g>
<g style="mix-blend-mode:multiply" opacity="0.35">
<path d="M307.475 153.988C307.406 153.92 307.348 153.842 307.279 153.774C307.164 153.667 307.025 153.599 306.875 153.551C306.772 153.502 306.668 153.483 306.552 153.483C306.379 153.454 306.218 153.454 306.045 153.502C305.941 153.541 305.837 153.57 305.745 153.609C305.699 153.629 305.653 153.658 305.606 153.697C305.549 153.706 305.491 153.697 305.433 153.726C305.353 153.745 305.272 153.784 305.214 153.833C305.099 153.891 305.018 153.969 304.949 154.076C304.914 154.144 304.88 154.212 304.845 154.28C304.799 154.425 304.799 154.581 304.845 154.736C304.845 154.746 304.845 154.765 304.857 154.775C304.868 154.804 304.926 154.95 304.984 155.018C305.03 155.067 305.099 155.144 305.145 155.193C305.145 155.193 305.145 155.203 305.157 155.212C305.157 155.212 305.168 155.212 305.18 155.222C305.214 155.251 305.272 155.281 305.295 155.3C305.318 155.319 305.376 155.349 305.41 155.378C305.422 155.378 305.433 155.397 305.457 155.397C305.526 155.426 305.595 155.446 305.664 155.465C305.722 155.494 305.768 155.533 305.826 155.553C305.918 155.601 306.022 155.621 306.137 155.621C306.299 155.65 306.472 155.65 306.633 155.601C306.633 155.601 306.645 155.601 306.656 155.601C306.76 155.562 306.852 155.533 306.956 155.494C306.968 155.494 306.979 155.494 306.991 155.475C306.991 155.475 306.991 155.475 307.002 155.475C307.268 155.31 307.221 155.358 307.371 155.193C307.487 155.086 307.556 154.97 307.602 154.824C307.66 154.629 307.66 154.445 307.602 154.25C307.567 154.163 307.51 154.076 307.475 153.988Z" fill="#771D62"/>
</g>
<g style="mix-blend-mode:multiply" opacity="0.35">
<path d="M341.077 67.8142C341.019 67.7753 340.95 67.7365 340.892 67.6879C340.789 67.6296 340.673 67.6004 340.546 67.5907C340.419 67.5713 340.293 67.5713 340.177 67.6004C340.143 67.6004 340.108 67.6296 340.073 67.6393C340.039 67.6393 340.004 67.6393 339.97 67.649C339.958 67.649 339.935 67.649 339.923 67.6587C339.854 67.6781 339.785 67.7073 339.716 67.7365C339.67 67.7656 339.624 67.7948 339.577 67.8239C339.508 67.8725 339.462 67.9405 339.439 68.0085C339.416 68.0474 339.404 68.096 339.393 68.1446C339.393 68.1446 339.393 68.164 339.381 68.164C339.358 68.2223 339.347 68.2903 339.347 68.3487C339.347 68.4167 339.358 68.4847 339.404 68.543C339.427 68.611 339.474 68.6596 339.531 68.7082C339.577 68.7373 339.612 68.7568 339.658 68.7859C339.658 68.7859 339.681 68.7859 339.693 68.7859C339.716 68.8248 339.739 68.8637 339.773 68.8928C339.854 68.9706 339.958 69.0289 340.073 69.058C340.189 69.1066 340.304 69.126 340.431 69.126C340.558 69.126 340.685 69.1066 340.789 69.058C340.904 69.0289 341.008 68.9706 341.089 68.8928C341.135 68.8345 341.181 68.7859 341.238 68.7373C341.319 68.611 341.365 68.4847 341.365 68.3389C341.365 68.2709 341.342 68.2029 341.331 68.1252C341.285 67.9891 341.204 67.8725 341.089 67.7753L341.077 67.8142Z" fill="#771D62"/>
</g>
<g style="mix-blend-mode:multiply" opacity="0.35">
<path d="M365.347 79.2415C365.22 79.1443 365.081 79.086 364.908 79.0471C364.735 78.9986 364.562 78.9986 364.401 79.0277C364.228 79.0277 364.066 79.0763 363.928 79.154C363.905 79.1638 363.882 79.1832 363.87 79.1929C363.87 79.1929 363.87 79.1929 363.847 79.1929C363.674 79.1929 363.513 79.2318 363.363 79.2998C363.247 79.3484 363.155 79.4164 363.097 79.5136C363.017 79.5913 362.959 79.6885 362.924 79.7857C362.867 79.9217 362.855 80.0675 362.832 80.2132C362.832 80.2521 362.832 80.2813 362.832 80.3201C362.832 80.3979 362.855 80.5048 362.878 80.5728C362.878 80.5728 362.878 80.5922 362.878 80.6019C362.878 80.6214 362.89 80.6408 362.901 80.6602C362.947 80.7671 362.994 80.874 363.051 80.9712C363.074 81.0003 363.086 81.0392 363.12 81.0684C363.167 81.1364 363.224 81.1947 363.282 81.253C363.328 81.3307 363.386 81.4085 363.49 81.4959C363.57 81.5542 363.674 81.6125 363.755 81.6708C363.766 81.6806 363.789 81.6903 363.801 81.7C363.939 81.7777 364.112 81.836 364.274 81.8846C364.378 81.8943 364.493 81.9138 364.597 81.9235C364.77 81.9235 364.92 81.9041 365.07 81.836C365.174 81.8069 365.266 81.768 365.335 81.7C365.474 81.632 365.577 81.5348 365.647 81.4085C365.75 81.2821 365.82 81.1267 365.877 80.9712C365.947 80.8157 365.958 80.6505 365.958 80.4853C365.958 80.1452 365.854 79.8343 365.67 79.5427C365.589 79.4164 365.474 79.3192 365.335 79.2415H365.347Z" fill="#771D62"/>
</g>
<g style="mix-blend-mode:multiply" opacity="0.35">
<path d="M365.082 156.097C365.082 156.097 364.874 156.019 364.828 156.01C364.805 156.01 364.574 155.98 364.551 155.98C364.493 155.98 364.436 155.99 364.389 156C364.343 156 364.274 156 364.228 156.019C364.182 156.029 364.136 156.048 364.101 156.058C364.067 156.068 364.02 156.087 363.974 156.107C363.917 156.146 363.859 156.185 363.801 156.223C363.72 156.291 363.651 156.369 363.617 156.457C363.582 156.515 363.559 156.573 363.559 156.641C363.559 156.641 363.559 156.661 363.559 156.67C363.559 156.729 363.536 156.797 363.524 156.865C363.524 156.894 363.547 156.923 363.547 156.952C363.547 156.952 363.547 156.952 363.536 156.962C363.49 157.02 363.467 157.079 363.455 157.137L363.421 157.205C363.421 157.205 363.409 157.292 363.397 157.331C363.397 157.36 363.409 157.428 363.421 157.467C363.421 157.467 363.421 157.467 363.421 157.477C363.421 157.477 363.421 157.487 363.421 157.496C363.432 157.545 363.467 157.594 363.49 157.632C363.49 157.632 363.49 157.642 363.49 157.652C363.524 157.691 363.559 157.73 363.594 157.768C363.605 157.778 363.617 157.788 363.628 157.807C363.674 157.846 363.732 157.875 363.79 157.905C363.824 157.924 363.859 157.934 363.905 157.943C363.94 157.963 363.974 157.992 364.02 158.002C364.078 158.031 364.147 158.05 364.216 158.05C364.32 158.07 364.424 158.07 364.539 158.041C364.62 158.021 364.701 157.992 364.782 157.953C364.805 157.953 364.816 157.934 364.839 157.924C364.874 157.905 364.897 157.875 364.932 157.856C364.978 157.836 365.035 157.817 365.07 157.788C365.105 157.768 365.139 157.749 365.162 157.73C365.22 157.671 365.289 157.603 365.335 157.535C365.405 157.448 365.439 157.351 365.485 157.253C365.451 157.321 365.416 157.38 365.393 157.448C365.439 157.37 365.474 157.292 365.508 157.215C365.508 157.195 365.52 157.185 365.52 157.166C365.52 157.166 365.52 157.156 365.52 157.147C365.531 157.069 365.555 156.981 365.555 156.904C365.555 156.884 365.555 156.874 365.555 156.855C365.555 156.7 365.508 156.554 365.416 156.408C365.324 156.272 365.197 156.175 365.047 156.097H365.082Z" fill="#771D62"/>
</g>
<g style="mix-blend-mode:multiply" opacity="0.35">
<path d="M362.66 151.811C362.533 151.763 362.418 151.714 362.268 151.724L362.06 151.743C361.991 151.763 361.933 151.782 361.876 151.811C361.76 151.87 361.668 151.947 361.599 152.045C361.53 152.151 361.495 152.258 361.495 152.375C361.495 152.482 361.507 152.598 361.518 152.705C361.518 152.793 361.541 152.871 361.587 152.948C361.622 153.026 361.668 153.094 361.749 153.152C361.818 153.211 361.899 153.259 361.991 153.288C362.083 153.327 362.176 153.347 362.28 153.347C362.349 153.347 362.418 153.327 362.476 153.327C362.603 153.298 362.718 153.24 362.81 153.162C362.845 153.123 362.891 153.075 362.925 153.036C362.995 152.939 363.029 152.832 363.029 152.715C363.029 152.608 363.041 152.492 363.052 152.385C363.052 152.268 363.018 152.151 362.949 152.054C362.879 151.957 362.787 151.879 362.672 151.821L362.66 151.811Z" fill="#771D62"/>
</g>
<g style="mix-blend-mode:multiply" opacity="0.35">
<path d="M340.674 159.76C340.674 159.76 340.662 159.741 340.651 159.731C340.651 159.731 340.651 159.721 340.651 159.711C340.628 159.692 340.616 159.673 340.593 159.653C340.582 159.634 340.559 159.614 340.536 159.595C340.489 159.556 340.455 159.527 340.409 159.488C340.339 159.43 340.27 159.391 340.178 159.362C340.097 159.323 340.005 159.303 339.913 159.313C339.82 159.313 339.728 159.323 339.647 159.362C339.555 159.381 339.486 159.43 339.417 159.488C339.382 159.527 339.347 159.566 339.301 159.605C339.232 159.692 339.209 159.799 339.209 159.906C339.209 159.954 339.221 160.013 339.232 160.061C339.267 160.158 339.324 160.246 339.417 160.324L339.555 160.44C339.555 160.44 339.647 160.499 339.693 160.537C339.693 160.537 339.705 160.537 339.717 160.537C339.728 160.537 339.74 160.547 339.751 160.557C339.774 160.567 339.809 160.576 339.832 160.586L339.982 160.644C340.063 160.664 340.155 160.673 340.236 160.654C340.293 160.654 340.351 160.644 340.397 160.615C340.478 160.596 340.547 160.557 340.605 160.499C340.639 160.46 340.674 160.421 340.709 160.392C340.732 160.353 340.755 160.304 340.778 160.265C340.801 160.197 340.812 160.12 340.778 160.052C340.778 159.984 340.743 159.915 340.697 159.847C340.685 159.828 340.674 159.799 340.662 159.779L340.674 159.76Z" fill="#771D62"/>
</g>
<g style="mix-blend-mode:multiply" opacity="0.35">
<path d="M172.41 125.06C172.536 125.05 172.64 125.04 172.756 125.001C173.021 124.914 173.125 124.875 173.332 124.739C173.517 124.622 173.632 124.525 173.759 124.35C173.759 124.35 173.759 124.34 173.759 124.331C173.817 124.292 173.863 124.253 173.909 124.224C174.001 124.146 174.094 124.049 174.163 123.952C174.324 123.748 174.382 123.495 174.394 123.242C174.394 123.194 174.394 123.155 174.394 123.106C174.382 122.98 174.359 122.844 174.324 122.718C174.29 122.601 174.221 122.484 174.163 122.368C174.14 122.319 174.117 122.271 174.082 122.232C173.978 122.076 173.84 121.93 173.69 121.814C173.448 121.62 173.194 121.503 172.883 121.406C172.686 121.347 172.456 121.318 172.237 121.328C171.706 121.357 171.221 121.513 170.841 121.833C170.702 121.95 170.575 122.086 170.472 122.232C170.402 122.348 170.345 122.465 170.287 122.591C170.264 122.63 170.252 122.669 170.241 122.708C170.137 123.048 170.137 123.417 170.241 123.757C170.287 123.884 170.356 124 170.414 124.117C170.437 124.156 170.46 124.195 170.483 124.234C170.564 124.34 170.656 124.438 170.76 124.535C170.795 124.564 170.829 124.593 170.875 124.622C170.979 124.7 171.129 124.797 171.268 124.855C171.383 124.904 171.51 124.953 171.637 124.991C171.671 124.991 171.694 125.001 171.729 125.011C172.017 125.06 172.133 125.06 172.41 125.03V125.06Z" fill="#771D62"/>
</g>
<g style="mix-blend-mode:multiply" opacity="0.35">
<path d="M169.571 127.547C169.571 127.547 169.548 127.547 169.537 127.537C169.433 127.44 169.295 127.372 169.145 127.333C168.995 127.294 168.833 127.294 168.683 127.333C168.533 127.372 168.406 127.431 168.302 127.518C168.268 127.547 168.233 127.576 168.187 127.605C168.118 127.664 168.06 127.732 168.037 127.8C167.991 127.878 167.968 127.955 167.98 128.043C167.98 128.101 167.991 128.15 168.003 128.208C168.037 128.315 168.095 128.402 168.187 128.48C168.222 128.509 168.256 128.538 168.302 128.567C168.406 128.655 168.545 128.723 168.683 128.752C168.833 128.791 168.995 128.791 169.145 128.752C169.295 128.713 169.433 128.645 169.537 128.548C169.548 128.548 169.56 128.548 169.571 128.538C169.675 128.49 169.756 128.422 169.814 128.334C169.871 128.247 169.906 128.15 169.906 128.043C169.906 127.936 169.871 127.839 169.814 127.751C169.756 127.664 169.675 127.596 169.571 127.547Z" fill="#771D62"/>
</g>
<g style="mix-blend-mode:multiply" opacity="0.35">
<path d="M164.172 119.958L163.976 119.832C163.896 119.802 163.826 119.773 163.746 119.754C163.619 119.725 163.492 119.715 163.365 119.744C163.238 119.744 163.123 119.783 163.007 119.841C162.996 119.841 162.984 119.851 162.961 119.861C162.961 119.861 162.95 119.861 162.938 119.861C162.892 119.88 162.904 119.88 162.834 119.929C162.719 120.007 162.661 120.036 162.581 120.162C162.546 120.23 162.511 120.288 162.477 120.356C162.477 120.356 162.477 120.366 162.477 120.376C162.477 120.386 162.477 120.395 162.465 120.415C162.419 120.551 162.419 120.696 162.465 120.833C162.511 120.969 162.592 121.085 162.708 121.182C162.823 121.28 162.961 121.348 163.123 121.386C163.284 121.425 163.457 121.425 163.619 121.386C163.723 121.357 163.849 121.328 163.93 121.28C163.999 121.241 164.057 121.192 164.126 121.153C164.172 121.095 164.23 121.046 164.276 120.988C164.276 120.988 164.276 120.978 164.276 120.969C164.276 120.959 164.288 120.939 164.299 120.93C164.334 120.862 164.369 120.803 164.392 120.735C164.426 120.628 164.438 120.522 164.403 120.415C164.403 120.347 164.38 120.279 164.334 120.211C164.299 120.113 164.23 120.026 164.138 119.958H164.172Z" fill="#771D62"/>
</g>
<g style="mix-blend-mode:multiply" opacity="0.35">
<path d="M158.243 77.7549C158.462 77.5605 158.497 77.269 158.289 77.0455C158.105 76.8414 157.736 76.754 157.47 76.9095C157.366 76.9678 157.274 77.0358 157.182 77.0941C157.228 77.065 157.274 77.0358 157.32 77.0066C157.113 77.1233 156.94 77.2399 156.813 77.4245C156.732 77.5411 156.663 77.6771 156.605 77.8132C156.444 77.9687 156.351 78.163 156.34 78.3768C156.34 78.542 156.409 78.6975 156.524 78.8238C156.524 78.9015 156.536 78.9793 156.559 79.0473C156.617 79.2805 156.87 79.4749 157.136 79.5332C157.286 79.5623 157.436 79.5623 157.574 79.5332C157.713 79.504 157.839 79.436 157.943 79.3485C158.036 79.2902 158.116 79.2222 158.197 79.1542C158.347 79.0084 158.405 78.921 158.485 78.7363C158.52 78.6392 158.543 78.5323 158.543 78.4254C158.543 78.3185 158.52 78.2116 158.485 78.1047C158.428 77.9687 158.359 77.8521 158.243 77.7452V77.7549Z" fill="#771D62"/>
</g>
<g style="mix-blend-mode:multiply" opacity="0.35">
<path d="M175.2 156.7C175.096 156.466 174.992 156.301 174.785 156.117C174.658 156 174.496 155.893 174.323 155.835C174.185 155.786 174.035 155.728 173.885 155.699C173.735 155.67 173.574 155.65 173.412 155.64C173.251 155.631 173.101 155.64 172.928 155.67C172.893 155.67 172.858 155.679 172.824 155.689C172.766 155.699 172.731 155.718 172.674 155.738C172.535 155.786 172.42 155.835 172.328 155.932C172.235 156.01 172.166 156.097 172.12 156.204C172.062 156.301 172.028 156.408 172.039 156.525C172.051 156.748 172.143 156.962 172.328 157.117C172.385 157.166 172.455 157.205 172.524 157.244C172.547 157.428 172.57 157.535 172.674 157.7C172.731 157.788 172.801 157.866 172.881 157.934C173.043 158.07 173.274 158.186 173.493 158.225C173.758 158.274 173.966 158.274 174.231 158.225C174.473 158.177 174.669 158.07 174.854 157.934C175.027 157.798 175.177 157.574 175.223 157.38C175.246 157.283 175.281 157.156 175.269 157.049C175.269 156.962 175.246 156.865 175.223 156.768C175.223 156.748 175.212 156.719 175.2 156.7Z" fill="#771D62"/>
</g>
<g style="mix-blend-mode:multiply" opacity="0.35">
<path d="M297.774 66.2008C297.728 66.0356 297.624 65.8801 297.486 65.7635C297.428 65.7149 297.336 65.6566 297.29 65.6372C297.163 65.5594 297.013 65.54 296.863 65.5303C296.701 65.5303 296.551 65.5594 296.401 65.6274C296.321 65.6663 296.251 65.7149 296.194 65.7829C296.182 65.7926 296.182 65.8121 296.171 65.8218C296.148 65.8218 296.113 65.8218 296.09 65.8412C296.044 65.8509 296.009 65.8704 295.975 65.8995C295.917 65.9287 295.871 65.9676 295.848 66.0161C295.836 66.055 295.813 66.0842 295.801 66.123C295.778 66.2008 295.778 66.2785 295.801 66.3563C295.825 66.4437 295.836 66.5409 295.848 66.6283C295.859 66.7158 295.894 66.8033 295.917 66.9004C295.917 66.8713 295.917 66.8324 295.905 66.8033C295.905 66.881 295.917 66.9587 295.963 67.0268C295.998 67.1045 296.044 67.1822 296.124 67.2405C296.182 67.2794 296.228 67.3086 296.286 67.3474C296.413 67.4057 296.54 67.4349 296.678 67.4349C296.863 67.4349 297.093 67.3863 297.243 67.2988C297.313 67.26 297.382 67.2114 297.439 67.1725C297.451 67.1725 297.463 67.1531 297.474 67.1434C297.543 67.0753 297.613 67.0073 297.659 66.9296C297.705 66.8518 297.751 66.7644 297.774 66.6866C297.774 66.6769 297.774 66.6575 297.774 66.6478C297.809 66.4437 297.82 66.4631 297.774 66.2591V66.2396V66.2008Z" fill="#771D62"/>
</g>
<path style="mix-blend-mode:multiply" opacity="0.35" d="M154.587 117.762C154.587 96.4031 154.99 82.4489 160.251 68.6113C149.142 71.0504 138.495 73.9656 128.632 77.4542C136.557 110.668 126.821 151.773 123.476 164.493C122.807 167.039 122.715 168.263 122.715 168.263C129.567 182.869 146.766 176.62 164.438 171.237C157.194 161.005 154.598 139.121 154.598 117.752L154.587 117.762Z" fill="url(#paint10_linear_632_24)"/>
<path d="M381.128 164.483C382.454 169.818 390.125 173.52 396.458 173.52C402.687 172.577 403.702 170.119 404.937 167.408C404.937 167.408 404.833 157.681 404.937 154.843C405.04 152.006 382.662 150.004 382.201 154.843L381.128 164.483Z" fill="#A145A6"/>
<g style="mix-blend-mode:multiply" opacity="0.35">
<path d="M404.935 154.844C405.039 152.006 383.03 149.839 382.569 154.678L381.115 164.483C381.761 167.078 383.907 169.284 386.675 170.868C386.675 170.868 387.61 171.373 388.682 171.859C391.162 172.918 393.908 173.52 396.446 173.52C402.675 172.578 403.69 170.119 404.924 167.408C404.924 167.408 404.82 157.681 404.924 154.844H404.935Z" fill="#771D62"/>
</g>
<path d="M390.01 165.426C389.803 163.531 391.545 161.296 396.862 161.296C402.076 161.986 403.83 164.308 404.937 167.408V155.524C404.937 152.249 390.022 151.481 390.022 155.524V165.426H390.01Z" fill="url(#paint11_linear_632_24)"/>
<path d="M406.126 156.135L387.404 155.688L386.516 169.303L406.483 169.652L406.126 156.135Z" fill="url(#paint12_linear_632_24)"/>
<g style="mix-blend-mode:multiply" opacity="0.25">
<path d="M406.138 156.611L403.335 156.067L401.547 156.028L401.374 157.544L401.466 160.936L406.3 162.529L406.138 156.611Z" fill="#CC0631"/>
</g>
<path d="M414.337 67.707C413.806 64.6557 412.191 62.1681 409.93 60.2732C409.515 61.07 407.646 62.8677 407.646 62.4305C407.646 61.313 407.923 60.1857 408.361 59.1265C399.698 53.471 384.587 54.7829 381.115 63.9269C384.322 79.2319 385.153 101.572 384.899 113.777C384.622 126.76 381.853 161.5 381.115 164.483C383.365 158.332 389.351 156.553 396.699 156.903C400.564 157.088 404.474 157.924 407.646 159.575C407.992 159.041 408.546 158.623 409.25 158.371C409.619 158.244 409.907 158.555 409.953 158.818C410.092 159.809 410.542 160.761 410.795 161.733C412.641 163.404 413.933 165.552 414.337 168.263C412.237 156.719 409.757 126.585 409.711 112.65C409.676 101.368 411.211 83.6047 414.337 67.707Z" fill="url(#paint13_linear_632_24)"/>
<path d="M155.915 164.483C154.588 169.818 146.917 173.52 140.584 173.52C134.355 172.577 133.34 170.119 132.106 167.408C132.106 167.408 132.21 157.681 132.106 154.843C132.002 152.006 154.38 150.004 154.842 154.843L155.915 164.483Z" fill="#A145A6"/>
<g style="mix-blend-mode:multiply" opacity="0.35">
<path d="M155.915 164.483C154.588 169.818 146.917 173.52 140.584 173.52C134.355 172.577 133.34 170.119 132.106 167.408C132.106 167.408 132.21 157.681 132.106 154.843C132.002 152.006 154.38 150.004 154.842 154.843L155.915 164.483Z" fill="#771D62"/>
</g>
<path d="M132.105 155.533V167.418C132.89 165.212 134.009 163.404 136.454 162.297L137.562 160.178C137.562 160.178 137.665 161.266 137.781 161.811C138.484 161.597 139.28 161.432 140.18 161.305C145.013 161.305 146.882 163.152 147.032 164.911V155.533C147.032 151.491 132.117 152.258 132.117 155.533H132.105Z" fill="url(#paint14_linear_632_24)"/>
<path d="M130.859 156.135L149.58 155.688L150.48 169.303L130.501 169.652L130.859 156.135Z" fill="url(#paint15_linear_632_24)"/>
<g style="mix-blend-mode:multiply" opacity="0.25">
<path d="M130.848 156.611L133.651 156.067L135.451 156.028L135.624 157.544L135.52 160.936L130.687 162.529L130.848 156.611Z" fill="#CC0631"/>
</g>
<g style="mix-blend-mode:multiply" opacity="0.15">
<path d="M132.775 154.406C132.59 154.591 132.405 154.814 132.221 155.057C132.152 155.212 132.105 155.368 132.105 155.533V167.418C132.717 165.707 133.547 164.23 135.024 163.142C134.736 162.617 134.586 161.47 134.505 160.1C134.47 158.886 140.33 155.766 146.951 158.108C146.974 158.108 146.997 158.108 147.021 158.108V155.533C147.021 155.417 147.009 155.31 146.986 155.203L133.986 153.745C133.501 153.939 133.086 154.153 132.775 154.396V154.406Z" fill="#8E1613"/>
</g>
<path d="M155.913 63.9272C155.094 61.7699 153.618 60.0596 151.749 58.7672C150.953 59.7195 148.727 59.5057 148.946 61.0897C148.704 62.0031 146.973 61.5075 146.547 60.9245C145.474 59.5543 146.235 57.708 145.612 56.231C139.845 55.0163 133.016 56.1144 128.298 59.3891C129.094 62.4015 128.021 65.6471 126.844 60.5261C124.734 62.3918 123.222 64.8017 122.715 67.7267C125.829 83.6244 127.375 101.398 127.34 112.67C127.306 126.605 124.814 156.738 122.715 168.283C123.949 158.332 140.71 153.949 150.169 158.468C150.388 157.545 150.515 156.612 150.665 155.689C150.699 155.494 150.976 155.349 151.195 155.349H151.599C151.899 155.349 152.153 155.562 152.153 155.815C152.164 156.699 152.626 157.477 153.064 158.264C153.525 159.09 153.941 159.935 153.952 160.868C153.952 160.975 153.918 161.062 153.848 161.13C154.748 162.093 155.463 163.21 155.925 164.502C152.995 141.356 149.419 93.3418 155.925 63.9466L155.913 63.9272Z" fill="url(#paint16_linear_632_24)"/>
<g style="mix-blend-mode:multiply" opacity="0.35">
<path d="M151.749 58.7574C150.953 59.7098 148.727 59.496 148.946 61.0799C148.704 61.9933 146.973 61.4978 146.547 60.9147C145.474 59.5446 146.235 57.6982 145.612 56.2212C139.845 55.0065 133.016 56.1046 128.298 59.3794C129.094 62.3918 128.021 65.6374 126.844 60.5163C124.734 62.382 123.222 64.792 122.715 67.7169C122.865 68.4554 123.003 69.2037 123.142 69.9519C124.134 68.0376 125.437 66.3662 127.075 64.9863C128.563 68.0764 129.578 68.436 129.694 63.1983C132.001 61.935 134.781 61.1285 138.091 60.8661C138.091 60.9827 138.114 61.0993 138.114 61.2062C138.172 62.2168 138.31 63.2275 138.391 64.2381C138.46 65.2098 138.564 66.1816 138.691 67.1533C138.749 67.6003 138.83 68.0473 138.922 68.4943C139.037 69.019 139.36 69.4758 139.464 69.9908C139.499 70.1657 139.856 70.1268 139.833 69.9519C139.764 69.4369 139.925 68.9121 139.891 68.3874C139.856 67.9404 139.822 67.4934 139.764 67.0464C139.66 66.0747 139.579 65.1029 139.522 64.1312C139.464 63.1497 139.522 62.1877 139.568 61.2062C139.568 61.0702 139.591 60.9244 139.602 60.7787C141.102 60.7301 142.532 60.7787 143.894 60.9341C144.989 63.723 148.219 64.3352 150.526 63.0137C152.476 64.1603 154.045 65.7831 155.117 67.9404C155.371 66.5702 155.625 65.2292 155.913 63.9271C155.094 61.7698 153.618 60.0596 151.749 58.7672V58.7574Z" fill="#771D62"/>
</g>
<g style="mix-blend-mode:multiply" opacity="0.35">
<path d="M155.913 164.483C155.579 161.811 155.233 158.789 154.887 155.514C154.287 155.067 153.675 154.678 153.029 154.319C151.726 150.461 150.353 150.568 149.488 152.803C145.347 151.501 140.767 151.53 136.626 152.288C136.949 148.974 136.857 145.583 136.995 142.288C137.18 137.838 137.353 133.397 137.526 128.946C137.526 128.869 137.388 128.869 137.388 128.946C137.145 133.339 136.776 137.702 136.292 142.075C136.05 144.232 135.738 146.38 135.45 148.527C135.265 149.888 135.034 151.277 134.885 152.657C129.624 153.92 125.356 156.32 124.099 158.546C123.638 162.423 123.165 165.785 122.715 168.273C123.949 158.322 140.71 153.94 150.169 158.458C150.388 157.535 150.515 156.602 150.665 155.679C150.699 155.485 150.976 155.339 151.195 155.339H151.599C151.899 155.339 152.153 155.553 152.153 155.805C152.164 156.69 152.626 157.467 153.064 158.254C153.525 159.08 153.941 159.926 153.952 160.858C153.952 160.965 153.918 161.053 153.848 161.121C154.748 162.083 155.463 163.2 155.925 164.493L155.913 164.483Z" fill="#771D62"/>
</g>
<g style="mix-blend-mode:multiply" opacity="0.35">
<path d="M136.789 122.883C136.823 122.057 136.823 121.241 136.823 120.415C136.823 120.318 136.65 120.318 136.65 120.415C136.65 121.241 136.65 122.057 136.685 122.883C136.685 122.931 136.777 122.931 136.777 122.883H136.789Z" fill="#771D62"/>
</g>
<g style="mix-blend-mode:multiply" opacity="0.35">
<path d="M137.054 127.363C137.1 126.547 137.077 125.721 137.089 124.895C137.089 124.807 136.927 124.807 136.927 124.895C136.927 125.721 136.916 126.537 136.962 127.363C136.962 127.411 137.054 127.411 137.054 127.363Z" fill="#771D62"/>
</g>
<g style="mix-blend-mode:multiply" opacity="0.35">
<path d="M409.93 60.2732C409.515 61.07 407.646 62.8677 407.646 62.4305C407.646 61.313 407.923 60.1857 408.361 59.1265C399.698 53.471 384.587 54.7829 381.115 63.9269C381.277 64.7238 381.819 67.6681 381.969 68.4941C381.969 68.4941 384.507 59.3598 398.753 60.2926C398.753 60.5841 398.764 60.866 398.764 61.1478C398.764 62.1001 398.706 63.0524 398.66 64.0047C398.568 65.9093 398.36 67.8139 398.36 69.7282C398.36 69.8837 398.672 69.9323 398.706 69.7671C399.029 67.9305 399.156 66.0745 399.399 64.2282C399.525 63.237 399.652 62.2555 399.825 61.2644C399.872 60.9923 399.929 60.7202 399.998 60.4384C402.167 60.7979 404.393 61.7405 406.331 62.8386V67.1434L409.48 63.2467C411.58 65.1125 413.114 67.4155 413.598 69.942C413.714 69.8934 413.829 69.8351 413.945 69.7768C414.071 69.0869 414.198 68.397 414.337 67.7167C413.806 64.6655 412.191 62.1778 409.93 60.2829V60.2732Z" fill="#771D62"/>
</g>
<g style="mix-blend-mode:multiply" opacity="0.35">
<path d="M398.58 70.2924C398.511 70.2341 398.373 70.2438 398.315 70.3215C398.257 70.4187 398.28 70.4964 398.292 70.5936C398.304 70.6908 398.315 70.788 398.315 70.8851C398.315 71.0795 398.315 71.2738 398.315 71.4682C398.28 71.8569 398.188 72.2358 398.038 72.5954C397.957 72.8092 398.35 72.8966 398.43 72.6828C398.58 72.2942 398.673 71.886 398.707 71.4779C398.719 71.2738 398.73 71.0795 398.707 70.8754C398.707 70.7782 398.696 70.6811 398.684 70.5839C398.673 70.4673 398.673 70.3604 398.569 70.2826L398.58 70.2924Z" fill="#771D62"/>
</g>
<g style="mix-blend-mode:multiply" opacity="0.35">
<path d="M412.919 158.303C412.411 157.564 411.823 156.894 411.177 156.282C411.004 152.579 409.701 152.472 408.27 154.163C406.736 153.298 405.029 152.657 403.241 152.19C403.149 151.083 403.056 149.965 402.964 148.857C402.849 147.546 402.733 146.224 402.607 144.912C402.48 143.542 402.145 142.182 401.972 140.821C401.949 140.627 401.591 140.607 401.591 140.821C401.615 142.24 401.499 143.659 401.58 145.068C401.649 146.379 401.73 147.701 401.822 149.013C401.891 149.975 401.949 150.937 402.018 151.899C400.634 151.607 399.215 151.433 397.808 151.335C397.808 151.19 397.796 151.044 397.785 150.898C397.762 149.771 397.658 148.653 397.496 147.536C397.496 147.458 397.37 147.458 397.358 147.536C397.197 148.653 397.093 149.771 397.07 150.898C397.07 151.024 397.058 151.16 397.047 151.287C390.483 151.005 384.185 152.628 382.201 154.824C381.739 159.896 381.347 163.579 381.128 164.464C383.377 158.312 389.364 156.534 396.712 156.884C400.576 157.069 404.487 157.904 407.659 159.556C408.005 159.022 408.559 158.604 409.262 158.351C409.632 158.225 409.92 158.536 409.966 158.798C410.104 159.79 410.554 160.742 410.808 161.714C412.654 163.385 413.946 165.532 414.349 168.244C413.888 165.698 413.404 162.258 412.942 158.283L412.919 158.303Z" fill="#771D62"/>
</g>
<path d="M411.028 169.225C411.074 170.119 411.005 172.131 411.005 172.131L381.405 171.985C381.405 171.985 381.405 170.304 381.428 169.079C381.463 163.608 388.119 159.207 396.297 159.245C404.476 159.284 410.739 163.579 411.028 169.225Z" fill="url(#paint17_linear_632_24)"/>
<path d="M411.005 172.13C410.97 177.601 404.314 182.003 396.136 181.964C387.957 181.926 381.371 177.456 381.405 171.985C381.44 166.514 388.096 162.112 396.274 162.151C404.453 162.19 411.039 166.66 411.005 172.13Z" fill="url(#paint18_linear_632_24)"/>
<g style="mix-blend-mode:multiply" opacity="0.25">
<path d="M406.99 165.309C408.444 166.806 409.286 168.584 409.274 170.498C409.24 175.707 402.895 179.905 395.12 179.866C388.43 179.837 382.858 176.678 381.451 172.49C381.809 177.728 388.222 181.936 396.147 181.974C404.326 182.013 410.981 177.611 411.016 172.14C411.039 169.497 409.493 167.097 407.002 165.309H406.99Z" fill="#CC0631"/>
</g>
<path d="M382.975 167.602C384.082 164.813 394.902 158.555 405.457 164.337C398.236 161.16 388.039 161.976 382.975 167.602Z" fill="#FFF5CC"/>
<path d="M396.493 168.273C391.003 168.156 389.745 170.411 389.676 172.024C389.538 175.269 391.949 176.873 391.591 181.644C391.222 186.415 389.953 187.436 388.73 191.06C388.05 193.081 389.607 195.55 394.948 195.997C400.012 196.016 402.123 193.801 401.673 191.721C400.865 187.99 399.712 186.853 399.885 182.072C400.058 177.291 402.63 175.95 402.849 172.694C402.965 171.072 401.961 168.71 396.493 168.273Z" fill="url(#paint19_linear_632_24)"/>
<path d="M395.443 175.133C395.305 175.396 394.44 181.897 394.221 184.2C394.094 185.482 394.105 186.891 395.074 186.804C395.997 186.483 396.228 185.132 396.147 183.889C395.997 181.663 395.582 175.347 395.455 175.124L395.443 175.133Z" fill="#FFF5CC"/>
<path d="M401.707 192.557C401.581 194.617 398.512 196.152 394.879 195.987C391.233 195.822 388.396 194.014 388.523 191.954C388.65 189.894 391.718 188.359 395.352 188.524C398.997 188.689 401.834 190.497 401.707 192.557Z" fill="url(#paint20_linear_632_24)"/>
<path d="M388.983 190.739C391.267 188.689 394.059 188.174 398.015 188.971C395.524 188.077 391.36 187.708 388.983 190.739Z" fill="#FFF5CC"/>
<g style="mix-blend-mode:multiply" opacity="0.15">
<path d="M400.532 187.727C400.093 186.25 399.782 184.715 399.874 182.071C400.047 177.29 402.619 175.949 402.839 172.694C402.954 171.071 401.95 168.71 396.483 168.273C394.395 168.224 392.93 168.525 391.892 169.002C395.756 168.817 401.189 170.867 400.151 174.463C399.124 178.068 398.294 181.77 400.52 187.727H400.532Z" fill="#CC0631"/>
</g>
<g style="mix-blend-mode:multiply" opacity="0.35">
<path d="M399.089 189.379C399.908 189.991 400.381 190.749 400.323 191.556C400.208 193.363 397.531 194.714 394.336 194.568C391.176 194.422 388.707 192.877 388.765 191.089C388.626 191.371 388.534 191.662 388.511 191.964C388.384 194.024 391.222 195.831 394.867 195.996C398.512 196.162 401.569 194.626 401.696 192.566C401.776 191.303 400.738 190.137 399.077 189.379H399.089Z" fill="#CC0631"/>
</g>
<path d="M125.957 169.225C125.911 170.119 125.98 172.131 125.98 172.131L155.58 171.985C155.58 171.985 155.58 170.304 155.557 169.079C155.522 163.608 148.866 159.207 140.688 159.245C132.509 159.284 126.246 163.579 125.957 169.225Z" fill="url(#paint21_linear_632_24)"/>
<path d="M125.98 172.13C126.014 177.601 132.67 182.003 140.849 181.964C149.027 181.926 155.614 177.456 155.579 171.985C155.544 166.514 148.889 162.112 140.71 162.151C132.532 162.19 125.945 166.66 125.98 172.13Z" fill="url(#paint22_linear_632_24)"/>
<g style="mix-blend-mode:multiply" opacity="0.25">
<path d="M129.994 165.309C128.54 166.806 127.698 168.584 127.71 170.498C127.744 175.707 134.089 179.905 141.864 179.866C148.554 179.837 154.126 176.678 155.533 172.49C155.175 177.728 148.762 181.936 140.837 181.974C132.658 182.013 126.003 177.611 125.968 172.14C125.945 169.497 127.491 167.097 129.982 165.309H129.994Z" fill="#CC0631"/>
</g>
<path d="M154.011 167.603C152.904 164.814 142.084 158.556 131.529 164.338C138.75 161.16 148.948 161.976 154.011 167.603Z" fill="#FFF5CC"/>
<path d="M140.49 168.272C145.981 168.156 147.239 170.41 147.308 172.023C147.446 175.269 145.035 176.872 145.393 181.644C145.762 186.415 147.031 187.435 148.254 191.06C148.934 193.081 147.377 195.549 142.036 195.996C136.972 196.016 134.861 193.8 135.311 191.721C136.119 187.989 137.272 186.852 137.099 182.071C136.926 177.29 134.354 175.949 134.134 172.694C134.019 171.071 135.023 168.71 140.49 168.272Z" fill="url(#paint23_linear_632_24)"/>
<path d="M141.551 175.133C141.689 175.395 142.554 181.896 142.773 184.199C142.9 185.482 142.889 186.891 141.92 186.803C140.997 186.483 140.766 185.132 140.847 183.888C140.997 181.663 141.412 175.347 141.539 175.123L141.551 175.133Z" fill="#FFF5CC"/>
<path d="M135.277 192.556C135.403 194.616 138.472 196.152 142.105 195.986C145.751 195.821 148.588 194.014 148.461 191.954C148.334 189.894 145.266 188.358 141.632 188.523C137.987 188.689 135.15 190.496 135.277 192.556Z" fill="url(#paint24_linear_632_24)"/>
<path d="M148.012 190.739C145.728 188.689 142.936 188.174 138.979 188.97C141.471 188.076 145.635 187.707 148.012 190.739Z" fill="#FFF5CC"/>
<g style="mix-blend-mode:multiply" opacity="0.15">
<path d="M136.453 187.727C136.892 186.25 137.203 184.715 137.111 182.071C136.938 177.29 134.365 175.949 134.146 172.694C134.031 171.071 135.034 168.71 140.502 168.273C142.59 168.224 144.055 168.525 145.093 169.002C141.229 168.817 135.796 170.867 136.834 174.463C137.861 178.068 138.691 181.77 136.465 187.727H136.453Z" fill="#CC0631"/>
</g>
<g style="mix-blend-mode:multiply" opacity="0.35">
<path d="M137.895 189.379C137.076 189.991 136.603 190.749 136.66 191.556C136.776 193.363 139.452 194.714 142.647 194.568C145.808 194.422 148.276 192.877 148.219 191.089C148.357 191.371 148.449 191.662 148.472 191.964C148.599 194.024 145.762 195.831 142.116 195.996C138.471 196.162 135.414 194.626 135.288 192.566C135.207 191.303 136.245 190.137 137.906 189.379H137.895Z" fill="#CC0631"/>
</g>
<g style="mix-blend-mode:screen">
<path d="M185.214 52.6553L187.198 62.4504L192.066 64.3453L187.198 66.2499L185.214 76.0451L183.23 66.2499L178.351 64.3453L183.23 62.4504L185.214 52.6553Z" fill="#FCCD47"/>
</g>
<g style="mix-blend-mode:screen">
<path d="M207.258 57.1348C207.258 58.3786 206.058 59.3893 204.581 59.3893C203.105 59.3893 201.905 58.3786 201.905 57.1348C201.905 55.891 203.105 54.8804 204.581 54.8804C206.058 54.8804 207.258 55.891 207.258 57.1348Z" fill="#FCCD47"/>
</g>
<g style="mix-blend-mode:screen">
<path d="M176.285 71.4872C176.285 72.3715 175.442 73.0809 174.393 73.0809C173.343 73.0809 172.501 72.3715 172.501 71.4872C172.501 70.6029 173.343 69.8936 174.393 69.8936C175.442 69.8936 176.285 70.6029 176.285 71.4872Z" fill="#FCCD47"/>
</g>
<g style="mix-blend-mode:screen">
<path d="M342.266 142.415L344.296 160.635L354.089 162.578L344.296 164.512L342.266 182.742L340.236 164.512L330.431 162.578L340.236 160.635L342.266 142.415Z" fill="#FCCD47"/>
</g>
<g style="mix-blend-mode:screen">
<path d="M355.991 180.322C357.036 180.322 357.883 179.609 357.883 178.728C357.883 177.848 357.036 177.135 355.991 177.135C354.947 177.135 354.1 177.848 354.1 178.728C354.1 179.609 354.947 180.322 355.991 180.322Z" fill="#FCCD47"/>
</g>
<path d="M414.614 168.273C414.141 165.678 413.149 163.822 410.795 161.743C410.645 160.169 410.369 156.087 407.646 159.576C404.797 157.807 395.211 155.038 387.852 157.739C381.461 160.081 381.346 163.628 381.115 164.483C382.499 161.908 383.78 159.955 388.175 158.449C393.02 156.933 398.51 156.389 408.05 160.295C408.8 159.323 409.642 157.185 410.392 162.19C411.637 163.113 413.587 164.561 414.602 168.273H414.614Z" fill="#F294F7"/>
<path d="M155.914 164.483C155.58 162.578 154.818 161.986 153.838 161.111C154.253 159.275 152.453 157.146 152.453 155.971C152.453 154.795 150.527 154.396 150.319 155.63C150.123 156.865 149.743 158.274 149.743 158.274C146.917 156.758 140.549 155.689 134.124 157.71C127.687 159.731 123.096 163.2 122.704 168.273C123.961 163.706 128.691 160.169 134.412 158.381C141.057 156.301 146.859 157.146 150.193 159.226C150.389 157.934 151.254 154.795 152.061 157.04C152.869 159.284 153.388 159.566 153.065 161.189C154.195 161.859 155.591 163.084 155.926 164.493L155.914 164.483Z" fill="#F294F7"/>
<path d="M377.489 156.376C398.824 109.106 343.801 61.6225 254.592 50.3177C165.382 39.0129 75.7681 68.168 54.4331 115.437C33.0981 162.707 88.1213 210.191 177.331 221.495C266.54 232.8 356.154 203.645 377.489 156.376Z" fill="url(#paint25_radial_632_24)" fill-opacity="0.7" style="mix-blend-mode:screen"/>
<path d="M361.686 126.527C383.021 79.2576 327.998 31.7738 238.789 20.469C149.579 9.16428 59.9654 38.3194 38.6304 85.5888C17.2954 132.858 72.3185 180.342 161.528 191.647C250.737 202.952 340.351 173.796 361.686 126.527Z" fill="url(#paint26_radial_632_24)" fill-opacity="0.7" style="mix-blend-mode:screen"/>
<path style="mix-blend-mode:screen" d="M493.369 148.119C514.704 100.85 459.681 53.3661 370.471 42.0613C281.262 30.7566 191.648 59.9117 170.313 107.181C148.978 154.451 204.001 201.934 293.211 213.239C382.42 224.544 472.034 195.389 493.369 148.119Z" fill="url(#paint27_radial_632_24)" fill-opacity="0.7"/>
<g filter="url(#filter0_d_632_24)">
<path d="M216.482 102.15C216.482 108.75 228.002 110.51 228.002 118.19C228.002 123.91 223.482 126.55 218.242 126.55C215.002 126.55 210.482 124.27 210.482 119.75C210.482 116.27 212.642 114.23 215.642 114.23C220.882 114.23 220.762 120.67 217.002 120.95C215.802 121.03 214.722 120.39 214.722 118.91C214.722 117.95 215.522 117.35 216.322 117.35C216.682 117.35 217.082 117.51 217.322 117.87C217.322 117.87 216.282 117.83 216.162 118.59C216.042 119.03 216.362 119.23 216.762 119.23C218.642 119.23 218.562 115.63 216.402 115.63C212.562 115.63 212.282 124.99 218.402 124.99C221.842 124.99 222.762 121.79 222.762 119.95C222.762 112.55 211.242 111.55 211.242 103.63C211.242 97.9501 216.762 96.1101 219.882 96.1101C224.482 96.1101 227.002 98.7501 227.202 101.79C227.442 104.95 225.322 106.63 223.362 106.63C221.842 106.63 220.362 105.59 220.202 103.39C220.082 101.75 221.002 100.43 222.482 100.35C224.402 100.19 224.762 102.87 223.322 103.79C223.322 103.79 223.362 102.43 222.362 102.23C221.042 101.95 221.122 104.63 223.402 104.43C224.642 104.39 225.442 103.31 225.322 101.75C225.162 99.5901 223.602 97.2701 220.762 97.2701C218.882 97.2701 216.482 98.4301 216.482 102.15ZM229.075 113.11V110.27H237.875V113.11H229.075ZM260.157 96.8701V96.9101L266.717 96.3101V97.1901L265.317 97.3101H265.277C263.997 97.4301 262.877 97.9101 262.877 100.43V128.19C262.877 129.19 263.237 130.11 265.757 130.11H266.357V130.99H255.637V130.11C256.837 130.11 258.077 129.91 258.077 128.39V104.43L253.757 120.03H249.597L245.677 106.87V120.15C245.677 122.27 246.397 123.15 248.997 123.15H250.557V124.03L239.117 124.67V123.15H240.677V123.11C242.557 123.11 243.357 122.59 243.357 120.83V99.0701C243.357 96.7101 240.917 96.1501 239.877 96.1101H238.997V95.2701H246.397V95.3101L247.117 95.2701L252.797 115.47L256.997 97.1501L260.157 96.8701ZM275.767 117.87V116.99H276.567C278.367 116.99 279.487 116.19 279.087 114.39L277.647 107.83H272.407L270.087 117.95C269.767 119.43 271.047 120.39 271.727 120.39H272.807V121.27H263.607V120.39H264.687C265.487 120.39 266.967 119.79 267.367 118.07L272.607 95.1901C272.887 93.9501 271.327 92.8701 269.927 92.8701C268.327 92.8701 267.367 93.7501 267.367 95.0301C267.367 96.2701 268.167 96.7901 268.847 96.7901C269.367 96.7901 269.807 96.4301 269.647 95.8701C269.367 94.9101 268.007 95.0301 268.007 95.0301C268.367 94.3501 269.127 94.0301 269.847 94.0301C270.727 94.0301 271.527 94.5501 271.527 95.6301C271.527 97.1101 270.287 98.1101 268.647 98.1101C266.727 98.1101 265.687 96.5501 265.687 95.0301C265.687 91.5901 269.567 90.5101 272.967 90.7101L283.487 91.3101V92.1501L281.647 92.1901C280.167 92.3501 279.447 93.0301 279.807 94.5901L284.007 113.15C284.487 115.23 285.167 116.99 287.447 116.99H288.687V118.59L275.767 117.87ZM272.727 106.43H277.287L275.047 96.2701L272.727 106.43ZM309.518 126.35C313.358 126.35 313.758 133.55 308.318 133.55C303.678 133.55 302.438 128.55 301.478 124.27C301.478 124.19 298.998 111.47 294.878 111.51H294.158V121.47C294.158 123.59 295.438 124.15 297.238 124.31L298.638 124.51V125.35L285.758 124.55V123.07L287.038 123.19C288.878 123.19 289.998 122.47 289.998 120.75V97.9101C289.998 95.5101 287.518 94.9901 286.478 94.9901H285.638V94.1101H294.158C299.318 94.1101 304.598 96.5901 304.598 102.39C304.598 106.23 302.478 108.71 299.718 110.15C306.198 114.79 302.758 131.87 308.678 131.87C311.638 131.87 311.918 127.87 309.358 127.63C307.638 127.47 307.918 129.71 308.878 129.39C309.598 129.15 309.438 128.15 309.438 128.15C310.638 128.71 310.598 130.75 309.118 130.83C307.998 130.87 307.198 129.99 307.118 128.71C307.038 127.27 308.158 126.35 309.518 126.35ZM294.158 109.79C302.958 109.23 301.678 95.6301 294.158 95.3901V109.79ZM322.873 96.1501C322.753 94.8701 322.073 94.1501 319.673 94.1101L315.553 94.1901L316.553 120.51C316.873 122.83 318.313 123.23 321.113 123.15L323.393 123.07L323.513 124.79L306.273 125.47L306.233 124.59L308.153 124.55C309.873 124.47 311.393 123.11 311.313 120.51C311.313 120.35 311.313 120.23 311.313 120.15L310.273 94.3101L309.393 94.3501C309.273 94.3501 309.193 94.3501 308.953 94.3901C306.313 94.4301 305.153 96.1901 305.033 98.1901L304.993 99.6701L304.153 99.6301L304.433 92.5101L323.593 92.0701L323.833 99.6301L322.953 99.6701L322.873 96.1501Z" fill="#F5F5F5"/>
</g>
<defs>
<filter id="filter0_d_632_24" x="206.481" y="90.5103" width="121.352" height="51.04" filterUnits="userSpaceOnUse" color-interpolation-filters="sRGB">
<feFlood flood-opacity="0" result="BackgroundImageFix"/>
<feColorMatrix in="SourceAlpha" type="matrix" values="0 0 0 0 0 0 0 0 0 0 0 0 0 0 0 0 0 0 127 0" result="hardAlpha"/>
<feOffset dy="4"/>
<feGaussianBlur stdDeviation="2"/>
<feComposite in2="hardAlpha" operator="out"/>
<feColorMatrix type="matrix" values="0 0 0 0 0 0 0 0 0 0 0 0 0 0 0 0 0 0 0.25 0"/>
<feBlend mode="normal" in2="BackgroundImageFix" result="effect1_dropShadow_632_24"/>
<feBlend mode="normal" in="SourceGraphic" in2="effect1_dropShadow_632_24" result="shape"/>
</filter>
<linearGradient id="paint0_linear_632_24" x1="131.605" y1="52.3243" x2="146.97" y2="51.587" gradientUnits="userSpaceOnUse">
<stop stop-color="#B83D00"/>
<stop offset="0.25" stop-color="#E4790F"/>
<stop offset="0.56" stop-color="#FEE34D"/>
<stop offset="0.62" stop-color="#FAD444"/>
<stop offset="0.75" stop-color="#F1AF2E"/>
<stop offset="0.91" stop-color="#E4790F"/>
</linearGradient>
<linearGradient id="paint1_linear_632_24" x1="154.489" y1="59.1774" x2="124.884" y2="56.3067" gradientUnits="userSpaceOnUse">
<stop offset="0.06" stop-color="#E47B10"/>
<stop offset="0.14" stop-color="#E68417"/>
<stop offset="0.27" stop-color="#ED9D2B"/>
<stop offset="0.44" stop-color="#F8C74C"/>
<stop offset="0.53" stop-color="#FEDE5F"/>
<stop offset="0.61" stop-color="#F7C64C"/>
<stop offset="0.78" stop-color="#ED9D2B"/>
<stop offset="0.92" stop-color="#E68417"/>
<stop offset="1" stop-color="#E47B10"/>
</linearGradient>
<linearGradient id="paint2_linear_632_24" x1="139.23" y1="73.9079" x2="139.224" y2="54.0841" gradientUnits="userSpaceOnUse">
<stop stop-color="#CF4B0B"/>
<stop offset="0.99" stop-color="#E8B321"/>
</linearGradient>
<linearGradient id="paint3_linear_632_24" x1="150.504" y1="69.4817" x2="129.773" y2="67.4715" gradientUnits="userSpaceOnUse">
<stop offset="0.06" stop-color="#E47B10"/>
<stop offset="0.14" stop-color="#E68417"/>
<stop offset="0.27" stop-color="#ED9D2B"/>
<stop offset="0.44" stop-color="#F8C74C"/>
<stop offset="0.53" stop-color="#FEDE5F"/>
<stop offset="0.61" stop-color="#F7C64C"/>
<stop offset="0.78" stop-color="#ED9D2B"/>
<stop offset="0.92" stop-color="#E68417"/>
<stop offset="1" stop-color="#E47B10"/>
</linearGradient>
<linearGradient id="paint4_linear_632_24" x1="405.311" y1="52.6354" x2="389.947" y2="51.8981" gradientUnits="userSpaceOnUse">
<stop offset="0.06" stop-color="#E47B10"/>
<stop offset="0.14" stop-color="#E68417"/>
<stop offset="0.27" stop-color="#ED9D2B"/>
<stop offset="0.44" stop-color="#F8C74C"/>
<stop offset="0.53" stop-color="#FEDE5F"/>
<stop offset="0.61" stop-color="#F7C64C"/>
<stop offset="0.78" stop-color="#ED9D2B"/>
<stop offset="0.92" stop-color="#E68417"/>
<stop offset="1" stop-color="#E47B10"/>
</linearGradient>
<linearGradient id="paint5_linear_632_24" x1="382.511" y1="59.1358" x2="412.128" y2="56.2639" gradientUnits="userSpaceOnUse">
<stop offset="0.06" stop-color="#E47B10"/>
<stop offset="0.14" stop-color="#E68417"/>
<stop offset="0.27" stop-color="#ED9D2B"/>
<stop offset="0.44" stop-color="#F8C74C"/>
<stop offset="0.53" stop-color="#FEDE5F"/>
<stop offset="0.61" stop-color="#F7C64C"/>
<stop offset="0.78" stop-color="#ED9D2B"/>
<stop offset="0.92" stop-color="#E68417"/>
<stop offset="1" stop-color="#E47B10"/>
</linearGradient>
<linearGradient id="paint6_linear_632_24" x1="397.769" y1="73.8798" x2="397.775" y2="54.0656" gradientUnits="userSpaceOnUse">
<stop stop-color="#CF4B0B"/>
<stop offset="0.99" stop-color="#E8B321"/>
</linearGradient>
<linearGradient id="paint7_linear_632_24" x1="386.51" y1="69.4489" x2="407.229" y2="67.4398" gradientUnits="userSpaceOnUse">
<stop offset="0.06" stop-color="#E47B10"/>
<stop offset="0.14" stop-color="#E68417"/>
<stop offset="0.27" stop-color="#ED9D2B"/>
<stop offset="0.44" stop-color="#F8C74C"/>
<stop offset="0.53" stop-color="#FEDE5F"/>
<stop offset="0.61" stop-color="#F7C64C"/>
<stop offset="0.78" stop-color="#ED9D2B"/>
<stop offset="0.92" stop-color="#E68417"/>
<stop offset="1" stop-color="#E47B10"/>
</linearGradient>
<linearGradient id="paint8_linear_632_24" x1="413.345" y1="117.761" x2="122.456" y2="117.761" gradientUnits="userSpaceOnUse">
<stop stop-color="#8A3D90"/>
<stop offset="0.47" stop-color="#D457D4"/>
<stop offset="1" stop-color="#C14FC1"/>
</linearGradient>
<linearGradient id="paint9_linear_632_24" x1="372.165" y1="122.746" x2="414.615" y2="122.746" gradientUnits="userSpaceOnUse">
<stop stop-color="#FFA8A6"/>
<stop offset="1" stop-color="#8E1613"/>
</linearGradient>
<linearGradient id="paint10_linear_632_24" x1="122.703" y1="122.951" x2="164.426" y2="122.951" gradientUnits="userSpaceOnUse">
<stop stop-color="#8E1613"/>
<stop offset="1" stop-color="#FFA8A6"/>
</linearGradient>
<linearGradient id="paint11_linear_632_24" x1="389.999" y1="160.091" x2="404.937" y2="160.091" gradientUnits="userSpaceOnUse">
<stop stop-color="#38C1C9"/>
<stop offset="0.37" stop-color="#7EFFF5"/>
<stop offset="0.68" stop-color="#4CC8CE"/>
<stop offset="1" stop-color="#399B97"/>
</linearGradient>
<linearGradient id="paint12_linear_632_24" x1="385.926" y1="163.448" x2="406.622" y2="161.441" gradientUnits="userSpaceOnUse">
<stop offset="0.09" stop-color="#E4790F"/>
<stop offset="0.58" stop-color="#E4790F"/>
<stop offset="0.6" stop-color="#E2770E"/>
<stop offset="1" stop-color="#B83D00"/>
</linearGradient>
<linearGradient id="paint13_linear_632_24" x1="381.127" y1="111.999" x2="414.337" y2="111.999" gradientUnits="userSpaceOnUse">
<stop stop-color="#8A3D90"/>
<stop offset="0.47" stop-color="#D457D4"/>
<stop offset="1" stop-color="#C14FC1"/>
</linearGradient>
<linearGradient id="paint14_linear_632_24" x1="147.044" y1="160.091" x2="132.105" y2="160.091" gradientUnits="userSpaceOnUse">
<stop stop-color="#38C1C9"/>
<stop offset="0.37" stop-color="#7EFFF5"/>
<stop offset="0.68" stop-color="#4CC8CE"/>
<stop offset="1" stop-color="#399B97"/>
</linearGradient>
<linearGradient id="paint15_linear_632_24" x1="151.075" y1="163.489" x2="130.379" y2="161.482" gradientUnits="userSpaceOnUse">
<stop offset="0.09" stop-color="#E4790F"/>
<stop offset="0.58" stop-color="#E4790F"/>
<stop offset="0.6" stop-color="#E2770E"/>
<stop offset="1" stop-color="#B83D00"/>
</linearGradient>
<linearGradient id="paint16_linear_632_24" x1="155.913" y1="111.999" x2="122.703" y2="111.999" gradientUnits="userSpaceOnUse">
<stop stop-color="#8A3D90"/>
<stop offset="0.47" stop-color="#D457D4"/>
<stop offset="1" stop-color="#C14FC1"/>
</linearGradient>
<linearGradient id="paint17_linear_632_24" x1="380.935" y1="167.243" x2="410.551" y2="164.371" gradientUnits="userSpaceOnUse">
<stop offset="0.09" stop-color="#E4790F"/>
<stop offset="0.25" stop-color="#F1AF2E"/>
<stop offset="0.38" stop-color="#FAD444"/>
<stop offset="0.44" stop-color="#FEE34D"/>
<stop offset="0.75" stop-color="#E2770E"/>
<stop offset="1" stop-color="#B83D00"/>
</linearGradient>
<linearGradient id="paint18_linear_632_24" x1="396.2" y1="181.99" x2="396.198" y2="162.166" gradientUnits="userSpaceOnUse">
<stop stop-color="#CF4B0B"/>
<stop offset="0.99" stop-color="#E8B321"/>
</linearGradient>
<linearGradient id="paint19_linear_632_24" x1="403.609" y1="182.734" x2="388.245" y2="181.997" gradientUnits="userSpaceOnUse">
<stop stop-color="#B83D00"/>
<stop offset="0.25" stop-color="#E4790F"/>
<stop offset="0.56" stop-color="#FEE34D"/>
<stop offset="0.62" stop-color="#FAD444"/>
<stop offset="0.75" stop-color="#F1AF2E"/>
<stop offset="0.91" stop-color="#E4790F"/>
</linearGradient>
<linearGradient id="paint20_linear_632_24" x1="397.079" y1="195.191" x2="397.036" y2="187.73" gradientUnits="userSpaceOnUse">
<stop stop-color="#CF4B0B"/>
<stop offset="0.99" stop-color="#E8B321"/>
</linearGradient>
<linearGradient id="paint21_linear_632_24" x1="156.067" y1="167.275" x2="126.463" y2="164.404" gradientUnits="userSpaceOnUse">
<stop offset="0.09" stop-color="#E4790F"/>
<stop offset="0.25" stop-color="#F1AF2E"/>
<stop offset="0.38" stop-color="#FAD444"/>
<stop offset="0.44" stop-color="#FEE34D"/>
<stop offset="0.75" stop-color="#E2770E"/>
<stop offset="1" stop-color="#B83D00"/>
</linearGradient>
<linearGradient id="paint22_linear_632_24" x1="140.799" y1="182.009" x2="140.801" y2="162.194" gradientUnits="userSpaceOnUse">
<stop stop-color="#CF4B0B"/>
<stop offset="0.99" stop-color="#E8B321"/>
</linearGradient>
<linearGradient id="paint23_linear_632_24" x1="133.308" y1="182.432" x2="148.684" y2="181.692" gradientUnits="userSpaceOnUse">
<stop stop-color="#B83D00"/>
<stop offset="0.25" stop-color="#E4790F"/>
<stop offset="0.56" stop-color="#FEE34D"/>
<stop offset="0.62" stop-color="#FAD444"/>
<stop offset="0.75" stop-color="#F1AF2E"/>
<stop offset="0.91" stop-color="#E4790F"/>
</linearGradient>
<linearGradient id="paint24_linear_632_24" x1="139.985" y1="195.105" x2="140.029" y2="187.645" gradientUnits="userSpaceOnUse">
<stop stop-color="#CF4B0B"/>
<stop offset="0.99" stop-color="#E8B321"/>
</linearGradient>
<radialGradient id="paint25_radial_632_24" cx="0" cy="0" r="1" gradientUnits="userSpaceOnUse" gradientTransform="translate(215.968 135.899) scale(166.083 88.0025)">
<stop stop-color="#C700FF"/>
<stop offset="1" stop-color="#770099" stop-opacity="0"/>
</radialGradient>
<radialGradient id="paint26_radial_632_24" cx="0" cy="0" r="1" gradientUnits="userSpaceOnUse" gradientTransform="translate(200.165 106.05) scale(166.083 88.0025)">
<stop stop-color="#C700FF"/>
<stop offset="1" stop-color="#770099" stop-opacity="0"/>
</radialGradient>
<radialGradient id="paint27_radial_632_24" cx="0" cy="0" r="1" gradientUnits="userSpaceOnUse" gradientTransform="translate(331.848 127.643) scale(166.083 88.0025)">
<stop stop-color="#C700FF"/>
<stop offset="1" stop-color="#770099" stop-opacity="0"/>
</radialGradient>
</defs>
</svg>
