<svg width="499" height="406" viewBox="0 0 499 406" fill="none" xmlns="http://www.w3.org/2000/svg">
<path style="mix-blend-mode:screen" opacity="0.42" d="M158.257 348.596C158.257 348.596 200.552 341.272 184.81 304.106C169.067 266.94 44.1884 261.86 48.1169 228.074C52.0453 194.287 124.822 188.096 222.173 193.152C319.524 198.232 398.208 189.774 377.562 166.123C356.916 142.472 207.434 139.66 172.021 144.15C136.608 148.662 178.903 150.907 178.903 150.907C178.903 150.907 71.7163 164.776 41.2349 142.354C10.7535 119.932 94.3408 115.419 149.396 119.932C204.481 124.445 315.596 118.798 315.596 103.038C315.596 87.2789 287.065 65.3056 248.726 74.8746C210.359 84.4436 165.139 82.7661 161.211 68.1172C157.282 53.4684 182.831 47.8451 221.198 53.4684C259.565 59.0916 293.975 27.0059 265.444 20.8156C265.444 20.8156 289.789 22.564 293.459 36.7167C297.158 50.8694 244.052 61.5489 211.592 56.9888C179.132 52.4288 183.577 71.9921 264.698 66.6996C345.819 61.4307 384.559 71.9685 394.509 81.9155C404.459 91.839 382.695 115.702 329.618 120.995C276.512 126.264 314.879 129.855 381.606 130.918C448.361 131.982 507.345 159.862 494.097 174.629C480.821 189.419 372.028 210.944 378.681 242.415C378.681 242.415 347.712 213.472 296.814 218.977C245.916 224.459 214.202 241.777 228.969 255.292C243.708 268.807 326.693 231.216 350.665 261.411C350.665 261.411 326.32 247.259 309.001 262.475C291.681 277.691 285.774 280.431 252.569 275.989C219.392 271.548 210.904 294.159 251.106 299.428C291.308 304.697 304.212 313.58 285.774 318.637C267.336 323.716 207.234 323.291 209.442 351.786C211.65 380.304 156.422 383.99 156.422 383.99C156.422 383.99 141.74 379.926 177.871 358.378C214.001 336.83 158.314 348.549 158.314 348.549L158.257 348.596Z" fill="url(#paint0_linear_531_24733)"/>
<path style="mix-blend-mode:screen" opacity="0.71" d="M249.5 405.301C387.295 405.301 499 314.571 499 202.651C499 90.7298 387.295 0 249.5 0C111.705 0 0 90.7298 0 202.651C0 314.571 111.705 405.301 249.5 405.301Z" fill="url(#paint1_radial_531_24733)"/>
<g clip-path="url(#clip0_531_24733)">
<path d="M93.9928 109.56C93.9928 109.56 124.551 113.84 124.745 114.52C124.939 115.2 128.68 134.57 131.146 137.65C133.623 140.73 126.142 143.81 126.142 143.81L92.6689 115.72L94.0049 109.56H93.9928Z" fill="#FFC59F"/>
<path d="M132.409 117.84C132.409 117.84 134.765 115.87 135.239 115.82C135.713 115.77 138.858 116.37 138.858 116.37C138.858 116.37 140.377 127.15 141.81 129.16C143.231 131.17 136.867 131.46 136.867 131.46L132.421 117.84H132.409Z" fill="#FFC59F"/>
<path d="M141.798 118.74C141.798 118.74 144.154 116.8 144.822 116.76C145.49 116.72 189.432 119.79 217.84 120.21C246.248 120.63 284.676 119.17 285.308 120.11C285.94 121.05 288.357 144.33 294.563 151.85C300.781 159.37 285.174 163.96 285.174 163.96L141.798 118.75V118.74Z" fill="#FFC59F"/>
<path d="M298.498 123.11C298.498 123.11 301.85 118.95 302.895 119.03C303.939 119.11 358.339 116.6 389.346 113.31C420.353 110.02 437.284 106.26 437.284 106.26L436.142 116.44L298.498 123.1V123.11Z" fill="#FFC59F"/>
<path d="M174.092 282.13C174.092 282.13 176.534 281.21 177.153 279.49C177.772 277.77 177.578 269.98 177.578 269.98L169.016 270.61L174.08 282.14L174.092 282.13Z" fill="#FFC59F"/>
<path d="M327.647 282.93C327.647 282.93 330.003 282.15 331.047 280.51C332.092 278.87 333.428 267.2 333.428 267.2L326.056 265.52L327.647 282.94V282.93Z" fill="#FFC59F"/>
<path d="M352.011 285.18C352.011 285.18 356.152 285.12 358.144 282.23C360.136 279.33 366.707 263.2 366.707 263.2L358.241 260.22L352.011 285.18Z" fill="#FFC59F"/>
<path d="M174.092 282.13C174.092 282.13 176.534 281.21 177.153 279.49C177.772 277.77 177.578 269.98 177.578 269.98L169.016 270.61L174.08 282.14L174.092 282.13Z" fill="#DB6345"/>
<path d="M327.647 282.93C327.647 282.93 330.003 282.15 331.047 280.51C332.092 278.87 333.428 267.2 333.428 267.2L326.056 265.52L327.647 282.94V282.93Z" fill="#DB6345"/>
<path d="M352.011 285.18C352.011 285.18 356.152 285.12 358.144 282.23C360.136 279.33 366.707 263.2 366.707 263.2L358.241 260.22L352.011 285.18Z" fill="#DB6345"/>
<path d="M450.777 108.3L445.457 162.18L435.728 295.2C435.728 295.2 410.612 291.56 375.73 287.69C370.86 287.14 365.795 286.6 360.573 286.05C361.131 281.26 361.593 275.27 361.641 271.08C361.702 267.64 361.471 265.41 360.791 266.01C360.245 266.5 359.188 268.5 357.913 271.24C356.127 275.11 353.893 280.47 351.986 285.17C346.156 284.6 340.168 284.02 334.096 283.48C333.391 279.68 332.419 274.93 331.569 272.27C331.193 271.08 330.828 270.31 330.525 270.24C330.185 270.16 329.82 271 329.444 272.34C328.752 274.91 328.047 279.34 327.61 282.91C301.206 280.65 273.417 278.89 248.483 278.59C226.038 278.33 203.01 279.55 181.549 281.43C179.8 278.8 177.687 275.79 176.363 274.47C175.695 273.79 175.234 273.55 175.124 274C175.088 274.11 175.051 274.26 175.027 274.43C174.748 275.86 174.359 279.09 174.055 282.12C157.076 283.76 141.263 285.77 127.769 287.71C100.94 291.57 83.147 295.19 83.147 295.19L69.2041 109.56C69.2041 109.56 87.7987 113.01 119.863 116.53C120.555 116.61 121.259 116.68 121.964 116.76C122.814 120.99 124.964 131.27 126.53 136.53C127.296 139.13 127.927 140.51 128.17 139.31C128.328 138.56 128.583 137.28 128.899 135.7C129.895 130.67 131.486 122.51 132.397 117.84C133.514 117.95 134.644 118.07 135.785 118.18C136.077 122.4 136.793 131.85 138.312 130.02C139.599 128.46 141.02 122.43 141.785 118.74C171.335 121.42 208.585 123.71 251.045 123.96C260.859 124.02 270.66 123.91 280.34 123.69C280.583 124.9 280.838 126.25 281.142 127.68C283.729 140.43 288.234 160.47 290.36 156.22C292.34 152.28 295.51 137.79 297.465 128.17C297.866 126.24 298.206 124.51 298.485 123.1C338.31 121.51 375.171 118.01 402.656 114.8C432.097 111.37 450.777 108.29 450.777 108.29V108.3Z" fill="url(#paint2_linear_531_24733)"/>
<path style="mix-blend-mode:multiply" opacity="0.5" d="M127.806 287.72C100.977 291.58 83.1835 295.2 83.1835 295.2L69.2041 109.56C69.2041 109.56 87.7987 113.01 119.863 116.53C112.442 138.05 105.895 170.23 110.037 211.99C114.045 252.39 121.381 275.09 127.794 287.72H127.806Z" fill="url(#paint3_linear_531_24733)"/>
<path style="mix-blend-mode:multiply" opacity="0.5" d="M450.777 108.3L445.457 162.18L435.729 295.2C435.729 295.2 410.612 291.56 375.73 287.69C384.912 269.48 398.151 236.8 403.228 192.36C406.981 159.55 405.414 133.42 402.657 114.82C432.097 111.39 450.777 108.31 450.777 108.31V108.3Z" fill="url(#paint4_linear_531_24733)"/>
<path d="M47.5244 108.3C47.5244 108.3 47.8402 104.85 69.5319 104.02C91.2115 103.18 94.7093 107.36 94.7093 107.36L80.9486 117.17L57.1071 116.7L47.5366 108.29L47.5244 108.3Z" fill="#872316"/>
<path d="M88.1752 349.21C88.1752 349.21 81.7138 349.86 81.0701 348.16C80.4264 346.45 83.0012 325.28 83.0012 325.28L88.1752 349.22V349.21Z" fill="#FC6212"/>
<path d="M91.831 317.53C91.8918 317.61 91.9525 317.7 92.0132 317.76C92.0739 317.84 92.1104 317.91 92.1347 317.97C92.1954 318.05 92.2318 318.12 92.2561 318.18C92.2926 318.27 92.3168 318.33 92.3533 318.42V318.44C94.248 323.02 96.3127 340.57 96.0941 346.81C96.0698 346.86 96.0698 346.88 96.0819 346.92C95.9848 349.37 84.7503 349.83 81.969 348.49C81.6046 348.31 81.3738 348.08 81.3495 347.84C81.058 344.25 83.1835 319.69 83.9122 318.18C84.7867 316.37 90.58 316.41 91.8189 317.53H91.831Z" fill="url(#paint5_linear_531_24733)"/>
<g style="mix-blend-mode:multiply" opacity="0.8">
<path d="M87.2519 315.74C89.8389 315.64 91.1749 316.73 91.8307 317.53C91.8915 317.61 91.9522 317.7 92.0129 317.76C92.0736 317.84 92.1101 317.91 92.1344 317.97C92.1951 318.05 92.2315 318.12 92.2558 318.18C92.3165 318.33 92.353 318.42 92.353 318.42V318.44C94.2477 323.02 96.3124 340.57 96.0938 346.81C96.0938 346.81 92.7416 338.06 91.9522 329.99C91.1384 321.9 92.0251 318.68 90.8955 317.88C89.766 317.08 84.9929 316.95 83.9241 318.18C83.4382 318.73 83.0982 315.87 87.2519 315.73V315.74Z" fill="#D42F55"/>
</g>
<g style="mix-blend-mode:soft-light" opacity="0.5">
<path d="M89.5232 347.64C89.3775 348.08 83.6934 348.97 83.0618 347.66C82.4303 346.35 83.5841 319.24 85.0051 318.49C86.4261 317.74 90.6649 344.03 89.5111 347.64H89.5232Z" fill="white"/>
</g>
<path d="M87.1797 326.78C94.1147 326.38 100.855 325.41 106.297 324.37C110.195 323.63 113.438 322.86 115.709 322.2C117.847 321.6 119.122 321.09 119.231 320.84C119.729 319.71 119.486 312.77 119.28 308.23C119.171 305.9 119.061 304.22 119.061 304.22L112.819 304.39L109.43 304.47L55.5166 305.89C55.5166 305.89 57.7271 321.89 58.2615 322.68C58.6015 323.19 69.2045 326.57 81.6292 326.87H81.6535C83.4753 326.92 85.285 326.89 87.1554 326.79L87.1797 326.78Z" fill="url(#paint6_linear_531_24733)"/>
<g style="mix-blend-mode:multiply" opacity="0.8">
<path d="M106.297 324.36C113.827 322.93 119.013 321.35 119.231 320.83C119.972 319.14 119.061 304.21 119.061 304.21L113.754 306.09C107.353 307.19 98.2563 309.54 97.6854 312.53C96.0458 321.1 98.3656 323.72 99.155 324.42C100.054 325.22 102.629 324.8 106.284 324.36H106.297Z" fill="#D42F55"/>
</g>
<path d="M90.6168 310.25C108.155 308.67 119.705 306.45 119.061 304.22C118.576 302.44 114.774 299.75 106.224 298.17C101.39 297.27 95.0498 296.74 86.8881 296.94C85.6857 296.96 84.4348 297.01 83.1595 297.08C57.8849 298.36 55.9659 304.07 55.5287 305.88C55.055 307.67 73.0788 311.82 90.6168 310.24V310.25Z" fill="#FF7A00"/>
<g style="mix-blend-mode:soft-light" opacity="0.5">
<path d="M117.057 304.14C118.927 302.82 107.195 296.43 88.6367 298.28C70.0786 300.12 68.8519 306.97 70.2607 307.81C71.6696 308.65 106.527 311.59 117.057 304.14Z" fill="white"/>
</g>
<path d="M74.8154 312.27C74.3296 311.54 66.5444 309.12 65.4149 310.71C64.2854 312.3 65.0141 323.69 66.1072 324.24C67.1881 324.79 74.0746 325.88 74.2932 324.95C74.5118 324.02 75.3377 313.04 74.8276 312.27H74.8154Z" fill="#FF6500"/>
<path d="M57.3022 307.15C57.0836 306.92 63.2656 308.38 69.8241 309.21C77.1842 310.15 84.9816 310.5 84.18 310.57C72.654 311.71 58.2131 308.1 57.29 307.14L57.3022 307.15Z" fill="#FFA457"/>
<g style="mix-blend-mode:multiply" opacity="0.5">
<path d="M115.721 322.2C117.859 321.6 119.134 321.09 119.243 320.84C119.741 319.71 119.499 312.77 119.292 308.23C112.819 308.17 102.677 308.88 101.827 313.9C101.013 318.72 108.859 321.24 115.721 322.2Z" fill="#D42F55"/>
</g>
<path d="M102.677 301.78C102.385 308.72 69.5927 308.48 69.4591 302.2C69.4348 301.05 69.3984 299.82 69.3741 298.53C69.3741 297.62 69.3498 296.67 69.3377 295.68C69.0098 274.33 68.9247 237 66.2042 205.07C64.018 179.39 57.9331 130.66 55.0911 108.51C54.2774 102.1 53.7187 97.91 53.6094 97.13C53.6094 97.04 53.6094 97 53.6094 97L84.4952 95.3C84.4952 95.3 84.4952 95.35 84.4952 95.43C84.4466 97.3 83.9851 118.49 84.9081 148.96C85.3818 165.12 85.7097 183.95 87.8473 203.77C89.3655 217.88 91.1994 231.47 93.0577 243.82C96.8349 269.05 100.685 289.07 102.118 297.53C102.519 299.86 102.738 301.32 102.713 301.77L102.677 301.78Z" fill="url(#paint7_linear_531_24733)"/>
<g style="mix-blend-mode:multiply" opacity="0.8">
<path d="M53.5977 97.13L84.4592 95.43C84.4227 97.3 83.949 118.49 84.8721 148.95C81.8843 131.52 77.6334 113.01 73.9048 112.9C68.7673 112.74 60.5691 110.49 55.0915 108.5C54.2778 102.1 53.7313 97.91 53.6098 97.12L53.5977 97.13Z" fill="#D42F55"/>
</g>
<path d="M62.9006 50.14C62.9006 50.14 56.3907 50.2 56.0384 51.96C55.6862 53.72 61.6496 74.43 61.6496 74.43L62.9006 50.14Z" fill="#FC6212"/>
<path d="M68.0875 104.13C75.0225 103.73 81.7632 102.76 87.2043 101.72C91.103 100.98 94.3459 100.21 96.617 99.5499C98.7546 98.9499 100.03 98.4399 100.139 98.1899C100.637 97.0599 100.394 90.1199 100.188 85.5799C100.078 83.2499 99.9692 81.5699 99.9692 81.5699L93.7264 81.7399L90.3379 81.8199L36.4365 83.2299C36.4365 83.2299 38.647 99.2299 39.1814 100.02C39.5215 100.53 50.1244 103.91 62.5492 104.21H62.5735C64.3953 104.26 66.2049 104.23 68.0753 104.13H68.0875Z" fill="url(#paint8_linear_531_24733)"/>
<g style="mix-blend-mode:multiply" opacity="0.8">
<path d="M87.2164 101.71C94.7466 100.28 99.9327 98.7 100.151 98.18C100.892 96.49 99.9813 81.56 99.9813 81.56L94.6737 83.44C88.2731 84.54 79.1762 86.89 78.6053 89.88C76.9657 98.45 79.2855 101.07 80.0749 101.77C80.9737 102.57 83.5485 102.15 87.2043 101.71H87.2164Z" fill="#D42F55"/>
</g>
<path d="M71.5361 87.59C89.0741 86.01 100.624 83.79 99.9807 81.56C99.4949 79.78 95.6934 77.09 87.143 75.51C82.3091 74.61 75.9692 74.08 67.8075 74.28C66.6051 74.3 65.3541 74.35 64.0789 74.42C38.8043 75.71 36.8853 81.42 36.4359 83.23C35.9622 85.02 53.986 89.17 71.524 87.59H71.5361Z" fill="#FF7A00"/>
<g style="mix-blend-mode:multiply" opacity="0.5">
<path d="M87.1431 75.51C82.3092 74.61 75.9693 74.08 67.8076 74.28C68.2691 77.36 69.2529 80.84 71.1719 81.16C73.3702 81.55 81.5198 78.26 87.1431 75.51Z" fill="#D42F55"/>
</g>
<g style="mix-blend-mode:soft-light" opacity="0.5">
<path d="M97.9769 81.49C99.8473 80.17 88.1149 73.78 69.5567 75.63C50.9985 77.47 49.7718 84.32 51.1807 85.16C52.5895 86 87.4469 88.94 97.9769 81.49Z" fill="white"/>
</g>
<path d="M71.6218 81.14C71.6704 81.05 71.719 80.96 71.7675 80.89C71.8161 80.8 71.8404 80.73 71.8526 80.67C71.9011 80.58 71.9254 80.51 71.9376 80.45C71.9619 80.36 71.974 80.29 71.9983 80.2V80.18C73.14 75.43 72.3505 57.81 71.1238 51.65C71.0995 51.61 71.0874 51.59 71.0874 51.54C70.6016 49.13 59.3792 49.9 56.8408 51.54C56.5129 51.76 56.3186 52.01 56.3429 52.25C56.6343 55.84 62.7071 79.95 63.6665 81.37C64.8204 83.07 70.5651 82.4 71.6096 81.15L71.6218 81.14Z" fill="url(#paint9_linear_531_24733)"/>
<g style="mix-blend-mode:multiply" opacity="0.8">
<path d="M63.8723 53.67C67.103 53.29 70.1636 52.58 71.1353 51.64C71.111 51.6 71.0988 51.58 71.0988 51.53C70.613 49.12 59.3906 49.89 56.8522 51.53C56.7065 51.71 56.6701 51.89 56.7065 52.07C56.9616 52.89 59.3421 54.19 63.8601 53.68L63.8723 53.67Z" fill="#D42F55"/>
</g>
<g style="mix-blend-mode:multiply" opacity="0.8">
<path d="M67.3707 83.42C69.9456 83.23 71.0994 82 71.6216 81.14C71.6702 81.05 71.7188 80.96 71.7674 80.89C71.816 80.8 71.8402 80.73 71.8524 80.67C71.901 80.58 71.9253 80.51 71.9374 80.45C71.9738 80.29 71.9981 80.2 71.9981 80.2V80.18C73.1398 75.43 72.3504 57.81 71.1237 51.65C71.1237 51.65 69.2168 60.69 69.7269 68.78C70.2249 76.89 71.6216 79.98 70.6257 80.9C69.6298 81.81 64.9295 82.47 63.6664 81.37C63.0955 80.87 63.217 83.75 67.3586 83.43L67.3707 83.42Z" fill="#D42F55"/>
</g>
<g style="mix-blend-mode:multiply" opacity="0.8">
<path d="M70.4311 51.29C70.5282 50.76 62.6094 48.94 59.8646 51.01C57.1197 53.08 70.1274 53.03 70.4311 51.29Z" fill="#D42F55"/>
</g>
<g style="mix-blend-mode:soft-light" opacity="0.5">
<path d="M65.1599 54.79C64.9534 54.37 59.1722 54.11 58.7592 55.48C58.3463 56.85 63.1923 80.35 64.7226 80.94C66.253 81.53 66.8967 58.24 65.1599 54.79Z" fill="white"/>
</g>
<path d="M57.7875 53C57.7875 53 58.2248 53.82 60.4717 53.93C62.1842 54.02 62.9129 53.76 62.9129 53.76C62.9129 53.76 62.6093 53.75 60.3867 53.61C59.5365 53.56 58.0304 52.83 57.7754 53H57.7875Z" fill="#FFA457"/>
<path d="M55.7353 89.62C55.2495 88.89 47.4643 86.47 46.3348 88.06C45.2053 89.65 45.934 101.04 47.0271 101.59C48.108 102.14 54.9945 103.23 55.2131 102.3C55.4317 101.37 56.2576 90.39 55.7475 89.62H55.7353Z" fill="#FF6500"/>
<path d="M38.2094 84.5C37.9908 84.27 44.1728 85.73 50.7313 86.56C58.0915 87.5 65.8888 87.85 65.0872 87.93C53.5612 89.07 39.1203 85.46 38.1973 84.5H38.2094Z" fill="#FFA457"/>
<g style="mix-blend-mode:multiply" opacity="0.5">
<path d="M96.6285 99.54C98.7661 98.94 100.041 98.43 100.151 98.18C100.649 97.05 100.406 90.11 100.199 85.57C93.7258 85.51 83.5844 86.22 82.7342 91.24C81.9204 96.06 89.7664 98.58 96.6285 99.54Z" fill="#D42F55"/>
</g>
<g style="mix-blend-mode:multiply" opacity="0.8">
<path d="M92.6692 242.16C92.6327 241.87 92.6084 241.69 92.6084 241.6C92.6449 241.75 92.7058 242.17 92.7788 242.84C92.7179 242.59 92.6814 242.36 92.6692 242.16Z" fill="#D42F55"/>
</g>
<g style="mix-blend-mode:multiply" opacity="0.8">
<path d="M108.871 298.72C108.871 298.72 108.798 298.75 108.774 298.75C102.494 299.38 104.389 300.94 104.498 301.57C104.596 302.2 104.778 306.9 85.9524 307.68C67.1149 308.46 67.2121 302.51 65.5967 300.94C64.9287 300.28 63.0948 300.4 61.1758 300.78C63.1433 299.95 65.791 299.17 69.3861 298.52C69.3861 297.61 69.3618 296.66 69.3496 295.67C69.8233 296.68 70.4427 297.53 71.1715 298.22C75.1309 301.98 82.4667 301.02 90.3855 297.81C90.847 297.62 91.2478 297.32 91.6243 296.91C98.1828 289.79 93.7862 250.59 92.7781 242.86C92.851 243.15 92.9117 243.47 93.0211 243.83C96.7983 269.06 100.648 289.08 102.082 297.54C103.575 297.72 104.96 297.93 106.235 298.17C107.17 298.34 108.045 298.53 108.871 298.72Z" fill="#D42F55"/>
</g>
<path d="M101.632 257.42C98.7296 236.15 95.6568 209.55 95.4625 190.99C95.2317 169.44 95.001 143.45 94.8552 126.23C94.758 115.42 94.7095 108.06 94.6973 107.41V107.36C94.6973 107.36 85.7583 111.44 70.1636 112.06C68.9855 112.11 66.605 113.7 66.4957 114.7C65.9248 120.12 64.8925 128.71 63.9451 130.11C62.8885 131.64 61.2003 120.35 60.3744 114.28C60.2286 113.18 60.095 112.25 60.0222 111.6C52.3706 110.59 47.731 108.4 47.5488 108.31V108.39C47.5488 108.46 47.5488 108.52 47.5488 108.59L61.9897 293.12C61.9897 293.12 59.8036 299.53 88.6489 298.29C106.879 297.51 106.879 292.18 106.879 292.18C106.879 292.18 104.329 277.08 101.645 257.43L101.632 257.42Z" fill="url(#paint10_linear_531_24733)"/>
<path d="M63.7507 111.51C63.7142 111.25 51.9939 109.85 52.2125 107.96C52.2854 107.3 53.2813 106.7 54.7995 106.23C54.7145 105.62 54.6538 105.04 54.5688 104.48C51.7875 105.27 48.0588 106.59 47.5851 108.05C47.5609 108.13 47.5366 108.22 47.5244 108.3V108.38C47.5244 108.45 47.5244 108.51 47.5244 108.58C47.8159 110.42 52.164 113.21 60.3378 114.27C60.2407 113.59 61.4673 129.79 63.6778 130.25C63.7993 130.28 63.7628 111.76 63.7264 111.51H63.7507ZM84.3372 103.12C84.3372 103.76 84.3372 104.43 84.3372 105.13C87.3978 105.99 88.831 106.77 88.8067 107.18C88.7459 108.01 82.6854 110.62 70.7343 111.2C69.3619 111.27 66.6049 113.7 66.4956 114.7C67.8437 114.72 69.2404 114.7 70.7343 114.62C86.5355 113.86 94.4664 108.58 94.6972 107.4C94.6972 107.38 94.6972 107.37 94.6972 107.36C94.7458 106.65 90.1912 104.2 84.3372 103.11V103.12Z" fill="#FFC59F"/>
<path d="M467.586 108.3C467.586 108.3 467.27 104.85 445.579 104.02C423.887 103.19 420.401 107.36 420.401 107.36L434.162 117.17L458.004 116.7L467.574 108.29L467.586 108.3Z" fill="#872316"/>
<path d="M426.936 349.21C426.936 349.21 433.397 349.86 434.041 348.16C434.684 346.45 432.11 325.28 432.11 325.28L426.936 349.22V349.21Z" fill="#FC6212"/>
<path d="M423.28 317.53C423.219 317.61 423.159 317.7 423.098 317.76C423.037 317.84 423.001 317.91 422.976 317.97C422.916 318.05 422.879 318.12 422.855 318.18C422.818 318.27 422.794 318.33 422.758 318.42V318.44C420.863 323.02 418.798 340.57 419.017 346.81C419.041 346.86 419.041 346.88 419.029 346.92C419.126 349.37 430.361 349.83 433.142 348.49C433.506 348.31 433.737 348.08 433.762 347.84C434.053 344.25 431.928 319.69 431.199 318.18C430.324 316.37 424.531 316.41 423.292 317.53H423.28Z" fill="url(#paint11_linear_531_24733)"/>
<g style="mix-blend-mode:multiply" opacity="0.8">
<path d="M427.859 315.74C425.272 315.64 423.936 316.73 423.28 317.53C423.219 317.61 423.159 317.7 423.098 317.76C423.037 317.84 423.001 317.91 422.976 317.97C422.916 318.05 422.879 318.12 422.855 318.18C422.794 318.33 422.758 318.42 422.758 318.42V318.44C420.863 323.02 418.798 340.57 419.017 346.81C419.017 346.81 422.369 338.06 423.159 329.99C423.972 321.9 423.086 318.68 424.215 317.88C425.345 317.08 430.118 316.95 431.187 318.18C431.672 318.73 432.013 315.87 427.859 315.73V315.74Z" fill="#D42F55"/>
</g>
<g style="mix-blend-mode:soft-light" opacity="0.5">
<path d="M425.587 347.64C425.733 348.08 431.417 348.97 432.049 347.66C432.68 346.35 431.526 319.24 430.105 318.49C428.684 317.74 424.433 344.03 425.599 347.64H425.587Z" fill="white"/>
</g>
<path d="M427.932 326.78C420.997 326.38 414.256 325.41 408.815 324.37C404.916 323.63 401.674 322.86 399.402 322.2C397.265 321.6 395.989 321.09 395.88 320.84C395.382 319.71 395.625 312.77 395.832 308.23C395.941 305.9 396.05 304.22 396.05 304.22L402.293 304.39L405.681 304.47L459.595 305.89C459.595 305.89 457.385 321.89 456.85 322.68C456.51 323.19 445.907 326.57 433.482 326.87H433.458C431.636 326.92 429.827 326.89 427.956 326.79L427.932 326.78Z" fill="url(#paint12_linear_531_24733)"/>
<g style="mix-blend-mode:multiply" opacity="0.8">
<path d="M408.802 324.36C401.272 322.93 396.086 321.35 395.867 320.83C395.127 319.14 396.037 304.21 396.037 304.21L401.345 306.09C407.746 307.19 416.843 309.54 417.413 312.53C419.053 321.1 416.733 323.72 415.944 324.42C415.045 325.22 412.47 324.8 408.814 324.36H408.802Z" fill="#D42F55"/>
</g>
<path d="M424.482 310.25C406.944 308.67 395.394 306.45 396.037 304.22C396.523 302.44 400.325 299.75 408.875 298.17C413.709 297.27 420.049 296.74 428.211 296.94C429.413 296.96 430.664 297.01 431.939 297.08C457.214 298.36 459.133 304.07 459.57 305.88C460.044 307.67 442.02 311.82 424.482 310.24V310.25Z" fill="#FF7A00"/>
<g style="mix-blend-mode:soft-light" opacity="0.5">
<path d="M398.042 304.14C396.171 302.82 407.904 296.43 426.462 298.28C445.02 300.12 446.247 306.97 444.838 307.81C443.429 308.65 408.572 311.59 398.042 304.14Z" fill="white"/>
</g>
<path d="M440.283 312.27C440.769 311.54 448.554 309.12 449.684 310.71C450.813 312.3 450.084 323.69 448.991 324.24C447.91 324.79 441.024 325.88 440.805 324.95C440.587 324.02 439.773 313.04 440.271 312.27H440.283Z" fill="#FF6500"/>
<path d="M457.809 307.15C458.027 306.92 451.845 308.38 445.287 309.21C437.927 310.15 430.129 310.5 430.931 310.57C442.457 311.71 456.898 308.1 457.821 307.14L457.809 307.15Z" fill="#FFA457"/>
<g style="mix-blend-mode:multiply" opacity="0.5">
<path d="M399.39 322.2C397.252 321.6 395.977 321.09 395.867 320.84C395.37 319.71 395.612 312.77 395.819 308.23C402.292 308.17 412.434 308.88 413.284 313.9C414.098 318.72 406.252 321.24 399.39 322.2Z" fill="#D42F55"/>
</g>
<path d="M412.434 301.78C412.725 308.72 445.518 308.48 445.651 302.2C445.676 301.05 445.712 299.82 445.737 298.53C445.737 297.62 445.761 296.67 445.773 295.68C446.101 274.33 446.186 237 448.906 205.07C451.093 179.39 457.178 130.66 460.02 108.51C460.833 102.1 461.392 97.91 461.501 97.13C461.501 97.04 461.501 97 461.501 97L430.615 95.3C430.615 95.3 430.615 95.35 430.615 95.43C430.664 97.3 431.126 118.49 430.203 148.96C429.729 165.12 429.401 183.95 427.263 203.77C425.745 217.88 423.911 231.47 422.053 243.82C418.276 269.05 414.426 289.07 412.992 297.53C412.592 299.86 412.373 301.32 412.397 301.77L412.434 301.78Z" fill="url(#paint13_linear_531_24733)"/>
<g style="mix-blend-mode:multiply" opacity="0.8">
<path d="M461.501 97.13L430.64 95.43C430.676 97.3 431.15 118.49 430.227 148.95C433.214 131.52 437.465 113.01 441.194 112.9C446.331 112.74 454.53 110.49 460.007 108.5C460.821 102.1 461.367 97.91 461.489 97.12L461.501 97.13Z" fill="#D42F55"/>
</g>
<path d="M452.21 50.14C452.21 50.14 458.72 50.2 459.073 51.96C459.425 53.72 453.461 74.43 453.461 74.43L452.198 50.14H452.21Z" fill="#FC6212"/>
<path d="M447.012 104.13C440.077 103.73 433.336 102.76 427.895 101.72C423.996 100.98 420.754 100.21 418.482 99.5499C416.345 98.9499 415.07 98.4399 414.96 98.1899C414.462 97.0599 414.705 90.1199 414.912 85.5799C415.021 83.2499 415.13 81.5699 415.13 81.5699L421.373 81.7399L424.762 81.8199L478.675 83.2399C478.675 83.2399 476.465 99.2399 475.93 100.03C475.59 100.54 464.987 103.92 452.562 104.22H452.538C450.716 104.27 448.907 104.24 447.036 104.14L447.012 104.13Z" fill="url(#paint14_linear_531_24733)"/>
<g style="mix-blend-mode:multiply" opacity="0.8">
<path d="M427.895 101.71C420.365 100.28 415.179 98.7 414.96 98.18C414.219 96.49 415.13 81.56 415.13 81.56L420.438 83.44C426.838 84.54 435.935 86.89 436.506 89.88C438.146 98.45 435.826 101.07 435.037 101.77C434.138 102.57 431.563 102.15 427.907 101.71H427.895Z" fill="#D42F55"/>
</g>
<path d="M443.575 87.59C426.037 86.01 414.486 83.79 415.13 81.56C415.616 79.78 419.417 77.09 427.968 75.51C432.802 74.61 439.142 74.08 447.303 74.28C448.506 74.3 449.757 74.35 451.032 74.42C476.307 75.7 478.226 81.41 478.663 83.22C479.136 85.01 461.113 89.16 443.575 87.58V87.59Z" fill="#FF7A00"/>
<g style="mix-blend-mode:multiply" opacity="0.5">
<path d="M427.956 75.51C432.79 74.61 439.13 74.08 447.292 74.28C446.83 77.36 445.846 80.84 443.927 81.16C441.729 81.55 433.579 78.26 427.956 75.51Z" fill="#D42F55"/>
</g>
<g style="mix-blend-mode:soft-light" opacity="0.5">
<path d="M417.135 81.49C415.264 80.17 426.997 73.78 445.555 75.63C464.113 77.47 465.34 84.32 463.931 85.16C462.522 86 427.665 88.94 417.135 81.49Z" fill="white"/>
</g>
<path d="M443.478 81.14C443.429 81.05 443.381 80.96 443.332 80.89C443.284 80.8 443.259 80.73 443.247 80.67C443.199 80.58 443.174 80.51 443.162 80.45C443.138 80.36 443.126 80.29 443.101 80.2V80.18C441.96 75.43 442.749 57.81 443.976 51.65C444 51.61 444.012 51.59 444.012 51.54C444.498 49.13 455.72 49.9 458.259 51.54C458.587 51.76 458.781 52.01 458.757 52.25C458.465 55.84 452.393 79.95 451.433 81.37C450.279 83.07 444.535 82.4 443.49 81.15L443.478 81.14Z" fill="url(#paint15_linear_531_24733)"/>
<g style="mix-blend-mode:multiply" opacity="0.8">
<path d="M451.239 53.67C448.008 53.29 444.947 52.58 443.976 51.64C444 51.6 444.012 51.58 444.012 51.53C444.498 49.12 455.72 49.89 458.259 51.53C458.404 51.71 458.441 51.89 458.404 52.07C458.149 52.89 455.769 54.19 451.251 53.68L451.239 53.67Z" fill="#D42F55"/>
</g>
<g style="mix-blend-mode:multiply" opacity="0.8">
<path d="M447.729 83.42C445.154 83.23 444 82 443.478 81.14C443.429 81.05 443.381 80.96 443.332 80.89C443.284 80.8 443.259 80.73 443.247 80.67C443.199 80.58 443.174 80.51 443.162 80.45C443.126 80.29 443.101 80.2 443.101 80.2V80.18C441.96 75.43 442.749 57.81 443.976 51.65C443.976 51.65 445.883 60.69 445.36 68.78C444.862 76.89 443.466 79.98 444.462 80.9C445.458 81.81 450.158 82.47 451.421 81.37C451.992 80.87 451.87 83.75 447.729 83.43V83.42Z" fill="#D42F55"/>
</g>
<g style="mix-blend-mode:multiply" opacity="0.8">
<path d="M444.668 51.29C444.571 50.76 452.49 48.94 455.234 51.01C457.979 53.08 444.972 53.03 444.668 51.29Z" fill="#D42F55"/>
</g>
<g style="mix-blend-mode:soft-light" opacity="0.5">
<path d="M449.951 54.79C450.158 54.37 455.939 54.11 456.352 55.48C456.765 56.85 451.919 80.35 450.389 80.94C448.858 81.53 448.215 58.24 449.951 54.79Z" fill="white"/>
</g>
<path d="M457.324 53C457.324 53 456.886 53.82 454.639 53.93C452.927 54.02 452.198 53.76 452.198 53.76C452.198 53.76 452.502 53.75 454.724 53.61C455.575 53.56 457.081 52.83 457.336 53H457.324Z" fill="#FFA457"/>
<path d="M459.376 89.62C459.862 88.89 467.647 86.47 468.776 88.06C469.906 89.65 469.177 101.04 468.084 101.59C467.003 102.14 460.117 103.23 459.898 102.3C459.68 101.37 458.866 90.39 459.364 89.62H459.376Z" fill="#FF6500"/>
<path d="M476.902 84.5C477.12 84.27 470.938 85.73 464.38 86.56C457.02 87.5 449.222 87.85 450.024 87.93C461.55 89.07 475.991 85.46 476.914 84.5H476.902Z" fill="#FFA457"/>
<g style="mix-blend-mode:multiply" opacity="0.5">
<path d="M418.482 99.54C416.345 98.94 415.07 98.43 414.96 98.18C414.462 97.05 414.705 90.11 414.912 85.57C421.385 85.51 431.527 86.22 432.377 91.24C433.191 96.06 425.345 98.58 418.482 99.54Z" fill="#D42F55"/>
</g>
<g style="mix-blend-mode:multiply" opacity="0.8">
<path d="M422.442 242.16C422.478 241.87 422.502 241.69 422.502 241.6C422.466 241.75 422.405 242.17 422.332 242.84C422.393 242.59 422.429 242.36 422.442 242.16Z" fill="#D42F55"/>
</g>
<g style="mix-blend-mode:multiply" opacity="0.8">
<path d="M406.228 298.72C406.228 298.72 406.3 298.75 406.325 298.75C412.604 299.38 410.709 300.94 410.6 301.57C410.503 302.2 410.308 306.9 429.146 307.68C447.983 308.46 447.886 302.51 449.502 300.94C450.17 300.28 452.004 300.4 453.923 300.78C451.955 299.95 449.307 299.17 445.712 298.52C445.712 297.61 445.737 296.66 445.749 295.67C445.275 296.68 444.656 297.53 443.927 298.22C439.968 301.98 432.632 301.02 424.713 297.81C424.251 297.62 423.851 297.32 423.474 296.91C416.916 289.79 421.312 250.59 422.32 242.86C422.247 243.15 422.187 243.47 422.077 243.83C418.3 269.06 414.45 289.08 413.017 297.54C411.523 297.72 410.138 297.93 408.863 298.17C407.928 298.34 407.053 298.53 406.228 298.72Z" fill="#D42F55"/>
</g>
<path d="M422.745 298.04C422.745 298.04 425.296 297.61 425.866 296.4C426.437 295.2 427.615 286.98 427.615 286.98L424.64 285.7L422.745 298.04Z" fill="#FFC59F"/>
<path d="M433.932 298.44C433.932 298.44 438.705 296.36 439.178 294.87C439.652 293.38 445.737 270.24 445.737 270.24L442.603 265.38L433.932 298.43V298.44Z" fill="#FFC59F"/>
<path d="M422.745 298.04C422.745 298.04 425.296 297.61 425.866 296.4C426.437 295.2 427.615 286.98 427.615 286.98L424.64 285.7L422.745 298.04Z" fill="#DB6345"/>
<path d="M433.932 298.44C433.932 298.44 438.705 296.36 439.178 294.87C439.652 293.38 445.737 270.24 445.737 270.24L442.603 265.38L433.932 298.43V298.44Z" fill="#DB6345"/>
<path d="M467.586 108.31C467.404 108.39 462.764 110.58 455.113 111.6C455.028 112.25 446.137 112.11 444.971 112.06C429.365 111.44 420.438 107.36 420.438 107.36V107.41C420.438 108.34 420.316 122.63 420.146 141.12V141.14C420.013 156.62 419.855 175.04 419.673 191C419.454 211.67 415.665 242.33 412.519 264.48C410.223 280.58 408.256 292.18 408.256 292.18C408.256 292.18 408.256 296.76 422.745 298.04C423.863 294.41 426.34 286.66 426.814 287.27C427.288 287.86 428.101 294.95 428.466 298.36C430.446 298.43 432.255 298.45 433.931 298.44C434.563 296.3 435.717 292.46 437.016 288.29C439.785 279.4 443.259 268.98 443.927 270.29C444.595 271.61 444.899 281.31 445.032 289.07C445.093 292.72 445.117 295.94 445.129 297.67C454.19 296.2 453.133 293.1 453.133 293.1L467.574 108.57C467.574 108.5 467.574 108.44 467.574 108.37V108.29L467.586 108.31Z" fill="url(#paint16_linear_531_24733)"/>
<path d="M467.513 108.06C467.04 106.59 463.311 105.28 460.53 104.49C460.445 105.04 460.384 105.63 460.299 106.24C461.817 106.71 462.813 107.31 462.886 107.97C463.08 109.65 453.826 111.14 451.749 111.4C435.753 113.34 426.353 108.01 426.304 107.19C426.28 106.79 427.725 106 430.774 105.14C430.774 104.44 430.774 103.77 430.774 103.13C424.919 104.22 420.365 106.66 420.413 107.38C420.413 107.38 420.413 107.4 420.413 107.42C420.656 108.59 428.551 114.7 444.376 114.64C459.242 114.58 467.258 110.44 467.562 108.6C467.562 108.53 467.562 108.47 467.562 108.4V108.32C467.562 108.24 467.526 108.15 467.501 108.07L467.513 108.06Z" fill="#FFC59F"/>
<g style="mix-blend-mode:multiply" opacity="0.2">
<path d="M374.698 270.25C373.508 270.45 368.857 270.75 361.654 271.09C361.715 267.65 361.484 265.42 360.804 266.02C360.258 266.51 359.201 268.51 357.926 271.25C350.821 271.58 341.845 271.93 331.594 272.27C331.218 271.08 330.854 270.31 330.55 270.24C330.21 270.16 329.845 271 329.469 272.34C284.604 273.85 217.039 275.37 176.388 274.46C175.72 273.78 175.259 273.54 175.149 273.99C175.113 274.1 175.076 274.25 175.052 274.42C157.235 274 144.846 273.09 142.235 271.48C134.62 266.78 103.431 159.02 121.321 139.61C122.353 138.49 124.114 137.46 126.519 136.51C127.284 139.11 127.916 140.49 128.159 139.29C128.317 138.54 128.572 137.26 128.887 135.68C152.437 128.1 220.112 126.17 281.13 127.66C283.717 140.41 288.223 160.45 290.349 156.2C292.328 152.26 295.498 137.77 297.454 128.15C346.533 129.87 387.925 133.79 392.941 138.67C405.499 150.89 383.808 268.66 374.674 270.23L374.698 270.25Z" fill="#EF7A98"/>
</g>
<g style="mix-blend-mode:multiply" opacity="0.2">
<path d="M101.633 257.42C96.4586 244.03 90.9932 226.03 89.4993 206.97C87.1431 177.01 92.3535 141.1 94.8554 126.23C95.0012 143.45 95.2319 169.45 95.4627 190.99C95.657 209.55 98.742 236.15 101.633 257.42Z" fill="#EF7A98"/>
</g>
<g style="mix-blend-mode:multiply" opacity="0.2">
<path d="M424.275 207.39C421.98 233.15 416.818 252.24 412.494 264.47C415.64 242.32 419.429 211.67 419.648 190.99C419.818 175.02 419.976 156.61 420.121 141.13C423.461 156.97 426.656 180.59 424.275 207.39Z" fill="#EF7A98"/>
</g>
<g style="mix-blend-mode:screen" opacity="0.3">
<path d="M66.1562 291.13C64.3344 288.75 51.7032 123.44 55.2496 122.19C56.9864 121.58 69.314 154.58 74.2694 164.58C78.0709 172.25 94.4672 287.63 93.034 289.87C90.2406 294.26 70.4557 296.76 66.1441 291.12L66.1562 291.13Z" fill="#FF8390"/>
</g>
<g style="mix-blend-mode:screen" opacity="0.3">
<path d="M449.259 288.72C448.785 288.58 447.122 288.89 445.033 289.08C444.899 281.32 444.595 271.62 443.927 270.3C443.259 268.98 439.786 279.41 437.017 288.3C435.17 287.47 433.725 285.99 433.288 283.41C432.304 277.72 428.065 123.36 427.58 121.36C426.559 117.19 454.967 117.6 461.052 119.27C467.149 120.94 451.178 289.31 449.259 288.73V288.72Z" fill="#FF8390"/>
</g>
<path d="M60.3623 114.28C60.3623 114.28 63.0829 111.15 63.7509 111.52C64.4189 111.89 64.0302 130.1 63.7023 130.26C63.3744 130.42 61.6983 129.76 60.3623 114.28Z" fill="#DB6345"/>
<path d="M121.964 116.76C121.964 116.76 123.98 114.26 124.745 114.52C125.51 114.78 129.433 133.24 129.409 133.58C129.385 133.92 128.68 139.88 127.988 139.74C126.786 139.51 124.235 128.98 121.976 116.77L121.964 116.76Z" fill="#DB6345"/>
<path d="M135.798 118.18C135.798 118.18 138.798 115.98 138.859 116.37C139.466 120.32 140.535 124.79 140.45 124.85C140.352 124.92 138.895 130.68 137.899 130.24C136.502 129.63 135.761 119 135.81 118.17L135.798 118.18Z" fill="#DB6345"/>
<path d="M280.353 123.69C280.353 123.69 284.919 119.37 285.296 120.1C285.672 120.83 287.251 135.28 292.972 149.39C293.251 150.09 290.822 157.53 289.741 157.06C288.66 156.59 282.381 138.35 280.353 123.69Z" fill="#DB6345"/>
<g style="mix-blend-mode:screen" opacity="0.3">
<path d="M61.4066 217.78C54.2773 216.74 66.7385 295.78 73.5763 290.76C80.4263 285.75 92.4139 222.32 61.4066 217.78Z" fill="#FF8390"/>
</g>
<g style="mix-blend-mode:multiply" opacity="0.3">
<path d="M54.1801 112.98C54.0951 113.03 59.2933 114.41 59.7184 115.43C60.1435 116.45 60.8844 131.6 63.5442 130.84C66.2041 130.08 66.0826 118.19 66.0826 118.19C66.0826 118.19 64.5402 130.6 63.69 130.25C62.0868 129.6 60.5929 114.41 60.35 114.27C60.1071 114.13 54.2651 112.92 54.168 112.98H54.1801Z" fill="#C60055"/>
</g>
<path d="M67.0184 114.52C66.3625 114.45 68.1844 111.6 70.7227 111.21C73.2611 110.82 83.439 109.67 84.2042 110.74C84.9693 111.81 73.1761 115.2 67.0184 114.52Z" fill="#FFDEC8"/>
<path d="M441.182 111.91C442.494 111.7 447.692 112.58 453.874 111.44C460.056 110.3 461.052 108.82 462.619 108.74C464.186 108.66 466.809 109.01 466.238 109.84C465.667 110.66 459.68 113.6 452.404 114.23C445.129 114.86 434.004 113.06 441.182 111.92V111.91Z" fill="#FFDEC8"/>
<path d="M142.672 118.74C142.259 118.68 143.959 116.78 144.81 116.76C145.66 116.74 166.088 117.82 166.562 118.44C167.036 119.07 165.943 120.24 165.42 120.24C164.898 120.24 144.64 119.03 142.66 118.73L142.672 118.74Z" fill="#FFDEC8"/>
<path d="M300.161 122.69C299.505 122.59 300.732 119.37 302.882 119.04C305.032 118.71 334.581 117.21 334.678 118.44C334.776 119.67 328.654 121.02 325.035 121.39C321.416 121.76 306.525 123.66 300.149 122.7L300.161 122.69Z" fill="#FFDEC8"/>
<g style="mix-blend-mode:multiply" opacity="0.3">
<path d="M106.721 114.92C106.721 114.92 118.757 117.39 120.275 119.74C121.794 122.09 126.36 149.5 129.02 144.09C131.68 138.69 132.397 117.84 132.397 117.84C132.397 117.84 128.692 138.77 128.194 138.74C125.632 138.61 123.603 117.81 121.951 116.76C120.3 115.71 106.709 114.92 106.709 114.92H106.721Z" fill="#C60055"/>
</g>
<g style="mix-blend-mode:multiply" opacity="0.3">
<path d="M132.81 117.86C132.858 117.92 134.376 118.27 134.777 119.7C135.178 121.13 135.227 135.44 137.886 133.91C140.546 132.38 141.785 118.74 141.785 118.74C141.785 118.74 139.344 130.19 138.129 129.68C136.915 129.17 136.38 118.3 135.797 118.17C135.214 118.04 132.81 117.85 132.81 117.85V117.86Z" fill="#C60055"/>
</g>
<g style="mix-blend-mode:multiply" opacity="0.3">
<path d="M257.519 123.97C257.968 124.07 276.222 124.86 277.619 126.95C279.016 129.04 282.052 165.84 290.809 160.57C299.554 155.3 298.497 123.12 298.497 123.12C298.497 123.12 293.603 155.46 290.056 155.25C286.51 155.04 282.004 124.11 280.352 123.71C278.7 123.31 257.531 123.98 257.531 123.98L257.519 123.97Z" fill="#C60055"/>
</g>
<g style="mix-blend-mode:multiply" opacity="0.3">
<path d="M149.146 284.85C149.146 284.85 171.882 282.34 172.635 280.93C173.4 279.52 173.485 272.47 175.161 272.82C176.825 273.17 181.586 281.43 181.586 281.43C181.586 281.43 176.035 272.77 175.367 274.06C174.712 275.35 174.651 282.02 174.092 282.12C173.533 282.22 149.146 284.84 149.146 284.84V284.85Z" fill="#C60055"/>
</g>
<g style="mix-blend-mode:multiply" opacity="0.3">
<path d="M306.222 281.16C306.222 281.16 324.488 282.62 325.557 281.06C326.626 279.5 327.585 266.7 330.44 267.64C333.294 268.58 334.132 283.49 334.132 283.49C334.132 283.49 331.715 270.38 330.573 270.82C328.496 271.63 328.788 282.92 327.646 282.93C326.505 282.94 306.222 281.16 306.222 281.16Z" fill="#C60055"/>
</g>
<g style="mix-blend-mode:multiply" opacity="0.3">
<path d="M340.837 284.07C340.837 284.07 349.108 283.99 350.019 282.9C350.918 281.8 358.484 260.19 361.569 263.09C364.666 265.99 360.585 286.06 360.585 286.06C360.585 286.06 362.104 266.65 360.998 267C359.893 267.35 352.63 284.85 352.011 285.18C351.391 285.52 340.837 284.07 340.837 284.07Z" fill="#C60055"/>
</g>
<g style="mix-blend-mode:multiply" opacity="0.2">
<path d="M144.53 217.78C144.749 219.61 141.409 228.13 137.741 234.54C135.142 239.11 132.385 242.61 130.648 241.9C128.899 241.18 126.798 239.63 124.843 237.58C120.58 233.14 116.972 226.39 119.061 220.92C122.098 212.93 144.166 214.65 144.542 217.78H144.53Z" fill="#C60055"/>
</g>
<g style="mix-blend-mode:multiply" opacity="0.2">
<path d="M150.724 211.53C150.239 212.7 149.303 213.88 147.858 214.96C146.935 215.65 145.308 214.72 143.899 213.17C141.385 210.41 139.563 205.65 143.583 204.55C148.502 203.2 152.486 207.29 150.724 211.53Z" fill="#C60055"/>
</g>
<g style="mix-blend-mode:multiply" opacity="0.2">
<path d="M151.283 241.59C149.376 242.5 153.663 251.77 153.845 247.93C154.04 244.09 153.748 240.41 151.283 241.59Z" fill="#C60055"/>
</g>
<g style="mix-blend-mode:multiply" opacity="0.2">
<path d="M303.938 170.48C301.327 172.63 306.987 186.46 312.501 179.09C318.015 171.73 306.222 168.6 303.938 170.48Z" fill="#C60055"/>
</g>
<g style="mix-blend-mode:multiply" opacity="0.2">
<path d="M307.169 159.52C303.125 160.35 306.598 166.41 308.687 164.85C310.776 163.29 311.736 158.59 307.169 159.52Z" fill="#C60055"/>
</g>
<g style="mix-blend-mode:multiply" opacity="0.2">
<path d="M376.847 213.24C372.22 212.31 367.082 223.58 376.082 222.95C385.082 222.32 383.054 214.49 376.847 213.24Z" fill="#C60055"/>
</g>
<g style="mix-blend-mode:multiply" opacity="0.2">
<path d="M437.514 252.6C436.846 255.84 435.607 258.8 433.652 260.85C432.935 261.6 431.66 261.4 430.215 260.57C426.644 258.46 422.187 252.26 423.644 246.44C425.66 238.3 431.502 230.68 434.915 232.66C437.38 234.09 439.251 244.27 437.502 252.6H437.514Z" fill="#C60055"/>
</g>
<g style="mix-blend-mode:multiply" opacity="0.2">
<path d="M75.3498 133.88C71.4512 133.67 71.5483 141.97 74.0138 141.66C76.4915 141.35 78.204 134.04 75.3498 133.88Z" fill="#C60055"/>
</g>
<g style="mix-blend-mode:multiply" opacity="0.2">
<path d="M76.4313 129.6C74.7553 131.23 79.662 133.52 79.8563 131.79C80.0507 130.07 78.5203 127.56 76.4313 129.6Z" fill="#C60055"/>
</g>
<g style="mix-blend-mode:multiply" opacity="0.2">
<path d="M144.53 217.78C144.749 219.61 141.409 228.13 137.741 234.54C136.696 231.93 142.708 220.35 142.247 218.1C141.749 215.65 132.616 214.96 123.409 218.25C114.215 221.54 125.049 237.41 125.049 237.41C125.049 237.41 124.964 237.49 124.818 237.58C120.555 233.14 116.948 226.39 119.037 220.92C122.073 212.93 144.142 214.65 144.518 217.78H144.53Z" fill="#C60055"/>
</g>
<g style="mix-blend-mode:multiply" opacity="0.2">
<path d="M150.724 211.53C150.652 211.37 150.615 211.18 150.591 210.97C150.36 209.31 149.571 205.26 144.494 205.1C139.429 204.95 144.117 213.01 144.117 213.01C144.117 213.01 144.032 213.09 143.899 213.17C141.385 210.41 139.563 205.65 143.583 204.55C148.502 203.2 152.486 207.29 150.724 211.53Z" fill="#C60055"/>
</g>
<g style="mix-blend-mode:multiply" opacity="0.2">
<path d="M437.515 252.6H437.466C435.559 252.54 436.008 234.69 433.021 233.91C430.045 233.13 425.406 241.53 424.713 247.95C424.021 254.38 429.972 259.7 430.482 260.02C430.762 260.19 430.579 260.43 430.203 260.57C426.632 258.46 422.175 252.26 423.632 246.44C425.648 238.3 431.49 230.68 434.903 232.66C437.369 234.09 439.239 244.27 437.49 252.6H437.515Z" fill="#C60055"/>
</g>
<g style="mix-blend-mode:multiply" opacity="0.1">
<path d="M150.117 267.11C150.955 262.11 220.123 194.02 276.417 202.79C332.723 211.56 378.888 257.5 371.273 263.35C363.67 269.2 148.077 279.22 150.117 267.11Z" fill="#EF7A98"/>
</g>
<g filter="url(#filter0_i_531_24733)">
<path d="M166.938 216.976C166.698 215.056 166.554 213.136 166.362 211.168C166.362 210.304 166.362 209.392 166.362 208.48C166.362 207.808 166.554 207.52 166.986 207.472C167.514 207.328 167.802 207.712 167.994 208.096C169.242 210.496 171.018 212.512 172.746 214.48C173.274 215.104 173.946 215.632 174.666 216.064C175.194 216.448 175.818 216.736 176.49 216.88C177.834 217.168 179.13 216.208 179.322 214.864C179.418 214.192 179.322 213.52 179.034 212.896C177.882 210.304 176.106 208.192 173.946 206.32C172.89 205.408 171.69 204.592 170.586 203.68C169.818 203.008 169.098 202.288 168.426 201.52C167.418 200.32 166.938 198.976 166.89 197.44C166.842 195.472 167.13 193.6 168.09 191.872C169.866 188.656 173.226 187.312 176.826 188.272C177.402 188.416 177.93 188.512 178.458 188.368C179.85 188.032 181.338 187.744 182.538 186.88C182.634 186.832 182.73 186.784 182.826 186.736C183.162 186.496 183.498 186.4 183.882 186.64C184.266 186.928 184.314 187.312 184.218 187.744C184.026 188.608 183.882 189.424 183.69 190.24C183.21 192.496 182.682 194.752 182.202 197.008C182.154 197.2 182.058 197.44 182.01 197.632C181.866 197.968 181.578 198.16 181.242 198.064C180.954 198.016 180.666 197.776 180.57 197.536C180.378 197.2 180.33 196.768 180.234 196.336C179.802 194.656 179.274 192.976 177.93 191.776C177.498 191.344 176.97 191.056 176.394 190.816C175.53 190.48 174.762 190.816 174.234 191.536C173.85 192.16 173.658 192.832 173.802 193.552C174.042 194.992 174.618 196.336 175.722 197.344C176.586 198.16 177.594 198.832 178.506 199.552C179.802 200.56 181.242 201.424 182.442 202.528C185.37 205.264 186.138 208.672 185.466 212.416C184.986 215.056 183.354 216.88 181.05 218.224C179.466 219.136 177.69 219.616 175.914 219.952C175.29 220.096 174.666 220.192 174.09 220.336C172.026 220.912 170.49 222.064 169.914 224.224C169.818 224.464 169.818 224.752 169.626 224.896C169.434 225.136 169.146 225.376 168.858 225.328C168.618 225.328 168.33 225.04 168.186 224.8C168.042 224.56 168.042 224.224 167.994 223.888C167.61 221.584 167.274 219.28 166.938 216.976ZM199.919 197.152C200.639 198.736 200.927 200.416 200.927 202.192C200.927 202.528 200.927 202.864 200.927 203.152C200.927 203.92 200.687 204.208 199.967 204.256C199.007 204.304 198.047 204.304 197.039 204.352C195.311 204.448 193.535 204.544 191.615 204.688C191.663 206.272 191.615 207.76 191.759 209.248C191.807 209.872 192.047 210.544 192.335 211.12C193.055 212.512 194.543 212.752 195.647 211.6C196.271 210.88 196.799 210.064 197.279 209.248C197.519 208.864 197.663 208.384 197.855 207.952C198.095 207.424 198.191 206.752 199.007 206.8C199.535 206.848 199.775 207.28 199.823 208.336C199.919 210.064 199.967 211.84 200.063 213.616C200.111 214.144 200.111 214.672 200.159 215.2C200.207 215.632 200.063 215.968 199.631 216.16C199.199 216.304 198.911 216.112 198.671 215.776C198.095 215.008 197.231 214.624 196.367 214.336C195.983 214.192 195.695 214.24 195.455 214.528C195.119 214.816 194.735 215.152 194.447 215.488C192.383 217.6 189.551 216.592 188.303 215.056C187.583 214.144 187.055 213.136 186.815 212.032C186.143 208.864 185.903 205.648 186.383 202.432C186.575 201.04 187.007 199.744 187.583 198.544C188.687 196.432 190.319 194.992 192.527 194.128C194.639 193.264 198.767 194.416 199.919 197.152ZM191.999 202.48C193.487 202.432 194.879 202.384 196.367 202.336C196.175 200.464 196.031 198.688 195.263 197.056C195.167 196.864 195.023 196.72 194.927 196.528C194.591 196.192 194.351 196.144 194.015 196.528C193.871 196.672 193.727 196.912 193.631 197.104C192.719 198.736 192.335 200.56 191.999 202.48ZM231.036 216.112C231.372 216.4 231.708 216.688 231.516 217.168C231.372 217.744 230.892 217.744 230.412 217.792C229.644 217.84 228.876 217.888 228.108 217.984C227.1 218.128 226.188 218.512 225.324 219.04C224.652 219.424 223.98 219.712 223.308 220.048C222.924 220.24 222.54 220.192 222.3 219.856C222.156 219.616 222.156 219.232 222.156 218.944C222.156 218.752 222.3 218.56 222.396 218.368C224.124 215.056 224.796 211.504 224.7 207.808C224.7 206.08 224.652 204.4 224.556 202.72C224.508 201.904 224.316 201.136 224.124 200.368C224.028 200.032 223.788 199.696 223.596 199.408C222.828 199.6 222.588 200.08 222.3 200.608C221.532 201.904 221.052 203.392 220.764 204.88C220.38 207.088 220.428 209.248 220.716 211.456C220.812 212.56 221.196 213.568 221.916 214.432C221.916 214.48 221.964 214.48 221.964 214.528C222.204 214.864 222.348 215.248 222.06 215.536C221.82 215.728 221.436 215.824 221.148 215.776C220.188 215.68 219.276 215.488 218.316 215.296C217.02 215.056 215.724 215.248 214.476 215.584C214.14 215.68 213.756 215.776 213.42 215.776C212.7 215.776 212.364 215.104 212.748 214.528C212.844 214.384 212.94 214.24 213.084 214.144C213.948 213.376 214.332 212.368 214.38 211.216C214.524 208.912 214.716 206.656 214.764 204.352C214.812 202.816 214.668 201.328 214.572 199.792C214.524 199.264 214.38 198.64 213.852 198.256C213.276 198.352 212.988 198.784 212.796 199.264C212.22 200.56 211.644 201.808 211.212 203.152C210.78 204.496 210.54 205.888 210.204 207.28C209.772 209.248 209.916 211.264 210.06 213.28C210.108 213.952 210.252 214.624 210.396 215.344C210.54 216.208 210.828 216.976 211.404 217.648C211.644 217.984 211.884 218.32 211.644 218.752C211.356 219.232 210.924 219.232 210.492 219.136C209.292 218.752 208.092 218.368 206.892 217.984C205.308 217.504 203.772 217.072 202.236 216.592C201.996 216.496 201.756 216.448 201.564 216.352C200.988 216.016 201.036 215.296 201.612 215.008C201.804 214.912 201.996 214.864 202.188 214.816C203.34 214.72 203.868 214 204.252 213.04C204.732 211.744 204.924 210.4 204.972 209.056C205.02 206.704 205.02 204.4 204.972 202.048C204.972 200.8 204.78 199.552 204.252 198.352C203.82 197.2 203.148 196.288 201.852 195.856C201.276 195.664 201.084 195.328 201.132 194.848C201.228 194.272 201.66 194.176 202.092 194.176C203.964 193.984 205.836 193.792 207.66 193.648C208.86 193.504 210.06 193.36 211.212 193.264C211.548 193.216 211.932 193.168 212.22 193.264C212.508 193.36 212.796 193.648 212.844 193.936C212.94 194.128 212.7 194.464 212.556 194.656C212.46 194.8 212.172 194.848 212.028 194.992C211.74 195.232 211.404 195.52 211.26 195.856C210.78 196.912 210.636 198.064 210.588 199.456C210.876 199.072 211.02 198.88 211.164 198.688C211.884 197.728 212.508 196.672 213.276 195.76C215.148 193.552 217.164 193.696 218.652 196.192C219.228 197.152 219.516 198.256 219.948 199.312C220.044 199.6 220.14 199.936 220.236 200.416C220.476 199.936 220.62 199.552 220.812 199.216C221.292 198.112 221.916 197.104 222.78 196.24C224.172 194.944 226.044 194.896 227.484 196.192C228.54 197.2 229.164 198.496 229.548 199.888C230.172 202.24 230.028 204.64 229.836 207.04C229.74 208.432 229.5 209.872 229.404 211.264C229.26 212.656 229.644 213.904 230.172 215.152C230.316 215.536 230.7 215.824 231.036 216.112ZM241.346 198.256C241.202 199.024 241.058 199.792 241.01 200.512C240.818 203.968 240.626 207.424 240.434 210.88C240.434 211.504 240.53 212.128 240.626 212.752C240.77 213.616 241.202 214.336 241.97 214.768C242.162 214.912 242.402 215.008 242.498 215.2C242.69 215.488 242.882 215.872 242.834 216.16C242.738 216.448 242.354 216.688 242.066 216.832C241.778 216.976 241.394 216.928 241.058 216.928C238.754 217.072 236.45 217.168 234.098 217.264C233.57 217.312 233.042 217.408 232.514 217.456C232.13 217.504 231.794 217.408 231.602 216.976C231.458 216.592 231.602 216.256 231.938 216.016C233.666 214.624 234.338 212.752 234.578 210.64C234.866 208.048 235.106 205.408 235.394 202.576C235.346 201.808 235.298 200.8 235.202 199.792C235.106 198.784 234.53 198.112 233.57 197.728C233.426 197.68 233.33 197.632 233.186 197.584C232.802 197.392 232.514 197.152 232.562 196.672C232.61 196.192 232.946 195.952 233.33 195.856C233.906 195.712 234.482 195.616 235.106 195.568C237.314 195.424 239.522 195.328 241.778 195.184C242.114 195.184 242.45 195.088 242.738 195.184C242.978 195.28 243.314 195.52 243.362 195.76C243.41 195.952 243.266 196.336 243.074 196.528C242.93 196.72 242.642 196.816 242.402 196.912C241.826 197.2 241.442 197.632 241.346 198.256ZM238.082 193.36C237.218 193.408 236.402 193.168 235.778 192.496C234.29 191.056 234.242 188.176 235.682 186.64C236.402 185.872 237.314 185.92 238.178 185.824C240.626 185.824 242.114 187.648 241.586 190C241.154 191.968 239.858 193.216 238.082 193.36ZM270.486 191.104C269.67 190.48 268.806 190.096 267.654 190.288C266.934 193.84 266.886 197.44 267.078 201.136C267.318 200.944 267.558 200.848 267.654 200.704C268.23 199.888 268.806 199.024 269.382 198.16C269.526 197.872 269.622 197.584 269.718 197.344C269.958 196.864 270.246 196.528 270.774 196.576C271.35 196.624 271.59 197.056 271.686 197.536C271.926 198.736 272.166 199.984 272.31 201.232C272.646 204.016 272.886 206.8 273.174 209.584C273.222 209.824 273.222 210.112 273.174 210.352C273.174 210.736 272.934 210.976 272.55 211.024C272.166 211.12 271.83 210.928 271.734 210.496C271.638 210.256 271.638 210.016 271.59 209.728C271.254 208.336 271.014 206.848 270.582 205.504C270.054 203.968 268.902 203.296 267.414 203.44C267.366 203.44 267.27 203.488 267.174 203.536C267.126 203.728 267.078 204.016 267.078 204.256C267.174 207.376 267.27 210.496 267.366 213.616C267.414 214.288 267.606 215.008 267.75 215.68C267.942 216.544 268.518 217.12 269.382 217.36C270.246 217.648 270.438 217.888 270.39 218.368C270.294 218.848 269.958 219.088 269.142 219.136C267.174 219.136 265.254 219.424 263.334 219.904C261.942 220.288 260.598 220.72 259.398 221.536C258.822 221.872 258.438 221.824 258.15 221.44C257.862 221.056 257.958 220.672 258.438 220.192C258.87 219.808 259.35 219.424 259.734 218.944C260.55 218.032 260.982 216.928 260.982 215.68C260.982 213.472 260.982 211.312 260.982 209.104C260.934 203.968 260.886 198.88 260.838 193.744C260.838 192.928 260.838 192.064 260.838 191.248C260.886 190.576 260.598 190.096 260.07 189.76C259.542 189.424 258.966 189.136 258.438 188.848C258.102 188.704 257.814 188.56 257.574 188.368C256.998 187.888 257.19 187.168 257.91 186.976C258.102 186.928 258.39 186.928 258.582 186.976C261.126 187.312 263.67 187.696 266.214 187.984C268.326 188.272 270.438 188.32 272.55 187.936C273.99 187.648 275.286 187.072 276.39 186.16C276.486 186.112 276.582 186.064 276.63 186.016C276.966 185.776 277.35 185.632 277.638 185.872C277.878 186.112 278.07 186.544 278.022 186.832C277.974 187.744 277.782 188.608 277.686 189.52C277.59 190.816 277.446 192.16 277.35 193.456C277.206 196.048 277.11 198.64 276.966 201.232C276.966 201.28 276.966 201.328 276.918 201.328C276.87 202.096 276.582 202.48 276.102 202.528C275.67 202.576 275.382 202.288 275.094 201.616C274.95 201.28 274.854 200.896 274.758 200.56C274.086 198.064 273.03 195.664 272.022 193.312C271.686 192.448 271.254 191.68 270.486 191.104ZM287.33 198.256C287.186 199.024 287.042 199.792 286.994 200.512C286.802 203.968 286.61 207.424 286.418 210.88C286.418 211.504 286.514 212.128 286.61 212.752C286.754 213.616 287.186 214.336 287.954 214.768C288.146 214.912 288.386 215.008 288.482 215.2C288.674 215.488 288.866 215.872 288.818 216.16C288.722 216.448 288.338 216.688 288.05 216.832C287.762 216.976 287.378 216.928 287.042 216.928C284.738 217.072 282.434 217.168 280.082 217.264C279.554 217.312 279.026 217.408 278.498 217.456C278.114 217.504 277.778 217.408 277.586 216.976C277.442 216.592 277.586 216.256 277.922 216.016C279.65 214.624 280.322 212.752 280.562 210.64C280.85 208.048 281.09 205.408 281.378 202.576C281.33 201.808 281.282 200.8 281.186 199.792C281.09 198.784 280.514 198.112 279.554 197.728C279.41 197.68 279.314 197.632 279.17 197.584C278.786 197.392 278.498 197.152 278.546 196.672C278.594 196.192 278.93 195.952 279.314 195.856C279.89 195.712 280.466 195.616 281.09 195.568C283.298 195.424 285.506 195.328 287.762 195.184C288.098 195.184 288.434 195.088 288.722 195.184C288.962 195.28 289.298 195.52 289.346 195.76C289.394 195.952 289.25 196.336 289.058 196.528C288.914 196.72 288.626 196.816 288.386 196.912C287.81 197.2 287.426 197.632 287.33 198.256ZM284.066 193.36C283.202 193.408 282.386 193.168 281.762 192.496C280.274 191.056 280.226 188.176 281.666 186.64C282.386 185.872 283.298 185.92 284.162 185.824C286.61 185.824 288.098 187.648 287.57 190C287.138 191.968 285.842 193.216 284.066 193.36ZM313.498 213.664C313.978 214.096 313.882 214.768 313.258 215.008C313.162 215.056 313.066 215.104 312.97 215.104C311.146 215.152 309.514 215.968 307.882 216.736C306.874 217.168 305.818 217.6 304.762 218.032C304.33 218.224 303.898 218.272 303.562 217.888C303.274 217.504 303.37 217.12 303.562 216.784C304.81 214.576 305.242 212.128 305.29 209.68C305.434 206.56 305.338 203.392 304.762 200.32C304.666 199.696 304.426 199.072 304.138 198.544C303.658 197.776 302.89 197.632 302.17 198.112C301.642 198.448 301.114 198.88 300.73 199.36C299.818 200.608 299.098 202.048 298.666 203.536C298.57 203.92 298.522 204.352 298.522 204.736C298.378 208.24 298.282 211.792 298.57 215.296C298.618 215.632 298.666 215.968 298.666 216.304C298.762 217.024 299.098 217.552 299.914 217.552C299.962 217.552 300.01 217.552 300.01 217.6C300.682 217.744 300.97 217.984 300.97 218.416C300.922 218.896 300.49 219.184 299.866 219.184C297.13 219.184 294.394 219.04 291.706 218.56C291.178 218.464 290.65 218.464 290.122 218.416C289.498 218.32 289.162 218.032 289.114 217.6C289.066 217.072 289.402 216.784 289.834 216.64C291.61 216.064 292.282 214.768 292.474 213.04C292.57 211.936 292.762 210.832 292.762 209.776C292.81 206.512 292.81 203.248 292.762 199.984C292.762 199.12 292.57 198.256 292.378 197.44C292.186 196.672 291.754 196.048 290.89 195.808C290.41 195.712 290.122 195.472 290.17 194.896C290.218 194.368 290.65 194.272 291.082 194.224C293.098 193.984 295.114 193.744 297.13 193.504C297.898 193.408 298.666 193.168 299.482 192.976C299.77 192.928 300.154 192.832 300.442 192.928C300.682 192.976 301.018 193.216 301.066 193.456C301.114 193.696 300.922 193.984 300.778 194.224C300.73 194.32 300.586 194.416 300.442 194.416C299.434 194.656 299.002 195.376 298.906 196.384C298.858 197.056 298.762 197.776 298.714 198.448C298.81 198.496 298.858 198.496 298.954 198.544C299.194 198.16 299.386 197.728 299.626 197.344C300.298 196.24 301.066 195.28 302.074 194.464C303.754 193.168 305.674 193.12 307.45 194.224C308.89 195.184 309.802 196.576 310.378 198.16C311.05 200.08 311.242 202.048 311.29 204.064C311.386 205.6 311.338 207.184 311.338 208.768C311.386 209.584 311.434 210.4 311.578 211.216C311.674 212.224 312.154 212.992 313.066 213.424C313.21 213.472 313.402 213.568 313.498 213.664ZM332.931 215.392C333.315 215.44 333.603 215.68 333.651 216.064C333.651 216.496 333.411 216.736 332.979 216.88C332.883 216.928 332.787 216.928 332.643 216.976C330.771 217.312 328.899 217.648 327.027 217.984C326.643 218.08 326.211 218.128 325.827 218.128C324.771 218.224 324.003 217.792 323.475 216.88C323.091 217.216 322.755 217.504 322.371 217.792C320.451 219.136 318.051 218.992 316.419 217.36C315.219 216.208 314.691 214.768 314.547 213.184C314.211 210.016 315.315 207.28 317.811 205.024C319.203 203.728 320.979 203.104 323.043 203.344C323.571 203.392 324.099 203.584 324.723 203.728C324.723 203.392 324.723 203.056 324.675 202.768C324.387 201.232 324.099 199.744 323.139 198.4C322.179 197.104 320.979 196.96 319.779 198.112C318.963 198.976 318.291 199.936 317.715 200.944C317.235 201.808 316.947 202.768 316.563 203.728C316.467 203.872 316.467 204.064 316.371 204.208C316.179 204.592 315.891 204.88 315.363 204.832C314.835 204.784 314.595 204.448 314.547 204.016C314.307 201.376 313.923 198.784 314.211 196.144C314.259 195.904 314.259 195.664 314.307 195.472C314.451 194.992 314.787 194.704 315.315 194.656C315.891 194.608 316.179 194.944 316.323 195.424C316.419 195.808 316.563 196.192 316.707 196.528C317.091 197.248 317.427 197.344 318.195 196.912C318.915 196.528 319.587 196.144 320.259 195.76C324.195 193.36 328.179 194.992 329.955 198.112C330.867 199.696 331.299 201.424 331.251 203.2C331.107 205.888 330.819 208.576 330.627 211.264C330.531 212.08 330.483 212.896 330.579 213.712C330.723 214.768 331.155 215.104 332.307 215.296C332.499 215.296 332.739 215.344 332.931 215.392ZM323.427 213.712C324.291 211.696 324.291 209.536 324.099 207.424C324.051 207.04 323.907 206.704 323.715 206.368C323.235 205.552 322.515 205.456 321.747 206.128C321.507 206.368 321.267 206.656 321.027 206.992C319.923 208.72 319.299 210.592 319.155 212.56C319.059 214.096 319.251 215.632 320.547 217.072C321.027 216.688 321.603 216.4 321.939 216.016C322.515 215.296 323.091 214.528 323.427 213.712ZM347.527 220.624C347.623 221.104 347.287 221.344 346.903 221.536C346.231 221.872 345.511 222.112 344.695 221.968C343.351 221.728 341.959 221.488 340.615 221.2C338.455 220.672 336.247 220.24 333.991 220.336C333.607 220.336 333.223 220.24 333.079 219.76C332.935 219.328 333.175 218.992 333.559 218.8C333.559 218.752 333.607 218.752 333.655 218.752C335.335 218.032 335.863 216.592 336.103 214.912C336.343 213.184 336.583 211.456 336.679 209.68C336.967 203.728 337.159 197.824 336.967 191.872C336.919 190.48 336.151 189.52 334.759 189.136C334.567 189.088 334.375 189.04 334.183 188.992C333.799 188.896 333.511 188.656 333.559 188.224C333.559 187.744 333.847 187.504 334.279 187.408C334.855 187.312 335.383 187.264 335.959 187.216C338.743 186.928 341.527 186.64 344.263 186.4C344.407 186.352 344.551 186.352 344.791 186.352C345.127 186.4 345.607 186.448 346.087 186.544C346.663 186.64 346.903 186.88 346.903 187.312C346.903 187.744 346.567 188.224 346.087 188.32C345.847 188.368 345.607 188.368 345.415 188.32C344.647 188.224 344.167 188.56 343.879 189.184C343.543 189.952 343.303 190.768 343.111 191.536C342.967 192.4 342.919 193.264 342.871 194.128C342.727 199.456 342.631 204.736 342.487 210.064C342.439 211.6 342.343 213.136 342.343 214.672C342.343 215.248 342.391 215.872 342.439 216.448C342.727 218.416 344.023 219.664 345.991 219.904C346.231 219.904 346.471 219.952 346.663 219.952C347.095 220 347.479 220.144 347.527 220.624Z" fill="#A34216"/>
</g>
</g>
<defs>
<filter id="filter0_i_531_24733" x="166.361" y="185.632" width="181.262" height="43.744" filterUnits="userSpaceOnUse" color-interpolation-filters="sRGB">
<feFlood flood-opacity="0" result="BackgroundImageFix"/>
<feBlend mode="normal" in="SourceGraphic" in2="BackgroundImageFix" result="shape"/>
<feColorMatrix in="SourceAlpha" type="matrix" values="0 0 0 0 0 0 0 0 0 0 0 0 0 0 0 0 0 0 127 0" result="hardAlpha"/>
<feOffset dy="4"/>
<feGaussianBlur stdDeviation="2"/>
<feComposite in2="hardAlpha" operator="arithmetic" k2="-1" k3="1"/>
<feColorMatrix type="matrix" values="0 0 0 0 0 0 0 0 0 0 0 0 0 0 0 0 0 0 0.25 0"/>
<feBlend mode="normal" in2="shape" result="effect1_innerShadow_531_24733"/>
</filter>
<linearGradient id="paint0_linear_531_24733" x1="261.687" y1="250.496" x2="274.56" y2="-259.604" gradientUnits="userSpaceOnUse">
<stop stop-color="#003248"/>
<stop offset="1" stop-color="#0079AE" stop-opacity="0"/>
</linearGradient>
<radialGradient id="paint1_radial_531_24733" cx="0" cy="0" r="1" gradientUnits="userSpaceOnUse" gradientTransform="translate(249.308 203.21) scale(249.377 203.196)">
<stop stop-color="#00FFFF"/>
<stop offset="1" stop-color="#009999" stop-opacity="0"/>
</radialGradient>
<linearGradient id="paint2_linear_531_24733" x1="13.9182" y1="201.75" x2="557.887" y2="201.75" gradientUnits="userSpaceOnUse">
<stop stop-color="#E65E49"/>
<stop offset="0.02" stop-color="#E7624C"/>
<stop offset="0.2" stop-color="#F48361"/>
<stop offset="0.35" stop-color="#FC966F"/>
<stop offset="0.45" stop-color="#FF9E74"/>
<stop offset="0.57" stop-color="#FC976F"/>
<stop offset="0.73" stop-color="#F58463"/>
<stop offset="0.92" stop-color="#E9664E"/>
<stop offset="1" stop-color="#E45845"/>
</linearGradient>
<linearGradient id="paint3_linear_531_24733" x1="127.478" y1="328.64" x2="88.8672" y2="59.2382" gradientUnits="userSpaceOnUse">
<stop stop-color="#C60055"/>
<stop offset="1" stop-color="white"/>
</linearGradient>
<linearGradient id="paint4_linear_531_24733" x1="441.923" y1="333.57" x2="403.828" y2="67.7722" gradientUnits="userSpaceOnUse">
<stop stop-color="#C60055"/>
<stop offset="1" stop-color="white"/>
</linearGradient>
<linearGradient id="paint5_linear_531_24733" x1="95.7754" y1="332.714" x2="75.1669" y2="333.735" gradientUnits="userSpaceOnUse">
<stop stop-color="#A71100"/>
<stop offset="0.39" stop-color="#D83303"/>
<stop offset="1" stop-color="#EC5C11"/>
</linearGradient>
<linearGradient id="paint6_linear_531_24733" x1="125.878" y1="316.823" x2="46.0489" y2="310.974" gradientUnits="userSpaceOnUse">
<stop stop-color="#A71100"/>
<stop offset="0.39" stop-color="#D83303"/>
<stop offset="1" stop-color="#EC5C11"/>
</linearGradient>
<linearGradient id="paint7_linear_531_24733" x1="53.5972" y1="201.13" x2="102.677" y2="201.13" gradientUnits="userSpaceOnUse">
<stop stop-color="#A71100"/>
<stop offset="0.39" stop-color="#D83303"/>
<stop offset="1" stop-color="#EC5C11"/>
</linearGradient>
<linearGradient id="paint8_linear_531_24733" x1="106.815" y1="94.1565" x2="26.9862" y2="88.3069" gradientUnits="userSpaceOnUse">
<stop stop-color="#A71100"/>
<stop offset="0.39" stop-color="#D83303"/>
<stop offset="1" stop-color="#EC5C11"/>
</linearGradient>
<linearGradient id="paint9_linear_531_24733" x1="73.085" y1="65.6334" x2="52.6126" y2="67.9267" gradientUnits="userSpaceOnUse">
<stop stop-color="#A71100"/>
<stop offset="0.39" stop-color="#D83303"/>
<stop offset="1" stop-color="#EC5C11"/>
</linearGradient>
<linearGradient id="paint10_linear_531_24733" x1="106.903" y1="202.86" x2="22.2988" y2="203.14" gradientUnits="userSpaceOnUse">
<stop stop-color="#FFA274"/>
<stop offset="1" stop-color="#E47745"/>
</linearGradient>
<linearGradient id="paint11_linear_531_24733" x1="419.304" y1="332.741" x2="439.911" y2="333.777" gradientUnits="userSpaceOnUse">
<stop stop-color="#A71100"/>
<stop offset="0.39" stop-color="#D83303"/>
<stop offset="1" stop-color="#EC5C11"/>
</linearGradient>
<linearGradient id="paint12_linear_531_24733" x1="389.189" y1="316.861" x2="469.018" y2="310.997" gradientUnits="userSpaceOnUse">
<stop stop-color="#A71100"/>
<stop offset="0.39" stop-color="#D83303"/>
<stop offset="1" stop-color="#EC5C11"/>
</linearGradient>
<linearGradient id="paint13_linear_531_24733" x1="461.526" y1="50" x2="412.434" y2="50" gradientUnits="userSpaceOnUse">
<stop stop-color="#A71100"/>
<stop offset="0.39" stop-color="#D83303"/>
<stop offset="1" stop-color="#EC5C11"/>
</linearGradient>
<linearGradient id="paint14_linear_531_24733" x1="408.264" y1="94.1939" x2="488.093" y2="88.3297" gradientUnits="userSpaceOnUse">
<stop stop-color="#A71100"/>
<stop offset="0.39" stop-color="#D83303"/>
<stop offset="1" stop-color="#EC5C11"/>
</linearGradient>
<linearGradient id="paint15_linear_531_24733" x1="441.994" y1="65.6708" x2="462.467" y2="67.9642" gradientUnits="userSpaceOnUse">
<stop stop-color="#A71100"/>
<stop offset="0.39" stop-color="#D83303"/>
<stop offset="1" stop-color="#EC5C11"/>
</linearGradient>
<linearGradient id="paint16_linear_531_24733" x1="408.244" y1="202.83" x2="492.848" y2="203.11" gradientUnits="userSpaceOnUse">
<stop stop-color="#FFA274"/>
<stop offset="1" stop-color="#E47745"/>
</linearGradient>
<clipPath id="clip0_531_24733">
<rect width="442.239" height="299.33" fill="white" transform="translate(36.4365 50)"/>
</clipPath>
</defs>
</svg>
