<svg width="449" height="242" viewBox="0 0 449 242" fill="none" xmlns="http://www.w3.org/2000/svg">
<path d="M345.644 174.579C349.568 170.517 346.54 165.212 346.549 160.275C343.541 127.042 342.227 105.323 347.406 71.7108C348.058 69.4758 347.309 67.095 346.267 65.2195C346.676 61.2354 345.002 57.3484 341.545 55.2495C340.231 54.3943 338.596 53.753 336.989 53.4129C337.077 49.419 342.237 44.3076 337.252 41.5187C336.259 41.0134 335.383 39.0408 334.263 38.9145C331.878 38.7687 328.519 41.4021 328.324 44.2007C328.091 47.4755 330.087 49.0692 329.941 53.5489C325.637 54.579 321.412 58.1064 321.305 62.7027C318.9 65.1126 320.254 68.7469 320.604 71.7205C315.629 70.3406 311.842 67.0367 306.75 65.9386C305.826 68.9607 304.375 68.8441 305.173 65.5985C304.677 65.4916 304.18 65.3847 303.674 65.2778C299.42 75.8504 297.112 78.7462 299.488 66.7743C291.32 65.2001 282.966 63.9563 274.584 62.9845C274.117 66.3079 273.026 65.89 272.919 62.7902C261.198 62.7513 216.132 54.8705 211.994 64.8794C209.171 67.0658 206.25 62.0808 204.099 60.6135C189.933 61.284 175.661 62.6736 160.99 64.86C160.853 68.6984 159.889 69.1939 158.926 65.1807C157.592 65.3944 156.258 65.6179 154.924 65.8512C155.246 72.1966 154.272 73.5182 152.86 66.2204C144.575 67.7363 136.466 69.5729 128.667 71.7691C129.028 68.6401 130.498 65.2292 127.986 62.6736C127.879 58.0869 123.654 54.5595 119.36 53.5392C119.214 49.0595 121.21 47.4658 120.976 44.191C120.782 41.4118 118.309 38.7881 115.924 38.9339L115.291 39.0894C114.171 39.206 111.825 40.5081 111.825 40.5081C106.831 43.4039 112.205 49.2635 112.321 53.4226C106.548 54.4818 102.284 59.4182 103.043 65.307C101.973 67.2213 101.311 69.641 101.973 71.9051C107.522 107.976 105.682 134.544 101.612 170.226C102.313 171.985 103.219 173.656 104.445 175.085C104.991 179.234 108.778 182.596 113.743 183.607C113.86 185.657 113.723 187.698 113.217 189.68C108.456 199.262 122.923 200.467 125.25 192.926C125.766 188.942 120.957 188.495 120.762 183.422C124.491 182.46 128.093 179.827 129.106 175.969C131.695 175.075 134.236 174.123 136.826 173.19C142.979 170.964 150.962 168.671 156.667 168.273C156.92 164.716 158.595 158.74 161.155 164.93C163.2 165.464 165.419 164.327 167.444 164.949C170.122 163.608 173.451 164.609 176.343 164.298C205.968 163.696 236.976 160.441 268.256 165.27C270.271 149.061 274.506 146.885 270.865 165.581C272.102 165.736 273.542 165.902 274.769 166.067C275.081 154.571 277.33 159.313 276.59 166.31C282.83 167.155 288.788 168.01 294.542 169.06C295.009 168.38 295.632 167.68 296.499 167.593C296.703 167.369 297.064 167.359 297.229 167.573C298.319 167.68 298.534 169.264 299.312 169.964C306.439 170.741 312.972 173.763 320.195 175.949C321.198 179.807 324.81 182.45 328.548 183.422C328.354 188.495 326.777 189.855 325.959 193.917C327.302 200.612 343.123 199.446 338.362 189.904C338.362 189.904 335.451 185.657 335.568 183.607C340.348 182.645 344.008 179.496 344.778 175.561C345.079 175.26 345.371 174.939 345.654 174.589L345.644 174.579Z" fill="#3EEDFF"/>
<path d="M117.199 38.7397C121.833 38.6231 122.894 40.8775 122.953 42.4906C123.07 45.7362 121.035 47.3396 121.337 52.1109C121.648 56.8821 122.719 57.9024 123.751 61.527C124.326 63.5483 123.011 66.0165 118.504 66.4635C114.23 66.4829 112.448 64.2674 112.828 62.1878C113.509 58.4563 114.483 57.3194 114.337 52.5384C114.191 47.7575 112.02 46.4067 111.835 43.1611C111.737 41.5383 112.584 39.177 117.199 38.7397Z" fill="url(#paint0_linear_528_6743)"/>
<path d="M118.046 53.7724C118.144 53.5003 118.397 46.9605 118.406 44.6575C118.406 43.3748 118.309 41.9657 117.501 42.1115C116.751 42.4905 116.654 43.8509 116.81 45.085C117.102 47.3006 117.92 53.5683 118.036 53.7821L118.046 53.7724Z" fill="#FFF5CC"/>
<g style="mix-blend-mode:multiply" opacity="0.15">
<path d="M114.337 52.5382C114.191 47.7573 112.02 46.4163 111.835 43.1609C111.766 42.024 112.175 40.5275 114.006 39.5752C111.718 41.0231 112.545 44.0161 114.249 47.077C115.612 49.5258 115.729 51.9843 114.103 56.7556C114.298 55.6478 114.405 54.3554 114.346 52.5285L114.337 52.5382Z" fill="#CC0631"/>
</g>
<path d="M113.85 39.692C113.85 39.692 113.87 39.6628 113.879 39.6531C114.678 39.2158 115.749 38.8854 117.209 38.7494C121.629 38.6328 122.797 40.6832 122.943 42.2768C122.125 39.828 118.659 38.0789 113.86 39.7017L113.85 39.692Z" fill="#FFF5CC"/>
<path d="M104.981 61.1187C104.942 62.0127 105.001 64.0242 105.001 64.0242L129.982 63.8785C129.982 63.8785 129.982 62.1973 129.963 60.973C129.933 55.502 124.316 51.1001 117.413 51.1389C110.511 51.1778 105.225 55.4729 104.981 61.1187Z" fill="url(#paint1_linear_528_6743)"/>
<path d="M105.001 64.0245C105.03 69.4954 110.647 73.8974 117.55 73.8585C124.452 73.8196 130.011 69.3496 129.982 63.8787C129.953 58.4078 124.335 54.0058 117.433 54.0447C110.53 54.0836 104.971 58.5536 105.001 64.0245Z" fill="url(#paint2_linear_528_6743)"/>
<path d="M110.043 53.1116C112.088 51.8872 114.619 51.1584 117.423 51.1389C122.388 51.1098 126.672 53.3934 128.707 56.707C124.442 51.1681 116.099 50.0117 110.043 53.1116Z" fill="#FFF5CC"/>
<g style="mix-blend-mode:multiply" opacity="0.35">
<path d="M104.981 61.1185C105.117 57.8923 106.909 55.1132 109.703 53.3154C108.574 54.1706 108.447 56.1432 109.06 56.6679C109.06 56.6679 109.06 56.6874 109.051 56.6874C111.261 55.0743 114.191 54.0734 117.433 54.054C124.326 54.0151 129.943 58.4171 129.982 63.888C130.011 69.3589 124.443 73.8289 117.55 73.8678C110.647 73.9066 105.03 69.5047 105.001 64.0337C105.001 64.0337 104.942 62.0125 104.981 61.1282V61.1185Z" fill="#CC0631"/>
</g>
<path d="M117.598 58.2812C121.775 58.2618 125.202 60.9729 125.513 64.442H125.533L126.292 78.0464L109.43 78.3963L109.732 65.1125C109.732 65.1125 109.732 65.0445 109.732 65.0154C109.713 61.313 113.237 58.3006 117.608 58.2715L117.598 58.2812Z" fill="url(#paint3_linear_528_6743)"/>
<path d="M336.006 38.7397C331.382 38.6231 330.311 40.8775 330.252 42.4906C330.135 45.7362 332.17 47.3396 331.868 52.1109C331.557 56.8821 330.486 57.9024 329.454 61.527C328.88 63.5483 330.194 66.0165 334.701 66.4635C338.975 66.4829 340.757 64.2674 340.377 62.1878C339.696 58.4563 338.722 57.3194 338.868 52.5384C339.014 47.7575 341.185 46.4067 341.37 43.1611C341.468 41.5383 340.621 39.177 336.006 38.7397Z" fill="url(#paint4_linear_528_6743)"/>
<path d="M335.168 53.7724C335.071 53.5003 334.818 46.9605 334.808 44.6575C334.808 43.3748 334.905 41.9657 335.714 42.1115C336.463 42.4905 336.561 43.8509 336.405 45.085C336.113 47.3006 335.295 53.5683 335.178 53.7821L335.168 53.7724Z" fill="#FFF5CC"/>
<g style="mix-blend-mode:multiply" opacity="0.25">
<path d="M338.868 52.5382C339.014 47.7573 341.185 46.4163 341.37 43.1609C341.438 42.024 341.029 40.5275 339.199 39.5752C341.487 41.0231 340.659 44.0161 338.956 47.077C337.593 49.5258 337.476 51.9843 339.102 56.7556C338.907 55.6478 338.8 54.3554 338.858 52.5285L338.868 52.5382Z" fill="#CC0631"/>
</g>
<path d="M339.365 39.692C339.365 39.692 339.345 39.6628 339.335 39.6531C338.537 39.2158 337.466 38.8854 336.006 38.7494C331.586 38.6328 330.418 40.6832 330.271 42.2768C331.089 39.828 334.555 38.0789 339.355 39.7017L339.365 39.692Z" fill="#FFF5CC"/>
<path d="M348.224 61.1187C348.263 62.0127 348.205 64.0242 348.205 64.0242L323.223 63.8785C323.223 63.8785 323.223 62.1973 323.243 60.973C323.272 55.502 328.889 51.1001 335.792 51.1389C342.694 51.1778 347.981 55.4729 348.224 61.1187Z" fill="url(#paint5_linear_528_6743)"/>
<path d="M348.205 64.0245C348.176 69.4954 342.558 73.8974 335.656 73.8585C328.753 73.8196 323.194 69.3496 323.223 63.8787C323.252 58.4078 328.87 54.0058 335.772 54.0447C342.675 54.0836 348.234 58.5536 348.205 64.0245Z" fill="url(#paint6_linear_528_6743)"/>
<path d="M343.171 53.1116C341.127 51.8872 338.596 51.1584 335.792 51.1389C330.827 51.1098 326.543 53.3934 324.508 56.707C328.772 51.1681 337.116 50.0117 343.171 53.1116Z" fill="#FFF5CC"/>
<g style="mix-blend-mode:multiply" opacity="0.35">
<path d="M348.224 61.1185C348.088 57.8923 346.297 55.1132 343.502 53.3154C344.632 54.1706 344.758 56.1432 344.145 56.6679C344.145 56.6679 344.145 56.6874 344.155 56.6874C341.945 55.0743 339.014 54.0734 335.772 54.054C328.88 54.0151 323.262 58.4171 323.223 63.888C323.194 69.3589 328.763 73.8289 335.656 73.8678C342.558 73.9066 348.176 69.5047 348.205 64.0337C348.205 64.0337 348.263 62.0125 348.224 61.1282V61.1185Z" fill="#CC0631"/>
</g>
<path d="M335.607 58.2812C331.43 58.2618 328.003 60.9729 327.692 64.442H327.672L326.913 78.0464L343.775 78.3963L343.473 65.1125C343.473 65.1125 343.473 65.0445 343.473 65.0154C343.493 61.313 339.968 58.3006 335.597 58.2715L335.607 58.2812Z" fill="url(#paint7_linear_528_6743)"/>
<path d="M344.924 77.4536C333.504 72.6629 320.818 68.9411 307.539 66.0939C306.614 69.116 305.164 68.9994 305.962 65.7538C305.465 65.6469 304.969 65.54 304.463 65.4331C300.208 76.0057 299.069 76.8122 301.445 64.8306C293.277 63.2564 284.923 62.0126 276.541 61.0408C276.074 64.3642 274.983 63.9463 274.876 60.8465C257.82 59.0682 241.308 58.1645 224.845 58.2034C222.723 58.767 220.377 58.3491 218.225 58.9322C217.047 59.2528 215.889 60.0497 215.158 61.0603C214.72 61.6628 214.331 62.2944 213.941 62.9357C213.669 63.3925 213.328 63.5479 212.773 63.5382C211.215 63.5188 209.804 62.1583 208.723 61.1866C207.827 60.3801 206.98 59.4569 206.046 58.6698C191.871 59.3403 177.608 60.7299 162.937 62.9163C162.8 66.7547 161.837 67.2503 160.873 63.237C159.539 63.4508 158.205 63.6743 156.872 63.9075C157.193 70.2529 156.219 71.5745 154.808 64.2767C138.335 67.2891 122.524 71.5745 108.544 77.4341C115.437 111.639 106.772 153.609 104.192 164.939C103.764 166.815 103.55 168.243 103.55 168.243C111.718 188.873 137.313 167.884 156.852 166.523C157.475 164.347 157.456 161.956 159.656 160.615C161.33 159.546 162.275 161.266 163.083 162.957C164.134 163.307 165.458 162.996 166.5 162.879C167.474 162.772 168.467 162.743 169.372 162.977C170.17 162.462 171.193 162.248 172.156 162.335C174.211 162.345 176.245 162.335 178.27 162.325C178.416 162.199 178.562 162.083 178.718 161.976C179.39 161.509 180.237 161.305 181.045 161.431C181.454 161.5 181.814 161.674 182.145 161.888C182.486 161.976 182.817 162.102 183.138 162.248C212.014 161.636 238.796 158.448 268.646 163.239C270.914 148.663 273.124 148.692 271.255 163.55C272.491 163.705 273.728 163.861 274.954 164.026C275.168 157.593 276.57 158.584 276.775 164.269C283.015 165.114 289.1 166.076 294.863 167.126C295.331 166.446 295.954 165.746 296.82 165.659C297.025 165.435 297.385 165.425 297.55 165.639C298.641 165.746 298.865 167.33 299.634 168.03C318.102 170.022 343.288 186.988 349.899 168.253C349.899 168.253 336.872 117.305 344.895 77.4341L344.924 77.4536Z" fill="url(#paint8_linear_528_6743)"/>
<path style="mix-blend-mode:multiply" opacity="0.35" d="M344.924 77.4541C336.464 73.9072 327.303 70.9434 317.732 68.4946C317.694 68.5335 317.655 68.5626 317.625 68.6015C323.116 81.3313 323.106 96.6266 323.106 117.995C323.106 139.364 320.215 161.024 314.101 171.247L314.335 171.548C329.532 176.28 344.963 182.334 349.928 168.273C349.928 168.273 336.902 117.325 344.924 77.4541Z" fill="url(#paint9_linear_528_6743)"/>
<g style="mix-blend-mode:multiply" opacity="0.35">
<path d="M344.924 77.4536C333.504 72.6629 320.819 68.9411 307.54 66.0939C306.615 69.116 305.164 68.9994 305.963 65.7538C305.466 65.6469 304.969 65.54 304.463 65.4331C300.209 76.0057 299.07 76.8122 301.445 64.8306C293.277 63.2564 284.924 62.0126 276.542 61.0408C276.074 64.3642 274.984 63.9463 274.877 60.8465C257.82 59.0682 241.309 58.1645 224.846 58.2034C222.723 58.767 220.377 58.3491 218.226 58.9322C217.048 59.2528 215.889 60.0497 215.159 61.0603C214.721 61.6628 214.331 62.2944 213.942 62.9357C213.669 63.3925 213.329 63.5479 212.774 63.5382C211.216 63.5188 209.804 62.1583 208.724 61.1866C207.828 60.3801 206.981 59.4569 206.046 58.6698C191.871 59.3403 177.609 60.7299 162.937 62.9163C162.801 66.7547 161.837 67.2503 160.873 63.237C159.54 63.4508 158.206 63.6743 156.872 63.9075C157.193 70.2529 156.22 71.5745 154.808 64.2767C138.336 67.2891 122.525 71.5745 108.545 77.4341C116.586 117.314 103.56 168.273 103.56 168.273C111.728 188.903 137.323 167.913 156.862 166.553C157.485 164.376 157.466 161.985 159.666 160.644C161.341 159.575 162.285 161.295 163.093 162.986C164.145 163.336 165.469 163.025 166.51 162.909C167.484 162.802 168.477 162.772 169.382 163.006C170.181 162.491 171.203 162.277 172.167 162.364C174.221 162.374 176.256 162.364 178.281 162.355C178.427 162.228 178.573 162.112 178.728 162.005C179.4 161.538 180.247 161.334 181.055 161.461C181.464 161.529 181.824 161.704 182.155 161.917C182.496 162.005 182.827 162.131 183.148 162.277C212.024 161.665 238.807 158.477 268.656 163.268C270.924 148.692 273.134 148.721 271.265 163.579C272.501 163.735 273.738 163.89 274.964 164.055C275.179 157.622 276.581 158.613 276.785 164.298C283.026 165.144 289.11 166.106 294.874 167.155C295.341 166.475 295.964 165.775 296.831 165.688C297.035 165.464 297.395 165.454 297.561 165.668C298.651 165.775 298.875 167.359 299.644 168.059C318.113 170.051 343.298 187.017 349.909 168.282C349.909 168.282 336.883 117.334 344.905 77.4633L344.924 77.4536ZM319.573 169.643C318.794 169.341 317.957 169.05 317.09 168.778C317.042 168.418 316.925 168.068 316.75 167.777C316.331 167.058 315.718 166.514 315.416 165.727C314.783 164.045 315.338 162.083 314.316 160.518C313.391 159.109 311.512 158.39 310.139 159.653C309.604 160.149 309.302 160.839 308.844 161.393C308.289 162.053 307.287 161.859 306.644 162.481C306.079 163.025 305.904 163.803 305.787 164.551C305.709 165.046 305.573 165.668 305.252 166.086C303.811 165.833 302.438 165.6 301.192 165.406C301.26 163.929 300.666 162.772 299.449 162.325C299.41 162.053 299.372 161.781 299.342 161.509C299.196 160.275 299.099 159.031 299.06 157.787C299.06 157.593 299.06 157.389 299.06 157.195C299.07 156.884 299.079 156.573 299.099 156.272C299.138 155.63 299.148 154.999 299.167 154.367C299.167 154.289 299.187 154.202 299.196 154.124C299.401 152.326 299.557 150.529 299.625 148.721C299.664 147.749 299.673 146.778 299.634 145.806C299.595 144.941 299.391 144.134 299.274 143.279C299.255 143.163 299.06 143.192 299.07 143.308C299.079 144.076 299.07 144.844 299.041 145.621C299.031 145.631 299.021 145.631 299.011 145.65C298.427 146.962 298.408 148.41 298.194 149.8C297.979 151.199 297.901 152.618 297.794 154.027C297.678 155.523 297.541 157.01 297.259 158.477C297.123 159.158 296.986 159.838 296.831 160.508C296.743 160.897 296.597 161.266 296.509 161.645C296.441 161.947 296.412 162.228 296.344 162.51C295.614 162.879 295.02 163.521 294.562 164.492H294.552V164.473C294.552 164.065 294.552 163.657 294.562 163.249C294.582 162.325 294.66 161.412 294.718 160.489C294.845 158.652 294.913 156.787 295.331 154.989C295.38 154.775 295.049 154.678 295 154.901C294.533 156.719 293.929 158.487 293.628 160.343C293.482 161.237 293.394 162.141 293.326 163.045C293.297 163.462 293.267 163.88 293.248 164.298C289.081 163.725 282.101 163.249 278.479 162.724C278.567 159.673 276.376 153.862 273.845 158.74C273.806 155.329 274.03 148.896 272.248 148.566C269.97 148.148 267.935 153.172 266.602 160.09C264.158 159.76 261.568 159.41 258.891 159.07C258.774 158.895 258.609 158.749 258.385 158.672C258.161 158.594 257.927 158.516 257.703 158.439C257.625 158.351 257.557 158.244 257.528 158.128C257.411 157.749 257.226 157.379 256.905 157.146C256.662 156.971 256.408 156.796 256.155 156.631C255.046 155.922 253.799 155.446 252.534 155.096C251.434 154.794 250.256 154.416 249.272 155.164C248.786 155.533 248.425 156.067 248.046 156.534C247.724 156.932 247.452 157.35 247.179 157.768C242.623 157.36 237.95 157.088 233.316 157.088C230.239 157.088 227.221 157.146 224.223 157.234C223.775 157.243 223.376 157.01 223.152 156.66C223.142 156.534 223.132 156.408 223.123 156.281C223.064 155.348 223.025 154.425 222.977 153.492C222.938 152.627 222.879 151.792 222.733 150.937C222.568 149.975 222.558 148.983 222.499 148.012C222.499 147.847 222.237 147.837 222.237 148.012C222.237 148.906 222.285 149.809 222.207 150.694C222.13 151.607 222.081 152.491 222.091 153.405C222.032 153.424 221.984 153.453 221.964 153.502C221.857 153.716 221.906 153.939 221.867 154.173C221.828 154.416 221.818 154.668 221.828 154.921C221.837 155.31 221.867 155.688 221.886 156.067V156.087C221.915 156.748 221.39 157.302 220.728 157.321C220.718 157.321 220.708 157.321 220.698 157.321C220.114 157.34 219.598 157.078 219.258 156.66C219.287 155.786 219.267 154.911 219.287 154.085C219.326 152.006 219.433 149.916 219.316 147.847C219.102 143.804 219.618 139.626 218.927 135.622C218.897 135.447 218.634 135.505 218.625 135.661C218.313 139.81 218.586 143.94 218.021 148.08C217.768 149.936 217.661 151.802 217.505 153.667C217.418 154.688 217.252 155.834 217.213 156.961C216.872 157.272 216.424 157.476 215.928 157.496C212.316 157.642 208.704 157.807 205.063 157.972C198.55 158.254 190.908 158.429 184.161 158.584C184.161 158.584 184.141 158.575 184.132 158.575C182.778 156.563 181.941 154.124 181.454 151.665C181.445 151.5 181.425 151.335 181.415 151.17C181.172 147.915 181.143 144.62 180.491 141.414C180.432 141.112 180.023 141.219 179.994 141.482C179.809 143.367 179.838 145.223 179.916 147.108C179.994 148.974 179.994 150.849 180.15 152.715C180.169 152.958 180.208 153.211 180.237 153.453C180.208 153.862 180.179 154.27 180.121 154.678C179.984 155.63 179.78 156.544 179.536 157.457C178.816 158.225 177.891 159.245 177.2 160.09C176.47 160.09 164.816 160.518 164.816 160.518C163.901 158.361 162.197 154.882 160.007 155.805C157.378 156.913 156.054 162.617 155.46 164.492C154.711 164.619 153.932 164.735 153.124 164.862C152.997 164.716 152.842 164.609 152.598 164.56C151.78 164.415 151.07 164.055 150.524 163.414C149.901 162.695 149.785 161.704 149.171 160.965C148.577 160.256 147.633 159.906 146.757 160.295C146.007 160.625 145.773 161.344 145.52 162.063C145.238 162.87 144.634 162.879 143.875 162.967C143.135 163.054 142.395 163.2 141.85 163.754C141.383 164.23 141.159 164.871 141.013 165.513C140.954 165.668 140.915 165.833 140.906 166.008C140.838 166.387 140.76 166.834 140.594 167.223C138.462 167.777 136.349 168.447 134.344 169.293C127.607 172.111 124.141 174.9 115.914 174.9C109.956 174.9 106.111 169.167 104.261 165.552C106.432 156.408 120.325 116.595 114.396 80.6117C120.023 78.4253 126.721 75.4518 133.779 72.7212C133.867 72.8183 133.955 72.9155 134.042 73.0127C134.081 73.1196 134.11 73.2168 134.149 73.3237C134.334 73.8581 134.626 74.3537 134.967 74.8104C135.619 75.685 136.564 76.1223 137.596 76.4041C138.043 76.5207 138.618 76.7539 139.056 76.511C139.591 76.2097 139.582 75.5295 139.63 74.9951C139.689 74.2565 139.689 73.5083 139.63 72.7698C139.611 72.4977 139.689 72.2159 139.893 72.041C140.176 71.798 140.545 71.6911 140.857 71.4773C141.324 71.1469 141.607 70.7097 141.626 70.1266C141.626 70.0489 141.607 69.9711 141.577 69.8934C145.569 68.5621 149.59 67.4057 153.513 66.6186C154.428 68.9411 158.264 77.2203 158.264 77.2203C158.264 77.2203 159.569 66.2882 159.841 65.6663C160.104 65.7052 163.882 73.071 163.882 73.071C163.882 73.071 164.329 67.5029 165.459 64.5488C177.92 62.7997 192.173 61.7211 204.45 61.07C204.722 61.3324 210.116 64.3642 213.309 66.1522C215.47 78.2407 215.354 79.6011 215.558 82.5455C216.269 79.776 216.337 67.4252 217.69 63.1398C218.235 62.0029 218.683 61.0797 218.712 61.07C219.209 60.9339 228.059 61.3421 229.383 61.07C229.383 61.07 232.712 61.1477 237.677 61.3129C237.677 61.7696 237.629 62.2264 237.599 62.6831C237.531 63.6743 237.463 64.6654 237.414 65.6566C237.366 66.6478 237.317 67.639 237.307 68.6301C237.307 69.6699 237.444 70.6902 237.424 71.73C237.424 71.8466 237.609 71.8466 237.609 71.73C237.638 70.7291 237.843 69.7476 237.921 68.7565C237.999 67.7653 238.057 66.7741 238.135 65.7829C238.203 64.8306 238.281 63.8783 238.359 62.9357C238.407 62.4207 238.417 61.8863 238.514 61.3809C238.514 61.3712 238.514 61.3615 238.514 61.3518C241.844 61.4684 245.806 61.6142 249.964 61.8085C249.886 62.2847 250.158 62.8386 250.742 62.79C251.219 62.7511 251.696 62.7414 252.174 62.7317C252.193 62.7317 252.203 62.7511 252.222 62.7511C252.894 63.0329 253.605 63.2467 254.345 63.2467C254.841 63.2467 255.299 63.0912 255.756 62.9649C256.778 63.0815 257.791 63.237 258.813 63.3827C259.407 63.6645 259.991 63.9852 260.546 64.2865C261.422 64.7723 262.221 65.4623 263.253 65.5692C264.392 65.6858 265.55 65.229 266.631 64.9375C267.858 64.6071 269.074 64.2865 270.301 63.9561C270.691 63.8492 270.914 63.5382 270.983 63.1884C271.761 63.2661 272.511 63.3439 273.212 63.4313C274.215 65.2776 275.646 68.2997 276.396 69.9323C276.435 70.5833 276.464 71.2344 276.493 71.8855C276.522 72.6629 276.396 73.5569 276.697 74.2954C276.727 74.3537 276.775 74.412 276.824 74.4509C276.824 74.4509 276.824 74.4703 276.824 74.48C276.824 74.9465 276.795 75.4323 276.824 75.8988C276.853 76.3458 277.038 76.715 277.116 77.1426C277.136 77.2495 277.311 77.2495 277.33 77.1426C277.408 76.715 277.593 76.3361 277.632 75.8988C277.671 75.4906 277.671 75.0825 277.69 74.6841C277.7 74.4897 277.72 74.2954 277.739 74.101C277.817 73.4403 277.934 72.7892 277.973 72.1284C277.992 71.7786 278.002 71.4288 278.012 71.0789C278.08 70.5056 278.138 69.942 278.216 69.3784C278.323 68.5232 278.528 67.6584 278.421 66.813C278.401 66.6867 278.323 66.5798 278.226 66.502C278.557 65.5011 278.907 64.5391 279.238 63.8589C284.651 64.5488 294.728 65.5011 299.8 66.3854C299.109 70.7874 297.415 77.9491 298.953 78.2407C301.562 78.746 302.867 72.2062 304.6 68.5718C304.707 68.7953 304.862 69.0091 305.028 69.2035C305.047 69.3492 305.067 69.5047 305.086 69.6505C305.154 70.1752 305.223 70.7 305.291 71.2247C305.349 71.7494 305.369 72.2742 305.369 72.7989C305.369 73.071 305.349 73.3431 305.378 73.6152C305.408 73.897 305.485 74.1399 305.466 74.4314C305.456 74.6064 305.748 74.6549 305.778 74.4703C305.826 74.1885 305.953 73.965 306.031 73.7026C306.109 73.45 306.128 73.1779 306.147 72.9155C306.177 72.6143 306.186 72.3228 306.206 72.0215C306.255 71.866 306.313 71.7008 306.362 71.5454C306.479 71.1664 306.576 70.7097 306.79 70.3696C306.907 70.1849 307.033 70.0197 307.141 69.8351C307.15 69.8059 307.17 69.7865 307.179 69.7671C307.734 69.4853 308.319 68.8731 308.873 67.7361C324.966 71.9438 330.457 77.2592 339.151 80.6312C333.193 116.751 346.94 156.689 349.072 165.629C347.689 168.525 345.109 179.691 319.573 169.652V169.643Z" fill="#771D62"/>
</g>
<g style="mix-blend-mode:multiply" opacity="0.35">
<path d="M259.504 153.988C259.445 153.92 259.397 153.842 259.338 153.774C259.241 153.667 259.124 153.599 258.998 153.551C258.91 153.502 258.822 153.483 258.725 153.483C258.579 153.454 258.443 153.454 258.297 153.502C258.209 153.541 258.121 153.57 258.043 153.609C258.005 153.629 257.966 153.658 257.927 153.697C257.878 153.706 257.829 153.697 257.781 153.726C257.712 153.745 257.644 153.784 257.596 153.833C257.498 153.891 257.43 153.969 257.372 154.076C257.343 154.144 257.313 154.212 257.284 154.28C257.245 154.425 257.245 154.581 257.284 154.736C257.284 154.746 257.284 154.765 257.294 154.775C257.304 154.804 257.352 154.95 257.401 155.018C257.44 155.067 257.498 155.144 257.537 155.193C257.537 155.193 257.537 155.203 257.547 155.212C257.547 155.212 257.557 155.212 257.566 155.222C257.596 155.251 257.644 155.281 257.664 155.3C257.683 155.319 257.732 155.349 257.761 155.378C257.771 155.378 257.781 155.397 257.8 155.397C257.858 155.426 257.917 155.446 257.975 155.465C258.024 155.494 258.063 155.533 258.112 155.553C258.19 155.601 258.277 155.621 258.374 155.621C258.511 155.65 258.657 155.65 258.793 155.601C258.793 155.601 258.803 155.601 258.813 155.601C258.9 155.562 258.978 155.533 259.066 155.494C259.075 155.494 259.085 155.494 259.095 155.475C259.095 155.475 259.095 155.475 259.105 155.475C259.329 155.31 259.29 155.358 259.416 155.193C259.514 155.086 259.572 154.97 259.611 154.824C259.66 154.629 259.66 154.445 259.611 154.25C259.582 154.163 259.533 154.076 259.504 153.988Z" fill="#771D62"/>
</g>
<g style="mix-blend-mode:multiply" opacity="0.35">
<path d="M287.864 67.8142C287.815 67.7753 287.757 67.7365 287.708 67.6879C287.62 67.6296 287.523 67.6004 287.416 67.5907C287.309 67.5713 287.202 67.5713 287.104 67.6004C287.075 67.6004 287.046 67.6296 287.017 67.6393C286.987 67.6393 286.958 67.6393 286.929 67.649C286.919 67.649 286.9 67.649 286.89 67.6587C286.832 67.6781 286.773 67.7073 286.715 67.7365C286.676 67.7656 286.637 67.7948 286.598 67.8239C286.54 67.8725 286.501 67.9405 286.481 68.0085C286.462 68.0474 286.452 68.096 286.442 68.1446C286.442 68.1446 286.442 68.164 286.433 68.164C286.413 68.2223 286.403 68.2903 286.403 68.3487C286.403 68.4167 286.413 68.4847 286.452 68.543C286.471 68.611 286.51 68.6596 286.559 68.7082C286.598 68.7373 286.627 68.7568 286.666 68.7859C286.666 68.7859 286.686 68.7859 286.695 68.7859C286.715 68.8248 286.734 68.8637 286.764 68.8928C286.832 68.9706 286.919 69.0289 287.017 69.058C287.114 69.1066 287.211 69.126 287.318 69.126C287.426 69.126 287.533 69.1066 287.62 69.058C287.718 69.0289 287.805 68.9706 287.873 68.8928C287.912 68.8345 287.951 68.7859 288 68.7373C288.068 68.611 288.107 68.4847 288.107 68.3389C288.107 68.2709 288.088 68.2029 288.078 68.1252C288.039 67.9891 287.971 67.8725 287.873 67.7753L287.864 67.8142Z" fill="#771D62"/>
</g>
<g style="mix-blend-mode:multiply" opacity="0.35">
<path d="M308.347 79.242C308.24 79.1448 308.123 79.0865 307.977 79.0476C307.831 78.999 307.685 78.999 307.549 79.0282C307.403 79.0282 307.266 79.0768 307.149 79.1545C307.13 79.1642 307.111 79.1837 307.101 79.1934C307.101 79.1934 307.101 79.1934 307.081 79.1934C306.935 79.1934 306.799 79.2323 306.672 79.3003C306.575 79.3489 306.497 79.4169 306.449 79.5141C306.38 79.5918 306.332 79.689 306.302 79.7862C306.254 79.9222 306.244 80.068 306.225 80.2137C306.225 80.2526 306.225 80.2817 306.225 80.3206C306.225 80.3984 306.244 80.5052 306.264 80.5733C306.264 80.5733 306.264 80.5927 306.264 80.6024C306.264 80.6219 306.273 80.6413 306.283 80.6607C306.322 80.7676 306.361 80.8745 306.41 80.9717C306.429 81.0008 306.439 81.0397 306.468 81.0689C306.507 81.1369 306.556 81.1952 306.604 81.2535C306.643 81.3312 306.692 81.409 306.78 81.4964C306.848 81.5547 306.935 81.613 307.003 81.6713C307.013 81.6811 307.033 81.6908 307.042 81.7005C307.159 81.7782 307.305 81.8365 307.442 81.8851C307.529 81.8948 307.627 81.9143 307.714 81.924C307.86 81.924 307.987 81.9046 308.113 81.8365C308.201 81.8074 308.279 81.7685 308.337 81.7005C308.454 81.6325 308.542 81.5353 308.6 81.409C308.688 81.2826 308.746 81.1272 308.795 80.9717C308.853 80.8162 308.863 80.651 308.863 80.4858C308.863 80.1457 308.775 79.8347 308.62 79.5432C308.551 79.4169 308.454 79.3197 308.337 79.242H308.347Z" fill="#771D62"/>
</g>
<g style="mix-blend-mode:multiply" opacity="0.35">
<path d="M308.123 156.097C308.123 156.097 307.948 156.019 307.909 156.01C307.889 156.01 307.695 155.98 307.675 155.98C307.627 155.98 307.578 155.99 307.539 156C307.5 156 307.442 156 307.403 156.019C307.364 156.029 307.325 156.048 307.296 156.058C307.266 156.068 307.227 156.087 307.188 156.107C307.14 156.146 307.091 156.185 307.042 156.223C306.974 156.291 306.916 156.369 306.887 156.457C306.857 156.515 306.838 156.573 306.838 156.641C306.838 156.641 306.838 156.661 306.838 156.67C306.838 156.729 306.818 156.797 306.809 156.865C306.809 156.894 306.828 156.923 306.828 156.952C306.828 156.952 306.828 156.952 306.818 156.962C306.78 157.02 306.76 157.079 306.75 157.137L306.721 157.205C306.721 157.205 306.711 157.292 306.702 157.331C306.702 157.36 306.711 157.428 306.721 157.467C306.721 157.467 306.721 157.467 306.721 157.477C306.721 157.477 306.721 157.487 306.721 157.496C306.731 157.545 306.76 157.594 306.78 157.632C306.78 157.632 306.78 157.642 306.78 157.652C306.809 157.691 306.838 157.73 306.867 157.768C306.877 157.778 306.887 157.788 306.896 157.807C306.935 157.846 306.984 157.875 307.033 157.905C307.062 157.924 307.091 157.934 307.13 157.943C307.159 157.963 307.188 157.992 307.227 158.002C307.276 158.031 307.334 158.05 307.393 158.05C307.48 158.07 307.568 158.07 307.665 158.041C307.734 158.021 307.802 157.992 307.87 157.953C307.889 157.953 307.899 157.934 307.919 157.924C307.948 157.905 307.967 157.875 307.996 157.856C308.035 157.836 308.084 157.817 308.113 157.788C308.143 157.768 308.172 157.749 308.191 157.73C308.24 157.671 308.298 157.603 308.337 157.535C308.396 157.448 308.425 157.351 308.464 157.253C308.435 157.321 308.405 157.38 308.386 157.448C308.425 157.37 308.454 157.292 308.483 157.215C308.483 157.195 308.493 157.185 308.493 157.166C308.493 157.166 308.493 157.156 308.493 157.147C308.503 157.069 308.522 156.981 308.522 156.904C308.522 156.884 308.522 156.874 308.522 156.855C308.522 156.7 308.483 156.554 308.405 156.408C308.328 156.272 308.22 156.175 308.094 156.097H308.123Z" fill="#771D62"/>
</g>
<g style="mix-blend-mode:multiply" opacity="0.35">
<path d="M306.079 151.811C305.971 151.763 305.874 151.714 305.747 151.724L305.572 151.743C305.514 151.763 305.465 151.782 305.416 151.811C305.319 151.87 305.241 151.947 305.183 152.045C305.124 152.151 305.095 152.258 305.095 152.375C305.095 152.482 305.105 152.598 305.115 152.705C305.115 152.793 305.134 152.871 305.173 152.948C305.202 153.026 305.241 153.094 305.309 153.152C305.368 153.211 305.436 153.259 305.514 153.288C305.592 153.327 305.67 153.347 305.757 153.347C305.816 153.347 305.874 153.327 305.923 153.327C306.03 153.298 306.127 153.24 306.205 153.162C306.234 153.123 306.273 153.075 306.302 153.036C306.361 152.939 306.39 152.832 306.39 152.715C306.39 152.608 306.4 152.492 306.41 152.385C306.41 152.268 306.38 152.151 306.322 152.054C306.263 151.957 306.186 151.879 306.088 151.821L306.079 151.811Z" fill="#771D62"/>
</g>
<g style="mix-blend-mode:multiply" opacity="0.35">
<path d="M287.523 159.761C287.523 159.761 287.513 159.741 287.504 159.731C287.504 159.731 287.504 159.722 287.504 159.712C287.484 159.692 287.474 159.673 287.455 159.654C287.445 159.634 287.426 159.615 287.406 159.595C287.367 159.556 287.338 159.527 287.299 159.488C287.241 159.43 287.182 159.391 287.104 159.362C287.036 159.323 286.958 159.304 286.88 159.314C286.803 159.314 286.725 159.323 286.657 159.362C286.579 159.382 286.52 159.43 286.462 159.488C286.433 159.527 286.403 159.566 286.365 159.605C286.306 159.692 286.287 159.799 286.287 159.906C286.287 159.955 286.296 160.013 286.306 160.062C286.335 160.159 286.384 160.246 286.462 160.324L286.579 160.441C286.579 160.441 286.657 160.499 286.696 160.538C286.696 160.538 286.705 160.538 286.715 160.538C286.725 160.538 286.734 160.548 286.744 160.557C286.764 160.567 286.793 160.577 286.812 160.586L286.939 160.645C287.007 160.664 287.085 160.674 287.153 160.655C287.202 160.655 287.25 160.645 287.289 160.616C287.358 160.596 287.416 160.557 287.465 160.499C287.494 160.46 287.523 160.421 287.552 160.392C287.572 160.353 287.591 160.305 287.611 160.266C287.63 160.198 287.64 160.12 287.611 160.052C287.611 159.984 287.581 159.916 287.543 159.848C287.533 159.829 287.523 159.799 287.513 159.78L287.523 159.761Z" fill="#771D62"/>
</g>
<g style="mix-blend-mode:multiply" opacity="0.35">
<path d="M145.51 125.06C145.617 125.05 145.705 125.04 145.802 125.001C146.026 124.914 146.114 124.875 146.289 124.739C146.445 124.622 146.542 124.525 146.649 124.35C146.649 124.35 146.649 124.34 146.649 124.331C146.698 124.292 146.737 124.253 146.776 124.224C146.854 124.146 146.932 124.049 146.99 123.952C147.126 123.748 147.175 123.495 147.185 123.242C147.185 123.194 147.185 123.155 147.185 123.106C147.175 122.98 147.156 122.844 147.126 122.718C147.097 122.601 147.039 122.484 146.99 122.368C146.971 122.319 146.951 122.271 146.922 122.232C146.834 122.076 146.717 121.93 146.591 121.814C146.386 121.62 146.172 121.503 145.909 121.406C145.744 121.347 145.549 121.318 145.364 121.328C144.916 121.357 144.507 121.513 144.186 121.833C144.069 121.95 143.962 122.086 143.875 122.232C143.816 122.348 143.768 122.465 143.719 122.591C143.699 122.63 143.69 122.669 143.68 122.708C143.592 123.048 143.592 123.417 143.68 123.757C143.719 123.884 143.777 124 143.826 124.117C143.845 124.156 143.865 124.195 143.884 124.234C143.953 124.34 144.03 124.438 144.118 124.535C144.147 124.564 144.176 124.593 144.215 124.622C144.303 124.7 144.43 124.797 144.546 124.855C144.644 124.904 144.751 124.953 144.858 124.991C144.887 124.991 144.907 125.001 144.936 125.011C145.179 125.06 145.277 125.06 145.51 125.03V125.06Z" fill="#771D62"/>
</g>
<g style="mix-blend-mode:multiply" opacity="0.35">
<path d="M143.116 127.547C143.116 127.547 143.096 127.547 143.086 127.537C142.999 127.44 142.882 127.372 142.755 127.333C142.629 127.294 142.492 127.294 142.366 127.333C142.239 127.372 142.132 127.431 142.045 127.518C142.015 127.547 141.986 127.576 141.947 127.605C141.889 127.664 141.84 127.732 141.821 127.8C141.782 127.878 141.762 127.955 141.772 128.043C141.772 128.101 141.782 128.15 141.791 128.208C141.821 128.315 141.869 128.402 141.947 128.48C141.976 128.509 142.006 128.538 142.045 128.567C142.132 128.655 142.249 128.723 142.366 128.752C142.492 128.791 142.629 128.791 142.755 128.752C142.882 128.713 142.999 128.645 143.086 128.548C143.096 128.548 143.106 128.548 143.116 128.538C143.203 128.49 143.271 128.422 143.32 128.334C143.369 128.247 143.398 128.15 143.398 128.043C143.398 127.936 143.369 127.839 143.32 127.751C143.271 127.664 143.203 127.596 143.116 127.547Z" fill="#771D62"/>
</g>
<g style="mix-blend-mode:multiply" opacity="0.35">
<path d="M138.559 119.958L138.393 119.832C138.325 119.802 138.267 119.773 138.199 119.754C138.092 119.725 137.985 119.715 137.877 119.744C137.77 119.744 137.673 119.783 137.576 119.841C137.566 119.841 137.556 119.851 137.537 119.861C137.537 119.861 137.527 119.861 137.517 119.861C137.478 119.88 137.488 119.88 137.43 119.929C137.332 120.007 137.284 120.036 137.215 120.162C137.186 120.23 137.157 120.288 137.128 120.356C137.128 120.356 137.128 120.366 137.128 120.376C137.128 120.386 137.128 120.395 137.118 120.415C137.079 120.551 137.079 120.696 137.118 120.833C137.157 120.969 137.225 121.085 137.323 121.182C137.42 121.28 137.537 121.348 137.673 121.386C137.809 121.425 137.955 121.425 138.092 121.386C138.179 121.357 138.286 121.328 138.354 121.28C138.413 121.241 138.462 121.192 138.52 121.153C138.559 121.095 138.608 121.046 138.647 120.988C138.647 120.988 138.647 120.978 138.647 120.969C138.647 120.959 138.656 120.939 138.666 120.93C138.695 120.862 138.724 120.803 138.744 120.735C138.773 120.628 138.783 120.522 138.754 120.415C138.754 120.347 138.734 120.279 138.695 120.211C138.666 120.113 138.608 120.026 138.53 119.958H138.559Z" fill="#771D62"/>
</g>
<g style="mix-blend-mode:multiply" opacity="0.35">
<path d="M133.555 77.7549C133.74 77.5605 133.769 77.269 133.594 77.0455C133.438 76.8414 133.127 76.754 132.903 76.9095C132.815 76.9678 132.737 77.0358 132.659 77.0941C132.698 77.065 132.737 77.0358 132.776 77.0066C132.601 77.1233 132.455 77.2399 132.348 77.4245C132.28 77.5411 132.221 77.6771 132.173 77.8132C132.036 77.9687 131.958 78.163 131.949 78.3768C131.949 78.542 132.007 78.6975 132.104 78.8238C132.104 78.9015 132.114 78.9793 132.134 79.0473C132.182 79.2805 132.397 79.4749 132.62 79.5332C132.747 79.5623 132.874 79.5623 132.99 79.5332C133.107 79.504 133.214 79.436 133.302 79.3485C133.38 79.2902 133.448 79.2222 133.516 79.1542C133.643 79.0084 133.691 78.921 133.76 78.7363C133.789 78.6392 133.808 78.5323 133.808 78.4254C133.808 78.3185 133.789 78.2116 133.76 78.1047C133.711 77.9687 133.652 77.8521 133.555 77.7452V77.7549Z" fill="#771D62"/>
</g>
<g style="mix-blend-mode:multiply" opacity="0.35">
<path d="M147.866 156.7C147.778 156.466 147.69 156.301 147.515 156.117C147.408 156 147.272 155.893 147.126 155.835C147.009 155.786 146.882 155.728 146.756 155.699C146.629 155.67 146.493 155.65 146.357 155.64C146.22 155.631 146.094 155.64 145.948 155.67C145.919 155.67 145.889 155.679 145.86 155.689C145.811 155.699 145.782 155.718 145.734 155.738C145.617 155.786 145.519 155.835 145.442 155.932C145.364 156.01 145.305 156.097 145.266 156.204C145.218 156.301 145.188 156.408 145.198 156.525C145.208 156.748 145.286 156.962 145.442 157.117C145.49 157.166 145.549 157.205 145.607 157.244C145.627 157.428 145.646 157.535 145.734 157.7C145.782 157.788 145.841 157.866 145.909 157.934C146.045 158.07 146.24 158.186 146.425 158.225C146.649 158.274 146.824 158.274 147.048 158.225C147.252 158.177 147.418 158.07 147.574 157.934C147.72 157.798 147.846 157.574 147.885 157.38C147.905 157.283 147.934 157.156 147.924 157.049C147.924 156.962 147.905 156.865 147.885 156.768C147.885 156.748 147.875 156.719 147.866 156.7Z" fill="#771D62"/>
</g>
<g style="mix-blend-mode:multiply" opacity="0.35">
<path d="M251.317 66.2013C251.278 66.0361 251.19 65.8806 251.073 65.764C251.025 65.7154 250.947 65.6571 250.908 65.6377C250.801 65.5599 250.674 65.5405 250.547 65.5308C250.411 65.5308 250.285 65.5599 250.158 65.6279C250.09 65.6668 250.031 65.7154 249.983 65.7834C249.973 65.7931 249.973 65.8126 249.963 65.8223C249.944 65.8223 249.915 65.8223 249.895 65.8417C249.856 65.8514 249.827 65.8709 249.798 65.9C249.749 65.9292 249.71 65.968 249.691 66.0166C249.681 66.0555 249.662 66.0847 249.652 66.1235C249.632 66.2013 249.632 66.279 249.652 66.3567C249.671 66.4442 249.681 66.5414 249.691 66.6288C249.7 66.7163 249.73 66.8037 249.749 66.9009C249.749 66.8718 249.749 66.8329 249.739 66.8037C249.739 66.8815 249.749 66.9592 249.788 67.0272C249.817 67.105 249.856 67.1827 249.924 67.241C249.973 67.2799 250.012 67.3091 250.061 67.3479C250.168 67.4062 250.275 67.4354 250.392 67.4354C250.547 67.4354 250.742 67.3868 250.869 67.2993C250.927 67.2605 250.986 67.2119 251.034 67.173C251.044 67.173 251.054 67.1536 251.063 67.1439C251.122 67.0758 251.18 67.0078 251.219 66.9301C251.258 66.8523 251.297 66.7649 251.317 66.6871C251.317 66.6774 251.317 66.658 251.317 66.6483C251.346 66.4442 251.356 66.4636 251.317 66.2596V66.2401V66.2013Z" fill="#771D62"/>
</g>
<path style="mix-blend-mode:multiply" opacity="0.35" d="M130.469 117.762C130.469 96.4027 130.809 82.4484 135.249 68.6108C125.874 71.0499 116.888 73.9651 108.564 77.4537C115.252 110.668 107.035 151.773 104.212 164.493C103.647 167.039 103.569 168.263 103.569 168.263C109.352 182.868 123.868 176.62 138.783 171.237C132.669 161.004 130.478 139.12 130.478 117.752L130.469 117.762Z" fill="url(#paint10_linear_528_6743)"/>
<path d="M321.666 164.483C322.785 169.818 329.259 173.521 334.604 173.521C339.861 172.578 340.718 170.119 341.76 167.408C341.76 167.408 341.672 157.681 341.76 154.844C341.847 152.006 322.96 150.004 322.571 154.844L321.666 164.483Z" fill="#A145A6"/>
<g style="mix-blend-mode:multiply" opacity="0.35">
<path d="M341.76 154.843C341.847 152.006 323.272 149.839 322.882 154.678L321.656 164.483C322.201 167.077 324.012 169.283 326.348 170.867C326.348 170.867 327.137 171.372 328.042 171.858C330.135 172.918 332.453 173.52 334.594 173.52C339.852 172.577 340.708 170.119 341.75 167.408C341.75 167.408 341.662 157.681 341.75 154.843H341.76Z" fill="#771D62"/>
</g>
<path d="M329.162 165.425C328.987 163.531 330.457 161.296 334.945 161.296C339.346 161.986 340.825 164.308 341.76 167.408V155.523C341.76 152.249 329.172 151.481 329.172 155.523V165.425H329.162Z" fill="url(#paint11_linear_528_6743)"/>
<path d="M342.763 156.135L326.963 155.688L326.213 169.303L343.065 169.652L342.763 156.135Z" fill="url(#paint12_linear_528_6743)"/>
<g style="mix-blend-mode:multiply" opacity="0.25">
<path d="M342.773 156.612L340.407 156.068L338.898 156.029L338.752 157.545L338.83 160.936L342.91 162.53L342.773 156.612Z" fill="#CC0631"/>
</g>
<path d="M349.694 67.7075C349.246 64.6562 347.883 62.1686 345.975 60.2737C345.625 61.0705 344.048 62.8682 344.048 62.4309C344.048 61.3134 344.281 60.1862 344.651 59.127C337.34 53.4715 324.586 54.7833 321.656 63.9274C324.362 79.2324 325.063 101.573 324.849 113.778C324.615 126.76 322.279 161.5 321.656 164.483C323.554 158.332 328.607 156.554 334.809 156.904C338.07 157.088 341.37 157.924 344.048 159.576C344.34 159.042 344.807 158.624 345.401 158.371C345.712 158.245 345.956 158.556 345.995 158.818C346.112 159.809 346.491 160.762 346.705 161.733C348.263 163.405 349.353 165.552 349.694 168.263C347.922 156.719 345.829 126.585 345.79 112.651C345.761 101.369 347.056 83.6052 349.694 67.7075Z" fill="url(#paint13_linear_528_6743)"/>
<path d="M131.589 164.483C130.469 169.818 123.995 173.521 118.65 173.521C113.393 172.578 112.536 170.119 111.494 167.408C111.494 167.408 111.582 157.681 111.494 154.844C111.407 152.006 130.294 150.004 130.683 154.844L131.589 164.483Z" fill="#A145A6"/>
<g style="mix-blend-mode:multiply" opacity="0.35">
<path d="M131.589 164.483C130.469 169.818 123.995 173.521 118.65 173.521C113.393 172.578 112.536 170.119 111.494 167.408C111.494 167.408 111.582 157.681 111.494 154.844C111.407 152.006 130.294 150.004 130.683 154.844L131.589 164.483Z" fill="#771D62"/>
</g>
<path d="M111.494 155.533V167.418C112.156 165.212 113.101 163.404 115.164 162.297L116.099 160.178C116.099 160.178 116.187 161.266 116.284 161.811C116.878 161.597 117.55 161.432 118.309 161.305C122.388 161.305 123.965 163.152 124.092 164.911V155.533C124.092 151.491 111.504 152.258 111.504 155.533H111.494Z" fill="url(#paint14_linear_528_6743)"/>
<path d="M110.442 156.135L126.243 155.688L127.003 169.303L110.141 169.652L110.442 156.135Z" fill="url(#paint15_linear_528_6743)"/>
<g style="mix-blend-mode:multiply" opacity="0.25">
<path d="M110.433 156.612L112.798 156.068L114.317 156.029L114.463 157.545L114.376 160.936L110.296 162.53L110.433 156.612Z" fill="#CC0631"/>
</g>
<g style="mix-blend-mode:multiply" opacity="0.15">
<path d="M112.059 154.406C111.903 154.591 111.747 154.814 111.591 155.057C111.533 155.212 111.494 155.368 111.494 155.533V167.418C112.01 165.707 112.711 164.23 113.957 163.142C113.714 162.617 113.587 161.47 113.519 160.1C113.49 158.886 118.436 155.766 124.024 158.108C124.043 158.108 124.063 158.108 124.082 158.108V155.533C124.082 155.417 124.072 155.31 124.053 155.203L113.081 153.745C112.672 153.939 112.322 154.153 112.059 154.396V154.406Z" fill="#8E1613"/>
</g>
<path d="M131.588 63.9272C130.897 61.7699 129.651 60.0596 128.074 58.7672C127.402 59.7195 125.523 59.5057 125.708 61.0897C125.504 62.0031 124.043 61.5075 123.683 60.9245C122.778 59.5543 123.42 57.708 122.894 56.231C118.027 55.0163 112.263 56.1144 108.281 59.3891C108.953 62.4015 108.048 65.6471 107.055 60.5261C105.273 62.3918 103.998 64.8017 103.569 67.7267C106.198 83.6244 107.503 101.398 107.473 112.67C107.444 126.605 105.341 156.738 103.569 168.283C104.611 158.332 118.757 153.949 126.74 158.468C126.925 157.545 127.032 156.612 127.159 155.689C127.188 155.494 127.421 155.349 127.606 155.349H127.947C128.2 155.349 128.415 155.562 128.415 155.815C128.424 156.699 128.814 157.477 129.184 158.264C129.573 159.09 129.924 159.935 129.933 160.868C129.933 160.975 129.904 161.062 129.846 161.13C130.605 162.093 131.209 163.21 131.598 164.502C129.125 141.356 126.107 93.3418 131.598 63.9466L131.588 63.9272Z" fill="url(#paint16_linear_528_6743)"/>
<g style="mix-blend-mode:multiply" opacity="0.35">
<path d="M128.074 58.7574C127.402 59.7098 125.523 59.496 125.708 61.0799C125.504 61.9933 124.043 61.4978 123.683 60.9147C122.778 59.5446 123.42 57.6982 122.894 56.2212C118.027 55.0065 112.263 56.1046 108.281 59.3794C108.953 62.3918 108.048 65.6374 107.055 60.5163C105.273 62.382 103.998 64.792 103.569 67.7169C103.696 68.4554 103.813 69.2037 103.93 69.9519C104.767 68.0376 105.867 66.3662 107.249 64.9863C108.505 68.0764 109.362 68.436 109.459 63.1983C111.406 61.935 113.753 61.1285 116.547 60.8661C116.547 60.9827 116.566 61.0993 116.566 61.2062C116.615 62.2168 116.732 63.2275 116.8 64.2381C116.858 65.2098 116.946 66.1816 117.053 67.1533C117.102 67.6003 117.17 68.0473 117.248 68.4943C117.345 69.019 117.618 69.4758 117.705 69.9908C117.735 70.1657 118.036 70.1268 118.017 69.9519C117.959 69.4369 118.095 68.9121 118.066 68.3874C118.036 67.9404 118.007 67.4934 117.959 67.0464C117.871 66.0747 117.803 65.1029 117.754 64.1312C117.705 63.1497 117.754 62.1877 117.793 61.2062C117.793 61.0702 117.812 60.9244 117.822 60.7787C119.088 60.7301 120.295 60.7787 121.444 60.9341C122.369 63.723 125.095 64.3352 127.042 63.0137C128.687 64.1603 130.011 65.7831 130.917 67.9404C131.131 66.5702 131.345 65.2292 131.588 63.9271C130.897 61.7698 129.651 60.0596 128.074 58.7672V58.7574Z" fill="#771D62"/>
</g>
<g style="mix-blend-mode:multiply" opacity="0.35">
<path d="M131.588 164.483C131.306 161.811 131.014 158.789 130.722 155.514C130.216 155.067 129.7 154.678 129.154 154.319C128.054 150.461 126.896 150.568 126.166 152.803C122.671 151.501 118.806 151.53 115.31 152.288C115.583 148.974 115.505 145.583 115.622 142.288C115.778 137.838 115.924 133.397 116.07 128.946C116.07 128.869 115.953 128.869 115.953 128.946C115.749 133.339 115.437 137.702 115.028 142.075C114.824 144.232 114.561 146.38 114.317 148.527C114.162 149.888 113.967 151.277 113.84 152.657C109.401 153.92 105.799 156.32 104.738 158.546C104.348 162.423 103.949 165.785 103.569 168.273C104.611 158.322 118.757 153.94 126.74 158.458C126.925 157.535 127.032 156.602 127.159 155.679C127.188 155.485 127.421 155.339 127.606 155.339H127.947C128.2 155.339 128.415 155.553 128.415 155.805C128.424 156.69 128.814 157.467 129.184 158.254C129.573 159.08 129.924 159.926 129.933 160.858C129.933 160.965 129.904 161.053 129.846 161.121C130.605 162.083 131.209 163.2 131.598 164.493L131.588 164.483Z" fill="#771D62"/>
</g>
<g style="mix-blend-mode:multiply" opacity="0.35">
<path d="M115.447 122.883C115.476 122.057 115.476 121.241 115.476 120.415C115.476 120.318 115.33 120.318 115.33 120.415C115.33 121.241 115.33 122.057 115.359 122.883C115.359 122.931 115.437 122.931 115.437 122.883H115.447Z" fill="#771D62"/>
</g>
<g style="mix-blend-mode:multiply" opacity="0.35">
<path d="M115.671 127.362C115.71 126.546 115.69 125.72 115.7 124.894C115.7 124.807 115.564 124.807 115.564 124.894C115.564 125.72 115.554 126.536 115.593 127.362C115.593 127.411 115.671 127.411 115.671 127.362Z" fill="#771D62"/>
</g>
<g style="mix-blend-mode:multiply" opacity="0.35">
<path d="M345.975 60.2737C345.625 61.0705 344.048 62.8682 344.048 62.4309C344.048 61.3134 344.281 60.1862 344.651 59.127C337.34 53.4715 324.586 54.7833 321.656 63.9274C321.792 64.7243 322.25 67.6686 322.376 68.4946C322.376 68.4946 324.518 59.3602 336.541 60.2931C336.541 60.5846 336.551 60.8664 336.551 61.1482C336.551 62.1006 336.502 63.0529 336.464 64.0052C336.386 65.9098 336.21 67.8144 336.21 69.7287C336.21 69.8842 336.473 69.9328 336.503 69.7676C336.775 67.931 336.882 66.075 337.087 64.2287C337.194 63.2375 337.301 62.256 337.447 61.2649C337.486 60.9928 337.534 60.7207 337.593 60.4389C339.423 60.7984 341.302 61.741 342.938 62.8391V67.1439L345.596 63.2472C347.367 65.113 348.662 67.416 349.071 69.9425C349.168 69.8939 349.266 69.8356 349.363 69.7773C349.47 69.0874 349.577 68.3974 349.694 67.7172C349.246 64.666 347.883 62.1783 345.975 60.2834V60.2737Z" fill="#771D62"/>
</g>
<g style="mix-blend-mode:multiply" opacity="0.35">
<path d="M336.395 70.2919C336.337 70.2336 336.22 70.2433 336.172 70.321C336.123 70.4182 336.142 70.4959 336.152 70.5931C336.162 70.6903 336.172 70.7875 336.172 70.8846C336.172 71.079 336.172 71.2733 336.172 71.4677C336.142 71.8564 336.064 72.2354 335.938 72.5949C335.87 72.8087 336.201 72.8961 336.269 72.6824C336.395 72.2937 336.473 71.8855 336.503 71.4774C336.512 71.2733 336.522 71.079 336.503 70.8749C336.503 70.7777 336.493 70.6806 336.483 70.5834C336.473 70.4668 336.473 70.3599 336.386 70.2822L336.395 70.2919Z" fill="#771D62"/>
</g>
<g style="mix-blend-mode:multiply" opacity="0.35">
<path d="M348.497 158.303C348.068 157.564 347.572 156.894 347.027 156.282C346.881 152.579 345.781 152.472 344.573 154.163C343.278 153.298 341.838 152.657 340.329 152.19C340.251 151.083 340.173 149.965 340.095 148.857C339.998 147.546 339.9 146.224 339.793 144.912C339.686 143.542 339.404 142.182 339.258 140.821C339.238 140.627 338.936 140.607 338.936 140.821C338.956 142.24 338.859 143.659 338.927 145.068C338.985 146.379 339.053 147.701 339.131 149.013C339.19 149.975 339.238 150.937 339.297 151.899C338.128 151.607 336.931 151.433 335.743 151.335C335.743 151.19 335.733 151.044 335.724 150.898C335.704 149.771 335.617 148.653 335.48 147.536C335.48 147.458 335.373 147.458 335.363 147.536C335.227 148.653 335.14 149.771 335.12 150.898C335.12 151.024 335.11 151.16 335.101 151.287C329.561 151.005 324.245 152.628 322.571 154.824C322.182 159.896 321.851 163.579 321.666 164.464C323.564 158.312 328.617 156.534 334.818 156.884C338.08 157.069 341.38 157.904 344.057 159.556C344.349 159.022 344.817 158.604 345.411 158.351C345.722 158.225 345.966 158.536 346.004 158.798C346.121 159.79 346.501 160.742 346.715 161.714C348.273 163.385 349.363 165.532 349.704 168.244C349.315 165.698 348.906 162.258 348.516 158.283L348.497 158.303Z" fill="#771D62"/>
</g>
<path d="M346.9 169.225C346.939 170.119 346.881 172.131 346.881 172.131L321.899 171.985C321.899 171.985 321.899 170.304 321.919 169.079C321.948 163.608 327.566 159.207 334.468 159.245C341.371 159.284 346.657 163.579 346.9 169.225Z" fill="url(#paint17_linear_528_6743)"/>
<path d="M346.881 172.13C346.852 177.601 341.234 182.003 334.332 181.964C327.429 181.926 321.87 177.456 321.9 171.985C321.929 166.514 327.546 162.112 334.449 162.151C341.351 162.19 346.91 166.66 346.881 172.13Z" fill="url(#paint18_linear_528_6743)"/>
<g style="mix-blend-mode:multiply" opacity="0.25">
<path d="M343.493 165.309C344.72 166.806 345.43 168.584 345.421 170.498C345.391 175.707 340.037 179.905 333.475 179.866C327.829 179.837 323.126 176.678 321.938 172.49C322.24 177.728 327.653 181.936 334.342 181.974C341.244 182.013 346.862 177.611 346.891 172.14C346.91 169.497 345.606 167.097 343.503 165.309H343.493Z" fill="#CC0631"/>
</g>
<path d="M323.224 167.602C324.158 164.813 333.29 158.555 342.198 164.337C336.104 161.16 327.498 161.976 323.224 167.602Z" fill="#FFF5CC"/>
<path d="M334.634 168.273C330 168.156 328.939 170.411 328.88 172.024C328.763 175.269 330.798 176.873 330.496 181.644C330.185 186.415 329.114 187.436 328.082 191.06C327.507 193.081 328.822 195.55 333.329 195.997C337.603 196.016 339.385 193.801 339.005 191.721C338.324 187.99 337.35 186.853 337.496 182.072C337.642 177.291 339.813 175.95 339.998 172.694C340.096 171.072 339.249 168.71 334.634 168.273Z" fill="url(#paint19_linear_528_6743)"/>
<path d="M333.748 175.133C333.631 175.396 332.901 181.897 332.716 184.2C332.609 185.482 332.619 186.891 333.437 186.804C334.215 186.483 334.41 185.132 334.342 183.889C334.215 181.663 333.865 175.347 333.758 175.124L333.748 175.133Z" fill="#FFF5CC"/>
<path d="M339.035 192.557C338.927 194.617 336.338 196.152 333.271 195.987C330.195 195.822 327.8 194.014 327.907 191.954C328.014 189.894 330.604 188.359 333.67 188.524C336.747 188.689 339.142 190.497 339.035 192.557Z" fill="url(#paint20_linear_528_6743)"/>
<path d="M328.296 190.739C330.224 188.689 332.58 188.174 335.919 188.971C333.816 188.077 330.301 187.708 328.296 190.739Z" fill="#FFF5CC"/>
<g style="mix-blend-mode:multiply" opacity="0.15">
<path d="M338.041 187.727C337.672 186.25 337.409 184.715 337.487 182.071C337.633 177.29 339.804 175.949 339.989 172.694C340.086 171.071 339.239 168.71 334.624 168.273C332.862 168.224 331.626 168.525 330.75 169.002C334.011 168.817 338.596 170.867 337.72 174.463C336.854 178.068 336.153 181.77 338.032 187.727H338.041Z" fill="#CC0631"/>
</g>
<g style="mix-blend-mode:multiply" opacity="0.35">
<path d="M336.825 189.379C337.516 189.991 337.915 190.749 337.866 191.556C337.769 193.363 335.51 194.714 332.813 194.568C330.146 194.422 328.063 192.877 328.111 191.089C327.994 191.371 327.916 191.662 327.897 191.964C327.79 194.024 330.185 195.831 333.261 195.996C336.338 196.162 338.918 194.626 339.025 192.566C339.093 191.303 338.217 190.137 336.815 189.379H336.825Z" fill="#CC0631"/>
</g>
<path d="M106.305 169.225C106.266 170.119 106.325 172.131 106.325 172.131L131.306 171.985C131.306 171.985 131.306 170.304 131.287 169.079C131.258 163.608 125.64 159.207 118.738 159.245C111.835 159.284 106.549 163.579 106.305 169.225Z" fill="url(#paint21_linear_528_6743)"/>
<path d="M106.325 172.13C106.354 177.601 111.971 182.003 118.874 181.964C125.776 181.926 131.335 177.456 131.306 171.985C131.277 166.514 125.66 162.112 118.757 162.151C111.855 162.19 106.296 166.66 106.325 172.13Z" fill="url(#paint22_linear_528_6743)"/>
<g style="mix-blend-mode:multiply" opacity="0.25">
<path d="M109.713 165.309C108.486 166.806 107.775 168.584 107.785 170.498C107.814 175.707 113.169 179.905 119.731 179.866C125.377 179.837 130.08 176.678 131.267 172.49C130.966 177.728 125.553 181.936 118.864 181.974C111.962 182.013 106.344 177.611 106.315 172.14C106.296 169.497 107.6 167.097 109.703 165.309H109.713Z" fill="#CC0631"/>
</g>
<path d="M129.982 167.602C129.048 164.813 119.916 158.555 111.008 164.337C117.102 161.16 125.709 161.976 129.982 167.602Z" fill="#FFF5CC"/>
<path d="M118.572 168.272C123.206 168.156 124.267 170.41 124.325 172.023C124.442 175.269 122.407 176.872 122.709 181.644C123.021 186.415 124.092 187.435 125.124 191.06C125.698 193.081 124.384 195.549 119.876 195.996C115.602 196.016 113.821 193.8 114.2 191.721C114.882 187.989 115.855 186.852 115.709 182.071C115.563 177.29 113.392 175.949 113.207 172.694C113.11 171.071 113.957 168.71 118.572 168.272Z" fill="url(#paint23_linear_528_6743)"/>
<path d="M119.467 175.133C119.584 175.396 120.314 181.897 120.499 184.2C120.606 185.482 120.597 186.891 119.779 186.804C119 186.483 118.805 185.132 118.873 183.889C119 181.663 119.351 175.347 119.458 175.124L119.467 175.133Z" fill="#FFF5CC"/>
<path d="M114.171 192.557C114.278 194.617 116.868 196.152 119.934 195.987C123.011 195.822 125.406 194.014 125.299 191.954C125.192 189.894 122.602 188.359 119.535 188.524C116.459 188.689 114.064 190.497 114.171 192.557Z" fill="url(#paint24_linear_528_6743)"/>
<path d="M124.919 190.739C122.992 188.689 120.636 188.174 117.296 188.971C119.399 188.077 122.914 187.708 124.919 190.739Z" fill="#FFF5CC"/>
<g style="mix-blend-mode:multiply" opacity="0.15">
<path d="M115.164 187.727C115.534 186.25 115.797 184.715 115.719 182.071C115.573 177.29 113.402 175.949 113.217 172.694C113.12 171.071 113.967 168.71 118.581 168.273C120.344 168.224 121.58 168.525 122.456 169.002C119.195 168.817 114.609 170.867 115.486 174.463C116.352 178.068 117.053 181.77 115.174 187.727H115.164Z" fill="#CC0631"/>
</g>
<g style="mix-blend-mode:multiply" opacity="0.35">
<path d="M116.381 189.379C115.689 189.991 115.29 190.749 115.339 191.556C115.436 193.363 117.695 194.714 120.392 194.568C123.059 194.422 125.143 192.877 125.094 191.089C125.211 191.371 125.289 191.662 125.308 191.964C125.415 194.024 123.02 195.831 119.944 195.996C116.867 196.162 114.288 194.626 114.18 192.566C114.112 191.303 114.989 190.137 116.39 189.379H116.381Z" fill="#CC0631"/>
</g>
<g style="mix-blend-mode:screen">
<path d="M156.317 52.6548L157.991 62.4499L162.1 64.3448L157.991 66.2495L156.317 76.0446L154.642 66.2495L150.524 64.3448L154.642 62.4499L156.317 52.6548Z" fill="#FCCD47"/>
</g>
<g style="mix-blend-mode:screen">
<path d="M174.922 57.1348C174.922 58.3786 173.909 59.3893 172.663 59.3893C171.417 59.3893 170.404 58.3786 170.404 57.1348C170.404 55.891 171.417 54.8804 172.663 54.8804C173.909 54.8804 174.922 55.891 174.922 57.1348Z" fill="#FCCD47"/>
</g>
<g style="mix-blend-mode:screen">
<path d="M148.781 71.4872C148.781 72.3715 148.07 73.0809 147.185 73.0809C146.299 73.0809 145.588 72.3715 145.588 71.4872C145.588 70.6029 146.299 69.8936 147.185 69.8936C148.07 69.8936 148.781 70.6029 148.781 71.4872Z" fill="#FCCD47"/>
</g>
<g style="mix-blend-mode:screen">
<path d="M288.867 142.415L290.58 160.635L298.846 162.578L290.58 164.512L288.867 182.742L287.153 164.512L278.878 162.578L287.153 160.635L288.867 142.415Z" fill="#FCCD47"/>
</g>
<g style="mix-blend-mode:screen">
<path d="M300.452 180.323C301.333 180.323 302.048 179.609 302.048 178.729C302.048 177.849 301.333 177.135 300.452 177.135C299.57 177.135 298.855 177.849 298.855 178.729C298.855 179.609 299.57 180.323 300.452 180.323Z" fill="#FCCD47"/>
</g>
<path d="M349.928 168.273C349.529 165.678 348.691 163.822 346.705 161.743C346.579 160.169 346.345 156.087 344.048 159.576C341.643 157.807 333.553 155.038 327.341 157.739C321.948 160.081 321.85 163.628 321.656 164.483C322.824 161.908 323.905 159.955 327.614 158.449C331.703 156.933 336.337 156.389 344.388 160.295C345.021 159.323 345.732 157.185 346.365 162.19C347.416 163.113 349.061 164.561 349.918 168.273H349.928Z" fill="#F294F7"/>
<path d="M131.589 164.483C131.306 162.578 130.664 161.986 129.836 161.111C130.187 159.275 128.668 157.146 128.668 155.971C128.668 154.795 127.042 154.396 126.867 155.63C126.702 156.865 126.38 158.274 126.38 158.274C123.995 156.758 118.621 155.689 113.198 157.71C107.766 159.731 103.891 163.2 103.56 168.273C104.621 163.706 108.613 160.169 113.442 158.381C119.049 156.301 123.946 157.146 126.76 159.226C126.925 157.934 127.656 154.795 128.337 157.04C129.019 159.284 129.457 159.566 129.184 161.189C130.138 161.859 131.316 163.084 131.598 164.493L131.589 164.483Z" fill="#F294F7"/>
<path d="M318.594 156.376C336.601 109.106 290.162 61.6225 214.871 50.3177C139.579 39.0129 63.9463 68.168 45.9399 115.437C27.9335 162.707 74.3722 210.191 149.664 221.495C224.955 232.8 300.588 203.645 318.594 156.376Z" fill="url(#paint25_radial_528_6743)" fill-opacity="0.7" style="mix-blend-mode:screen"/>
<path d="M305.258 126.527C323.264 79.2576 276.826 31.7738 201.534 20.4691C126.243 9.16428 50.6099 38.3194 32.6035 85.5888C14.5971 132.858 61.0358 180.342 136.327 191.647C211.619 202.952 287.252 173.796 305.258 126.527Z" fill="url(#paint26_radial_528_6743)" fill-opacity="0.7" style="mix-blend-mode:screen"/>
<path style="mix-blend-mode:screen" d="M416.397 148.119C434.403 100.85 387.964 53.3661 312.673 42.0613C237.381 30.7566 161.749 59.9117 143.742 107.181C125.736 154.451 172.174 201.934 247.466 213.239C322.757 224.544 398.39 195.389 416.397 148.119Z" fill="url(#paint27_radial_528_6743)" fill-opacity="0.7"/>
<g filter="url(#filter0_d_528_6743)">
<path d="M153.742 97.5501C153.742 100.87 151.622 103.07 149.502 104.43C147.302 105.91 144.462 106.67 144.462 108.43C144.462 109.71 145.302 110.23 145.942 110.23C146.462 110.23 146.902 109.91 146.742 109.35C146.502 108.35 145.142 108.47 145.142 108.47C145.502 107.83 146.222 107.47 146.942 107.47C147.822 107.47 148.662 107.99 148.662 109.07C148.662 110.55 147.382 111.59 145.782 111.59C144.622 111.59 143.782 111.11 143.302 110.39V117.63C143.302 119.75 144.582 120.23 146.382 120.47L147.782 120.59V121.47L134.902 120.67V119.15L136.182 119.31C138.022 119.31 139.142 118.63 139.142 116.87V93.9901C139.142 91.6701 136.662 91.0701 135.622 91.0701H134.782V90.2301H143.302C148.462 90.2301 153.742 91.7901 153.742 97.5501ZM143.982 105.95C144.782 105.11 149.422 102.59 149.422 98.2701C149.422 94.5501 146.702 91.1901 143.302 91.5101V106.87C143.462 106.51 143.742 106.19 143.982 105.95ZM168.221 95.4301C176.141 95.4301 176.941 107.07 168.701 107.07C165.381 107.07 165.261 102.59 167.941 102.59C168.781 102.59 169.421 103.31 169.261 104.11C169.261 104.11 168.861 103.71 168.421 103.71C168.301 103.71 168.141 103.75 168.021 103.83C167.421 104.23 167.541 105.47 168.821 105.47C171.341 105.47 171.821 97.6701 167.101 97.6701C163.821 97.6701 163.141 100.99 163.141 103.63V114.39C163.141 116.51 164.461 117.55 166.341 117.67V118.51L155.141 118.55V117.03L156.781 117.11C158.221 117.03 159.021 116.63 159.021 115.11V100.15C159.021 97.7901 156.461 97.1901 155.461 97.1901L154.621 97.2301V96.3901L163.141 95.9101V98.4301C164.181 96.5501 166.021 95.4301 168.221 95.4301ZM192.181 126.87H192.021L193.501 126.95L193.421 127.63L185.741 127.23L185.861 124.55C185.381 125.11 184.021 126.07 181.181 126.07C175.821 126.07 172.981 122.39 172.981 117.39C172.981 111.15 176.901 108.63 180.541 108.63C183.261 108.63 185.821 110.03 186.581 112.31L186.701 110.19C187.021 104.23 186.661 100.55 183.221 100.55C181.501 100.55 180.261 101.07 179.661 102.83C179.301 104.11 179.501 105.55 181.461 106.19L181.301 107.03L176.581 105.55H176.421V105.47C177.741 100.03 180.941 99.0701 183.181 99.0701C189.621 99.0701 191.341 103.91 190.981 109.75C190.981 109.79 190.981 109.79 190.981 109.83L190.101 124.43C190.021 126.07 191.221 126.79 192.181 126.87ZM182.821 123.75C184.661 123.75 185.541 123.19 185.981 122.83L186.421 115.51C185.741 116.71 184.381 117.23 183.101 117.15C181.181 117.03 180.181 115.79 180.301 114.07C180.341 112.87 181.261 112.31 182.261 112.31C183.101 112.31 184.021 112.75 184.421 113.59C184.421 113.59 182.861 113.39 182.501 114.47C182.261 115.15 182.821 115.59 183.461 115.59C184.221 115.59 185.141 115.03 185.221 113.63C185.301 112.19 183.981 110.99 182.141 110.99C176.181 110.99 176.261 123.75 182.821 123.75ZM213.727 127.59C213.727 126.07 214.967 125.19 216.327 125.19C217.927 125.19 219.727 126.47 219.727 129.39C219.727 132.91 217.007 135.03 214.127 135.03C209.647 135.03 207.367 131.47 206.167 124.95L203.247 109.55L200.767 112.35V117.83C200.767 119.95 201.247 120.87 203.847 120.87V121.71L192.047 122.39V120.87H193.567C195.447 120.87 196.287 120.27 196.287 118.55V95.3501C196.287 92.9501 193.807 92.4301 192.807 92.4301H191.887V91.5501H205.167V92.4301H204.087C202.887 92.4301 200.767 92.8701 200.767 94.9501V109.35L207.487 101.87C208.367 100.79 207.967 99.9901 206.607 99.7101L205.047 99.5901L205.127 98.7101L215.487 99.7501L215.447 100.63L214.527 100.55H214.567C212.087 100.31 210.847 101.07 209.727 102.27L206.607 105.83L210.527 126.03C211.367 130.15 212.527 132.11 215.007 132.11C216.727 132.11 218.007 130.75 218.007 128.51C218.007 127.31 217.327 126.79 216.687 126.79C216.167 126.79 215.647 127.19 215.647 127.83C215.647 128.83 217.007 129.07 217.007 129.07C216.607 129.51 216.127 129.71 215.607 129.71C214.647 129.71 213.727 128.95 213.727 127.59ZM222.957 117.31C222.957 115.79 224.197 114.91 225.557 114.91C227.157 114.91 228.957 116.19 228.957 119.11C228.957 122.51 226.357 124.47 223.517 124.47C220.037 124.47 216.117 121.51 216.117 114.67V100.71L212.437 100.79L212.317 99.1101L216.117 99.0701V93.8301L220.997 93.5901V98.9901L226.237 98.9501L226.357 100.43L220.997 100.59V115.11C220.997 119.27 222.037 121.79 224.517 121.79C225.837 121.79 227.237 120.47 227.237 118.23C227.237 117.03 226.557 116.51 225.917 116.51C225.357 116.51 224.877 116.91 224.877 117.51C224.877 118.51 226.237 118.79 226.237 118.79C225.837 119.19 225.357 119.39 224.877 119.39C223.877 119.39 222.957 118.63 222.957 117.31ZM234.679 97.9501C233.279 97.9501 232.199 96.8301 232.199 95.4701C232.199 94.1101 233.279 92.9901 234.679 92.9901C236.039 92.9901 237.119 94.1101 237.119 95.4701C237.119 96.8301 236.039 97.9501 234.679 97.9501ZM233.279 104.99C233.279 102.63 230.759 102.03 229.759 102.03L228.879 102.07V101.19L241.799 100.47V101.35L239.919 101.47C238.559 101.63 237.399 102.23 237.399 103.87V117.79C237.399 119.87 237.839 121.11 240.079 121.35L241.959 121.51V122.39L229.039 121.95V120.43L230.319 120.55C232.239 120.55 233.279 120.23 233.279 118.47V104.99ZM263.727 127.59C263.727 126.07 264.967 125.19 266.327 125.19C267.927 125.19 269.727 126.47 269.727 129.39C269.727 132.91 267.007 135.03 264.127 135.03C259.647 135.03 257.367 131.47 256.167 124.95L253.247 109.55L250.767 112.35V117.83C250.767 119.95 251.247 120.87 253.847 120.87V121.71L242.047 122.39V120.87H243.567C245.447 120.87 246.287 120.27 246.287 118.55V95.3501C246.287 92.9501 243.807 92.4301 242.807 92.4301H241.887V91.5501H255.167V92.4301H254.087C252.887 92.4301 250.767 92.8701 250.767 94.9501V109.35L257.487 101.87C258.367 100.79 257.967 99.9901 256.607 99.7101L255.047 99.5901L255.127 98.7101L265.487 99.7501L265.447 100.63L264.527 100.55H264.567C262.087 100.31 260.847 101.07 259.727 102.27L256.607 105.83L260.527 126.03C261.367 130.15 262.527 132.11 265.007 132.11C266.727 132.11 268.007 130.75 268.007 128.51C268.007 127.31 267.327 126.79 266.687 126.79C266.167 126.79 265.647 127.19 265.647 127.83C265.647 128.83 267.007 129.07 267.007 129.07C266.607 129.51 266.127 129.71 265.607 129.71C264.647 129.71 263.727 128.95 263.727 127.59ZM274.067 102.63V101.79L283.787 102.11V103.27L283.147 103.23C281.267 103.23 280.187 103.71 280.067 105.47L279.267 119.31C279.067 123.07 281.827 123.11 282.827 123.11L283.427 123.07V123.91L274.867 124.39V123.51H274.907L274.947 122.55C273.947 123.99 272.427 124.87 270.547 124.87C267.267 124.87 264.027 121.75 264.467 114.47L264.907 107.31C264.787 105.75 263.987 104.99 262.707 104.91L262.747 104.03L272.267 104.39L272.227 105.27H271.827C271.027 105.23 270.267 105.75 270.027 107.11L269.467 114.83C269.187 118.63 269.427 122.35 271.827 122.63C273.827 122.87 275.107 120.11 275.227 117.47L275.867 106.27C275.867 104.15 276.147 102.75 274.307 102.67L274.067 102.63ZM313.554 118.83C313.594 120.67 314.274 121.35 315.274 121.39H316.314V122.63L305.834 122.67V121.15L306.354 121.19C307.954 121.23 308.594 120.79 308.594 118.99C308.634 116.87 308.634 114.03 308.554 111.67C308.554 111.59 308.554 111.55 308.554 111.47C308.514 107.63 308.194 103.79 305.914 103.79C303.794 103.79 303.274 107.19 303.074 109.79C303.074 109.83 303.074 109.87 303.034 109.91V110.91L302.714 114.35V114.39C302.594 116.55 303.354 117.31 304.834 117.35L304.794 118.27L294.554 117.91L294.594 116.99H294.954C295.834 117.03 297.314 116.47 297.634 114.83L298.034 110.31C298.354 106.51 298.074 102.83 295.714 102.51C293.674 102.23 292.594 104.75 292.594 107.35V119.59C292.594 121.71 292.874 122.75 294.714 122.83V123.71L284.274 123.75V122.23L285.994 122.35C287.554 122.31 288.514 121.91 288.514 120.27V104.99C288.514 102.63 286.034 102.07 284.994 102.07L285.634 101.99L284.114 102.07V101.19L292.594 100.79V102.91C293.474 101.23 294.954 100.31 296.954 100.31C299.234 100.31 301.514 101.79 302.514 105.11C303.234 102.91 304.834 101.47 307.394 101.51C310.274 101.51 313.554 104.31 313.554 111.59V118.83Z" fill="#F5F5F5"/>
</g>
<defs>
<filter id="filter0_d_528_6743" x="130.782" y="90.23" width="189.531" height="52.8003" filterUnits="userSpaceOnUse" color-interpolation-filters="sRGB">
<feFlood flood-opacity="0" result="BackgroundImageFix"/>
<feColorMatrix in="SourceAlpha" type="matrix" values="0 0 0 0 0 0 0 0 0 0 0 0 0 0 0 0 0 0 127 0" result="hardAlpha"/>
<feOffset dy="4"/>
<feGaussianBlur stdDeviation="2"/>
<feComposite in2="hardAlpha" operator="out"/>
<feColorMatrix type="matrix" values="0 0 0 0 0 0 0 0 0 0 0 0 0 0 0 0 0 0 0.25 0"/>
<feBlend mode="normal" in2="BackgroundImageFix" result="effect1_dropShadow_528_6743"/>
<feBlend mode="normal" in="SourceGraphic" in2="effect1_dropShadow_528_6743" result="shape"/>
</filter>
<linearGradient id="paint0_linear_528_6743" x1="111.072" y1="52.3243" x2="124.048" y2="51.7988" gradientUnits="userSpaceOnUse">
<stop stop-color="#B83D00"/>
<stop offset="0.25" stop-color="#E4790F"/>
<stop offset="0.56" stop-color="#FEE34D"/>
<stop offset="0.62" stop-color="#FAD444"/>
<stop offset="0.75" stop-color="#F1AF2E"/>
<stop offset="0.91" stop-color="#E4790F"/>
</linearGradient>
<linearGradient id="paint1_linear_528_6743" x1="130.386" y1="59.1774" x2="105.333" y2="57.1271" gradientUnits="userSpaceOnUse">
<stop offset="0.06" stop-color="#E47B10"/>
<stop offset="0.14" stop-color="#E68417"/>
<stop offset="0.27" stop-color="#ED9D2B"/>
<stop offset="0.44" stop-color="#F8C74C"/>
<stop offset="0.53" stop-color="#FEDE5F"/>
<stop offset="0.61" stop-color="#F7C64C"/>
<stop offset="0.78" stop-color="#ED9D2B"/>
<stop offset="0.92" stop-color="#E68417"/>
<stop offset="1" stop-color="#E47B10"/>
</linearGradient>
<linearGradient id="paint2_linear_528_6743" x1="117.507" y1="73.9084" x2="117.5" y2="54.0846" gradientUnits="userSpaceOnUse">
<stop stop-color="#CF4B0B"/>
<stop offset="0.99" stop-color="#E8B321"/>
</linearGradient>
<linearGradient id="paint3_linear_528_6743" x1="127.023" y1="69.4817" x2="109.48" y2="68.046" gradientUnits="userSpaceOnUse">
<stop offset="0.06" stop-color="#E47B10"/>
<stop offset="0.14" stop-color="#E68417"/>
<stop offset="0.27" stop-color="#ED9D2B"/>
<stop offset="0.44" stop-color="#F8C74C"/>
<stop offset="0.53" stop-color="#FEDE5F"/>
<stop offset="0.61" stop-color="#F7C64C"/>
<stop offset="0.78" stop-color="#ED9D2B"/>
<stop offset="0.92" stop-color="#E68417"/>
<stop offset="1" stop-color="#E47B10"/>
</linearGradient>
<linearGradient id="paint4_linear_528_6743" x1="342.076" y1="52.6354" x2="329.1" y2="52.1099" gradientUnits="userSpaceOnUse">
<stop offset="0.06" stop-color="#E47B10"/>
<stop offset="0.14" stop-color="#E68417"/>
<stop offset="0.27" stop-color="#ED9D2B"/>
<stop offset="0.44" stop-color="#F8C74C"/>
<stop offset="0.53" stop-color="#FEDE5F"/>
<stop offset="0.61" stop-color="#F7C64C"/>
<stop offset="0.78" stop-color="#ED9D2B"/>
<stop offset="0.92" stop-color="#E68417"/>
<stop offset="1" stop-color="#E47B10"/>
</linearGradient>
<linearGradient id="paint5_linear_528_6743" x1="322.833" y1="59.1358" x2="347.896" y2="57.0846" gradientUnits="userSpaceOnUse">
<stop offset="0.06" stop-color="#E47B10"/>
<stop offset="0.14" stop-color="#E68417"/>
<stop offset="0.27" stop-color="#ED9D2B"/>
<stop offset="0.44" stop-color="#F8C74C"/>
<stop offset="0.53" stop-color="#FEDE5F"/>
<stop offset="0.61" stop-color="#F7C64C"/>
<stop offset="0.78" stop-color="#ED9D2B"/>
<stop offset="0.92" stop-color="#E68417"/>
<stop offset="1" stop-color="#E47B10"/>
</linearGradient>
<linearGradient id="paint6_linear_528_6743" x1="335.71" y1="73.8802" x2="335.717" y2="54.0661" gradientUnits="userSpaceOnUse">
<stop stop-color="#CF4B0B"/>
<stop offset="0.99" stop-color="#E8B321"/>
</linearGradient>
<linearGradient id="paint7_linear_528_6743" x1="326.207" y1="69.4489" x2="343.74" y2="68.014" gradientUnits="userSpaceOnUse">
<stop offset="0.06" stop-color="#E47B10"/>
<stop offset="0.14" stop-color="#E68417"/>
<stop offset="0.27" stop-color="#ED9D2B"/>
<stop offset="0.44" stop-color="#F8C74C"/>
<stop offset="0.53" stop-color="#FEDE5F"/>
<stop offset="0.61" stop-color="#F7C64C"/>
<stop offset="0.78" stop-color="#ED9D2B"/>
<stop offset="0.92" stop-color="#E68417"/>
<stop offset="1" stop-color="#E47B10"/>
</linearGradient>
<linearGradient id="paint8_linear_528_6743" x1="348.856" y1="117.761" x2="103.351" y2="117.761" gradientUnits="userSpaceOnUse">
<stop stop-color="#8A3D90"/>
<stop offset="0.47" stop-color="#D457D4"/>
<stop offset="1" stop-color="#C14FC1"/>
</linearGradient>
<linearGradient id="paint9_linear_528_6743" x1="314.101" y1="122.747" x2="349.928" y2="122.747" gradientUnits="userSpaceOnUse">
<stop stop-color="#FFA8A6"/>
<stop offset="1" stop-color="#8E1613"/>
</linearGradient>
<linearGradient id="paint10_linear_528_6743" x1="103.56" y1="122.951" x2="138.773" y2="122.951" gradientUnits="userSpaceOnUse">
<stop stop-color="#8E1613"/>
<stop offset="1" stop-color="#FFA8A6"/>
</linearGradient>
<linearGradient id="paint11_linear_528_6743" x1="329.152" y1="160.091" x2="341.76" y2="160.091" gradientUnits="userSpaceOnUse">
<stop stop-color="#38C1C9"/>
<stop offset="0.37" stop-color="#7EFFF5"/>
<stop offset="0.68" stop-color="#4CC8CE"/>
<stop offset="1" stop-color="#399B97"/>
</linearGradient>
<linearGradient id="paint12_linear_528_6743" x1="325.715" y1="163.448" x2="343.229" y2="162.014" gradientUnits="userSpaceOnUse">
<stop offset="0.09" stop-color="#E4790F"/>
<stop offset="0.58" stop-color="#E4790F"/>
<stop offset="0.6" stop-color="#E2770E"/>
<stop offset="1" stop-color="#B83D00"/>
</linearGradient>
<linearGradient id="paint13_linear_528_6743" x1="321.665" y1="112" x2="349.694" y2="112" gradientUnits="userSpaceOnUse">
<stop stop-color="#8A3D90"/>
<stop offset="0.47" stop-color="#D457D4"/>
<stop offset="1" stop-color="#C14FC1"/>
</linearGradient>
<linearGradient id="paint14_linear_528_6743" x1="124.102" y1="160.091" x2="111.494" y2="160.091" gradientUnits="userSpaceOnUse">
<stop stop-color="#38C1C9"/>
<stop offset="0.37" stop-color="#7EFFF5"/>
<stop offset="0.68" stop-color="#4CC8CE"/>
<stop offset="1" stop-color="#399B97"/>
</linearGradient>
<linearGradient id="paint15_linear_528_6743" x1="127.505" y1="163.489" x2="109.991" y2="162.056" gradientUnits="userSpaceOnUse">
<stop offset="0.09" stop-color="#E4790F"/>
<stop offset="0.58" stop-color="#E4790F"/>
<stop offset="0.6" stop-color="#E2770E"/>
<stop offset="1" stop-color="#B83D00"/>
</linearGradient>
<linearGradient id="paint16_linear_528_6743" x1="131.588" y1="111.999" x2="103.56" y2="111.999" gradientUnits="userSpaceOnUse">
<stop stop-color="#8A3D90"/>
<stop offset="0.47" stop-color="#D457D4"/>
<stop offset="1" stop-color="#C14FC1"/>
</linearGradient>
<linearGradient id="paint17_linear_528_6743" x1="321.502" y1="167.243" x2="346.565" y2="165.192" gradientUnits="userSpaceOnUse">
<stop offset="0.09" stop-color="#E4790F"/>
<stop offset="0.25" stop-color="#F1AF2E"/>
<stop offset="0.38" stop-color="#FAD444"/>
<stop offset="0.44" stop-color="#FEE34D"/>
<stop offset="0.75" stop-color="#E2770E"/>
<stop offset="1" stop-color="#B83D00"/>
</linearGradient>
<linearGradient id="paint18_linear_528_6743" x1="334.386" y1="181.99" x2="334.383" y2="162.166" gradientUnits="userSpaceOnUse">
<stop stop-color="#CF4B0B"/>
<stop offset="0.99" stop-color="#E8B321"/>
</linearGradient>
<linearGradient id="paint19_linear_528_6743" x1="340.64" y1="182.734" x2="327.664" y2="182.209" gradientUnits="userSpaceOnUse">
<stop stop-color="#B83D00"/>
<stop offset="0.25" stop-color="#E4790F"/>
<stop offset="0.56" stop-color="#FEE34D"/>
<stop offset="0.62" stop-color="#FAD444"/>
<stop offset="0.75" stop-color="#F1AF2E"/>
<stop offset="0.91" stop-color="#E4790F"/>
</linearGradient>
<linearGradient id="paint20_linear_528_6743" x1="335.128" y1="195.191" x2="335.077" y2="187.731" gradientUnits="userSpaceOnUse">
<stop stop-color="#CF4B0B"/>
<stop offset="0.99" stop-color="#E8B321"/>
</linearGradient>
<linearGradient id="paint21_linear_528_6743" x1="131.718" y1="167.275" x2="106.665" y2="165.224" gradientUnits="userSpaceOnUse">
<stop offset="0.09" stop-color="#E4790F"/>
<stop offset="0.25" stop-color="#F1AF2E"/>
<stop offset="0.38" stop-color="#FAD444"/>
<stop offset="0.44" stop-color="#FEE34D"/>
<stop offset="0.75" stop-color="#E2770E"/>
<stop offset="1" stop-color="#B83D00"/>
</linearGradient>
<linearGradient id="paint22_linear_528_6743" x1="118.832" y1="182.009" x2="118.835" y2="162.194" gradientUnits="userSpaceOnUse">
<stop stop-color="#CF4B0B"/>
<stop offset="0.99" stop-color="#E8B321"/>
</linearGradient>
<linearGradient id="paint23_linear_528_6743" x1="112.51" y1="182.432" x2="125.495" y2="181.905" gradientUnits="userSpaceOnUse">
<stop stop-color="#B83D00"/>
<stop offset="0.25" stop-color="#E4790F"/>
<stop offset="0.56" stop-color="#FEE34D"/>
<stop offset="0.62" stop-color="#FAD444"/>
<stop offset="0.75" stop-color="#F1AF2E"/>
<stop offset="0.91" stop-color="#E4790F"/>
</linearGradient>
<linearGradient id="paint24_linear_528_6743" x1="118.145" y1="195.106" x2="118.197" y2="187.645" gradientUnits="userSpaceOnUse">
<stop stop-color="#CF4B0B"/>
<stop offset="0.99" stop-color="#E8B321"/>
</linearGradient>
<radialGradient id="paint25_radial_528_6743" cx="0" cy="0" r="1" gradientUnits="userSpaceOnUse" gradientTransform="translate(182.273 135.899) scale(140.172 88.0025)">
<stop stop-color="#C700FF"/>
<stop offset="1" stop-color="#770099" stop-opacity="0"/>
</radialGradient>
<radialGradient id="paint26_radial_528_6743" cx="0" cy="0" r="1" gradientUnits="userSpaceOnUse" gradientTransform="translate(168.936 106.05) scale(140.172 88.0025)">
<stop stop-color="#C700FF"/>
<stop offset="1" stop-color="#770099" stop-opacity="0"/>
</radialGradient>
<radialGradient id="paint27_radial_528_6743" cx="0" cy="0" r="1" gradientUnits="userSpaceOnUse" gradientTransform="translate(280.075 127.643) scale(140.172 88.0025)">
<stop stop-color="#C700FF"/>
<stop offset="1" stop-color="#770099" stop-opacity="0"/>
</radialGradient>
</defs>
</svg>
