<svg width="388" height="242" viewBox="0 0 388 242" fill="none" xmlns="http://www.w3.org/2000/svg">
<path d="M350.947 175.579C355.93 171.517 352.085 166.212 352.097 161.275C348.276 128.042 346.607 106.323 353.185 72.7108C354.014 70.4758 353.061 68.095 351.738 66.2195C352.258 62.2354 350.131 58.3484 345.741 56.2495C344.072 55.3943 341.995 54.753 339.954 54.4129C340.066 50.419 346.619 45.3076 340.288 42.5187C339.027 42.0134 337.914 40.0408 336.492 39.9145C333.463 39.7687 329.197 42.4021 328.949 45.2007C328.652 48.4755 331.187 50.0692 331.002 54.5489C325.536 55.579 320.17 59.1064 320.034 63.7027C316.98 66.1126 318.698 69.7469 319.144 72.7205C312.825 71.3406 308.015 68.0367 301.548 66.9386C300.373 69.9607 298.531 69.8441 299.545 66.5985C298.914 66.4916 298.283 66.3847 297.64 66.2778C292.237 76.8504 289.306 79.7462 292.323 67.7743C281.949 66.2001 271.34 64.9563 260.693 63.9845C260.1 67.3079 258.715 66.89 258.579 63.7902C243.691 63.7513 186.452 55.8705 181.197 65.8794C177.611 68.0658 173.902 63.0808 171.169 61.6135C153.177 62.284 135.05 63.6736 116.416 65.86C116.242 69.6984 115.018 70.1939 113.794 66.1807C112.1 66.3944 110.406 66.6179 108.712 66.8512C109.12 73.1966 107.884 74.5182 106.091 67.2204C95.5678 68.7363 85.2675 70.5729 75.363 72.7691C75.8205 69.6401 77.6877 66.2292 74.4974 63.6736C74.3614 59.0869 68.9949 55.5595 63.5418 54.5392C63.3563 50.0595 65.8912 48.4658 65.5945 45.191C65.3471 42.4118 62.2064 39.7881 59.1769 39.9339L58.3732 40.0894C56.9512 40.206 53.9711 41.5081 53.9711 41.5081C47.6278 44.4039 54.4534 50.2635 54.6018 54.4226C47.2692 55.4818 41.8532 60.4182 42.8177 66.307C41.4575 68.2213 40.6167 70.641 41.4575 72.9051C48.5057 108.976 46.1687 135.544 41 171.226C41.8903 172.985 43.0403 174.656 44.5983 176.085C45.2907 180.234 50.1008 183.596 56.4071 184.607C56.5555 186.657 56.3824 188.698 55.7394 190.68C49.6928 200.262 68.0675 201.467 71.0228 193.926C71.6782 189.942 65.5697 189.495 65.3224 184.422C70.0583 183.46 74.6334 180.827 75.9194 176.969C79.2086 176.075 82.4359 175.123 85.7251 174.19C93.5399 171.964 103.679 169.671 110.925 169.273C111.247 165.716 113.374 159.74 116.626 165.93C119.222 166.464 122.042 165.327 124.614 165.949C128.014 164.608 132.243 165.609 135.916 165.298C173.543 164.696 212.926 161.441 252.656 166.27C255.215 150.061 260.594 147.885 255.97 166.581C257.54 166.736 259.37 166.902 260.928 167.067C261.324 155.571 264.18 160.313 263.24 167.31C271.167 168.155 278.734 169.01 286.042 170.06C286.635 169.38 287.427 168.68 288.527 168.593C288.787 168.369 289.244 168.359 289.455 168.573C290.84 168.68 291.112 170.264 292.101 170.964C301.152 171.741 309.449 174.763 318.624 176.949C319.898 180.807 324.485 183.45 329.234 184.422C328.986 189.495 326.983 190.855 325.945 194.917C327.651 201.612 347.744 200.446 341.698 190.904C341.698 190.904 338.001 186.657 338.149 184.607C344.22 183.645 348.87 180.496 349.847 176.561C350.23 176.26 350.601 175.939 350.959 175.589L350.947 175.579Z" fill="#3EEDFF"/>
<path d="M60.797 39.7397C66.6828 39.6231 68.0306 41.8775 68.1048 43.4906C68.2532 46.7362 65.6689 48.3396 66.0522 53.1109C66.4479 57.8821 67.8081 58.9024 69.1188 62.527C69.8483 64.5483 68.179 67.0165 62.4539 67.4635C57.0256 67.4829 54.7627 65.2674 55.245 63.1878C56.1105 59.4563 57.3471 58.3194 57.1616 53.5384C56.9761 48.7575 54.2187 47.4067 53.9837 44.1611C53.8601 42.5383 54.9359 40.177 60.797 39.7397Z" fill="url(#paint0_linear_528_6845)"/>
<path d="M61.8728 54.7724C61.9964 54.5003 62.3179 47.9605 62.3303 45.6575C62.3303 44.3748 62.2066 42.9657 61.1803 43.1115C60.2282 43.4905 60.1046 44.8509 60.3024 46.085C60.6734 48.3006 61.712 54.5683 61.8604 54.7821L61.8728 54.7724Z" fill="#FFF5CC"/>
<g style="mix-blend-mode:multiply" opacity="0.15">
<path d="M57.1614 53.5382C56.9759 48.7573 54.2184 47.4163 53.9835 44.1609C53.8969 43.024 54.4163 41.5275 56.7409 40.5752C53.8351 42.0231 54.8861 45.0161 57.0501 48.077C58.7812 50.5258 58.9296 52.9843 56.8646 57.7556C57.1119 56.6478 57.2479 55.3554 57.1737 53.5285L57.1614 53.5382Z" fill="#CC0631"/>
</g>
<path d="M56.5435 40.692C56.5435 40.692 56.5682 40.6628 56.5806 40.6531C57.5945 40.2158 58.9547 39.8854 60.8095 39.7494C66.4233 39.6328 67.9071 41.6832 68.0926 43.2768C67.0539 40.828 62.6519 39.0789 56.5558 40.7017L56.5435 40.692Z" fill="#FFF5CC"/>
<path d="M45.2787 62.1187C45.2293 63.0127 45.3035 65.0242 45.3035 65.0242L77.0326 64.8785C77.0326 64.8785 77.0326 63.1973 77.0079 61.973C76.9708 56.502 69.8361 52.1001 61.0691 52.1389C52.3022 52.1778 45.5879 56.4729 45.2787 62.1187Z" fill="url(#paint1_linear_528_6845)"/>
<path d="M45.3034 65.0245C45.3405 70.4954 52.4752 74.8974 61.2422 74.8585C70.0091 74.8196 77.0697 70.3496 77.0326 64.8787C76.9955 59.4078 69.8607 55.0058 61.0938 55.0447C52.3268 55.0836 45.2663 59.5536 45.3034 65.0245Z" fill="url(#paint2_linear_528_6845)"/>
<path d="M51.7085 54.1116C54.3052 52.8872 57.5202 52.1584 61.0813 52.1389C67.3876 52.1098 72.8283 54.3934 75.4127 57.707C69.9967 52.1681 59.3997 51.0117 51.7085 54.1116Z" fill="#FFF5CC"/>
<g style="mix-blend-mode:multiply" opacity="0.35">
<path d="M45.2787 62.1185C45.4518 58.8923 47.727 56.1132 51.2759 54.3154C49.8415 55.1706 49.6807 57.1432 50.4598 57.6679C50.4598 57.6679 50.4598 57.6874 50.4474 57.6874C53.2543 56.0743 56.9762 55.0734 61.0939 55.054C69.8484 55.0151 76.9832 59.4171 77.0326 64.888C77.0697 70.3589 69.9968 74.8289 61.2422 74.8678C52.4753 74.9066 45.3405 70.5047 45.3035 65.0337C45.3035 65.0337 45.2293 63.0125 45.2787 62.1282V62.1185Z" fill="#CC0631"/>
</g>
<path d="M61.3041 59.2812C66.6088 59.2618 70.9614 61.9729 71.3571 65.442H71.3818L72.3463 79.0464L50.9297 79.3963L51.313 66.1125C51.313 66.1125 51.313 66.0445 51.313 66.0154C51.2883 62.313 55.7645 59.3006 61.3165 59.2715L61.3041 59.2812Z" fill="url(#paint3_linear_528_6845)"/>
<path d="M338.705 39.7397C332.832 39.6231 331.472 41.8775 331.398 43.4906C331.249 46.7362 333.834 48.3396 333.45 53.1109C333.055 57.8821 331.694 58.9024 330.384 62.527C329.654 64.5483 331.323 67.0165 337.049 67.4635C342.477 67.4829 344.74 65.2674 344.257 63.1878C343.392 59.4563 342.155 58.3194 342.341 53.5384C342.526 48.7575 345.284 47.4067 345.519 44.1611C345.642 42.5383 344.567 40.177 338.705 39.7397Z" fill="url(#paint4_linear_528_6845)"/>
<path d="M337.642 54.7724C337.518 54.5003 337.196 47.9605 337.184 45.6575C337.184 44.3748 337.308 42.9657 338.334 43.1115C339.286 43.4905 339.41 44.8509 339.212 46.085C338.841 48.3006 337.802 54.5683 337.654 54.7821L337.642 54.7724Z" fill="#FFF5CC"/>
<g style="mix-blend-mode:multiply" opacity="0.25">
<path d="M342.341 53.5382C342.526 48.7573 345.284 47.4163 345.519 44.1609C345.605 43.024 345.086 41.5275 342.761 40.5752C345.667 42.0231 344.616 45.0161 342.452 48.077C340.721 50.5258 340.572 52.9843 342.637 57.7556C342.39 56.6478 342.254 55.3554 342.328 53.5285L342.341 53.5382Z" fill="#CC0631"/>
</g>
<path d="M342.972 40.692C342.972 40.692 342.947 40.6628 342.934 40.6531C341.92 40.2158 340.56 39.8854 338.705 39.7494C333.092 39.6328 331.608 41.6832 331.422 43.2768C332.461 40.828 336.863 39.0789 342.959 40.7017L342.972 40.692Z" fill="#FFF5CC"/>
<path d="M354.224 62.1187C354.273 63.0127 354.199 65.0242 354.199 65.0242L322.47 64.8785C322.47 64.8785 322.47 63.1973 322.494 61.973C322.532 56.502 329.666 52.1001 338.433 52.1389C347.2 52.1778 353.915 56.4729 354.224 62.1187Z" fill="url(#paint5_linear_528_6845)"/>
<path d="M354.199 65.0245C354.162 70.4954 347.027 74.8974 338.26 74.8585C329.493 74.8196 322.433 70.3496 322.47 64.8787C322.507 59.4078 329.642 55.0058 338.409 55.0447C347.176 55.0836 354.236 59.5536 354.199 65.0245Z" fill="url(#paint6_linear_528_6845)"/>
<path d="M347.806 54.1116C345.21 52.8872 341.995 52.1584 338.433 52.1389C332.127 52.1098 326.686 54.3934 324.102 57.707C329.518 52.1681 340.115 51.0117 347.806 54.1116Z" fill="#FFF5CC"/>
<g style="mix-blend-mode:multiply" opacity="0.35">
<path d="M354.224 62.1185C354.051 58.8923 351.775 56.1132 348.227 54.3154C349.661 55.1706 349.822 57.1432 349.043 57.6679C349.043 57.6679 349.043 57.6874 349.055 57.6874C346.248 56.0743 342.526 55.0734 338.409 55.054C329.654 55.0151 322.519 59.4171 322.47 64.888C322.433 70.3589 329.506 74.8289 338.26 74.8678C347.027 74.9066 354.162 70.5047 354.199 65.0337C354.199 65.0337 354.273 63.0125 354.224 62.1282V62.1185Z" fill="#CC0631"/>
</g>
<path d="M338.199 59.2812C332.894 59.2618 328.542 61.9729 328.146 65.442H328.121L327.157 79.0464L348.573 79.3963L348.19 66.1125C348.19 66.1125 348.19 66.0445 348.19 66.0154C348.215 62.313 343.739 59.3006 338.187 59.2715L338.199 59.2812Z" fill="url(#paint7_linear_528_6845)"/>
<path d="M350.032 78.4536C335.528 73.6629 319.416 69.9411 302.55 67.0939C301.375 70.116 299.533 69.9994 300.547 66.7538C299.916 66.6469 299.285 66.54 298.642 66.4331C293.239 77.0057 291.792 77.8122 294.809 65.8306C284.435 64.2564 273.825 63.0126 263.179 62.0408C262.585 65.3642 261.2 64.9463 261.064 61.8465C239.4 60.0682 218.429 59.1645 197.519 59.2034C194.824 59.767 191.844 59.3491 189.111 59.9322C187.615 60.2528 186.143 61.0497 185.216 62.0603C184.66 62.6628 184.165 63.2944 183.67 63.9357C183.324 64.3925 182.891 64.5479 182.187 64.5382C180.208 64.5188 178.415 63.1583 177.043 62.1866C175.905 61.3801 174.829 60.4569 173.642 59.6698C155.638 60.3403 137.523 61.7299 118.889 63.9163C118.716 67.7547 117.492 68.2503 116.267 64.237C114.573 64.4508 112.879 64.6743 111.185 64.9075C111.593 71.2529 110.357 72.5745 108.564 65.2767C87.6419 68.2891 67.5608 72.5745 49.8043 78.4341C58.5589 112.639 47.5538 154.609 44.277 165.939C43.733 167.815 43.4609 169.243 43.4609 169.243C53.8354 189.873 86.3436 168.884 111.161 167.523C111.952 165.347 111.927 162.956 114.722 161.615C116.849 160.546 118.048 162.266 119.074 163.957C120.41 164.307 122.091 163.996 123.415 163.879C124.651 163.772 125.912 163.743 127.062 163.977C128.076 163.462 129.375 163.248 130.599 163.335C133.208 163.345 135.792 163.335 138.364 163.325C138.55 163.199 138.735 163.083 138.933 162.976C139.786 162.509 140.862 162.305 141.888 162.431C142.408 162.5 142.865 162.674 143.285 162.888C143.718 162.976 144.139 163.102 144.547 163.248C181.222 162.636 215.239 159.448 253.151 164.239C256.032 149.663 258.839 149.692 256.464 164.55C258.035 164.705 259.605 164.861 261.163 165.026C261.435 158.593 263.216 159.584 263.476 165.269C271.402 166.114 279.13 167.076 286.45 168.126C287.044 167.446 287.835 166.746 288.936 166.659C289.195 166.435 289.653 166.425 289.863 166.639C291.248 166.746 291.532 168.33 292.509 169.03C315.966 171.022 347.955 187.988 356.351 169.253C356.351 169.253 339.806 118.305 349.995 78.4341L350.032 78.4536Z" fill="url(#paint8_linear_528_6845)"/>
<path style="mix-blend-mode:multiply" opacity="0.35" d="M350.032 78.4541C339.287 74.9072 327.651 71.9434 315.496 69.4946C315.447 69.5335 315.397 69.5626 315.36 69.6015C322.334 82.3313 322.322 97.6266 322.322 118.995C322.322 140.364 318.649 162.024 310.884 172.247L311.181 172.548C330.483 177.28 350.082 183.334 356.388 169.273C356.388 169.273 339.843 118.325 350.032 78.4541Z" fill="url(#paint9_linear_528_6845)"/>
<g style="mix-blend-mode:multiply" opacity="0.35">
<path d="M350.033 78.4536C335.528 73.6629 319.416 69.9411 302.55 67.0939C301.375 70.116 299.533 69.9994 300.547 66.7538C299.916 66.6469 299.286 66.54 298.643 66.4331C293.239 77.0057 291.792 77.8122 294.809 65.8306C284.435 64.2564 273.826 63.0126 263.179 62.0408C262.586 65.3642 261.201 64.9463 261.065 61.8465C239.401 60.0682 218.429 59.1645 197.52 59.2034C194.824 59.767 191.844 59.3491 189.111 59.9322C187.615 60.2528 186.144 61.0497 185.216 62.0603C184.66 62.6628 184.165 63.2944 183.671 63.9357C183.324 64.3925 182.892 64.5479 182.187 64.5382C180.208 64.5188 178.415 63.1583 177.043 62.1866C175.905 61.3801 174.83 60.4569 173.642 59.6698C155.639 60.3403 137.524 61.7299 118.889 63.9163C118.716 67.7547 117.492 68.2503 116.268 64.237C114.574 64.4508 112.88 64.6743 111.186 64.9075C111.594 71.2529 110.357 72.5745 108.564 65.2767C87.6423 68.2891 67.5611 72.5745 49.8046 78.4341C60.0183 118.314 43.4736 169.273 43.4736 169.273C53.8481 189.903 86.3563 168.913 111.173 167.553C111.965 165.376 111.94 162.985 114.734 161.644C116.861 160.575 118.061 162.295 119.087 163.986C120.422 164.336 122.104 164.025 123.427 163.909C124.664 163.802 125.925 163.772 127.075 164.006C128.089 163.491 129.387 163.277 130.611 163.364C133.221 163.374 135.805 163.364 138.377 163.355C138.562 163.228 138.748 163.112 138.946 163.005C139.799 162.538 140.875 162.334 141.901 162.461C142.42 162.529 142.878 162.704 143.298 162.917C143.731 163.005 144.151 163.131 144.559 163.277C181.235 162.665 215.251 159.477 253.163 164.268C256.044 149.692 258.851 149.721 256.477 164.579C258.048 164.735 259.618 164.89 261.176 165.055C261.448 158.622 263.229 159.613 263.488 165.298C271.414 166.144 279.143 167.106 286.463 168.155C287.056 167.475 287.848 166.775 288.948 166.688C289.208 166.464 289.665 166.454 289.876 166.668C291.261 166.775 291.545 168.359 292.522 169.059C315.979 171.051 347.968 188.017 356.364 169.282C356.364 169.282 339.819 118.334 350.008 78.4633L350.033 78.4536ZM317.833 170.643C316.844 170.341 315.781 170.05 314.68 169.778C314.618 169.418 314.47 169.068 314.248 168.777C313.716 168.058 312.937 167.514 312.554 166.727C311.75 165.045 312.455 163.083 311.156 161.518C309.982 160.109 307.595 159.39 305.852 160.653C305.171 161.149 304.788 161.839 304.207 162.393C303.502 163.053 302.229 162.859 301.412 163.481C300.695 164.025 300.473 164.803 300.324 165.551C300.225 166.046 300.052 166.668 299.644 167.086C297.814 166.833 296.071 166.6 294.488 166.406C294.574 164.929 293.82 163.772 292.275 163.325C292.225 163.053 292.176 162.781 292.139 162.509C291.953 161.275 291.829 160.031 291.78 158.787C291.78 158.593 291.78 158.389 291.78 158.195C291.792 157.884 291.805 157.573 291.829 157.272C291.879 156.63 291.891 155.999 291.916 155.367C291.916 155.289 291.941 155.202 291.953 155.124C292.213 153.326 292.411 151.529 292.497 149.721C292.547 148.749 292.559 147.778 292.509 146.806C292.46 145.941 292.2 145.134 292.052 144.279C292.027 144.163 291.78 144.192 291.792 144.308C291.805 145.076 291.792 145.844 291.755 146.621C291.743 146.631 291.73 146.631 291.718 146.65C290.976 147.962 290.951 149.41 290.679 150.8C290.407 152.199 290.308 153.618 290.172 155.027C290.024 156.523 289.851 158.01 289.492 159.477C289.319 160.158 289.146 160.838 288.948 161.508C288.837 161.897 288.652 162.266 288.54 162.645C288.454 162.947 288.417 163.228 288.33 163.51C287.403 163.879 286.648 164.521 286.067 165.492H286.055V165.473C286.055 165.065 286.055 164.657 286.067 164.249C286.092 163.325 286.191 162.412 286.265 161.489C286.426 159.652 286.512 157.787 287.044 155.989C287.106 155.775 286.685 155.678 286.624 155.901C286.03 157.719 285.263 159.487 284.88 161.343C284.695 162.237 284.583 163.141 284.497 164.045C284.46 164.462 284.423 164.88 284.398 165.298C279.106 164.725 270.24 164.249 265.64 163.724C265.751 160.673 262.969 154.862 259.754 159.74C259.704 156.329 259.989 149.896 257.726 149.566C254.833 149.148 252.248 154.172 250.554 161.09C247.451 160.76 244.161 160.41 240.761 160.07C240.613 159.895 240.402 159.749 240.118 159.672C239.834 159.594 239.537 159.516 239.252 159.439C239.153 159.351 239.067 159.244 239.03 159.128C238.881 158.749 238.646 158.379 238.238 158.146C237.929 157.971 237.608 157.796 237.286 157.631C235.877 156.922 234.294 156.446 232.686 156.096C231.289 155.794 229.793 155.416 228.544 156.164C227.926 156.533 227.468 157.067 226.986 157.534C226.578 157.932 226.232 158.35 225.886 158.768C220.099 158.36 214.163 158.088 208.277 158.088C204.37 158.088 200.537 158.146 196.728 158.234C196.16 158.243 195.653 158.01 195.368 157.66C195.356 157.534 195.343 157.408 195.331 157.281C195.257 156.348 195.207 155.425 195.146 154.492C195.096 153.627 195.022 152.792 194.836 151.937C194.626 150.975 194.614 149.983 194.54 149.012C194.54 148.847 194.206 148.837 194.206 149.012C194.206 149.906 194.268 150.809 194.169 151.694C194.07 152.607 194.008 153.491 194.02 154.405C193.946 154.424 193.884 154.453 193.86 154.502C193.724 154.716 193.785 154.939 193.736 155.173C193.687 155.416 193.674 155.668 193.687 155.921C193.699 156.31 193.736 156.688 193.761 157.067V157.087C193.798 157.748 193.13 158.302 192.289 158.321C192.277 158.321 192.265 158.321 192.252 158.321C191.51 158.34 190.855 158.078 190.422 157.66C190.459 156.786 190.434 155.911 190.459 155.085C190.509 153.006 190.645 150.916 190.496 148.847C190.224 144.804 190.88 140.626 190.002 136.622C189.965 136.447 189.631 136.505 189.618 136.661C189.223 140.81 189.569 144.94 188.852 149.08C188.53 150.936 188.394 152.802 188.196 154.667C188.085 155.688 187.875 156.834 187.825 157.961C187.393 158.272 186.824 158.476 186.193 158.496C181.606 158.642 177.018 158.807 172.394 158.972C164.121 159.254 154.415 159.429 145.845 159.584C145.845 159.584 145.821 159.575 145.808 159.575C144.09 157.563 143.026 155.124 142.408 152.665C142.396 152.5 142.371 152.335 142.358 152.17C142.049 148.915 142.012 145.62 141.184 142.414C141.11 142.112 140.59 142.219 140.553 142.482C140.318 144.367 140.355 146.223 140.454 148.108C140.553 149.974 140.553 151.849 140.751 153.715C140.776 153.958 140.825 154.211 140.862 154.453C140.825 154.862 140.788 155.27 140.714 155.678C140.541 156.63 140.281 157.544 139.972 158.457C139.057 159.225 137.882 160.245 137.004 161.09C136.077 161.09 121.276 161.518 121.276 161.518C120.113 159.361 117.949 155.882 115.167 156.805C111.829 157.913 110.147 163.617 109.393 165.492C108.441 165.619 107.451 165.735 106.425 165.862C106.264 165.716 106.066 165.609 105.757 165.56C104.719 165.415 103.816 165.055 103.124 164.414C102.332 163.695 102.184 162.704 101.405 161.965C100.65 161.256 99.451 160.906 98.3382 161.295C97.3861 161.625 97.0893 162.344 96.7678 163.063C96.4092 163.87 95.6426 163.879 94.6781 163.967C93.7383 164.054 92.7986 164.2 92.1061 164.754C91.5126 165.23 91.2282 165.871 91.0427 166.513C90.9685 166.668 90.919 166.833 90.9067 167.008C90.8201 167.387 90.7212 167.834 90.511 168.223C87.803 168.777 85.1197 169.447 82.5725 170.293C74.0158 173.111 69.6137 175.9 59.1651 175.9C51.5976 175.9 46.7133 170.167 44.3639 166.552C47.1214 157.408 64.7666 117.595 57.2361 81.6117C64.3832 79.4253 72.8905 76.4518 81.8553 73.7212C81.9666 73.8183 82.0779 73.9155 82.1892 74.0127C82.2386 74.1196 82.2757 74.2168 82.3252 74.3237C82.5601 74.8581 82.9311 75.3537 83.3639 75.8104C84.1923 76.685 85.3918 77.1223 86.7025 77.4041C87.2713 77.5207 88.0008 77.7539 88.5573 77.511C89.2374 77.2097 89.225 76.5295 89.2868 75.9951C89.361 75.2565 89.361 74.5083 89.2868 73.7698C89.2621 73.4977 89.361 73.2159 89.6207 73.041C89.9793 72.798 90.4492 72.6911 90.8448 72.4773C91.4384 72.1469 91.797 71.7097 91.8217 71.1266C91.8217 71.0489 91.797 70.9711 91.7599 70.8934C96.8296 69.5621 101.936 68.4057 106.92 67.6186C108.082 69.9411 112.954 78.2203 112.954 78.2203C112.954 78.2203 114.611 67.2882 114.957 66.6663C115.291 66.7052 120.089 74.071 120.089 74.071C120.089 74.071 120.657 68.5029 122.092 65.5488C137.919 63.7997 156.022 62.7211 171.615 62.07C171.961 62.3324 178.811 65.3642 182.867 67.1522C185.612 79.2407 185.464 80.6011 185.723 83.5455C186.626 80.776 186.713 68.4252 188.431 64.1398C189.124 63.0029 189.693 62.0797 189.73 62.07C190.36 61.9339 201.6 62.3421 203.282 62.07C203.282 62.07 207.511 62.1477 213.817 62.3129C213.817 62.7696 213.755 63.2264 213.718 63.6831C213.632 64.6743 213.545 65.6654 213.483 66.6566C213.421 67.6478 213.36 68.639 213.347 69.6301C213.347 70.6699 213.52 71.6902 213.496 72.73C213.496 72.8466 213.731 72.8466 213.731 72.73C213.768 71.7291 214.027 70.7476 214.126 69.7565C214.225 68.7653 214.299 67.7741 214.398 66.7829C214.485 65.8306 214.584 64.8783 214.683 63.9357C214.745 63.4207 214.757 62.8863 214.881 62.3809C214.881 62.3712 214.881 62.3615 214.881 62.3518C219.109 62.4684 224.142 62.6142 229.422 62.8085C229.323 63.2847 229.669 63.8386 230.411 63.79C231.017 63.7511 231.623 63.7414 232.229 63.7317C232.254 63.7317 232.266 63.7511 232.291 63.7511C233.144 64.0329 234.047 64.2467 234.986 64.2467C235.617 64.2467 236.198 64.0912 236.779 63.9649C238.078 64.0815 239.364 64.237 240.662 64.3827C241.416 64.6645 242.158 64.9852 242.863 65.2865C243.976 65.7723 244.99 66.4623 246.301 66.5692C247.747 66.6858 249.219 66.229 250.591 65.9375C252.149 65.6071 253.695 65.2865 255.253 64.9561C255.748 64.8492 256.032 64.5382 256.119 64.1884C257.108 64.2661 258.06 64.3439 258.95 64.4313C260.224 66.2776 262.042 69.2997 262.994 70.9323C263.043 71.5833 263.08 72.2344 263.117 72.8855C263.154 73.6629 262.994 74.5569 263.377 75.2954C263.414 75.3537 263.476 75.412 263.538 75.4509C263.538 75.4509 263.538 75.4703 263.538 75.48C263.538 75.9465 263.501 76.4323 263.538 76.8988C263.575 77.3458 263.81 77.715 263.909 78.1426C263.933 78.2495 264.156 78.2495 264.181 78.1426C264.28 77.715 264.515 77.3361 264.564 76.8988C264.613 76.4906 264.613 76.0825 264.638 75.6841C264.651 75.4897 264.675 75.2954 264.7 75.101C264.799 74.4403 264.947 73.7892 264.997 73.1284C265.022 72.7786 265.034 72.4288 265.046 72.0789C265.133 71.5056 265.207 70.942 265.306 70.3784C265.442 69.5232 265.702 68.6584 265.566 67.813C265.541 67.6867 265.442 67.5798 265.318 67.502C265.739 66.5011 266.184 65.5391 266.604 64.8589C273.479 65.5488 286.277 66.5011 292.72 67.3854C291.842 71.7874 289.69 78.9491 291.644 79.2407C294.958 79.746 296.615 73.2062 298.816 69.5718C298.952 69.7953 299.15 70.0091 299.36 70.2035C299.385 70.3492 299.409 70.5047 299.434 70.6505C299.521 71.1752 299.607 71.7 299.694 72.2247C299.768 72.7494 299.793 73.2742 299.793 73.7989C299.793 74.071 299.768 74.3431 299.805 74.6152C299.842 74.897 299.941 75.1399 299.916 75.4314C299.904 75.6064 300.275 75.6549 300.312 75.4703C300.374 75.1885 300.535 74.965 300.633 74.7026C300.732 74.45 300.757 74.1779 300.782 73.9155C300.819 73.6143 300.831 73.3228 300.856 73.0215C300.918 72.866 300.992 72.7008 301.054 72.5454C301.202 72.1664 301.326 71.7097 301.598 71.3696C301.746 71.1849 301.907 71.0197 302.043 70.8351C302.055 70.8059 302.08 70.7865 302.093 70.7671C302.797 70.4853 303.539 69.8731 304.244 68.7361C324.684 72.9438 331.658 78.2592 342.7 81.6312C335.132 117.751 352.592 157.689 355.3 166.629C353.544 169.525 350.267 180.691 317.833 170.652V170.643Z" fill="#771D62"/>
</g>
<g style="mix-blend-mode:multiply" opacity="0.35">
<path d="M241.539 154.988C241.465 154.92 241.403 154.842 241.329 154.774C241.206 154.667 241.057 154.599 240.896 154.551C240.785 154.502 240.674 154.483 240.55 154.483C240.365 154.454 240.192 154.454 240.006 154.502C239.895 154.541 239.784 154.57 239.685 154.609C239.635 154.629 239.586 154.658 239.536 154.697C239.474 154.706 239.413 154.697 239.351 154.726C239.264 154.745 239.178 154.784 239.116 154.833C238.992 154.891 238.906 154.969 238.832 155.076C238.794 155.144 238.757 155.212 238.72 155.28C238.671 155.425 238.671 155.581 238.72 155.736C238.72 155.746 238.72 155.765 238.733 155.775C238.745 155.804 238.807 155.95 238.869 156.018C238.918 156.067 238.992 156.144 239.042 156.193C239.042 156.193 239.042 156.203 239.054 156.212C239.054 156.212 239.066 156.212 239.079 156.222C239.116 156.251 239.178 156.281 239.202 156.3C239.227 156.319 239.289 156.349 239.326 156.378C239.338 156.378 239.351 156.397 239.376 156.397C239.45 156.426 239.524 156.446 239.598 156.465C239.66 156.494 239.709 156.533 239.771 156.553C239.87 156.601 239.981 156.621 240.105 156.621C240.278 156.65 240.464 156.65 240.637 156.601C240.637 156.601 240.649 156.601 240.662 156.601C240.773 156.562 240.872 156.533 240.983 156.494C240.995 156.494 241.008 156.494 241.02 156.475C241.02 156.475 241.02 156.475 241.033 156.475C241.317 156.31 241.267 156.358 241.428 156.193C241.552 156.086 241.626 155.97 241.675 155.824C241.737 155.629 241.737 155.445 241.675 155.25C241.638 155.163 241.577 155.076 241.539 154.988Z" fill="#771D62"/>
</g>
<g style="mix-blend-mode:multiply" opacity="0.35">
<path d="M277.559 68.8142C277.498 68.7753 277.423 68.7365 277.362 68.6879C277.25 68.6296 277.127 68.6004 276.991 68.5907C276.855 68.5713 276.719 68.5713 276.595 68.6004C276.558 68.6004 276.521 68.6296 276.484 68.6393C276.447 68.6393 276.409 68.6393 276.372 68.649C276.36 68.649 276.335 68.649 276.323 68.6587C276.249 68.6781 276.174 68.7073 276.1 68.7365C276.051 68.7656 276.001 68.7948 275.952 68.8239C275.878 68.8725 275.828 68.9405 275.804 69.0085C275.779 69.0474 275.766 69.096 275.754 69.1446C275.754 69.1446 275.754 69.164 275.742 69.164C275.717 69.2223 275.705 69.2903 275.705 69.3487C275.705 69.4167 275.717 69.4847 275.766 69.543C275.791 69.611 275.841 69.6596 275.902 69.7082C275.952 69.7373 275.989 69.7568 276.038 69.7859C276.038 69.7859 276.063 69.7859 276.076 69.7859C276.1 69.8248 276.125 69.8637 276.162 69.8928C276.249 69.9706 276.36 70.0289 276.484 70.058C276.607 70.1066 276.731 70.126 276.867 70.126C277.003 70.126 277.139 70.1066 277.25 70.058C277.374 70.0289 277.485 69.9706 277.572 69.8928C277.621 69.8345 277.671 69.7859 277.732 69.7373C277.819 69.611 277.869 69.4847 277.869 69.3389C277.869 69.2709 277.844 69.2029 277.831 69.1252C277.782 68.9891 277.695 68.8725 277.572 68.7753L277.559 68.8142Z" fill="#771D62"/>
</g>
<g style="mix-blend-mode:multiply" opacity="0.35">
<path d="M303.576 80.242C303.439 80.1448 303.291 80.0865 303.106 80.0476C302.92 79.999 302.735 79.999 302.562 80.0282C302.376 80.0282 302.203 80.0768 302.055 80.1545C302.03 80.1642 302.005 80.1837 301.993 80.1934C301.993 80.1934 301.993 80.1934 301.968 80.1934C301.783 80.1934 301.609 80.2323 301.449 80.3003C301.325 80.3489 301.226 80.4169 301.164 80.5141C301.078 80.5918 301.016 80.689 300.979 80.7862C300.917 80.9222 300.905 81.068 300.88 81.2137C300.88 81.2526 300.88 81.2817 300.88 81.3206C300.88 81.3984 300.905 81.5052 300.929 81.5733C300.929 81.5733 300.929 81.5927 300.929 81.6024C300.929 81.6219 300.942 81.6413 300.954 81.6607C301.004 81.7676 301.053 81.8745 301.115 81.9717C301.14 82.0008 301.152 82.0397 301.189 82.0689C301.238 82.1369 301.3 82.1952 301.362 82.2535C301.412 82.3312 301.473 82.409 301.585 82.4964C301.671 82.5547 301.783 82.613 301.869 82.6713C301.881 82.6811 301.906 82.6908 301.919 82.7005C302.067 82.7782 302.252 82.8365 302.426 82.8851C302.537 82.8948 302.66 82.9143 302.772 82.924C302.957 82.924 303.118 82.9046 303.279 82.8365C303.39 82.8074 303.489 82.7685 303.563 82.7005C303.712 82.6325 303.823 82.5353 303.897 82.409C304.008 82.2826 304.082 82.1272 304.144 81.9717C304.218 81.8162 304.231 81.651 304.231 81.4858C304.231 81.1457 304.12 80.8347 303.922 80.5432C303.835 80.4169 303.712 80.3197 303.563 80.242H303.576Z" fill="#771D62"/>
</g>
<g style="mix-blend-mode:multiply" opacity="0.35">
<path d="M303.291 157.097C303.291 157.097 303.069 157.019 303.019 157.01C302.994 157.01 302.747 156.98 302.722 156.98C302.661 156.98 302.599 156.99 302.549 157C302.5 157 302.426 157 302.376 157.019C302.327 157.029 302.277 157.048 302.24 157.058C302.203 157.068 302.154 157.087 302.104 157.107C302.042 157.146 301.98 157.185 301.919 157.223C301.832 157.291 301.758 157.369 301.721 157.457C301.684 157.515 301.659 157.573 301.659 157.641C301.659 157.641 301.659 157.661 301.659 157.67C301.659 157.729 301.634 157.797 301.622 157.865C301.622 157.894 301.647 157.923 301.647 157.952C301.647 157.952 301.647 157.952 301.634 157.962C301.585 158.02 301.56 158.079 301.548 158.137L301.511 158.205C301.511 158.205 301.498 158.292 301.486 158.331C301.486 158.36 301.498 158.428 301.511 158.467C301.511 158.467 301.511 158.467 301.511 158.477C301.511 158.477 301.511 158.487 301.511 158.496C301.523 158.545 301.56 158.594 301.585 158.632C301.585 158.632 301.585 158.642 301.585 158.652C301.622 158.691 301.659 158.73 301.696 158.768C301.708 158.778 301.721 158.788 301.733 158.807C301.783 158.846 301.844 158.875 301.906 158.905C301.943 158.924 301.98 158.934 302.03 158.943C302.067 158.963 302.104 158.992 302.154 159.002C302.215 159.031 302.29 159.05 302.364 159.05C302.475 159.07 302.586 159.07 302.71 159.041C302.797 159.021 302.883 158.992 302.97 158.953C302.994 158.953 303.007 158.934 303.031 158.924C303.069 158.905 303.093 158.875 303.13 158.856C303.18 158.836 303.242 158.817 303.279 158.788C303.316 158.768 303.353 158.749 303.378 158.73C303.44 158.671 303.514 158.603 303.563 158.535C303.637 158.448 303.674 158.351 303.724 158.253C303.687 158.321 303.65 158.38 303.625 158.448C303.674 158.37 303.712 158.292 303.749 158.215C303.749 158.195 303.761 158.185 303.761 158.166C303.761 158.166 303.761 158.156 303.761 158.147C303.773 158.069 303.798 157.981 303.798 157.904C303.798 157.884 303.798 157.874 303.798 157.855C303.798 157.7 303.749 157.554 303.65 157.408C303.551 157.272 303.415 157.175 303.254 157.097H303.291Z" fill="#771D62"/>
</g>
<g style="mix-blend-mode:multiply" opacity="0.35">
<path d="M300.694 152.811C300.558 152.763 300.435 152.714 300.274 152.724L300.051 152.743C299.977 152.763 299.915 152.782 299.853 152.811C299.73 152.87 299.631 152.947 299.557 153.045C299.482 153.151 299.445 153.258 299.445 153.375C299.445 153.482 299.458 153.598 299.47 153.705C299.47 153.793 299.495 153.871 299.544 153.948C299.581 154.026 299.631 154.094 299.717 154.152C299.792 154.211 299.878 154.259 299.977 154.288C300.076 154.327 300.175 154.347 300.286 154.347C300.36 154.347 300.435 154.327 300.496 154.327C300.632 154.298 300.756 154.24 300.855 154.162C300.892 154.123 300.942 154.075 300.979 154.036C301.053 153.939 301.09 153.832 301.09 153.715C301.09 153.608 301.102 153.492 301.115 153.385C301.115 153.268 301.078 153.151 301.003 153.054C300.929 152.957 300.83 152.879 300.707 152.821L300.694 152.811Z" fill="#771D62"/>
</g>
<g style="mix-blend-mode:multiply" opacity="0.35">
<path d="M277.127 160.761C277.127 160.761 277.115 160.741 277.102 160.731C277.102 160.731 277.102 160.722 277.102 160.712C277.078 160.692 277.065 160.673 277.04 160.654C277.028 160.634 277.003 160.615 276.979 160.595C276.929 160.556 276.892 160.527 276.843 160.488C276.768 160.43 276.694 160.391 276.595 160.362C276.509 160.323 276.41 160.304 276.311 160.314C276.212 160.314 276.113 160.323 276.027 160.362C275.928 160.382 275.853 160.43 275.779 160.488C275.742 160.527 275.705 160.566 275.656 160.605C275.581 160.692 275.557 160.799 275.557 160.906C275.557 160.955 275.569 161.013 275.581 161.062C275.618 161.159 275.68 161.246 275.779 161.324L275.928 161.441C275.928 161.441 276.027 161.499 276.076 161.538C276.076 161.538 276.088 161.538 276.101 161.538C276.113 161.538 276.125 161.548 276.138 161.557C276.163 161.567 276.2 161.577 276.224 161.586L276.385 161.645C276.472 161.664 276.571 161.674 276.657 161.655C276.719 161.655 276.781 161.645 276.83 161.616C276.917 161.596 276.991 161.557 277.053 161.499C277.09 161.46 277.127 161.421 277.164 161.392C277.189 161.353 277.214 161.305 277.238 161.266C277.263 161.198 277.275 161.12 277.238 161.052C277.238 160.984 277.201 160.916 277.152 160.848C277.139 160.829 277.127 160.799 277.115 160.78L277.127 160.761Z" fill="#771D62"/>
</g>
<g style="mix-blend-mode:multiply" opacity="0.35">
<path d="M96.7553 126.06C96.8913 126.05 97.0026 126.04 97.1263 126.001C97.4107 125.914 97.5219 125.875 97.7445 125.739C97.9424 125.622 98.066 125.525 98.202 125.35C98.202 125.35 98.202 125.34 98.202 125.331C98.2639 125.292 98.3133 125.253 98.3628 125.224C98.4617 125.146 98.5606 125.049 98.6348 124.952C98.8079 124.748 98.8698 124.495 98.8821 124.242C98.8821 124.194 98.8821 124.155 98.8821 124.106C98.8698 123.98 98.845 123.844 98.8079 123.718C98.7708 123.601 98.6966 123.484 98.6348 123.368C98.6101 123.319 98.5854 123.271 98.5483 123.232C98.437 123.076 98.2886 122.93 98.1278 122.814C97.8682 122.62 97.5961 122.503 97.2623 122.406C97.0521 122.347 96.8048 122.318 96.5698 122.328C96.001 122.357 95.4817 122.513 95.0736 122.833C94.9252 122.95 94.7892 123.086 94.6779 123.232C94.6037 123.348 94.5419 123.465 94.4801 123.591C94.4554 123.63 94.443 123.669 94.4306 123.708C94.3193 124.048 94.3193 124.417 94.4306 124.757C94.4801 124.884 94.5543 125 94.6161 125.117C94.6408 125.156 94.6656 125.195 94.6903 125.234C94.7769 125.34 94.8758 125.438 94.9871 125.535C95.0242 125.564 95.0613 125.593 95.1107 125.622C95.222 125.7 95.3828 125.797 95.5311 125.855C95.6548 125.904 95.7908 125.953 95.9268 125.991C95.9639 125.991 95.9887 126.001 96.0257 126.011C96.3349 126.06 96.4585 126.06 96.7553 126.03V126.06Z" fill="#771D62"/>
</g>
<g style="mix-blend-mode:multiply" opacity="0.35">
<path d="M93.7135 128.547C93.7135 128.547 93.6887 128.547 93.6764 128.537C93.5651 128.44 93.4167 128.372 93.2559 128.333C93.0952 128.294 92.9221 128.294 92.7613 128.333C92.6006 128.372 92.4646 128.431 92.3533 128.518C92.3162 128.547 92.2791 128.576 92.2296 128.605C92.1554 128.664 92.0936 128.732 92.0689 128.8C92.0194 128.878 91.9947 128.955 92.0071 129.043C92.0071 129.101 92.0194 129.15 92.0318 129.208C92.0689 129.315 92.1307 129.402 92.2296 129.48C92.2667 129.509 92.3038 129.538 92.3533 129.567C92.4646 129.655 92.613 129.723 92.7613 129.752C92.9221 129.791 93.0952 129.791 93.2559 129.752C93.4167 129.713 93.5651 129.645 93.6764 129.548C93.6887 129.548 93.7011 129.548 93.7135 129.538C93.8247 129.49 93.9113 129.422 93.9731 129.334C94.035 129.247 94.072 129.15 94.072 129.043C94.072 128.936 94.035 128.839 93.9731 128.751C93.9113 128.664 93.8247 128.596 93.7135 128.547Z" fill="#771D62"/>
</g>
<g style="mix-blend-mode:multiply" opacity="0.35">
<path d="M87.9262 120.958L87.716 120.832C87.6295 120.802 87.5553 120.773 87.4687 120.754C87.3327 120.725 87.1967 120.715 87.0607 120.744C86.9246 120.744 86.801 120.783 86.6773 120.841C86.665 120.841 86.6526 120.851 86.6279 120.861C86.6279 120.861 86.6155 120.861 86.6032 120.861C86.5537 120.88 86.5661 120.88 86.4919 120.929C86.3682 121.007 86.3064 121.036 86.2198 121.162C86.1827 121.23 86.1456 121.288 86.1085 121.356C86.1085 121.356 86.1085 121.366 86.1085 121.376C86.1085 121.386 86.1085 121.395 86.0962 121.415C86.0467 121.551 86.0467 121.696 86.0962 121.833C86.1456 121.969 86.2322 122.085 86.3558 122.182C86.4795 122.28 86.6279 122.348 86.801 122.386C86.9741 122.425 87.1596 122.425 87.3327 122.386C87.444 122.357 87.58 122.328 87.6666 122.28C87.7408 122.241 87.8026 122.192 87.8768 122.153C87.9262 122.095 87.9881 122.046 88.0375 121.988C88.0375 121.988 88.0375 121.978 88.0375 121.969C88.0375 121.959 88.0499 121.939 88.0623 121.93C88.0993 121.862 88.1364 121.803 88.1612 121.735C88.1983 121.628 88.2106 121.522 88.1735 121.415C88.1735 121.347 88.1488 121.279 88.0993 121.211C88.0622 121.113 87.9881 121.026 87.8891 120.958H87.9262Z" fill="#771D62"/>
</g>
<g style="mix-blend-mode:multiply" opacity="0.35">
<path d="M81.571 78.7549C81.806 78.5605 81.8431 78.269 81.6205 78.0455C81.4226 77.8414 81.027 77.754 80.7426 77.9095C80.6313 77.9678 80.5323 78.0358 80.4334 78.0941C80.4829 78.065 80.5323 78.0358 80.5818 78.0066C80.3592 78.1233 80.1738 78.2399 80.0377 78.4245C79.9512 78.5411 79.877 78.6771 79.8152 78.8132C79.642 78.9687 79.5431 79.163 79.5308 79.3768C79.5308 79.542 79.605 79.6975 79.7286 79.8238C79.7286 79.9015 79.741 79.9793 79.7657 80.0473C79.8275 80.2805 80.0996 80.4749 80.384 80.5332C80.5447 80.5623 80.7055 80.5623 80.8538 80.5332C81.0022 80.504 81.1382 80.436 81.2495 80.3485C81.3485 80.2902 81.435 80.2222 81.5216 80.1542C81.6823 80.0084 81.7441 79.921 81.8307 79.7363C81.8678 79.6392 81.8925 79.5323 81.8925 79.4254C81.8925 79.3185 81.8678 79.2116 81.8307 79.1047C81.7689 78.9687 81.6947 78.8521 81.571 78.7452V78.7549Z" fill="#771D62"/>
</g>
<g style="mix-blend-mode:multiply" opacity="0.35">
<path d="M99.7469 157.7C99.6356 157.466 99.5243 157.301 99.3017 157.117C99.1657 157 98.9926 156.893 98.8071 156.835C98.6587 156.786 98.498 156.728 98.3373 156.699C98.1765 156.67 98.0034 156.65 97.8303 156.64C97.6572 156.631 97.4964 156.64 97.3109 156.67C97.2738 156.67 97.2367 156.679 97.1997 156.689C97.1378 156.699 97.1007 156.718 97.0389 156.738C96.8905 156.786 96.7669 156.835 96.6679 156.932C96.569 157.01 96.4948 157.097 96.4454 157.204C96.3835 157.301 96.3464 157.408 96.3588 157.525C96.3712 157.748 96.4701 157.962 96.6679 158.117C96.7298 158.166 96.804 158.205 96.8782 158.244C96.9029 158.428 96.9276 158.535 97.0389 158.7C97.1007 158.788 97.1749 158.866 97.2615 158.934C97.4346 159.07 97.6819 159.186 97.9168 159.225C98.2012 159.274 98.4238 159.274 98.7082 159.225C98.9679 159.177 99.1781 159.07 99.3759 158.934C99.5614 158.798 99.7222 158.574 99.7716 158.38C99.7963 158.283 99.8334 158.156 99.8211 158.049C99.8211 157.962 99.7963 157.865 99.7716 157.768C99.7716 157.748 99.7593 157.719 99.7469 157.7Z" fill="#771D62"/>
</g>
<g style="mix-blend-mode:multiply" opacity="0.35">
<path d="M231.141 67.2013C231.091 67.0361 230.98 66.8806 230.832 66.764C230.77 66.7154 230.671 66.6571 230.621 66.6377C230.485 66.5599 230.325 66.5405 230.164 66.5308C229.991 66.5308 229.83 66.5599 229.669 66.6279C229.583 66.6668 229.509 66.7154 229.447 66.7834C229.434 66.7931 229.434 66.8126 229.422 66.8223C229.397 66.8223 229.36 66.8223 229.335 66.8417C229.286 66.8514 229.249 66.8709 229.212 66.9C229.15 66.9292 229.101 66.968 229.076 67.0166C229.063 67.0555 229.039 67.0847 229.026 67.1235C229.002 67.2013 229.002 67.279 229.026 67.3567C229.051 67.4442 229.063 67.5414 229.076 67.6288C229.088 67.7163 229.125 67.8037 229.15 67.9009C229.15 67.8718 229.15 67.8329 229.138 67.8037C229.138 67.8815 229.15 67.9592 229.199 68.0272C229.237 68.105 229.286 68.1827 229.373 68.241C229.434 68.2799 229.484 68.3091 229.546 68.3479C229.682 68.4062 229.818 68.4354 229.966 68.4354C230.164 68.4354 230.411 68.3868 230.572 68.2993C230.646 68.2605 230.72 68.2119 230.782 68.173C230.795 68.173 230.807 68.1536 230.819 68.1439C230.894 68.0758 230.968 68.0078 231.017 67.9301C231.067 67.8523 231.116 67.7649 231.141 67.6871C231.141 67.6774 231.141 67.658 231.141 67.6483C231.178 67.4442 231.19 67.4636 231.141 67.2596V67.2401V67.2013Z" fill="#771D62"/>
</g>
<path style="mix-blend-mode:multiply" opacity="0.35" d="M77.651 118.762C77.651 97.4027 78.0838 83.4484 83.7223 69.6108C71.8146 72.0499 60.4015 74.9651 49.8292 78.4537C58.3241 111.668 47.8879 152.773 44.3019 165.493C43.5848 168.039 43.4858 169.263 43.4858 169.263C50.8308 183.868 69.2674 177.62 88.2109 172.237C80.4455 162.004 77.6633 140.12 77.6633 118.752L77.651 118.762Z" fill="url(#paint10_linear_528_6845)"/>
<path d="M320.492 165.483C321.914 170.818 330.137 174.521 336.925 174.521C343.602 173.578 344.69 171.119 346.014 168.408C346.014 168.408 345.902 158.681 346.014 155.844C346.125 153.006 322.136 151.004 321.642 155.844L320.492 165.483Z" fill="#A145A6"/>
<g style="mix-blend-mode:multiply" opacity="0.35">
<path d="M346.013 155.843C346.124 153.006 322.532 150.839 322.037 155.678L320.479 165.483C321.171 168.077 323.471 170.283 326.439 171.867C326.439 171.867 327.441 172.372 328.591 172.858C331.249 173.918 334.192 174.52 336.912 174.52C343.59 173.577 344.678 171.119 346.001 168.408C346.001 168.408 345.89 158.681 346.001 155.843H346.013Z" fill="#771D62"/>
</g>
<path d="M330.013 166.425C329.791 164.531 331.658 162.296 337.358 162.296C342.947 162.986 344.827 165.308 346.014 168.408V156.523C346.014 153.249 330.026 152.481 330.026 156.523V166.425H330.013Z" fill="url(#paint11_linear_528_6845)"/>
<path d="M347.288 157.135L327.219 156.688L326.267 170.303L347.671 170.652L347.288 157.135Z" fill="url(#paint12_linear_528_6845)"/>
<g style="mix-blend-mode:multiply" opacity="0.25">
<path d="M347.301 157.612L344.296 157.068L342.379 157.029L342.194 158.545L342.293 161.936L347.474 163.53L347.301 157.612Z" fill="#CC0631"/>
</g>
<path d="M356.091 68.7075C355.522 65.6562 353.791 63.1686 351.367 61.2737C350.922 62.0705 348.919 63.8682 348.919 63.4309C348.919 62.3134 349.216 61.1862 349.686 60.127C340.399 54.4715 324.201 55.7833 320.479 64.9274C323.917 80.2324 324.807 102.573 324.535 114.778C324.238 127.76 321.27 162.5 320.479 165.483C322.89 159.332 329.308 157.554 337.184 157.904C341.327 158.088 345.519 158.924 348.919 160.576C349.29 160.042 349.884 159.624 350.638 159.371C351.033 159.245 351.343 159.556 351.392 159.818C351.54 160.809 352.023 161.762 352.295 162.733C354.273 164.405 355.658 166.552 356.091 169.263C353.84 157.719 351.182 127.585 351.132 113.651C351.095 102.369 352.74 84.6052 356.091 68.7075Z" fill="url(#paint13_linear_528_6845)"/>
<path d="M79.073 165.483C77.651 170.818 69.4281 174.521 62.6396 174.521C55.9624 173.578 54.8742 171.119 53.5512 168.408C53.5512 168.408 53.6625 158.681 53.5512 155.844C53.4399 153.006 77.4284 151.004 77.923 155.844L79.073 165.483Z" fill="#A145A6"/>
<g style="mix-blend-mode:multiply" opacity="0.35">
<path d="M79.073 165.483C77.651 170.818 69.4281 174.521 62.6396 174.521C55.9624 173.578 54.8742 171.119 53.5512 168.408C53.5512 168.408 53.6625 158.681 53.5512 155.844C53.4399 153.006 77.4284 151.004 77.923 155.844L79.073 165.483Z" fill="#771D62"/>
</g>
<path d="M53.5508 156.533V168.418C54.3916 166.212 55.591 164.404 58.2125 163.297L59.3995 161.178C59.3995 161.178 59.5108 162.266 59.6345 162.811C60.3888 162.597 61.242 162.432 62.2064 162.305C67.3875 162.305 69.3906 164.152 69.5514 165.911V156.533C69.5514 152.491 53.5631 153.258 53.5631 156.533H53.5508Z" fill="url(#paint14_linear_528_6845)"/>
<path d="M52.2154 157.135L72.2841 156.688L73.2486 170.303L51.832 170.652L52.2154 157.135Z" fill="url(#paint15_linear_528_6845)"/>
<g style="mix-blend-mode:multiply" opacity="0.25">
<path d="M52.2029 157.612L55.2077 157.068L57.1366 157.029L57.3221 158.545L57.2108 161.936L52.0298 163.53L52.2029 157.612Z" fill="#CC0631"/>
</g>
<g style="mix-blend-mode:multiply" opacity="0.15">
<path d="M54.268 155.406C54.0701 155.591 53.8723 155.814 53.6744 156.057C53.6002 156.212 53.5508 156.368 53.5508 156.533V168.418C54.2061 166.707 55.0964 165.23 56.6792 164.142C56.3701 163.617 56.2093 162.47 56.1228 161.1C56.0857 159.886 62.3672 156.766 69.4648 159.108C69.4896 159.108 69.5143 159.108 69.539 159.108V156.533C69.539 156.417 69.5267 156.31 69.5019 156.203L55.5663 154.745C55.047 154.939 54.6018 155.153 54.268 155.396V155.406Z" fill="#8E1613"/>
</g>
<path d="M79.073 64.9272C78.1951 62.7699 76.6123 61.0596 74.6091 59.7672C73.7559 60.7195 71.3694 60.5057 71.6044 62.0897C71.3447 63.0031 69.4899 62.5075 69.0324 61.9245C67.8825 60.5543 68.6986 58.708 68.0308 57.231C61.8482 56.0163 54.528 57.1144 49.4706 60.3891C50.3238 63.4015 49.1738 66.6471 47.9126 61.5261C45.6498 63.3918 44.0299 65.8017 43.4858 68.7267C46.8245 84.6244 48.4814 102.398 48.4443 113.67C48.4072 127.605 45.7363 157.738 43.4858 169.283C44.8089 159.332 62.7756 154.949 72.9151 159.468C73.15 158.545 73.2861 157.612 73.4468 156.689C73.4839 156.494 73.7807 156.349 74.0156 156.349H74.4484C74.7699 156.349 75.0419 156.562 75.0419 156.815C75.0543 157.699 75.5489 158.477 76.0188 159.264C76.5134 160.09 76.9585 160.935 76.9709 161.868C76.9709 161.975 76.9338 162.062 76.8596 162.13C77.8241 163.093 78.5907 164.21 79.0854 165.502C75.9446 142.356 72.1114 94.3418 79.0854 64.9466L79.073 64.9272Z" fill="url(#paint16_linear_528_6845)"/>
<g style="mix-blend-mode:multiply" opacity="0.35">
<path d="M74.6091 59.7574C73.7559 60.7098 71.3694 60.496 71.6044 62.0799C71.3447 62.9933 69.4899 62.4978 69.0324 61.9147C67.8825 60.5446 68.6986 58.6982 68.0308 57.2212C61.8482 56.0065 54.528 57.1046 49.4706 60.3794C50.3238 63.3918 49.1738 66.6374 47.9126 61.5163C45.6498 63.382 44.0299 65.792 43.4858 68.7169C43.6466 69.4554 43.795 70.2037 43.9434 70.9519C45.0068 69.0376 46.404 67.3662 48.1599 65.9863C49.755 69.0764 50.8432 69.436 50.9668 64.1983C53.4399 62.935 56.4199 62.1285 59.9687 61.8661C59.9687 61.9827 59.9934 62.0993 59.9934 62.2062C60.0553 63.2168 60.2036 64.2275 60.2902 65.2381C60.3644 66.2098 60.4757 67.1816 60.6117 68.1533C60.6735 68.6003 60.7601 69.0473 60.859 69.4943C60.9826 70.019 61.3289 70.4758 61.4402 70.9908C61.4773 71.1657 61.8606 71.1268 61.8358 70.9519C61.7617 70.4369 61.9348 69.9121 61.8977 69.3874C61.8606 68.9404 61.8235 68.4934 61.7617 68.0464C61.6504 67.0747 61.5638 66.1029 61.502 65.1312C61.4402 64.1497 61.502 63.1877 61.5515 62.2062C61.5515 62.0702 61.5762 61.9244 61.5885 61.7787C63.196 61.7301 64.7293 61.7787 66.1884 61.9341C67.3631 64.723 70.8254 65.3352 73.2984 64.0137C75.3882 65.1603 77.0698 66.7831 78.2198 68.9404C78.4918 67.5702 78.7639 66.2292 79.073 64.9271C78.1951 62.7698 76.6123 61.0596 74.6091 59.7672V59.7574Z" fill="#771D62"/>
</g>
<g style="mix-blend-mode:multiply" opacity="0.35">
<path d="M79.073 165.483C78.7144 162.811 78.3434 159.789 77.9725 156.514C77.3295 156.067 76.6741 155.678 75.9817 155.319C74.5844 151.461 73.1129 151.568 72.1856 153.803C67.7464 152.501 62.8374 152.53 58.3983 153.288C58.7445 149.974 58.6456 146.583 58.794 143.288C58.9918 138.838 59.1773 134.397 59.3628 129.946C59.3628 129.869 59.2144 129.869 59.2144 129.946C58.9548 134.339 58.5591 138.702 58.0397 143.075C57.7801 145.232 57.4462 147.38 57.1371 149.527C56.9392 150.888 56.6919 152.277 56.5312 153.657C50.8926 154.92 46.3175 157.32 44.9697 159.546C44.4751 163.423 43.9681 166.785 43.4858 169.273C44.8089 159.322 62.7756 154.94 72.9151 159.458C73.15 158.535 73.2861 157.602 73.4468 156.679C73.4839 156.485 73.7807 156.339 74.0156 156.339H74.4484C74.7699 156.339 75.0419 156.553 75.0419 156.805C75.0543 157.69 75.5489 158.467 76.0188 159.254C76.5134 160.08 76.9585 160.926 76.9709 161.858C76.9709 161.965 76.9338 162.053 76.8596 162.121C77.8241 163.083 78.5907 164.2 79.0854 165.493L79.073 165.483Z" fill="#771D62"/>
</g>
<g style="mix-blend-mode:multiply" opacity="0.35">
<path d="M58.5712 123.883C58.6083 123.057 58.6083 122.241 58.6083 121.415C58.6083 121.318 58.4229 121.318 58.4229 121.415C58.4229 122.241 58.4229 123.057 58.4599 123.883C58.4599 123.931 58.5589 123.931 58.5589 123.883H58.5712Z" fill="#771D62"/>
</g>
<g style="mix-blend-mode:multiply" opacity="0.35">
<path d="M58.8557 128.362C58.9051 127.546 58.8804 126.72 58.8927 125.894C58.8927 125.807 58.7196 125.807 58.7196 125.894C58.7196 126.72 58.7073 127.536 58.7567 128.362C58.7567 128.411 58.8557 128.411 58.8557 128.362Z" fill="#771D62"/>
</g>
<g style="mix-blend-mode:multiply" opacity="0.35">
<path d="M351.367 61.2737C350.922 62.0705 348.919 63.8682 348.919 63.4309C348.919 62.3134 349.216 61.1862 349.686 60.127C340.399 54.4715 324.201 55.7833 320.479 64.9274C320.652 65.7243 321.233 68.6686 321.394 69.4946C321.394 69.4946 324.114 60.3602 339.385 61.2931C339.385 61.5846 339.398 61.8664 339.398 62.1482C339.398 63.1006 339.336 64.0529 339.287 65.0052C339.188 66.9098 338.965 68.8144 338.965 70.7287C338.965 70.8842 339.299 70.9328 339.336 70.7676C339.682 68.931 339.818 67.075 340.078 65.2287C340.214 64.2375 340.35 63.256 340.535 62.2649C340.585 61.9928 340.647 61.7207 340.721 61.4389C343.046 61.7984 345.432 62.741 347.509 63.8391V68.1439L350.885 64.2472C353.136 66.113 354.78 68.416 355.299 70.9425C355.423 70.8939 355.547 70.8356 355.67 70.7773C355.806 70.0874 355.943 69.3974 356.091 68.7172C355.522 65.666 353.791 63.1783 351.367 61.2834V61.2737Z" fill="#771D62"/>
</g>
<g style="mix-blend-mode:multiply" opacity="0.35">
<path d="M339.2 71.2919C339.126 71.2336 338.978 71.2433 338.916 71.321C338.854 71.4182 338.879 71.4959 338.891 71.5931C338.903 71.6903 338.916 71.7875 338.916 71.8846C338.916 72.079 338.916 72.2733 338.916 72.4677C338.879 72.8564 338.78 73.2354 338.619 73.5949C338.533 73.8087 338.953 73.8961 339.04 73.6824C339.2 73.2937 339.299 72.8855 339.336 72.4774C339.349 72.2733 339.361 72.079 339.336 71.8749C339.336 71.7777 339.324 71.6806 339.312 71.5834C339.299 71.4668 339.299 71.3599 339.188 71.2822L339.2 71.2919Z" fill="#771D62"/>
</g>
<g style="mix-blend-mode:multiply" opacity="0.35">
<path d="M354.57 159.303C354.026 158.564 353.396 157.894 352.703 157.282C352.518 153.579 351.12 153.472 349.587 155.163C347.943 154.298 346.112 153.657 344.196 153.19C344.097 152.083 343.998 150.965 343.899 149.857C343.775 148.546 343.652 147.224 343.516 145.912C343.38 144.542 343.021 143.182 342.836 141.821C342.811 141.627 342.428 141.607 342.428 141.821C342.452 143.24 342.329 144.659 342.415 146.068C342.489 147.379 342.576 148.701 342.675 150.013C342.749 150.975 342.811 151.937 342.885 152.899C341.401 152.607 339.88 152.433 338.372 152.335C338.372 152.19 338.359 152.044 338.347 151.898C338.322 150.771 338.211 149.653 338.038 148.536C338.038 148.458 337.902 148.458 337.89 148.536C337.716 149.653 337.605 150.771 337.58 151.898C337.58 152.024 337.568 152.16 337.556 152.287C330.52 152.005 323.768 153.628 321.642 155.824C321.147 160.896 320.727 164.579 320.492 165.464C322.903 159.312 329.32 157.534 337.197 157.884C341.339 158.069 345.531 158.904 348.932 160.556C349.303 160.022 349.896 159.604 350.651 159.351C351.046 159.225 351.355 159.536 351.405 159.798C351.553 160.79 352.035 161.742 352.307 162.714C354.286 164.385 355.671 166.532 356.104 169.244C355.609 166.698 355.09 163.258 354.595 159.283L354.57 159.303Z" fill="#771D62"/>
</g>
<path d="M352.542 170.225C352.592 171.119 352.518 173.131 352.518 173.131L320.789 172.985C320.789 172.985 320.789 171.304 320.813 170.079C320.85 164.608 327.985 160.207 336.752 160.245C345.519 160.284 352.233 164.579 352.542 170.225Z" fill="url(#paint17_linear_528_6845)"/>
<path d="M352.518 173.13C352.481 178.601 345.346 183.003 336.579 182.964C327.812 182.926 320.752 178.456 320.789 172.985C320.826 167.514 327.961 163.112 336.728 163.151C345.494 163.19 352.555 167.66 352.518 173.13Z" fill="url(#paint18_linear_528_6845)"/>
<g style="mix-blend-mode:multiply" opacity="0.25">
<path d="M348.215 166.309C349.773 167.806 350.676 169.584 350.663 171.498C350.626 176.707 343.825 180.905 335.491 180.866C328.319 180.837 322.347 177.678 320.838 173.49C321.222 178.728 328.097 182.936 336.592 182.974C345.359 183.013 352.493 178.611 352.53 173.14C352.555 170.497 350.898 168.097 348.227 166.309H348.215Z" fill="#CC0631"/>
</g>
<path d="M322.471 168.602C323.658 165.813 335.256 159.555 346.571 165.337C338.83 162.16 327.899 162.976 322.471 168.602Z" fill="#FFF5CC"/>
<path d="M336.963 169.273C331.077 169.156 329.729 171.411 329.655 173.024C329.507 176.269 332.091 177.873 331.708 182.644C331.312 187.415 329.952 188.436 328.641 192.06C327.911 194.081 329.581 196.55 335.306 196.997C340.734 197.016 342.997 194.801 342.515 192.721C341.649 188.99 340.413 187.853 340.598 183.072C340.784 178.291 343.541 176.95 343.776 173.694C343.9 172.072 342.824 169.71 336.963 169.273Z" fill="url(#paint19_linear_528_6845)"/>
<path d="M335.838 176.133C335.689 176.396 334.762 182.897 334.527 185.2C334.391 186.482 334.403 187.891 335.442 187.804C336.431 187.483 336.678 186.132 336.592 184.889C336.431 182.663 335.986 176.347 335.85 176.124L335.838 176.133Z" fill="#FFF5CC"/>
<path d="M342.552 193.557C342.416 195.617 339.127 197.152 335.232 196.987C331.324 196.822 328.282 195.014 328.418 192.954C328.554 190.894 331.844 189.359 335.739 189.524C339.646 189.689 342.688 191.497 342.552 193.557Z" fill="url(#paint20_linear_528_6845)"/>
<path d="M328.913 191.739C331.361 189.689 334.354 189.174 338.595 189.971C335.924 189.077 331.46 188.708 328.913 191.739Z" fill="#FFF5CC"/>
<g style="mix-blend-mode:multiply" opacity="0.15">
<path d="M341.291 188.727C340.821 187.25 340.487 185.715 340.586 183.071C340.772 178.29 343.529 176.949 343.764 173.694C343.888 172.071 342.812 169.71 336.951 169.273C334.713 169.224 333.142 169.525 332.029 170.002C336.172 169.817 341.996 171.867 340.883 175.463C339.782 179.068 338.892 182.77 341.278 188.727H341.291Z" fill="#CC0631"/>
</g>
<g style="mix-blend-mode:multiply" opacity="0.35">
<path d="M339.745 190.379C340.623 190.991 341.13 191.749 341.068 192.556C340.945 194.363 338.076 195.714 334.651 195.568C331.263 195.422 328.616 193.877 328.678 192.089C328.53 192.371 328.431 192.662 328.406 192.964C328.27 195.024 331.312 196.831 335.22 196.996C339.127 197.162 342.404 195.626 342.54 193.566C342.626 192.303 341.513 191.137 339.733 190.379H339.745Z" fill="#CC0631"/>
</g>
<path d="M46.9608 170.225C46.9114 171.119 46.9856 173.131 46.9856 173.131L78.7148 172.985C78.7148 172.985 78.7148 171.304 78.69 170.079C78.653 164.608 71.5182 160.207 62.7513 160.245C53.9843 160.284 47.27 164.579 46.9608 170.225Z" fill="url(#paint21_linear_528_6845)"/>
<path d="M46.985 173.13C47.0221 178.601 54.1568 183.003 62.9238 182.964C71.6907 182.926 78.7513 178.456 78.7142 172.985C78.6771 167.514 71.5424 163.112 62.7754 163.151C54.0085 163.19 46.9479 167.66 46.985 173.13Z" fill="url(#paint22_linear_528_6845)"/>
<g style="mix-blend-mode:multiply" opacity="0.25">
<path d="M51.2884 166.309C49.7304 167.806 48.8277 169.584 48.8401 171.498C48.8772 176.707 55.6781 180.905 64.0122 180.866C71.1841 180.837 77.1565 177.678 78.665 173.49C78.2817 178.728 71.4066 182.936 62.9117 182.974C54.1448 183.013 47.01 178.611 46.9729 173.14C46.9482 170.497 48.6051 168.097 51.276 166.309H51.2884Z" fill="#CC0631"/>
</g>
<path d="M77.0329 168.602C75.8459 165.813 64.2473 159.555 52.9331 165.337C60.6737 162.16 71.6046 162.976 77.0329 168.602Z" fill="#FFF5CC"/>
<path d="M62.5401 169.272C68.426 169.156 69.7738 171.41 69.848 173.023C69.9964 176.269 67.412 177.872 67.7954 182.644C68.191 187.415 69.5512 188.435 70.8619 192.06C71.5915 194.081 69.9222 196.549 64.1971 196.996C58.7687 197.016 56.5059 194.8 56.9881 192.721C57.8537 188.989 59.0902 187.852 58.9048 183.071C58.7193 178.29 55.9618 176.949 55.7269 173.694C55.6032 172.071 56.679 169.71 62.5401 169.272Z" fill="url(#paint23_linear_528_6845)"/>
<path d="M63.678 176.133C63.8264 176.396 64.7538 182.897 64.9887 185.2C65.1248 186.482 65.1124 187.891 64.0737 187.804C63.0845 187.483 62.8372 186.132 62.9237 184.889C63.0845 182.663 63.5296 176.347 63.6657 176.124L63.678 176.133Z" fill="#FFF5CC"/>
<path d="M56.9507 193.557C57.0867 195.617 60.3758 197.152 64.2709 196.987C68.1783 196.822 71.2202 195.014 71.0841 192.954C70.9481 190.894 67.659 189.359 63.7639 189.524C59.8565 189.689 56.8147 191.497 56.9507 193.557Z" fill="url(#paint24_linear_528_6845)"/>
<path d="M70.6024 191.739C68.1541 189.689 65.1617 189.174 60.9204 189.971C63.5913 189.077 68.0552 188.708 70.6024 191.739Z" fill="#FFF5CC"/>
<g style="mix-blend-mode:multiply" opacity="0.15">
<path d="M58.2126 188.727C58.6825 187.25 59.0164 185.715 58.9175 183.071C58.732 178.29 55.9745 176.949 55.7396 173.694C55.6159 172.071 56.6917 169.71 62.5528 169.273C64.7909 169.224 66.3613 169.525 67.4742 170.002C63.3318 169.817 57.5078 171.867 58.6207 175.463C59.7212 179.068 60.6115 182.77 58.225 188.727H58.2126Z" fill="#CC0631"/>
</g>
<g style="mix-blend-mode:multiply" opacity="0.35">
<path d="M59.7573 190.379C58.8793 190.991 58.3724 191.749 58.4342 192.556C58.5578 194.363 61.4266 195.714 64.8517 195.568C68.2398 195.422 70.886 193.877 70.8241 192.089C70.9725 192.371 71.0715 192.662 71.0962 192.964C71.2322 195.024 68.1904 196.831 64.2829 196.996C60.3755 197.162 57.0987 195.626 56.9627 193.566C56.8762 192.303 57.989 191.137 59.7696 190.379H59.7573Z" fill="#CC0631"/>
</g>
<g style="mix-blend-mode:screen">
<path d="M110.48 53.6548L112.607 63.4499L117.825 65.3448L112.607 67.2495L110.48 77.0446L108.354 67.2495L103.123 65.3448L108.354 63.4499L110.48 53.6548Z" fill="#FCCD47"/>
</g>
<g style="mix-blend-mode:screen">
<path d="M134.111 58.1348C134.111 59.3786 132.825 60.3893 131.242 60.3893C129.66 60.3893 128.374 59.3786 128.374 58.1348C128.374 56.891 129.66 55.8804 131.242 55.8804C132.825 55.8804 134.111 56.891 134.111 58.1348Z" fill="#FCCD47"/>
</g>
<g style="mix-blend-mode:screen">
<path d="M100.91 72.4872C100.91 73.3715 100.007 74.0809 98.8819 74.0809C97.7567 74.0809 96.854 73.3715 96.854 72.4872C96.854 71.6029 97.7567 70.8936 98.8819 70.8936C100.007 70.8936 100.91 71.6029 100.91 72.4872Z" fill="#FCCD47"/>
</g>
<g style="mix-blend-mode:screen">
<path d="M278.833 143.415L281.01 161.635L291.508 163.578L281.01 165.512L278.833 183.742L276.657 165.512L266.146 163.578L276.657 161.635L278.833 143.415Z" fill="#FCCD47"/>
</g>
<g style="mix-blend-mode:screen">
<path d="M293.547 181.323C294.667 181.323 295.575 180.609 295.575 179.729C295.575 178.849 294.667 178.135 293.547 178.135C292.427 178.135 291.52 178.849 291.52 179.729C291.52 180.609 292.427 181.323 293.547 181.323Z" fill="#FCCD47"/>
</g>
<path d="M356.388 169.273C355.881 166.678 354.817 164.822 352.295 162.743C352.134 161.169 351.837 157.087 348.919 160.576C345.865 158.807 335.589 156.038 327.7 158.739C320.85 161.081 320.726 164.628 320.479 165.483C321.963 162.908 323.335 160.955 328.047 159.449C333.24 157.933 339.126 157.389 349.352 161.295C350.156 160.323 351.058 158.185 351.862 163.19C353.197 164.113 355.287 165.561 356.375 169.273H356.388Z" fill="#F294F7"/>
<path d="M79.0732 165.483C78.7146 163.578 77.8984 162.986 76.8474 162.111C77.2926 160.275 75.3636 158.146 75.3636 156.971C75.3636 155.795 73.2986 155.396 73.076 156.63C72.8658 157.865 72.4577 159.274 72.4577 159.274C69.4283 157.758 62.6027 156.689 55.7152 158.71C48.8154 160.731 43.8941 164.2 43.4736 169.273C44.8214 164.706 49.8912 161.169 56.0243 159.381C63.1467 157.301 69.3664 158.146 72.94 160.226C73.1502 158.934 74.0776 155.795 74.9432 158.04C75.8087 160.284 76.3652 160.566 76.0189 162.189C77.2307 162.859 78.7269 164.084 79.0855 165.493L79.0732 165.483Z" fill="#F294F7"/>
<path d="M318.594 156.376C336.601 109.106 290.162 61.6225 214.871 50.3177C139.579 39.0129 63.9463 68.168 45.9399 115.437C27.9335 162.707 74.3722 210.191 149.664 221.495C224.955 232.8 300.588 203.645 318.594 156.376Z" fill="url(#paint25_radial_528_6845)" fill-opacity="0.7" style="mix-blend-mode:screen"/>
<path d="M305.258 126.527C323.264 79.2576 276.826 31.7738 201.534 20.4691C126.243 9.16428 50.6099 38.3194 32.6035 85.5888C14.5971 132.858 61.0358 180.342 136.327 191.647C211.619 202.952 287.252 173.796 305.258 126.527Z" fill="url(#paint26_radial_528_6845)" fill-opacity="0.7" style="mix-blend-mode:screen"/>
<path style="mix-blend-mode:screen" d="M355.397 149.119C373.403 101.85 326.964 54.3661 251.673 43.0613C176.381 31.7566 100.749 60.9117 82.7421 108.181C64.7357 155.451 111.174 202.934 186.466 214.239C261.757 225.544 337.39 196.389 355.397 149.119Z" fill="url(#paint27_radial_528_6845)" fill-opacity="0.7"/>
<g filter="url(#filter0_d_528_6845)">
<path d="M109.306 103.32C109.306 109.92 120.826 111.68 120.826 119.36C120.826 125.08 116.306 127.72 111.066 127.72C107.826 127.72 103.306 125.44 103.306 120.92C103.306 117.44 105.466 115.4 108.466 115.4C113.706 115.4 113.586 121.84 109.826 122.12C108.626 122.2 107.546 121.56 107.546 120.08C107.546 119.12 108.346 118.52 109.146 118.52C109.506 118.52 109.906 118.68 110.146 119.04C110.146 119.04 109.106 119 108.986 119.76C108.866 120.2 109.186 120.4 109.586 120.4C111.466 120.4 111.386 116.8 109.226 116.8C105.386 116.8 105.106 126.16 111.226 126.16C114.666 126.16 115.586 122.96 115.586 121.12C115.586 113.72 104.066 112.72 104.066 104.8C104.066 99.12 109.586 97.28 112.706 97.28C117.306 97.28 119.826 99.92 120.026 102.96C120.266 106.12 118.146 107.8 116.186 107.8C114.666 107.8 113.186 106.76 113.026 104.56C112.906 102.92 113.826 101.6 115.306 101.52C117.226 101.36 117.586 104.04 116.146 104.96C116.146 104.96 116.186 103.6 115.186 103.4C113.866 103.12 113.946 105.8 116.226 105.6C117.466 105.56 118.266 104.48 118.146 102.92C117.986 100.76 116.426 98.44 113.586 98.44C111.706 98.44 109.306 99.6 109.306 103.32ZM131.559 118.48C131.559 116.96 132.799 116.08 134.159 116.08C135.759 116.08 137.559 117.36 137.559 120.28C137.559 123.68 134.959 125.64 132.119 125.64C128.639 125.64 124.719 122.68 124.719 115.84V101.88L121.039 101.96L120.919 100.28L124.719 100.24V95L129.599 94.76V100.16L134.839 100.12L134.959 101.6L129.599 101.76V116.28C129.599 120.44 130.639 122.96 133.119 122.96C134.439 122.96 135.839 121.64 135.839 119.4C135.839 118.2 135.159 117.68 134.519 117.68C133.959 117.68 133.479 118.08 133.479 118.68C133.479 119.68 134.839 119.96 134.839 119.96C134.439 120.36 133.959 120.56 133.479 120.56C132.479 120.56 131.559 119.8 131.559 118.48ZM149.232 103.8V102.96L158.952 103.28V104.44L158.312 104.4C156.432 104.4 155.352 104.88 155.232 106.64L154.432 120.48C154.232 124.24 156.992 124.28 157.992 124.28L158.592 124.24V125.08L150.032 125.56V124.68H150.072L150.112 123.72C149.112 125.16 147.592 126.04 145.712 126.04C142.432 126.04 139.192 122.92 139.632 115.64L140.072 108.48C139.952 106.92 139.152 106.16 137.872 106.08L137.912 105.2L147.432 105.56L147.392 106.44H146.992C146.192 106.4 145.432 106.92 145.192 108.28L144.632 116C144.352 119.8 144.592 123.52 146.992 123.8C148.992 124.04 150.272 121.28 150.392 118.64L151.032 107.44C151.032 105.32 151.312 103.92 149.472 103.84L149.232 103.8ZM179.599 127.64L179.639 129.16L170.959 129.68C170.199 130.92 169.079 131.76 167.639 131.88C162.959 132.12 159.639 128.12 159.279 122C159.239 121.68 159.239 121.4 159.279 121.12C159.159 114.48 162.999 111.76 165.719 111.6C167.039 111.52 168.159 111.72 169.119 112.28L167.759 99.84C167.719 99.8 167.719 99.6 167.679 99.2C167.479 97.4 165.919 96.92 163.759 96.92L162.679 96.96L162.639 96.12L176.239 95.64L176.319 96.52L174.519 96.56H175.399C172.759 96.72 172.159 97.28 172.199 99.04L174.919 124.16C174.919 124.12 174.919 124.12 174.919 124.12L174.959 124.64C175.159 126.36 175.639 128.2 178.039 127.88L179.599 127.64ZM168.519 129.2C169.959 129.12 170.479 126.8 170.479 125L169.519 116.04C169.119 114.8 168.239 113.76 166.999 113.84C164.679 113.96 164.079 117.8 164.279 121.64C164.279 121.8 164.279 121.96 164.279 122.12C164.679 127.08 166.599 129.32 168.519 129.2ZM181.797 99.12C180.397 99.12 179.317 98 179.317 96.64C179.317 95.28 180.397 94.16 181.797 94.16C183.157 94.16 184.237 95.28 184.237 96.64C184.237 98 183.157 99.12 181.797 99.12ZM180.397 106.16C180.397 103.8 177.877 103.2 176.877 103.2L175.997 103.24V102.36L188.917 101.64V102.52L187.037 102.64C185.677 102.8 184.517 103.4 184.517 105.04V118.96C184.517 121.04 184.957 122.28 187.197 122.52L189.077 122.68V123.56L176.157 123.12V121.6L177.437 121.72C179.357 121.72 180.397 121.4 180.397 119.64V106.16ZM226.458 124.52C231.258 124.52 231.018 133.68 223.898 133.68C219.778 133.68 217.098 129.88 215.378 123.08L212.458 111.56L210.858 113.72V120.32C210.858 122.44 211.338 123.32 213.898 123.32V124.2L202.098 124.84V123.32H203.658C205.538 123.32 206.338 122.76 206.338 121.04V99.6C206.338 97.24 203.858 96.68 202.818 96.68H201.978V95.84H213.818V96.68C212.618 96.68 210.858 97.12 210.858 99.2V110.2L217.298 101.68C218.138 100.6 217.698 99.56 216.298 99.32L214.778 99.16L214.858 98.32L225.218 99.36L225.138 100.2L224.258 100.16H224.298C221.778 99.88 220.738 100.6 219.778 101.96L215.858 107.08L219.418 120.64C220.458 124.64 221.778 130.68 225.178 130.68C228.618 130.68 229.098 126.08 226.658 126.08C226.138 126.08 225.698 126.52 225.738 127.12C225.738 128.12 227.098 128.32 227.098 128.32C226.738 128.72 226.258 128.88 225.818 128.88C224.818 128.88 223.818 128.04 223.818 126.84C223.818 125.4 225.178 124.52 226.458 124.52ZM241.798 128.04H241.638L243.118 128.12L243.038 128.8L235.358 128.4L235.478 125.72C234.998 126.28 233.638 127.24 230.798 127.24C225.438 127.24 222.598 123.56 222.598 118.56C222.598 112.32 226.518 109.8 230.158 109.8C232.878 109.8 235.438 111.2 236.198 113.48L236.318 111.36C236.638 105.4 236.278 101.72 232.838 101.72C231.118 101.72 229.878 102.24 229.278 104C228.918 105.28 229.118 106.72 231.078 107.36L230.918 108.2L226.198 106.72H226.038V106.64C227.358 101.2 230.558 100.24 232.798 100.24C239.238 100.24 240.958 105.08 240.598 110.92C240.598 110.96 240.598 110.96 240.598 111L239.718 125.6C239.638 127.24 240.838 127.96 241.798 128.04ZM232.438 124.92C234.278 124.92 235.158 124.36 235.598 124L236.038 116.68C235.358 117.88 233.998 118.4 232.718 118.32C230.798 118.2 229.798 116.96 229.918 115.24C229.958 114.04 230.878 113.48 231.878 113.48C232.718 113.48 233.638 113.92 234.038 114.76C234.038 114.76 232.478 114.56 232.118 115.64C231.878 116.32 232.438 116.76 233.078 116.76C233.838 116.76 234.758 116.2 234.838 114.8C234.918 113.36 233.598 112.16 231.758 112.16C225.798 112.16 225.878 124.92 232.438 124.92ZM247.62 103.84C247.62 109 256.86 111.8 256.86 119.32C256.86 123.76 253.74 126.4 249.66 126.4C246.62 126.44 243.46 124.68 243.46 120.88C243.46 118.2 245.18 117.04 246.66 117.04C247.78 117.04 248.74 117.68 248.74 118.84C248.74 119.88 248.06 120.44 247.34 120.44C247.02 120.44 246.7 120.32 246.46 120.04C246.46 120.04 247.38 119.92 247.42 119.2C247.42 118.84 247.1 118.64 246.66 118.64C245.94 118.64 245.02 119.2 245.02 120.72C245.02 122.24 246.26 123.6 248.22 123.64C250.54 123.64 251.58 122.2 251.58 120.12C251.58 114.6 243.38 112.56 243.38 105.96C243.38 100.84 247.54 99.44 250.26 99.44C256.7 99.44 256.7 105.92 256.7 105.92L251.78 107.36L251.62 106.52C253.46 105.96 253.78 104.64 253.5 103.4C253.02 101.48 251.86 100.92 250.58 100.92C248.58 100.92 247.62 102.16 247.62 103.84ZM268.958 103.8V102.96L278.678 103.28V104.44L278.038 104.4C276.158 104.4 275.078 104.88 274.958 106.64L274.158 120.48C273.958 124.24 276.718 124.28 277.718 124.28L278.318 124.24V125.08L269.758 125.56V124.68H269.798L269.838 123.72C268.838 125.16 267.318 126.04 265.438 126.04C262.158 126.04 258.918 122.92 259.358 115.64L259.798 108.48C259.678 106.92 258.878 106.16 257.598 106.08L257.638 105.2L267.158 105.56L267.118 106.44H266.718C265.918 106.4 265.158 106.92 264.918 108.28L264.358 116C264.078 119.8 264.318 123.52 266.718 123.8C268.718 124.04 269.998 121.28 270.118 118.64L270.758 107.44C270.758 105.32 271.038 103.92 269.198 103.84L268.958 103.8ZM283.635 103.84C283.635 109 292.875 111.8 292.875 119.32C292.875 123.76 289.755 126.4 285.675 126.4C282.635 126.44 279.475 124.68 279.475 120.88C279.475 118.2 281.195 117.04 282.675 117.04C283.795 117.04 284.755 117.68 284.755 118.84C284.755 119.88 284.075 120.44 283.355 120.44C283.035 120.44 282.715 120.32 282.475 120.04C282.475 120.04 283.395 119.92 283.435 119.2C283.435 118.84 283.115 118.64 282.675 118.64C281.955 118.64 281.035 119.2 281.035 120.72C281.035 122.24 282.275 123.6 284.235 123.64C286.555 123.64 287.595 122.2 287.595 120.12C287.595 114.6 279.395 112.56 279.395 105.96C279.395 100.84 283.555 99.44 286.275 99.44C292.715 99.44 292.715 105.92 292.715 105.92L287.795 107.36L287.635 106.52C289.475 105.96 289.795 104.64 289.515 103.4C289.035 101.48 287.875 100.92 286.595 100.92C284.595 100.92 283.635 102.16 283.635 103.84Z" fill="#F5F5F5"/>
</g>
<defs>
<filter id="filter0_d_528_6845" x="99.3062" y="94.1602" width="197.569" height="47.52" filterUnits="userSpaceOnUse" color-interpolation-filters="sRGB">
<feFlood flood-opacity="0" result="BackgroundImageFix"/>
<feColorMatrix in="SourceAlpha" type="matrix" values="0 0 0 0 0 0 0 0 0 0 0 0 0 0 0 0 0 0 127 0" result="hardAlpha"/>
<feOffset dy="4"/>
<feGaussianBlur stdDeviation="2"/>
<feComposite in2="hardAlpha" operator="out"/>
<feColorMatrix type="matrix" values="0 0 0 0 0 0 0 0 0 0 0 0 0 0 0 0 0 0 0.25 0"/>
<feBlend mode="normal" in2="BackgroundImageFix" result="effect1_dropShadow_528_6845"/>
<feBlend mode="normal" in="SourceGraphic" in2="effect1_dropShadow_528_6845" result="shape"/>
</filter>
<linearGradient id="paint0_linear_528_6845" x1="53.0147" y1="53.3243" x2="69.4792" y2="52.4774" gradientUnits="userSpaceOnUse">
<stop stop-color="#B83D00"/>
<stop offset="0.25" stop-color="#E4790F"/>
<stop offset="0.56" stop-color="#FEE34D"/>
<stop offset="0.62" stop-color="#FAD444"/>
<stop offset="0.75" stop-color="#F1AF2E"/>
<stop offset="0.91" stop-color="#E4790F"/>
</linearGradient>
<linearGradient id="paint1_linear_528_6845" x1="77.5459" y1="60.1774" x2="45.8549" y2="56.8833" gradientUnits="userSpaceOnUse">
<stop offset="0.06" stop-color="#E47B10"/>
<stop offset="0.14" stop-color="#E68417"/>
<stop offset="0.27" stop-color="#ED9D2B"/>
<stop offset="0.44" stop-color="#F8C74C"/>
<stop offset="0.53" stop-color="#FEDE5F"/>
<stop offset="0.61" stop-color="#F7C64C"/>
<stop offset="0.78" stop-color="#ED9D2B"/>
<stop offset="0.92" stop-color="#E68417"/>
<stop offset="1" stop-color="#E47B10"/>
</linearGradient>
<linearGradient id="paint2_linear_528_6845" x1="61.1885" y1="74.9084" x2="61.1828" y2="55.0846" gradientUnits="userSpaceOnUse">
<stop stop-color="#CF4B0B"/>
<stop offset="0.99" stop-color="#E8B321"/>
</linearGradient>
<linearGradient id="paint3_linear_528_6845" x1="73.274" y1="70.4817" x2="51.083" y2="68.175" gradientUnits="userSpaceOnUse">
<stop offset="0.06" stop-color="#E47B10"/>
<stop offset="0.14" stop-color="#E68417"/>
<stop offset="0.27" stop-color="#ED9D2B"/>
<stop offset="0.44" stop-color="#F8C74C"/>
<stop offset="0.53" stop-color="#FEDE5F"/>
<stop offset="0.61" stop-color="#F7C64C"/>
<stop offset="0.78" stop-color="#ED9D2B"/>
<stop offset="0.92" stop-color="#E68417"/>
<stop offset="1" stop-color="#E47B10"/>
</linearGradient>
<linearGradient id="paint4_linear_528_6845" x1="346.415" y1="53.6354" x2="329.95" y2="52.7884" gradientUnits="userSpaceOnUse">
<stop offset="0.06" stop-color="#E47B10"/>
<stop offset="0.14" stop-color="#E68417"/>
<stop offset="0.27" stop-color="#ED9D2B"/>
<stop offset="0.44" stop-color="#F8C74C"/>
<stop offset="0.53" stop-color="#FEDE5F"/>
<stop offset="0.61" stop-color="#F7C64C"/>
<stop offset="0.78" stop-color="#ED9D2B"/>
<stop offset="0.92" stop-color="#E68417"/>
<stop offset="1" stop-color="#E47B10"/>
</linearGradient>
<linearGradient id="paint5_linear_528_6845" x1="321.974" y1="60.1358" x2="353.677" y2="56.8403" gradientUnits="userSpaceOnUse">
<stop offset="0.06" stop-color="#E47B10"/>
<stop offset="0.14" stop-color="#E68417"/>
<stop offset="0.27" stop-color="#ED9D2B"/>
<stop offset="0.44" stop-color="#F8C74C"/>
<stop offset="0.53" stop-color="#FEDE5F"/>
<stop offset="0.61" stop-color="#F7C64C"/>
<stop offset="0.78" stop-color="#ED9D2B"/>
<stop offset="0.92" stop-color="#E68417"/>
<stop offset="1" stop-color="#E47B10"/>
</linearGradient>
<linearGradient id="paint6_linear_528_6845" x1="338.33" y1="74.8802" x2="338.335" y2="55.0661" gradientUnits="userSpaceOnUse">
<stop stop-color="#CF4B0B"/>
<stop offset="0.99" stop-color="#E8B321"/>
</linearGradient>
<linearGradient id="paint7_linear_528_6845" x1="326.26" y1="70.4489" x2="348.439" y2="68.1435" gradientUnits="userSpaceOnUse">
<stop offset="0.06" stop-color="#E47B10"/>
<stop offset="0.14" stop-color="#E68417"/>
<stop offset="0.27" stop-color="#ED9D2B"/>
<stop offset="0.44" stop-color="#F8C74C"/>
<stop offset="0.53" stop-color="#FEDE5F"/>
<stop offset="0.61" stop-color="#F7C64C"/>
<stop offset="0.78" stop-color="#ED9D2B"/>
<stop offset="0.92" stop-color="#E68417"/>
<stop offset="1" stop-color="#E47B10"/>
</linearGradient>
<linearGradient id="paint8_linear_528_6845" x1="355.027" y1="118.761" x2="43.2079" y2="118.761" gradientUnits="userSpaceOnUse">
<stop stop-color="#8A3D90"/>
<stop offset="0.47" stop-color="#D457D4"/>
<stop offset="1" stop-color="#C14FC1"/>
</linearGradient>
<linearGradient id="paint9_linear_528_6845" x1="310.884" y1="123.747" x2="356.388" y2="123.747" gradientUnits="userSpaceOnUse">
<stop stop-color="#FFA8A6"/>
<stop offset="1" stop-color="#8E1613"/>
</linearGradient>
<linearGradient id="paint10_linear_528_6845" x1="43.4735" y1="123.951" x2="88.1985" y2="123.951" gradientUnits="userSpaceOnUse">
<stop stop-color="#8E1613"/>
<stop offset="1" stop-color="#FFA8A6"/>
</linearGradient>
<linearGradient id="paint11_linear_528_6845" x1="330.001" y1="161.091" x2="346.014" y2="161.091" gradientUnits="userSpaceOnUse">
<stop stop-color="#38C1C9"/>
<stop offset="0.37" stop-color="#7EFFF5"/>
<stop offset="0.68" stop-color="#4CC8CE"/>
<stop offset="1" stop-color="#399B97"/>
</linearGradient>
<linearGradient id="paint12_linear_528_6845" x1="325.635" y1="164.448" x2="347.789" y2="162.145" gradientUnits="userSpaceOnUse">
<stop offset="0.09" stop-color="#E4790F"/>
<stop offset="0.58" stop-color="#E4790F"/>
<stop offset="0.6" stop-color="#E2770E"/>
<stop offset="1" stop-color="#B83D00"/>
</linearGradient>
<linearGradient id="paint13_linear_528_6845" x1="320.491" y1="113" x2="356.091" y2="113" gradientUnits="userSpaceOnUse">
<stop stop-color="#8A3D90"/>
<stop offset="0.47" stop-color="#D457D4"/>
<stop offset="1" stop-color="#C14FC1"/>
</linearGradient>
<linearGradient id="paint14_linear_528_6845" x1="69.5638" y1="161.091" x2="53.5508" y2="161.091" gradientUnits="userSpaceOnUse">
<stop stop-color="#38C1C9"/>
<stop offset="0.37" stop-color="#7EFFF5"/>
<stop offset="0.68" stop-color="#4CC8CE"/>
<stop offset="1" stop-color="#399B97"/>
</linearGradient>
<linearGradient id="paint15_linear_528_6845" x1="73.8861" y1="164.489" x2="51.7319" y2="162.186" gradientUnits="userSpaceOnUse">
<stop offset="0.09" stop-color="#E4790F"/>
<stop offset="0.58" stop-color="#E4790F"/>
<stop offset="0.6" stop-color="#E2770E"/>
<stop offset="1" stop-color="#B83D00"/>
</linearGradient>
<linearGradient id="paint16_linear_528_6845" x1="79.073" y1="112.999" x2="43.4735" y2="112.999" gradientUnits="userSpaceOnUse">
<stop stop-color="#8A3D90"/>
<stop offset="0.47" stop-color="#D457D4"/>
<stop offset="1" stop-color="#C14FC1"/>
</linearGradient>
<linearGradient id="paint17_linear_528_6845" x1="320.284" y1="168.243" x2="351.988" y2="164.947" gradientUnits="userSpaceOnUse">
<stop offset="0.09" stop-color="#E4790F"/>
<stop offset="0.25" stop-color="#F1AF2E"/>
<stop offset="0.38" stop-color="#FAD444"/>
<stop offset="0.44" stop-color="#FEE34D"/>
<stop offset="0.75" stop-color="#E2770E"/>
<stop offset="1" stop-color="#B83D00"/>
</linearGradient>
<linearGradient id="paint18_linear_528_6845" x1="336.648" y1="182.99" x2="336.646" y2="163.166" gradientUnits="userSpaceOnUse">
<stop stop-color="#CF4B0B"/>
<stop offset="0.99" stop-color="#E8B321"/>
</linearGradient>
<linearGradient id="paint19_linear_528_6845" x1="344.591" y1="183.734" x2="328.126" y2="182.887" gradientUnits="userSpaceOnUse">
<stop stop-color="#B83D00"/>
<stop offset="0.25" stop-color="#E4790F"/>
<stop offset="0.56" stop-color="#FEE34D"/>
<stop offset="0.62" stop-color="#FAD444"/>
<stop offset="0.75" stop-color="#F1AF2E"/>
<stop offset="0.91" stop-color="#E4790F"/>
</linearGradient>
<linearGradient id="paint20_linear_528_6845" x1="337.591" y1="196.191" x2="337.55" y2="188.73" gradientUnits="userSpaceOnUse">
<stop stop-color="#CF4B0B"/>
<stop offset="0.99" stop-color="#E8B321"/>
</linearGradient>
<linearGradient id="paint21_linear_528_6845" x1="79.2375" y1="168.275" x2="47.5466" y2="164.981" gradientUnits="userSpaceOnUse">
<stop offset="0.09" stop-color="#E4790F"/>
<stop offset="0.25" stop-color="#F1AF2E"/>
<stop offset="0.38" stop-color="#FAD444"/>
<stop offset="0.44" stop-color="#FEE34D"/>
<stop offset="0.75" stop-color="#E2770E"/>
<stop offset="1" stop-color="#B83D00"/>
</linearGradient>
<linearGradient id="paint22_linear_528_6845" x1="62.871" y1="183.009" x2="62.873" y2="163.194" gradientUnits="userSpaceOnUse">
<stop stop-color="#CF4B0B"/>
<stop offset="0.99" stop-color="#E8B321"/>
</linearGradient>
<linearGradient id="paint23_linear_528_6845" x1="54.8407" y1="183.432" x2="71.3174" y2="182.583" gradientUnits="userSpaceOnUse">
<stop stop-color="#B83D00"/>
<stop offset="0.25" stop-color="#E4790F"/>
<stop offset="0.56" stop-color="#FEE34D"/>
<stop offset="0.62" stop-color="#FAD444"/>
<stop offset="0.75" stop-color="#F1AF2E"/>
<stop offset="0.91" stop-color="#E4790F"/>
</linearGradient>
<linearGradient id="paint24_linear_528_6845" x1="61.9984" y1="196.106" x2="62.0388" y2="188.645" gradientUnits="userSpaceOnUse">
<stop stop-color="#CF4B0B"/>
<stop offset="0.99" stop-color="#E8B321"/>
</linearGradient>
<radialGradient id="paint25_radial_528_6845" cx="0" cy="0" r="1" gradientUnits="userSpaceOnUse" gradientTransform="translate(182.273 135.899) scale(140.172 88.0025)">
<stop stop-color="#C700FF"/>
<stop offset="1" stop-color="#770099" stop-opacity="0"/>
</radialGradient>
<radialGradient id="paint26_radial_528_6845" cx="0" cy="0" r="1" gradientUnits="userSpaceOnUse" gradientTransform="translate(168.936 106.05) scale(140.172 88.0025)">
<stop stop-color="#C700FF"/>
<stop offset="1" stop-color="#770099" stop-opacity="0"/>
</radialGradient>
<radialGradient id="paint27_radial_528_6845" cx="0" cy="0" r="1" gradientUnits="userSpaceOnUse" gradientTransform="translate(219.075 128.643) scale(140.172 88.0025)">
<stop stop-color="#C700FF"/>
<stop offset="1" stop-color="#770099" stop-opacity="0"/>
</radialGradient>
</defs>
</svg>
