<svg width="395" height="519" viewBox="0 0 395 519" fill="none" xmlns="http://www.w3.org/2000/svg">
<path d="M153.456 356.895C153.456 356.895 188.593 403.006 230.832 388.717C273.071 374.428 247.642 396.669 247.642 396.669L193.022 402.978L157.481 377.256L142.246 363.594L153.456 356.895Z" fill="url(#paint0_linear_436_1613)"/>
<path d="M246.694 417.907C246.694 417.907 269.088 400.527 292.262 415.331C315.436 430.135 324.098 404.064 324.098 404.064C324.098 404.064 311.258 447.529 261.039 432.711C210.82 417.893 246.694 417.907 246.694 417.907Z" fill="#474312"/>
<path d="M116.732 432.711C116.732 432.711 64.9809 456.54 42.7681 404.064C42.7681 404.064 58.8672 423.882 73.0305 413.98C87.1937 404.064 102.332 413.98 102.332 413.98L124.823 423.381L116.746 432.711H116.732Z" fill="#474312"/>
<path style="mix-blend-mode:multiply" opacity="0.42" d="M261.039 432.711C288.669 440.858 304.963 431.374 314.057 421.194C300.827 436.346 270.606 412.197 270.606 412.197H257.446C250.873 414.69 246.709 417.907 246.709 417.907C246.709 417.907 210.82 417.907 261.053 432.711H261.039Z" fill="url(#paint1_linear_436_1613)"/>
<path style="mix-blend-mode:multiply" opacity="0.42" d="M116.732 432.712L124.809 423.381L104.685 414.969C95.3547 421.529 70.1059 436.165 51.0684 418.715C75.7462 451.554 116.718 432.726 116.718 432.726L116.732 432.712Z" fill="url(#paint2_linear_436_1613)"/>
<path d="M197.938 395.374C233.033 396.989 270.049 359.318 311.592 316.174C353.121 273.029 364.067 275.606 371.476 280.118C378.885 284.63 366.323 313.597 347.328 323.903C347.328 323.903 306.76 426.277 203.411 433.365C100.062 440.454 57.8926 415.985 17.3246 287.527C17.3246 287.527 -3.60691 265.314 3.16138 234.411C9.91575 203.508 65.3015 180.32 98.4606 217.671C131.62 255.022 137.984 338.219 159.306 366.741C184.095 399.9 197.938 395.388 197.938 395.388V395.374Z" fill="url(#paint3_linear_436_1613)"/>
<g opacity="0.67">
<path style="mix-blend-mode:screen" opacity="0.74" d="M293.85 368.69C292.137 370.111 290.396 371.504 288.6 372.882C290.716 379.887 297.819 388.452 321.536 366.922C321.926 366.42 322.302 365.933 322.678 365.432C312.609 374.01 294.588 386.753 293.836 368.69H293.85Z" fill="url(#paint4_linear_436_1613)"/>
<path style="mix-blend-mode:screen" opacity="0.74" d="M309.405 354.291C307.943 355.795 306.439 357.285 304.893 358.775C309.531 363.497 316.87 366.254 329.264 356.311C329.849 355.447 330.42 354.611 330.963 353.776C323.958 357.202 315.589 359.124 309.391 354.305L309.405 354.291Z" fill="url(#paint5_linear_436_1613)"/>
<path style="mix-blend-mode:screen" opacity="0.74" d="M258.936 404.844C258.936 404.844 231.125 413.868 245.525 396.683C242.586 397.727 239.62 398.702 236.57 399.551C235.679 399.802 234.787 399.997 233.896 400.234C239.884 402.824 242.043 406.013 237.183 409.746C237.183 409.746 244.118 412.002 237.614 413.172C237.614 413.172 255.983 414.982 248.017 423.533C260.927 418.547 272.445 412.071 282.625 404.788C274.269 403.298 247.349 413.798 258.936 404.83V404.844Z" fill="url(#paint6_linear_436_1613)"/>
<path style="mix-blend-mode:screen" opacity="0.74" d="M279.269 379.581C274.45 382.812 269.381 385.82 264.103 388.578C272.793 391.238 282.834 398.647 306.607 384.135C308.835 381.851 310.966 379.553 312.999 377.255C297.304 385.166 269.144 398.619 279.283 379.581H279.269Z" fill="url(#paint7_linear_436_1613)"/>
<path style="mix-blend-mode:screen" opacity="0.74" d="M152.83 410.206C152.83 410.206 164.277 412.364 154.71 406.71C154.71 406.71 168.024 404.552 165.726 398.995C160.434 397.421 155.253 395.527 150.184 393.396C154.013 399.886 154.626 405.387 145.282 404.552C145.282 404.552 155.225 408.284 143.095 407.88C143.095 407.88 159.542 429.397 122.233 426.333C119.434 426.096 116.983 426.04 114.796 426.082C125.84 429.968 137.956 432.363 151.395 433.547C163.539 427.67 169.207 419.815 152.816 410.22L152.83 410.206Z" fill="url(#paint8_linear_436_1613)"/>
<path style="mix-blend-mode:screen" opacity="0.74" d="M91.0936 356.645C89.2831 355.238 87.4866 353.832 85.704 352.411C81.4007 357.425 75.3567 362.731 67.5578 363.594C67.5578 363.594 70.0645 352.801 71.8611 341.326C71.1787 340.768 70.4824 340.211 69.8 339.668C69.3822 339.334 68.9783 338.986 68.5744 338.638C66.7918 349.765 61.3744 361.338 48.8545 365.237C49.7458 366.853 50.651 368.413 51.5562 369.958C67.9756 369.624 86.3864 366.546 91.0936 356.631V356.645Z" fill="url(#paint9_linear_436_1613)"/>
<path style="mix-blend-mode:screen" opacity="0.74" d="M113.279 372.869C112.345 372.242 111.426 371.602 110.507 370.961C109.073 382.478 97.9734 391.851 68.5884 394.079C70.2178 395.973 71.875 397.783 73.5462 399.51C93.1965 395.903 110.8 388.049 113.279 372.855V372.869Z" fill="url(#paint10_linear_436_1613)"/>
<path style="mix-blend-mode:screen" opacity="0.74" d="M62.9199 333.791C62.3349 333.262 61.75 332.747 61.179 332.204C61.6943 340.977 60.3017 359.165 36.8076 340.657C40.0386 348.08 43.3531 354.973 46.7372 361.352C55.121 358.218 61.9589 350.42 62.9199 333.777V333.791Z" fill="url(#paint11_linear_436_1613)"/>
<path style="mix-blend-mode:screen" opacity="0.74" d="M136.215 386.753C134.586 385.904 132.984 385.026 131.383 384.121C126.717 395.61 112.568 405.874 80.5093 406.139C81.2892 406.821 82.0691 407.476 82.8629 408.13C99.3101 406.975 114.964 404.036 122.721 397.894C122.721 397.894 133.096 393.466 136.229 386.739L136.215 386.753Z" fill="url(#paint12_linear_436_1613)"/>
</g>
<path style="mix-blend-mode:multiply" d="M35.5962 337.858C71.6798 422.503 115.326 439.396 203.411 433.366C260.37 429.467 298.25 396.614 320.784 367.911C234.704 457.32 61.4856 392.506 35.5962 337.858Z" fill="url(#paint13_linear_436_1613)"/>
<path style="mix-blend-mode:multiply" d="M32.1286 220.234C4.12238 248.241 25.3742 303.947 69.7999 339.682C114.225 375.418 166.06 419.203 236.57 399.566C307.08 379.93 347.592 306.495 349.249 294.282C350.461 285.397 312.372 318.611 285.731 342.565C254.424 373.524 225.582 396.642 197.938 395.374C197.938 395.374 184.095 399.887 159.306 366.728C147.58 351.046 140.38 318.834 130.756 286.803C108.933 213.424 60.107 192.27 32.1426 220.248L32.1286 220.234Z" fill="url(#paint14_linear_436_1613)"/>
<path style="mix-blend-mode:multiply" d="M69.7996 339.668C114.225 375.404 166.06 419.188 236.57 399.552C242.057 398.02 247.335 396.14 252.46 394.009C251.248 389.664 238.519 389.455 238.519 389.455C248.031 399.343 231.612 398.814 211.14 394.135C206.711 395.082 202.31 395.555 197.951 395.36C197.951 395.36 188.704 398.354 171.783 381.35C170.098 380.584 168.497 379.818 167.049 379.052C142.371 366.087 121.328 388.801 110.604 364.889C99.8669 340.977 140.421 354.89 140.421 354.89C106.482 329.349 94.9369 350.767 94.9369 350.767C80.9408 325.031 131.661 337.328 131.661 337.328C92.4023 307.526 72.947 340.88 72.947 340.88C63.1984 297.248 124.768 316.411 124.768 316.411C93.0011 293.376 60.7613 313.862 60.7613 313.862C64.786 281.845 116.746 294.992 116.746 294.992C65.9977 272.222 40.5956 305.339 40.5956 305.339C66.5129 263.086 107.875 279.004 107.875 279.004C66.7078 260.844 44.509 283.544 44.509 283.544C46.2219 245.023 101.176 260.37 101.176 260.37C38.5066 234.523 22.7836 270.551 22.7836 270.551C27.6718 232.127 83.5869 245.901 83.5869 245.901C43.4228 233.938 26.5298 241.876 19.5527 252.335C19.3298 280.439 38.9802 314.865 69.8275 339.668H69.7996Z" fill="url(#paint15_linear_436_1613)"/>
<path style="mix-blend-mode:multiply" d="M300.758 349.291C306.091 349.25 309.684 350.155 311.954 351.645C313.89 349.584 315.756 347.523 317.539 345.476C306.412 343.763 300.744 349.305 300.744 349.305L300.758 349.291Z" fill="url(#paint16_linear_436_1613)"/>
<path style="mix-blend-mode:multiply" d="M265.746 375.933C272.779 377.326 274.951 379.832 274.422 382.687C278.558 380.125 282.513 377.409 286.329 374.568C277.207 370.919 265.746 375.933 265.746 375.933Z" fill="url(#paint17_linear_436_1613)"/>
<path style="mix-blend-mode:screen" d="M79.6039 347.564C76.3033 344.918 73.0306 342.272 69.7996 339.668C25.374 303.932 4.12216 248.24 32.1284 220.22C60.0929 192.255 108.933 213.41 130.742 286.775C122.86 260.551 113.376 234.453 98.4465 217.643C65.2875 180.293 9.9156 203.48 3.14731 234.383C-3.60705 265.286 17.3106 287.499 17.3106 287.499C33.1868 306.286 54.3133 330.003 79.5899 347.55L79.6039 347.564Z" fill="url(#paint18_linear_436_1613)"/>
<path style="mix-blend-mode:multiply" d="M122.693 401.697C122.693 401.697 197.256 429.703 255.399 408.131C255.399 408.131 208.731 444.827 122.693 401.697Z" fill="url(#paint19_linear_436_1613)"/>
<path style="mix-blend-mode:screen" opacity="0.74" d="M362.786 279.993C361.741 278.684 359.054 278.795 355.628 279.686C346.77 283.46 333.401 293.501 311.578 316.16C302.763 325.31 294.156 334.209 285.73 342.551C312.386 318.597 350.461 285.368 349.249 294.267C348.038 303.139 326.285 344.347 287.43 373.732L288.098 373.676C303.153 363.148 312.776 354.151 320.784 346.339L329.334 330.741C352.926 303.821 366.88 285.145 362.8 279.993H362.786Z" fill="url(#paint20_linear_436_1613)"/>
<path style="mix-blend-mode:screen" d="M371.476 280.104C364.067 275.592 353.121 273.015 311.592 316.16C302.777 325.309 294.17 334.208 285.745 342.55C312.4 318.597 350.475 285.368 349.263 294.267C347.926 304.085 321.494 353.385 274.589 382.589C318.514 355.279 324.976 337.328 347.328 323.889C348.038 323.457 348.762 323.025 349.5 322.607C367.27 311.383 378.593 284.435 371.476 280.104Z" fill="url(#paint21_linear_436_1613)"/>
<path d="M117.93 275.063C117.93 275.063 110.201 282.945 121.955 292.29C121.955 292.29 113.097 308.876 132.093 317.72C132.093 317.72 129.029 333.039 142.078 339.626C142.078 339.626 144.905 359.625 153.47 357.828C162.035 356.032 155.88 344.946 144.223 339.626C144.223 339.626 149.794 331.563 148.192 325.282C146.591 319.001 133.541 318.04 133.541 318.04C133.541 318.04 146.423 314.182 146.897 309.183C147.384 304.197 129.196 295.98 129.196 295.98C129.196 295.98 135.797 293.724 137.246 287.29C138.694 280.856 122.108 269.785 122.108 269.785L117.916 275.049L117.93 275.063Z" fill="#F4ABA3"/>
<path d="M110.605 242.711C105.8 240.942 105.466 267.222 114.393 277.151C118.738 281.984 128.723 267.333 125.603 261.623C119.713 250.844 113.251 243.686 110.605 242.711Z" fill="#F4ABA3"/>
<g style="mix-blend-mode:multiply" opacity="0.36">
<path d="M150.045 343.066C148.346 341.799 146.382 340.615 144.237 339.64C144.237 339.64 145.742 337.468 146.953 334.501C146.883 334.585 146.828 334.654 146.758 334.738C142.622 341.116 129.963 318.569 137.497 318.639C135.255 318.179 133.542 318.054 133.542 318.054C133.542 318.054 137.65 316.815 141.313 314.851C140.993 314.962 140.672 315.06 140.324 315.213C132.47 318.639 117.707 292.861 130.13 295.618C130.52 295.437 130.993 295.187 131.523 294.866C125.242 290.521 117.22 282.876 126.203 276.052C126.203 276.052 124.476 275.495 122.317 274.018C121.621 273.545 120.897 272.988 120.158 272.305C117.61 269.98 115.033 266.401 114.156 261.025C112.513 251.026 114.518 247.391 118.808 250.97C115.312 246.291 112.248 243.338 110.619 242.739C105.814 240.971 105.48 267.25 114.407 277.18C114.908 277.737 115.493 278.015 116.12 278.099C114.894 281.232 114.644 286.497 121.969 292.318C121.969 292.318 113.112 308.904 132.107 317.748C132.107 317.748 129.044 333.067 142.093 339.654C142.093 339.654 144.92 359.653 153.485 357.856C154.571 357.633 155.42 357.243 156.061 356.742C155.977 356.784 155.852 356.812 155.782 356.853C150.852 360.614 139.043 335.309 150.045 343.08V343.066Z" fill="#B83D26"/>
</g>
<path style="mix-blend-mode:screen" opacity="0.74" d="M97.3743 216.529C85.9964 207.825 71.3735 200.347 54.8705 200.584C15.7927 201.141 1.99161 242.252 29.6218 290.939L19.9707 290.633C35.5266 308.862 55.6922 330.964 79.6041 347.55C76.3035 344.904 73.0308 342.258 69.7998 339.654C25.3742 303.918 4.12235 248.226 32.1286 220.206C60.1348 192.186 108.933 213.396 130.742 286.761C122.86 260.537 113.376 234.439 98.4467 217.63C98.0985 217.24 97.7225 216.878 97.3743 216.502V216.529Z" fill="url(#paint22_linear_436_1613)"/>
<path d="M151.256 422.043C151.256 422.043 132.971 400.791 107.666 434.466C82.3615 468.126 116.732 483.585 116.732 483.585L151.256 422.043Z" fill="url(#paint23_linear_436_1613)"/>
<path d="M328.54 302.22C328.54 302.22 313.736 300.716 306.439 305.005C299.141 309.295 306.439 330.17 306.439 330.17C306.439 330.17 287.764 323.904 284.338 326.048C280.912 328.193 282.249 351.018 282.249 351.018C282.249 351.018 271.038 345.364 264.59 349.445C258.156 353.525 259.437 367.897 259.437 367.897C259.437 367.897 243.129 365.112 239.257 367.034C235.4 368.97 236.681 385.069 236.681 385.069C236.681 385.069 227.016 379.916 223.158 381.42C219.301 382.924 214.148 395.583 214.148 395.583C214.148 395.583 226.348 397.965 237.322 386.782C237.322 386.782 249.549 388.495 260.078 369.819C260.078 369.819 277.249 373.468 283.683 352.007C283.683 352.007 307.511 340.629 308.152 331.396C308.152 331.396 334.125 320.018 328.54 302.206V302.22Z" fill="#F4ABA3"/>
<g style="mix-blend-mode:multiply" opacity="0.36">
<path d="M328.541 302.22C328.541 302.22 324.056 301.774 318.806 302.081C326.229 304.142 308.264 335.49 304.685 324.071C305.534 327.58 306.425 330.171 306.425 330.171C306.425 330.171 304.002 329.363 300.757 328.416C307.066 330.449 282.054 357.174 281.984 340.476C281.943 346.005 282.235 351.005 282.235 351.005C282.235 351.005 280.452 350.113 277.932 349.306C285.48 351.938 258.811 377.493 259.437 361.895C259.201 365.251 259.437 367.897 259.437 367.897C259.437 367.897 257.028 367.48 253.839 367.09C257.891 369.596 236.194 393.48 236.486 378.287C236.431 381.949 236.681 385.069 236.681 385.069C236.681 385.069 235.08 384.219 232.949 383.314C238.924 386.253 217.059 398.146 220.499 388.815C221.446 386.253 221.376 384.554 220.805 383.412C217.491 387.395 214.162 395.583 214.162 395.583C214.162 395.583 226.362 397.965 237.336 386.782C237.336 386.782 249.563 388.495 260.092 369.819C260.092 369.819 277.263 373.468 283.697 352.007C283.697 352.007 307.526 340.629 308.166 331.396C308.166 331.396 334.139 320.018 328.555 302.206L328.541 302.22Z" fill="#B83D26"/>
</g>
<mask id="mask0_436_1613" style="mask-type:luminance" maskUnits="userSpaceOnUse" x="19" y="66" width="331" height="339">
<path d="M285.73 342.565C269.241 358.873 253.435 372.952 238.129 382.492C236.709 377.144 235.734 369.888 235.497 360.015C234.258 307.247 245.302 288.516 265.384 286.594C285.466 284.672 265.746 322.496 250.58 335.936C235.414 349.375 245.58 357.285 256.025 351.31C266.47 345.35 282.667 297.276 273.224 284.185C263.782 271.08 224.913 292.777 228.186 362.396C228.186 362.396 211.599 305.269 236.389 248.282C261.178 191.309 285.939 215.694 288.794 204.455C291.649 193.217 268.935 192.576 246.861 225.902C224.788 259.228 214.872 310.506 216.975 337.022C216.975 337.022 205.374 270.314 230.609 213.313C255.858 156.311 294.003 137.441 317.497 163.302C340.991 189.164 316.062 219.022 304.81 235.01C293.571 250.998 284.031 271.498 299.239 271.971C314.447 272.445 311.829 239.954 317.19 223.381C322.552 206.809 342.634 180.293 314.962 153.818C287.29 127.344 222.504 146.535 208.424 299.587C208.424 299.587 195.904 241.569 209.316 189.122C222.713 136.661 253.783 121.523 247.237 113.738C240.692 105.939 205.026 139.836 201.196 250.858C201.196 250.858 172.536 154.376 173.998 117.832C175.46 81.2891 196.016 66.9169 204.525 76.4148C213.034 85.8988 187.59 146.591 206.112 145.24C224.621 143.889 218.173 112.178 211.962 90.1185C205.75 68.045 192.632 52.0016 175.739 84.9518C158.846 117.902 175.948 180.557 192.423 237.698C208.898 294.838 199.177 330.045 199.177 330.045C199.177 330.045 194.136 229.76 158.498 163.428C122.86 97.0957 53.6309 86.985 71.3872 160.141C78.6569 190.083 84.13 204.929 88.7954 215.039C89.826 217.268 90.8147 219.259 91.7617 221.153C71.0391 204.33 48.1717 204.205 32.1423 220.234C4.13605 248.24 25.3879 303.946 69.8135 339.682C90.564 356.366 112.93 374.818 138.067 387.742C166.742 402.49 199.01 410.039 236.584 399.566C240.441 398.494 244.188 397.226 247.85 395.861C311.383 372.061 347.689 305.84 349.263 294.295C350.475 285.41 312.386 318.625 285.744 342.579L285.73 342.565ZM187.089 347.091C187.089 347.091 188.342 244.884 166.241 206.516C144.125 168.149 152.551 220.387 160.057 222.602C167.578 224.816 159.096 206.656 155.712 200.862C152.328 195.069 158.581 187.312 173.107 231.306C184.22 264.98 185.515 345.392 167.675 377.005C165.043 374.052 162.258 370.668 159.305 366.727C149.334 353.399 142.635 328.109 134.934 301.147C136.034 300.827 137.148 300.437 138.276 299.991C149.766 295.521 141.424 274.979 106.942 234.3C72.4595 193.62 53.3663 101.733 115.59 128.416C177.814 155.1 195.445 266.595 187.089 347.091Z" fill="white"/>
</mask>
<g mask="url(#mask0_436_1613)">
<path d="M56.9175 206.712C38.8827 209.929 44.7736 229.426 56.9175 232.949C69.0614 236.473 78.81 236.654 85.5644 234.718C85.5644 234.718 95.7029 255.97 104.073 255.803C112.443 255.636 109.588 245.469 107.039 237.28C104.282 228.423 96.8309 211.377 96.8309 211.377C96.8309 211.377 80.7318 206.865 79.6038 206.712C78.4757 206.558 56.9036 206.712 56.9036 206.712H56.9175Z" fill="#F4BFA3"/>
<g style="mix-blend-mode:multiply" opacity="0.36">
<path d="M56.9175 232.95C69.0614 236.473 78.81 236.654 85.5644 234.718C85.5644 234.718 95.7029 255.97 104.073 255.803C107.791 255.733 109.281 253.686 109.588 250.706C108.919 255.371 104.073 255.371 97.0119 245.525C88.8092 234.078 93.5582 222.63 99.7833 228.604C105.995 234.579 86.7203 211.893 86.7203 211.893L85.9125 216.837C101.037 225.972 90.4247 233.465 72.4874 227.992C54.55 222.519 50.01 207.868 63.2123 208.508L62.4742 206.656C59.285 206.67 56.9175 206.698 56.9175 206.698C38.8827 209.915 44.7736 229.412 56.9175 232.936V232.95Z" fill="#B83D26"/>
</g>
<path style="mix-blend-mode:screen" opacity="0.74" d="M61.0815 222.1C63.8808 224.412 67.6827 226.543 72.4874 228.005C90.4247 233.478 101.037 225.986 85.9126 216.85C94.6445 225.039 76.0665 230.359 61.0815 222.1Z" fill="url(#paint24_linear_436_1613)"/>
<path style="mix-blend-mode:screen" opacity="0.74" d="M93.0151 230.456C92.0402 233.993 92.8758 239.759 97.012 245.525C104.073 255.371 108.919 255.371 109.588 250.705C109.56 250.956 109.518 251.193 109.476 251.443C109.657 250.468 109.699 249.396 109.602 248.226C110.507 254.688 91.5249 238.909 93.0151 230.456Z" fill="url(#paint25_linear_436_1613)"/>
<path d="M314.976 153.818C287.304 127.344 222.518 146.535 208.438 299.587C208.438 299.587 195.918 241.569 209.329 189.122C222.727 136.661 253.797 121.523 247.251 113.738C240.706 105.939 205.04 139.836 201.21 250.858C201.21 250.858 172.549 154.376 174.012 117.832C175.474 81.2891 196.03 66.9169 204.539 76.4148C213.048 85.8988 187.604 146.591 206.126 145.24C224.635 143.889 218.187 112.192 211.975 90.1185C205.764 68.045 192.645 52.0016 175.753 84.9518C158.86 117.902 175.961 180.557 192.437 237.698C208.912 294.838 199.191 330.045 199.191 330.045C199.191 330.045 194.15 229.76 158.512 163.428C122.874 97.0957 53.6448 86.985 71.4012 160.141C78.6708 190.083 84.1439 204.929 88.8093 215.039C92.2631 222.546 95.2711 227.476 98.2236 234.021C101.009 240.205 103.752 247.836 106.774 260.51C117.331 304.671 126.815 304.462 138.29 299.991C149.78 295.521 141.438 274.979 106.956 234.3C72.4734 193.62 53.3802 101.733 115.604 128.416C177.828 155.1 195.459 266.595 187.103 347.091C187.103 347.091 188.356 244.884 166.255 206.516C144.139 168.149 152.565 220.387 160.071 222.602C167.592 224.816 159.11 206.656 155.726 200.862C152.342 195.069 158.595 187.312 173.12 231.306C187.646 275.3 185.39 399.078 145.63 389.581C139.822 388.188 134.739 386.921 130.241 385.737C165.168 403.145 204.107 412.35 248.505 396.418C248.797 396.307 249.076 396.196 249.368 396.084C243.185 395.778 236.194 388.926 235.525 360.029C234.286 307.261 245.33 288.53 265.412 286.608C285.494 284.686 265.774 322.51 250.608 335.95C235.442 349.389 245.608 357.299 256.053 351.324C266.498 345.35 282.694 297.289 273.252 284.199C263.81 271.094 224.941 292.791 228.214 362.41C228.214 362.41 211.627 305.283 236.417 248.296C261.206 191.323 285.967 215.708 288.822 204.469C291.677 193.231 268.963 192.59 246.889 225.916C224.816 259.242 214.9 310.52 217.003 337.022C217.003 337.022 205.402 270.314 230.637 213.313C255.886 156.311 294.031 137.441 317.525 163.302C341.019 189.164 316.09 219.022 304.838 235.01C293.599 250.998 284.059 271.498 299.267 271.971C314.475 272.445 311.856 239.954 317.218 223.381C322.58 206.823 342.662 180.293 314.99 153.818H314.976Z" fill="url(#paint26_linear_436_1613)"/>
<path style="mix-blend-mode:multiply" d="M224.858 357.786C228.827 408.953 215.68 336.005 215.68 336.005C217.003 377.855 210.416 319.795 210.416 319.795C208.355 441.457 200.806 335.379 199.316 329.362C199.219 329.794 199.149 330.031 199.149 330.031C199.149 330.031 199.121 329.376 199.038 328.248C201.781 380.417 188.607 349.041 187.2 345.545C187.172 345.838 187.145 346.13 187.117 346.422C188.398 375.877 174.332 379.874 178.538 339.654C174.04 370.529 163.706 393.884 145.588 389.553C140.101 388.244 135.268 387.032 130.965 385.904C130.937 385.946 130.909 385.988 130.881 386.029C165.628 403.215 204.358 412.225 248.463 396.377C248.755 396.265 249.034 396.154 249.326 396.043C243.491 395.764 236.946 389.609 235.651 364.61C235.651 364.68 235.651 364.736 235.651 364.805C236.779 405.875 228.158 362.354 228.158 362.354C230.818 401.92 224.83 357.759 224.83 357.759L224.858 357.786Z" fill="url(#paint27_linear_436_1613)"/>
<path style="mix-blend-mode:screen" d="M288.794 204.442C290.813 196.476 279.979 193.844 265.634 204.874C253.087 214.887 266.108 209.873 271.344 209.08C280.717 206.907 287.388 209.957 288.794 204.442Z" fill="url(#paint28_linear_436_1613)"/>
<path style="mix-blend-mode:screen" d="M273.697 314.252C273.753 309.183 268.378 313.751 263.824 319.683C262.682 321.494 261.47 323.263 260.244 324.948C257.027 329.348 253.713 333.164 250.593 335.936C235.427 349.375 245.594 357.285 256.039 351.311C259.98 349.055 264.743 340.796 268.642 330.685C268.865 330.003 269.157 329.223 269.533 328.29C271.163 323.792 272.597 319.001 273.697 314.252Z" fill="url(#paint29_linear_436_1613)"/>
<path style="mix-blend-mode:screen" d="M226.738 147.705C226.947 147.357 227.17 147.009 227.379 146.675C227.448 146.563 227.504 146.48 227.573 146.368C239.926 126.927 251.471 118.78 247.224 113.738C244.452 110.438 236.472 114.644 227.908 128.932C218.382 145.184 212.449 170.586 226.738 147.705Z" fill="url(#paint30_linear_436_1613)"/>
<path style="mix-blend-mode:screen" d="M152.301 202.632C153.289 210.988 156.757 221.627 160.058 222.602C167.578 224.817 159.097 206.656 155.713 200.863C155.601 200.668 155.504 200.473 155.406 200.264C153.624 197.381 151.799 195.822 152.301 202.632Z" fill="url(#paint31_linear_436_1613)"/>
<path style="mix-blend-mode:screen" d="M205.903 90.0351C203.48 111.022 191.935 146.256 206.098 145.226C223.409 143.959 218.883 116.147 213.145 94.5055C210.471 85.9407 207.143 80.1194 205.903 90.0351Z" fill="url(#paint32_linear_436_1613)"/>
<path style="mix-blend-mode:screen" d="M138.276 299.977C149.766 295.507 141.424 274.965 106.942 234.286C105.577 232.684 104.24 230.985 102.931 229.231C98.14 224.635 96.0928 225.902 101.329 241.751C101.747 242.934 102.179 244.188 102.61 245.511C102.638 245.608 102.666 245.692 102.708 245.789C104.017 249.87 105.354 254.633 106.76 260.51C117.317 304.671 126.801 304.462 138.276 299.991V299.977Z" fill="url(#paint33_linear_436_1613)"/>
<path style="mix-blend-mode:screen" d="M310.311 227.309C308.319 230.108 306.425 232.698 304.824 234.982C293.585 250.97 284.045 271.47 299.253 271.943C309.545 272.263 311.675 257.46 313.639 242.725C314.001 234.509 318.207 217.463 310.311 227.309Z" fill="url(#paint34_linear_436_1613)"/>
<path style="mix-blend-mode:screen" d="M254.632 332.524C255.245 331.702 255.677 330.992 255.983 330.365C254.173 332.482 252.348 334.376 250.593 335.936C235.427 349.375 245.594 357.285 256.039 351.311C257.668 350.378 259.451 348.4 261.247 345.698C254.855 356.074 245.942 344.083 254.632 332.538V332.524Z" fill="url(#paint35_linear_436_1613)"/>
<path style="mix-blend-mode:screen" d="M295.034 251.513C289.978 262.376 289.087 271.651 299.239 271.957C308.375 272.25 311.077 260.621 312.943 247.697C310.576 266.373 288.321 268.476 295.034 251.499V251.513Z" fill="url(#paint36_linear_436_1613)"/>
<path style="mix-blend-mode:screen" d="M199.595 127.637C198.467 138.054 199.4 145.727 206.098 145.24C217.212 144.432 219.329 132.678 217.894 118.654C218.256 135.115 197.979 146.619 199.581 127.637H199.595Z" fill="url(#paint37_linear_436_1613)"/>
<path style="mix-blend-mode:screen" d="M138.276 299.978C146.897 296.621 144.348 284.213 127.943 261.011C147.384 291.914 119.295 299.518 112.819 281.553C121.077 304.392 129.015 303.571 138.263 299.978H138.276Z" fill="url(#paint38_linear_436_1613)"/>
<g style="mix-blend-mode:screen" opacity="0.74">
<path d="M118.695 288.92C117.191 281.776 136.229 296.51 130.045 297.513C125.116 298.307 120.227 296.162 118.695 288.92Z" fill="#FFFFF6"/>
</g>
<g style="mix-blend-mode:screen" opacity="0.74">
<path d="M209.232 141.396C202.255 143.527 215.234 123.25 216.78 129.336C218.006 134.168 216.307 139.237 209.232 141.396Z" fill="#FFFFF6"/>
</g>
<g style="mix-blend-mode:screen" opacity="0.74">
<path d="M250.204 350.851C246.346 350.35 257.292 342.997 256.638 346.436C256.109 349.18 254.117 351.366 250.204 350.851Z" fill="#FFFFF6"/>
</g>
<g style="mix-blend-mode:screen" opacity="0.74">
<path d="M296.566 256.387C300.883 253.324 296.761 270.774 294.226 266.735C292.221 263.518 292.179 259.493 296.566 256.387Z" fill="#FFFFF6"/>
</g>
<path style="mix-blend-mode:multiply" d="M183.162 79.0611C194.401 66.9311 203.091 66.8754 210.207 84.6178C203.467 65.6638 191.17 54.815 175.725 84.952C169.277 97.5277 167.787 114.434 169.319 133.709C168.497 105.02 175.892 86.9156 183.162 79.075V79.0611Z" fill="url(#paint39_linear_436_1613)"/>
<path style="mix-blend-mode:multiply" d="M131.578 134.071C154.18 151.967 171.533 188.635 182.953 228.577C177.076 206.211 169.165 183.288 158.484 163.414C122.846 97.0824 53.617 86.9717 71.3733 160.128C73.6573 169.528 75.7602 177.438 77.7238 184.179L78.2251 184.095C57.9203 118.933 91.135 102.026 131.578 134.057V134.071Z" fill="url(#paint40_linear_436_1613)"/>
<path style="mix-blend-mode:multiply" d="M239.48 306.872C233.381 323.333 234.007 342.761 235.428 355.475C234.927 306.176 245.901 288.475 265.384 286.595C271.233 286.038 273.684 288.865 273.879 293.461C274.742 279.242 249.508 279.827 239.48 306.872Z" fill="url(#paint41_linear_436_1613)"/>
<path style="mix-blend-mode:multiply" d="M314.976 153.819C287.304 127.344 222.518 146.535 208.438 299.588C227.406 161.102 265.968 152.342 288.084 149.752C306.648 147.58 331.632 161.826 328.93 189.303C330.309 178.107 327.677 165.949 314.976 153.805V153.819Z" fill="url(#paint42_linear_436_1613)"/>
<path style="mix-blend-mode:multiply" d="M233.047 397.909C228.855 397.505 226.933 387.533 226.933 387.533C229.189 406.85 220.805 384.191 220.805 384.191C222.616 407.657 217.101 382.603 217.101 382.603C217.059 402.142 209.539 366.282 209.539 366.282C210.987 420.052 205.556 364.903 205.556 364.903C201.406 413.27 193.607 366.602 193.607 366.602C189.262 417.796 184.401 369.499 184.401 369.499C180.028 388.815 180.182 370.627 180.182 370.627C167.717 426.806 170.907 372.103 170.907 372.103C166.394 390.486 151.103 397.017 149.655 391.739L148.485 392.617C173.984 403.73 202.311 408.521 234.579 400.039C234.732 398.911 234.398 398.034 233.047 397.895V397.909Z" fill="url(#paint43_linear_436_1613)"/>
</g>
<path d="M346.116 293.39C340.768 291.719 331.646 289.351 324.098 289.769C317.497 290.145 321.41 299.699 325.909 307.748C329.209 313.653 332.83 318.75 332.83 318.75C332.83 318.75 334.557 319.67 336.312 320.561C344.236 308.236 348.623 298.348 349.222 294.407C348.456 294.142 347.383 293.78 346.102 293.39H346.116Z" fill="#F4BFA3"/>
<g style="mix-blend-mode:multiply" opacity="0.36">
<path d="M332.83 318.75C332.83 318.75 334.557 319.669 336.312 320.561C344.236 308.236 348.623 298.348 349.222 294.407C348.456 294.142 347.383 293.78 346.102 293.39C345.211 293.112 344.18 292.819 343.108 292.513C357.842 297.749 324.85 306.37 320.784 295.577C321.424 299.058 323.583 303.612 325.895 307.762C329.195 313.667 332.816 318.764 332.816 318.764L332.83 318.75Z" fill="#B83D26"/>
</g>
<path d="M328.889 305.353C322.12 303.71 314.948 303.083 311.592 306.384C309.113 308.821 308.695 314.879 309.225 321.8C310.004 331.967 312.804 343.999 314.141 349.291C327.204 334.989 336.813 320.617 342.648 309.921C340.072 308.849 334.626 306.746 328.875 305.353H328.889Z" fill="#F4D4A3"/>
<path d="M255.566 372.827C251.527 375.682 248.018 390.138 246.695 396.252C258.56 391.921 269.492 386.127 279.436 379.456C274.033 376.699 259.716 369.889 255.566 372.827Z" fill="#F4D4A3"/>
<path d="M283.252 349.012C278.544 356.63 280.299 372.395 281.163 378.272C293.125 370.027 303.612 360.571 312.553 350.99C306.119 348.204 288.028 341.255 283.252 348.998V349.012Z" fill="#F4D4A3"/>
<path d="M226.807 392.575C224.161 393.968 215.68 400.541 211.196 404.065C219.385 403.438 227.838 401.989 236.57 399.552C238.631 398.981 240.65 398.355 242.67 397.686C236.222 391.572 230.164 390.806 226.807 392.575Z" fill="#F4D4A3"/>
<g style="mix-blend-mode:multiply" opacity="0.36">
<path d="M342.648 309.92C340.072 308.848 334.626 306.745 328.875 305.353C350.823 310.742 314.795 352.062 310.91 334.459C312.01 340.587 313.333 346.143 314.127 349.305C327.19 335.002 336.799 320.63 342.634 309.934L342.648 309.92Z" fill="#B83D26"/>
</g>
<g style="mix-blend-mode:multiply" opacity="0.36">
<path d="M279.436 379.456C277.068 378.245 272.974 376.253 268.796 374.652C268.838 374.666 268.88 374.694 268.921 374.708C283.739 379.86 244.801 401.363 249.452 385.473C248.227 389.553 247.266 393.662 246.708 396.266C258.574 391.935 269.506 386.141 279.45 379.47L279.436 379.456Z" fill="#B83D26"/>
</g>
<g style="mix-blend-mode:multiply" opacity="0.36">
<path d="M312.567 350.99C310.13 349.932 305.993 348.274 301.551 347.049C313.444 350.071 281.538 381.684 280.16 366.936C280.285 371.56 280.8 375.793 281.176 378.258C293.139 370.014 303.626 360.558 312.567 350.976V350.99Z" fill="#B83D26"/>
</g>
<g style="mix-blend-mode:multiply" opacity="0.36">
<path d="M236.57 399.552C238.631 398.981 240.65 398.355 242.67 397.686C240.205 395.347 237.795 393.801 235.581 392.868C246.332 397.867 207.728 406.794 220.429 396.976C217.212 399.371 213.633 402.157 211.196 404.065C219.385 403.438 227.838 401.99 236.57 399.552Z" fill="#B83D26"/>
</g>
<mask id="mask1_436_1613" style="mask-type:luminance" maskUnits="userSpaceOnUse" x="19" y="208" width="331" height="197">
<path d="M32.1286 220.234C4.12238 248.241 25.3742 303.947 69.7999 339.682C114.225 375.418 166.06 419.203 236.57 399.566C307.08 379.93 347.592 306.495 349.249 294.282C350.461 285.397 312.372 318.611 285.731 342.565C254.424 373.524 225.582 396.642 197.938 395.374C197.938 395.374 184.095 399.887 159.306 366.728C147.58 351.046 140.38 318.834 130.756 286.803C108.933 213.424 60.107 192.27 32.1426 220.248L32.1286 220.234Z" fill="white"/>
</mask>
<g mask="url(#mask1_436_1613)">
<path d="M169.611 403.089C169.611 403.089 160.587 389.469 156.729 383.286C151.897 375.557 143.415 381.044 134.53 385.862C125.659 390.681 130.004 386.182 130.004 386.182C130.004 386.182 131.439 358.998 125.492 355.279C120.771 352.327 99.4077 367.507 99.4077 367.507L98.1264 367.187C98.1264 367.187 104.407 338.052 100.383 333.387C97.7087 330.281 80.8994 330.643 69.7999 339.668C54.6339 351.979 67.7109 340.155 67.7109 340.155C67.7109 340.155 82.849 313.514 82.0413 306.383C81.2336 299.267 49.3697 304.893 39.2172 310.534L38.4096 309.085C38.4096 309.085 70.928 283.488 69.967 272.055C69.0061 260.621 25.054 261.916 18.2996 264.325C11.5453 266.735 18.2996 261.429 18.2996 261.429C18.2996 261.429 42.1279 252.418 62.4049 246.945C82.682 241.472 55.4834 212.574 34.8025 217.769C14.1217 222.964 26.3491 209.761 26.3491 209.761L-36.752 268.197L87.1941 406.32L139.349 408.576L169.611 403.103V403.089Z" fill="#F4D4A3"/>
<g style="mix-blend-mode:multiply" opacity="0.36">
<path d="M139.349 408.562L169.612 403.089C169.612 403.089 164.821 395.861 160.726 389.539C170.015 404.426 133.807 385.472 143.29 381.294C140.491 382.548 137.539 384.247 134.531 385.876C125.659 390.695 130.005 386.196 130.005 386.196C130.005 386.196 130.436 378.021 129.851 370.014C131.202 383.063 99.5333 366.254 111.594 359.792C105.313 363.343 99.4358 367.521 99.4358 367.521L98.1546 367.201C98.1546 367.201 100.174 357.842 101.191 348.887C99.2408 365.836 65.9007 339.417 79.8969 334.097C76.3874 335.378 72.8919 337.189 69.8281 339.668C54.6621 351.979 67.7391 340.155 67.7391 340.155C67.7391 340.155 71.1929 334.083 74.7023 326.953C66.1654 344.166 40.8469 309.28 57.0017 304.879C49.8852 306.314 43.0334 308.431 39.2454 310.534L38.4376 309.085C38.4376 309.085 45.9022 303.208 53.5618 295.827C37.6438 311.689 14.3169 263.908 35.6106 262.71C27.5889 262.779 20.6674 263.49 18.3138 264.325C11.5594 266.735 18.3138 261.429 18.3138 261.429C18.3138 261.429 26.9761 258.156 38.2844 254.354C38.2148 254.382 38.1591 254.396 38.0895 254.424C9.80468 263.615 25.2214 217.463 42.3928 217.282C39.8303 217.031 37.2817 217.156 34.8167 217.769C14.1359 222.964 26.3633 209.761 26.3633 209.761L-12.4917 245.747L-8.95431 299.156L87.2223 406.32L139.377 408.576L139.349 408.562Z" fill="#B83D26"/>
</g>
</g>
<path d="M214.148 432.251C214.148 432.251 264.27 407.88 282.611 434.465C300.966 461.051 280.118 476.83 280.118 476.83C280.118 476.83 290.661 453.322 273.266 446.247C255.886 439.159 258.17 458.113 226.919 449.45C195.668 440.774 214.134 432.265 214.134 432.265L214.148 432.251Z" fill="url(#paint44_linear_436_1613)"/>
<path d="M197.617 433.686C197.617 433.686 240.957 411.724 250.19 466.497C250.19 466.497 197.297 471.998 197.617 433.686Z" fill="url(#paint45_linear_436_1613)"/>
<path style="mix-blend-mode:multiply" opacity="0.67" d="M145.184 417.587C103.363 429.187 109.532 473.599 109.532 473.599C95.3966 462.639 100.285 447.752 101.065 445.663C90.0628 471.566 116.746 483.585 116.746 483.585L151.27 422.043C151.27 422.043 149.083 419.509 145.198 417.573L145.184 417.587Z" fill="url(#paint46_linear_436_1613)"/>
<path style="mix-blend-mode:multiply" opacity="0.67" d="M273.294 440.761C250.803 431.848 239.021 436.499 222.601 428.742C221.849 429.021 221.139 429.299 220.471 429.55C229.885 430.622 239.982 435.956 246.123 451.442C258.393 449.688 260.649 441.095 273.28 446.234C290.66 453.323 280.132 476.817 280.132 476.817C280.132 476.817 297.122 450.203 273.294 440.747V440.761Z" fill="url(#paint47_linear_436_1613)"/>
<path style="mix-blend-mode:multiply" opacity="0.67" d="M213.188 450.579C209.024 446.276 201.294 432.154 201.281 432.154C198.983 432.99 197.604 433.672 197.604 433.672C197.284 471.984 250.177 466.483 250.177 466.483C247.781 460.634 229.175 467.11 213.174 450.579H213.188Z" fill="url(#paint48_linear_436_1613)"/>
<path d="M204.706 438.504C204.706 438.504 192.799 405.665 150.295 415.971C107.791 426.277 105.549 498.709 134.516 519C134.516 519 119.406 493.249 136.466 481.649C153.512 470.062 213.396 483.905 204.706 438.504Z" fill="url(#paint49_linear_436_1613)"/>
<path style="mix-blend-mode:multiply" d="M45.8875 318.931C35.0806 308.166 25.513 297.178 17.3242 287.513C21.0426 299.281 24.7749 310.172 28.5629 320.254C22.6859 303.668 30.1088 306.425 45.8736 318.917L45.8875 318.931Z" fill="url(#paint50_linear_436_1613)"/>
<path style="mix-blend-mode:multiply" d="M347.327 323.889C335.099 331.242 327.621 339.946 316.173 350.781C331.214 339.57 344.388 330.281 342.996 333.192C345.92 327.413 347.327 323.889 347.327 323.889Z" fill="url(#paint51_linear_436_1613)"/>
<path d="M16.3773 231.055C16.3773 231.055 15.4163 221.654 22.7556 216.098C22.7556 216.098 20.1375 226.64 16.3773 231.055Z" fill="#FFEBFC"/>
<path d="M15.8344 233.979C15.8344 233.979 12.9238 238.686 15.2356 239.647C15.2356 239.647 16.7953 236.89 15.8344 233.979Z" fill="#FFEBFC"/>
<path d="M363.496 282.889C363.858 290.507 356.143 297.693 356.143 297.693L363.496 282.889Z" fill="#FFEBFC"/>
<path style="mix-blend-mode:color-dodge" opacity="0.29" d="M145.184 417.587C137.803 413.924 124.239 412.42 107.666 434.466C104.672 438.449 102.527 442.181 101.051 445.663C100.299 447.682 95.7867 461.581 108.126 472.402C105.591 463.238 105.131 452.556 109.741 441.304C122.943 409.106 145.184 417.587 145.184 417.587Z" fill="url(#paint52_linear_436_1613)"/>
<path style="mix-blend-mode:color-dodge" opacity="0.29" d="M282.611 434.466C273.002 420.539 254.674 420.609 239.397 423.812C261.916 420.665 283.628 433.296 285.8 455.342C285.939 456.442 285.995 457.542 285.981 458.642C285.981 458.976 286.009 459.311 285.995 459.645C285.898 465.564 284.811 470.313 283.071 473.961C288.07 468.293 296.398 454.422 282.611 434.452V434.466Z" fill="url(#paint53_linear_436_1613)"/>
<path style="mix-blend-mode:color-dodge" opacity="0.29" d="M246.124 451.442C243.074 443.741 239.035 438.56 234.592 435.148C234.565 435.12 234.523 435.092 234.495 435.065C234.008 434.702 233.52 434.368 233.033 434.034C232.88 433.937 232.726 433.839 232.573 433.742C232.114 433.449 231.668 433.171 231.208 432.92C231.027 432.822 230.832 432.725 230.651 432.627C229.913 432.237 229.161 431.889 228.409 431.583C228.103 431.458 227.81 431.318 227.504 431.207C227.17 431.082 226.849 430.984 226.515 430.873C226.139 430.747 225.777 430.622 225.401 430.525C225.095 430.441 224.802 430.357 224.496 430.288C224.064 430.176 223.632 430.079 223.201 429.995C222.95 429.94 222.699 429.884 222.462 429.842C221.794 429.717 221.125 429.619 220.471 429.55C216.307 429.076 212.296 429.438 208.814 430.093C210.736 430.176 212.937 430.72 215.36 431.694C223.047 434.8 232.671 442.097 240.595 451.721C244.285 456.205 247.628 461.177 250.204 466.483C249.215 460.606 247.809 455.676 246.138 451.442H246.124Z" fill="url(#paint54_linear_436_1613)"/>
<path style="mix-blend-mode:color-dodge" opacity="0.29" d="M150.295 415.971C148.527 416.403 146.856 416.974 145.226 417.6C122.303 426.541 113.042 455.091 115.632 480.437C115.799 481.481 115.994 482.442 116.231 483.334C116.287 483.361 116.356 483.403 116.412 483.417C116.356 483.389 116.301 483.361 116.231 483.334C116.816 485.506 117.624 487.191 118.654 488.361C122.261 492.428 128.486 489.754 136.425 476.565C133.89 480.005 132.024 481.022 130.798 480.298C128.069 478.696 128.431 468.613 131.467 457.333C134.544 445.913 140.352 433.268 148.485 426.987C168.33 411.682 189.888 420.372 198.746 428.742C191.546 420.01 176.923 409.523 150.281 415.971H150.295Z" fill="url(#paint55_linear_436_1613)"/>
<path d="M115.687 481.133C115.66 480.911 115.659 480.674 115.632 480.437C115.604 480.284 115.576 480.159 115.562 480.005C115.604 480.381 115.646 480.757 115.687 481.133Z" fill="url(#paint56_linear_436_1613)"/>
<g opacity="0.4">
<path style="mix-blend-mode:screen" opacity="0.74" d="M258.476 446.791C256.875 440.677 257.237 434.494 264.785 433.547C273.447 432.461 280.689 435.817 285.41 438.992C285.187 438.588 284.936 438.17 284.7 437.767C247.363 413.883 244.563 447.919 244.563 447.919C244.563 447.919 226.821 436.109 223.91 452.055C223.256 455.648 224.718 460.397 226.988 465.188C228.868 465.578 230.734 465.87 232.531 466.093C220.652 448.518 237.461 447.808 246.304 451.972C246.235 451.805 246.179 451.623 246.123 451.456C251.652 450.663 255.148 448.49 258.476 446.805V446.791Z" fill="url(#paint57_linear_436_1613)"/>
<path style="mix-blend-mode:screen" opacity="0.74" d="M121.718 440.956C128.11 429.995 161.464 417.796 175.419 443.504C182.424 456.428 175.6 467.318 167.063 474.95C168.219 474.797 169.375 474.644 170.545 474.477C196.476 451.498 173.288 426.583 173.288 426.583C200.835 431.834 201.698 450.161 196.768 465.786C199.136 463.976 201.113 461.804 202.59 459.171C204.957 448.337 202.214 436.973 186.379 429.327C147.106 410.387 124.434 435.789 124.434 435.789C120.688 422.391 110.466 431.625 103.99 439.939C102.806 441.93 101.845 443.838 101.051 445.677C112.555 429.745 121.732 440.956 121.732 440.956H121.718Z" fill="url(#paint58_linear_436_1613)"/>
<path style="mix-blend-mode:screen" opacity="0.74" d="M234.592 435.148C217.657 428.811 208.549 443.588 209.343 457.988C213.271 460.801 217.824 462.736 222.448 464.046C198.313 432.558 235.428 435.775 235.428 435.775C241.138 424.383 260.997 424.313 278.656 429.912C277.249 428.63 275.745 427.516 274.157 426.583C242.043 418.046 234.592 435.12 234.592 435.12V435.148Z" fill="url(#paint59_linear_436_1613)"/>
<path style="mix-blend-mode:screen" opacity="0.74" d="M144.947 446.763C124.127 436.025 116.83 455.244 116.83 455.244C111.482 451.693 104.56 451.581 98.9201 452.361C98.377 455.091 98.2656 457.625 98.4884 459.979C101.58 453.42 116.398 457.709 116.398 457.709C130.394 432.948 150.212 459.923 143.624 478.599C146.41 477.833 149.571 477.248 152.955 476.76C156.13 467.207 157.843 453.406 144.961 446.763H144.947Z" fill="url(#paint60_linear_436_1613)"/>
<path style="mix-blend-mode:screen" opacity="0.74" d="M274.951 447.027C277.179 448.197 278.864 449.687 280.104 451.373C282.36 445.314 285.507 444.646 288.627 446.317C288.292 445.287 287.888 444.228 287.443 443.156C283.223 441.805 278.808 443.908 274.965 447.041L274.951 447.027Z" fill="url(#paint61_linear_436_1613)"/>
</g>
<path style="mix-blend-mode:multiply" opacity="0.67" d="M134.516 519C134.516 519 119.406 493.25 136.466 481.649C153.512 470.062 213.396 483.905 204.706 438.504C211.46 481.649 152.565 447.403 138.402 473.168C126.077 495.575 117.414 493.612 115.562 480.005C117.136 496.327 123.612 511.354 134.53 519H134.516Z" fill="url(#paint62_linear_436_1613)"/>
<path style="mix-blend-mode:screen" opacity="0.74" d="M57.6422 291.747C64.4662 284.686 70.3849 277.027 69.9671 272.055C69.4936 266.484 58.8259 263.95 47.2251 263.072C67.1261 264.911 65.5385 284.073 57.6561 291.747H57.6422Z" fill="url(#paint63_linear_436_1613)"/>
<path style="mix-blend-mode:screen" opacity="0.74" d="M143.875 381.044C150.128 378.44 157.802 385.222 161.228 390.389C161.27 390.444 161.353 390.514 161.395 390.57C159.626 387.84 157.927 385.208 156.73 383.3C153.652 378.37 149.084 378.83 143.875 381.044Z" fill="url(#paint64_linear_436_1613)"/>
<path style="mix-blend-mode:screen" opacity="0.74" d="M129.712 368.413C129.155 362.41 127.957 356.826 125.492 355.28C123.375 353.957 117.888 356.297 112.485 359.277C120.896 355.461 128.222 358.775 129.712 368.413Z" fill="url(#paint65_linear_436_1613)"/>
<path style="mix-blend-mode:screen" opacity="0.74" d="M40.6655 253.56C47.4756 251.304 55.1491 248.909 62.4048 246.945C76.7213 243.087 67.3766 227.559 53.3665 220.582C71.2482 229.885 50.1912 250.329 40.6794 253.56H40.6655Z" fill="url(#paint66_linear_436_1613)"/>
<path style="mix-blend-mode:screen" opacity="0.74" d="M76.3595 323.471C79.5905 316.619 82.3897 309.573 82.0415 306.383C81.6376 302.832 73.5324 302.456 64.2295 303.668C80.9552 301.579 80.2032 315.352 76.3595 323.471Z" fill="url(#paint67_linear_436_1613)"/>
<path style="mix-blend-mode:screen" opacity="0.74" d="M328.889 305.354C322.121 303.71 314.949 303.083 311.593 306.384C309.114 308.821 308.696 314.879 309.225 321.801C309.35 323.361 309.517 324.976 309.726 326.605C308.32 314.629 319.531 302.485 328.889 305.354Z" fill="url(#paint68_linear_436_1613)"/>
<path style="mix-blend-mode:screen" opacity="0.74" d="M249.452 385.473C249.452 385.473 249.438 385.57 249.424 385.612C252.224 376.267 260.399 371.435 267.807 374.29C262.766 372.437 257.752 371.281 255.566 372.827C253.171 374.526 250.956 380.32 249.285 386.03C249.299 385.974 249.327 385.918 249.341 385.863C249.383 385.723 249.41 385.598 249.452 385.459V385.473Z" fill="url(#paint69_linear_436_1613)"/>
<path style="mix-blend-mode:screen" opacity="0.74" d="M283.252 349.012C280.648 353.232 280.021 359.945 280.132 366.1C280.132 365.877 280.146 365.669 280.16 365.432C280.272 353.539 291.023 344.653 299.936 346.631C293.14 344.96 286.009 344.556 283.252 348.998V349.012Z" fill="url(#paint70_linear_436_1613)"/>
<path style="mix-blend-mode:screen" opacity="0.74" d="M226.808 392.575C225.596 393.215 223.145 394.956 220.429 396.976C227.309 392.338 232.531 392.533 235.581 392.867C231.988 391.363 228.883 391.475 226.808 392.575Z" fill="url(#paint71_linear_436_1613)"/>
<g style="mix-blend-mode:screen">
<path d="M257.488 235.275C257.488 235.623 257.223 235.916 256.875 235.929C256.527 235.929 256.235 235.665 256.221 235.317C256.221 234.968 256.485 234.676 256.833 234.662C257.182 234.662 257.474 234.927 257.488 235.275Z" fill="#B3FFFF"/>
</g>
<g style="mix-blend-mode:screen">
<path d="M161.492 243.325C161.492 243.673 161.227 243.965 160.879 243.979C160.531 243.993 160.239 243.715 160.225 243.366C160.211 243.018 160.489 242.726 160.837 242.712C161.186 242.712 161.478 242.977 161.492 243.325Z" fill="#B3FFFF"/>
</g>
<g style="mix-blend-mode:screen">
<path d="M277.528 104.617C277.528 104.965 277.263 105.257 276.915 105.271C276.567 105.271 276.275 105.007 276.261 104.658C276.261 104.31 276.525 104.018 276.874 104.004C277.222 104.004 277.514 104.269 277.528 104.617Z" fill="#B3FFFF"/>
</g>
<g opacity="0.65">
<g style="mix-blend-mode:screen">
<path d="M263.936 146.73C263.936 146.855 263.838 146.967 263.713 146.967C263.587 146.967 263.476 146.869 263.476 146.744C263.476 146.619 263.574 146.507 263.699 146.507C263.824 146.507 263.936 146.605 263.936 146.73Z" fill="#B3FFFF"/>
</g>
</g>
<g opacity="0.65">
<g style="mix-blend-mode:screen">
<path d="M199.553 167.787C199.553 167.913 199.456 168.024 199.331 168.024C199.205 168.024 199.094 167.927 199.094 167.801C199.094 167.676 199.191 167.564 199.317 167.564C199.442 167.564 199.553 167.662 199.553 167.787Z" fill="#B3FFFF"/>
</g>
</g>
<g opacity="0.65">
<g style="mix-blend-mode:screen">
<path d="M134.67 217.631C134.67 217.756 134.573 217.867 134.447 217.867C134.322 217.867 134.21 217.77 134.21 217.644C134.21 217.519 134.308 217.408 134.433 217.408C134.559 217.408 134.67 217.505 134.67 217.631Z" fill="#B3FFFF"/>
</g>
</g>
<g opacity="0.65">
<g style="mix-blend-mode:screen">
<path d="M112.318 201.657C112.318 201.783 112.22 201.894 112.095 201.894C111.97 201.894 111.858 201.797 111.858 201.671C111.858 201.546 111.956 201.435 112.081 201.435C112.207 201.435 112.318 201.532 112.318 201.657Z" fill="#B3FFFF"/>
</g>
</g>
<g opacity="0.65">
<g style="mix-blend-mode:screen">
<path d="M164.319 358.024C164.319 358.149 164.222 358.261 164.097 358.261C163.971 358.261 163.86 358.163 163.86 358.038C163.86 357.913 163.957 357.801 164.083 357.801C164.208 357.801 164.319 357.899 164.319 358.024Z" fill="#B3FFFF"/>
</g>
</g>
<g opacity="0.65">
<g style="mix-blend-mode:screen">
<path d="M182.884 318.626C182.884 318.751 182.786 318.862 182.661 318.862C182.536 318.862 182.424 318.765 182.424 318.64C182.424 318.514 182.522 318.403 182.647 318.403C182.772 318.403 182.884 318.5 182.884 318.626Z" fill="#B3FFFF"/>
</g>
</g>
<g opacity="0.65">
<g style="mix-blend-mode:screen">
<path d="M208.925 348.721C208.925 348.846 208.828 348.958 208.703 348.958C208.577 348.958 208.466 348.86 208.466 348.735C208.466 348.609 208.563 348.498 208.689 348.498C208.814 348.498 208.925 348.595 208.925 348.721Z" fill="#B3FFFF"/>
</g>
</g>
<g opacity="0.65">
<g style="mix-blend-mode:screen">
<path d="M257.502 271.791C257.502 271.917 257.404 272.028 257.279 272.028C257.153 272.028 257.042 271.93 257.042 271.805C257.042 271.68 257.139 271.568 257.265 271.568C257.39 271.568 257.502 271.666 257.502 271.791Z" fill="#B3FFFF"/>
</g>
</g>
<g style="mix-blend-mode:screen">
<path d="M140.003 172.16C140.003 172.508 139.739 172.801 139.39 172.815C139.042 172.815 138.75 172.55 138.736 172.202C138.722 171.854 139 171.561 139.349 171.547C139.697 171.547 139.989 171.812 140.003 172.16Z" fill="#B3FFFF"/>
</g>
<g opacity="0.5">
<g style="mix-blend-mode:screen">
<path d="M337.872 130.561C337.872 130.909 337.608 131.202 337.259 131.216C336.911 131.216 336.619 130.951 336.605 130.603C336.605 130.255 336.87 129.962 337.218 129.948C337.566 129.934 337.858 130.213 337.872 130.561Z" fill="#B3FFFF"/>
</g>
<g style="mix-blend-mode:screen">
<path d="M104.046 305.91C104.046 306.258 103.781 306.551 103.433 306.565C103.085 306.579 102.792 306.3 102.778 305.952C102.778 305.604 103.043 305.311 103.391 305.297C103.739 305.283 104.032 305.562 104.046 305.91Z" fill="#B3FFFF"/>
</g>
<g style="mix-blend-mode:screen">
<path d="M24.2049 158.554C24.2049 158.902 23.9403 159.195 23.5921 159.209C23.2439 159.223 22.9514 158.944 22.9375 158.596C22.9236 158.248 23.2021 157.955 23.5503 157.941C23.8984 157.941 24.1909 158.206 24.2049 158.554Z" fill="#B3FFFF"/>
</g>
<g style="mix-blend-mode:screen">
<path d="M94.6316 142.845C94.6316 143.193 94.367 143.485 94.0189 143.499C93.6707 143.513 93.3782 143.235 93.3643 142.886C93.3503 142.538 93.6289 142.246 93.977 142.232C94.3252 142.232 94.6177 142.497 94.6316 142.845Z" fill="#B3FFFF"/>
</g>
<g style="mix-blend-mode:screen">
<path d="M360.154 212.52C360.154 212.868 359.889 213.16 359.541 213.174C359.193 213.174 358.901 212.909 358.887 212.561C358.887 212.213 359.151 211.921 359.499 211.907C359.848 211.907 360.14 212.171 360.154 212.52Z" fill="#B3FFFF"/>
</g>
<g opacity="0.65">
<g style="mix-blend-mode:screen">
<path d="M298.097 127.957C298.097 128.083 298 128.194 297.875 128.194C297.749 128.194 297.638 128.096 297.638 127.971C297.638 127.846 297.735 127.734 297.861 127.734C297.986 127.734 298.097 127.832 298.097 127.957Z" fill="#B3FFFF"/>
</g>
</g>
<g opacity="0.65">
<g style="mix-blend-mode:screen">
<path d="M39.0089 185.571C39.0089 185.697 38.9114 185.808 38.786 185.808C38.6607 185.808 38.5493 185.711 38.5493 185.585C38.5493 185.46 38.6468 185.349 38.7721 185.349C38.8974 185.349 39.0089 185.446 39.0089 185.571Z" fill="#B3FFFF"/>
</g>
</g>
<g opacity="0.65">
<g style="mix-blend-mode:screen">
<path d="M59.7311 131.718C59.7311 131.843 59.6336 131.955 59.5082 131.955C59.3829 131.955 59.2715 131.857 59.2715 131.732C59.2715 131.607 59.3689 131.495 59.4943 131.495C59.6196 131.495 59.7311 131.593 59.7311 131.718Z" fill="#B3FFFF"/>
</g>
</g>
<g opacity="0.65">
<g style="mix-blend-mode:screen">
<path d="M74.8419 258.853C74.8419 258.979 74.7445 259.09 74.6191 259.09C74.4938 259.09 74.3823 258.992 74.3823 258.867C74.3823 258.742 74.4799 258.63 74.6052 258.63C74.7305 258.63 74.8419 258.728 74.8419 258.853Z" fill="#B3FFFF"/>
</g>
</g>
<g opacity="0.65">
<g style="mix-blend-mode:screen">
<path d="M241.264 282.305C241.264 282.431 241.166 282.542 241.041 282.542C240.916 282.542 240.804 282.445 240.804 282.319C240.804 282.194 240.902 282.083 241.027 282.083C241.152 282.083 241.264 282.18 241.264 282.305Z" fill="#B3FFFF"/>
</g>
</g>
<g opacity="0.65">
<g style="mix-blend-mode:screen">
<path d="M299.351 304.059C299.351 304.184 299.254 304.295 299.128 304.295C299.003 304.295 298.892 304.198 298.892 304.073C298.892 303.947 298.989 303.836 299.114 303.836C299.24 303.836 299.351 303.933 299.351 304.059Z" fill="#B3FFFF"/>
</g>
</g>
<g opacity="0.65">
<g style="mix-blend-mode:screen">
<path d="M357.16 168.359C357.16 168.484 357.062 168.595 356.937 168.595C356.812 168.595 356.7 168.498 356.7 168.372C356.7 168.247 356.798 168.136 356.923 168.136C357.048 168.136 357.16 168.233 357.16 168.359Z" fill="#B3FFFF"/>
</g>
</g>
<g opacity="0.65">
<g style="mix-blend-mode:screen">
<path d="M163.818 27.9933C163.818 28.1187 163.72 28.2301 163.595 28.2301C163.469 28.2301 163.358 28.1326 163.358 28.0073C163.358 27.8819 163.455 27.7705 163.581 27.7705C163.706 27.7705 163.818 27.868 163.818 27.9933Z" fill="#B3FFFF"/>
</g>
</g>
<g opacity="0.65">
<g style="mix-blend-mode:screen">
<path d="M181.406 55.1222C181.406 55.2476 181.309 55.359 181.184 55.359C181.058 55.359 180.947 55.2615 180.947 55.1362C180.947 55.0108 181.044 54.8994 181.17 54.8994C181.295 54.8994 181.406 54.9969 181.406 55.1222Z" fill="#B3FFFF"/>
</g>
</g>
<g opacity="0.65">
<g style="mix-blend-mode:screen">
<path d="M146.633 75.6916C146.633 75.8169 146.535 75.9283 146.41 75.9283C146.285 75.9283 146.173 75.8308 146.173 75.7055C146.173 75.5802 146.271 75.4688 146.396 75.4688C146.522 75.4688 146.633 75.5662 146.633 75.6916Z" fill="#B3FFFF"/>
</g>
</g>
<g opacity="0.65">
<g style="mix-blend-mode:screen">
<path d="M63.9513 294.811C63.9513 294.937 63.8539 295.048 63.7285 295.048C63.6032 295.048 63.4917 294.95 63.4917 294.825C63.4917 294.7 63.5892 294.588 63.7146 294.588C63.8399 294.588 63.9513 294.686 63.9513 294.811Z" fill="#B3FFFF"/>
</g>
</g>
<g opacity="0.65">
<g style="mix-blend-mode:screen">
<path d="M81.5543 321.94C81.5543 322.065 81.4568 322.177 81.3315 322.177C81.2061 322.177 81.0947 322.079 81.0947 321.954C81.0947 321.829 81.1923 321.717 81.3176 321.717C81.4429 321.717 81.5543 321.815 81.5543 321.94Z" fill="#B3FFFF"/>
</g>
</g>
<g opacity="0.65">
<g style="mix-blend-mode:screen">
<path d="M46.7658 342.51C46.7658 342.635 46.6682 342.747 46.5429 342.747C46.4175 342.747 46.3062 342.649 46.3062 342.524C46.3062 342.399 46.4036 342.287 46.5289 342.287C46.6543 342.287 46.7658 342.385 46.7658 342.51Z" fill="#B3FFFF"/>
</g>
</g>
<g opacity="0.65">
<g style="mix-blend-mode:screen">
<path d="M100.23 169.542C100.23 169.668 100.132 169.779 100.007 169.779C99.8814 169.779 99.77 169.681 99.77 169.556C99.77 169.431 99.8675 169.319 99.9928 169.319C100.118 169.319 100.23 169.417 100.23 169.542Z" fill="#B3FFFF"/>
</g>
</g>
<g style="mix-blend-mode:screen">
<path d="M275.607 354.389C275.607 354.737 275.342 355.03 274.994 355.044C274.646 355.044 274.353 354.779 274.339 354.431C274.325 354.083 274.604 353.79 274.952 353.776C275.3 353.776 275.593 354.041 275.607 354.389Z" fill="#B3FFFF"/>
</g>
<g opacity="0.65">
<g style="mix-blend-mode:screen">
<path d="M240.707 343.248C240.707 343.374 240.609 343.485 240.484 343.485C240.358 343.485 240.247 343.387 240.247 343.262C240.247 343.137 240.345 343.025 240.47 343.025C240.595 343.025 240.707 343.123 240.707 343.248Z" fill="#B3FFFF"/>
</g>
</g>
<g opacity="0.65">
<g style="mix-blend-mode:screen">
<path d="M281.205 381.086C281.205 381.211 281.107 381.323 280.982 381.323C280.857 381.323 280.745 381.225 280.745 381.1C280.745 380.975 280.843 380.863 280.968 380.863C281.093 380.863 281.205 380.961 281.205 381.086Z" fill="#B3FFFF"/>
</g>
</g>
</g>
<defs>
<linearGradient id="paint0_linear_436_1613" x1="198.732" y1="407.532" x2="198.732" y2="371.379" gradientUnits="userSpaceOnUse">
<stop stop-color="#6241A3"/>
<stop offset="1" stop-color="#2F0253"/>
</linearGradient>
<linearGradient id="paint1_linear_436_1613" x1="274.172" y1="435.789" x2="274.172" y2="412.197" gradientUnits="userSpaceOnUse">
<stop stop-color="#31653D"/>
<stop offset="1" stop-color="white"/>
</linearGradient>
<linearGradient id="paint2_linear_436_1613" x1="87.9458" y1="438.087" x2="87.9458" y2="414.969" gradientUnits="userSpaceOnUse">
<stop stop-color="#31653D"/>
<stop offset="1" stop-color="white"/>
</linearGradient>
<linearGradient id="paint3_linear_436_1613" x1="187.716" y1="435.301" x2="187.716" y2="323.513" gradientUnits="userSpaceOnUse">
<stop offset="0.22" stop-color="#2F0253"/>
<stop offset="0.77" stop-color="#6241A3"/>
</linearGradient>
<linearGradient id="paint4_linear_436_1613" x1="305.66" y1="435.301" x2="305.66" y2="287.903" gradientUnits="userSpaceOnUse">
<stop/>
<stop offset="0.13" stop-color="#241B14"/>
<stop offset="0.56" stop-color="#987457"/>
<stop offset="0.86" stop-color="#E2AC82"/>
<stop offset="1" stop-color="#FFC293"/>
</linearGradient>
<linearGradient id="paint5_linear_436_1613" x1="317.942" y1="435.302" x2="317.942" y2="287.903" gradientUnits="userSpaceOnUse">
<stop/>
<stop offset="0.13" stop-color="#241B14"/>
<stop offset="0.56" stop-color="#987457"/>
<stop offset="0.86" stop-color="#E2AC82"/>
<stop offset="1" stop-color="#FFC293"/>
</linearGradient>
<linearGradient id="paint6_linear_436_1613" x1="258.267" y1="435.301" x2="258.267" y2="287.903" gradientUnits="userSpaceOnUse">
<stop/>
<stop offset="0.13" stop-color="#241B14"/>
<stop offset="0.56" stop-color="#987457"/>
<stop offset="0.86" stop-color="#E2AC82"/>
<stop offset="1" stop-color="#FFC293"/>
</linearGradient>
<linearGradient id="paint7_linear_436_1613" x1="288.544" y1="435.301" x2="288.544" y2="287.903" gradientUnits="userSpaceOnUse">
<stop/>
<stop offset="0.13" stop-color="#241B14"/>
<stop offset="0.56" stop-color="#987457"/>
<stop offset="0.86" stop-color="#E2AC82"/>
<stop offset="1" stop-color="#FFC293"/>
</linearGradient>
<linearGradient id="paint8_linear_436_1613" x1="140.407" y1="435.301" x2="140.407" y2="287.903" gradientUnits="userSpaceOnUse">
<stop/>
<stop offset="0.13" stop-color="#241B14"/>
<stop offset="0.56" stop-color="#987457"/>
<stop offset="0.86" stop-color="#E2AC82"/>
<stop offset="1" stop-color="#FFC293"/>
</linearGradient>
<linearGradient id="paint9_linear_436_1613" x1="69.9671" y1="435.302" x2="69.9671" y2="287.903" gradientUnits="userSpaceOnUse">
<stop/>
<stop offset="0.13" stop-color="#241B14"/>
<stop offset="0.56" stop-color="#987457"/>
<stop offset="0.86" stop-color="#E2AC82"/>
<stop offset="1" stop-color="#FFC293"/>
</linearGradient>
<linearGradient id="paint10_linear_436_1613" x1="90.9265" y1="435.301" x2="90.9265" y2="287.903" gradientUnits="userSpaceOnUse">
<stop/>
<stop offset="0.13" stop-color="#241B14"/>
<stop offset="0.56" stop-color="#987457"/>
<stop offset="0.86" stop-color="#E2AC82"/>
<stop offset="1" stop-color="#FFC293"/>
</linearGradient>
<linearGradient id="paint11_linear_436_1613" x1="49.8568" y1="435.302" x2="49.8568" y2="287.903" gradientUnits="userSpaceOnUse">
<stop/>
<stop offset="0.13" stop-color="#241B14"/>
<stop offset="0.56" stop-color="#987457"/>
<stop offset="0.86" stop-color="#E2AC82"/>
<stop offset="1" stop-color="#FFC293"/>
</linearGradient>
<linearGradient id="paint12_linear_436_1613" x1="108.362" y1="435.301" x2="108.362" y2="287.903" gradientUnits="userSpaceOnUse">
<stop/>
<stop offset="0.13" stop-color="#241B14"/>
<stop offset="0.56" stop-color="#987457"/>
<stop offset="0.86" stop-color="#E2AC82"/>
<stop offset="1" stop-color="#FFC293"/>
</linearGradient>
<linearGradient id="paint13_linear_436_1613" x1="178.19" y1="439.299" x2="178.19" y2="396.865" gradientUnits="userSpaceOnUse">
<stop stop-color="white"/>
<stop offset="0.17" stop-color="#F7F7FA"/>
<stop offset="0.42" stop-color="#E4E1ED"/>
<stop offset="0.73" stop-color="#C5BED7"/>
<stop offset="1" stop-color="#A59AC2"/>
</linearGradient>
<linearGradient id="paint14_linear_436_1613" x1="204.734" y1="240.358" x2="113.849" y2="371.379" gradientUnits="userSpaceOnUse">
<stop offset="0.58" stop-color="#6241A3"/>
<stop offset="1" stop-color="#2F0253"/>
</linearGradient>
<linearGradient id="paint15_linear_436_1613" x1="171.449" y1="295.34" x2="44.6065" y2="391.962" gradientUnits="userSpaceOnUse">
<stop offset="0.32" stop-color="white"/>
<stop offset="0.68" stop-color="#2F0253"/>
</linearGradient>
<linearGradient id="paint16_linear_436_1613" x1="344.501" y1="296.412" x2="253.63" y2="427.447" gradientUnits="userSpaceOnUse">
<stop stop-color="#2F0253"/>
<stop offset="1" stop-color="white"/>
</linearGradient>
<linearGradient id="paint17_linear_436_1613" x1="335.197" y1="289.964" x2="244.326" y2="420.985" gradientUnits="userSpaceOnUse">
<stop stop-color="#2F0253"/>
<stop offset="1" stop-color="white"/>
</linearGradient>
<linearGradient id="paint18_linear_436_1613" x1="66.2762" y1="435.287" x2="66.2762" y2="252.418" gradientUnits="userSpaceOnUse">
<stop offset="0.6"/>
<stop offset="1" stop-color="#FF95A3"/>
</linearGradient>
<linearGradient id="paint19_linear_436_1613" x1="189.039" y1="427.043" x2="189.039" y2="406.042" gradientUnits="userSpaceOnUse">
<stop stop-color="white"/>
<stop offset="0.1" stop-color="#F7F7FA"/>
<stop offset="0.24" stop-color="#E4E1ED"/>
<stop offset="0.41" stop-color="#C5BED7"/>
<stop offset="0.54" stop-color="#A89EC4"/>
<stop offset="1" stop-color="#A59AC2"/>
</linearGradient>
<linearGradient id="paint20_linear_436_1613" x1="324.613" y1="330.824" x2="324.613" y2="279.004" gradientUnits="userSpaceOnUse">
<stop/>
<stop offset="0.14" stop-color="#001B26"/>
<stop offset="0.46" stop-color="#005A7E"/>
<stop offset="0.71" stop-color="#0088BE"/>
<stop offset="0.9" stop-color="#00A5E6"/>
<stop offset="1" stop-color="#00B0F6"/>
</linearGradient>
<linearGradient id="paint21_linear_436_1613" x1="324.098" y1="435.301" x2="324.098" y2="287.903" gradientUnits="userSpaceOnUse">
<stop offset="0.6"/>
<stop offset="1" stop-color="#FF95A3"/>
</linearGradient>
<linearGradient id="paint22_linear_436_1613" x1="72.9472" y1="281.023" x2="72.9472" y2="203.146" gradientUnits="userSpaceOnUse">
<stop/>
<stop offset="0.14" stop-color="#001B26"/>
<stop offset="0.46" stop-color="#005A7E"/>
<stop offset="0.71" stop-color="#0088BE"/>
<stop offset="0.9" stop-color="#00A5E6"/>
<stop offset="1" stop-color="#00B0F6"/>
</linearGradient>
<linearGradient id="paint23_linear_436_1613" x1="124.81" y1="463.837" x2="124.81" y2="395.694" gradientUnits="userSpaceOnUse">
<stop stop-color="#605D00"/>
<stop offset="1" stop-color="#AC9C01"/>
</linearGradient>
<linearGradient id="paint24_linear_436_1613" x1="61.0815" y1="223.354" x2="93.1404" y2="223.354" gradientUnits="userSpaceOnUse">
<stop/>
<stop offset="0.1" stop-color="#000406"/>
<stop offset="0.23" stop-color="#001118"/>
<stop offset="0.38" stop-color="#002636"/>
<stop offset="0.54" stop-color="#004460"/>
<stop offset="0.72" stop-color="#006A95"/>
<stop offset="0.91" stop-color="#0098D5"/>
<stop offset="1" stop-color="#00B0F6"/>
</linearGradient>
<linearGradient id="paint25_linear_436_1613" x1="92.653" y1="242.099" x2="109.657" y2="242.099" gradientUnits="userSpaceOnUse">
<stop/>
<stop offset="0.1" stop-color="#000406"/>
<stop offset="0.23" stop-color="#001118"/>
<stop offset="0.38" stop-color="#002636"/>
<stop offset="0.54" stop-color="#004460"/>
<stop offset="0.72" stop-color="#006A95"/>
<stop offset="0.91" stop-color="#0098D5"/>
<stop offset="1" stop-color="#00B0F6"/>
</linearGradient>
<linearGradient id="paint26_linear_436_1613" x1="215.942" y1="394.922" x2="205.691" y2="254.666" gradientUnits="userSpaceOnUse">
<stop offset="0.12" stop-color="#2F0253"/>
<stop offset="1" stop-color="#8B41A3"/>
</linearGradient>
<linearGradient id="paint27_linear_436_1613" x1="190.58" y1="396.776" x2="169.73" y2="111.5" gradientUnits="userSpaceOnUse">
<stop stop-color="#A59AC2"/>
<stop offset="0.27" stop-color="#C5BED7"/>
<stop offset="0.58" stop-color="#E4E1ED"/>
<stop offset="0.83" stop-color="#F7F7FA"/>
<stop offset="0.99" stop-color="white"/>
</linearGradient>
<linearGradient id="paint28_linear_436_1613" x1="288.025" y1="203.128" x2="261.676" y2="205.054" gradientUnits="userSpaceOnUse">
<stop stop-color="#62FFFF"/>
<stop offset="1"/>
</linearGradient>
<linearGradient id="paint29_linear_436_1613" x1="259.608" y1="348.527" x2="256.984" y2="312.623" gradientUnits="userSpaceOnUse">
<stop stop-color="#62FFFF"/>
<stop offset="1"/>
</linearGradient>
<linearGradient id="paint30_linear_436_1613" x1="251.958" y1="392.29" x2="231.689" y2="114.959" gradientUnits="userSpaceOnUse">
<stop offset="0.84"/>
<stop offset="1" stop-color="#62FFFF"/>
</linearGradient>
<linearGradient id="paint31_linear_436_1613" x1="158.587" y1="223.075" x2="156.729" y2="197.643" gradientUnits="userSpaceOnUse">
<stop stop-color="#62FFFF"/>
<stop offset="1"/>
</linearGradient>
<linearGradient id="paint32_linear_436_1613" x1="209.799" y1="143.494" x2="205.851" y2="89.4783" gradientUnits="userSpaceOnUse">
<stop stop-color="#62FFFF"/>
<stop offset="1"/>
</linearGradient>
<linearGradient id="paint33_linear_436_1613" x1="123.695" y1="301.461" x2="118.408" y2="229.11" gradientUnits="userSpaceOnUse">
<stop stop-color="#62FFFF"/>
<stop offset="1"/>
</linearGradient>
<linearGradient id="paint34_linear_436_1613" x1="304.939" y1="268.917" x2="301.916" y2="227.554" gradientUnits="userSpaceOnUse">
<stop stop-color="#62FFFF"/>
<stop offset="1"/>
</linearGradient>
<linearGradient id="paint35_linear_436_1613" x1="252.544" y1="353.135" x2="250.909" y2="330.759" gradientUnits="userSpaceOnUse">
<stop offset="0.33" stop-color="#62FFFF"/>
<stop offset="1"/>
</linearGradient>
<linearGradient id="paint36_linear_436_1613" x1="303.331" y1="271.743" x2="301.636" y2="248.548" gradientUnits="userSpaceOnUse">
<stop offset="0.33" stop-color="#62FFFF"/>
<stop offset="1"/>
</linearGradient>
<linearGradient id="paint37_linear_436_1613" x1="209.906" y1="144.967" x2="208.036" y2="119.383" gradientUnits="userSpaceOnUse">
<stop offset="0.33" stop-color="#62FFFF"/>
<stop offset="1"/>
</linearGradient>
<linearGradient id="paint38_linear_436_1613" x1="129.128" y1="302.041" x2="126.142" y2="261.178" gradientUnits="userSpaceOnUse">
<stop offset="0.33" stop-color="#62FFFF"/>
<stop offset="1"/>
</linearGradient>
<linearGradient id="paint39_linear_436_1613" x1="191.483" y1="132.098" x2="186.705" y2="66.7206" gradientUnits="userSpaceOnUse">
<stop stop-color="white"/>
<stop offset="0.17" stop-color="#F7F7FA"/>
<stop offset="0.42" stop-color="#E4E1ED"/>
<stop offset="0.73" stop-color="#C5BED7"/>
<stop offset="1" stop-color="#A59AC2"/>
</linearGradient>
<linearGradient id="paint40_linear_436_1613" x1="129.242" y1="232.522" x2="120.085" y2="107.239" gradientUnits="userSpaceOnUse">
<stop stop-color="white"/>
<stop offset="0.17" stop-color="#F7F7FA"/>
<stop offset="0.42" stop-color="#E4E1ED"/>
<stop offset="0.73" stop-color="#C5BED7"/>
<stop offset="1" stop-color="#A59AC2"/>
</linearGradient>
<linearGradient id="paint41_linear_436_1613" x1="256.834" y1="353.925" x2="251.808" y2="285.159" gradientUnits="userSpaceOnUse">
<stop stop-color="white"/>
<stop offset="0.17" stop-color="#F7F7FA"/>
<stop offset="0.42" stop-color="#E4E1ED"/>
<stop offset="0.73" stop-color="#C5BED7"/>
<stop offset="1" stop-color="#A59AC2"/>
</linearGradient>
<linearGradient id="paint42_linear_436_1613" x1="272.809" y1="294.906" x2="261.916" y2="145.858" gradientUnits="userSpaceOnUse">
<stop stop-color="white"/>
<stop offset="0.17" stop-color="#F7F7FA"/>
<stop offset="0.42" stop-color="#E4E1ED"/>
<stop offset="0.73" stop-color="#C5BED7"/>
<stop offset="1" stop-color="#A59AC2"/>
</linearGradient>
<linearGradient id="paint43_linear_436_1613" x1="191.546" y1="401.711" x2="191.546" y2="369.373" gradientUnits="userSpaceOnUse">
<stop stop-color="#A59AC2"/>
<stop offset="0.27" stop-color="#C5BED7"/>
<stop offset="0.58" stop-color="#E4E1ED"/>
<stop offset="0.83" stop-color="#F7F7FA"/>
<stop offset="0.99" stop-color="white"/>
</linearGradient>
<linearGradient id="paint44_linear_436_1613" x1="249.452" y1="460.257" x2="249.452" y2="405.484" gradientUnits="userSpaceOnUse">
<stop stop-color="#605D00"/>
<stop offset="1" stop-color="#AC9C01"/>
</linearGradient>
<linearGradient id="paint45_linear_436_1613" x1="223.91" y1="456.261" x2="223.91" y2="418.827" gradientUnits="userSpaceOnUse">
<stop stop-color="#605D00"/>
<stop offset="1" stop-color="#AC9C01"/>
</linearGradient>
<linearGradient id="paint46_linear_436_1613" x1="124.823" y1="541.004" x2="124.823" y2="399.134" gradientUnits="userSpaceOnUse">
<stop stop-color="white"/>
<stop offset="1" stop-color="#31653D"/>
</linearGradient>
<linearGradient id="paint47_linear_436_1613" x1="253.226" y1="518.652" x2="253.226" y2="415.289" gradientUnits="userSpaceOnUse">
<stop stop-color="white"/>
<stop offset="1" stop-color="#31653D"/>
</linearGradient>
<linearGradient id="paint48_linear_436_1613" x1="223.911" y1="496.857" x2="223.911" y2="422.489" gradientUnits="userSpaceOnUse">
<stop stop-color="white"/>
<stop offset="1" stop-color="#31653D"/>
</linearGradient>
<linearGradient id="paint49_linear_436_1613" x1="160.364" y1="486.815" x2="160.364" y2="415.149" gradientUnits="userSpaceOnUse">
<stop stop-color="#605D00"/>
<stop offset="1" stop-color="#AC9C01"/>
</linearGradient>
<linearGradient id="paint50_linear_436_1613" x1="31.5989" y1="320.268" x2="31.5989" y2="287.513" gradientUnits="userSpaceOnUse">
<stop stop-color="white"/>
<stop offset="0.08" stop-color="#F7F7FA"/>
<stop offset="0.19" stop-color="#E4E1ED"/>
<stop offset="0.32" stop-color="#C5BED7"/>
<stop offset="0.43" stop-color="#A59AC2"/>
</linearGradient>
<linearGradient id="paint51_linear_436_1613" x1="331.743" y1="350.781" x2="331.743" y2="323.889" gradientUnits="userSpaceOnUse">
<stop stop-color="white"/>
<stop offset="0.08" stop-color="#F7F7FA"/>
<stop offset="0.19" stop-color="#E4E1ED"/>
<stop offset="0.32" stop-color="#C5BED7"/>
<stop offset="0.43" stop-color="#A59AC2"/>
</linearGradient>
<linearGradient id="paint52_linear_436_1613" x1="122.4" y1="472.388" x2="122.4" y2="415.428" gradientUnits="userSpaceOnUse">
<stop/>
<stop offset="0.43" stop-color="#494500"/>
<stop offset="1" stop-color="#B0A802"/>
</linearGradient>
<linearGradient id="paint53_linear_436_1613" x1="264.785" y1="473.975" x2="264.785" y2="422.057" gradientUnits="userSpaceOnUse">
<stop/>
<stop offset="0.43" stop-color="#494500"/>
<stop offset="1" stop-color="#B0A802"/>
</linearGradient>
<linearGradient id="paint54_linear_436_1613" x1="229.495" y1="466.483" x2="229.495" y2="429.327" gradientUnits="userSpaceOnUse">
<stop/>
<stop offset="0.43" stop-color="#494500"/>
<stop offset="1" stop-color="#B0A802"/>
</linearGradient>
<linearGradient id="paint55_linear_436_1613" x1="156.98" y1="490.116" x2="156.98" y2="413.979" gradientUnits="userSpaceOnUse">
<stop/>
<stop offset="0.43" stop-color="#494500"/>
<stop offset="1" stop-color="#B0A802"/>
</linearGradient>
<linearGradient id="paint56_linear_436_1613" x1="115.618" y1="481.189" x2="115.618" y2="479.964" gradientUnits="userSpaceOnUse">
<stop stop-color="#605D00"/>
<stop offset="1" stop-color="#AC9C01"/>
</linearGradient>
<linearGradient id="paint57_linear_436_1613" x1="254.577" y1="466.079" x2="254.577" y2="429.257" gradientUnits="userSpaceOnUse">
<stop/>
<stop offset="0.13" stop-color="#241B14"/>
<stop offset="0.56" stop-color="#987457"/>
<stop offset="0.86" stop-color="#E2AC82"/>
<stop offset="1" stop-color="#FFC293"/>
</linearGradient>
<linearGradient id="paint58_linear_436_1613" x1="152.176" y1="474.964" x2="152.176" y2="422.308" gradientUnits="userSpaceOnUse">
<stop/>
<stop offset="0.13" stop-color="#241B14"/>
<stop offset="0.56" stop-color="#987457"/>
<stop offset="0.86" stop-color="#E2AC82"/>
<stop offset="1" stop-color="#FFC293"/>
</linearGradient>
<linearGradient id="paint59_linear_436_1613" x1="243.979" y1="464.059" x2="243.979" y2="424.216" gradientUnits="userSpaceOnUse">
<stop/>
<stop offset="0.13" stop-color="#241B14"/>
<stop offset="0.56" stop-color="#987457"/>
<stop offset="0.86" stop-color="#E2AC82"/>
<stop offset="1" stop-color="#FFC293"/>
</linearGradient>
<linearGradient id="paint60_linear_436_1613" x1="126.801" y1="478.613" x2="126.801" y2="443.504" gradientUnits="userSpaceOnUse">
<stop/>
<stop offset="0.13" stop-color="#241B14"/>
<stop offset="0.56" stop-color="#987457"/>
<stop offset="0.86" stop-color="#E2AC82"/>
<stop offset="1" stop-color="#FFC293"/>
</linearGradient>
<linearGradient id="paint61_linear_436_1613" x1="281.789" y1="451.359" x2="281.789" y2="442.724" gradientUnits="userSpaceOnUse">
<stop/>
<stop offset="0.13" stop-color="#241B14"/>
<stop offset="0.56" stop-color="#987457"/>
<stop offset="0.86" stop-color="#E2AC82"/>
<stop offset="1" stop-color="#FFC293"/>
</linearGradient>
<linearGradient id="paint62_linear_436_1613" x1="160.559" y1="519" x2="160.559" y2="438.504" gradientUnits="userSpaceOnUse">
<stop stop-color="white"/>
<stop offset="1" stop-color="#31653D"/>
</linearGradient>
<linearGradient id="paint63_linear_436_1613" x1="64.6472" y1="265.189" x2="47.8657" y2="281.971" gradientUnits="userSpaceOnUse">
<stop stop-color="#00B0F6"/>
<stop offset="0.09" stop-color="#0098D5"/>
<stop offset="0.28" stop-color="#006A95"/>
<stop offset="0.46" stop-color="#004460"/>
<stop offset="0.62" stop-color="#002636"/>
<stop offset="0.77" stop-color="#001118"/>
<stop offset="0.9" stop-color="#000406"/>
<stop offset="1"/>
</linearGradient>
<linearGradient id="paint64_linear_436_1613" x1="152.635" y1="390.57" x2="152.635" y2="379.443" gradientUnits="userSpaceOnUse">
<stop/>
<stop offset="0.1" stop-color="#000406"/>
<stop offset="0.23" stop-color="#001118"/>
<stop offset="0.38" stop-color="#002636"/>
<stop offset="0.54" stop-color="#004460"/>
<stop offset="0.72" stop-color="#006A95"/>
<stop offset="0.91" stop-color="#0098D5"/>
<stop offset="1" stop-color="#00B0F6"/>
</linearGradient>
<linearGradient id="paint65_linear_436_1613" x1="121.105" y1="368.413" x2="121.105" y2="354.904" gradientUnits="userSpaceOnUse">
<stop/>
<stop offset="0.1" stop-color="#000406"/>
<stop offset="0.23" stop-color="#001118"/>
<stop offset="0.38" stop-color="#002636"/>
<stop offset="0.54" stop-color="#004460"/>
<stop offset="0.72" stop-color="#006A95"/>
<stop offset="0.91" stop-color="#0098D5"/>
<stop offset="1" stop-color="#00B0F6"/>
</linearGradient>
<linearGradient id="paint66_linear_436_1613" x1="64.2431" y1="228.645" x2="39.997" y2="252.892" gradientUnits="userSpaceOnUse">
<stop stop-color="#00B0F6"/>
<stop offset="0.09" stop-color="#0098D5"/>
<stop offset="0.28" stop-color="#006A95"/>
<stop offset="0.46" stop-color="#004460"/>
<stop offset="0.62" stop-color="#002636"/>
<stop offset="0.77" stop-color="#001118"/>
<stop offset="0.9" stop-color="#000406"/>
<stop offset="1"/>
</linearGradient>
<linearGradient id="paint67_linear_436_1613" x1="80.1057" y1="303.751" x2="68.3796" y2="315.491" gradientUnits="userSpaceOnUse">
<stop stop-color="#00B0F6"/>
<stop offset="0.09" stop-color="#0098D5"/>
<stop offset="0.28" stop-color="#006A95"/>
<stop offset="0.46" stop-color="#004460"/>
<stop offset="0.62" stop-color="#002636"/>
<stop offset="0.77" stop-color="#001118"/>
<stop offset="0.9" stop-color="#000406"/>
<stop offset="1"/>
</linearGradient>
<linearGradient id="paint68_linear_436_1613" x1="310.646" y1="307.331" x2="319.823" y2="316.495" gradientUnits="userSpaceOnUse">
<stop stop-color="#00B0F6"/>
<stop offset="0.09" stop-color="#0098D5"/>
<stop offset="0.28" stop-color="#006A95"/>
<stop offset="0.46" stop-color="#004460"/>
<stop offset="0.62" stop-color="#002636"/>
<stop offset="0.77" stop-color="#001118"/>
<stop offset="0.9" stop-color="#000406"/>
<stop offset="1"/>
</linearGradient>
<linearGradient id="paint69_linear_436_1613" x1="253.352" y1="374.972" x2="260.245" y2="381.852" gradientUnits="userSpaceOnUse">
<stop stop-color="#00B0F6"/>
<stop offset="0.09" stop-color="#0098D5"/>
<stop offset="0.28" stop-color="#006A95"/>
<stop offset="0.46" stop-color="#004460"/>
<stop offset="0.62" stop-color="#002636"/>
<stop offset="0.77" stop-color="#001118"/>
<stop offset="0.9" stop-color="#000406"/>
<stop offset="1"/>
</linearGradient>
<linearGradient id="paint70_linear_436_1613" x1="282.848" y1="349.18" x2="290.118" y2="356.449" gradientUnits="userSpaceOnUse">
<stop stop-color="#00B0F6"/>
<stop offset="0.09" stop-color="#0098D5"/>
<stop offset="0.28" stop-color="#006A95"/>
<stop offset="0.46" stop-color="#004460"/>
<stop offset="0.62" stop-color="#002636"/>
<stop offset="0.77" stop-color="#001118"/>
<stop offset="0.9" stop-color="#000406"/>
<stop offset="1"/>
</linearGradient>
<linearGradient id="paint71_linear_436_1613" x1="228.005" y1="396.976" x2="228.005" y2="391.753" gradientUnits="userSpaceOnUse">
<stop/>
<stop offset="0.1" stop-color="#000406"/>
<stop offset="0.23" stop-color="#001118"/>
<stop offset="0.38" stop-color="#002636"/>
<stop offset="0.54" stop-color="#004460"/>
<stop offset="0.72" stop-color="#006A95"/>
<stop offset="0.91" stop-color="#0098D5"/>
<stop offset="1" stop-color="#00B0F6"/>
</linearGradient>
</defs>
</svg>
