<svg width="821" height="831" viewBox="0 0 821 831" fill="none" xmlns="http://www.w3.org/2000/svg">
<path style="mix-blend-mode:screen" opacity="0.61" d="M191.56 774.672C538.696 743.752 805.776 557.803 788.099 359.343C770.421 160.883 474.682 25.0657 127.546 55.9857C-219.591 86.9057 -486.67 272.855 -468.993 471.314C-451.316 669.774 -155.576 805.592 191.56 774.672Z" fill="url(#paint0_radial_485_9)" fill-opacity="0.7"/>
<path style="mix-blend-mode:screen" opacity="0.2" d="M275.113 407.179C350.617 352.775 403.593 297.281 393.45 283.224C383.308 269.167 313.881 301.869 238.399 356.273C162.895 410.678 109.919 466.172 120.062 480.229C130.204 494.285 199.631 461.584 275.113 407.179Z" fill="url(#paint1_radial_485_9)"/>
<path d="M263.567 348.438C263.567 348.438 247.054 356.797 244.581 363.396C242.108 369.995 240.998 380.009 240.998 380.009L244.539 377.222C244.539 377.222 248.102 364.213 250.616 362.935C253.131 361.657 258.978 359.269 258.978 359.269L263.567 348.438Z" fill="url(#paint2_linear_485_9)"/>
<path d="M260.822 404.184C260.822 404.184 256.211 408.416 244.141 407.117C232.07 405.818 224.715 406.363 224.715 406.363L227.649 403.849C227.649 403.849 246.991 403.891 249.38 402.361C251.769 400.832 260.822 404.184 260.822 404.184Z" fill="url(#paint3_linear_485_9)"/>
<path d="M146.717 458.903L150.867 456.263L161.156 449.685L189.216 431.774L370.252 316.198L387.289 289.865L354.054 298.852L156.923 433.743L133.955 449.476L133.934 459.028L146.717 458.903Z" fill="url(#paint4_linear_485_9)"/>
<path style="mix-blend-mode:multiply" opacity="0.7" d="M354.054 298.852L356.128 312.742L370.253 316.177L387.29 289.865L354.054 298.852Z" fill="url(#paint5_linear_485_9)"/>
<path style="mix-blend-mode:multiply" opacity="0.7" d="M356.128 312.742L387.29 289.865L370.253 316.177L356.128 312.742Z" fill="url(#paint6_linear_485_9)"/>
<path style="mix-blend-mode:multiply" opacity="0.7" d="M356.128 312.741L133.934 459.028L146.717 458.903L370.252 316.177L356.128 312.741Z" fill="url(#paint7_linear_485_9)"/>
<path style="mix-blend-mode:multiply" opacity="0.7" d="M354.054 298.852L357.91 311.338L387.29 289.844C387.29 289.844 365.957 307.546 367.34 311.778C368.702 316.01 370.253 316.177 370.253 316.177L356.128 312.721L354.054 298.831V298.852Z" fill="url(#paint8_linear_485_9)"/>
<path style="mix-blend-mode:screen" opacity="0.4" d="M363.442 309.83C363.295 308.761 364.699 307.399 373.249 301.24C378.341 297.574 380.898 295.731 381.212 295.877C382.763 296.611 374.339 310.605 367.36 311.422C365.516 311.652 363.609 310.961 363.442 309.809V309.83Z" fill="url(#paint9_linear_485_9)"/>
<path style="mix-blend-mode:screen" opacity="0.4" d="M355.395 301.073C355.562 298.224 367.319 295.375 368.513 297.533C369.351 299.02 365.935 304.341 361.074 304.278C358.391 304.257 355.29 302.56 355.374 301.073H355.395Z" fill="url(#paint10_linear_485_9)"/>
<path d="M356.338 300.654C356.254 300.172 357.846 299.544 358.685 299.208C359.712 298.81 361.157 298.224 361.388 298.58C361.66 298.999 360.214 300.905 358.349 301.157C357.469 301.282 356.401 301.031 356.338 300.654Z" fill="white"/>
<path style="mix-blend-mode:multiply" opacity="0.7" d="M356.128 312.741L133.934 459.028L146.717 458.903C145.858 450.816 265.83 376.783 356.128 312.72V312.741Z" fill="url(#paint11_linear_485_9)"/>
<path style="mix-blend-mode:screen" opacity="0.7" d="M155.686 437.975C155.037 436.969 165.913 428.694 174.526 422.954C177.376 421.048 189.509 412.961 190.263 413.946C190.976 414.889 181.315 424.358 169.287 431.606C163.796 434.937 156.21 438.75 155.686 437.954V437.975Z" fill="url(#paint12_linear_485_9)"/>
<path style="mix-blend-mode:screen" opacity="0.4" d="M228.005 390.504C227.041 388.954 230.54 385.141 232.343 383.465C234.92 381.077 239.803 377.683 241.039 378.815C242.548 380.197 239.069 388.786 232.887 390.735C231.316 391.237 228.696 391.573 228.005 390.504Z" fill="url(#paint13_linear_485_9)"/>
<path style="mix-blend-mode:screen" opacity="0.4" d="M235.109 383.214C234.773 382.481 238.629 379.695 246.341 374.143C254.555 368.235 255.142 368.215 255.394 368.424C256.358 369.304 253.151 376.112 247.221 380.093C242.087 383.528 235.632 384.387 235.109 383.214Z" fill="url(#paint14_linear_485_9)"/>
<path style="mix-blend-mode:screen" opacity="0.7" d="M275.721 357.153C274.841 355.813 295.587 340.478 311.974 329.459C327.482 319.047 344.351 308.74 345.294 310.102C346.216 311.443 332.155 323.844 311.241 337.503C295.419 347.831 276.538 358.389 275.721 357.153Z" fill="url(#paint15_linear_485_9)"/>
<path style="mix-blend-mode:screen" opacity="0.4" d="M332.49 313.6C332.49 313.6 352.608 300.402 353.006 305.912C353.593 313.747 267.108 371.21 267.108 371.21L356.128 312.72L354.054 298.831L332.49 313.579V313.6Z" fill="url(#paint16_linear_485_9)"/>
<path style="mix-blend-mode:multiply" opacity="0.7" d="M316.04 348.103C315.369 347.161 324.611 336.77 333.559 331.218C343.094 325.311 354.892 320.681 355.437 321.708C356.463 323.677 317.318 349.905 316.04 348.082V348.103Z" fill="url(#paint17_linear_485_9)"/>
<path style="mix-blend-mode:multiply" opacity="0.7" d="M259.375 381.287C262.938 378.417 266.102 375.966 268.722 373.954C276.936 367.691 280.31 365.533 285.025 364.486C285.465 364.381 290.872 363.229 291.249 364.234C291.689 365.386 285.591 369.409 259.396 381.287H259.375Z" fill="url(#paint18_linear_485_9)"/>
<path style="mix-blend-mode:multiply" opacity="0.7" d="M250.344 388.095C249.38 386.377 274.862 369.01 276.098 370.519C276.727 371.294 271.174 377.222 265.641 381.161C259.103 385.832 250.847 388.996 250.344 388.074V388.095Z" fill="url(#paint19_linear_485_9)"/>
<g style="mix-blend-mode:multiply" opacity="0.6">
<path d="M136.763 451.277C139.76 447.967 153.675 448.91 161.156 449.706L189.195 431.795C183.159 432.884 167.589 435.314 156.923 433.764L133.934 449.497V459.049L146.717 458.924L150.867 456.284C145.795 456.012 133.452 454.964 136.763 451.298V451.277Z" fill="#B53356"/>
</g>
<path d="M191.919 445.516C204.471 443.086 209.564 429.155 212.141 416.753C212.225 416.334 212.309 415.915 212.393 415.517C212.644 414.281 212.854 413.066 213.063 411.872C214.258 404.833 214.803 398.968 215.767 397.124C216.06 396.579 216.374 396.14 216.773 395.762C220.293 392.39 228.361 395.323 241.249 401.104C242.255 401.544 243.24 401.963 244.225 402.361C244.225 402.361 244.266 402.382 244.287 402.403C247.661 403.744 250.868 404.687 253.718 405.001C253.738 405.001 253.759 405.001 253.801 405.001C261.953 405.902 267.15 401.67 264.719 386.608C264.531 385.414 264.363 384.261 264.237 383.151C264.154 382.397 264.07 381.685 264.007 380.993C262.351 363.417 268.156 357.74 268.156 357.74C268.156 357.74 268.303 357.74 268.449 357.803C271.614 358.306 297.892 361.846 313.63 358.285C314.468 358.096 315.286 357.887 316.061 357.656C331.945 352.817 346.426 331.868 346.929 331.135C346.489 331.512 337.939 338.718 318.743 345.967C308.664 349.779 296.593 350.177 286.115 349.758H286.094C276.077 349.36 267.506 348.166 263.588 348.481C261.366 348.648 259.711 350.953 258.37 354.367C254.87 363.354 253.529 380.093 249.883 386.293C248.101 389.352 244.748 390.525 240.767 390.483C234.501 390.399 226.601 387.299 220.398 383.633H220.377C219.413 383.067 218.512 382.502 217.653 381.915C216.563 381.182 215.578 380.679 214.698 380.365C208.977 378.354 207.196 384.261 206.693 386.985V387.027C206.609 387.404 206.567 387.718 206.546 387.948V388.137L206.504 388.305C206.504 388.305 200.532 391.426 195.586 394.087C190.641 396.747 198.876 422.745 189.111 431.69C183.222 437.095 171.906 437.388 161.177 436.571C154.136 436.026 147.765 435.168 144.224 435.272C135.716 435.524 128.947 452.262 128.318 453.896V453.917C128.318 453.938 128.297 453.98 128.276 453.98C128.276 454.001 128.276 454.022 128.276 454.022L4.11353 544.752L136.24 464.747L143.574 460.642L146.696 458.903L133.913 459.028V449.476C133.913 449.476 137.497 447.171 141.458 446.166C145.418 445.16 166.374 450.439 191.877 445.516H191.919ZM199.337 416.795C199.337 416.795 194.748 398.276 198.415 395.804C202.104 393.332 206.525 391.133 206.525 391.133C206.022 395.427 205.373 399.429 204.534 403.095C203.277 408.52 201.601 413.171 199.337 416.795Z" fill="url(#paint20_linear_485_9)"/>
<path style="mix-blend-mode:multiply" opacity="0.56" d="M212.12 416.753C214.929 403.534 209.899 397.92 215.222 393.269C209.606 383.57 212.686 380.993 214.635 380.323C208.914 378.312 207.133 384.219 206.63 386.943V386.985C206.421 388.514 206.42 389.855 206.504 391.153C206.001 395.448 205.352 399.449 204.514 403.115C205.645 399.701 208.348 389.519 209.627 389.876C211.995 390.546 212.246 433.156 195.398 442.395C178.549 451.633 146.969 441.305 139.928 442.835C133.306 444.259 128.779 452.869 128.256 453.875C128.256 453.896 128.235 453.938 128.214 453.938C128.214 453.959 128.214 453.98 128.214 453.98L133.935 449.496C133.935 449.496 137.518 447.192 141.458 446.187C145.418 445.181 166.374 450.46 191.877 445.537C204.43 443.107 209.522 429.176 212.1 416.774L212.12 416.753Z" fill="url(#paint21_linear_485_9)"/>
<g style="mix-blend-mode:multiply" opacity="0.6">
<path d="M244.204 402.319C235.884 397.292 222.451 390.001 216.647 392.39C210.465 394.924 213.503 403.094 213.063 411.872C214.258 404.833 214.803 398.968 215.767 397.124C216.06 396.579 216.374 396.139 216.772 395.762C220.293 392.39 228.361 395.322 241.249 401.104C242.255 401.544 243.24 401.963 244.224 402.361L244.204 402.319Z" fill="#B53356"/>
</g>
<path style="mix-blend-mode:multiply" opacity="0.56" d="M256.672 366.79C256.526 367.691 255.792 391.321 240.767 390.441C234.501 390.357 226.601 387.257 220.398 383.591C227.209 388.933 243.533 401.167 251.475 402.068C261.492 403.199 256.714 367.858 256.672 366.79Z" fill="url(#paint22_linear_485_9)"/>
<g style="mix-blend-mode:multiply" opacity="0.6">
<path d="M264.698 386.587C264.51 385.393 264.342 384.24 264.216 383.13C264.614 391.552 262.54 398.13 257.95 401.44C250.993 406.446 231.337 391.866 230.163 390.986C236.911 396.684 244.895 403.555 253.675 404.959C253.696 404.959 253.717 404.959 253.759 404.959C261.911 405.86 267.108 401.628 264.677 386.566L264.698 386.587Z" fill="#B53356"/>
</g>
<g style="mix-blend-mode:multiply" opacity="0.6">
<path d="M313.63 358.264C312.918 354.346 294.225 352.23 284.795 351.078C273.877 349.737 268.156 357.719 268.156 357.719C268.848 357.845 297.096 362.013 313.63 358.264Z" fill="#B53356"/>
</g>
<path style="mix-blend-mode:multiply" opacity="0.56" d="M268.156 357.719C268.156 357.719 269.665 355.959 271.069 354.828C275.071 351.56 280.625 350.45 286.094 349.716C276.077 349.318 267.506 348.124 263.588 348.439C261.366 348.606 259.711 350.911 258.37 354.325C259.753 352.586 261.764 350.764 263.42 351.895C266.291 353.843 261.618 359.479 261.45 368.256C261.282 376.636 263.776 380.595 264.007 380.951C262.351 363.375 268.156 357.719 268.156 357.719Z" fill="url(#paint23_linear_485_9)"/>
<path style="mix-blend-mode:multiply" opacity="0.56" d="M287.058 349.758C287.058 349.758 308.663 355.666 319.351 352.88C330.059 350.094 346.929 331.093 346.929 331.093C346.929 331.093 336.199 339.828 318.743 345.925C301.266 352.021 287.058 349.737 287.058 349.737V349.758Z" fill="url(#paint24_linear_485_9)"/>
<path style="mix-blend-mode:screen" opacity="0.5" d="M145.9 437.43C149.484 436.739 155.77 436.529 161.135 436.487C154.094 435.943 147.723 435.084 144.182 435.188C135.674 435.44 128.905 452.178 128.276 453.812C128.549 453.267 133.872 442.395 141.52 442.332C149.064 442.269 154.094 443.903 154.471 443.987C153.738 443.736 138.964 438.75 145.9 437.409V437.43Z" fill="url(#paint25_linear_485_9)"/>
<path style="mix-blend-mode:multiply" opacity="0.56" d="M162.77 437.807C162.916 436.592 178.046 439.294 189.551 433.177C201.454 426.851 204.052 406.53 205.247 406.928C206.546 407.347 206.986 433.91 191.165 441.997C178.675 448.386 162.602 439.19 162.77 437.828V437.807Z" fill="url(#paint26_linear_485_9)"/>
<path style="mix-blend-mode:multiply" opacity="0.56" d="M4.11353 544.752L136.261 464.747L143.595 460.662L146.717 458.903L133.934 459.028L131.105 460.746L95.4387 483.434L4.11353 544.752Z" fill="url(#paint27_linear_485_9)"/>
<path style="mix-blend-mode:multiply" opacity="0.7" d="M136.26 464.747L143.595 460.641L146.717 458.903L133.934 459.028L131.105 460.767L95.4177 483.434C108.473 476.353 139.467 459.049 136.24 464.747C136.24 464.747 136.24 464.754 136.24 464.768L136.26 464.747Z" fill="url(#paint28_linear_485_9)"/>
<path style="mix-blend-mode:screen" opacity="0.8" d="M112.455 472.561C89.0053 487.54 46.989 515.842 4.11353 544.752L128.214 453.959C128.214 453.959 86.5954 485.277 90.3884 483.371C93.8251 481.653 112.455 472.561 112.455 472.561Z" fill="url(#paint29_linear_485_9)"/>
<g style="mix-blend-mode:multiply" opacity="0.6">
<path d="M143.595 460.662L146.718 458.903L133.934 459.028L133.955 449.476L130.833 451.906L130.728 460.746H131.105L143.595 460.662Z" fill="#B53356"/>
</g>
<g style="mix-blend-mode:multiply" opacity="0.6">
<path d="M199.337 416.816C199.337 416.816 194.748 398.297 198.415 395.825C202.103 393.353 206.525 391.154 206.525 391.154C206.525 391.154 197.451 393.311 195.523 397.711C193.595 402.11 199.337 416.816 199.337 416.816Z" fill="#B53356"/>
</g>
<path style="mix-blend-mode:screen" opacity="0.7" d="M205.624 404.079C204.388 403.493 208.286 390.986 209.648 391.237C211.555 391.614 209.333 417.193 208.872 417.088C208.788 417.088 209.941 403.325 207.804 402.738C207.007 402.529 206.106 404.289 205.624 404.058V404.079Z" fill="url(#paint30_linear_485_9)"/>
<path style="mix-blend-mode:screen" opacity="0.7" d="M259.459 365.344C258.349 364.653 258.558 356.965 260.843 353.76C261.89 352.293 262.645 352 263.315 352.482C264.007 352.985 264.028 355.477 262.875 357.635C261.262 360.652 260.402 365.931 259.459 365.344Z" fill="url(#paint31_linear_485_9)"/>
<path style="mix-blend-mode:screen" opacity="0.4" d="M279.137 308.216C288.525 345.401 392.906 331.826 399.968 367.942C406.233 400.12 332.532 457.688 288.63 440.949C239.09 422.032 258.453 320.325 217.087 308.614C175.091 296.715 98.142 385.414 115.619 424.148C133.746 464.37 248.688 439.713 252.733 462.904C254.954 475.599 223.395 499.418 189.97 500.13C135.297 501.282 103.318 440.069 79.6171 452.241C64.3822 460.076 64.1098 492.295 67.1693 493.385C69.8098 494.327 73.8333 471.954 86.0714 469.21C106.21 464.643 116.96 520.325 157.426 534.633C196.969 548.585 256.442 520.053 261.618 485.843C264.531 466.57 249.694 449.14 247.347 446.396C222.137 416.795 183.725 427.751 177.837 410.217C171.906 392.578 203.109 358.662 222.368 363.459C237.204 367.146 235.926 391.531 253.759 431.187C264.195 454.42 288.19 507.777 318.471 512.364C368.995 520.011 447.789 393.269 417.508 346.93C396.133 314.229 331.861 339.095 318.282 309.327C304.556 279.244 349.967 209.484 398.731 212.752C420.043 214.197 447.977 229.972 450.45 254.419C453.447 283.937 417.633 310.332 408.476 305.367C398.124 299.774 416.816 251.633 414.197 250.858C411.158 249.957 378.823 312.05 395.546 327.133C408.643 338.907 451.582 321.833 470.903 290.913C490.958 258.819 487.521 208.688 463.61 192.536C414.511 159.416 267.192 261.123 279.116 308.258L279.137 308.216ZM175.385 530.674C168.658 526.652 168.071 517.267 170.858 514.983C175.238 511.38 192.506 521.435 191.542 526.966C190.934 530.527 182.258 534.78 175.385 530.674ZM150.573 495.71C162.602 502.141 168.323 519.026 163.754 523.928C159.71 528.307 147.325 523.426 140.494 519.026C132.488 513.873 122.576 503.273 125.51 497.218C128.234 491.583 141.52 490.85 150.573 495.689V495.71ZM242.967 507.421C243.952 512.176 227.963 522.043 211.429 522.567C194.601 523.09 178.004 513.915 178.738 509.18C179.45 504.571 196.76 503.713 207.51 503.168C214.446 502.833 241.752 501.513 242.967 507.4V507.421ZM253.676 491.101C255.436 494.998 252.146 500.822 249.568 500.822C247.85 500.822 246.32 498.14 246.027 495.961C245.545 492.379 248.122 488.399 250.553 488.441C252.02 488.483 253.194 490.033 253.676 491.101ZM162.497 402.319C159.961 401.712 159.018 397.438 158.515 395.281C156.294 385.33 161.114 374.143 164.488 374.269C165.871 374.311 166.94 376.51 169.056 380.909C171.194 385.288 172.304 387.592 172.179 390.525C171.906 396.831 165.997 403.199 162.476 402.319H162.497ZM163.314 349.444C164.739 350.303 161.156 363.27 153.926 389.184C144.664 422.389 141.919 430.056 136.198 431.124C129.869 432.339 121.591 425.175 118.511 417.277C107.907 390.022 156.022 345.045 163.335 349.465L163.314 349.444ZM201.873 345.778C191.186 364.59 179.094 376.95 172.786 373.724C167.946 371.252 164.32 364.444 170.712 351.099C182.279 326.819 200.343 319.34 205.226 323.551C209.333 327.071 207.007 336.77 201.894 345.778H201.873ZM328.928 476.5C331.694 478.637 347.285 490.745 344.372 498.287C341.648 505.409 322.955 506.708 309.104 501.073C289.866 493.28 276.475 470.76 281.442 463.595C286.597 456.179 312.394 463.637 328.928 476.5ZM335.864 474.51C336.933 470.823 347.117 468.832 353.928 472.855C358.559 475.599 362.415 481.59 360.697 484.607C358.915 487.749 351.644 486.681 347.641 485.34C341.585 483.329 334.858 477.945 335.864 474.51ZM309.984 458.84C308.517 460.914 298.919 458.148 298.626 455.048C298.458 453.267 301.308 451.089 303.99 451.11C308.496 451.11 311.115 457.227 309.963 458.84H309.984ZM391.208 412.459C393.157 414.156 388.107 441.243 377.524 453.079C366.313 465.564 347.872 468.916 331.903 466.298C324.38 465.083 316.312 459.72 316.648 455.153C317.109 448.763 333.475 449.224 354.934 438.373C378.383 426.515 389.176 410.636 391.229 412.459H391.208ZM418.744 389.352C424.905 393.458 399.276 448.114 392.403 446.082C389.343 445.181 390.391 433.261 390.747 429.365C391.145 424.84 392.759 413.841 401.099 403.262C405.71 397.438 415.789 387.362 418.765 389.352H418.744ZM316.606 252.681C318.555 253.854 302.607 271.074 303.487 298.035C303.844 309.767 307.259 318.188 303.194 320.995C299.045 323.865 288.756 319.801 284.816 313.014C273.563 293.573 313.504 250.795 316.606 252.681ZM470.253 259.552C473.25 265.355 475.115 274.321 471.867 276.374C468.975 278.217 462.521 274.216 459.042 269.607C453.258 261.961 453.573 249.873 457.303 248.26C460.656 246.794 467.131 253.54 470.253 259.552ZM444.017 195.322C472.936 207.515 479.348 249.056 474.214 252.262C472.16 253.54 467.047 249.015 456.779 239.965C442.173 227.102 441.125 222.346 433.811 216.816C414.595 202.256 390.098 211.097 389.427 207.242C388.652 202.927 418.241 184.471 444.017 195.343V195.322Z" fill="url(#paint32_linear_485_9)"/>
<path style="mix-blend-mode:screen" opacity="0.3" d="M227.367 460.549C262.788 457.357 288.916 426.064 285.723 390.654C282.531 355.243 251.227 329.125 215.806 332.316C180.384 335.508 154.256 366.801 157.449 402.211C160.641 437.622 191.945 463.74 227.367 460.549Z" fill="url(#paint33_radial_485_9)"/>
<path style="mix-blend-mode:screen" opacity="0.3" d="M381.215 356.206C405.607 337.965 410.588 303.411 392.341 279.027C374.094 254.643 339.528 249.664 315.136 267.905C290.745 286.147 285.764 320.701 304.011 345.085C322.258 369.468 356.824 374.448 381.215 356.206Z" fill="url(#paint34_radial_485_9)"/>
<path style="mix-blend-mode:screen" opacity="0.3" d="M79.128 528.405C113.289 505.647 133.75 476.349 124.828 462.967C115.907 449.584 80.9822 457.184 46.8214 479.942C12.6606 502.7 -7.80014 531.997 1.12109 545.38C10.0423 558.763 44.9672 551.163 79.128 528.405Z" fill="url(#paint35_radial_485_9)"/>
<path style="mix-blend-mode:screen" opacity="0.3" d="M234.136 435.669C256.656 420.672 263.276 391.053 248.922 369.513C234.568 347.974 204.677 342.669 182.157 357.666C159.637 372.663 153.018 402.282 167.371 423.822C181.725 445.362 211.617 450.666 234.136 435.669Z" fill="url(#paint36_radial_485_9)"/>
<path style="mix-blend-mode:screen" opacity="0.3" d="M224.017 420.484C237.771 411.324 241.816 393.236 233.051 380.083C224.286 366.929 206.031 363.692 192.276 372.852C178.522 382.012 174.477 400.1 183.242 413.253C192.007 426.406 210.262 429.643 224.017 420.484Z" fill="url(#paint37_radial_485_9)"/>
<defs>
<radialGradient id="paint0_radial_485_9" cx="0" cy="0" r="1" gradientUnits="userSpaceOnUse" gradientTransform="translate(136.324 417.625) rotate(-5.09) scale(630.225 360.749)">
<stop stop-color="#00F2FF"/>
<stop offset="1" stop-color="#009199" stop-opacity="0"/>
</radialGradient>
<radialGradient id="paint1_radial_485_9" cx="0" cy="0" r="1" gradientUnits="userSpaceOnUse" gradientTransform="translate(259.231 379.478) rotate(54.2112) scale(31.076 169.071)">
<stop/>
<stop offset="0.04" stop-color="#1C0000"/>
<stop offset="0.13" stop-color="#580000"/>
<stop offset="0.23" stop-color="#8B0000"/>
<stop offset="0.32" stop-color="#B40000"/>
<stop offset="0.4" stop-color="#D50000"/>
<stop offset="0.49" stop-color="#EC0000"/>
<stop offset="0.57" stop-color="#FA0000"/>
<stop offset="0.63" stop-color="#FF0000"/>
<stop offset="0.67" stop-color="#D90000"/>
<stop offset="0.74" stop-color="#980000"/>
<stop offset="0.8" stop-color="#620000"/>
<stop offset="0.87" stop-color="#370000"/>
<stop offset="0.92" stop-color="#190000"/>
<stop offset="0.97" stop-color="#060000"/>
<stop offset="1"/>
</radialGradient>
<linearGradient id="paint2_linear_485_9" x1="248.304" y1="355.205" x2="256.275" y2="373.327" gradientUnits="userSpaceOnUse">
<stop stop-color="#D7A725"/>
<stop offset="1" stop-color="#CF7204"/>
</linearGradient>
<linearGradient id="paint3_linear_485_9" x1="245.429" y1="411.353" x2="239.803" y2="398.562" gradientUnits="userSpaceOnUse">
<stop stop-color="#D7A725"/>
<stop offset="1" stop-color="#CF7204"/>
</linearGradient>
<linearGradient id="paint4_linear_485_9" x1="250.041" y1="356.501" x2="267.741" y2="386.595" gradientUnits="userSpaceOnUse">
<stop stop-color="#DD2A84"/>
<stop offset="1" stop-color="#C00C24"/>
</linearGradient>
<linearGradient id="paint5_linear_485_9" x1="389.727" y1="295.446" x2="355.205" y2="310.641" gradientUnits="userSpaceOnUse">
<stop stop-color="#EFD4DB"/>
<stop offset="0.12" stop-color="#ECCCD4"/>
<stop offset="0.3" stop-color="#E5B8C4"/>
<stop offset="0.51" stop-color="#D997A8"/>
<stop offset="0.75" stop-color="#C86982"/>
<stop offset="1" stop-color="#B53356"/>
</linearGradient>
<linearGradient id="paint6_linear_485_9" x1="390.765" y1="297.805" x2="356.243" y2="313" gradientUnits="userSpaceOnUse">
<stop stop-color="#EFD4DB"/>
<stop offset="0.09" stop-color="#E8C1CB"/>
<stop offset="0.47" stop-color="#CC758C"/>
<stop offset="0.74" stop-color="#BB4565"/>
<stop offset="0.87" stop-color="#B53356"/>
</linearGradient>
<linearGradient id="paint7_linear_485_9" x1="241.367" y1="363.269" x2="261.282" y2="408.545" gradientUnits="userSpaceOnUse">
<stop stop-color="#EFD4DB"/>
<stop offset="0.12" stop-color="#ECCCD4"/>
<stop offset="0.3" stop-color="#E5B8C4"/>
<stop offset="0.51" stop-color="#D997A8"/>
<stop offset="0.75" stop-color="#C86982"/>
<stop offset="1" stop-color="#B53356"/>
</linearGradient>
<linearGradient id="paint8_linear_485_9" x1="389.727" y1="295.446" x2="355.204" y2="310.641" gradientUnits="userSpaceOnUse">
<stop stop-color="#EFD4DB"/>
<stop offset="0.12" stop-color="#ECCCD4"/>
<stop offset="0.3" stop-color="#E5B8C4"/>
<stop offset="0.51" stop-color="#D997A8"/>
<stop offset="0.75" stop-color="#C86982"/>
<stop offset="1" stop-color="#B53356"/>
</linearGradient>
<linearGradient id="paint9_linear_485_9" x1="371.331" y1="300.718" x2="374.994" y2="308.139" gradientUnits="userSpaceOnUse">
<stop stop-color="#32BBFF"/>
<stop offset="0.09" stop-color="#30B5F7"/>
<stop offset="0.22" stop-color="#2CA5E1"/>
<stop offset="0.38" stop-color="#258BBE"/>
<stop offset="0.57" stop-color="#1B678D"/>
<stop offset="0.77" stop-color="#0F394F"/>
<stop offset="0.99" stop-color="#000203"/>
<stop offset="1"/>
</linearGradient>
<linearGradient id="paint10_linear_485_9" x1="360.597" y1="297.118" x2="364.188" y2="303.535" gradientUnits="userSpaceOnUse">
<stop stop-color="#32BBFF"/>
<stop offset="0.09" stop-color="#30B5F7"/>
<stop offset="0.22" stop-color="#2CA5E1"/>
<stop offset="0.38" stop-color="#258BBE"/>
<stop offset="0.57" stop-color="#1B678D"/>
<stop offset="0.77" stop-color="#0F394F"/>
<stop offset="0.99" stop-color="#000203"/>
<stop offset="1"/>
</linearGradient>
<linearGradient id="paint11_linear_485_9" x1="236.092" y1="365.589" x2="256.008" y2="410.865" gradientUnits="userSpaceOnUse">
<stop stop-color="#EFD4DB"/>
<stop offset="0.12" stop-color="#ECCCD4"/>
<stop offset="0.3" stop-color="#E5B8C4"/>
<stop offset="0.51" stop-color="#D997A8"/>
<stop offset="0.75" stop-color="#C86982"/>
<stop offset="1" stop-color="#B53356"/>
</linearGradient>
<linearGradient id="paint12_linear_485_9" x1="171.22" y1="422" x2="174.814" y2="430.17" gradientUnits="userSpaceOnUse">
<stop stop-color="#32BBFF"/>
<stop offset="0.09" stop-color="#30B5F7"/>
<stop offset="0.22" stop-color="#2CA5E1"/>
<stop offset="0.38" stop-color="#258BBE"/>
<stop offset="0.57" stop-color="#1B678D"/>
<stop offset="0.77" stop-color="#0F394F"/>
<stop offset="0.99" stop-color="#000203"/>
<stop offset="1"/>
</linearGradient>
<linearGradient id="paint13_linear_485_9" x1="233.16" y1="381.503" x2="236.551" y2="389.212" gradientUnits="userSpaceOnUse">
<stop stop-color="#32BBFF"/>
<stop offset="0.09" stop-color="#30B5F7"/>
<stop offset="0.22" stop-color="#2CA5E1"/>
<stop offset="0.38" stop-color="#258BBE"/>
<stop offset="0.57" stop-color="#1B678D"/>
<stop offset="0.77" stop-color="#0F394F"/>
<stop offset="0.99" stop-color="#000203"/>
<stop offset="1"/>
</linearGradient>
<linearGradient id="paint14_linear_485_9" x1="244.123" y1="373.225" x2="247.303" y2="380.455" gradientUnits="userSpaceOnUse">
<stop stop-color="#32BBFF"/>
<stop offset="0.09" stop-color="#30B5F7"/>
<stop offset="0.22" stop-color="#2CA5E1"/>
<stop offset="0.38" stop-color="#258BBE"/>
<stop offset="0.57" stop-color="#1B678D"/>
<stop offset="0.77" stop-color="#0F394F"/>
<stop offset="0.99" stop-color="#000203"/>
<stop offset="1"/>
</linearGradient>
<linearGradient id="paint15_linear_485_9" x1="307.298" y1="326.325" x2="313.751" y2="340.996" gradientUnits="userSpaceOnUse">
<stop stop-color="#32BBFF"/>
<stop offset="0.09" stop-color="#30B5F7"/>
<stop offset="0.22" stop-color="#2CA5E1"/>
<stop offset="0.38" stop-color="#258BBE"/>
<stop offset="0.57" stop-color="#1B678D"/>
<stop offset="0.77" stop-color="#0F394F"/>
<stop offset="0.99" stop-color="#000203"/>
<stop offset="1"/>
</linearGradient>
<linearGradient id="paint16_linear_485_9" x1="304.306" y1="320.776" x2="316.883" y2="349.368" gradientUnits="userSpaceOnUse">
<stop stop-color="#32BBFF"/>
<stop offset="0.09" stop-color="#30B5F7"/>
<stop offset="0.22" stop-color="#2CA5E1"/>
<stop offset="0.38" stop-color="#258BBE"/>
<stop offset="0.57" stop-color="#1B678D"/>
<stop offset="0.77" stop-color="#0F394F"/>
<stop offset="0.99" stop-color="#000203"/>
<stop offset="1"/>
</linearGradient>
<linearGradient id="paint17_linear_485_9" x1="333.625" y1="330.171" x2="337.548" y2="339.088" gradientUnits="userSpaceOnUse">
<stop stop-color="#EFD4DB"/>
<stop offset="0.12" stop-color="#ECCCD4"/>
<stop offset="0.3" stop-color="#E5B8C4"/>
<stop offset="0.51" stop-color="#D997A8"/>
<stop offset="0.75" stop-color="#C86982"/>
<stop offset="1" stop-color="#B53356"/>
</linearGradient>
<linearGradient id="paint18_linear_485_9" x1="273.668" y1="369.087" x2="275.861" y2="374.073" gradientUnits="userSpaceOnUse">
<stop stop-color="#EFD4DB"/>
<stop offset="0.12" stop-color="#ECCCD4"/>
<stop offset="0.3" stop-color="#E5B8C4"/>
<stop offset="0.51" stop-color="#D997A8"/>
<stop offset="0.75" stop-color="#C86982"/>
<stop offset="1" stop-color="#B53356"/>
</linearGradient>
<linearGradient id="paint19_linear_485_9" x1="261.936" y1="376.399" x2="264.762" y2="382.823" gradientUnits="userSpaceOnUse">
<stop stop-color="#EFD4DB"/>
<stop offset="0.12" stop-color="#ECCCD4"/>
<stop offset="0.3" stop-color="#E5B8C4"/>
<stop offset="0.51" stop-color="#D997A8"/>
<stop offset="0.75" stop-color="#C86982"/>
<stop offset="1" stop-color="#B53356"/>
</linearGradient>
<linearGradient id="paint20_linear_485_9" x1="354.923" y1="349.275" x2="-11.0318" y2="510.351" gradientUnits="userSpaceOnUse">
<stop stop-color="#FFCD48"/>
<stop offset="1" stop-color="#F79420"/>
</linearGradient>
<linearGradient id="paint21_linear_485_9" x1="164.197" y1="400.738" x2="185.395" y2="448.929" gradientUnits="userSpaceOnUse">
<stop stop-color="white"/>
<stop offset="0.75" stop-color="#E03F94"/>
</linearGradient>
<linearGradient id="paint22_linear_485_9" x1="238.375" y1="374.884" x2="250.741" y2="402.997" gradientUnits="userSpaceOnUse">
<stop stop-color="white"/>
<stop offset="0.75" stop-color="#E03F94"/>
</linearGradient>
<linearGradient id="paint23_linear_485_9" x1="266.824" y1="346.829" x2="278.963" y2="374.425" gradientUnits="userSpaceOnUse">
<stop stop-color="white"/>
<stop offset="0.75" stop-color="#E03F94"/>
</linearGradient>
<linearGradient id="paint24_linear_485_9" x1="315.59" y1="337.257" x2="322.06" y2="351.966" gradientUnits="userSpaceOnUse">
<stop stop-color="white"/>
<stop offset="0.75" stop-color="#E03F94"/>
</linearGradient>
<linearGradient id="paint25_linear_485_9" x1="140.741" y1="436.186" x2="145.87" y2="447.845" gradientUnits="userSpaceOnUse">
<stop stop-color="#FDD4B4"/>
<stop offset="0.12" stop-color="#F8CFB0"/>
<stop offset="0.25" stop-color="#EAC4A7"/>
<stop offset="0.39" stop-color="#D3B096"/>
<stop offset="0.53" stop-color="#B49580"/>
<stop offset="0.68" stop-color="#8B7263"/>
<stop offset="0.83" stop-color="#584640"/>
<stop offset="0.99" stop-color="#1E1417"/>
<stop offset="1" stop-color="#191013"/>
</linearGradient>
<linearGradient id="paint26_linear_485_9" x1="181.775" y1="417.266" x2="192.437" y2="441.506" gradientUnits="userSpaceOnUse">
<stop stop-color="white"/>
<stop offset="0.75" stop-color="#E03F94"/>
</linearGradient>
<linearGradient id="paint27_linear_485_9" x1="-1.15319" y1="532.794" x2="149.958" y2="466.282" gradientUnits="userSpaceOnUse">
<stop stop-color="white"/>
<stop offset="0.75" stop-color="#E03F94"/>
</linearGradient>
<linearGradient id="paint28_linear_485_9" x1="94.056" y1="480.34" x2="146.07" y2="457.447" gradientUnits="userSpaceOnUse">
<stop stop-color="white"/>
<stop offset="0.75" stop-color="#E03F94"/>
</linearGradient>
<linearGradient id="paint29_linear_485_9" x1="59.504" y1="484.233" x2="72.8402" y2="514.551" gradientUnits="userSpaceOnUse">
<stop stop-color="#FDD5B5"/>
<stop offset="0.12" stop-color="#F8D0B1"/>
<stop offset="0.25" stop-color="#EAC5A7"/>
<stop offset="0.39" stop-color="#D3B197"/>
<stop offset="0.53" stop-color="#B49580"/>
<stop offset="0.68" stop-color="#8B7163"/>
<stop offset="0.83" stop-color="#58463F"/>
<stop offset="0.98" stop-color="#1E1316"/>
<stop offset="1" stop-color="#170D11"/>
</linearGradient>
<linearGradient id="paint30_linear_485_9" x1="204.602" y1="393.447" x2="214.025" y2="414.868" gradientUnits="userSpaceOnUse">
<stop stop-color="#FDD4B4"/>
<stop offset="0.12" stop-color="#F8CFB0"/>
<stop offset="0.25" stop-color="#EAC4A7"/>
<stop offset="0.39" stop-color="#D3B096"/>
<stop offset="0.53" stop-color="#B49580"/>
<stop offset="0.68" stop-color="#8B7263"/>
<stop offset="0.83" stop-color="#584640"/>
<stop offset="0.99" stop-color="#1E1417"/>
<stop offset="1" stop-color="#191013"/>
</linearGradient>
<linearGradient id="paint31_linear_485_9" x1="259.115" y1="353.814" x2="263.485" y2="363.747" gradientUnits="userSpaceOnUse">
<stop stop-color="#FDD4B4"/>
<stop offset="0.12" stop-color="#F8CFB0"/>
<stop offset="0.25" stop-color="#EAC4A7"/>
<stop offset="0.39" stop-color="#D3B096"/>
<stop offset="0.53" stop-color="#B49580"/>
<stop offset="0.68" stop-color="#8B7263"/>
<stop offset="0.83" stop-color="#584640"/>
<stop offset="0.99" stop-color="#1E1417"/>
<stop offset="1" stop-color="#191013"/>
</linearGradient>
<linearGradient id="paint32_linear_485_9" x1="274.795" y1="538.264" x2="274.821" y2="186.027" gradientUnits="userSpaceOnUse">
<stop stop-color="#FF7DFF"/>
<stop offset="0.09" stop-color="#F879F8"/>
<stop offset="0.22" stop-color="#E570E5"/>
<stop offset="0.37" stop-color="#C761C7"/>
<stop offset="0.53" stop-color="#9D4D9D"/>
<stop offset="0.71" stop-color="#673267"/>
<stop offset="0.9" stop-color="#261226"/>
<stop offset="1"/>
</linearGradient>
<radialGradient id="paint33_radial_485_9" cx="0" cy="0" r="1" gradientUnits="userSpaceOnUse" gradientTransform="translate(221.567 396.412) rotate(116.337) scale(64.3804 64.3929)">
<stop stop-color="#FF0097"/>
<stop offset="1" stop-color="#99005B" stop-opacity="0"/>
</radialGradient>
<radialGradient id="paint34_radial_485_9" cx="0" cy="0" r="1" gradientUnits="userSpaceOnUse" gradientTransform="translate(348.175 312.06) rotate(116.337) scale(55.1413 55.1521)">
<stop stop-color="#FF0097"/>
<stop offset="1" stop-color="#99005B" stop-opacity="0"/>
</radialGradient>
<radialGradient id="paint35_radial_485_9" cx="0" cy="0" r="1" gradientUnits="userSpaceOnUse" gradientTransform="translate(63.3802 504.657) rotate(146.329) scale(74.4526 29.2259)">
<stop stop-color="#FFAA00"/>
<stop offset="1" stop-color="#996600" stop-opacity="0"/>
</radialGradient>
<radialGradient id="paint36_radial_485_9" cx="0" cy="0" r="1" gradientUnits="userSpaceOnUse" gradientTransform="translate(207.823 397.586) rotate(146.339) scale(48.8294 47.0479)">
<stop stop-color="#FFAA00"/>
<stop offset="1" stop-color="#996600" stop-opacity="0"/>
</radialGradient>
<radialGradient id="paint37_radial_485_9" cx="0" cy="0" r="1" gradientUnits="userSpaceOnUse" gradientTransform="translate(207.823 397.586) rotate(146.339) scale(29.8139 28.7262)">
<stop stop-color="#FFAA00"/>
<stop offset="1" stop-color="#996600" stop-opacity="0"/>
</radialGradient>
</defs>
</svg>
