<svg width="513" height="525" viewBox="0 0 513 525" fill="none" xmlns="http://www.w3.org/2000/svg">
<g clip-path="url(#clip0_528_6948)">
<path d="M249.769 130.98C262.815 84.7403 235.897 36.6771 189.645 23.6278C143.394 10.5785 95.3242 37.4846 82.2782 83.7243C69.2321 129.964 96.1503 178.027 142.401 191.076C188.653 204.126 236.723 177.22 249.769 130.98Z" fill="url(#paint0_radial_528_6948)" fill-opacity="0.7" style="mix-blend-mode:screen"/>
<path style="mix-blend-mode:screen" d="M185.193 96.6228C178.55 84.7624 163.549 80.53 151.687 87.1696C139.825 93.8091 135.594 108.806 142.236 120.667C148.879 132.527 163.88 136.759 175.742 130.12C187.604 123.48 191.835 108.483 185.193 96.6228Z" fill="url(#paint1_radial_528_6948)"/>
<path d="M364.774 312.715C361.872 307.802 353.501 304.45 348.559 302.822C346.29 302.085 343.804 302.598 342.009 304.194L341.625 304.537C339.828 306.138 339.006 308.571 339.482 310.91C339.692 311.921 339.943 313.031 340.264 314.215C342.335 322.165 346.853 333.23 355.643 328.484C355.643 328.484 430.22 417.266 454.925 449.128C459.16 454.552 461.907 458.362 462.609 459.765L470.078 449.664L472.192 448.061L482.284 442.245C480.057 440.825 471.645 432.629 460.317 421.096C425.86 386.235 364.182 320.875 364.182 320.875C366.328 317.814 366.195 315.082 364.776 312.71L364.774 312.715Z" fill="#AB2F39"/>
<path d="M362.165 322.671C362.165 322.671 469.653 439.691 477.635 446.381L471.553 448.604L470.385 449.386L467.238 455.636C461.513 446.936 357.645 326.693 357.645 326.693C351.48 328.659 344.542 315.344 341.633 309.006C340.728 307.032 340.761 305.313 341.707 304.473L341.92 304.285C342.868 303.44 344.579 303.608 346.437 304.734C352.4 308.354 364.828 316.779 362.164 322.675L362.165 322.671Z" fill="url(#paint2_linear_528_6948)"/>
<g style="mix-blend-mode:overlay" opacity="0.35">
<path d="M363.172 331.118C384.14 354.307 466.382 443.809 472.81 450.104L469.134 450.189L468.518 450.477L467.97 454.416C462.457 447.305 382.782 355.094 362.158 331.594L363.175 331.124L363.172 331.118Z" fill="#FFFF8A"/>
</g>
<g style="mix-blend-mode:multiply">
<path d="M482.279 442.248C480.052 440.828 471.639 432.633 460.312 421.099C463.139 432.842 458.417 443.344 454.921 449.126C459.156 454.551 461.903 458.361 462.605 459.763L470.074 449.663L472.188 448.059L482.28 442.244L482.279 442.248Z" fill="#AB2F39"/>
</g>
<path d="M480.158 467.18L495.193 484.06L502.657 477.416L487.622 460.535L480.158 467.18Z" fill="url(#paint3_linear_528_6948)"/>
<g style="mix-blend-mode:multiply" opacity="0.5">
<path d="M502.631 477.383L487.594 460.506L485.032 462.789C485.168 462.944 485.305 463.094 485.493 463.254C491.362 469.067 491.34 474.931 490.37 478.644L495.17 484.029L502.635 477.385L502.631 477.383Z" fill="#D1810D"/>
</g>
<path d="M337.429 283.57C329.457 278.339 320.395 271.829 315.817 268.498C314.091 267.23 311.722 267.362 310.107 268.801C308.517 270.217 308.115 272.555 309.148 274.435C310.233 276.324 311.686 278.939 313.313 281.952C315.936 286.703 319.012 292.378 321.653 297.615C324.708 303.678 325.744 310.162 327.826 311.667C333.296 315.536 341.348 307.95 343.262 306.019C344.97 304.684 350.62 299.927 351.292 295.1L351.318 295.078C351.487 293.825 351.318 292.548 350.658 291.342C349.425 289.081 343.103 287.302 337.433 283.571L337.429 283.57Z" fill="#AB2F39"/>
<path d="M346.335 295.178C349.974 300.667 344.646 305.02 343.272 306.017C342.128 307.267 337.187 312.055 332.149 307.807C330.211 306.173 328.193 300.587 324.629 294.954C319.637 287.063 313.527 277.919 310.418 273.307C309.233 271.55 309.111 269.676 310.104 268.79C311.103 267.902 312.95 268.243 314.558 269.619C318.782 273.239 327.162 280.362 334.425 286.228C339.611 290.416 344.93 293.067 346.326 295.175L346.335 295.178Z" fill="url(#paint4_linear_528_6948)"/>
<g style="mix-blend-mode:overlay" opacity="0.64">
<path d="M357.058 326.499C352.786 329.814 348.15 318.804 346.185 314.491C345.573 313.149 345.604 311.972 346.258 311.394L346.401 311.265C347.05 310.686 348.22 310.792 349.487 311.553C353.547 314 363.847 320.548 360.165 323.734L357.058 326.499Z" fill="#FFFF8A"/>
</g>
<path d="M530.297 483.468C522.199 474.377 508.408 473.441 499.493 481.377C490.578 489.314 489.916 503.118 498.013 512.209C506.11 521.301 519.902 522.237 528.817 514.3C537.732 506.363 538.394 492.559 530.297 483.468Z" fill="url(#paint5_linear_528_6948)"/>
<path style="mix-blend-mode:screen" d="M524.915 493.807C519.303 487.508 509.746 486.86 503.57 492.361C497.394 497.861 496.937 507.427 502.549 513.726C508.161 520.025 517.718 520.672 523.894 515.171C530.07 509.671 530.527 500.106 524.915 493.807Z" fill="url(#paint6_radial_528_6948)"/>
<path style="mix-blend-mode:screen" d="M524.389 494.35C518.778 488.05 509.222 487.401 503.044 492.9C496.867 498.4 496.408 507.965 502.02 514.265C507.631 520.565 517.187 521.214 523.365 515.715C529.542 510.215 530 500.65 524.389 494.35Z" fill="url(#paint7_radial_528_6948)"/>
<path d="M486.76 437.933C483.042 438.302 477.221 440.496 468.996 447.217C468.07 448.087 467.244 448.918 466.466 449.747C460.641 455.81 458.439 460.618 457.769 463.838C457.393 465.737 458.529 467.529 460.314 468.193C467.861 471.036 474.427 470.713 478.532 469.953C480.624 469.562 482.527 468.604 484.091 467.209C484.324 467.003 484.525 466.822 484.736 466.59C484.994 466.313 485.282 466.016 485.518 465.713C487.915 464.224 489.753 461.945 490.564 459.241C491.792 455.251 492.899 448.746 490.896 440.868C490.443 439.065 488.642 437.77 486.761 437.929L486.76 437.933Z" fill="url(#paint8_linear_528_6948)"/>
<path d="M496.958 478.76C494.191 481.179 489.894 486.891 489.105 493.802L489.079 493.824C488.481 499.507 490.249 505.983 497.221 512.102C497.221 512.102 505.388 503.403 501.742 495.751C501.742 495.751 507.854 504.06 514.484 498.433L514.506 498.458L514.713 498.274L514.691 498.248C521.069 492.293 513.522 485.264 513.522 485.264C520.682 489.789 530.265 482.679 530.265 482.679C530.063 482.399 529.859 482.123 529.656 481.842C518.04 466.012 503.034 473.491 496.964 478.756L496.958 478.76Z" fill="url(#paint9_linear_528_6948)"/>
<g style="mix-blend-mode:screen" opacity="0.35">
<path d="M497.998 480.131C495.682 482.197 491.482 487.354 490.453 493.6L490.345 494.225C489.73 499.383 491.526 504.037 495.69 508.077C497.643 505.598 501.118 500.13 499.665 495.398C499.347 494.356 498.539 491.229 498.539 491.229C498.564 491.261 504.596 496.93 507.736 497.126C509.154 497.215 510.518 496.682 511.913 495.493L512.056 495.363C513.412 494.105 514.105 492.8 514.182 491.374C514.346 488.23 508.943 482.088 508.917 482.061C508.917 482.061 512.293 483.057 513.398 483.461C518.039 485.159 523.744 482.36 526.436 480.705C523.1 476.312 519.059 473.933 514.423 473.65C508.245 473.271 501.931 476.71 498.081 480.062L497.997 480.136L497.998 480.131Z" fill="#FFDF46"/>
</g>
<path d="M513.349 497.151C513.403 497.132 513.427 497.1 513.461 497.066C513.499 497.033 513.534 497.014 513.572 496.981C517.651 493.13 516.146 488.927 514.475 486.344C516.285 488.535 519.545 493.698 514.696 498.25C514.673 498.297 514.637 498.32 514.6 498.349C514.561 498.382 514.542 498.415 514.504 498.448C509.412 502.722 504.654 498.893 502.687 496.843C505.061 498.794 509.063 500.773 513.344 497.154L513.349 497.151Z" fill="#FFDF46"/>
<path d="M500.469 494.566C500.469 494.566 500.99 495.266 501.877 496.119C505.104 503.687 497.236 512.101 497.236 512.101C496.769 511.693 496.4 511.278 495.977 510.867C497.251 509.415 503.742 501.525 500.465 494.565L500.469 494.566Z" fill="#FFDF46"/>
<path d="M512.477 483.871C519.019 487.936 527.624 482.381 529.199 481.291C529.559 481.757 529.922 482.175 530.273 482.686C530.273 482.686 521.002 489.53 513.853 485.449C513.11 484.468 512.477 483.871 512.477 483.871Z" fill="#FFDF46"/>
<path d="M167.337 106.984C166.349 105.977 164.94 107.236 165.825 108.33C180.397 126.495 207.118 159.644 233.011 191.598C266.645 233.128 298.917 272.602 301.259 274.613C306.575 279.08 312.598 273.762 313.631 272.752C314.371 272.14 317.142 269.673 317.938 266.436C318.403 264.687 318.3 262.711 316.935 260.661C313.888 256.105 204.953 145.024 167.346 106.987L167.337 106.984Z" fill="#AB2F39"/>
<path d="M313.404 263.792C317.564 269.273 314.271 272.253 313.64 272.75C313.071 273.323 309.73 276.245 304.764 271.484C300.834 267.714 200.546 148.933 166.152 108.03C165.254 106.96 166.027 106.27 166.983 107.288C203.66 146.16 310.106 259.453 313.399 263.791L313.404 263.792Z" fill="url(#paint10_linear_528_6948)"/>
<g style="mix-blend-mode:multiply" opacity="0.5">
<path d="M486.76 437.933C483.042 438.302 477.221 440.496 468.996 447.217C468.07 448.087 467.243 448.918 466.465 449.747C470.826 448.855 476.354 448.715 480.505 451.873C488.499 457.954 482.785 467.963 482.785 467.963L484.736 466.59C484.994 466.313 485.282 466.016 485.518 465.713C487.915 464.224 489.753 461.945 490.564 459.241C491.792 455.251 492.899 448.746 490.896 440.868C490.443 439.064 488.642 437.77 486.761 437.929L486.76 437.933Z" fill="#D1810D"/>
</g>
<g style="mix-blend-mode:multiply" opacity="0.5">
<path d="M496.957 478.76C494.191 481.179 489.893 486.891 489.105 493.802C500.155 474.762 522.262 479.591 529.65 481.845C518.034 466.016 503.028 473.494 496.957 478.76Z" fill="#D1810D"/>
</g>
<path d="M520.507 513.321C520.131 512.073 518.232 511.538 516.264 512.128C514.295 512.719 513.005 514.21 513.376 515.461C513.752 516.708 515.651 517.244 517.62 516.653C519.588 516.063 520.878 514.572 520.507 513.321Z" fill="white"/>
<path d="M512.842 511.187C512.612 510.418 511.446 510.094 510.237 510.452C509.029 510.811 508.234 511.733 508.465 512.497C508.695 513.266 509.862 513.59 511.07 513.232C512.279 512.874 513.073 511.952 512.842 511.187Z" fill="white"/>
<g style="mix-blend-mode:screen" opacity="0.35">
<path d="M472.343 469.751C469.863 469.639 467.353 468.843 465.528 467.168C463.703 465.493 462.676 462.852 463.276 460.448C464.065 457.291 467.482 455.283 470.738 455.332C473.991 455.386 477.018 457.104 479.44 459.279C480.437 460.172 481.374 461.169 481.975 462.363C484.805 467.998 476.416 469.929 472.339 469.745L472.343 469.751Z" fill="#FFDF46"/>
</g>
<g style="mix-blend-mode:overlay">
<path d="M474.138 469.398C473.064 469.347 471.975 469.006 471.185 468.278C470.395 467.55 469.949 466.41 470.209 465.366C470.552 463.996 472.031 463.127 473.443 463.151C474.854 463.175 476.165 463.919 477.215 464.861C477.645 465.25 478.053 465.68 478.314 466.201C479.538 468.644 475.907 469.479 474.138 469.398Z" fill="white"/>
</g>
<g style="mix-blend-mode:multiply" opacity="0.5">
<path d="M348.555 302.821C346.286 302.084 343.8 302.596 342.005 304.192L341.621 304.536C339.824 306.136 339.002 308.57 339.478 310.909C339.688 311.92 339.939 313.03 340.261 314.213C347.454 301.855 359.002 309.022 364.775 312.715C361.872 307.802 353.502 304.45 348.56 302.822L348.555 302.821Z" fill="#AB2F39"/>
</g>
<g style="mix-blend-mode:overlay" opacity="0.64">
<path d="M335.441 309.071C336.869 308.76 337.603 307.209 338.066 305.825C338.534 304.442 339.089 302.87 340.438 302.323C342.067 301.665 344.427 302.681 345.398 301.221C345.877 300.502 345.668 299.486 345.138 298.802C344.607 298.119 343.825 297.689 343.062 297.275C337.851 294.45 332.639 291.629 327.427 288.804C326.5 288.304 325.095 287.928 324.609 288.859C324.334 289.388 324.572 290.023 324.817 290.568C326.537 294.458 328.305 298.312 330.088 302.166C331.216 304.606 331.889 309.365 335.437 309.065L335.441 309.071Z" fill="#FFFF8A"/>
</g>
<g style="mix-blend-mode:multiply" opacity="0.5">
<path d="M337.429 283.57C329.457 278.339 320.394 271.829 315.816 268.498C314.091 267.23 311.722 267.362 310.106 268.801C308.517 270.217 308.114 272.555 309.148 274.435C310.233 276.324 311.686 278.939 313.312 281.952C315.285 268.97 344.302 289.68 351.288 295.099L351.313 295.077C351.482 293.823 351.313 292.547 350.653 291.341C349.421 289.08 343.098 287.301 337.429 283.57Z" fill="#AB2F39"/>
</g>
<g style="mix-blend-mode:overlay" opacity="0.65">
<path d="M336.942 304.094C336.37 303.452 335.062 303.681 334.022 304.611C332.984 305.537 332.601 306.808 333.173 307.45C333.745 308.092 335.052 307.864 336.092 306.933C337.13 306.008 337.513 304.737 336.942 304.094Z" fill="white"/>
</g>
<g style="mix-blend-mode:overlay" opacity="0.65">
<path d="M358.07 322.652C357.499 322.01 356.191 322.238 355.151 323.169C354.113 324.095 353.73 325.366 354.302 326.008C354.873 326.65 356.181 326.422 357.221 325.491C358.259 324.565 358.642 323.294 358.07 322.652Z" fill="white"/>
</g>
<path d="M491.478 487.095C491.478 487.095 505.103 464.47 525.722 478.742C525.722 478.742 507.57 461.271 491.478 487.095Z" fill="#FFDF46"/>
<path d="M487.721 462.742C487.721 462.742 495.082 452.406 488.91 439.506C488.91 439.506 491.354 454.462 487.721 462.742Z" fill="#FFDF46"/>
<g style="mix-blend-mode:overlay" opacity="0.35">
<path d="M305.156 271.109C305.565 271.589 306.023 272.101 306.575 272.262C307.598 272.56 308.167 271.405 307.935 270.349C307.704 269.293 307.004 268.294 306.621 267.244C306.242 266.195 306.329 264.904 307.257 264.714C308.365 264.488 309.485 265.906 310.379 266.974C311.272 268.042 312.762 268.098 313.114 267.022C313.364 266.257 312.849 266.156 312.118 265.493C307.52 261.336 303.064 257.058 298.465 252.905C294.01 248.88 289.107 243.602 284.236 240.276C279.354 236.942 281.979 244.301 291.791 255.436C296.332 260.587 300.7 265.884 305.152 271.108L305.156 271.109Z" fill="#FFFF8A"/>
</g>
<g style="mix-blend-mode:overlay" opacity="0.65">
<path d="M306.879 269.701C305.987 268.697 304.831 268.269 304.299 268.74C303.768 269.212 304.061 270.412 304.954 271.411C305.847 272.416 307.003 272.844 307.534 272.372C308.066 271.901 307.773 270.701 306.879 269.701Z" fill="white"/>
</g>
<g style="mix-blend-mode:multiply" opacity="0.5">
<path d="M167.336 106.984C166.348 105.977 164.939 107.235 165.825 108.33C180.396 126.495 207.117 159.644 233.01 191.598C263.812 211.045 307.536 255.634 317.934 266.43C318.398 264.682 318.296 262.705 316.931 260.655C313.884 256.1 204.949 145.018 167.342 106.981L167.336 106.984Z" fill="#AB2F39"/>
</g>
<path d="M139.52 69.9712C140.251 67.3778 138.742 64.682 136.148 63.9502C133.553 63.2183 130.857 64.7273 130.126 67.3208C129.394 69.9142 130.904 72.6099 133.498 73.3418C136.092 74.0737 138.788 72.5646 139.52 69.9712Z" fill="#64DBFF"/>
<g style="mix-blend-mode:screen">
<path d="M175.459 98.321C176.014 96.3561 174.87 94.3136 172.904 93.7591C170.939 93.2046 168.896 94.3479 168.342 96.3129C167.787 98.2778 168.931 100.32 170.897 100.875C172.862 101.429 174.905 100.286 175.459 98.321Z" fill="#64DBFF"/>
</g>
<g style="mix-blend-mode:screen">
<path d="M165.377 78.9661C165.651 77.9948 165.085 76.9852 164.114 76.7111C163.142 76.437 162.133 77.0022 161.858 77.9735C161.584 78.9448 162.15 79.9544 163.121 80.2285C164.093 80.5026 165.103 79.9374 165.377 78.9661Z" fill="#64DBFF"/>
</g>
<g style="mix-blend-mode:screen">
<path d="M102.596 120.219C102.87 119.248 102.305 118.238 101.333 117.964C100.362 117.69 99.3518 118.255 99.0777 119.227C98.8037 120.198 99.3691 121.208 100.341 121.482C101.312 121.756 102.322 121.191 102.596 120.219Z" fill="#64DBFF"/>
</g>
<g style="mix-blend-mode:screen">
<path d="M170.17 52.7999C170.725 50.8349 169.581 48.7925 167.615 48.238C165.65 47.6834 163.607 48.8268 163.053 50.7918C162.498 52.7567 163.642 54.7991 165.608 55.3537C167.573 55.9082 169.616 54.7648 170.17 52.7999Z" fill="#64DBFF"/>
</g>
<g style="mix-blend-mode:screen">
<path d="M120.646 96.4964C121.784 96.8175 122.442 97.9986 122.122 99.132C121.802 100.266 120.62 100.927 119.486 100.608C118.352 100.288 117.69 99.1053 118.01 97.9719C118.329 96.8384 119.512 96.1765 120.646 96.4964Z" fill="#64DBFF"/>
</g>
<g style="mix-blend-mode:screen">
<path d="M152.678 125.283C153.816 125.604 154.474 126.785 154.154 127.919C153.834 129.052 152.652 129.714 151.518 129.394C150.384 129.074 149.722 127.892 150.042 126.759C150.362 125.625 151.544 124.963 152.678 125.283Z" fill="#64DBFF"/>
</g>
<g style="mix-blend-mode:screen">
<path d="M156.838 100.278C157.976 100.6 158.634 101.781 158.314 102.914C157.994 104.048 156.812 104.709 155.678 104.389C154.544 104.07 153.882 102.887 154.202 101.754C154.522 100.62 155.704 99.9585 156.838 100.278Z" fill="#64DBFF"/>
</g>
<g style="mix-blend-mode:screen" opacity="0.25">
<path d="M121.792 75.133C123.941 67.5142 119.506 59.5949 111.885 57.4448C104.264 55.2947 96.344 59.728 94.1944 67.3468C92.0448 74.9656 96.4801 82.8849 104.101 85.035C111.722 87.1851 119.642 82.7519 121.792 75.133Z" fill="#64DBFF"/>
</g>
<g style="mix-blend-mode:screen" opacity="0.25">
<path d="M168.065 138.366C170.215 130.747 165.78 122.827 158.159 120.677C150.538 118.527 142.618 122.96 140.468 130.579C138.319 138.198 142.754 146.117 150.375 148.268C157.995 150.418 165.916 145.984 168.065 138.366Z" fill="#64DBFF"/>
</g>
<g style="mix-blend-mode:screen" opacity="0.25">
<path d="M214.085 114.119C215.019 110.807 213.091 107.365 209.779 106.431C206.467 105.496 203.024 107.423 202.09 110.734C201.156 114.046 203.083 117.488 206.396 118.422C209.708 119.357 213.15 117.43 214.085 114.119Z" fill="#64DBFF"/>
</g>
</g>
<defs>
<radialGradient id="paint0_radial_528_6948" cx="0" cy="0" r="1" gradientUnits="userSpaceOnUse" gradientTransform="translate(166.023 107.352) rotate(-74.2441) scale(86.9928 87.0146)">
<stop stop-color="#59F2FF"/>
<stop offset="1" stop-color="#359199" stop-opacity="0"/>
</radialGradient>
<radialGradient id="paint1_radial_528_6948" cx="0" cy="0" r="1" gradientUnits="userSpaceOnUse" gradientTransform="translate(163.713 108.645) rotate(-74.2441) scale(24.6107 24.6169)">
<stop stop-color="#59F2FF"/>
<stop offset="0.04" stop-color="#51DDE8"/>
<stop offset="0.15" stop-color="#3EA9B2"/>
<stop offset="0.26" stop-color="#2D7C83"/>
<stop offset="0.37" stop-color="#1F565A"/>
<stop offset="0.49" stop-color="#143639"/>
<stop offset="0.6" stop-color="#0B1E20"/>
<stop offset="0.73" stop-color="#040D0E"/>
<stop offset="0.85" stop-color="#010303"/>
<stop offset="1"/>
</radialGradient>
<linearGradient id="paint2_linear_528_6948" x1="401.979" y1="382.321" x2="412.371" y2="373.062" gradientUnits="userSpaceOnUse">
<stop stop-color="#D65238"/>
<stop offset="1" stop-color="#B93530"/>
</linearGradient>
<linearGradient id="paint3_linear_528_6948" x1="487.657" y1="475.606" x2="495.119" y2="468.96" gradientUnits="userSpaceOnUse">
<stop stop-color="#FFD358"/>
<stop offset="1" stop-color="#FA8F13"/>
</linearGradient>
<linearGradient id="paint4_linear_528_6948" x1="319.64" y1="293.772" x2="333.881" y2="281.083" gradientUnits="userSpaceOnUse">
<stop stop-color="#D65238"/>
<stop offset="1" stop-color="#B93530"/>
</linearGradient>
<linearGradient id="paint5_linear_528_6948" x1="497.961" y1="512.193" x2="530.235" y2="483.448" gradientUnits="userSpaceOnUse">
<stop stop-color="#00F2DF"/>
<stop offset="0.15" stop-color="#00EBDF"/>
<stop offset="0.37" stop-color="#00D9DF"/>
<stop offset="0.62" stop-color="#00BBE0"/>
<stop offset="0.9" stop-color="#0092E1"/>
<stop offset="1" stop-color="#0082E2"/>
</linearGradient>
<radialGradient id="paint6_radial_528_6948" cx="0" cy="0" r="1" gradientUnits="userSpaceOnUse" gradientTransform="translate(513.766 503.755) rotate(-41.6876) scale(15.1246 15.1262)">
<stop stop-color="white"/>
<stop offset="0.65" stop-color="#575757"/>
<stop offset="1"/>
</radialGradient>
<radialGradient id="paint7_radial_528_6948" cx="0" cy="0" r="1" gradientUnits="userSpaceOnUse" gradientTransform="translate(513.179 504.293) rotate(-41.6776) scale(15.1246 15.1262)">
<stop stop-color="white"/>
<stop offset="0.01" stop-color="#F7F7F7"/>
<stop offset="0.13" stop-color="#BEBEBE"/>
<stop offset="0.25" stop-color="#8B8B8B"/>
<stop offset="0.37" stop-color="#606060"/>
<stop offset="0.49" stop-color="#3D3D3D"/>
<stop offset="0.62" stop-color="#222222"/>
<stop offset="0.74" stop-color="#0F0F0F"/>
<stop offset="0.87" stop-color="#030303"/>
<stop offset="1"/>
</radialGradient>
<linearGradient id="paint8_linear_528_6948" x1="461.738" y1="470.449" x2="493.037" y2="442.562" gradientUnits="userSpaceOnUse">
<stop stop-color="#FFD358"/>
<stop offset="1" stop-color="#FA8F13"/>
</linearGradient>
<linearGradient id="paint9_linear_528_6948" x1="497.119" y1="478.654" x2="514.665" y2="498.356" gradientUnits="userSpaceOnUse">
<stop stop-color="#FFD358"/>
<stop offset="1" stop-color="#FA8F13"/>
</linearGradient>
<linearGradient id="paint10_linear_528_6948" x1="235.456" y1="193.696" x2="244.142" y2="185.957" gradientUnits="userSpaceOnUse">
<stop stop-color="#D65238"/>
<stop offset="1" stop-color="#B93530"/>
</linearGradient>
<clipPath id="clip0_528_6948">
<rect width="390" height="550" fill="white" transform="translate(0 375.347) rotate(-74.2441)"/>
</clipPath>
</defs>
</svg>
