<svg width="385" height="525" viewBox="0 0 385 525" fill="none" xmlns="http://www.w3.org/2000/svg">
<g clip-path="url(#clip0_416_2165)">
<path d="M249.769 130.98C262.815 84.7403 235.897 36.6771 189.645 23.6278C143.394 10.5785 95.3242 37.4846 82.2782 83.7243C69.2321 129.964 96.1503 178.027 142.401 191.076C188.653 204.126 236.723 177.22 249.769 130.98Z" fill="url(#paint0_radial_416_2165)" fill-opacity="0.7" style="mix-blend-mode:screen"/>
<path style="mix-blend-mode:screen" d="M185.193 96.6228C178.551 84.7624 163.55 80.53 151.688 87.1696C139.826 93.8091 135.594 108.806 142.237 120.667C148.879 132.527 163.88 136.759 175.742 130.12C187.604 123.48 191.836 108.483 185.193 96.6228Z" fill="url(#paint1_radial_416_2165)"/>
<path d="M364.775 312.715C361.872 307.802 353.502 304.45 348.56 302.822C346.291 302.085 343.805 302.598 342.009 304.194L341.626 304.537C339.829 306.138 339.006 308.571 339.483 310.91C339.693 311.921 339.943 313.031 340.265 314.215C342.335 322.165 346.854 333.23 355.643 328.484C355.643 328.484 430.22 417.266 454.925 449.128C459.16 454.552 461.908 458.362 462.61 459.765L470.079 449.664L472.192 448.061L482.285 442.245C480.057 440.825 471.645 432.629 460.318 421.096C425.861 386.235 364.182 320.875 364.182 320.875C366.328 317.814 366.196 315.082 364.776 312.71L364.775 312.715Z" fill="#AB2F39"/>
<path d="M362.165 322.671C362.165 322.671 469.652 439.691 477.635 446.381L471.553 448.604L470.385 449.386L467.237 455.636C461.512 446.936 357.644 326.693 357.644 326.693C351.48 328.659 344.541 315.344 341.632 309.006C340.727 307.032 340.761 305.313 341.707 304.473L341.92 304.285C342.867 303.44 344.578 303.608 346.437 304.734C352.4 308.354 364.828 316.779 362.163 322.675L362.165 322.671Z" fill="url(#paint2_linear_416_2165)"/>
<g style="mix-blend-mode:overlay" opacity="0.35">
<path d="M363.172 331.118C384.141 354.307 466.383 443.809 472.81 450.104L469.134 450.189L468.519 450.477L467.971 454.416C462.458 447.305 382.782 355.094 362.159 331.594L363.175 331.124L363.172 331.118Z" fill="#FFFF8A"/>
</g>
<path d="M337.428 283.57C329.457 278.339 320.394 271.829 315.816 268.498C314.09 267.23 311.721 267.362 310.106 268.801C308.517 270.217 308.114 272.555 309.148 274.435C310.232 276.324 311.685 278.939 313.312 281.952C315.935 286.703 319.012 292.378 321.653 297.615C324.707 303.678 325.744 310.162 327.825 311.667C333.296 315.536 341.347 307.95 343.262 306.019C344.969 304.684 350.62 299.927 351.292 295.1L351.318 295.078C351.487 293.825 351.317 292.548 350.657 291.342C349.425 289.081 343.102 287.302 337.433 283.571L337.428 283.57Z" fill="#AB2F39"/>
<path d="M346.335 295.178C349.974 300.667 344.646 305.02 343.272 306.017C342.128 307.267 337.187 312.055 332.149 307.807C330.211 306.173 328.193 300.587 324.629 294.954C319.637 287.063 313.527 277.919 310.418 273.307C309.233 271.55 309.111 269.676 310.104 268.79C311.103 267.902 312.95 268.243 314.558 269.619C318.782 273.239 327.162 280.362 334.425 286.228C339.611 290.416 344.93 293.067 346.326 295.175L346.335 295.178Z" fill="url(#paint3_linear_416_2165)"/>
<g style="mix-blend-mode:overlay" opacity="0.64">
<path d="M357.058 326.499C352.786 329.814 348.15 318.804 346.185 314.491C345.573 313.149 345.604 311.972 346.258 311.394L346.401 311.265C347.05 310.686 348.22 310.792 349.487 311.553C353.547 314 363.847 320.548 360.165 323.734L357.058 326.499Z" fill="#FFFF8A"/>
</g>
<path d="M167.336 106.984C166.348 105.977 164.939 107.236 165.825 108.33C180.396 126.495 207.118 159.644 233.01 191.598C266.645 233.128 298.916 272.602 301.258 274.613C306.575 279.08 312.597 273.762 313.63 272.752C314.371 272.14 317.141 269.673 317.938 266.436C318.402 264.687 318.299 262.711 316.935 260.661C313.887 256.105 204.952 145.024 167.345 106.987L167.336 106.984Z" fill="#AB2F39"/>
<path d="M313.404 263.792C317.565 269.273 314.271 272.253 313.641 272.75C313.071 273.323 309.73 276.245 304.764 271.484C300.835 267.714 200.547 148.933 166.153 108.03C165.255 106.96 166.028 106.27 166.984 107.288C203.661 146.16 310.106 259.453 313.4 263.791L313.404 263.792Z" fill="url(#paint4_linear_416_2165)"/>
<g style="mix-blend-mode:multiply" opacity="0.5">
<path d="M348.555 302.821C346.286 302.084 343.8 302.596 342.004 304.192L341.621 304.536C339.824 306.136 339.001 308.57 339.478 310.909C339.688 311.92 339.938 313.03 340.26 314.213C347.453 301.855 359.002 309.022 364.775 312.715C361.872 307.802 353.501 304.45 348.559 302.822L348.555 302.821Z" fill="#AB2F39"/>
</g>
<g style="mix-blend-mode:overlay" opacity="0.64">
<path d="M335.441 309.071C336.869 308.76 337.603 307.209 338.066 305.825C338.534 304.442 339.089 302.87 340.438 302.323C342.067 301.665 344.427 302.681 345.398 301.221C345.877 300.502 345.668 299.486 345.138 298.802C344.607 298.119 343.825 297.689 343.062 297.275C337.851 294.45 332.639 291.629 327.427 288.804C326.5 288.304 325.095 287.928 324.609 288.859C324.334 289.388 324.572 290.023 324.817 290.568C326.537 294.458 328.305 298.312 330.088 302.166C331.216 304.606 331.889 309.365 335.437 309.065L335.441 309.071Z" fill="#FFFF8A"/>
</g>
<g style="mix-blend-mode:multiply" opacity="0.5">
<path d="M337.429 283.57C329.457 278.339 320.394 271.829 315.816 268.498C314.091 267.23 311.722 267.362 310.106 268.8C308.517 270.217 308.114 272.555 309.148 274.435C310.233 276.324 311.686 278.939 313.312 281.952C315.285 268.97 344.302 289.68 351.288 295.099L351.313 295.077C351.482 293.823 351.313 292.547 350.653 291.341C349.421 289.08 343.098 287.301 337.429 283.57Z" fill="#AB2F39"/>
</g>
<g style="mix-blend-mode:overlay" opacity="0.65">
<path d="M336.942 304.095C336.37 303.452 335.062 303.681 334.022 304.611C332.984 305.537 332.601 306.808 333.173 307.45C333.745 308.092 335.052 307.864 336.092 306.934C337.13 306.008 337.513 304.737 336.942 304.095Z" fill="white"/>
</g>
<g style="mix-blend-mode:overlay" opacity="0.65">
<path d="M358.07 322.652C357.499 322.01 356.191 322.238 355.151 323.169C354.113 324.095 353.73 325.366 354.302 326.008C354.873 326.65 356.181 326.422 357.221 325.491C358.259 324.565 358.642 323.294 358.07 322.652Z" fill="white"/>
</g>
<g style="mix-blend-mode:overlay" opacity="0.35">
<path d="M305.156 271.109C305.565 271.589 306.023 272.101 306.575 272.262C307.598 272.56 308.167 271.405 307.935 270.349C307.704 269.293 307.004 268.294 306.621 267.244C306.242 266.195 306.329 264.904 307.257 264.714C308.365 264.488 309.485 265.906 310.379 266.974C311.272 268.042 312.762 268.098 313.114 267.022C313.364 266.257 312.849 266.156 312.118 265.493C307.52 261.336 303.064 257.058 298.465 252.905C294.01 248.88 289.107 243.602 284.236 240.276C279.354 236.942 281.979 244.301 291.791 255.436C296.332 260.587 300.7 265.884 305.152 271.108L305.156 271.109Z" fill="#FFFF8A"/>
</g>
<g style="mix-blend-mode:overlay" opacity="0.65">
<path d="M306.879 269.701C305.987 268.697 304.831 268.269 304.299 268.74C303.768 269.212 304.061 270.412 304.954 271.411C305.847 272.416 307.003 272.844 307.534 272.372C308.066 271.901 307.773 270.701 306.879 269.701Z" fill="white"/>
</g>
<g style="mix-blend-mode:multiply" opacity="0.5">
<path d="M167.337 106.984C166.348 105.977 164.939 107.235 165.825 108.33C180.396 126.495 207.118 159.644 233.011 191.598C263.812 211.045 307.536 255.634 317.935 266.43C318.399 264.682 318.296 262.705 316.932 260.655C313.884 256.1 204.949 145.018 167.342 106.981L167.337 106.984Z" fill="#AB2F39"/>
</g>
<path d="M139.519 69.9712C140.251 67.3778 138.741 64.682 136.147 63.9502C133.553 63.2183 130.857 64.7273 130.125 67.3208C129.393 69.9142 130.903 72.6099 133.497 73.3418C136.091 74.0737 138.787 72.5646 139.519 69.9712Z" fill="#64DBFF"/>
<g style="mix-blend-mode:screen">
<path d="M175.459 98.321C176.013 96.3561 174.869 94.3136 172.904 93.7591C170.938 93.2046 168.896 94.3479 168.341 96.3129C167.787 98.2778 168.931 100.32 170.896 100.875C172.862 101.429 174.904 100.286 175.459 98.321Z" fill="#64DBFF"/>
</g>
<g style="mix-blend-mode:screen">
<path d="M165.377 78.9661C165.651 77.9948 165.085 76.9852 164.114 76.7111C163.142 76.437 162.133 77.0022 161.858 77.9735C161.584 78.9448 162.15 79.9544 163.121 80.2285C164.093 80.5026 165.103 79.9374 165.377 78.9661Z" fill="#64DBFF"/>
</g>
<g style="mix-blend-mode:screen">
<path d="M102.596 120.219C102.87 119.248 102.305 118.238 101.333 117.964C100.362 117.69 99.3518 118.255 99.0777 119.227C98.8037 120.198 99.3691 121.208 100.341 121.482C101.312 121.756 102.322 121.191 102.596 120.219Z" fill="#64DBFF"/>
</g>
<g style="mix-blend-mode:screen">
<path d="M170.17 52.7999C170.725 50.8349 169.581 48.7925 167.615 48.238C165.65 47.6834 163.607 48.8268 163.053 50.7918C162.498 52.7567 163.642 54.7991 165.608 55.3537C167.573 55.9082 169.616 54.7648 170.17 52.7999Z" fill="#64DBFF"/>
</g>
<g style="mix-blend-mode:screen">
<path d="M120.646 96.4964C121.784 96.8175 122.442 97.9986 122.122 99.132C121.802 100.266 120.62 100.927 119.486 100.608C118.352 100.288 117.69 99.1053 118.01 97.9719C118.329 96.8384 119.512 96.1765 120.646 96.4964Z" fill="#64DBFF"/>
</g>
<g style="mix-blend-mode:screen">
<path d="M152.678 125.283C153.816 125.604 154.474 126.785 154.154 127.919C153.834 129.052 152.652 129.714 151.518 129.394C150.384 129.074 149.722 127.892 150.042 126.759C150.362 125.625 151.544 124.963 152.678 125.283Z" fill="#64DBFF"/>
</g>
<g style="mix-blend-mode:screen">
<path d="M156.838 100.278C157.976 100.6 158.634 101.781 158.314 102.914C157.994 104.048 156.812 104.709 155.678 104.389C154.544 104.07 153.882 102.887 154.202 101.754C154.522 100.62 155.704 99.9585 156.838 100.278Z" fill="#64DBFF"/>
</g>
<g style="mix-blend-mode:screen" opacity="0.25">
<path d="M121.792 75.133C123.941 67.5142 119.506 59.5949 111.885 57.4448C104.264 55.2947 96.344 59.728 94.1944 67.3468C92.0448 74.9656 96.4801 82.8849 104.101 85.035C111.722 87.1851 119.642 82.7519 121.792 75.133Z" fill="#64DBFF"/>
</g>
<g style="mix-blend-mode:screen" opacity="0.25">
<path d="M168.066 138.366C170.216 130.747 165.78 122.827 158.16 120.677C150.539 118.527 142.618 122.96 140.469 130.579C138.319 138.198 142.754 146.117 150.375 148.268C157.996 150.418 165.916 145.984 168.066 138.366Z" fill="#64DBFF"/>
</g>
<g style="mix-blend-mode:screen" opacity="0.25">
<path d="M214.085 114.119C215.019 110.807 213.092 107.365 209.779 106.431C206.467 105.496 203.025 107.423 202.091 110.734C201.156 114.046 203.084 117.488 206.396 118.422C209.708 119.357 213.151 117.43 214.085 114.119Z" fill="#64DBFF"/>
</g>
</g>
<defs>
<radialGradient id="paint0_radial_416_2165" cx="0" cy="0" r="1" gradientUnits="userSpaceOnUse" gradientTransform="translate(166.023 107.352) rotate(-74.2441) scale(86.9928 87.0146)">
<stop stop-color="#59F2FF"/>
<stop offset="1" stop-color="#359199" stop-opacity="0"/>
</radialGradient>
<radialGradient id="paint1_radial_416_2165" cx="0" cy="0" r="1" gradientUnits="userSpaceOnUse" gradientTransform="translate(163.713 108.645) rotate(-74.2441) scale(24.6107 24.6169)">
<stop stop-color="#59F2FF"/>
<stop offset="0.04" stop-color="#51DDE8"/>
<stop offset="0.15" stop-color="#3EA9B2"/>
<stop offset="0.26" stop-color="#2D7C83"/>
<stop offset="0.37" stop-color="#1F565A"/>
<stop offset="0.49" stop-color="#143639"/>
<stop offset="0.6" stop-color="#0B1E20"/>
<stop offset="0.73" stop-color="#040D0E"/>
<stop offset="0.85" stop-color="#010303"/>
<stop offset="1"/>
</radialGradient>
<linearGradient id="paint2_linear_416_2165" x1="401.979" y1="382.321" x2="412.371" y2="373.062" gradientUnits="userSpaceOnUse">
<stop stop-color="#D65238"/>
<stop offset="1" stop-color="#B93530"/>
</linearGradient>
<linearGradient id="paint3_linear_416_2165" x1="319.64" y1="293.772" x2="333.881" y2="281.083" gradientUnits="userSpaceOnUse">
<stop stop-color="#D65238"/>
<stop offset="1" stop-color="#B93530"/>
</linearGradient>
<linearGradient id="paint4_linear_416_2165" x1="235.456" y1="193.696" x2="244.142" y2="185.957" gradientUnits="userSpaceOnUse">
<stop stop-color="#D65238"/>
<stop offset="1" stop-color="#B93530"/>
</linearGradient>
<clipPath id="clip0_416_2165">
<rect width="390" height="550" fill="white" transform="translate(0 375.347) rotate(-74.2441)"/>
</clipPath>
</defs>
</svg>
