<svg width="399" height="557" viewBox="0 0 399 557" fill="none" xmlns="http://www.w3.org/2000/svg">
<g clip-path="url(#clip0_528_8192)">
<path d="M309.071 178.925C357.109 179.705 396.684 141.384 397.465 93.3339C398.245 45.2834 359.934 5.6985 311.896 4.91856C263.857 4.13862 224.282 42.459 223.502 90.5095C222.722 138.56 261.032 178.145 309.071 178.925Z" fill="url(#paint0_radial_528_8192)" fill-opacity="0.7" style="mix-blend-mode:screen"/>
<path style="mix-blend-mode:screen" d="M325.761 107.708C335.526 98.2519 335.779 82.6673 326.326 72.8991C316.872 63.1308 301.291 62.8779 291.525 72.3341C281.76 81.7903 281.507 97.3748 290.96 107.143C300.414 116.911 315.995 117.164 325.761 107.708Z" fill="url(#paint1_radial_528_8192)"/>
<path d="M162.814 336.604C166.82 332.541 167.919 323.592 168.228 318.398C168.36 316.016 167.228 313.744 165.226 312.416L164.796 312.133C162.789 310.806 160.226 310.633 158.086 311.692C157.163 312.154 156.154 312.68 155.092 313.294C147.936 317.33 138.396 324.529 145.233 331.812C145.233 331.812 78.4895 426.623 54.0098 458.659C49.8496 464.141 46.8693 467.772 45.6933 468.809L57.3688 473.445L59.4597 475.078L67.6641 483.346C68.4668 480.83 74.2372 470.6 82.4884 456.699C107.372 414.469 154.773 338.12 154.773 338.12C158.281 339.411 160.889 338.583 162.819 336.604L162.814 336.604Z" fill="#AB2F39"/>
<path d="M152.521 336.629C152.521 336.629 66.9008 470.481 62.4756 479.91L58.7711 474.599L57.7158 473.67L50.8682 472.227C57.8138 464.466 147.476 333.289 147.476 333.289C143.998 327.832 155.095 317.717 160.477 313.284C162.154 311.904 163.825 311.496 164.879 312.196L165.115 312.354C166.174 313.054 166.45 314.75 165.837 316.835C163.863 323.526 158.898 337.696 152.517 336.629L152.521 336.629Z" fill="url(#paint2_linear_528_8192)"/>
<g style="mix-blend-mode:overlay" opacity="0.35">
<path d="M144.613 339.764C127.561 365.968 62.0829 468.374 57.6416 476.199L56.6192 472.666L56.1836 472.145L52.2356 472.623C57.6989 465.474 126.453 364.856 143.893 338.906L144.608 339.769L144.613 339.764Z" fill="#FFFF8A"/>
</g>
<g style="mix-blend-mode:multiply">
<path d="M67.6592 483.342C68.462 480.825 74.2323 470.596 82.4835 456.695C71.8549 462.432 60.4945 460.555 54.0096 458.654C49.8495 464.136 46.8692 467.767 45.6932 468.805L57.3686 473.44L59.4595 475.073L67.6639 483.342L67.6592 483.342Z" fill="#AB2F39"/>
</g>
<path d="M43.0152 487.672L30.5439 506.525L38.877 512.04L51.3483 493.187L43.0152 487.672Z" fill="url(#paint3_linear_528_8192)"/>
<g style="mix-blend-mode:multiply" opacity="0.5">
<path d="M38.9016 512.006L51.3698 493.152L48.5072 491.259C48.3923 491.43 48.282 491.601 48.1755 491.824C44.0582 498.985 38.3832 500.464 34.5455 500.476L30.5683 506.494L38.9015 512.011L38.9016 512.006Z" fill="#D1810D"/>
</g>
<path d="M183.991 302.711C187.008 293.667 190.982 283.24 193.031 277.962C193.816 275.969 193.081 273.713 191.277 272.519C189.502 271.345 187.138 271.555 185.585 273.035C184.037 274.567 181.881 276.64 179.384 278.984C175.463 282.735 170.763 287.161 166.377 291.055C161.297 295.559 155.295 298.22 154.372 300.617C152.032 306.896 161.425 312.738 163.782 314.095C165.509 315.404 171.554 319.649 176.392 319.064L176.42 319.083C177.675 318.925 178.865 318.435 179.862 317.488C181.733 315.719 181.835 309.151 183.991 302.716L183.991 302.711Z" fill="#AB2F39"/>
<path d="M175.048 314.292C170.673 319.214 165.101 315.177 163.787 314.104C162.285 313.318 156.393 309.767 159.21 303.81C160.294 301.518 165.177 298.137 169.711 293.25C176.062 286.406 183.338 278.16 187 273.974C188.396 272.379 190.177 271.782 191.287 272.515C192.401 273.253 192.544 275.126 191.625 277.032C189.206 282.042 184.465 291.966 180.652 300.488C177.931 306.573 176.729 312.393 175.049 314.282L175.048 314.292Z" fill="url(#paint4_linear_528_8192)"/>
<g style="mix-blend-mode:overlay" opacity="0.64">
<path d="M147.514 332.672C143.216 329.39 152.673 322.091 156.34 319.089C157.481 318.153 158.626 317.882 159.352 318.366L159.514 318.472C160.24 318.951 160.436 320.109 160.025 321.528C158.699 326.079 155.004 337.712 150.982 334.968L147.514 332.672Z" fill="#FFFF8A"/>
</g>
<path d="M40.0985 540.308C46.8152 530.154 44.1913 516.582 34.2377 509.995C24.2841 503.408 10.7701 506.299 4.05337 516.454C-2.66339 526.608 -0.039435 540.179 9.91414 546.767C19.8677 553.354 33.3817 550.462 40.0985 540.308Z" fill="url(#paint5_linear_528_8192)"/>
<path style="mix-blend-mode:screen" d="M28.7269 537.751C33.3801 530.714 31.5606 521.31 24.6629 516.746C17.7653 512.183 8.40137 514.189 3.74815 521.226C-0.905068 528.263 0.914455 537.667 7.81215 542.231C14.7098 546.794 24.0737 544.788 28.7269 537.751Z" fill="url(#paint6_radial_528_8192)"/>
<path style="mix-blend-mode:screen" d="M28.0671 537.382C32.7215 530.346 30.9037 520.941 24.0068 516.377C17.1099 511.813 7.74564 513.817 3.0912 520.853C-1.56325 527.89 0.25463 537.294 7.15153 541.858C14.0484 546.423 23.4126 544.419 28.0671 537.382Z" fill="url(#paint7_radial_528_8192)"/>
<path d="M72.9777 486.57C71.6696 483.07 68.0593 478.004 59.4573 471.772C58.3791 471.1 57.365 470.514 56.3642 469.974C49.0125 465.894 43.8015 464.996 40.5174 465.172C38.5849 465.295 37.1434 466.852 36.9584 468.747C36.141 476.77 38.1333 483.035 39.9183 486.809C40.8313 488.731 42.2451 490.325 43.9931 491.48C44.2521 491.653 44.4787 491.801 44.7568 491.946C45.0904 492.125 45.4517 492.327 45.8045 492.477C47.8577 494.414 50.5307 495.607 53.3523 495.7C57.5236 495.866 64.0958 495.271 71.1992 491.319C72.8263 490.42 73.6172 488.347 72.9823 486.57L72.9777 486.57Z" fill="url(#paint8_linear_528_8192)"/>
<path d="M36.1193 506.874C33.0724 504.819 26.4508 502.126 19.5682 503.132L19.5404 503.113C13.8939 503.989 8.0854 507.354 3.95416 515.661C3.95416 515.661 14.4537 521.329 20.9182 515.847C20.9182 515.847 14.4496 523.882 21.5858 528.851L21.5667 528.878L21.7979 529.032L21.817 529.004C29.2063 533.645 34.0701 524.551 34.0701 524.551C31.5271 532.631 40.8526 540.076 40.8526 540.076C41.072 539.808 41.2867 539.54 41.506 539.273C53.8367 523.993 42.7672 511.4 36.1239 506.879L36.1193 506.874Z" fill="url(#paint9_linear_528_8192)"/>
<g style="mix-blend-mode:screen" opacity="0.35">
<path d="M35.0598 508.232C32.4701 506.521 26.4102 503.781 20.109 504.384L19.4771 504.44C14.3331 505.165 10.2939 508.092 7.45403 513.151C10.3503 514.404 16.5257 516.365 20.7282 513.75C21.6536 513.176 24.4698 511.594 24.4698 511.594C24.4459 511.627 20.5089 518.908 21.1225 521.994C21.399 523.387 22.2632 524.57 23.7701 525.614L23.9319 525.719C25.4957 526.708 26.9346 527.044 28.3322 526.754C31.4136 526.107 35.969 519.313 35.9882 519.281C35.9882 519.281 35.889 522.799 35.7812 523.971C35.3274 528.892 39.4936 533.691 41.7812 535.869C45.1752 531.52 46.4404 527.006 45.5281 522.451C44.3132 516.381 39.3733 511.158 35.1476 508.294L35.0552 508.232L35.0598 508.232Z" fill="#FFDF46"/>
</g>
<path d="M22.535 527.426C22.567 527.474 22.6041 527.488 22.6458 527.512C22.6874 527.541 22.715 527.57 22.7566 527.598C27.5229 530.556 31.2005 528.025 33.2707 525.749C31.6159 528.06 27.4581 532.532 21.8176 529.009C21.7663 528.999 21.734 528.97 21.6971 528.942C21.6555 528.913 21.6183 528.903 21.5767 528.874C16.1421 525.046 18.6258 519.466 20.1048 517.041C18.8255 519.834 17.9365 524.21 22.5304 527.422L22.535 527.426Z" fill="#FFDF46"/>
<path d="M21.7381 514.313C21.7381 514.313 21.1942 514.997 20.5971 516.072C14.1068 521.128 3.95898 515.675 3.95898 515.675C4.23444 515.119 4.54109 514.656 4.82989 514.142C6.55937 515.002 15.8479 519.258 21.7382 514.309L21.7381 514.313Z" fill="#FFDF46"/>
<path d="M35.149 523.185C32.8933 530.55 40.4656 537.447 41.9224 538.691C41.5643 539.157 41.253 539.615 40.8481 540.086C40.8481 540.086 31.86 532.875 33.9756 524.919C34.7346 523.95 35.149 523.185 35.149 523.185Z" fill="#FFDF46"/>
<path d="M311.174 93.097C311.895 91.8838 310.318 90.8436 309.486 91.9803C295.655 110.714 270.447 145.028 246.182 178.236C214.642 221.377 184.739 262.674 183.395 265.453C180.437 271.736 187.118 276.197 188.359 276.937C189.14 277.497 192.234 279.543 195.567 279.485C197.376 279.486 199.26 278.881 200.893 277.038C204.517 272.926 284.026 139.194 311.174 93.1064L311.174 93.097Z" fill="#AB2F39"/>
<path d="M196.963 274.426C192.729 279.851 189.006 277.429 188.364 276.946C187.665 276.542 183.984 274.061 187.317 268.042C189.955 263.278 279.121 135.935 309.862 92.2203C310.665 91.0785 311.53 91.6489 310.791 92.8338C282.598 138.236 200.314 270.127 196.963 274.421L196.963 274.426Z" fill="url(#paint10_linear_528_8192)"/>
<g style="mix-blend-mode:multiply" opacity="0.5">
<path d="M72.9773 486.57C71.6692 483.07 68.0589 478.004 59.4569 471.773C58.3787 471.101 57.3646 470.514 56.3638 469.974C58.3416 473.961 59.8914 479.27 57.9014 484.09C54.0674 493.374 42.9304 490.411 42.9304 490.411L44.7564 491.946C45.09 492.125 45.4513 492.327 45.8041 492.478C47.8573 494.414 50.5303 495.607 53.3519 495.7C57.5232 495.866 64.0954 495.271 71.1988 491.319C72.8259 490.42 73.6168 488.347 72.9819 486.57L72.9773 486.57Z" fill="#D1810D"/>
</g>
<g style="mix-blend-mode:multiply" opacity="0.5">
<path d="M36.1195 506.875C33.0726 504.819 26.451 502.127 19.5684 503.132C40.8021 508.942 41.7905 531.549 41.5016 539.268C53.8323 523.989 42.7628 511.396 36.1195 506.875Z" fill="#D1810D"/>
</g>
<path d="M8.73483 538.484C9.84434 537.801 9.87637 535.828 8.80172 534.076C7.72707 532.324 5.9556 531.459 4.84149 532.137C3.73198 532.82 3.69995 534.793 4.7746 536.545C5.84925 538.297 7.62072 539.162 8.73483 538.484Z" fill="white"/>
<path d="M8.83575 530.528C9.5203 530.109 9.53529 528.898 8.87969 527.822C8.2241 526.745 7.12964 526.213 6.44976 526.632C5.76521 527.051 5.75023 528.262 6.40582 529.339C7.06142 530.415 8.15587 530.947 8.83575 530.528Z" fill="white"/>
<g style="mix-blend-mode:screen" opacity="0.35">
<path d="M38.5298 480.774C38.0037 478.349 38.1305 475.718 39.2832 473.526C40.4359 471.333 42.7253 469.664 45.2032 469.629C48.4571 469.584 51.2724 472.374 52.0577 475.533C52.8384 478.692 51.9518 482.058 50.4698 484.956C49.8615 486.148 49.1368 487.31 48.1362 488.196C43.413 492.373 39.4 484.758 38.5346 480.77L38.5298 480.774Z" fill="#FFDF46"/>
</g>
<g style="mix-blend-mode:overlay">
<path d="M39.3305 482.419C39.1045 481.368 39.1557 480.228 39.6573 479.277C40.1588 478.327 41.1475 477.604 42.2227 477.589C43.6346 477.57 44.8537 478.777 45.1913 480.148C45.529 481.519 45.1454 482.976 44.5034 484.232C44.2379 484.747 43.9259 485.252 43.4896 485.637C41.4411 487.446 39.7044 484.15 39.3305 482.419Z" fill="white"/>
</g>
<g style="mix-blend-mode:multiply" opacity="0.5">
<path d="M168.228 318.394C168.36 316.011 167.228 313.739 165.226 312.412L164.796 312.129C162.789 310.801 160.225 310.629 158.086 311.688C157.163 312.15 156.154 312.676 155.092 313.29C168.88 317.081 164.906 330.079 162.814 336.605C166.82 332.542 167.919 323.592 168.228 318.398L168.228 318.394Z" fill="#AB2F39"/>
</g>
<g style="mix-blend-mode:overlay" opacity="0.64">
<path d="M158.83 307.315C159.496 308.616 161.183 308.928 162.64 309.022C164.097 309.121 165.759 309.255 166.632 310.419C167.685 311.825 167.307 314.367 168.966 314.932C169.784 315.211 170.713 314.749 171.238 314.061C171.763 313.373 171.978 312.507 172.184 311.664C173.581 305.904 174.974 300.143 176.372 294.382C176.618 293.358 176.623 291.904 175.598 291.672C175.016 291.541 174.463 291.934 173.998 292.31C170.679 294.968 167.405 297.664 164.136 300.374C162.066 302.089 157.637 303.957 158.835 307.31L158.83 307.315Z" fill="#FFFF8A"/>
</g>
<g style="mix-blend-mode:multiply" opacity="0.5">
<path d="M183.991 302.711C187.008 293.667 190.982 283.24 193.031 277.962C193.816 275.969 193.081 273.713 191.278 272.519C189.502 271.345 187.138 271.555 185.586 273.035C184.037 274.566 181.881 276.64 179.385 278.984C192.439 277.569 179.843 310.919 176.392 319.059L176.42 319.078C177.675 318.921 178.866 318.43 179.863 317.483C181.733 315.714 181.835 309.147 183.991 302.711Z" fill="#AB2F39"/>
</g>
<g style="mix-blend-mode:overlay" opacity="0.65">
<path d="M164.025 307.493C164.499 306.776 163.944 305.57 162.779 304.803C161.618 304.036 160.291 303.991 159.817 304.708C159.342 305.425 159.898 306.631 161.063 307.398C162.224 308.165 163.551 308.21 164.025 307.493Z" fill="white"/>
</g>
<g style="mix-blend-mode:overlay" opacity="0.65">
<path d="M151.491 332.666C151.966 331.949 151.41 330.744 150.245 329.977C149.084 329.21 147.758 329.165 147.283 329.882C146.809 330.599 147.364 331.805 148.53 332.572C149.69 333.338 151.017 333.383 151.491 332.666Z" fill="white"/>
</g>
<path d="M26.6592 503.71C26.6592 503.71 52.018 511.093 43.4974 534.677C43.4974 534.677 55.7412 512.658 26.6592 503.71Z" fill="#FFDF46"/>
<path d="M49.2409 493.847C49.2409 493.847 61.1153 498.318 72.007 489.05C72.007 489.05 58.1739 495.24 49.2409 493.847Z" fill="#FFDF46"/>
<g style="mix-blend-mode:overlay" opacity="0.35">
<path d="M187.779 268.325C187.42 268.843 187.042 269.416 187.028 269.991C187.001 271.057 188.264 271.311 189.225 270.817C190.187 270.323 190.973 269.391 191.89 268.752C192.807 268.117 194.078 267.871 194.499 268.719C195.001 269.733 193.917 271.178 193.113 272.315C192.309 273.452 192.636 274.907 193.766 274.972C194.57 275.018 194.536 274.494 194.99 273.618C197.832 268.109 200.827 262.707 203.665 257.198C206.416 251.862 210.263 245.772 212.233 240.212C214.207 234.638 207.764 239.059 199.51 251.394C195.692 257.102 191.69 262.68 187.779 268.32L187.779 268.325Z" fill="#FFFF8A"/>
</g>
<g style="mix-blend-mode:overlay" opacity="0.65">
<path d="M189.581 269.631C190.324 268.511 190.442 267.284 189.85 266.891C189.258 266.498 188.173 267.088 187.435 268.207C186.693 269.327 186.575 270.554 187.166 270.947C187.758 271.34 188.843 270.75 189.581 269.631Z" fill="white"/>
</g>
<g style="mix-blend-mode:multiply" opacity="0.5">
<path d="M311.175 93.0972C311.896 91.884 310.318 90.8439 309.487 91.9805C295.656 110.714 270.447 145.028 246.182 178.236C235.265 212.988 203.348 266.666 195.572 279.481C197.381 279.482 199.265 278.877 200.898 277.033C204.522 272.922 284.032 139.19 311.179 93.102L311.175 93.0972Z" fill="#AB2F39"/>
</g>
<path d="M339.838 56.7351C342.532 56.7789 344.752 54.6296 344.795 51.9346C344.839 49.2396 342.691 47.0194 339.996 46.9757C337.302 46.9319 335.082 49.0812 335.038 51.7762C334.995 54.4712 337.143 56.6914 339.838 56.7351Z" fill="#64DBFF"/>
<g style="mix-blend-mode:screen">
<path d="M321.628 98.7322C323.669 98.7654 325.351 97.1369 325.384 95.095C325.417 93.0531 323.789 91.371 321.748 91.3378C319.707 91.3047 318.025 92.9331 317.992 94.975C317.959 97.0169 319.587 98.6991 321.628 98.7322Z" fill="#64DBFF"/>
</g>
<g style="mix-blend-mode:screen">
<path d="M337.759 84.0334C338.768 84.0498 339.599 83.2449 339.616 82.2355C339.632 81.2262 338.827 80.3947 337.818 80.3783C336.809 80.3619 335.978 81.1669 335.962 82.1762C335.945 83.1855 336.75 84.017 337.759 84.0334Z" fill="#64DBFF"/>
</g>
<g style="mix-blend-mode:screen">
<path d="M281.815 33.8987C282.824 33.915 283.655 33.1101 283.671 32.1008C283.688 31.0914 282.883 30.2599 281.874 30.2435C280.865 30.2271 280.034 31.0321 280.017 32.0414C280.001 33.0508 280.806 33.8823 281.815 33.8987Z" fill="#64DBFF"/>
</g>
<g style="mix-blend-mode:screen">
<path d="M364.281 81.972C366.322 82.0051 368.004 80.3767 368.037 78.3348C368.07 76.2929 366.442 74.6107 364.401 74.5776C362.359 74.5444 360.678 76.1729 360.645 78.2148C360.611 80.2567 362.239 81.9388 364.281 81.972Z" fill="#64DBFF"/>
</g>
<g style="mix-blend-mode:screen">
<path d="M309.366 45.2772C309.347 46.4597 308.374 47.3977 307.196 47.3786C306.018 47.3594 305.076 46.3857 305.095 45.2078C305.114 44.03 306.088 43.0873 307.265 43.1064C308.443 43.1256 309.385 44.0993 309.366 45.2772Z" fill="#64DBFF"/>
</g>
<g style="mix-blend-mode:screen">
<path d="M289.734 83.6087C289.715 84.7913 288.742 85.7292 287.564 85.7101C286.387 85.691 285.444 84.7172 285.463 83.5394C285.482 82.3615 286.456 81.4189 287.634 81.438C288.811 81.4571 289.753 82.4309 289.734 83.6087Z" fill="#64DBFF"/>
</g>
<g style="mix-blend-mode:screen">
<path d="M314.971 81.2322C314.952 82.4148 313.979 83.3527 312.801 83.3336C311.623 83.3145 310.681 82.3408 310.7 81.1629C310.719 79.985 311.693 79.0424 312.87 79.0615C314.048 79.0806 314.99 80.0544 314.971 81.2322Z" fill="#64DBFF"/>
</g>
<g style="mix-blend-mode:screen" opacity="0.25">
<path d="M330.312 40.9186C338.227 41.0471 344.748 34.7331 344.876 26.8159C345.005 18.8987 338.692 12.3763 330.777 12.2478C322.862 12.1193 316.341 18.4333 316.213 26.3505C316.084 34.2677 322.396 40.79 330.312 40.9186Z" fill="#64DBFF"/>
</g>
<g style="mix-blend-mode:screen" opacity="0.25">
<path d="M281.025 101.832C288.94 101.961 295.461 95.6467 295.59 87.7295C295.718 79.8122 289.406 73.2899 281.49 73.1614C273.575 73.0329 267.054 79.3469 266.926 87.2641C266.797 95.1813 273.11 101.704 281.025 101.832Z" fill="#64DBFF"/>
</g>
<g style="mix-blend-mode:screen" opacity="0.25">
<path d="M316.24 140.115C319.68 140.171 322.514 137.427 322.57 133.986C322.626 130.545 319.883 127.71 316.442 127.654C313.002 127.598 310.168 130.342 310.112 133.783C310.056 137.224 312.8 140.059 316.24 140.115Z" fill="#64DBFF"/>
</g>
</g>
<defs>
<radialGradient id="paint0_radial_528_8192" cx="0" cy="0" r="1" gradientUnits="userSpaceOnUse" gradientTransform="translate(310.483 91.9217) rotate(0.930162) scale(86.9928 87.0146)">
<stop stop-color="#59F2FF"/>
<stop offset="1" stop-color="#359199" stop-opacity="0"/>
</radialGradient>
<radialGradient id="paint1_radial_528_8192" cx="0" cy="0" r="1" gradientUnits="userSpaceOnUse" gradientTransform="translate(308.643 90.0194) rotate(0.930162) scale(24.6107 24.6169)">
<stop stop-color="#59F2FF"/>
<stop offset="0.04" stop-color="#51DDE8"/>
<stop offset="0.15" stop-color="#3EA9B2"/>
<stop offset="0.26" stop-color="#2D7C83"/>
<stop offset="0.37" stop-color="#1F565A"/>
<stop offset="0.49" stop-color="#143639"/>
<stop offset="0.6" stop-color="#0B1E20"/>
<stop offset="0.73" stop-color="#040D0E"/>
<stop offset="0.85" stop-color="#010303"/>
<stop offset="1"/>
</radialGradient>
<linearGradient id="paint2_linear_528_8192" x1="105.044" y1="390.381" x2="116.655" y2="398.058" gradientUnits="userSpaceOnUse">
<stop stop-color="#D65238"/>
<stop offset="1" stop-color="#B93530"/>
</linearGradient>
<linearGradient id="paint3_linear_528_8192" x1="36.7886" y1="497.076" x2="45.1229" y2="502.589" gradientUnits="userSpaceOnUse">
<stop stop-color="#FFD358"/>
<stop offset="1" stop-color="#FA8F13"/>
</linearGradient>
<linearGradient id="paint4_linear_528_8192" x1="169.576" y1="288.125" x2="185.487" y2="298.645" gradientUnits="userSpaceOnUse">
<stop stop-color="#D65238"/>
<stop offset="1" stop-color="#B93530"/>
</linearGradient>
<linearGradient id="paint5_linear_528_8192" x1="4.05577" y1="516.399" x2="40.1024" y2="540.243" gradientUnits="userSpaceOnUse">
<stop stop-color="#00F2DF"/>
<stop offset="0.15" stop-color="#00EBDF"/>
<stop offset="0.37" stop-color="#00D9DF"/>
<stop offset="0.62" stop-color="#00BBE0"/>
<stop offset="0.9" stop-color="#0092E1"/>
<stop offset="1" stop-color="#0082E2"/>
</linearGradient>
<radialGradient id="paint6_radial_528_8192" cx="0" cy="0" r="1" gradientUnits="userSpaceOnUse" gradientTransform="translate(16.2571 529.518) rotate(33.4867) scale(15.1246 15.1262)">
<stop stop-color="white"/>
<stop offset="0.65" stop-color="#575757"/>
<stop offset="1"/>
</radialGradient>
<radialGradient id="paint7_radial_528_8192" cx="0" cy="0" r="1" gradientUnits="userSpaceOnUse" gradientTransform="translate(15.5868 529.089) rotate(33.4967) scale(15.1246 15.1262)">
<stop stop-color="white"/>
<stop offset="0.01" stop-color="#F7F7F7"/>
<stop offset="0.13" stop-color="#BEBEBE"/>
<stop offset="0.25" stop-color="#8B8B8B"/>
<stop offset="0.37" stop-color="#606060"/>
<stop offset="0.49" stop-color="#3D3D3D"/>
<stop offset="0.62" stop-color="#222222"/>
<stop offset="0.74" stop-color="#0F0F0F"/>
<stop offset="0.87" stop-color="#030303"/>
<stop offset="1"/>
</radialGradient>
<linearGradient id="paint8_linear_528_8192" x1="35.1421" y1="470.701" x2="70.109" y2="493.822" gradientUnits="userSpaceOnUse">
<stop stop-color="#FFD358"/>
<stop offset="1" stop-color="#FA8F13"/>
</linearGradient>
<linearGradient id="paint9_linear_528_8192" x1="36.2622" y1="507.003" x2="21.7061" y2="529.006" gradientUnits="userSpaceOnUse">
<stop stop-color="#FFD358"/>
<stop offset="1" stop-color="#FA8F13"/>
</linearGradient>
<linearGradient id="paint10_linear_528_8192" x1="244.78" y1="181.137" x2="254.484" y2="187.553" gradientUnits="userSpaceOnUse">
<stop stop-color="#D65238"/>
<stop offset="1" stop-color="#B93530"/>
</linearGradient>
<clipPath id="clip0_528_8192">
<rect width="390" height="550" fill="white" transform="translate(8.92871) rotate(0.930162)"/>
</clipPath>
</defs>
</svg>
