<svg width="207" height="231" viewBox="0 0 207 231" fill="none" xmlns="http://www.w3.org/2000/svg">
<g clip-path="url(#clip0_6238_14076)">
<path style="mix-blend-mode:screen" d="M103.5 207.528C160.661 207.528 207 161.071 207 103.764C207 46.4566 160.661 0 103.5 0C46.3385 0 0 46.4566 0 103.764C0 161.071 46.3385 207.528 103.5 207.528Z" fill="url(#paint0_radial_6238_14076)"/>
<path d="M155.892 65.0003L149.995 93.641L146.926 108.525L138.489 149.471L137.47 154.484L131.596 183.009L129.926 191.108L112.645 231L112.51 230.945L100.526 226.427L78.5641 218.136L77.5711 215.205L74.8662 207.237L72.7996 201.161L69.8755 192.544L68.7019 189.121L67.0674 184.337L65.062 178.458L48.6035 130.01L72.5997 60.4138L108.002 17.5449L155.892 65.0003Z" fill="url(#paint1_linear_6238_14076)"/>
<path d="M155.888 64.9913L106.281 97.1809L76.1719 98.6516L72.6094 60.4112L107.996 17.5488L155.888 64.9913Z" fill="url(#paint2_linear_6238_14076)"/>
<path d="M72.61 60.4102L76.1725 98.6505L48.5977 130.003L72.61 60.4102Z" fill="#FFDEFC"/>
<g style="mix-blend-mode:screen" opacity="0.5">
<path d="M155.888 64.9902L106.452 97.1378L76.1719 98.6505L97.1408 99.1612L104.891 105.558L112.645 231L106.919 105.587L114.889 94.5391L155.888 64.9902Z" fill="#EF9AE7"/>
</g>
<path d="M72.6035 60.5469L76.1725 98.6515L48.5977 130.004L74.093 98.3056L72.6035 60.5469Z" fill="white"/>
<g style="mix-blend-mode:screen">
<path d="M95.1367 97.6159L106.453 97.1375L116.119 90.8477L105.815 106.589L95.1367 97.6159Z" fill="#FFA9E5"/>
</g>
<g style="mix-blend-mode:overlay" opacity="0.15">
<path d="M149.998 93.6406L146.929 108.525C142.302 113.69 137.818 118.929 134.101 124.709C126.083 137.24 122.033 152.289 122.668 167.148C122.9 172.659 123.226 179.336 118.606 182.333C114.554 184.973 108.866 182.746 105.729 179.055C102.615 175.341 101.2 170.541 99.1363 166.149C97.0504 161.756 93.7942 157.39 89.0613 156.391C84.551 155.441 79.8891 157.887 76.9037 161.42C73.9376 164.95 72.3449 169.388 70.7877 173.735C69.5433 177.261 68.2956 180.788 67.0737 184.333L65.0684 178.454C68.7727 168.276 72.9736 158.278 77.5904 148.491C79.4442 144.564 81.8622 140.236 86.0566 139.131C90.812 137.87 95.6383 141.452 98.0692 145.728C100.5 150.004 101.354 155.001 103.382 159.487C105.41 163.951 109.298 168.243 114.202 168.324C115.779 140.042 129.194 112.753 150.001 93.6406H149.998Z" fill="#FF69F0"/>
</g>
<g style="mix-blend-mode:overlay" opacity="0.25">
<path d="M138.489 149.469L137.47 154.482C134.05 160.924 130.977 168.73 129.407 177.722C124.655 205.192 117.414 207.687 100.075 190.537C84.313 174.948 85.2061 168.306 69.8728 192.541L68.6992 189.118C73.6738 175.478 82.0369 155.797 86.4312 164.253C92.9243 176.726 122.073 217.846 125.78 184.089C127.415 169.208 132.866 157.695 138.489 149.469Z" fill="#FF69F0"/>
</g>
<g style="mix-blend-mode:overlay" opacity="0.25">
<path d="M112.509 230.945L100.529 226.426C96.354 220.185 92.0984 212.58 89.0065 204.131C85.2377 193.765 79.7537 198.665 74.8661 207.237L72.8027 201.163C78.1836 190.167 84.8766 181.521 89.287 193.607C95.7479 211.3 107.393 225.337 112.513 230.948L112.509 230.945Z" fill="#FF69F0"/>
</g>
</g>
<defs>
<radialGradient id="paint0_radial_6238_14076" cx="0" cy="0" r="1" gradientUnits="userSpaceOnUse" gradientTransform="translate(103.5 103.764) scale(103.5 103.764)">
<stop stop-color="#F300E3"/>
<stop offset="0.03" stop-color="#E700D7"/>
<stop offset="0.24" stop-color="#A10097"/>
<stop offset="0.44" stop-color="#680061"/>
<stop offset="0.62" stop-color="#3B0037"/>
<stop offset="0.78" stop-color="#1A0019"/>
<stop offset="0.91" stop-color="#070006"/>
<stop offset="1"/>
</radialGradient>
<linearGradient id="paint1_linear_6238_14076" x1="102.248" y1="231" x2="102.248" y2="17.5449" gradientUnits="userSpaceOnUse">
<stop stop-color="#FF14E3"/>
<stop offset="0.32" stop-color="#BA0CB9"/>
<stop offset="0.64" stop-color="#7E0695"/>
<stop offset="0.87" stop-color="#59027E"/>
<stop offset="0.99" stop-color="#4B0176"/>
</linearGradient>
<linearGradient id="paint2_linear_6238_14076" x1="71.6608" y1="61.7181" x2="154.255" y2="51.6318" gradientUnits="userSpaceOnUse">
<stop stop-color="#E883F2"/>
<stop offset="0.2" stop-color="#EB74EC"/>
<stop offset="0.56" stop-color="#F34FDE"/>
<stop offset="1" stop-color="#FF1BCA"/>
</linearGradient>
<clipPath id="clip0_6238_14076">
<rect width="207" height="231" fill="white"/>
</clipPath>
</defs>
</svg>
