<svg width="207" height="231" viewBox="0 0 207 231" fill="none" xmlns="http://www.w3.org/2000/svg">
<g clip-path="url(#clip0_288_9336)">
<path d="M103.5 207.528C160.661 207.528 207 161.071 207 103.764C207 46.4566 160.661 0 103.5 0C46.3385 0 0 46.4566 0 103.764C0 161.071 46.3385 207.528 103.5 207.528Z" fill="url(#paint0_radial_288_9336)" style="mix-blend-mode:screen"/>
<path d="M155.893 64.9998L149.997 93.6405L146.927 108.525L138.49 149.471L137.471 154.484L131.597 183.008L129.927 191.108L112.647 231L112.511 230.945L100.528 226.426L78.5657 218.136L77.5727 215.204L74.8677 207.237L72.8011 201.16L69.877 192.543L68.7034 189.12L67.0689 184.336L65.0636 178.457L48.605 130.009L72.6013 60.4133L108.004 17.5444L155.893 64.9998Z" fill="url(#paint1_linear_288_9336)"/>
<path d="M155.89 64.9903L106.282 97.1799L76.1734 98.6506L72.6109 60.4103L107.998 17.5479L155.89 64.9903Z" fill="url(#paint2_linear_288_9336)"/>
<path d="M72.6109 60.4102L76.1734 98.6505L48.5986 130.003L72.6109 60.4102Z" fill="#FFDEFC"/>
<g style="mix-blend-mode:screen" opacity="0.5">
<path d="M155.89 64.9902L106.453 97.1378L76.1734 98.6505L97.1423 99.1612L104.893 105.558L112.646 231L106.921 105.587L114.89 94.5391L155.89 64.9902Z" fill="#EF9AE7"/>
</g>
<path d="M72.6045 60.5459L76.1734 98.6505L48.5986 130.003L74.0939 98.3046L72.6045 60.5459Z" fill="white"/>
<g style="mix-blend-mode:screen">
<path d="M95.137 97.6159L106.453 97.1375L116.119 90.8477L105.815 106.589L95.137 97.6159Z" fill="#FFA9E5"/>
</g>
<g style="mix-blend-mode:overlay" opacity="0.15">
<path d="M150 93.6406L146.93 108.525C142.304 113.69 137.819 118.929 134.102 124.709C126.084 137.24 122.035 152.289 122.67 167.148C122.902 172.659 123.228 179.336 118.608 182.333C114.555 184.973 108.868 182.746 105.731 179.055C102.617 175.341 101.201 170.541 99.1379 166.149C97.052 161.756 93.7958 157.39 89.0629 156.391C84.5526 155.441 79.8907 157.887 76.9052 161.42C73.9392 164.95 72.3465 169.388 70.7893 173.735C69.5449 177.261 68.2972 180.788 67.0753 184.333L65.0699 178.454C68.7743 168.276 72.9752 158.278 77.592 148.491C79.4458 144.564 81.8637 140.236 86.0582 139.131C90.8136 137.87 95.6399 141.452 98.0708 145.728C100.502 150.004 101.356 155.001 103.384 159.487C105.412 163.951 109.3 168.243 114.204 168.324C115.78 140.042 129.195 112.753 150.003 93.6406H150Z" fill="#FF69F0"/>
</g>
<g style="mix-blend-mode:overlay" opacity="0.25">
<path d="M138.49 149.467L137.471 154.48C134.051 160.922 130.978 168.728 129.408 177.72C124.656 205.191 117.415 207.686 100.076 190.536C84.314 174.947 85.2071 168.305 69.8737 192.54L68.7002 189.117C73.6748 175.477 82.0379 155.796 86.4322 164.251C92.9253 176.725 122.073 217.845 125.781 184.088C127.416 169.206 132.867 157.693 138.49 149.467Z" fill="#FF69F0"/>
</g>
<g style="mix-blend-mode:overlay" opacity="0.25">
<path d="M112.511 230.945L100.531 226.426C96.3556 220.185 92.0999 212.58 89.0081 204.131C85.2393 193.765 79.7553 198.665 74.8677 207.237L72.8043 201.163C78.1852 190.167 84.8782 181.521 89.2886 193.607C95.7495 211.3 107.395 225.337 112.514 230.948L112.511 230.945Z" fill="#FF69F0"/>
</g>
</g>
<defs>
<radialGradient id="paint0_radial_288_9336" cx="0" cy="0" r="1" gradientUnits="userSpaceOnUse" gradientTransform="translate(103.5 103.764) scale(103.5 103.764)">
<stop stop-color="#F300E3"/>
<stop offset="1" stop-color="#8D0084" stop-opacity="0"/>
</radialGradient>
<linearGradient id="paint1_linear_288_9336" x1="102.249" y1="231" x2="102.249" y2="17.5444" gradientUnits="userSpaceOnUse">
<stop stop-color="#FF14E3"/>
<stop offset="0.32" stop-color="#BA0CB9"/>
<stop offset="0.64" stop-color="#7E0695"/>
<stop offset="0.87" stop-color="#59027E"/>
<stop offset="0.99" stop-color="#4B0176"/>
</linearGradient>
<linearGradient id="paint2_linear_288_9336" x1="71.6624" y1="61.7172" x2="154.257" y2="51.6308" gradientUnits="userSpaceOnUse">
<stop stop-color="#E883F2"/>
<stop offset="0.2" stop-color="#EB74EC"/>
<stop offset="0.56" stop-color="#F34FDE"/>
<stop offset="1" stop-color="#FF1BCA"/>
</linearGradient>
<clipPath id="clip0_288_9336">
<rect width="207" height="231" fill="white"/>
</clipPath>
</defs>
</svg>
