<svg width="143" height="174" viewBox="0 0 143 174" fill="none" xmlns="http://www.w3.org/2000/svg">
<g clip-path="url(#clip0_288_9201)">
<path style="mix-blend-mode:screen" opacity="0.42" d="M86.45 0.969898C86.45 0.969898 78.6 -2.0501 70.38 2.5599C61.7 7.4299 67.38 11.9999 78.6 12.4299C91.12 12.9099 85.48 22.9299 77.37 22.2999C69.26 21.6599 58.98 20.0599 56.18 25.3199C53.38 30.5799 68.86 34.0399 68.86 34.0399L69.08 35.8299C69.08 35.8299 52.03 33.1999 38.06 43.2299C24.09 53.2599 8.54001 55.5599 7.23001 72.9099C5.92001 90.2599 46.84 89.1399 46.84 89.1399L82.53 110.78C82.53 110.78 91.31 106.01 95.8 110.78C100.28 115.55 105.52 121.12 105.52 121.12C105.52 121.12 107.2 117.94 113.37 117.3C119.54 116.66 115.43 125.42 115.43 125.42C115.43 125.42 122.72 123.67 122.72 128.92C122.72 134.17 116.55 142.73 108.52 137.66C100.49 132.58 86.85 146.75 75.63 134.17C64.42 121.6 57.13 131.78 55.26 127.01C53.39 122.24 49.09 116.51 39.19 118.1C29.29 119.69 41.25 127.17 41.25 127.17C41.25 127.17 26.68 122.71 20.7 134.65C14.72 146.59 20.14 157.09 36.21 162.98C52.28 168.87 65.55 163.62 70.78 164.41C76.01 165.2 74.86 174.28 64.97 171.73C64.97 171.73 72.27 176.82 79 170.46C85.73 164.09 78.63 158.21 63.3 160.91C47.98 163.62 39.38 147.86 43.31 141.49C47.24 135.12 57.32 133.53 59.19 140.06C61.06 146.59 54.14 142.45 54.14 142.45C54.14 142.45 58.62 154.7 73.76 152C88.89 149.29 89.08 144.52 89.08 144.52L107.39 140.7C107.39 140.7 111.13 144.68 120.28 142.13C129.44 139.58 140.46 126.37 134.29 117.62C128.12 108.87 113.08 116.19 110.7 109.82C108.32 103.45 111.49 100.27 117.29 101.46C123.08 102.65 126.07 106.95 131.68 103.29C137.29 99.6299 133.17 85.6199 120.1 83.7099C107.02 81.7999 93.57 90.2399 93.57 90.2399L42.19 75.5999C42.19 75.5999 38.45 82.2799 26.68 79.4199C14.91 76.5599 23.13 72.7399 23.13 72.7399C23.13 72.7399 15.47 70.0299 17.52 64.3099C19.58 58.5799 29.85 59.8499 30.97 63.3599C30.97 63.3599 41.25 43.9399 61.24 53.2499C81.23 62.5599 87.77 38.6899 82.17 31.9999C76.56 25.3199 94.32 26.2699 98.43 22.2899C102.54 18.3099 96.79 11.9299 86.85 11.3099C71.66 10.3599 70.78 0.00989836 86.48 0.969898H86.45Z" fill="url(#paint0_linear_288_9201)"/>
<g opacity="0.71">
<path d="M71.25 166.62C110.6 166.62 142.5 131.192 142.5 87.4899C142.5 43.7876 110.6 8.35986 71.25 8.35986C31.8997 8.35986 0 43.7876 0 87.4899C0 131.192 31.8997 166.62 71.25 166.62Z" fill="url(#paint1_radial_288_9201)" fill-opacity="0.7" style="mix-blend-mode:screen"/>
</g>
<path d="M74.26 21.1997L56.18 33.3897L35.02 75.8597L44.41 107.53L54.64 113.27L64.45 153.77L74.26 148.87L96.36 84.0997L84.21 43.7597L85.47 38.4397L74.26 21.1997Z" fill="url(#paint2_linear_288_9201)"/>
<g style="mix-blend-mode:multiply" opacity="0.3">
<path d="M74.26 21.1997L75.15 71.3997L87.29 76.5597L84.21 43.7597L85.47 38.4397L74.26 21.1997Z" fill="#002EAE"/>
</g>
<g style="mix-blend-mode:multiply" opacity="0.3">
<path d="M44.41 107.53L66.27 104.02L75.15 71.3999L35.02 75.8599L44.41 107.53Z" fill="#002EAE"/>
</g>
<g style="mix-blend-mode:multiply" opacity="0.3">
<path d="M54.64 113.269L69.08 106.729L74.26 148.869L64.45 153.769L54.64 113.269Z" fill="#002EAE"/>
</g>
<g style="mix-blend-mode:multiply" opacity="0.49">
<path d="M75.15 71.3999L66.27 104.02L44.41 107.53L54.64 113.27L69.08 106.73L87.29 76.5599L75.15 71.3999Z" fill="#002EAE"/>
</g>
<g style="mix-blend-mode:multiply" opacity="0.11">
<path d="M87.29 76.5596L74.26 148.87L69.08 106.73L87.29 76.5596Z" fill="#002EAE"/>
</g>
<g style="mix-blend-mode:multiply" opacity="0.49">
<path d="M96.36 84.0998L84.21 43.7598L87.29 76.5598L74.26 148.87L96.36 84.0998Z" fill="#002EAE"/>
</g>
<path style="mix-blend-mode:color-dodge" d="M40.69 94.9597C40.69 94.9597 36.19 77.8697 37.32 77.0297C38.44 76.1897 70.9901 72.4197 71.6501 73.7597C73.0101 76.5597 66.94 101.6 64.46 102.91C61.98 104.22 44.42 107.53 44.42 107.53L66.28 104.03L75.1601 71.3997L87.31 76.5597C87.31 76.5597 78.0401 72.1697 76.57 69.8297C75.1 67.4897 74.1501 24.4097 75.5401 24.8497C76.93 25.2797 85.49 38.4397 85.49 38.4397L74.28 21.1997L56.2001 33.3897C56.2001 33.3897 71.7101 23.2097 73.3001 24.1397C74.8901 25.0697 73.5801 66.8397 72.6501 68.8897C71.7201 70.9497 40.23 75.0597 38.55 74.8697C36.87 74.6797 48.4901 48.8697 48.4901 48.8697L35.05 75.8497L40.71 94.9497L40.69 94.9597Z" fill="url(#paint3_linear_288_9201)"/>
<path style="mix-blend-mode:color-dodge" d="M84.21 43.7598C84.21 43.7598 86.08 73.0998 86.17 74.6798C86.26 76.2698 82.89 74.6798 82.89 74.6798L87.29 76.5498L69.07 106.73L54.64 113.27L61.45 141.4C61.45 141.4 54.87 114.48 56.74 113.27C58.61 112.06 67.86 108.51 68.61 109.91C69.36 111.31 74.26 148.87 74.26 148.87C74.26 148.87 69.22 110.19 70.97 106.27C72.72 102.35 82.13 85.9398 83.84 86.0898C85.55 86.2398 78.78 123.79 78.78 123.79L87.27 76.6998V76.2998L84.21 43.7698V43.7598Z" fill="url(#paint4_linear_288_9201)"/>
<path style="mix-blend-mode:screen" d="M38.53 74.8696C40.21 75.0596 71.7 70.9496 72.63 68.8896C73.56 66.8296 74.87 25.0696 73.28 24.1396C71.69 23.2096 56.18 33.3896 56.18 33.3896L35.02 75.8496L48.46 48.8696C48.46 48.8696 36.84 74.6796 38.52 74.8696H38.53Z" fill="url(#paint5_linear_288_9201)"/>
<path style="mix-blend-mode:multiply" opacity="0.3" d="M75.52 24.8396C74.13 24.4096 75.08 67.4896 76.55 69.8196C77.53 71.3796 81.97 73.8396 84.83 75.3196C85.56 75.4496 86.22 75.3896 86.17 74.6796C86.08 73.0896 84.21 43.7596 84.21 43.7596L85.47 38.4296C85.47 38.4296 76.91 25.2696 75.52 24.8396Z" fill="url(#paint6_linear_288_9201)"/>
<path style="mix-blend-mode:multiply" opacity="0.3" d="M71.64 73.7496C70.99 72.4096 38.44 76.1796 37.31 77.0196C36.19 77.8596 40.68 94.9196 40.68 94.9496L44.41 107.52C44.41 107.52 61.97 104.2 64.45 102.9C66.93 101.59 73 76.5496 71.64 73.7496Z" fill="url(#paint7_linear_288_9201)"/>
<path style="mix-blend-mode:multiply" opacity="0.3" d="M56.74 113.27C55.02 114.39 60.43 137.17 61.33 140.88L64.45 153.77L74.26 148.87C74.26 148.87 69.36 111.31 68.61 109.91C67.86 108.51 58.61 112.06 56.74 113.27Z" fill="url(#paint8_linear_288_9201)"/>
<path style="mix-blend-mode:multiply" opacity="0.3" d="M87.27 76.5999V76.5499L83.43 74.9199C83.11 74.7999 82.9 74.6999 82.9 74.6999L83.43 74.9199L75.16 71.3999L66.28 104.03L44.42 107.53L54.65 113.28L69.08 106.74L87.27 76.6099V76.5999Z" fill="url(#paint9_linear_288_9201)"/>
<path style="mix-blend-mode:screen" d="M83.84 86.0899C82.13 85.9399 72.72 102.35 70.97 106.27C69.75 109 71.82 128.56 73.2 140.21L74.27 148.88L78.79 123.78C78.87 123.36 85.54 86.2499 83.84 86.0999V86.0899Z" fill="url(#paint10_linear_288_9201)"/>
<path style="mix-blend-mode:multiply" opacity="0.3" d="M84.21 43.7595L87.29 76.5495L87.27 76.6895L78.78 123.78C78.78 123.76 74.26 148.86 74.26 148.86L96.36 84.0895L84.21 43.7495V43.7595Z" fill="url(#paint11_linear_288_9201)"/>
<path style="mix-blend-mode:screen" d="M54.48 38.8599L61.16 34.6499L54.48 69.8299L40.63 73.4699L54.48 38.8599Z" fill="url(#paint12_linear_288_9201)"/>
<path style="mix-blend-mode:screen" d="M61.16 39.4197L57.87 59.0397L61.16 58.4797L64.45 38.7197L61.16 39.4197Z" fill="url(#paint13_linear_288_9201)"/>
<path style="mix-blend-mode:multiply" opacity="0.3" d="M53.1 77.2996L63.1 76.5596L60.11 101.78L56.41 102.15L53.1 77.2996Z" fill="url(#paint14_linear_288_9201)"/>
<path style="mix-blend-mode:multiply" opacity="0.3" d="M64.45 81.4097H67.39L64.45 96.3197H62.72L64.45 81.4097Z" fill="url(#paint15_linear_288_9201)"/>
<path style="mix-blend-mode:multiply" opacity="0.3" d="M43.66 96.3199L47.96 95.8999L49.27 101.22L45.91 102.15L43.66 96.3199Z" fill="url(#paint16_linear_288_9201)"/>
<path style="mix-blend-mode:multiply" opacity="0.3" d="M90.1 78.0498L94.91 84.3298L83.46 121.49L82.06 120.65L90.1 78.0498Z" fill="url(#paint17_linear_288_9201)"/>
<path style="mix-blend-mode:screen" d="M73.28 24.1396C71.69 23.2096 56.18 33.3896 56.18 33.3896L40.75 64.3596L48.47 48.8696C48.47 48.8696 42.06 63.0996 39.45 70.4996L38.53 74.8596C38.53 74.8596 43.27 65.4196 52.08 51.5996C60.88 37.7796 74 40.3796 74 40.3896C74.1 31.7996 73.94 24.5196 73.28 24.1296V24.1396Z" fill="url(#paint18_linear_288_9201)"/>
<g style="mix-blend-mode:screen">
<path d="M40.63 19.1001L33.34 7.89014L19.81 26.2101C18.37 27.9201 17.5 29.3301 17.5 29.3301L26.89 55.1201L31.7 59.9301L38.38 58.6201L41.27 49.4801L44.41 39.5601L38.8 30.7301L40.62 19.1001H40.63Z" fill="white"/>
</g>
<g opacity="0.75">
<path d="M33.34 7.89014L17.5 29.3301L26.89 55.1101L31.71 59.9301L38.39 58.6201L44.41 39.5601L38.81 30.7301L40.63 19.1001L33.34 7.89014Z" fill="url(#paint19_linear_288_9201)"/>
<g style="mix-blend-mode:multiply" opacity="0.49">
<path d="M40.63 19.1001L27.59 33.3901L32.36 50.6801L38.81 30.7301L40.63 19.1001Z" fill="#002EAE"/>
</g>
<g style="mix-blend-mode:multiply" opacity="0.49">
<path d="M26.89 55.1102L32.36 50.6802L38.39 58.6202L31.71 59.9302L26.89 55.1102Z" fill="#002EAE"/>
</g>
<g style="mix-blend-mode:multiply" opacity="0.3">
<path d="M17.5 29.3301L27.59 33.3901L32.36 50.6801L26.89 55.1101L17.5 29.3301Z" fill="#002EAE"/>
</g>
<g style="mix-blend-mode:multiply" opacity="0.3">
<path d="M44.41 39.56L38.81 30.73L32.36 50.68L38.39 58.62L44.41 39.56Z" fill="#002EAE"/>
</g>
<path style="mix-blend-mode:color-dodge" d="M41.28 49.48C41.28 49.48 44 40.12 43.16 38.58C42.32 37.04 39.59 32.34 38.96 32.97C38.33 33.6 33.42 49.24 33.42 49.97C33.42 50.7 37.69 56.87 38.04 56.66C38.39 56.45 40.01 53.51 40.01 53.51L38.39 58.62L32.36 50.68L38.81 30.73L44.42 39.56L41.28 49.48Z" fill="url(#paint20_linear_288_9201)"/>
<path style="mix-blend-mode:color-dodge" d="M30.68 50.6799C29.91 52.0299 27.62 53.8899 26.9 53.5099C26.17 53.1199 18.7 32.5599 19.68 31.5799C20.66 30.5999 26.99 33.7299 27.6 34.6599C28.21 35.5899 28.83 37.8699 28.83 37.8699L27.6 33.3999L40.63 19.1099L33.34 7.8999L25.06 19.1099C25.06 19.1099 33.27 10.1399 34.11 10.9799C34.95 11.8199 39.37 17.5699 39.3 19.1099C39.23 20.6499 29.25 31.4899 27.32 31.9999C26.25 32.2799 23.34 31.4299 20.97 30.6199C19.87 30.2399 19.26 29.0699 19.58 27.9499C20.24 25.6299 22.37 22.7499 22.37 22.7499L17.5 29.3399L26.89 55.1299L32.36 50.6899L29.06 38.7299C29.06 38.7299 31.45 49.3299 30.68 50.6899V50.6799Z" fill="url(#paint21_linear_288_9201)"/>
<path style="mix-blend-mode:screen" d="M19.58 27.9401C19.26 29.0601 19.87 30.2301 20.97 30.6101C23.34 31.4201 26.25 32.2801 27.32 31.9901C29.25 31.4801 39.23 20.6301 39.3 19.1001C39.37 17.5601 34.96 11.8101 34.11 10.9701C33.27 10.1301 25.06 19.1001 25.06 19.1001L33.34 7.89014L17.5 29.3301L22.37 22.7401C22.37 22.7401 20.24 25.6201 19.58 27.9401Z" fill="url(#paint22_linear_288_9201)"/>
<path style="mix-blend-mode:multiply" opacity="0.3" d="M28.83 37.8701L29.06 38.7201L32.36 50.6801L38.81 30.7301L40.63 19.1001L27.59 33.3901L28.83 37.8701Z" fill="url(#paint23_linear_288_9201)"/>
<path style="mix-blend-mode:multiply" opacity="0.3" d="M26.89 55.1102L31.71 59.9302L38.39 58.6202L32.36 50.6802L26.89 55.1102Z" fill="url(#paint24_linear_288_9201)"/>
<path style="mix-blend-mode:multiply" opacity="0.3" d="M27.59 34.6501C26.99 33.7201 20.65 30.5901 19.67 31.5701C18.69 32.5501 26.16 53.1201 26.89 53.5001C27.62 53.8901 29.9 52.0301 30.67 50.6701C31.44 49.3201 29.06 38.7101 29.05 38.7101L28.81 37.8601C28.81 37.8601 28.18 35.5801 27.58 34.6501H27.59Z" fill="url(#paint25_linear_288_9201)"/>
<path style="mix-blend-mode:multiply" opacity="0.3" d="M43.15 38.5803C42.31 37.0403 39.58 32.3403 38.95 32.9703C38.32 33.6003 33.41 49.2403 33.41 49.9703C33.41 50.7003 37.68 56.8703 38.03 56.6603C38.38 56.4503 40 53.5103 40 53.5103L38.38 58.6203L41.27 49.4803C41.27 49.4803 43.98 40.1203 43.14 38.5803H43.15Z" fill="url(#paint26_linear_288_9201)"/>
<path style="mix-blend-mode:screen" d="M17.5 29.3301C17.5 29.3301 27.19 13.3701 36.08 24.0801L40.62 19.1001L33.33 7.89014L17.49 29.3301H17.5Z" fill="url(#paint27_linear_288_9201)"/>
</g>
<g style="mix-blend-mode:screen">
<path d="M101 34.8098L92 47.0598C91.31 47.8498 90.91 48.5398 90.91 48.5398L97.08 57.3698L102.37 54.5898L105.49 52.9498L101.01 34.7998L101 34.8098Z" fill="white"/>
</g>
<g opacity="0.75">
<path d="M90.91 48.5396L97.07 57.3696L105.48 52.9596L101 34.8096L90.91 48.5396Z" fill="url(#paint28_linear_288_9201)"/>
<g style="mix-blend-mode:multiply" opacity="0.49">
<path d="M90.91 48.54L98.75 53.09L105.48 52.96L97.07 57.37L90.91 48.54Z" fill="#002EAE"/>
</g>
<g style="mix-blend-mode:multiply" opacity="0.3">
<path d="M101 34.8096L98.75 53.0896L105.48 52.9596L101 34.8096Z" fill="#002EAE"/>
</g>
<path style="mix-blend-mode:color-dodge" d="M94.59 43.5298C94.59 43.5298 91.56 47.8398 92.17 48.5398C92.78 49.2398 98.03 52.0298 98.48 51.8998C98.93 51.7698 100.82 36.8098 100.21 37.0898C99.6 37.3698 96.21 41.3198 96.21 41.3198L101 34.7998L104.24 47.9298C104.24 47.9298 101.51 38.0298 101.09 38.4498C100.67 38.8698 99.36 50.7598 99.92 51.9098C100.48 53.0598 105.48 52.9598 105.48 52.9598L100.33 55.6698C100.33 55.6698 105.34 53.4498 102.68 53.0998H98.76L90.91 48.5498L94.59 43.5398V43.5298Z" fill="url(#paint29_linear_288_9201)"/>
<path style="mix-blend-mode:screen" d="M92.17 48.5398C92.78 49.2398 98.03 52.0298 98.48 51.8998C98.92 51.7698 100.82 36.8098 100.21 37.0898C99.6 37.3698 96.21 41.3198 96.21 41.3198L101 34.7998L90.91 48.5298L94.59 43.5198C94.59 43.5198 91.56 47.8298 92.17 48.5298V48.5398Z" fill="url(#paint30_linear_288_9201)"/>
<path style="mix-blend-mode:multiply" opacity="0.3" d="M102.37 54.59C103.36 53.97 104.08 53.27 102.68 53.09H98.76L90.91 48.54L97.08 57.37L102.37 54.59Z" fill="url(#paint31_linear_288_9201)"/>
<path style="mix-blend-mode:multiply" opacity="0.3" d="M101.09 38.4496C100.67 38.8696 99.36 50.7596 99.92 51.9096C100.48 53.0596 105.48 52.9596 105.48 52.9596L101 34.8096L104.24 47.9396C104.24 47.9396 101.51 38.0396 101.09 38.4596V38.4496Z" fill="url(#paint32_linear_288_9201)"/>
<path style="mix-blend-mode:screen" d="M90.91 48.5398C90.91 48.5398 95.02 41.4498 99.41 46.8498L101 34.7998L90.91 48.5298V48.5398Z" fill="url(#paint33_linear_288_9201)"/>
</g>
<g style="mix-blend-mode:screen">
<path d="M103.38 44.6299L101.34 45.6999C101.34 45.6999 102.47 45.1999 103.38 44.6299Z" fill="white"/>
</g>
<path d="M99.91 104.02L110.7 132.61L109.86 156.02L103.97 165.97L97.24 171.15L86.31 162.88L84.63 134.57L99.91 104.02Z" fill="url(#paint34_linear_288_9201)"/>
<g style="mix-blend-mode:multiply" opacity="0.3">
<path d="M99.91 104.02V126.31L110.7 132.61L99.91 104.02Z" fill="#002EAE"/>
</g>
<g style="mix-blend-mode:multiply" opacity="0.3">
<path d="M109.86 156.02L102.15 150.55L103.97 165.97L109.86 156.02Z" fill="#002EAE"/>
</g>
<g style="mix-blend-mode:multiply" opacity="0.3">
<path d="M99.91 126.31L93.6 131.68L94.3 149.71L102.15 150.55L105.3 139.9L99.91 126.31Z" fill="#002EAE"/>
</g>
<g style="mix-blend-mode:multiply" opacity="0.49">
<path d="M110.7 132.61L109.86 156.02L102.15 150.55L105.3 139.9L99.91 126.31L110.7 132.61Z" fill="#002EAE"/>
</g>
<g style="mix-blend-mode:multiply" opacity="0.49">
<path d="M86.31 162.88L94.3 149.71L102.15 150.55L103.97 165.97L97.24 171.15L86.31 162.88Z" fill="#002EAE"/>
</g>
<path style="mix-blend-mode:color-dodge" d="M92.52 118.79C92.52 118.79 98.36 108.29 98.99 108.71C99.62 109.13 99.69 125.11 98.99 125.88C98.29 126.65 88.64 133.59 87.26 133.87C85.88 134.15 89.16 125.49 89.16 125.49L84.62 134.57L86.3 162.88L94.29 149.71L93.9 139.55C93.9 139.55 93.73 148.87 93.31 149.99C92.89 151.11 87.7 158.89 87.28 158.89C86.86 158.89 85.32 139.62 85.95 136.89C86.58 134.16 91.98 132.62 92.47 132.62C92.96 132.62 93.85 138.44 93.85 138.44C93.85 138.44 94.34 132.34 94.9 131.22C95.46 130.1 99.48 127.3 99.9 127.86C100.32 128.42 104.59 139.35 104.31 140.26C104.03 141.17 102.14 150.56 102.14 150.56L103.96 165.98L107.23 160.44C107.23 160.44 105.29 162.33 104.59 162.19C103.89 162.05 102.84 152.73 102.98 152.24C103.12 151.75 109.85 156.02 109.85 156.02L102.52 150.82C102.52 150.82 102.17 150.44 103.4 146.29C104.63 142.13 105.29 139.91 105.29 139.91L99.89 126.32L110.68 132.63L104.8 117.05C104.8 117.05 108.79 129.33 108.65 129.96C108.51 130.59 101.43 127.02 100.66 125.62C99.89 124.22 100.24 110.12 100.73 109.6C101.22 109.08 104.2 115.45 104.2 115.45L99.89 104.03L92.5 118.8L92.52 118.79Z" fill="url(#paint35_linear_288_9201)"/>
<path style="mix-blend-mode:screen" d="M92.48 132.61C91.99 132.61 86.59 134.15 85.96 136.88C85.33 139.61 86.87 158.88 87.29 158.88C87.71 158.88 92.9 151.1 93.32 149.98C93.74 148.86 93.91 139.55 93.91 139.54L93.87 138.42C93.87 138.42 92.98 132.6 92.49 132.6L92.48 132.61Z" fill="url(#paint36_linear_288_9201)"/>
<path style="mix-blend-mode:screen" d="M87.27 133.87C88.65 133.59 98.3 126.65 99 125.88C99.7 125.11 99.63 109.13 99 108.71C98.37 108.29 92.54 118.77 92.53 118.78L84.64 134.56L89.18 125.48C89.18 125.48 85.9 134.14 87.28 133.86L87.27 133.87Z" fill="url(#paint37_linear_288_9201)"/>
<path style="mix-blend-mode:multiply" opacity="0.3" d="M100.75 109.59C100.26 110.11 99.91 124.21 100.68 125.61C101.45 127.01 108.53 130.58 108.67 129.95C108.81 129.32 104.83 117.04 104.82 117.04L104.22 115.44C104.22 115.44 101.24 109.07 100.75 109.59Z" fill="url(#paint38_linear_288_9201)"/>
<path style="mix-blend-mode:multiply" opacity="0.3" d="M102.99 152.23C102.85 152.72 103.9 162.04 104.6 162.18C105.3 162.32 107.24 160.43 107.24 160.43L103.97 165.97L109.86 156.02C109.86 156.02 103.13 151.75 102.99 152.24V152.23Z" fill="url(#paint39_linear_288_9201)"/>
<path style="mix-blend-mode:multiply" opacity="0.3" d="M99.91 127.85C99.49 127.29 95.47 130.09 94.91 131.21C94.35 132.33 93.86 138.43 93.86 138.43L93.9 139.55L94.29 149.71L102.14 150.55C102.14 150.55 104.03 141.16 104.31 140.25C104.59 139.34 100.32 128.41 99.9 127.85H99.91Z" fill="url(#paint40_linear_288_9201)"/>
<path style="mix-blend-mode:multiply" opacity="0.3" d="M99.91 126.31L105.31 139.9L104.83 141.53L104.25 143.51C104.25 143.53 104.24 143.56 104.23 143.58L103.43 146.29C102.2 150.44 102.55 150.82 102.55 150.82L109.88 156.02L110.72 132.62L99.93 126.31H99.91Z" fill="url(#paint41_linear_288_9201)"/>
<path style="mix-blend-mode:multiply" opacity="0.3" d="M94.3 149.71L86.31 162.88L97.24 171.15L103.97 165.97L102.15 150.55L94.3 149.71Z" fill="url(#paint42_linear_288_9201)"/>
<path style="mix-blend-mode:screen" d="M84.63 134.57C84.63 134.57 93.35 119.2 100.23 119.79L99.91 104.02L84.63 134.57Z" fill="url(#paint43_linear_288_9201)"/>
<path style="mix-blend-mode:screen" d="M93.6 131.68L84.63 134.57L86.31 162.88C86.31 162.88 85.57 139.9 93.95 140.74L93.6 131.68Z" fill="url(#paint44_linear_288_9201)"/>
<path style="mix-blend-mode:screen" d="M94.44 116.43L95.91 115.94L93.11 128.83L88.14 131.68L94.44 116.43Z" fill="url(#paint45_linear_288_9201)"/>
<path style="mix-blend-mode:screen" d="M97.24 113.55L98.65 113.27L97.94 122.73L95.56 123.15L97.24 113.55Z" fill="url(#paint46_linear_288_9201)"/>
<path style="mix-blend-mode:multiply" opacity="0.3" d="M97.1 131.91L99.45 132.33L97.66 146.91L95.56 146.63L97.1 131.91Z" fill="url(#paint47_linear_288_9201)"/>
<path style="mix-blend-mode:multiply" opacity="0.3" d="M99.91 138.43L102.98 139.16L100.89 145.29L99.1 144.94L99.91 138.43Z" fill="url(#paint48_linear_288_9201)"/>
<path style="mix-blend-mode:multiply" opacity="0.3" d="M93.18 161.11L100.25 167.16L97.95 169.05L89.29 163.37L93.18 161.11Z" fill="url(#paint49_linear_288_9201)"/>
</g>
<defs>
<linearGradient id="paint0_linear_288_9201" x1="24.45" y1="47.6999" x2="121.35" y2="144.6" gradientUnits="userSpaceOnUse">
<stop stop-color="#0079AE"/>
<stop offset="1"/>
</linearGradient>
<radialGradient id="paint1_radial_288_9201" cx="0" cy="0" r="1" gradientUnits="userSpaceOnUse" gradientTransform="translate(71.198 87.4899) scale(71.217 79.13)">
<stop stop-color="#00FFFF"/>
<stop offset="1" stop-color="#009999" stop-opacity="0"/>
</radialGradient>
<linearGradient id="paint2_linear_288_9201" x1="43.77" y1="61.8997" x2="123.62" y2="141.75" gradientUnits="userSpaceOnUse">
<stop stop-color="#4ACF6D"/>
<stop offset="0.66" stop-color="#15A065"/>
<stop offset="1" stop-color="#008D63"/>
</linearGradient>
<linearGradient id="paint3_linear_288_9201" x1="42.27" y1="47.2997" x2="82.63" y2="87.6597" gradientUnits="userSpaceOnUse">
<stop stop-color="#4ACF6D"/>
<stop offset="0.17" stop-color="#3CA858"/>
<stop offset="0.57" stop-color="#1C4E29"/>
<stop offset="0.86" stop-color="#07150B"/>
<stop offset="1"/>
</linearGradient>
<linearGradient id="paint4_linear_288_9201" x1="76.35" y1="-31.4802" x2="68.44" y2="154.31" gradientUnits="userSpaceOnUse">
<stop stop-color="#4ACF6D"/>
<stop offset="0.17" stop-color="#3CA858"/>
<stop offset="0.57" stop-color="#1C4E29"/>
<stop offset="0.86" stop-color="#07150B"/>
<stop offset="1"/>
</linearGradient>
<linearGradient id="paint5_linear_288_9201" x1="78.62" y1="36.9496" x2="16.94" y2="98.6296" gradientUnits="userSpaceOnUse">
<stop/>
<stop offset="0.39" stop-color="#005F38"/>
<stop offset="1" stop-color="#00FF97"/>
</linearGradient>
<linearGradient id="paint6_linear_288_9201" x1="80.51" y1="63.9896" x2="80.51" y2="13.4396" gradientUnits="userSpaceOnUse">
<stop stop-color="white"/>
<stop offset="0.89" stop-color="#002EAE"/>
</linearGradient>
<linearGradient id="paint7_linear_288_9201" x1="54.48" y1="103.98" x2="54.48" y2="69.9196" gradientUnits="userSpaceOnUse">
<stop stop-color="white"/>
<stop offset="0.89" stop-color="#002EAE"/>
</linearGradient>
<linearGradient id="paint8_linear_288_9201" x1="65.34" y1="153.77" x2="65.34" y2="109.59" gradientUnits="userSpaceOnUse">
<stop stop-color="white"/>
<stop offset="0.89" stop-color="#002EAE"/>
</linearGradient>
<linearGradient id="paint9_linear_288_9201" x1="65.84" y1="127.57" x2="65.84" y2="-22.0101" gradientUnits="userSpaceOnUse">
<stop stop-color="white"/>
<stop offset="0.89" stop-color="#002EAE"/>
</linearGradient>
<linearGradient id="paint10_linear_288_9201" x1="155.26" y1="41.1099" x2="74.52" y2="121.85" gradientUnits="userSpaceOnUse">
<stop stop-color="#00FF97"/>
<stop offset="0.61" stop-color="#005F38"/>
<stop offset="1"/>
</linearGradient>
<linearGradient id="paint11_linear_288_9201" x1="85.31" y1="148.87" x2="85.31" y2="43.7595" gradientUnits="userSpaceOnUse">
<stop stop-color="#002EAE"/>
<stop offset="1" stop-color="white"/>
</linearGradient>
<linearGradient id="paint12_linear_288_9201" x1="50.89" y1="73.4699" x2="50.89" y2="34.6499" gradientUnits="userSpaceOnUse">
<stop stop-color="#4AEA9F"/>
<stop offset="0.58" stop-color="#1E5F41"/>
<stop offset="1"/>
</linearGradient>
<linearGradient id="paint13_linear_288_9201" x1="61.16" y1="59.0397" x2="61.16" y2="38.7197" gradientUnits="userSpaceOnUse">
<stop stop-color="#4AEA9F"/>
<stop offset="0.58" stop-color="#1E5F41"/>
<stop offset="1"/>
</linearGradient>
<linearGradient id="paint14_linear_288_9201" x1="58.1" y1="102.15" x2="58.1" y2="76.5596" gradientUnits="userSpaceOnUse">
<stop stop-color="white"/>
<stop offset="0.89" stop-color="#002EAE"/>
</linearGradient>
<linearGradient id="paint15_linear_288_9201" x1="65.06" y1="96.3197" x2="65.06" y2="81.4097" gradientUnits="userSpaceOnUse">
<stop stop-color="white"/>
<stop offset="0.89" stop-color="#002EAE"/>
</linearGradient>
<linearGradient id="paint16_linear_288_9201" x1="46.47" y1="102.15" x2="46.47" y2="95.8999" gradientUnits="userSpaceOnUse">
<stop stop-color="white"/>
<stop offset="0.89" stop-color="#002EAE"/>
</linearGradient>
<linearGradient id="paint17_linear_288_9201" x1="88.49" y1="121.49" x2="88.49" y2="78.0498" gradientUnits="userSpaceOnUse">
<stop stop-color="white"/>
<stop offset="0.89" stop-color="#002EAE"/>
</linearGradient>
<linearGradient id="paint18_linear_288_9201" x1="43.84" y1="37.4396" x2="61.75" y2="55.3496" gradientUnits="userSpaceOnUse">
<stop stop-color="#00FF97"/>
<stop offset="0.61" stop-color="#005F38"/>
<stop offset="1"/>
</linearGradient>
<linearGradient id="paint19_linear_288_9201" x1="24.69" y1="26.0701" x2="81.24" y2="82.6201" gradientUnits="userSpaceOnUse">
<stop stop-color="#4ACF6D"/>
<stop offset="0.66" stop-color="#15A065"/>
<stop offset="1" stop-color="#008D63"/>
</linearGradient>
<linearGradient id="paint20_linear_288_9201" x1="30.3" y1="44.67" x2="42.36" y2="44.67" gradientUnits="userSpaceOnUse">
<stop stop-color="#4ACF6D"/>
<stop offset="0.17" stop-color="#3CA858"/>
<stop offset="0.57" stop-color="#1C4E29"/>
<stop offset="0.86" stop-color="#07150B"/>
<stop offset="1"/>
</linearGradient>
<linearGradient id="paint21_linear_288_9201" x1="17.5" y1="31.4999" x2="40.63" y2="31.4999" gradientUnits="userSpaceOnUse">
<stop stop-color="#4ACF6D"/>
<stop offset="0.17" stop-color="#3CA858"/>
<stop offset="0.57" stop-color="#1C4E29"/>
<stop offset="0.86" stop-color="#07150B"/>
<stop offset="1"/>
</linearGradient>
<linearGradient id="paint22_linear_288_9201" x1="39.13" y1="11.4901" x2="14.22" y2="36.4001" gradientUnits="userSpaceOnUse">
<stop/>
<stop offset="0.39" stop-color="#005F38"/>
<stop offset="1" stop-color="#00FF97"/>
</linearGradient>
<linearGradient id="paint23_linear_288_9201" x1="34.11" y1="46.1901" x2="34.11" y2="14.6101" gradientUnits="userSpaceOnUse">
<stop stop-color="white"/>
<stop offset="1" stop-color="#002EAE"/>
</linearGradient>
<linearGradient id="paint24_linear_288_9201" x1="32.64" y1="59.9302" x2="32.64" y2="50.6802" gradientUnits="userSpaceOnUse">
<stop stop-color="white"/>
<stop offset="1" stop-color="#002EAE"/>
</linearGradient>
<linearGradient id="paint25_linear_288_9201" x1="25.21" y1="53.5501" x2="25.21" y2="31.3801" gradientUnits="userSpaceOnUse">
<stop stop-color="white"/>
<stop offset="1" stop-color="#002EAE"/>
</linearGradient>
<linearGradient id="paint26_linear_288_9201" x1="38.36" y1="58.6203" x2="38.36" y2="32.9103" gradientUnits="userSpaceOnUse">
<stop stop-color="white"/>
<stop offset="1" stop-color="#002EAE"/>
</linearGradient>
<linearGradient id="paint27_linear_288_9201" x1="22.49" y1="15.6801" x2="31.96" y2="25.1501" gradientUnits="userSpaceOnUse">
<stop stop-color="#00FF97"/>
<stop offset="0.61" stop-color="#005F38"/>
<stop offset="1"/>
</linearGradient>
<linearGradient id="paint28_linear_288_9201" x1="93.37" y1="40.4196" x2="116.31" y2="63.3696" gradientUnits="userSpaceOnUse">
<stop stop-color="#4ACF6D"/>
<stop offset="0.66" stop-color="#15A065"/>
<stop offset="1" stop-color="#008D63"/>
</linearGradient>
<linearGradient id="paint29_linear_288_9201" x1="90.91" y1="45.2398" x2="105.48" y2="45.2398" gradientUnits="userSpaceOnUse">
<stop stop-color="#4ACF6D"/>
<stop offset="0.17" stop-color="#3CA858"/>
<stop offset="0.57" stop-color="#1C4E29"/>
<stop offset="0.86" stop-color="#07150B"/>
<stop offset="1"/>
</linearGradient>
<linearGradient id="paint30_linear_288_9201" x1="106.29" y1="36.8098" x2="68.8" y2="74.2998" gradientUnits="userSpaceOnUse">
<stop/>
<stop offset="0.39" stop-color="#005F38"/>
<stop offset="1" stop-color="#00FF97"/>
</linearGradient>
<linearGradient id="paint31_linear_288_9201" x1="97.18" y1="57.37" x2="97.18" y2="48.54" gradientUnits="userSpaceOnUse">
<stop stop-color="white"/>
<stop offset="1" stop-color="#002EAE"/>
</linearGradient>
<linearGradient id="paint32_linear_288_9201" x1="102.63" y1="52.9596" x2="102.63" y2="34.8096" gradientUnits="userSpaceOnUse">
<stop stop-color="white"/>
<stop offset="1" stop-color="#002EAE"/>
</linearGradient>
<linearGradient id="paint33_linear_288_9201" x1="95.78" y1="41.5098" x2="101.01" y2="46.7398" gradientUnits="userSpaceOnUse">
<stop stop-color="#00FF97"/>
<stop offset="0.61" stop-color="#005F38"/>
<stop offset="1"/>
</linearGradient>
<linearGradient id="paint34_linear_288_9201" x1="79.03" y1="119.37" x2="120.53" y2="160.87" gradientUnits="userSpaceOnUse">
<stop stop-color="#4ACF6D"/>
<stop offset="0.66" stop-color="#15A065"/>
<stop offset="1" stop-color="#008D63"/>
</linearGradient>
<linearGradient id="paint35_linear_288_9201" x1="80.88" y1="125.84" x2="121.34" y2="151.02" gradientUnits="userSpaceOnUse">
<stop stop-color="#4ACF6D"/>
<stop offset="0.17" stop-color="#3CA858"/>
<stop offset="0.57" stop-color="#1C4E29"/>
<stop offset="0.86" stop-color="#07150B"/>
<stop offset="1"/>
</linearGradient>
<linearGradient id="paint36_linear_288_9201" x1="105.51" y1="128.72" x2="68.92" y2="165.31" gradientUnits="userSpaceOnUse">
<stop/>
<stop offset="0.38" stop-color="#005F38"/>
<stop offset="0.98" stop-color="#00FF97"/>
</linearGradient>
<linearGradient id="paint37_linear_288_9201" x1="113.89" y1="102.33" x2="72.65" y2="143.57" gradientUnits="userSpaceOnUse">
<stop/>
<stop offset="0.38" stop-color="#005F38"/>
<stop offset="0.99" stop-color="#00FF97"/>
</linearGradient>
<linearGradient id="paint38_linear_288_9201" x1="104.45" y1="130.02" x2="104.45" y2="109.56" gradientUnits="userSpaceOnUse">
<stop stop-color="white"/>
<stop offset="1" stop-color="#002EAE"/>
</linearGradient>
<linearGradient id="paint39_linear_288_9201" x1="106.42" y1="165.97" x2="106.42" y2="152.19" gradientUnits="userSpaceOnUse">
<stop stop-color="white"/>
<stop offset="1" stop-color="#002EAE"/>
</linearGradient>
<linearGradient id="paint40_linear_288_9201" x1="99.1" y1="150.55" x2="99.1" y2="127.77" gradientUnits="userSpaceOnUse">
<stop stop-color="white"/>
<stop offset="1" stop-color="#002EAE"/>
</linearGradient>
<linearGradient id="paint41_linear_288_9201" x1="105.3" y1="156.02" x2="105.3" y2="126.31" gradientUnits="userSpaceOnUse">
<stop stop-color="white"/>
<stop offset="1" stop-color="#002EAE"/>
</linearGradient>
<linearGradient id="paint42_linear_288_9201" x1="95.14" y1="171.15" x2="95.14" y2="149.71" gradientUnits="userSpaceOnUse">
<stop stop-color="white"/>
<stop offset="1" stop-color="#002EAE"/>
</linearGradient>
<linearGradient id="paint43_linear_288_9201" x1="87.82" y1="114.85" x2="95.86" y2="122.89" gradientUnits="userSpaceOnUse">
<stop stop-color="#00FF97"/>
<stop offset="0.61" stop-color="#005F38"/>
<stop offset="1"/>
</linearGradient>
<linearGradient id="paint44_linear_288_9201" x1="77.41" y1="144.19" x2="92.95" y2="148.02" gradientUnits="userSpaceOnUse">
<stop stop-color="#00FF97"/>
<stop offset="0.61" stop-color="#005F38"/>
<stop offset="1"/>
</linearGradient>
<linearGradient id="paint45_linear_288_9201" x1="92.02" y1="131.68" x2="92.02" y2="115.94" gradientUnits="userSpaceOnUse">
<stop stop-color="#4AEA9F"/>
<stop offset="0.58" stop-color="#1E5F41"/>
<stop offset="1"/>
</linearGradient>
<linearGradient id="paint46_linear_288_9201" x1="97.1" y1="123.15" x2="97.1" y2="113.27" gradientUnits="userSpaceOnUse">
<stop stop-color="#4AEA9F"/>
<stop offset="0.58" stop-color="#1E5F41"/>
<stop offset="1"/>
</linearGradient>
<linearGradient id="paint47_linear_288_9201" x1="97.51" y1="146.91" x2="97.51" y2="131.91" gradientUnits="userSpaceOnUse">
<stop stop-color="white"/>
<stop offset="0.89" stop-color="#002EAE"/>
</linearGradient>
<linearGradient id="paint48_linear_288_9201" x1="101.04" y1="145.29" x2="101.04" y2="138.43" gradientUnits="userSpaceOnUse">
<stop stop-color="white"/>
<stop offset="0.89" stop-color="#002EAE"/>
</linearGradient>
<linearGradient id="paint49_linear_288_9201" x1="94.77" y1="169.05" x2="94.77" y2="161.11" gradientUnits="userSpaceOnUse">
<stop stop-color="white"/>
<stop offset="0.89" stop-color="#002EAE"/>
</linearGradient>
<clipPath id="clip0_288_9201">
<rect width="142.51" height="173.67" fill="white"/>
</clipPath>
</defs>
</svg>
