<svg width="364" height="924" viewBox="0 0 364 924" fill="none" xmlns="http://www.w3.org/2000/svg">
<path style="mix-blend-mode:screen" d="M392.91 3.88886C415.129 6.97939 430.565 27.0456 427.384 48.6863C424.203 70.3271 403.594 85.3677 381.375 82.2772C359.157 79.1866 343.721 59.1205 346.902 37.4797C350.083 15.8389 370.692 0.798324 392.91 3.88886Z" fill="url(#paint0_radial_289_9636)" fill-opacity="0.7"/>
<path style="mix-blend-mode:screen" d="M101.689 314.498C123.908 317.589 139.344 337.655 136.163 359.296C132.981 380.937 112.373 395.977 90.1543 392.887C67.9356 389.796 52.4998 369.73 55.6809 348.089C58.8621 326.448 79.4706 311.408 101.689 314.498Z" fill="url(#paint1_radial_289_9636)" fill-opacity="0.7"/>
<g style="mix-blend-mode:screen">
<path d="M96.4456 350.176C98.4301 350.448 99.8452 352.269 99.5327 354.201C99.2527 356.134 97.382 357.513 95.3979 357.209C93.4135 356.937 91.9984 355.116 92.3109 353.184C92.5909 351.251 94.4615 349.872 96.4456 350.176Z" fill="#F6E6FC"/>
</g>
<path style="mix-blend-mode:screen" d="M125.039 475.334C147.258 478.424 162.694 498.491 159.513 520.131C156.331 541.772 135.723 556.813 113.504 553.722C91.2856 550.632 75.8498 530.565 79.0309 508.925C82.212 487.284 102.821 472.243 125.039 475.334Z" fill="url(#paint2_radial_289_9636)" fill-opacity="0.7"/>
<g style="mix-blend-mode:screen">
<path d="M119.796 511.011C121.78 511.283 123.195 513.104 122.883 515.037C122.603 516.97 120.732 518.349 118.748 518.045C116.763 517.773 115.348 515.952 115.661 514.019C115.941 512.086 117.811 510.707 119.796 511.011Z" fill="#F6E6FC"/>
</g>
<path style="mix-blend-mode:screen" d="M218.657 722.387C240.876 725.477 256.311 745.543 253.13 767.184C249.949 788.825 229.341 803.866 207.122 800.775C184.903 797.684 169.467 777.618 172.649 755.978C175.83 734.337 196.438 719.296 218.657 722.387Z" fill="url(#paint3_radial_289_9636)" fill-opacity="0.7"/>
<g style="mix-blend-mode:screen">
<path d="M213.414 758.032C215.398 758.304 216.813 760.126 216.501 762.058C216.221 763.991 214.35 765.37 212.366 765.066C210.381 764.794 208.966 762.973 209.279 761.04C209.559 759.107 211.429 757.728 213.414 758.032Z" fill="#F6E6FC"/>
</g>
<path style="mix-blend-mode:screen" d="M43.5625 578.149C63.0485 580.865 76.5546 598.439 73.7911 617.418C71.0275 636.398 52.9459 649.589 33.4599 646.873C13.9739 644.156 0.467743 626.583 3.23129 607.603C6.02741 588.624 24.0761 575.464 43.5625 578.149Z" fill="url(#paint4_radial_289_9636)" fill-opacity="0.7"/>
<g style="mix-blend-mode:screen">
<path d="M38.9822 609.39C40.7389 609.628 41.9608 611.226 41.6834 612.905C41.4382 614.616 39.7975 615.806 38.0737 615.537C36.3169 615.298 35.095 613.701 35.3724 612.022C35.6176 610.311 37.2583 609.12 38.9822 609.39Z" fill="#F6E6FC"/>
</g>
<path style="mix-blend-mode:screen" d="M332.793 88.3872C352.279 91.1037 365.785 108.677 363.022 127.657C360.226 146.636 342.177 159.796 322.691 157.112C303.205 154.395 289.666 136.821 292.462 117.842C295.258 98.8628 313.307 85.6707 332.793 88.3872Z" fill="url(#paint5_radial_289_9636)" fill-opacity="0.7"/>
<g style="mix-blend-mode:screen">
<path d="M328.213 119.629C329.97 119.867 331.192 121.464 330.914 123.143C330.669 124.854 329.028 126.045 327.304 125.807C325.547 125.569 324.325 123.971 324.603 122.292C324.848 120.581 326.489 119.391 328.213 119.66L328.213 119.629Z" fill="#F6E6FC"/>
</g>
<path style="mix-blend-mode:screen" d="M373.828 746.886C393.314 749.602 406.821 767.176 404.057 786.155C401.261 805.134 383.212 818.327 363.726 815.61C344.24 812.894 330.734 795.32 333.497 776.34C336.293 757.361 354.342 744.169 373.828 746.886Z" fill="url(#paint6_radial_289_9636)" fill-opacity="0.7"/>
<path style="mix-blend-mode:screen" d="M277.36 212.983C296.846 215.7 310.385 233.274 307.589 252.253C304.793 271.232 286.744 284.393 267.258 281.708C247.772 278.991 234.265 261.417 237.029 242.438C239.825 223.459 257.874 210.267 277.36 212.983Z" fill="url(#paint7_radial_289_9636)" fill-opacity="0.7"/>
<g style="mix-blend-mode:screen">
<path d="M272.78 244.256C274.536 244.495 275.758 246.092 275.481 247.771C275.236 249.482 273.595 250.673 271.871 250.403C270.114 250.165 268.892 248.567 269.17 246.888C269.415 245.177 271.056 243.987 272.78 244.256Z" fill="#F6E6FC"/>
</g>
<g opacity="0.65">
<g style="mix-blend-mode:screen">
<path d="M213.935 438.013C215.952 438.286 217.334 440.107 217.054 442.071C216.774 444.036 214.904 445.383 212.887 445.111C210.87 444.838 209.487 443.017 209.767 441.053C210.048 439.088 211.918 437.741 213.935 438.013Z" fill="#F6E6FC"/>
</g>
<g opacity="0.5">
<path d="M217.082 416.531C231.265 418.501 241.105 431.314 239.078 445.128C237.05 458.943 223.891 468.531 209.707 466.561C195.524 464.591 185.684 451.778 187.711 437.964C189.739 424.149 202.898 414.561 217.082 416.531Z" fill="url(#paint8_radial_289_9636)" fill-opacity="0.7" style="mix-blend-mode:color-dodge"/>
</g>
</g>
<g opacity="0.65">
<g style="mix-blend-mode:screen">
<path d="M211.183 604.809C213.2 605.081 214.582 606.902 214.302 608.867C214.022 610.831 212.151 612.179 210.134 611.906C208.117 611.634 206.735 609.813 207.015 607.848C207.295 605.884 209.166 604.537 211.183 604.809Z" fill="#F6E6FC"/>
</g>
<path style="mix-blend-mode:color-dodge" opacity="0.5" d="M214.33 583.326C228.513 585.296 238.353 598.109 236.325 611.924C234.298 625.738 221.139 635.327 206.955 633.357C192.771 631.387 182.931 618.574 184.959 604.759C186.987 590.945 200.146 581.356 214.33 583.326Z" fill="url(#paint9_radial_289_9636)" fill-opacity="0.7"/>
</g>
<defs>
<radialGradient id="paint0_radial_289_9636" cx="0" cy="0" r="1" gradientUnits="userSpaceOnUse" gradientTransform="translate(387.144 43.0325) rotate(-81.6368) scale(39.6176 40.6293)">
<stop stop-color="#EC8331"/>
<stop offset="1" stop-color="#864A1C" stop-opacity="0"/>
</radialGradient>
<radialGradient id="paint1_radial_289_9636" cx="0" cy="0" r="1" gradientUnits="userSpaceOnUse" gradientTransform="translate(95.9253 353.68) rotate(-81.6368) scale(39.6176 40.6293)">
<stop stop-color="#EC8331"/>
<stop offset="1" stop-color="#864A1C" stop-opacity="0"/>
</radialGradient>
<radialGradient id="paint2_radial_289_9636" cx="0" cy="0" r="1" gradientUnits="userSpaceOnUse" gradientTransform="translate(119.282 514.516) rotate(-81.6368) scale(39.6176 40.6293)">
<stop stop-color="#EC8331"/>
<stop offset="1" stop-color="#864A1C" stop-opacity="0"/>
</radialGradient>
<radialGradient id="paint3_radial_289_9636" cx="0" cy="0" r="1" gradientUnits="userSpaceOnUse" gradientTransform="translate(212.904 761.555) rotate(-81.6368) scale(39.6176 40.6293)">
<stop stop-color="#EC8331"/>
<stop offset="1" stop-color="#864A1C" stop-opacity="0"/>
</radialGradient>
<radialGradient id="paint4_radial_289_9636" cx="0" cy="0" r="1" gradientUnits="userSpaceOnUse" gradientTransform="translate(38.5354 612.475) rotate(-81.6368) scale(34.7288 35.6158)">
<stop stop-color="#EC8331"/>
<stop offset="1" stop-color="#864A1C" stop-opacity="0"/>
</radialGradient>
<radialGradient id="paint5_radial_289_9636" cx="0" cy="0" r="1" gradientUnits="userSpaceOnUse" gradientTransform="translate(327.744 122.697) rotate(-81.6368) scale(34.7289 35.6158)">
<stop stop-color="#EC8331"/>
<stop offset="1" stop-color="#864A1C" stop-opacity="0"/>
</radialGradient>
<radialGradient id="paint6_radial_289_9636" cx="0" cy="0" r="1" gradientUnits="userSpaceOnUse" gradientTransform="translate(368.802 781.22) rotate(-81.6368) scale(34.7288 35.6158)">
<stop stop-color="#EC8331"/>
<stop offset="1" stop-color="#864A1C" stop-opacity="0"/>
</radialGradient>
<radialGradient id="paint7_radial_289_9636" cx="0" cy="0" r="1" gradientUnits="userSpaceOnUse" gradientTransform="translate(272.304 247.312) rotate(-81.6368) scale(34.7289 35.6158)">
<stop stop-color="#EC8331"/>
<stop offset="1" stop-color="#864A1C" stop-opacity="0"/>
</radialGradient>
<radialGradient id="paint8_radial_289_9636" cx="0" cy="0" r="1" gradientUnits="userSpaceOnUse" gradientTransform="translate(213.399 441.525) rotate(-81.6368) scale(25.3006 25.9468)">
<stop stop-color="#E8AB55"/>
<stop offset="1" stop-opacity="0"/>
</radialGradient>
<radialGradient id="paint9_radial_289_9636" cx="0" cy="0" r="1" gradientUnits="userSpaceOnUse" gradientTransform="translate(210.66 608.327) rotate(-81.6368) scale(25.3006 25.9468)">
<stop stop-color="#E8AB55"/>
<stop offset="1" stop-opacity="0"/>
</radialGradient>
</defs>
</svg>
