<svg width="350" height="800" viewBox="0 0 350 800" fill="none" xmlns="http://www.w3.org/2000/svg">
<g clip-path="url(#clip0_6238_5018)">
<path style="mix-blend-mode:screen" d="M155.672 631.935C153.461 648.535 138.198 660.201 121.599 657.99C105 655.778 93.3348 640.515 95.5464 623.915C97.758 607.315 113.02 595.649 129.619 597.861C146.218 600.073 157.884 615.336 155.672 631.935Z" fill="url(#paint0_radial_6238_5018)"/>
<g style="mix-blend-mode:screen">
<path d="M128.307 628.29C128.112 629.773 126.727 630.842 125.244 630.623C123.762 630.429 122.693 629.043 122.911 627.561C123.106 626.078 124.491 625.009 125.973 625.228C127.456 625.422 128.525 626.807 128.307 628.29Z" fill="#F6E6FC"/>
</g>
<path style="mix-blend-mode:screen" d="M93.6271 773.678C91.4156 790.277 76.1533 801.944 59.5543 799.732C42.9554 797.52 31.2899 782.257 33.5015 765.657C35.713 749.057 50.9754 737.391 67.5743 739.603C84.1733 741.815 95.8387 757.078 93.6271 773.678Z" fill="url(#paint1_radial_6238_5018)"/>
<g style="mix-blend-mode:screen">
<path d="M66.2869 770.032C66.0925 771.515 64.7073 772.584 63.2248 772.365C61.7423 772.171 60.673 770.786 60.8917 769.303C61.0861 767.82 62.4714 766.751 63.9539 766.97C65.4364 767.164 66.5057 768.55 66.2869 770.032Z" fill="#F6E6FC"/>
</g>
<path style="mix-blend-mode:screen" d="M314.93 430.355C312.718 446.955 297.456 458.621 280.857 456.41C264.258 454.198 252.593 438.935 254.804 422.335C257.016 405.735 272.278 394.069 288.877 396.281C305.476 398.492 317.141 413.756 314.93 430.355Z" fill="url(#paint2_radial_6238_5018)"/>
<g style="mix-blend-mode:screen">
<path d="M287.564 426.71C287.37 428.192 285.985 429.262 284.502 429.043C283.02 428.849 281.95 427.463 282.169 425.981C282.363 424.498 283.749 423.429 285.231 423.648C286.714 423.842 287.783 425.227 287.564 426.71Z" fill="#F6E6FC"/>
</g>
<path style="mix-blend-mode:screen" d="M349.733 286.572C347.521 303.172 332.259 314.838 315.66 312.626C299.061 310.415 287.395 295.152 289.607 278.552C291.819 261.952 307.081 250.286 323.68 252.498C340.279 254.709 351.944 269.972 349.733 286.572Z" fill="url(#paint3_radial_6238_5018)"/>
<g style="mix-blend-mode:screen">
<path d="M322.367 282.927C322.173 284.409 320.787 285.479 319.305 285.26C317.822 285.065 316.753 283.68 316.972 282.198C317.166 280.715 318.551 279.646 320.034 279.864C321.516 280.059 322.586 281.444 322.367 282.927Z" fill="#F6E6FC"/>
</g>
<path style="mix-blend-mode:screen" d="M109.934 71.5995C107.722 88.1994 92.4599 99.8654 75.861 97.6537C59.262 95.4421 47.5965 80.179 49.8081 63.5791C52.0197 46.9793 67.282 35.3132 83.881 37.5249C100.48 39.7366 112.145 54.9997 109.934 71.5995Z" fill="url(#paint4_radial_6238_5018)"/>
<g style="mix-blend-mode:screen">
<path d="M82.5682 67.954C82.3738 69.4366 80.9885 70.506 79.506 70.2873C78.0235 70.0928 76.9542 68.7075 77.1729 67.2249C77.3674 65.7423 78.7526 64.673 80.2351 64.8917C81.7176 65.0861 82.787 66.4715 82.5682 67.954Z" fill="#F6E6FC"/>
</g>
<path style="mix-blend-mode:screen" d="M31.0705 703.9C28.859 720.5 13.5966 732.166 -3.00232 729.954C-19.6013 727.743 -31.2667 712.48 -29.0552 695.88C-26.8436 679.28 -11.5813 667.614 5.01768 669.826C21.6166 672.037 33.2821 687.3 31.0705 703.9Z" fill="url(#paint5_radial_6238_5018)"/>
<g style="mix-blend-mode:screen">
<path d="M3.7049 700.255C3.51048 701.737 2.12522 702.807 0.642737 702.588C-0.839748 702.394 -1.90906 701.008 -1.69033 699.526C-1.49591 698.043 -0.11065 696.974 1.37183 697.192C2.85432 697.387 3.92363 698.772 3.7049 700.255Z" fill="#F6E6FC"/>
</g>
<path style="mix-blend-mode:screen" d="M8.05657 631.45C6.11233 646.008 -7.25435 656.216 -21.8119 654.296C-36.3694 652.351 -46.5766 638.984 -44.6567 624.426C-42.7124 609.867 -29.3458 599.66 -14.7883 601.58C-0.230782 603.524 10.0008 616.891 8.05657 631.45Z" fill="url(#paint6_radial_6238_5018)"/>
<path style="mix-blend-mode:screen" d="M284.625 242.337C282.681 256.896 269.314 267.104 254.756 265.183C240.199 263.239 229.992 249.872 231.912 235.314C233.856 220.755 247.223 210.523 261.78 212.467C276.338 214.412 286.569 227.779 284.625 242.337Z" fill="url(#paint7_radial_6238_5018)"/>
<g style="mix-blend-mode:screen">
<path d="M260.662 239.154C260.491 240.467 259.276 241.39 257.988 241.196C256.676 241.026 255.752 239.811 255.923 238.522C256.093 237.21 257.308 236.287 258.596 236.481C259.908 236.651 260.832 237.866 260.637 239.154H260.662Z" fill="#F6E6FC"/>
</g>
<path style="mix-blend-mode:screen" d="M188.846 201.871C186.901 216.43 173.535 226.662 158.977 224.718C144.42 222.773 134.212 209.406 136.132 194.848C138.077 180.289 151.443 170.081 166.001 172.002C180.558 173.946 190.79 187.313 188.846 201.871Z" fill="url(#paint8_radial_6238_5018)"/>
<g style="mix-blend-mode:screen">
<path d="M164.858 198.688C164.688 200 163.473 200.924 162.184 200.729C160.872 200.559 159.949 199.344 160.143 198.056C160.313 196.743 161.528 195.82 162.816 196.014C164.129 196.184 165.052 197.399 164.858 198.688Z" fill="#F6E6FC"/>
</g>
<path style="mix-blend-mode:screen" d="M287.031 509.83C285.087 524.389 271.72 534.597 257.163 532.677C242.605 530.732 232.398 517.365 234.318 502.807C236.262 488.248 249.629 478.04 264.186 479.961C278.744 481.881 288.975 495.272 287.031 509.83Z" fill="url(#paint9_radial_6238_5018)"/>
<g style="mix-blend-mode:screen">
<path d="M263.044 506.647C262.874 507.96 261.659 508.883 260.371 508.689C259.059 508.519 258.135 507.304 258.305 505.991C258.475 504.679 259.691 503.755 260.979 503.95C262.291 504.12 263.215 505.335 263.02 506.623L263.044 506.647Z" fill="#F6E6FC"/>
</g>
<g opacity="0.65">
<g style="mix-blend-mode:screen">
<path d="M16.1 156.155C15.9055 157.662 14.5203 158.707 13.0135 158.512C11.5067 158.318 10.4617 156.933 10.6561 155.426C10.8505 153.919 12.2358 152.874 13.7426 153.068C15.2494 153.263 16.2944 154.648 16.1 156.155Z" fill="#F6E6FC"/>
</g>
<path style="mix-blend-mode:color-dodge" opacity="0.5" d="M32.5772 158.342C31.1676 168.938 21.4221 176.376 10.826 174.966C0.229836 173.556 -7.20688 163.81 -5.79731 153.214C-4.38773 142.617 5.35777 135.18 15.9539 136.589C26.55 137.999 33.9867 147.745 32.5772 158.342Z" fill="url(#paint10_radial_6238_5018)"/>
</g>
<g opacity="0.65">
<g style="mix-blend-mode:screen">
<path d="M216.577 374.577C216.382 376.084 214.997 377.129 213.49 376.934C211.983 376.74 210.938 375.354 211.133 373.848C211.327 372.341 212.712 371.296 214.219 371.49C215.726 371.684 216.771 373.07 216.577 374.577Z" fill="#F6E6FC"/>
</g>
<path style="mix-blend-mode:color-dodge" opacity="0.5" d="M233.03 376.789C231.621 387.386 221.875 394.823 211.279 393.413C200.683 392.003 193.246 382.257 194.656 371.661C196.065 361.064 205.811 353.627 216.407 355.037C227.003 356.446 234.44 366.192 233.03 376.789Z" fill="url(#paint11_radial_6238_5018)"/>
</g>
<g opacity="0.65">
<g style="mix-blend-mode:screen">
<path d="M52.2875 658.792C52.093 660.298 50.7078 661.343 49.201 661.149C47.6942 660.955 46.6492 659.569 46.8436 658.062C47.038 656.556 48.4233 655.51 49.9301 655.705C51.4369 655.899 52.4819 657.285 52.2875 658.792Z" fill="#F6E6FC"/>
</g>
<path style="mix-blend-mode:color-dodge" opacity="0.5" d="M68.7647 660.978C67.3551 671.575 57.6096 679.012 47.0135 677.603C36.4173 676.193 28.9806 666.447 30.3902 655.85C31.7998 645.254 41.5453 637.816 52.1414 639.226C62.7375 640.636 70.1742 650.382 68.7647 660.978Z" fill="url(#paint12_radial_6238_5018)"/>
</g>
<g opacity="0.65">
<g style="mix-blend-mode:screen">
<path d="M28.7875 573.874C28.593 575.38 27.2078 576.426 25.701 576.231C24.1942 576.037 23.1492 574.651 23.3436 573.144C23.538 571.638 24.9233 570.593 26.4301 570.787C27.9369 570.981 28.9819 572.367 28.7875 573.874Z" fill="#F6E6FC"/>
</g>
<path style="mix-blend-mode:color-dodge" opacity="0.5" d="M45.2647 576.061C43.8551 586.657 34.1096 594.094 23.5135 592.685C12.9173 591.275 5.48062 581.529 6.89019 570.932C8.29977 560.336 18.0453 552.899 28.6414 554.308C39.2375 555.718 46.6742 565.464 45.2647 576.061Z" fill="url(#paint13_radial_6238_5018)"/>
</g>
<g opacity="0.65">
<g style="mix-blend-mode:screen">
<path d="M184.569 594.532C184.374 596.039 182.989 597.084 181.482 596.889C179.975 596.695 178.93 595.31 179.125 593.803C179.319 592.296 180.705 591.251 182.211 591.445C183.718 591.64 184.763 593.025 184.569 594.532Z" fill="#F6E6FC"/>
</g>
<path style="mix-blend-mode:color-dodge" opacity="0.5" d="M201.046 596.719C199.636 607.315 189.891 614.752 179.295 613.343C168.699 611.933 161.262 602.187 162.671 591.591C164.081 580.994 173.827 573.557 184.423 574.966C195.019 576.376 202.456 586.122 201.046 596.719Z" fill="url(#paint14_radial_6238_5018)"/>
</g>
</g>
<defs>
<radialGradient id="paint0_radial_6238_5018" cx="0" cy="0" r="1" gradientUnits="userSpaceOnUse" gradientTransform="translate(125.625 627.943) rotate(7.59039) scale(30.3302 30.3317)">
<stop stop-color="#EC8331"/>
<stop offset="0.12" stop-color="#B56526"/>
<stop offset="0.23" stop-color="#854A1B"/>
<stop offset="0.35" stop-color="#5C3313"/>
<stop offset="0.47" stop-color="#3A200C"/>
<stop offset="0.6" stop-color="#201206"/>
<stop offset="0.72" stop-color="#0E0803"/>
<stop offset="0.85" stop-color="#030100"/>
<stop offset="1"/>
</radialGradient>
<radialGradient id="paint1_radial_6238_5018" cx="0" cy="0" r="1" gradientUnits="userSpaceOnUse" gradientTransform="translate(63.6118 769.686) rotate(7.59039) scale(30.3302 30.3317)">
<stop stop-color="#EC8331"/>
<stop offset="0.12" stop-color="#B56526"/>
<stop offset="0.23" stop-color="#854A1B"/>
<stop offset="0.35" stop-color="#5C3313"/>
<stop offset="0.47" stop-color="#3A200C"/>
<stop offset="0.6" stop-color="#201206"/>
<stop offset="0.72" stop-color="#0E0803"/>
<stop offset="0.85" stop-color="#030100"/>
<stop offset="1"/>
</radialGradient>
<radialGradient id="paint2_radial_6238_5018" cx="0" cy="0" r="1" gradientUnits="userSpaceOnUse" gradientTransform="translate(284.908 426.338) rotate(7.59039) scale(30.3302 30.3317)">
<stop stop-color="#EC8331"/>
<stop offset="0.12" stop-color="#B56526"/>
<stop offset="0.23" stop-color="#854A1B"/>
<stop offset="0.35" stop-color="#5C3313"/>
<stop offset="0.47" stop-color="#3A200C"/>
<stop offset="0.6" stop-color="#201206"/>
<stop offset="0.72" stop-color="#0E0803"/>
<stop offset="0.85" stop-color="#030100"/>
<stop offset="1"/>
</radialGradient>
<radialGradient id="paint3_radial_6238_5018" cx="0" cy="0" r="1" gradientUnits="userSpaceOnUse" gradientTransform="translate(319.709 282.563) rotate(7.59039) scale(30.3302 30.3317)">
<stop stop-color="#EC8331"/>
<stop offset="0.12" stop-color="#B56526"/>
<stop offset="0.23" stop-color="#854A1B"/>
<stop offset="0.35" stop-color="#5C3313"/>
<stop offset="0.47" stop-color="#3A200C"/>
<stop offset="0.6" stop-color="#201206"/>
<stop offset="0.72" stop-color="#0E0803"/>
<stop offset="0.85" stop-color="#030100"/>
<stop offset="1"/>
</radialGradient>
<radialGradient id="paint4_radial_6238_5018" cx="0" cy="0" r="1" gradientUnits="userSpaceOnUse" gradientTransform="translate(79.8807 67.5919) rotate(7.59039) scale(30.3302 30.3317)">
<stop stop-color="#EC8331"/>
<stop offset="0.12" stop-color="#B56526"/>
<stop offset="0.23" stop-color="#854A1B"/>
<stop offset="0.35" stop-color="#5C3313"/>
<stop offset="0.47" stop-color="#3A200C"/>
<stop offset="0.6" stop-color="#201206"/>
<stop offset="0.72" stop-color="#0E0803"/>
<stop offset="0.85" stop-color="#030100"/>
<stop offset="1"/>
</radialGradient>
<radialGradient id="paint5_radial_6238_5018" cx="0" cy="0" r="1" gradientUnits="userSpaceOnUse" gradientTransform="translate(1.04742 699.905) rotate(7.59039) scale(30.3302 30.3317)">
<stop stop-color="#EC8331"/>
<stop offset="0.12" stop-color="#B56526"/>
<stop offset="0.23" stop-color="#854A1B"/>
<stop offset="0.35" stop-color="#5C3313"/>
<stop offset="0.47" stop-color="#3A200C"/>
<stop offset="0.6" stop-color="#201206"/>
<stop offset="0.72" stop-color="#0E0803"/>
<stop offset="0.85" stop-color="#030100"/>
<stop offset="1"/>
</radialGradient>
<radialGradient id="paint6_radial_6238_5018" cx="0" cy="0" r="1" gradientUnits="userSpaceOnUse" gradientTransform="translate(-18.2694 627.942) rotate(7.59038) scale(26.5875 26.5889)">
<stop stop-color="#EC8331"/>
<stop offset="0.12" stop-color="#B56526"/>
<stop offset="0.23" stop-color="#854A1B"/>
<stop offset="0.35" stop-color="#5C3313"/>
<stop offset="0.47" stop-color="#3A200C"/>
<stop offset="0.6" stop-color="#201206"/>
<stop offset="0.72" stop-color="#0E0803"/>
<stop offset="0.85" stop-color="#030100"/>
<stop offset="1"/>
</radialGradient>
<radialGradient id="paint7_radial_6238_5018" cx="0" cy="0" r="1" gradientUnits="userSpaceOnUse" gradientTransform="translate(258.308 238.827) rotate(7.59039) scale(26.5875 26.5889)">
<stop stop-color="#EC8331"/>
<stop offset="0.12" stop-color="#B56526"/>
<stop offset="0.23" stop-color="#854A1B"/>
<stop offset="0.35" stop-color="#5C3313"/>
<stop offset="0.47" stop-color="#3A200C"/>
<stop offset="0.6" stop-color="#201206"/>
<stop offset="0.72" stop-color="#0E0803"/>
<stop offset="0.85" stop-color="#030100"/>
<stop offset="1"/>
</radialGradient>
<radialGradient id="paint8_radial_6238_5018" cx="0" cy="0" r="1" gradientUnits="userSpaceOnUse" gradientTransform="translate(162.515 198.356) rotate(7.59039) scale(26.5875 26.5889)">
<stop stop-color="#EC8331"/>
<stop offset="0.12" stop-color="#B56526"/>
<stop offset="0.23" stop-color="#854A1B"/>
<stop offset="0.35" stop-color="#5C3313"/>
<stop offset="0.47" stop-color="#3A200C"/>
<stop offset="0.6" stop-color="#201206"/>
<stop offset="0.72" stop-color="#0E0803"/>
<stop offset="0.85" stop-color="#030100"/>
<stop offset="1"/>
</radialGradient>
<radialGradient id="paint9_radial_6238_5018" cx="0" cy="0" r="1" gradientUnits="userSpaceOnUse" gradientTransform="translate(260.717 506.332) rotate(7.59039) scale(26.5875 26.5889)">
<stop stop-color="#EC8331"/>
<stop offset="0.12" stop-color="#B56526"/>
<stop offset="0.23" stop-color="#854A1B"/>
<stop offset="0.35" stop-color="#5C3313"/>
<stop offset="0.47" stop-color="#3A200C"/>
<stop offset="0.6" stop-color="#201206"/>
<stop offset="0.72" stop-color="#0E0803"/>
<stop offset="0.85" stop-color="#030100"/>
<stop offset="1"/>
</radialGradient>
<radialGradient id="paint10_radial_6238_5018" cx="0" cy="0" r="1" gradientUnits="userSpaceOnUse" gradientTransform="translate(13.4062 155.78) rotate(7.59039) scale(19.3695 19.3705)">
<stop stop-color="#E8AB55"/>
<stop offset="0.1" stop-color="#DAA050"/>
<stop offset="0.28" stop-color="#B68642"/>
<stop offset="0.53" stop-color="#7C5B2D"/>
<stop offset="0.84" stop-color="#2D2110"/>
<stop offset="1"/>
</radialGradient>
<radialGradient id="paint11_radial_6238_5018" cx="0" cy="0" r="1" gradientUnits="userSpaceOnUse" gradientTransform="translate(213.861 374.232) rotate(7.59039) scale(19.3695 19.3705)">
<stop stop-color="#E8AB55"/>
<stop offset="0.1" stop-color="#DAA050"/>
<stop offset="0.28" stop-color="#B68642"/>
<stop offset="0.53" stop-color="#7C5B2D"/>
<stop offset="0.84" stop-color="#2D2110"/>
<stop offset="1"/>
</radialGradient>
<radialGradient id="paint12_radial_6238_5018" cx="0" cy="0" r="1" gradientUnits="userSpaceOnUse" gradientTransform="translate(49.6013 658.439) rotate(7.59038) scale(19.3695 19.3705)">
<stop stop-color="#E8AB55"/>
<stop offset="0.1" stop-color="#DAA050"/>
<stop offset="0.28" stop-color="#B68642"/>
<stop offset="0.53" stop-color="#7C5B2D"/>
<stop offset="0.84" stop-color="#2D2110"/>
<stop offset="1"/>
</radialGradient>
<radialGradient id="paint13_radial_6238_5018" cx="0" cy="0" r="1" gradientUnits="userSpaceOnUse" gradientTransform="translate(26.103 573.513) rotate(7.59039) scale(19.3695 19.3705)">
<stop stop-color="#E8AB55"/>
<stop offset="0.1" stop-color="#DAA050"/>
<stop offset="0.28" stop-color="#B68642"/>
<stop offset="0.53" stop-color="#7C5B2D"/>
<stop offset="0.84" stop-color="#2D2110"/>
<stop offset="1"/>
</radialGradient>
<radialGradient id="paint14_radial_6238_5018" cx="0" cy="0" r="1" gradientUnits="userSpaceOnUse" gradientTransform="translate(181.881 594.174) rotate(7.59038) scale(19.3695 19.3705)">
<stop stop-color="#E8AB55"/>
<stop offset="0.1" stop-color="#DAA050"/>
<stop offset="0.28" stop-color="#B68642"/>
<stop offset="0.53" stop-color="#7C5B2D"/>
<stop offset="0.84" stop-color="#2D2110"/>
<stop offset="1"/>
</radialGradient>
<clipPath id="clip0_6238_5018">
<rect width="700" height="800" fill="white" transform="translate(-350)"/>
</clipPath>
</defs>
</svg>
