<svg width="742" height="292" viewBox="0 0 742 292" fill="none" xmlns="http://www.w3.org/2000/svg">
<path style="mix-blend-mode:color-dodge" d="M684.541 85.1191C661.828 77.5019 649.613 52.7606 657.299 29.8804C664.971 7.0001 689.617 -5.37769 712.345 2.25387C735.072 9.88543 747.258 34.6122 739.586 57.4925C731.914 80.3727 707.268 92.7506 684.541 85.1191Z" fill="url(#paint0_radial_6242_15794)"/>
<path style="mix-blend-mode:color-dodge" d="M684.541 159.119C661.828 151.502 649.613 126.761 657.299 103.88C664.971 81.0001 689.617 68.6223 712.345 76.2539C735.072 83.8854 747.258 108.612 739.586 131.492C731.914 154.373 707.268 166.751 684.541 159.119Z" fill="url(#paint1_radial_6242_15794)"/>
<path style="mix-blend-mode:color-dodge" d="M650.541 220.119C627.828 212.502 615.613 187.761 623.299 164.88C630.971 142 655.617 129.622 678.345 137.254C701.072 144.885 713.258 169.612 705.586 192.492C697.914 215.373 673.268 227.751 650.541 220.119Z" fill="url(#paint2_radial_6242_15794)"/>
<path style="mix-blend-mode:color-dodge" d="M590.541 257.119C567.828 249.502 555.613 224.761 563.299 201.88C570.971 179 595.617 166.622 618.345 174.254C641.072 181.885 653.258 206.612 645.586 229.492C637.914 252.373 613.268 264.751 590.541 257.119Z" fill="url(#paint3_radial_6242_15794)"/>
<path style="mix-blend-mode:color-dodge" d="M516.541 283.119C493.828 275.502 481.613 250.761 489.299 227.88C496.971 205 521.617 192.622 544.345 200.254C567.072 207.885 579.258 232.612 571.586 255.492C563.914 278.373 539.268 290.751 516.541 283.119Z" fill="url(#paint4_radial_6242_15794)"/>
<path style="mix-blend-mode:color-dodge" d="M445.541 289.119C422.828 281.502 410.613 256.761 418.299 233.88C425.971 211 450.617 198.622 473.345 206.254C496.072 213.885 508.258 238.612 500.586 261.492C492.914 284.373 468.268 296.751 445.541 289.119Z" fill="url(#paint5_radial_6242_15794)"/>
<path style="mix-blend-mode:color-dodge" d="M363.541 289.119C340.828 281.502 328.613 256.761 336.299 233.88C343.971 211 368.617 198.622 391.345 206.254C414.072 213.885 426.258 238.612 418.586 261.492C410.914 284.373 386.268 296.751 363.541 289.119Z" fill="url(#paint6_radial_6242_15794)"/>
<path style="mix-blend-mode:color-dodge" d="M289.541 289.119C266.828 281.502 254.613 256.761 262.299 233.88C269.971 211 294.617 198.622 317.345 206.254C340.072 213.885 352.258 238.612 344.586 261.492C336.914 284.373 312.268 296.751 289.541 289.119Z" fill="url(#paint7_radial_6242_15794)"/>
<path style="mix-blend-mode:color-dodge" d="M289.541 289.119C266.828 281.502 254.613 256.761 262.299 233.88C269.971 211 294.617 198.622 317.345 206.254C340.072 213.885 352.258 238.612 344.586 261.492C336.914 284.373 312.268 296.751 289.541 289.119Z" fill="url(#paint8_radial_6242_15794)"/>
<path style="mix-blend-mode:color-dodge" d="M223.541 278.119C200.828 270.502 188.613 245.761 196.299 222.88C203.971 200 228.617 187.622 251.345 195.254C274.072 202.885 286.258 227.612 278.586 250.492C270.914 273.373 246.268 285.751 223.541 278.119Z" fill="url(#paint9_radial_6242_15794)"/>
<path style="mix-blend-mode:color-dodge" d="M157.541 264.119C134.828 256.502 122.613 231.761 130.299 208.88C137.971 186 162.617 173.622 185.345 181.254C208.072 188.885 220.258 213.612 212.586 236.492C204.914 259.373 180.268 271.751 157.541 264.119Z" fill="url(#paint10_radial_6242_15794)"/>
<path style="mix-blend-mode:color-dodge" d="M96.5408 246.119C73.8276 238.502 61.613 213.761 69.2994 190.88C76.9714 168 101.617 155.622 124.345 163.254C147.072 170.885 159.258 195.612 151.586 218.492C143.914 241.373 119.268 253.751 96.5408 246.119Z" fill="url(#paint11_radial_6242_15794)"/>
<path style="mix-blend-mode:color-dodge" d="M29.5408 258.119C6.82761 250.502 -5.38704 225.761 2.29938 202.88C9.97138 180 34.617 167.622 57.3446 175.254C80.0721 182.885 92.2579 207.612 84.5859 230.492C76.9139 253.373 52.2683 265.751 29.5408 258.119Z" fill="url(#paint12_radial_6242_15794)"/>
<defs>
<radialGradient id="paint0_radial_6242_15794" cx="0" cy="0" r="1" gradientUnits="userSpaceOnUse" gradientTransform="translate(700.805 45.2464) rotate(108.554) scale(67.8693 67.8493)">
<stop offset="0.03" stop-color="white"/>
<stop offset="0.04" stop-color="#F5F5F5"/>
<stop offset="0.08" stop-color="#C7C7C7"/>
<stop offset="0.12" stop-color="#9C9C9C"/>
<stop offset="0.17" stop-color="#777777"/>
<stop offset="0.22" stop-color="#565656"/>
<stop offset="0.28" stop-color="#3B3B3B"/>
<stop offset="0.34" stop-color="#252525"/>
<stop offset="0.42" stop-color="#141414"/>
<stop offset="0.51" stop-color="#080808"/>
<stop offset="0.64" stop-color="#010101"/>
<stop offset="1"/>
</radialGradient>
<radialGradient id="paint1_radial_6242_15794" cx="0" cy="0" r="1" gradientUnits="userSpaceOnUse" gradientTransform="translate(700.805 119.246) rotate(108.554) scale(67.8693 67.8493)">
<stop offset="0.03" stop-color="white"/>
<stop offset="0.04" stop-color="#F5F5F5"/>
<stop offset="0.08" stop-color="#C7C7C7"/>
<stop offset="0.12" stop-color="#9C9C9C"/>
<stop offset="0.17" stop-color="#777777"/>
<stop offset="0.22" stop-color="#565656"/>
<stop offset="0.28" stop-color="#3B3B3B"/>
<stop offset="0.34" stop-color="#252525"/>
<stop offset="0.42" stop-color="#141414"/>
<stop offset="0.51" stop-color="#080808"/>
<stop offset="0.64" stop-color="#010101"/>
<stop offset="1"/>
</radialGradient>
<radialGradient id="paint2_radial_6242_15794" cx="0" cy="0" r="1" gradientUnits="userSpaceOnUse" gradientTransform="translate(666.805 180.246) rotate(108.554) scale(67.8693 67.8493)">
<stop offset="0.03" stop-color="white"/>
<stop offset="0.04" stop-color="#F5F5F5"/>
<stop offset="0.08" stop-color="#C7C7C7"/>
<stop offset="0.12" stop-color="#9C9C9C"/>
<stop offset="0.17" stop-color="#777777"/>
<stop offset="0.22" stop-color="#565656"/>
<stop offset="0.28" stop-color="#3B3B3B"/>
<stop offset="0.34" stop-color="#252525"/>
<stop offset="0.42" stop-color="#141414"/>
<stop offset="0.51" stop-color="#080808"/>
<stop offset="0.64" stop-color="#010101"/>
<stop offset="1"/>
</radialGradient>
<radialGradient id="paint3_radial_6242_15794" cx="0" cy="0" r="1" gradientUnits="userSpaceOnUse" gradientTransform="translate(606.805 217.246) rotate(108.554) scale(67.8693 67.8493)">
<stop offset="0.03" stop-color="white"/>
<stop offset="0.04" stop-color="#F5F5F5"/>
<stop offset="0.08" stop-color="#C7C7C7"/>
<stop offset="0.12" stop-color="#9C9C9C"/>
<stop offset="0.17" stop-color="#777777"/>
<stop offset="0.22" stop-color="#565656"/>
<stop offset="0.28" stop-color="#3B3B3B"/>
<stop offset="0.34" stop-color="#252525"/>
<stop offset="0.42" stop-color="#141414"/>
<stop offset="0.51" stop-color="#080808"/>
<stop offset="0.64" stop-color="#010101"/>
<stop offset="1"/>
</radialGradient>
<radialGradient id="paint4_radial_6242_15794" cx="0" cy="0" r="1" gradientUnits="userSpaceOnUse" gradientTransform="translate(532.805 243.246) rotate(108.554) scale(67.8693 67.8493)">
<stop offset="0.03" stop-color="white"/>
<stop offset="0.04" stop-color="#F5F5F5"/>
<stop offset="0.08" stop-color="#C7C7C7"/>
<stop offset="0.12" stop-color="#9C9C9C"/>
<stop offset="0.17" stop-color="#777777"/>
<stop offset="0.22" stop-color="#565656"/>
<stop offset="0.28" stop-color="#3B3B3B"/>
<stop offset="0.34" stop-color="#252525"/>
<stop offset="0.42" stop-color="#141414"/>
<stop offset="0.51" stop-color="#080808"/>
<stop offset="0.64" stop-color="#010101"/>
<stop offset="1"/>
</radialGradient>
<radialGradient id="paint5_radial_6242_15794" cx="0" cy="0" r="1" gradientUnits="userSpaceOnUse" gradientTransform="translate(461.805 249.246) rotate(108.554) scale(67.8693 67.8493)">
<stop offset="0.03" stop-color="white"/>
<stop offset="0.04" stop-color="#F5F5F5"/>
<stop offset="0.08" stop-color="#C7C7C7"/>
<stop offset="0.12" stop-color="#9C9C9C"/>
<stop offset="0.17" stop-color="#777777"/>
<stop offset="0.22" stop-color="#565656"/>
<stop offset="0.28" stop-color="#3B3B3B"/>
<stop offset="0.34" stop-color="#252525"/>
<stop offset="0.42" stop-color="#141414"/>
<stop offset="0.51" stop-color="#080808"/>
<stop offset="0.64" stop-color="#010101"/>
<stop offset="1"/>
</radialGradient>
<radialGradient id="paint6_radial_6242_15794" cx="0" cy="0" r="1" gradientUnits="userSpaceOnUse" gradientTransform="translate(379.805 249.246) rotate(108.554) scale(67.8693 67.8493)">
<stop offset="0.03" stop-color="white"/>
<stop offset="0.04" stop-color="#F5F5F5"/>
<stop offset="0.08" stop-color="#C7C7C7"/>
<stop offset="0.12" stop-color="#9C9C9C"/>
<stop offset="0.17" stop-color="#777777"/>
<stop offset="0.22" stop-color="#565656"/>
<stop offset="0.28" stop-color="#3B3B3B"/>
<stop offset="0.34" stop-color="#252525"/>
<stop offset="0.42" stop-color="#141414"/>
<stop offset="0.51" stop-color="#080808"/>
<stop offset="0.64" stop-color="#010101"/>
<stop offset="1"/>
</radialGradient>
<radialGradient id="paint7_radial_6242_15794" cx="0" cy="0" r="1" gradientUnits="userSpaceOnUse" gradientTransform="translate(305.805 249.246) rotate(108.554) scale(67.8693 67.8493)">
<stop offset="0.03" stop-color="white"/>
<stop offset="0.04" stop-color="#F5F5F5"/>
<stop offset="0.08" stop-color="#C7C7C7"/>
<stop offset="0.12" stop-color="#9C9C9C"/>
<stop offset="0.17" stop-color="#777777"/>
<stop offset="0.22" stop-color="#565656"/>
<stop offset="0.28" stop-color="#3B3B3B"/>
<stop offset="0.34" stop-color="#252525"/>
<stop offset="0.42" stop-color="#141414"/>
<stop offset="0.51" stop-color="#080808"/>
<stop offset="0.64" stop-color="#010101"/>
<stop offset="1"/>
</radialGradient>
<radialGradient id="paint8_radial_6242_15794" cx="0" cy="0" r="1" gradientUnits="userSpaceOnUse" gradientTransform="translate(305.805 249.246) rotate(108.554) scale(67.8693 67.8493)">
<stop offset="0.03" stop-color="white"/>
<stop offset="0.04" stop-color="#F5F5F5"/>
<stop offset="0.08" stop-color="#C7C7C7"/>
<stop offset="0.12" stop-color="#9C9C9C"/>
<stop offset="0.17" stop-color="#777777"/>
<stop offset="0.22" stop-color="#565656"/>
<stop offset="0.28" stop-color="#3B3B3B"/>
<stop offset="0.34" stop-color="#252525"/>
<stop offset="0.42" stop-color="#141414"/>
<stop offset="0.51" stop-color="#080808"/>
<stop offset="0.64" stop-color="#010101"/>
<stop offset="1"/>
</radialGradient>
<radialGradient id="paint9_radial_6242_15794" cx="0" cy="0" r="1" gradientUnits="userSpaceOnUse" gradientTransform="translate(239.805 238.246) rotate(108.554) scale(67.8693 67.8493)">
<stop offset="0.03" stop-color="white"/>
<stop offset="0.04" stop-color="#F5F5F5"/>
<stop offset="0.08" stop-color="#C7C7C7"/>
<stop offset="0.12" stop-color="#9C9C9C"/>
<stop offset="0.17" stop-color="#777777"/>
<stop offset="0.22" stop-color="#565656"/>
<stop offset="0.28" stop-color="#3B3B3B"/>
<stop offset="0.34" stop-color="#252525"/>
<stop offset="0.42" stop-color="#141414"/>
<stop offset="0.51" stop-color="#080808"/>
<stop offset="0.64" stop-color="#010101"/>
<stop offset="1"/>
</radialGradient>
<radialGradient id="paint10_radial_6242_15794" cx="0" cy="0" r="1" gradientUnits="userSpaceOnUse" gradientTransform="translate(173.805 224.246) rotate(108.554) scale(67.8693 67.8493)">
<stop offset="0.03" stop-color="white"/>
<stop offset="0.04" stop-color="#F5F5F5"/>
<stop offset="0.08" stop-color="#C7C7C7"/>
<stop offset="0.12" stop-color="#9C9C9C"/>
<stop offset="0.17" stop-color="#777777"/>
<stop offset="0.22" stop-color="#565656"/>
<stop offset="0.28" stop-color="#3B3B3B"/>
<stop offset="0.34" stop-color="#252525"/>
<stop offset="0.42" stop-color="#141414"/>
<stop offset="0.51" stop-color="#080808"/>
<stop offset="0.64" stop-color="#010101"/>
<stop offset="1"/>
</radialGradient>
<radialGradient id="paint11_radial_6242_15794" cx="0" cy="0" r="1" gradientUnits="userSpaceOnUse" gradientTransform="translate(112.805 206.246) rotate(108.554) scale(67.8693 67.8493)">
<stop offset="0.03" stop-color="white"/>
<stop offset="0.04" stop-color="#F5F5F5"/>
<stop offset="0.08" stop-color="#C7C7C7"/>
<stop offset="0.12" stop-color="#9C9C9C"/>
<stop offset="0.17" stop-color="#777777"/>
<stop offset="0.22" stop-color="#565656"/>
<stop offset="0.28" stop-color="#3B3B3B"/>
<stop offset="0.34" stop-color="#252525"/>
<stop offset="0.42" stop-color="#141414"/>
<stop offset="0.51" stop-color="#080808"/>
<stop offset="0.64" stop-color="#010101"/>
<stop offset="1"/>
</radialGradient>
<radialGradient id="paint12_radial_6242_15794" cx="0" cy="0" r="1" gradientUnits="userSpaceOnUse" gradientTransform="translate(45.8047 218.246) rotate(108.554) scale(67.8693 67.8493)">
<stop offset="0.03" stop-color="white"/>
<stop offset="0.04" stop-color="#F5F5F5"/>
<stop offset="0.08" stop-color="#C7C7C7"/>
<stop offset="0.12" stop-color="#9C9C9C"/>
<stop offset="0.17" stop-color="#777777"/>
<stop offset="0.22" stop-color="#565656"/>
<stop offset="0.28" stop-color="#3B3B3B"/>
<stop offset="0.34" stop-color="#252525"/>
<stop offset="0.42" stop-color="#141414"/>
<stop offset="0.51" stop-color="#080808"/>
<stop offset="0.64" stop-color="#010101"/>
<stop offset="1"/>
</radialGradient>
</defs>
</svg>
