<svg width="705" height="253" viewBox="0 0 705 253" fill="none" xmlns="http://www.w3.org/2000/svg">
<path style="mix-blend-mode:screen" d="M28.4338 170.482C41.9358 172.365 51.3169 184.542 49.3794 197.693C47.442 210.843 34.9359 219.962 21.4336 218.102C7.93163 216.22 -1.42686 204.043 0.48802 190.892C2.42547 177.741 14.9318 168.6 28.4338 170.482Z" fill="url(#paint0_radial_329_12)" fill-opacity="0.7"/>
<g style="mix-blend-mode:screen">
<path d="M25.2598 192.151C26.477 192.317 27.3237 193.424 27.1315 194.587C26.9616 195.772 25.8247 196.597 24.6302 196.411C23.413 196.246 22.5663 195.139 22.7585 193.975C22.9284 192.79 24.0653 191.965 25.2598 192.151Z" fill="#F6E6FC"/>
</g>
<path style="mix-blend-mode:screen" d="M94.4338 160.482C107.936 162.365 117.317 174.542 115.379 187.693C113.442 200.843 100.936 209.962 87.4336 208.102C73.9316 206.22 64.5731 194.043 66.488 180.892C68.4255 167.741 80.9318 158.6 94.4338 160.482Z" fill="url(#paint1_radial_329_12)" fill-opacity="0.7"/>
<g style="mix-blend-mode:screen">
<path d="M91.2598 182.151C92.477 182.317 93.3237 183.424 93.1315 184.587C92.9616 185.772 91.8247 186.597 90.6302 186.411C89.413 186.246 88.5663 185.139 88.7585 183.975C88.9284 182.79 90.0653 181.965 91.2598 182.151Z" fill="#F6E6FC"/>
</g>
<path style="mix-blend-mode:screen" d="M156.434 178.482C169.936 180.365 179.317 192.542 177.379 205.693C175.442 218.843 162.936 227.962 149.434 226.102C135.932 224.22 126.573 212.043 128.488 198.892C130.425 185.741 142.932 176.6 156.434 178.482Z" fill="url(#paint2_radial_329_12)" fill-opacity="0.7"/>
<g style="mix-blend-mode:screen">
<path d="M153.26 200.151C154.477 200.317 155.324 201.424 155.131 202.587C154.962 203.772 153.825 204.597 152.63 204.411C151.413 204.246 150.566 203.139 150.759 201.975C150.928 200.79 152.065 199.965 153.26 200.151Z" fill="#F6E6FC"/>
</g>
<path style="mix-blend-mode:screen" d="M222.434 192.482C235.936 194.365 245.317 206.542 243.379 219.693C241.442 232.843 228.936 241.962 215.434 240.102C201.932 238.22 192.573 226.043 194.488 212.892C196.425 199.741 208.932 190.6 222.434 192.482Z" fill="url(#paint3_radial_329_12)" fill-opacity="0.7"/>
<g style="mix-blend-mode:screen">
<path d="M219.26 214.151C220.477 214.317 221.324 215.424 221.131 216.587C220.962 217.772 219.825 218.597 218.63 218.411C217.413 218.246 216.566 217.139 216.759 215.975C216.928 214.79 218.065 213.965 219.26 214.151Z" fill="#F6E6FC"/>
</g>
<path style="mix-blend-mode:screen" d="M289.434 204.482C302.936 206.365 312.317 218.542 310.379 231.693C308.442 244.843 295.936 253.962 282.434 252.102C268.932 250.22 259.573 238.043 261.488 224.892C263.425 211.741 275.932 202.6 289.434 204.482Z" fill="url(#paint4_radial_329_12)" fill-opacity="0.7"/>
<g style="mix-blend-mode:screen">
<path d="M286.26 226.151C287.477 226.317 288.324 227.424 288.131 228.587C287.962 229.772 286.825 230.597 285.63 230.411C284.413 230.246 283.566 229.139 283.759 227.975C283.928 226.79 285.065 225.965 286.26 226.151Z" fill="#F6E6FC"/>
</g>
<path style="mix-blend-mode:screen" d="M361.434 203.482C374.936 205.365 384.317 217.542 382.379 230.693C380.442 243.843 367.936 252.962 354.434 251.102C340.932 249.22 331.573 237.043 333.488 223.892C335.425 210.741 347.932 201.6 361.434 203.482Z" fill="url(#paint5_radial_329_12)" fill-opacity="0.7"/>
<g style="mix-blend-mode:screen">
<path d="M358.26 225.151C359.477 225.317 360.324 226.424 360.131 227.587C359.962 228.772 358.825 229.597 357.63 229.411C356.413 229.246 355.566 228.139 355.759 226.975C355.928 225.79 357.065 224.965 358.26 225.151Z" fill="#F6E6FC"/>
</g>
<path style="mix-blend-mode:screen" d="M444.434 202.482C457.936 204.365 467.317 216.542 465.379 229.693C463.442 242.843 450.936 251.962 437.434 250.102C423.932 248.22 414.573 236.043 416.488 222.892C418.425 209.741 430.932 200.6 444.434 202.482Z" fill="url(#paint6_radial_329_12)" fill-opacity="0.7"/>
<g style="mix-blend-mode:screen">
<path d="M441.26 224.151C442.477 224.317 443.324 225.424 443.131 226.587C442.962 227.772 441.825 228.597 440.63 228.411C439.413 228.246 438.566 227.139 438.759 225.975C438.928 224.79 440.065 223.965 441.26 224.151Z" fill="#F6E6FC"/>
</g>
<path style="mix-blend-mode:screen" d="M514.434 196.482C527.936 198.365 537.317 210.542 535.379 223.693C533.442 236.843 520.936 245.962 507.434 244.102C493.932 242.22 484.573 230.043 486.488 216.892C488.425 203.741 500.932 194.6 514.434 196.482Z" fill="url(#paint7_radial_329_12)" fill-opacity="0.7"/>
<g style="mix-blend-mode:screen">
<path d="M511.26 218.151C512.477 218.317 513.324 219.424 513.131 220.587C512.962 221.772 511.825 222.597 510.63 222.411C509.413 222.246 508.566 221.139 508.759 219.975C508.928 218.79 510.065 217.965 511.26 218.151Z" fill="#F6E6FC"/>
</g>
<path style="mix-blend-mode:screen" d="M588.434 172.482C601.936 174.365 611.317 186.542 609.379 199.693C607.442 212.843 594.936 221.962 581.434 220.102C567.932 218.22 558.573 206.043 560.488 192.892C562.425 179.741 574.932 170.6 588.434 172.482Z" fill="url(#paint8_radial_329_12)" fill-opacity="0.7"/>
<g style="mix-blend-mode:screen">
<path d="M585.26 194.151C586.477 194.317 587.324 195.424 587.131 196.587C586.962 197.772 585.825 198.597 584.63 198.411C583.413 198.246 582.566 197.139 582.759 195.975C582.928 194.79 584.065 193.965 585.26 194.151Z" fill="#F6E6FC"/>
</g>
<path style="mix-blend-mode:screen" d="M650.434 134.482C663.936 136.365 673.317 148.542 671.379 161.693C669.442 174.843 656.936 183.962 643.434 182.102C629.932 180.22 620.573 168.043 622.488 154.892C624.425 141.741 636.932 132.6 650.434 134.482Z" fill="url(#paint9_radial_329_12)" fill-opacity="0.7"/>
<g style="mix-blend-mode:screen">
<path d="M647.26 156.151C648.477 156.317 649.324 157.424 649.131 158.587C648.962 159.772 647.825 160.597 646.63 160.411C645.413 160.246 644.566 159.139 644.759 157.975C644.928 156.79 646.065 155.965 647.26 156.151Z" fill="#F6E6FC"/>
</g>
<path style="mix-blend-mode:screen" d="M683.434 73.4823C696.936 75.3646 706.317 87.5418 704.379 100.693C702.442 113.843 689.936 122.962 676.434 121.102C662.932 119.22 653.573 107.043 655.488 93.8917C657.425 80.7409 669.932 71.6 683.434 73.4823Z" fill="url(#paint10_radial_329_12)" fill-opacity="0.7"/>
<g style="mix-blend-mode:screen">
<path d="M680.26 95.1515C681.477 95.3165 682.324 96.4235 682.131 97.5869C681.962 98.7725 680.825 99.5975 679.63 99.4107C678.413 99.2457 677.566 98.1387 677.759 96.9753C677.928 95.7897 679.065 94.9647 680.26 95.1515Z" fill="#F6E6FC"/>
</g>
<path style="mix-blend-mode:screen" d="M682.434 0.482311C695.936 2.36461 705.317 14.5418 703.379 27.6926C701.442 40.8434 688.936 49.9623 675.434 48.102C661.932 46.2197 652.573 34.0427 654.488 20.8917C656.425 7.7409 668.932 -1.39999 682.434 0.482311Z" fill="url(#paint11_radial_329_12)" fill-opacity="0.7"/>
<g style="mix-blend-mode:screen">
<path d="M679.26 22.1515C680.477 22.3165 681.324 23.4235 681.131 24.5869C680.962 25.7725 679.825 26.5975 678.63 26.4107C677.413 26.2457 676.566 25.1387 676.759 23.9753C676.928 22.7897 678.065 21.9647 679.26 22.1515Z" fill="#F6E6FC"/>
</g>
<defs>
<radialGradient id="paint0_radial_329_12" cx="0" cy="0" r="1" gradientUnits="userSpaceOnUse" gradientTransform="translate(24.9305 194.269) rotate(-81.6368) scale(24.0639 24.6784)">
<stop stop-color="#877DFF"/>
<stop offset="1" stop-color="#514B99" stop-opacity="0"/>
</radialGradient>
<radialGradient id="paint1_radial_329_12" cx="0" cy="0" r="1" gradientUnits="userSpaceOnUse" gradientTransform="translate(90.9305 184.269) rotate(-81.6368) scale(24.0639 24.6784)">
<stop stop-color="#877DFF"/>
<stop offset="1" stop-color="#514B99" stop-opacity="0"/>
</radialGradient>
<radialGradient id="paint2_radial_329_12" cx="0" cy="0" r="1" gradientUnits="userSpaceOnUse" gradientTransform="translate(152.93 202.269) rotate(-81.6368) scale(24.0639 24.6784)">
<stop stop-color="#877DFF"/>
<stop offset="1" stop-color="#514B99" stop-opacity="0"/>
</radialGradient>
<radialGradient id="paint3_radial_329_12" cx="0" cy="0" r="1" gradientUnits="userSpaceOnUse" gradientTransform="translate(218.93 216.269) rotate(-81.6368) scale(24.0639 24.6784)">
<stop stop-color="#877DFF"/>
<stop offset="1" stop-color="#514B99" stop-opacity="0"/>
</radialGradient>
<radialGradient id="paint4_radial_329_12" cx="0" cy="0" r="1" gradientUnits="userSpaceOnUse" gradientTransform="translate(285.93 228.269) rotate(-81.6368) scale(24.0639 24.6784)">
<stop stop-color="#877DFF"/>
<stop offset="1" stop-color="#514B99" stop-opacity="0"/>
</radialGradient>
<radialGradient id="paint5_radial_329_12" cx="0" cy="0" r="1" gradientUnits="userSpaceOnUse" gradientTransform="translate(357.93 227.269) rotate(-81.6368) scale(24.0639 24.6784)">
<stop stop-color="#877DFF"/>
<stop offset="1" stop-color="#514B99" stop-opacity="0"/>
</radialGradient>
<radialGradient id="paint6_radial_329_12" cx="0" cy="0" r="1" gradientUnits="userSpaceOnUse" gradientTransform="translate(440.93 226.269) rotate(-81.6368) scale(24.0639 24.6784)">
<stop stop-color="#877DFF"/>
<stop offset="1" stop-color="#514B99" stop-opacity="0"/>
</radialGradient>
<radialGradient id="paint7_radial_329_12" cx="0" cy="0" r="1" gradientUnits="userSpaceOnUse" gradientTransform="translate(510.93 220.269) rotate(-81.6368) scale(24.0639 24.6784)">
<stop stop-color="#877DFF"/>
<stop offset="1" stop-color="#514B99" stop-opacity="0"/>
</radialGradient>
<radialGradient id="paint8_radial_329_12" cx="0" cy="0" r="1" gradientUnits="userSpaceOnUse" gradientTransform="translate(584.93 196.269) rotate(-81.6368) scale(24.0639 24.6784)">
<stop stop-color="#877DFF"/>
<stop offset="1" stop-color="#514B99" stop-opacity="0"/>
</radialGradient>
<radialGradient id="paint9_radial_329_12" cx="0" cy="0" r="1" gradientUnits="userSpaceOnUse" gradientTransform="translate(646.93 158.269) rotate(-81.6368) scale(24.0639 24.6784)">
<stop stop-color="#877DFF"/>
<stop offset="1" stop-color="#514B99" stop-opacity="0"/>
</radialGradient>
<radialGradient id="paint10_radial_329_12" cx="0" cy="0" r="1" gradientUnits="userSpaceOnUse" gradientTransform="translate(679.93 97.269) rotate(-81.6368) scale(24.0639 24.6784)">
<stop stop-color="#877DFF"/>
<stop offset="1" stop-color="#514B99" stop-opacity="0"/>
</radialGradient>
<radialGradient id="paint11_radial_329_12" cx="0" cy="0" r="1" gradientUnits="userSpaceOnUse" gradientTransform="translate(678.93 24.269) rotate(-81.6368) scale(24.0639 24.6784)">
<stop stop-color="#877DFF"/>
<stop offset="1" stop-color="#514B99" stop-opacity="0"/>
</radialGradient>
</defs>
</svg>
