<svg width="710" height="240" viewBox="0 0 710 240" fill="none" xmlns="http://www.w3.org/2000/svg">
<path style="mix-blend-mode:color-dodge" d="M613.541 172.119C590.828 164.502 578.613 139.761 586.299 116.88C593.971 94.0001 618.617 81.6223 641.345 89.2539C664.072 96.8854 676.258 121.612 668.586 144.492C660.914 167.373 636.268 179.751 613.541 172.119Z" fill="url(#paint0_radial_6258_12504)"/>
<path style="mix-blend-mode:color-dodge" d="M652.541 237.119C629.828 229.502 617.613 204.761 625.299 181.88C632.971 159 657.617 146.622 680.345 154.254C703.072 161.885 715.258 186.612 707.586 209.492C699.914 232.373 675.268 244.751 652.541 237.119Z" fill="url(#paint1_radial_6258_12504)"/>
<path style="mix-blend-mode:color-dodge" d="M29.5408 85.1191C6.82761 77.5019 -5.38704 52.7606 2.29938 29.8804C9.97138 7.0001 34.617 -5.37769 57.3446 2.25387C80.0721 9.88543 92.2579 34.6122 84.5859 57.4925C76.9139 80.3727 52.2683 92.7506 29.5408 85.1191Z" fill="url(#paint2_radial_6258_12504)"/>
<path style="mix-blend-mode:color-dodge" d="M64.5408 143.119C41.8276 135.502 29.613 110.761 37.2994 87.8804C44.9714 65.0001 69.617 52.6223 92.3446 60.2539C115.072 67.8854 127.258 92.6122 119.586 115.492C111.914 138.373 87.2683 150.751 64.5408 143.119Z" fill="url(#paint3_radial_6258_12504)"/>
<path style="mix-blend-mode:color-dodge" d="M130.541 185.119C107.828 177.502 95.613 152.761 103.299 129.88C110.971 107 135.617 94.6223 158.345 102.254C181.072 109.885 193.258 134.612 185.586 157.492C177.914 180.373 153.268 192.751 130.541 185.119Z" fill="url(#paint4_radial_6258_12504)"/>
<path style="mix-blend-mode:color-dodge" d="M211.541 193.119C188.828 185.502 176.613 160.761 184.299 137.88C191.971 115 216.617 102.622 239.345 110.254C262.072 117.885 274.258 142.612 266.586 165.492C258.914 188.373 234.268 200.751 211.541 193.119Z" fill="url(#paint5_radial_6258_12504)"/>
<path style="mix-blend-mode:color-dodge" d="M289.541 187.119C266.828 179.502 254.613 154.761 262.299 131.88C269.971 109 294.617 96.6223 317.345 104.254C340.072 111.885 352.258 136.612 344.586 159.492C336.914 182.373 312.268 194.751 289.541 187.119Z" fill="url(#paint6_radial_6258_12504)"/>
<path style="mix-blend-mode:color-dodge" d="M372.541 172.119C349.828 164.502 337.613 139.761 345.299 116.88C352.971 94.0001 377.617 81.6223 400.345 89.2539C423.072 96.8854 435.258 121.612 427.586 144.492C419.914 167.373 395.268 179.751 372.541 172.119Z" fill="url(#paint7_radial_6258_12504)"/>
<path style="mix-blend-mode:color-dodge" d="M451.541 155.119C428.828 147.502 416.613 122.761 424.299 99.8804C431.971 77.0001 456.617 64.6223 479.345 72.2539C502.072 79.8854 514.258 104.612 506.586 127.492C498.914 150.373 474.268 162.751 451.541 155.119Z" fill="url(#paint8_radial_6258_12504)"/>
<path style="mix-blend-mode:color-dodge" d="M535.541 155.119C512.828 147.502 500.613 122.761 508.299 99.8804C515.971 77.0001 540.617 64.6223 563.345 72.2539C586.072 79.8854 598.258 104.612 590.586 127.492C582.914 150.373 558.268 162.751 535.541 155.119Z" fill="url(#paint9_radial_6258_12504)"/>
<defs>
<radialGradient id="paint0_radial_6258_12504" cx="0" cy="0" r="1" gradientUnits="userSpaceOnUse" gradientTransform="translate(629.805 132.246) rotate(108.554) scale(67.8693 67.8493)">
<stop offset="0.03" stop-color="white"/>
<stop offset="0.04" stop-color="#F5F5F5"/>
<stop offset="0.08" stop-color="#C7C7C7"/>
<stop offset="0.12" stop-color="#9C9C9C"/>
<stop offset="0.17" stop-color="#777777"/>
<stop offset="0.22" stop-color="#565656"/>
<stop offset="0.28" stop-color="#3B3B3B"/>
<stop offset="0.34" stop-color="#252525"/>
<stop offset="0.42" stop-color="#141414"/>
<stop offset="0.51" stop-color="#080808"/>
<stop offset="0.64" stop-color="#010101"/>
<stop offset="1"/>
</radialGradient>
<radialGradient id="paint1_radial_6258_12504" cx="0" cy="0" r="1" gradientUnits="userSpaceOnUse" gradientTransform="translate(668.805 197.246) rotate(108.554) scale(67.8693 67.8493)">
<stop offset="0.03" stop-color="white"/>
<stop offset="0.04" stop-color="#F5F5F5"/>
<stop offset="0.08" stop-color="#C7C7C7"/>
<stop offset="0.12" stop-color="#9C9C9C"/>
<stop offset="0.17" stop-color="#777777"/>
<stop offset="0.22" stop-color="#565656"/>
<stop offset="0.28" stop-color="#3B3B3B"/>
<stop offset="0.34" stop-color="#252525"/>
<stop offset="0.42" stop-color="#141414"/>
<stop offset="0.51" stop-color="#080808"/>
<stop offset="0.64" stop-color="#010101"/>
<stop offset="1"/>
</radialGradient>
<radialGradient id="paint2_radial_6258_12504" cx="0" cy="0" r="1" gradientUnits="userSpaceOnUse" gradientTransform="translate(45.8047 45.2464) rotate(108.554) scale(67.8693 67.8493)">
<stop offset="0.03" stop-color="white"/>
<stop offset="0.04" stop-color="#F5F5F5"/>
<stop offset="0.08" stop-color="#C7C7C7"/>
<stop offset="0.12" stop-color="#9C9C9C"/>
<stop offset="0.17" stop-color="#777777"/>
<stop offset="0.22" stop-color="#565656"/>
<stop offset="0.28" stop-color="#3B3B3B"/>
<stop offset="0.34" stop-color="#252525"/>
<stop offset="0.42" stop-color="#141414"/>
<stop offset="0.51" stop-color="#080808"/>
<stop offset="0.64" stop-color="#010101"/>
<stop offset="1"/>
</radialGradient>
<radialGradient id="paint3_radial_6258_12504" cx="0" cy="0" r="1" gradientUnits="userSpaceOnUse" gradientTransform="translate(80.8047 103.246) rotate(108.554) scale(67.8693 67.8493)">
<stop offset="0.03" stop-color="white"/>
<stop offset="0.04" stop-color="#F5F5F5"/>
<stop offset="0.08" stop-color="#C7C7C7"/>
<stop offset="0.12" stop-color="#9C9C9C"/>
<stop offset="0.17" stop-color="#777777"/>
<stop offset="0.22" stop-color="#565656"/>
<stop offset="0.28" stop-color="#3B3B3B"/>
<stop offset="0.34" stop-color="#252525"/>
<stop offset="0.42" stop-color="#141414"/>
<stop offset="0.51" stop-color="#080808"/>
<stop offset="0.64" stop-color="#010101"/>
<stop offset="1"/>
</radialGradient>
<radialGradient id="paint4_radial_6258_12504" cx="0" cy="0" r="1" gradientUnits="userSpaceOnUse" gradientTransform="translate(146.805 145.246) rotate(108.554) scale(67.8693 67.8493)">
<stop offset="0.03" stop-color="white"/>
<stop offset="0.04" stop-color="#F5F5F5"/>
<stop offset="0.08" stop-color="#C7C7C7"/>
<stop offset="0.12" stop-color="#9C9C9C"/>
<stop offset="0.17" stop-color="#777777"/>
<stop offset="0.22" stop-color="#565656"/>
<stop offset="0.28" stop-color="#3B3B3B"/>
<stop offset="0.34" stop-color="#252525"/>
<stop offset="0.42" stop-color="#141414"/>
<stop offset="0.51" stop-color="#080808"/>
<stop offset="0.64" stop-color="#010101"/>
<stop offset="1"/>
</radialGradient>
<radialGradient id="paint5_radial_6258_12504" cx="0" cy="0" r="1" gradientUnits="userSpaceOnUse" gradientTransform="translate(227.805 153.246) rotate(108.554) scale(67.8693 67.8493)">
<stop offset="0.03" stop-color="white"/>
<stop offset="0.04" stop-color="#F5F5F5"/>
<stop offset="0.08" stop-color="#C7C7C7"/>
<stop offset="0.12" stop-color="#9C9C9C"/>
<stop offset="0.17" stop-color="#777777"/>
<stop offset="0.22" stop-color="#565656"/>
<stop offset="0.28" stop-color="#3B3B3B"/>
<stop offset="0.34" stop-color="#252525"/>
<stop offset="0.42" stop-color="#141414"/>
<stop offset="0.51" stop-color="#080808"/>
<stop offset="0.64" stop-color="#010101"/>
<stop offset="1"/>
</radialGradient>
<radialGradient id="paint6_radial_6258_12504" cx="0" cy="0" r="1" gradientUnits="userSpaceOnUse" gradientTransform="translate(305.805 147.246) rotate(108.554) scale(67.8693 67.8493)">
<stop offset="0.03" stop-color="white"/>
<stop offset="0.04" stop-color="#F5F5F5"/>
<stop offset="0.08" stop-color="#C7C7C7"/>
<stop offset="0.12" stop-color="#9C9C9C"/>
<stop offset="0.17" stop-color="#777777"/>
<stop offset="0.22" stop-color="#565656"/>
<stop offset="0.28" stop-color="#3B3B3B"/>
<stop offset="0.34" stop-color="#252525"/>
<stop offset="0.42" stop-color="#141414"/>
<stop offset="0.51" stop-color="#080808"/>
<stop offset="0.64" stop-color="#010101"/>
<stop offset="1"/>
</radialGradient>
<radialGradient id="paint7_radial_6258_12504" cx="0" cy="0" r="1" gradientUnits="userSpaceOnUse" gradientTransform="translate(388.805 132.246) rotate(108.554) scale(67.8693 67.8493)">
<stop offset="0.03" stop-color="white"/>
<stop offset="0.04" stop-color="#F5F5F5"/>
<stop offset="0.08" stop-color="#C7C7C7"/>
<stop offset="0.12" stop-color="#9C9C9C"/>
<stop offset="0.17" stop-color="#777777"/>
<stop offset="0.22" stop-color="#565656"/>
<stop offset="0.28" stop-color="#3B3B3B"/>
<stop offset="0.34" stop-color="#252525"/>
<stop offset="0.42" stop-color="#141414"/>
<stop offset="0.51" stop-color="#080808"/>
<stop offset="0.64" stop-color="#010101"/>
<stop offset="1"/>
</radialGradient>
<radialGradient id="paint8_radial_6258_12504" cx="0" cy="0" r="1" gradientUnits="userSpaceOnUse" gradientTransform="translate(467.805 115.246) rotate(108.554) scale(67.8693 67.8493)">
<stop offset="0.03" stop-color="white"/>
<stop offset="0.04" stop-color="#F5F5F5"/>
<stop offset="0.08" stop-color="#C7C7C7"/>
<stop offset="0.12" stop-color="#9C9C9C"/>
<stop offset="0.17" stop-color="#777777"/>
<stop offset="0.22" stop-color="#565656"/>
<stop offset="0.28" stop-color="#3B3B3B"/>
<stop offset="0.34" stop-color="#252525"/>
<stop offset="0.42" stop-color="#141414"/>
<stop offset="0.51" stop-color="#080808"/>
<stop offset="0.64" stop-color="#010101"/>
<stop offset="1"/>
</radialGradient>
<radialGradient id="paint9_radial_6258_12504" cx="0" cy="0" r="1" gradientUnits="userSpaceOnUse" gradientTransform="translate(551.805 115.246) rotate(108.554) scale(67.8693 67.8493)">
<stop offset="0.03" stop-color="white"/>
<stop offset="0.04" stop-color="#F5F5F5"/>
<stop offset="0.08" stop-color="#C7C7C7"/>
<stop offset="0.12" stop-color="#9C9C9C"/>
<stop offset="0.17" stop-color="#777777"/>
<stop offset="0.22" stop-color="#565656"/>
<stop offset="0.28" stop-color="#3B3B3B"/>
<stop offset="0.34" stop-color="#252525"/>
<stop offset="0.42" stop-color="#141414"/>
<stop offset="0.51" stop-color="#080808"/>
<stop offset="0.64" stop-color="#010101"/>
<stop offset="1"/>
</radialGradient>
</defs>
</svg>
