<svg width="675" height="198" viewBox="0 0 675 198" fill="none" xmlns="http://www.w3.org/2000/svg">
<path style="mix-blend-mode:screen" d="M653.434 149.482C666.936 151.365 676.317 163.542 674.379 176.693C672.442 189.843 659.936 198.962 646.434 197.102C632.932 195.22 623.573 183.043 625.488 169.892C627.425 156.741 639.932 147.6 653.434 149.482Z" fill="url(#paint0_radial_329_13)" fill-opacity="0.7"/>
<g style="mix-blend-mode:screen">
<path d="M650.26 171.151C651.477 171.317 652.324 172.424 652.131 173.587C651.962 174.772 650.825 175.597 649.63 175.411C648.413 175.246 647.566 174.139 647.759 172.975C647.928 171.79 649.065 170.965 650.26 171.151Z" fill="#F6E6FC"/>
</g>
<path style="mix-blend-mode:screen" d="M606.434 82.4823C619.936 84.3646 629.317 96.5418 627.379 109.693C625.442 122.843 612.936 131.962 599.434 130.102C585.932 128.22 576.573 116.043 578.488 102.892C580.425 89.7409 592.932 80.6 606.434 82.4823Z" fill="url(#paint1_radial_329_13)" fill-opacity="0.7"/>
<g style="mix-blend-mode:screen">
<path d="M603.26 104.151C604.477 104.317 605.324 105.424 605.131 106.587C604.962 107.772 603.825 108.597 602.63 108.411C601.413 108.246 600.566 107.139 600.759 105.975C600.928 104.79 602.065 103.965 603.26 104.151Z" fill="#F6E6FC"/>
</g>
<path style="mix-blend-mode:screen" d="M533.434 65.4823C546.936 67.3646 556.317 79.5418 554.379 92.6926C552.442 105.843 539.936 114.962 526.434 113.102C512.932 111.22 503.573 99.0427 505.488 85.8917C507.425 72.7409 519.932 63.6 533.434 65.4823Z" fill="url(#paint2_radial_329_13)" fill-opacity="0.7"/>
<g style="mix-blend-mode:screen">
<path d="M530.26 87.1515C531.477 87.3165 532.324 88.4235 532.131 89.5869C531.962 90.7725 530.825 91.5975 529.63 91.4107C528.413 91.2457 527.566 90.1387 527.759 88.9753C527.928 87.7897 529.065 86.9647 530.26 87.1515Z" fill="#F6E6FC"/>
</g>
<path style="mix-blend-mode:screen" d="M371.434 80.4823C384.936 82.3646 394.317 94.5418 392.379 107.693C390.442 120.843 377.936 129.962 364.434 128.102C350.932 126.22 341.573 114.043 343.488 100.892C345.425 87.7409 357.932 78.6 371.434 80.4823Z" fill="url(#paint3_radial_329_13)" fill-opacity="0.7"/>
<g style="mix-blend-mode:screen">
<path d="M368.26 102.151C369.477 102.317 370.324 103.424 370.131 104.587C369.962 105.772 368.825 106.597 367.63 106.411C366.413 106.246 365.566 105.139 365.759 103.975C365.928 102.79 367.065 101.965 368.26 102.151Z" fill="#F6E6FC"/>
</g>
<path style="mix-blend-mode:screen" d="M288.434 100.482C301.936 102.365 311.317 114.542 309.379 127.693C307.442 140.843 294.936 149.962 281.434 148.102C267.932 146.22 258.573 134.043 260.488 120.892C262.425 107.741 274.932 98.6 288.434 100.482Z" fill="url(#paint4_radial_329_13)" fill-opacity="0.7"/>
<g style="mix-blend-mode:screen">
<path d="M285.26 122.151C286.477 122.317 287.324 123.424 287.131 124.587C286.962 125.772 285.825 126.597 284.63 126.411C283.413 126.246 282.566 125.139 282.759 123.975C282.928 122.79 284.065 121.965 285.26 122.151Z" fill="#F6E6FC"/>
</g>
<path style="mix-blend-mode:screen" d="M211.434 104.482C224.936 106.365 234.317 118.542 232.379 131.693C230.442 144.843 217.936 153.962 204.434 152.102C190.932 150.22 181.573 138.043 183.488 124.892C185.425 111.741 197.932 102.6 211.434 104.482Z" fill="url(#paint5_radial_329_13)" fill-opacity="0.7"/>
<g style="mix-blend-mode:screen">
<path d="M208.26 126.151C209.477 126.317 210.324 127.424 210.131 128.587C209.962 129.772 208.825 130.597 207.63 130.411C206.413 130.246 205.566 129.139 205.759 127.975C205.928 126.79 207.065 125.965 208.26 126.151Z" fill="#F6E6FC"/>
</g>
<path style="mix-blend-mode:screen" d="M129.434 97.4823C142.936 99.3646 152.317 111.542 150.379 124.693C148.442 137.843 135.936 146.962 122.434 145.102C108.932 143.22 99.5731 131.043 101.488 117.892C103.425 104.741 115.932 95.6 129.434 97.4823Z" fill="url(#paint6_radial_329_13)" fill-opacity="0.7"/>
<g style="mix-blend-mode:screen">
<path d="M126.26 119.151C127.477 119.317 128.324 120.424 128.131 121.587C127.962 122.772 126.825 123.597 125.63 123.411C124.413 123.246 123.566 122.139 123.759 120.975C123.928 119.79 125.065 118.965 126.26 119.151Z" fill="#F6E6FC"/>
</g>
<path style="mix-blend-mode:screen" d="M28.4338 0.482311C41.9358 2.36461 51.3169 14.5418 49.3794 27.6926C47.442 40.8434 34.9359 49.9623 21.4336 48.102C7.93163 46.2197 -1.42686 34.0427 0.48802 20.8917C2.42547 7.7409 14.9318 -1.39999 28.4338 0.482311Z" fill="url(#paint7_radial_329_13)" fill-opacity="0.7"/>
<g style="mix-blend-mode:screen">
<path d="M25.2598 22.1515C26.477 22.3165 27.3237 23.4235 27.1315 24.5869C26.9616 25.7725 25.8247 26.5975 24.6302 26.4107C23.413 26.2457 22.5663 25.1387 22.7585 23.9753C22.9284 22.7897 24.0653 21.9647 25.2598 22.1515Z" fill="#F6E6FC"/>
</g>
<path style="mix-blend-mode:screen" d="M60.4338 54.4823C73.9358 56.3646 83.3169 68.5418 81.3794 81.6926C79.442 94.8434 66.9359 103.962 53.4336 102.102C39.9316 100.22 30.5731 88.0427 32.488 74.8917C34.4255 61.7409 46.9318 52.6 60.4338 54.4823Z" fill="url(#paint8_radial_329_13)" fill-opacity="0.7"/>
<g style="mix-blend-mode:screen">
<path d="M57.2598 76.1515C58.477 76.3165 59.3237 77.4235 59.1315 78.5869C58.9616 79.7725 57.8247 80.5975 56.6302 80.4107C55.413 80.2457 54.5663 79.1387 54.7585 77.9753C54.9284 76.7897 56.0653 75.9647 57.2598 76.1515Z" fill="#F6E6FC"/>
</g>
<path style="mix-blend-mode:screen" d="M451.434 64.4823C464.936 66.3646 474.317 78.5418 472.379 91.6926C470.442 104.843 457.936 113.962 444.434 112.102C430.932 110.22 421.573 98.0427 423.488 84.8917C425.425 71.7409 437.932 62.6 451.434 64.4823Z" fill="url(#paint9_radial_329_13)" fill-opacity="0.7"/>
<g style="mix-blend-mode:screen">
<path d="M448.26 86.1515C449.477 86.3165 450.324 87.4235 450.131 88.5869C449.962 89.7725 448.825 90.5975 447.63 90.4107C446.413 90.2457 445.566 89.1387 445.759 87.9753C445.928 86.7897 447.065 85.9647 448.26 86.1515Z" fill="#F6E6FC"/>
</g>
<defs>
<radialGradient id="paint0_radial_329_13" cx="0" cy="0" r="1" gradientUnits="userSpaceOnUse" gradientTransform="translate(649.93 173.269) rotate(-81.6368) scale(24.0639 24.6784)">
<stop stop-color="#877DFF"/>
<stop offset="1" stop-color="#514B99" stop-opacity="0"/>
</radialGradient>
<radialGradient id="paint1_radial_329_13" cx="0" cy="0" r="1" gradientUnits="userSpaceOnUse" gradientTransform="translate(602.93 106.269) rotate(-81.6368) scale(24.0639 24.6784)">
<stop stop-color="#877DFF"/>
<stop offset="1" stop-color="#514B99" stop-opacity="0"/>
</radialGradient>
<radialGradient id="paint2_radial_329_13" cx="0" cy="0" r="1" gradientUnits="userSpaceOnUse" gradientTransform="translate(529.93 89.269) rotate(-81.6368) scale(24.0639 24.6784)">
<stop stop-color="#877DFF"/>
<stop offset="1" stop-color="#514B99" stop-opacity="0"/>
</radialGradient>
<radialGradient id="paint3_radial_329_13" cx="0" cy="0" r="1" gradientUnits="userSpaceOnUse" gradientTransform="translate(367.93 104.269) rotate(-81.6368) scale(24.0639 24.6784)">
<stop stop-color="#877DFF"/>
<stop offset="1" stop-color="#514B99" stop-opacity="0"/>
</radialGradient>
<radialGradient id="paint4_radial_329_13" cx="0" cy="0" r="1" gradientUnits="userSpaceOnUse" gradientTransform="translate(284.93 124.269) rotate(-81.6368) scale(24.0639 24.6784)">
<stop stop-color="#877DFF"/>
<stop offset="1" stop-color="#514B99" stop-opacity="0"/>
</radialGradient>
<radialGradient id="paint5_radial_329_13" cx="0" cy="0" r="1" gradientUnits="userSpaceOnUse" gradientTransform="translate(207.93 128.269) rotate(-81.6368) scale(24.0639 24.6784)">
<stop stop-color="#877DFF"/>
<stop offset="1" stop-color="#514B99" stop-opacity="0"/>
</radialGradient>
<radialGradient id="paint6_radial_329_13" cx="0" cy="0" r="1" gradientUnits="userSpaceOnUse" gradientTransform="translate(125.93 121.269) rotate(-81.6368) scale(24.0639 24.6784)">
<stop stop-color="#877DFF"/>
<stop offset="1" stop-color="#514B99" stop-opacity="0"/>
</radialGradient>
<radialGradient id="paint7_radial_329_13" cx="0" cy="0" r="1" gradientUnits="userSpaceOnUse" gradientTransform="translate(24.9305 24.269) rotate(-81.6368) scale(24.0639 24.6784)">
<stop stop-color="#877DFF"/>
<stop offset="1" stop-color="#514B99" stop-opacity="0"/>
</radialGradient>
<radialGradient id="paint8_radial_329_13" cx="0" cy="0" r="1" gradientUnits="userSpaceOnUse" gradientTransform="translate(56.9305 78.269) rotate(-81.6368) scale(24.0639 24.6784)">
<stop stop-color="#877DFF"/>
<stop offset="1" stop-color="#514B99" stop-opacity="0"/>
</radialGradient>
<radialGradient id="paint9_radial_329_13" cx="0" cy="0" r="1" gradientUnits="userSpaceOnUse" gradientTransform="translate(447.93 88.269) rotate(-81.6368) scale(24.0639 24.6784)">
<stop stop-color="#877DFF"/>
<stop offset="1" stop-color="#514B99" stop-opacity="0"/>
</radialGradient>
</defs>
</svg>
