<svg width="684" height="600" viewBox="0 0 684 600" fill="none" xmlns="http://www.w3.org/2000/svg">
<g clip-path="url(#clip0_6238_5206)">
<path style="mix-blend-mode:screen" d="M104.783 408.159C94.4273 409.634 87.2369 419.223 88.7113 429.559C90.186 439.916 99.7747 447.107 110.11 445.632C120.466 444.158 127.656 434.568 126.181 424.232C124.707 413.876 115.118 406.685 104.783 408.159Z" fill="url(#paint0_radial_6238_5206)"/>
<g style="mix-blend-mode:screen">
<path d="M107.225 425.208C106.298 425.34 105.647 426.212 105.779 427.138C105.911 428.065 106.782 428.716 107.709 428.584C108.635 428.452 109.287 427.581 109.155 426.654C109.023 425.727 108.151 425.076 107.225 425.208Z" fill="#F6E6FC"/>
</g>
<path style="mix-blend-mode:screen" d="M144.024 169.669C129.962 171.672 120.185 184.707 122.188 198.77C124.191 212.833 137.225 222.611 151.286 220.608C165.348 218.605 175.125 205.57 173.122 191.507C171.119 177.445 158.085 167.666 144.024 169.669Z" fill="url(#paint1_radial_6238_5206)"/>
<g style="mix-blend-mode:screen">
<path d="M147.325 192.853C146.07 193.029 145.173 194.212 145.37 195.468C145.546 196.724 146.729 197.621 147.985 197.424C149.241 197.247 150.137 196.064 149.941 194.808C149.764 193.552 148.581 192.656 147.325 192.853Z" fill="#F6E6FC"/>
</g>
<path style="mix-blend-mode:screen" d="M17.703 323.162C8.72666 324.438 2.49377 332.762 3.77041 341.739C5.04705 350.716 13.3696 356.949 22.346 355.673C31.3223 354.396 37.5552 346.073 36.2786 337.095C35.0019 328.118 26.6794 321.885 17.703 323.162Z" fill="url(#paint2_radial_6238_5206)"/>
<g style="mix-blend-mode:screen">
<path d="M19.8147 337.966C19.0117 338.077 18.4413 338.824 18.5516 339.627C18.6619 340.43 19.4091 341.001 20.2121 340.89C21.0151 340.78 21.5856 340.033 21.4546 339.23C21.3443 338.427 20.597 337.856 19.794 337.966L19.8147 337.966Z" fill="#F6E6FC"/>
</g>
<path style="mix-blend-mode:screen" d="M220.42 388.953C206.359 390.956 196.581 403.991 198.584 418.053C200.587 432.116 213.621 441.894 227.683 439.891C241.744 437.888 251.522 424.853 249.519 410.79C247.516 396.728 234.482 386.95 220.42 388.953Z" fill="url(#paint3_radial_6238_5206)"/>
<g style="mix-blend-mode:screen">
<path d="M223.722 412.136C222.466 412.312 221.57 413.496 221.767 414.751C221.943 416.007 223.126 416.904 224.382 416.707C225.637 416.531 226.534 415.347 226.337 414.092C226.161 412.836 224.978 411.939 223.722 412.136Z" fill="#F6E6FC"/>
</g>
<path style="mix-blend-mode:screen" d="M24.2855 223.382C10.224 225.385 0.446687 238.42 2.4495 252.483C4.4523 266.546 17.4864 276.324 31.5479 274.321C45.6095 272.318 55.3868 259.283 53.3839 245.22C51.3811 231.157 38.3471 221.379 24.2855 223.382Z" fill="url(#paint4_radial_6238_5206)"/>
<g style="mix-blend-mode:screen">
<path d="M27.5872 246.546C26.3313 246.722 25.4349 247.906 25.6318 249.161C25.808 250.417 26.9912 251.314 28.2469 251.117C29.5028 250.941 30.3991 249.758 30.2022 248.502C30.026 247.246 28.8429 246.349 27.5872 246.546Z" fill="#F6E6FC"/>
</g>
<path style="mix-blend-mode:screen" d="M313.768 33.0405C299.706 35.0434 289.929 48.0786 291.932 62.1413C293.935 76.204 306.969 85.982 321.03 83.9791C335.092 81.9761 344.869 68.941 342.866 54.8783C340.864 40.8156 327.829 31.0375 313.768 33.0405Z" fill="url(#paint5_radial_6238_5206)"/>
<g style="mix-blend-mode:screen">
<path d="M317.07 56.2239C315.814 56.4002 314.917 57.5834 315.114 58.8392C315.29 60.0952 316.474 60.9916 317.729 60.7948C318.985 60.6185 319.882 59.4353 319.685 58.1795C319.508 56.9235 318.325 56.0271 317.07 56.2239Z" fill="#F6E6FC"/>
</g>
<path style="mix-blend-mode:screen" d="M435.446 2.41935C421.384 4.4223 411.607 17.4575 413.61 31.5202C415.612 45.5829 428.647 55.361 442.708 53.358C456.77 51.3551 466.547 38.3199 464.544 24.2572C462.541 10.1945 449.507 0.416399 435.446 2.41935Z" fill="url(#paint6_radial_6238_5206)"/>
<g style="mix-blend-mode:screen">
<path d="M438.747 25.6028C437.491 25.7791 436.595 26.9623 436.792 28.2181C436.968 29.4741 438.151 30.3705 439.407 30.1737C440.663 29.9974 441.559 28.8142 441.362 27.5584C441.186 26.3024 440.003 25.406 438.747 25.6028Z" fill="#F6E6FC"/>
</g>
<path style="mix-blend-mode:screen" d="M619.6 204.177C605.538 206.18 595.761 219.215 597.764 233.278C599.767 247.341 612.801 257.119 626.862 255.116C640.924 253.113 650.701 240.078 648.698 226.015C646.696 211.952 633.662 202.174 619.6 204.177Z" fill="url(#paint7_radial_6238_5206)"/>
<g style="mix-blend-mode:screen">
<path d="M622.902 227.361C621.646 227.537 620.749 228.72 620.946 229.976C621.123 231.232 622.306 232.128 623.561 231.931C624.817 231.755 625.714 230.572 625.517 229.316C625.34 228.06 624.157 227.164 622.902 227.361Z" fill="#F6E6FC"/>
</g>
<path style="mix-blend-mode:screen" d="M604.834 308.648C590.773 310.651 580.995 323.686 582.998 337.749C585.001 351.811 598.035 361.589 612.097 359.587C626.158 357.584 635.936 344.548 633.933 330.486C631.93 316.423 618.896 306.645 604.834 308.648Z" fill="url(#paint8_radial_6238_5206)"/>
<g style="mix-blend-mode:screen">
<path d="M608.136 331.831C606.88 332.008 605.984 333.191 606.181 334.447C606.357 335.703 607.54 336.599 608.796 336.402C610.052 336.226 610.948 335.043 610.751 333.787C610.575 332.531 609.392 331.634 608.136 331.831Z" fill="#F6E6FC"/>
</g>
<path style="mix-blend-mode:screen" d="M374.44 545.318C360.378 547.321 350.601 560.356 352.604 574.419C354.607 588.481 367.641 598.259 381.702 596.256C395.764 594.253 405.541 581.218 403.538 567.156C401.535 553.093 388.501 543.315 374.44 545.318Z" fill="url(#paint9_radial_6238_5206)"/>
<g style="mix-blend-mode:screen">
<path d="M377.741 568.501C376.486 568.678 375.589 569.861 375.786 571.117C375.962 572.373 377.145 573.269 378.401 573.072C379.657 572.896 380.553 571.713 380.357 570.457C380.18 569.201 378.997 568.304 377.741 568.501Z" fill="#F6E6FC"/>
</g>
<path style="mix-blend-mode:screen" d="M83.9437 275.91C69.8822 277.913 60.1049 290.948 62.1077 305.01C64.1105 319.073 77.1446 328.851 91.2061 326.848C105.268 324.845 115.045 311.81 113.042 297.747C111.039 283.685 98.0053 273.907 83.9437 275.91Z" fill="url(#paint10_radial_6238_5206)"/>
<g style="mix-blend-mode:screen">
<path d="M87.2454 299.093C85.9895 299.269 85.0931 300.453 85.29 301.708C85.4663 302.964 86.6493 303.861 87.905 303.664C89.1609 303.488 90.0573 302.304 89.8604 301.049C89.6842 299.793 88.5011 298.896 87.2454 299.093Z" fill="#F6E6FC"/>
</g>
<path style="mix-blend-mode:screen" d="M326.422 475.904C312.361 477.907 302.583 490.942 304.586 505.005C306.589 519.067 319.623 528.845 333.685 526.842C347.746 524.839 357.523 511.804 355.521 497.742C353.518 483.679 340.484 473.901 326.422 475.904Z" fill="url(#paint11_radial_6238_5206)"/>
<g style="mix-blend-mode:screen">
<path d="M329.724 499.087C328.468 499.263 327.572 500.447 327.769 501.702C327.945 502.958 329.128 503.855 330.384 503.658C331.639 503.482 332.536 502.299 332.339 501.043C332.163 499.787 330.98 498.89 329.724 499.087Z" fill="#F6E6FC"/>
</g>
<path style="mix-blend-mode:screen" d="M545.635 469.123C531.574 471.125 521.796 484.161 523.799 498.223C525.802 512.286 538.836 522.064 552.898 520.061C566.959 518.058 576.736 505.023 574.734 490.96C572.731 476.898 559.697 467.12 545.635 469.123Z" fill="url(#paint12_radial_6238_5206)"/>
<g style="mix-blend-mode:screen">
<path d="M548.937 492.286C547.681 492.463 546.785 493.646 546.981 494.902C547.158 496.158 548.341 497.054 549.596 496.857C550.852 496.681 551.749 495.498 551.552 494.242C551.376 492.986 550.192 492.09 548.937 492.286Z" fill="#F6E6FC"/>
</g>
<path style="mix-blend-mode:screen" d="M145.567 294.878C133.235 296.638 124.68 308.054 126.42 320.388C128.18 332.721 139.595 341.276 151.927 339.536C164.26 337.776 172.815 326.36 171.075 314.027C169.314 301.693 157.899 293.117 145.567 294.878Z" fill="url(#paint13_radial_6238_5206)"/>
<g style="mix-blend-mode:screen">
<path d="M148.471 315.199C147.36 315.353 146.586 316.391 146.76 317.482C146.915 318.594 147.952 319.368 149.043 319.193C150.155 319.039 150.929 318.001 150.754 316.91C150.6 315.798 149.562 315.024 148.471 315.199Z" fill="#F6E6FC"/>
</g>
<path style="mix-blend-mode:screen" d="M656.356 375.434C644.024 377.195 635.469 388.611 637.209 400.944C638.948 413.277 650.384 421.853 662.716 420.093C675.049 418.332 683.604 406.916 681.864 394.583C680.103 382.25 668.688 373.694 656.356 375.434Z" fill="url(#paint14_radial_6238_5206)"/>
<g style="mix-blend-mode:screen">
<path d="M659.239 395.736C658.127 395.89 657.353 396.928 657.528 398.019C657.682 399.131 658.72 399.905 659.811 399.73C660.923 399.576 661.697 398.538 661.522 397.447C661.368 396.335 660.33 395.561 659.239 395.736Z" fill="#F6E6FC"/>
</g>
<path style="mix-blend-mode:screen" d="M473.459 57.3074C461.127 59.0679 452.572 70.484 454.312 82.8173C456.072 95.1504 467.487 103.706 479.82 101.966C492.152 100.206 500.727 88.7894 498.967 76.4563C497.207 64.1232 485.791 55.5468 473.459 57.3074Z" fill="url(#paint15_radial_6238_5206)"/>
<g style="mix-blend-mode:screen">
<path d="M476.342 77.6087C475.23 77.7631 474.456 78.8009 474.631 79.892C474.786 81.0038 475.823 81.7779 476.914 81.6237C478.026 81.4693 478.8 80.4316 478.625 79.3405C478.471 78.2286 477.433 77.4546 476.342 77.6294L476.342 77.6087Z" fill="#F6E6FC"/>
</g>
<path style="mix-blend-mode:screen" d="M228.217 521.94C215.885 523.7 207.309 535.117 209.07 547.45C210.83 559.783 222.246 568.359 234.578 566.599C246.91 564.838 255.465 553.422 253.725 541.089C251.965 528.756 240.55 520.2 228.217 521.94Z" fill="url(#paint16_radial_6238_5206)"/>
<g style="mix-blend-mode:screen">
<path d="M231.1 542.242C229.988 542.396 229.214 543.434 229.389 544.525C229.543 545.637 230.581 546.411 231.672 546.236C232.784 546.082 233.558 545.044 233.383 543.953C233.229 542.841 232.191 542.067 231.1 542.242Z" fill="#F6E6FC"/>
</g>
<path style="mix-blend-mode:screen" d="M447.51 485.037C435.178 486.798 426.623 498.214 428.363 510.547C430.123 522.881 441.539 531.457 453.871 529.696C466.203 527.936 474.758 516.52 473.018 504.186C471.258 491.853 459.842 483.277 447.51 485.037Z" fill="url(#paint17_radial_6238_5206)"/>
<g style="mix-blend-mode:screen">
<path d="M450.415 505.359C449.303 505.513 448.529 506.551 448.704 507.642C448.858 508.754 449.896 509.528 450.987 509.353C452.098 509.199 452.872 508.161 452.698 507.07C452.543 505.958 451.506 505.184 450.415 505.359Z" fill="#F6E6FC"/>
</g>
<path style="mix-blend-mode:screen" d="M508.512 138.239C496.18 140 487.604 151.416 489.365 163.749C491.125 176.082 502.54 184.638 514.873 182.898C527.205 181.137 535.76 169.721 534.02 157.388C532.26 145.055 520.844 136.478 508.512 138.239Z" fill="url(#paint18_radial_6238_5206)"/>
<g style="mix-blend-mode:screen">
<path d="M511.397 158.56C510.285 158.714 509.511 159.752 509.686 160.843C509.84 161.955 510.878 162.729 511.969 162.554C513.081 162.4 513.855 161.362 513.68 160.271C513.526 159.159 512.488 158.385 511.397 158.56Z" fill="#F6E6FC"/>
</g>
<path style="mix-blend-mode:screen" d="M246.577 57.3132C234.245 59.0737 225.69 70.4898 227.429 82.8231C229.19 95.1562 240.605 103.712 252.937 101.972C265.269 100.211 273.824 88.7954 272.085 76.4621C270.345 64.1288 258.909 55.5526 246.577 57.3132Z" fill="url(#paint19_radial_6238_5206)"/>
<g style="mix-blend-mode:screen">
<path d="M249.46 77.6343C248.348 77.7887 247.575 78.8265 247.749 79.9175C247.904 81.0294 248.941 81.8034 250.053 81.6491C251.165 81.4947 251.939 80.457 251.764 79.3659C251.61 78.254 250.572 77.48 249.481 77.6547L249.46 77.6343Z" fill="#F6E6FC"/>
</g>
<g opacity="0.65">
<g style="mix-blend-mode:screen">
<path d="M124.61 384.995C123.91 385.083 123.442 385.727 123.53 386.427C123.619 387.127 124.263 387.595 124.963 387.507C125.663 387.418 126.131 386.774 126.042 386.074C125.953 385.374 125.31 384.906 124.61 384.995Z" fill="#F6E6FC"/>
</g>
<path style="mix-blend-mode:color-dodge" opacity="0.5" d="M123.532 377.417C118.653 378.121 115.272 382.625 115.955 387.505C116.659 392.384 121.162 395.766 126.042 395.083C130.921 394.4 134.302 389.875 133.619 384.995C132.916 380.116 128.412 376.734 123.532 377.417Z" fill="url(#paint20_radial_6238_5206)"/>
</g>
<g opacity="0.65">
<g style="mix-blend-mode:screen">
<path d="M548.608 284.416C547.331 284.592 546.455 285.775 546.632 287.052C546.808 288.328 547.991 289.204 549.268 289.028C550.544 288.851 551.42 287.668 551.244 286.392C551.067 285.115 549.884 284.239 548.608 284.416Z" fill="#F6E6FC"/>
</g>
<path style="mix-blend-mode:color-dodge" opacity="0.5" d="M546.627 270.457C537.65 271.733 531.418 280.057 532.694 289.034C533.971 298.011 542.293 304.244 551.27 302.967C560.246 301.691 566.479 293.367 565.202 284.39C563.926 275.413 555.603 269.18 546.627 270.457Z" fill="url(#paint21_radial_6238_5206)"/>
</g>
<g opacity="0.65">
<g style="mix-blend-mode:screen">
<path d="M361.826 116.041C360.55 116.217 359.674 117.4 359.851 118.677C360.027 119.953 361.21 120.829 362.487 120.653C363.763 120.476 364.639 119.293 364.462 118.017C364.286 116.74 363.103 115.864 361.826 116.041Z" fill="#F6E6FC"/>
</g>
<path style="mix-blend-mode:color-dodge" opacity="0.5" d="M359.824 102.101C350.848 103.378 344.615 111.701 345.891 120.678C347.168 129.655 355.491 135.889 364.467 134.612C373.443 133.335 379.676 125.012 378.4 116.035C377.123 107.058 368.8 100.824 359.824 102.101Z" fill="url(#paint22_radial_6238_5206)"/>
</g>
<g opacity="0.65">
<g style="mix-blend-mode:screen">
<path d="M122.039 257.568C120.763 257.745 119.887 258.928 120.064 260.204C120.24 261.481 121.423 262.357 122.699 262.18C123.976 262.004 124.852 260.821 124.675 259.544C124.499 258.267 123.316 257.392 122.039 257.568Z" fill="#F6E6FC"/>
</g>
<path style="mix-blend-mode:color-dodge" opacity="0.5" d="M120.058 243.609C111.082 244.886 104.849 253.209 106.126 262.186C107.403 271.163 115.725 277.397 124.701 276.12C133.678 274.843 139.911 266.52 138.634 257.543C137.357 248.566 129.035 242.332 120.058 243.609Z" fill="url(#paint23_radial_6238_5206)"/>
</g>
<g opacity="0.65">
<g style="mix-blend-mode:screen">
<path d="M71.0374 360.304C69.7609 360.481 68.8852 361.664 69.0616 362.94C69.2381 364.217 70.421 365.093 71.6975 364.916C72.974 364.74 73.8497 363.557 73.6733 362.28C73.4968 361.004 72.3139 360.128 71.0374 360.304Z" fill="#F6E6FC"/>
</g>
<path style="mix-blend-mode:color-dodge" opacity="0.5" d="M69.0565 346.345C60.0802 347.622 53.8473 355.945 55.1239 364.922C56.4006 373.899 64.7231 380.133 73.6995 378.856C82.6759 377.579 88.9087 369.256 87.6321 360.279C86.3555 351.302 78.0329 345.069 69.0565 346.345Z" fill="url(#paint24_radial_6238_5206)"/>
</g>
<g opacity="0.65">
<g style="mix-blend-mode:screen">
<path d="M550.348 392.758C549.071 392.934 548.196 394.117 548.372 395.394C548.549 396.67 549.731 397.546 551.008 397.37C552.284 397.193 553.16 396.01 552.984 394.734C552.807 393.457 551.624 392.581 550.348 392.758Z" fill="#F6E6FC"/>
</g>
<path style="mix-blend-mode:color-dodge" opacity="0.5" d="M548.367 378.798C539.391 380.075 533.158 388.398 534.434 397.376C535.711 406.353 544.034 412.586 553.01 411.309C561.986 410.033 568.219 401.709 566.943 392.732C565.666 383.755 557.343 377.522 548.367 378.798Z" fill="url(#paint25_radial_6238_5206)"/>
</g>
<g opacity="0.65">
<g style="mix-blend-mode:screen">
<path d="M194.239 276.851C192.962 277.028 192.086 278.211 192.263 279.487C192.439 280.764 193.622 281.64 194.899 281.463C196.175 281.287 197.051 280.104 196.874 278.827C196.698 277.551 195.515 276.675 194.239 276.851Z" fill="#F6E6FC"/>
</g>
<path style="mix-blend-mode:color-dodge" opacity="0.5" d="M192.258 262.892C183.281 264.169 177.048 272.492 178.325 281.469C179.602 290.446 187.924 296.68 196.901 295.403C205.877 294.126 212.11 285.803 210.833 276.826C209.557 267.849 201.234 261.615 192.258 262.892Z" fill="url(#paint26_radial_6238_5206)"/>
</g>
<g opacity="0.65">
<g style="mix-blend-mode:screen">
<path d="M175.526 144.871C174.249 145.047 173.373 146.23 173.55 147.507C173.726 148.783 174.909 149.659 176.186 149.483C177.462 149.306 178.338 148.123 178.162 146.847C177.985 145.57 176.802 144.694 175.526 144.871Z" fill="#F6E6FC"/>
</g>
<path style="mix-blend-mode:color-dodge" opacity="0.5" d="M173.545 130.912C164.568 132.188 158.336 140.512 159.612 149.489C160.889 158.466 169.211 164.699 178.188 163.423C187.164 162.146 193.397 153.823 192.12 144.845C190.844 135.868 182.521 129.635 173.545 130.912Z" fill="url(#paint27_radial_6238_5206)"/>
</g>
<g opacity="0.65">
<g style="mix-blend-mode:screen">
<path d="M159.094 466.734C157.818 466.911 156.942 468.094 157.118 469.37C157.295 470.647 158.478 471.523 159.754 471.346C161.031 471.17 161.906 469.987 161.73 468.71C161.553 467.433 160.371 466.558 159.094 466.734Z" fill="#F6E6FC"/>
</g>
<path style="mix-blend-mode:color-dodge" opacity="0.5" d="M157.113 452.775C148.137 454.052 141.904 462.375 143.181 471.352C144.457 480.329 152.78 486.563 161.756 485.286C170.732 484.009 176.965 475.686 175.689 466.709C174.412 457.732 166.089 451.498 157.113 452.775Z" fill="url(#paint28_radial_6238_5206)"/>
</g>
<g opacity="0.65">
<g style="mix-blend-mode:screen">
<path d="M263.045 468.125C261.769 468.301 260.893 469.484 261.069 470.761C261.246 472.037 262.429 472.913 263.705 472.737C264.982 472.56 265.858 471.377 265.681 470.101C265.505 468.824 264.322 467.948 263.045 468.125Z" fill="#F6E6FC"/>
</g>
<path style="mix-blend-mode:color-dodge" opacity="0.5" d="M261.043 454.166C252.066 455.442 245.834 463.766 247.11 472.743C248.387 481.72 256.709 487.953 265.686 486.676C274.662 485.4 280.895 477.076 279.618 468.099C278.342 459.122 270.019 452.889 261.043 454.166Z" fill="url(#paint29_radial_6238_5206)"/>
</g>
</g>
<defs>
<radialGradient id="paint0_radial_6238_5206" cx="0" cy="0" r="1" gradientUnits="userSpaceOnUse" gradientTransform="translate(107.44 426.869) rotate(-98.1064) scale(18.9247 18.9233)">
<stop stop-color="#EC8331"/>
<stop offset="0.12" stop-color="#B56526"/>
<stop offset="0.23" stop-color="#854A1B"/>
<stop offset="0.35" stop-color="#5C3313"/>
<stop offset="0.47" stop-color="#3A200C"/>
<stop offset="0.6" stop-color="#201206"/>
<stop offset="0.72" stop-color="#0E0803"/>
<stop offset="0.85" stop-color="#030100"/>
<stop offset="1"/>
</radialGradient>
<radialGradient id="paint1_radial_6238_5206" cx="0" cy="0" r="1" gradientUnits="userSpaceOnUse" gradientTransform="translate(147.64 195.126) rotate(-98.1064) scale(25.7278 25.7258)">
<stop stop-color="#EC8331"/>
<stop offset="0.12" stop-color="#B56526"/>
<stop offset="0.23" stop-color="#854A1B"/>
<stop offset="0.35" stop-color="#5C3313"/>
<stop offset="0.47" stop-color="#3A200C"/>
<stop offset="0.6" stop-color="#201206"/>
<stop offset="0.72" stop-color="#0E0803"/>
<stop offset="0.85" stop-color="#030100"/>
<stop offset="1"/>
</radialGradient>
<radialGradient id="paint2_radial_6238_5206" cx="0" cy="0" r="1" gradientUnits="userSpaceOnUse" gradientTransform="translate(20.0017 339.394) rotate(-98.1064) scale(16.4097 16.4084)">
<stop stop-color="#EC8331"/>
<stop offset="0.12" stop-color="#B56526"/>
<stop offset="0.23" stop-color="#854A1B"/>
<stop offset="0.35" stop-color="#5C3313"/>
<stop offset="0.47" stop-color="#3A200C"/>
<stop offset="0.6" stop-color="#201206"/>
<stop offset="0.72" stop-color="#0E0803"/>
<stop offset="0.85" stop-color="#030100"/>
<stop offset="1"/>
</radialGradient>
<radialGradient id="paint3_radial_6238_5206" cx="0" cy="0" r="1" gradientUnits="userSpaceOnUse" gradientTransform="translate(224.035 414.402) rotate(-98.1064) scale(25.7278 25.7258)">
<stop stop-color="#EC8331"/>
<stop offset="0.12" stop-color="#B56526"/>
<stop offset="0.23" stop-color="#854A1B"/>
<stop offset="0.35" stop-color="#5C3313"/>
<stop offset="0.47" stop-color="#3A200C"/>
<stop offset="0.6" stop-color="#201206"/>
<stop offset="0.72" stop-color="#0E0803"/>
<stop offset="0.85" stop-color="#030100"/>
<stop offset="1"/>
</radialGradient>
<radialGradient id="paint4_radial_6238_5206" cx="0" cy="0" r="1" gradientUnits="userSpaceOnUse" gradientTransform="translate(27.9003 248.811) rotate(-98.1064) scale(25.7278 25.7257)">
<stop stop-color="#EC8331"/>
<stop offset="0.12" stop-color="#B56526"/>
<stop offset="0.23" stop-color="#854A1B"/>
<stop offset="0.35" stop-color="#5C3313"/>
<stop offset="0.47" stop-color="#3A200C"/>
<stop offset="0.6" stop-color="#201206"/>
<stop offset="0.72" stop-color="#0E0803"/>
<stop offset="0.85" stop-color="#030100"/>
<stop offset="1"/>
</radialGradient>
<radialGradient id="paint5_radial_6238_5206" cx="0" cy="0" r="1" gradientUnits="userSpaceOnUse" gradientTransform="translate(317.405 58.475) rotate(-98.1064) scale(25.7278 25.7257)">
<stop stop-color="#EC8331"/>
<stop offset="0.12" stop-color="#B56526"/>
<stop offset="0.23" stop-color="#854A1B"/>
<stop offset="0.35" stop-color="#5C3313"/>
<stop offset="0.47" stop-color="#3A200C"/>
<stop offset="0.6" stop-color="#201206"/>
<stop offset="0.72" stop-color="#0E0803"/>
<stop offset="0.85" stop-color="#030100"/>
<stop offset="1"/>
</radialGradient>
<radialGradient id="paint6_radial_6238_5206" cx="0" cy="0" r="1" gradientUnits="userSpaceOnUse" gradientTransform="translate(439.076 27.8558) rotate(-98.1064) scale(25.7278 25.7258)">
<stop stop-color="#EC8331"/>
<stop offset="0.12" stop-color="#B56526"/>
<stop offset="0.23" stop-color="#854A1B"/>
<stop offset="0.35" stop-color="#5C3313"/>
<stop offset="0.47" stop-color="#3A200C"/>
<stop offset="0.6" stop-color="#201206"/>
<stop offset="0.72" stop-color="#0E0803"/>
<stop offset="0.85" stop-color="#030100"/>
<stop offset="1"/>
</radialGradient>
<radialGradient id="paint7_radial_6238_5206" cx="0" cy="0" r="1" gradientUnits="userSpaceOnUse" gradientTransform="translate(623.229 229.638) rotate(-98.1064) scale(25.7278 25.7258)">
<stop stop-color="#EC8331"/>
<stop offset="0.12" stop-color="#B56526"/>
<stop offset="0.23" stop-color="#854A1B"/>
<stop offset="0.35" stop-color="#5C3313"/>
<stop offset="0.47" stop-color="#3A200C"/>
<stop offset="0.6" stop-color="#201206"/>
<stop offset="0.72" stop-color="#0E0803"/>
<stop offset="0.85" stop-color="#030100"/>
<stop offset="1"/>
</radialGradient>
<radialGradient id="paint8_radial_6238_5206" cx="0" cy="0" r="1" gradientUnits="userSpaceOnUse" gradientTransform="translate(608.459 334.109) rotate(-98.1064) scale(25.7278 25.7258)">
<stop stop-color="#EC8331"/>
<stop offset="0.12" stop-color="#B56526"/>
<stop offset="0.23" stop-color="#854A1B"/>
<stop offset="0.35" stop-color="#5C3313"/>
<stop offset="0.47" stop-color="#3A200C"/>
<stop offset="0.6" stop-color="#201206"/>
<stop offset="0.72" stop-color="#0E0803"/>
<stop offset="0.85" stop-color="#030100"/>
<stop offset="1"/>
</radialGradient>
<radialGradient id="paint9_radial_6238_5206" cx="0" cy="0" r="1" gradientUnits="userSpaceOnUse" gradientTransform="translate(378.066 570.771) rotate(-98.1064) scale(25.7278 25.7258)">
<stop stop-color="#EC8331"/>
<stop offset="0.12" stop-color="#B56526"/>
<stop offset="0.23" stop-color="#854A1B"/>
<stop offset="0.35" stop-color="#5C3313"/>
<stop offset="0.47" stop-color="#3A200C"/>
<stop offset="0.6" stop-color="#201206"/>
<stop offset="0.72" stop-color="#0E0803"/>
<stop offset="0.85" stop-color="#030100"/>
<stop offset="1"/>
</radialGradient>
<radialGradient id="paint10_radial_6238_5206" cx="0" cy="0" r="1" gradientUnits="userSpaceOnUse" gradientTransform="translate(87.5623 301.345) rotate(-98.1064) scale(25.7278 25.7257)">
<stop stop-color="#EC8331"/>
<stop offset="0.12" stop-color="#B56526"/>
<stop offset="0.23" stop-color="#854A1B"/>
<stop offset="0.35" stop-color="#5C3313"/>
<stop offset="0.47" stop-color="#3A200C"/>
<stop offset="0.6" stop-color="#201206"/>
<stop offset="0.72" stop-color="#0E0803"/>
<stop offset="0.85" stop-color="#030100"/>
<stop offset="1"/>
</radialGradient>
<radialGradient id="paint11_radial_6238_5206" cx="0" cy="0" r="1" gradientUnits="userSpaceOnUse" gradientTransform="translate(330.039 501.378) rotate(-98.1064) scale(25.7278 25.7257)">
<stop stop-color="#EC8331"/>
<stop offset="0.12" stop-color="#B56526"/>
<stop offset="0.23" stop-color="#854A1B"/>
<stop offset="0.35" stop-color="#5C3313"/>
<stop offset="0.47" stop-color="#3A200C"/>
<stop offset="0.6" stop-color="#201206"/>
<stop offset="0.72" stop-color="#0E0803"/>
<stop offset="0.85" stop-color="#030100"/>
<stop offset="1"/>
</radialGradient>
<radialGradient id="paint12_radial_6238_5206" cx="0" cy="0" r="1" gradientUnits="userSpaceOnUse" gradientTransform="translate(549.257 494.575) rotate(-98.1064) scale(25.7278 25.7258)">
<stop stop-color="#EC8331"/>
<stop offset="0.12" stop-color="#B56526"/>
<stop offset="0.23" stop-color="#854A1B"/>
<stop offset="0.35" stop-color="#5C3313"/>
<stop offset="0.47" stop-color="#3A200C"/>
<stop offset="0.6" stop-color="#201206"/>
<stop offset="0.72" stop-color="#0E0803"/>
<stop offset="0.85" stop-color="#030100"/>
<stop offset="1"/>
</radialGradient>
<radialGradient id="paint13_radial_6238_5206" cx="0" cy="0" r="1" gradientUnits="userSpaceOnUse" gradientTransform="translate(148.744 317.181) rotate(-98.1064) scale(22.553 22.5512)">
<stop stop-color="#EC8331"/>
<stop offset="0.12" stop-color="#B56526"/>
<stop offset="0.23" stop-color="#854A1B"/>
<stop offset="0.35" stop-color="#5C3313"/>
<stop offset="0.47" stop-color="#3A200C"/>
<stop offset="0.6" stop-color="#201206"/>
<stop offset="0.72" stop-color="#0E0803"/>
<stop offset="0.85" stop-color="#030100"/>
<stop offset="1"/>
</radialGradient>
<radialGradient id="paint14_radial_6238_5206" cx="0" cy="0" r="1" gradientUnits="userSpaceOnUse" gradientTransform="translate(659.521 397.74) rotate(-98.1064) scale(22.553 22.5513)">
<stop stop-color="#EC8331"/>
<stop offset="0.12" stop-color="#B56526"/>
<stop offset="0.23" stop-color="#854A1B"/>
<stop offset="0.35" stop-color="#5C3313"/>
<stop offset="0.47" stop-color="#3A200C"/>
<stop offset="0.6" stop-color="#201206"/>
<stop offset="0.72" stop-color="#0E0803"/>
<stop offset="0.85" stop-color="#030100"/>
<stop offset="1"/>
</radialGradient>
<radialGradient id="paint15_radial_6238_5206" cx="0" cy="0" r="1" gradientUnits="userSpaceOnUse" gradientTransform="translate(476.638 79.603) rotate(-98.1064) scale(22.553 22.5513)">
<stop stop-color="#EC8331"/>
<stop offset="0.12" stop-color="#B56526"/>
<stop offset="0.23" stop-color="#854A1B"/>
<stop offset="0.35" stop-color="#5C3313"/>
<stop offset="0.47" stop-color="#3A200C"/>
<stop offset="0.6" stop-color="#201206"/>
<stop offset="0.72" stop-color="#0E0803"/>
<stop offset="0.85" stop-color="#030100"/>
<stop offset="1"/>
</radialGradient>
<radialGradient id="paint16_radial_6238_5206" cx="0" cy="0" r="1" gradientUnits="userSpaceOnUse" gradientTransform="translate(231.37 544.254) rotate(-98.1064) scale(22.553 22.5513)">
<stop stop-color="#EC8331"/>
<stop offset="0.12" stop-color="#B56526"/>
<stop offset="0.23" stop-color="#854A1B"/>
<stop offset="0.35" stop-color="#5C3313"/>
<stop offset="0.47" stop-color="#3A200C"/>
<stop offset="0.6" stop-color="#201206"/>
<stop offset="0.72" stop-color="#0E0803"/>
<stop offset="0.85" stop-color="#030100"/>
<stop offset="1"/>
</radialGradient>
<radialGradient id="paint17_radial_6238_5206" cx="0" cy="0" r="1" gradientUnits="userSpaceOnUse" gradientTransform="translate(450.675 507.349) rotate(-98.1064) scale(22.553 22.5513)">
<stop stop-color="#EC8331"/>
<stop offset="0.12" stop-color="#B56526"/>
<stop offset="0.23" stop-color="#854A1B"/>
<stop offset="0.35" stop-color="#5C3313"/>
<stop offset="0.47" stop-color="#3A200C"/>
<stop offset="0.6" stop-color="#201206"/>
<stop offset="0.72" stop-color="#0E0803"/>
<stop offset="0.85" stop-color="#030100"/>
<stop offset="1"/>
</radialGradient>
<radialGradient id="paint18_radial_6238_5206" cx="0" cy="0" r="1" gradientUnits="userSpaceOnUse" gradientTransform="translate(511.695 160.547) rotate(-98.1064) scale(22.553 22.5513)">
<stop stop-color="#EC8331"/>
<stop offset="0.12" stop-color="#B56526"/>
<stop offset="0.23" stop-color="#854A1B"/>
<stop offset="0.35" stop-color="#5C3313"/>
<stop offset="0.47" stop-color="#3A200C"/>
<stop offset="0.6" stop-color="#201206"/>
<stop offset="0.72" stop-color="#0E0803"/>
<stop offset="0.85" stop-color="#030100"/>
<stop offset="1"/>
</radialGradient>
<radialGradient id="paint19_radial_6238_5206" cx="0" cy="0" r="1" gradientUnits="userSpaceOnUse" gradientTransform="translate(249.745 79.6071) rotate(-98.1064) scale(22.553 22.5513)">
<stop stop-color="#EC8331"/>
<stop offset="0.12" stop-color="#B56526"/>
<stop offset="0.23" stop-color="#854A1B"/>
<stop offset="0.35" stop-color="#5C3313"/>
<stop offset="0.47" stop-color="#3A200C"/>
<stop offset="0.6" stop-color="#201206"/>
<stop offset="0.72" stop-color="#0E0803"/>
<stop offset="0.85" stop-color="#030100"/>
<stop offset="1"/>
</radialGradient>
<radialGradient id="paint20_radial_6238_5206" cx="0" cy="0" r="1" gradientUnits="userSpaceOnUse" gradientTransform="translate(124.764 386.232) rotate(-98.1064) scale(8.92638 8.92567)">
<stop stop-color="#E8AB55"/>
<stop offset="0.1" stop-color="#DAA050"/>
<stop offset="0.28" stop-color="#B68642"/>
<stop offset="0.53" stop-color="#7C5B2D"/>
<stop offset="0.84" stop-color="#2D2110"/>
<stop offset="1"/>
</radialGradient>
<radialGradient id="paint21_radial_6238_5206" cx="0" cy="0" r="1" gradientUnits="userSpaceOnUse" gradientTransform="translate(548.946 286.698) rotate(-98.1064) scale(16.4303 16.429)">
<stop stop-color="#E8AB55"/>
<stop offset="0.1" stop-color="#DAA050"/>
<stop offset="0.28" stop-color="#B68642"/>
<stop offset="0.53" stop-color="#7C5B2D"/>
<stop offset="0.84" stop-color="#2D2110"/>
<stop offset="1"/>
</radialGradient>
<radialGradient id="paint22_radial_6238_5206" cx="0" cy="0" r="1" gradientUnits="userSpaceOnUse" gradientTransform="translate(362.139 118.341) rotate(-98.1064) scale(16.4303 16.429)">
<stop stop-color="#E8AB55"/>
<stop offset="0.1" stop-color="#DAA050"/>
<stop offset="0.28" stop-color="#B68642"/>
<stop offset="0.53" stop-color="#7C5B2D"/>
<stop offset="0.84" stop-color="#2D2110"/>
<stop offset="1"/>
</radialGradient>
<radialGradient id="paint23_radial_6238_5206" cx="0" cy="0" r="1" gradientUnits="userSpaceOnUse" gradientTransform="translate(122.359 259.844) rotate(-98.1064) scale(16.4303 16.429)">
<stop stop-color="#E8AB55"/>
<stop offset="0.1" stop-color="#DAA050"/>
<stop offset="0.28" stop-color="#B68642"/>
<stop offset="0.53" stop-color="#7C5B2D"/>
<stop offset="0.84" stop-color="#2D2110"/>
<stop offset="1"/>
</radialGradient>
<radialGradient id="paint24_radial_6238_5206" cx="0" cy="0" r="1" gradientUnits="userSpaceOnUse" gradientTransform="translate(71.3407 362.587) rotate(-98.1064) scale(16.4303 16.429)">
<stop stop-color="#E8AB55"/>
<stop offset="0.1" stop-color="#DAA050"/>
<stop offset="0.28" stop-color="#B68642"/>
<stop offset="0.53" stop-color="#7C5B2D"/>
<stop offset="0.84" stop-color="#2D2110"/>
<stop offset="1"/>
</radialGradient>
<radialGradient id="paint25_radial_6238_5206" cx="0" cy="0" r="1" gradientUnits="userSpaceOnUse" gradientTransform="translate(550.677 395.045) rotate(-98.1064) scale(16.4303 16.429)">
<stop stop-color="#E8AB55"/>
<stop offset="0.1" stop-color="#DAA050"/>
<stop offset="0.28" stop-color="#B68642"/>
<stop offset="0.53" stop-color="#7C5B2D"/>
<stop offset="0.84" stop-color="#2D2110"/>
<stop offset="1"/>
</radialGradient>
<radialGradient id="paint26_radial_6238_5206" cx="0" cy="0" r="1" gradientUnits="userSpaceOnUse" gradientTransform="translate(194.565 279.126) rotate(-98.1064) scale(16.4303 16.429)">
<stop stop-color="#E8AB55"/>
<stop offset="0.1" stop-color="#DAA050"/>
<stop offset="0.28" stop-color="#B68642"/>
<stop offset="0.53" stop-color="#7C5B2D"/>
<stop offset="0.84" stop-color="#2D2110"/>
<stop offset="1"/>
</radialGradient>
<radialGradient id="paint27_radial_6238_5206" cx="0" cy="0" r="1" gradientUnits="userSpaceOnUse" gradientTransform="translate(175.85 147.148) rotate(-98.1064) scale(16.4303 16.429)">
<stop stop-color="#E8AB55"/>
<stop offset="0.1" stop-color="#DAA050"/>
<stop offset="0.28" stop-color="#B68642"/>
<stop offset="0.53" stop-color="#7C5B2D"/>
<stop offset="0.84" stop-color="#2D2110"/>
<stop offset="1"/>
</radialGradient>
<radialGradient id="paint28_radial_6238_5206" cx="0" cy="0" r="1" gradientUnits="userSpaceOnUse" gradientTransform="translate(159.419 469.024) rotate(-98.1064) scale(16.4303 16.429)">
<stop stop-color="#E8AB55"/>
<stop offset="0.1" stop-color="#DAA050"/>
<stop offset="0.28" stop-color="#B68642"/>
<stop offset="0.53" stop-color="#7C5B2D"/>
<stop offset="0.84" stop-color="#2D2110"/>
<stop offset="1"/>
</radialGradient>
<radialGradient id="paint29_radial_6238_5206" cx="0" cy="0" r="1" gradientUnits="userSpaceOnUse" gradientTransform="translate(263.351 470.418) rotate(-98.1064) scale(16.4303 16.429)">
<stop stop-color="#E8AB55"/>
<stop offset="0.1" stop-color="#DAA050"/>
<stop offset="0.28" stop-color="#B68642"/>
<stop offset="0.53" stop-color="#7C5B2D"/>
<stop offset="0.84" stop-color="#2D2110"/>
<stop offset="1"/>
</radialGradient>
<clipPath id="clip0_6238_5206">
<rect width="593.78" height="678.516" fill="white" transform="matrix(-0.00902329 -0.999959 -0.999959 0.00902329 683.846 593.756)"/>
</clipPath>
</defs>
</svg>
