<svg width="1082" height="924" viewBox="0 0 1082 924" fill="none" xmlns="http://www.w3.org/2000/svg">
<path style="mix-blend-mode:screen" d="M915.812 628.529C932.175 630.804 943.527 645.566 941.185 661.472C938.843 677.41 923.682 688.471 907.351 686.196C890.988 683.92 879.636 669.158 881.978 653.252C884.32 637.315 899.481 626.254 915.812 628.529Z" fill="url(#paint0_radial_289_9727)" fill-opacity="0.7"/>
<g style="mix-blend-mode:screen">
<path d="M911.933 654.764C913.397 654.968 914.426 656.31 914.216 657.735C914.007 659.161 912.628 660.164 911.165 659.96C909.701 659.756 908.672 658.414 908.881 656.989C909.091 655.563 910.469 654.56 911.933 654.764Z" fill="#F6E6FC"/>
</g>
<path style="mix-blend-mode:screen" d="M853.762 261.372C875.981 264.463 891.417 284.529 888.235 306.17C885.054 327.81 864.446 342.851 842.227 339.76C820.008 336.67 804.573 316.604 807.754 294.963C810.935 273.322 831.543 258.282 853.762 261.372Z" fill="url(#paint1_radial_289_9727)" fill-opacity="0.7"/>
<g style="mix-blend-mode:screen">
<path d="M848.518 297.049C850.503 297.321 851.918 299.143 851.605 301.075C851.326 303.008 849.455 304.387 847.471 304.083C845.486 303.811 844.071 301.99 844.384 300.057C844.664 298.125 846.534 296.746 848.518 297.049Z" fill="#F6E6FC"/>
</g>
<path d="M1053.52 497.672C1067.7 499.642 1077.54 512.454 1075.51 526.269C1073.48 540.084 1060.33 549.672 1046.14 547.702C1031.96 545.732 1022.12 532.919 1024.15 519.104C1026.17 505.29 1039.33 495.702 1053.52 497.672Z" fill="url(#paint2_radial_289_9727)" fill-opacity="0.7" style="mix-blend-mode:screen"/>
<g style="mix-blend-mode:screen">
<path d="M1050.16 520.453C1051.43 520.623 1052.33 521.774 1052.16 523.009C1051.98 524.245 1050.8 525.123 1049.53 524.952C1048.26 524.782 1047.36 523.632 1047.57 522.396C1047.74 521.161 1048.92 520.283 1050.19 520.453L1050.16 520.453Z" fill="#F6E6FC"/>
</g>
<path style="mix-blend-mode:screen" d="M732.949 598.965C755.168 602.055 770.603 622.122 767.422 643.762C764.241 665.403 743.633 680.444 721.414 677.353C699.195 674.263 683.759 654.197 686.941 632.556C690.122 610.915 710.73 595.874 732.949 598.965Z" fill="url(#paint3_radial_289_9727)" fill-opacity="0.7"/>
<g style="mix-blend-mode:screen">
<path d="M727.705 634.642C729.69 634.914 731.105 636.736 730.792 638.668C730.512 640.601 728.642 641.98 726.658 641.676C724.673 641.404 723.258 639.583 723.57 637.65C723.85 635.717 725.721 634.338 727.705 634.642Z" fill="#F6E6FC"/>
</g>
<path style="mix-blend-mode:screen" d="M1043.12 344.065C1065.33 347.156 1080.77 367.222 1077.59 388.862C1074.41 410.503 1053.8 425.544 1031.58 422.453C1009.36 419.363 993.926 399.297 997.107 377.656C1000.29 356.015 1020.9 340.974 1043.12 344.065Z" fill="url(#paint4_radial_289_9727)" fill-opacity="0.7"/>
<g style="mix-blend-mode:screen">
<path d="M1037.87 379.71C1039.86 379.982 1041.27 381.804 1040.96 383.736C1040.68 385.669 1038.81 387.048 1036.82 386.744C1034.84 386.472 1033.43 384.651 1033.74 382.718C1034.02 380.786 1035.89 379.407 1037.87 379.71Z" fill="#F6E6FC"/>
</g>
<path style="mix-blend-mode:screen" d="M585.332 51.0292C607.551 54.1197 622.986 74.1859 619.805 95.8267C616.624 117.467 596.016 132.508 573.797 129.417C551.578 126.327 536.142 106.261 539.324 84.62C542.505 62.9793 563.113 47.9386 585.332 51.0292Z" fill="url(#paint5_radial_289_9727)" fill-opacity="0.7"/>
<g style="mix-blend-mode:screen">
<path d="M580.088 86.7064C582.073 86.9783 583.488 88.7998 583.175 90.7323C582.895 92.6651 581.025 94.044 579.041 93.7403C577.056 93.4683 575.641 91.6469 575.953 89.7143C576.233 87.7815 578.104 86.4027 580.088 86.7064Z" fill="#F6E6FC"/>
</g>
<path style="mix-blend-mode:screen" d="M392.91 3.88861C415.129 6.97915 430.565 27.0453 427.384 48.6861C424.203 70.3269 403.594 85.3675 381.375 82.2769C359.157 79.1864 343.721 59.1202 346.902 37.4795C350.083 15.8387 370.692 0.79808 392.91 3.88861Z" fill="url(#paint6_radial_289_9727)" fill-opacity="0.7"/>
<g style="mix-blend-mode:screen">
<path d="M387.667 39.5657C389.651 39.8377 391.066 41.6592 390.754 43.5917C390.474 45.5245 388.603 46.9034 386.619 46.5997C384.635 46.3277 383.22 44.5062 383.532 42.5737C383.812 40.6409 385.683 39.262 387.667 39.5657Z" fill="#F6E6FC"/>
</g>
<path style="mix-blend-mode:screen" d="M101.689 314.498C123.908 317.589 139.344 337.655 136.163 359.295C132.981 380.936 112.373 395.977 90.1543 392.886C67.9356 389.796 52.4998 369.73 55.6809 348.089C58.8621 326.448 79.4706 311.408 101.689 314.498Z" fill="url(#paint7_radial_289_9727)" fill-opacity="0.7"/>
<g style="mix-blend-mode:screen">
<path d="M96.4456 350.175C98.4301 350.447 99.8452 352.269 99.5327 354.201C99.2527 356.134 97.382 357.513 95.3979 357.209C93.4135 356.937 91.9984 355.116 92.3109 353.183C92.5909 351.25 94.4615 349.872 96.4456 350.175Z" fill="#F6E6FC"/>
</g>
<path style="mix-blend-mode:screen" d="M125.039 475.334C147.258 478.424 162.694 498.49 159.513 520.131C156.331 541.772 135.723 556.812 113.504 553.722C91.2856 550.631 75.8498 530.565 79.0309 508.924C82.212 487.284 102.821 472.243 125.039 475.334Z" fill="url(#paint8_radial_289_9727)" fill-opacity="0.7"/>
<g style="mix-blend-mode:screen">
<path d="M119.796 511.011C121.78 511.283 123.195 513.104 122.883 515.037C122.603 516.97 120.732 518.348 118.748 518.045C116.763 517.773 115.348 515.951 115.661 514.019C115.941 512.086 117.811 510.707 119.796 511.011Z" fill="#F6E6FC"/>
</g>
<path style="mix-blend-mode:screen" d="M489.384 839.691C511.603 842.782 527.038 862.848 523.857 884.489C520.676 906.129 500.068 921.17 477.849 918.08C455.63 914.989 440.194 894.923 443.376 873.282C446.557 851.641 467.165 836.601 489.384 839.691Z" fill="url(#paint9_radial_289_9727)" fill-opacity="0.7"/>
<g style="mix-blend-mode:screen">
<path d="M484.14 875.368C486.125 875.64 487.54 877.462 487.227 879.394C486.947 881.327 485.077 882.706 483.092 882.402C481.108 882.13 479.693 880.309 480.005 878.376C480.285 876.444 482.156 875.065 484.14 875.368Z" fill="#F6E6FC"/>
</g>
<path style="mix-blend-mode:screen" d="M948.773 424.932C970.992 428.023 986.427 448.089 983.246 469.73C980.065 491.37 959.457 506.411 937.238 503.32C915.019 500.23 899.584 480.164 902.765 458.523C905.946 436.882 926.554 421.842 948.773 424.932Z" fill="url(#paint10_radial_289_9727)" fill-opacity="0.7"/>
<g style="mix-blend-mode:screen">
<path d="M943.529 460.609C945.514 460.881 946.929 462.703 946.616 464.635C946.336 466.568 944.466 467.947 942.482 467.643C940.497 467.371 939.082 465.55 939.395 463.617C939.675 461.685 941.545 460.306 943.529 460.609Z" fill="#F6E6FC"/>
</g>
<path style="mix-blend-mode:screen" d="M565.321 732.827C587.539 735.918 602.975 755.984 599.794 777.624C596.613 799.265 576.004 814.306 553.786 811.215C531.567 808.125 516.131 788.059 519.312 766.418C522.493 744.777 543.102 729.737 565.321 732.827Z" fill="url(#paint11_radial_289_9727)" fill-opacity="0.7"/>
<g style="mix-blend-mode:screen">
<path d="M560.077 768.504C562.061 768.776 563.476 770.597 563.164 772.53C562.884 774.463 561.013 775.842 559.029 775.538C557.045 775.266 555.63 773.445 555.942 771.512C556.222 769.579 558.093 768.2 560.077 768.504Z" fill="#F6E6FC"/>
</g>
<path style="mix-blend-mode:screen" d="M218.657 722.387C240.876 725.477 256.311 745.543 253.13 767.184C249.949 788.825 229.341 803.865 207.122 800.775C184.903 797.684 169.467 777.618 172.649 755.977C175.83 734.337 196.438 719.296 218.657 722.387Z" fill="url(#paint12_radial_289_9727)" fill-opacity="0.7"/>
<g style="mix-blend-mode:screen">
<path d="M213.414 758.032C215.398 758.304 216.813 760.125 216.501 762.058C216.221 763.991 214.35 765.37 212.366 765.066C210.381 764.794 208.966 762.972 209.279 761.04C209.559 759.107 211.429 757.728 213.414 758.032Z" fill="#F6E6FC"/>
</g>
<path style="mix-blend-mode:screen" d="M851.32 454.131C870.806 456.847 884.312 474.421 881.549 493.4C878.753 512.38 860.704 525.54 841.218 522.855C821.732 520.139 808.225 502.565 810.989 483.586C813.785 464.606 831.834 451.414 851.32 454.131Z" fill="url(#paint13_radial_289_9727)" fill-opacity="0.7"/>
<g style="mix-blend-mode:screen">
<path d="M846.707 485.403C848.464 485.642 849.686 487.239 849.408 488.918C849.163 490.629 847.522 491.82 845.798 491.55C844.042 491.312 842.82 489.715 843.097 488.036C843.342 486.325 844.983 485.134 846.707 485.403Z" fill="#F6E6FC"/>
</g>
<path style="mix-blend-mode:screen" d="M43.5625 578.148C63.0485 580.865 76.5546 598.438 73.7911 617.418C71.0275 636.397 52.9459 649.589 33.4599 646.873C13.9739 644.156 0.467743 626.582 3.23129 607.603C6.02741 588.624 24.0761 575.463 43.5625 578.148Z" fill="url(#paint14_radial_289_9727)" fill-opacity="0.7"/>
<g style="mix-blend-mode:screen">
<path d="M38.9822 609.39C40.7389 609.628 41.9608 611.225 41.6834 612.904C41.4383 614.615 39.7975 615.806 38.0737 615.536C36.3169 615.298 35.095 613.701 35.3725 612.022C35.6176 610.311 37.2584 609.12 38.9822 609.39Z" fill="#F6E6FC"/>
</g>
<path style="mix-blend-mode:screen" d="M332.793 88.3869C352.279 91.1034 365.785 108.677 363.022 127.657C360.226 146.636 342.177 159.796 322.691 157.111C303.205 154.395 289.666 136.821 292.462 117.842C295.258 98.8625 313.307 85.6704 332.793 88.3869Z" fill="url(#paint15_radial_289_9727)" fill-opacity="0.7"/>
<g style="mix-blend-mode:screen">
<path d="M328.213 119.628C329.97 119.866 331.192 121.464 330.914 123.143C330.669 124.854 329.028 126.045 327.304 125.807C325.547 125.569 324.325 123.971 324.603 122.292C324.848 120.581 326.489 119.39 328.213 119.66L328.213 119.628Z" fill="#F6E6FC"/>
</g>
<path style="mix-blend-mode:screen" d="M720.616 803.697C740.102 806.414 753.641 823.988 750.845 842.967C748.049 861.946 730 875.138 710.514 872.422C691.028 869.705 677.521 852.132 680.285 833.152C683.081 814.173 701.13 801.013 720.616 803.697Z" fill="url(#paint16_radial_289_9727)" fill-opacity="0.7"/>
<g style="mix-blend-mode:screen">
<path d="M716.036 834.939C717.793 835.177 719.015 836.774 718.737 838.454C718.492 840.165 716.851 841.355 715.127 841.086C713.371 840.847 712.149 839.25 712.426 837.571C712.671 835.86 714.312 834.669 716.036 834.939Z" fill="#F6E6FC"/>
</g>
<path style="mix-blend-mode:screen" d="M373.828 746.885C393.314 749.602 406.82 767.175 404.057 786.155C401.261 805.134 383.212 818.326 363.726 815.61C344.24 812.893 330.734 795.319 333.497 776.34C336.293 757.361 354.342 744.169 373.828 746.885Z" fill="url(#paint17_radial_289_9727)" fill-opacity="0.7"/>
<g style="mix-blend-mode:screen">
<path d="M369.215 778.158C370.972 778.396 372.194 779.994 371.916 781.673C371.671 783.384 370.03 784.574 368.307 784.305C366.55 784.067 365.328 782.469 365.605 780.79C365.851 779.079 367.491 777.888 369.215 778.158Z" fill="#F6E6FC"/>
</g>
<path style="mix-blend-mode:screen" d="M277.36 212.983C296.846 215.7 310.385 233.274 307.589 252.253C304.793 271.232 286.744 284.392 267.258 281.708C247.772 278.991 234.265 261.417 237.029 242.438C239.825 223.459 257.874 210.267 277.36 212.983Z" fill="url(#paint18_radial_289_9727)" fill-opacity="0.7"/>
<g style="mix-blend-mode:screen">
<path d="M272.78 244.256C274.536 244.494 275.758 246.092 275.481 247.771C275.236 249.482 273.595 250.673 271.871 250.403C270.114 250.165 268.892 248.567 269.17 246.888C269.415 245.177 271.056 243.987 272.78 244.256Z" fill="#F6E6FC"/>
</g>
<path style="mix-blend-mode:screen" d="M691.583 88.3969C711.069 91.1134 724.575 108.687 721.811 127.667C719.015 146.646 700.966 159.806 681.48 157.121C661.994 154.405 648.488 136.831 651.251 117.852C654.015 98.8721 672.097 85.6803 691.583 88.3969Z" fill="url(#paint19_radial_289_9727)" fill-opacity="0.7"/>
<g style="mix-blend-mode:screen">
<path d="M687.002 119.67C688.759 119.908 689.981 121.506 689.703 123.185C689.458 124.896 687.817 126.086 686.061 125.848C684.304 125.61 683.082 124.012 683.359 122.333C683.605 120.622 685.245 119.432 686.969 119.701L687.002 119.67Z" fill="#F6E6FC"/>
</g>
<g opacity="0.65">
<g style="mix-blend-mode:screen">
<path d="M884.439 592.854C885.545 592.991 886.285 593.981 886.144 595.059C886.003 596.136 884.985 596.856 883.879 596.719C882.773 596.582 882.033 595.592 882.174 594.515C882.315 593.438 883.333 592.717 884.439 592.854Z" fill="#F6E6FC"/>
</g>
<path style="mix-blend-mode:color-dodge" opacity="0.5" d="M886.151 581.193C893.861 582.279 899.199 589.213 898.114 596.722C896.997 604.232 889.876 609.433 882.166 608.379C874.456 607.325 869.118 600.359 870.203 592.85C871.32 585.341 878.441 580.139 886.151 581.193Z" fill="url(#paint20_radial_289_9727)" fill-opacity="0.7"/>
</g>
<g opacity="0.65">
<g style="mix-blend-mode:screen">
<path d="M213.935 438.013C215.952 438.285 217.334 440.107 217.054 442.071C216.774 444.036 214.904 445.383 212.887 445.111C210.87 444.838 209.487 443.017 209.767 441.053C210.048 439.088 211.918 437.741 213.935 438.013Z" fill="#F6E6FC"/>
</g>
<g opacity="0.5">
<path d="M217.082 416.531C231.265 418.501 241.105 431.313 239.078 445.128C237.05 458.943 223.891 468.531 209.707 466.561C195.524 464.591 185.684 451.778 187.711 437.964C189.739 424.149 202.898 414.561 217.082 416.531Z" fill="url(#paint21_radial_289_9727)" fill-opacity="0.7" style="mix-blend-mode:color-dodge"/>
</g>
</g>
<g opacity="0.65">
<g style="mix-blend-mode:screen">
<path d="M509.309 178.794C511.326 179.066 512.708 180.887 512.428 182.852C512.148 184.816 510.278 186.163 508.261 185.891C506.244 185.619 504.861 183.798 505.141 181.833C505.422 179.869 507.292 178.522 509.309 178.794Z" fill="#F6E6FC"/>
</g>
<path style="mix-blend-mode:color-dodge" opacity="0.5" d="M512.488 157.343C526.672 159.313 536.512 172.126 534.484 185.941C532.456 199.755 519.297 209.344 505.114 207.374C490.93 205.404 481.09 192.591 483.118 178.776C485.145 164.962 498.305 155.373 512.488 157.343Z" fill="url(#paint22_radial_289_9727)" fill-opacity="0.7"/>
</g>
<g opacity="0.65">
<g style="mix-blend-mode:screen">
<path d="M888.507 396.68C890.524 396.952 891.907 398.773 891.627 400.738C891.346 402.702 889.476 404.05 887.459 403.777C885.442 403.505 884.059 401.684 884.34 399.719C884.62 397.755 886.49 396.408 888.507 396.68Z" fill="#F6E6FC"/>
</g>
<path style="mix-blend-mode:color-dodge" opacity="0.5" d="M891.654 375.197C905.838 377.167 915.678 389.98 913.65 403.795C911.622 417.609 898.463 427.198 884.28 425.228C870.096 423.258 860.256 410.445 862.284 396.63C864.312 382.816 877.471 373.227 891.654 375.197Z" fill="url(#paint23_radial_289_9727)" fill-opacity="0.7"/>
</g>
<g opacity="0.65">
<g style="mix-blend-mode:screen">
<path d="M969.159 554.845C971.176 555.117 972.559 556.938 972.278 558.903C971.998 560.868 970.128 562.215 968.111 561.942C966.094 561.67 964.711 559.849 964.992 557.885C965.272 555.92 967.142 554.573 969.159 554.845Z" fill="#F6E6FC"/>
</g>
<g opacity="0.5">
<path d="M972.306 533.363C986.49 535.333 996.33 548.145 994.302 561.96C992.274 575.775 979.115 585.363 964.932 583.393C950.748 581.423 940.908 568.61 942.936 554.795C944.964 540.981 958.123 531.393 972.306 533.363Z" fill="url(#paint24_radial_289_9727)" fill-opacity="0.7" style="mix-blend-mode:color-dodge"/>
</g>
</g>
<g opacity="0.65">
<g style="mix-blend-mode:screen">
<path d="M211.183 604.809C213.2 605.081 214.582 606.902 214.302 608.867C214.022 610.831 212.151 612.178 210.134 611.906C208.117 611.634 206.735 609.813 207.015 607.848C207.295 605.884 209.166 604.536 211.183 604.809Z" fill="#F6E6FC"/>
</g>
<path style="mix-blend-mode:color-dodge" opacity="0.5" d="M214.33 583.326C228.513 585.296 238.353 598.109 236.325 611.924C234.298 625.738 221.139 635.326 206.955 633.356C192.771 631.386 182.931 618.574 184.959 604.759C186.987 590.944 200.146 581.356 214.33 583.326Z" fill="url(#paint25_radial_289_9727)" fill-opacity="0.7"/>
</g>
<g opacity="0.65">
<g style="mix-blend-mode:screen">
<path d="M774.33 426.368C776.347 426.641 777.729 428.462 777.449 430.426C777.169 432.391 775.298 433.738 773.281 433.466C771.264 433.193 769.882 431.372 770.162 429.408C770.442 427.443 772.313 426.096 774.33 426.368Z" fill="#F6E6FC"/>
</g>
<path style="mix-blend-mode:color-dodge" opacity="0.5" d="M777.476 404.886C791.66 406.856 801.5 419.669 799.472 433.483C797.445 447.298 784.286 456.886 770.102 454.916C755.918 452.946 746.078 440.133 748.106 426.319C750.134 412.504 763.293 402.916 777.476 404.886Z" fill="url(#paint26_radial_289_9727)" fill-opacity="0.7"/>
</g>
<g opacity="0.65">
<g style="mix-blend-mode:screen">
<path d="M803.922 223.182C805.939 223.454 807.322 225.276 807.042 227.24C806.761 229.205 804.891 230.552 802.874 230.279C800.857 230.007 799.475 228.186 799.755 226.222C800.035 224.257 801.905 222.91 803.922 223.182Z" fill="#F6E6FC"/>
</g>
<g opacity="0.5">
<path d="M807.069 201.7C821.253 203.67 831.093 216.482 829.065 230.297C827.038 244.112 813.879 253.7 799.695 251.73C785.511 249.76 775.671 236.947 777.699 223.132C779.727 209.318 792.886 199.73 807.069 201.7Z" fill="url(#paint27_radial_289_9727)" fill-opacity="0.7" style="mix-blend-mode:color-dodge"/>
</g>
</g>
<g opacity="0.65">
<g style="mix-blend-mode:screen">
<path d="M829.908 718.696C831.925 718.968 833.307 720.789 833.027 722.754C832.747 724.718 830.876 726.066 828.859 725.793C826.842 725.521 825.46 723.7 825.74 721.735C826.02 719.771 827.891 718.424 829.908 718.696Z" fill="#F6E6FC"/>
</g>
<path style="mix-blend-mode:color-dodge" opacity="0.5" d="M833.055 697.213C847.238 699.183 857.078 711.996 855.051 725.811C853.023 739.625 839.864 749.214 825.68 747.244C811.497 745.274 801.657 732.461 803.684 718.646C805.712 704.832 818.871 695.243 833.055 697.213Z" fill="url(#paint28_radial_289_9727)" fill-opacity="0.7"/>
</g>
<g opacity="0.65">
<g style="mix-blend-mode:screen">
<path d="M665.522 720.838C667.539 721.111 668.921 722.932 668.641 724.896C668.361 726.861 666.49 728.208 664.473 727.936C662.456 727.663 661.074 725.842 661.354 723.878C661.634 721.913 663.505 720.566 665.522 720.838Z" fill="#F6E6FC"/>
</g>
<path style="mix-blend-mode:color-dodge" opacity="0.5" d="M668.701 699.356C682.885 701.326 692.725 714.139 690.697 727.953C688.669 741.768 675.51 751.356 661.327 749.386C647.143 747.416 637.303 734.603 639.331 720.789C641.358 706.974 654.518 697.386 668.701 699.356Z" fill="url(#paint29_radial_289_9727)" fill-opacity="0.7"/>
</g>
<defs>
<radialGradient id="paint0_radial_289_9727" cx="0" cy="0" r="1" gradientUnits="userSpaceOnUse" gradientTransform="translate(911.591 657.32) rotate(-81.6368) scale(29.1418 29.886)">
<stop stop-color="#EC8331"/>
<stop offset="1" stop-color="#864A1C" stop-opacity="0"/>
</radialGradient>
<radialGradient id="paint1_radial_289_9727" cx="0" cy="0" r="1" gradientUnits="userSpaceOnUse" gradientTransform="translate(848.018 300.547) rotate(-81.6368) scale(39.6176 40.6293)">
<stop stop-color="#EC8331"/>
<stop offset="1" stop-color="#864A1C" stop-opacity="0"/>
</radialGradient>
<radialGradient id="paint2_radial_289_9727" cx="0" cy="0" r="1" gradientUnits="userSpaceOnUse" gradientTransform="translate(1049.87 522.651) rotate(-81.6368) scale(25.2689 25.9142)">
<stop stop-color="#EC8331"/>
<stop offset="1" stop-color="#864A1C" stop-opacity="0"/>
</radialGradient>
<radialGradient id="paint3_radial_289_9727" cx="0" cy="0" r="1" gradientUnits="userSpaceOnUse" gradientTransform="translate(727.208 638.129) rotate(-81.6368) scale(39.6176 40.6293)">
<stop stop-color="#EC8331"/>
<stop offset="1" stop-color="#864A1C" stop-opacity="0"/>
</radialGradient>
<radialGradient id="paint4_radial_289_9727" cx="0" cy="0" r="1" gradientUnits="userSpaceOnUse" gradientTransform="translate(1037.37 383.197) rotate(-81.6368) scale(39.6175 40.6293)">
<stop stop-color="#EC8331"/>
<stop offset="1" stop-color="#864A1C" stop-opacity="0"/>
</radialGradient>
<radialGradient id="paint5_radial_289_9727" cx="0" cy="0" r="1" gradientUnits="userSpaceOnUse" gradientTransform="translate(579.556 90.1698) rotate(-81.6368) scale(39.6176 40.6293)">
<stop stop-color="#EC8331"/>
<stop offset="1" stop-color="#864A1C" stop-opacity="0"/>
</radialGradient>
<radialGradient id="paint6_radial_289_9727" cx="0" cy="0" r="1" gradientUnits="userSpaceOnUse" gradientTransform="translate(387.144 43.0322) rotate(-81.6368) scale(39.6176 40.6293)">
<stop stop-color="#EC8331"/>
<stop offset="1" stop-color="#864A1C" stop-opacity="0"/>
</radialGradient>
<radialGradient id="paint7_radial_289_9727" cx="0" cy="0" r="1" gradientUnits="userSpaceOnUse" gradientTransform="translate(95.9253 353.679) rotate(-81.6368) scale(39.6176 40.6293)">
<stop stop-color="#EC8331"/>
<stop offset="1" stop-color="#864A1C" stop-opacity="0"/>
</radialGradient>
<radialGradient id="paint8_radial_289_9727" cx="0" cy="0" r="1" gradientUnits="userSpaceOnUse" gradientTransform="translate(119.282 514.516) rotate(-81.6368) scale(39.6176 40.6293)">
<stop stop-color="#EC8331"/>
<stop offset="1" stop-color="#864A1C" stop-opacity="0"/>
</radialGradient>
<radialGradient id="paint9_radial_289_9727" cx="0" cy="0" r="1" gradientUnits="userSpaceOnUse" gradientTransform="translate(483.624 878.86) rotate(-81.6368) scale(39.6176 40.6293)">
<stop stop-color="#EC8331"/>
<stop offset="1" stop-color="#864A1C" stop-opacity="0"/>
</radialGradient>
<radialGradient id="paint10_radial_289_9727" cx="0" cy="0" r="1" gradientUnits="userSpaceOnUse" gradientTransform="translate(943.025 464.075) rotate(-81.6368) scale(39.6176 40.6293)">
<stop stop-color="#EC8331"/>
<stop offset="1" stop-color="#864A1C" stop-opacity="0"/>
</radialGradient>
<radialGradient id="paint11_radial_289_9727" cx="0" cy="0" r="1" gradientUnits="userSpaceOnUse" gradientTransform="translate(559.576 772.029) rotate(-81.6368) scale(39.6176 40.6293)">
<stop stop-color="#EC8331"/>
<stop offset="1" stop-color="#864A1C" stop-opacity="0"/>
</radialGradient>
<radialGradient id="paint12_radial_289_9727" cx="0" cy="0" r="1" gradientUnits="userSpaceOnUse" gradientTransform="translate(212.904 761.555) rotate(-81.6368) scale(39.6176 40.6293)">
<stop stop-color="#EC8331"/>
<stop offset="1" stop-color="#864A1C" stop-opacity="0"/>
</radialGradient>
<radialGradient id="paint13_radial_289_9727" cx="0" cy="0" r="1" gradientUnits="userSpaceOnUse" gradientTransform="translate(846.275 488.453) rotate(-81.6368) scale(34.7289 35.6157)">
<stop stop-color="#EC8331"/>
<stop offset="1" stop-color="#864A1C" stop-opacity="0"/>
</radialGradient>
<radialGradient id="paint14_radial_289_9727" cx="0" cy="0" r="1" gradientUnits="userSpaceOnUse" gradientTransform="translate(38.5354 612.475) rotate(-81.6368) scale(34.7288 35.6158)">
<stop stop-color="#EC8331"/>
<stop offset="1" stop-color="#864A1C" stop-opacity="0"/>
</radialGradient>
<radialGradient id="paint15_radial_289_9727" cx="0" cy="0" r="1" gradientUnits="userSpaceOnUse" gradientTransform="translate(327.744 122.697) rotate(-81.6368) scale(34.7289 35.6158)">
<stop stop-color="#EC8331"/>
<stop offset="1" stop-color="#864A1C" stop-opacity="0"/>
</radialGradient>
<radialGradient id="paint16_radial_289_9727" cx="0" cy="0" r="1" gradientUnits="userSpaceOnUse" gradientTransform="translate(715.608 838.037) rotate(-81.6368) scale(34.7289 35.6158)">
<stop stop-color="#EC8331"/>
<stop offset="1" stop-color="#864A1C" stop-opacity="0"/>
</radialGradient>
<radialGradient id="paint17_radial_289_9727" cx="0" cy="0" r="1" gradientUnits="userSpaceOnUse" gradientTransform="translate(368.802 781.22) rotate(-81.6368) scale(34.7288 35.6158)">
<stop stop-color="#EC8331"/>
<stop offset="1" stop-color="#864A1C" stop-opacity="0"/>
</radialGradient>
<radialGradient id="paint18_radial_289_9727" cx="0" cy="0" r="1" gradientUnits="userSpaceOnUse" gradientTransform="translate(272.304 247.312) rotate(-81.6368) scale(34.7289 35.6158)">
<stop stop-color="#EC8331"/>
<stop offset="1" stop-color="#864A1C" stop-opacity="0"/>
</radialGradient>
<radialGradient id="paint19_radial_289_9727" cx="0" cy="0" r="1" gradientUnits="userSpaceOnUse" gradientTransform="translate(686.551 122.704) rotate(-81.6368) scale(34.7289 35.6158)">
<stop stop-color="#EC8331"/>
<stop offset="1" stop-color="#864A1C" stop-opacity="0"/>
</radialGradient>
<radialGradient id="paint20_radial_289_9727" cx="0" cy="0" r="1" gradientUnits="userSpaceOnUse" gradientTransform="translate(884.195 594.759) rotate(-81.6368) scale(13.7455 14.0965)">
<stop stop-color="#E8AB55"/>
<stop offset="1" stop-color="#826030" stop-opacity="0"/>
</radialGradient>
<radialGradient id="paint21_radial_289_9727" cx="0" cy="0" r="1" gradientUnits="userSpaceOnUse" gradientTransform="translate(213.399 441.525) rotate(-81.6368) scale(25.3006 25.9468)">
<stop stop-color="#E8AB55"/>
<stop offset="1" stop-opacity="0"/>
</radialGradient>
<radialGradient id="paint22_radial_289_9727" cx="0" cy="0" r="1" gradientUnits="userSpaceOnUse" gradientTransform="translate(508.811 182.335) rotate(-81.6368) scale(25.3006 25.9468)">
<stop stop-color="#E8AB55"/>
<stop offset="1" stop-color="#826030" stop-opacity="0"/>
</radialGradient>
<radialGradient id="paint23_radial_289_9727" cx="0" cy="0" r="1" gradientUnits="userSpaceOnUse" gradientTransform="translate(888.001 400.182) rotate(-81.6368) scale(25.3006 25.9467)">
<stop stop-color="#E8AB55"/>
<stop offset="1" stop-color="#826030" stop-opacity="0"/>
</radialGradient>
<radialGradient id="paint24_radial_289_9727" cx="0" cy="0" r="1" gradientUnits="userSpaceOnUse" gradientTransform="translate(968.678 558.356) rotate(-81.6368) scale(25.3006 25.9467)">
<stop stop-color="#E8AB55"/>
<stop offset="1" stop-color="#826030" stop-opacity="0"/>
</radialGradient>
<radialGradient id="paint25_radial_289_9727" cx="0" cy="0" r="1" gradientUnits="userSpaceOnUse" gradientTransform="translate(210.66 608.327) rotate(-81.6368) scale(25.3006 25.9468)">
<stop stop-color="#E8AB55"/>
<stop offset="1" stop-opacity="0"/>
</radialGradient>
<radialGradient id="paint26_radial_289_9727" cx="0" cy="0" r="1" gradientUnits="userSpaceOnUse" gradientTransform="translate(773.812 429.868) rotate(-81.6368) scale(25.3006 25.9468)">
<stop stop-color="#E8AB55"/>
<stop offset="1" stop-color="#826030" stop-opacity="0"/>
</radialGradient>
<radialGradient id="paint27_radial_289_9727" cx="0" cy="0" r="1" gradientUnits="userSpaceOnUse" gradientTransform="translate(803.408 226.685) rotate(-81.6368) scale(25.3007 25.9468)">
<stop stop-color="#E8AB55"/>
<stop offset="1" stop-color="#826030" stop-opacity="0"/>
</radialGradient>
<radialGradient id="paint28_radial_289_9727" cx="0" cy="0" r="1" gradientUnits="userSpaceOnUse" gradientTransform="translate(829.392 722.219) rotate(-81.6368) scale(25.3006 25.9468)">
<stop stop-color="#E8AB55"/>
<stop offset="1" stop-opacity="0"/>
</radialGradient>
<radialGradient id="paint29_radial_289_9727" cx="0" cy="0" r="1" gradientUnits="userSpaceOnUse" gradientTransform="translate(665.035 724.366) rotate(-81.6368) scale(25.3006 25.9468)">
<stop stop-color="#E8AB55"/>
<stop offset="1" stop-color="#826030" stop-opacity="0"/>
</radialGradient>
</defs>
</svg>
