<svg width="758" height="1078" viewBox="0 0 758 1078" fill="none" xmlns="http://www.w3.org/2000/svg">
<path style="mix-blend-mode:color-dodge" d="M269.541 85.1191C246.828 77.5019 234.613 52.7606 242.299 29.8804C249.971 7.0001 274.617 -5.37769 297.345 2.25387C320.072 9.88543 332.258 34.6122 324.586 57.4925C316.914 80.3727 292.268 92.7506 269.541 85.1191Z" fill="url(#paint0_radial_6242_15422)"/>
<path style="mix-blend-mode:color-dodge" d="M316.541 137.119C293.828 129.502 281.613 104.761 289.299 81.8804C296.971 59.0001 321.617 46.6223 344.345 54.2539C367.072 61.8854 379.258 86.6122 371.586 109.492C363.914 132.373 339.268 144.751 316.541 137.119Z" fill="url(#paint1_radial_6242_15422)"/>
<path style="mix-blend-mode:color-dodge" d="M374.541 185.119C351.828 177.502 339.613 152.761 347.299 129.88C354.971 107 379.617 94.6223 402.345 102.254C425.072 109.885 437.258 134.612 429.586 157.492C421.914 180.373 397.268 192.751 374.541 185.119Z" fill="url(#paint2_radial_6242_15422)"/>
<path style="mix-blend-mode:color-dodge" d="M440.541 226.119C417.828 218.502 405.613 193.761 413.299 170.88C420.971 148 445.617 135.622 468.345 143.254C491.072 150.885 503.258 175.612 495.586 198.492C487.914 221.373 463.268 233.751 440.541 226.119Z" fill="url(#paint3_radial_6242_15422)"/>
<path style="mix-blend-mode:color-dodge" d="M508.541 258.119C485.828 250.502 473.613 225.761 481.299 202.88C488.971 180 513.617 167.622 536.345 175.254C559.072 182.885 571.258 207.612 563.586 230.492C555.914 253.373 531.268 265.751 508.541 258.119Z" fill="url(#paint4_radial_6242_15422)"/>
<path style="mix-blend-mode:color-dodge" d="M585.541 291.119C562.828 283.502 550.613 258.761 558.299 235.88C565.971 213 590.617 200.622 613.345 208.254C636.072 215.885 648.258 240.612 640.586 263.492C632.914 286.373 608.268 298.751 585.541 291.119Z" fill="url(#paint5_radial_6242_15422)"/>
<path style="mix-blend-mode:color-dodge" d="M656.541 335.119C633.828 327.502 621.613 302.761 629.299 279.88C636.971 257 661.617 244.622 684.345 252.254C707.072 259.885 719.258 284.612 711.586 307.492C703.914 330.373 679.268 342.751 656.541 335.119Z" fill="url(#paint6_radial_6242_15422)"/>
<path style="mix-blend-mode:color-dodge" d="M700.541 401.119C677.828 393.502 665.613 368.761 673.299 345.88C680.971 323 705.617 310.622 728.345 318.254C751.072 325.885 763.258 350.612 755.586 373.492C747.914 396.373 723.268 408.751 700.541 401.119Z" fill="url(#paint7_radial_6242_15422)"/>
<path style="mix-blend-mode:color-dodge" d="M699.541 484.119C676.828 476.502 664.613 451.761 672.299 428.88C679.971 406 704.617 393.622 727.345 401.254C750.072 408.885 762.258 433.612 754.586 456.492C746.914 479.373 722.268 491.751 699.541 484.119Z" fill="url(#paint8_radial_6242_15422)"/>
<path style="mix-blend-mode:color-dodge" d="M642.541 532.119C619.828 524.502 607.613 499.761 615.299 476.88C622.971 454 647.617 441.622 670.345 449.254C693.072 456.885 705.258 481.612 697.586 504.492C689.914 527.373 665.268 539.751 642.541 532.119Z" fill="url(#paint9_radial_6242_15422)"/>
<path style="mix-blend-mode:color-dodge" d="M569.541 569.119C546.828 561.502 534.613 536.761 542.299 513.88C549.971 491 574.617 478.622 597.345 486.254C620.072 493.885 632.258 518.612 624.586 541.492C616.914 564.373 592.268 576.751 569.541 569.119Z" fill="url(#paint10_radial_6242_15422)"/>
<path style="mix-blend-mode:color-dodge" d="M498.541 604.119C475.828 596.502 463.613 571.761 471.299 548.88C478.971 526 503.617 513.622 526.345 521.254C549.072 528.885 561.258 553.612 553.586 576.492C545.914 599.373 521.268 611.751 498.541 604.119Z" fill="url(#paint11_radial_6242_15422)"/>
<path style="mix-blend-mode:color-dodge" d="M421.541 638.119C398.828 630.502 386.613 605.761 394.299 582.88C401.971 560 426.617 547.622 449.345 555.254C472.072 562.885 484.258 587.612 476.586 610.492C468.914 633.373 444.268 645.751 421.541 638.119Z" fill="url(#paint12_radial_6242_15422)"/>
<path style="mix-blend-mode:color-dodge" d="M304.541 735.119C281.828 727.502 269.613 702.761 277.299 679.88C284.971 657 309.617 644.622 332.345 652.254C355.072 659.885 367.258 684.612 359.586 707.492C351.914 730.373 327.268 742.751 304.541 735.119Z" fill="url(#paint13_radial_6242_15422)"/>
<path style="mix-blend-mode:color-dodge" d="M345.541 657.119C322.828 649.502 310.613 624.761 318.299 601.88C325.971 579 350.617 566.622 373.345 574.254C396.072 581.885 408.258 606.612 400.586 629.492C392.914 652.373 368.268 664.751 345.541 657.119Z" fill="url(#paint14_radial_6242_15422)"/>
<path style="mix-blend-mode:color-dodge" d="M364.541 793.119C341.828 785.502 329.613 760.761 337.299 737.88C344.971 715 369.617 702.622 392.345 710.254C415.072 717.885 427.258 742.612 419.586 765.492C411.914 788.373 387.268 800.751 364.541 793.119Z" fill="url(#paint15_radial_6242_15422)"/>
<path style="mix-blend-mode:color-dodge" d="M495.541 952.119C472.828 944.502 460.613 919.761 468.299 896.88C475.971 874 500.617 861.622 523.345 869.254C546.072 876.885 558.258 901.612 550.586 924.492C542.914 947.373 518.268 959.751 495.541 952.119Z" fill="url(#paint16_radial_6242_15422)"/>
<path style="mix-blend-mode:color-dodge" d="M448.541 1046.12C425.828 1038.5 413.613 1013.76 421.299 990.88C428.971 968 453.617 955.622 476.345 963.254C499.072 970.885 511.258 995.612 503.586 1018.49C495.914 1041.37 471.268 1053.75 448.541 1046.12Z" fill="url(#paint17_radial_6242_15422)"/>
<path style="mix-blend-mode:color-dodge" d="M361.541 1074.12C338.828 1066.5 326.613 1041.76 334.299 1018.88C341.971 996 366.617 983.622 389.345 991.254C412.072 998.885 424.258 1023.61 416.586 1046.49C408.914 1069.37 384.268 1081.75 361.541 1074.12Z" fill="url(#paint18_radial_6242_15422)"/>
<path style="mix-blend-mode:color-dodge" d="M243.541 1075.12C220.828 1067.5 208.613 1042.76 216.299 1019.88C223.971 997 248.617 984.622 271.345 992.254C294.072 999.885 306.258 1024.61 298.586 1047.49C290.914 1070.37 266.268 1082.75 243.541 1075.12Z" fill="url(#paint19_radial_6242_15422)"/>
<path style="mix-blend-mode:color-dodge" d="M137.541 1065.12C114.828 1057.5 102.613 1032.76 110.299 1009.88C117.971 987 142.617 974.622 165.345 982.254C188.072 989.885 200.258 1014.61 192.586 1037.49C184.914 1060.37 160.268 1072.75 137.541 1065.12Z" fill="url(#paint20_radial_6242_15422)"/>
<path style="mix-blend-mode:color-dodge" d="M443.541 870.119C420.828 862.502 408.613 837.761 416.299 814.88C423.971 792 448.617 779.622 471.345 787.254C494.072 794.885 506.258 819.612 498.586 842.492C490.914 865.373 466.268 877.751 443.541 870.119Z" fill="url(#paint21_radial_6242_15422)"/>
<path style="mix-blend-mode:color-dodge" d="M29.5408 1020.12C6.82761 1012.5 -5.38704 987.761 2.29938 964.88C9.97138 942 34.617 929.622 57.3446 937.254C80.0721 944.885 92.2579 969.612 84.5859 992.492C76.9139 1015.37 52.2683 1027.75 29.5408 1020.12Z" fill="url(#paint22_radial_6242_15422)"/>
<defs>
<radialGradient id="paint0_radial_6242_15422" cx="0" cy="0" r="1" gradientUnits="userSpaceOnUse" gradientTransform="translate(285.805 45.2464) rotate(108.554) scale(67.8693 67.8493)">
<stop offset="0.03" stop-color="white"/>
<stop offset="0.04" stop-color="#F5F5F5"/>
<stop offset="0.08" stop-color="#C7C7C7"/>
<stop offset="0.12" stop-color="#9C9C9C"/>
<stop offset="0.17" stop-color="#777777"/>
<stop offset="0.22" stop-color="#565656"/>
<stop offset="0.28" stop-color="#3B3B3B"/>
<stop offset="0.34" stop-color="#252525"/>
<stop offset="0.42" stop-color="#141414"/>
<stop offset="0.51" stop-color="#080808"/>
<stop offset="0.64" stop-color="#010101"/>
<stop offset="1"/>
</radialGradient>
<radialGradient id="paint1_radial_6242_15422" cx="0" cy="0" r="1" gradientUnits="userSpaceOnUse" gradientTransform="translate(332.805 97.2464) rotate(108.554) scale(67.8693 67.8493)">
<stop offset="0.03" stop-color="white"/>
<stop offset="0.04" stop-color="#F5F5F5"/>
<stop offset="0.08" stop-color="#C7C7C7"/>
<stop offset="0.12" stop-color="#9C9C9C"/>
<stop offset="0.17" stop-color="#777777"/>
<stop offset="0.22" stop-color="#565656"/>
<stop offset="0.28" stop-color="#3B3B3B"/>
<stop offset="0.34" stop-color="#252525"/>
<stop offset="0.42" stop-color="#141414"/>
<stop offset="0.51" stop-color="#080808"/>
<stop offset="0.64" stop-color="#010101"/>
<stop offset="1"/>
</radialGradient>
<radialGradient id="paint2_radial_6242_15422" cx="0" cy="0" r="1" gradientUnits="userSpaceOnUse" gradientTransform="translate(390.805 145.246) rotate(108.554) scale(67.8693 67.8493)">
<stop offset="0.03" stop-color="white"/>
<stop offset="0.04" stop-color="#F5F5F5"/>
<stop offset="0.08" stop-color="#C7C7C7"/>
<stop offset="0.12" stop-color="#9C9C9C"/>
<stop offset="0.17" stop-color="#777777"/>
<stop offset="0.22" stop-color="#565656"/>
<stop offset="0.28" stop-color="#3B3B3B"/>
<stop offset="0.34" stop-color="#252525"/>
<stop offset="0.42" stop-color="#141414"/>
<stop offset="0.51" stop-color="#080808"/>
<stop offset="0.64" stop-color="#010101"/>
<stop offset="1"/>
</radialGradient>
<radialGradient id="paint3_radial_6242_15422" cx="0" cy="0" r="1" gradientUnits="userSpaceOnUse" gradientTransform="translate(456.805 186.246) rotate(108.554) scale(67.8693 67.8493)">
<stop offset="0.03" stop-color="white"/>
<stop offset="0.04" stop-color="#F5F5F5"/>
<stop offset="0.08" stop-color="#C7C7C7"/>
<stop offset="0.12" stop-color="#9C9C9C"/>
<stop offset="0.17" stop-color="#777777"/>
<stop offset="0.22" stop-color="#565656"/>
<stop offset="0.28" stop-color="#3B3B3B"/>
<stop offset="0.34" stop-color="#252525"/>
<stop offset="0.42" stop-color="#141414"/>
<stop offset="0.51" stop-color="#080808"/>
<stop offset="0.64" stop-color="#010101"/>
<stop offset="1"/>
</radialGradient>
<radialGradient id="paint4_radial_6242_15422" cx="0" cy="0" r="1" gradientUnits="userSpaceOnUse" gradientTransform="translate(524.805 218.246) rotate(108.554) scale(67.8693 67.8493)">
<stop offset="0.03" stop-color="white"/>
<stop offset="0.04" stop-color="#F5F5F5"/>
<stop offset="0.08" stop-color="#C7C7C7"/>
<stop offset="0.12" stop-color="#9C9C9C"/>
<stop offset="0.17" stop-color="#777777"/>
<stop offset="0.22" stop-color="#565656"/>
<stop offset="0.28" stop-color="#3B3B3B"/>
<stop offset="0.34" stop-color="#252525"/>
<stop offset="0.42" stop-color="#141414"/>
<stop offset="0.51" stop-color="#080808"/>
<stop offset="0.64" stop-color="#010101"/>
<stop offset="1"/>
</radialGradient>
<radialGradient id="paint5_radial_6242_15422" cx="0" cy="0" r="1" gradientUnits="userSpaceOnUse" gradientTransform="translate(601.805 251.246) rotate(108.554) scale(67.8693 67.8493)">
<stop offset="0.03" stop-color="white"/>
<stop offset="0.04" stop-color="#F5F5F5"/>
<stop offset="0.08" stop-color="#C7C7C7"/>
<stop offset="0.12" stop-color="#9C9C9C"/>
<stop offset="0.17" stop-color="#777777"/>
<stop offset="0.22" stop-color="#565656"/>
<stop offset="0.28" stop-color="#3B3B3B"/>
<stop offset="0.34" stop-color="#252525"/>
<stop offset="0.42" stop-color="#141414"/>
<stop offset="0.51" stop-color="#080808"/>
<stop offset="0.64" stop-color="#010101"/>
<stop offset="1"/>
</radialGradient>
<radialGradient id="paint6_radial_6242_15422" cx="0" cy="0" r="1" gradientUnits="userSpaceOnUse" gradientTransform="translate(672.805 295.246) rotate(108.554) scale(67.8693 67.8493)">
<stop offset="0.03" stop-color="white"/>
<stop offset="0.04" stop-color="#F5F5F5"/>
<stop offset="0.08" stop-color="#C7C7C7"/>
<stop offset="0.12" stop-color="#9C9C9C"/>
<stop offset="0.17" stop-color="#777777"/>
<stop offset="0.22" stop-color="#565656"/>
<stop offset="0.28" stop-color="#3B3B3B"/>
<stop offset="0.34" stop-color="#252525"/>
<stop offset="0.42" stop-color="#141414"/>
<stop offset="0.51" stop-color="#080808"/>
<stop offset="0.64" stop-color="#010101"/>
<stop offset="1"/>
</radialGradient>
<radialGradient id="paint7_radial_6242_15422" cx="0" cy="0" r="1" gradientUnits="userSpaceOnUse" gradientTransform="translate(716.805 361.246) rotate(108.554) scale(67.8693 67.8493)">
<stop offset="0.03" stop-color="white"/>
<stop offset="0.04" stop-color="#F5F5F5"/>
<stop offset="0.08" stop-color="#C7C7C7"/>
<stop offset="0.12" stop-color="#9C9C9C"/>
<stop offset="0.17" stop-color="#777777"/>
<stop offset="0.22" stop-color="#565656"/>
<stop offset="0.28" stop-color="#3B3B3B"/>
<stop offset="0.34" stop-color="#252525"/>
<stop offset="0.42" stop-color="#141414"/>
<stop offset="0.51" stop-color="#080808"/>
<stop offset="0.64" stop-color="#010101"/>
<stop offset="1"/>
</radialGradient>
<radialGradient id="paint8_radial_6242_15422" cx="0" cy="0" r="1" gradientUnits="userSpaceOnUse" gradientTransform="translate(715.805 444.246) rotate(108.554) scale(67.8693 67.8493)">
<stop offset="0.03" stop-color="white"/>
<stop offset="0.04" stop-color="#F5F5F5"/>
<stop offset="0.08" stop-color="#C7C7C7"/>
<stop offset="0.12" stop-color="#9C9C9C"/>
<stop offset="0.17" stop-color="#777777"/>
<stop offset="0.22" stop-color="#565656"/>
<stop offset="0.28" stop-color="#3B3B3B"/>
<stop offset="0.34" stop-color="#252525"/>
<stop offset="0.42" stop-color="#141414"/>
<stop offset="0.51" stop-color="#080808"/>
<stop offset="0.64" stop-color="#010101"/>
<stop offset="1"/>
</radialGradient>
<radialGradient id="paint9_radial_6242_15422" cx="0" cy="0" r="1" gradientUnits="userSpaceOnUse" gradientTransform="translate(658.805 492.246) rotate(108.554) scale(67.8693 67.8493)">
<stop offset="0.03" stop-color="white"/>
<stop offset="0.04" stop-color="#F5F5F5"/>
<stop offset="0.08" stop-color="#C7C7C7"/>
<stop offset="0.12" stop-color="#9C9C9C"/>
<stop offset="0.17" stop-color="#777777"/>
<stop offset="0.22" stop-color="#565656"/>
<stop offset="0.28" stop-color="#3B3B3B"/>
<stop offset="0.34" stop-color="#252525"/>
<stop offset="0.42" stop-color="#141414"/>
<stop offset="0.51" stop-color="#080808"/>
<stop offset="0.64" stop-color="#010101"/>
<stop offset="1"/>
</radialGradient>
<radialGradient id="paint10_radial_6242_15422" cx="0" cy="0" r="1" gradientUnits="userSpaceOnUse" gradientTransform="translate(585.805 529.246) rotate(108.554) scale(67.8693 67.8493)">
<stop offset="0.03" stop-color="white"/>
<stop offset="0.04" stop-color="#F5F5F5"/>
<stop offset="0.08" stop-color="#C7C7C7"/>
<stop offset="0.12" stop-color="#9C9C9C"/>
<stop offset="0.17" stop-color="#777777"/>
<stop offset="0.22" stop-color="#565656"/>
<stop offset="0.28" stop-color="#3B3B3B"/>
<stop offset="0.34" stop-color="#252525"/>
<stop offset="0.42" stop-color="#141414"/>
<stop offset="0.51" stop-color="#080808"/>
<stop offset="0.64" stop-color="#010101"/>
<stop offset="1"/>
</radialGradient>
<radialGradient id="paint11_radial_6242_15422" cx="0" cy="0" r="1" gradientUnits="userSpaceOnUse" gradientTransform="translate(514.805 564.246) rotate(108.554) scale(67.8693 67.8493)">
<stop offset="0.03" stop-color="white"/>
<stop offset="0.04" stop-color="#F5F5F5"/>
<stop offset="0.08" stop-color="#C7C7C7"/>
<stop offset="0.12" stop-color="#9C9C9C"/>
<stop offset="0.17" stop-color="#777777"/>
<stop offset="0.22" stop-color="#565656"/>
<stop offset="0.28" stop-color="#3B3B3B"/>
<stop offset="0.34" stop-color="#252525"/>
<stop offset="0.42" stop-color="#141414"/>
<stop offset="0.51" stop-color="#080808"/>
<stop offset="0.64" stop-color="#010101"/>
<stop offset="1"/>
</radialGradient>
<radialGradient id="paint12_radial_6242_15422" cx="0" cy="0" r="1" gradientUnits="userSpaceOnUse" gradientTransform="translate(437.805 598.246) rotate(108.554) scale(67.8693 67.8493)">
<stop offset="0.03" stop-color="white"/>
<stop offset="0.04" stop-color="#F5F5F5"/>
<stop offset="0.08" stop-color="#C7C7C7"/>
<stop offset="0.12" stop-color="#9C9C9C"/>
<stop offset="0.17" stop-color="#777777"/>
<stop offset="0.22" stop-color="#565656"/>
<stop offset="0.28" stop-color="#3B3B3B"/>
<stop offset="0.34" stop-color="#252525"/>
<stop offset="0.42" stop-color="#141414"/>
<stop offset="0.51" stop-color="#080808"/>
<stop offset="0.64" stop-color="#010101"/>
<stop offset="1"/>
</radialGradient>
<radialGradient id="paint13_radial_6242_15422" cx="0" cy="0" r="1" gradientUnits="userSpaceOnUse" gradientTransform="translate(320.805 695.246) rotate(108.554) scale(67.8693 67.8493)">
<stop offset="0.03" stop-color="white"/>
<stop offset="0.04" stop-color="#F5F5F5"/>
<stop offset="0.08" stop-color="#C7C7C7"/>
<stop offset="0.12" stop-color="#9C9C9C"/>
<stop offset="0.17" stop-color="#777777"/>
<stop offset="0.22" stop-color="#565656"/>
<stop offset="0.28" stop-color="#3B3B3B"/>
<stop offset="0.34" stop-color="#252525"/>
<stop offset="0.42" stop-color="#141414"/>
<stop offset="0.51" stop-color="#080808"/>
<stop offset="0.64" stop-color="#010101"/>
<stop offset="1"/>
</radialGradient>
<radialGradient id="paint14_radial_6242_15422" cx="0" cy="0" r="1" gradientUnits="userSpaceOnUse" gradientTransform="translate(361.805 617.246) rotate(108.554) scale(67.8693 67.8493)">
<stop offset="0.03" stop-color="white"/>
<stop offset="0.04" stop-color="#F5F5F5"/>
<stop offset="0.08" stop-color="#C7C7C7"/>
<stop offset="0.12" stop-color="#9C9C9C"/>
<stop offset="0.17" stop-color="#777777"/>
<stop offset="0.22" stop-color="#565656"/>
<stop offset="0.28" stop-color="#3B3B3B"/>
<stop offset="0.34" stop-color="#252525"/>
<stop offset="0.42" stop-color="#141414"/>
<stop offset="0.51" stop-color="#080808"/>
<stop offset="0.64" stop-color="#010101"/>
<stop offset="1"/>
</radialGradient>
<radialGradient id="paint15_radial_6242_15422" cx="0" cy="0" r="1" gradientUnits="userSpaceOnUse" gradientTransform="translate(380.805 753.246) rotate(108.554) scale(67.8693 67.8493)">
<stop offset="0.03" stop-color="white"/>
<stop offset="0.04" stop-color="#F5F5F5"/>
<stop offset="0.08" stop-color="#C7C7C7"/>
<stop offset="0.12" stop-color="#9C9C9C"/>
<stop offset="0.17" stop-color="#777777"/>
<stop offset="0.22" stop-color="#565656"/>
<stop offset="0.28" stop-color="#3B3B3B"/>
<stop offset="0.34" stop-color="#252525"/>
<stop offset="0.42" stop-color="#141414"/>
<stop offset="0.51" stop-color="#080808"/>
<stop offset="0.64" stop-color="#010101"/>
<stop offset="1"/>
</radialGradient>
<radialGradient id="paint16_radial_6242_15422" cx="0" cy="0" r="1" gradientUnits="userSpaceOnUse" gradientTransform="translate(511.805 912.246) rotate(108.554) scale(67.8693 67.8493)">
<stop offset="0.03" stop-color="white"/>
<stop offset="0.04" stop-color="#F5F5F5"/>
<stop offset="0.08" stop-color="#C7C7C7"/>
<stop offset="0.12" stop-color="#9C9C9C"/>
<stop offset="0.17" stop-color="#777777"/>
<stop offset="0.22" stop-color="#565656"/>
<stop offset="0.28" stop-color="#3B3B3B"/>
<stop offset="0.34" stop-color="#252525"/>
<stop offset="0.42" stop-color="#141414"/>
<stop offset="0.51" stop-color="#080808"/>
<stop offset="0.64" stop-color="#010101"/>
<stop offset="1"/>
</radialGradient>
<radialGradient id="paint17_radial_6242_15422" cx="0" cy="0" r="1" gradientUnits="userSpaceOnUse" gradientTransform="translate(464.805 1006.25) rotate(108.554) scale(67.8693 67.8493)">
<stop offset="0.03" stop-color="white"/>
<stop offset="0.04" stop-color="#F5F5F5"/>
<stop offset="0.08" stop-color="#C7C7C7"/>
<stop offset="0.12" stop-color="#9C9C9C"/>
<stop offset="0.17" stop-color="#777777"/>
<stop offset="0.22" stop-color="#565656"/>
<stop offset="0.28" stop-color="#3B3B3B"/>
<stop offset="0.34" stop-color="#252525"/>
<stop offset="0.42" stop-color="#141414"/>
<stop offset="0.51" stop-color="#080808"/>
<stop offset="0.64" stop-color="#010101"/>
<stop offset="1"/>
</radialGradient>
<radialGradient id="paint18_radial_6242_15422" cx="0" cy="0" r="1" gradientUnits="userSpaceOnUse" gradientTransform="translate(377.805 1034.25) rotate(108.554) scale(67.8693 67.8493)">
<stop offset="0.03" stop-color="white"/>
<stop offset="0.04" stop-color="#F5F5F5"/>
<stop offset="0.08" stop-color="#C7C7C7"/>
<stop offset="0.12" stop-color="#9C9C9C"/>
<stop offset="0.17" stop-color="#777777"/>
<stop offset="0.22" stop-color="#565656"/>
<stop offset="0.28" stop-color="#3B3B3B"/>
<stop offset="0.34" stop-color="#252525"/>
<stop offset="0.42" stop-color="#141414"/>
<stop offset="0.51" stop-color="#080808"/>
<stop offset="0.64" stop-color="#010101"/>
<stop offset="1"/>
</radialGradient>
<radialGradient id="paint19_radial_6242_15422" cx="0" cy="0" r="1" gradientUnits="userSpaceOnUse" gradientTransform="translate(259.805 1035.25) rotate(108.554) scale(67.8693 67.8493)">
<stop offset="0.03" stop-color="white"/>
<stop offset="0.04" stop-color="#F5F5F5"/>
<stop offset="0.08" stop-color="#C7C7C7"/>
<stop offset="0.12" stop-color="#9C9C9C"/>
<stop offset="0.17" stop-color="#777777"/>
<stop offset="0.22" stop-color="#565656"/>
<stop offset="0.28" stop-color="#3B3B3B"/>
<stop offset="0.34" stop-color="#252525"/>
<stop offset="0.42" stop-color="#141414"/>
<stop offset="0.51" stop-color="#080808"/>
<stop offset="0.64" stop-color="#010101"/>
<stop offset="1"/>
</radialGradient>
<radialGradient id="paint20_radial_6242_15422" cx="0" cy="0" r="1" gradientUnits="userSpaceOnUse" gradientTransform="translate(153.805 1025.25) rotate(108.554) scale(67.8693 67.8493)">
<stop offset="0.03" stop-color="white"/>
<stop offset="0.04" stop-color="#F5F5F5"/>
<stop offset="0.08" stop-color="#C7C7C7"/>
<stop offset="0.12" stop-color="#9C9C9C"/>
<stop offset="0.17" stop-color="#777777"/>
<stop offset="0.22" stop-color="#565656"/>
<stop offset="0.28" stop-color="#3B3B3B"/>
<stop offset="0.34" stop-color="#252525"/>
<stop offset="0.42" stop-color="#141414"/>
<stop offset="0.51" stop-color="#080808"/>
<stop offset="0.64" stop-color="#010101"/>
<stop offset="1"/>
</radialGradient>
<radialGradient id="paint21_radial_6242_15422" cx="0" cy="0" r="1" gradientUnits="userSpaceOnUse" gradientTransform="translate(459.805 830.246) rotate(108.554) scale(67.8693 67.8493)">
<stop offset="0.03" stop-color="white"/>
<stop offset="0.04" stop-color="#F5F5F5"/>
<stop offset="0.08" stop-color="#C7C7C7"/>
<stop offset="0.12" stop-color="#9C9C9C"/>
<stop offset="0.17" stop-color="#777777"/>
<stop offset="0.22" stop-color="#565656"/>
<stop offset="0.28" stop-color="#3B3B3B"/>
<stop offset="0.34" stop-color="#252525"/>
<stop offset="0.42" stop-color="#141414"/>
<stop offset="0.51" stop-color="#080808"/>
<stop offset="0.64" stop-color="#010101"/>
<stop offset="1"/>
</radialGradient>
<radialGradient id="paint22_radial_6242_15422" cx="0" cy="0" r="1" gradientUnits="userSpaceOnUse" gradientTransform="translate(45.8047 980.246) rotate(108.554) scale(67.8693 67.8493)">
<stop offset="0.03" stop-color="white"/>
<stop offset="0.04" stop-color="#F5F5F5"/>
<stop offset="0.08" stop-color="#C7C7C7"/>
<stop offset="0.12" stop-color="#9C9C9C"/>
<stop offset="0.17" stop-color="#777777"/>
<stop offset="0.22" stop-color="#565656"/>
<stop offset="0.28" stop-color="#3B3B3B"/>
<stop offset="0.34" stop-color="#252525"/>
<stop offset="0.42" stop-color="#141414"/>
<stop offset="0.51" stop-color="#080808"/>
<stop offset="0.64" stop-color="#010101"/>
<stop offset="1"/>
</radialGradient>
</defs>
</svg>
