<svg width="650" height="1078" viewBox="0 0 650 1078" fill="none" xmlns="http://www.w3.org/2000/svg">
<path style="mix-blend-mode:color-dodge" d="M161.541 85.1191C138.828 77.5019 126.613 52.7606 134.299 29.8804C141.971 7.0001 166.617 -5.37769 189.345 2.25387C212.072 9.88543 224.258 34.6122 216.586 57.4925C208.914 80.3727 184.268 92.7506 161.541 85.1191Z" fill="url(#paint0_radial_6258_12505)"/>
<path style="mix-blend-mode:color-dodge" d="M208.541 137.119C185.828 129.502 173.613 104.761 181.299 81.8804C188.971 59.0001 213.617 46.6223 236.345 54.2539C259.072 61.8854 271.258 86.6122 263.586 109.492C255.914 132.373 231.268 144.751 208.541 137.119Z" fill="url(#paint1_radial_6258_12505)"/>
<path style="mix-blend-mode:color-dodge" d="M266.541 185.119C243.828 177.502 231.613 152.761 239.299 129.88C246.971 107 271.617 94.6223 294.345 102.254C317.072 109.885 329.258 134.612 321.586 157.492C313.914 180.373 289.268 192.751 266.541 185.119Z" fill="url(#paint2_radial_6258_12505)"/>
<path style="mix-blend-mode:color-dodge" d="M332.541 226.119C309.828 218.502 297.613 193.761 305.299 170.88C312.971 148 337.617 135.622 360.345 143.254C383.072 150.885 395.258 175.612 387.586 198.492C379.914 221.373 355.268 233.751 332.541 226.119Z" fill="url(#paint3_radial_6258_12505)"/>
<path style="mix-blend-mode:color-dodge" d="M400.541 258.119C377.828 250.502 365.613 225.761 373.299 202.88C380.971 180 405.617 167.622 428.345 175.254C451.072 182.885 463.258 207.612 455.586 230.492C447.914 253.373 423.268 265.751 400.541 258.119Z" fill="url(#paint4_radial_6258_12505)"/>
<path style="mix-blend-mode:color-dodge" d="M477.541 291.119C454.828 283.502 442.613 258.761 450.299 235.88C457.971 213 482.617 200.622 505.345 208.254C528.072 215.885 540.258 240.612 532.586 263.492C524.914 286.373 500.268 298.751 477.541 291.119Z" fill="url(#paint5_radial_6258_12505)"/>
<path style="mix-blend-mode:color-dodge" d="M548.541 335.119C525.828 327.502 513.613 302.761 521.299 279.88C528.971 257 553.617 244.622 576.345 252.254C599.072 259.885 611.258 284.612 603.586 307.492C595.914 330.373 571.268 342.751 548.541 335.119Z" fill="url(#paint6_radial_6258_12505)"/>
<path style="mix-blend-mode:color-dodge" d="M592.541 401.119C569.828 393.502 557.613 368.761 565.299 345.88C572.971 323 597.617 310.622 620.345 318.254C643.072 325.885 655.258 350.612 647.586 373.492C639.914 396.373 615.268 408.751 592.541 401.119Z" fill="url(#paint7_radial_6258_12505)"/>
<path style="mix-blend-mode:color-dodge" d="M591.541 484.119C568.828 476.502 556.613 451.761 564.299 428.88C571.971 406 596.617 393.622 619.345 401.254C642.072 408.885 654.258 433.612 646.586 456.492C638.914 479.373 614.268 491.751 591.541 484.119Z" fill="url(#paint8_radial_6258_12505)"/>
<path style="mix-blend-mode:color-dodge" d="M534.541 532.119C511.828 524.502 499.613 499.761 507.299 476.88C514.971 454 539.617 441.622 562.345 449.254C585.072 456.885 597.258 481.612 589.586 504.492C581.914 527.373 557.268 539.751 534.541 532.119Z" fill="url(#paint9_radial_6258_12505)"/>
<path style="mix-blend-mode:color-dodge" d="M461.541 569.119C438.828 561.502 426.613 536.761 434.299 513.88C441.971 491 466.617 478.622 489.345 486.254C512.072 493.885 524.258 518.612 516.586 541.492C508.914 564.373 484.268 576.751 461.541 569.119Z" fill="url(#paint10_radial_6258_12505)"/>
<path style="mix-blend-mode:color-dodge" d="M390.541 604.119C367.828 596.502 355.613 571.761 363.299 548.88C370.971 526 395.617 513.622 418.345 521.254C441.072 528.885 453.258 553.612 445.586 576.492C437.914 599.373 413.268 611.751 390.541 604.119Z" fill="url(#paint11_radial_6258_12505)"/>
<path style="mix-blend-mode:color-dodge" d="M313.541 638.119C290.828 630.502 278.613 605.761 286.299 582.88C293.971 560 318.617 547.622 341.345 555.254C364.072 562.885 376.258 587.612 368.586 610.492C360.914 633.373 336.268 645.751 313.541 638.119Z" fill="url(#paint12_radial_6258_12505)"/>
<path style="mix-blend-mode:color-dodge" d="M196.541 735.119C173.828 727.502 161.613 702.761 169.299 679.88C176.971 657 201.617 644.622 224.345 652.254C247.072 659.885 259.258 684.612 251.586 707.492C243.914 730.373 219.268 742.751 196.541 735.119Z" fill="url(#paint13_radial_6258_12505)"/>
<path style="mix-blend-mode:color-dodge" d="M237.541 657.119C214.828 649.502 202.613 624.761 210.299 601.88C217.971 579 242.617 566.622 265.345 574.254C288.072 581.885 300.258 606.612 292.586 629.492C284.914 652.373 260.268 664.751 237.541 657.119Z" fill="url(#paint14_radial_6258_12505)"/>
<path style="mix-blend-mode:color-dodge" d="M256.541 793.119C233.828 785.502 221.613 760.761 229.299 737.88C236.971 715 261.617 702.622 284.345 710.254C307.072 717.885 319.258 742.612 311.586 765.492C303.914 788.373 279.268 800.751 256.541 793.119Z" fill="url(#paint15_radial_6258_12505)"/>
<path style="mix-blend-mode:color-dodge" d="M387.541 952.119C364.828 944.502 352.613 919.761 360.299 896.88C367.971 874 392.617 861.622 415.345 869.254C438.072 876.885 450.258 901.612 442.586 924.492C434.914 947.373 410.268 959.751 387.541 952.119Z" fill="url(#paint16_radial_6258_12505)"/>
<path style="mix-blend-mode:color-dodge" d="M340.541 1046.12C317.828 1038.5 305.613 1013.76 313.299 990.88C320.971 968 345.617 955.622 368.345 963.254C391.072 970.885 403.258 995.612 395.586 1018.49C387.914 1041.37 363.268 1053.75 340.541 1046.12Z" fill="url(#paint17_radial_6258_12505)"/>
<path style="mix-blend-mode:color-dodge" d="M253.541 1074.12C230.828 1066.5 218.613 1041.76 226.299 1018.88C233.971 996 258.617 983.622 281.345 991.254C304.072 998.885 316.258 1023.61 308.586 1046.49C300.914 1069.37 276.268 1081.75 253.541 1074.12Z" fill="url(#paint18_radial_6258_12505)"/>
<path style="mix-blend-mode:color-dodge" d="M135.541 1075.12C112.828 1067.5 100.613 1042.76 108.299 1019.88C115.971 997 140.617 984.622 163.345 992.254C186.072 999.885 198.258 1024.61 190.586 1047.49C182.914 1070.37 158.268 1082.75 135.541 1075.12Z" fill="url(#paint19_radial_6258_12505)"/>
<path style="mix-blend-mode:color-dodge" d="M29.5408 1065.12C6.82761 1057.5 -5.38704 1032.76 2.29938 1009.88C9.97138 987 34.617 974.622 57.3446 982.254C80.0721 989.885 92.2579 1014.61 84.5859 1037.49C76.9139 1060.37 52.2683 1072.75 29.5408 1065.12Z" fill="url(#paint20_radial_6258_12505)"/>
<path style="mix-blend-mode:color-dodge" d="M335.541 870.119C312.828 862.502 300.613 837.761 308.299 814.88C315.971 792 340.617 779.622 363.345 787.254C386.072 794.885 398.258 819.612 390.586 842.492C382.914 865.373 358.268 877.751 335.541 870.119Z" fill="url(#paint21_radial_6258_12505)"/>
<defs>
<radialGradient id="paint0_radial_6258_12505" cx="0" cy="0" r="1" gradientUnits="userSpaceOnUse" gradientTransform="translate(177.805 45.2464) rotate(108.554) scale(67.8693 67.8493)">
<stop offset="0.03" stop-color="white"/>
<stop offset="0.04" stop-color="#F5F5F5"/>
<stop offset="0.08" stop-color="#C7C7C7"/>
<stop offset="0.12" stop-color="#9C9C9C"/>
<stop offset="0.17" stop-color="#777777"/>
<stop offset="0.22" stop-color="#565656"/>
<stop offset="0.28" stop-color="#3B3B3B"/>
<stop offset="0.34" stop-color="#252525"/>
<stop offset="0.42" stop-color="#141414"/>
<stop offset="0.51" stop-color="#080808"/>
<stop offset="0.64" stop-color="#010101"/>
<stop offset="1"/>
</radialGradient>
<radialGradient id="paint1_radial_6258_12505" cx="0" cy="0" r="1" gradientUnits="userSpaceOnUse" gradientTransform="translate(224.805 97.2464) rotate(108.554) scale(67.8693 67.8493)">
<stop offset="0.03" stop-color="white"/>
<stop offset="0.04" stop-color="#F5F5F5"/>
<stop offset="0.08" stop-color="#C7C7C7"/>
<stop offset="0.12" stop-color="#9C9C9C"/>
<stop offset="0.17" stop-color="#777777"/>
<stop offset="0.22" stop-color="#565656"/>
<stop offset="0.28" stop-color="#3B3B3B"/>
<stop offset="0.34" stop-color="#252525"/>
<stop offset="0.42" stop-color="#141414"/>
<stop offset="0.51" stop-color="#080808"/>
<stop offset="0.64" stop-color="#010101"/>
<stop offset="1"/>
</radialGradient>
<radialGradient id="paint2_radial_6258_12505" cx="0" cy="0" r="1" gradientUnits="userSpaceOnUse" gradientTransform="translate(282.805 145.246) rotate(108.554) scale(67.8693 67.8493)">
<stop offset="0.03" stop-color="white"/>
<stop offset="0.04" stop-color="#F5F5F5"/>
<stop offset="0.08" stop-color="#C7C7C7"/>
<stop offset="0.12" stop-color="#9C9C9C"/>
<stop offset="0.17" stop-color="#777777"/>
<stop offset="0.22" stop-color="#565656"/>
<stop offset="0.28" stop-color="#3B3B3B"/>
<stop offset="0.34" stop-color="#252525"/>
<stop offset="0.42" stop-color="#141414"/>
<stop offset="0.51" stop-color="#080808"/>
<stop offset="0.64" stop-color="#010101"/>
<stop offset="1"/>
</radialGradient>
<radialGradient id="paint3_radial_6258_12505" cx="0" cy="0" r="1" gradientUnits="userSpaceOnUse" gradientTransform="translate(348.805 186.246) rotate(108.554) scale(67.8693 67.8493)">
<stop offset="0.03" stop-color="white"/>
<stop offset="0.04" stop-color="#F5F5F5"/>
<stop offset="0.08" stop-color="#C7C7C7"/>
<stop offset="0.12" stop-color="#9C9C9C"/>
<stop offset="0.17" stop-color="#777777"/>
<stop offset="0.22" stop-color="#565656"/>
<stop offset="0.28" stop-color="#3B3B3B"/>
<stop offset="0.34" stop-color="#252525"/>
<stop offset="0.42" stop-color="#141414"/>
<stop offset="0.51" stop-color="#080808"/>
<stop offset="0.64" stop-color="#010101"/>
<stop offset="1"/>
</radialGradient>
<radialGradient id="paint4_radial_6258_12505" cx="0" cy="0" r="1" gradientUnits="userSpaceOnUse" gradientTransform="translate(416.805 218.246) rotate(108.554) scale(67.8693 67.8493)">
<stop offset="0.03" stop-color="white"/>
<stop offset="0.04" stop-color="#F5F5F5"/>
<stop offset="0.08" stop-color="#C7C7C7"/>
<stop offset="0.12" stop-color="#9C9C9C"/>
<stop offset="0.17" stop-color="#777777"/>
<stop offset="0.22" stop-color="#565656"/>
<stop offset="0.28" stop-color="#3B3B3B"/>
<stop offset="0.34" stop-color="#252525"/>
<stop offset="0.42" stop-color="#141414"/>
<stop offset="0.51" stop-color="#080808"/>
<stop offset="0.64" stop-color="#010101"/>
<stop offset="1"/>
</radialGradient>
<radialGradient id="paint5_radial_6258_12505" cx="0" cy="0" r="1" gradientUnits="userSpaceOnUse" gradientTransform="translate(493.805 251.246) rotate(108.554) scale(67.8693 67.8493)">
<stop offset="0.03" stop-color="white"/>
<stop offset="0.04" stop-color="#F5F5F5"/>
<stop offset="0.08" stop-color="#C7C7C7"/>
<stop offset="0.12" stop-color="#9C9C9C"/>
<stop offset="0.17" stop-color="#777777"/>
<stop offset="0.22" stop-color="#565656"/>
<stop offset="0.28" stop-color="#3B3B3B"/>
<stop offset="0.34" stop-color="#252525"/>
<stop offset="0.42" stop-color="#141414"/>
<stop offset="0.51" stop-color="#080808"/>
<stop offset="0.64" stop-color="#010101"/>
<stop offset="1"/>
</radialGradient>
<radialGradient id="paint6_radial_6258_12505" cx="0" cy="0" r="1" gradientUnits="userSpaceOnUse" gradientTransform="translate(564.805 295.246) rotate(108.554) scale(67.8693 67.8493)">
<stop offset="0.03" stop-color="white"/>
<stop offset="0.04" stop-color="#F5F5F5"/>
<stop offset="0.08" stop-color="#C7C7C7"/>
<stop offset="0.12" stop-color="#9C9C9C"/>
<stop offset="0.17" stop-color="#777777"/>
<stop offset="0.22" stop-color="#565656"/>
<stop offset="0.28" stop-color="#3B3B3B"/>
<stop offset="0.34" stop-color="#252525"/>
<stop offset="0.42" stop-color="#141414"/>
<stop offset="0.51" stop-color="#080808"/>
<stop offset="0.64" stop-color="#010101"/>
<stop offset="1"/>
</radialGradient>
<radialGradient id="paint7_radial_6258_12505" cx="0" cy="0" r="1" gradientUnits="userSpaceOnUse" gradientTransform="translate(608.805 361.246) rotate(108.554) scale(67.8693 67.8493)">
<stop offset="0.03" stop-color="white"/>
<stop offset="0.04" stop-color="#F5F5F5"/>
<stop offset="0.08" stop-color="#C7C7C7"/>
<stop offset="0.12" stop-color="#9C9C9C"/>
<stop offset="0.17" stop-color="#777777"/>
<stop offset="0.22" stop-color="#565656"/>
<stop offset="0.28" stop-color="#3B3B3B"/>
<stop offset="0.34" stop-color="#252525"/>
<stop offset="0.42" stop-color="#141414"/>
<stop offset="0.51" stop-color="#080808"/>
<stop offset="0.64" stop-color="#010101"/>
<stop offset="1"/>
</radialGradient>
<radialGradient id="paint8_radial_6258_12505" cx="0" cy="0" r="1" gradientUnits="userSpaceOnUse" gradientTransform="translate(607.805 444.246) rotate(108.554) scale(67.8693 67.8493)">
<stop offset="0.03" stop-color="white"/>
<stop offset="0.04" stop-color="#F5F5F5"/>
<stop offset="0.08" stop-color="#C7C7C7"/>
<stop offset="0.12" stop-color="#9C9C9C"/>
<stop offset="0.17" stop-color="#777777"/>
<stop offset="0.22" stop-color="#565656"/>
<stop offset="0.28" stop-color="#3B3B3B"/>
<stop offset="0.34" stop-color="#252525"/>
<stop offset="0.42" stop-color="#141414"/>
<stop offset="0.51" stop-color="#080808"/>
<stop offset="0.64" stop-color="#010101"/>
<stop offset="1"/>
</radialGradient>
<radialGradient id="paint9_radial_6258_12505" cx="0" cy="0" r="1" gradientUnits="userSpaceOnUse" gradientTransform="translate(550.805 492.246) rotate(108.554) scale(67.8693 67.8493)">
<stop offset="0.03" stop-color="white"/>
<stop offset="0.04" stop-color="#F5F5F5"/>
<stop offset="0.08" stop-color="#C7C7C7"/>
<stop offset="0.12" stop-color="#9C9C9C"/>
<stop offset="0.17" stop-color="#777777"/>
<stop offset="0.22" stop-color="#565656"/>
<stop offset="0.28" stop-color="#3B3B3B"/>
<stop offset="0.34" stop-color="#252525"/>
<stop offset="0.42" stop-color="#141414"/>
<stop offset="0.51" stop-color="#080808"/>
<stop offset="0.64" stop-color="#010101"/>
<stop offset="1"/>
</radialGradient>
<radialGradient id="paint10_radial_6258_12505" cx="0" cy="0" r="1" gradientUnits="userSpaceOnUse" gradientTransform="translate(477.805 529.246) rotate(108.554) scale(67.8693 67.8493)">
<stop offset="0.03" stop-color="white"/>
<stop offset="0.04" stop-color="#F5F5F5"/>
<stop offset="0.08" stop-color="#C7C7C7"/>
<stop offset="0.12" stop-color="#9C9C9C"/>
<stop offset="0.17" stop-color="#777777"/>
<stop offset="0.22" stop-color="#565656"/>
<stop offset="0.28" stop-color="#3B3B3B"/>
<stop offset="0.34" stop-color="#252525"/>
<stop offset="0.42" stop-color="#141414"/>
<stop offset="0.51" stop-color="#080808"/>
<stop offset="0.64" stop-color="#010101"/>
<stop offset="1"/>
</radialGradient>
<radialGradient id="paint11_radial_6258_12505" cx="0" cy="0" r="1" gradientUnits="userSpaceOnUse" gradientTransform="translate(406.805 564.246) rotate(108.554) scale(67.8693 67.8493)">
<stop offset="0.03" stop-color="white"/>
<stop offset="0.04" stop-color="#F5F5F5"/>
<stop offset="0.08" stop-color="#C7C7C7"/>
<stop offset="0.12" stop-color="#9C9C9C"/>
<stop offset="0.17" stop-color="#777777"/>
<stop offset="0.22" stop-color="#565656"/>
<stop offset="0.28" stop-color="#3B3B3B"/>
<stop offset="0.34" stop-color="#252525"/>
<stop offset="0.42" stop-color="#141414"/>
<stop offset="0.51" stop-color="#080808"/>
<stop offset="0.64" stop-color="#010101"/>
<stop offset="1"/>
</radialGradient>
<radialGradient id="paint12_radial_6258_12505" cx="0" cy="0" r="1" gradientUnits="userSpaceOnUse" gradientTransform="translate(329.805 598.246) rotate(108.554) scale(67.8693 67.8493)">
<stop offset="0.03" stop-color="white"/>
<stop offset="0.04" stop-color="#F5F5F5"/>
<stop offset="0.08" stop-color="#C7C7C7"/>
<stop offset="0.12" stop-color="#9C9C9C"/>
<stop offset="0.17" stop-color="#777777"/>
<stop offset="0.22" stop-color="#565656"/>
<stop offset="0.28" stop-color="#3B3B3B"/>
<stop offset="0.34" stop-color="#252525"/>
<stop offset="0.42" stop-color="#141414"/>
<stop offset="0.51" stop-color="#080808"/>
<stop offset="0.64" stop-color="#010101"/>
<stop offset="1"/>
</radialGradient>
<radialGradient id="paint13_radial_6258_12505" cx="0" cy="0" r="1" gradientUnits="userSpaceOnUse" gradientTransform="translate(212.805 695.246) rotate(108.554) scale(67.8693 67.8493)">
<stop offset="0.03" stop-color="white"/>
<stop offset="0.04" stop-color="#F5F5F5"/>
<stop offset="0.08" stop-color="#C7C7C7"/>
<stop offset="0.12" stop-color="#9C9C9C"/>
<stop offset="0.17" stop-color="#777777"/>
<stop offset="0.22" stop-color="#565656"/>
<stop offset="0.28" stop-color="#3B3B3B"/>
<stop offset="0.34" stop-color="#252525"/>
<stop offset="0.42" stop-color="#141414"/>
<stop offset="0.51" stop-color="#080808"/>
<stop offset="0.64" stop-color="#010101"/>
<stop offset="1"/>
</radialGradient>
<radialGradient id="paint14_radial_6258_12505" cx="0" cy="0" r="1" gradientUnits="userSpaceOnUse" gradientTransform="translate(253.805 617.246) rotate(108.554) scale(67.8693 67.8493)">
<stop offset="0.03" stop-color="white"/>
<stop offset="0.04" stop-color="#F5F5F5"/>
<stop offset="0.08" stop-color="#C7C7C7"/>
<stop offset="0.12" stop-color="#9C9C9C"/>
<stop offset="0.17" stop-color="#777777"/>
<stop offset="0.22" stop-color="#565656"/>
<stop offset="0.28" stop-color="#3B3B3B"/>
<stop offset="0.34" stop-color="#252525"/>
<stop offset="0.42" stop-color="#141414"/>
<stop offset="0.51" stop-color="#080808"/>
<stop offset="0.64" stop-color="#010101"/>
<stop offset="1"/>
</radialGradient>
<radialGradient id="paint15_radial_6258_12505" cx="0" cy="0" r="1" gradientUnits="userSpaceOnUse" gradientTransform="translate(272.805 753.246) rotate(108.554) scale(67.8693 67.8493)">
<stop offset="0.03" stop-color="white"/>
<stop offset="0.04" stop-color="#F5F5F5"/>
<stop offset="0.08" stop-color="#C7C7C7"/>
<stop offset="0.12" stop-color="#9C9C9C"/>
<stop offset="0.17" stop-color="#777777"/>
<stop offset="0.22" stop-color="#565656"/>
<stop offset="0.28" stop-color="#3B3B3B"/>
<stop offset="0.34" stop-color="#252525"/>
<stop offset="0.42" stop-color="#141414"/>
<stop offset="0.51" stop-color="#080808"/>
<stop offset="0.64" stop-color="#010101"/>
<stop offset="1"/>
</radialGradient>
<radialGradient id="paint16_radial_6258_12505" cx="0" cy="0" r="1" gradientUnits="userSpaceOnUse" gradientTransform="translate(403.805 912.246) rotate(108.554) scale(67.8693 67.8493)">
<stop offset="0.03" stop-color="white"/>
<stop offset="0.04" stop-color="#F5F5F5"/>
<stop offset="0.08" stop-color="#C7C7C7"/>
<stop offset="0.12" stop-color="#9C9C9C"/>
<stop offset="0.17" stop-color="#777777"/>
<stop offset="0.22" stop-color="#565656"/>
<stop offset="0.28" stop-color="#3B3B3B"/>
<stop offset="0.34" stop-color="#252525"/>
<stop offset="0.42" stop-color="#141414"/>
<stop offset="0.51" stop-color="#080808"/>
<stop offset="0.64" stop-color="#010101"/>
<stop offset="1"/>
</radialGradient>
<radialGradient id="paint17_radial_6258_12505" cx="0" cy="0" r="1" gradientUnits="userSpaceOnUse" gradientTransform="translate(356.805 1006.25) rotate(108.554) scale(67.8693 67.8493)">
<stop offset="0.03" stop-color="white"/>
<stop offset="0.04" stop-color="#F5F5F5"/>
<stop offset="0.08" stop-color="#C7C7C7"/>
<stop offset="0.12" stop-color="#9C9C9C"/>
<stop offset="0.17" stop-color="#777777"/>
<stop offset="0.22" stop-color="#565656"/>
<stop offset="0.28" stop-color="#3B3B3B"/>
<stop offset="0.34" stop-color="#252525"/>
<stop offset="0.42" stop-color="#141414"/>
<stop offset="0.51" stop-color="#080808"/>
<stop offset="0.64" stop-color="#010101"/>
<stop offset="1"/>
</radialGradient>
<radialGradient id="paint18_radial_6258_12505" cx="0" cy="0" r="1" gradientUnits="userSpaceOnUse" gradientTransform="translate(269.805 1034.25) rotate(108.554) scale(67.8693 67.8493)">
<stop offset="0.03" stop-color="white"/>
<stop offset="0.04" stop-color="#F5F5F5"/>
<stop offset="0.08" stop-color="#C7C7C7"/>
<stop offset="0.12" stop-color="#9C9C9C"/>
<stop offset="0.17" stop-color="#777777"/>
<stop offset="0.22" stop-color="#565656"/>
<stop offset="0.28" stop-color="#3B3B3B"/>
<stop offset="0.34" stop-color="#252525"/>
<stop offset="0.42" stop-color="#141414"/>
<stop offset="0.51" stop-color="#080808"/>
<stop offset="0.64" stop-color="#010101"/>
<stop offset="1"/>
</radialGradient>
<radialGradient id="paint19_radial_6258_12505" cx="0" cy="0" r="1" gradientUnits="userSpaceOnUse" gradientTransform="translate(151.805 1035.25) rotate(108.554) scale(67.8693 67.8493)">
<stop offset="0.03" stop-color="white"/>
<stop offset="0.04" stop-color="#F5F5F5"/>
<stop offset="0.08" stop-color="#C7C7C7"/>
<stop offset="0.12" stop-color="#9C9C9C"/>
<stop offset="0.17" stop-color="#777777"/>
<stop offset="0.22" stop-color="#565656"/>
<stop offset="0.28" stop-color="#3B3B3B"/>
<stop offset="0.34" stop-color="#252525"/>
<stop offset="0.42" stop-color="#141414"/>
<stop offset="0.51" stop-color="#080808"/>
<stop offset="0.64" stop-color="#010101"/>
<stop offset="1"/>
</radialGradient>
<radialGradient id="paint20_radial_6258_12505" cx="0" cy="0" r="1" gradientUnits="userSpaceOnUse" gradientTransform="translate(45.8047 1025.25) rotate(108.554) scale(67.8693 67.8493)">
<stop offset="0.03" stop-color="white"/>
<stop offset="0.04" stop-color="#F5F5F5"/>
<stop offset="0.08" stop-color="#C7C7C7"/>
<stop offset="0.12" stop-color="#9C9C9C"/>
<stop offset="0.17" stop-color="#777777"/>
<stop offset="0.22" stop-color="#565656"/>
<stop offset="0.28" stop-color="#3B3B3B"/>
<stop offset="0.34" stop-color="#252525"/>
<stop offset="0.42" stop-color="#141414"/>
<stop offset="0.51" stop-color="#080808"/>
<stop offset="0.64" stop-color="#010101"/>
<stop offset="1"/>
</radialGradient>
<radialGradient id="paint21_radial_6258_12505" cx="0" cy="0" r="1" gradientUnits="userSpaceOnUse" gradientTransform="translate(351.805 830.246) rotate(108.554) scale(67.8693 67.8493)">
<stop offset="0.03" stop-color="white"/>
<stop offset="0.04" stop-color="#F5F5F5"/>
<stop offset="0.08" stop-color="#C7C7C7"/>
<stop offset="0.12" stop-color="#9C9C9C"/>
<stop offset="0.17" stop-color="#777777"/>
<stop offset="0.22" stop-color="#565656"/>
<stop offset="0.28" stop-color="#3B3B3B"/>
<stop offset="0.34" stop-color="#252525"/>
<stop offset="0.42" stop-color="#141414"/>
<stop offset="0.51" stop-color="#080808"/>
<stop offset="0.64" stop-color="#010101"/>
<stop offset="1"/>
</radialGradient>
</defs>
</svg>
