<svg width="514" height="1118" viewBox="0 0 514 1118" fill="none" xmlns="http://www.w3.org/2000/svg">
<path style="mix-blend-mode:screen" d="M484.251 479.695C499.646 481.836 510.342 495.74 508.138 510.735C505.933 525.73 491.653 536.152 476.258 534.01C460.862 531.869 450.167 517.965 452.371 502.97C454.575 487.975 468.855 477.553 484.251 479.695Z" fill="url(#paint0_radial_296_9)" fill-opacity="0.7"/>
<g style="mix-blend-mode:screen">
<path d="M480.617 504.415C481.992 504.604 482.973 505.866 482.756 507.205C482.562 508.544 481.266 509.5 479.891 509.289C478.516 509.101 477.536 507.839 477.752 506.5C477.946 505.16 479.242 504.205 480.617 504.415Z" fill="#F6E6FC"/>
</g>
<path style="mix-blend-mode:screen" d="M282.461 694.918C297.857 697.06 308.552 710.964 306.348 725.959C304.144 740.954 289.864 751.375 274.469 749.234C259.073 747.093 248.378 733.189 250.582 718.194C252.786 703.198 267.066 692.777 282.461 694.918Z" fill="url(#paint1_radial_296_9)" fill-opacity="0.7"/>
<g style="mix-blend-mode:screen">
<path d="M278.828 719.639C280.203 719.828 281.183 721.09 280.967 722.429C280.773 723.768 279.477 724.723 278.102 724.513C276.727 724.324 275.746 723.062 275.963 721.723C276.157 720.384 277.453 719.429 278.828 719.639Z" fill="#F6E6FC"/>
</g>
<path style="mix-blend-mode:screen" d="M298.641 806.363C314.036 808.504 324.732 822.408 322.528 837.403C320.323 852.398 306.044 862.82 290.648 860.678C275.253 858.537 264.557 844.633 266.761 829.638C268.965 814.643 283.245 804.221 298.641 806.363Z" fill="url(#paint2_radial_296_9)" fill-opacity="0.7"/>
<g style="mix-blend-mode:screen">
<path d="M295.007 831.084C296.382 831.272 297.363 832.534 297.146 833.873C296.952 835.212 295.656 836.168 294.281 835.958C292.906 835.769 291.926 834.507 292.142 833.168C292.336 831.829 293.633 830.873 295.007 831.084Z" fill="#F6E6FC"/>
</g>
<path style="mix-blend-mode:screen" d="M363.509 977.547C378.905 979.689 389.6 993.593 387.396 1008.59C385.192 1023.58 370.912 1034 355.516 1031.86C340.121 1029.72 329.425 1015.82 331.63 1000.82C333.834 985.828 348.114 975.406 363.509 977.547Z" fill="url(#paint3_radial_296_9)" fill-opacity="0.7"/>
<g style="mix-blend-mode:screen">
<path d="M359.876 1002.25C361.251 1002.43 362.232 1003.7 362.015 1005.04C361.821 1006.38 360.525 1007.33 359.15 1007.12C357.775 1006.93 356.795 1005.67 357.011 1004.33C357.205 1002.99 358.501 1002.04 359.876 1002.25Z" fill="#F6E6FC"/>
</g>
<path style="mix-blend-mode:screen" d="M242.185 877.603C255.687 879.486 265.045 891.663 263.13 904.814C261.215 917.965 248.686 927.105 235.184 925.223C221.682 923.341 212.324 911.164 214.239 898.013C216.176 884.862 228.682 875.743 242.185 877.603Z" fill="url(#paint4_radial_296_9)" fill-opacity="0.7"/>
<g style="mix-blend-mode:screen">
<path d="M239.011 899.251C240.228 899.416 241.075 900.523 240.882 901.686C240.712 902.872 239.576 903.697 238.381 903.51C237.164 903.345 236.317 902.238 236.509 901.075C236.679 899.889 237.816 899.064 239.011 899.251Z" fill="#F6E6FC"/>
</g>
<path style="mix-blend-mode:screen" d="M442.595 538.244C456.097 540.127 465.455 552.304 463.54 565.455C461.603 578.605 449.097 587.724 435.595 585.864C422.093 583.982 412.712 571.805 414.649 558.654C416.587 545.503 429.093 536.362 442.595 538.244Z" fill="url(#paint5_radial_296_9)" fill-opacity="0.7"/>
<g style="mix-blend-mode:screen">
<path d="M439.421 559.892C440.639 560.057 441.485 561.164 441.293 562.327C441.123 563.513 439.986 564.338 438.792 564.173C437.574 564.008 436.728 562.901 436.92 561.738C437.09 560.552 438.227 559.727 439.421 559.914L439.421 559.892Z" fill="#F6E6FC"/>
</g>
<path style="mix-blend-mode:screen" d="M471.029 994.523C484.531 996.405 493.889 1008.58 491.974 1021.73C490.037 1034.88 477.531 1044.02 464.029 1042.14C450.527 1040.26 441.168 1028.08 443.083 1014.93C445.02 1001.78 457.527 992.64 471.029 994.523Z" fill="url(#paint6_radial_296_9)" fill-opacity="0.7"/>
<g style="mix-blend-mode:screen">
<path d="M467.832 1016.19C469.049 1016.36 469.896 1017.46 469.704 1018.63C469.534 1019.81 468.397 1020.64 467.203 1020.45C465.985 1020.29 465.139 1019.18 465.331 1018.02C465.501 1016.83 466.638 1016 467.832 1016.19Z" fill="#F6E6FC"/>
</g>
<path style="mix-blend-mode:screen" d="M404.185 624.578C417.687 626.46 427.068 638.637 425.131 651.788C423.193 664.939 410.687 674.058 397.185 672.197C383.683 670.315 374.324 658.138 376.239 644.987C378.177 631.836 390.683 622.695 404.185 624.578Z" fill="url(#paint7_radial_296_9)" fill-opacity="0.7"/>
<g style="mix-blend-mode:screen">
<path d="M401.011 646.247C402.228 646.412 403.075 647.519 402.883 648.682C402.713 649.868 401.576 650.693 400.381 650.506C399.164 650.341 398.317 649.234 398.51 648.071C398.68 646.885 399.816 646.06 401.011 646.247Z" fill="#F6E6FC"/>
</g>
<g opacity="0.65">
<g style="mix-blend-mode:screen">
<path d="M360.237 780.503C361.635 780.692 362.593 781.954 362.399 783.315C362.204 784.676 360.908 785.609 359.511 785.421C358.113 785.232 357.155 783.97 357.35 782.609C357.544 781.248 358.84 780.314 360.237 780.503Z" fill="#F6E6FC"/>
</g>
<g opacity="0.5">
<path d="M362.418 765.617C372.246 766.983 379.064 775.861 377.659 785.433C376.254 795.005 367.136 801.649 357.308 800.284C347.48 798.919 340.662 790.041 342.067 780.468C343.472 770.896 352.59 764.252 362.418 765.617Z" fill="url(#paint8_radial_296_9)" fill-opacity="0.7" style="mix-blend-mode:color-dodge"/>
</g>
</g>
<g opacity="0.65">
<g style="mix-blend-mode:screen">
<path d="M358.33 896.077C359.728 896.265 360.686 897.527 360.491 898.889C360.297 900.25 359.001 901.183 357.604 900.995C356.206 900.806 355.248 899.544 355.442 898.183C355.636 896.822 356.932 895.888 358.33 896.077Z" fill="#F6E6FC"/>
</g>
<path style="mix-blend-mode:color-dodge" opacity="0.5" d="M360.51 881.191C370.338 882.556 377.157 891.435 375.752 901.007C374.347 910.579 365.228 917.223 355.401 915.858C345.573 914.493 338.754 905.615 340.159 896.042C341.564 886.47 350.683 879.826 360.51 881.191Z" fill="url(#paint9_radial_296_9)" fill-opacity="0.7"/>
</g>
<g clip-path="url(#clip0_296_9)">
<g opacity="0.71">
<path d="M150.897 336.198C206.069 355.198 272.881 306.469 300.125 227.358C327.369 148.248 304.729 68.7133 249.557 49.7132C194.385 30.7132 127.574 79.4424 100.33 158.553C73.0857 237.664 95.7256 317.198 150.897 336.198Z" fill="url(#paint10_radial_296_9)" fill-opacity="0.7" style="mix-blend-mode:screen"/>
</g>
<path d="M231.563 61.3572C231.563 61.3572 214.039 118.175 201.308 125.789C188.583 133.385 151.143 147.683 138.293 172.215C127.545 192.722 129.235 275.447 130.061 301.915C130.238 307.271 132.912 312.227 137.316 315.277C147.037 322.029 165.425 333.09 182.661 334.045C188.487 334.371 193.998 331.456 197.253 326.651C210.541 307.146 248.574 249.91 255.88 223.805C264.767 192.067 242.962 161.757 245.274 139.754C247.587 117.75 267.693 73.7995 267.693 73.7995L231.544 61.3507L231.563 61.3572Z" fill="url(#paint11_linear_296_9)"/>
<path d="M154.598 163.457C154.598 163.457 172.487 149.486 186.77 146.294C201.054 143.101 199.494 151.117 211.867 154.937C224.241 158.757 230.482 158.489 232.418 155.437C234.354 152.384 238.462 157.518 238.462 157.518C238.462 157.518 245.214 177.6 242.984 177.715C240.754 177.829 193.448 173.137 189.819 173.338C186.191 173.538 154.61 163.482 154.61 163.482L154.598 163.457Z" fill="#5600CC"/>
<path d="M219.064 123.583C223.212 120.22 232.168 130.722 226.225 134.097C220.282 137.472 210.329 130.661 219.064 123.583Z" fill="#9700FF"/>
<path d="M233.272 118.956C230.449 117.123 232.608 113.18 235.801 113.691C238.995 114.203 238.572 122.4 233.272 118.956Z" fill="#9700FF"/>
<path style="mix-blend-mode:multiply" opacity="0.25" d="M154.159 321.225C140.819 314.34 115.308 288.555 162.599 303.076C209.903 317.622 194.811 342.243 154.159 321.225Z" fill="url(#paint12_linear_296_9)"/>
<path d="M165.697 309.858C197.977 319.231 243.601 243.133 250.075 217.729C255.078 198.123 245.392 172.618 239.192 158.883C236.393 153.128 231.43 149.317 234.088 158.66C236.728 167.995 225.563 168.921 226.334 162.462C227.087 155.996 225.786 146.197 220.198 144.567C214.61 142.937 210.507 159.07 191.76 154.8C173.308 150.589 155.174 163.067 154.617 163.463C149.847 167.957 145.766 173.507 142.816 180.791C131.18 209.503 133.417 300.486 165.716 309.865L165.697 309.858Z" fill="url(#paint13_linear_296_9)"/>
<g style="mix-blend-mode:multiply" opacity="0.18">
<path d="M145.736 182.953C136.911 206.622 133.018 241.531 149.58 231.537C166.142 221.543 188.248 235.628 177.956 245.091C167.669 254.535 163.878 238.331 166.503 238.352C166.503 238.352 156.605 248.687 166.376 252.052C176.148 255.417 181.551 249.082 183.816 259.508C186.08 269.933 141.438 260.989 156.738 239.066C156.738 239.066 150.692 250.202 142.961 238.588C142.961 238.588 132.468 248.633 145.447 257.726C158.427 266.819 171.11 258.915 173.365 271.081C175.62 283.247 159.809 268.493 151.181 267.434C142.553 266.374 147.872 293.003 159.782 300.614C171.693 308.225 187.69 307.64 186.134 298.152C184.572 288.683 171.938 282.441 170.419 290.029C170.419 290.029 176.333 284.417 181.032 296.395C185.712 308.367 161.075 292.275 163.763 286.182C166.451 280.089 181.552 283.02 183.911 287.3C183.911 287.3 184.488 279.387 189.909 280.771C195.329 282.154 189.956 299.468 189.956 299.468C189.956 299.468 195.099 289.304 202.355 289.638C209.611 289.972 220.751 254.996 199.901 258.176C179.058 261.337 202.289 283.164 206.208 269.278C206.208 269.278 200.636 271.941 197.152 266.16C193.667 260.379 211.841 260.564 207.498 274.031C203.162 287.478 184.193 271.805 186.261 266.717C188.329 261.629 193.093 246.879 201.401 249.173C209.709 251.467 223.029 261.16 215.64 272.527C215.64 272.527 241.3 246.817 226.429 231.168C211.54 215.512 202.174 234.33 202.174 234.33C202.174 234.33 211.544 226.63 219.414 232.702C227.284 238.775 200.906 245.472 195.809 239.052C190.719 232.613 204.224 201.897 227.324 214.811C250.416 227.744 246.693 165.354 226.968 168.206C207.242 171.058 218.697 197.236 218.697 197.236C218.697 197.236 216.17 181.215 225.181 181.649C234.186 182.103 241.29 200.919 235.428 205.036C229.567 209.154 209.09 203.3 213.089 188.875C213.089 188.875 194.588 211.166 183.899 202.21C173.203 193.274 186.307 170.573 196.628 170.324C206.961 170.1 206.872 179.715 202.266 186.303C197.653 192.91 195.997 177.966 195.997 177.966C195.997 177.966 182.787 191.678 193.983 194.21C205.179 196.741 219.868 172.738 215.11 163.072C210.351 153.406 186.278 172.308 176.59 168.089C166.902 163.87 166.247 159.841 166.247 159.841C166.247 159.841 176.008 176.567 168.039 185.275C160.051 193.977 161.282 165.759 161.282 165.759C161.282 165.759 144.986 187.759 159.966 195.629C174.947 203.498 187.003 205.549 172 214.44C156.997 223.332 137.742 211.973 147.694 206.07C157.645 200.167 162.097 211.03 162.097 211.03C162.097 211.03 165.244 195.408 148.44 199.623C148.44 199.623 149.559 172.523 145.711 182.902L145.736 182.953Z" fill="#6D15FF"/>
</g>
<path style="mix-blend-mode:color-dodge" opacity="0.21" d="M242.373 51.1897C242.373 51.1897 225.831 120.933 204.549 135.521C183.26 150.128 154.451 152.08 142.816 180.791C131.18 209.503 133.417 300.486 165.716 309.865C198.014 319.244 244.264 244.875 250.093 217.736C258.126 180.345 234.602 155.516 237.78 138.644C240.965 121.753 266.01 61.7465 266.01 61.7465L242.385 51.215L242.373 51.1897Z" fill="url(#paint14_linear_296_9)"/>
<path d="M222.174 188.914C223.44 182.731 215.006 168.205 210.632 170.755C206.258 173.304 220.868 195.273 222.174 188.914Z" fill="white"/>
<path style="mix-blend-mode:multiply" opacity="0.25" d="M231.563 61.3572C231.563 61.3572 214.039 118.175 201.308 125.789C188.583 133.385 151.143 147.683 138.293 172.215C127.545 192.722 129.235 275.447 130.061 301.915C130.238 307.271 132.912 312.227 137.316 315.277C147.037 322.029 165.425 333.09 182.661 334.045C188.487 334.371 193.998 331.456 197.253 326.651C205.218 314.958 222.098 289.671 235.9 265.677C183.748 349.907 135.566 313.876 148.991 234.654C162.416 155.432 198.856 165.565 214.633 137.67C230.391 109.769 237.132 81.3891 237.132 81.3891C254.205 91.072 262.405 85.9738 262.405 85.9738C265.469 78.6655 267.693 73.7995 267.693 73.7995L231.544 61.3507L231.563 61.3572Z" fill="url(#paint15_linear_296_9)"/>
<path style="mix-blend-mode:multiply" opacity="0.25" d="M160.334 182.391C160.334 182.391 147.74 218.778 149.675 256.03C149.675 256.03 172.317 275.406 206.148 281.803C206.148 281.803 224.537 262.835 226.981 253.17C226.981 253.17 207.184 248.096 191.02 208.256C174.856 168.416 160.334 182.391 160.334 182.391Z" fill="url(#paint16_linear_296_9)"/>
<path d="M162.002 181.095C162.002 181.095 149.408 217.482 151.342 254.734C151.342 254.734 173.985 274.11 207.816 280.507C207.816 280.507 226.205 261.539 228.649 251.874C228.649 251.874 208.852 246.8 192.688 206.96C176.523 167.12 162.002 181.095 162.002 181.095Z" fill="url(#paint17_linear_296_9)"/>
<path d="M169.927 178.57C169.927 178.57 176.751 167.745 194.21 164.259C211.668 160.773 214.281 162.114 222.544 170.655C230.801 179.214 243.754 197.922 241.861 215.468C239.967 233.014 226.204 246.01 215.832 239.496C205.479 232.989 169.908 178.564 169.908 178.564L169.927 178.57Z" fill="url(#paint18_linear_296_9)"/>
<g style="mix-blend-mode:multiply" opacity="0.28">
<path d="M206.354 221.459C204.323 219.1 204.612 210.983 210.461 204.886C216.309 198.788 226.546 192.668 228.681 196.682C230.81 200.714 225.172 213.23 221.39 217.853C217.608 222.477 208.765 224.244 206.36 221.44L206.354 221.459Z" fill="#DD402E"/>
</g>
<g style="mix-blend-mode:multiply" opacity="0.28">
<path d="M195.811 214.403C195.811 214.403 199.326 216.916 200.06 209.709C200.794 202.502 198.895 184.533 193.988 184.166C190.376 183.889 183.409 192.564 184.919 200.103C186.43 207.642 195.83 214.409 195.83 214.409L195.811 214.403Z" fill="#DD402E"/>
</g>
<g style="mix-blend-mode:multiply" opacity="0.28">
<path d="M237.366 201.795C233.467 199.234 232.975 190.511 232.975 190.511C231.026 199.717 235.434 205.08 235.434 205.08C235.434 205.08 223.515 214.74 231.274 221.257C239.033 227.775 229.446 241.242 223.666 239.252C217.886 237.261 221.856 230.076 216.76 228.972C212.293 228.001 210.616 233.055 210.283 234.328C212.514 236.777 214.43 238.614 215.851 239.502C226.204 246.01 239.986 233.02 241.879 215.474C242.796 206.88 240.165 198.01 236.264 190.194C236.522 190.913 241.165 204.28 237.372 201.776L237.366 201.795Z" fill="#DD402E"/>
</g>
<g style="mix-blend-mode:multiply" opacity="0.28">
<path d="M169.927 178.57C169.927 178.57 178.835 192.208 189.033 206.626L185.085 197.786C185.085 197.786 173.124 182.802 179.919 184.596C186.714 186.39 191.872 178.08 191.872 178.08C191.872 178.08 174.792 179.363 182.34 172.002C189.805 164.696 204.688 162.635 205.022 162.582C202.168 162.797 198.688 163.364 194.254 164.253C176.801 167.72 169.971 178.565 169.971 178.565L169.927 178.57Z" fill="#DD402E"/>
</g>
<path d="M206.354 221.459C204.323 219.1 204.612 210.983 210.461 204.886C216.309 198.788 226.546 192.668 228.681 196.682C230.81 200.714 225.172 213.23 221.39 217.853C217.608 222.477 208.765 224.244 206.36 221.44L206.354 221.459Z" fill="url(#paint19_linear_296_9)"/>
<path d="M195.811 214.403C195.811 214.403 199.326 216.916 200.06 209.709C200.794 202.502 198.895 184.533 193.988 184.166C190.376 183.889 183.409 192.564 184.919 200.103C186.43 207.642 195.83 214.409 195.83 214.409L195.811 214.403Z" fill="url(#paint20_linear_296_9)"/>
<g style="mix-blend-mode:multiply" opacity="0.28">
<path d="M209.435 219.179C212.695 219.923 220.49 215.148 223.867 205.341C227.224 195.591 224.725 195.571 224.7 195.584C220.599 196.483 214.472 200.698 210.454 204.904C208.414 207.038 207.07 209.412 206.255 211.717C206.245 212.112 206.262 218.485 209.428 219.198L209.435 219.179Z" fill="#DD402E"/>
</g>
<g style="mix-blend-mode:multiply" opacity="0.28">
<path d="M195.398 184.841C193.745 185.239 191.912 186.709 190.203 190.386C185.174 201.137 197.071 216.98 200.06 209.709C200.705 203.249 199.239 188.181 195.398 184.841Z" fill="#DD402E"/>
</g>
<path style="mix-blend-mode:multiply" opacity="0.28" d="M210.461 204.886C214.479 200.68 220.599 196.483 224.706 195.565C211.292 187.184 213.536 195.774 207.857 194.406C202.178 193.039 205.431 187.876 202.29 186.353C199.15 184.831 195.417 184.848 195.417 184.848C199.264 188.169 200.724 203.255 200.079 209.716C208.404 196.486 205.696 213.584 205.696 213.584C206.422 210.744 207.873 207.63 210.473 204.911L210.461 204.886Z" fill="url(#paint21_linear_296_9)"/>
<path style="mix-blend-mode:multiply" opacity="0.28" d="M231.274 221.257C239.033 227.775 229.446 241.242 223.666 239.252C217.886 237.261 221.856 230.076 216.76 228.972C212.293 228.001 210.616 233.055 210.283 234.328C212.514 236.777 214.43 238.614 215.851 239.502C226.204 246.01 239.986 233.02 241.879 215.474C242.023 214.2 242.054 212.887 242.035 211.598C241.285 217.749 237.857 223.545 233.972 219.539C228.702 214.11 235.46 205.068 235.46 205.068L231.104 209.767C228.724 213.129 227.02 217.649 231.3 221.245L231.274 221.257Z" fill="url(#paint22_linear_296_9)"/>
<path style="mix-blend-mode:screen" d="M193.671 172.794C197.014 181.615 223.246 193.507 227.536 193.219C231.782 192.937 232.936 183.164 225.093 173.465C224.221 172.451 223.349 171.499 222.544 170.654C216.377 164.286 213.358 161.922 204.985 162.569C204.985 162.569 190.315 163.947 193.678 172.775L193.671 172.794Z" fill="url(#paint23_linear_296_9)"/>
<path d="M169.336 187.991C169.336 187.991 161.555 199.454 174.165 229.434C186.769 259.432 186.71 258.991 190.301 258.043C193.892 257.094 219.181 244.936 219.181 244.936C219.181 244.936 184.637 200.615 182.18 196.806C179.722 192.997 169.355 187.998 169.355 187.998L169.336 187.991Z" fill="#FF006F"/>
<g style="mix-blend-mode:multiply" opacity="0.28">
<path d="M224.824 250.2C218.297 246.649 204.525 236.127 192.688 206.96C176.523 167.12 162.002 181.095 162.002 181.095C162.002 181.095 153.386 205.992 151.5 235.686C151.577 235.461 157.75 215.459 176.739 218.72C195.848 222.002 218.138 265.212 207.816 280.507C207.816 280.507 217.173 270.827 223.426 261.78L224.824 250.2Z" fill="#DD402E"/>
</g>
<path d="M198.854 217.553C198.854 217.553 201.764 211.242 201.545 215.915C201.545 215.915 204.725 211.757 201.695 220.8C198.665 229.844 198.854 217.553 198.854 217.553Z" fill="url(#paint24_linear_296_9)"/>
<g style="mix-blend-mode:multiply" opacity="0.28">
<path d="M198.854 217.553C198.854 217.553 201.764 211.242 201.545 215.915C201.545 215.915 204.725 211.757 201.695 220.8C198.665 229.844 198.854 217.553 198.854 217.553Z" fill="#DD402E"/>
</g>
<path d="M126.359 180.083C126.359 180.083 141.6 165.18 164.541 170.664C164.541 170.664 186.906 186.75 195.462 207.895C204.011 229.058 233.374 252.892 233.374 252.892C233.374 252.892 236.336 265.512 229.151 277.201C229.151 277.201 220.798 270.268 214.195 251.772C207.592 233.275 182.101 201.255 172.031 194.719C161.962 188.184 152.046 192.943 126.359 180.083Z" fill="url(#paint25_linear_296_9)"/>
<path style="mix-blend-mode:screen" opacity="0.78" d="M255.892 223.83C264.779 192.092 242.974 161.783 245.287 139.779C247.497 118.623 266.163 77.2023 267.609 74.0437L251.789 71.1175C251.789 71.1175 229.856 138.353 221.47 154.083C213.308 169.344 191.094 168.292 182.052 208.551C173.029 248.816 197.309 313.768 244.39 250.381C249.735 240.181 253.951 230.874 255.904 223.856L255.892 223.83Z" fill="url(#paint26_linear_296_9)"/>
<path opacity="0.72" d="M251.252 200C246.48 200.71 218.889 184.694 229.785 174.64C240.682 164.587 265.998 197.786 251.252 200Z" fill="white"/>
<g style="mix-blend-mode:multiply" opacity="0.28">
<path d="M217.408 251.491C213.092 243.722 214.316 244.143 189.931 210.319C165.545 176.494 138.414 182.932 144.648 175.287C150.055 168.638 161.065 170.055 163.869 170.537C141.314 165.522 126.359 180.083 126.359 180.083C152.046 192.943 161.981 188.19 172.031 194.719C182.082 201.249 207.592 233.275 214.195 251.772C220.798 270.268 229.151 277.201 229.151 277.201C235.013 267.641 234.112 257.475 233.596 254.082C232.69 279.218 221.719 259.217 217.427 251.498L217.408 251.491Z" fill="#DD402E"/>
</g>
<path d="M168.154 230.011L185.065 224.508L180.326 222.246L166.409 227.435L169.048 219.77L154.765 233.175L173.85 234.263L168.154 230.011Z" fill="#862924"/>
<g style="mix-blend-mode:multiply" opacity="0.25">
<path d="M221.78 89.2776C221.78 89.2776 229.052 105.525 254.269 103.912L221.78 89.2776Z" fill="#002AAE"/>
</g>
<path d="M230.511 41.0526L226.277 57.0152C224.979 61.9476 226.946 67.1219 231.131 70.0131C237.837 74.6341 248.759 80.8332 260.709 82.1536C265.885 82.7174 270.836 79.7781 272.92 75.0112L279.415 60.1849C281.326 55.7995 280.53 50.6502 277.206 47.215C271.912 41.7353 261.71 34.5445 243.385 32.2266C237.493 31.4793 232.012 35.3494 230.485 41.0649L230.511 41.0526Z" fill="#B00077"/>
<path style="mix-blend-mode:multiply" opacity="0.56" d="M236.913 64.2922C237.18 59.9082 239.009 40.5328 250.05 41.3094C261.099 42.0672 279.816 51.5602 279.835 51.5667C279.308 49.9773 278.435 48.4786 277.212 47.1962C271.937 41.723 261.716 34.5257 243.392 32.2078C237.5 31.4605 232.018 35.3306 230.492 41.0461L226.258 57.0087C224.96 61.9411 226.927 67.1154 231.112 70.0066C237.818 74.6276 248.741 80.8267 260.69 82.1471C264.42 82.5699 267.99 81.1307 270.507 78.5303C256.474 81.2415 236.608 68.6632 236.875 64.2792L236.913 64.2922Z" fill="url(#paint27_linear_296_9)"/>
<path d="M223.445 84.8709C223.445 84.8709 224.715 91.1502 241.055 96.357C257.401 101.545 258.018 98.1011 258.018 98.1011C258.018 98.1011 258.711 102.879 255.688 103.582C252.666 104.285 243.064 101.714 237.668 99.7087C232.272 97.7034 215.638 89.6213 223.445 84.8709Z" fill="#B00077"/>
<path d="M253.674 102.153C253.674 102.153 252.421 128.787 280.362 155.283C280.362 155.283 283.713 155.765 284.081 153.412C284.081 153.412 256.336 128.853 255.689 102.846L253.656 102.146L253.674 102.153Z" fill="#B00077"/>
<path d="M255.706 100.961C255.706 100.961 250.724 121.604 287.45 143.75C287.45 143.75 290.029 141.276 288.374 139.235C288.374 139.235 258.048 124.127 257.708 101.63L255.713 100.943L255.706 100.961Z" fill="#B00077"/>
<path d="M293.212 115.769C276.243 100.28 256.892 101.37 256.892 101.37C256.892 101.37 257.519 118.691 272.18 125.043C286.834 131.413 310.18 131.258 293.212 115.769ZM276.483 124.045C261.429 117.978 258.672 102.991 258.672 102.991C258.672 102.991 277.257 106.996 288.213 115.791C299.149 124.58 291.543 130.093 276.483 124.045Z" fill="#B00077"/>
<path d="M294.672 83.0906C285.248 82.3249 255.725 100.968 255.725 100.968L255.415 101.869C294.808 104.467 304.103 83.8376 294.672 83.0906ZM258.441 100.726C258.441 100.726 284.66 86.6614 290.117 88.2463C295.573 89.8311 281.474 101.051 258.441 100.726Z" fill="#B00077"/>
<path style="mix-blend-mode:multiply" opacity="0.56" d="M261.998 115.715C260.846 113.617 259.425 110.711 259.025 108.387C258.725 106.75 259.68 107.646 260.917 109.312C259.182 105.73 258.672 102.991 258.672 102.991C258.672 102.991 265.376 104.438 273.085 107.493C270.284 106.024 267.949 104.61 267.729 103.904C267.252 102.353 273.625 104.274 275.433 104.834C271.593 103.385 268.025 102.493 265.096 102.01C268.743 101.878 272.045 101.524 275.046 101.002C272.482 101.233 256.963 102.571 271.439 99.6129C271.736 99.5469 272.007 99.4932 272.285 99.4208C268.166 100.251 263.546 100.761 258.428 100.701C258.428 100.701 264.882 97.2497 272.046 93.9379C262.333 97.1285 276.026 89.7189 281.334 86.9029C272.496 90.8569 262.5 96.7657 258.049 99.4777C258.069 98.686 257.987 98.0693 257.987 98.0693C257.987 98.0693 257.841 98.9224 255.679 99.1447C255.853 100.108 255.652 101.363 253.662 102.127C250.086 103.523 230.058 96.1212 228.742 94.1339C227.425 92.1466 231.19 92.224 231.19 92.224C224.156 88.3097 223.432 84.8455 223.432 84.8455C215.619 89.6147 232.26 97.678 237.656 99.6833C242.154 101.359 249.596 103.417 253.686 103.649C253.777 106.013 254.228 111.064 256.231 117.722C254.099 107.279 255.635 109.3 257.094 112.282C257.039 112.074 256.959 111.879 256.923 111.677C257.04 112.011 257.168 112.371 257.304 112.712C257.983 114.164 258.605 115.661 258.758 116.071C255.443 105.578 259.53 111.629 261.998 115.715Z" fill="url(#paint28_linear_296_9)"/>
</g>
<g clip-path="url(#clip1_296_9)">
<path d="M303.007 500.029C351.052 500.029 390 461.071 390 413.015C390 364.958 351.052 326 303.007 326C254.962 326 216.014 364.958 216.014 413.015C216.014 461.071 254.962 500.029 303.007 500.029Z" fill="url(#paint29_radial_296_9)" fill-opacity="0.7" style="mix-blend-mode:screen"/>
<path style="mix-blend-mode:screen" d="M318.539 428.551C328.15 418.937 328.15 403.351 318.539 393.737C308.928 384.124 293.345 384.124 283.734 393.737C274.123 403.351 274.123 418.937 283.734 428.551C293.345 438.164 308.928 438.164 318.539 428.551Z" fill="url(#paint30_radial_296_9)"/>
<path d="M159.329 660.062C163.269 655.935 164.223 646.969 164.447 641.77C164.54 639.386 163.372 637.133 161.348 635.838L160.914 635.562C158.885 634.267 156.32 634.137 154.198 635.23C153.282 635.707 152.282 636.25 151.23 636.881C144.141 641.032 134.719 648.385 141.673 655.556C141.673 655.556 76.4774 751.438 52.521 783.867C48.4503 789.416 45.5294 793.095 44.3704 794.151L56.1196 798.597L58.2367 800.195L66.5742 808.329C67.336 805.8 72.9396 795.479 80.964 781.445C105.159 738.817 151.314 661.708 151.314 661.708C154.843 662.942 157.437 662.072 159.334 660.062H159.329Z" fill="#AB2F39"/>
<path d="M149.038 660.254C149.038 660.254 65.6021 795.479 61.3305 804.978L57.5403 799.728L56.47 798.816L49.6 797.484C56.4186 789.612 143.94 656.996 143.94 656.996C140.374 651.596 151.305 641.303 156.614 636.782C158.268 635.375 159.932 634.941 160.998 635.623L161.236 635.777C162.306 636.46 162.61 638.152 162.031 640.246C160.166 646.969 155.432 661.217 149.034 660.254H149.038Z" fill="url(#paint31_linear_296_9)"/>
<g style="mix-blend-mode:overlay" opacity="0.35">
<path d="M141.182 663.517C124.558 689.994 60.751 793.45 56.4373 801.345L55.3578 797.83L54.9138 797.316L50.974 797.858C56.3205 790.622 123.432 688.901 140.448 662.671L141.177 663.522L141.182 663.517Z" fill="#FFFF8A"/>
</g>
<g style="mix-blend-mode:multiply">
<path d="M66.5695 808.325C67.3313 805.796 72.9349 795.474 80.9593 781.44C70.4252 787.349 59.0358 785.657 52.521 783.862C48.4503 789.411 45.5294 793.09 44.3704 794.146L56.1196 798.592L58.2367 800.191L66.5742 808.325H66.5695Z" fill="#AB2F39"/>
</g>
<path d="M41.9988 813.054L29.8353 832.108L38.2568 837.487L50.4204 818.433L41.9988 813.054Z" fill="url(#paint32_linear_296_9)"/>
<g style="mix-blend-mode:multiply" opacity="0.5">
<path d="M38.2807 837.452L50.4412 818.398L47.5483 816.552C47.4362 816.725 47.3287 816.898 47.2258 817.122C43.2253 824.349 37.575 825.92 33.7381 825.995L29.8591 832.077L38.2807 837.457V837.452Z" fill="#D1810D"/>
</g>
<path d="M179.954 625.83C182.823 616.737 186.627 606.247 188.59 600.937C189.343 598.931 188.572 596.688 186.749 595.524C184.954 594.378 182.594 594.626 181.066 596.131C179.542 597.688 177.421 599.796 174.962 602.18C171.102 605.995 166.475 610.497 162.152 614.461C157.147 619.047 151.188 621.805 150.305 624.217C148.066 630.532 157.553 636.221 159.932 637.54C161.68 638.82 167.793 642.967 172.621 642.303L172.649 642.322C173.901 642.144 175.084 641.635 176.065 640.672C177.907 638.872 177.902 632.304 179.954 625.834V625.83Z" fill="#AB2F39"/>
<path d="M171.2 637.554C166.905 642.546 161.269 638.601 159.937 637.549C158.423 636.787 152.473 633.333 155.193 627.33C156.24 625.021 161.068 621.562 165.522 616.602C171.761 609.655 178.902 601.292 182.496 597.048C183.865 595.43 185.637 594.804 186.758 595.519C187.885 596.239 188.057 598.109 187.17 600.03C184.833 605.079 180.253 615.078 176.579 623.661C173.957 629.789 172.85 635.628 171.2 637.544V637.554Z" fill="url(#paint33_linear_296_9)"/>
<g style="mix-blend-mode:overlay" opacity="0.64">
<path d="M143.968 656.379C139.617 653.167 148.954 645.716 152.571 642.654C153.698 641.7 154.838 641.41 155.572 641.883L155.735 641.985C156.469 642.453 156.684 643.608 156.296 645.033C155.044 649.605 151.539 661.297 147.473 658.618L143.968 656.379Z" fill="#FFFF8A"/>
</g>
<path d="M39.9372 865.731C46.4882 855.47 43.6443 841.942 33.5851 835.517C23.5259 829.093 10.0606 832.203 3.50959 842.465C-3.04145 852.727 -0.197523 866.254 9.86168 872.679C19.9209 879.104 33.3861 875.993 39.9372 865.731Z" fill="url(#paint34_linear_296_9)"/>
<path style="mix-blend-mode:screen" d="M28.5255 863.359C33.0639 856.247 31.092 846.874 24.1211 842.423C17.1503 837.973 7.82019 840.13 3.28183 847.242C-1.25654 854.354 0.715408 863.727 7.68627 868.178C14.6571 872.628 23.9872 870.471 28.5255 863.359Z" fill="url(#paint35_radial_296_9)"/>
<path style="mix-blend-mode:screen" d="M27.86 863.001C32.3996 855.89 30.4293 846.516 23.4593 842.064C16.4892 837.612 7.1587 839.768 2.6191 846.879C-1.92051 853.99 0.0498006 863.364 7.01989 867.816C13.99 872.268 23.3204 870.112 27.86 863.001Z" fill="url(#paint36_radial_296_9)"/>
<path d="M71.9394 811.466C70.5747 807.988 66.8826 802.982 58.1805 796.89C57.0916 796.236 56.0681 795.666 55.0586 795.142C47.6418 791.183 42.4168 790.369 39.136 790.598C37.2058 790.753 35.7897 792.333 35.6355 794.231C34.9485 802.266 37.0422 808.498 38.8883 812.242C39.8323 814.149 41.2718 815.72 43.0383 816.847C43.3001 817.015 43.5291 817.16 43.8095 817.3C44.146 817.473 44.5105 817.669 44.8657 817.814C46.9501 819.717 49.642 820.867 52.4648 820.914C56.6383 821.012 63.1999 820.311 70.2382 816.244C71.8506 815.318 72.6077 813.233 71.944 811.466H71.9394Z" fill="url(#paint37_linear_296_9)"/>
<path d="M35.4159 832.366C32.336 830.361 25.6716 827.776 18.8062 828.893L18.7782 828.874C13.1466 829.842 7.3935 833.301 3.39764 841.674C3.39764 841.674 13.9878 847.171 20.3625 841.585C20.3625 841.585 14.0252 849.724 21.2411 854.576L21.2224 854.604L21.4561 854.754L21.4748 854.726C28.9384 859.246 33.654 850.074 33.654 850.074C31.2424 858.194 40.6876 865.487 40.6876 865.487C40.9026 865.216 41.1129 864.944 41.3279 864.673C53.4089 849.195 42.1364 836.784 35.4206 832.371L35.4159 832.366Z" fill="url(#paint38_linear_296_9)"/>
<g style="mix-blend-mode:screen" opacity="0.35">
<path d="M34.3783 833.741C31.7612 832.072 25.6576 829.431 19.367 830.137L18.7361 830.202C13.6046 831.011 9.61339 834.003 6.85602 839.107C9.77229 840.313 15.9787 842.174 20.1381 839.491C21.0542 838.902 23.8442 837.275 23.8442 837.275C23.8209 837.308 20.0026 844.651 20.6662 847.727C20.9654 849.116 21.8486 850.285 23.3722 851.304L23.5358 851.406C25.1154 852.369 26.5595 852.683 27.9523 852.369C31.0228 851.673 35.4673 844.806 35.486 844.773C35.486 844.773 35.4439 848.293 35.3551 849.466C34.9812 854.394 39.2248 859.124 41.5475 861.265C44.8704 856.862 46.0621 852.327 45.076 847.788C43.7627 841.739 38.7387 836.597 34.4671 833.802L34.3737 833.741H34.3783Z" fill="#FFDF46"/>
</g>
<path d="M22.1665 853.136C22.1992 853.183 22.2366 853.197 22.2786 853.22C22.3207 853.248 22.3488 853.276 22.3908 853.304C27.2045 856.184 30.8405 853.594 32.8735 851.285C31.2565 853.622 27.1718 858.161 21.4748 854.73C21.4234 854.721 21.3907 854.693 21.3533 854.665C21.3112 854.637 21.2738 854.627 21.2318 854.599C15.7357 850.86 18.1286 845.241 19.568 842.791C18.3342 845.605 17.5163 849.995 22.1618 853.131L22.1665 853.136Z" fill="#FFDF46"/>
<path d="M21.157 840.038C21.157 840.038 20.6242 840.73 20.0447 841.814C13.6373 846.975 3.40234 841.688 3.40234 841.688C3.66873 841.127 3.96784 840.659 4.24825 840.14C5.99147 840.973 15.3478 845.077 21.157 840.033V840.038Z" fill="#FFDF46"/>
<path d="M34.7102 848.69C32.5744 856.09 40.2576 862.864 41.7345 864.084C41.384 864.556 41.0802 865.019 40.6829 865.496C40.6829 865.496 31.5789 858.432 33.5652 850.443C34.3083 849.462 34.7102 848.69 34.7102 848.69Z" fill="#FFDF46"/>
<path d="M303.718 414.179C304.419 412.954 302.825 411.939 302.012 413.089C288.487 432.045 263.839 466.764 240.116 500.361C209.28 544.009 180.052 585.786 178.753 588.586C175.897 594.916 182.65 599.268 183.903 599.988C184.693 600.535 187.819 602.531 191.151 602.419C192.96 602.391 194.834 601.755 196.437 599.885C199.994 595.715 277.322 460.71 303.718 414.188V414.179Z" fill="#AB2F39"/>
<path d="M192.465 597.337C188.319 602.83 184.557 600.469 183.907 599.997C183.202 599.605 179.482 597.183 182.716 591.111C185.277 586.305 272.363 457.532 302.39 413.323C303.175 412.168 304.049 412.725 303.33 413.921C275.877 459.775 195.745 592.985 192.465 597.333V597.337Z" fill="url(#paint39_linear_296_9)"/>
<g style="mix-blend-mode:multiply" opacity="0.5">
<path d="M71.9394 811.466C70.5747 807.988 66.8826 802.982 58.1806 796.89C57.0916 796.236 56.0681 795.666 55.0587 795.142C57.101 799.097 58.7367 804.379 56.8252 809.232C53.1425 818.576 41.9588 815.795 41.9588 815.795L43.8095 817.3C44.146 817.473 44.5105 817.669 44.8657 817.814C46.9501 819.717 49.6421 820.867 52.4649 820.914C56.6383 821.012 63.1999 820.311 70.2382 816.244C71.8506 815.318 72.6077 813.233 71.9441 811.466H71.9394Z" fill="#D1810D"/>
</g>
<g style="mix-blend-mode:multiply" opacity="0.5">
<path d="M35.4159 832.366C32.336 830.361 25.6716 827.776 18.8062 828.893C40.1315 834.358 41.4868 856.946 41.3232 864.669C53.4042 849.191 42.1317 836.779 35.4159 832.366Z" fill="#D1810D"/>
</g>
<path d="M8.54786 864.416C9.64613 863.715 9.64613 861.742 8.54319 860.008C7.44024 858.274 5.65495 857.437 4.55201 858.133C3.45373 858.834 3.45373 860.807 4.55668 862.542C5.65963 864.276 7.44491 865.113 8.54786 864.416Z" fill="white"/>
<path d="M8.51981 856.46C9.19747 856.03 9.19279 854.819 8.51981 853.753C7.84682 852.687 6.74387 852.173 6.07089 852.603C5.39323 853.033 5.3979 854.244 6.07089 855.31C6.74387 856.376 7.84682 856.89 8.51981 856.46Z" fill="white"/>
<g style="mix-blend-mode:screen" opacity="0.35">
<path d="M37.4021 806.23C36.8366 803.814 36.9207 801.182 38.0377 798.971C39.1547 796.759 41.4167 795.053 43.8936 794.978C47.1464 794.88 50.0066 797.624 50.8431 800.77C51.675 803.916 50.8431 807.296 49.4084 810.218C48.8195 811.419 48.1138 812.593 47.1277 813.495C42.4729 817.749 38.3368 810.199 37.4068 806.226L37.4021 806.23Z" fill="#FFDF46"/>
</g>
<g style="mix-blend-mode:overlay">
<path d="M38.2293 807.862C37.9863 806.815 38.019 805.674 38.5051 804.716C38.9911 803.758 39.9679 803.019 41.0428 802.986C42.4542 802.944 43.6927 804.131 44.0525 805.496C44.4124 806.862 44.0525 808.325 43.431 809.592C43.1739 810.11 42.8701 810.62 42.4402 811.013C40.4212 812.854 38.6313 809.587 38.2293 807.862Z" fill="white"/>
</g>
<g style="mix-blend-mode:multiply" opacity="0.5">
<path d="M164.447 641.766C164.54 639.382 163.372 637.128 161.348 635.833L160.914 635.558C158.885 634.263 156.32 634.132 154.198 635.226C153.282 635.703 152.282 636.245 151.23 636.876C165.078 640.443 161.316 653.504 159.329 660.062C163.269 655.935 164.223 646.969 164.447 641.77V641.766Z" fill="#AB2F39"/>
</g>
<g style="mix-blend-mode:overlay" opacity="0.64">
<path d="M154.871 630.841C155.558 632.131 157.25 632.416 158.708 632.486C160.166 632.561 161.83 632.669 162.722 633.819C163.797 635.207 163.461 637.755 165.129 638.292C165.952 638.559 166.872 638.082 167.387 637.386C167.901 636.689 168.102 635.82 168.293 634.973C169.597 629.191 170.896 623.408 172.2 617.626C172.429 616.597 172.411 615.143 171.382 614.928C170.798 614.807 170.251 615.209 169.793 615.592C166.517 618.303 163.288 621.052 160.063 623.815C158.021 625.563 153.623 627.503 154.876 630.836L154.871 630.841Z" fill="#FFFF8A"/>
</g>
<g style="mix-blend-mode:multiply" opacity="0.5">
<path d="M179.954 625.83C182.823 616.737 186.627 606.247 188.59 600.937C189.343 598.931 188.572 596.688 186.749 595.524C184.954 594.378 182.594 594.626 181.066 596.131C179.542 597.688 177.421 599.796 174.962 602.18C187.992 600.553 175.939 634.104 172.621 642.298L172.649 642.317C173.901 642.139 175.084 641.63 176.065 640.667C177.907 638.867 177.902 632.299 179.954 625.83Z" fill="#AB2F39"/>
</g>
<g style="mix-blend-mode:overlay" opacity="0.65">
<path d="M160.068 630.934C160.53 630.21 159.956 629.013 158.778 628.265C157.605 627.517 156.278 627.494 155.815 628.218C155.352 628.943 155.927 630.14 157.105 630.888C158.278 631.636 159.605 631.659 160.068 630.934Z" fill="white"/>
</g>
<g style="mix-blend-mode:overlay" opacity="0.65">
<path d="M147.945 656.309C148.407 655.584 147.833 654.387 146.655 653.639C145.482 652.891 144.154 652.868 143.692 653.593C143.229 654.317 143.804 655.514 144.982 656.262C146.155 657.01 147.482 657.033 147.945 656.309Z" fill="white"/>
</g>
<path d="M25.9053 829.356C25.9053 829.356 51.3806 836.326 43.244 860.045C43.244 860.045 55.1287 837.831 25.9053 829.356Z" fill="#FFDF46"/>
<path d="M48.3241 819.128C48.3241 819.128 60.2696 823.405 71.0093 813.962C71.0093 813.962 57.2785 820.376 48.3241 819.128Z" fill="#FFDF46"/>
<g style="mix-blend-mode:overlay" opacity="0.35">
<path d="M183.183 591.387C182.832 591.91 182.463 592.49 182.459 593.065C182.449 594.131 183.716 594.364 184.669 593.855C185.623 593.345 186.394 592.401 187.3 591.746C188.207 591.097 189.474 590.83 189.908 591.672C190.427 592.677 189.366 594.14 188.581 595.29C187.796 596.44 188.146 597.889 189.277 597.936C190.081 597.968 190.039 597.445 190.478 596.561C193.231 591.008 196.138 585.557 198.886 580.004C201.55 574.623 205.298 568.471 207.177 562.88C209.06 557.275 202.69 561.8 194.638 574.268C190.913 580.036 187.001 585.679 183.183 591.382V591.387Z" fill="#FFFF8A"/>
</g>
<g style="mix-blend-mode:overlay" opacity="0.65">
<path d="M185.006 592.663C185.73 591.532 185.828 590.302 185.23 589.919C184.632 589.535 183.557 590.143 182.837 591.274C182.113 592.406 182.015 593.635 182.613 594.019C183.211 594.402 184.286 593.794 185.006 592.663Z" fill="white"/>
</g>
<g style="mix-blend-mode:multiply" opacity="0.5">
<path d="M303.718 414.179C304.419 412.954 302.825 411.939 302.012 413.089C288.487 432.045 263.839 466.764 240.116 500.361C229.764 535.286 198.722 589.475 191.156 602.414C192.965 602.386 194.839 601.75 196.442 599.88C199.998 595.711 277.326 460.706 303.722 414.183L303.718 414.179Z" fill="#AB2F39"/>
</g>
<path d="M331.787 377.356C334.481 377.356 336.666 375.171 336.666 372.476C336.666 369.78 334.481 367.595 331.787 367.595C329.092 367.595 326.908 369.78 326.908 372.476C326.908 375.171 329.092 377.356 331.787 377.356Z" fill="#64DBFF"/>
<g style="mix-blend-mode:screen">
<path d="M314.261 419.643C316.303 419.643 317.958 417.988 317.958 415.946C317.958 413.904 316.303 412.248 314.261 412.248C312.219 412.248 310.564 413.904 310.564 415.946C310.564 417.988 312.219 419.643 314.261 419.643Z" fill="#64DBFF"/>
</g>
<g style="mix-blend-mode:screen">
<path d="M330.151 404.684C331.16 404.684 331.978 403.866 331.978 402.856C331.978 401.847 331.16 401.029 330.151 401.029C329.142 401.029 328.324 401.847 328.324 402.856C328.324 403.866 329.142 404.684 330.151 404.684Z" fill="#64DBFF"/>
</g>
<g style="mix-blend-mode:screen">
<path d="M273.401 355.464C274.41 355.464 275.228 354.646 275.228 353.637C275.228 352.627 274.41 351.809 273.401 351.809C272.391 351.809 271.573 352.627 271.573 353.637C271.573 354.646 272.391 355.464 273.401 355.464Z" fill="#64DBFF"/>
</g>
<g style="mix-blend-mode:screen">
<path d="M356.636 402.193C358.677 402.193 360.333 400.537 360.333 398.495C360.333 396.453 358.677 394.797 356.636 394.797C354.594 394.797 352.939 396.453 352.939 398.495C352.939 400.537 354.594 402.193 356.636 402.193Z" fill="#64DBFF"/>
</g>
<g style="mix-blend-mode:screen">
<path d="M301.133 366.394C301.133 367.577 300.175 368.53 298.997 368.53C297.82 368.53 296.862 367.572 296.862 366.394C296.862 365.216 297.82 364.258 298.997 364.258C300.175 364.258 301.133 365.216 301.133 366.394Z" fill="#64DBFF"/>
</g>
<g style="mix-blend-mode:screen">
<path d="M282.126 405.04C282.126 406.222 281.168 407.176 279.99 407.176C278.812 407.176 277.854 406.218 277.854 405.04C277.854 403.862 278.812 402.903 279.99 402.903C281.168 402.903 282.126 403.862 282.126 405.04Z" fill="#64DBFF"/>
</g>
<g style="mix-blend-mode:screen">
<path d="M307.321 402.254C307.321 403.436 306.363 404.39 305.185 404.39C304.007 404.39 303.049 403.432 303.049 402.254C303.049 401.075 304.007 400.117 305.185 400.117C306.363 400.117 307.321 401.075 307.321 402.254Z" fill="#64DBFF"/>
</g>
<g style="mix-blend-mode:screen" opacity="0.25">
<path d="M322.005 361.696C329.921 361.696 336.339 355.277 336.339 347.359C336.339 339.44 329.921 333.021 322.005 333.021C314.089 333.021 307.671 339.44 307.671 347.359C307.671 355.277 314.089 361.696 322.005 361.696Z" fill="#64DBFF"/>
</g>
<g style="mix-blend-mode:screen" opacity="0.25">
<path d="M273.714 423.402C281.63 423.402 288.047 416.983 288.047 409.065C288.047 401.146 281.63 394.727 273.714 394.727C265.797 394.727 259.38 401.146 259.38 409.065C259.38 416.983 265.797 423.402 273.714 423.402Z" fill="#64DBFF"/>
</g>
<g style="mix-blend-mode:screen" opacity="0.25">
<path d="M309.545 461.108C312.986 461.108 315.775 458.318 315.775 454.876C315.775 451.435 312.986 448.645 309.545 448.645C306.105 448.645 303.316 451.435 303.316 454.876C303.316 458.318 306.105 461.108 309.545 461.108Z" fill="#64DBFF"/>
</g>
</g>
<defs>
<radialGradient id="paint0_radial_296_9" cx="0" cy="0" r="1" gradientUnits="userSpaceOnUse" gradientTransform="translate(480.255 506.817) rotate(-81.6368) scale(27.4513 28.1524)">
<stop stop-color="#EC8331"/>
<stop offset="1" stop-color="#864A1C" stop-opacity="0"/>
</radialGradient>
<radialGradient id="paint1_radial_296_9" cx="0" cy="0" r="1" gradientUnits="userSpaceOnUse" gradientTransform="translate(278.467 722.067) rotate(-81.6368) scale(27.4513 28.1524)">
<stop stop-color="#EC8331"/>
<stop offset="1" stop-color="#864A1C" stop-opacity="0"/>
</radialGradient>
<radialGradient id="paint2_radial_296_9" cx="0" cy="0" r="1" gradientUnits="userSpaceOnUse" gradientTransform="translate(294.651 833.512) rotate(-81.6368) scale(27.4513 28.1524)">
<stop stop-color="#EC8331"/>
<stop offset="1" stop-color="#864A1C" stop-opacity="0"/>
</radialGradient>
<radialGradient id="paint3_radial_296_9" cx="0" cy="0" r="1" gradientUnits="userSpaceOnUse" gradientTransform="translate(359.523 1004.69) rotate(-81.6368) scale(27.4513 28.1524)">
<stop stop-color="#EC8331"/>
<stop offset="1" stop-color="#864A1C" stop-opacity="0"/>
</radialGradient>
<radialGradient id="paint4_radial_296_9" cx="0" cy="0" r="1" gradientUnits="userSpaceOnUse" gradientTransform="translate(238.701 901.388) rotate(-81.6368) scale(24.0639 24.6784)">
<stop stop-color="#EC8331"/>
<stop offset="1" stop-color="#864A1C" stop-opacity="0"/>
</radialGradient>
<radialGradient id="paint5_radial_296_9" cx="0" cy="0" r="1" gradientUnits="userSpaceOnUse" gradientTransform="translate(439.096 562.018) rotate(-81.6368) scale(24.0639 24.6784)">
<stop stop-color="#EC8331"/>
<stop offset="1" stop-color="#864A1C" stop-opacity="0"/>
</radialGradient>
<radialGradient id="paint6_radial_296_9" cx="0" cy="0" r="1" gradientUnits="userSpaceOnUse" gradientTransform="translate(467.546 1018.31) rotate(-81.6368) scale(24.0639 24.6784)">
<stop stop-color="#EC8331"/>
<stop offset="1" stop-color="#864A1C" stop-opacity="0"/>
</radialGradient>
<radialGradient id="paint7_radial_296_9" cx="0" cy="0" r="1" gradientUnits="userSpaceOnUse" gradientTransform="translate(400.682 648.364) rotate(-81.6368) scale(24.0639 24.6784)">
<stop stop-color="#EC8331"/>
<stop offset="1" stop-color="#864A1C" stop-opacity="0"/>
</radialGradient>
<radialGradient id="paint8_radial_296_9" cx="0" cy="0" r="1" gradientUnits="userSpaceOnUse" gradientTransform="translate(359.865 782.936) rotate(-81.6368) scale(17.531 17.9787)">
<stop stop-color="#E8AB55"/>
<stop offset="1" stop-opacity="0"/>
</radialGradient>
<radialGradient id="paint9_radial_296_9" cx="0" cy="0" r="1" gradientUnits="userSpaceOnUse" gradientTransform="translate(357.968 898.515) rotate(-81.6368) scale(17.531 17.9787)">
<stop stop-color="#E8AB55"/>
<stop offset="1" stop-opacity="0"/>
</radialGradient>
<radialGradient id="paint10_radial_296_9" cx="0" cy="0" r="1" gradientUnits="userSpaceOnUse" gradientTransform="translate(200.307 192.426) rotate(19.0027) scale(105.592 151.016)">
<stop stop-color="#FF0EFF"/>
<stop offset="1" stop-color="#990899" stop-opacity="0"/>
</radialGradient>
<linearGradient id="paint11_linear_296_9" x1="154.205" y1="269.231" x2="311.803" y2="35.971" gradientUnits="userSpaceOnUse">
<stop offset="0.17" stop-color="#065E72"/>
<stop offset="1" stop-color="#6ABDFE"/>
</linearGradient>
<linearGradient id="paint12_linear_296_9" x1="160.364" y1="322.164" x2="167.26" y2="302.138" gradientUnits="userSpaceOnUse">
<stop stop-color="white"/>
<stop offset="0.11" stop-color="#CCDCE5"/>
<stop offset="0.24" stop-color="#96B9CA"/>
<stop offset="0.37" stop-color="#689AB2"/>
<stop offset="0.5" stop-color="#42809F"/>
<stop offset="0.63" stop-color="#256D91"/>
<stop offset="0.76" stop-color="#105F86"/>
<stop offset="0.88" stop-color="#045680"/>
<stop offset="1" stop-color="#00547E"/>
</linearGradient>
<linearGradient id="paint13_linear_296_9" x1="160.541" y1="303.67" x2="211.689" y2="155.149" gradientUnits="userSpaceOnUse">
<stop stop-color="#FF38B5"/>
<stop offset="0.22" stop-color="#E52AC7"/>
<stop offset="0.75" stop-color="#AC0BEF"/>
<stop offset="1" stop-color="#9700FF"/>
</linearGradient>
<linearGradient id="paint14_linear_296_9" x1="174.273" y1="264.102" x2="237.079" y2="81.728" gradientUnits="userSpaceOnUse">
<stop stop-color="#EFE2EF"/>
<stop offset="0.23" stop-color="#EBE0EF"/>
<stop offset="0.45" stop-color="#E0D9F1"/>
<stop offset="0.66" stop-color="#CDCFF5"/>
<stop offset="0.86" stop-color="#B3C1FA"/>
<stop offset="1" stop-color="#9DB5FF"/>
</linearGradient>
<linearGradient id="paint15_linear_296_9" x1="284.721" y1="161.093" x2="11.6077" y2="294.655" gradientUnits="userSpaceOnUse">
<stop offset="0.44" stop-color="#002AAE"/>
<stop offset="0.5" stop-color="#042DAF"/>
<stop offset="0.57" stop-color="#1037B3"/>
<stop offset="0.64" stop-color="#2549B9"/>
<stop offset="0.71" stop-color="#4261C3"/>
<stop offset="0.78" stop-color="#6881CF"/>
<stop offset="0.85" stop-color="#96A7DD"/>
<stop offset="0.92" stop-color="#CCD4EE"/>
<stop offset="0.98" stop-color="white"/>
</linearGradient>
<linearGradient id="paint16_linear_296_9" x1="168.879" y1="289.793" x2="193.955" y2="216.979" gradientUnits="userSpaceOnUse">
<stop offset="0.44" stop-color="#002AAE"/>
<stop offset="0.5" stop-color="#042DAF"/>
<stop offset="0.57" stop-color="#1037B3"/>
<stop offset="0.64" stop-color="#2549B9"/>
<stop offset="0.71" stop-color="#4261C3"/>
<stop offset="0.78" stop-color="#6881CF"/>
<stop offset="0.85" stop-color="#96A7DD"/>
<stop offset="0.92" stop-color="#CCD4EE"/>
<stop offset="0.98" stop-color="white"/>
</linearGradient>
<linearGradient id="paint17_linear_296_9" x1="170.547" y1="288.497" x2="195.623" y2="215.683" gradientUnits="userSpaceOnUse">
<stop stop-color="#F4FFBF"/>
<stop offset="0.02" stop-color="#F4F6BB"/>
<stop offset="0.13" stop-color="#F7D4AE"/>
<stop offset="0.24" stop-color="#FAB8A3"/>
<stop offset="0.36" stop-color="#FCA39A"/>
<stop offset="0.49" stop-color="#FD9394"/>
<stop offset="0.65" stop-color="#FE8A91"/>
<stop offset="0.87" stop-color="#FF8890"/>
</linearGradient>
<linearGradient id="paint18_linear_296_9" x1="234.526" y1="189.617" x2="177.991" y2="217.28" gradientUnits="userSpaceOnUse">
<stop stop-color="#FFF1D2"/>
<stop offset="0.36" stop-color="#E5BDB1"/>
<stop offset="1" stop-color="#B55B74"/>
</linearGradient>
<linearGradient id="paint19_linear_296_9" x1="211.791" y1="223.773" x2="222.123" y2="193.772" gradientUnits="userSpaceOnUse">
<stop stop-color="#C35752"/>
<stop offset="0.35" stop-color="#A8423D"/>
<stop offset="0.75" stop-color="#8F2F2A"/>
<stop offset="1" stop-color="#862924"/>
</linearGradient>
<linearGradient id="paint20_linear_296_9" x1="189.289" y1="212.241" x2="198.457" y2="185.621" gradientUnits="userSpaceOnUse">
<stop stop-color="#C35752"/>
<stop offset="0.35" stop-color="#A8423D"/>
<stop offset="0.75" stop-color="#8F2F2A"/>
<stop offset="1" stop-color="#862924"/>
</linearGradient>
<linearGradient id="paint21_linear_296_9" x1="201.605" y1="212.133" x2="212.631" y2="183.526" gradientUnits="userSpaceOnUse">
<stop stop-color="white"/>
<stop offset="0.1" stop-color="#FDF8F8"/>
<stop offset="0.25" stop-color="#FAE7E5"/>
<stop offset="0.42" stop-color="#F5CCC7"/>
<stop offset="0.61" stop-color="#EFA59C"/>
<stop offset="0.81" stop-color="#E67467"/>
<stop offset="1" stop-color="#DD402E"/>
</linearGradient>
<linearGradient id="paint22_linear_296_9" x1="220.831" y1="241.554" x2="229.118" y2="217.489" gradientUnits="userSpaceOnUse">
<stop stop-color="white"/>
<stop offset="0.1" stop-color="#FDF8F8"/>
<stop offset="0.25" stop-color="#FAE7E5"/>
<stop offset="0.42" stop-color="#F5CCC7"/>
<stop offset="0.61" stop-color="#EFA59C"/>
<stop offset="0.81" stop-color="#E67467"/>
<stop offset="1" stop-color="#DD402E"/>
</linearGradient>
<linearGradient id="paint23_linear_296_9" x1="226.123" y1="172.433" x2="199.918" y2="185.248" gradientUnits="userSpaceOnUse">
<stop stop-color="#FFFF52"/>
<stop offset="0.34" stop-color="#9B9B31"/>
<stop offset="0.65" stop-color="#474717"/>
<stop offset="0.86" stop-color="#131306"/>
<stop offset="0.96"/>
</linearGradient>
<linearGradient id="paint24_linear_296_9" x1="198.702" y1="223.741" x2="201.905" y2="214.442" gradientUnits="userSpaceOnUse">
<stop stop-color="#C35752"/>
<stop offset="0.35" stop-color="#A8423D"/>
<stop offset="0.75" stop-color="#8F2F2A"/>
<stop offset="1" stop-color="#862924"/>
</linearGradient>
<linearGradient id="paint25_linear_296_9" x1="192.359" y1="220.695" x2="140.354" y2="246.128" gradientUnits="userSpaceOnUse">
<stop stop-color="#F4FFBF"/>
<stop offset="0.42" stop-color="#F9C6A8"/>
<stop offset="0.81" stop-color="#FD9996"/>
<stop offset="1" stop-color="#FF8890"/>
</linearGradient>
<linearGradient id="paint26_linear_296_9" x1="189.81" y1="163.458" x2="348.927" y2="203.966" gradientUnits="userSpaceOnUse">
<stop offset="0.14"/>
<stop offset="0.26" stop-color="#3A3A00"/>
<stop offset="0.41" stop-color="#757500"/>
<stop offset="0.55" stop-color="#A6A600"/>
<stop offset="0.69" stop-color="#CCCC00"/>
<stop offset="0.81" stop-color="#E8E800"/>
<stop offset="0.92" stop-color="#F9F900"/>
<stop offset="1" stop-color="#FFFF00"/>
</linearGradient>
<linearGradient id="paint27_linear_296_9" x1="227.891" y1="48.5981" x2="275.242" y2="64.9047" gradientUnits="userSpaceOnUse">
<stop offset="0.11" stop-color="#6D2EAE"/>
<stop offset="0.31" stop-color="#6E30AF"/>
<stop offset="0.44" stop-color="#7439B2"/>
<stop offset="0.55" stop-color="#7F47B8"/>
<stop offset="0.65" stop-color="#8D5CC0"/>
<stop offset="0.74" stop-color="#A077CA"/>
<stop offset="0.82" stop-color="#B798D7"/>
<stop offset="0.9" stop-color="#D3C0E6"/>
<stop offset="0.97" stop-color="#F2ECF7"/>
<stop offset="1" stop-color="white"/>
</linearGradient>
<linearGradient id="paint28_linear_296_9" x1="221.802" y1="86.1543" x2="275.516" y2="104.652" gradientUnits="userSpaceOnUse">
<stop stop-color="white"/>
<stop offset="0.03" stop-color="#F2ECF7"/>
<stop offset="0.1" stop-color="#D3C0E6"/>
<stop offset="0.18" stop-color="#B798D7"/>
<stop offset="0.26" stop-color="#A077CA"/>
<stop offset="0.35" stop-color="#8D5CC0"/>
<stop offset="0.45" stop-color="#7F47B8"/>
<stop offset="0.56" stop-color="#7439B2"/>
<stop offset="0.69" stop-color="#6E30AF"/>
<stop offset="0.89" stop-color="#6D2EAE"/>
</linearGradient>
<radialGradient id="paint29_radial_296_9" cx="0" cy="0" r="1" gradientUnits="userSpaceOnUse" gradientTransform="translate(303.007 413.015) scale(86.9928 87.0146)">
<stop stop-color="#59F2FF"/>
<stop offset="1" stop-color="#359199" stop-opacity="0"/>
</radialGradient>
<radialGradient id="paint30_radial_296_9" cx="0" cy="0" r="1" gradientUnits="userSpaceOnUse" gradientTransform="translate(301.136 411.142) scale(24.6107 24.6169)">
<stop stop-color="#59F2FF"/>
<stop offset="0.04" stop-color="#51DDE8"/>
<stop offset="0.15" stop-color="#3EA9B2"/>
<stop offset="0.26" stop-color="#2D7C83"/>
<stop offset="0.37" stop-color="#1F565A"/>
<stop offset="0.49" stop-color="#143639"/>
<stop offset="0.6" stop-color="#0B1E20"/>
<stop offset="0.73" stop-color="#040D0E"/>
<stop offset="0.85" stop-color="#010303"/>
<stop offset="1"/>
</radialGradient>
<linearGradient id="paint31_linear_296_9" x1="102.44" y1="714.769" x2="114.174" y2="722.257" gradientUnits="userSpaceOnUse">
<stop stop-color="#D65238"/>
<stop offset="1" stop-color="#B93530"/>
</linearGradient>
<linearGradient id="paint32_linear_296_9" x1="35.9257" y1="822.559" x2="44.3485" y2="827.936" gradientUnits="userSpaceOnUse">
<stop stop-color="#FFD358"/>
<stop offset="1" stop-color="#FA8F13"/>
</linearGradient>
<linearGradient id="paint33_linear_296_9" x1="165.304" y1="611.48" x2="181.383" y2="621.74" gradientUnits="userSpaceOnUse">
<stop stop-color="#D65238"/>
<stop offset="1" stop-color="#B93530"/>
</linearGradient>
<linearGradient id="paint34_linear_296_9" x1="3.5111" y1="842.411" x2="39.94" y2="865.666" gradientUnits="userSpaceOnUse">
<stop stop-color="#00F2DF"/>
<stop offset="0.15" stop-color="#00EBDF"/>
<stop offset="0.37" stop-color="#00D9DF"/>
<stop offset="0.62" stop-color="#00BBE0"/>
<stop offset="0.9" stop-color="#0092E1"/>
<stop offset="1" stop-color="#0082E2"/>
</linearGradient>
<radialGradient id="paint35_radial_296_9" cx="0" cy="0" r="1" gradientUnits="userSpaceOnUse" gradientTransform="translate(15.9237 855.33) rotate(32.5565) scale(15.1246 15.1262)">
<stop stop-color="white"/>
<stop offset="0.65" stop-color="#575757"/>
<stop offset="1"/>
</radialGradient>
<radialGradient id="paint36_radial_296_9" cx="0" cy="0" r="1" gradientUnits="userSpaceOnUse" gradientTransform="translate(15.2468 854.911) rotate(32.5665) scale(15.1246 15.1262)">
<stop stop-color="white"/>
<stop offset="0.01" stop-color="#F7F7F7"/>
<stop offset="0.13" stop-color="#BEBEBE"/>
<stop offset="0.25" stop-color="#8B8B8B"/>
<stop offset="0.37" stop-color="#606060"/>
<stop offset="0.49" stop-color="#3D3D3D"/>
<stop offset="0.62" stop-color="#222222"/>
<stop offset="0.74" stop-color="#0F0F0F"/>
<stop offset="0.87" stop-color="#030303"/>
<stop offset="1"/>
</radialGradient>
<linearGradient id="paint37_linear_296_9" x1="33.8512" y1="796.214" x2="69.1888" y2="818.764" gradientUnits="userSpaceOnUse">
<stop stop-color="#FFD358"/>
<stop offset="1" stop-color="#FA8F13"/>
</linearGradient>
<linearGradient id="paint38_linear_296_9" x1="35.5609" y1="832.493" x2="21.3639" y2="854.73" gradientUnits="userSpaceOnUse">
<stop stop-color="#FFD358"/>
<stop offset="1" stop-color="#FA8F13"/>
</linearGradient>
<linearGradient id="paint39_linear_296_9" x1="238.761" y1="503.284" x2="248.567" y2="509.542" gradientUnits="userSpaceOnUse">
<stop stop-color="#D65238"/>
<stop offset="1" stop-color="#B93530"/>
</linearGradient>
<clipPath id="clip0_296_9">
<rect width="211.311" height="319.19" fill="white" transform="translate(154.932) rotate(19.0027)"/>
</clipPath>
<clipPath id="clip1_296_9">
<rect width="390" height="550" fill="white" transform="translate(0 326)"/>
</clipPath>
</defs>
</svg>
