<svg width="514" height="1073" viewBox="0 0 514 1073" fill="none" xmlns="http://www.w3.org/2000/svg">
<g clip-path="url(#clip0_6242_15419)">
<path style="mix-blend-mode:screen" d="M496.949 953.738C495.321 965.963 484.093 974.543 471.893 972.915C459.668 971.286 451.09 960.058 452.718 947.857C454.346 935.632 465.574 927.052 477.774 928.681C489.999 930.309 498.578 941.538 496.949 953.738Z" fill="url(#paint0_radial_6242_15419)"/>
<g style="mix-blend-mode:screen">
<path d="M476.826 951.042C476.68 952.135 475.659 952.913 474.565 952.767C473.472 952.621 472.694 951.601 472.84 950.507C472.986 949.413 474.006 948.635 475.1 948.781C476.194 948.927 476.971 949.948 476.826 951.042Z" fill="#F6E6FC"/>
</g>
<path style="mix-blend-mode:screen" d="M518.36 817.197C516.148 833.797 500.886 845.463 484.287 843.251C467.688 841.04 456.022 825.777 458.234 809.177C460.445 792.577 475.708 780.911 492.307 783.123C508.906 785.334 520.571 800.597 518.36 817.197Z" fill="url(#paint1_radial_6242_15419)"/>
<g style="mix-blend-mode:screen">
<path d="M490.994 813.552C490.8 815.034 489.414 816.104 487.932 815.885C486.449 815.69 485.38 814.305 485.599 812.823C485.793 811.34 487.178 810.271 488.661 810.489C490.143 810.684 491.213 812.069 490.994 813.552Z" fill="#F6E6FC"/>
</g>
<path style="mix-blend-mode:screen" d="M332.393 637.271C330.181 653.871 314.919 665.537 298.32 663.326C281.721 661.114 270.056 645.851 272.267 629.251C274.479 612.651 289.741 600.985 306.34 603.197C322.939 605.408 334.604 620.672 332.393 637.271Z" fill="url(#paint2_radial_6242_15419)"/>
<g style="mix-blend-mode:screen">
<path d="M305.027 633.626C304.833 635.109 303.448 636.178 301.965 635.959C300.483 635.765 299.413 634.379 299.632 632.897C299.826 631.414 301.212 630.345 302.694 630.564C304.177 630.758 305.246 632.143 305.027 633.626Z" fill="#F6E6FC"/>
</g>
<path style="mix-blend-mode:screen" d="M414.731 693.148C412.519 709.748 397.257 721.414 380.658 719.203C364.059 716.991 352.393 701.728 354.605 685.128C356.817 668.528 372.079 656.862 388.678 659.074C405.277 661.285 416.942 676.549 414.731 693.148Z" fill="url(#paint3_radial_6242_15419)"/>
<g style="mix-blend-mode:screen">
<path d="M387.365 689.503C387.171 690.985 385.785 692.055 384.303 691.836C382.82 691.642 381.751 690.256 381.97 688.774C382.164 687.291 383.55 686.222 385.032 686.441C386.514 686.635 387.584 688.02 387.365 689.503Z" fill="#F6E6FC"/>
</g>
<path style="mix-blend-mode:screen" d="M420.395 434.623C418.183 451.223 402.921 462.889 386.322 460.677C369.723 458.465 358.057 443.202 360.269 426.603C362.481 410.003 377.743 398.337 394.342 400.548C410.941 402.76 422.606 418.023 420.395 434.623Z" fill="url(#paint4_radial_6242_15419)"/>
<g style="mix-blend-mode:screen">
<path d="M393.055 430.977C392.86 432.46 391.475 433.529 389.992 433.311C388.51 433.116 387.441 431.731 387.659 430.248C387.854 428.766 389.239 427.696 390.721 427.915C392.204 428.11 393.273 429.495 393.055 430.977Z" fill="#F6E6FC"/>
</g>
<path style="mix-blend-mode:screen" d="M529.661 303.088C527.717 317.647 514.35 327.854 499.793 325.934C485.235 324.014 475.004 310.623 476.948 296.064C478.892 281.506 492.259 271.298 506.816 273.218C521.374 275.163 531.581 288.53 529.661 303.088Z" fill="url(#paint5_radial_6242_15419)"/>
<g style="mix-blend-mode:screen">
<path d="M505.698 299.904C505.528 301.217 504.312 302.14 503.024 301.946C501.712 301.776 500.788 300.561 500.983 299.273C501.153 297.96 502.368 297.037 503.656 297.231C504.969 297.401 505.892 298.616 505.698 299.904Z" fill="#F6E6FC"/>
</g>
<path style="mix-blend-mode:screen" d="M361.507 809.42C359.563 823.979 346.196 834.211 331.638 832.266C317.081 830.322 306.849 816.955 308.794 802.396C310.738 787.838 324.105 777.63 338.662 779.55C353.22 781.495 363.427 794.862 361.507 809.42Z" fill="url(#paint6_radial_6242_15419)"/>
<g style="mix-blend-mode:screen">
<path d="M337.543 806.236C337.373 807.549 336.158 808.472 334.87 808.278C333.558 808.108 332.634 806.893 332.829 805.605C332.999 804.292 334.214 803.369 335.502 803.563C336.814 803.733 337.738 804.948 337.543 806.236Z" fill="#F6E6FC"/>
</g>
<path style="mix-blend-mode:screen" d="M402.677 550.481C400.733 565.039 387.366 575.247 372.808 573.327C358.251 571.383 348.019 558.015 349.964 543.457C351.908 528.899 365.274 518.691 379.832 520.611C394.389 522.555 404.621 535.923 402.677 550.481Z" fill="url(#paint7_radial_6242_15419)"/>
<g style="mix-blend-mode:screen">
<path d="M378.69 547.274C378.52 548.586 377.305 549.51 376.017 549.315C374.704 549.145 373.781 547.93 373.975 546.642C374.145 545.329 375.36 544.406 376.648 544.6C377.961 544.77 378.884 545.985 378.69 547.274Z" fill="#F6E6FC"/>
</g>
<g opacity="0.65">
<path style="mix-blend-mode:color-dodge" opacity="0.5" d="M532.989 931.305C532.212 937.065 526.938 941.099 521.178 940.346C515.418 939.568 511.384 934.294 512.137 928.534C512.891 922.774 518.189 918.739 523.949 919.493C529.708 920.271 533.743 925.545 532.989 931.305Z" fill="url(#paint8_radial_6242_15419)"/>
</g>
<g opacity="0.65">
<g style="mix-blend-mode:screen">
<path d="M510.364 428.256C510.169 429.763 508.784 430.808 507.277 430.614C505.77 430.419 504.725 429.034 504.92 427.527C505.114 426.02 506.499 424.975 508.006 425.17C509.513 425.364 510.558 426.75 510.364 428.256Z" fill="#F6E6FC"/>
</g>
<path style="mix-blend-mode:color-dodge" opacity="0.5" d="M526.841 430.443C525.431 441.04 515.686 448.477 505.09 447.067C494.494 445.658 487.057 435.912 488.466 425.315C489.876 414.718 499.621 407.281 510.218 408.691C520.814 410.101 528.25 419.847 526.841 430.443Z" fill="url(#paint9_radial_6242_15419)"/>
</g>
<g opacity="0.65">
<g style="mix-blend-mode:screen">
<path d="M427.321 890.329C427.126 891.836 425.741 892.881 424.234 892.686C422.727 892.492 421.682 891.106 421.877 889.6C422.071 888.093 423.456 887.048 424.963 887.242C426.47 887.436 427.515 888.822 427.321 890.329Z" fill="#F6E6FC"/>
</g>
<path style="mix-blend-mode:color-dodge" opacity="0.5" d="M443.798 892.516C442.388 903.112 432.643 910.549 422.047 909.14C411.451 907.73 404.014 897.984 405.423 887.387C406.833 876.791 416.578 869.354 427.175 870.763C437.771 872.173 445.207 881.919 443.798 892.516Z" fill="url(#paint10_radial_6242_15419)"/>
</g>
<g opacity="0.65">
<g style="mix-blend-mode:screen">
<path d="M424.575 767.786C424.38 769.293 422.995 770.338 421.488 770.143C419.981 769.949 418.936 768.563 419.131 767.057C419.325 765.55 420.71 764.505 422.217 764.699C423.724 764.893 424.769 766.279 424.575 767.786Z" fill="#F6E6FC"/>
</g>
<path style="mix-blend-mode:color-dodge" opacity="0.5" d="M441.052 769.998C439.642 780.595 429.897 788.032 419.301 786.622C408.704 785.213 401.268 775.467 402.677 764.87C404.087 754.273 413.832 746.836 424.429 748.246C435.025 749.655 442.461 759.401 441.052 769.998Z" fill="url(#paint11_radial_6242_15419)"/>
</g>
</g>
<g clip-path="url(#clip1_6242_15419)">
<path style="mix-blend-mode:screen" opacity="0.71" d="M150.896 336.198C206.068 355.198 272.879 306.469 300.123 227.358C327.368 148.248 304.728 68.7133 249.556 49.7132C194.384 30.7132 127.572 79.4424 100.328 158.553C73.0842 237.664 95.7242 317.198 150.896 336.198Z" fill="url(#paint12_radial_6242_15419)"/>
<path d="M231.563 61.3577C231.563 61.3577 214.039 118.175 201.307 125.79C188.583 133.386 151.142 147.684 138.292 172.216C127.544 192.722 129.235 275.448 130.06 301.915C130.237 307.272 132.911 312.227 137.315 315.278C147.036 322.03 165.425 333.091 182.66 334.046C188.487 334.371 193.997 331.457 197.253 326.652C210.541 307.146 248.574 249.911 255.879 223.806C264.766 192.067 242.961 161.758 245.274 139.754C247.586 117.751 267.692 73.8 267.692 73.8L231.544 61.3512L231.563 61.3577Z" fill="url(#paint13_linear_6242_15419)"/>
<path d="M154.597 163.458C154.597 163.458 172.487 149.487 186.77 146.295C201.053 143.102 199.493 151.117 211.867 154.937C224.24 158.757 230.482 158.49 232.418 155.437C234.353 152.385 238.461 157.519 238.461 157.519C238.461 157.519 245.213 177.601 242.984 177.715C240.754 177.83 193.447 173.138 189.819 173.339C186.191 173.539 154.61 163.483 154.61 163.483L154.597 163.458Z" fill="#5600CC"/>
<path d="M219.064 123.583C223.213 120.22 232.169 130.723 226.226 134.098C220.283 137.473 210.329 130.661 219.064 123.583Z" fill="#9700FF"/>
<path d="M233.271 118.957C230.449 117.124 232.607 113.181 235.8 113.692C238.994 114.203 238.572 122.401 233.271 118.957Z" fill="#9700FF"/>
<path style="mix-blend-mode:multiply" opacity="0.25" d="M154.158 321.224C140.818 314.34 115.307 288.554 162.599 303.075C209.903 317.622 194.811 342.243 154.158 321.224Z" fill="url(#paint14_linear_6242_15419)"/>
<path d="M165.696 309.859C197.976 319.231 243.6 243.134 250.074 217.73C255.078 198.124 245.392 172.619 239.191 158.884C236.393 153.129 231.429 149.318 234.088 158.66C236.727 167.996 225.563 168.921 226.334 162.462C227.086 155.997 225.785 146.198 220.197 144.568C214.609 142.937 210.506 159.071 191.759 154.8C173.308 150.589 155.174 163.068 154.616 163.464C149.846 167.958 145.766 173.508 142.815 180.792C131.179 209.504 133.416 300.487 165.715 309.866L165.696 309.859Z" fill="url(#paint15_linear_6242_15419)"/>
<g style="mix-blend-mode:multiply" opacity="0.18">
<path d="M145.736 182.953C136.91 206.623 133.018 241.531 149.58 231.537C166.142 221.544 188.248 235.629 177.955 245.092C167.669 254.536 163.878 238.331 166.503 238.353C166.503 238.353 156.605 248.687 166.376 252.052C176.148 255.417 181.551 249.083 183.816 259.508C186.08 269.933 141.438 260.99 156.738 239.067C156.738 239.067 150.692 250.202 142.961 238.588C142.961 238.588 132.467 248.633 145.447 257.726C158.427 266.819 171.11 258.915 173.365 271.081C175.619 283.247 159.809 268.493 151.181 267.434C142.553 266.375 147.872 293.003 159.782 300.614C171.693 308.225 187.689 307.64 186.134 298.153C184.572 288.684 171.938 282.441 170.419 290.03C170.419 290.03 176.333 284.417 181.032 296.395C185.712 308.367 161.075 292.275 163.763 286.182C166.451 280.09 181.552 283.021 183.911 287.3C183.911 287.3 184.488 279.388 189.909 280.771C195.329 282.154 189.956 299.469 189.956 299.469C189.956 299.469 195.099 289.304 202.355 289.638C209.611 289.973 220.751 254.996 199.901 258.176C179.058 261.337 202.289 283.164 206.207 269.279C206.207 269.279 200.636 271.941 197.152 266.16C193.667 260.379 211.841 260.565 207.498 274.031C203.162 287.479 184.193 271.805 186.261 266.717C188.329 261.63 193.093 246.88 201.401 249.173C209.709 251.467 223.029 261.161 215.64 272.527C215.64 272.527 241.3 246.817 226.429 231.168C211.54 215.512 202.174 234.331 202.174 234.331C202.174 234.331 211.544 226.63 219.414 232.703C227.284 238.775 200.906 245.473 195.809 239.052C190.719 232.613 204.224 201.898 227.323 214.812C250.416 227.745 246.693 165.354 226.968 168.207C207.242 171.059 218.697 197.237 218.697 197.237C218.697 197.237 216.17 181.215 225.181 181.65C234.186 182.103 241.29 200.919 235.428 205.037C229.567 209.154 209.09 203.3 213.089 188.875C213.089 188.875 194.588 211.167 183.899 202.211C173.203 193.274 186.307 170.574 196.628 170.325C206.961 170.101 206.872 179.715 202.266 186.303C197.653 192.91 195.997 177.966 195.997 177.966C195.997 177.966 182.787 191.678 193.983 194.21C205.178 196.742 219.868 172.738 215.11 163.072C210.351 153.406 186.278 172.308 176.59 168.089C166.902 163.87 166.247 159.841 166.247 159.841C166.247 159.841 176.008 176.567 168.039 185.276C160.051 193.977 161.281 165.759 161.281 165.759C161.281 165.759 144.986 187.759 159.966 195.629C174.947 203.499 187.003 205.549 172 214.441C156.997 223.332 137.742 211.974 147.694 206.07C157.645 200.167 162.097 211.031 162.097 211.031C162.097 211.031 165.244 195.408 148.44 199.624C148.44 199.624 149.559 172.523 145.711 182.903L145.736 182.953Z" fill="#6D15FF"/>
</g>
<path style="mix-blend-mode:color-dodge" opacity="0.21" d="M242.373 51.1895C242.373 51.1895 225.831 120.933 204.549 135.521C183.26 150.128 154.451 152.08 142.816 180.791C131.18 209.503 133.417 300.486 165.716 309.865C198.014 319.243 244.265 244.874 250.094 217.736C258.127 180.344 234.602 155.516 237.78 138.644C240.965 121.752 266.01 61.7463 266.01 61.7463L242.385 51.2147L242.373 51.1895Z" fill="url(#paint16_linear_6242_15419)"/>
<path d="M222.173 188.915C223.439 182.731 215.005 168.206 210.631 170.756C206.257 173.305 220.868 195.274 222.173 188.915Z" fill="white"/>
<path style="mix-blend-mode:multiply" opacity="0.25" d="M231.563 61.3577C231.563 61.3577 214.039 118.175 201.307 125.79C188.583 133.386 151.142 147.684 138.292 172.216C127.544 192.722 129.235 275.448 130.06 301.915C130.237 307.272 132.911 312.227 137.315 315.278C147.036 322.03 165.425 333.091 182.66 334.046C188.487 334.371 193.997 331.457 197.253 326.652C205.218 314.958 222.098 289.671 235.899 265.677C183.747 349.907 135.565 313.877 148.99 234.655C162.415 155.433 198.856 165.565 214.633 137.671C230.391 109.769 237.132 81.3895 237.132 81.3895C254.204 91.0725 262.404 85.9743 262.404 85.9743C265.469 78.666 267.692 73.8 267.692 73.8L231.544 61.3512L231.563 61.3577Z" fill="url(#paint17_linear_6242_15419)"/>
<path style="mix-blend-mode:multiply" opacity="0.25" d="M160.334 182.391C160.334 182.391 147.74 218.778 149.674 256.03C149.674 256.03 172.317 275.406 206.148 281.803C206.148 281.803 224.537 262.835 226.981 253.17C226.981 253.17 207.184 248.097 191.02 208.256C174.856 168.416 160.334 182.391 160.334 182.391Z" fill="url(#paint18_linear_6242_15419)"/>
<path d="M162.002 181.094C162.002 181.094 149.408 217.482 151.342 254.733C151.342 254.733 173.985 274.109 207.816 280.507C207.816 280.507 226.205 261.539 228.649 251.873C228.649 251.873 208.852 246.8 192.688 206.959C176.524 167.119 162.002 181.094 162.002 181.094Z" fill="url(#paint19_linear_6242_15419)"/>
<path d="M169.926 178.571C169.926 178.571 176.75 167.745 194.209 164.259C211.668 160.773 214.281 162.114 222.544 170.655C230.8 179.214 243.754 197.922 241.86 215.468C239.966 233.014 226.203 246.01 215.831 239.496C205.479 232.989 169.907 178.564 169.907 178.564L169.926 178.571Z" fill="url(#paint20_linear_6242_15419)"/>
<g style="mix-blend-mode:multiply" opacity="0.28">
<path d="M206.353 221.458C204.323 219.099 204.612 210.982 210.46 204.885C216.309 198.788 226.546 192.668 228.68 196.681C230.809 200.713 225.172 213.229 221.389 217.853C217.607 222.476 208.764 224.243 206.36 221.44L206.353 221.458Z" fill="#DD402E"/>
</g>
<g style="mix-blend-mode:multiply" opacity="0.28">
<path d="M195.81 214.403C195.81 214.403 199.325 216.916 200.059 209.709C200.793 202.502 198.894 184.533 193.986 184.166C190.375 183.889 183.407 192.564 184.918 200.103C186.428 207.642 195.828 214.409 195.828 214.409L195.81 214.403Z" fill="#DD402E"/>
</g>
<g style="mix-blend-mode:multiply" opacity="0.28">
<path d="M237.366 201.794C233.468 199.233 232.975 190.511 232.975 190.511C231.027 199.716 235.434 205.08 235.434 205.08C235.434 205.08 223.515 214.739 231.274 221.257C239.034 227.774 229.446 241.242 223.666 239.251C217.887 237.261 221.856 230.075 216.761 228.972C212.293 228.001 210.616 233.055 210.283 234.327C212.514 236.777 214.43 238.613 215.851 239.502C226.204 246.009 239.986 233.02 241.88 215.474C242.796 206.88 240.165 198.009 236.265 190.194C236.522 190.913 241.165 204.279 237.373 201.776L237.366 201.794Z" fill="#DD402E"/>
</g>
<g style="mix-blend-mode:multiply" opacity="0.28">
<path d="M169.927 178.571C169.927 178.571 178.835 192.208 189.033 206.627L185.086 197.786C185.086 197.786 173.124 182.803 179.919 184.596C186.715 186.39 191.872 178.08 191.872 178.08C191.872 178.08 174.793 179.364 182.34 172.002C189.805 164.697 204.688 162.635 205.023 162.582C202.169 162.797 198.688 163.364 194.254 164.253C176.802 167.72 169.971 178.565 169.971 178.565L169.927 178.571Z" fill="#DD402E"/>
</g>
<path d="M206.353 221.458C204.323 219.099 204.612 210.982 210.46 204.885C216.309 198.788 226.546 192.668 228.68 196.681C230.809 200.713 225.172 213.229 221.389 217.853C217.607 222.476 208.764 224.243 206.36 221.44L206.353 221.458Z" fill="url(#paint21_linear_6242_15419)"/>
<path d="M195.81 214.403C195.81 214.403 199.325 216.916 200.059 209.709C200.793 202.502 198.894 184.533 193.986 184.166C190.375 183.889 183.407 192.564 184.918 200.103C186.428 207.642 195.828 214.409 195.828 214.409L195.81 214.403Z" fill="url(#paint22_linear_6242_15419)"/>
<g style="mix-blend-mode:multiply" opacity="0.28">
<path d="M209.434 219.179C212.694 219.924 220.489 215.148 223.866 205.342C227.223 195.592 224.724 195.572 224.699 195.584C220.598 196.483 214.471 200.698 210.454 204.904C208.413 207.039 207.069 209.413 206.254 211.717C206.244 212.113 206.261 218.486 209.427 219.198L209.434 219.179Z" fill="#DD402E"/>
</g>
<g style="mix-blend-mode:multiply" opacity="0.28">
<path d="M195.398 184.842C193.745 185.24 191.912 186.71 190.203 190.387C185.174 201.138 197.072 216.981 200.06 209.71C200.705 203.25 199.239 188.182 195.398 184.842Z" fill="#DD402E"/>
</g>
<path style="mix-blend-mode:multiply" opacity="0.28" d="M210.46 204.886C214.478 200.68 220.598 196.483 224.705 195.565C211.291 187.184 213.534 195.774 207.856 194.406C202.177 193.039 205.429 187.876 202.289 186.353C199.149 184.831 195.416 184.848 195.416 184.848C199.263 188.169 200.723 203.255 200.077 209.716C208.403 196.486 205.695 213.584 205.695 213.584C206.42 210.744 207.872 207.63 210.472 204.911L210.46 204.886Z" fill="url(#paint23_linear_6242_15419)"/>
<path style="mix-blend-mode:multiply" opacity="0.28" d="M231.273 221.257C239.032 227.775 229.445 241.242 223.665 239.252C217.885 237.261 221.855 230.076 216.759 228.972C212.292 228.001 210.615 233.055 210.282 234.328C212.513 236.777 214.429 238.614 215.85 239.502C226.203 246.009 239.984 233.02 241.878 215.474C242.022 214.2 242.053 212.887 242.034 211.598C241.284 217.749 237.856 223.545 233.971 219.538C228.701 214.109 235.458 205.068 235.458 205.068L231.102 209.767C228.723 213.129 227.019 217.649 231.298 221.245L231.273 221.257Z" fill="url(#paint24_linear_6242_15419)"/>
<path style="mix-blend-mode:screen" d="M193.67 172.794C197.014 181.615 223.245 193.507 227.535 193.219C231.781 192.937 232.936 183.164 225.093 173.465C224.221 172.45 223.348 171.498 222.544 170.654C216.376 164.285 213.357 161.922 204.984 162.569C204.984 162.569 190.315 163.947 193.677 172.775L193.67 172.794Z" fill="url(#paint25_linear_6242_15419)"/>
<path d="M169.336 187.992C169.336 187.992 161.556 199.455 174.166 229.434C186.769 259.433 186.711 258.992 190.302 258.044C193.893 257.095 219.182 244.937 219.182 244.937C219.182 244.937 184.638 200.616 182.18 196.807C179.722 192.998 169.355 187.999 169.355 187.999L169.336 187.992Z" fill="#FF006F"/>
<g style="mix-blend-mode:multiply" opacity="0.28">
<path d="M224.824 250.199C218.297 246.648 204.525 236.126 192.688 206.96C176.524 167.119 162.002 181.094 162.002 181.094C162.002 181.094 153.386 205.991 151.5 235.685C151.577 235.46 157.75 215.458 176.739 218.719C195.848 222.001 218.138 265.212 207.816 280.507C207.816 280.507 217.173 270.826 223.427 261.78L224.824 250.199Z" fill="#DD402E"/>
</g>
<path d="M198.854 217.552C198.854 217.552 201.764 211.241 201.545 215.915C201.545 215.915 204.725 211.756 201.695 220.799C198.665 229.843 198.854 217.552 198.854 217.552Z" fill="url(#paint26_linear_6242_15419)"/>
<g style="mix-blend-mode:multiply" opacity="0.28">
<path d="M198.854 217.552C198.854 217.552 201.764 211.241 201.545 215.915C201.545 215.915 204.725 211.756 201.695 220.799C198.665 229.843 198.854 217.552 198.854 217.552Z" fill="#DD402E"/>
</g>
<path d="M126.358 180.082C126.358 180.082 141.6 165.179 164.541 170.663C164.541 170.663 186.906 186.749 195.461 207.894C204.011 229.057 233.374 252.891 233.374 252.891C233.374 252.891 236.336 265.511 229.151 277.2C229.151 277.2 220.798 270.267 214.195 251.771C207.592 233.274 182.1 201.254 172.031 194.718C161.961 188.183 152.046 192.942 126.358 180.082Z" fill="url(#paint27_linear_6242_15419)"/>
<path style="mix-blend-mode:screen" opacity="0.78" d="M255.892 223.831C264.779 192.092 242.974 161.783 245.287 139.779C247.497 118.623 266.163 77.2027 267.609 74.0442L251.789 71.118C251.789 71.118 229.856 138.353 221.47 154.083C213.308 169.344 191.094 168.293 182.052 208.551C173.029 248.817 197.309 313.769 244.39 250.382C249.735 240.182 253.951 230.874 255.904 223.856L255.892 223.831Z" fill="url(#paint28_linear_6242_15419)"/>
<path opacity="0.72" d="M251.252 200C246.48 200.71 218.889 184.694 229.785 174.64C240.682 164.587 265.998 197.787 251.252 200Z" fill="white"/>
<g style="mix-blend-mode:multiply" opacity="0.28">
<path d="M217.407 251.492C213.091 243.723 214.315 244.144 189.929 210.319C165.544 176.495 138.413 182.933 144.647 175.287C150.054 168.639 161.064 170.056 163.868 170.538C141.312 165.523 126.358 180.084 126.358 180.084C152.045 192.944 161.979 188.191 172.03 194.72C182.081 201.249 207.591 233.276 214.194 251.772C220.797 270.269 229.15 277.202 229.15 277.202C235.012 267.642 234.111 257.476 233.595 254.083C232.689 279.219 221.718 259.218 217.426 251.499L217.407 251.492Z" fill="#DD402E"/>
</g>
<path d="M168.154 230.011L185.065 224.508L180.326 222.246L166.409 227.434L169.048 219.77L154.765 233.175L173.85 234.263L168.154 230.011Z" fill="#862924"/>
<g style="mix-blend-mode:multiply" opacity="0.25">
<path d="M221.779 89.2773C221.779 89.2773 229.052 105.525 254.269 103.912L221.779 89.2773Z" fill="#002AAE"/>
</g>
<path d="M230.511 41.0526L226.277 57.0152C224.979 61.9476 226.945 67.1219 231.13 70.0131C237.837 74.6341 248.759 80.8332 260.709 82.1536C265.885 82.7174 270.836 79.7781 272.919 75.0112L279.415 60.1849C281.326 55.7995 280.53 50.6502 277.206 47.215C271.911 41.7353 261.71 34.5445 243.385 32.2266C237.493 31.4793 232.011 35.3494 230.485 41.0649L230.511 41.0526Z" fill="#B00077"/>
<path style="mix-blend-mode:multiply" opacity="0.56" d="M236.912 64.2915C237.179 59.9075 239.008 40.5321 250.05 41.3087C261.098 42.0665 279.816 51.5594 279.834 51.5659C279.308 49.9766 278.434 48.4779 277.212 47.1954C271.936 41.7222 261.715 34.525 243.391 32.2071C237.499 31.4598 232.017 35.3298 230.491 41.0454L226.258 57.0079C224.959 61.9403 226.926 67.1146 231.111 70.0058C237.817 74.6269 248.74 80.826 260.689 82.1464C264.419 82.5691 267.989 81.13 270.507 78.5295C256.473 81.2408 236.607 68.6624 236.874 64.2785L236.912 64.2915Z" fill="url(#paint29_linear_6242_15419)"/>
<path d="M223.444 84.8701C223.444 84.8701 224.714 91.1495 241.054 96.3562C257.4 101.544 258.018 98.1004 258.018 98.1004C258.018 98.1004 258.71 102.878 255.688 103.581C252.666 104.285 243.063 101.713 237.667 99.7079C232.272 97.7026 215.637 89.6206 223.444 84.8701Z" fill="#B00077"/>
<path d="M253.673 102.153C253.673 102.153 252.419 128.787 280.36 155.284C280.36 155.284 283.712 155.765 284.08 153.412C284.08 153.412 256.335 128.854 255.688 102.847L253.654 102.146L253.673 102.153Z" fill="#B00077"/>
<path d="M255.706 100.962C255.706 100.962 250.724 121.605 287.45 143.751C287.45 143.751 290.029 141.277 288.374 139.236C288.374 139.236 258.048 124.127 257.709 101.631L255.713 100.943L255.706 100.962Z" fill="#B00077"/>
<path d="M293.211 115.768C276.242 100.279 256.891 101.369 256.891 101.369C256.891 101.369 257.518 118.691 272.179 125.042C286.833 131.413 310.179 131.257 293.211 115.768ZM276.482 124.044C261.428 117.978 258.671 102.991 258.671 102.991C258.671 102.991 277.256 106.996 288.212 115.791C299.148 124.579 291.542 130.092 276.482 124.044Z" fill="#B00077"/>
<path d="M294.672 83.0904C285.248 82.3246 255.725 100.967 255.725 100.967L255.414 101.869C294.808 104.466 304.102 83.8374 294.672 83.0904ZM258.44 100.726C258.44 100.726 284.66 86.6612 290.116 88.246C295.573 89.8309 281.474 101.051 258.44 100.726Z" fill="#B00077"/>
<path style="mix-blend-mode:multiply" opacity="0.56" d="M261.998 115.715C260.847 113.616 259.425 110.71 259.025 108.387C258.726 106.75 259.68 107.646 260.918 109.312C259.182 105.73 258.672 102.991 258.672 102.991C258.672 102.991 265.376 104.438 273.086 107.492C270.285 106.024 267.95 104.61 267.73 103.904C267.253 102.353 273.625 104.274 275.433 104.834C271.594 103.385 268.026 102.493 265.097 102.009C268.743 101.878 272.045 101.523 275.047 101.002C272.482 101.233 256.964 102.571 271.44 99.6127C271.736 99.5467 272.007 99.493 272.285 99.4205C268.166 100.251 263.547 100.761 258.429 100.701C258.429 100.701 264.882 97.2494 272.046 93.9377C262.334 97.1282 276.026 89.7187 281.335 86.9026C272.496 90.8566 262.501 96.7655 258.05 99.4775C258.07 98.6858 257.987 98.069 257.987 98.069C257.987 98.069 257.841 98.9222 255.679 99.1445C255.853 100.108 255.653 101.363 253.662 102.127C250.086 103.522 230.059 96.121 228.742 94.1336C227.426 92.1463 231.19 92.2238 231.19 92.2238C224.156 88.3095 223.433 84.8452 223.433 84.8452C215.62 89.6145 232.26 97.6777 237.656 99.683C242.155 101.358 249.596 103.417 253.686 103.648C253.778 106.012 254.228 111.064 256.232 117.722C254.1 107.279 255.636 109.3 257.094 112.282C257.039 112.074 256.959 111.878 256.923 111.677C257.04 112.011 257.169 112.371 257.304 112.712C257.983 114.164 258.605 115.66 258.759 116.07C255.444 105.578 259.53 111.629 261.998 115.715Z" fill="url(#paint30_linear_6242_15419)"/>
</g>
<g clip-path="url(#clip2_6242_15419)">
<path style="mix-blend-mode:screen" d="M303.008 500.029C351.053 500.029 390.001 461.071 390.001 413.015C390.001 364.958 351.053 326 303.008 326C254.964 326 216.016 364.958 216.016 413.015C216.016 461.071 254.964 500.029 303.008 500.029Z" fill="url(#paint31_radial_6242_15419)"/>
<path style="mix-blend-mode:screen" d="M318.539 428.551C328.15 418.938 328.15 403.351 318.539 393.738C308.928 384.124 293.346 384.124 283.734 393.738C274.123 403.351 274.123 418.938 283.734 428.551C293.346 438.165 308.928 438.165 318.539 428.551Z" fill="url(#paint32_radial_6242_15419)"/>
<path d="M159.33 660.062C163.27 655.935 164.223 646.969 164.448 641.77C164.541 639.386 163.373 637.133 161.349 635.838L160.914 635.562C158.886 634.267 156.32 634.137 154.199 635.23C153.283 635.707 152.283 636.25 151.231 636.881C144.141 641.032 134.719 648.385 141.674 655.556C141.674 655.556 76.4781 751.438 52.5217 783.867C48.4511 789.416 45.5301 793.095 44.3711 794.151L56.1203 798.597L58.2374 800.195L66.575 808.329C67.3367 805.8 72.9403 795.479 80.9647 781.445C105.159 738.817 151.315 661.708 151.315 661.708C154.844 662.942 157.437 662.072 159.335 660.062H159.33Z" fill="#AB2F39"/>
<path d="M149.038 660.255C149.038 660.255 65.6017 795.479 61.3301 804.978L57.5399 799.728L56.4697 798.817L49.5996 797.485C56.4183 789.612 143.939 656.996 143.939 656.996C140.373 651.597 151.305 641.303 156.614 636.783C158.268 635.376 159.932 634.941 160.997 635.624L161.236 635.778C162.306 636.46 162.61 638.153 162.03 640.247C160.166 646.969 155.431 661.217 149.033 660.255H149.038Z" fill="url(#paint33_linear_6242_15419)"/>
<g style="mix-blend-mode:overlay" opacity="0.35">
<path d="M141.183 663.518C124.559 689.995 60.7516 793.451 56.4379 801.346L55.3584 797.831L54.9144 797.317L50.9746 797.859C56.3211 790.623 123.433 688.902 140.449 662.672L141.178 663.523L141.183 663.518Z" fill="#FFFF8A"/>
</g>
<g style="mix-blend-mode:multiply">
<path d="M66.5703 808.326C67.3321 805.797 72.9356 795.475 80.96 781.441C70.4259 787.35 59.0366 785.658 52.5217 783.863C48.4511 789.412 45.5301 793.091 44.3711 794.147L56.1203 798.593L58.2374 800.192L66.575 808.326H66.5703Z" fill="#AB2F39"/>
</g>
<path d="M41.9995 813.054L29.8359 832.107L38.2575 837.486L50.421 818.433L41.9995 813.054Z" fill="url(#paint34_linear_6242_15419)"/>
<g style="mix-blend-mode:multiply" opacity="0.5">
<path d="M38.281 837.453L50.4415 818.399L47.5486 816.553C47.4365 816.726 47.329 816.899 47.2262 817.123C43.2256 824.35 37.5753 825.921 33.7384 825.996L29.8594 832.077L38.281 837.458V837.453Z" fill="#D1810D"/>
</g>
<path d="M179.955 625.83C182.824 616.738 186.629 606.248 188.591 600.938C189.344 598.932 188.573 596.689 186.75 595.525C184.955 594.379 182.595 594.627 181.067 596.132C179.543 597.689 177.422 599.797 174.963 602.181C171.103 605.996 166.476 610.498 162.153 614.462C157.148 619.048 151.189 621.806 150.306 624.218C148.067 630.533 157.555 636.222 159.933 637.541C161.681 638.821 167.794 642.968 172.622 642.304L172.65 642.323C173.903 642.145 175.085 641.636 176.066 640.673C177.908 638.873 177.903 632.305 179.955 625.835V625.83Z" fill="#AB2F39"/>
<path d="M171.202 637.554C166.907 642.547 161.27 638.601 159.938 637.55C158.424 636.788 152.475 633.333 155.195 627.331C156.242 625.021 161.069 621.562 165.523 616.602C171.762 609.656 178.904 601.293 182.497 597.048C183.867 595.431 185.638 594.804 186.76 595.52C187.886 596.239 188.059 598.109 187.171 600.031C184.834 605.079 180.254 615.078 176.581 623.661C173.959 629.79 172.851 635.628 171.202 637.545V637.554Z" fill="url(#paint35_linear_6242_15419)"/>
<g style="mix-blend-mode:overlay" opacity="0.64">
<path d="M143.968 656.379C139.617 653.167 148.955 645.716 152.572 642.654C153.699 641.7 154.839 641.41 155.573 641.883L155.736 641.985C156.47 642.453 156.685 643.608 156.297 645.033C155.045 649.605 151.539 661.297 147.473 658.618L143.968 656.379Z" fill="#FFFF8A"/>
</g>
<path d="M39.9377 865.732C46.4888 855.471 43.6448 841.943 33.5856 835.518C23.5264 829.094 10.0612 832.204 3.51014 842.466C-3.0409 852.728 -0.196973 866.255 9.86223 872.68C19.9214 879.105 33.3867 875.994 39.9377 865.732Z" fill="url(#paint36_linear_6242_15419)"/>
<path style="mix-blend-mode:screen" d="M28.5256 863.359C33.064 856.247 31.0921 846.874 24.1212 842.423C17.1503 837.973 7.82025 840.13 3.28189 847.242C-1.25648 854.354 0.715469 863.727 7.68633 868.178C14.6572 872.628 23.9872 870.471 28.5256 863.359Z" fill="url(#paint37_radial_6242_15419)"/>
<path style="mix-blend-mode:screen" d="M27.861 863.002C32.4006 855.89 30.4303 846.517 23.4602 842.065C16.4901 837.613 7.15968 839.769 2.62007 846.88C-1.91953 853.991 0.0507772 863.365 7.02086 867.817C13.991 872.268 23.3214 870.113 27.861 863.002Z" fill="url(#paint38_radial_6242_15419)"/>
<path d="M71.9395 811.466C70.5748 807.988 66.8827 802.981 58.1807 796.89C57.0917 796.236 56.0682 795.665 55.0587 795.142C47.6419 791.182 42.4169 790.369 39.1361 790.598C37.2059 790.752 35.7899 792.332 35.6356 794.23C34.9486 802.266 37.0424 808.497 38.8884 812.242C39.8324 814.149 41.2719 815.72 43.0385 816.846C43.3002 817.014 43.5292 817.159 43.8096 817.3C44.1461 817.473 44.5106 817.669 44.8658 817.814C46.9502 819.716 49.6421 820.866 52.465 820.913C56.6384 821.011 63.2 820.31 70.2383 816.243C71.8507 815.318 72.6078 813.233 71.9442 811.466H71.9395Z" fill="url(#paint39_linear_6242_15419)"/>
<path d="M35.4167 832.366C32.3368 830.361 25.6724 827.776 18.807 828.893L18.779 828.874C13.1474 829.842 7.39429 833.301 3.39844 841.674C3.39844 841.674 13.9886 847.171 20.3633 841.585C20.3633 841.585 14.026 849.723 21.2419 854.576L21.2232 854.604L21.4569 854.753L21.4756 854.725C28.9392 859.246 33.6548 850.074 33.6548 850.074C31.2432 858.194 40.6884 865.486 40.6884 865.486C40.9034 865.215 41.1137 864.944 41.3287 864.673C53.4097 849.195 42.1372 836.784 35.4214 832.371L35.4167 832.366Z" fill="url(#paint40_linear_6242_15419)"/>
<g style="mix-blend-mode:screen" opacity="0.35">
<path d="M34.3797 833.741C31.7626 832.072 25.659 829.431 19.3684 830.137L18.7375 830.202C13.606 831.011 9.61479 834.003 6.85742 839.108C9.77369 840.314 15.9801 842.174 20.1395 839.491C21.0556 838.902 23.8456 837.275 23.8456 837.275C23.8223 837.308 20.004 844.652 20.6677 847.728C20.9668 849.116 21.85 850.285 23.3736 851.304L23.5372 851.407C25.1168 852.37 26.561 852.683 27.9537 852.37C31.0242 851.673 35.4687 844.806 35.4874 844.773C35.4874 844.773 35.4453 848.293 35.3565 849.467C34.9826 854.394 39.2262 859.125 41.5489 861.266C44.8718 856.862 46.0635 852.328 45.0774 847.788C43.7642 841.739 38.7401 836.597 34.4685 833.802L34.3751 833.741H34.3797Z" fill="#FFDF46"/>
</g>
<path d="M22.1674 853.136C22.2001 853.183 22.2375 853.197 22.2796 853.22C22.3216 853.248 22.3497 853.276 22.3917 853.304C27.2054 856.184 30.8414 853.594 32.8744 851.285C31.2574 853.622 27.1727 858.161 21.4757 854.73C21.4243 854.721 21.3916 854.693 21.3542 854.665C21.3121 854.637 21.2748 854.627 21.2327 854.599C15.7366 850.86 18.1295 845.241 19.5689 842.791C18.3351 845.605 17.5173 849.995 22.1627 853.131L22.1674 853.136Z" fill="#FFDF46"/>
<path d="M21.157 840.038C21.157 840.038 20.6242 840.73 20.0447 841.814C13.6373 846.975 3.40234 841.688 3.40234 841.688C3.66873 841.127 3.96784 840.66 4.24825 840.141C5.99147 840.973 15.3478 845.077 21.157 840.033V840.038Z" fill="#FFDF46"/>
<path d="M34.7097 848.691C32.5739 856.091 40.2572 862.865 41.734 864.085C41.3835 864.557 41.0797 865.02 40.6824 865.497C40.6824 865.497 31.5784 858.433 33.5647 850.444C34.3078 849.463 34.7097 848.691 34.7097 848.691Z" fill="#FFDF46"/>
<path d="M303.717 414.179C304.418 412.954 302.825 411.94 302.011 413.09C288.486 432.045 263.838 466.764 240.115 500.361C209.28 544.009 180.051 585.786 178.752 588.587C175.897 594.916 182.65 599.268 183.902 599.988C184.692 600.535 187.819 602.531 191.151 602.419C192.96 602.391 194.834 601.755 196.437 599.885C199.993 595.716 277.321 460.711 303.717 414.188V414.179Z" fill="#AB2F39"/>
<path d="M192.466 597.338C188.32 602.83 184.558 600.47 183.908 599.998C183.203 599.605 179.482 597.183 182.717 591.111C185.278 586.305 272.364 457.532 302.391 413.323C303.176 412.169 304.05 412.725 303.331 413.922C275.878 459.776 195.746 592.985 192.466 597.333V597.338Z" fill="url(#paint41_linear_6242_15419)"/>
<g style="mix-blend-mode:multiply" opacity="0.5">
<path d="M71.9396 811.467C70.5749 807.989 66.8828 802.982 58.1807 796.891C57.0918 796.236 56.0683 795.666 55.0588 795.143C57.1012 799.097 58.7369 804.38 56.8254 809.232C53.1427 818.577 41.959 815.795 41.959 815.795L43.8097 817.301C44.1462 817.474 44.5107 817.67 44.8659 817.815C46.9503 819.717 49.6422 820.867 52.465 820.914C56.6385 821.012 63.2001 820.311 70.2384 816.244C71.8508 815.318 72.6079 813.234 71.9442 811.467H71.9396Z" fill="#D1810D"/>
</g>
<g style="mix-blend-mode:multiply" opacity="0.5">
<path d="M35.4163 832.366C32.3365 830.361 25.672 827.776 18.8066 828.893C40.1319 834.358 41.4872 856.946 41.3236 864.668C53.4047 849.19 42.1321 836.779 35.4163 832.366Z" fill="#D1810D"/>
</g>
<path d="M8.54749 864.417C9.64577 863.716 9.64577 861.743 8.54282 860.009C7.43987 858.274 5.65459 857.437 4.55164 858.134C3.45336 858.835 3.45336 860.808 4.55631 862.542C5.65926 864.277 7.44454 865.113 8.54749 864.417Z" fill="white"/>
<path d="M8.51987 856.46C9.19753 856.03 9.19285 854.819 8.51987 853.753C7.84688 852.687 6.74393 852.173 6.07095 852.603C5.39329 853.033 5.39796 854.244 6.07095 855.31C6.74393 856.376 7.84688 856.89 8.51987 856.46Z" fill="white"/>
<g style="mix-blend-mode:screen" opacity="0.35">
<path d="M37.403 806.231C36.8375 803.814 36.9217 801.182 38.0386 798.971C39.1556 796.76 41.4176 795.054 43.8945 794.979C47.1473 794.881 50.0075 797.625 50.844 800.771C51.6759 803.917 50.844 807.297 49.4093 810.219C48.8204 811.42 48.1147 812.593 47.1286 813.496C42.4738 817.749 38.3377 810.2 37.4077 806.226L37.403 806.231Z" fill="#FFDF46"/>
</g>
<g style="mix-blend-mode:overlay">
<path d="M38.23 807.861C37.987 806.814 38.0197 805.673 38.5058 804.715C38.9918 803.757 39.9686 803.018 41.0435 802.985C42.4549 802.943 43.6934 804.131 44.0532 805.496C44.4131 806.861 44.0532 808.324 43.4316 809.591C43.1746 810.11 42.8708 810.619 42.4408 811.012C40.4219 812.854 38.6319 809.586 38.23 807.861Z" fill="white"/>
</g>
<g style="mix-blend-mode:multiply" opacity="0.5">
<path d="M164.447 641.766C164.541 639.382 163.372 637.129 161.349 635.834L160.914 635.558C158.886 634.264 156.32 634.133 154.198 635.227C153.282 635.703 152.282 636.246 151.23 636.877C165.078 640.443 161.316 653.505 159.33 660.063C163.269 655.935 164.223 646.969 164.447 641.771V641.766Z" fill="#AB2F39"/>
</g>
<g style="mix-blend-mode:overlay" opacity="0.64">
<path d="M154.872 630.841C155.559 632.131 157.251 632.416 158.709 632.486C160.167 632.561 161.831 632.669 162.724 633.819C163.799 635.207 163.462 637.755 165.131 638.292C165.953 638.559 166.874 638.082 167.388 637.386C167.902 636.689 168.103 635.82 168.295 634.973C169.598 629.191 170.898 623.408 172.202 617.626C172.431 616.597 172.412 615.143 171.384 614.928C170.8 614.807 170.253 615.209 169.795 615.592C166.519 618.303 163.289 621.052 160.065 623.815C158.022 625.563 153.624 627.503 154.877 630.836L154.872 630.841Z" fill="#FFFF8A"/>
</g>
<g style="mix-blend-mode:multiply" opacity="0.5">
<path d="M179.954 625.83C182.823 616.738 186.628 606.248 188.59 600.938C189.343 598.932 188.572 596.689 186.749 595.525C184.955 594.379 182.594 594.627 181.066 596.132C179.543 597.689 177.421 599.797 174.963 602.181C187.992 600.554 175.939 634.105 172.621 642.299L172.649 642.318C173.902 642.14 175.084 641.631 176.065 640.668C177.907 638.868 177.902 632.3 179.954 625.83Z" fill="#AB2F39"/>
</g>
<g style="mix-blend-mode:overlay" opacity="0.65">
<path d="M160.069 630.935C160.532 630.21 159.957 629.013 158.779 628.265C157.606 627.517 156.279 627.494 155.816 628.219C155.354 628.943 155.928 630.14 157.106 630.888C158.279 631.636 159.606 631.659 160.069 630.935Z" fill="white"/>
</g>
<g style="mix-blend-mode:overlay" opacity="0.65">
<path d="M147.946 656.31C148.409 655.585 147.834 654.388 146.656 653.64C145.483 652.892 144.156 652.869 143.693 653.594C143.23 654.318 143.805 655.515 144.983 656.263C146.156 657.011 147.483 657.034 147.946 656.31Z" fill="white"/>
</g>
<path d="M25.9062 829.355C25.9062 829.355 51.3816 836.325 43.245 860.045C43.245 860.045 55.1297 837.831 25.9062 829.355Z" fill="#FFDF46"/>
<path d="M48.3242 819.128C48.3242 819.128 60.2697 823.406 71.0095 813.963C71.0095 813.963 57.2787 820.377 48.3242 819.128Z" fill="#FFDF46"/>
<g style="mix-blend-mode:overlay" opacity="0.35">
<path d="M183.183 591.387C182.833 591.91 182.464 592.49 182.459 593.065C182.45 594.131 183.716 594.364 184.67 593.855C185.623 593.345 186.394 592.401 187.301 591.746C188.207 591.097 189.474 590.83 189.909 591.672C190.427 592.677 189.366 594.14 188.581 595.29C187.796 596.44 188.147 597.889 189.278 597.936C190.082 597.968 190.039 597.445 190.479 596.561C193.231 591.008 196.138 585.557 198.886 580.004C201.55 574.623 205.298 568.471 207.177 562.88C209.061 557.275 202.691 561.8 194.638 574.268C190.913 580.036 187.002 585.679 183.183 591.382V591.387Z" fill="#FFFF8A"/>
</g>
<g style="mix-blend-mode:overlay" opacity="0.65">
<path d="M185.007 592.664C185.731 591.532 185.829 590.303 185.231 589.92C184.633 589.536 183.558 590.144 182.838 591.275C182.114 592.406 182.016 593.636 182.614 594.019C183.212 594.403 184.287 593.795 185.007 592.664Z" fill="white"/>
</g>
<g style="mix-blend-mode:multiply" opacity="0.5">
<path d="M303.718 414.179C304.419 412.954 302.825 411.94 302.012 413.09C288.487 432.045 263.839 466.764 240.116 500.361C229.764 535.286 198.723 589.475 191.156 602.414C192.965 602.386 194.839 601.751 196.442 599.881C199.999 595.711 277.326 460.706 303.722 414.184L303.718 414.179Z" fill="#AB2F39"/>
</g>
<path d="M331.787 377.356C334.482 377.356 336.667 375.171 336.667 372.476C336.667 369.781 334.482 367.596 331.787 367.596C329.093 367.596 326.908 369.781 326.908 372.476C326.908 375.171 329.093 377.356 331.787 377.356Z" fill="#64DBFF"/>
<g style="mix-blend-mode:screen">
<path d="M314.261 419.643C316.303 419.643 317.958 417.988 317.958 415.946C317.958 413.904 316.303 412.248 314.261 412.248C312.22 412.248 310.564 413.904 310.564 415.946C310.564 417.988 312.22 419.643 314.261 419.643Z" fill="#64DBFF"/>
</g>
<g style="mix-blend-mode:screen">
<path d="M330.152 404.685C331.161 404.685 331.979 403.867 331.979 402.857C331.979 401.848 331.161 401.029 330.152 401.029C329.142 401.029 328.324 401.848 328.324 402.857C328.324 403.867 329.142 404.685 330.152 404.685Z" fill="#64DBFF"/>
</g>
<g style="mix-blend-mode:screen">
<path d="M273.402 355.464C274.411 355.464 275.229 354.646 275.229 353.636C275.229 352.627 274.411 351.809 273.402 351.809C272.392 351.809 271.574 352.627 271.574 353.636C271.574 354.646 272.392 355.464 273.402 355.464Z" fill="#64DBFF"/>
</g>
<g style="mix-blend-mode:screen">
<path d="M356.636 402.192C358.678 402.192 360.333 400.537 360.333 398.495C360.333 396.452 358.678 394.797 356.636 394.797C354.595 394.797 352.939 396.452 352.939 398.495C352.939 400.537 354.595 402.192 356.636 402.192Z" fill="#64DBFF"/>
</g>
<g style="mix-blend-mode:screen">
<path d="M301.133 366.394C301.133 367.577 300.175 368.53 298.997 368.53C297.819 368.53 296.861 367.572 296.861 366.394C296.861 365.216 297.819 364.258 298.997 364.258C300.175 364.258 301.133 365.216 301.133 366.394Z" fill="#64DBFF"/>
</g>
<g style="mix-blend-mode:screen">
<path d="M282.127 405.039C282.127 406.221 281.169 407.175 279.991 407.175C278.814 407.175 277.855 406.217 277.855 405.039C277.855 403.861 278.814 402.902 279.991 402.902C281.169 402.902 282.127 403.861 282.127 405.039Z" fill="#64DBFF"/>
</g>
<g style="mix-blend-mode:screen">
<path d="M307.322 402.254C307.322 403.436 306.364 404.39 305.187 404.39C304.009 404.39 303.051 403.432 303.051 402.254C303.051 401.075 304.009 400.117 305.187 400.117C306.364 400.117 307.322 401.075 307.322 402.254Z" fill="#64DBFF"/>
</g>
<g style="mix-blend-mode:screen" opacity="0.25">
<path d="M322.006 361.696C329.922 361.696 336.339 355.277 336.339 347.359C336.339 339.44 329.922 333.021 322.006 333.021C314.089 333.021 307.672 339.44 307.672 347.359C307.672 355.277 314.089 361.696 322.006 361.696Z" fill="#64DBFF"/>
</g>
<g style="mix-blend-mode:screen" opacity="0.25">
<path d="M273.715 423.401C281.631 423.401 288.048 416.982 288.048 409.064C288.048 401.146 281.631 394.727 273.715 394.727C265.798 394.727 259.381 401.146 259.381 409.064C259.381 416.982 265.798 423.401 273.715 423.401Z" fill="#64DBFF"/>
</g>
<g style="mix-blend-mode:screen" opacity="0.25">
<path d="M309.546 461.107C312.987 461.107 315.776 458.317 315.776 454.876C315.776 451.434 312.987 448.645 309.546 448.645C306.106 448.645 303.316 451.434 303.316 454.876C303.316 458.317 306.106 461.107 309.546 461.107Z" fill="#64DBFF"/>
</g>
</g>
<defs>
<radialGradient id="paint0_radial_6242_15419" cx="0" cy="0" r="1" gradientUnits="userSpaceOnUse" gradientTransform="translate(474.866 950.804) rotate(7.5904) scale(22.3102 22.3113)">
<stop stop-color="#EC8331"/>
<stop offset="0.12" stop-color="#B56526"/>
<stop offset="0.23" stop-color="#854A1B"/>
<stop offset="0.35" stop-color="#5C3313"/>
<stop offset="0.47" stop-color="#3A200C"/>
<stop offset="0.6" stop-color="#201206"/>
<stop offset="0.72" stop-color="#0E0803"/>
<stop offset="0.85" stop-color="#030100"/>
<stop offset="1"/>
</radialGradient>
<radialGradient id="paint1_radial_6242_15419" cx="0" cy="0" r="1" gradientUnits="userSpaceOnUse" gradientTransform="translate(488.32 813.206) rotate(7.59039) scale(30.3302 30.3317)">
<stop stop-color="#EC8331"/>
<stop offset="0.12" stop-color="#B56526"/>
<stop offset="0.23" stop-color="#854A1B"/>
<stop offset="0.35" stop-color="#5C3313"/>
<stop offset="0.47" stop-color="#3A200C"/>
<stop offset="0.6" stop-color="#201206"/>
<stop offset="0.72" stop-color="#0E0803"/>
<stop offset="0.85" stop-color="#030100"/>
<stop offset="1"/>
</radialGradient>
<radialGradient id="paint2_radial_6242_15419" cx="0" cy="0" r="1" gradientUnits="userSpaceOnUse" gradientTransform="translate(302.35 633.266) rotate(7.59039) scale(30.3302 30.3317)">
<stop stop-color="#EC8331"/>
<stop offset="0.12" stop-color="#B56526"/>
<stop offset="0.23" stop-color="#854A1B"/>
<stop offset="0.35" stop-color="#5C3313"/>
<stop offset="0.47" stop-color="#3A200C"/>
<stop offset="0.6" stop-color="#201206"/>
<stop offset="0.72" stop-color="#0E0803"/>
<stop offset="0.85" stop-color="#030100"/>
<stop offset="1"/>
</radialGradient>
<radialGradient id="paint3_radial_6242_15419" cx="0" cy="0" r="1" gradientUnits="userSpaceOnUse" gradientTransform="translate(384.662 689.156) rotate(7.59039) scale(30.3302 30.3317)">
<stop stop-color="#EC8331"/>
<stop offset="0.12" stop-color="#B56526"/>
<stop offset="0.23" stop-color="#854A1B"/>
<stop offset="0.35" stop-color="#5C3313"/>
<stop offset="0.47" stop-color="#3A200C"/>
<stop offset="0.6" stop-color="#201206"/>
<stop offset="0.72" stop-color="#0E0803"/>
<stop offset="0.85" stop-color="#030100"/>
<stop offset="1"/>
</radialGradient>
<radialGradient id="paint4_radial_6242_15419" cx="0" cy="0" r="1" gradientUnits="userSpaceOnUse" gradientTransform="translate(390.352 430.623) rotate(7.59039) scale(30.3302 30.3317)">
<stop stop-color="#EC8331"/>
<stop offset="0.12" stop-color="#B56526"/>
<stop offset="0.23" stop-color="#854A1B"/>
<stop offset="0.35" stop-color="#5C3313"/>
<stop offset="0.47" stop-color="#3A200C"/>
<stop offset="0.6" stop-color="#201206"/>
<stop offset="0.72" stop-color="#0E0803"/>
<stop offset="0.85" stop-color="#030100"/>
<stop offset="1"/>
</radialGradient>
<radialGradient id="paint5_radial_6242_15419" cx="0" cy="0" r="1" gradientUnits="userSpaceOnUse" gradientTransform="translate(503.332 299.594) rotate(7.59039) scale(26.5875 26.5889)">
<stop stop-color="#EC8331"/>
<stop offset="0.12" stop-color="#B56526"/>
<stop offset="0.23" stop-color="#854A1B"/>
<stop offset="0.35" stop-color="#5C3313"/>
<stop offset="0.47" stop-color="#3A200C"/>
<stop offset="0.6" stop-color="#201206"/>
<stop offset="0.72" stop-color="#0E0803"/>
<stop offset="0.85" stop-color="#030100"/>
<stop offset="1"/>
</radialGradient>
<radialGradient id="paint6_radial_6242_15419" cx="0" cy="0" r="1" gradientUnits="userSpaceOnUse" gradientTransform="translate(335.168 805.941) rotate(7.59039) scale(26.5875 26.5889)">
<stop stop-color="#EC8331"/>
<stop offset="0.12" stop-color="#B56526"/>
<stop offset="0.23" stop-color="#854A1B"/>
<stop offset="0.35" stop-color="#5C3313"/>
<stop offset="0.47" stop-color="#3A200C"/>
<stop offset="0.6" stop-color="#201206"/>
<stop offset="0.72" stop-color="#0E0803"/>
<stop offset="0.85" stop-color="#030100"/>
<stop offset="1"/>
</radialGradient>
<radialGradient id="paint7_radial_6242_15419" cx="0" cy="0" r="1" gradientUnits="userSpaceOnUse" gradientTransform="translate(376.341 546.987) rotate(7.59039) scale(26.5875 26.5889)">
<stop stop-color="#EC8331"/>
<stop offset="0.12" stop-color="#B56526"/>
<stop offset="0.23" stop-color="#854A1B"/>
<stop offset="0.35" stop-color="#5C3313"/>
<stop offset="0.47" stop-color="#3A200C"/>
<stop offset="0.6" stop-color="#201206"/>
<stop offset="0.72" stop-color="#0E0803"/>
<stop offset="0.85" stop-color="#030100"/>
<stop offset="1"/>
</radialGradient>
<radialGradient id="paint8_radial_6242_15419" cx="0" cy="0" r="1" gradientUnits="userSpaceOnUse" gradientTransform="translate(522.585 929.946) rotate(7.59038) scale(10.5232 10.5237)">
<stop stop-color="#E8AB55"/>
<stop offset="0.1" stop-color="#DAA050"/>
<stop offset="0.28" stop-color="#B68642"/>
<stop offset="0.53" stop-color="#7C5B2D"/>
<stop offset="0.84" stop-color="#2D2110"/>
<stop offset="1"/>
</radialGradient>
<radialGradient id="paint9_radial_6242_15419" cx="0" cy="0" r="1" gradientUnits="userSpaceOnUse" gradientTransform="translate(507.665 427.892) rotate(7.59039) scale(19.3695 19.3705)">
<stop stop-color="#E8AB55"/>
<stop offset="0.1" stop-color="#DAA050"/>
<stop offset="0.28" stop-color="#B68642"/>
<stop offset="0.53" stop-color="#7C5B2D"/>
<stop offset="0.84" stop-color="#2D2110"/>
<stop offset="1"/>
</radialGradient>
<radialGradient id="paint10_radial_6242_15419" cx="0" cy="0" r="1" gradientUnits="userSpaceOnUse" gradientTransform="translate(424.618 889.97) rotate(7.59039) scale(19.3695 19.3705)">
<stop stop-color="#E8AB55"/>
<stop offset="0.1" stop-color="#DAA050"/>
<stop offset="0.28" stop-color="#B68642"/>
<stop offset="0.53" stop-color="#7C5B2D"/>
<stop offset="0.84" stop-color="#2D2110"/>
<stop offset="1"/>
</radialGradient>
<radialGradient id="paint11_radial_6242_15419" cx="0" cy="0" r="1" gradientUnits="userSpaceOnUse" gradientTransform="translate(421.869 767.45) rotate(7.5904) scale(19.3695 19.3705)">
<stop stop-color="#E8AB55"/>
<stop offset="0.1" stop-color="#DAA050"/>
<stop offset="0.28" stop-color="#B68642"/>
<stop offset="0.53" stop-color="#7C5B2D"/>
<stop offset="0.84" stop-color="#2D2110"/>
<stop offset="1"/>
</radialGradient>
<radialGradient id="paint12_radial_6242_15419" cx="0" cy="0" r="1" gradientUnits="userSpaceOnUse" gradientTransform="translate(200.305 192.426) rotate(19.0027) scale(105.592 151.016)">
<stop stop-color="#FF0EFF"/>
<stop offset="0.06" stop-color="#E90CE9"/>
<stop offset="0.26" stop-color="#A308A3"/>
<stop offset="0.45" stop-color="#690569"/>
<stop offset="0.63" stop-color="#3B033B"/>
<stop offset="0.78" stop-color="#1B011B"/>
<stop offset="0.91" stop-color="#070007"/>
<stop offset="1"/>
</radialGradient>
<linearGradient id="paint13_linear_6242_15419" x1="154.204" y1="269.232" x2="311.803" y2="35.9714" gradientUnits="userSpaceOnUse">
<stop offset="0.17" stop-color="#065E72"/>
<stop offset="1" stop-color="#6ABDFE"/>
</linearGradient>
<linearGradient id="paint14_linear_6242_15419" x1="160.363" y1="322.164" x2="167.26" y2="302.138" gradientUnits="userSpaceOnUse">
<stop stop-color="white"/>
<stop offset="0.11" stop-color="#CCDCE5"/>
<stop offset="0.24" stop-color="#96B9CA"/>
<stop offset="0.37" stop-color="#689AB2"/>
<stop offset="0.5" stop-color="#42809F"/>
<stop offset="0.63" stop-color="#256D91"/>
<stop offset="0.76" stop-color="#105F86"/>
<stop offset="0.88" stop-color="#045680"/>
<stop offset="1" stop-color="#00547E"/>
</linearGradient>
<linearGradient id="paint15_linear_6242_15419" x1="160.541" y1="303.671" x2="211.688" y2="155.149" gradientUnits="userSpaceOnUse">
<stop stop-color="#FF38B5"/>
<stop offset="0.22" stop-color="#E52AC7"/>
<stop offset="0.75" stop-color="#AC0BEF"/>
<stop offset="1" stop-color="#9700FF"/>
</linearGradient>
<linearGradient id="paint16_linear_6242_15419" x1="174.273" y1="264.101" x2="237.079" y2="81.7277" gradientUnits="userSpaceOnUse">
<stop stop-color="#EFE2EF"/>
<stop offset="0.23" stop-color="#EBE0EF"/>
<stop offset="0.45" stop-color="#E0D9F1"/>
<stop offset="0.66" stop-color="#CDCFF5"/>
<stop offset="0.86" stop-color="#B3C1FA"/>
<stop offset="1" stop-color="#9DB5FF"/>
</linearGradient>
<linearGradient id="paint17_linear_6242_15419" x1="284.721" y1="161.093" x2="11.6071" y2="294.656" gradientUnits="userSpaceOnUse">
<stop offset="0.44" stop-color="#002AAE"/>
<stop offset="0.5" stop-color="#042DAF"/>
<stop offset="0.57" stop-color="#1037B3"/>
<stop offset="0.64" stop-color="#2549B9"/>
<stop offset="0.71" stop-color="#4261C3"/>
<stop offset="0.78" stop-color="#6881CF"/>
<stop offset="0.85" stop-color="#96A7DD"/>
<stop offset="0.92" stop-color="#CCD4EE"/>
<stop offset="0.98" stop-color="white"/>
</linearGradient>
<linearGradient id="paint18_linear_6242_15419" x1="168.879" y1="289.793" x2="193.955" y2="216.979" gradientUnits="userSpaceOnUse">
<stop offset="0.44" stop-color="#002AAE"/>
<stop offset="0.5" stop-color="#042DAF"/>
<stop offset="0.57" stop-color="#1037B3"/>
<stop offset="0.64" stop-color="#2549B9"/>
<stop offset="0.71" stop-color="#4261C3"/>
<stop offset="0.78" stop-color="#6881CF"/>
<stop offset="0.85" stop-color="#96A7DD"/>
<stop offset="0.92" stop-color="#CCD4EE"/>
<stop offset="0.98" stop-color="white"/>
</linearGradient>
<linearGradient id="paint19_linear_6242_15419" x1="170.547" y1="288.497" x2="195.623" y2="215.682" gradientUnits="userSpaceOnUse">
<stop stop-color="#F4FFBF"/>
<stop offset="0.02" stop-color="#F4F6BB"/>
<stop offset="0.13" stop-color="#F7D4AE"/>
<stop offset="0.24" stop-color="#FAB8A3"/>
<stop offset="0.36" stop-color="#FCA39A"/>
<stop offset="0.49" stop-color="#FD9394"/>
<stop offset="0.65" stop-color="#FE8A91"/>
<stop offset="0.87" stop-color="#FF8890"/>
</linearGradient>
<linearGradient id="paint20_linear_6242_15419" x1="234.525" y1="189.617" x2="177.991" y2="217.28" gradientUnits="userSpaceOnUse">
<stop stop-color="#FFF1D2"/>
<stop offset="0.36" stop-color="#E5BDB1"/>
<stop offset="1" stop-color="#B55B74"/>
</linearGradient>
<linearGradient id="paint21_linear_6242_15419" x1="211.79" y1="223.772" x2="222.122" y2="193.771" gradientUnits="userSpaceOnUse">
<stop stop-color="#C35752"/>
<stop offset="0.35" stop-color="#A8423D"/>
<stop offset="0.75" stop-color="#8F2F2A"/>
<stop offset="1" stop-color="#862924"/>
</linearGradient>
<linearGradient id="paint22_linear_6242_15419" x1="189.288" y1="212.241" x2="198.456" y2="185.621" gradientUnits="userSpaceOnUse">
<stop stop-color="#C35752"/>
<stop offset="0.35" stop-color="#A8423D"/>
<stop offset="0.75" stop-color="#8F2F2A"/>
<stop offset="1" stop-color="#862924"/>
</linearGradient>
<linearGradient id="paint23_linear_6242_15419" x1="201.604" y1="212.133" x2="212.63" y2="183.526" gradientUnits="userSpaceOnUse">
<stop stop-color="white"/>
<stop offset="0.1" stop-color="#FDF8F8"/>
<stop offset="0.25" stop-color="#FAE7E5"/>
<stop offset="0.42" stop-color="#F5CCC7"/>
<stop offset="0.61" stop-color="#EFA59C"/>
<stop offset="0.81" stop-color="#E67467"/>
<stop offset="1" stop-color="#DD402E"/>
</linearGradient>
<linearGradient id="paint24_linear_6242_15419" x1="220.829" y1="241.553" x2="229.117" y2="217.489" gradientUnits="userSpaceOnUse">
<stop stop-color="white"/>
<stop offset="0.1" stop-color="#FDF8F8"/>
<stop offset="0.25" stop-color="#FAE7E5"/>
<stop offset="0.42" stop-color="#F5CCC7"/>
<stop offset="0.61" stop-color="#EFA59C"/>
<stop offset="0.81" stop-color="#E67467"/>
<stop offset="1" stop-color="#DD402E"/>
</linearGradient>
<linearGradient id="paint25_linear_6242_15419" x1="226.122" y1="172.433" x2="199.918" y2="185.248" gradientUnits="userSpaceOnUse">
<stop stop-color="#FFFF52"/>
<stop offset="0.34" stop-color="#9B9B31"/>
<stop offset="0.65" stop-color="#474717"/>
<stop offset="0.86" stop-color="#131306"/>
<stop offset="0.96"/>
</linearGradient>
<linearGradient id="paint26_linear_6242_15419" x1="198.702" y1="223.74" x2="201.905" y2="214.441" gradientUnits="userSpaceOnUse">
<stop stop-color="#C35752"/>
<stop offset="0.35" stop-color="#A8423D"/>
<stop offset="0.75" stop-color="#8F2F2A"/>
<stop offset="1" stop-color="#862924"/>
</linearGradient>
<linearGradient id="paint27_linear_6242_15419" x1="192.359" y1="220.694" x2="140.354" y2="246.127" gradientUnits="userSpaceOnUse">
<stop stop-color="#F4FFBF"/>
<stop offset="0.42" stop-color="#F9C6A8"/>
<stop offset="0.81" stop-color="#FD9996"/>
<stop offset="1" stop-color="#FF8890"/>
</linearGradient>
<linearGradient id="paint28_linear_6242_15419" x1="189.81" y1="163.459" x2="348.927" y2="203.967" gradientUnits="userSpaceOnUse">
<stop offset="0.14"/>
<stop offset="0.26" stop-color="#3A3A00"/>
<stop offset="0.41" stop-color="#757500"/>
<stop offset="0.55" stop-color="#A6A600"/>
<stop offset="0.69" stop-color="#CCCC00"/>
<stop offset="0.81" stop-color="#E8E800"/>
<stop offset="0.92" stop-color="#F9F900"/>
<stop offset="1" stop-color="#FFFF00"/>
</linearGradient>
<linearGradient id="paint29_linear_6242_15419" x1="227.89" y1="48.5973" x2="275.241" y2="64.9039" gradientUnits="userSpaceOnUse">
<stop offset="0.11" stop-color="#6D2EAE"/>
<stop offset="0.31" stop-color="#6E30AF"/>
<stop offset="0.44" stop-color="#7439B2"/>
<stop offset="0.55" stop-color="#7F47B8"/>
<stop offset="0.65" stop-color="#8D5CC0"/>
<stop offset="0.74" stop-color="#A077CA"/>
<stop offset="0.82" stop-color="#B798D7"/>
<stop offset="0.9" stop-color="#D3C0E6"/>
<stop offset="0.97" stop-color="#F2ECF7"/>
<stop offset="1" stop-color="white"/>
</linearGradient>
<linearGradient id="paint30_linear_6242_15419" x1="221.803" y1="86.1541" x2="275.517" y2="104.652" gradientUnits="userSpaceOnUse">
<stop stop-color="white"/>
<stop offset="0.03" stop-color="#F2ECF7"/>
<stop offset="0.1" stop-color="#D3C0E6"/>
<stop offset="0.18" stop-color="#B798D7"/>
<stop offset="0.26" stop-color="#A077CA"/>
<stop offset="0.35" stop-color="#8D5CC0"/>
<stop offset="0.45" stop-color="#7F47B8"/>
<stop offset="0.56" stop-color="#7439B2"/>
<stop offset="0.69" stop-color="#6E30AF"/>
<stop offset="0.89" stop-color="#6D2EAE"/>
</linearGradient>
<radialGradient id="paint31_radial_6242_15419" cx="0" cy="0" r="1" gradientUnits="userSpaceOnUse" gradientTransform="translate(303.008 413.015) scale(86.9928 87.0146)">
<stop stop-color="#59F2FF"/>
<stop offset="0.04" stop-color="#51DDE8"/>
<stop offset="0.15" stop-color="#3EA9B2"/>
<stop offset="0.26" stop-color="#2D7C83"/>
<stop offset="0.37" stop-color="#1F565A"/>
<stop offset="0.49" stop-color="#143639"/>
<stop offset="0.6" stop-color="#0B1E20"/>
<stop offset="0.73" stop-color="#040D0E"/>
<stop offset="0.85" stop-color="#010303"/>
<stop offset="1"/>
</radialGradient>
<radialGradient id="paint32_radial_6242_15419" cx="0" cy="0" r="1" gradientUnits="userSpaceOnUse" gradientTransform="translate(301.136 411.143) scale(24.6107 24.6169)">
<stop stop-color="#59F2FF"/>
<stop offset="0.04" stop-color="#51DDE8"/>
<stop offset="0.15" stop-color="#3EA9B2"/>
<stop offset="0.26" stop-color="#2D7C83"/>
<stop offset="0.37" stop-color="#1F565A"/>
<stop offset="0.49" stop-color="#143639"/>
<stop offset="0.6" stop-color="#0B1E20"/>
<stop offset="0.73" stop-color="#040D0E"/>
<stop offset="0.85" stop-color="#010303"/>
<stop offset="1"/>
</radialGradient>
<linearGradient id="paint33_linear_6242_15419" x1="102.44" y1="714.77" x2="114.173" y2="722.257" gradientUnits="userSpaceOnUse">
<stop stop-color="#D65238"/>
<stop offset="1" stop-color="#B93530"/>
</linearGradient>
<linearGradient id="paint34_linear_6242_15419" x1="35.9263" y1="822.558" x2="44.3491" y2="827.935" gradientUnits="userSpaceOnUse">
<stop stop-color="#FFD358"/>
<stop offset="1" stop-color="#FA8F13"/>
</linearGradient>
<linearGradient id="paint35_linear_6242_15419" x1="165.306" y1="611.48" x2="181.385" y2="621.741" gradientUnits="userSpaceOnUse">
<stop stop-color="#D65238"/>
<stop offset="1" stop-color="#B93530"/>
</linearGradient>
<linearGradient id="paint36_linear_6242_15419" x1="3.51165" y1="842.412" x2="39.9406" y2="865.667" gradientUnits="userSpaceOnUse">
<stop stop-color="#00F2DF"/>
<stop offset="0.15" stop-color="#00EBDF"/>
<stop offset="0.37" stop-color="#00D9DF"/>
<stop offset="0.62" stop-color="#00BBE0"/>
<stop offset="0.9" stop-color="#0092E1"/>
<stop offset="1" stop-color="#0082E2"/>
</linearGradient>
<radialGradient id="paint37_radial_6242_15419" cx="0" cy="0" r="1" gradientUnits="userSpaceOnUse" gradientTransform="translate(15.9238 855.33) rotate(32.5565) scale(15.1246 15.1262)">
<stop stop-color="white"/>
<stop offset="0.65" stop-color="#575757"/>
<stop offset="1"/>
</radialGradient>
<radialGradient id="paint38_radial_6242_15419" cx="0" cy="0" r="1" gradientUnits="userSpaceOnUse" gradientTransform="translate(15.2477 854.912) rotate(32.5665) scale(15.1246 15.1262)">
<stop stop-color="white"/>
<stop offset="0.01" stop-color="#F7F7F7"/>
<stop offset="0.13" stop-color="#BEBEBE"/>
<stop offset="0.25" stop-color="#8B8B8B"/>
<stop offset="0.37" stop-color="#606060"/>
<stop offset="0.49" stop-color="#3D3D3D"/>
<stop offset="0.62" stop-color="#222222"/>
<stop offset="0.74" stop-color="#0F0F0F"/>
<stop offset="0.87" stop-color="#030303"/>
<stop offset="1"/>
</radialGradient>
<linearGradient id="paint39_linear_6242_15419" x1="33.8513" y1="796.213" x2="69.189" y2="818.763" gradientUnits="userSpaceOnUse">
<stop stop-color="#FFD358"/>
<stop offset="1" stop-color="#FA8F13"/>
</linearGradient>
<linearGradient id="paint40_linear_6242_15419" x1="35.5617" y1="832.493" x2="21.3647" y2="854.729" gradientUnits="userSpaceOnUse">
<stop stop-color="#FFD358"/>
<stop offset="1" stop-color="#FA8F13"/>
</linearGradient>
<linearGradient id="paint41_linear_6242_15419" x1="238.762" y1="503.285" x2="248.568" y2="509.543" gradientUnits="userSpaceOnUse">
<stop stop-color="#D65238"/>
<stop offset="1" stop-color="#B93530"/>
</linearGradient>
<clipPath id="clip0_6242_15419">
<rect width="700" height="800" fill="white" transform="translate(272 273)"/>
</clipPath>
<clipPath id="clip1_6242_15419">
<rect width="211.311" height="319.19" fill="white" transform="translate(154.932) rotate(19.0027)"/>
</clipPath>
<clipPath id="clip2_6242_15419">
<rect width="390" height="550" fill="white" transform="translate(0 326)"/>
</clipPath>
</defs>
</svg>
