<svg width="604" height="1020" viewBox="0 0 604 1020" fill="none" xmlns="http://www.w3.org/2000/svg">
<path style="mix-blend-mode:screen" d="M437.812 628.529C454.175 630.805 465.527 645.567 463.185 661.472C460.843 677.41 445.682 688.471 429.351 686.196C412.988 683.92 401.636 669.158 403.978 653.253C406.32 637.315 421.481 626.254 437.812 628.529Z" fill="url(#paint0_radial_329_9)" fill-opacity="0.7"/>
<g style="mix-blend-mode:screen">
<path d="M433.933 654.764C435.397 654.968 436.426 656.31 436.216 657.736C436.007 659.161 434.628 660.164 433.165 659.96C431.701 659.757 430.672 658.415 430.881 656.989C431.091 655.563 432.469 654.56 433.933 654.764Z" fill="#F6E6FC"/>
</g>
<path style="mix-blend-mode:screen" d="M375.762 261.372C397.981 264.463 413.417 284.529 410.235 306.17C407.054 327.81 386.446 342.851 364.227 339.761C342.008 336.67 326.573 316.604 329.754 294.963C332.935 273.322 353.543 258.282 375.762 261.372Z" fill="url(#paint1_radial_329_9)" fill-opacity="0.7"/>
<g style="mix-blend-mode:screen">
<path d="M370.519 297.049C372.503 297.321 373.918 299.143 373.606 301.075C373.326 303.008 371.455 304.387 369.471 304.083C367.486 303.811 366.071 301.99 366.384 300.057C366.664 298.125 368.534 296.746 370.519 297.049Z" fill="#F6E6FC"/>
</g>
<path d="M575.516 497.672C589.7 499.642 599.54 512.454 597.512 526.269C595.484 540.084 582.325 549.672 568.142 547.702C553.958 545.732 544.118 532.919 546.146 519.105C548.174 505.29 561.333 495.702 575.516 497.672Z" fill="url(#paint2_radial_329_9)" fill-opacity="0.7" style="mix-blend-mode:screen"/>
<g style="mix-blend-mode:screen">
<path d="M572.161 520.453C573.43 520.623 574.33 521.774 574.155 523.01C573.98 524.245 572.798 525.123 571.53 524.953C570.261 524.782 569.36 523.632 569.568 522.396C569.743 521.161 570.925 520.283 572.194 520.453L572.161 520.453Z" fill="#F6E6FC"/>
</g>
<path style="mix-blend-mode:screen" d="M254.949 598.965C277.168 602.056 292.603 622.122 289.422 643.763C286.241 665.403 265.633 680.444 243.414 677.353C221.195 674.263 205.759 654.197 208.941 632.556C212.122 610.915 232.73 595.875 254.949 598.965Z" fill="url(#paint3_radial_329_9)" fill-opacity="0.7"/>
<g style="mix-blend-mode:screen">
<path d="M249.705 634.642C251.69 634.914 253.105 636.736 252.792 638.668C252.512 640.601 250.642 641.98 248.658 641.676C246.673 641.404 245.258 639.583 245.57 637.65C245.85 635.717 247.721 634.339 249.705 634.642Z" fill="#F6E6FC"/>
</g>
<path style="mix-blend-mode:screen" d="M565.116 344.065C587.334 347.156 602.77 367.222 599.589 388.862C596.408 410.503 575.799 425.544 553.581 422.453C531.362 419.363 515.926 399.297 519.107 377.656C522.288 356.015 542.897 340.975 565.116 344.065Z" fill="url(#paint4_radial_329_9)" fill-opacity="0.7"/>
<g style="mix-blend-mode:screen">
<path d="M559.872 379.711C561.857 379.983 563.272 381.804 562.959 383.736C562.679 385.669 560.809 387.048 558.825 386.744C556.84 386.472 555.425 384.651 555.738 382.719C556.018 380.786 557.888 379.407 559.872 379.711Z" fill="#F6E6FC"/>
</g>
<path style="mix-blend-mode:screen" d="M107.332 51.0293C129.551 54.1198 144.986 74.186 141.805 95.8268C138.624 117.468 118.016 132.508 95.7969 129.418C73.5782 126.327 58.1424 106.261 61.3235 84.6201C64.5046 62.9794 85.1132 47.9388 107.332 51.0293Z" fill="url(#paint5_radial_329_9)" fill-opacity="0.7"/>
<g style="mix-blend-mode:screen">
<path d="M102.088 86.7064C104.073 86.9784 105.488 88.7999 105.175 90.7324C104.895 92.6652 103.025 94.044 101.041 93.7403C99.0561 93.4684 97.6409 91.6469 97.9535 89.7144C98.2334 87.7816 100.104 86.4027 102.088 86.7064Z" fill="#F6E6FC"/>
</g>
<path style="mix-blend-mode:screen" d="M11.3839 839.692C33.6026 842.782 49.0383 862.848 45.8572 884.489C42.6761 906.13 22.0676 921.17 -0.151137 918.08C-22.3698 914.989 -37.8056 894.923 -34.6245 873.282C-31.4434 851.642 -10.8348 836.601 11.3839 839.692Z" fill="url(#paint6_radial_329_9)" fill-opacity="0.7"/>
<g style="mix-blend-mode:screen">
<path d="M6.14024 875.369C8.12468 875.641 9.53977 877.462 9.22724 879.395C8.94728 881.327 7.07664 882.706 5.09252 882.403C3.10809 882.131 1.69295 880.309 2.00548 878.377C2.28544 876.444 4.15613 875.065 6.14024 875.369Z" fill="#F6E6FC"/>
</g>
<path style="mix-blend-mode:screen" d="M470.773 424.932C492.992 428.023 508.427 448.089 505.246 469.73C502.065 491.37 481.457 506.411 459.238 503.321C437.019 500.23 421.584 480.164 424.765 458.523C427.946 436.882 448.554 421.842 470.773 424.932Z" fill="url(#paint7_radial_329_9)" fill-opacity="0.7"/>
<g style="mix-blend-mode:screen">
<path d="M465.529 460.609C467.514 460.881 468.929 462.703 468.616 464.635C468.336 466.568 466.466 467.947 464.482 467.643C462.497 467.371 461.082 465.55 461.395 463.617C461.675 461.685 463.545 460.306 465.529 460.609Z" fill="#F6E6FC"/>
</g>
<path style="mix-blend-mode:screen" d="M87.3205 732.827C109.539 735.918 124.975 755.984 121.794 777.625C118.613 799.265 98.0043 814.306 75.7856 811.215C53.5669 808.125 38.1311 788.059 41.3122 766.418C44.4933 744.777 65.1018 729.737 87.3205 732.827Z" fill="url(#paint8_radial_329_9)" fill-opacity="0.7"/>
<g style="mix-blend-mode:screen">
<path d="M82.0768 768.504C84.0613 768.776 85.4764 770.598 85.1639 772.53C84.8839 774.463 83.0133 775.842 81.0292 775.538C79.0447 775.266 77.6296 773.445 77.9421 771.512C78.2221 769.58 80.0927 768.201 82.0768 768.504Z" fill="#F6E6FC"/>
</g>
<path style="mix-blend-mode:screen" d="M373.32 454.131C392.806 456.847 406.312 474.421 403.549 493.401C400.753 512.38 382.704 525.54 363.218 522.855C343.732 520.139 330.225 502.565 332.989 483.586C335.785 464.607 353.834 451.414 373.32 454.131Z" fill="url(#paint9_radial_329_9)" fill-opacity="0.7"/>
<g style="mix-blend-mode:screen">
<path d="M368.707 485.404C370.464 485.642 371.686 487.239 371.408 488.918C371.163 490.63 369.522 491.82 367.798 491.551C366.042 491.312 364.82 489.715 365.097 488.036C365.342 486.325 366.983 485.134 368.707 485.404Z" fill="#F6E6FC"/>
</g>
<path style="mix-blend-mode:screen" d="M242.616 803.698C262.102 806.414 275.641 823.988 272.845 842.967C270.049 861.946 252 875.139 232.514 872.422C213.028 869.706 199.521 852.132 202.285 833.152C205.081 814.173 223.13 801.013 242.616 803.698Z" fill="url(#paint10_radial_329_9)" fill-opacity="0.7"/>
<g style="mix-blend-mode:screen">
<path d="M238.036 834.939C239.793 835.177 241.015 836.775 240.737 838.454C240.492 840.165 238.851 841.355 237.127 841.086C235.371 840.848 234.149 839.25 234.426 837.571C234.671 835.86 236.312 834.669 238.036 834.939Z" fill="#F6E6FC"/>
</g>
<path style="mix-blend-mode:screen" d="M213.583 88.397C233.069 91.1135 246.575 108.687 243.811 127.667C241.015 146.646 222.966 159.806 203.48 157.121C183.994 154.405 170.488 136.831 173.251 117.852C176.015 98.8722 194.097 85.6805 213.583 88.397Z" fill="url(#paint11_radial_329_9)" fill-opacity="0.7"/>
<g style="mix-blend-mode:screen">
<path d="M209.002 119.67C210.759 119.908 211.981 121.506 211.703 123.185C211.458 124.896 209.817 126.086 208.061 125.848C206.304 125.61 205.082 124.013 205.359 122.334C205.605 120.623 207.245 119.432 208.969 119.701L209.002 119.67Z" fill="#F6E6FC"/>
</g>
<g opacity="0.65">
<g style="mix-blend-mode:screen">
<path d="M406.439 592.854C407.545 592.991 408.285 593.982 408.144 595.059C408.003 596.136 406.985 596.856 405.879 596.719C404.773 596.582 404.033 595.592 404.174 594.515C404.315 593.438 405.333 592.717 406.439 592.854Z" fill="#F6E6FC"/>
</g>
<path style="mix-blend-mode:color-dodge" opacity="0.5" d="M408.151 581.193C415.861 582.279 421.199 589.213 420.114 596.722C418.997 604.232 411.876 609.433 404.166 608.379C396.456 607.325 391.118 600.36 392.203 592.85C393.32 585.341 400.441 580.139 408.151 581.193Z" fill="url(#paint12_radial_329_9)" fill-opacity="0.7"/>
</g>
<g opacity="0.65">
<g style="mix-blend-mode:screen">
<path d="M31.3089 178.794C33.3259 179.066 34.7084 180.887 34.4281 182.852C34.1479 184.816 32.2776 186.164 30.2606 185.891C28.2436 185.619 26.861 183.798 27.1413 181.833C27.4216 179.869 29.2919 178.522 31.3089 178.794Z" fill="#F6E6FC"/>
</g>
<path style="mix-blend-mode:color-dodge" opacity="0.5" d="M34.4881 157.343C48.6716 159.313 58.5117 172.126 56.484 185.941C54.4562 199.755 41.2971 209.344 27.1136 207.374C12.93 205.404 3.08994 192.591 5.11767 178.776C7.14541 164.962 20.3045 155.373 34.4881 157.343Z" fill="url(#paint13_radial_329_9)" fill-opacity="0.7"/>
</g>
<g opacity="0.65">
<g style="mix-blend-mode:screen">
<path d="M410.507 396.68C412.524 396.952 413.907 398.773 413.627 400.738C413.346 402.703 411.476 404.05 409.459 403.777C407.442 403.505 406.059 401.684 406.34 399.719C406.62 397.755 408.49 396.408 410.507 396.68Z" fill="#F6E6FC"/>
</g>
<path style="mix-blend-mode:color-dodge" opacity="0.5" d="M413.654 375.198C427.838 377.168 437.678 389.98 435.65 403.795C433.622 417.61 420.463 427.198 406.28 425.228C392.096 423.258 382.256 410.445 384.284 396.63C386.312 382.816 399.471 373.228 413.654 375.198Z" fill="url(#paint14_radial_329_9)" fill-opacity="0.7"/>
</g>
<g opacity="0.65">
<g style="mix-blend-mode:screen">
<path d="M491.159 554.845C493.176 555.117 494.559 556.939 494.279 558.903C493.998 560.868 492.128 562.215 490.111 561.943C488.094 561.67 486.711 559.849 486.992 557.885C487.272 555.92 489.142 554.573 491.159 554.845Z" fill="#F6E6FC"/>
</g>
<g opacity="0.5">
<path d="M494.306 533.363C508.49 535.333 518.33 548.146 516.302 561.96C514.274 575.775 501.115 585.363 486.932 583.393C472.748 581.423 462.908 568.61 464.936 554.796C466.964 540.981 480.123 531.393 494.306 533.363Z" fill="url(#paint15_radial_329_9)" fill-opacity="0.7" style="mix-blend-mode:color-dodge"/>
</g>
</g>
<g opacity="0.65">
<g style="mix-blend-mode:screen">
<path d="M296.33 426.369C298.347 426.641 299.729 428.462 299.449 430.427C299.169 432.391 297.298 433.738 295.281 433.466C293.264 433.194 291.882 431.373 292.162 429.408C292.442 427.443 294.313 426.096 296.33 426.369Z" fill="#F6E6FC"/>
</g>
<path style="mix-blend-mode:color-dodge" opacity="0.5" d="M299.476 404.886C313.66 406.856 323.5 419.669 321.472 433.484C319.445 447.298 306.286 456.886 292.102 454.916C277.918 452.946 268.078 440.134 270.106 426.319C272.134 412.504 285.293 402.916 299.476 404.886Z" fill="url(#paint16_radial_329_9)" fill-opacity="0.7"/>
</g>
<g opacity="0.65">
<g style="mix-blend-mode:screen">
<path d="M325.923 223.182C327.94 223.454 329.322 225.276 329.042 227.24C328.762 229.205 326.891 230.552 324.874 230.28C322.857 230.007 321.475 228.186 321.755 226.222C322.035 224.257 323.906 222.91 325.923 223.182Z" fill="#F6E6FC"/>
</g>
<g opacity="0.5">
<path d="M329.069 201.7C343.253 203.67 353.093 216.482 351.065 230.297C349.038 244.112 335.879 253.7 321.695 251.73C307.511 249.76 297.671 236.947 299.699 223.133C301.727 209.318 314.886 199.73 329.069 201.7Z" fill="url(#paint17_radial_329_9)" fill-opacity="0.7" style="mix-blend-mode:color-dodge"/>
</g>
</g>
<g opacity="0.65">
<g style="mix-blend-mode:screen">
<path d="M351.908 718.696C353.925 718.968 355.307 720.789 355.027 722.754C354.747 724.718 352.876 726.066 350.859 725.793C348.842 725.521 347.46 723.7 347.74 721.735C348.02 719.771 349.891 718.424 351.908 718.696Z" fill="#F6E6FC"/>
</g>
<path style="mix-blend-mode:color-dodge" opacity="0.5" d="M355.055 697.214C369.238 699.184 379.078 711.996 377.051 725.811C375.023 739.626 361.864 749.214 347.68 747.244C333.497 745.274 323.657 732.461 325.684 718.646C327.712 704.832 340.871 695.244 355.055 697.214Z" fill="url(#paint18_radial_329_9)" fill-opacity="0.7"/>
</g>
<g opacity="0.65">
<g style="mix-blend-mode:screen">
<path d="M187.522 720.838C189.539 721.111 190.921 722.932 190.641 724.896C190.361 726.861 188.49 728.208 186.473 727.936C184.456 727.663 183.074 725.842 183.354 723.878C183.634 721.913 185.505 720.566 187.522 720.838Z" fill="#F6E6FC"/>
</g>
<path style="mix-blend-mode:color-dodge" opacity="0.5" d="M190.701 699.356C204.885 701.326 214.725 714.139 212.697 727.954C210.669 741.768 197.51 751.356 183.327 749.386C169.143 747.417 159.303 734.604 161.331 720.789C163.358 706.974 176.518 697.386 190.701 699.356Z" fill="url(#paint19_radial_329_9)" fill-opacity="0.7"/>
</g>
<path opacity="0.24" d="M424.686 870.655C424.686 870.655 437.65 830.763 448.103 815.681C458.556 800.599 413.292 736.913 379.947 719.553C346.596 702.176 303.225 691.595 295.822 681.048C288.418 670.501 285.684 645.379 289.584 637.061C293.466 628.75 330.55 616.734 331.001 602.3C331.452 587.866 290.194 558.883 265.539 558.104C240.902 557.319 241.217 564.31 228.359 568.809C215.491 573.333 209.761 571.074 204.97 577.205C200.155 583.327 193.424 604.492 181.027 604.991C168.648 605.484 166.953 558.109 175.795 548.591C184.628 539.097 196.8 533.983 199.132 531.23C201.446 528.485 194.494 498.448 182.235 492.013C182.235 492.013 197.528 518.103 167.775 547.512C167.775 547.512 161.847 566.48 167.8 595.152C173.754 623.824 178.625 627.116 180.991 626.56C183.358 626.003 185.874 607.147 215.836 603.032C245.797 598.918 257.924 623.646 251.583 643.687C245.236 663.71 207.841 700.806 204.16 723.055C200.479 745.303 237.887 770.302 236.278 790.255C234.661 810.189 215.173 829.958 231.96 861.647C248.748 893.337 369.702 927.609 424.711 870.665L424.686 870.655Z" fill="url(#paint20_linear_329_9)"/>
<path style="mix-blend-mode:screen" opacity="0.32" d="M417.155 862.945C417.155 862.945 429.922 821.743 441.285 813.118C452.649 804.493 402.067 729.371 370.573 720.185C339.079 710.999 288.33 700.34 282.375 694.102C276.43 687.84 270.221 645.151 278.839 632.246C287.475 619.334 312.747 601.658 314.219 592.325C315.69 582.992 269.835 562.864 255.512 565.517C241.171 568.178 237.719 574.427 228.831 576.718C219.961 579.002 201.18 596.491 201.18 596.491C201.18 596.491 221.169 581.753 237.817 588.018C254.465 594.282 262.415 617.68 255.342 642.1C248.269 666.519 215.04 701.142 217.283 719.878C219.525 738.614 245.612 772.733 248.649 791.608C251.686 810.484 238.755 829.586 243.994 853.746C249.233 877.906 322.203 896.908 368.299 888.3C414.395 879.692 417.131 862.935 417.131 862.935L417.155 862.945Z" fill="url(#paint21_linear_329_9)"/>
<path d="M381.604 950.656C471.987 912.711 513.712 806.81 474.799 714.12C435.885 621.43 331.07 577.05 240.686 614.994C150.303 652.939 108.578 758.84 147.492 851.531C186.405 944.221 291.22 988.601 381.604 950.656Z" fill="url(#paint22_radial_329_9)" fill-opacity="0.7" style="mix-blend-mode:screen"/>
<path d="M256.968 693.924C257.026 698.874 264.491 704.217 267.404 698.786C271.076 691.934 260.189 692.029 256.968 693.924Z" fill="white"/>
<path d="M259.133 710.952C259.472 712.06 260.283 713.073 261.091 713.882C262.969 713.529 263.771 712.949 264.348 711.338C263.065 710.419 261.838 710.521 260.429 711.067L259.14 710.97L259.133 710.952Z" fill="white"/>
<path d="M315.778 726.871C315.553 736.544 323.197 739.274 330.769 734.562C329.935 726.129 322.634 715.826 315.302 725.779L315.753 726.861L315.778 726.871Z" fill="white"/>
<path d="M350.399 700.796C350.584 701.681 351.17 702.645 351.591 703.41C353.096 703.193 354.529 702.309 355.431 701.135C354.753 698.674 352.911 696.904 350.57 696.344C350.001 697.482 350.248 698.321 350.489 699.489L350.424 700.806L350.399 700.796Z" fill="white"/>
<path d="M250.901 838.157C251.085 839.042 251.671 840.006 252.085 840.754C253.59 840.536 255.023 839.653 255.925 838.478C255.248 836.018 253.405 834.248 251.064 833.688C250.495 834.826 250.742 835.665 250.983 836.833L250.918 838.15L250.901 838.157Z" fill="white"/>
<path d="M261.036 667.891C260.985 667.769 260.935 667.647 260.884 667.525C261.734 669.566 261.232 672.927 264.026 673.543C265.311 673.827 266.474 673.28 267.619 673.131C268.883 672.972 269.341 672.843 269.429 671.435C269.486 670.49 269.035 669.409 268.769 668.476C268.388 667.12 269.128 666.587 267.579 665.963C265.659 665.187 262.54 666.098 260.959 667.412C260.99 667.583 261.031 667.73 261.061 667.902L261.036 667.891Z" fill="white"/>
<path d="M297.443 660.927C296.713 659.962 297.334 657.083 298.45 656.618C300.037 655.957 302.034 658.195 302.856 659.285C304.208 661.055 302.969 662.452 301.075 661.788C300.356 661.535 299.632 661.222 298.945 660.997C298.399 660.815 298.528 661.028 297.948 660.717C297.605 660.532 297.273 660.077 296.967 659.836L297.425 660.935L297.443 660.927Z" fill="white"/>
<path d="M245.575 726.243C245.475 726.101 245.367 725.941 245.267 725.799C244.119 726.236 244.622 727.787 245.506 728.237C246.145 728.544 246.742 728.111 247.31 728.099C247.548 728.082 248.202 728.178 248.374 728.147C250.297 727.755 251.954 727.556 253.845 726.645C258.145 724.587 254.545 718.944 252.378 716.838C251.132 715.617 249.864 713.751 247.873 713.885C246.019 714.002 244.178 715.281 243.288 716.778C242.302 718.438 242.899 720.215 243.109 721.847C243.235 722.838 243.132 723.475 243.586 724.514C244.054 725.588 244.494 726.694 244.945 727.775L245.55 726.233L245.575 726.243Z" fill="white"/>
<path d="M212.6 653.649C211.501 652.633 210.73 651.665 211.125 650.108C211.21 649.725 211.511 648.678 211.769 648.366C211.873 648.221 213.304 646.99 213.321 646.983C214.2 646.637 215.844 647.487 216.561 648.129C216.76 648.312 217.651 649.272 217.802 649.536C218.292 650.417 217.684 651.018 218.019 651.922C217.181 652.415 216.787 653.091 216.019 653.554C215.101 654.101 214.049 653.393 213.13 653.448L212.607 653.666L212.6 653.649Z" fill="white"/>
<path d="M420.87 724.359C418.561 719.161 428.662 721.255 426.537 725.191C425.615 726.906 423.735 726.911 422.048 726.448C420.85 726.128 418.217 725.015 418.067 723.624L420.87 724.359Z" fill="white"/>
<path d="M399.933 686.396C400.4 688.35 399.997 689.788 402.49 689.485C403.582 689.358 405.716 689.861 406.093 688.311C406.401 687.037 405.109 685.262 404.198 684.598C402.9 683.645 401.265 683.405 399.932 684.575C399.962 684.746 400.003 684.893 400.033 685.064L399.968 686.381L399.933 686.396Z" fill="white"/>
<path d="M330.061 719.261C330.004 720.205 329.926 721.098 330.615 721.916C330.85 722.186 331.418 722.42 331.747 722.324C332.162 722.192 332.336 721.874 332.785 721.625C333.374 721.319 333.473 721.359 333.164 720.669C333.005 720.285 332.711 719.875 332.346 719.639C331.907 719.371 330.695 718.771 330.223 718.865L330.078 719.253L330.061 719.261Z" fill="white"/>
<path d="M362.745 700.42C362.745 700.42 362.632 700.59 362.591 700.689C362.675 699.958 363.243 699.209 364.093 699.285C364.522 699.332 364.872 699.779 365.122 700.084C365.379 700.407 365.615 700.677 365.834 701.057C366.313 701.86 365.967 702.946 364.937 703.027C364.358 703.064 362.641 702.183 362.571 701.475L362.753 700.437L362.745 700.42Z" fill="white"/>
<path d="M213.639 865.066C213.639 865.066 213.526 865.236 213.485 865.335C213.576 864.621 214.137 863.855 214.987 863.931C215.416 863.978 215.773 864.443 216.016 864.73C216.273 865.053 216.509 865.323 216.728 865.703C217.206 866.506 216.861 867.592 215.831 867.673C215.252 867.71 213.535 866.829 213.465 866.121L213.646 865.083L213.639 865.066Z" fill="white"/>
<path d="M220.84 813.8C220.176 815.448 220.178 817.76 220.704 819.465C221.091 820.737 223.165 821.49 224.225 822.071C225 822.506 225.798 822.849 226.64 823.152C227.31 823.385 227.999 823.466 228.659 823.724C229.318 823.981 229.971 823.975 230.594 824.145C230.784 824.209 231.201 824.424 231.383 824.369C231.582 824.306 232.018 823.634 232.169 823.407C233.183 821.961 234.049 820.454 234.836 818.857C235.296 817.948 236.107 816.505 235.924 815.476C235.596 813.709 233.781 812.398 232.572 811.265C231.641 810.404 230.546 808.957 229.323 808.525C228.537 808.259 227.787 808.571 227.059 808.936C226.596 809.15 226.623 809.363 226.276 809.611C225.849 809.911 225.441 810.061 225.043 810.432C224.517 810.937 223.863 811.578 223.141 811.859C222.357 812.186 221.749 812.643 220.833 813.783L220.84 813.8Z" fill="white"/>
<path d="M217.89 829.112C218.173 829.792 218.533 830.85 219.37 830.993C220.224 831.128 220.646 829.785 220.933 829.195C220.78 829.074 220.383 828.81 220.26 828.759C220.037 828.667 219.908 828.701 219.634 828.631C219.292 828.548 218.194 828.023 218.431 828.887L217.907 829.105L217.89 829.112Z" fill="white"/>
<path d="M267.547 838.036C267.684 838.511 267.2 838.528 266.867 838.319C266.517 838.117 266.44 837.637 266.288 837.271C265.859 836.242 266.344 835.835 267.352 835.702C268.788 835.513 270.64 835.293 271.682 836.763C272.23 837.537 272.191 837.983 271.639 838.623C271.197 839.134 270.876 839.739 270.303 840.08C269.659 840.451 269.014 840.229 268.588 839.649C268.441 839.444 268.434 839.181 268.305 838.969C268.212 838.844 268.026 838.839 267.947 838.749C267.668 838.374 267.531 837.899 267.332 837.47L267.558 838.011L267.547 838.036Z" fill="white"/>
<path d="M344.527 766.348C344.527 766.348 344.356 766.378 344.279 766.39C343.994 765.362 345.444 765.454 345.992 765.737C346.596 766.059 347.627 766.714 347.489 767.611C347.341 768.532 346.164 768.409 345.548 768.256C344.714 768.071 344.201 767.037 343.878 766.311L344.535 766.365L344.527 766.348Z" fill="white"/>
<path d="M400.489 720.429C399.919 720.83 399.982 722.994 400.511 723.428C400.887 723.742 401.792 723.508 402.234 723.488C402.795 723.459 403.331 723.42 403.854 723.447C403.979 722.863 403.839 721.693 403.586 721.185C403.322 720.599 402.633 720.272 402.292 719.698C401.908 719.858 401.548 719.68 401.15 719.805C400.727 719.92 400.204 720.138 399.881 720.395C399.91 720.465 399.912 720.567 399.923 720.644L400.446 720.426L400.489 720.429Z" fill="white"/>
<path d="M394.323 751.839C393.958 752.093 393.964 752.745 393.928 753.149C393.885 753.782 393.886 754.375 393.843 755.007C393.789 755.909 393.702 757.419 394.763 757.755C395.915 758.114 397.51 757.572 398.666 757.398C399.821 757.223 401.481 757.329 402.177 756.2C402.87 755.113 402.719 754.112 402.602 752.85C402.476 751.614 402.29 750.381 402.237 749.175C402.215 748.631 401.987 748.133 401.898 747.576C401.842 747.293 402.032 747.111 401.869 746.77C401.716 746.404 401.321 746.241 401.01 746.084C400.643 745.889 400.086 745.732 399.684 745.797C399.393 745.837 399.175 746.05 398.899 746.124C398.581 746.196 398.324 746.119 397.991 746.155C397.648 746.216 397.241 746.467 396.91 746.605C396.516 746.79 396.487 746.966 396.192 747.191C395.672 747.612 395.151 747.932 394.724 748.479C394.342 748.986 393.994 749.478 393.758 750.089C393.554 750.583 393.688 751.346 393.251 751.671L394.278 751.878L394.323 751.839Z" fill="white"/>
<path d="M405.516 753.212C405.516 753.212 405.344 753.243 405.267 753.254C404.969 752.785 405.433 752.08 405.574 751.633C405.928 751.649 406.223 751.669 406.509 751.816C406.87 751.993 407.24 752.391 407.56 752.667C408.121 753.13 409.642 754.031 408.817 754.702C408.117 755.28 407.373 754.772 406.674 754.469C406.148 754.238 405.047 754.001 404.724 753.522L405.526 753.188L405.516 753.212Z" fill="white"/>
<path d="M435.46 757.599C435.511 758.213 435.283 758.942 435.271 759.602C435.267 760.279 435.251 760.88 435.247 761.557C435.232 762.996 435.908 763.144 437.188 763.368C438.226 763.549 439.209 763.651 440.242 763.773C440.562 763.804 441.344 764.01 441.637 763.929C442.172 763.788 442.224 763.275 442.371 762.743C442.674 761.654 442.812 760.512 442.694 759.395C442.619 758.771 442.629 758.01 442.53 757.478C442.445 756.981 442.137 756.29 441.636 756.069C440.591 755.625 438.929 755.662 437.892 755.972C436.708 756.322 435.141 756.443 434.126 757.296C434.155 757.365 434.156 757.467 434.168 757.544L435.457 757.642L435.46 757.599Z" fill="white"/>
<path d="M439.577 769.639C438.737 769.784 438.846 769.063 439.02 768.499C439.238 767.794 439.573 767.716 440.218 767.447C441.195 767.04 442.338 767.28 443.313 767.754C443.977 768.071 444.078 768.213 443.773 768.954C443.587 769.441 443.205 769.948 442.788 770.225C442.194 770.615 439.59 771.291 439.414 770.034L439.559 769.646L439.577 769.639Z" fill="white"/>
<path d="M302.272 641.926C301.856 641.567 301.089 641.15 301.048 640.512C300.99 639.881 301.504 639.298 301.969 638.941C302.917 638.218 304.628 638.938 305.462 639.614C306.055 640.103 306.464 640.445 306.345 641.19C306.244 641.785 306.186 642.136 305.64 642.446C304.715 642.975 302.63 643.373 301.997 642.101C301.92 642.113 301.843 642.125 301.766 642.136L302.289 641.918L302.272 641.926Z" fill="white"/>
<path d="M277.767 698.806C277.091 698.904 276.99 699.642 276.426 699.959C277.369 700.896 278.314 701.444 279.725 701.245C281.016 701.055 281.648 699.625 282.059 698.451C282.271 697.83 282.624 697.499 281.961 697.038C281.582 696.766 280.514 696.904 280.164 696.948C278.835 697.195 277.238 697.881 276.414 698.899L277.784 698.799L277.767 698.806Z" fill="white"/>
<path d="M244.749 635.83C243.608 636.039 243.483 634.904 243.096 634.124C242.742 633.371 241.307 632.433 242.012 631.669C242.561 631.072 243.564 631.268 244.199 631.269C244.757 631.282 244.976 631.171 245.605 631.256C245.999 631.317 246.365 631.41 246.749 631.496C248.8 631.951 249.834 633.301 248.795 635.228C248.327 636.119 247.661 636.827 246.59 637.007C245.998 637.11 244.856 636.972 244.505 636.423L244.739 635.855L244.749 635.83Z" fill="white"/>
<path d="M236.888 627.132C236.852 627.044 236.815 626.957 236.772 626.852C237.196 628.559 238.751 628.115 239.216 626.776C239.478 626.031 238.987 625.54 238.291 625.196C237.277 624.677 236.832 625.231 236.546 626.312L236.888 627.132Z" fill="white"/>
<path d="M186.911 586.164C186.77 586.121 186.612 586.084 186.471 586.041C186.378 586.898 187.988 588.11 188.641 588.596C189.591 589.305 190.6 589.417 191.537 588.474C192.238 587.752 192.648 586.476 193.271 585.663C194.032 584.691 194.493 584.028 193.215 583.025C191.97 582.05 189.3 580.359 187.784 580.991C185.786 581.844 185.275 584.595 186.109 586.499L186.911 586.164Z" fill="white"/>
<path d="M180.987 591.049C180.919 591.179 180.833 591.317 180.765 591.448C180.208 590.8 179.567 589.164 180.183 588.334C180.789 587.529 181.784 588.199 182.624 588.545C183.249 588.816 184.857 589.436 184.413 590.481C184.21 590.975 181.856 591.71 181.344 591.759C181.215 591.547 181.068 591.342 180.929 591.155C180.817 591.181 180.698 591.19 180.568 591.223L180.969 591.056L180.987 591.049Z" fill="white"/>
<path d="M208.418 822.538C208.174 821.412 209.571 819.069 210.577 818.732C211.774 818.315 213.428 819.386 214.088 820.38C215.734 822.908 210.436 826.446 208.986 822.772L208.418 822.538Z" fill="white"/>
<path d="M224.491 802.822C225.691 804.573 228 801.667 226.145 800.311C225.823 800.077 224.525 799.86 224.236 800.001C223.682 800.293 223.373 801.712 223.748 802.17L224.491 802.822Z" fill="white"/>
<path d="M258.961 857.006C257.862 857.219 257.397 856.102 257.728 855.228C258.016 854.494 258.802 854.023 259.392 853.572C260.079 853.061 261.078 852.562 261.921 852.866C262.672 853.147 262.828 853.962 263.371 854.677C264.273 855.857 264.642 857.627 263.176 858.627C261.755 859.588 259.51 858.374 258.961 857.006Z" fill="white"/>
<path d="M399.109 766.956C398.051 765.596 401.54 762.381 402.389 761.618C403.12 760.966 404.065 760.387 405.145 760.081C405.966 759.841 406.784 760.134 407.573 760.604C409.551 761.765 411.335 763.887 412.902 765.486C413.518 766.129 414.583 767.016 414.476 768.084C414.432 768.471 414.106 768.914 414.027 769.315C413.923 769.85 413.953 770.267 413.732 770.768C413.233 771.877 412.589 772.985 411.87 773.96C411.42 774.598 410.919 775.605 410.312 776.063C408.934 777.128 405.881 776.087 404.553 775.208C403.112 774.253 401.65 773.348 400.288 772.339C399.306 771.602 398.838 771.265 398.812 769.925C398.8 769.111 399.042 767.925 398.782 767.154C398.872 767.075 398.969 767.014 399.06 766.936L399.109 766.956Z" fill="white"/>
<path d="M390.693 740.231C390.501 740.311 390.325 740.282 390.198 740.171C389.516 741.335 390.705 741.782 391.555 741.857C392.152 741.915 394.379 741.663 394.66 740.911C394.93 740.185 393.343 739.127 392.827 738.871C391.534 738.223 390.771 738.602 389.958 739.596L390.7 740.248L390.693 740.231Z" fill="white"/>
<path d="M411.76 707.851C411.722 708.645 411.736 710.297 412.775 710.335C413.543 710.362 415.163 709.339 415.548 708.79C416.222 707.854 415.825 706.362 415.404 705.35C414.946 704.251 414.603 702.839 413.95 701.862C412.699 699.989 409.725 701.494 408.191 702.134C407.668 702.352 407.12 702.559 406.587 702.802C405.991 703.091 405.931 703.341 405.526 703.694C405.103 704.055 404.81 704.136 404.49 704.597C404.105 705.146 404.304 705.329 404.033 705.954C405.272 707.259 406.8 708.322 407.89 709.71C408.247 710.175 408.114 710.64 408.779 710.813C409.145 710.906 409.792 710.739 410.159 710.688C411.297 710.521 412.114 710.221 412.862 709.316L411.778 707.844L411.76 707.851Z" fill="white"/>
<path d="M399.907 700.817C399.666 700.631 399.467 700.448 399.26 700.247C399.726 698.026 402.75 700.962 401.818 701.965C401.424 702.395 399.636 702.915 399.141 702.712C398.302 702.366 398.184 701.248 398.913 700.74L399.882 700.807L399.907 700.817Z" fill="white"/>
<path d="M267.243 698.791C267.917 700.312 267.454 703.227 270.115 702.835C270.636 702.761 271.03 702.33 271.527 702.246C271.93 702.181 272.248 702.355 272.668 702.282C273.823 702.108 274.11 701.129 274.985 700.723C274.604 699.367 274.704 697.79 273.769 696.481C273.469 696.054 272.999 695.615 272.632 695.174C272.31 694.797 271.67 694.388 271.173 694.227C269.964 693.83 268.54 694.833 267.773 695.644C267.116 696.327 265.992 697.901 266.835 698.941L267.236 698.774L267.243 698.791Z" fill="white"/>
<path d="M259.807 682.814C259.709 682.875 259.602 682.961 259.505 683.022C259.671 684.795 260.448 684.45 261.686 683.934C262.627 683.542 263.813 682.802 263.057 681.725C262 680.221 258.767 680.074 259.231 682.562L259.799 682.796L259.807 682.814Z" fill="white"/>
<path d="M233.139 642.735C233.042 642.796 232.934 642.882 232.837 642.943C233.003 644.716 233.798 644.365 235.018 643.856C235.959 643.464 237.145 642.724 236.389 641.647C235.34 640.16 232.117 639.989 232.564 642.484L233.132 642.718L233.139 642.735Z" fill="white"/>
<path d="M217.736 608.279C217.518 607.756 217.345 606.702 216.753 606.805C216.828 607.572 217.437 609.181 218.31 609.411C219.208 609.651 219.84 608.466 220.459 608.086C221.3 607.551 221.893 607.795 222.199 606.664C222.503 605.576 222.058 605.393 221.48 604.692C220.641 603.711 219.346 601.733 217.867 603.045C217.181 603.659 216.702 606.683 216.993 607.626L217.736 608.279Z" fill="white"/>
<path d="M225.703 608.295C224.892 607.528 224.182 606.759 224.913 605.615C225.53 604.641 226.535 604.939 227.462 605.495C228.177 605.934 229.322 606.766 228.764 607.736C228.226 608.656 226.378 608.934 225.469 608.863L225.703 608.295Z" fill="white"/>
<path style="mix-blend-mode:screen" opacity="0.32" d="M169.914 545.331C169.914 545.331 189.341 537.296 195.658 528.543C201.983 519.808 191.772 496.778 182.243 492.03C182.243 492.03 184.786 510.702 181.039 523.808C177.293 536.913 169.914 545.331 169.914 545.331Z" fill="url(#paint23_linear_329_9)"/>
<defs>
<radialGradient id="paint0_radial_329_9" cx="0" cy="0" r="1" gradientUnits="userSpaceOnUse" gradientTransform="translate(433.591 657.321) rotate(-81.6368) scale(29.1418 29.886)">
<stop stop-color="#EC8331"/>
<stop offset="1" stop-color="#864A1C" stop-opacity="0"/>
</radialGradient>
<radialGradient id="paint1_radial_329_9" cx="0" cy="0" r="1" gradientUnits="userSpaceOnUse" gradientTransform="translate(370.018 300.547) rotate(-81.6368) scale(39.6176 40.6293)">
<stop stop-color="#EC8331"/>
<stop offset="1" stop-color="#864A1C" stop-opacity="0"/>
</radialGradient>
<radialGradient id="paint2_radial_329_9" cx="0" cy="0" r="1" gradientUnits="userSpaceOnUse" gradientTransform="translate(571.865 522.651) rotate(-81.6368) scale(25.2689 25.9142)">
<stop stop-color="#EC8331"/>
<stop offset="1" stop-color="#864A1C" stop-opacity="0"/>
</radialGradient>
<radialGradient id="paint3_radial_329_9" cx="0" cy="0" r="1" gradientUnits="userSpaceOnUse" gradientTransform="translate(249.208 638.129) rotate(-81.6368) scale(39.6176 40.6293)">
<stop stop-color="#EC8331"/>
<stop offset="1" stop-color="#864A1C" stop-opacity="0"/>
</radialGradient>
<radialGradient id="paint4_radial_329_9" cx="0" cy="0" r="1" gradientUnits="userSpaceOnUse" gradientTransform="translate(559.374 383.197) rotate(-81.6368) scale(39.6175 40.6293)">
<stop stop-color="#EC8331"/>
<stop offset="1" stop-color="#864A1C" stop-opacity="0"/>
</radialGradient>
<radialGradient id="paint5_radial_329_9" cx="0" cy="0" r="1" gradientUnits="userSpaceOnUse" gradientTransform="translate(101.556 90.17) rotate(-81.6368) scale(39.6176 40.6293)">
<stop stop-color="#EC8331"/>
<stop offset="1" stop-color="#864A1C" stop-opacity="0"/>
</radialGradient>
<radialGradient id="paint6_radial_329_9" cx="0" cy="0" r="1" gradientUnits="userSpaceOnUse" gradientTransform="translate(5.62352 878.86) rotate(-81.6368) scale(39.6176 40.6293)">
<stop stop-color="#EC8331"/>
<stop offset="1" stop-color="#864A1C" stop-opacity="0"/>
</radialGradient>
<radialGradient id="paint7_radial_329_9" cx="0" cy="0" r="1" gradientUnits="userSpaceOnUse" gradientTransform="translate(465.025 464.075) rotate(-81.6368) scale(39.6176 40.6293)">
<stop stop-color="#EC8331"/>
<stop offset="1" stop-color="#864A1C" stop-opacity="0"/>
</radialGradient>
<radialGradient id="paint8_radial_329_9" cx="0" cy="0" r="1" gradientUnits="userSpaceOnUse" gradientTransform="translate(81.5764 772.029) rotate(-81.6368) scale(39.6176 40.6293)">
<stop stop-color="#EC8331"/>
<stop offset="1" stop-color="#864A1C" stop-opacity="0"/>
</radialGradient>
<radialGradient id="paint9_radial_329_9" cx="0" cy="0" r="1" gradientUnits="userSpaceOnUse" gradientTransform="translate(368.275 488.453) rotate(-81.6368) scale(34.7289 35.6157)">
<stop stop-color="#EC8331"/>
<stop offset="1" stop-color="#864A1C" stop-opacity="0"/>
</radialGradient>
<radialGradient id="paint10_radial_329_9" cx="0" cy="0" r="1" gradientUnits="userSpaceOnUse" gradientTransform="translate(237.608 838.037) rotate(-81.6368) scale(34.7289 35.6158)">
<stop stop-color="#EC8331"/>
<stop offset="1" stop-color="#864A1C" stop-opacity="0"/>
</radialGradient>
<radialGradient id="paint11_radial_329_9" cx="0" cy="0" r="1" gradientUnits="userSpaceOnUse" gradientTransform="translate(208.551 122.705) rotate(-81.6368) scale(34.7289 35.6158)">
<stop stop-color="#EC8331"/>
<stop offset="1" stop-color="#864A1C" stop-opacity="0"/>
</radialGradient>
<radialGradient id="paint12_radial_329_9" cx="0" cy="0" r="1" gradientUnits="userSpaceOnUse" gradientTransform="translate(406.195 594.759) rotate(-81.6368) scale(13.7455 14.0965)">
<stop stop-color="#E8AB55"/>
<stop offset="1" stop-color="#826030" stop-opacity="0"/>
</radialGradient>
<radialGradient id="paint13_radial_329_9" cx="0" cy="0" r="1" gradientUnits="userSpaceOnUse" gradientTransform="translate(30.8108 182.335) rotate(-81.6368) scale(25.3006 25.9468)">
<stop stop-color="#E8AB55"/>
<stop offset="1" stop-color="#826030" stop-opacity="0"/>
</radialGradient>
<radialGradient id="paint14_radial_329_9" cx="0" cy="0" r="1" gradientUnits="userSpaceOnUse" gradientTransform="translate(410.001 400.182) rotate(-81.6368) scale(25.3006 25.9467)">
<stop stop-color="#E8AB55"/>
<stop offset="1" stop-color="#826030" stop-opacity="0"/>
</radialGradient>
<radialGradient id="paint15_radial_329_9" cx="0" cy="0" r="1" gradientUnits="userSpaceOnUse" gradientTransform="translate(490.678 558.356) rotate(-81.6368) scale(25.3006 25.9467)">
<stop stop-color="#E8AB55"/>
<stop offset="1" stop-color="#826030" stop-opacity="0"/>
</radialGradient>
<radialGradient id="paint16_radial_329_9" cx="0" cy="0" r="1" gradientUnits="userSpaceOnUse" gradientTransform="translate(295.812 429.868) rotate(-81.6368) scale(25.3006 25.9468)">
<stop stop-color="#E8AB55"/>
<stop offset="1" stop-color="#826030" stop-opacity="0"/>
</radialGradient>
<radialGradient id="paint17_radial_329_9" cx="0" cy="0" r="1" gradientUnits="userSpaceOnUse" gradientTransform="translate(325.408 226.686) rotate(-81.6368) scale(25.3007 25.9468)">
<stop stop-color="#E8AB55"/>
<stop offset="1" stop-color="#826030" stop-opacity="0"/>
</radialGradient>
<radialGradient id="paint18_radial_329_9" cx="0" cy="0" r="1" gradientUnits="userSpaceOnUse" gradientTransform="translate(351.392 722.219) rotate(-81.6368) scale(25.3006 25.9468)">
<stop stop-color="#E8AB55"/>
<stop offset="1" stop-opacity="0"/>
</radialGradient>
<radialGradient id="paint19_radial_329_9" cx="0" cy="0" r="1" gradientUnits="userSpaceOnUse" gradientTransform="translate(187.035 724.366) rotate(-81.6368) scale(25.3006 25.9468)">
<stop stop-color="#E8AB55"/>
<stop offset="1" stop-color="#826030" stop-opacity="0"/>
</radialGradient>
<linearGradient id="paint20_linear_329_9" x1="368.874" y1="900.841" x2="194.671" y2="486.098" gradientUnits="userSpaceOnUse">
<stop stop-color="#FF87DF"/>
<stop offset="1" stop-color="#E431FF"/>
</linearGradient>
<linearGradient id="paint21_linear_329_9" x1="320.745" y1="889.914" x2="118.389" y2="455.394" gradientUnits="userSpaceOnUse">
<stop offset="0.43" stop-color="#B300FF"/>
<stop offset="1" stop-color="#6B0099" stop-opacity="0"/>
</linearGradient>
<radialGradient id="paint22_radial_329_9" cx="0" cy="0" r="1" gradientUnits="userSpaceOnUse" gradientTransform="translate(308.025 781.397) rotate(-22.7737) scale(177.117 181.635)">
<stop stop-color="#FF73FF"/>
<stop offset="1" stop-color="#994599" stop-opacity="0"/>
</radialGradient>
<linearGradient id="paint23_linear_329_9" x1="147.158" y1="421.401" x2="85.4225" y2="534.123" gradientUnits="userSpaceOnUse">
<stop offset="0.43" stop-color="#B300FF"/>
<stop offset="1" stop-color="#6B0099" stop-opacity="0"/>
</linearGradient>
</defs>
</svg>
