<svg width="640" height="964" viewBox="0 0 640 964" fill="none" xmlns="http://www.w3.org/2000/svg">
<path style="mix-blend-mode:screen" d="M473.723 629.754C490.116 632.053 501.509 646.809 499.189 662.684C496.869 678.591 481.702 689.609 465.343 687.311C448.951 685.012 437.558 670.256 439.877 654.38C442.198 638.473 457.364 627.456 473.723 629.754Z" fill="url(#paint0_radial_6242_15795)"/>
<g style="mix-blend-mode:screen">
<path d="M469.881 655.939C471.347 656.145 472.38 657.486 472.172 658.909C471.965 660.332 470.586 661.331 469.119 661.125C467.653 660.919 466.62 659.578 466.828 658.155C467.036 656.732 468.414 655.733 469.881 655.939Z" fill="#F6E6FC"/>
</g>
<path style="mix-blend-mode:screen" d="M411.66 262.617C433.918 265.739 449.41 285.797 446.259 307.397C443.108 328.996 422.492 343.978 400.234 340.856C377.976 337.734 362.484 317.676 365.635 296.076C368.786 274.477 389.402 259.495 411.66 262.617Z" fill="url(#paint1_radial_6242_15795)"/>
<g style="mix-blend-mode:screen">
<path d="M406.466 298.227C408.454 298.501 409.874 300.322 409.564 302.251C409.287 304.18 407.416 305.554 405.428 305.247C403.44 304.972 402.02 303.152 402.33 301.223C402.607 299.294 404.479 297.92 406.466 298.227Z" fill="#F6E6FC"/>
</g>
<path style="mix-blend-mode:screen" d="M611.432 498.889C625.641 500.879 635.517 513.687 633.508 527.475C631.499 541.264 618.336 550.814 604.127 548.824C589.918 546.834 580.042 534.026 582.051 520.238C584.059 506.45 597.223 496.899 611.432 498.889Z" fill="url(#paint2_radial_6242_15795)"/>
<g style="mix-blend-mode:screen">
<path d="M608.109 521.628C609.38 521.8 610.284 522.95 610.11 524.183C609.936 525.417 608.755 526.291 607.484 526.119C606.213 525.947 605.309 524.797 605.515 523.563C605.688 522.33 606.87 521.456 608.141 521.628L608.109 521.628Z" fill="#F6E6FC"/>
</g>
<path style="mix-blend-mode:screen" d="M290.845 600.209C313.103 603.331 328.595 623.389 325.444 644.989C322.293 666.588 301.677 681.57 279.419 678.448C257.161 675.326 241.669 655.268 244.82 633.668C247.971 612.068 268.587 597.087 290.845 600.209Z" fill="url(#paint3_radial_6242_15795)"/>
<g style="mix-blend-mode:screen">
<path d="M285.652 635.818C287.64 636.093 289.06 637.914 288.75 639.843C288.473 641.772 286.601 643.145 284.614 642.839C282.626 642.564 281.206 640.743 281.515 638.815C281.793 636.885 283.664 635.512 285.652 635.818Z" fill="#F6E6FC"/>
</g>
<path style="mix-blend-mode:screen" d="M601.013 345.31C623.271 348.432 638.763 368.491 635.612 390.09C632.461 411.69 611.845 426.671 589.587 423.549C567.329 420.427 551.837 400.369 554.988 378.77C558.139 357.17 578.755 342.188 601.013 345.31Z" fill="url(#paint4_radial_6242_15795)"/>
<g style="mix-blend-mode:screen">
<path d="M595.82 380.889C597.808 381.164 599.228 382.984 598.918 384.913C598.641 386.842 596.769 388.216 594.782 387.909C592.794 387.634 591.374 385.814 591.683 383.885C591.961 381.956 593.832 380.582 595.82 380.889Z" fill="#F6E6FC"/>
</g>
<path style="mix-blend-mode:screen" d="M143.228 52.2733C165.486 55.3953 180.978 75.4536 177.827 97.0532C174.676 118.653 154.06 133.634 131.802 130.512C109.544 127.39 94.052 107.332 97.2031 85.7324C100.354 64.1329 120.97 49.1512 143.228 52.2733Z" fill="url(#paint5_radial_6242_15795)"/>
<g style="mix-blend-mode:screen">
<path d="M138.035 87.8828C140.022 88.1576 141.443 89.9784 141.133 91.9072C140.856 93.8363 138.984 95.2098 136.997 94.9034C135.009 94.6286 133.588 92.8078 133.898 90.879C134.176 88.9499 136.047 87.5764 138.035 87.8828Z" fill="#F6E6FC"/>
</g>
<path style="mix-blend-mode:screen" d="M47.2809 840.935C69.5389 844.057 85.0309 864.116 81.8798 885.715C78.7288 907.315 58.1127 922.296 35.8548 919.174C13.5968 916.052 -1.89522 895.994 1.25584 874.395C4.4069 852.795 25.0229 837.813 47.2809 840.935Z" fill="url(#paint6_radial_6242_15795)"/>
<g style="mix-blend-mode:screen">
<path d="M42.0873 876.545C44.0752 876.82 45.4954 878.64 45.1855 880.569C44.9083 882.498 43.037 883.872 41.0493 883.565C39.0614 883.291 37.6411 881.47 37.951 879.541C38.2283 877.612 40.0996 876.238 42.0873 876.545Z" fill="#F6E6FC"/>
</g>
<path style="mix-blend-mode:screen" d="M506.67 426.178C528.928 429.3 544.42 449.358 541.268 470.957C538.117 492.557 517.501 507.539 495.243 504.417C472.985 501.295 457.493 481.236 460.645 459.637C463.796 438.037 484.412 423.056 506.67 426.178Z" fill="url(#paint7_radial_6242_15795)"/>
<g style="mix-blend-mode:screen">
<path d="M501.476 461.787C503.464 462.062 504.884 463.883 504.574 465.811C504.297 467.741 502.426 469.114 500.438 468.808C498.45 468.533 497.03 466.712 497.34 464.783C497.617 462.854 499.488 461.481 501.476 461.787Z" fill="#F6E6FC"/>
</g>
<path style="mix-blend-mode:screen" d="M123.216 734.072C145.474 737.194 160.966 757.252 157.815 778.852C154.664 800.452 134.048 815.433 111.79 812.311C89.5323 809.189 74.0403 789.131 77.1914 767.531C80.3424 745.932 100.958 730.95 123.216 734.072Z" fill="url(#paint8_radial_6242_15795)"/>
<g style="mix-blend-mode:screen">
<path d="M118.023 769.682C120.011 769.956 121.431 771.777 121.121 773.706C120.844 775.635 118.973 777.009 116.985 776.702C114.997 776.427 113.577 774.607 113.887 772.678C114.164 770.749 116.035 769.375 118.023 769.682Z" fill="#F6E6FC"/>
</g>
<path style="mix-blend-mode:screen" d="M409.224 455.367C428.745 458.111 442.3 475.678 439.563 494.622C436.793 513.565 418.738 526.673 399.217 523.961C379.696 521.217 366.141 503.65 368.878 484.707C371.648 465.764 389.704 452.623 409.224 455.367Z" fill="url(#paint9_radial_6242_15795)"/>
<g style="mix-blend-mode:screen">
<path d="M404.654 486.58C406.414 486.82 407.64 488.417 407.365 490.093C407.122 491.801 405.481 492.987 403.754 492.715C401.994 492.474 400.768 490.877 401.043 489.202C401.286 487.494 402.927 486.308 404.654 486.58Z" fill="#F6E6FC"/>
</g>
<path style="mix-blend-mode:screen" d="M278.519 804.933C298.04 807.677 311.628 825.244 308.858 844.187C306.088 863.13 288.032 876.271 268.512 873.527C248.991 870.783 235.436 853.216 238.173 834.272C240.943 815.329 258.998 802.221 278.519 804.933Z" fill="url(#paint10_radial_6242_15795)"/>
<g style="mix-blend-mode:screen">
<path d="M273.982 836.115C275.742 836.356 276.968 837.953 276.693 839.628C276.45 841.336 274.809 842.522 273.082 842.25C271.322 842.009 270.096 840.413 270.371 838.737C270.614 837.029 272.255 835.843 273.982 836.115Z" fill="#F6E6FC"/>
</g>
<path style="mix-blend-mode:screen" d="M249.486 89.6329C269.006 92.3771 282.562 109.944 279.825 128.887C277.055 147.83 258.999 160.939 239.479 158.227C219.958 155.482 206.403 137.916 209.14 118.972C211.877 100.029 229.965 86.8888 249.486 89.6329Z" fill="url(#paint11_radial_6242_15795)"/>
<g style="mix-blend-mode:screen">
<path d="M244.948 120.847C246.708 121.088 247.935 122.685 247.66 124.36C247.417 126.068 245.775 127.254 244.016 127.013C242.256 126.773 241.029 125.176 241.305 123.5C241.547 121.792 243.189 120.606 244.916 120.878L244.948 120.847Z" fill="#F6E6FC"/>
</g>
<g opacity="0.65">
<g style="mix-blend-mode:screen">
<path d="M442.387 594.028C443.495 594.167 444.237 595.156 444.098 596.231C443.958 597.307 442.941 598.024 441.832 597.885C440.724 597.747 439.982 596.757 440.121 595.682C440.261 594.607 441.278 593.889 442.387 594.028Z" fill="#F6E6FC"/>
</g>
<path style="mix-blend-mode:color-dodge" opacity="0.5" d="M444.084 582.39C451.807 583.487 457.165 590.418 456.09 597.913C454.983 605.408 447.859 610.589 440.136 609.524C432.412 608.459 427.054 601.496 428.129 594.001C429.236 586.506 436.36 581.325 444.084 582.39Z" fill="url(#paint12_radial_6242_15795)"/>
</g>
<g opacity="0.65">
<g style="mix-blend-mode:screen">
<path d="M67.256 179.971C69.2765 180.246 70.6642 182.067 70.3866 184.027C70.1091 185.988 68.2381 187.33 66.2175 187.055C64.197 186.78 62.8093 184.959 63.0869 182.999C63.3644 181.038 65.2354 179.696 67.256 179.971Z" fill="#F6E6FC"/>
</g>
<path style="mix-blend-mode:color-dodge" opacity="0.5" d="M70.4047 158.561C84.6133 160.551 94.4893 173.359 92.4807 187.147C90.4722 200.935 77.3083 210.486 63.0996 208.496C48.891 206.506 39.0151 193.698 41.0236 179.91C43.0322 166.121 56.1961 156.571 70.4047 158.561Z" fill="url(#paint13_radial_6242_15795)"/>
</g>
<g opacity="0.65">
<g style="mix-blend-mode:screen">
<path d="M446.453 397.856C448.474 398.131 449.861 399.951 449.584 401.912C449.306 403.873 447.435 405.215 445.415 404.94C443.394 404.664 442.007 402.844 442.284 400.883C442.562 398.922 444.433 397.581 446.453 397.856Z" fill="#F6E6FC"/>
</g>
<path style="mix-blend-mode:color-dodge" opacity="0.5" d="M449.571 376.414C463.779 378.405 473.655 391.212 471.647 405.001C469.638 418.789 456.474 428.34 442.266 426.349C428.057 424.359 418.181 411.552 420.19 397.763C422.198 383.975 435.362 374.424 449.571 376.414Z" fill="url(#paint14_radial_6242_15795)"/>
</g>
<g opacity="0.65">
<g style="mix-blend-mode:screen">
<path d="M527.106 556.022C529.126 556.297 530.514 558.117 530.236 560.078C529.959 562.039 528.088 563.381 526.067 563.106C524.047 562.831 522.659 561.01 522.936 559.049C523.214 557.089 525.085 555.747 527.106 556.022Z" fill="#F6E6FC"/>
</g>
<path style="mix-blend-mode:color-dodge" opacity="0.5" d="M530.223 534.581C544.432 536.571 554.308 549.378 552.299 563.167C550.29 576.955 537.127 586.506 522.918 584.515C508.709 582.525 498.833 569.718 500.842 555.929C502.851 542.141 516.014 532.59 530.223 534.581Z" fill="url(#paint15_radial_6242_15795)"/>
</g>
<g opacity="0.65">
<g style="mix-blend-mode:screen">
<path d="M332.276 427.545C334.296 427.82 335.684 429.641 335.406 431.602C335.129 433.562 333.258 434.904 331.237 434.629C329.216 434.354 327.829 432.534 328.106 430.573C328.384 428.612 330.255 427.27 332.276 427.545Z" fill="#F6E6FC"/>
</g>
<path style="mix-blend-mode:color-dodge" opacity="0.5" d="M335.393 406.104C349.602 408.094 359.478 420.902 357.469 434.69C355.46 448.478 342.297 458.029 328.088 456.039C313.879 454.049 304.003 441.241 306.012 427.453C308.02 413.664 321.184 404.114 335.393 406.104Z" fill="url(#paint16_radial_6242_15795)"/>
</g>
<g opacity="0.65">
<g style="mix-blend-mode:screen">
<path d="M361.869 224.36C363.89 224.635 365.277 226.455 365 228.416C364.722 230.377 362.851 231.719 360.831 231.444C358.81 231.168 357.423 229.348 357.7 227.387C357.978 225.426 359.849 224.085 361.869 224.36Z" fill="#F6E6FC"/>
</g>
<path style="mix-blend-mode:color-dodge" opacity="0.5" d="M364.987 202.918C379.195 204.908 389.071 217.716 387.063 231.505C385.054 245.293 371.89 254.843 357.682 252.853C343.473 250.863 333.597 238.056 335.606 224.267C337.614 210.479 350.778 200.928 364.987 202.918Z" fill="url(#paint17_radial_6242_15795)"/>
</g>
<g opacity="0.65">
<g style="mix-blend-mode:screen">
<path d="M387.854 719.873C389.874 720.149 391.262 721.969 390.984 723.93C390.707 725.891 388.836 727.232 386.815 726.957C384.795 726.682 383.407 724.862 383.685 722.901C383.962 720.94 385.833 719.598 387.854 719.873Z" fill="#F6E6FC"/>
</g>
<path style="mix-blend-mode:color-dodge" opacity="0.5" d="M390.971 698.432C405.18 700.422 415.056 713.23 413.047 727.018C411.039 740.807 397.875 750.357 383.666 748.367C369.457 746.377 359.581 733.569 361.59 719.781C363.599 705.993 376.762 696.442 390.971 698.432Z" fill="url(#paint18_radial_6242_15795)"/>
</g>
<g opacity="0.65">
<g style="mix-blend-mode:screen">
<path d="M223.467 722.016C225.488 722.291 226.875 724.111 226.598 726.072C226.32 728.033 224.449 729.375 222.428 729.1C220.408 728.825 219.02 727.004 219.298 725.043C219.575 723.083 221.446 721.741 223.467 722.016Z" fill="#F6E6FC"/>
</g>
<path style="mix-blend-mode:color-dodge" opacity="0.5" d="M226.618 700.575C240.826 702.565 250.702 715.372 248.694 729.161C246.685 742.949 233.521 752.5 219.313 750.51C205.104 748.519 195.228 735.712 197.236 721.923C199.245 708.135 212.409 698.585 226.618 700.575Z" fill="url(#paint19_radial_6242_15795)"/>
</g>
<g clip-path="url(#clip0_6242_15795)">
<path opacity="0.24" d="M437.687 814.655C437.687 814.655 450.651 774.762 461.104 759.68C471.557 744.599 426.293 680.912 392.948 663.553C359.596 646.176 316.225 635.594 308.822 625.048C301.419 614.501 298.684 589.379 302.584 581.061C306.466 572.749 343.55 560.734 344.001 546.3C344.452 531.866 303.194 502.882 278.54 502.104C253.903 501.318 254.218 508.31 241.359 512.809C228.491 517.333 222.762 515.074 217.971 521.205C213.155 527.326 206.424 548.492 194.027 548.991C181.648 549.483 179.953 502.109 188.796 492.59C197.628 483.096 209.8 477.983 212.132 475.23C214.446 472.485 207.494 442.448 195.236 436.012C195.236 436.012 210.528 462.103 180.775 491.512C180.775 491.512 174.847 510.48 180.801 539.152C186.754 567.824 191.625 571.116 193.992 570.559C196.359 570.003 198.875 551.147 228.836 547.032C258.798 542.917 270.924 567.646 264.584 587.686C258.236 607.709 220.841 644.806 217.16 667.054C213.479 689.303 250.888 714.302 249.278 734.254C247.662 754.189 228.173 773.957 244.961 805.647C261.748 837.337 382.702 871.608 437.711 814.665L437.687 814.655Z" fill="url(#paint20_linear_6242_15795)"/>
<path style="mix-blend-mode:screen" opacity="0.32" d="M430.156 806.944C430.156 806.944 442.923 765.742 454.286 757.117C465.65 748.492 415.067 673.37 383.574 664.184C352.08 654.998 301.331 644.339 295.376 638.101C289.431 631.839 283.222 589.15 291.84 576.245C300.476 563.333 325.748 545.657 327.22 536.324C328.691 526.991 282.836 506.863 268.513 509.516C254.172 512.177 250.72 518.426 241.832 520.717C232.962 523.001 214.181 540.489 214.181 540.489C214.181 540.489 234.17 525.752 250.818 532.017C267.466 538.281 275.416 561.679 268.343 586.099C261.27 610.518 228.041 645.141 230.284 663.877C232.526 682.613 258.613 716.732 261.65 735.607C264.687 754.482 251.756 773.585 256.995 797.745C262.234 821.905 335.204 840.906 381.3 832.299C427.396 823.691 430.132 806.934 430.132 806.934L430.156 806.944Z" fill="url(#paint21_linear_6242_15795)"/>
<path style="mix-blend-mode:screen" d="M394.604 894.655C484.988 856.71 526.712 750.81 487.799 658.119C448.886 565.429 344.07 521.049 253.687 558.994C163.303 596.939 121.579 702.84 160.492 795.53C199.405 888.22 304.221 932.6 394.604 894.655Z" fill="url(#paint22_radial_6242_15795)"/>
<path d="M269.968 637.923C270.025 642.873 277.49 648.216 280.404 642.785C284.076 635.933 273.189 636.028 269.968 637.923Z" fill="white"/>
<path d="M272.133 654.951C272.472 656.058 273.282 657.071 274.09 657.881C275.969 657.528 276.771 656.948 277.348 655.336C276.064 654.418 274.838 654.519 273.429 655.066L272.14 654.968L272.133 654.951Z" fill="white"/>
<path d="M328.779 670.869C328.554 680.542 336.198 683.272 343.77 678.561C342.936 670.127 335.635 659.825 328.303 669.778L328.754 670.859L328.779 670.869Z" fill="white"/>
<path d="M363.4 644.794C363.584 645.679 364.17 646.643 364.591 647.409C366.097 647.191 367.529 646.307 368.431 645.133C367.754 642.672 365.911 640.902 363.57 640.343C363.001 641.481 363.248 642.319 363.489 643.488L363.424 644.804L363.4 644.794Z" fill="white"/>
<path d="M263.901 782.155C264.086 783.04 264.671 784.004 265.086 784.752C266.591 784.534 268.023 783.651 268.925 782.477C268.248 780.016 266.405 778.246 264.064 777.686C263.495 778.824 263.742 779.663 263.984 780.831L263.918 782.148L263.901 782.155Z" fill="white"/>
<path d="M274.037 611.891C273.987 611.769 273.936 611.647 273.885 611.525C274.735 613.565 274.233 616.927 277.027 617.543C278.312 617.827 279.475 617.28 280.62 617.131C281.884 616.972 282.342 616.843 282.43 615.435C282.487 614.49 282.036 613.409 281.77 612.476C281.389 611.12 282.129 610.586 280.58 609.963C278.66 609.187 275.541 610.098 273.96 611.412C273.991 611.583 274.032 611.73 274.062 611.901L274.037 611.891Z" fill="white"/>
<path d="M310.443 604.927C309.714 603.962 310.335 601.083 311.451 600.618C313.037 599.957 315.034 602.195 315.857 603.285C317.208 605.055 315.969 606.451 314.076 605.787C313.357 605.534 312.633 605.222 311.946 604.997C311.399 604.815 311.529 605.027 310.949 604.716C310.606 604.531 310.273 604.077 309.968 603.835L310.426 604.934L310.443 604.927Z" fill="white"/>
<path d="M258.575 670.243C258.474 670.101 258.367 669.941 258.267 669.798C257.119 670.236 257.622 671.786 258.505 672.237C259.145 672.544 259.742 672.111 260.31 672.099C260.548 672.082 261.202 672.178 261.373 672.147C263.297 671.755 264.953 671.556 266.845 670.644C271.144 668.587 267.544 662.944 265.377 660.838C264.132 659.617 262.863 657.751 260.873 657.884C259.019 658.002 257.178 659.281 256.287 660.778C255.301 662.437 255.899 664.215 256.108 665.847C256.235 666.838 256.132 667.474 256.585 668.514C257.053 669.588 257.494 670.694 257.944 671.775L258.55 670.233L258.575 670.243Z" fill="white"/>
<path d="M225.601 597.647C224.502 596.632 223.731 595.664 224.125 594.107C224.211 593.723 224.512 592.677 224.77 592.365C224.873 592.219 226.304 590.988 226.322 590.981C227.201 590.635 228.844 591.486 229.562 592.128C229.761 592.311 230.652 593.27 230.803 593.535C231.293 594.416 230.684 595.017 231.02 595.921C230.182 596.414 229.788 597.089 229.02 597.553C228.102 598.099 227.049 597.392 226.131 597.447L225.608 597.665L225.601 597.647Z" fill="white"/>
<path d="M433.871 668.358C431.561 663.159 441.663 665.254 439.537 669.189C438.615 670.904 436.735 670.91 435.048 670.446C433.851 670.127 431.218 669.013 431.068 667.623L433.871 668.358Z" fill="white"/>
<path d="M412.933 630.395C413.4 632.35 412.996 633.787 415.49 633.485C416.582 633.357 418.715 633.86 419.093 632.311C419.401 631.036 418.109 629.262 417.198 628.598C415.9 627.644 414.265 627.405 412.932 628.574C412.962 628.746 413.003 628.893 413.033 629.064L412.968 630.381L412.933 630.395Z" fill="white"/>
<path d="M343.062 663.26C343.005 664.204 342.927 665.097 343.616 665.915C343.851 666.185 344.419 666.419 344.748 666.323C345.163 666.191 345.337 665.873 345.786 665.624C346.375 665.318 346.474 665.358 346.165 664.668C346.006 664.284 345.712 663.874 345.347 663.638C344.908 663.37 343.696 662.77 343.224 662.864L343.079 663.252L343.062 663.26Z" fill="white"/>
<path d="M375.745 644.419C375.745 644.419 375.632 644.589 375.591 644.688C375.675 643.957 376.243 643.209 377.093 643.284C377.522 643.331 377.872 643.778 378.122 644.084C378.38 644.406 378.615 644.677 378.834 645.056C379.313 645.86 378.967 646.945 377.937 647.027C377.359 647.063 375.641 646.182 375.571 645.474L375.753 644.437L375.745 644.419Z" fill="white"/>
<path d="M226.639 809.065C226.639 809.065 226.525 809.235 226.485 809.334C226.576 808.621 227.137 807.855 227.987 807.93C228.416 807.977 228.773 808.442 229.016 808.73C229.273 809.052 229.508 809.323 229.728 809.702C230.206 810.506 229.86 811.591 228.83 811.672C228.252 811.709 226.534 810.828 226.465 810.12L226.646 809.083L226.639 809.065Z" fill="white"/>
<path d="M233.841 757.799C233.177 759.447 233.179 761.759 233.705 763.464C234.092 764.736 236.165 765.489 237.226 766.07C238.001 766.505 238.798 766.848 239.641 767.151C240.311 767.384 241 767.465 241.66 767.723C242.319 767.98 242.972 767.974 243.595 768.144C243.785 768.208 244.202 768.423 244.384 768.368C244.583 768.306 245.019 767.633 245.17 767.406C246.184 765.96 247.05 764.453 247.837 762.856C248.297 761.948 249.108 760.504 248.924 759.476C248.597 757.708 246.782 756.397 245.573 755.264C244.642 754.403 243.547 752.956 242.324 752.524C241.538 752.258 240.788 752.571 240.06 752.935C239.597 753.149 239.624 753.363 239.277 753.61C238.85 753.91 238.442 754.06 238.044 754.431C237.518 754.936 236.864 755.577 236.142 755.858C235.357 756.185 234.75 756.643 233.833 757.782L233.841 757.799Z" fill="white"/>
<path d="M230.89 773.11C231.173 773.79 231.532 774.848 232.369 774.991C233.223 775.126 233.646 773.783 233.932 773.193C233.78 773.073 233.383 772.808 233.259 772.757C233.037 772.666 232.908 772.699 232.633 772.629C232.292 772.546 231.193 772.022 231.43 772.885L230.907 773.103L230.89 773.11Z" fill="white"/>
<path d="M280.547 782.034C280.683 782.509 280.2 782.527 279.867 782.318C279.517 782.116 279.44 781.636 279.287 781.27C278.858 780.241 279.343 779.834 280.352 779.7C281.787 779.511 283.64 779.292 284.682 780.761C285.23 781.536 285.191 781.982 284.638 782.621C284.197 783.133 283.876 783.738 283.302 784.079C282.658 784.45 282.013 784.227 281.587 783.647C281.441 783.442 281.433 783.179 281.304 782.967C281.211 782.842 281.025 782.838 280.946 782.748C280.667 782.373 280.531 781.898 280.332 781.469L280.557 782.009L280.547 782.034Z" fill="white"/>
<path d="M357.527 710.346C357.527 710.346 357.355 710.377 357.278 710.389C356.993 709.361 358.444 709.453 358.991 709.736C359.596 710.057 360.626 710.713 360.488 711.609C360.34 712.531 359.163 712.407 358.547 712.255C357.713 712.07 357.2 711.035 356.877 710.31L357.534 710.364L357.527 710.346Z" fill="white"/>
<path d="M413.489 664.429C412.92 664.83 412.983 666.994 413.512 667.428C413.888 667.742 414.793 667.508 415.235 667.488C415.796 667.459 416.332 667.42 416.855 667.447C416.98 666.863 416.84 665.693 416.587 665.184C416.323 664.599 415.634 664.272 415.292 663.698C414.909 663.857 414.548 663.68 414.15 663.805C413.728 663.92 413.205 664.138 412.882 664.395C412.911 664.465 412.913 664.567 412.924 664.644L413.447 664.426L413.489 664.429Z" fill="white"/>
<path d="M407.324 695.837C406.96 696.092 406.966 696.744 406.929 697.148C406.886 697.78 406.887 698.373 406.844 699.006C406.79 699.908 406.703 701.418 407.764 701.754C408.916 702.113 410.512 701.571 411.667 701.396C412.822 701.222 414.483 701.328 415.179 700.199C415.871 699.112 415.72 698.111 415.604 696.849C415.477 695.613 415.291 694.38 415.238 693.174C415.216 692.63 414.988 692.132 414.9 691.575C414.843 691.292 415.033 691.11 414.87 690.769C414.718 690.402 414.322 690.24 414.012 690.083C413.644 689.888 413.087 689.731 412.685 689.796C412.394 689.836 412.176 690.049 411.9 690.123C411.582 690.195 411.325 690.117 410.992 690.154C410.649 690.215 410.243 690.466 409.911 690.604C409.518 690.789 409.489 690.965 409.194 691.19C408.674 691.611 408.152 691.931 407.725 692.477C407.343 692.985 406.996 693.477 406.759 694.088C406.556 694.582 406.689 695.345 406.252 695.67L407.279 695.877L407.324 695.837Z" fill="white"/>
<path d="M418.517 697.211C418.517 697.211 418.345 697.242 418.268 697.253C417.97 696.784 418.434 696.079 418.574 695.632C418.929 695.648 419.224 695.668 419.51 695.815C419.871 695.992 420.241 696.39 420.561 696.666C421.122 697.129 422.643 698.03 421.818 698.701C421.118 699.279 420.374 698.771 419.675 698.468C419.149 698.237 418.047 698 417.725 697.521L418.527 697.187L418.517 697.211Z" fill="white"/>
<path d="M448.461 701.598C448.512 702.212 448.284 702.941 448.272 703.601C448.268 704.278 448.252 704.878 448.248 705.556C448.234 706.994 448.909 707.143 450.189 707.366C451.227 707.548 452.21 707.65 453.244 707.772C453.563 707.803 454.345 708.009 454.638 707.928C455.173 707.787 455.225 707.274 455.372 706.742C455.676 705.653 455.813 704.511 455.695 703.393C455.62 702.77 455.63 702.008 455.531 701.476C455.447 700.979 455.138 700.289 454.637 700.068C453.592 699.623 451.93 699.661 450.893 699.971C449.709 700.321 448.142 700.441 447.127 701.294C447.156 701.364 447.157 701.466 447.169 701.543L448.458 701.64L448.461 701.598Z" fill="white"/>
<path d="M452.577 713.637C451.737 713.782 451.846 713.061 452.02 712.497C452.238 711.793 452.574 711.714 453.219 711.445C454.195 711.038 455.339 711.278 456.314 711.752C456.978 712.069 457.078 712.211 456.773 712.952C456.587 713.439 456.205 713.946 455.788 714.223C455.194 714.613 452.59 715.289 452.414 714.032L452.56 713.644L452.577 713.637Z" fill="white"/>
<path d="M315.273 585.925C314.857 585.566 314.09 585.149 314.049 584.511C313.991 583.88 314.505 583.297 314.97 582.94C315.917 582.218 317.629 582.937 318.463 583.613C319.056 584.103 319.465 584.444 319.346 585.19C319.245 585.784 319.187 586.136 318.641 586.445C317.716 586.974 315.631 587.372 314.998 586.101C314.921 586.112 314.844 586.124 314.767 586.136L315.29 585.918L315.273 585.925Z" fill="white"/>
<path d="M290.768 642.805C290.093 642.902 289.991 643.64 289.427 643.957C290.371 644.894 291.315 645.442 292.726 645.243C294.018 645.053 294.649 643.623 295.06 642.449C295.272 641.828 295.625 641.497 294.963 641.036C294.583 640.764 293.516 640.902 293.165 640.946C291.836 641.193 290.239 641.879 289.416 642.898L290.786 642.797L290.768 642.805Z" fill="white"/>
<path d="M257.749 579.828C256.608 580.037 256.483 578.902 256.097 578.122C255.742 577.369 254.308 576.432 255.012 575.667C255.561 575.07 256.564 575.266 257.199 575.268C257.757 575.281 257.976 575.169 258.605 575.255C258.999 575.316 259.365 575.409 259.749 575.494C261.801 575.949 262.834 577.299 261.795 579.227C261.328 580.117 260.661 580.825 259.59 581.005C258.999 581.108 257.857 580.97 257.505 580.421L257.739 579.853L257.749 579.828Z" fill="white"/>
<path d="M249.888 571.131C249.852 571.044 249.815 570.957 249.772 570.852C250.196 572.558 251.751 572.115 252.216 570.775C252.479 570.031 251.987 569.54 251.291 569.196C250.277 568.677 249.833 569.23 249.547 570.312L249.888 571.131Z" fill="white"/>
<path d="M199.911 530.162C199.77 530.119 199.612 530.082 199.471 530.039C199.378 530.896 200.988 532.108 201.64 532.594C202.591 533.303 203.599 533.415 204.536 532.472C205.238 531.749 205.647 530.474 206.271 529.661C207.032 528.689 207.492 528.026 206.215 527.023C204.97 526.048 202.3 524.356 200.783 524.989C198.786 525.842 198.275 528.593 199.109 530.497L199.911 530.162Z" fill="white"/>
<path d="M193.987 535.048C193.919 535.179 193.833 535.317 193.765 535.448C193.208 534.8 192.567 533.163 193.183 532.333C193.789 531.528 194.784 532.198 195.624 532.544C196.249 532.816 197.858 533.435 197.413 534.48C197.21 534.974 194.856 535.709 194.345 535.759C194.215 535.547 194.069 535.342 193.929 535.154C193.817 535.18 193.698 535.189 193.569 535.223L193.97 535.055L193.987 535.048Z" fill="white"/>
<path d="M221.418 766.537C221.173 765.411 222.571 763.068 223.576 762.731C224.773 762.314 226.427 763.385 227.087 764.379C228.734 766.907 223.435 770.445 221.986 766.771L221.418 766.537Z" fill="white"/>
<path d="M237.49 746.82C238.691 748.572 240.999 745.665 239.145 744.309C238.822 744.075 237.525 743.859 237.236 744C236.682 744.292 236.373 745.71 236.748 746.168L237.49 746.82Z" fill="white"/>
<path d="M271.961 801.006C270.862 801.218 270.397 800.102 270.728 799.227C271.016 798.493 271.802 798.022 272.392 797.572C273.079 797.06 274.078 796.562 274.921 796.866C275.672 797.146 275.828 797.961 276.372 798.676C277.273 799.857 277.642 801.627 276.176 802.627C274.755 803.587 272.51 802.373 271.961 801.006Z" fill="white"/>
<path d="M412.108 710.955C411.05 709.595 414.54 706.38 415.388 705.617C416.119 704.965 417.065 704.387 418.144 704.08C418.965 703.84 419.783 704.134 420.572 704.603C422.55 705.765 424.335 707.886 425.901 709.485C426.518 710.129 427.583 711.015 427.475 712.084C427.432 712.47 427.105 712.913 427.027 713.315C426.922 713.849 426.953 714.266 426.732 714.768C426.232 715.877 425.589 716.984 424.87 717.959C424.419 718.597 423.918 719.604 423.311 720.062C421.934 721.127 418.881 720.087 417.553 719.207C416.111 718.252 414.649 717.347 413.288 716.338C412.305 715.601 411.837 715.264 411.811 713.924C411.799 713.11 412.042 711.925 411.781 711.153C411.872 711.074 411.969 711.013 412.059 710.935L412.108 710.955Z" fill="white"/>
<path d="M403.694 684.231C403.502 684.311 403.326 684.282 403.199 684.171C402.517 685.335 403.706 685.781 404.556 685.857C405.153 685.915 407.381 685.662 407.661 684.911C407.931 684.184 406.344 683.126 405.828 682.871C404.535 682.222 403.772 682.602 402.959 683.596L403.701 684.248L403.694 684.231Z" fill="white"/>
<path d="M424.761 651.849C424.723 652.643 424.737 654.295 425.776 654.333C426.544 654.361 428.164 653.338 428.549 652.788C429.223 651.853 428.826 650.36 428.405 649.348C427.947 648.25 427.604 646.837 426.951 645.861C425.7 643.987 422.726 645.493 421.191 646.132C420.668 646.35 420.121 646.558 419.587 646.801C418.992 647.09 418.932 647.34 418.527 647.693C418.104 648.053 417.811 648.135 417.491 648.595C417.106 649.145 417.305 649.328 417.034 649.953C418.273 651.258 419.801 652.32 420.891 653.708C421.248 654.173 421.114 654.638 421.78 654.811C422.146 654.904 422.793 654.737 423.16 654.686C424.298 654.519 425.114 654.22 425.863 653.314L424.778 651.842L424.761 651.849Z" fill="white"/>
<path d="M412.907 644.816C412.666 644.63 412.467 644.447 412.261 644.247C412.727 642.026 415.751 644.962 414.818 645.965C414.425 646.395 412.636 646.915 412.142 646.711C411.302 646.365 411.184 645.248 411.914 644.739L412.883 644.806L412.907 644.816Z" fill="white"/>
<path d="M280.243 642.791C280.918 644.311 280.455 647.226 283.115 646.834C283.637 646.76 284.03 646.33 284.527 646.245C284.93 646.18 285.248 646.354 285.668 646.282C286.823 646.107 287.11 645.128 287.985 644.722C287.604 643.366 287.704 641.79 286.77 640.48C286.469 640.053 285.999 639.614 285.632 639.174C285.311 638.796 284.67 638.387 284.173 638.226C282.964 637.829 281.54 638.832 280.773 639.643C280.116 640.326 278.992 641.9 279.835 642.94L280.236 642.773L280.243 642.791Z" fill="white"/>
<path d="M272.807 626.813C272.71 626.874 272.602 626.959 272.505 627.021C272.671 628.794 273.448 628.449 274.686 627.933C275.627 627.541 276.813 626.801 276.057 625.724C275.001 624.22 271.768 624.073 272.232 626.561L272.8 626.795L272.807 626.813Z" fill="white"/>
<path d="M246.139 586.734C246.042 586.795 245.934 586.881 245.837 586.942C246.003 588.715 246.798 588.364 248.018 587.855C248.96 587.463 250.145 586.723 249.389 585.646C248.34 584.159 245.117 583.988 245.564 586.483L246.132 586.717L246.139 586.734Z" fill="white"/>
<path d="M230.735 552.278C230.517 551.755 230.344 550.701 229.753 550.804C229.827 551.572 230.436 553.18 231.31 553.41C232.208 553.65 232.839 552.465 233.458 552.085C234.3 551.55 234.892 551.794 235.199 550.663C235.502 549.575 235.058 549.392 234.479 548.691C233.641 547.71 232.346 545.732 230.867 547.045C230.181 547.658 229.702 550.682 229.993 551.625L230.735 552.278Z" fill="white"/>
<path d="M238.702 552.294C237.891 551.527 237.182 550.758 237.913 549.614C238.53 548.641 239.534 548.939 240.461 549.494C241.176 549.933 242.321 550.765 241.763 551.735C241.226 552.655 239.378 552.934 238.468 552.862L238.702 552.294Z" fill="white"/>
<path style="mix-blend-mode:screen" opacity="0.32" d="M182.914 489.331C182.914 489.331 202.34 481.296 208.658 472.543C214.983 463.808 204.772 440.779 195.242 436.03C195.242 436.03 197.785 454.702 194.039 467.808C190.292 480.913 182.914 489.331 182.914 489.331Z" fill="url(#paint23_linear_6242_15795)"/>
</g>
<defs>
<radialGradient id="paint0_radial_6242_15795" cx="0" cy="0" r="1" gradientUnits="userSpaceOnUse" gradientTransform="translate(469.542 658.491) rotate(-81.6991) scale(29.0817 29.9441)">
<stop stop-color="#EC8331"/>
<stop offset="0.12" stop-color="#B56526"/>
<stop offset="0.23" stop-color="#854A1B"/>
<stop offset="0.35" stop-color="#5C3313"/>
<stop offset="0.47" stop-color="#3A200C"/>
<stop offset="0.6" stop-color="#201206"/>
<stop offset="0.72" stop-color="#0E0803"/>
<stop offset="0.85" stop-color="#030100"/>
<stop offset="1"/>
</radialGradient>
<radialGradient id="paint1_radial_6242_15795" cx="0" cy="0" r="1" gradientUnits="userSpaceOnUse" gradientTransform="translate(405.97 301.717) rotate(-81.6991) scale(39.5359 40.7083)">
<stop stop-color="#EC8331"/>
<stop offset="0.12" stop-color="#B56526"/>
<stop offset="0.23" stop-color="#854A1B"/>
<stop offset="0.35" stop-color="#5C3313"/>
<stop offset="0.47" stop-color="#3A200C"/>
<stop offset="0.6" stop-color="#201206"/>
<stop offset="0.72" stop-color="#0E0803"/>
<stop offset="0.85" stop-color="#030100"/>
<stop offset="1"/>
</radialGradient>
<radialGradient id="paint2_radial_6242_15795" cx="0" cy="0" r="1" gradientUnits="userSpaceOnUse" gradientTransform="translate(607.815 523.821) rotate(-81.6991) scale(25.2168 25.9645)">
<stop stop-color="#EC8331"/>
<stop offset="0.12" stop-color="#B56526"/>
<stop offset="0.23" stop-color="#854A1B"/>
<stop offset="0.35" stop-color="#5C3313"/>
<stop offset="0.47" stop-color="#3A200C"/>
<stop offset="0.6" stop-color="#201206"/>
<stop offset="0.72" stop-color="#0E0803"/>
<stop offset="0.85" stop-color="#030100"/>
<stop offset="1"/>
</radialGradient>
<radialGradient id="paint3_radial_6242_15795" cx="0" cy="0" r="1" gradientUnits="userSpaceOnUse" gradientTransform="translate(285.159 639.298) rotate(-81.6991) scale(39.5359 40.7083)">
<stop stop-color="#EC8331"/>
<stop offset="0.12" stop-color="#B56526"/>
<stop offset="0.23" stop-color="#854A1B"/>
<stop offset="0.35" stop-color="#5C3313"/>
<stop offset="0.47" stop-color="#3A200C"/>
<stop offset="0.6" stop-color="#201206"/>
<stop offset="0.72" stop-color="#0E0803"/>
<stop offset="0.85" stop-color="#030100"/>
<stop offset="1"/>
</radialGradient>
<radialGradient id="paint4_radial_6242_15795" cx="0" cy="0" r="1" gradientUnits="userSpaceOnUse" gradientTransform="translate(595.326 384.368) rotate(-81.6991) scale(39.5358 40.7083)">
<stop stop-color="#EC8331"/>
<stop offset="0.12" stop-color="#B56526"/>
<stop offset="0.23" stop-color="#854A1B"/>
<stop offset="0.35" stop-color="#5C3313"/>
<stop offset="0.47" stop-color="#3A200C"/>
<stop offset="0.6" stop-color="#201206"/>
<stop offset="0.72" stop-color="#0E0803"/>
<stop offset="0.85" stop-color="#030100"/>
<stop offset="1"/>
</radialGradient>
<radialGradient id="paint5_radial_6242_15795" cx="0" cy="0" r="1" gradientUnits="userSpaceOnUse" gradientTransform="translate(137.506 91.3394) rotate(-81.6991) scale(39.5359 40.7083)">
<stop stop-color="#EC8331"/>
<stop offset="0.12" stop-color="#B56526"/>
<stop offset="0.23" stop-color="#854A1B"/>
<stop offset="0.35" stop-color="#5C3313"/>
<stop offset="0.47" stop-color="#3A200C"/>
<stop offset="0.6" stop-color="#201206"/>
<stop offset="0.72" stop-color="#0E0803"/>
<stop offset="0.85" stop-color="#030100"/>
<stop offset="1"/>
</radialGradient>
<radialGradient id="paint6_radial_6242_15795" cx="0" cy="0" r="1" gradientUnits="userSpaceOnUse" gradientTransform="translate(41.575 880.029) rotate(-81.6991) scale(39.5358 40.7083)">
<stop stop-color="#EC8331"/>
<stop offset="0.12" stop-color="#B56526"/>
<stop offset="0.23" stop-color="#854A1B"/>
<stop offset="0.35" stop-color="#5C3313"/>
<stop offset="0.47" stop-color="#3A200C"/>
<stop offset="0.6" stop-color="#201206"/>
<stop offset="0.72" stop-color="#0E0803"/>
<stop offset="0.85" stop-color="#030100"/>
<stop offset="1"/>
</radialGradient>
<radialGradient id="paint7_radial_6242_15795" cx="0" cy="0" r="1" gradientUnits="userSpaceOnUse" gradientTransform="translate(500.976 465.245) rotate(-81.6991) scale(39.5359 40.7083)">
<stop stop-color="#EC8331"/>
<stop offset="0.12" stop-color="#B56526"/>
<stop offset="0.23" stop-color="#854A1B"/>
<stop offset="0.35" stop-color="#5C3313"/>
<stop offset="0.47" stop-color="#3A200C"/>
<stop offset="0.6" stop-color="#201206"/>
<stop offset="0.72" stop-color="#0E0803"/>
<stop offset="0.85" stop-color="#030100"/>
<stop offset="1"/>
</radialGradient>
<radialGradient id="paint8_radial_6242_15795" cx="0" cy="0" r="1" gradientUnits="userSpaceOnUse" gradientTransform="translate(117.527 773.2) rotate(-81.6991) scale(39.5358 40.7083)">
<stop stop-color="#EC8331"/>
<stop offset="0.12" stop-color="#B56526"/>
<stop offset="0.23" stop-color="#854A1B"/>
<stop offset="0.35" stop-color="#5C3313"/>
<stop offset="0.47" stop-color="#3A200C"/>
<stop offset="0.6" stop-color="#201206"/>
<stop offset="0.72" stop-color="#0E0803"/>
<stop offset="0.85" stop-color="#030100"/>
<stop offset="1"/>
</radialGradient>
<radialGradient id="paint9_radial_6242_15795" cx="0" cy="0" r="1" gradientUnits="userSpaceOnUse" gradientTransform="translate(404.226 489.624) rotate(-81.6991) scale(34.6572 35.685)">
<stop stop-color="#EC8331"/>
<stop offset="0.12" stop-color="#B56526"/>
<stop offset="0.23" stop-color="#854A1B"/>
<stop offset="0.35" stop-color="#5C3313"/>
<stop offset="0.47" stop-color="#3A200C"/>
<stop offset="0.6" stop-color="#201206"/>
<stop offset="0.72" stop-color="#0E0803"/>
<stop offset="0.85" stop-color="#030100"/>
<stop offset="1"/>
</radialGradient>
<radialGradient id="paint10_radial_6242_15795" cx="0" cy="0" r="1" gradientUnits="userSpaceOnUse" gradientTransform="translate(273.559 839.207) rotate(-81.6991) scale(34.6572 35.685)">
<stop stop-color="#EC8331"/>
<stop offset="0.12" stop-color="#B56526"/>
<stop offset="0.23" stop-color="#854A1B"/>
<stop offset="0.35" stop-color="#5C3313"/>
<stop offset="0.47" stop-color="#3A200C"/>
<stop offset="0.6" stop-color="#201206"/>
<stop offset="0.72" stop-color="#0E0803"/>
<stop offset="0.85" stop-color="#030100"/>
<stop offset="1"/>
</radialGradient>
<radialGradient id="paint11_radial_6242_15795" cx="0" cy="0" r="1" gradientUnits="userSpaceOnUse" gradientTransform="translate(244.501 123.875) rotate(-81.6991) scale(34.6572 35.685)">
<stop stop-color="#EC8331"/>
<stop offset="0.12" stop-color="#B56526"/>
<stop offset="0.23" stop-color="#854A1B"/>
<stop offset="0.35" stop-color="#5C3313"/>
<stop offset="0.47" stop-color="#3A200C"/>
<stop offset="0.6" stop-color="#201206"/>
<stop offset="0.72" stop-color="#0E0803"/>
<stop offset="0.85" stop-color="#030100"/>
<stop offset="1"/>
</radialGradient>
<radialGradient id="paint12_radial_6242_15795" cx="0" cy="0" r="1" gradientUnits="userSpaceOnUse" gradientTransform="translate(442.146 595.93) rotate(-81.6991) scale(13.7172 14.1239)">
<stop stop-color="#E8AB55"/>
<stop offset="0.1" stop-color="#DAA050"/>
<stop offset="0.28" stop-color="#B68642"/>
<stop offset="0.53" stop-color="#7C5B2D"/>
<stop offset="0.84" stop-color="#2D2110"/>
<stop offset="1"/>
</radialGradient>
<radialGradient id="paint13_radial_6242_15795" cx="0" cy="0" r="1" gradientUnits="userSpaceOnUse" gradientTransform="translate(66.7621 183.505) rotate(-81.6991) scale(25.2484 25.9972)">
<stop stop-color="#E8AB55"/>
<stop offset="0.1" stop-color="#DAA050"/>
<stop offset="0.28" stop-color="#B68642"/>
<stop offset="0.53" stop-color="#7C5B2D"/>
<stop offset="0.84" stop-color="#2D2110"/>
<stop offset="1"/>
</radialGradient>
<radialGradient id="paint14_radial_6242_15795" cx="0" cy="0" r="1" gradientUnits="userSpaceOnUse" gradientTransform="translate(445.952 401.351) rotate(-81.6991) scale(25.2484 25.9972)">
<stop stop-color="#E8AB55"/>
<stop offset="0.1" stop-color="#DAA050"/>
<stop offset="0.28" stop-color="#B68642"/>
<stop offset="0.53" stop-color="#7C5B2D"/>
<stop offset="0.84" stop-color="#2D2110"/>
<stop offset="1"/>
</radialGradient>
<radialGradient id="paint15_radial_6242_15795" cx="0" cy="0" r="1" gradientUnits="userSpaceOnUse" gradientTransform="translate(526.63 559.527) rotate(-81.6991) scale(25.2484 25.9972)">
<stop stop-color="#E8AB55"/>
<stop offset="0.1" stop-color="#DAA050"/>
<stop offset="0.28" stop-color="#B68642"/>
<stop offset="0.53" stop-color="#7C5B2D"/>
<stop offset="0.84" stop-color="#2D2110"/>
<stop offset="1"/>
</radialGradient>
<radialGradient id="paint16_radial_6242_15795" cx="0" cy="0" r="1" gradientUnits="userSpaceOnUse" gradientTransform="translate(331.764 431.038) rotate(-81.6991) scale(25.2484 25.9972)">
<stop stop-color="#E8AB55"/>
<stop offset="0.1" stop-color="#DAA050"/>
<stop offset="0.28" stop-color="#B68642"/>
<stop offset="0.53" stop-color="#7C5B2D"/>
<stop offset="0.84" stop-color="#2D2110"/>
<stop offset="1"/>
</radialGradient>
<radialGradient id="paint17_radial_6242_15795" cx="0" cy="0" r="1" gradientUnits="userSpaceOnUse" gradientTransform="translate(361.36 227.857) rotate(-81.6991) scale(25.2485 25.9972)">
<stop stop-color="#E8AB55"/>
<stop offset="0.1" stop-color="#DAA050"/>
<stop offset="0.28" stop-color="#B68642"/>
<stop offset="0.53" stop-color="#7C5B2D"/>
<stop offset="0.84" stop-color="#2D2110"/>
<stop offset="1"/>
</radialGradient>
<radialGradient id="paint18_radial_6242_15795" cx="0" cy="0" r="1" gradientUnits="userSpaceOnUse" gradientTransform="translate(387.344 723.39) rotate(-81.6991) scale(25.2485 25.9972)">
<stop stop-color="#E8AB55"/>
<stop offset="0.1" stop-color="#DAA050"/>
<stop offset="0.28" stop-color="#B68642"/>
<stop offset="0.53" stop-color="#7C5B2D"/>
<stop offset="0.84" stop-color="#2D2110"/>
<stop offset="1"/>
</radialGradient>
<radialGradient id="paint19_radial_6242_15795" cx="0" cy="0" r="1" gradientUnits="userSpaceOnUse" gradientTransform="translate(222.986 725.537) rotate(-81.6991) scale(25.2484 25.9972)">
<stop stop-color="#E8AB55"/>
<stop offset="0.1" stop-color="#DAA050"/>
<stop offset="0.28" stop-color="#B68642"/>
<stop offset="0.53" stop-color="#7C5B2D"/>
<stop offset="0.84" stop-color="#2D2110"/>
<stop offset="1"/>
</radialGradient>
<linearGradient id="paint20_linear_6242_15795" x1="381.874" y1="844.84" x2="207.671" y2="430.098" gradientUnits="userSpaceOnUse">
<stop stop-color="#FF87DF"/>
<stop offset="1" stop-color="#E431FF"/>
</linearGradient>
<linearGradient id="paint21_linear_6242_15795" x1="333.746" y1="833.913" x2="131.39" y2="399.393" gradientUnits="userSpaceOnUse">
<stop offset="0.18"/>
<stop offset="0.43" stop-color="#B300FF"/>
</linearGradient>
<radialGradient id="paint22_radial_6242_15795" cx="0" cy="0" r="1" gradientUnits="userSpaceOnUse" gradientTransform="translate(321.025 725.396) rotate(-22.7737) scale(177.117 181.635)">
<stop stop-color="#FF73FF"/>
<stop offset="0.09" stop-color="#D761D7"/>
<stop offset="0.23" stop-color="#9F479F"/>
<stop offset="0.36" stop-color="#6E316E"/>
<stop offset="0.5" stop-color="#461F46"/>
<stop offset="0.63" stop-color="#271127"/>
<stop offset="0.76" stop-color="#110811"/>
<stop offset="0.89" stop-color="#040204"/>
<stop offset="1"/>
</radialGradient>
<linearGradient id="paint23_linear_6242_15795" x1="160.158" y1="365.401" x2="98.422" y2="478.123" gradientUnits="userSpaceOnUse">
<stop offset="0.18"/>
<stop offset="0.43" stop-color="#B300FF"/>
</linearGradient>
<clipPath id="clip0_6242_15795">
<rect width="355" height="500" fill="white" transform="translate(38 501.561) rotate(-22.6237)"/>
</clipPath>
</defs>
</svg>
