<svg width="553" height="470" viewBox="0 0 553 470" fill="none" xmlns="http://www.w3.org/2000/svg">
<g clip-path="url(#clip0_288_5525)">
<path d="M230.809 430.409C283.61 377.62 283.61 292.031 230.809 239.242C178.008 186.453 92.4015 186.453 39.6008 239.242C-13.1999 292.031 -13.1999 377.62 39.6008 430.409C92.4015 483.198 178.008 483.198 230.809 430.409Z" fill="url(#paint0_radial_288_5525)" fill-opacity="0.7" style="mix-blend-mode:screen"/>
<path d="M551.035 156.568C550.018 156.796 548.921 156.373 548.338 155.437C539.573 141.287 523.227 141.853 523.061 141.864C522.056 141.91 521.119 141.344 520.679 140.436C520.239 139.528 520.393 138.443 521.056 137.683C521.147 137.574 530.352 126.881 528.912 109.904C528.798 108.516 529.849 107.294 531.209 107.185C532.591 107.065 533.814 108.093 533.928 109.481C535.037 122.477 530.677 132.096 527.609 137.117C534.014 137.957 545.384 141.116 552.617 152.792C553.349 153.974 552.983 155.528 551.8 156.259C551.555 156.408 551.292 156.516 551.029 156.573L551.035 156.568Z" fill="#AB2F39"/>
<path d="M103.106 208.224L80.035 238.253L76.5555 242.755L75.4356 244.194L78.4009 254.368L78.8637 255.967L93.039 304.396L101.975 334.854L104.477 343.428L104.906 344.879L105.426 346.724L112.294 351.528L119.293 356.457L154.425 381.06L154.619 381.226L155.545 381.894L168.617 317.825L146.649 220.408L103.112 208.23L103.106 208.224ZM117.184 226.68C114.939 219.7 109.962 215.039 106.111 216.272C102.209 217.512 100.929 224.201 103.175 231.181C105.432 238.208 110.408 242.869 114.259 241.641C118.11 240.413 119.441 233.712 117.184 226.68Z" fill="url(#paint1_linear_288_5525)"/>
<path d="M146.66 220.414L168.635 317.831L155.562 381.9L154.636 381.231L115.83 245.862L146.66 220.414Z" fill="url(#paint2_linear_288_5525)"/>
<path d="M146.66 220.414L119.498 258.389L75.4585 244.211L105.472 205.179L146.66 220.414Z" fill="url(#paint3_linear_288_5525)"/>
<g style="mix-blend-mode:screen" opacity="0.65">
<path d="M153.619 251.266L154.299 254.265L135.096 312.896L104.929 344.89L101.998 334.865L132.491 303.625L153.619 251.266Z" fill="#50FCFF"/>
</g>
<g style="mix-blend-mode:screen" opacity="0.65">
<path d="M158.607 273.372L159.259 276.268L140.278 333.825L119.31 356.463L112.311 351.539L137.473 325.731L158.607 273.372Z" fill="#50FCFF"/>
</g>
<path style="mix-blend-mode:screen" d="M154.448 381.066L119.315 356.463L112.316 351.533L105.449 346.729L104.929 344.884L101.998 334.859L93.0618 304.401C113.179 300.431 143.626 347.517 154.448 381.054V381.066Z" fill="url(#paint4_linear_288_5525)"/>
<path d="M119.498 258.389L146.66 220.414L120.532 261.959L119.498 258.389Z" fill="url(#paint5_linear_288_5525)"/>
<g style="mix-blend-mode:screen">
<path d="M75.4585 244.211L119.498 258.389L155.562 381.9L116.327 260.485L75.4585 244.211Z" fill="#CEFF85"/>
</g>
<path style="mix-blend-mode:screen" d="M124.614 274.221C132.787 270.357 136.279 260.601 132.414 252.43C128.549 244.259 118.79 240.767 110.618 244.632C102.445 248.496 98.9529 258.252 102.818 266.423C106.683 274.594 116.441 278.085 124.614 274.221Z" fill="url(#paint6_radial_288_5525)"/>
<g style="mix-blend-mode:screen">
<path d="M137.09 342.525C138.616 347.575 138.181 352.173 136.125 352.796C134.068 353.418 131.16 349.825 129.634 344.776C128.109 339.726 128.543 335.128 130.6 334.505C132.656 333.883 135.565 337.476 137.09 342.525Z" fill="#6EF9FF"/>
</g>
<g style="mix-blend-mode:screen">
<path d="M117.596 321.47C118.333 323.914 118.127 326.142 117.127 326.445C116.127 326.748 114.722 325.005 113.985 322.561C113.248 320.116 113.453 317.888 114.453 317.585C115.447 317.282 116.859 319.025 117.596 321.47Z" fill="#6EF9FF"/>
</g>
<g style="mix-blend-mode:screen">
<path d="M124.315 302.956C126.263 309.4 125.709 315.266 123.086 316.06C120.458 316.854 116.756 312.273 114.807 305.829C112.859 299.386 113.413 293.519 116.036 292.725C118.664 291.931 122.366 296.513 124.315 302.956Z" fill="#6EF9FF"/>
</g>
<g style="mix-blend-mode:screen" opacity="0.5">
<path d="M156.088 342.616C156.945 346.415 156.385 349.774 154.836 350.122C153.288 350.471 151.34 347.677 150.483 343.879C149.626 340.08 150.186 336.721 151.734 336.373C153.282 336.024 155.231 338.818 156.088 342.616Z" fill="#6EF9FF"/>
</g>
<g style="mix-blend-mode:screen" opacity="0.5">
<path d="M88.6338 261.028C89.4909 264.827 88.9309 268.185 87.3826 268.534C85.8342 268.882 83.8859 266.089 83.0289 262.29C82.1718 258.492 82.7318 255.133 84.2801 254.784C85.8285 254.436 87.7768 257.229 88.6338 261.028Z" fill="#6EF9FF"/>
</g>
<g style="mix-blend-mode:screen">
<path d="M146.66 220.414L168.635 317.831L155.562 381.9L154.636 381.231L154.448 381.066L119.31 356.463L112.311 351.539L105.449 346.735L104.929 344.89L104.5 343.439L154.002 377.501L166.138 319.579L146.66 220.414Z" fill="#6224FF"/>
</g>
<path d="M144.546 257.458C145.752 262.81 144.683 267.609 142.158 268.18C139.633 268.751 136.61 264.872 135.399 259.52C134.193 254.168 135.262 249.369 137.787 248.798C140.313 248.227 143.335 252.105 144.541 257.458H144.546Z" fill="url(#paint7_linear_288_5525)"/>
<g style="mix-blend-mode:multiply" opacity="0.2">
<path d="M137.73 250.409L140.358 265.044C112.356 273.212 89.4509 262.531 78.8866 255.984L75.4585 244.211L80.0578 238.271C95.4786 260.863 137.736 250.409 137.736 250.409H137.73Z" fill="#1888D3"/>
</g>
<path d="M144.575 257.469C144.695 258.012 144.832 258.6 144.855 259.16C145.54 263.804 144.449 267.666 142.192 268.174C139.638 268.751 136.599 264.89 135.393 259.537L135.313 259.194C134.942 257.315 134.799 255.544 134.959 253.956C135.205 251.163 136.193 249.135 137.816 248.769C139.73 248.335 141.992 250.563 143.495 254.042C143.935 255.076 144.301 256.235 144.575 257.464V257.469Z" fill="url(#paint8_linear_288_5525)"/>
<path d="M140.993 250.18C142.192 251.746 143.232 254.019 143.826 256.652C145.032 262.005 143.964 266.803 141.438 267.369C140.398 267.603 139.284 267.054 138.233 265.992C139.467 267.603 140.873 268.465 142.158 268.174C144.683 267.603 145.752 262.804 144.546 257.452C143.838 254.305 142.489 251.694 140.993 250.169V250.18Z" fill="#1888D3"/>
<path d="M521.616 306.275C509.143 328.136 491.86 341.685 470.137 346.581C468.908 346.855 467.623 347.095 466.383 347.323C419.344 355.555 368.493 323.086 354.375 311.09C342.228 300.717 332.932 286.756 320.06 267.46C309.044 250.895 295.309 230.296 275.197 205.459C262.45 189.699 249.407 183.604 238.214 182.05C229.101 180.799 221.182 182.536 215.645 184.558C202.607 189.253 191.626 199.164 185.192 210.937C181.159 218.249 178.907 226.343 179.005 234.323C179.09 241.583 176.736 247.381 172.005 251.597C167.315 255.75 160.99 257.692 155.213 258.429C154.859 258.458 154.516 258.538 154.111 258.572C153.705 258.612 153.254 258.663 152.802 258.715C152.094 258.772 151.283 258.852 150.511 258.869C148.689 259.023 146.74 259.097 144.849 259.166C144.643 259.166 144.432 259.154 144.238 259.2C142.489 259.234 140.793 259.257 139.29 259.234C137.747 259.274 136.393 259.217 135.308 259.206C135.273 259.057 135.239 258.909 135.256 258.755L135.21 258.56C135.045 257.823 134.999 257.161 134.942 256.453C134.925 256.144 134.896 255.79 134.879 255.487C134.89 255.07 134.908 254.705 134.93 254.339C134.959 254.23 134.925 254.082 134.953 253.973C135.896 254.019 137.079 254.008 138.376 254.031C139.827 254.065 141.381 254.076 143.032 254.065C143.192 254.082 143.289 254.059 143.449 254.076L143.501 254.065C146.7 254.065 150.043 253.985 152.614 253.716C152.819 253.716 152.979 253.739 153.174 253.694C153.482 253.676 153.825 253.596 154.128 253.579C159.19 252.905 164.715 251.294 168.68 247.821C172.348 244.622 174.04 240.213 173.965 234.397C173.857 225.441 176.462 216.387 181.061 208.172C188.066 195.497 199.87 184.883 213.908 179.811C221.547 177.058 229.284 176.087 236.848 176.909C252.172 178.463 266.89 187.174 279.14 202.323C299.394 227.337 313.209 248.073 324.236 264.684C336.88 283.672 346.022 297.404 357.649 307.28C374.835 321.887 423.749 349.677 465.48 342.388C487.432 338.521 504.852 325.56 517.233 303.773C537.116 268.991 538.962 212.148 522.473 150.718C521.936 148.571 521.341 146.377 520.696 144.201C519.53 140.179 518.325 136.215 517.039 132.325C499.373 78.024 471.188 35.4904 442.055 19.8617C364.34 -21.8322 312.627 32.9885 278.363 69.2557L277.7 69.9754C244.453 105.243 199.208 124.893 156.608 122.568C151.643 122.294 145.575 123.094 138.981 124.785C115.807 130.783 85.9713 148.451 72.0761 174.51C67.2481 183.547 64.757 192.886 64.5456 202.483C64.2143 215.673 68.2537 229.216 76.5783 242.772L75.4585 244.211L78.4238 254.385C64.5342 235.837 59.6092 219.031 59.4663 204.659C59.3406 191.732 63.0544 180.725 67.6252 172.157C82.269 144.595 112.802 126.35 137.193 120.026C144.495 118.073 151.237 117.273 156.876 117.553C198.019 119.792 241.83 100.673 274.049 66.5652L274.712 65.8455C307.839 30.7093 363.306 -28.0529 444.415 15.4061C474.662 31.6118 503.818 75.265 521.861 130.771C522.01 131.2 522.158 131.634 522.261 132.074C522.57 132.988 522.878 133.896 523.141 134.821C523.878 137.186 524.621 139.545 525.312 141.921L525.324 141.973C525.392 142.27 525.495 142.504 525.564 142.795C526.072 144.589 526.581 146.388 527.026 148.142C527.163 148.525 527.255 148.919 527.341 149.307C544.218 211.994 542.139 270.328 521.644 306.286L521.616 306.275Z" fill="url(#paint9_linear_288_5525)"/>
<path d="M528.255 138.7C529.815 144.041 530.46 148.873 525.124 150.433C519.787 151.992 517.211 148.045 515.651 142.704C514.091 137.363 514.137 132.656 519.473 131.097C524.815 129.537 526.695 133.359 528.249 138.7H528.255Z" fill="#AB2F39"/>
<path d="M528.272 138.751C529.575 143.207 530.255 147.2 526.844 148.194C523.438 149.187 521.547 145.823 520.244 141.367C518.942 136.912 518.725 133.056 522.13 132.062C525.535 131.068 526.969 134.296 528.266 138.751H528.272Z" fill="#D63447"/>
<g style="mix-blend-mode:screen">
<path d="M238.214 182.05C229.101 180.799 221.182 182.536 215.645 184.558C202.607 189.253 191.626 199.164 185.192 210.937C183.69 209.777 182.347 208.841 181.056 208.155C188.06 195.48 199.865 184.866 213.903 179.794C221.542 177.04 229.278 176.069 236.843 176.892C237.317 178.543 237.802 180.239 238.214 182.056V182.05Z" fill="#AB2F39"/>
</g>
<g style="mix-blend-mode:screen">
<path d="M138.964 124.773C115.79 130.771 85.9542 148.439 72.0589 174.499C67.231 183.535 64.7399 192.875 64.5285 202.472C62.963 203.083 61.2604 203.774 59.4435 204.648C59.3178 191.721 63.0316 180.713 67.6024 172.145C82.2461 144.583 112.779 126.338 137.17 120.015C137.684 121.603 138.307 123.219 138.964 124.773Z" fill="#AB2F39"/>
</g>
<g style="mix-blend-mode:screen" opacity="0.25">
<path d="M98.6839 366.722C109.409 366.722 118.104 358.029 118.104 347.306C118.104 336.583 109.409 327.89 98.6839 327.89C87.9584 327.89 79.2636 336.583 79.2636 347.306C79.2636 358.029 87.9584 366.722 98.6839 366.722Z" fill="#64DBFF"/>
</g>
<g style="mix-blend-mode:screen" opacity="0.25">
<path d="M131.045 409.244C134.62 409.244 137.519 406.347 137.519 402.772C137.519 399.198 134.62 396.3 131.045 396.3C127.47 396.3 124.572 399.198 124.572 402.772C124.572 406.347 127.47 409.244 131.045 409.244Z" fill="#64DBFF"/>
</g>
<g style="mix-blend-mode:screen" opacity="0.25">
<path d="M192.997 326.97C209.339 326.97 222.587 313.725 222.587 297.387C222.587 281.048 209.339 267.803 192.997 267.803C176.655 267.803 163.407 281.048 163.407 297.387C163.407 313.725 176.655 326.97 192.997 326.97Z" fill="#64DBFF"/>
</g>
<path d="M198.136 298.585C198.807 295.744 197.047 292.899 194.206 292.228C191.366 291.558 188.519 293.317 187.849 296.157C187.178 298.997 188.938 301.843 191.778 302.513C194.619 303.184 197.466 301.425 198.136 298.585Z" fill="#64DBFF"/>
<path d="M79.5162 302.224C80.1867 299.384 78.4273 296.538 75.5865 295.868C72.7458 295.197 69.8993 296.956 69.2288 299.796C68.5584 302.637 70.3177 305.482 73.1585 306.153C75.9993 306.823 78.8457 305.064 79.5162 302.224Z" fill="#64DBFF"/>
<path d="M179.787 356.492C179.787 358.194 178.405 359.57 176.708 359.57C175.011 359.57 173.628 358.188 173.628 356.492C173.628 354.795 175.011 353.413 176.708 353.413C178.405 353.413 179.787 354.795 179.787 356.492Z" fill="#64DBFF"/>
<path d="M106.431 392.245C107.795 392.245 108.9 391.14 108.9 389.777C108.9 388.414 107.795 387.309 106.431 387.309C105.068 387.309 103.963 388.414 103.963 389.777C103.963 391.14 105.068 392.245 106.431 392.245Z" fill="#64DBFF"/>
<g style="mix-blend-mode:screen" opacity="0.25">
<path d="M39.407 296.734C40.0618 292.701 37.3227 288.901 33.2891 288.247C29.2555 287.592 25.4549 290.331 24.8002 294.363C24.1455 298.396 26.8845 302.196 30.9181 302.85C34.9517 303.505 38.7523 300.766 39.407 296.734Z" fill="#64DBFF"/>
</g>
<g style="mix-blend-mode:screen" opacity="0.25">
<path d="M201.269 389.783C203.797 387.255 203.797 383.158 201.269 380.63C198.741 378.103 194.642 378.103 192.114 380.63C189.586 383.158 189.586 387.255 192.114 389.783C194.642 392.31 198.741 392.31 201.269 389.783Z" fill="#64DBFF"/>
</g>
<g style="mix-blend-mode:screen" opacity="0.25">
<path d="M71.6643 406.235C73.0552 397.668 67.2365 389.596 58.6679 388.206C50.0993 386.815 42.0256 392.633 40.6347 401.2C39.2438 409.766 45.0625 417.838 53.6311 419.229C62.1997 420.619 70.2734 414.802 71.6643 406.235Z" fill="#64DBFF"/>
</g>
</g>
<defs>
<radialGradient id="paint0_radial_288_5525" cx="0" cy="0" r="1" gradientUnits="userSpaceOnUse" gradientTransform="translate(135.205 334.826) scale(135.205 135.175)">
<stop stop-color="#61F1FF"/>
<stop offset="1" stop-color="#3A9199" stop-opacity="0"/>
</radialGradient>
<linearGradient id="paint1_linear_288_5525" x1="145.303" y1="384.196" x2="105.501" y2="207.684" gradientUnits="userSpaceOnUse">
<stop stop-color="#00F2DF"/>
<stop offset="0.21" stop-color="#00EEDF"/>
<stop offset="0.4" stop-color="#00E3DF"/>
<stop offset="0.57" stop-color="#00D1DF"/>
<stop offset="0.74" stop-color="#00B8E0"/>
<stop offset="0.91" stop-color="#0097E1"/>
<stop offset="1" stop-color="#0082E2"/>
</linearGradient>
<linearGradient id="paint2_linear_288_5525" x1="118.143" y1="370.253" x2="163.177" y2="225.552" gradientUnits="userSpaceOnUse">
<stop stop-color="#2BDDF7"/>
<stop offset="1" stop-color="#4043C8"/>
</linearGradient>
<linearGradient id="paint3_linear_288_5525" x1="74.5789" y1="240.334" x2="147.445" y2="223.896" gradientUnits="userSpaceOnUse">
<stop stop-color="#80FFF9"/>
<stop offset="0.24" stop-color="#83FEF9"/>
<stop offset="0.45" stop-color="#8EFEFA"/>
<stop offset="0.65" stop-color="#A0FEFB"/>
<stop offset="0.84" stop-color="#B9FEFD"/>
<stop offset="1" stop-color="#D4FEFF"/>
</linearGradient>
<linearGradient id="paint4_linear_288_5525" x1="133.469" y1="385.793" x2="114.05" y2="299.677" gradientUnits="userSpaceOnUse">
<stop stop-color="white"/>
<stop offset="0.09" stop-color="#F8F8F8"/>
<stop offset="0.22" stop-color="#E5E5E5"/>
<stop offset="0.37" stop-color="#C6C6C6"/>
<stop offset="0.54" stop-color="#9A9A9A"/>
<stop offset="0.72" stop-color="#636363"/>
<stop offset="0.91" stop-color="#202020"/>
<stop offset="1"/>
</linearGradient>
<linearGradient id="paint5_linear_288_5525" x1="116.488" y1="245.043" x2="150.486" y2="237.374" gradientUnits="userSpaceOnUse">
<stop stop-color="#00F2DF"/>
<stop offset="0.21" stop-color="#00EEDF"/>
<stop offset="0.4" stop-color="#00E3DF"/>
<stop offset="0.57" stop-color="#00D1DF"/>
<stop offset="0.74" stop-color="#00B8E0"/>
<stop offset="0.91" stop-color="#0097E1"/>
<stop offset="1" stop-color="#0082E2"/>
</linearGradient>
<radialGradient id="paint6_radial_288_5525" cx="0" cy="0" r="1" gradientUnits="userSpaceOnUse" gradientTransform="translate(117.611 259.432) rotate(-12.7073) scale(16.3691 16.3658)">
<stop stop-color="white"/>
<stop offset="0.07" stop-color="#E1E1E1"/>
<stop offset="0.21" stop-color="#A6A6A6"/>
<stop offset="0.36" stop-color="#737373"/>
<stop offset="0.5" stop-color="#4A4A4A"/>
<stop offset="0.64" stop-color="#292929"/>
<stop offset="0.77" stop-color="#121212"/>
<stop offset="0.89" stop-color="#040404"/>
<stop offset="1"/>
</radialGradient>
<linearGradient id="paint7_linear_288_5525" x1="142.162" y1="268.175" x2="137.793" y2="248.799" gradientUnits="userSpaceOnUse">
<stop stop-color="#0C63C7"/>
<stop offset="0.23" stop-color="#094FA8"/>
<stop offset="0.56" stop-color="#063682"/>
<stop offset="0.83" stop-color="#04276A"/>
<stop offset="1" stop-color="#042262"/>
</linearGradient>
<linearGradient id="paint8_linear_288_5525" x1="142.161" y1="268.182" x2="137.786" y2="248.779" gradientUnits="userSpaceOnUse">
<stop stop-color="#0C63C7"/>
<stop offset="0.23" stop-color="#094FA8"/>
<stop offset="0.56" stop-color="#063682"/>
<stop offset="0.83" stop-color="#04276A"/>
<stop offset="1" stop-color="#042262"/>
</linearGradient>
<linearGradient id="paint9_linear_288_5525" x1="68.8737" y1="253.262" x2="527.726" y2="149.749" gradientUnits="userSpaceOnUse">
<stop stop-color="#AB2F39"/>
<stop offset="1" stop-color="#840817"/>
</linearGradient>
<clipPath id="clip0_288_5525">
<rect width="553" height="470" fill="white"/>
</clipPath>
</defs>
</svg>
