<svg width="553" height="470" viewBox="0 0 553 470" fill="none" xmlns="http://www.w3.org/2000/svg">
<g clip-path="url(#clip0_6238_10495)">
<path style="mix-blend-mode:screen" d="M230.809 430.409C283.609 377.62 283.609 292.032 230.809 239.243C178.008 186.454 92.401 186.454 39.6002 239.243C-13.2005 292.032 -13.2005 377.62 39.6003 430.409C92.401 483.199 178.008 483.199 230.809 430.409Z" fill="url(#paint0_radial_6238_10495)"/>
<path d="M551.034 156.568C550.017 156.796 548.92 156.374 548.338 155.437C539.573 141.288 523.227 141.853 523.061 141.865C522.055 141.91 521.118 141.345 520.679 140.436C520.239 139.528 520.393 138.443 521.056 137.683C521.147 137.575 530.351 126.881 528.912 109.904C528.797 108.516 529.849 107.294 531.209 107.185C532.591 107.065 533.814 108.094 533.928 109.482C535.037 122.477 530.677 132.097 527.609 137.118C534.014 137.957 545.384 141.116 552.617 152.792C553.348 153.975 552.983 155.528 551.8 156.259C551.554 156.408 551.292 156.516 551.029 156.574L551.034 156.568Z" fill="#AB2F39"/>
<path d="M103.106 208.225L80.0349 238.254L76.5554 242.755L75.4355 244.195L78.4009 254.368L78.8637 255.968L93.0389 304.396L101.975 334.854L104.477 343.428L104.906 344.879L105.426 346.724L112.293 351.528L119.293 356.458L154.425 381.061L154.619 381.226L155.545 381.895L168.617 317.826L146.649 220.409L103.112 208.23L103.106 208.225ZM117.184 226.681C114.939 219.701 109.962 215.039 106.111 216.273C102.209 217.513 100.929 224.202 103.175 231.182C105.432 238.208 110.408 242.87 114.259 241.641C118.11 240.413 119.441 233.713 117.184 226.681Z" fill="url(#paint1_linear_6238_10495)"/>
<path d="M146.66 220.414L168.634 317.831L155.562 381.9L154.636 381.232L115.83 245.862L146.66 220.414Z" fill="url(#paint2_linear_6238_10495)"/>
<path d="M146.661 220.414L119.499 258.389L75.459 244.212L105.472 205.18L146.661 220.414Z" fill="url(#paint3_linear_6238_10495)"/>
<g style="mix-blend-mode:screen" opacity="0.65">
<path d="M153.62 251.266L154.3 254.265L135.096 312.895L104.929 344.89L101.998 334.865L132.491 303.624L153.62 251.266Z" fill="#50FCFF"/>
</g>
<g style="mix-blend-mode:screen" opacity="0.65">
<path d="M158.607 273.373L159.259 276.269L140.278 333.826L119.31 356.464L112.311 351.54L137.473 325.732L158.607 273.373Z" fill="#50FCFF"/>
</g>
<path style="mix-blend-mode:screen" d="M154.449 381.066L119.316 356.463L112.317 351.533L105.449 346.729L104.929 344.884L101.998 334.859L93.0625 304.401C113.18 300.431 143.627 347.518 154.449 381.054V381.066Z" fill="url(#paint4_linear_6238_10495)"/>
<path d="M119.498 258.389L146.66 220.414L120.532 261.959L119.498 258.389Z" fill="url(#paint5_linear_6238_10495)"/>
<g style="mix-blend-mode:screen">
<path d="M75.459 244.211L119.499 258.389L155.562 381.9L116.328 260.485L75.459 244.211Z" fill="#CEFF85"/>
</g>
<path style="mix-blend-mode:screen" d="M124.614 274.222C132.787 270.358 136.279 260.601 132.414 252.43C128.549 244.26 118.791 240.768 110.618 244.632C102.446 248.496 98.9535 258.253 102.818 266.424C106.683 274.594 116.442 278.086 124.614 274.222Z" fill="url(#paint6_radial_6238_10495)"/>
<g style="mix-blend-mode:screen">
<path d="M137.09 342.526C138.616 347.575 138.182 352.174 136.125 352.796C134.068 353.419 131.16 349.826 129.634 344.776C128.109 339.727 128.543 335.128 130.6 334.506C132.657 333.883 135.565 337.476 137.09 342.526Z" fill="#6EF9FF"/>
</g>
<g style="mix-blend-mode:screen">
<path d="M117.595 321.469C118.332 323.914 118.127 326.142 117.127 326.445C116.127 326.747 114.721 325.005 113.984 322.56C113.247 320.116 113.453 317.888 114.453 317.585C115.447 317.282 116.858 319.024 117.595 321.469Z" fill="#6EF9FF"/>
</g>
<g style="mix-blend-mode:screen">
<path d="M124.315 302.957C126.263 309.4 125.709 315.267 123.086 316.061C120.458 316.855 116.756 312.274 114.807 305.83C112.859 299.387 113.413 293.52 116.036 292.726C118.664 291.932 122.366 296.513 124.315 302.957Z" fill="#6EF9FF"/>
</g>
<g style="mix-blend-mode:screen" opacity="0.5">
<path d="M156.089 342.617C156.946 346.415 156.386 349.774 154.837 350.123C153.289 350.471 151.341 347.678 150.484 343.879C149.627 340.08 150.186 336.722 151.735 336.373C153.283 336.025 155.231 338.818 156.089 342.617Z" fill="#6EF9FF"/>
</g>
<g style="mix-blend-mode:screen" opacity="0.5">
<path d="M88.6334 261.029C89.4905 264.827 88.9305 268.186 87.3822 268.535C85.8338 268.883 83.8855 266.09 83.0285 262.291C82.1714 258.492 82.7314 255.134 84.2797 254.785C85.8281 254.437 87.7764 257.23 88.6334 261.029Z" fill="#6EF9FF"/>
</g>
<g style="mix-blend-mode:screen">
<path d="M146.66 220.414L168.634 317.831L155.562 381.9L154.636 381.232L154.448 381.066L119.309 356.463L112.31 351.539L105.448 346.735L104.929 344.89L104.5 343.439L154.002 377.502L166.137 319.579L146.66 220.414Z" fill="#6224FF"/>
</g>
<path d="M144.545 257.458C145.751 262.81 144.683 267.609 142.157 268.18C139.632 268.751 136.609 264.872 135.398 259.52C134.193 254.168 135.261 249.369 137.786 248.798C140.312 248.227 143.334 252.105 144.54 257.458H144.545Z" fill="url(#paint7_linear_6238_10495)"/>
<g style="mix-blend-mode:multiply" opacity="0.2">
<path d="M137.731 250.41L140.359 265.045C112.357 273.213 89.4514 262.532 78.8871 255.985L75.459 244.212L80.0584 238.271C95.4791 260.864 137.736 250.41 137.736 250.41H137.731Z" fill="#1888D3"/>
</g>
<path d="M144.575 257.47C144.695 258.013 144.832 258.602 144.855 259.161C145.541 263.805 144.45 267.667 142.193 268.175C139.639 268.752 136.599 264.891 135.394 259.538L135.314 259.196C134.942 257.316 134.799 255.545 134.959 253.957C135.205 251.164 136.193 249.136 137.816 248.771C139.73 248.337 141.993 250.564 143.495 254.043C143.935 255.077 144.301 256.237 144.575 257.465V257.47Z" fill="url(#paint8_linear_6238_10495)"/>
<path d="M140.992 250.181C142.192 251.747 143.232 254.02 143.826 256.653C145.032 262.006 143.963 266.804 141.438 267.37C140.398 267.604 139.284 267.055 138.232 265.993C139.467 267.604 140.872 268.466 142.158 268.175C144.683 267.604 145.751 262.805 144.546 257.453C143.837 254.306 142.489 251.695 140.992 250.17V250.181Z" fill="#1888D3"/>
<path d="M521.615 306.275C509.143 328.136 491.859 341.686 470.137 346.581C468.908 346.855 467.623 347.095 466.383 347.324C419.343 355.555 368.493 323.086 354.375 311.091C342.228 300.717 332.932 286.756 320.06 267.46C309.044 250.895 295.309 230.296 275.197 205.459C262.45 189.699 249.406 183.604 238.213 182.05C229.1 180.799 221.181 182.536 215.645 184.558C202.607 189.254 191.625 199.164 185.192 210.937C181.158 218.249 178.907 226.343 179.004 234.323C179.09 241.584 176.736 247.382 172.005 251.597C167.314 255.75 160.99 257.692 155.213 258.429C154.859 258.458 154.516 258.538 154.11 258.572C153.705 258.612 153.253 258.663 152.802 258.715C152.094 258.772 151.282 258.852 150.511 258.869C148.688 259.023 146.74 259.098 144.849 259.166C144.643 259.166 144.432 259.155 144.237 259.2C142.489 259.235 140.792 259.258 139.29 259.235C137.747 259.275 136.393 259.218 135.307 259.206C135.273 259.058 135.239 258.909 135.256 258.755L135.21 258.561C135.044 257.824 134.999 257.161 134.942 256.453C134.924 256.144 134.896 255.79 134.879 255.487C134.89 255.07 134.907 254.705 134.93 254.339C134.959 254.231 134.924 254.082 134.953 253.974C135.896 254.019 137.078 254.008 138.375 254.031C139.827 254.065 141.381 254.076 143.032 254.065C143.192 254.082 143.289 254.059 143.449 254.076L143.5 254.065C146.7 254.065 150.042 253.985 152.613 253.717C152.819 253.717 152.979 253.739 153.173 253.694C153.482 253.677 153.825 253.597 154.128 253.58C159.19 252.905 164.715 251.295 168.68 247.822C172.348 244.623 174.039 240.213 173.965 234.398C173.856 225.441 176.462 216.387 181.061 208.173C188.066 195.497 199.87 184.884 213.908 179.811C221.547 177.058 229.283 176.087 236.848 176.909C252.172 178.463 266.89 187.174 279.139 202.323C299.394 227.337 313.209 248.073 324.236 264.684C336.88 283.672 346.022 297.404 357.649 307.281C374.835 321.887 423.748 349.677 465.48 342.388C487.431 338.521 504.852 325.56 517.233 303.773C537.116 268.991 538.962 212.148 522.472 150.719C521.935 148.571 521.341 146.377 520.695 144.201C519.53 140.179 518.324 136.215 517.039 132.325C499.373 78.0243 471.188 35.4907 442.055 19.8619C364.339 -21.832 312.626 32.9887 278.362 69.2559L277.7 69.9757C244.453 105.243 199.207 124.893 156.607 122.569C151.642 122.294 145.574 123.094 138.981 124.785C115.807 130.783 85.971 148.451 72.0757 174.51C67.2478 183.547 64.7567 192.887 64.5453 202.483C64.2139 215.673 68.2534 229.217 76.578 242.772L75.4581 244.211L78.4234 254.385C64.5339 235.837 59.6088 219.032 59.466 204.66C59.3403 191.733 63.0541 180.725 67.6249 172.157C82.2686 144.595 112.802 126.35 137.193 120.027C144.495 118.073 151.237 117.273 156.876 117.553C198.019 119.792 241.83 100.673 274.049 66.5654L274.711 65.8457C307.838 30.7095 363.305 -28.0526 444.414 15.4063C474.662 31.612 503.818 75.2652 521.861 130.771C522.01 131.2 522.158 131.634 522.261 132.074C522.569 132.988 522.878 133.896 523.141 134.821C523.878 137.186 524.621 139.545 525.312 141.922L525.323 141.973C525.392 142.27 525.495 142.504 525.563 142.796C526.072 144.589 526.58 146.389 527.026 148.142C527.163 148.525 527.255 148.919 527.34 149.308C544.218 211.994 542.138 270.328 521.644 306.287L521.615 306.275Z" fill="url(#paint9_linear_6238_10495)"/>
<path d="M528.254 138.701C529.813 144.042 530.459 148.874 525.123 150.434C519.786 151.993 517.209 148.046 515.65 142.705C514.09 137.364 514.136 132.657 519.472 131.098C524.814 129.538 526.694 133.36 528.248 138.701H528.254Z" fill="#AB2F39"/>
<path d="M528.271 138.751C529.574 143.206 530.253 147.199 526.842 148.193C523.437 149.187 521.546 145.822 520.243 141.367C518.941 136.911 518.724 133.056 522.129 132.062C525.534 131.068 526.968 134.295 528.265 138.751H528.271Z" fill="#D63447"/>
<g style="mix-blend-mode:screen">
<path d="M238.213 182.051C229.1 180.8 221.181 182.536 215.644 184.558C202.606 189.254 191.625 199.165 185.191 210.938C183.689 209.778 182.346 208.841 181.055 208.156C188.059 195.48 199.864 184.867 213.902 179.794C221.541 177.041 229.277 176.07 236.841 176.892C237.316 178.543 237.801 180.24 238.213 182.056V182.051Z" fill="#AB2F39"/>
</g>
<g style="mix-blend-mode:screen">
<path d="M138.963 124.774C115.789 130.772 85.9533 148.44 72.058 174.499C67.2301 183.536 64.739 192.876 64.5276 202.472C62.9621 203.083 61.2595 203.775 59.4426 204.649C59.3169 191.722 63.0306 180.714 67.6015 172.146C82.2452 144.584 112.778 126.339 137.169 120.016C137.683 121.604 138.306 123.22 138.963 124.774Z" fill="#AB2F39"/>
</g>
<g style="mix-blend-mode:screen" opacity="0.25">
<path d="M98.6839 366.723C109.409 366.723 118.104 358.03 118.104 347.307C118.104 336.583 109.409 327.891 98.6839 327.891C87.9584 327.891 79.2637 336.583 79.2637 347.307C79.2637 358.03 87.9584 366.723 98.6839 366.723Z" fill="#64DBFF"/>
</g>
<g style="mix-blend-mode:screen" opacity="0.25">
<path d="M131.046 409.245C134.621 409.245 137.519 406.347 137.519 402.773C137.519 399.198 134.621 396.301 131.046 396.301C127.471 396.301 124.572 399.198 124.572 402.773C124.572 406.347 127.471 409.245 131.046 409.245Z" fill="#64DBFF"/>
</g>
<g style="mix-blend-mode:screen" opacity="0.25">
<path d="M192.997 326.97C209.339 326.97 222.587 313.725 222.587 297.387C222.587 281.048 209.339 267.803 192.997 267.803C176.654 267.803 163.406 281.048 163.406 297.387C163.406 313.725 176.654 326.97 192.997 326.97Z" fill="#64DBFF"/>
</g>
<path d="M198.136 298.584C198.807 295.744 197.047 292.898 194.206 292.227C191.366 291.557 188.519 293.316 187.849 296.156C187.178 298.996 188.938 301.842 191.778 302.513C194.619 303.183 197.466 301.424 198.136 298.584Z" fill="#64DBFF"/>
<path d="M79.515 302.224C80.1855 299.384 78.4262 296.538 75.5854 295.868C72.7446 295.198 69.8982 296.957 69.2277 299.797C68.5572 302.637 70.3166 305.483 73.1574 306.153C75.9981 306.824 78.8446 305.065 79.515 302.224Z" fill="#64DBFF"/>
<path d="M179.786 356.491C179.786 358.193 178.403 359.57 176.707 359.57C175.01 359.57 173.627 358.188 173.627 356.491C173.627 354.794 175.01 353.412 176.707 353.412C178.403 353.412 179.786 354.794 179.786 356.491Z" fill="#64DBFF"/>
<path d="M106.431 392.244C107.794 392.244 108.899 391.139 108.899 389.776C108.899 388.413 107.794 387.309 106.431 387.309C105.068 387.309 103.963 388.413 103.963 389.776C103.963 391.139 105.068 392.244 106.431 392.244Z" fill="#64DBFF"/>
<g style="mix-blend-mode:screen" opacity="0.25">
<path d="M39.4056 296.735C40.0604 292.702 37.3213 288.902 33.2877 288.248C29.2541 287.593 25.4535 290.332 24.7988 294.364C24.1441 298.397 26.8831 302.197 30.9167 302.851C34.9502 303.506 38.7509 300.767 39.4056 296.735Z" fill="#64DBFF"/>
</g>
<g style="mix-blend-mode:screen" opacity="0.25">
<path d="M201.267 389.783C203.795 387.256 203.795 383.158 201.267 380.631C198.739 378.103 194.641 378.103 192.113 380.631C189.585 383.158 189.585 387.256 192.113 389.783C194.641 392.311 198.739 392.311 201.267 389.783Z" fill="#64DBFF"/>
</g>
<g style="mix-blend-mode:screen" opacity="0.25">
<path d="M71.6633 406.235C73.0541 397.668 67.2354 389.596 58.6668 388.206C50.0982 386.815 42.0245 392.633 40.6336 401.2C39.2428 409.766 45.0614 417.838 53.63 419.229C62.1986 420.619 70.2724 414.802 71.6633 406.235Z" fill="#64DBFF"/>
</g>
</g>
<defs>
<radialGradient id="paint0_radial_6238_10495" cx="0" cy="0" r="1" gradientUnits="userSpaceOnUse" gradientTransform="translate(135.204 334.827) scale(135.205 135.175)">
<stop stop-color="#61F1FF"/>
<stop offset="0.09" stop-color="#51CAD6"/>
<stop offset="0.23" stop-color="#3C959E"/>
<stop offset="0.36" stop-color="#29676D"/>
<stop offset="0.5" stop-color="#1A4246"/>
<stop offset="0.63" stop-color="#0F2527"/>
<stop offset="0.76" stop-color="#061011"/>
<stop offset="0.89" stop-color="#010404"/>
<stop offset="1"/>
</radialGradient>
<linearGradient id="paint1_linear_6238_10495" x1="145.303" y1="384.197" x2="105.5" y2="207.685" gradientUnits="userSpaceOnUse">
<stop stop-color="#00F2DF"/>
<stop offset="0.21" stop-color="#00EEDF"/>
<stop offset="0.4" stop-color="#00E3DF"/>
<stop offset="0.57" stop-color="#00D1DF"/>
<stop offset="0.74" stop-color="#00B8E0"/>
<stop offset="0.91" stop-color="#0097E1"/>
<stop offset="1" stop-color="#0082E2"/>
</linearGradient>
<linearGradient id="paint2_linear_6238_10495" x1="118.143" y1="370.253" x2="163.177" y2="225.552" gradientUnits="userSpaceOnUse">
<stop stop-color="#2BDDF7"/>
<stop offset="1" stop-color="#4043C8"/>
</linearGradient>
<linearGradient id="paint3_linear_6238_10495" x1="74.5794" y1="240.335" x2="147.446" y2="223.897" gradientUnits="userSpaceOnUse">
<stop stop-color="#80FFF9"/>
<stop offset="0.24" stop-color="#83FEF9"/>
<stop offset="0.45" stop-color="#8EFEFA"/>
<stop offset="0.65" stop-color="#A0FEFB"/>
<stop offset="0.84" stop-color="#B9FEFD"/>
<stop offset="1" stop-color="#D4FEFF"/>
</linearGradient>
<linearGradient id="paint4_linear_6238_10495" x1="133.469" y1="385.793" x2="114.051" y2="299.677" gradientUnits="userSpaceOnUse">
<stop stop-color="white"/>
<stop offset="0.09" stop-color="#F8F8F8"/>
<stop offset="0.22" stop-color="#E5E5E5"/>
<stop offset="0.37" stop-color="#C6C6C6"/>
<stop offset="0.54" stop-color="#9A9A9A"/>
<stop offset="0.72" stop-color="#636363"/>
<stop offset="0.91" stop-color="#202020"/>
<stop offset="1"/>
</linearGradient>
<linearGradient id="paint5_linear_6238_10495" x1="116.488" y1="245.044" x2="150.486" y2="237.374" gradientUnits="userSpaceOnUse">
<stop stop-color="#00F2DF"/>
<stop offset="0.21" stop-color="#00EEDF"/>
<stop offset="0.4" stop-color="#00E3DF"/>
<stop offset="0.57" stop-color="#00D1DF"/>
<stop offset="0.74" stop-color="#00B8E0"/>
<stop offset="0.91" stop-color="#0097E1"/>
<stop offset="1" stop-color="#0082E2"/>
</linearGradient>
<radialGradient id="paint6_radial_6238_10495" cx="0" cy="0" r="1" gradientUnits="userSpaceOnUse" gradientTransform="translate(117.611 259.433) rotate(-12.7073) scale(16.3691 16.3658)">
<stop stop-color="white"/>
<stop offset="0.07" stop-color="#E1E1E1"/>
<stop offset="0.21" stop-color="#A6A6A6"/>
<stop offset="0.36" stop-color="#737373"/>
<stop offset="0.5" stop-color="#4A4A4A"/>
<stop offset="0.64" stop-color="#292929"/>
<stop offset="0.77" stop-color="#121212"/>
<stop offset="0.89" stop-color="#040404"/>
<stop offset="1"/>
</radialGradient>
<linearGradient id="paint7_linear_6238_10495" x1="142.161" y1="268.175" x2="137.792" y2="248.799" gradientUnits="userSpaceOnUse">
<stop stop-color="#0C63C7"/>
<stop offset="0.23" stop-color="#094FA8"/>
<stop offset="0.56" stop-color="#063682"/>
<stop offset="0.83" stop-color="#04276A"/>
<stop offset="1" stop-color="#042262"/>
</linearGradient>
<linearGradient id="paint8_linear_6238_10495" x1="142.161" y1="268.183" x2="137.786" y2="248.78" gradientUnits="userSpaceOnUse">
<stop stop-color="#0C63C7"/>
<stop offset="0.23" stop-color="#094FA8"/>
<stop offset="0.56" stop-color="#063682"/>
<stop offset="0.83" stop-color="#04276A"/>
<stop offset="1" stop-color="#042262"/>
</linearGradient>
<linearGradient id="paint9_linear_6238_10495" x1="68.8734" y1="253.262" x2="527.726" y2="149.749" gradientUnits="userSpaceOnUse">
<stop stop-color="#AB2F39"/>
<stop offset="1" stop-color="#840817"/>
</linearGradient>
<clipPath id="clip0_6238_10495">
<rect width="553" height="470" fill="white"/>
</clipPath>
</defs>
</svg>
