<svg width="395" height="477" viewBox="0 0 395 477" fill="none" xmlns="http://www.w3.org/2000/svg">
<g clip-path="url(#clip0_6238_10056)">
<path style="mix-blend-mode:screen" opacity="0.5" d="M197.446 376.738C296.676 376.738 377.118 296.385 377.118 197.264C377.118 98.1426 296.676 17.7891 197.446 17.7891C98.2156 17.7891 17.7734 98.1426 17.7734 197.264C17.7734 296.385 98.2156 376.738 197.446 376.738Z" fill="url(#paint0_radial_6238_10056)"/>
<path style="mix-blend-mode:screen" opacity="0.5" fill-rule="evenodd" clip-rule="evenodd" d="M228.659 0H202.679H192.251H166.271L197.447 197.265L197.483 195.976V197.265L228.659 0Z" fill="url(#paint1_linear_6238_10056)"/>
<path style="mix-blend-mode:screen" opacity="0.5" fill-rule="evenodd" clip-rule="evenodd" d="M79.8736 35.7598L61.5265 54.1224L54.1088 61.4961L35.7617 79.8588L197.445 197.337L196.55 196.406L197.481 197.265L79.8736 35.7598Z" fill="url(#paint2_linear_6238_10056)"/>
<path style="mix-blend-mode:screen" opacity="0.5" fill-rule="evenodd" clip-rule="evenodd" d="M0 166.123V192.11V202.526V228.477L197.482 197.336L196.192 197.3L197.482 197.264L0 166.123Z" fill="url(#paint3_linear_6238_10056)"/>
<path style="mix-blend-mode:screen" opacity="0.5" fill-rule="evenodd" clip-rule="evenodd" d="M35.7988 314.742L54.1818 333.105L61.5636 340.514L79.9465 358.841L197.554 197.335L196.623 198.23L197.483 197.264L35.7988 314.742Z" fill="url(#paint4_linear_6238_10056)"/>
<path style="mix-blend-mode:screen" opacity="0.5" fill-rule="evenodd" clip-rule="evenodd" d="M166.307 394.564H192.322H202.75H228.73L197.554 197.264L197.518 198.588L197.482 197.264L166.307 394.564Z" fill="url(#paint5_linear_6238_10056)"/>
<path style="mix-blend-mode:screen" opacity="0.5" fill-rule="evenodd" clip-rule="evenodd" d="M315.09 358.806L333.473 340.443L340.891 333.069L359.238 314.707L197.554 197.229L198.45 198.159L197.482 197.264L315.09 358.806Z" fill="url(#paint6_linear_6238_10056)"/>
<path style="mix-blend-mode:screen" opacity="0.5" fill-rule="evenodd" clip-rule="evenodd" d="M395 228.406V202.455V192.039V166.088L197.482 197.229L198.808 197.265H197.482L395 228.406Z" fill="url(#paint7_linear_6238_10056)"/>
<path style="mix-blend-mode:screen" opacity="0.5" fill-rule="evenodd" clip-rule="evenodd" d="M359.201 79.7859L340.818 61.459L333.436 54.0495L315.053 35.7227L197.445 197.228L198.377 196.333L197.481 197.264L359.201 79.7859Z" fill="url(#paint8_linear_6238_10056)"/>
<path style="mix-blend-mode:screen" opacity="0.5" d="M306.102 242.214C330.966 182.253 302.461 113.512 242.434 88.6749C182.407 63.8383 113.589 92.3122 88.7253 152.273C63.8613 212.234 92.3666 280.976 152.394 305.812C212.421 330.649 281.238 302.175 306.102 242.214Z" fill="url(#paint9_radial_6238_10056)"/>
<path fill-rule="evenodd" clip-rule="evenodd" d="M69.983 452.731C69.983 452.731 56.6169 443.389 52.7109 413.393H341.355C341.355 413.393 341.713 431.075 314.014 460.713C314.014 460.713 278.394 479.649 188.164 476.713C95.7478 473.707 70.0188 452.731 70.0188 452.731H69.983Z" fill="url(#paint10_radial_6238_10056)"/>
<path fill-rule="evenodd" clip-rule="evenodd" d="M52.7116 413.394C49.4507 402.942 104.492 383.756 192.25 383.756C280.008 383.756 337.772 403.3 341.356 413.394C344.939 423.488 287.031 447.22 192.25 447.22C97.4684 447.22 56.51 425.492 52.7116 413.394Z" fill="#FFD8EE"/>
<path fill-rule="evenodd" clip-rule="evenodd" d="M69.3743 406.807C69.3743 406.807 44.7921 360.668 52.1023 326.627H340.746C340.746 326.627 340.89 382.789 313.405 414.825C313.405 414.825 277.786 433.76 187.555 430.825C95.1391 427.819 69.4102 406.843 69.4102 406.843L69.3743 406.807Z" fill="url(#paint11_linear_6238_10056)"/>
<path fill-rule="evenodd" clip-rule="evenodd" d="M52.1022 326.591C48.8413 316.139 103.883 296.953 191.64 296.953C279.398 296.953 337.163 316.497 340.746 326.591C344.33 336.685 286.422 360.417 191.64 360.417C96.8591 360.417 55.9006 338.69 52.1022 326.591Z" fill="#A4A0C2"/>
<path fill-rule="evenodd" clip-rule="evenodd" d="M303.55 328.704C303.693 329.276 303.407 329.921 302.762 330.565C293.696 339.585 212.352 354.905 159.461 350.646C159.103 350.61 158.78 350.574 158.457 350.574C133.338 348.462 115.421 344.99 103.416 341.089C91.5551 337.223 85.4275 332.999 83.7791 329.348C83.3491 328.453 83.2416 327.594 83.3491 326.807C84.4241 319.326 176.016 311.594 221.131 318.61C240.016 321.581 245.606 325.124 242.596 328.382C240.303 330.959 232.67 333.321 222.027 335.039C213.929 336.328 204.039 337.259 193.432 337.617C184.079 337.939 176.088 337.903 169.351 337.617C152.437 336.937 143.3 334.86 139.465 333.751C137.96 333.321 137.28 333.035 137.28 333.035C137.28 333.035 144.303 322.511 155.591 326.019C166.879 329.527 169.674 334.825 169.674 334.825C169.674 334.825 215.828 336.4 225.862 330.136C226.578 329.706 227.116 329.241 227.438 328.704C232.276 320.793 96.3927 316.856 96.0344 330.959C96.0344 331.603 96.1777 332.212 96.5719 332.82C103.882 345.957 190.278 355.478 246.466 338.69C255.281 336.077 259.976 333.178 261.23 330.207C266.462 318.037 213.32 304.936 147.779 305.616H146.919C122.229 305.938 95.8552 308.193 70.1621 313.205L83.3491 309.017C83.3491 309.017 114.023 300.175 182.001 302.717C250.014 305.258 301.436 320.149 303.55 328.704Z" fill="#4C95C7"/>
<path fill-rule="evenodd" clip-rule="evenodd" d="M169.352 337.616C152.439 336.936 143.301 334.86 139.467 333.75C142.369 330.887 148.031 326.913 155.592 329.276C164.873 332.175 168.421 336.256 169.352 337.616Z" fill="#00FFED"/>
<path fill-rule="evenodd" clip-rule="evenodd" d="M227.438 331.996C227.833 331.351 227.259 330.707 225.862 330.134C226.578 329.705 227.116 329.24 227.438 328.703C232.276 320.792 96.3929 316.855 96.0346 330.958C96.0346 331.602 96.1779 332.211 96.5721 332.819C96.2138 333.249 96.0346 333.714 96.0346 334.215C95.9629 336.649 98.6505 338.976 103.416 341.088C91.5553 337.222 85.4277 332.998 83.7793 329.347C90.5878 322.116 177.557 315.101 221.132 321.902C233.781 323.87 240.482 326.161 242.596 328.38C240.303 330.958 232.67 333.32 222.028 335.038C224.751 334.215 226.686 333.213 227.438 331.996Z" fill="#00FFED"/>
<path fill-rule="evenodd" clip-rule="evenodd" d="M302.762 330.564C293.696 339.585 212.352 354.905 159.461 350.645C159.103 350.61 158.78 350.574 158.458 350.574C186.874 351.934 220.021 349.858 246.467 341.947C258.507 338.332 262.879 334.251 261.23 330.207C266.462 318.036 213.32 304.935 147.779 305.616C157.92 305.437 169.316 305.508 182.001 305.974C246.395 308.372 295.882 321.866 302.762 330.564Z" fill="#00FFED"/>
<path style="mix-blend-mode:multiply" opacity="0.5" fill-rule="evenodd" clip-rule="evenodd" d="M69.375 406.807C69.375 406.807 92.8105 436.91 168.277 442.494C275.887 450.476 313.406 414.789 313.406 414.789C313.406 414.789 181.178 447.219 69.375 406.807Z" fill="url(#paint12_linear_6238_10056)"/>
<path fill-rule="evenodd" clip-rule="evenodd" d="M84.209 346.922C84.209 346.922 116.137 357.338 149.427 357.159C182.717 356.98 233.458 358.842 233.458 358.842C233.458 358.842 193.79 371.907 158.852 369.795C123.913 367.683 84.2448 346.958 84.2448 346.958L84.209 346.922Z" fill="#8B6F8B"/>
<path fill-rule="evenodd" clip-rule="evenodd" d="M294.664 349.5C294.664 349.5 317.419 335.075 324.442 332.462C331.502 329.885 337.665 332.462 337.665 332.462C337.665 332.462 327.596 352.185 294.664 349.5Z" fill="#8B6F8B"/>
<path fill-rule="evenodd" clip-rule="evenodd" d="M53.0703 328.704C53.0703 328.704 55.9729 327.809 60.703 331.317C65.3973 334.825 81.7735 346.064 81.7735 346.064C81.7735 346.064 62.8172 351.362 57.1912 346.064C54.8262 343.809 53.1061 328.704 53.1061 328.704H53.0703Z" fill="#8B6F8B"/>
<g style="mix-blend-mode:soft-light">
<path fill-rule="evenodd" clip-rule="evenodd" d="M213.141 476.964L216.402 447.219C216.402 447.219 249.62 446.145 275.851 440.311L264.026 473.421C264.026 473.421 230.055 477 213.105 476.964H213.141Z" fill="#FFCCB5"/>
</g>
<g style="mix-blend-mode:soft-light">
<path fill-rule="evenodd" clip-rule="evenodd" d="M76.9354 456.811L70.127 427.854C70.127 427.854 88.4382 435.442 98.9376 437.769L99.941 465.223C99.941 465.223 87.3273 462.109 76.9354 456.811Z" fill="#FFCCB5"/>
</g>
<path fill-rule="evenodd" clip-rule="evenodd" d="M227.438 328.703V331.996C227.438 331.996 225.324 334.037 223.389 334.573L222.744 331.638C222.744 331.638 226.113 330.207 227.403 328.703H227.438Z" fill="#4C95C7"/>
<path fill-rule="evenodd" clip-rule="evenodd" d="M261.553 328.453L261.302 333.25L257.396 337.366V334.144C257.396 334.144 261.374 332.605 261.517 328.453H261.553Z" fill="#4C95C7"/>
<path fill-rule="evenodd" clip-rule="evenodd" d="M96.071 334.825V330.1C96.071 330.1 95.5693 332.748 99.2961 335.576L99.7261 339.156C99.7261 339.156 96.0352 337.223 96.0352 334.825H96.071Z" fill="#4C95C7"/>
<path style="mix-blend-mode:screen" opacity="0.5" d="M195.726 380.534C284.091 380.534 355.726 356.383 355.726 326.591C355.726 296.799 284.091 272.648 195.726 272.648C107.361 272.648 35.7266 296.799 35.7266 326.591C35.7266 356.383 107.361 380.534 195.726 380.534Z" fill="url(#paint13_radial_6238_10056)"/>
<path fill-rule="evenodd" clip-rule="evenodd" d="M160.395 394.601L167.096 388.337L182.898 401.223L205.796 379.281L213.357 385.51L183.508 411.64L160.395 394.601Z" fill="#4C95C7"/>
<path fill-rule="evenodd" clip-rule="evenodd" d="M161.506 393.528L183.795 409.134L211.71 384.293L205.797 379.281L182.899 401.223L167.096 388.337L161.506 393.528Z" fill="#00FFED"/>
<path style="mix-blend-mode:screen" opacity="0.5" d="M183.183 424.776C206.437 424.776 225.288 411.651 225.288 395.46C225.288 379.27 206.437 366.145 183.183 366.145C159.929 366.145 141.078 379.27 141.078 395.46C141.078 411.651 159.929 424.776 183.183 424.776Z" fill="url(#paint14_radial_6238_10056)"/>
<g filter="url(#filter0_d_6238_10056)">
<path d="M143.748 191.502C144.068 194.126 144.26 196.814 144.452 199.438C144.452 204.302 143.62 208.974 141.828 213.518C141.124 215.246 140.228 216.846 139.012 218.254C134.916 223.054 128.068 223.822 123.268 219.534C119.812 216.462 117.828 212.558 117.124 208.014C115.908 200.59 116.612 193.358 119.812 186.446C120.452 185.102 121.22 183.886 122.052 182.606C124.1 179.662 127.108 178.382 130.564 178.062C133.316 177.806 136.004 178.382 138.372 179.918C139.46 180.558 140.292 181.454 140.868 182.542C142.34 185.358 143.428 188.302 143.748 191.502ZM135.172 214.222C135.428 211.214 135.428 208.142 135.556 205.582C135.172 201.23 134.916 197.39 134.468 193.55C134.148 190.734 133.572 187.982 133.06 185.23C132.804 184.014 132.1 183.054 131.268 182.158C130.82 181.582 130.18 181.454 129.476 181.582C128.516 181.774 127.748 182.158 127.364 183.182C126.212 185.998 125.572 188.942 125.38 192.014C124.996 196.75 125.508 201.486 126.276 206.222C126.788 209.55 127.684 212.814 129.412 215.758C129.924 216.654 130.564 217.55 131.268 218.318C132.42 219.534 133.572 219.406 134.212 217.806C134.724 216.654 135.108 215.438 135.172 214.222ZM168.041 212.686C168.617 213.326 168.361 214.222 167.529 214.414C167.081 214.478 166.633 214.478 166.185 214.478C163.305 214.606 160.361 214.734 157.417 214.862C156.841 214.926 156.329 214.862 156.073 214.286C155.817 213.71 156.073 213.198 156.585 212.942C158.185 212.046 158.313 210.638 158.057 209.102C157.737 206.734 156.969 204.494 155.817 202.446C155.625 202.126 155.433 201.87 155.241 201.614C154.601 201.998 154.473 202.51 154.473 203.086C154.537 203.854 154.473 204.686 154.473 205.454C154.537 208.462 154.537 211.534 154.601 214.606C154.601 216.078 155.113 217.358 156.713 218.062C157.033 218.19 157.417 218.638 157.481 218.958C157.609 219.47 157.225 219.854 156.713 220.046C154.921 220.814 153.065 221.582 151.209 222.35C149.481 223.054 147.689 223.758 145.897 224.398C145.129 224.718 144.361 224.974 143.529 225.23C142.953 225.422 142.377 225.358 142.057 224.718C141.737 224.142 141.993 223.566 142.569 223.246C145.129 221.966 145.769 219.662 145.961 217.166C146.153 214.094 146.345 210.958 146.473 207.886C146.601 202.126 146.729 196.302 146.793 190.542C146.857 188.302 146.601 186.062 146.473 183.886C146.473 183.502 146.345 183.118 146.217 182.734C145.769 181.326 145.129 180.046 143.593 179.47C143.081 179.278 142.761 178.83 142.889 178.254C143.017 177.678 143.529 177.422 144.233 177.55C145.321 177.742 146.409 177.934 147.497 178.254C151.337 179.406 155.241 180.174 159.145 180.75C159.529 180.814 159.913 180.878 160.361 180.942C160.937 181.07 161.321 181.454 161.321 182.03C161.321 182.542 160.873 182.99 160.169 183.054C159.785 183.118 159.465 183.054 159.081 183.118C157.929 183.246 156.841 183.63 156.009 184.462C155.369 185.038 155.049 185.678 154.985 186.51C154.857 190.222 154.729 193.934 154.601 197.646C154.601 197.774 154.665 197.966 154.729 198.35C156.521 196.046 158.249 193.998 159.273 191.31C158.889 191.182 158.633 190.99 158.313 190.862C157.801 190.606 157.417 190.286 157.545 189.646C157.609 189.07 158.121 188.814 158.889 188.814C158.889 188.814 158.953 188.814 159.017 188.814C161.065 189.262 163.049 188.878 165.097 188.622C165.545 188.558 165.929 188.494 166.377 188.494C166.953 188.494 167.337 188.686 167.465 189.262C167.593 189.838 167.337 190.222 166.889 190.478C166.697 190.542 166.569 190.606 166.377 190.67C164.393 191.374 162.729 192.654 161.321 194.19C160.169 195.342 159.017 196.622 157.929 197.774C159.657 201.55 161.321 205.198 163.689 208.526C164.777 209.934 165.993 211.15 167.401 212.174C167.657 212.366 167.849 212.494 168.041 212.686ZM186.218 215.438C186.73 215.566 187.178 216.142 186.986 216.782C186.602 217.87 186.218 219.022 185.578 219.918C182.762 223.694 177.258 224.206 173.354 221.198C171.178 219.534 170.154 217.166 169.706 214.606C169.258 212.046 169.066 209.422 168.938 206.798C168.81 204.11 169.322 190.99 169.386 187.15C169.45 184.782 168.81 182.67 166.826 181.198C166.314 180.814 165.866 180.366 166.122 179.662C166.378 178.958 167.018 178.83 167.658 178.83C169.194 178.766 170.794 178.766 172.33 178.83C174.954 178.894 177.642 178.958 180.266 179.086C180.842 179.086 181.354 179.15 181.866 179.278C182.762 179.598 182.954 180.494 182.25 181.134C182.122 181.262 181.994 181.326 181.866 181.39C180.458 181.902 179.754 183.054 179.434 184.462C179.114 185.742 178.858 187.086 178.538 188.366C180.842 188.494 183.082 188.622 185.386 188.75C185.642 188.814 185.898 188.814 186.154 188.878C186.73 189.006 186.922 189.39 186.922 190.03C186.922 190.606 186.73 191.054 186.218 191.246C185.834 191.374 185.45 191.438 185.066 191.438C182.634 191.63 180.202 191.822 177.77 192.014C177.77 192.142 177.706 192.334 177.706 192.526C176.554 198.286 176.362 204.11 176.618 209.998C176.746 212.174 177.258 214.35 178.346 216.334C178.666 216.91 179.114 217.55 179.626 217.998C180.778 219.086 182.058 219.15 183.338 218.254C184.106 217.742 184.682 217.038 185.002 216.206C185.194 215.63 185.578 215.31 186.218 215.438ZM209.035 194.062C210.443 197.198 210.571 200.526 210.251 203.854C209.739 208.142 208.267 212.046 205.707 215.694C202.635 220.11 198.155 220.878 193.355 218.958C191.179 218.126 189.579 216.59 188.363 214.67C186.315 211.534 185.419 208.142 185.739 204.686C185.547 201.87 185.931 199.31 186.955 196.878C188.875 192.654 191.883 189.582 196.747 188.558C199.371 188.046 201.931 188.302 204.363 189.326C206.603 190.286 208.075 191.95 209.035 194.062ZM200.971 212.174C202.571 207.63 202.443 202.894 201.995 198.222C201.867 196.878 201.547 195.534 201.227 194.254C200.971 193.358 200.523 192.526 199.691 191.95C198.923 191.374 198.475 191.374 197.771 192.014C196.811 192.718 196.171 193.614 195.723 194.638C193.995 198.35 193.611 202.254 193.739 206.158C193.803 208.462 194.379 210.766 195.467 212.814C196.171 214.158 197.067 215.374 198.603 216.27C199.051 215.758 199.563 215.246 199.819 214.734C200.267 213.902 200.651 213.07 200.971 212.174ZM233.3 195.854C234.196 199.31 233.812 202.766 232.98 206.222C232.596 207.63 232.212 209.038 231.7 210.382C231.252 211.534 230.74 212.686 230.036 213.71C228.372 216.27 225.556 216.846 222.996 215.182C221.972 214.542 221.14 213.71 220.244 212.878C219.796 212.43 219.412 211.854 218.964 211.342C218.9 211.406 218.772 211.406 218.708 211.47C218.772 212.046 218.708 212.686 218.836 213.262C219.156 214.478 219.604 214.862 220.884 214.926C221.076 214.926 221.268 214.926 221.396 214.926C222.484 215.118 222.868 216.142 222.1 216.846C221.588 217.358 220.884 217.742 220.18 217.998C217.172 219.15 214.1 220.174 211.092 221.262C210.644 221.39 210.26 221.646 209.812 221.646C209.428 221.582 208.98 221.326 208.788 221.006C208.596 220.75 208.852 220.302 208.916 219.918C208.98 219.854 209.044 219.79 209.108 219.726C211.22 218.382 211.476 216.142 211.796 213.902C212.372 209.422 212.436 204.814 212.564 200.27C212.628 195.598 212.756 190.99 212.82 186.318C212.82 185.806 212.82 185.23 212.82 184.718C212.82 183.438 212.244 182.542 210.964 182.094C210.708 182.03 210.452 181.966 210.196 181.838C209.748 181.646 209.428 181.262 209.492 180.686C209.62 180.11 210.068 179.79 210.644 179.79C211.284 179.854 211.86 179.982 212.5 179.982C215.38 180.174 218.324 180.366 221.204 180.558C221.908 180.622 222.548 180.686 223.188 180.75C223.764 180.814 224.084 181.198 224.084 181.774C224.084 182.222 223.828 182.606 223.38 182.734C223.188 182.798 223.06 182.862 222.868 182.926C221.716 183.118 221.012 183.95 220.628 184.974C220.308 186.19 219.924 187.342 219.796 188.622C219.54 190.478 219.54 192.398 219.412 194.318C219.412 194.446 219.412 194.638 219.476 194.894C220.116 194.19 220.692 193.614 221.268 193.038C223.316 190.734 225.876 190.03 228.82 190.478C230.1 190.67 231.188 191.31 231.828 192.462C232.468 193.486 233.044 194.638 233.3 195.854ZM226.26 205.134C226.58 202.766 226.9 200.334 226.388 197.902C226.196 196.878 225.94 195.854 225.492 194.894C224.916 193.742 223.956 193.614 222.996 194.382C222.484 194.766 222.036 195.214 221.652 195.662C219.988 197.774 219.092 200.206 219.476 202.894C219.476 203.854 219.412 204.686 219.476 205.582C219.54 206.99 219.988 208.27 220.692 209.486C221.588 211.15 223.508 211.406 224.788 209.998C225.172 209.614 225.492 209.102 225.62 208.526C225.94 207.438 226.132 206.286 226.26 205.134ZM252.796 191.694C253.756 193.806 254.14 196.046 254.14 198.414C254.14 198.862 254.14 199.31 254.14 199.694C254.14 200.718 253.82 201.102 252.86 201.166C251.58 201.23 250.3 201.23 248.956 201.294C246.652 201.422 244.284 201.55 241.724 201.742C241.788 203.854 241.724 205.838 241.916 207.822C241.98 208.654 242.3 209.55 242.684 210.318C243.644 212.174 245.628 212.494 247.1 210.958C247.932 209.998 248.636 208.91 249.276 207.822C249.596 207.31 249.788 206.67 250.044 206.094C250.364 205.39 250.492 204.494 251.58 204.558C252.284 204.622 252.604 205.198 252.668 206.606C252.796 208.91 252.86 211.278 252.988 213.646C253.052 214.35 253.052 215.054 253.116 215.758C253.18 216.334 252.988 216.782 252.412 217.038C251.836 217.23 251.452 216.974 251.132 216.526C250.364 215.502 249.212 214.99 248.06 214.606C247.548 214.414 247.164 214.478 246.844 214.862C246.396 215.246 245.884 215.694 245.5 216.142C242.748 218.958 238.972 217.614 237.308 215.566C236.348 214.35 235.644 213.006 235.324 211.534C234.428 207.31 234.108 203.022 234.748 198.734C235.004 196.878 235.58 195.15 236.348 193.55C237.82 190.734 239.996 188.814 242.94 187.662C245.756 186.51 251.26 188.046 252.796 191.694ZM242.236 198.798C244.22 198.734 246.076 198.67 248.06 198.606C247.804 196.11 247.612 193.742 246.588 191.566C246.46 191.31 246.268 191.118 246.14 190.862C245.692 190.414 245.372 190.35 244.924 190.862C244.732 191.054 244.54 191.374 244.412 191.63C243.196 193.806 242.684 196.238 242.236 198.798ZM280.241 192.078C280.881 194.958 279.729 197.966 277.105 199.886C276.657 200.206 276.209 200.27 275.761 199.95C275.249 199.63 275.249 199.182 275.377 198.67C275.441 198.542 275.505 198.414 275.505 198.286C276.145 196.366 275.441 195.342 273.393 195.406C270.193 195.534 267.761 197.198 265.841 199.63C265.649 199.886 265.585 200.27 265.521 200.59C265.521 204.558 264.945 208.462 265.457 212.43C265.521 212.878 265.585 213.326 265.713 213.71C265.969 214.862 266.609 215.566 267.889 215.694C269.041 215.758 269.425 216.078 269.489 216.718C269.553 217.358 269.233 217.742 268.081 217.998C265.649 218.51 263.153 218.958 260.657 219.534C258.609 219.982 256.561 220.558 254.513 221.07C254.129 221.134 253.745 221.198 253.489 221.134C252.657 220.942 252.593 220.046 253.233 219.342C253.873 218.702 254.577 218.062 255.153 217.358C256.305 215.822 256.817 214.03 257.137 212.174C258.225 206.222 258.481 200.206 257.777 194.19C257.649 193.23 257.393 192.334 257.073 191.502C256.689 190.414 256.113 189.518 254.833 189.262C254.257 189.134 253.937 188.75 254.001 188.11C254.129 187.406 254.577 186.894 255.217 186.83C255.729 186.766 256.241 186.83 256.817 186.83C260.081 186.83 263.409 186.894 266.737 186.894C267.057 186.894 267.377 186.83 267.697 186.894C268.785 187.022 269.169 187.918 268.529 188.814C268.401 189.006 268.209 189.134 268.081 189.262C266.801 190.286 266.481 191.694 266.161 193.358C267.377 192.206 268.273 191.31 269.233 190.478C270.705 189.262 272.433 188.43 274.417 188.302C277.169 188.046 279.729 189.646 280.241 192.078Z" fill="white"/>
</g>
</g>
<defs>
<filter id="filter0_d_6238_10056" x="111.908" y="177.422" width="172.973" height="56" filterUnits="userSpaceOnUse" color-interpolation-filters="sRGB">
<feFlood flood-opacity="0" result="BackgroundImageFix"/>
<feColorMatrix in="SourceAlpha" type="matrix" values="0 0 0 0 0 0 0 0 0 0 0 0 0 0 0 0 0 0 127 0" result="hardAlpha"/>
<feOffset dy="4"/>
<feGaussianBlur stdDeviation="2"/>
<feComposite in2="hardAlpha" operator="out"/>
<feColorMatrix type="matrix" values="0 0 0 0 0 0 0 0 0 0 0 0 0 0 0 0 0 0 0.25 0"/>
<feBlend mode="normal" in2="BackgroundImageFix" result="effect1_dropShadow_6238_10056"/>
<feBlend mode="normal" in="SourceGraphic" in2="effect1_dropShadow_6238_10056" result="shape"/>
</filter>
<radialGradient id="paint0_radial_6238_10056" cx="0" cy="0" r="1" gradientUnits="userSpaceOnUse" gradientTransform="translate(197.446 197.264) scale(179.673 179.475)">
<stop stop-color="#FF002F"/>
<stop offset="1"/>
</radialGradient>
<linearGradient id="paint1_linear_6238_10056" x1="197.483" y1="197.265" x2="197.483" y2="0" gradientUnits="userSpaceOnUse">
<stop stop-color="#FF002F"/>
<stop offset="1"/>
</linearGradient>
<linearGradient id="paint2_linear_6238_10056" x1="197.503" y1="197.321" x2="57.9906" y2="57.655" gradientUnits="userSpaceOnUse">
<stop stop-color="#FF002F"/>
<stop offset="1"/>
</linearGradient>
<linearGradient id="paint3_linear_6238_10056" x1="197.482" y1="197.3" x2="0" y2="197.3" gradientUnits="userSpaceOnUse">
<stop stop-color="#FF002F"/>
<stop offset="1"/>
</linearGradient>
<linearGradient id="paint4_linear_6238_10056" x1="197.541" y1="197.294" x2="58.0536" y2="336.934" gradientUnits="userSpaceOnUse">
<stop stop-color="#FF002F"/>
<stop offset="1"/>
</linearGradient>
<linearGradient id="paint5_linear_6238_10056" x1="197.518" y1="197.264" x2="197.518" y2="394.528" gradientUnits="userSpaceOnUse">
<stop stop-color="#FF002F"/>
<stop offset="1"/>
</linearGradient>
<linearGradient id="paint6_linear_6238_10056" x1="197.54" y1="197.232" x2="337.027" y2="336.873" gradientUnits="userSpaceOnUse">
<stop stop-color="#FF002F"/>
<stop offset="1"/>
</linearGradient>
<linearGradient id="paint7_linear_6238_10056" x1="197.518" y1="197.265" x2="395" y2="197.265" gradientUnits="userSpaceOnUse">
<stop stop-color="#FF002F"/>
<stop offset="1"/>
</linearGradient>
<linearGradient id="paint8_linear_6238_10056" x1="197.477" y1="197.233" x2="336.964" y2="57.592" gradientUnits="userSpaceOnUse">
<stop stop-color="#FF002F"/>
<stop offset="1"/>
</linearGradient>
<radialGradient id="paint9_radial_6238_10056" cx="0" cy="0" r="1" gradientUnits="userSpaceOnUse" gradientTransform="translate(197.433 197.248) scale(117.644 117.514)">
<stop offset="0.58" stop-color="#FF7E00"/>
<stop offset="0.69" stop-color="#C26000"/>
<stop offset="0.93" stop-color="#2D1600"/>
<stop offset="1"/>
</radialGradient>
<radialGradient id="paint10_radial_6238_10056" cx="0" cy="0" r="1" gradientUnits="userSpaceOnUse" gradientTransform="translate(197.015 445.178) scale(104.492 104.377)">
<stop stop-color="#FF9689"/>
<stop offset="0.99" stop-color="#FF909C"/>
</radialGradient>
<linearGradient id="paint11_linear_6238_10056" x1="195.726" y1="431.076" x2="195.726" y2="326.591" gradientUnits="userSpaceOnUse">
<stop stop-color="#48365E"/>
<stop offset="1" stop-color="#685763"/>
</linearGradient>
<linearGradient id="paint12_linear_6238_10056" x1="69.375" y1="425.241" x2="313.406" y2="425.241" gradientUnits="userSpaceOnUse">
<stop stop-color="#C77CBD"/>
<stop offset="1" stop-color="#974577"/>
</linearGradient>
<radialGradient id="paint13_radial_6238_10056" cx="0" cy="0" r="1" gradientUnits="userSpaceOnUse" gradientTransform="translate(195.581 327.069) scale(159.925 54.0564)">
<stop stop-color="#0038FF"/>
<stop offset="1"/>
</radialGradient>
<radialGradient id="paint14_radial_6238_10056" cx="0" cy="0" r="1" gradientUnits="userSpaceOnUse" gradientTransform="translate(183.266 396.043) scale(42.141 29.3785)">
<stop stop-color="#006FFF"/>
<stop offset="1"/>
</radialGradient>
<clipPath id="clip0_6238_10056">
<rect width="395" height="477" fill="white"/>
</clipPath>
</defs>
</svg>
