<svg width="395" height="477" viewBox="0 0 395 477" fill="none" xmlns="http://www.w3.org/2000/svg">
<g clip-path="url(#clip0_288_5107)">
<path style="mix-blend-mode:screen" opacity="0.5" d="M197.446 376.739C296.677 376.739 377.119 296.386 377.119 197.265C377.119 98.1435 296.677 17.79 197.446 17.79C98.2159 17.79 17.7737 98.1435 17.7737 197.265C17.7737 296.386 98.2159 376.739 197.446 376.739Z" fill="url(#paint0_radial_288_5107)"/>
<path style="mix-blend-mode:screen" opacity="0.5" fill-rule="evenodd" clip-rule="evenodd" d="M228.658 0H202.678H192.25H166.271L197.446 197.265L197.482 195.976V197.265L228.658 0Z" fill="url(#paint1_linear_288_5107)"/>
<path style="mix-blend-mode:screen" opacity="0.5" fill-rule="evenodd" clip-rule="evenodd" d="M79.8744 35.7588L61.5273 54.1215L54.1096 61.4952L35.7625 79.8578L197.446 197.336L196.55 196.405L197.482 197.264L79.8744 35.7588Z" fill="url(#paint2_linear_288_5107)"/>
<path style="mix-blend-mode:screen" opacity="0.5" fill-rule="evenodd" clip-rule="evenodd" d="M0 166.123V192.11V202.526V228.477L197.482 197.336L196.192 197.3L197.482 197.264L0 166.123Z" fill="url(#paint3_linear_288_5107)"/>
<path style="mix-blend-mode:screen" opacity="0.5" fill-rule="evenodd" clip-rule="evenodd" d="M35.7983 314.743L54.1813 333.105L61.5631 340.515L79.946 358.842L197.554 197.336L196.622 198.231L197.482 197.265L35.7983 314.743Z" fill="url(#paint4_linear_288_5107)"/>
<path style="mix-blend-mode:screen" opacity="0.5" fill-rule="evenodd" clip-rule="evenodd" d="M166.306 394.565H192.322H202.75H228.729L197.554 197.265L197.518 198.589L197.482 197.265L166.306 394.565Z" fill="url(#paint5_linear_288_5107)"/>
<path style="mix-blend-mode:screen" opacity="0.5" fill-rule="evenodd" clip-rule="evenodd" d="M315.09 358.806L333.473 340.443L340.89 333.07L359.238 314.707L197.554 197.229L198.45 198.159L197.482 197.265L315.09 358.806Z" fill="url(#paint6_linear_288_5107)"/>
<path style="mix-blend-mode:screen" opacity="0.5" fill-rule="evenodd" clip-rule="evenodd" d="M395 228.406V202.455V192.039V166.087L197.482 197.229L198.808 197.265H197.482L395 228.406Z" fill="url(#paint7_linear_288_5107)"/>
<path style="mix-blend-mode:screen" opacity="0.5" fill-rule="evenodd" clip-rule="evenodd" d="M359.202 79.7864L340.819 61.4595L333.437 54.05L315.054 35.7231L197.446 197.229L198.378 196.334L197.482 197.265L359.202 79.7864Z" fill="url(#paint8_linear_288_5107)"/>
<path d="M306.102 242.213C330.966 182.253 302.461 113.511 242.434 88.674C182.407 63.8374 113.589 92.3112 88.725 152.272C63.861 212.233 92.3663 280.975 152.393 305.811C212.42 330.648 281.238 302.174 306.102 242.213Z" fill="url(#paint9_radial_288_5107)" style="mix-blend-mode:screen"/>
<path fill-rule="evenodd" clip-rule="evenodd" d="M69.9841 452.731C69.9841 452.731 56.618 443.389 52.7121 413.393H341.356C341.356 413.393 341.715 431.076 314.015 460.714C314.015 460.714 278.396 479.649 188.165 476.714C95.7489 473.707 70.02 452.731 70.02 452.731H69.9841Z" fill="url(#paint10_radial_288_5107)"/>
<path fill-rule="evenodd" clip-rule="evenodd" d="M52.7121 413.393C49.4512 402.941 104.492 383.755 192.25 383.755C280.008 383.755 337.773 403.299 341.356 413.393C344.94 423.487 287.032 447.219 192.25 447.219C97.469 447.219 56.5105 425.492 52.7121 413.393Z" fill="#FFD8EE"/>
<path fill-rule="evenodd" clip-rule="evenodd" d="M69.375 406.807C69.375 406.807 44.7927 360.667 52.1029 326.627H340.747C340.747 326.627 340.89 382.789 313.406 414.825C313.406 414.825 277.786 433.76 187.556 430.825C95.1397 427.818 69.4108 406.843 69.4108 406.843L69.375 406.807Z" fill="url(#paint11_linear_288_5107)"/>
<path fill-rule="evenodd" clip-rule="evenodd" d="M52.1029 326.591C48.842 316.139 103.883 296.953 191.641 296.953C279.399 296.953 337.164 316.497 340.747 326.591C344.331 336.685 286.423 360.417 191.641 360.417C96.8598 360.417 55.9013 338.689 52.1029 326.591Z" fill="#A4A0C2"/>
<path fill-rule="evenodd" clip-rule="evenodd" d="M303.551 328.703C303.695 329.275 303.408 329.92 302.763 330.564C293.697 339.584 212.353 354.904 159.462 350.645C159.104 350.609 158.781 350.573 158.459 350.573C133.339 348.461 115.422 344.989 103.417 341.088C91.5563 337.222 85.4287 332.998 83.7803 329.347C83.3503 328.452 83.2428 327.593 83.3503 326.806C84.4253 319.325 176.017 311.593 221.133 318.609C240.017 321.58 245.607 325.123 242.597 328.381C240.304 330.958 232.671 333.32 222.029 335.038C213.93 336.327 204.04 337.258 193.433 337.616C184.08 337.938 176.089 337.902 169.352 337.616C152.439 336.936 143.301 334.859 139.467 333.75C137.962 333.32 137.281 333.034 137.281 333.034C137.281 333.034 144.304 322.51 155.592 326.018C166.88 329.526 169.675 334.824 169.675 334.824C169.675 334.824 215.829 336.399 225.863 330.135C226.579 329.705 227.117 329.24 227.439 328.703C232.277 320.792 96.3939 316.855 96.0356 330.958C96.0356 331.602 96.1789 332.211 96.5731 332.819C103.883 345.956 190.279 355.477 246.467 338.689C255.283 336.076 259.977 333.177 261.231 330.206C266.463 318.036 213.321 304.935 147.78 305.615H146.92C122.23 305.937 95.8564 308.192 70.1633 313.204L83.3503 309.016C83.3503 309.016 114.024 300.174 182.002 302.716C250.015 305.257 301.437 320.148 303.551 328.703Z" fill="#4C95C7"/>
<path fill-rule="evenodd" clip-rule="evenodd" d="M169.352 337.616C152.439 336.935 143.301 334.859 139.467 333.75C142.369 330.886 148.031 326.913 155.592 329.275C164.873 332.175 168.421 336.255 169.352 337.616Z" fill="#00FFED"/>
<path fill-rule="evenodd" clip-rule="evenodd" d="M227.439 331.996C227.834 331.352 227.26 330.707 225.863 330.135C226.579 329.705 227.117 329.24 227.439 328.703C232.277 320.792 96.3939 316.855 96.0356 330.958C96.0356 331.602 96.1789 332.211 96.5731 332.819C96.2148 333.249 96.0356 333.714 96.0356 334.215C95.9639 336.649 98.6515 338.976 103.417 341.088C91.5563 337.222 85.4287 332.998 83.7803 329.347C90.5888 322.117 177.558 315.101 221.133 321.902C233.782 323.871 240.483 326.161 242.597 328.381C240.304 330.958 232.671 333.32 222.029 335.039C224.752 334.215 226.687 333.213 227.439 331.996Z" fill="#00FFED"/>
<path fill-rule="evenodd" clip-rule="evenodd" d="M302.763 330.564C293.697 339.584 212.353 354.904 159.462 350.645C159.104 350.609 158.781 350.573 158.459 350.573C186.875 351.933 220.022 349.857 246.467 341.947C258.508 338.331 262.879 334.251 261.231 330.206C266.463 318.036 213.321 304.935 147.78 305.615C157.921 305.436 169.316 305.508 182.002 305.973C246.396 308.371 295.883 321.866 302.763 330.564Z" fill="#00FFED"/>
<path style="mix-blend-mode:multiply" opacity="0.5" fill-rule="evenodd" clip-rule="evenodd" d="M69.375 406.807C69.375 406.807 92.8105 436.91 168.277 442.494C275.887 450.476 313.406 414.789 313.406 414.789C313.406 414.789 181.178 447.219 69.375 406.807Z" fill="url(#paint12_linear_288_5107)"/>
<path fill-rule="evenodd" clip-rule="evenodd" d="M84.2103 346.922C84.2103 346.922 116.139 357.339 149.428 357.16C182.718 356.981 233.46 358.842 233.46 358.842C233.46 358.842 193.791 371.907 158.853 369.795C123.915 367.683 84.2461 346.958 84.2461 346.958L84.2103 346.922Z" fill="#8B6F8B"/>
<path fill-rule="evenodd" clip-rule="evenodd" d="M294.664 349.499C294.664 349.499 317.419 335.074 324.443 332.461C331.502 329.884 337.665 332.461 337.665 332.461C337.665 332.461 327.596 352.184 294.664 349.499Z" fill="#8B6F8B"/>
<path fill-rule="evenodd" clip-rule="evenodd" d="M53.0704 328.703C53.0704 328.703 55.973 327.808 60.7031 331.316C65.3974 334.824 81.7736 346.063 81.7736 346.063C81.7736 346.063 62.8173 351.361 57.1914 346.063C54.8263 343.808 53.1063 328.703 53.1063 328.703H53.0704Z" fill="#8B6F8B"/>
<g style="mix-blend-mode:soft-light">
<path fill-rule="evenodd" clip-rule="evenodd" d="M213.142 476.964L216.403 447.219C216.403 447.219 249.621 446.145 275.851 440.311L264.026 473.421C264.026 473.421 230.055 477 213.106 476.964H213.142Z" fill="#FFCCB5"/>
</g>
<g style="mix-blend-mode:soft-light">
<path fill-rule="evenodd" clip-rule="evenodd" d="M76.936 456.812L70.1275 427.854C70.1275 427.854 88.4387 435.442 98.9381 437.769L99.9415 465.224C99.9415 465.224 87.3279 462.11 76.936 456.812Z" fill="#FFCCB5"/>
</g>
<path fill-rule="evenodd" clip-rule="evenodd" d="M227.439 328.703V331.996C227.439 331.996 225.325 334.036 223.39 334.573L222.745 331.638C222.745 331.638 226.114 330.206 227.404 328.703H227.439Z" fill="#4C95C7"/>
<path fill-rule="evenodd" clip-rule="evenodd" d="M261.554 328.452L261.303 333.249L257.397 337.365V334.143C257.397 334.143 261.374 332.604 261.518 328.452H261.554Z" fill="#4C95C7"/>
<path fill-rule="evenodd" clip-rule="evenodd" d="M96.0714 334.824V330.099C96.0714 330.099 95.5697 332.748 99.2965 335.575L99.7265 339.155C99.7265 339.155 96.0356 337.222 96.0356 334.824H96.0714Z" fill="#4C95C7"/>
<path style="mix-blend-mode:screen" opacity="0.5" d="M195.726 380.533C284.092 380.533 355.726 356.382 355.726 326.591C355.726 296.799 284.092 272.648 195.726 272.648C107.361 272.648 35.7267 296.799 35.7267 326.591C35.7267 356.382 107.361 380.533 195.726 380.533Z" fill="url(#paint13_radial_288_5107)"/>
<path fill-rule="evenodd" clip-rule="evenodd" d="M160.394 394.601L167.095 388.337L182.898 401.223L205.796 379.281L213.357 385.509L183.507 411.639L160.394 394.601Z" fill="#4C95C7"/>
<path fill-rule="evenodd" clip-rule="evenodd" d="M161.505 393.527L183.793 409.133L211.708 384.292L205.796 379.281L182.898 401.223L167.095 388.337L161.505 393.527Z" fill="#00FFED"/>
<path style="mix-blend-mode:screen" opacity="0.5" d="M183.184 424.776C206.438 424.776 225.289 411.651 225.289 395.46C225.289 379.269 206.438 366.144 183.184 366.144C159.93 366.144 141.079 379.269 141.079 395.46C141.079 411.651 159.93 424.776 183.184 424.776Z" fill="url(#paint14_radial_288_5107)"/>
<g filter="url(#filter0_d_288_5107)">
<path d="M143.748 191.502C144.068 194.126 144.26 196.814 144.452 199.438C144.452 204.302 143.62 208.974 141.828 213.518C141.124 215.246 140.228 216.846 139.012 218.254C134.916 223.054 128.068 223.822 123.268 219.534C119.812 216.462 117.828 212.558 117.124 208.014C115.908 200.59 116.612 193.358 119.812 186.446C120.452 185.102 121.22 183.886 122.052 182.606C124.1 179.662 127.108 178.382 130.564 178.062C133.316 177.806 136.004 178.382 138.372 179.918C139.46 180.558 140.292 181.454 140.868 182.542C142.34 185.358 143.428 188.302 143.748 191.502ZM135.172 214.222C135.428 211.214 135.428 208.142 135.556 205.582C135.172 201.23 134.916 197.39 134.468 193.55C134.148 190.734 133.572 187.982 133.06 185.23C132.804 184.014 132.1 183.054 131.268 182.158C130.82 181.582 130.18 181.454 129.476 181.582C128.516 181.774 127.748 182.158 127.364 183.182C126.212 185.998 125.572 188.942 125.38 192.014C124.996 196.75 125.508 201.486 126.276 206.222C126.788 209.55 127.684 212.814 129.412 215.758C129.924 216.654 130.564 217.55 131.268 218.318C132.42 219.534 133.572 219.406 134.212 217.806C134.724 216.654 135.108 215.438 135.172 214.222ZM168.04 212.686C168.616 213.326 168.36 214.222 167.528 214.414C167.08 214.478 166.632 214.478 166.184 214.478C163.304 214.606 160.36 214.734 157.416 214.862C156.84 214.926 156.328 214.862 156.072 214.286C155.816 213.71 156.072 213.198 156.584 212.942C158.184 212.046 158.312 210.638 158.056 209.102C157.736 206.734 156.968 204.494 155.816 202.446C155.624 202.126 155.432 201.87 155.24 201.614C154.6 201.998 154.472 202.51 154.472 203.086C154.536 203.854 154.472 204.686 154.472 205.454C154.536 208.462 154.536 211.534 154.6 214.606C154.6 216.078 155.112 217.358 156.712 218.062C157.032 218.19 157.416 218.638 157.48 218.958C157.608 219.47 157.224 219.854 156.712 220.046C154.92 220.814 153.064 221.582 151.208 222.35C149.48 223.054 147.688 223.758 145.896 224.398C145.128 224.718 144.36 224.974 143.528 225.23C142.952 225.422 142.376 225.358 142.056 224.718C141.736 224.142 141.992 223.566 142.568 223.246C145.128 221.966 145.768 219.662 145.96 217.166C146.152 214.094 146.344 210.958 146.472 207.886C146.6 202.126 146.728 196.302 146.792 190.542C146.856 188.302 146.6 186.062 146.472 183.886C146.472 183.502 146.344 183.118 146.216 182.734C145.768 181.326 145.128 180.046 143.592 179.47C143.08 179.278 142.76 178.83 142.888 178.254C143.016 177.678 143.528 177.422 144.232 177.55C145.32 177.742 146.408 177.934 147.496 178.254C151.336 179.406 155.24 180.174 159.144 180.75C159.528 180.814 159.912 180.878 160.36 180.942C160.936 181.07 161.32 181.454 161.32 182.03C161.32 182.542 160.872 182.99 160.168 183.054C159.784 183.118 159.464 183.054 159.08 183.118C157.928 183.246 156.84 183.63 156.008 184.462C155.368 185.038 155.048 185.678 154.984 186.51C154.856 190.222 154.728 193.934 154.6 197.646C154.6 197.774 154.664 197.966 154.728 198.35C156.52 196.046 158.248 193.998 159.272 191.31C158.888 191.182 158.632 190.99 158.312 190.862C157.8 190.606 157.416 190.286 157.544 189.646C157.608 189.07 158.12 188.814 158.888 188.814C158.888 188.814 158.952 188.814 159.016 188.814C161.064 189.262 163.048 188.878 165.096 188.622C165.544 188.558 165.928 188.494 166.376 188.494C166.952 188.494 167.336 188.686 167.464 189.262C167.592 189.838 167.336 190.222 166.888 190.478C166.696 190.542 166.568 190.606 166.376 190.67C164.392 191.374 162.728 192.654 161.32 194.19C160.168 195.342 159.016 196.622 157.928 197.774C159.656 201.55 161.32 205.198 163.688 208.526C164.776 209.934 165.992 211.15 167.4 212.174C167.656 212.366 167.848 212.494 168.04 212.686ZM186.218 215.438C186.73 215.566 187.178 216.142 186.986 216.782C186.602 217.87 186.218 219.022 185.578 219.918C182.762 223.694 177.258 224.206 173.354 221.198C171.178 219.534 170.154 217.166 169.706 214.606C169.258 212.046 169.066 209.422 168.938 206.798C168.81 204.11 169.322 190.99 169.386 187.15C169.45 184.782 168.81 182.67 166.826 181.198C166.314 180.814 165.866 180.366 166.122 179.662C166.378 178.958 167.018 178.83 167.658 178.83C169.194 178.766 170.794 178.766 172.33 178.83C174.954 178.894 177.642 178.958 180.266 179.086C180.842 179.086 181.354 179.15 181.866 179.278C182.762 179.598 182.954 180.494 182.25 181.134C182.122 181.262 181.994 181.326 181.866 181.39C180.458 181.902 179.754 183.054 179.434 184.462C179.114 185.742 178.858 187.086 178.538 188.366C180.842 188.494 183.082 188.622 185.386 188.75C185.642 188.814 185.898 188.814 186.154 188.878C186.73 189.006 186.922 189.39 186.922 190.03C186.922 190.606 186.73 191.054 186.218 191.246C185.834 191.374 185.45 191.438 185.066 191.438C182.634 191.63 180.202 191.822 177.77 192.014C177.77 192.142 177.706 192.334 177.706 192.526C176.554 198.286 176.362 204.11 176.618 209.998C176.746 212.174 177.258 214.35 178.346 216.334C178.666 216.91 179.114 217.55 179.626 217.998C180.778 219.086 182.058 219.15 183.338 218.254C184.106 217.742 184.682 217.038 185.002 216.206C185.194 215.63 185.578 215.31 186.218 215.438ZM209.034 194.062C210.442 197.198 210.57 200.526 210.25 203.854C209.738 208.142 208.266 212.046 205.706 215.694C202.634 220.11 198.154 220.878 193.354 218.958C191.178 218.126 189.578 216.59 188.362 214.67C186.314 211.534 185.418 208.142 185.738 204.686C185.546 201.87 185.93 199.31 186.954 196.878C188.874 192.654 191.882 189.582 196.746 188.558C199.37 188.046 201.93 188.302 204.362 189.326C206.602 190.286 208.074 191.95 209.034 194.062ZM200.97 212.174C202.57 207.63 202.442 202.894 201.994 198.222C201.866 196.878 201.546 195.534 201.226 194.254C200.97 193.358 200.522 192.526 199.69 191.95C198.922 191.374 198.474 191.374 197.77 192.014C196.81 192.718 196.17 193.614 195.722 194.638C193.994 198.35 193.61 202.254 193.738 206.158C193.802 208.462 194.378 210.766 195.466 212.814C196.17 214.158 197.066 215.374 198.602 216.27C199.05 215.758 199.562 215.246 199.818 214.734C200.266 213.902 200.65 213.07 200.97 212.174ZM233.299 195.854C234.195 199.31 233.811 202.766 232.979 206.222C232.595 207.63 232.211 209.038 231.699 210.382C231.251 211.534 230.739 212.686 230.035 213.71C228.371 216.27 225.555 216.846 222.995 215.182C221.971 214.542 221.139 213.71 220.243 212.878C219.795 212.43 219.411 211.854 218.963 211.342C218.899 211.406 218.771 211.406 218.707 211.47C218.771 212.046 218.707 212.686 218.835 213.262C219.155 214.478 219.603 214.862 220.883 214.926C221.075 214.926 221.267 214.926 221.395 214.926C222.483 215.118 222.867 216.142 222.099 216.846C221.587 217.358 220.883 217.742 220.179 217.998C217.171 219.15 214.099 220.174 211.091 221.262C210.643 221.39 210.259 221.646 209.811 221.646C209.427 221.582 208.979 221.326 208.787 221.006C208.595 220.75 208.851 220.302 208.915 219.918C208.979 219.854 209.043 219.79 209.107 219.726C211.219 218.382 211.475 216.142 211.795 213.902C212.371 209.422 212.435 204.814 212.563 200.27C212.627 195.598 212.755 190.99 212.819 186.318C212.819 185.806 212.819 185.23 212.819 184.718C212.819 183.438 212.243 182.542 210.963 182.094C210.707 182.03 210.451 181.966 210.195 181.838C209.747 181.646 209.427 181.262 209.491 180.686C209.619 180.11 210.067 179.79 210.643 179.79C211.283 179.854 211.859 179.982 212.499 179.982C215.379 180.174 218.323 180.366 221.203 180.558C221.907 180.622 222.547 180.686 223.187 180.75C223.763 180.814 224.083 181.198 224.083 181.774C224.083 182.222 223.827 182.606 223.379 182.734C223.187 182.798 223.059 182.862 222.867 182.926C221.715 183.118 221.011 183.95 220.627 184.974C220.307 186.19 219.923 187.342 219.795 188.622C219.539 190.478 219.539 192.398 219.411 194.318C219.411 194.446 219.411 194.638 219.475 194.894C220.115 194.19 220.691 193.614 221.267 193.038C223.315 190.734 225.875 190.03 228.819 190.478C230.099 190.67 231.187 191.31 231.827 192.462C232.467 193.486 233.043 194.638 233.299 195.854ZM226.259 205.134C226.579 202.766 226.899 200.334 226.387 197.902C226.195 196.878 225.939 195.854 225.491 194.894C224.915 193.742 223.955 193.614 222.995 194.382C222.483 194.766 222.035 195.214 221.651 195.662C219.987 197.774 219.091 200.206 219.475 202.894C219.475 203.854 219.411 204.686 219.475 205.582C219.539 206.99 219.987 208.27 220.691 209.486C221.587 211.15 223.507 211.406 224.787 209.998C225.171 209.614 225.491 209.102 225.619 208.526C225.939 207.438 226.131 206.286 226.259 205.134ZM252.795 191.694C253.755 193.806 254.139 196.046 254.139 198.414C254.139 198.862 254.139 199.31 254.139 199.694C254.139 200.718 253.819 201.102 252.859 201.166C251.579 201.23 250.299 201.23 248.955 201.294C246.651 201.422 244.283 201.55 241.723 201.742C241.787 203.854 241.723 205.838 241.915 207.822C241.979 208.654 242.299 209.55 242.683 210.318C243.643 212.174 245.627 212.494 247.099 210.958C247.931 209.998 248.635 208.91 249.275 207.822C249.595 207.31 249.787 206.67 250.043 206.094C250.363 205.39 250.491 204.494 251.579 204.558C252.283 204.622 252.603 205.198 252.667 206.606C252.795 208.91 252.859 211.278 252.987 213.646C253.051 214.35 253.051 215.054 253.115 215.758C253.179 216.334 252.987 216.782 252.411 217.038C251.835 217.23 251.451 216.974 251.131 216.526C250.363 215.502 249.211 214.99 248.059 214.606C247.547 214.414 247.163 214.478 246.843 214.862C246.395 215.246 245.883 215.694 245.499 216.142C242.747 218.958 238.971 217.614 237.307 215.566C236.347 214.35 235.643 213.006 235.323 211.534C234.427 207.31 234.107 203.022 234.747 198.734C235.003 196.878 235.579 195.15 236.347 193.55C237.819 190.734 239.995 188.814 242.939 187.662C245.755 186.51 251.259 188.046 252.795 191.694ZM242.235 198.798C244.219 198.734 246.075 198.67 248.059 198.606C247.803 196.11 247.611 193.742 246.587 191.566C246.459 191.31 246.267 191.118 246.139 190.862C245.691 190.414 245.371 190.35 244.923 190.862C244.731 191.054 244.539 191.374 244.411 191.63C243.195 193.806 242.683 196.238 242.235 198.798ZM280.24 192.078C280.88 194.958 279.728 197.966 277.104 199.886C276.656 200.206 276.208 200.27 275.76 199.95C275.248 199.63 275.248 199.182 275.376 198.67C275.44 198.542 275.504 198.414 275.504 198.286C276.144 196.366 275.44 195.342 273.392 195.406C270.192 195.534 267.76 197.198 265.84 199.63C265.648 199.886 265.584 200.27 265.52 200.59C265.52 204.558 264.944 208.462 265.456 212.43C265.52 212.878 265.584 213.326 265.712 213.71C265.968 214.862 266.608 215.566 267.888 215.694C269.04 215.758 269.424 216.078 269.488 216.718C269.552 217.358 269.232 217.742 268.08 217.998C265.648 218.51 263.152 218.958 260.656 219.534C258.608 219.982 256.56 220.558 254.512 221.07C254.128 221.134 253.744 221.198 253.488 221.134C252.656 220.942 252.592 220.046 253.232 219.342C253.872 218.702 254.576 218.062 255.152 217.358C256.304 215.822 256.816 214.03 257.136 212.174C258.224 206.222 258.48 200.206 257.776 194.19C257.648 193.23 257.392 192.334 257.072 191.502C256.688 190.414 256.112 189.518 254.832 189.262C254.256 189.134 253.936 188.75 254 188.11C254.128 187.406 254.576 186.894 255.216 186.83C255.728 186.766 256.24 186.83 256.816 186.83C260.08 186.83 263.408 186.894 266.736 186.894C267.056 186.894 267.376 186.83 267.696 186.894C268.784 187.022 269.168 187.918 268.528 188.814C268.4 189.006 268.208 189.134 268.08 189.262C266.8 190.286 266.48 191.694 266.16 193.358C267.376 192.206 268.272 191.31 269.232 190.478C270.704 189.262 272.432 188.43 274.416 188.302C277.168 188.046 279.728 189.646 280.24 192.078Z" fill="white"/>
</g>
</g>
<defs>
<filter id="filter0_d_288_5107" x="111.908" y="177.422" width="172.973" height="56" filterUnits="userSpaceOnUse" color-interpolation-filters="sRGB">
<feFlood flood-opacity="0" result="BackgroundImageFix"/>
<feColorMatrix in="SourceAlpha" type="matrix" values="0 0 0 0 0 0 0 0 0 0 0 0 0 0 0 0 0 0 127 0" result="hardAlpha"/>
<feOffset dy="4"/>
<feGaussianBlur stdDeviation="2"/>
<feComposite in2="hardAlpha" operator="out"/>
<feColorMatrix type="matrix" values="0 0 0 0 0 0 0 0 0 0 0 0 0 0 0 0 0 0 0.25 0"/>
<feBlend mode="normal" in2="BackgroundImageFix" result="effect1_dropShadow_288_5107"/>
<feBlend mode="normal" in="SourceGraphic" in2="effect1_dropShadow_288_5107" result="shape"/>
</filter>
<radialGradient id="paint0_radial_288_5107" cx="0" cy="0" r="1" gradientUnits="userSpaceOnUse" gradientTransform="translate(197.446 197.265) scale(179.673 179.475)">
<stop stop-color="#FF002F"/>
<stop offset="1" stop-color="#99001C" stop-opacity="0"/>
</radialGradient>
<linearGradient id="paint1_linear_288_5107" x1="197.482" y1="197.265" x2="197.482" y2="0" gradientUnits="userSpaceOnUse">
<stop stop-color="#FF002F"/>
<stop offset="1" stop-color="#99001C" stop-opacity="0"/>
</linearGradient>
<linearGradient id="paint2_linear_288_5107" x1="197.504" y1="197.32" x2="57.9914" y2="57.6541" gradientUnits="userSpaceOnUse">
<stop stop-color="#FF002F"/>
<stop offset="1" stop-color="#99001C" stop-opacity="0"/>
</linearGradient>
<linearGradient id="paint3_linear_288_5107" x1="197.482" y1="197.3" x2="0" y2="197.3" gradientUnits="userSpaceOnUse">
<stop stop-color="#FF002F"/>
<stop offset="1" stop-color="#99001C" stop-opacity="0"/>
</linearGradient>
<linearGradient id="paint4_linear_288_5107" x1="197.54" y1="197.295" x2="58.0531" y2="336.935" gradientUnits="userSpaceOnUse">
<stop stop-color="#FF002F"/>
<stop offset="1" stop-color="#99001C" stop-opacity="0"/>
</linearGradient>
<linearGradient id="paint5_linear_288_5107" x1="197.518" y1="197.265" x2="197.518" y2="394.529" gradientUnits="userSpaceOnUse">
<stop stop-color="#FF002F"/>
<stop offset="1" stop-color="#99001C" stop-opacity="0"/>
</linearGradient>
<linearGradient id="paint6_linear_288_5107" x1="197.54" y1="197.233" x2="337.027" y2="336.874" gradientUnits="userSpaceOnUse">
<stop stop-color="#FF002F"/>
<stop offset="1" stop-color="#99001C" stop-opacity="0"/>
</linearGradient>
<linearGradient id="paint7_linear_288_5107" x1="197.518" y1="197.265" x2="395" y2="197.265" gradientUnits="userSpaceOnUse">
<stop stop-color="#FF002F"/>
<stop offset="1" stop-color="#99001C" stop-opacity="0"/>
</linearGradient>
<linearGradient id="paint8_linear_288_5107" x1="197.478" y1="197.233" x2="336.965" y2="57.5925" gradientUnits="userSpaceOnUse">
<stop stop-color="#FF002F"/>
<stop offset="1" stop-color="#99001C" stop-opacity="0"/>
</linearGradient>
<radialGradient id="paint9_radial_288_5107" cx="0" cy="0" r="1" gradientUnits="userSpaceOnUse" gradientTransform="translate(197.433 197.247) scale(117.644 117.514)">
<stop stop-color="#994C00"/>
<stop offset="1" stop-color="#FF7E00" stop-opacity="0"/>
</radialGradient>
<radialGradient id="paint10_radial_288_5107" cx="0" cy="0" r="1" gradientUnits="userSpaceOnUse" gradientTransform="translate(197.016 445.179) scale(104.492 104.377)">
<stop stop-color="#FF9689"/>
<stop offset="0.99" stop-color="#FF909C"/>
</radialGradient>
<linearGradient id="paint11_linear_288_5107" x1="195.726" y1="431.076" x2="195.726" y2="326.591" gradientUnits="userSpaceOnUse">
<stop stop-color="#48365E"/>
<stop offset="1" stop-color="#685763"/>
</linearGradient>
<linearGradient id="paint12_linear_288_5107" x1="69.375" y1="425.241" x2="313.406" y2="425.241" gradientUnits="userSpaceOnUse">
<stop stop-color="#C77CBD"/>
<stop offset="1" stop-color="#974577"/>
</linearGradient>
<radialGradient id="paint13_radial_288_5107" cx="0" cy="0" r="1" gradientUnits="userSpaceOnUse" gradientTransform="translate(195.581 327.069) scale(159.925 54.0564)">
<stop stop-color="#0038FF"/>
<stop offset="1" stop-color="#002299" stop-opacity="0"/>
</radialGradient>
<radialGradient id="paint14_radial_288_5107" cx="0" cy="0" r="1" gradientUnits="userSpaceOnUse" gradientTransform="translate(183.267 396.043) scale(42.141 29.3785)">
<stop stop-color="#006FFF"/>
<stop offset="1"/>
</radialGradient>
<clipPath id="clip0_288_5107">
<rect width="395" height="477" fill="white"/>
</clipPath>
</defs>
</svg>
