<svg width="1068" height="501" viewBox="0 0 1068 501" fill="none" xmlns="http://www.w3.org/2000/svg">
<path style="mix-blend-mode:screen" d="M454.835 339.389C508.912 212.348 455.836 71.8958 336.288 25.6806C216.74 -20.5346 75.9901 44.9876 21.9138 172.029C-32.1625 299.07 20.9128 439.521 140.461 485.737C260.009 531.952 400.759 466.43 454.835 339.389Z" fill="url(#paint0_radial_6242_15807)"/>
<path style="mix-blend-mode:screen" d="M609.915 329.389C555.838 202.348 608.914 61.8958 728.462 15.6806C848.01 -30.5346 988.76 34.9877 1042.84 162.029C1096.91 289.07 1043.84 429.521 924.289 475.737C804.741 521.952 663.991 456.43 609.915 329.389Z" fill="url(#paint1_radial_6242_15807)"/>
<g style="mix-blend-mode:hard-light" clip-path="url(#clip0_6242_15807)">
<path d="M804.963 173.486C804.963 173.486 795.67 177.757 790.103 174.818C789.976 174.733 789.807 174.649 789.658 174.564C789.531 174.458 789.362 174.374 789.214 174.226C789.193 174.226 789.193 174.205 789.193 174.205C788.854 173.993 788.6 173.76 788.325 173.464C783.287 168.157 775.73 156.295 763.96 151.453C752.17 146.611 739.384 148.683 716.205 145.765C715.443 145.659 714.681 145.553 713.961 145.405H713.877C692.941 141.705 691.629 126.544 691.629 126.544C701.197 126.904 775.285 115.464 781.445 130.054C781.53 130.266 781.614 130.498 781.657 130.71C782.715 134.6 783.266 138.914 783.879 143.27C783.901 143.481 783.943 143.735 783.985 143.946C784.155 145.088 784.324 146.272 784.514 147.393V147.562C784.599 148.027 784.642 148.492 784.769 148.937C784.769 149.021 784.768 149.106 784.79 149.19C785.255 151.897 785.848 154.561 786.674 157.056C789.193 164.795 794.04 171.181 804.942 173.486H804.963Z" fill="url(#paint2_linear_6242_15807)"/>
<path d="M804.963 306.167C803.926 306.379 802.91 306.633 801.978 306.971C782.61 312.955 785.679 334.057 781.678 348.922C777.466 364.463 701.345 352.728 691.65 353.045C691.65 353.045 693.047 336.785 716.227 333.867C739.406 330.928 752.212 333.021 763.982 328.179C775.73 323.337 783.308 311.475 788.346 306.167C789.913 304.518 792.093 303.926 794.337 303.841H794.358C794.358 303.841 794.443 303.82 794.485 303.82C796.094 303.757 797.745 304.011 799.227 304.349C802.423 305.026 804.963 306.189 804.963 306.189V306.167Z" fill="url(#paint3_linear_6242_15807)"/>
<path d="M884.406 142.465C880.871 153.524 866.414 156.379 860.084 156.104H860.063C858.285 156.04 857.163 155.744 857.078 155.279C856.719 153.207 874.373 141.091 856.041 136.249C838.705 131.682 803.756 155.491 819.251 175.028C819.886 175.853 820.627 176.678 821.474 177.481C821.749 177.756 822.045 178.031 822.342 178.306C822.405 178.327 822.426 178.369 822.447 178.39H822.469C845.288 198.478 846.854 231.844 846.854 231.844C849.458 225.607 852.591 221.991 852.591 221.991C852.591 229.793 862.561 239.076 863.365 254.152V254.258C863.704 261.151 862.095 269.292 856.74 279.018C839.678 310.038 808.709 299.317 794.569 303.736C794.463 303.758 794.4 303.8 794.4 303.8H794.379L794.357 303.821L788.367 306.147C788.367 306.147 810.72 278.342 808.646 239.943C807.185 212.856 796.749 191.627 790.145 174.796C788.96 171.814 787.922 169.023 787.076 166.338C785.89 162.637 785.086 159.17 784.768 155.935C784.43 152.403 784.408 149.697 784.557 147.561V147.392C785.149 138.215 788.769 139.653 785.107 129.292C780.619 116.521 760.891 85.0362 760.891 85.0362C760.891 85.0362 766.098 82.6257 783.752 85.0362C801.406 87.4678 837.053 101.296 824.204 111.319C823.379 111.975 822.596 112.651 821.855 113.391C821.855 113.391 821.791 113.476 821.664 113.645C820.182 115.041 818.934 116.542 817.769 118.212H817.748C811.715 126.755 809.471 137.158 808.879 140.583C808.794 140.964 808.773 141.26 808.752 141.45C809.514 138.469 816.224 114.597 840.885 116.88C860.402 118.656 877.463 124.069 883.115 132.527C885.084 135.488 885.655 138.765 884.512 142.444L884.406 142.465Z" fill="url(#paint4_linear_6242_15807)"/>
<g style="mix-blend-mode:multiply" opacity="0.5">
<path d="M801.978 306.93C782.61 312.956 785.679 334.059 781.678 348.923C777.466 364.465 701.345 352.73 691.65 353.047C691.65 353.047 764.596 350.382 773.888 345.921C783.181 341.459 783.668 320.632 783.922 316.466C784.134 312.681 778.609 318.052 777.508 319.088C778.715 317.608 787.161 307.353 789.341 306.148C791.691 304.837 802 306.909 802 306.909L801.978 306.93Z" fill="#BE2F55"/>
</g>
<g style="mix-blend-mode:multiply" opacity="0.5">
<path d="M856.719 279.04C839.658 310.059 808.689 299.339 794.549 303.758C796.2 303.103 809.536 297.816 817.982 294.264C826.999 290.458 841.69 289.422 851.216 282.846C860.339 276.545 863.133 255.971 863.345 254.279C863.684 261.172 862.075 269.313 856.719 279.04Z" fill="#BE2F55"/>
</g>
<g style="mix-blend-mode:multiply" opacity="0.5">
<path d="M849.48 258.634C840.653 273.161 826.174 278.003 824.883 278.341C825.878 277.58 837.203 270.412 842.198 257.936C847.406 244.996 846.855 231.844 846.855 231.844C849.459 225.606 852.592 221.99 852.592 221.99C851.004 231.844 857.884 244.827 849.48 258.634Z" fill="#BE2F55"/>
</g>
<g style="mix-blend-mode:multiply" opacity="0.5">
<path d="M866.648 137.328C866.648 145.891 857.08 155.28 857.08 155.28C856.72 153.207 874.374 141.091 856.042 136.249C837.69 131.407 799.651 158.346 822.449 178.391C821.602 177.756 807.631 167.247 808.922 158.472C810.213 149.38 811.251 141.091 824.904 132.803C838.557 124.493 866.669 128.785 866.669 137.328H866.648Z" fill="#BE2F55"/>
</g>
<g style="mix-blend-mode:multiply" opacity="0.5">
<path d="M884.406 142.464C880.871 153.523 866.413 156.378 860.084 156.103C861.46 155.278 878.712 156.103 883.009 132.59C884.978 135.487 885.549 138.806 884.406 142.464Z" fill="#BE2F55"/>
</g>
<g style="mix-blend-mode:multiply" opacity="0.5">
<path d="M781.657 130.73C782.715 134.62 783.266 138.934 783.88 143.29C783.16 138.828 782.356 134.261 781.445 130.074C781.53 130.286 781.615 130.518 781.657 130.73Z" fill="#BE2F55"/>
</g>
<g style="mix-blend-mode:multiply" opacity="0.3">
<path d="M786.673 157.056C786.503 159.255 786.546 161.771 786.842 164.711C786.503 161.941 785.805 156.041 784.789 149.19C784.768 149.106 784.768 149.021 784.768 148.937C784.683 148.45 784.598 147.943 784.514 147.456V147.393C785.106 138.216 788.726 139.654 785.064 129.293C780.576 116.522 760.848 85.0371 760.848 85.0371C760.848 85.0371 785.572 95.6941 794.378 105.548C803.184 115.401 799.839 133.311 794.378 140.563C790.356 145.934 787.287 149.761 786.673 157.035V157.056Z" fill="#BE2F55"/>
</g>
<g style="mix-blend-mode:multiply" opacity="0.5">
<path d="M821.792 113.434C821.792 113.434 818.68 118.107 810.53 124.852C802.402 131.597 801.703 152.34 801.703 152.34L808.794 140.562C808.794 140.562 812.245 124.683 821.77 113.455L821.792 113.434Z" fill="#BE2F55"/>
</g>
<g style="mix-blend-mode:multiply" opacity="0.5">
<path d="M789.786 174.986C789.786 174.986 789.595 174.711 789.235 174.246C789.214 174.246 789.214 174.225 789.214 174.225C786.335 170.503 773.402 154.222 763.495 150.077C755.832 146.906 729.816 145.806 713.983 145.426H713.898C692.963 141.725 691.65 126.564 691.65 126.564C691.65 126.564 733.373 132.802 756.721 135.044C778.588 137.158 788.473 170.271 789.68 174.542C789.764 174.838 789.786 174.986 789.786 174.986Z" fill="#BE2F55"/>
</g>
<g style="mix-blend-mode:multiply" opacity="0.5">
<path d="M799.797 187.42C799.797 187.42 821.791 208.184 828.966 222.013C836.142 235.82 816.372 265.021 816.372 265.021C816.372 265.021 825.749 247.936 824.204 232.627C822.637 217.319 799.797 187.42 799.797 187.42Z" fill="#BE2F55"/>
</g>
<g style="mix-blend-mode:multiply" opacity="0.3">
<path d="M760.848 85.0781C760.848 85.0781 777.655 111.805 783.9 124.894C790.144 137.982 799.395 124.323 798.654 113.433C797.913 102.544 760.869 85.0781 760.869 85.0781H760.848Z" fill="#BE2F55"/>
</g>
<g style="mix-blend-mode:multiply" opacity="0.3">
<path d="M691.629 126.564C691.629 126.564 744.909 133.584 755.387 134.916C765.887 136.248 769.527 153.355 769.527 153.355C769.527 153.355 758.245 147.18 739.913 146.546C721.582 145.912 697.662 145.023 691.629 126.543V126.564Z" fill="#BE2F55"/>
</g>
<g style="mix-blend-mode:multiply" opacity="0.3">
<path d="M824.883 147.012C809.515 154.476 817.474 134.452 834.07 130.244C850.687 126.036 859.493 134.219 860.085 135.382C860.678 136.545 849.904 134.473 840.441 137.708C830.958 140.943 824.883 146.991 824.883 146.991V147.012Z" fill="#BE2F55"/>
</g>
<g style="mix-blend-mode:multiply" opacity="0.5">
<path d="M830.533 275.973C830.533 275.973 840.461 270.56 847.383 261.743C854.305 252.925 850.156 228.207 850.156 228.207C850.156 228.207 846.134 230.3 846.832 231.844C847.552 233.387 845.329 264.09 830.512 275.952L830.533 275.973Z" fill="#BE2F55"/>
</g>
<g style="mix-blend-mode:multiply" opacity="0.5">
<path d="M801.703 190.084C801.703 190.084 818.447 204.441 824.861 214.718C831.275 224.994 830.851 232.437 828.163 237.977C825.475 243.517 824.014 245.06 824.014 245.06C824.014 245.06 826.872 229.498 818.383 214.464C809.895 199.43 801.682 190.084 801.682 190.084H801.703Z" fill="#BE2F55"/>
</g>
<g style="mix-blend-mode:soft-light" opacity="0.5">
<path d="M733.33 333.339C733.33 333.339 713.347 347.463 712.331 349.81C711.315 352.157 756.869 349.345 767.686 347.506C778.524 345.666 779.434 329.067 779.498 327.249C779.561 325.43 764.511 329.575 757.504 330.886C750.497 332.176 733.351 333.339 733.351 333.339H733.33Z" fill="white"/>
</g>
<g style="mix-blend-mode:soft-light" opacity="0.5">
<path d="M843.934 268.214C835.89 277.412 843.976 282.211 846.538 283.184C849.099 284.157 860 275.741 861.546 263.519C863.091 251.298 854.327 253.222 852.782 254.258C851.216 255.315 843.955 268.192 843.955 268.192L843.934 268.214Z" fill="white"/>
</g>
<g style="mix-blend-mode:soft-light" opacity="0.5">
<path d="M798.104 173.041C795.712 176.89 814.192 198.478 822.913 208.522C831.635 218.545 840.292 219.539 842.367 218.397C844.441 217.255 839.17 199.388 831.677 188.667C824.183 177.926 799.523 170.779 798.104 173.062V173.041Z" fill="white"/>
</g>
<g style="mix-blend-mode:soft-light" opacity="0.5">
<path d="M764.51 86.1141C764.51 86.1141 791.901 100.154 799.225 107.661C806.55 115.167 825.918 111.446 826.49 104.87C827.061 98.2935 795.923 83.5133 764.51 86.1141Z" fill="white"/>
</g>
<g style="mix-blend-mode:soft-light" opacity="0.5">
<path d="M705.578 125.528C705.578 125.528 722.703 131.512 745.819 134.092C768.913 136.693 778.015 128.319 778.015 128.319C778.015 128.319 768.934 122.314 741.797 122.631C714.68 122.948 705.578 125.528 705.578 125.528Z" fill="white"/>
</g>
<g style="mix-blend-mode:soft-light" opacity="0.5">
<path d="M833.117 117.07C817.919 119.312 823.189 129.673 824.036 131.237C824.883 132.802 833.16 127.347 849.628 128.594C866.097 129.842 870.415 128.827 871.283 126.543C872.151 124.259 853.121 114.11 833.117 117.049V117.07Z" fill="white"/>
</g>
<path d="M743.195 350.191C743.195 350.191 768.851 346.892 773.445 344.503C778.038 342.113 780.07 338.35 780.07 338.35C780.07 338.35 777.996 343.953 773.847 345.941C769.677 347.928 743.195 350.191 743.195 350.191Z" fill="#FFD134"/>
<path d="M828.967 290.944C828.967 290.944 843.044 285.404 850.304 279.801C857.565 274.197 860.888 265.93 860.888 265.93C860.888 265.93 858.009 277.115 852.463 281.831C846.917 286.546 828.967 290.944 828.967 290.944Z" fill="#FFD134"/>
<path d="M819.379 136.672C819.379 136.672 824.078 131.513 832.503 128.32C840.949 125.127 853.714 129.187 853.714 129.187C853.714 129.187 842.791 127.094 833.794 129.674C824.798 132.253 819.379 136.672 819.379 136.672Z" fill="#FFD134"/>
<path d="M729.16 131.492C729.16 131.492 755.218 133.226 762.987 133.987C770.755 134.748 773.867 144.348 773.867 144.348C773.867 144.348 767.051 135.341 729.181 131.513L729.16 131.492Z" fill="#FFD134"/>
<path d="M785.424 98.209C785.424 98.209 795.796 103.009 799.225 107.661C802.655 112.313 799.776 122.61 799.776 122.61C799.776 122.61 800.22 108.084 785.424 98.209Z" fill="#FFD134"/>
<path d="M730.577 131.49C728.588 131.089 737.669 128.911 742.516 130.243C747.364 131.575 744.527 134.26 730.577 131.49Z" fill="#FFF9C7"/>
<path d="M833.814 129.674C826.024 129.991 833.899 122.696 844.102 124.028C854.305 125.36 842.366 129.335 833.814 129.674Z" fill="#FFF9C7"/>
<path d="M798.549 105.652C795.48 104.573 798.041 113.433 800.92 113.433C803.799 113.433 801.957 106.857 798.549 105.652Z" fill="#FFF9C7"/>
<path d="M848.949 284.071C842.874 285.276 854.792 273.795 855.85 274.26C856.909 274.725 854.157 283.035 848.949 284.071Z" fill="#FFF9C7"/>
<g style="mix-blend-mode:multiply" opacity="0.5">
<path d="M712.311 334.355C712.311 334.355 759.134 337.632 767.623 336.765C776.111 335.898 785.7 310.461 785.7 310.461C785.7 310.461 775.921 318.961 764.151 322.239C752.382 325.516 712.311 334.355 712.311 334.355Z" fill="#BE2F55"/>
</g>
<g style="mix-blend-mode:multiply" opacity="0.2">
<path d="M797.893 295.109C797.893 295.109 823.866 280.308 834.281 270.201C844.695 260.094 847.426 239.985 846.854 233.282C846.283 226.579 835.868 234.974 832.756 235.629C829.645 236.285 821.241 272.231 797.893 295.109Z" fill="#BE2F55"/>
</g>
<g style="mix-blend-mode:multiply" opacity="0.5">
<path d="M801.703 152.32C795.394 144.454 788.028 154.984 789.764 167.692C790.78 175.071 801.364 188.921 801.364 188.921C801.364 188.921 794.505 178.729 795.437 173.02C796.368 167.311 812.731 174.141 815.864 174.966C818.997 175.79 804.645 159.192 804.941 150.015C805.238 140.817 801.703 152.32 801.703 152.32Z" fill="#BE2F55"/>
</g>
<path d="M803.968 182.619C801.131 182.682 806.995 186.636 807.863 187.419C808.731 188.201 813.832 182.407 803.968 182.619Z" fill="#FFF9C7"/>
<g style="mix-blend-mode:multiply" opacity="0.5">
<path d="M795.521 303.356C795.521 303.356 812.054 295.617 816.309 295.109C820.563 294.602 838.218 295.807 838.218 295.807C838.218 295.807 831.528 301.643 817.833 302.066C804.137 302.489 803.184 301.579 795.521 303.356Z" fill="#BE2F55"/>
</g>
<path d="M276.057 173.486C276.057 173.486 285.349 177.757 290.917 174.818C291.044 174.733 291.213 174.649 291.361 174.564C291.488 174.458 291.658 174.374 291.806 174.226C291.827 174.226 291.827 174.205 291.827 174.205C292.166 173.993 292.42 173.76 292.695 173.464C297.733 168.157 305.29 156.295 317.059 151.453C328.85 146.611 341.635 148.683 364.814 145.765C365.576 145.659 366.339 145.553 367.058 145.405H367.143C388.078 141.705 389.391 126.544 389.391 126.544C379.823 126.904 305.734 115.464 299.574 130.054C299.49 130.266 299.405 130.498 299.363 130.71C298.304 134.6 297.754 138.914 297.14 143.27C297.119 143.481 297.077 143.735 297.034 143.946C296.865 145.088 296.696 146.272 296.505 147.393V147.562C296.42 148.027 296.378 148.492 296.251 148.937C296.251 149.021 296.251 149.106 296.23 149.19C295.764 151.897 295.171 154.561 294.346 157.056C291.827 164.795 286.979 171.181 276.078 173.486H276.057Z" fill="url(#paint5_linear_6242_15807)"/>
<path d="M276.057 306.169C277.094 306.381 278.11 306.635 279.041 306.973C298.41 312.957 295.341 334.059 299.342 348.924C303.554 364.465 379.674 352.73 389.369 353.047C389.369 353.047 387.972 336.787 364.793 333.869C341.614 330.93 328.808 333.023 317.038 328.181C305.29 323.339 297.712 311.477 292.674 306.169C291.107 304.52 288.927 303.928 286.683 303.843H286.662C286.662 303.843 286.577 303.822 286.535 303.822C284.926 303.759 283.275 304.013 281.793 304.351C278.597 305.028 276.057 306.19 276.057 306.19V306.169Z" fill="url(#paint6_linear_6242_15807)"/>
<path d="M196.592 142.466C200.127 153.525 214.585 156.379 220.914 156.104H220.935C222.714 156.041 223.836 155.745 223.92 155.28C224.28 153.208 206.626 141.092 224.957 136.249C242.294 131.682 277.243 155.491 261.748 175.029C261.113 175.854 260.372 176.678 259.525 177.482C259.25 177.757 258.953 178.032 258.657 178.306C258.594 178.328 258.572 178.37 258.551 178.391H258.53C235.711 198.478 234.144 231.845 234.144 231.845C231.541 225.607 228.408 221.991 228.408 221.991C228.408 229.794 218.438 239.076 217.633 254.153V254.258C217.295 261.152 218.903 269.292 224.259 279.019C241.32 310.038 272.289 299.318 286.43 303.737C286.535 303.758 286.599 303.801 286.599 303.801H286.62L286.641 303.822L292.632 306.148C292.632 306.148 270.278 278.342 272.353 239.943C273.813 212.857 284.249 191.628 290.854 174.796C292.039 171.815 293.076 169.024 293.923 166.338C295.108 162.638 295.913 159.17 296.23 155.935C296.569 152.404 296.59 149.698 296.442 147.562V147.393C295.849 138.216 292.23 139.654 295.892 129.293C300.443 116.543 320.171 85.0791 320.171 85.0791C320.171 85.0791 314.964 82.6686 297.31 85.0791C279.656 87.5108 244.009 101.339 256.858 111.362C257.683 112.018 258.467 112.694 259.207 113.434C259.207 113.434 259.271 113.519 259.398 113.688C260.88 115.084 262.129 116.585 263.293 118.255H263.314C269.347 126.798 271.591 137.201 272.183 140.626C272.268 141.007 272.289 141.303 272.31 141.493C271.548 138.512 264.838 114.64 240.177 116.923C220.66 118.699 203.599 124.112 197.947 132.57C195.999 135.509 195.428 138.808 196.592 142.466Z" fill="url(#paint7_linear_6242_15807)"/>
<g style="mix-blend-mode:multiply" opacity="0.5">
<path d="M279.043 306.93C298.411 312.956 295.342 334.059 299.343 348.923C303.555 364.465 379.676 352.73 389.371 353.047C389.371 353.047 316.425 350.382 307.133 345.921C297.84 341.459 297.353 320.632 297.099 316.466C296.887 312.681 302.412 318.052 303.513 319.088C302.306 317.608 293.86 307.353 291.68 306.148C289.33 304.837 279.021 306.909 279.021 306.909L279.043 306.93Z" fill="#BE2F55"/>
</g>
<g style="mix-blend-mode:multiply" opacity="0.5">
<path d="M224.28 279.04C241.341 310.059 272.31 299.339 286.451 303.758C284.8 303.103 271.464 297.816 263.018 294.264C254 290.458 239.309 289.422 229.784 282.846C220.66 276.545 217.866 255.971 217.654 254.279C217.316 261.172 218.924 269.313 224.28 279.04Z" fill="#BE2F55"/>
</g>
<g style="mix-blend-mode:multiply" opacity="0.5">
<path d="M231.54 258.636C240.367 273.162 254.846 278.005 256.137 278.343C255.142 277.582 243.818 270.414 238.822 257.938C233.615 244.998 234.165 231.846 234.165 231.846C231.561 225.608 228.428 221.992 228.428 221.992C230.016 231.846 223.136 244.829 231.54 258.636Z" fill="#BE2F55"/>
</g>
<g style="mix-blend-mode:multiply" opacity="0.5">
<path d="M214.351 137.328C214.351 145.891 223.919 155.28 223.919 155.28C224.279 153.207 206.625 141.091 224.956 136.249C243.309 131.407 281.348 158.346 258.55 178.391C259.397 177.756 273.368 167.247 272.077 158.472C270.785 149.38 269.748 141.091 256.095 132.803C242.441 124.493 214.33 128.785 214.33 137.328H214.351Z" fill="#BE2F55"/>
</g>
<g style="mix-blend-mode:multiply" opacity="0.5">
<path d="M196.592 142.466C200.127 153.525 214.585 156.38 220.915 156.105C219.539 155.28 202.287 156.105 197.989 132.592C196 135.489 195.428 138.808 196.592 142.466Z" fill="#BE2F55"/>
</g>
<g style="mix-blend-mode:multiply" opacity="0.5">
<path d="M299.342 130.732C298.283 134.622 297.733 138.936 297.119 143.292C297.839 138.83 298.643 134.263 299.553 130.076C299.469 130.288 299.384 130.52 299.342 130.732Z" fill="#BE2F55"/>
</g>
<g style="mix-blend-mode:multiply" opacity="0.3">
<path d="M294.325 157.057C294.494 159.256 294.452 161.772 294.155 164.711C294.494 161.941 295.192 156.042 296.209 149.191C296.23 149.106 296.23 149.022 296.23 148.937C296.314 148.451 296.399 147.943 296.484 147.457V147.394C295.891 138.217 292.271 139.655 295.933 129.294C300.442 116.543 320.171 85.0801 320.171 85.0801C320.171 85.0801 295.447 95.737 286.641 105.59C277.835 115.444 281.179 133.354 286.641 140.606C290.663 145.977 293.732 149.804 294.346 157.078L294.325 157.057Z" fill="#BE2F55"/>
</g>
<g style="mix-blend-mode:multiply" opacity="0.5">
<path d="M259.207 113.434C259.207 113.434 262.319 118.107 270.468 124.852C278.597 131.597 279.296 152.34 279.296 152.34L272.204 140.562C272.204 140.562 268.754 124.683 259.228 113.455L259.207 113.434Z" fill="#BE2F55"/>
</g>
<g style="mix-blend-mode:multiply" opacity="0.5">
<path d="M291.234 174.986C291.234 174.986 291.425 174.711 291.785 174.246C291.806 174.246 291.806 174.225 291.806 174.225C294.685 170.503 307.618 154.222 317.525 150.077C325.188 146.906 351.204 145.806 367.037 145.426H367.122C388.057 141.725 389.37 126.564 389.37 126.564C389.37 126.564 347.647 132.802 324.299 135.044C302.432 137.158 292.547 170.271 291.34 174.542C291.256 174.838 291.234 174.986 291.234 174.986Z" fill="#BE2F55"/>
</g>
<g style="mix-blend-mode:multiply" opacity="0.5">
<path d="M281.201 187.42C281.201 187.42 259.208 208.184 252.032 222.013C244.856 235.82 264.627 265.021 264.627 265.021C264.627 265.021 255.249 247.936 256.794 232.627C258.34 217.319 281.201 187.42 281.201 187.42Z" fill="#BE2F55"/>
</g>
<g style="mix-blend-mode:multiply" opacity="0.3">
<path d="M320.172 85.0801C320.172 85.0801 303.365 111.807 297.12 124.896C290.876 137.984 281.625 124.325 282.366 113.435C283.107 102.546 320.172 85.0801 320.172 85.0801Z" fill="#BE2F55"/>
</g>
<g style="mix-blend-mode:multiply" opacity="0.3">
<path d="M389.369 126.566C389.369 126.566 336.089 133.586 325.611 134.918C315.112 136.25 311.471 153.356 311.471 153.356C311.471 153.356 322.753 147.182 341.085 146.548C359.416 145.914 383.336 145.025 389.369 126.545V126.566Z" fill="#BE2F55"/>
</g>
<g style="mix-blend-mode:multiply" opacity="0.3">
<path d="M256.138 147.012C271.506 154.476 263.547 134.452 246.951 130.244C230.334 126.036 221.528 134.219 220.936 135.382C220.343 136.545 231.117 134.473 240.58 137.708C250.063 140.943 256.138 146.991 256.138 146.991V147.012Z" fill="#BE2F55"/>
</g>
<g style="mix-blend-mode:multiply" opacity="0.5">
<path d="M250.465 275.975C250.465 275.975 240.538 270.562 233.616 261.745C226.694 252.927 230.843 228.209 230.843 228.209C230.843 228.209 234.865 230.302 234.166 231.846C233.446 233.389 235.669 264.092 250.487 275.954L250.465 275.975Z" fill="#BE2F55"/>
</g>
<g style="mix-blend-mode:multiply" opacity="0.5">
<path d="M279.295 190.084C279.295 190.084 262.551 204.441 256.137 214.718C249.702 224.994 250.147 232.437 252.835 237.977C255.523 243.517 256.984 245.06 256.984 245.06C256.984 245.06 254.126 229.498 262.615 214.464C271.103 199.43 279.316 190.084 279.316 190.084H279.295Z" fill="#BE2F55"/>
</g>
<g style="mix-blend-mode:soft-light" opacity="0.5">
<path d="M347.67 333.341C347.67 333.341 367.652 347.465 368.668 349.812C369.685 352.159 324.131 349.347 313.314 347.508C302.497 345.668 301.566 329.069 301.502 327.251C301.439 325.432 316.489 329.577 323.496 330.888C330.502 332.178 347.649 333.341 347.649 333.341H347.67Z" fill="white"/>
</g>
<g style="mix-blend-mode:soft-light" opacity="0.5">
<path d="M237.065 268.214C245.109 277.412 237.023 282.211 234.462 283.184C231.9 284.157 220.999 275.741 219.453 263.519C217.908 251.298 226.672 253.222 228.217 254.258C229.783 255.315 237.044 268.192 237.044 268.192L237.065 268.214Z" fill="white"/>
</g>
<g style="mix-blend-mode:soft-light" opacity="0.5">
<path d="M282.895 173.041C285.287 176.89 266.807 198.478 258.086 208.522C249.365 218.545 240.707 219.539 238.633 218.397C236.558 217.255 241.829 199.388 249.323 188.667C256.816 177.926 281.477 170.779 282.895 173.062V173.041Z" fill="white"/>
</g>
<g style="mix-blend-mode:soft-light" opacity="0.5">
<path d="M316.509 86.1161C316.509 86.1161 289.118 100.156 281.794 107.663C274.47 115.169 255.101 111.448 254.529 104.871C253.958 98.2955 285.096 83.5153 316.509 86.1161Z" fill="white"/>
</g>
<g style="mix-blend-mode:soft-light" opacity="0.5">
<path d="M375.42 125.528C375.42 125.528 358.295 131.512 335.179 134.092C312.085 136.693 302.982 128.319 302.982 128.319C302.982 128.319 312.064 122.314 339.201 122.631C366.317 122.948 375.42 125.528 375.42 125.528Z" fill="white"/>
</g>
<g style="mix-blend-mode:soft-light" opacity="0.5">
<path d="M247.882 117.07C263.081 119.312 257.81 129.673 256.963 131.237C256.117 132.802 247.84 127.347 231.371 128.594C214.902 129.842 210.584 128.827 209.716 126.543C208.848 124.259 227.878 114.11 247.882 117.049V117.07Z" fill="white"/>
</g>
<path d="M337.804 350.193C337.804 350.193 312.149 346.894 307.555 344.505C302.941 342.115 300.93 338.352 300.93 338.352C300.93 338.352 303.004 343.955 307.153 345.943C311.323 347.93 337.804 350.193 337.804 350.193Z" fill="#FFD134"/>
<path d="M252.031 290.944C252.031 290.944 237.954 285.404 230.693 279.801C223.433 274.197 220.109 265.93 220.109 265.93C220.109 265.93 222.988 277.115 228.534 281.831C234.08 286.546 252.031 290.944 252.031 290.944Z" fill="#FFD134"/>
<path d="M261.62 136.672C261.62 136.672 256.92 131.513 248.496 128.32C240.05 125.127 227.285 129.187 227.285 129.187C227.285 129.187 238.208 127.094 247.204 129.674C256.201 132.253 261.62 136.672 261.62 136.672Z" fill="#FFD134"/>
<path d="M351.859 131.492C351.859 131.492 325.801 133.226 318.033 133.987C310.264 134.748 307.152 144.348 307.152 144.348C307.152 144.348 313.968 135.341 351.838 131.513L351.859 131.492Z" fill="#FFD134"/>
<path d="M295.596 98.2109C295.596 98.2109 285.224 103.011 281.794 107.663C278.365 112.314 281.244 122.612 281.244 122.612C281.244 122.612 280.8 108.086 295.596 98.2109Z" fill="#FFD134"/>
<path d="M350.42 131.492C352.41 131.091 343.329 128.913 338.481 130.245C333.634 131.577 336.47 134.262 350.42 131.492Z" fill="#FFF9C7"/>
<path d="M247.183 129.674C254.973 129.991 247.099 122.696 236.896 124.028C226.693 125.36 238.632 129.335 247.183 129.674Z" fill="#FFF9C7"/>
<path d="M282.47 105.654C285.54 104.575 282.978 113.435 280.099 113.435C277.22 113.435 279.062 106.859 282.47 105.654Z" fill="#FFF9C7"/>
<path d="M232.049 284.073C238.124 285.278 226.207 273.797 225.148 274.262C224.09 274.727 226.842 283.037 232.049 284.073Z" fill="#FFF9C7"/>
<g style="mix-blend-mode:multiply" opacity="0.5">
<path d="M368.689 334.355C368.689 334.355 321.865 337.632 313.376 336.765C304.888 335.898 295.299 310.461 295.299 310.461C295.299 310.461 305.078 318.961 316.848 322.239C328.617 325.516 368.689 334.355 368.689 334.355Z" fill="#BE2F55"/>
</g>
<g style="mix-blend-mode:multiply" opacity="0.2">
<path d="M283.106 295.109C283.106 295.109 257.132 280.308 246.718 270.201C236.303 260.094 233.572 239.985 234.144 233.282C234.715 226.579 245.13 234.974 248.242 235.629C251.353 236.285 259.757 272.231 283.106 295.109Z" fill="#BE2F55"/>
</g>
<g style="mix-blend-mode:multiply" opacity="0.5">
<path d="M279.296 152.32C285.605 144.454 292.971 154.984 291.235 167.692C290.219 175.071 279.635 188.921 279.635 188.921C279.635 188.921 286.494 178.729 285.562 173.02C284.631 167.311 268.268 174.141 265.135 174.966C262.002 175.79 276.354 159.192 276.058 150.015C275.761 140.817 279.296 152.32 279.296 152.32Z" fill="#BE2F55"/>
</g>
<path d="M277.053 182.621C279.889 182.684 274.026 186.638 273.158 187.421C272.29 188.203 267.188 182.409 277.053 182.621Z" fill="#FFF9C7"/>
<g style="mix-blend-mode:multiply" opacity="0.5">
<path d="M285.477 303.356C285.477 303.356 268.945 295.617 264.69 295.109C260.435 294.602 242.781 295.807 242.781 295.807C242.781 295.807 249.47 301.643 263.166 302.066C276.862 302.489 277.814 301.579 285.477 303.356Z" fill="#BE2F55"/>
</g>
<path d="M824.882 239.964C824.882 245.61 822.744 252.608 819.294 260.199C819.294 260.199 819.294 260.221 819.273 260.263C816.034 267.41 811.61 275.107 806.678 282.592C793.828 302.193 777.656 320.695 770.417 325.981C763.897 330.738 757.165 335.665 614.175 335.665C575.861 335.665 543.664 335.263 540.489 335.2C537.314 335.263 505.138 335.665 466.803 335.665C323.791 335.665 317.081 330.738 310.561 325.981C298.94 317.502 264.309 275.022 257.345 248.422C257.323 248.401 257.323 248.358 257.323 248.358C256.519 245.356 256.096 242.522 256.096 239.985C256.096 215.14 297.627 163.483 310.561 154.01C317.081 149.253 323.791 144.326 466.803 144.326C505.117 144.326 537.314 144.728 540.489 144.77C543.664 144.749 575.84 144.326 614.175 144.326C757.187 144.326 763.897 149.253 770.417 154.01C783.35 163.483 824.882 215.119 824.882 239.985V239.964Z" fill="url(#paint8_linear_6242_15807)"/>
<path d="M759.07 171.942C747.724 163.653 540.488 163.907 540.488 163.907C540.488 163.907 333.253 163.844 321.907 172.132C310.561 180.421 275.273 224.741 275.273 239.965C275.273 255.189 310.561 300.904 321.907 309.214C333.253 317.503 540.488 316.044 540.488 316.044C540.488 316.044 748.19 316.361 759.536 308.072C770.882 299.783 805.682 255.189 805.682 239.986C805.682 224.783 770.395 180.273 759.049 171.963L759.07 171.942Z" fill="url(#paint9_linear_6242_15807)"/>
<path d="M321.908 169.445C321.908 169.445 286.853 209.071 309.651 239.963C309.651 239.963 290.833 264.998 316.446 305.512C316.446 305.512 274.428 265.02 275.274 239.963C276.375 207.294 321.908 169.445 321.908 169.445Z" fill="url(#paint10_linear_6242_15807)"/>
<path d="M759.07 169.445C759.07 169.445 795.543 216.366 771.327 239.963C771.327 239.963 794.125 265.083 764.532 305.512C764.532 305.512 805.407 265.992 805.704 239.963C806.042 211.206 759.07 169.445 759.07 169.445Z" fill="url(#paint11_linear_6242_15807)"/>
<path d="M309.673 239.965H315.261C315.261 239.965 304.847 262.273 309.673 279.379C319.41 313.95 335.138 305.577 344.24 307.818C360.603 311.836 653.929 314.31 752.044 306.148C775.709 304.181 774.63 277.476 773.847 265.021C773.064 252.567 759.05 240.24 759.05 240.24L771.307 239.965C771.307 239.965 780.134 254.851 779.456 270.181C778.779 285.511 769.931 305.873 759.071 310.504C746.857 315.684 650.797 317.778 546.205 318.2C438.523 318.623 329.169 314.627 321.929 310.504C307.662 302.384 303.936 284.052 301.523 270.012C299.089 255.971 309.694 239.986 309.694 239.986L309.673 239.965Z" fill="url(#paint12_linear_6242_15807)"/>
<path d="M771.306 241.718L759.05 240.259C759.05 240.259 773.042 229.095 773.846 216.662C774.418 207.527 773.91 191.288 764.257 182.196C760.785 178.918 756.065 176.55 749.799 175.81C644.424 163.546 360.603 169.847 344.24 173.844C337.783 175.429 327.961 171.687 319.325 181.731C315.79 185.812 312.466 192.24 309.651 202.283C304.825 219.411 315.239 239.942 315.239 239.942H309.651C309.651 239.942 299.046 225.712 301.48 211.672C303.089 202.41 305.227 191.33 310.604 182.492C313.377 177.925 317.018 173.949 321.886 171.179C329.126 167.056 438.501 163.06 546.162 163.462C644.064 163.863 734.495 165.724 755.663 170.228C757.123 170.524 758.245 170.862 759.028 171.179C769.909 175.768 779.477 196.215 780.556 213.659C781.509 228.989 771.264 241.676 771.264 241.676L771.306 241.718Z" fill="url(#paint13_linear_6242_15807)"/>
<g style="mix-blend-mode:multiply" opacity="0.5">
<path d="M818.681 261.214L806.657 282.57C793.808 302.172 777.636 320.673 770.396 325.959C763.876 330.717 757.145 335.644 614.155 335.644C575.84 335.644 543.644 335.242 540.469 335.178C537.293 335.242 505.118 335.644 466.782 335.644C323.771 335.644 317.061 330.717 310.541 325.959C298.92 317.48 264.289 275 257.324 248.4C258.256 250.24 288.907 309.361 321.887 323.126C355.375 337.145 621.881 339.555 760.807 323.126C782.97 320.504 813.918 269.122 818.659 261.235L818.681 261.214Z" fill="#BE2F55"/>
</g>
<g style="mix-blend-mode:multiply" opacity="0.5">
<path d="M794.484 303.82C796.093 303.757 797.744 304.011 799.226 304.349L794.484 303.82Z" fill="#BE2F55"/>
</g>
<g style="mix-blend-mode:multiply" opacity="0.5">
<path d="M787.013 166.063C786.95 165.597 786.907 165.153 786.844 164.73C786.928 165.323 786.971 165.788 787.013 166.063Z" fill="#BE2F55"/>
</g>
<g style="mix-blend-mode:multiply" opacity="0.5">
<path d="M759.07 240.26C759.07 240.26 771.729 254.49 774.015 267.621C776.28 280.773 779.265 275.022 779.519 265.02C779.752 255.019 771.327 241.719 771.327 241.719L759.07 240.26Z" fill="#BE2F55"/>
</g>
<g style="mix-blend-mode:multiply" opacity="0.5">
<path d="M315.26 239.965H309.672C309.672 239.965 302.199 252.335 301.67 259.333C301.141 266.332 305.629 271.492 307.131 272.549C308.634 273.606 308.084 249.121 315.26 239.965Z" fill="#BE2F55"/>
</g>
<g style="mix-blend-mode:multiply" opacity="0.5">
<path d="M767.686 182.619C767.686 182.619 766.564 182.492 764.256 182.217C748.423 180.42 677.15 173.273 544.362 173.273C421.228 173.273 344.112 179.426 319.324 181.752C313.524 182.302 310.582 182.619 310.582 182.619V182.513C313.376 177.946 317.017 173.971 321.907 171.201C329.146 167.078 438.522 163.081 546.183 163.483C644.085 163.885 734.515 165.746 755.683 170.249C764.532 173.633 767.686 182.619 767.686 182.619Z" fill="#BE2F55"/>
</g>
<g style="mix-blend-mode:multiply" opacity="0.5">
<path d="M814.319 220.51C812.584 204.292 797.067 201.395 788.791 206.428C786.991 207.506 782.843 227.319 781.911 230.892C780.98 234.466 788.96 237.553 791.564 236.982C794.167 236.411 793.278 231.865 793.892 230.089C794.527 228.313 791.331 232.415 786.716 232.52C782.123 232.626 787.267 212.285 789.87 209.853C792.474 207.422 809.176 216.937 812.16 221.737C815.124 226.537 801.851 239.604 801.851 239.604C801.851 239.604 815.124 252.671 812.16 257.471C809.197 262.271 792.474 271.786 789.87 269.355C787.267 266.923 782.123 246.561 786.716 246.687C791.31 246.793 794.506 250.895 793.892 249.119C793.257 247.343 794.146 242.797 791.564 242.226C788.96 241.655 780.98 244.742 781.911 248.316C782.843 251.868 786.695 272.738 788.791 272.78C790.886 272.801 812.584 274.916 814.319 258.698C815.145 250.916 806.614 239.646 806.614 239.646C806.614 239.646 815.166 228.376 814.319 220.595V220.51Z" fill="#BE2F55"/>
</g>
<path d="M784.854 261.552C784.854 261.552 787.055 271.723 788.431 272.357C791.098 273.562 805.281 271.659 808.9 268.466C812.499 265.252 813.939 260.77 813.939 260.77C813.939 260.77 813.028 265.527 810.7 268.255C806.022 273.774 793.3 274.535 788.748 273.626C785.383 272.949 784.854 261.531 784.854 261.531V261.552Z" fill="#FFD134"/>
<path d="M785.087 248.632C786.209 244.572 793.596 250.324 794.041 250.324C794.485 250.324 793.575 246.285 793.575 246.285C793.575 246.285 793.999 249.203 793.575 249.372C793.152 249.541 790.294 246.285 786.738 246.623C784.833 246.814 785.066 248.632 785.066 248.632H785.087Z" fill="#FFD134"/>
<path d="M782.525 233.219C782.525 233.219 783.436 234.995 785.849 236.306C788.262 237.617 791.374 238.272 792.199 237.49C793.85 235.925 793.575 232.373 793.575 232.373C793.575 232.373 793.279 236.179 790.802 236.75C788.325 237.321 783.795 235.502 782.525 233.219Z" fill="#FFD134"/>
<path d="M787.562 214.674C787.562 214.674 789.489 210.804 791.542 210.339C795.458 209.43 806.127 216.112 807.842 217.486C807.842 217.486 797.279 210.339 794.146 209.239C791.013 208.119 789.827 209.726 789.489 210.297C789.15 210.868 787.562 214.674 787.562 214.674Z" fill="#FFD134"/>
<path d="M801.873 239.562C801.873 239.562 808.52 246.54 810.171 249.585L801.873 239.562Z" fill="#FFD134"/>
<g style="mix-blend-mode:multiply" opacity="0.5">
<path d="M783.414 223.999C783.414 223.999 787.542 210.762 790.463 208.859C793.384 206.956 806.784 214.822 810.192 218.036C813.6 221.271 813.494 223.999 813.494 223.999C813.494 223.999 815.293 215.985 810.192 211.735C805.09 207.485 796.263 204.06 789.616 206.385C787.203 207.231 783.414 223.999 783.414 223.999Z" fill="#BE2F55"/>
</g>
<g style="mix-blend-mode:multiply" opacity="0.5">
<path d="M790.823 269.736C784.007 269.398 801.323 271.745 806.89 268.15C812.457 264.555 812.203 257.43 812.203 257.43C812.203 257.43 808.668 261.743 801.894 265.338C795.099 268.932 793.004 269.863 790.823 269.736Z" fill="#BE2F55"/>
</g>
<g style="mix-blend-mode:multiply" opacity="0.5">
<path d="M794.824 227.7C794.824 227.7 797.068 223.196 795.565 218.396C794.062 213.596 799.333 215.415 801.873 219.305C804.413 223.196 794.803 227.7 794.803 227.7H794.824Z" fill="#BE2F55"/>
</g>
<g style="mix-blend-mode:multiply" opacity="0.5">
<path d="M794.824 251.318C794.824 251.318 797.068 255.822 795.565 260.622C794.062 265.422 799.333 263.603 801.873 259.713C804.413 255.822 794.803 251.318 794.803 251.318H794.824Z" fill="#BE2F55"/>
</g>
<path d="M794.824 227.699C794.824 227.699 800.624 224.739 801.894 222.201C801.894 222.201 801.429 226.874 794.824 227.699Z" fill="#FFD134"/>
<path d="M795.31 261.954C795.31 261.954 795.077 263.159 796.368 263.498C797.638 263.836 800.369 261.531 800.369 261.531C800.369 261.531 798.4 264.28 796.516 264.28C794.781 264.28 795.331 261.975 795.331 261.975L795.31 261.954Z" fill="#FFD134"/>
<g style="mix-blend-mode:multiply" opacity="0.5">
<path d="M266.151 220.51C267.887 204.292 283.403 201.395 291.679 206.428C293.479 207.506 297.628 227.319 298.559 230.892C299.491 234.466 291.51 237.553 288.906 236.982C286.303 236.411 287.192 231.865 286.578 230.089C285.943 228.313 289.139 232.415 293.754 232.52C298.347 232.626 293.204 212.285 290.6 209.853C287.996 207.422 271.295 216.937 268.31 221.737C265.346 226.537 278.619 239.604 278.619 239.604C278.619 239.604 265.346 252.671 268.31 257.471C271.273 262.271 287.996 271.786 290.6 269.355C293.204 266.923 298.347 246.561 293.754 246.687C289.16 246.793 285.964 250.895 286.578 249.119C287.213 247.343 286.324 242.797 288.906 242.226C291.51 241.655 299.491 244.742 298.559 248.316C297.628 251.868 293.775 272.738 291.679 272.78C289.584 272.822 267.887 274.916 266.151 258.698C265.325 250.916 273.856 239.646 273.856 239.646C273.856 239.646 265.304 228.376 266.151 220.595V220.51Z" fill="#BE2F55"/>
</g>
<path d="M295.616 261.552C295.616 261.552 293.415 271.723 292.039 272.357C289.372 273.562 275.189 271.659 271.569 268.466C267.971 265.252 266.531 260.77 266.531 260.77C266.531 260.77 267.441 265.527 269.77 268.255C274.448 273.774 287.17 274.535 291.721 273.626C295.087 272.949 295.616 261.531 295.616 261.531V261.552Z" fill="#FFD134"/>
<path d="M295.383 248.632C294.261 244.572 286.873 250.324 286.429 250.324C285.984 250.324 286.895 246.285 286.895 246.285C286.895 246.285 286.471 249.203 286.895 249.372C287.318 249.541 290.176 246.285 293.732 246.623C295.637 246.814 295.404 248.632 295.404 248.632H295.383Z" fill="#FFD134"/>
<path d="M297.946 233.219C297.946 233.219 297.036 234.995 294.622 236.306C292.209 237.617 289.098 238.272 288.272 237.49C286.621 235.925 286.896 232.373 286.896 232.373C286.896 232.373 287.192 236.179 289.669 236.75C292.146 237.321 296.676 235.502 297.946 233.219Z" fill="#FFD134"/>
<path d="M292.908 214.674C292.908 214.674 290.982 210.804 288.928 210.339C285.012 209.43 274.344 216.112 272.629 217.486C272.629 217.486 283.192 210.339 286.325 209.239C289.458 208.119 290.643 209.726 290.982 210.297C291.32 210.868 292.908 214.674 292.908 214.674Z" fill="#FFD134"/>
<path d="M278.597 239.562C278.597 239.562 271.95 246.54 270.299 249.585L278.597 239.562Z" fill="#FFD134"/>
<g style="mix-blend-mode:multiply" opacity="0.5">
<path d="M297.056 223.999C297.056 223.999 292.928 210.762 290.007 208.859C287.107 206.956 273.686 214.822 270.278 218.036C266.87 221.271 266.976 223.999 266.976 223.999C266.976 223.999 265.177 215.985 270.278 211.735C275.38 207.485 284.207 204.06 290.853 206.385C293.267 207.231 297.056 223.999 297.056 223.999Z" fill="#BE2F55"/>
</g>
<g style="mix-blend-mode:multiply" opacity="0.5">
<path d="M289.647 269.736C296.463 269.398 279.148 271.745 273.581 268.15C268.013 264.555 268.267 257.43 268.267 257.43C268.267 257.43 271.802 261.743 278.576 265.338C285.371 268.932 287.467 269.863 289.647 269.736Z" fill="#BE2F55"/>
</g>
<g style="mix-blend-mode:multiply" opacity="0.5">
<path d="M285.646 227.7C285.646 227.7 283.403 223.196 284.905 218.396C286.408 213.596 281.138 215.415 278.597 219.305C276.057 223.196 285.668 227.7 285.668 227.7H285.646Z" fill="#BE2F55"/>
</g>
<g style="mix-blend-mode:multiply" opacity="0.5">
<path d="M285.646 251.318C285.646 251.318 283.403 255.822 284.905 260.622C286.408 265.422 281.138 263.603 278.597 259.713C276.057 255.822 285.668 251.318 285.668 251.318H285.646Z" fill="#BE2F55"/>
</g>
<path d="M285.646 227.699C285.646 227.699 279.846 224.739 278.576 222.201C278.576 222.201 279.042 226.874 285.646 227.699Z" fill="#FFD134"/>
<path d="M285.159 261.954C285.159 261.954 285.392 263.159 284.1 263.498C282.83 263.836 280.1 261.531 280.1 261.531C280.1 261.531 282.068 264.28 283.952 264.28C285.688 264.28 285.138 261.975 285.138 261.975L285.159 261.954Z" fill="#FFD134"/>
<g style="mix-blend-mode:soft-light" opacity="0.5">
<path d="M410.941 144.623C410.941 144.623 404.167 160.989 551.137 163.463C698.107 165.937 740.718 153.377 740.718 153.377C740.718 153.377 674.695 144.75 410.962 144.623H410.941Z" fill="white"/>
</g>
<path d="M533.525 163.081C533.525 163.081 589.367 160.459 623.638 160.121C657.909 159.782 701.304 166.083 701.304 166.083L533.525 163.102V163.081Z" fill="#FFD134"/>
<g style="mix-blend-mode:soft-light" opacity="0.5">
<path d="M321.907 190.082C312.974 191.943 392.524 234.698 575.797 237.468C759.07 240.238 768.448 212.94 767.686 195.686C766.924 178.432 486.997 155.574 321.907 190.082Z" fill="white"/>
</g>
<g style="mix-blend-mode:multiply" opacity="0.2">
<path d="M335.688 307.267C322.797 306.823 307.153 221.991 607.719 241.697C763.114 251.889 767.813 294.242 759.071 303.736C750.328 313.251 444.386 310.947 335.709 307.246L335.688 307.267Z" fill="#BE2F55"/>
</g>
<g style="mix-blend-mode:multiply" opacity="0.2">
<path d="M617.413 242.036C510.366 240.62 641.418 292.551 712.31 292.022C783.201 291.494 720.565 243.411 617.413 242.036Z" fill="#CF6481"/>
</g>
<path d="M621.563 144.623C609.285 144.475 625.373 152.51 644.742 152.341C664.132 152.172 661.697 146.294 661.697 146.294C661.697 146.294 646.478 144.919 621.542 144.644L621.563 144.623Z" fill="#FFF9C7"/>
<g style="mix-blend-mode:soft-light" opacity="0.5">
<path d="M686.104 206.535C669.423 219.665 703.208 216.811 712.31 208.522C721.412 200.233 693.894 200.424 686.104 206.535Z" fill="white"/>
</g>
<path d="M759.07 240.261C759.07 240.261 769.167 230.09 773.845 226.221C778.524 222.351 779.286 231.443 771.983 240.811C771.983 240.811 768.49 241.572 759.049 240.261H759.07Z" fill="#FFD134"/>
<path d="M309.672 239.963C309.672 239.963 302.581 232.88 303.11 227.044C303.639 221.208 315.261 239.963 315.261 239.963H309.672Z" fill="#FFD134"/>
<g style="mix-blend-mode:multiply" opacity="0.2">
<path d="M414.455 332.79C414.455 332.79 451.965 320.082 521.544 318.221C591.103 316.382 666.398 330.4 666.398 330.4C666.398 330.4 518.348 339.62 414.476 332.79H414.455Z" fill="#BE2F55"/>
</g>
<g style="mix-blend-mode:soft-light">
<path d="M715.189 327.524C715.189 327.524 759.896 321.328 772.301 313.272C789.024 302.404 804.963 282.422 804.963 282.422C804.963 282.422 779.562 318.431 764.172 322.259C748.783 326.086 715.189 327.524 715.189 327.524Z" fill="white"/>
</g>
<g style="mix-blend-mode:multiply" opacity="0.5">
<path d="M318.287 330.4C318.287 330.4 340.344 327.609 353.341 328.793C366.318 329.998 397.71 335.115 397.71 335.115C397.71 335.115 336.449 333.529 318.287 330.4Z" fill="#BE2F55"/>
</g>
<g style="mix-blend-mode:multiply" opacity="0.5">
<path d="M770.395 325.96C770.395 325.96 758.16 323.698 744.718 324.882C731.277 326.066 701.303 335.137 701.303 335.137C701.303 335.137 741.416 332.536 754.159 331.373C766.924 330.21 770.395 325.96 770.395 325.96Z" fill="#BE2F55"/>
</g>
<g style="mix-blend-mode:soft-light" opacity="0.5">
<path d="M335.688 307.267C339.815 293.544 389.137 285.763 444.703 295.109C500.269 304.455 517.902 311.538 517.902 311.538C517.902 311.538 374.975 310.333 335.688 307.267Z" fill="white"/>
</g>
<g style="mix-blend-mode:soft-light" opacity="0.5">
<path d="M379.802 309.213C379.802 309.213 412.973 316.931 503.847 318.961C594.743 320.991 672.599 310.482 672.599 310.482C672.599 310.482 510.621 316.043 379.781 309.213H379.802Z" fill="white"/>
</g>
<path d="M545.738 312.428C545.738 312.428 555.475 318.095 574.569 317.164C593.662 316.234 598.108 312.428 598.108 312.428H545.717H545.738Z" fill="#FFF9C7"/>
<g style="mix-blend-mode:soft-light" opacity="0.8">
<path d="M354.379 184.247C354.379 184.247 460.283 180.969 484.668 178.411C509.054 175.852 517.902 174.985 517.902 174.985C517.902 174.985 454.081 169.826 354.379 184.247Z" fill="white"/>
</g>
<g style="mix-blend-mode:soft-light" opacity="0.5">
<path d="M295.595 173.04C294.431 180.547 312.212 169.361 327.961 167.691C343.71 166.02 362.444 150.479 360.624 148.66C358.803 146.842 334.735 147.455 320.171 150.775C305.608 154.094 295.595 173.04 295.595 173.04Z" fill="white"/>
</g>
<path d="M317.526 152.318C309.779 155.723 310.774 167.077 325.062 161.622C339.329 156.167 328.004 147.709 317.526 152.318Z" fill="#FFF9C7"/>
<g style="mix-blend-mode:soft-light">
<path d="M292.908 300.459C292.908 300.459 316.32 318.876 330.164 323.697C344.008 328.518 403.215 332.303 403.215 332.303C403.215 332.303 344.706 329.554 328.428 325.241C312.171 320.927 292.887 300.459 292.887 300.459H292.908Z" fill="white"/>
</g>
<g style="mix-blend-mode:multiply" opacity="0.5">
<path d="M800.115 125.572C796.834 124.578 792.283 130.985 794.632 136.292C796.94 141.515 807.566 127.834 800.115 125.572Z" fill="#BE2F55"/>
</g>
<g style="mix-blend-mode:multiply" opacity="0.5">
<path d="M794.992 130.097C794.696 133.967 799.585 134.199 801.469 132.19C803.353 130.16 803.311 125.593 799.67 125.487C796.029 125.403 794.971 130.097 794.971 130.097H794.992Z" fill="#BE2F55"/>
</g>
<path d="M793.998 133.437C795.056 131.111 797.935 133.965 799.692 134.092C801.449 134.219 798.422 138.025 796.39 137.475C794.358 136.926 793.998 133.437 793.998 133.437Z" fill="#FFD134"/>
<g style="mix-blend-mode:multiply" opacity="0.5">
<path d="M258.297 188.349C254.254 187.123 248.623 195.052 251.523 201.607C254.381 208.077 267.526 191.161 258.297 188.349Z" fill="#BE2F55"/>
</g>
<g style="mix-blend-mode:multiply" opacity="0.5">
<path d="M251.968 193.953C251.587 198.753 257.663 199.027 259.991 196.532C262.341 194.016 262.256 188.37 257.768 188.244C253.281 188.138 251.968 193.953 251.968 193.953Z" fill="#BE2F55"/>
</g>
<path d="M250.74 198.096C252.053 195.221 255.609 198.752 257.789 198.921C259.97 199.09 256.202 203.784 253.704 203.087C251.185 202.389 250.74 198.096 250.74 198.096Z" fill="#FFD134"/>
<path style="mix-blend-mode:screen" opacity="0.8" d="M544.489 243.94C649.87 243.94 735.298 227.638 735.298 207.528C735.298 187.419 649.87 171.117 544.489 171.117C439.108 171.117 353.68 187.419 353.68 207.528C353.68 227.638 439.108 243.94 544.489 243.94Z" fill="url(#paint14_radial_6242_15807)"/>
<path d="M379.802 198.077C375.505 205.985 392.291 210.7 395.784 202.073C399.277 193.446 382.639 192.833 379.802 198.077Z" fill="#FFF9C7"/>
<g style="mix-blend-mode:soft-light" opacity="0.8">
<path d="M376.669 244.405C389.688 236.285 403.489 229.519 417.524 223.366C431.6 217.276 445.952 211.799 460.622 207.296C467.904 204.864 475.355 203.003 482.743 200.973C490.151 199.007 497.687 197.527 505.16 195.772C512.717 194.482 520.252 192.981 527.852 191.839L539.261 190.359C543.072 189.893 546.861 189.28 550.692 189.069C581.238 186.32 612.143 186.087 642.604 190.401C646.414 190.866 650.182 191.691 653.971 192.325C657.718 193.192 661.507 193.89 665.19 194.968C672.62 196.956 679.966 199.409 686.866 202.919C693.725 206.386 700.287 210.975 704.796 217.466C706.913 220.765 708.31 224.634 708.394 228.609C708.479 232.564 707.421 236.539 705.431 239.922C701.472 246.752 695.312 251.848 688.814 255.95C682.231 260.009 675.16 263.202 667.9 265.761C653.378 270.878 638.032 273.69 622.642 274.007C607.253 274.324 591.801 272.337 577.089 267.791C569.743 265.528 562.589 262.526 555.899 258.698C549.253 254.871 542.923 250.135 538.309 243.855C536.044 240.725 534.245 237.131 533.652 233.24C533.038 229.371 533.8 225.29 535.769 221.885C537.695 218.46 540.574 215.732 543.664 213.406C546.713 211.038 550.078 209.093 553.486 207.338C567.288 200.466 582.254 196.406 597.241 193.213C612.27 190.126 627.511 188.096 642.837 187.039C658.12 186.066 673.573 185.813 688.75 188.202C673.573 185.918 658.141 186.299 642.858 187.377C627.575 188.54 612.376 190.697 597.389 193.89C582.465 197.125 567.542 201.206 553.867 208.078C550.48 209.812 547.178 211.757 544.172 214.083C541.166 216.367 538.372 219.052 536.531 222.329C534.668 225.565 533.969 229.434 534.562 233.113C535.134 236.814 536.869 240.281 539.071 243.305C543.558 249.416 549.803 254.068 556.386 257.832C563.012 261.616 570.103 264.556 577.385 266.776C591.991 271.258 607.338 273.183 622.6 272.823C637.862 272.464 653.061 269.63 667.455 264.534C674.652 261.997 681.617 258.804 688.073 254.808C694.445 250.769 700.435 245.737 704.182 239.245C706.087 236.031 707.082 232.31 706.997 228.652C706.913 224.973 705.643 221.357 703.653 218.227C699.377 212.053 693.005 207.528 686.274 204.103C679.5 200.635 672.218 198.203 664.852 196.195C661.19 195.116 657.422 194.397 653.717 193.53C649.949 192.896 646.203 192.05 642.413 191.585C612.101 187.208 581.238 187.356 550.756 190.041C546.924 190.232 543.135 190.845 539.346 191.289L527.958 192.727C520.379 193.826 512.865 195.307 505.308 196.575C497.835 198.288 490.321 199.768 482.912 201.692C475.524 203.701 468.073 205.541 460.791 207.93C446.101 212.307 431.727 217.678 417.63 223.662C403.574 229.73 389.709 236.37 376.627 244.383L376.669 244.405Z" fill="#FFF9C7"/>
<path d="M426.668 232.225C448.45 229.349 470.444 227.932 492.416 227.509C514.41 227.129 536.424 227.657 558.333 229.645C580.221 231.759 602.046 235.227 623.319 240.852C633.925 243.749 644.488 246.941 654.669 251.149C664.83 255.357 674.716 260.241 684.072 266.014C665.084 254.913 644.318 247.237 623.087 241.761C601.834 236.306 580.052 233.007 558.206 231.041C536.361 228.905 514.389 228.207 492.437 228.419C481.451 228.546 470.486 228.947 459.521 229.582C448.556 230.174 437.591 230.956 426.668 232.182V232.225Z" fill="#FFF9C7"/>
<path d="M475.229 260.37C482.426 262.653 489.75 264.451 497.116 266.036C504.483 267.643 511.892 268.954 519.364 269.927C534.287 271.851 549.38 272.824 564.367 271.703C579.354 270.794 594.257 267.791 608.206 262.209C615.15 259.334 621.775 255.781 627.999 251.552C634.18 247.26 639.81 242.227 644.933 236.688C639.98 242.375 634.497 247.598 628.401 252.102C622.22 256.458 615.573 260.158 608.63 263.203C594.617 269.06 579.566 272.084 564.473 273.099C549.359 274.114 534.16 273.162 519.216 270.984C504.271 268.743 489.496 265.296 475.229 260.348V260.37Z" fill="#FFF9C7"/>
<path d="M457.574 239.35C461.893 235.819 466.465 232.626 471.101 229.518C475.8 226.515 480.584 223.64 485.495 220.975C495.296 215.626 505.456 210.953 515.913 207.02C526.392 203.171 537.082 199.809 548.004 197.526C553.444 196.236 558.969 195.39 564.473 194.523C569.977 193.656 575.565 193.403 581.111 192.811C570.061 194.227 559.033 195.855 548.258 198.583C537.42 201.078 526.794 204.398 516.421 208.331C505.986 212.116 495.867 216.789 486.003 221.906C476.16 227.065 466.549 232.732 457.574 239.329V239.35Z" fill="#FFF9C7"/>
<path d="M505.436 188.202C518.031 187.419 530.689 187.504 543.284 188.519C555.879 189.534 568.432 191.394 580.752 194.291C593.029 197.357 605.074 201.438 616.547 206.788C627.914 212.391 638.498 219.475 647.897 227.911C638.159 219.855 627.448 213.174 616.102 207.76C604.608 202.643 592.669 198.605 580.434 195.666C568.22 192.684 555.731 190.845 543.199 189.597C530.668 188.413 518.052 187.948 505.436 188.202Z" fill="#FFF9C7"/>
<path d="M533.291 264.492C536.233 265.803 539.239 266.966 542.309 267.981C545.336 269.059 548.405 270.032 551.496 270.899C557.677 272.633 563.964 274.028 570.314 274.874C576.643 275.91 583.078 276.058 589.471 275.889L594.276 275.614C595.864 275.487 597.451 275.17 599.039 274.98C602.257 274.705 605.326 273.732 608.501 273.098C602.384 275.107 596.012 276.608 589.535 276.989C583.057 277.369 576.537 277.2 570.124 276.27C563.71 275.297 557.359 273.902 551.199 271.935C545.039 269.969 539.006 267.537 533.312 264.492H533.291Z" fill="#FFF9C7"/>
<path d="M548.682 281.281C551.793 278.342 555.18 275.699 558.652 273.183C562.123 270.667 565.743 268.362 569.469 266.226C573.258 264.196 577.068 262.209 581.132 260.729C585.175 259.27 589.367 258.107 593.643 257.811C589.451 258.699 585.429 260.094 581.535 261.743C577.618 263.393 573.85 265.359 570.167 267.453C566.42 269.461 562.843 271.787 559.266 274.092C555.688 276.418 552.174 278.828 548.682 281.302V281.281Z" fill="#FFF9C7"/>
<path d="M399.89 253.201C409.628 257.726 419.577 261.764 429.589 265.571C439.602 269.419 449.699 273.013 459.923 276.27C480.35 282.803 501.158 288.153 522.305 291.663C532.847 293.566 543.495 294.856 554.163 295.638C564.832 296.463 575.585 296.569 586.254 295.871C596.923 295.173 607.592 293.756 617.943 290.987C628.315 288.343 638.412 284.601 647.896 279.547C638.539 284.812 628.484 288.787 618.112 291.642C607.74 294.518 597.029 296.019 586.318 296.801C575.585 297.605 564.811 297.563 554.079 296.801C543.346 296.082 532.657 294.877 522.051 293.038C500.862 289.337 480.033 283.818 459.627 277.137C439.221 270.455 419.174 262.589 399.869 253.18L399.89 253.201Z" fill="#FFF9C7"/>
<path d="M484.033 297.584C487.78 294.243 491.865 291.262 496.036 288.407C500.269 285.679 504.587 283.079 509.075 280.732C518.008 276.059 527.364 272.147 537.038 269.229C546.733 266.417 556.597 264.069 566.652 263.097C571.648 262.378 576.707 262.293 581.745 262.04C586.783 261.892 591.821 262.272 596.838 262.378C586.783 262.42 576.728 262.695 566.8 264.196C556.851 265.402 547.051 267.706 537.461 270.603C527.83 273.394 518.558 277.306 509.583 281.725C500.629 286.229 491.95 291.346 484.054 297.605L484.033 297.584Z" fill="#FFF9C7"/>
</g>
</g>
<g filter="url(#filter0_i_6242_15807)">
<path d="M394.29 243.368C391.666 246.056 388.402 247.528 384.306 247.592C384.306 249.768 384.434 251.88 385.202 253.864C385.394 254.312 385.906 254.76 386.354 255.016C387.122 255.592 387.442 255.912 387.25 256.424C386.994 257.064 386.418 257.128 385.842 257.128C381.938 256.872 378.226 257.576 374.514 258.344C373.938 258.472 373.426 258.664 372.85 258.856C372.274 258.984 371.762 258.984 371.442 258.472C371.122 258.024 371.314 257.576 371.634 257.192C371.826 257 372.018 256.808 372.21 256.616C373.426 255.272 374.258 253.8 374.45 252.008C374.77 249.192 375.154 246.312 375.218 243.432C375.41 235.112 375.474 226.792 375.538 218.536C375.602 217.256 374.834 216.424 373.362 215.976C372.914 215.912 372.466 215.848 372.082 215.784C371.442 215.72 371.058 215.464 370.994 214.824C370.93 214.248 371.314 213.864 372.082 213.736C373.874 213.416 375.666 213.16 377.458 212.968C379.698 212.648 382.002 212.328 384.306 212.2C388.146 212.008 391.858 212.712 394.994 215.016C397.81 217.128 399.41 220.072 400.178 223.4C401.906 231.016 399.73 237.672 394.29 243.368ZM385.97 215.336C385.458 216.808 383.922 241.704 384.242 243.88C384.37 243.816 384.498 243.816 384.562 243.752C384.69 243.688 384.882 243.56 385.01 243.432C387.314 241.384 389.234 238.952 390.386 236.072C391.794 232.232 392.306 228.328 392.05 224.232C391.922 221.288 390.578 218.792 388.402 216.744C387.762 216.104 386.93 215.528 385.97 215.336ZM411.835 227.944C411.771 228.904 411.835 229.864 411.835 230.952C412.667 230.824 413.307 230.44 413.755 229.928C414.458 229.16 415.035 228.328 415.675 227.56C415.867 227.24 416.059 226.92 416.251 226.664C416.955 225.896 417.851 226.152 418.107 227.112C418.171 227.56 418.171 228.072 418.171 228.52C417.979 231.272 417.787 233.96 417.659 236.648C417.467 238.888 417.339 241.128 417.147 243.432C417.083 244.52 416.763 244.968 416.123 244.968C415.483 244.968 415.227 244.456 415.163 243.368C415.035 241.128 414.971 238.888 414.715 236.712C414.523 234.728 413.627 234.024 411.579 233.832C410.811 239.784 410.619 245.8 410.619 251.944C411.131 251.816 411.451 251.752 411.771 251.624C413.179 250.792 414.587 249.96 415.931 249.064C417.723 247.848 418.683 245.928 419.515 244.008C420.219 242.536 420.795 241 421.435 239.528C421.691 238.952 422.075 238.44 422.523 237.992C423.227 237.416 424.059 237.736 424.251 238.632C424.379 239.272 424.379 239.976 424.251 240.616C423.995 242.984 423.739 245.352 423.355 247.72C422.779 251.176 422.075 254.696 421.499 258.152C421.371 258.856 421.307 259.624 420.475 259.88C419.707 260.136 419.195 259.56 418.811 259.048C417.275 257.256 415.227 256.36 412.923 255.848C408.443 254.952 403.899 255.016 399.355 255.784C398.907 255.848 398.459 255.976 398.011 255.976C397.562 256.04 397.178 255.848 397.05 255.336C396.858 254.76 397.178 254.376 397.691 254.184C397.819 254.12 397.947 254.056 398.075 254.056C400.059 253.48 401.403 252.072 402.043 250.152C402.811 248.04 403.067 245.928 403.067 243.752C403.195 238.504 403.259 233.256 403.323 228.008C403.387 225.32 403.451 222.632 403.579 219.944C403.707 218.024 402.875 216.68 401.211 215.848C400.891 215.656 400.507 215.464 400.251 215.144C400.059 214.952 399.867 214.44 399.995 214.248C400.123 213.928 400.571 213.608 400.891 213.608C401.403 213.544 402.043 213.672 402.555 213.8C405.115 214.504 407.739 215.144 410.363 215.272C412.091 215.336 413.819 215.336 415.547 215.208C417.659 215.016 419.643 214.376 421.371 213.096C421.627 212.904 421.883 212.712 422.139 212.584C423.035 212.2 423.803 212.52 423.995 213.416C424.187 214.12 424.251 214.824 424.187 215.528C423.931 220.072 423.547 224.552 423.227 229.096C423.227 229.48 423.163 229.928 422.971 230.248C422.779 230.504 422.395 230.824 422.075 230.888C421.819 230.888 421.435 230.632 421.243 230.376C420.987 230.12 420.923 229.736 420.859 229.416C420.283 227.752 419.835 226.088 419.259 224.488C418.363 222.12 416.955 220.072 414.651 218.792C414.458 218.664 414.203 218.536 413.947 218.408C412.923 217.96 412.475 218.152 412.347 219.304C412.155 222.184 411.963 225.064 411.835 227.944ZM458.408 210.28C458.792 210.728 458.664 211.176 458.28 211.624C458.024 211.88 457.768 212.072 457.576 212.328C456.104 213.864 455.208 215.656 454.696 217.576C453.608 222.312 453.032 227.048 453.096 231.848C453.16 239.016 453.032 246.184 452.968 253.352C452.968 254.312 452.776 255.272 452.712 256.168C452.648 256.744 452.392 257.256 451.752 257.448C451.176 257.64 450.664 257.384 450.216 257C449.128 256.04 448.168 255.016 447.464 253.736C446.184 251.432 444.776 249.256 443.368 247.016C439.976 241.512 437.224 235.752 434.664 229.928C434.536 229.672 434.408 229.416 434.28 229.16C434.152 229.224 434.088 229.224 433.96 229.224C434.024 233.768 434.024 238.376 434.344 242.92C434.536 246.312 435.176 249.704 436.456 252.968C436.968 254.376 437.544 255.656 438.952 256.488C439.464 256.808 439.848 257.32 439.528 257.896C439.272 258.536 438.632 258.6 437.992 258.536C436.712 258.28 435.496 258.088 434.216 257.896C431.784 257.512 429.416 257.128 426.984 256.744C426.664 256.744 426.408 256.68 426.088 256.616C425.576 256.424 425.192 256.168 425.192 255.656C425.192 255.144 425.448 254.76 425.96 254.568C426.28 254.44 426.664 254.376 426.984 254.248C428.264 253.992 429.032 253.288 429.224 252.136C429.48 250.792 429.736 249.384 429.736 248.04C429.672 238.888 429.416 229.672 429.352 220.52C429.288 218.216 428.2 216.872 426.088 216.04C425.768 215.912 425.448 215.848 425.256 215.656C425 215.4 424.68 215.016 424.68 214.632C424.68 214.376 425.064 213.992 425.384 213.864C425.64 213.672 426.024 213.672 426.408 213.672C430.376 213.928 434.408 214.248 438.44 214.504C439.72 214.632 441 214.76 442.28 214.888C442.536 214.952 442.856 215.016 443.176 215.08C443.624 215.272 443.88 215.656 443.752 216.104C443.624 216.36 443.304 216.68 442.984 216.808C442.664 217 442.152 217 441.704 217.064C440.552 217.384 439.848 218.216 440.104 219.304C440.488 220.84 440.808 222.44 441.512 223.912C443.688 228.392 445.992 232.808 448.296 237.224C448.424 237.48 448.552 237.736 448.872 238.184C448.936 237.672 448.936 237.48 448.936 237.352C448.808 231.912 448.744 226.472 448.616 221.032C448.552 220.072 448.488 219.048 448.424 218.088C448.296 217 448.04 216.04 447.208 215.144C446.376 214.248 446.568 213.544 447.72 213.16C450.856 212.072 453.992 211.048 457.128 209.96C457.576 209.832 458.088 209.832 458.408 210.28ZM480.724 239.016C480.212 243.432 480.34 247.912 480.34 252.392C480.66 252.52 480.788 252.584 480.916 252.712C482.004 253.352 482.004 254.056 481.108 254.888C480.148 255.72 479.188 256.488 478.228 257.32C475.796 259.496 473.364 261.672 471.252 264.232C470.868 264.68 470.42 264.936 469.844 264.552C469.332 264.232 469.396 263.656 469.524 263.144C470.036 261.864 470.612 260.584 470.932 259.304C471.316 258.024 471.508 256.744 471.828 255.144C471.188 255.464 470.868 255.656 470.484 255.784C468.692 256.424 466.836 256.744 464.98 256.488C461.588 255.976 459.348 253.8 457.812 250.856C456.276 247.976 455.636 244.904 455.444 241.64C455.123 236.456 455.764 231.336 457.492 226.344C458.324 224.104 459.411 221.992 460.82 220.008C462.1 218.28 463.572 216.872 465.364 215.784C467.54 214.44 469.844 214.12 472.276 214.824C473.044 215.08 473.876 215.272 474.708 215.464C475.412 215.656 475.924 215.336 476.116 214.696C476.308 214.12 476.5 213.544 476.692 213.032C476.756 212.712 476.82 212.392 476.884 212.136C477.012 211.624 477.332 211.368 477.844 211.368C478.42 211.368 478.74 211.752 478.804 212.264C478.868 212.648 478.932 213.096 478.932 213.48C478.996 218.344 479.06 223.208 479.124 228.072C479.124 228.456 479.124 228.84 478.996 229.16C478.868 229.48 478.548 229.864 478.228 229.928C477.908 229.992 477.524 229.672 477.268 229.416C477.012 229.16 477.012 228.776 476.884 228.456C475.732 225.192 474.516 221.928 472.404 219.176C471.892 218.472 471.38 217.832 470.42 217.512C469.46 218.088 468.82 218.984 468.308 219.944C467.092 222.12 466.452 224.488 466.004 226.856C465.172 231.592 464.98 236.392 465.236 241.192C465.428 244.52 465.876 247.912 466.836 251.112C467.028 251.816 467.348 252.52 467.796 253.16C468.308 253.8 468.692 253.8 469.396 253.352C470.292 252.84 470.932 252.008 471.316 251.048C472.083 248.936 472.532 246.76 472.66 244.52C472.724 242.536 472.66 240.552 472.66 238.568C472.66 238.248 472.66 237.928 472.596 237.672C472.468 237.096 472.148 236.776 471.508 236.84C470.996 236.904 470.42 236.968 469.972 236.776C469.588 236.648 469.204 236.328 469.012 236.008C468.756 235.496 469.076 234.984 469.524 234.728C469.972 234.472 470.548 234.152 471.06 234.088C474.452 233.384 477.844 232.552 481.044 231.208C481.3 231.144 481.62 231.016 481.94 231.016C482.644 231.016 483.092 231.592 482.9 232.296C482.9 232.488 482.772 232.68 482.644 232.872C481.364 234.728 480.98 236.84 480.724 239.016ZM494.202 231.784C494.202 231.912 494.266 232.104 494.33 232.424C497.338 231.656 500.218 231.016 503.098 230.312C503.162 229.928 503.162 229.672 503.226 229.352C503.29 225.896 503.354 222.44 503.354 218.984C503.418 217.576 503.162 216.36 501.626 215.656C501.37 215.528 501.114 215.016 501.114 214.632C501.05 214.12 501.498 213.864 502.074 213.736C504.762 213.16 507.194 211.88 509.498 210.472C510.266 210.024 510.97 209.512 511.674 209C511.866 208.872 511.994 208.744 512.186 208.616C512.634 208.36 513.082 208.168 513.53 208.552C513.914 208.872 514.042 209.512 513.594 209.96C511.354 212.072 511.226 214.824 511.034 217.576C510.65 222.312 511.162 227.048 511.226 231.784C511.226 234.664 511.226 237.544 511.226 240.424C511.226 242.408 511.226 244.456 511.29 246.504C511.354 247.08 511.482 247.656 511.61 248.232C511.866 249.128 512.25 249.96 513.21 250.472C513.338 250.536 513.402 250.6 513.53 250.664C514.362 251.432 514.234 252.392 513.146 252.776C511.866 253.224 510.586 253.672 509.306 254.12C506.874 254.952 504.762 256.168 502.714 257.576C502.586 257.704 502.458 257.832 502.266 257.896C501.882 258.152 501.434 258.344 501.114 257.96C500.858 257.64 500.73 257.192 500.73 256.808C500.73 256.488 500.986 256.168 501.114 255.912C502.522 253.352 503.162 250.728 503.162 247.848C503.098 243.56 503.162 239.336 503.226 235.048C503.226 234.728 503.162 234.408 503.098 233.96C500.09 234.6 497.146 235.24 494.266 235.88C494.202 236.2 494.138 236.392 494.138 236.584C494.074 240.808 494.074 245.032 494.778 249.256C495.034 250.664 495.546 251.816 496.634 252.84C497.53 253.672 497.658 254.12 497.274 254.696C496.954 255.208 496.442 255.272 495.29 254.824C494.458 254.504 493.626 254.568 492.794 254.76C490.17 255.4 487.482 256.104 484.858 256.808C484.666 256.872 484.41 256.936 484.218 257C483.706 257.256 483.258 257.192 482.938 256.744C482.617 256.296 482.681 255.784 483.066 255.4C485.754 252.84 486.458 249.512 486.586 245.992C486.714 243.688 486.714 241.32 486.714 238.952C486.714 232.68 486.586 226.408 486.586 220.136C486.586 218.088 485.818 216.488 484.026 215.336C483.834 215.144 483.578 215.016 483.45 214.824C482.938 214.184 483.194 213.416 484.026 213.224C484.41 213.16 484.858 213.16 485.306 213.224C487.93 213.608 490.554 214.056 493.178 214.44C494.074 214.568 495.034 214.568 495.994 214.568C496.57 214.568 497.018 214.76 497.146 215.4C497.274 215.976 497.018 216.36 496.442 216.552C495.226 217 494.778 217.96 494.586 218.984C494.33 220.264 494.074 221.608 494.074 222.888C494.01 225.832 494.138 228.84 494.202 231.784ZM533.901 245.864C533.837 245.032 533.645 244.2 533.517 243.176C530.637 243.944 527.885 244.648 525.197 245.352C524.877 245.48 524.557 245.864 524.429 246.184C523.789 248.36 523.277 250.536 523.213 252.84C523.213 254.056 523.533 255.208 524.301 256.168C524.621 256.552 524.877 257.064 525.005 257.576C525.197 258.408 524.621 258.92 523.789 258.792C523.533 258.728 523.341 258.664 523.149 258.6C520.077 257.256 517.069 255.976 513.997 254.632C513.421 254.44 513.101 254.056 513.165 253.416C513.293 252.776 513.741 252.584 514.317 252.584C516.301 252.648 517.517 251.496 518.349 249.96C519.373 247.848 520.397 245.736 521.165 243.56C523.085 238.056 524.941 232.552 526.733 227.048C527.245 225.64 527.565 224.168 528.077 222.76C529.101 219.816 530.189 216.936 531.213 213.992C531.277 213.864 531.341 213.8 531.405 213.672C531.853 212.904 532.365 212.072 533.389 212.136C534.349 212.2 535.053 212.904 535.309 213.8C536.013 215.72 536.781 217.704 537.229 219.688C538.125 223.784 538.829 227.944 539.597 232.104C540.365 236.008 541.133 239.912 542.029 243.816C542.477 245.928 543.245 247.976 543.949 250.024C544.525 251.752 545.293 252.072 547.149 251.624C547.341 251.56 547.597 251.432 547.789 251.496C548.173 251.624 548.685 251.752 548.877 252.008C549.005 252.328 548.941 252.904 548.749 253.224C548.493 253.608 548.045 253.864 547.597 254.12C544.077 255.976 540.557 257.832 537.037 259.688C536.269 260.136 535.565 260.648 534.797 261.16C534.477 261.288 534.157 261.544 533.837 261.608C533.517 261.608 533.005 261.48 532.813 261.224C532.621 260.968 532.685 260.52 532.685 260.136C532.685 260.008 532.813 259.88 532.877 259.816C534.733 258.152 534.733 255.912 534.669 253.8C534.541 251.112 534.157 248.488 533.901 245.864ZM533.005 240.232C532.173 236.136 531.341 232.104 530.445 227.816C527.821 232.36 527.373 237.224 526.029 241.896C528.461 241.32 530.701 240.744 533.005 240.232ZM568.733 238.248C568.413 238.44 568.093 238.632 567.581 238.952C571.869 240.232 573.917 243.304 575.261 246.952C575.901 248.744 576.285 250.6 576.797 252.392C577.309 254.056 577.885 255.72 579.229 256.936C579.613 257.32 580.125 257.64 580.637 257.832C581.149 258.088 581.661 257.96 581.917 257.384C581.981 257.32 581.981 257.256 582.045 257.192C582.237 256.68 582.621 256.488 583.133 256.616C583.709 256.744 583.965 257.192 583.837 257.768C583.645 259.24 583.453 260.776 582.493 262.056C581.213 263.848 579.613 265.192 577.309 265.448C574.877 265.704 572.637 264.36 571.485 261.928C570.973 260.84 570.589 259.688 570.269 258.6C569.245 255.144 568.221 251.688 567.197 248.296C566.621 246.184 565.661 244.2 564.253 242.472C563.677 241.832 563.037 241.32 562.205 241.128C561.885 241.128 561.565 241.128 561.053 241.128C561.181 242.792 561.309 244.264 561.501 245.736C561.565 246.568 561.757 247.272 561.885 248.104C562.269 250.728 563.677 252.712 565.853 254.248C565.981 254.312 566.109 254.376 566.173 254.44C566.557 254.76 566.813 255.144 566.685 255.592C566.493 256.104 566.109 256.36 565.597 256.36C565.213 256.424 564.893 256.424 564.509 256.36C559.965 255.848 555.549 256.36 551.197 257.768C550.749 257.896 550.301 258.152 549.789 258.28C549.341 258.472 548.893 258.472 548.573 258.024C548.189 257.64 548.381 257.192 548.637 256.808C548.701 256.744 548.765 256.68 548.829 256.616C551.261 254.44 552.029 251.56 552.349 248.552C552.605 245.416 552.797 242.28 552.797 239.208C552.797 233.128 552.669 227.048 552.541 220.968C552.541 219.944 552.285 218.92 551.965 217.96C551.581 216.808 550.685 216.168 549.469 215.912C549.277 215.912 549.149 215.848 548.957 215.848C548.381 215.784 547.869 215.592 547.741 214.952C547.677 214.44 548.061 213.864 548.765 213.544C549.085 213.416 549.405 213.352 549.725 213.288C554.845 212.328 559.965 212.264 565.085 213.352C568.925 214.184 571.933 216.36 574.109 219.496C576.861 223.528 577.181 229.672 573.277 234.472C571.997 236.008 570.461 237.224 568.733 238.248ZM563.293 217C562.973 216.68 562.589 216.488 562.013 216.168C560.925 223.272 560.221 230.184 560.861 237.288C561.309 237.16 561.565 237.032 561.821 236.904C563.869 235.752 565.405 234.088 566.237 231.912C566.685 230.568 567.005 229.16 567.325 227.752C568.221 223.336 566.557 219.88 563.293 217ZM605.536 239.016C605.024 243.432 605.152 247.912 605.152 252.392C605.472 252.52 605.6 252.584 605.728 252.712C606.816 253.352 606.816 254.056 605.92 254.888C604.96 255.72 604 256.488 603.04 257.32C600.608 259.496 598.176 261.672 596.064 264.232C595.68 264.68 595.232 264.936 594.656 264.552C594.144 264.232 594.208 263.656 594.336 263.144C594.848 261.864 595.424 260.584 595.744 259.304C596.128 258.024 596.32 256.744 596.64 255.144C596 255.464 595.68 255.656 595.296 255.784C593.504 256.424 591.648 256.744 589.792 256.488C586.4 255.976 584.16 253.8 582.624 250.856C581.088 247.976 580.448 244.904 580.256 241.64C579.936 236.456 580.576 231.336 582.304 226.344C583.136 224.104 584.224 221.992 585.632 220.008C586.912 218.28 588.384 216.872 590.176 215.784C592.352 214.44 594.656 214.12 597.088 214.824C597.856 215.08 598.688 215.272 599.52 215.464C600.224 215.656 600.736 215.336 600.928 214.696C601.12 214.12 601.312 213.544 601.504 213.032C601.568 212.712 601.632 212.392 601.696 212.136C601.824 211.624 602.144 211.368 602.656 211.368C603.232 211.368 603.552 211.752 603.616 212.264C603.68 212.648 603.744 213.096 603.744 213.48C603.808 218.344 603.872 223.208 603.936 228.072C603.936 228.456 603.936 228.84 603.808 229.16C603.68 229.48 603.36 229.864 603.04 229.928C602.72 229.992 602.336 229.672 602.08 229.416C601.824 229.16 601.824 228.776 601.696 228.456C600.544 225.192 599.328 221.928 597.216 219.176C596.704 218.472 596.192 217.832 595.232 217.512C594.272 218.088 593.632 218.984 593.12 219.944C591.904 222.12 591.264 224.488 590.816 226.856C589.984 231.592 589.792 236.392 590.048 241.192C590.24 244.52 590.688 247.912 591.648 251.112C591.84 251.816 592.16 252.52 592.608 253.16C593.12 253.8 593.504 253.8 594.208 253.352C595.104 252.84 595.744 252.008 596.128 251.048C596.896 248.936 597.344 246.76 597.472 244.52C597.536 242.536 597.472 240.552 597.472 238.568C597.472 238.248 597.472 237.928 597.408 237.672C597.28 237.096 596.96 236.776 596.32 236.84C595.808 236.904 595.232 236.968 594.784 236.776C594.4 236.648 594.016 236.328 593.824 236.008C593.568 235.496 593.888 234.984 594.336 234.728C594.784 234.472 595.36 234.152 595.872 234.088C599.264 233.384 602.656 232.552 605.856 231.208C606.112 231.144 606.432 231.016 606.752 231.016C607.456 231.016 607.904 231.592 607.712 232.296C607.712 232.488 607.584 232.68 607.456 232.872C606.176 234.728 605.792 236.84 605.536 239.016ZM627.526 245.864C627.462 245.032 627.27 244.2 627.142 243.176C624.262 243.944 621.51 244.648 618.822 245.352C618.502 245.48 618.182 245.864 618.054 246.184C617.414 248.36 616.902 250.536 616.838 252.84C616.838 254.056 617.158 255.208 617.926 256.168C618.246 256.552 618.502 257.064 618.63 257.576C618.822 258.408 618.246 258.92 617.414 258.792C617.158 258.728 616.966 258.664 616.774 258.6C613.702 257.256 610.694 255.976 607.622 254.632C607.046 254.44 606.726 254.056 606.79 253.416C606.918 252.776 607.366 252.584 607.942 252.584C609.926 252.648 611.142 251.496 611.974 249.96C612.998 247.848 614.022 245.736 614.79 243.56C616.71 238.056 618.566 232.552 620.358 227.048C620.87 225.64 621.19 224.168 621.702 222.76C622.726 219.816 623.814 216.936 624.838 213.992C624.902 213.864 624.966 213.8 625.03 213.672C625.478 212.904 625.99 212.072 627.014 212.136C627.974 212.2 628.678 212.904 628.934 213.8C629.638 215.72 630.406 217.704 630.854 219.688C631.75 223.784 632.454 227.944 633.222 232.104C633.99 236.008 634.758 239.912 635.654 243.816C636.102 245.928 636.87 247.976 637.574 250.024C638.15 251.752 638.918 252.072 640.774 251.624C640.966 251.56 641.222 251.432 641.414 251.496C641.798 251.624 642.31 251.752 642.502 252.008C642.63 252.328 642.566 252.904 642.374 253.224C642.118 253.608 641.67 253.864 641.222 254.12C637.702 255.976 634.182 257.832 630.662 259.688C629.894 260.136 629.19 260.648 628.422 261.16C628.102 261.288 627.782 261.544 627.462 261.608C627.142 261.608 626.63 261.48 626.438 261.224C626.246 260.968 626.31 260.52 626.31 260.136C626.31 260.008 626.438 259.88 626.502 259.816C628.358 258.152 628.358 255.912 628.294 253.8C628.166 251.112 627.782 248.488 627.526 245.864ZM626.63 240.232C625.798 236.136 624.966 232.104 624.07 227.816C621.446 232.36 620.998 237.224 619.654 241.896C622.086 241.32 624.326 240.744 626.63 240.232ZM661.526 245.864C661.462 245.032 661.27 244.2 661.142 243.176C658.262 243.944 655.51 244.648 652.822 245.352C652.502 245.48 652.182 245.864 652.054 246.184C651.414 248.36 650.902 250.536 650.838 252.84C650.838 254.056 651.158 255.208 651.926 256.168C652.246 256.552 652.502 257.064 652.63 257.576C652.822 258.408 652.246 258.92 651.414 258.792C651.158 258.728 650.966 258.664 650.774 258.6C647.702 257.256 644.694 255.976 641.622 254.632C641.046 254.44 640.726 254.056 640.79 253.416C640.918 252.776 641.366 252.584 641.942 252.584C643.926 252.648 645.142 251.496 645.974 249.96C646.998 247.848 648.022 245.736 648.79 243.56C650.71 238.056 652.566 232.552 654.358 227.048C654.87 225.64 655.19 224.168 655.702 222.76C656.726 219.816 657.814 216.936 658.838 213.992C658.902 213.864 658.966 213.8 659.03 213.672C659.478 212.904 659.99 212.072 661.014 212.136C661.974 212.2 662.678 212.904 662.934 213.8C663.638 215.72 664.406 217.704 664.854 219.688C665.75 223.784 666.454 227.944 667.222 232.104C667.99 236.008 668.758 239.912 669.654 243.816C670.102 245.928 670.87 247.976 671.574 250.024C672.15 251.752 672.918 252.072 674.774 251.624C674.966 251.56 675.222 251.432 675.414 251.496C675.798 251.624 676.31 251.752 676.502 252.008C676.63 252.328 676.566 252.904 676.374 253.224C676.118 253.608 675.67 253.864 675.222 254.12C671.702 255.976 668.182 257.832 664.662 259.688C663.894 260.136 663.19 260.648 662.422 261.16C662.102 261.288 661.782 261.544 661.462 261.608C661.142 261.608 660.63 261.48 660.438 261.224C660.246 260.968 660.31 260.52 660.31 260.136C660.31 260.008 660.438 259.88 660.502 259.816C662.358 258.152 662.358 255.912 662.294 253.8C662.166 251.112 661.782 248.488 661.526 245.864ZM660.63 240.232C659.798 236.136 658.966 232.104 658.07 227.816C655.446 232.36 654.998 237.224 653.654 241.896C656.086 241.32 658.326 240.744 660.63 240.232ZM709.158 210.28C709.542 210.728 709.414 211.176 709.03 211.624C708.774 211.88 708.518 212.072 708.326 212.328C706.854 213.864 705.958 215.656 705.446 217.576C704.358 222.312 703.782 227.048 703.846 231.848C703.91 239.016 703.782 246.184 703.718 253.352C703.718 254.312 703.526 255.272 703.462 256.168C703.398 256.744 703.142 257.256 702.502 257.448C701.926 257.64 701.414 257.384 700.966 257C699.878 256.04 698.918 255.016 698.214 253.736C696.934 251.432 695.526 249.256 694.118 247.016C690.726 241.512 687.974 235.752 685.414 229.928C685.286 229.672 685.158 229.416 685.03 229.16C684.902 229.224 684.838 229.224 684.71 229.224C684.774 233.768 684.774 238.376 685.094 242.92C685.286 246.312 685.926 249.704 687.206 252.968C687.718 254.376 688.294 255.656 689.702 256.488C690.214 256.808 690.598 257.32 690.278 257.896C690.022 258.536 689.382 258.6 688.742 258.536C687.462 258.28 686.246 258.088 684.966 257.896C682.534 257.512 680.166 257.128 677.734 256.744C677.414 256.744 677.158 256.68 676.838 256.616C676.326 256.424 675.942 256.168 675.942 255.656C675.942 255.144 676.198 254.76 676.71 254.568C677.03 254.44 677.414 254.376 677.734 254.248C679.014 253.992 679.782 253.288 679.974 252.136C680.23 250.792 680.486 249.384 680.486 248.04C680.422 238.888 680.166 229.672 680.102 220.52C680.038 218.216 678.95 216.872 676.838 216.04C676.518 215.912 676.198 215.848 676.006 215.656C675.75 215.4 675.43 215.016 675.43 214.632C675.43 214.376 675.814 213.992 676.134 213.864C676.39 213.672 676.774 213.672 677.158 213.672C681.126 213.928 685.158 214.248 689.19 214.504C690.47 214.632 691.75 214.76 693.03 214.888C693.286 214.952 693.606 215.016 693.926 215.08C694.374 215.272 694.63 215.656 694.502 216.104C694.374 216.36 694.054 216.68 693.734 216.808C693.414 217 692.902 217 692.454 217.064C691.302 217.384 690.598 218.216 690.854 219.304C691.238 220.84 691.558 222.44 692.262 223.912C694.438 228.392 696.742 232.808 699.046 237.224C699.174 237.48 699.302 237.736 699.622 238.184C699.686 237.672 699.686 237.48 699.686 237.352C699.558 231.912 699.494 226.472 699.366 221.032C699.302 220.072 699.238 219.048 699.174 218.088C699.046 217 698.79 216.04 697.958 215.144C697.126 214.248 697.318 213.544 698.47 213.16C701.606 212.072 704.742 211.048 707.878 209.96C708.326 209.832 708.838 209.832 709.158 210.28Z" fill="white"/>
</g>
<defs>
<filter id="filter0_i_6242_15807" x="370.93" y="208.168" width="338.613" height="61.5352" filterUnits="userSpaceOnUse" color-interpolation-filters="sRGB">
<feFlood flood-opacity="0" result="BackgroundImageFix"/>
<feBlend mode="normal" in="SourceGraphic" in2="BackgroundImageFix" result="shape"/>
<feColorMatrix in="SourceAlpha" type="matrix" values="0 0 0 0 0 0 0 0 0 0 0 0 0 0 0 0 0 0 127 0" result="hardAlpha"/>
<feOffset dy="4"/>
<feGaussianBlur stdDeviation="2"/>
<feComposite in2="hardAlpha" operator="arithmetic" k2="-1" k3="1"/>
<feColorMatrix type="matrix" values="0 0 0 0 0 0 0 0 0 0 0 0 0 0 0 0 0 0 0.25 0"/>
<feBlend mode="normal" in2="shape" result="effect1_innerShadow_6242_15807"/>
</filter>
<radialGradient id="paint0_radial_6242_15807" cx="0" cy="0" r="1" gradientUnits="userSpaceOnUse" gradientTransform="translate(238.407 251.674) rotate(21.1357) scale(231.587 249.345)">
<stop stop-color="#FF73FF"/>
<stop offset="0.09" stop-color="#D761D7"/>
<stop offset="0.23" stop-color="#9F479F"/>
<stop offset="0.36" stop-color="#6E316E"/>
<stop offset="0.5" stop-color="#461F46"/>
<stop offset="0.63" stop-color="#271127"/>
<stop offset="0.76" stop-color="#110811"/>
<stop offset="0.89" stop-color="#040204"/>
<stop offset="1"/>
</radialGradient>
<radialGradient id="paint1_radial_6242_15807" cx="0" cy="0" r="1" gradientUnits="userSpaceOnUse" gradientTransform="translate(826.343 241.674) rotate(158.864) scale(231.587 249.345)">
<stop stop-color="#FF73FF"/>
<stop offset="0.09" stop-color="#D761D7"/>
<stop offset="0.23" stop-color="#9F479F"/>
<stop offset="0.36" stop-color="#6E316E"/>
<stop offset="0.5" stop-color="#461F46"/>
<stop offset="0.63" stop-color="#271127"/>
<stop offset="0.76" stop-color="#110811"/>
<stop offset="0.89" stop-color="#040204"/>
<stop offset="1"/>
</radialGradient>
<linearGradient id="paint2_linear_6242_15807" x1="748.296" y1="175.854" x2="748.296" y2="122.632" gradientUnits="userSpaceOnUse">
<stop stop-color="#CF6800"/>
<stop offset="0.4" stop-color="#E67E00"/>
<stop offset="1" stop-color="#FFA900"/>
</linearGradient>
<linearGradient id="paint3_linear_6242_15807" x1="691.629" y1="330.399" x2="804.963" y2="330.399" gradientUnits="userSpaceOnUse">
<stop stop-color="#CF6800"/>
<stop offset="0.46" stop-color="#C74A00"/>
<stop offset="1" stop-color="#FFA900"/>
</linearGradient>
<linearGradient id="paint4_linear_6242_15807" x1="822.913" y1="306.168" x2="822.913" y2="84.0001" gradientUnits="userSpaceOnUse">
<stop stop-color="#CF6800"/>
<stop offset="0.4" stop-color="#E67E00"/>
<stop offset="1" stop-color="#FFA900"/>
</linearGradient>
<linearGradient id="paint5_linear_6242_15807" x1="332.724" y1="175.854" x2="332.724" y2="122.632" gradientUnits="userSpaceOnUse">
<stop stop-color="#CF6800"/>
<stop offset="0.4" stop-color="#E67E00"/>
<stop offset="1" stop-color="#FFA900"/>
</linearGradient>
<linearGradient id="paint6_linear_6242_15807" x1="276.057" y1="330.401" x2="389.391" y2="330.401" gradientUnits="userSpaceOnUse">
<stop stop-color="#FFA900"/>
<stop offset="0.54" stop-color="#C74A00"/>
<stop offset="1" stop-color="#CF6800"/>
</linearGradient>
<linearGradient id="paint7_linear_6242_15807" x1="258.085" y1="306.169" x2="258.085" y2="84.0008" gradientUnits="userSpaceOnUse">
<stop stop-color="#CF6800"/>
<stop offset="0.4" stop-color="#E67E00"/>
<stop offset="1" stop-color="#FFA900"/>
</linearGradient>
<linearGradient id="paint8_linear_6242_15807" x1="540.489" y1="335.644" x2="540.489" y2="144.305" gradientUnits="userSpaceOnUse">
<stop stop-color="#CF6800"/>
<stop offset="0.28" stop-color="#E67E00"/>
<stop offset="1" stop-color="#FFA900"/>
</linearGradient>
<linearGradient id="paint9_linear_6242_15807" x1="540.488" y1="316.128" x2="540.488" y2="163.907" gradientUnits="userSpaceOnUse">
<stop stop-color="#B300A1"/>
<stop offset="0.39" stop-color="#8F0062"/>
<stop offset="1" stop-color="#FF52F9"/>
</linearGradient>
<linearGradient id="paint10_linear_6242_15807" x1="298.602" y1="305.512" x2="298.602" y2="169.445" gradientUnits="userSpaceOnUse">
<stop stop-color="#CF6800"/>
<stop offset="0.28" stop-color="#E67E00"/>
<stop offset="1" stop-color="#FFA900"/>
</linearGradient>
<linearGradient id="paint11_linear_6242_15807" x1="782.355" y1="305.512" x2="782.355" y2="169.445" gradientUnits="userSpaceOnUse">
<stop stop-color="#CF6800"/>
<stop offset="0.28" stop-color="#E67E00"/>
<stop offset="1" stop-color="#FFA900"/>
</linearGradient>
<linearGradient id="paint12_linear_6242_15807" x1="540.32" y1="318.222" x2="540.32" y2="239.965" gradientUnits="userSpaceOnUse">
<stop stop-color="#FF9600"/>
<stop offset="0.47" stop-color="#FFA200"/>
<stop offset="1" stop-color="#B03900"/>
</linearGradient>
<linearGradient id="paint13_linear_6242_15807" x1="540.891" y1="241.718" x2="540.891" y2="163.462" gradientUnits="userSpaceOnUse">
<stop stop-color="#FF9600"/>
<stop offset="0.47" stop-color="#FFA200"/>
<stop offset="1" stop-color="#B03900"/>
</linearGradient>
<radialGradient id="paint14_radial_6242_15807" cx="0" cy="0" r="1" gradientUnits="userSpaceOnUse" gradientTransform="translate(545.113 206.058) scale(190.976 36.1797)">
<stop stop-color="#FF61BB"/>
<stop offset="1"/>
</radialGradient>
<clipPath id="clip0_6242_15807">
<rect width="689" height="273" fill="white" transform="translate(196 84)"/>
</clipPath>
</defs>
</svg>
