<svg width="1225" height="564" viewBox="0 0 1225 564" fill="none" xmlns="http://www.w3.org/2000/svg">
<path d="M568.765 404.206C621.224 280.965 569.736 144.713 453.764 99.8801C337.791 55.0471 201.25 118.61 148.791 241.851C96.332 365.093 147.82 501.344 263.793 546.177C379.765 591.011 516.306 527.448 568.765 404.206Z" fill="url(#paint0_radial_288_7826)" fill-opacity="0.7" style="mix-blend-mode:screen"/>
<path d="M655.256 405.689C602.35 281.398 654.276 143.986 771.236 98.7717C888.196 53.557 1025.9 117.661 1078.81 241.952C1131.71 366.242 1079.78 503.654 962.825 548.869C845.865 594.083 708.161 529.979 655.256 405.689Z" fill="url(#paint1_radial_288_7826)" fill-opacity="0.7" style="mix-blend-mode:screen"/>
<g style="mix-blend-mode:hard-light" clip-path="url(#clip0_288_7826)">
<path d="M883.963 277.485C883.963 277.485 874.671 281.756 869.104 278.817C868.977 278.732 868.807 278.648 868.659 278.563C868.532 278.457 868.363 278.373 868.214 278.225C868.193 278.225 868.193 278.204 868.193 278.204C867.855 277.992 867.601 277.759 867.325 277.463C862.287 272.156 854.73 260.294 842.961 255.452C831.17 250.61 818.385 252.682 795.206 249.764C794.444 249.658 793.682 249.552 792.962 249.404H792.877C771.942 245.704 770.63 230.543 770.63 230.543C780.198 230.903 854.286 219.463 860.446 234.053C860.53 234.265 860.615 234.497 860.657 234.709C861.716 238.599 862.266 242.913 862.88 247.269C862.901 247.48 862.944 247.734 862.986 247.945C863.155 249.087 863.325 250.271 863.515 251.392V251.561C863.6 252.026 863.642 252.492 863.769 252.936C863.769 253.02 863.769 253.105 863.79 253.189C864.256 255.896 864.849 258.56 865.674 261.055C868.193 268.794 873.041 275.18 883.942 277.485H883.963Z" fill="url(#paint2_linear_288_7826)"/>
<path d="M883.963 410.168C882.926 410.379 881.91 410.633 880.979 410.971C861.61 416.955 864.679 438.058 860.679 452.923C856.466 468.464 780.346 456.729 770.651 457.046C770.651 457.046 772.048 440.785 795.227 437.867C818.406 434.928 831.213 437.022 842.982 432.18C854.73 427.337 862.309 415.475 867.347 410.168C868.913 408.519 871.093 407.927 873.337 407.842H873.358C873.358 407.842 873.443 407.821 873.485 407.821C875.094 407.757 876.745 408.011 878.227 408.349C881.423 409.026 883.963 410.189 883.963 410.189V410.168Z" fill="url(#paint3_linear_288_7826)"/>
<path d="M963.407 246.465C959.872 257.524 945.414 260.379 939.085 260.104H939.064C937.286 260.04 936.164 259.744 936.079 259.279C935.719 257.207 953.374 245.091 935.042 240.249C917.705 235.682 882.757 259.491 898.252 279.028C898.887 279.853 899.628 280.678 900.475 281.481C900.75 281.756 901.046 282.031 901.343 282.306C901.406 282.327 901.427 282.369 901.448 282.39H901.47C924.289 302.478 925.855 335.844 925.855 335.844C928.459 329.607 931.592 325.991 931.592 325.991C931.592 333.793 941.562 343.076 942.366 358.152V358.258C942.705 365.151 941.096 373.292 935.741 383.018C918.679 414.038 887.71 403.317 873.57 407.736C873.464 407.758 873.401 407.8 873.401 407.8H873.379L873.358 407.821L867.368 410.147C867.368 410.147 889.721 382.342 887.647 343.943C886.186 316.856 875.75 295.627 869.146 278.796C867.96 275.814 866.923 273.023 866.076 270.338C864.891 266.637 864.087 263.17 863.769 259.935C863.43 256.403 863.409 253.697 863.557 251.561V251.392C864.15 242.215 867.77 243.653 864.108 233.292C859.62 220.521 839.892 189.036 839.892 189.036C839.892 189.036 845.099 186.626 862.753 189.036C880.407 191.468 916.054 205.296 903.205 215.319C902.38 215.975 901.597 216.651 900.856 217.391C900.856 217.391 900.792 217.476 900.665 217.645C899.183 219.041 897.934 220.542 896.77 222.212H896.749C890.716 230.755 888.472 241.158 887.88 244.583C887.795 244.964 887.774 245.26 887.753 245.45C888.515 242.469 895.225 218.597 919.886 220.88C939.403 222.656 956.464 228.069 962.116 236.527C964.085 239.488 964.656 242.765 963.513 246.444L963.407 246.465Z" fill="url(#paint4_linear_288_7826)"/>
<g style="mix-blend-mode:multiply" opacity="0.5">
<path d="M880.979 410.929C861.61 416.956 864.679 438.058 860.679 452.923C856.466 468.464 780.346 456.729 770.651 457.046C770.651 457.046 843.596 454.382 852.889 449.92C862.182 445.459 862.668 424.631 862.922 420.466C863.134 416.681 857.609 422.052 856.508 423.088C857.715 421.608 866.161 411.352 868.341 410.147C870.691 408.836 881 410.908 881 410.908L880.979 410.929Z" fill="#BE2F55"/>
</g>
<g style="mix-blend-mode:multiply" opacity="0.5">
<path d="M935.719 383.039C918.658 414.059 887.689 403.338 873.549 407.758C875.2 407.102 888.536 401.816 896.982 398.264C905.999 394.458 920.69 393.421 930.216 386.845C939.339 380.544 942.133 359.97 942.345 358.279C942.684 365.172 941.075 373.313 935.719 383.039Z" fill="#BE2F55"/>
</g>
<g style="mix-blend-mode:multiply" opacity="0.5">
<path d="M928.48 362.635C919.653 377.161 905.174 382.003 903.883 382.342C904.878 381.58 916.202 374.412 921.198 361.937C926.405 348.996 925.855 335.844 925.855 335.844C928.459 329.606 931.592 325.991 931.592 325.991C930.004 335.844 936.884 348.827 928.48 362.635Z" fill="#BE2F55"/>
</g>
<g style="mix-blend-mode:multiply" opacity="0.5">
<path d="M945.647 241.327C945.647 249.891 936.079 259.279 936.079 259.279C935.719 257.207 953.374 245.091 935.042 240.249C916.689 235.407 878.65 262.345 901.448 282.39C900.602 281.756 886.631 271.247 887.922 262.472C889.213 253.38 890.25 245.091 903.904 236.802C917.557 228.492 945.668 232.785 945.668 241.327H945.647Z" fill="#BE2F55"/>
</g>
<g style="mix-blend-mode:multiply" opacity="0.5">
<path d="M963.407 246.465C959.872 257.524 945.414 260.379 939.085 260.104C940.461 259.279 957.713 260.104 962.01 236.591C963.979 239.488 964.55 242.807 963.407 246.465Z" fill="#BE2F55"/>
</g>
<g style="mix-blend-mode:multiply" opacity="0.5">
<path d="M860.657 234.73C861.716 238.621 862.266 242.934 862.88 247.29C862.16 242.829 861.356 238.261 860.446 234.075C860.53 234.286 860.615 234.519 860.657 234.73Z" fill="#BE2F55"/>
</g>
<g style="mix-blend-mode:multiply" opacity="0.3">
<path d="M865.674 261.055C865.505 263.254 865.547 265.77 865.844 268.71C865.505 265.94 864.806 260.04 863.79 253.189C863.769 253.105 863.769 253.02 863.769 252.936C863.684 252.449 863.6 251.942 863.515 251.455V251.392C864.108 242.215 867.728 243.653 864.065 233.292C859.578 220.521 839.849 189.036 839.849 189.036C839.849 189.036 864.573 199.693 873.379 209.547C882.185 219.4 878.841 237.31 873.379 244.562C869.357 249.933 866.288 253.76 865.674 261.034V261.055Z" fill="#BE2F55"/>
</g>
<g style="mix-blend-mode:multiply" opacity="0.5">
<path d="M900.792 217.434C900.792 217.434 897.68 222.107 889.531 228.852C881.402 235.597 880.704 256.34 880.704 256.34L887.795 244.562C887.795 244.562 891.245 228.683 900.771 217.455L900.792 217.434Z" fill="#BE2F55"/>
</g>
<g style="mix-blend-mode:multiply" opacity="0.5">
<path d="M868.786 278.986C868.786 278.986 868.595 278.711 868.236 278.246C868.214 278.246 868.214 278.225 868.214 278.225C865.336 274.503 852.402 258.222 842.495 254.077C834.832 250.906 808.817 249.806 792.983 249.426H792.898C771.963 245.725 770.651 230.564 770.651 230.564C770.651 230.564 812.373 236.802 835.721 239.044C857.588 241.158 867.474 274.271 868.68 278.542C868.765 278.838 868.786 278.986 868.786 278.986Z" fill="#BE2F55"/>
</g>
<g style="mix-blend-mode:multiply" opacity="0.5">
<path d="M878.798 291.419C878.798 291.419 900.792 312.183 907.968 326.012C915.144 339.819 895.373 369.02 895.373 369.02C895.373 369.02 904.751 351.935 903.205 336.626C901.639 321.318 878.798 291.419 878.798 291.419Z" fill="#BE2F55"/>
</g>
<g style="mix-blend-mode:multiply" opacity="0.3">
<path d="M839.849 189.079C839.849 189.079 856.657 215.806 862.901 228.894C869.146 241.983 878.396 228.323 877.655 217.434C876.915 206.544 839.87 189.079 839.87 189.079H839.849Z" fill="#BE2F55"/>
</g>
<g style="mix-blend-mode:multiply" opacity="0.3">
<path d="M770.63 230.565C770.63 230.565 823.91 237.585 834.388 238.917C844.887 240.249 848.528 257.355 848.528 257.355C848.528 257.355 837.246 251.181 818.914 250.546C800.582 249.912 776.662 249.024 770.63 230.543V230.565Z" fill="#BE2F55"/>
</g>
<g style="mix-blend-mode:multiply" opacity="0.3">
<path d="M903.883 251.012C888.515 258.476 896.474 238.452 913.07 234.244C929.687 230.036 938.492 238.219 939.085 239.382C939.678 240.545 928.903 238.473 919.441 241.708C909.958 244.943 903.883 250.991 903.883 250.991V251.012Z" fill="#BE2F55"/>
</g>
<g style="mix-blend-mode:multiply" opacity="0.5">
<path d="M909.535 379.974C909.535 379.974 919.462 374.56 926.384 365.743C933.306 356.926 929.157 332.208 929.157 332.208C929.157 332.208 925.135 334.301 925.834 335.844C926.554 337.388 924.331 368.09 909.513 379.952L909.535 379.974Z" fill="#BE2F55"/>
</g>
<g style="mix-blend-mode:multiply" opacity="0.5">
<path d="M880.704 294.083C880.704 294.083 897.448 308.441 903.861 318.717C910.275 328.993 909.852 336.436 907.164 341.976C904.475 347.516 903.015 349.06 903.015 349.06C903.015 349.06 905.872 333.497 897.384 318.463C888.896 303.429 880.682 294.083 880.682 294.083H880.704Z" fill="#BE2F55"/>
</g>
<g style="mix-blend-mode:soft-light" opacity="0.5">
<path d="M812.331 437.339C812.331 437.339 792.348 451.464 791.332 453.811C790.316 456.158 835.87 453.346 846.687 451.506C857.525 449.666 858.435 433.068 858.498 431.249C858.562 429.431 843.511 433.575 836.505 434.886C829.498 436.176 812.352 437.339 812.352 437.339H812.331Z" fill="white"/>
</g>
<g style="mix-blend-mode:soft-light" opacity="0.5">
<path d="M922.934 372.213C914.89 381.411 922.976 386.211 925.538 387.184C928.099 388.156 939.001 379.741 940.546 367.519C942.091 355.297 933.327 357.221 931.782 358.258C930.216 359.315 922.955 372.192 922.955 372.192L922.934 372.213Z" fill="white"/>
</g>
<g style="mix-blend-mode:soft-light" opacity="0.5">
<path d="M877.105 277.041C874.713 280.889 893.193 302.478 901.914 312.522C910.635 322.544 919.293 323.538 921.368 322.396C923.442 321.255 918.171 303.387 910.678 292.667C903.184 281.925 878.523 274.778 877.105 277.062V277.041Z" fill="white"/>
</g>
<g style="mix-blend-mode:soft-light" opacity="0.5">
<path d="M843.511 190.115C843.511 190.115 870.903 204.155 878.227 211.661C885.551 219.168 904.92 215.446 905.491 208.87C906.063 202.294 874.925 187.514 843.511 190.115Z" fill="white"/>
</g>
<g style="mix-blend-mode:soft-light" opacity="0.5">
<path d="M784.579 229.529C784.579 229.529 801.704 235.513 824.82 238.092C847.914 240.693 857.017 232.32 857.017 232.32C857.017 232.32 847.935 226.315 820.798 226.632C793.682 226.949 784.579 229.529 784.579 229.529Z" fill="white"/>
</g>
<g style="mix-blend-mode:soft-light" opacity="0.5">
<path d="M912.117 221.07C896.918 223.312 902.189 233.673 903.036 235.237C903.883 236.802 912.159 231.347 928.628 232.594C945.097 233.842 949.415 232.827 950.283 230.543C951.151 228.259 932.121 218.11 912.117 221.049V221.07Z" fill="white"/>
</g>
<path d="M822.195 454.192C822.195 454.192 847.851 450.893 852.444 448.504C857.038 446.114 859.07 442.351 859.07 442.351C859.07 442.351 856.995 447.954 852.846 449.942C848.676 451.929 822.195 454.192 822.195 454.192Z" fill="#FFD134"/>
<path d="M907.968 394.944C907.968 394.944 922.045 389.404 929.306 383.801C936.566 378.197 939.89 369.93 939.89 369.93C939.89 369.93 937.011 381.115 931.465 385.831C925.919 390.546 907.968 394.944 907.968 394.944Z" fill="#FFD134"/>
<path d="M898.379 240.671C898.379 240.671 903.078 235.512 911.503 232.319C919.949 229.126 932.714 233.186 932.714 233.186C932.714 233.186 921.791 231.093 912.794 233.673C903.798 236.252 898.379 240.671 898.379 240.671Z" fill="#FFD134"/>
<path d="M808.161 235.491C808.161 235.491 834.219 237.225 841.987 237.986C849.756 238.748 852.868 248.347 852.868 248.347C852.868 248.347 846.051 239.34 808.182 235.512L808.161 235.491Z" fill="#FFD134"/>
<path d="M864.425 202.209C864.425 202.209 874.798 207.009 878.227 211.661C881.656 216.313 878.777 226.611 878.777 226.611C878.777 226.611 879.222 212.084 864.425 202.209Z" fill="#FFD134"/>
<path d="M809.579 235.491C807.589 235.09 816.67 232.912 821.518 234.244C826.365 235.576 823.529 238.261 809.579 235.491Z" fill="#FFF9C7"/>
<path d="M912.816 233.673C905.026 233.99 912.9 226.695 923.103 228.027C933.306 229.359 921.368 233.334 912.816 233.673Z" fill="#FFF9C7"/>
<path d="M877.55 209.653C874.48 208.574 877.042 217.434 879.92 217.434C882.799 217.434 880.958 210.858 877.55 209.653Z" fill="#FFF9C7"/>
<path d="M927.951 388.072C921.876 389.277 933.793 377.796 934.852 378.261C935.91 378.726 933.158 387.036 927.951 388.072Z" fill="#FFF9C7"/>
<g style="mix-blend-mode:multiply" opacity="0.5">
<path d="M791.311 438.354C791.311 438.354 838.135 441.631 846.623 440.765C855.111 439.898 864.701 414.46 864.701 414.46C864.701 414.46 854.921 422.961 843.151 426.238C831.382 429.516 791.311 438.354 791.311 438.354Z" fill="#BE2F55"/>
</g>
<g style="mix-blend-mode:multiply" opacity="0.2">
<path d="M876.893 399.109C876.893 399.109 902.867 384.308 913.281 374.201C923.696 364.094 926.427 343.985 925.855 337.282C925.284 330.579 914.869 338.974 911.757 339.629C908.645 340.285 900.242 376.231 876.893 399.109Z" fill="#BE2F55"/>
</g>
<g style="mix-blend-mode:multiply" opacity="0.5">
<path d="M880.704 256.319C874.396 248.453 867.029 258.983 868.765 271.691C869.781 279.071 880.365 292.921 880.365 292.921C880.365 292.921 873.506 282.729 874.438 277.02C875.369 271.311 891.732 278.14 894.865 278.965C897.998 279.79 883.646 263.191 883.942 254.014C884.239 244.816 880.704 256.319 880.704 256.319Z" fill="#BE2F55"/>
</g>
<path d="M882.969 286.619C880.132 286.683 885.996 290.637 886.863 291.419C887.731 292.202 892.833 286.408 882.969 286.619Z" fill="#FFF9C7"/>
<g style="mix-blend-mode:multiply" opacity="0.5">
<path d="M874.523 407.356C874.523 407.356 891.055 399.617 895.31 399.11C899.564 398.602 917.219 399.807 917.219 399.807C917.219 399.807 910.529 405.643 896.834 406.066C883.138 406.489 882.185 405.58 874.523 407.356Z" fill="#BE2F55"/>
</g>
<path d="M355.058 277.485C355.058 277.485 364.35 281.756 369.918 278.817C370.045 278.733 370.214 278.648 370.362 278.563C370.489 278.458 370.659 278.373 370.807 278.225C370.828 278.225 370.828 278.204 370.828 278.204C371.167 277.993 371.421 277.76 371.696 277.464C376.734 272.157 384.291 260.294 396.06 255.452C407.851 250.61 420.636 252.682 443.815 249.764C444.578 249.659 445.34 249.553 446.059 249.405H446.144C467.079 245.705 468.392 230.544 468.392 230.544C458.824 230.903 384.735 219.464 378.575 234.054C378.491 234.265 378.406 234.498 378.364 234.709C377.305 238.6 376.755 242.913 376.141 247.269C376.12 247.481 376.078 247.734 376.035 247.946C375.866 249.088 375.697 250.272 375.506 251.392V251.562C375.421 252.027 375.379 252.492 375.252 252.936C375.252 253.021 375.252 253.105 375.231 253.19C374.765 255.896 374.172 258.561 373.347 261.056C370.828 268.795 365.98 275.18 355.079 277.485H355.058Z" fill="url(#paint5_linear_288_7826)"/>
<path d="M355.058 410.168C356.095 410.38 357.111 410.634 358.042 410.972C377.411 416.956 374.342 438.058 378.343 452.923C382.555 468.464 458.675 456.729 468.37 457.046C468.37 457.046 466.973 440.786 443.794 437.868C420.615 434.929 407.809 437.022 396.039 432.18C384.291 427.338 376.713 415.476 371.675 410.168C370.108 408.519 367.928 407.927 365.684 407.842H365.663C365.663 407.842 365.578 407.821 365.536 407.821C363.927 407.758 362.276 408.012 360.794 408.35C357.598 409.027 355.058 410.19 355.058 410.19V410.168Z" fill="url(#paint6_linear_288_7826)"/>
<path d="M275.593 246.466C279.128 257.524 293.586 260.379 299.915 260.104H299.936C301.714 260.04 302.836 259.744 302.921 259.279C303.281 257.207 285.626 245.091 303.958 240.249C321.295 235.682 356.243 259.491 340.748 279.028C340.113 279.853 339.372 280.678 338.525 281.481C338.25 281.756 337.954 282.031 337.658 282.306C337.594 282.327 337.573 282.369 337.552 282.39H337.531C314.711 302.478 313.145 335.844 313.145 335.844C310.541 329.607 307.408 325.991 307.408 325.991C307.408 333.793 297.438 343.076 296.634 358.152V358.258C296.295 365.151 297.904 373.292 303.259 383.018C320.321 414.038 351.29 403.317 365.43 407.737C365.536 407.758 365.599 407.8 365.599 407.8H365.621L365.642 407.821L371.632 410.147C371.632 410.147 349.279 382.342 351.353 343.943C352.814 316.856 363.25 295.627 369.854 278.796C371.04 275.814 372.077 273.023 372.924 270.338C374.109 266.638 374.913 263.17 375.231 259.935C375.57 256.404 375.591 253.697 375.443 251.561V251.392C374.85 242.215 371.23 243.653 374.892 233.292C379.443 220.542 399.172 189.079 399.172 189.079C399.172 189.079 393.965 186.668 376.31 189.079C358.656 191.51 323.009 205.339 335.858 215.362C336.684 216.017 337.467 216.694 338.208 217.434C338.208 217.434 338.271 217.518 338.398 217.688C339.88 219.083 341.129 220.584 342.293 222.255H342.315C348.347 230.797 350.591 241.2 351.184 244.626C351.269 245.007 351.29 245.303 351.311 245.493C350.549 242.511 343.839 218.639 319.178 220.923C299.661 222.699 282.599 228.112 276.947 236.57C275 239.509 274.428 242.807 275.593 246.466Z" fill="url(#paint7_linear_288_7826)"/>
<g style="mix-blend-mode:multiply" opacity="0.5">
<path d="M358.042 410.929C377.411 416.956 374.342 438.058 378.343 452.923C382.555 468.464 458.675 456.729 468.37 457.046C468.37 457.046 395.425 454.382 386.132 449.92C376.84 445.459 376.353 424.631 376.099 420.466C375.887 416.681 381.412 422.052 382.513 423.088C381.306 421.608 372.86 411.352 370.68 410.147C368.33 408.836 358.021 410.908 358.021 410.908L358.042 410.929Z" fill="#BE2F55"/>
</g>
<g style="mix-blend-mode:multiply" opacity="0.5">
<path d="M303.281 383.039C320.342 414.059 351.311 403.338 365.451 407.758C363.8 407.102 350.464 401.816 342.018 398.264C333.001 394.458 318.31 393.421 308.784 386.845C299.661 380.544 296.867 359.97 296.655 358.279C296.316 365.172 297.925 373.313 303.281 383.039Z" fill="#BE2F55"/>
</g>
<g style="mix-blend-mode:multiply" opacity="0.5">
<path d="M310.541 362.635C319.368 377.162 333.847 382.004 335.139 382.342C334.144 381.581 322.819 374.413 317.823 361.937C312.616 348.997 313.166 335.845 313.166 335.845C310.562 329.607 307.43 325.991 307.43 325.991C309.017 335.845 302.138 348.828 310.541 362.635Z" fill="#BE2F55"/>
</g>
<g style="mix-blend-mode:multiply" opacity="0.5">
<path d="M293.353 241.327C293.353 249.891 302.921 259.279 302.921 259.279C303.281 257.207 285.626 245.091 303.958 240.249C322.311 235.407 360.35 262.345 337.552 282.39C338.398 281.756 352.369 271.247 351.078 262.472C349.787 253.38 348.75 245.091 335.096 236.802C321.443 228.492 293.332 232.785 293.332 241.327H293.353Z" fill="#BE2F55"/>
</g>
<g style="mix-blend-mode:multiply" opacity="0.5">
<path d="M275.593 246.465C279.128 257.524 293.586 260.379 299.915 260.104C298.539 259.279 281.287 260.104 276.99 236.591C275 239.488 274.428 242.807 275.593 246.465Z" fill="#BE2F55"/>
</g>
<g style="mix-blend-mode:multiply" opacity="0.5">
<path d="M378.343 234.73C377.284 238.621 376.734 242.934 376.12 247.29C376.84 242.829 377.644 238.261 378.554 234.075C378.47 234.286 378.385 234.519 378.343 234.73Z" fill="#BE2F55"/>
</g>
<g style="mix-blend-mode:multiply" opacity="0.3">
<path d="M373.326 261.055C373.495 263.254 373.453 265.771 373.156 268.71C373.495 265.94 374.194 260.04 375.21 253.19C375.231 253.105 375.231 253.02 375.231 252.936C375.316 252.449 375.4 251.942 375.485 251.456V251.392C374.892 242.215 371.272 243.653 374.935 233.292C379.443 220.542 399.172 189.079 399.172 189.079C399.172 189.079 374.448 199.736 365.642 209.589C356.836 219.442 360.18 237.352 365.642 244.605C369.664 249.976 372.733 253.803 373.347 261.077L373.326 261.055Z" fill="#BE2F55"/>
</g>
<g style="mix-blend-mode:multiply" opacity="0.5">
<path d="M338.208 217.434C338.208 217.434 341.32 222.107 349.469 228.852C357.598 235.597 358.296 256.34 358.296 256.34L351.205 244.562C351.205 244.562 347.755 228.683 338.229 217.455L338.208 217.434Z" fill="#BE2F55"/>
</g>
<g style="mix-blend-mode:multiply" opacity="0.5">
<path d="M370.235 278.986C370.235 278.986 370.426 278.711 370.786 278.246C370.807 278.246 370.807 278.225 370.807 278.225C373.686 274.503 386.619 258.222 396.526 254.077C404.189 250.906 430.204 249.806 446.038 249.426H446.123C467.058 245.725 468.37 230.564 468.37 230.564C468.37 230.564 426.648 236.802 403.3 239.044C381.433 241.158 371.548 274.271 370.341 278.542C370.256 278.838 370.235 278.986 370.235 278.986Z" fill="#BE2F55"/>
</g>
<g style="mix-blend-mode:multiply" opacity="0.5">
<path d="M360.202 291.419C360.202 291.419 338.208 312.184 331.032 326.012C323.856 339.82 343.627 369.021 343.627 369.021C343.627 369.021 334.249 351.936 335.795 336.627C337.34 321.318 360.202 291.419 360.202 291.419Z" fill="#BE2F55"/>
</g>
<g style="mix-blend-mode:multiply" opacity="0.3">
<path d="M399.172 189.079C399.172 189.079 382.365 215.806 376.12 228.894C369.875 241.983 360.625 228.323 361.366 217.434C362.107 206.544 399.172 189.079 399.172 189.079Z" fill="#BE2F55"/>
</g>
<g style="mix-blend-mode:multiply" opacity="0.3">
<path d="M468.37 230.565C468.37 230.565 415.09 237.585 404.612 238.917C394.113 240.249 390.472 257.355 390.472 257.355C390.472 257.355 401.755 251.181 420.086 250.546C438.418 249.912 462.338 249.024 468.37 230.543V230.565Z" fill="#BE2F55"/>
</g>
<g style="mix-blend-mode:multiply" opacity="0.3">
<path d="M335.139 251.012C350.507 258.476 342.547 238.452 325.952 234.244C309.335 230.036 300.529 238.219 299.936 239.382C299.343 240.545 310.118 238.473 319.58 241.708C329.063 244.943 335.139 250.991 335.139 250.991V251.012Z" fill="#BE2F55"/>
</g>
<g style="mix-blend-mode:multiply" opacity="0.5">
<path d="M329.465 379.974C329.465 379.974 319.538 374.56 312.616 365.743C305.694 356.926 309.843 332.208 309.843 332.208C309.843 332.208 313.865 334.301 313.166 335.844C312.446 337.388 314.669 368.09 329.487 379.952L329.465 379.974Z" fill="#BE2F55"/>
</g>
<g style="mix-blend-mode:multiply" opacity="0.5">
<path d="M358.296 294.083C358.296 294.083 341.552 308.441 335.139 318.717C328.703 328.993 329.148 336.436 331.836 341.976C334.525 347.516 335.985 349.06 335.985 349.06C335.985 349.06 333.128 333.497 341.616 318.463C350.104 303.429 358.318 294.083 358.318 294.083H358.296Z" fill="#BE2F55"/>
</g>
<g style="mix-blend-mode:soft-light" opacity="0.5">
<path d="M426.669 437.339C426.669 437.339 446.652 451.464 447.668 453.811C448.684 456.158 403.13 453.346 392.314 451.506C381.497 449.666 380.565 433.068 380.502 431.249C380.438 429.431 395.489 433.575 402.495 434.886C409.502 436.176 426.648 437.339 426.648 437.339H426.669Z" fill="white"/>
</g>
<g style="mix-blend-mode:soft-light" opacity="0.5">
<path d="M316.066 372.214C324.11 381.412 316.024 386.211 313.462 387.184C310.901 388.157 300 379.741 298.454 367.519C296.909 355.298 305.673 357.222 307.218 358.258C308.784 359.315 316.045 372.192 316.045 372.192L316.066 372.214Z" fill="white"/>
</g>
<g style="mix-blend-mode:soft-light" opacity="0.5">
<path d="M361.895 277.041C364.287 280.889 345.807 302.478 337.086 312.522C328.365 322.544 319.707 323.538 317.633 322.396C315.558 321.255 320.829 303.387 328.322 292.667C335.816 281.925 360.477 274.778 361.895 277.062V277.041Z" fill="white"/>
</g>
<g style="mix-blend-mode:soft-light" opacity="0.5">
<path d="M395.51 190.115C395.51 190.115 368.118 204.155 360.794 211.661C353.47 219.168 334.101 215.446 333.53 208.87C332.958 202.294 364.096 187.514 395.51 190.115Z" fill="white"/>
</g>
<g style="mix-blend-mode:soft-light" opacity="0.5">
<path d="M454.421 229.529C454.421 229.529 437.296 235.513 414.18 238.092C391.086 240.693 381.984 232.32 381.984 232.32C381.984 232.32 391.065 226.315 418.202 226.632C445.318 226.949 454.421 229.529 454.421 229.529Z" fill="white"/>
</g>
<g style="mix-blend-mode:soft-light" opacity="0.5">
<path d="M326.883 221.071C342.082 223.312 336.811 233.673 335.964 235.238C335.117 236.802 326.841 231.347 310.372 232.595C293.903 233.842 289.585 232.827 288.717 230.544C287.849 228.26 306.879 218.11 326.883 221.05V221.071Z" fill="white"/>
</g>
<path d="M416.805 454.192C416.805 454.192 391.149 450.893 386.556 448.504C381.941 446.114 379.93 442.351 379.93 442.351C379.93 442.351 382.005 447.954 386.154 449.942C390.324 451.929 416.805 454.192 416.805 454.192Z" fill="#FFD134"/>
<path d="M331.032 394.944C331.032 394.944 316.955 389.404 309.694 383.801C302.434 378.197 299.11 369.93 299.11 369.93C299.11 369.93 301.989 381.115 307.535 385.831C313.081 390.546 331.032 394.944 331.032 394.944Z" fill="#FFD134"/>
<path d="M340.621 240.672C340.621 240.672 335.922 235.513 327.497 232.32C319.051 229.127 306.286 233.187 306.286 233.187C306.286 233.187 317.209 231.093 326.206 233.673C335.202 236.253 340.621 240.672 340.621 240.672Z" fill="#FFD134"/>
<path d="M430.861 235.491C430.861 235.491 404.803 237.225 397.034 237.986C389.265 238.748 386.154 248.347 386.154 248.347C386.154 248.347 392.97 239.34 430.839 235.512L430.861 235.491Z" fill="#FFD134"/>
<path d="M374.596 202.209C374.596 202.209 364.223 207.009 360.794 211.661C357.365 216.313 360.244 226.611 360.244 226.611C360.244 226.611 359.799 212.084 374.596 202.209Z" fill="#FFD134"/>
<path d="M429.421 235.491C431.411 235.09 422.33 232.912 417.482 234.244C412.635 235.576 415.471 238.261 429.421 235.491Z" fill="#FFF9C7"/>
<path d="M326.184 233.673C333.974 233.99 326.1 226.695 315.897 228.027C305.694 229.36 317.633 233.335 326.184 233.673Z" fill="#FFF9C7"/>
<path d="M361.472 209.653C364.541 208.574 361.98 217.434 359.101 217.434C356.222 217.434 358.064 210.858 361.472 209.653Z" fill="#FFF9C7"/>
<path d="M311.049 388.072C317.125 389.277 305.207 377.796 304.148 378.261C303.09 378.726 305.842 387.036 311.049 388.072Z" fill="#FFF9C7"/>
<g style="mix-blend-mode:multiply" opacity="0.5">
<path d="M447.689 438.354C447.689 438.354 400.865 441.631 392.377 440.765C383.889 439.898 374.299 414.46 374.299 414.46C374.299 414.46 384.079 422.961 395.849 426.238C407.618 429.516 447.689 438.354 447.689 438.354Z" fill="#BE2F55"/>
</g>
<g style="mix-blend-mode:multiply" opacity="0.2">
<path d="M362.107 399.109C362.107 399.109 336.133 384.308 325.719 374.201C315.304 364.094 312.573 343.985 313.145 337.282C313.716 330.579 324.131 338.974 327.243 339.629C330.355 340.285 338.758 376.231 362.107 399.109Z" fill="#BE2F55"/>
</g>
<g style="mix-blend-mode:multiply" opacity="0.5">
<path d="M358.296 256.319C364.605 248.453 371.971 258.983 370.235 271.691C369.219 279.071 358.635 292.921 358.635 292.921C358.635 292.921 365.494 282.729 364.562 277.02C363.631 271.311 347.268 278.14 344.135 278.965C341.002 279.79 355.354 263.191 355.058 254.014C354.761 244.816 358.296 256.319 358.296 256.319Z" fill="#BE2F55"/>
</g>
<path d="M356.053 286.619C358.889 286.683 353.026 290.637 352.158 291.419C351.29 292.202 346.188 286.408 356.053 286.619Z" fill="#FFF9C7"/>
<g style="mix-blend-mode:multiply" opacity="0.5">
<path d="M364.478 407.356C364.478 407.356 347.945 399.617 343.69 399.11C339.436 398.602 321.781 399.807 321.781 399.807C321.781 399.807 328.471 405.643 342.166 406.066C355.862 406.489 356.815 405.58 364.478 407.356Z" fill="#BE2F55"/>
</g>
<path d="M903.883 343.964C903.883 349.61 901.745 356.608 898.294 364.199C898.294 364.199 898.294 364.221 898.273 364.263C895.034 371.41 890.61 379.107 885.678 386.592C872.829 406.193 856.657 424.695 849.417 429.981C842.897 434.738 836.166 439.665 693.176 439.665C654.861 439.665 622.665 439.263 619.489 439.2C616.314 439.263 584.139 439.665 545.803 439.665C402.792 439.665 396.081 434.738 389.562 429.981C377.94 421.502 343.309 379.022 336.345 352.422C336.324 352.401 336.324 352.358 336.324 352.358C335.52 349.356 335.096 346.522 335.096 343.985C335.096 319.14 376.628 267.483 389.562 258.01C396.081 253.253 402.792 248.326 545.803 248.326C584.118 248.326 616.314 248.728 619.489 248.77C622.665 248.749 654.84 248.326 693.176 248.326C836.187 248.326 842.897 253.253 849.417 258.01C862.351 267.483 903.883 319.119 903.883 343.985V343.964Z" fill="url(#paint8_linear_288_7826)"/>
<path d="M838.071 275.941C826.725 267.652 619.489 267.906 619.489 267.906C619.489 267.906 412.254 267.843 400.908 276.131C389.562 284.42 354.274 328.74 354.274 343.964C354.274 359.188 389.562 404.903 400.908 413.213C412.254 421.502 619.489 420.043 619.489 420.043C619.489 420.043 827.191 420.36 838.537 412.071C849.883 403.782 884.683 359.188 884.683 343.985C884.683 328.782 849.396 284.272 838.05 275.962L838.071 275.941Z" fill="url(#paint9_linear_288_7826)"/>
<path d="M400.908 273.446C400.908 273.446 365.853 313.072 388.651 343.964C388.651 343.964 369.833 368.999 395.446 409.513C395.446 409.513 353.428 369.021 354.274 343.964C355.375 311.295 400.908 273.446 400.908 273.446Z" fill="url(#paint10_linear_288_7826)"/>
<path d="M838.071 273.446C838.071 273.446 874.544 320.367 850.327 343.964C850.327 343.964 873.125 369.084 843.532 409.513C843.532 409.513 884.408 369.993 884.704 343.964C885.043 315.207 838.071 273.446 838.071 273.446Z" fill="url(#paint11_linear_288_7826)"/>
<path d="M388.673 343.964H394.261C394.261 343.964 383.846 366.272 388.673 383.378C398.41 417.949 414.138 409.576 423.24 411.817C439.603 415.835 732.929 418.309 831.043 410.147C854.709 408.18 853.63 381.475 852.846 369.02C852.063 356.566 838.05 344.239 838.05 344.239L850.306 343.964C850.306 343.964 859.133 358.85 858.456 374.18C857.779 389.51 848.93 409.872 838.071 414.503C825.857 419.683 729.796 421.777 625.205 422.199C517.523 422.622 408.168 418.626 400.929 414.503C386.662 406.383 382.936 388.051 380.523 374.011C378.089 359.97 388.694 343.985 388.694 343.985L388.673 343.964Z" fill="url(#paint12_linear_288_7826)"/>
<path d="M850.306 345.719L838.05 344.26C838.05 344.26 852.042 333.095 852.846 320.662C853.418 311.528 852.91 295.289 843.257 286.196C839.786 282.919 835.065 280.551 828.799 279.811C723.425 267.547 439.603 273.848 423.24 277.844C416.784 279.43 406.962 275.687 398.325 285.731C394.79 289.812 391.467 296.24 388.651 306.284C383.825 323.411 394.24 343.943 394.24 343.943H388.651C388.651 343.943 378.046 329.712 380.481 315.672C382.089 306.411 384.227 295.331 389.604 286.492C392.377 281.925 396.018 277.95 400.887 275.18C408.126 271.057 517.502 267.06 625.162 267.462C723.065 267.864 813.495 269.725 834.663 274.228C836.124 274.524 837.246 274.863 838.029 275.18C848.909 279.768 858.477 300.215 859.557 317.66C860.509 332.99 850.264 345.676 850.264 345.676L850.306 345.719Z" fill="url(#paint13_linear_288_7826)"/>
<g style="mix-blend-mode:multiply" opacity="0.5">
<path d="M897.68 365.215L885.657 386.571C872.808 406.172 856.635 424.674 849.396 429.96C842.876 434.717 836.145 439.644 693.154 439.644C654.84 439.644 622.643 439.242 619.468 439.179C616.293 439.242 584.118 439.644 545.782 439.644C402.771 439.644 396.06 434.717 389.541 429.96C377.919 421.481 343.288 379.001 336.324 352.401C337.255 354.24 367.907 413.361 400.887 427.126C434.375 441.145 700.881 443.556 839.807 427.126C861.97 424.505 892.918 373.123 897.659 365.236L897.68 365.215Z" fill="#BE2F55"/>
</g>
<g style="mix-blend-mode:multiply" opacity="0.5">
<path d="M873.485 407.821C875.094 407.758 876.745 408.012 878.227 408.35L873.485 407.821Z" fill="#BE2F55"/>
</g>
<g style="mix-blend-mode:multiply" opacity="0.5">
<path d="M866.013 270.063C865.95 269.598 865.907 269.154 865.844 268.731C865.928 269.323 865.971 269.788 866.013 270.063Z" fill="#BE2F55"/>
</g>
<g style="mix-blend-mode:multiply" opacity="0.5">
<path d="M838.071 344.26C838.071 344.26 850.73 358.49 853.016 371.621C855.281 384.773 858.265 379.022 858.519 369.02C858.752 359.019 850.327 345.719 850.327 345.719L838.071 344.26Z" fill="#BE2F55"/>
</g>
<g style="mix-blend-mode:multiply" opacity="0.5">
<path d="M394.261 343.964H388.673C388.673 343.964 381.2 356.334 380.671 363.332C380.142 370.331 384.63 375.491 386.132 376.548C387.635 377.605 387.085 353.12 394.261 343.964Z" fill="#BE2F55"/>
</g>
<g style="mix-blend-mode:multiply" opacity="0.5">
<path d="M846.686 286.62C846.686 286.62 845.565 286.493 843.257 286.218C827.424 284.42 756.151 277.274 623.363 277.274C500.228 277.274 423.113 283.427 398.325 285.753C392.525 286.302 389.583 286.62 389.583 286.62V286.514C392.377 281.947 396.018 277.971 400.908 275.201C408.147 271.078 517.523 267.082 625.184 267.484C723.086 267.885 813.516 269.746 834.684 274.25C843.532 277.633 846.686 286.62 846.686 286.62Z" fill="#BE2F55"/>
</g>
<g style="mix-blend-mode:multiply" opacity="0.5">
<path d="M893.32 324.511C891.584 308.293 876.068 305.396 867.791 310.428C865.992 311.507 861.843 331.319 860.911 334.893C859.98 338.466 867.96 341.553 870.564 340.983C873.168 340.412 872.279 335.865 872.893 334.089C873.528 332.313 870.331 336.415 865.717 336.521C861.123 336.627 866.267 316.285 868.871 313.854C871.474 311.422 888.176 320.937 891.161 325.737C894.124 330.537 880.852 343.604 880.852 343.604C880.852 343.604 894.124 356.672 891.161 361.472C888.197 366.272 871.474 375.787 868.871 373.355C866.267 370.924 861.123 350.561 865.717 350.688C870.31 350.794 873.506 354.896 872.893 353.12C872.258 351.343 873.147 346.797 870.564 346.226C867.96 345.656 859.98 348.743 860.911 352.316C861.843 355.868 865.695 376.738 867.791 376.781C869.887 376.802 891.584 378.916 893.32 362.698C894.145 354.917 885.615 343.647 885.615 343.647C885.615 343.647 894.166 332.377 893.32 324.595V324.511Z" fill="#BE2F55"/>
</g>
<path d="M863.854 365.553C863.854 365.553 866.055 375.724 867.431 376.358C870.098 377.563 884.281 375.66 887.901 372.467C891.499 369.253 892.939 364.771 892.939 364.771C892.939 364.771 892.029 369.528 889.7 372.256C885.022 377.775 872.3 378.536 867.749 377.627C864.383 376.95 863.854 365.532 863.854 365.532V365.553Z" fill="#FFD134"/>
<path d="M864.087 352.633C865.209 348.573 872.596 354.325 873.041 354.325C873.485 354.325 872.575 350.286 872.575 350.286C872.575 350.286 872.998 353.204 872.575 353.373C872.152 353.542 869.294 350.286 865.738 350.624C863.833 350.815 864.066 352.633 864.066 352.633H864.087Z" fill="#FFD134"/>
<path d="M861.525 337.219C861.525 337.219 862.436 338.995 864.849 340.306C867.262 341.617 870.374 342.272 871.199 341.49C872.85 339.925 872.575 336.373 872.575 336.373C872.575 336.373 872.279 340.179 869.802 340.75C867.325 341.321 862.795 339.502 861.525 337.219Z" fill="#FFD134"/>
<path d="M866.563 318.675C866.563 318.675 868.49 314.805 870.543 314.34C874.459 313.431 885.128 320.112 886.842 321.487C886.842 321.487 876.279 314.34 873.147 313.24C870.014 312.12 868.828 313.727 868.49 314.298C868.151 314.869 866.563 318.675 866.563 318.675Z" fill="#FFD134"/>
<path d="M880.873 343.562C880.873 343.562 887.52 350.54 889.171 353.585L880.873 343.562Z" fill="#FFD134"/>
<g style="mix-blend-mode:multiply" opacity="0.5">
<path d="M862.414 328C862.414 328 866.542 314.763 869.463 312.86C872.385 310.957 885.784 318.823 889.192 322.037C892.6 325.272 892.494 328 892.494 328C892.494 328 894.293 319.986 889.192 315.736C884.09 311.485 875.263 308.06 868.617 310.386C866.203 311.232 862.414 328 862.414 328Z" fill="#BE2F55"/>
</g>
<g style="mix-blend-mode:multiply" opacity="0.5">
<path d="M869.823 373.736C863.007 373.398 880.323 375.745 885.89 372.15C891.457 368.555 891.203 361.43 891.203 361.43C891.203 361.43 887.668 365.743 880.894 369.338C874.099 372.932 872.004 373.863 869.823 373.736Z" fill="#BE2F55"/>
</g>
<g style="mix-blend-mode:multiply" opacity="0.5">
<path d="M873.824 331.7C873.824 331.7 876.068 327.196 874.565 322.396C873.062 317.596 878.333 319.415 880.873 323.305C883.413 327.196 873.803 331.7 873.803 331.7H873.824Z" fill="#BE2F55"/>
</g>
<g style="mix-blend-mode:multiply" opacity="0.5">
<path d="M873.824 355.319C873.824 355.319 876.068 359.823 874.565 364.623C873.062 369.422 878.333 367.604 880.873 363.713C883.413 359.823 873.803 355.319 873.803 355.319H873.824Z" fill="#BE2F55"/>
</g>
<path d="M873.824 331.7C873.824 331.7 879.624 328.74 880.894 326.202C880.894 326.202 880.428 330.875 873.824 331.7Z" fill="#FFD134"/>
<path d="M874.311 365.955C874.311 365.955 874.078 367.16 875.369 367.498C876.639 367.837 879.37 365.532 879.37 365.532C879.37 365.532 877.401 368.281 875.517 368.281C873.782 368.281 874.332 365.976 874.332 365.976L874.311 365.955Z" fill="#FFD134"/>
<g style="mix-blend-mode:multiply" opacity="0.5">
<path d="M345.151 324.511C346.887 308.293 362.403 305.396 370.68 310.428C372.479 311.507 376.628 331.319 377.559 334.893C378.491 338.466 370.51 341.553 367.907 340.983C365.303 340.412 366.192 335.865 365.578 334.089C364.943 332.313 368.14 336.415 372.754 336.521C377.348 336.627 372.204 316.285 369.6 313.854C366.996 311.422 350.295 320.937 347.31 325.737C344.347 330.537 357.619 343.604 357.619 343.604C357.619 343.604 344.347 356.672 347.31 361.472C350.274 366.272 366.996 375.787 369.6 373.355C372.204 370.923 377.348 350.561 372.754 350.688C368.161 350.794 364.964 354.896 365.578 353.12C366.213 351.343 365.324 346.797 367.907 346.226C370.51 345.656 378.491 348.743 377.559 352.316C376.628 355.868 372.775 376.738 370.68 376.781C368.584 376.823 346.887 378.916 345.151 362.698C344.325 354.917 352.856 343.647 352.856 343.647C352.856 343.647 344.304 332.377 345.151 324.595V324.511Z" fill="#BE2F55"/>
</g>
<path d="M374.617 365.553C374.617 365.553 372.416 375.724 371.04 376.358C368.372 377.563 354.19 375.66 350.57 372.467C346.971 369.253 345.532 364.771 345.532 364.771C345.532 364.771 346.442 369.528 348.771 372.256C353.449 377.775 366.171 378.536 370.722 377.627C374.088 376.95 374.617 365.532 374.617 365.532V365.553Z" fill="#FFD134"/>
<path d="M374.384 352.633C373.262 348.573 365.875 354.325 365.43 354.325C364.986 354.325 365.896 350.286 365.896 350.286C365.896 350.286 365.472 353.204 365.896 353.373C366.319 353.542 369.177 350.286 372.733 350.624C374.638 350.815 374.405 352.633 374.405 352.633H374.384Z" fill="#FFD134"/>
<path d="M376.945 337.219C376.945 337.219 376.035 338.995 373.622 340.306C371.209 341.617 368.097 342.272 367.272 341.49C365.621 339.925 365.896 336.373 365.896 336.373C365.896 336.373 366.192 340.179 368.669 340.75C371.145 341.321 375.675 339.502 376.945 337.219Z" fill="#FFD134"/>
<path d="M371.907 318.675C371.907 318.675 369.981 314.805 367.928 314.34C364.012 313.431 353.343 320.112 351.628 321.487C351.628 321.487 362.191 314.34 365.324 313.24C368.457 312.12 369.643 313.727 369.981 314.298C370.32 314.869 371.907 318.675 371.907 318.675Z" fill="#FFD134"/>
<path d="M357.598 343.562C357.598 343.562 350.951 350.54 349.3 353.585L357.598 343.562Z" fill="#FFD134"/>
<g style="mix-blend-mode:multiply" opacity="0.5">
<path d="M376.056 328C376.056 328 371.929 314.763 369.007 312.86C366.107 310.957 352.687 318.823 349.279 322.037C345.871 325.272 345.977 328 345.977 328C345.977 328 344.177 319.986 349.279 315.736C354.38 311.485 363.207 308.06 369.854 310.386C372.267 311.232 376.056 328 376.056 328Z" fill="#BE2F55"/>
</g>
<g style="mix-blend-mode:multiply" opacity="0.5">
<path d="M368.648 373.736C375.464 373.398 358.148 375.745 352.581 372.15C347.014 368.555 347.268 361.43 347.268 361.43C347.268 361.43 350.803 365.743 357.577 369.338C364.372 372.932 366.467 373.863 368.648 373.736Z" fill="#BE2F55"/>
</g>
<g style="mix-blend-mode:multiply" opacity="0.5">
<path d="M364.647 331.7C364.647 331.7 362.403 327.196 363.906 322.396C365.409 317.596 360.138 319.415 357.598 323.305C355.058 327.196 364.668 331.7 364.668 331.7H364.647Z" fill="#BE2F55"/>
</g>
<g style="mix-blend-mode:multiply" opacity="0.5">
<path d="M364.647 355.319C364.647 355.319 362.403 359.823 363.906 364.623C365.409 369.422 360.138 367.604 357.598 363.713C355.058 359.823 364.668 355.319 364.668 355.319H364.647Z" fill="#BE2F55"/>
</g>
<path d="M364.647 331.7C364.647 331.7 358.847 328.74 357.577 326.202C357.577 326.202 358.042 330.875 364.647 331.7Z" fill="#FFD134"/>
<path d="M364.16 365.955C364.16 365.955 364.393 367.16 363.102 367.498C361.831 367.837 359.101 365.532 359.101 365.532C359.101 365.532 361.069 368.281 362.953 368.281C364.689 368.281 364.139 365.976 364.139 365.976L364.16 365.955Z" fill="#FFD134"/>
<g style="mix-blend-mode:soft-light" opacity="0.5">
<path d="M489.941 248.622C489.941 248.622 483.167 264.988 630.137 267.462C777.107 269.936 819.718 257.376 819.718 257.376C819.718 257.376 753.695 248.749 489.962 248.622H489.941Z" fill="white"/>
</g>
<path d="M612.525 267.082C612.525 267.082 668.367 264.46 702.638 264.122C736.909 263.783 780.303 270.084 780.303 270.084L612.525 267.103V267.082Z" fill="#FFD134"/>
<g style="mix-blend-mode:soft-light" opacity="0.5">
<path d="M400.908 294.083C391.975 295.944 471.524 338.699 654.798 341.469C838.071 344.239 847.449 316.941 846.687 299.687C845.924 282.433 565.998 259.575 400.908 294.083Z" fill="white"/>
</g>
<g style="mix-blend-mode:multiply" opacity="0.2">
<path d="M414.688 411.268C401.797 410.824 386.154 325.991 686.719 345.698C842.114 355.89 846.813 398.243 838.071 407.737C829.329 417.252 523.386 414.947 414.709 411.247L414.688 411.268Z" fill="#BE2F55"/>
</g>
<g style="mix-blend-mode:multiply" opacity="0.2">
<path d="M696.414 346.036C589.367 344.62 720.419 396.551 791.311 396.022C862.203 395.494 799.566 347.411 696.414 346.036Z" fill="#CF6481"/>
</g>
<path d="M700.563 248.622C688.286 248.474 704.373 256.509 723.742 256.34C743.132 256.171 740.698 250.293 740.698 250.293C740.698 250.293 725.478 248.918 700.542 248.643L700.563 248.622Z" fill="#FFF9C7"/>
<g style="mix-blend-mode:soft-light" opacity="0.5">
<path d="M765.105 310.534C748.424 323.665 782.209 320.81 791.311 312.522C800.413 304.233 772.895 304.423 765.105 310.534Z" fill="white"/>
</g>
<path d="M838.071 344.26C838.071 344.26 848.168 334.089 852.846 330.22C857.525 326.35 858.287 335.442 850.984 344.81C850.984 344.81 847.491 345.571 838.05 344.26H838.071Z" fill="#FFD134"/>
<path d="M388.673 343.964C388.673 343.964 381.581 336.881 382.111 331.045C382.64 325.209 394.261 343.964 394.261 343.964H388.673Z" fill="#FFD134"/>
<g style="mix-blend-mode:multiply" opacity="0.2">
<path d="M493.455 436.789C493.455 436.789 530.964 424.081 600.544 422.221C670.102 420.381 745.397 434.4 745.397 434.4C745.397 434.4 597.348 443.619 493.476 436.789H493.455Z" fill="#BE2F55"/>
</g>
<g style="mix-blend-mode:soft-light">
<path d="M794.19 431.525C794.19 431.525 838.897 425.329 851.301 417.273C868.024 406.405 883.963 386.423 883.963 386.423C883.963 386.423 858.562 422.432 843.173 426.26C827.783 430.087 794.19 431.525 794.19 431.525Z" fill="white"/>
</g>
<g style="mix-blend-mode:multiply" opacity="0.5">
<path d="M397.288 434.4C397.288 434.4 419.345 431.609 432.342 432.793C445.318 433.998 476.711 439.115 476.711 439.115C476.711 439.115 415.45 437.53 397.288 434.4Z" fill="#BE2F55"/>
</g>
<g style="mix-blend-mode:multiply" opacity="0.5">
<path d="M849.396 429.96C849.396 429.96 837.161 427.697 823.719 428.881C810.277 430.066 780.303 439.137 780.303 439.137C780.303 439.137 820.417 436.536 833.16 435.373C845.924 434.21 849.396 429.96 849.396 429.96Z" fill="#BE2F55"/>
</g>
<g style="mix-blend-mode:soft-light" opacity="0.5">
<path d="M414.688 411.268C418.816 397.545 468.138 389.763 523.704 399.109C579.27 408.455 596.903 415.539 596.903 415.539C596.903 415.539 453.976 414.334 414.688 411.268Z" fill="white"/>
</g>
<g style="mix-blend-mode:soft-light" opacity="0.5">
<path d="M458.802 413.213C458.802 413.213 491.973 420.931 582.847 422.961C673.743 424.991 751.599 414.482 751.599 414.482C751.599 414.482 589.621 420.043 458.781 413.213H458.802Z" fill="white"/>
</g>
<path d="M624.739 416.427C624.739 416.427 634.476 422.094 653.57 421.164C672.664 420.233 677.109 416.427 677.109 416.427H624.718H624.739Z" fill="#FFF9C7"/>
<g style="mix-blend-mode:soft-light" opacity="0.8">
<path d="M433.38 288.247C433.38 288.247 539.284 284.97 563.669 282.411C588.055 279.853 596.903 278.986 596.903 278.986C596.903 278.986 533.081 273.827 433.38 288.247Z" fill="white"/>
</g>
<g style="mix-blend-mode:soft-light" opacity="0.5">
<path d="M374.596 277.041C373.432 284.547 391.213 273.361 406.962 271.691C422.711 270.021 441.445 254.479 439.624 252.661C437.804 250.842 413.736 251.456 399.172 254.775C384.608 258.095 374.596 277.041 374.596 277.041Z" fill="white"/>
</g>
<path d="M396.526 256.319C388.778 259.723 389.773 271.078 404.062 265.623C418.329 260.167 407.004 251.709 396.526 256.319Z" fill="#FFF9C7"/>
<g style="mix-blend-mode:soft-light">
<path d="M371.907 404.459C371.907 404.459 395.319 422.876 409.163 427.697C423.007 432.518 482.214 436.303 482.214 436.303C482.214 436.303 423.706 433.554 407.428 429.241C391.17 424.927 371.886 404.459 371.886 404.459H371.907Z" fill="white"/>
</g>
<g style="mix-blend-mode:multiply" opacity="0.5">
<path d="M879.116 229.571C875.835 228.577 871.284 234.984 873.633 240.291C875.941 245.514 886.567 231.833 879.116 229.571Z" fill="#BE2F55"/>
</g>
<g style="mix-blend-mode:multiply" opacity="0.5">
<path d="M873.993 234.096C873.697 237.965 878.587 238.198 880.471 236.189C882.355 234.159 882.312 229.592 878.671 229.486C875.031 229.401 873.972 234.096 873.972 234.096H873.993Z" fill="#BE2F55"/>
</g>
<path d="M872.998 237.436C874.057 235.11 876.936 237.965 878.693 238.092C880.45 238.219 877.423 242.025 875.39 241.475C873.358 240.925 872.998 237.436 872.998 237.436Z" fill="#FFD134"/>
<g style="mix-blend-mode:multiply" opacity="0.5">
<path d="M337.298 292.35C333.255 291.123 327.624 299.053 330.524 305.607C333.382 312.078 346.527 295.162 337.298 292.35Z" fill="#BE2F55"/>
</g>
<g style="mix-blend-mode:multiply" opacity="0.5">
<path d="M330.968 297.953C330.587 302.753 336.663 303.028 338.991 300.533C341.341 298.017 341.256 292.371 336.768 292.244C332.281 292.138 330.968 297.953 330.968 297.953Z" fill="#BE2F55"/>
</g>
<path d="M329.741 302.097C331.053 299.222 334.609 302.753 336.79 302.922C338.97 303.091 335.202 307.785 332.704 307.088C330.185 306.39 329.741 302.097 329.741 302.097Z" fill="#FFD134"/>
<path style="mix-blend-mode:screen" opacity="0.8" d="M623.49 347.939C728.871 347.939 814.299 331.637 814.299 311.528C814.299 291.419 728.871 275.117 623.49 275.117C518.109 275.117 432.681 291.419 432.681 311.528C432.681 331.637 518.109 347.939 623.49 347.939Z" fill="url(#paint14_radial_288_7826)"/>
<path d="M458.802 302.076C454.505 309.984 471.292 314.699 474.784 306.072C478.277 297.445 461.639 296.832 458.802 302.076Z" fill="#FFF9C7"/>
<g style="mix-blend-mode:soft-light" opacity="0.8">
<path d="M455.67 348.404C468.688 340.285 482.49 333.518 496.524 327.365C510.601 321.275 524.953 315.799 539.622 311.295C546.904 308.863 554.355 307.003 561.743 304.973C569.152 303.006 576.688 301.526 584.16 299.771C591.717 298.481 599.253 296.98 606.852 295.838L618.262 294.358C622.072 293.893 625.861 293.28 629.692 293.068C660.238 290.319 691.143 290.087 721.604 294.4C725.415 294.866 729.182 295.69 732.972 296.325C736.718 297.192 740.507 297.889 744.191 298.968C751.621 300.955 758.966 303.408 765.867 306.918C772.725 310.386 779.287 314.974 783.796 321.466C785.913 324.764 787.31 328.634 787.395 332.609C787.479 336.563 786.421 340.538 784.431 343.921C780.473 350.751 774.313 355.847 767.814 359.949C761.231 364.009 754.161 367.202 746.9 369.76C732.379 374.877 717.032 377.69 701.643 378.007C686.254 378.324 670.801 376.336 656.089 371.79C648.744 369.528 641.589 366.525 634.9 362.698C628.253 358.871 621.924 354.134 617.309 347.854C615.044 344.725 613.245 341.13 612.652 337.24C612.038 333.37 612.8 329.289 614.769 325.885C616.695 322.46 619.574 319.732 622.665 317.406C625.713 315.038 629.079 313.092 632.487 311.337C646.288 304.465 661.254 300.406 676.241 297.213C691.27 294.126 706.511 292.096 721.837 291.038C737.12 290.066 752.573 289.812 767.751 292.201C752.573 289.918 737.142 290.298 721.858 291.377C706.575 292.54 691.376 294.696 676.389 297.889C661.466 301.124 646.542 305.205 632.868 312.077C629.481 313.811 626.179 315.757 623.173 318.083C620.167 320.366 617.373 323.052 615.531 326.329C613.668 329.564 612.97 333.434 613.562 337.113C614.134 340.813 615.87 344.281 618.071 347.305C622.559 353.415 628.803 358.067 635.387 361.831C642.012 365.616 649.104 368.555 656.385 370.775C670.991 375.258 686.338 377.182 701.6 376.823C716.863 376.463 732.061 373.63 746.456 368.534C753.653 365.997 760.617 362.804 767.073 358.807C773.445 354.769 779.436 349.736 783.182 343.245C785.087 340.031 786.082 336.309 785.998 332.651C785.913 328.972 784.643 325.356 782.653 322.227C778.377 316.053 772.006 311.528 765.274 308.102C758.5 304.634 751.218 302.203 743.852 300.194C740.19 299.116 736.422 298.397 732.718 297.53C728.95 296.896 725.203 296.05 721.414 295.585C691.101 291.208 660.238 291.356 629.756 294.041C625.925 294.231 622.135 294.844 618.346 295.289L606.958 296.726C599.38 297.826 591.865 299.306 584.308 300.575C576.836 302.287 569.321 303.768 561.912 305.692C554.525 307.7 547.073 309.54 539.792 311.929C525.101 316.306 510.728 321.677 496.63 327.661C482.574 333.73 468.709 340.369 455.627 348.383L455.67 348.404Z" fill="#FFF9C7"/>
<path d="M505.669 336.225C527.451 333.349 549.444 331.932 571.417 331.509C593.41 331.129 615.425 331.657 637.334 333.645C659.222 335.759 681.046 339.227 702.32 344.852C712.925 347.749 723.488 350.941 733.67 355.149C743.831 359.357 753.716 364.241 763.073 370.014C744.085 358.913 723.319 351.237 702.087 345.761C680.835 340.306 659.053 337.007 637.207 335.041C615.362 332.905 593.389 332.207 571.438 332.419C560.452 332.546 549.487 332.947 538.522 333.582C527.556 334.174 516.591 334.956 505.669 336.182V336.225Z" fill="#FFF9C7"/>
<path d="M554.228 364.369C561.425 366.652 568.75 368.45 576.116 370.035C583.483 371.642 590.891 372.953 598.364 373.926C613.287 375.85 628.38 376.823 643.367 375.702C658.354 374.793 673.256 371.79 687.206 366.208C694.149 363.333 700.775 359.78 706.998 355.551C713.179 351.259 718.81 346.226 723.933 340.687C718.979 346.374 713.497 351.597 707.401 356.101C701.219 360.457 694.573 364.157 687.629 367.202C673.616 373.059 658.566 376.083 643.473 377.098C628.359 378.113 613.16 377.161 598.216 374.983C583.271 372.742 568.496 369.295 554.228 364.348V364.369Z" fill="#FFF9C7"/>
<path d="M536.574 343.351C540.892 339.819 545.465 336.627 550.1 333.518C554.8 330.516 559.584 327.64 564.495 324.976C574.296 319.626 584.456 314.953 594.913 311.02C605.391 307.172 616.081 303.81 627.004 301.526C632.444 300.236 637.969 299.391 643.473 298.524C648.977 297.657 654.565 297.403 660.111 296.811C649.061 298.228 638.033 299.856 627.258 302.584C616.42 305.079 605.794 308.398 595.421 312.331C584.985 316.116 574.867 320.789 565.003 325.906C555.16 331.066 545.549 336.732 536.574 343.33V343.351Z" fill="#FFF9C7"/>
<path d="M584.435 292.202C597.03 291.419 609.689 291.504 622.284 292.519C634.879 293.534 647.431 295.394 659.751 298.291C672.029 301.357 684.073 305.438 695.546 310.788C706.914 316.391 717.498 323.475 726.896 331.911C717.159 323.855 706.448 317.174 695.102 311.76C683.608 306.643 671.669 302.605 659.434 299.666C647.22 296.684 634.73 294.845 622.199 293.597C609.667 292.413 597.051 291.948 584.435 292.202Z" fill="#FFF9C7"/>
<path d="M612.292 368.492C615.235 369.803 618.241 370.966 621.31 371.981C624.337 373.059 627.406 374.032 630.497 374.899C636.678 376.632 642.965 378.028 649.315 378.874C655.645 379.91 662.08 380.058 668.472 379.889L673.278 379.614C674.865 379.487 676.453 379.17 678.04 378.979C681.258 378.705 684.327 377.732 687.502 377.098C681.385 379.106 675.013 380.608 668.536 380.988C662.058 381.369 655.539 381.2 649.125 380.269C642.711 379.297 636.36 377.901 630.2 375.935C624.041 373.968 618.008 371.537 612.313 368.492H612.292Z" fill="#FFF9C7"/>
<path d="M627.681 385.281C630.793 382.342 634.18 379.699 637.652 377.182C641.123 374.666 644.743 372.361 648.469 370.226C652.258 368.196 656.068 366.208 660.132 364.728C664.175 363.269 668.367 362.106 672.643 361.81C668.451 362.698 664.429 364.094 660.534 365.743C656.618 367.392 652.85 369.359 649.167 371.452C645.42 373.461 641.843 375.787 638.266 378.092C634.688 380.417 631.174 382.828 627.681 385.302V385.281Z" fill="#FFF9C7"/>
<path d="M478.891 357.2C488.628 361.725 498.577 365.764 508.59 369.57C518.602 373.418 528.7 377.013 538.924 380.269C559.351 386.803 580.159 392.153 601.306 395.663C611.848 397.566 622.495 398.856 633.164 399.638C643.833 400.463 654.586 400.568 665.255 399.87C675.924 399.173 686.592 397.756 696.943 394.986C707.316 392.343 717.413 388.6 726.896 383.547C717.54 388.812 707.485 392.787 697.113 395.642C686.74 398.517 676.029 400.018 665.318 400.801C654.586 401.604 643.812 401.562 633.079 400.801C622.347 400.082 611.657 398.877 601.052 397.037C579.863 393.337 559.033 387.818 538.627 381.136C518.221 374.454 498.175 366.589 478.87 357.179L478.891 357.2Z" fill="#FFF9C7"/>
<path d="M563.034 401.583C566.781 398.242 570.866 395.261 575.036 392.406C579.27 389.678 583.588 387.078 588.076 384.731C597.009 380.058 606.365 376.146 616.039 373.228C625.734 370.416 635.598 368.069 645.653 367.096C650.649 366.377 655.708 366.292 660.746 366.039C665.784 365.891 670.822 366.271 675.839 366.377C665.784 366.419 655.729 366.694 645.801 368.195C635.852 369.401 626.052 371.705 616.462 374.602C606.831 377.393 597.559 381.305 588.584 385.724C579.63 390.228 570.951 395.345 563.055 401.604L563.034 401.583Z" fill="#FFF9C7"/>
</g>
</g>
<g filter="url(#filter0_i_288_7826)">
<path d="M473.29 347.368C470.666 350.056 467.402 351.528 463.306 351.592C463.306 353.768 463.434 355.88 464.202 357.864C464.394 358.312 464.906 358.76 465.354 359.016C466.122 359.592 466.442 359.912 466.25 360.424C465.994 361.064 465.418 361.128 464.842 361.128C460.938 360.872 457.226 361.576 453.514 362.344C452.938 362.472 452.426 362.664 451.85 362.856C451.274 362.984 450.762 362.984 450.442 362.472C450.122 362.024 450.314 361.576 450.634 361.192C450.826 361 451.018 360.808 451.21 360.616C452.426 359.272 453.258 357.8 453.45 356.008C453.77 353.192 454.154 350.312 454.218 347.432C454.41 339.112 454.474 330.792 454.538 322.536C454.602 321.256 453.834 320.424 452.362 319.976C451.914 319.912 451.466 319.848 451.082 319.784C450.442 319.72 450.058 319.464 449.994 318.824C449.93 318.248 450.314 317.864 451.082 317.736C452.874 317.416 454.666 317.16 456.458 316.968C458.698 316.648 461.002 316.328 463.306 316.2C467.146 316.008 470.858 316.712 473.994 319.016C476.81 321.128 478.41 324.072 479.178 327.4C480.906 335.016 478.73 341.672 473.29 347.368ZM464.97 319.336C464.458 320.808 462.922 345.704 463.242 347.88C463.37 347.816 463.498 347.816 463.562 347.752C463.69 347.688 463.882 347.56 464.01 347.432C466.314 345.384 468.234 342.952 469.386 340.072C470.794 336.232 471.306 332.328 471.05 328.232C470.922 325.288 469.578 322.792 467.402 320.744C466.762 320.104 465.93 319.528 464.97 319.336ZM490.835 331.944C490.771 332.904 490.835 333.864 490.835 334.952C491.667 334.824 492.307 334.44 492.755 333.928C493.458 333.16 494.035 332.328 494.675 331.56C494.867 331.24 495.059 330.92 495.251 330.664C495.955 329.896 496.851 330.152 497.107 331.112C497.171 331.56 497.171 332.072 497.171 332.52C496.979 335.272 496.787 337.96 496.659 340.648C496.467 342.888 496.339 345.128 496.147 347.432C496.083 348.52 495.763 348.968 495.123 348.968C494.483 348.968 494.227 348.456 494.163 347.368C494.035 345.128 493.971 342.888 493.715 340.712C493.523 338.728 492.627 338.024 490.579 337.832C489.811 343.784 489.619 349.8 489.619 355.944C490.131 355.816 490.451 355.752 490.771 355.624C492.179 354.792 493.587 353.96 494.931 353.064C496.723 351.848 497.683 349.928 498.515 348.008C499.219 346.536 499.795 345 500.435 343.528C500.691 342.952 501.075 342.44 501.523 341.992C502.227 341.416 503.059 341.736 503.251 342.632C503.379 343.272 503.379 343.976 503.251 344.616C502.995 346.984 502.739 349.352 502.355 351.72C501.779 355.176 501.075 358.696 500.499 362.152C500.371 362.856 500.307 363.624 499.475 363.88C498.707 364.136 498.195 363.56 497.811 363.048C496.275 361.256 494.227 360.36 491.923 359.848C487.443 358.952 482.899 359.016 478.355 359.784C477.907 359.848 477.459 359.976 477.011 359.976C476.562 360.04 476.178 359.848 476.05 359.336C475.858 358.76 476.178 358.376 476.691 358.184C476.819 358.12 476.947 358.056 477.075 358.056C479.059 357.48 480.403 356.072 481.043 354.152C481.811 352.04 482.067 349.928 482.067 347.752C482.195 342.504 482.259 337.256 482.323 332.008C482.387 329.32 482.451 326.632 482.579 323.944C482.707 322.024 481.875 320.68 480.211 319.848C479.891 319.656 479.507 319.464 479.251 319.144C479.059 318.952 478.867 318.44 478.995 318.248C479.123 317.928 479.571 317.608 479.891 317.608C480.403 317.544 481.043 317.672 481.555 317.8C484.115 318.504 486.739 319.144 489.363 319.272C491.091 319.336 492.819 319.336 494.547 319.208C496.659 319.016 498.643 318.376 500.371 317.096C500.627 316.904 500.883 316.712 501.139 316.584C502.035 316.2 502.803 316.52 502.995 317.416C503.187 318.12 503.251 318.824 503.187 319.528C502.931 324.072 502.547 328.552 502.227 333.096C502.227 333.48 502.163 333.928 501.971 334.248C501.779 334.504 501.395 334.824 501.075 334.888C500.819 334.888 500.435 334.632 500.243 334.376C499.987 334.12 499.923 333.736 499.859 333.416C499.283 331.752 498.835 330.088 498.259 328.488C497.363 326.12 495.955 324.072 493.651 322.792C493.458 322.664 493.203 322.536 492.947 322.408C491.923 321.96 491.475 322.152 491.347 323.304C491.155 326.184 490.963 329.064 490.835 331.944ZM537.408 314.28C537.792 314.728 537.664 315.176 537.28 315.624C537.024 315.88 536.768 316.072 536.576 316.328C535.104 317.864 534.208 319.656 533.696 321.576C532.608 326.312 532.032 331.048 532.096 335.848C532.16 343.016 532.032 350.184 531.968 357.352C531.968 358.312 531.776 359.272 531.712 360.168C531.648 360.744 531.392 361.256 530.752 361.448C530.176 361.64 529.664 361.384 529.216 361C528.128 360.04 527.168 359.016 526.464 357.736C525.184 355.432 523.776 353.256 522.368 351.016C518.976 345.512 516.224 339.752 513.664 333.928C513.536 333.672 513.408 333.416 513.28 333.16C513.152 333.224 513.088 333.224 512.96 333.224C513.024 337.768 513.024 342.376 513.344 346.92C513.536 350.312 514.176 353.704 515.456 356.968C515.968 358.376 516.544 359.656 517.952 360.488C518.464 360.808 518.848 361.32 518.528 361.896C518.272 362.536 517.632 362.6 516.992 362.536C515.712 362.28 514.496 362.088 513.216 361.896C510.784 361.512 508.416 361.128 505.984 360.744C505.664 360.744 505.408 360.68 505.088 360.616C504.576 360.424 504.192 360.168 504.192 359.656C504.192 359.144 504.448 358.76 504.96 358.568C505.28 358.44 505.664 358.376 505.984 358.248C507.264 357.992 508.032 357.288 508.224 356.136C508.48 354.792 508.736 353.384 508.736 352.04C508.672 342.888 508.416 333.672 508.352 324.52C508.288 322.216 507.2 320.872 505.088 320.04C504.768 319.912 504.448 319.848 504.256 319.656C504 319.4 503.68 319.016 503.68 318.632C503.68 318.376 504.064 317.992 504.384 317.864C504.64 317.672 505.024 317.672 505.408 317.672C509.376 317.928 513.408 318.248 517.44 318.504C518.72 318.632 520 318.76 521.28 318.888C521.536 318.952 521.856 319.016 522.176 319.08C522.624 319.272 522.88 319.656 522.752 320.104C522.624 320.36 522.304 320.68 521.984 320.808C521.664 321 521.152 321 520.704 321.064C519.552 321.384 518.848 322.216 519.104 323.304C519.488 324.84 519.808 326.44 520.512 327.912C522.688 332.392 524.992 336.808 527.296 341.224C527.424 341.48 527.552 341.736 527.872 342.184C527.936 341.672 527.936 341.48 527.936 341.352C527.808 335.912 527.744 330.472 527.616 325.032C527.552 324.072 527.488 323.048 527.424 322.088C527.296 321 527.04 320.04 526.208 319.144C525.376 318.248 525.568 317.544 526.72 317.16C529.856 316.072 532.992 315.048 536.128 313.96C536.576 313.832 537.088 313.832 537.408 314.28ZM559.724 343.016C559.212 347.432 559.34 351.912 559.34 356.392C559.66 356.52 559.788 356.584 559.916 356.712C561.004 357.352 561.004 358.056 560.108 358.888C559.148 359.72 558.188 360.488 557.228 361.32C554.796 363.496 552.364 365.672 550.252 368.232C549.868 368.68 549.42 368.936 548.844 368.552C548.332 368.232 548.396 367.656 548.524 367.144C549.036 365.864 549.612 364.584 549.932 363.304C550.316 362.024 550.508 360.744 550.828 359.144C550.188 359.464 549.868 359.656 549.484 359.784C547.692 360.424 545.836 360.744 543.98 360.488C540.588 359.976 538.348 357.8 536.812 354.856C535.276 351.976 534.636 348.904 534.444 345.64C534.123 340.456 534.764 335.336 536.492 330.344C537.324 328.104 538.411 325.992 539.82 324.008C541.1 322.28 542.572 320.872 544.364 319.784C546.54 318.44 548.844 318.12 551.276 318.824C552.044 319.08 552.876 319.272 553.708 319.464C554.412 319.656 554.924 319.336 555.116 318.696C555.308 318.12 555.5 317.544 555.692 317.032C555.756 316.712 555.82 316.392 555.884 316.136C556.012 315.624 556.332 315.368 556.844 315.368C557.42 315.368 557.74 315.752 557.804 316.264C557.868 316.648 557.932 317.096 557.932 317.48C557.996 322.344 558.06 327.208 558.124 332.072C558.124 332.456 558.124 332.84 557.996 333.16C557.868 333.48 557.548 333.864 557.228 333.928C556.908 333.992 556.524 333.672 556.268 333.416C556.012 333.16 556.012 332.776 555.884 332.456C554.732 329.192 553.516 325.928 551.404 323.176C550.892 322.472 550.38 321.832 549.42 321.512C548.46 322.088 547.82 322.984 547.308 323.944C546.092 326.12 545.452 328.488 545.004 330.856C544.172 335.592 543.98 340.392 544.236 345.192C544.428 348.52 544.876 351.912 545.836 355.112C546.028 355.816 546.348 356.52 546.796 357.16C547.308 357.8 547.692 357.8 548.396 357.352C549.292 356.84 549.932 356.008 550.316 355.048C551.083 352.936 551.532 350.76 551.66 348.52C551.724 346.536 551.66 344.552 551.66 342.568C551.66 342.248 551.66 341.928 551.596 341.672C551.468 341.096 551.148 340.776 550.508 340.84C549.996 340.904 549.42 340.968 548.972 340.776C548.588 340.648 548.204 340.328 548.012 340.008C547.756 339.496 548.076 338.984 548.524 338.728C548.972 338.472 549.548 338.152 550.06 338.088C553.452 337.384 556.844 336.552 560.044 335.208C560.3 335.144 560.62 335.016 560.94 335.016C561.644 335.016 562.092 335.592 561.9 336.296C561.9 336.488 561.772 336.68 561.644 336.872C560.364 338.728 559.98 340.84 559.724 343.016ZM573.202 335.784C573.202 335.912 573.266 336.104 573.33 336.424C576.338 335.656 579.218 335.016 582.098 334.312C582.162 333.928 582.162 333.672 582.226 333.352C582.29 329.896 582.354 326.44 582.354 322.984C582.418 321.576 582.162 320.36 580.626 319.656C580.37 319.528 580.114 319.016 580.114 318.632C580.05 318.12 580.498 317.864 581.074 317.736C583.762 317.16 586.194 315.88 588.498 314.472C589.266 314.024 589.97 313.512 590.674 313C590.866 312.872 590.994 312.744 591.186 312.616C591.634 312.36 592.082 312.168 592.53 312.552C592.914 312.872 593.042 313.512 592.594 313.96C590.354 316.072 590.226 318.824 590.034 321.576C589.65 326.312 590.162 331.048 590.226 335.784C590.226 338.664 590.226 341.544 590.226 344.424C590.226 346.408 590.226 348.456 590.29 350.504C590.354 351.08 590.482 351.656 590.61 352.232C590.866 353.128 591.25 353.96 592.21 354.472C592.338 354.536 592.402 354.6 592.53 354.664C593.362 355.432 593.234 356.392 592.146 356.776C590.866 357.224 589.586 357.672 588.306 358.12C585.874 358.952 583.762 360.168 581.714 361.576C581.586 361.704 581.458 361.832 581.266 361.896C580.882 362.152 580.434 362.344 580.114 361.96C579.858 361.64 579.73 361.192 579.73 360.808C579.73 360.488 579.986 360.168 580.114 359.912C581.522 357.352 582.162 354.728 582.162 351.848C582.098 347.56 582.162 343.336 582.226 339.048C582.226 338.728 582.162 338.408 582.098 337.96C579.09 338.6 576.146 339.24 573.266 339.88C573.202 340.2 573.138 340.392 573.138 340.584C573.074 344.808 573.074 349.032 573.778 353.256C574.034 354.664 574.546 355.816 575.634 356.84C576.53 357.672 576.658 358.12 576.274 358.696C575.954 359.208 575.442 359.272 574.29 358.824C573.458 358.504 572.626 358.568 571.794 358.76C569.17 359.4 566.482 360.104 563.858 360.808C563.666 360.872 563.41 360.936 563.218 361C562.706 361.256 562.258 361.192 561.938 360.744C561.617 360.296 561.681 359.784 562.066 359.4C564.754 356.84 565.458 353.512 565.586 349.992C565.714 347.688 565.714 345.32 565.714 342.952C565.714 336.68 565.586 330.408 565.586 324.136C565.586 322.088 564.818 320.488 563.026 319.336C562.834 319.144 562.578 319.016 562.45 318.824C561.938 318.184 562.194 317.416 563.026 317.224C563.41 317.16 563.858 317.16 564.306 317.224C566.93 317.608 569.554 318.056 572.178 318.44C573.074 318.568 574.034 318.568 574.994 318.568C575.57 318.568 576.018 318.76 576.146 319.4C576.274 319.976 576.018 320.36 575.442 320.552C574.226 321 573.778 321.96 573.586 322.984C573.33 324.264 573.074 325.608 573.074 326.888C573.01 329.832 573.138 332.84 573.202 335.784ZM612.901 349.864C612.837 349.032 612.645 348.2 612.517 347.176C609.637 347.944 606.885 348.648 604.197 349.352C603.877 349.48 603.557 349.864 603.429 350.184C602.789 352.36 602.277 354.536 602.213 356.84C602.213 358.056 602.533 359.208 603.301 360.168C603.621 360.552 603.877 361.064 604.005 361.576C604.197 362.408 603.621 362.92 602.789 362.792C602.533 362.728 602.341 362.664 602.149 362.6C599.077 361.256 596.069 359.976 592.997 358.632C592.421 358.44 592.101 358.056 592.165 357.416C592.293 356.776 592.741 356.584 593.317 356.584C595.301 356.648 596.517 355.496 597.349 353.96C598.373 351.848 599.397 349.736 600.165 347.56C602.085 342.056 603.941 336.552 605.733 331.048C606.245 329.64 606.565 328.168 607.077 326.76C608.101 323.816 609.189 320.936 610.213 317.992C610.277 317.864 610.341 317.8 610.405 317.672C610.853 316.904 611.365 316.072 612.389 316.136C613.349 316.2 614.053 316.904 614.309 317.8C615.013 319.72 615.781 321.704 616.229 323.688C617.125 327.784 617.829 331.944 618.597 336.104C619.365 340.008 620.133 343.912 621.029 347.816C621.477 349.928 622.245 351.976 622.949 354.024C623.525 355.752 624.293 356.072 626.149 355.624C626.341 355.56 626.597 355.432 626.789 355.496C627.173 355.624 627.685 355.752 627.877 356.008C628.005 356.328 627.941 356.904 627.749 357.224C627.493 357.608 627.045 357.864 626.597 358.12C623.077 359.976 619.557 361.832 616.037 363.688C615.269 364.136 614.565 364.648 613.797 365.16C613.477 365.288 613.157 365.544 612.837 365.608C612.517 365.608 612.005 365.48 611.813 365.224C611.621 364.968 611.685 364.52 611.685 364.136C611.685 364.008 611.813 363.88 611.877 363.816C613.733 362.152 613.733 359.912 613.669 357.8C613.541 355.112 613.157 352.488 612.901 349.864ZM612.005 344.232C611.173 340.136 610.341 336.104 609.445 331.816C606.821 336.36 606.373 341.224 605.029 345.896C607.461 345.32 609.701 344.744 612.005 344.232ZM647.733 342.248C647.413 342.44 647.093 342.632 646.581 342.952C650.869 344.232 652.917 347.304 654.261 350.952C654.901 352.744 655.285 354.6 655.797 356.392C656.309 358.056 656.885 359.72 658.229 360.936C658.613 361.32 659.125 361.64 659.637 361.832C660.149 362.088 660.661 361.96 660.917 361.384C660.981 361.32 660.981 361.256 661.045 361.192C661.237 360.68 661.621 360.488 662.133 360.616C662.709 360.744 662.965 361.192 662.837 361.768C662.645 363.24 662.453 364.776 661.493 366.056C660.213 367.848 658.613 369.192 656.309 369.448C653.877 369.704 651.637 368.36 650.485 365.928C649.973 364.84 649.589 363.688 649.269 362.6C648.245 359.144 647.221 355.688 646.197 352.296C645.621 350.184 644.661 348.2 643.253 346.472C642.677 345.832 642.037 345.32 641.205 345.128C640.885 345.128 640.565 345.128 640.053 345.128C640.181 346.792 640.309 348.264 640.501 349.736C640.565 350.568 640.757 351.272 640.885 352.104C641.269 354.728 642.677 356.712 644.853 358.248C644.981 358.312 645.109 358.376 645.173 358.44C645.557 358.76 645.813 359.144 645.685 359.592C645.493 360.104 645.109 360.36 644.597 360.36C644.213 360.424 643.893 360.424 643.509 360.36C638.965 359.848 634.549 360.36 630.197 361.768C629.749 361.896 629.301 362.152 628.789 362.28C628.341 362.472 627.893 362.472 627.573 362.024C627.189 361.64 627.381 361.192 627.637 360.808C627.701 360.744 627.765 360.68 627.829 360.616C630.261 358.44 631.029 355.56 631.349 352.552C631.605 349.416 631.797 346.28 631.797 343.208C631.797 337.128 631.669 331.048 631.541 324.968C631.541 323.944 631.285 322.92 630.965 321.96C630.581 320.808 629.685 320.168 628.469 319.912C628.277 319.912 628.149 319.848 627.957 319.848C627.381 319.784 626.869 319.592 626.741 318.952C626.677 318.44 627.061 317.864 627.765 317.544C628.085 317.416 628.405 317.352 628.725 317.288C633.845 316.328 638.965 316.264 644.085 317.352C647.925 318.184 650.933 320.36 653.109 323.496C655.861 327.528 656.181 333.672 652.277 338.472C650.997 340.008 649.461 341.224 647.733 342.248ZM642.293 321C641.973 320.68 641.589 320.488 641.013 320.168C639.925 327.272 639.221 334.184 639.861 341.288C640.309 341.16 640.565 341.032 640.821 340.904C642.869 339.752 644.405 338.088 645.237 335.912C645.685 334.568 646.005 333.16 646.325 331.752C647.221 327.336 645.557 323.88 642.293 321ZM684.536 343.016C684.024 347.432 684.152 351.912 684.152 356.392C684.472 356.52 684.6 356.584 684.728 356.712C685.816 357.352 685.816 358.056 684.92 358.888C683.96 359.72 683 360.488 682.04 361.32C679.608 363.496 677.176 365.672 675.064 368.232C674.68 368.68 674.232 368.936 673.656 368.552C673.144 368.232 673.208 367.656 673.336 367.144C673.848 365.864 674.424 364.584 674.744 363.304C675.128 362.024 675.32 360.744 675.64 359.144C675 359.464 674.68 359.656 674.296 359.784C672.504 360.424 670.648 360.744 668.792 360.488C665.4 359.976 663.16 357.8 661.624 354.856C660.088 351.976 659.448 348.904 659.256 345.64C658.936 340.456 659.576 335.336 661.304 330.344C662.136 328.104 663.224 325.992 664.632 324.008C665.912 322.28 667.384 320.872 669.176 319.784C671.352 318.44 673.656 318.12 676.088 318.824C676.856 319.08 677.688 319.272 678.52 319.464C679.224 319.656 679.736 319.336 679.928 318.696C680.12 318.12 680.312 317.544 680.504 317.032C680.568 316.712 680.632 316.392 680.696 316.136C680.824 315.624 681.144 315.368 681.656 315.368C682.232 315.368 682.552 315.752 682.616 316.264C682.68 316.648 682.744 317.096 682.744 317.48C682.808 322.344 682.872 327.208 682.936 332.072C682.936 332.456 682.936 332.84 682.808 333.16C682.68 333.48 682.36 333.864 682.04 333.928C681.72 333.992 681.336 333.672 681.08 333.416C680.824 333.16 680.824 332.776 680.696 332.456C679.544 329.192 678.328 325.928 676.216 323.176C675.704 322.472 675.192 321.832 674.232 321.512C673.272 322.088 672.632 322.984 672.12 323.944C670.904 326.12 670.264 328.488 669.816 330.856C668.984 335.592 668.792 340.392 669.048 345.192C669.24 348.52 669.688 351.912 670.648 355.112C670.84 355.816 671.16 356.52 671.608 357.16C672.12 357.8 672.504 357.8 673.208 357.352C674.104 356.84 674.744 356.008 675.128 355.048C675.896 352.936 676.344 350.76 676.472 348.52C676.536 346.536 676.472 344.552 676.472 342.568C676.472 342.248 676.472 341.928 676.408 341.672C676.28 341.096 675.96 340.776 675.32 340.84C674.808 340.904 674.232 340.968 673.784 340.776C673.4 340.648 673.016 340.328 672.824 340.008C672.568 339.496 672.888 338.984 673.336 338.728C673.784 338.472 674.36 338.152 674.872 338.088C678.264 337.384 681.656 336.552 684.856 335.208C685.112 335.144 685.432 335.016 685.752 335.016C686.456 335.016 686.904 335.592 686.712 336.296C686.712 336.488 686.584 336.68 686.456 336.872C685.176 338.728 684.792 340.84 684.536 343.016ZM706.526 349.864C706.462 349.032 706.27 348.2 706.142 347.176C703.262 347.944 700.51 348.648 697.822 349.352C697.502 349.48 697.182 349.864 697.054 350.184C696.414 352.36 695.902 354.536 695.838 356.84C695.838 358.056 696.158 359.208 696.926 360.168C697.246 360.552 697.502 361.064 697.63 361.576C697.822 362.408 697.246 362.92 696.414 362.792C696.158 362.728 695.966 362.664 695.774 362.6C692.702 361.256 689.694 359.976 686.622 358.632C686.046 358.44 685.726 358.056 685.79 357.416C685.918 356.776 686.366 356.584 686.942 356.584C688.926 356.648 690.142 355.496 690.974 353.96C691.998 351.848 693.022 349.736 693.79 347.56C695.71 342.056 697.566 336.552 699.358 331.048C699.87 329.64 700.19 328.168 700.702 326.76C701.726 323.816 702.814 320.936 703.838 317.992C703.902 317.864 703.966 317.8 704.03 317.672C704.478 316.904 704.99 316.072 706.014 316.136C706.974 316.2 707.678 316.904 707.934 317.8C708.638 319.72 709.406 321.704 709.854 323.688C710.75 327.784 711.454 331.944 712.222 336.104C712.99 340.008 713.758 343.912 714.654 347.816C715.102 349.928 715.87 351.976 716.574 354.024C717.15 355.752 717.918 356.072 719.774 355.624C719.966 355.56 720.222 355.432 720.414 355.496C720.798 355.624 721.31 355.752 721.502 356.008C721.63 356.328 721.566 356.904 721.374 357.224C721.118 357.608 720.67 357.864 720.222 358.12C716.702 359.976 713.182 361.832 709.662 363.688C708.894 364.136 708.19 364.648 707.422 365.16C707.102 365.288 706.782 365.544 706.462 365.608C706.142 365.608 705.63 365.48 705.438 365.224C705.246 364.968 705.31 364.52 705.31 364.136C705.31 364.008 705.438 363.88 705.502 363.816C707.358 362.152 707.358 359.912 707.294 357.8C707.166 355.112 706.782 352.488 706.526 349.864ZM705.63 344.232C704.798 340.136 703.966 336.104 703.07 331.816C700.446 336.36 699.998 341.224 698.654 345.896C701.086 345.32 703.326 344.744 705.63 344.232ZM740.526 349.864C740.462 349.032 740.27 348.2 740.142 347.176C737.262 347.944 734.51 348.648 731.822 349.352C731.502 349.48 731.182 349.864 731.054 350.184C730.414 352.36 729.902 354.536 729.838 356.84C729.838 358.056 730.158 359.208 730.926 360.168C731.246 360.552 731.502 361.064 731.63 361.576C731.822 362.408 731.246 362.92 730.414 362.792C730.158 362.728 729.966 362.664 729.774 362.6C726.702 361.256 723.694 359.976 720.622 358.632C720.046 358.44 719.726 358.056 719.79 357.416C719.918 356.776 720.366 356.584 720.942 356.584C722.926 356.648 724.142 355.496 724.974 353.96C725.998 351.848 727.022 349.736 727.79 347.56C729.71 342.056 731.566 336.552 733.358 331.048C733.87 329.64 734.19 328.168 734.702 326.76C735.726 323.816 736.814 320.936 737.838 317.992C737.902 317.864 737.966 317.8 738.03 317.672C738.478 316.904 738.99 316.072 740.014 316.136C740.974 316.2 741.678 316.904 741.934 317.8C742.638 319.72 743.406 321.704 743.854 323.688C744.75 327.784 745.454 331.944 746.222 336.104C746.99 340.008 747.758 343.912 748.654 347.816C749.102 349.928 749.87 351.976 750.574 354.024C751.15 355.752 751.918 356.072 753.774 355.624C753.966 355.56 754.222 355.432 754.414 355.496C754.798 355.624 755.31 355.752 755.502 356.008C755.63 356.328 755.566 356.904 755.374 357.224C755.118 357.608 754.67 357.864 754.222 358.12C750.702 359.976 747.182 361.832 743.662 363.688C742.894 364.136 742.19 364.648 741.422 365.16C741.102 365.288 740.782 365.544 740.462 365.608C740.142 365.608 739.63 365.48 739.438 365.224C739.246 364.968 739.31 364.52 739.31 364.136C739.31 364.008 739.438 363.88 739.502 363.816C741.358 362.152 741.358 359.912 741.294 357.8C741.166 355.112 740.782 352.488 740.526 349.864ZM739.63 344.232C738.798 340.136 737.966 336.104 737.07 331.816C734.446 336.36 733.998 341.224 732.654 345.896C735.086 345.32 737.326 344.744 739.63 344.232ZM788.158 314.28C788.542 314.728 788.414 315.176 788.03 315.624C787.774 315.88 787.518 316.072 787.326 316.328C785.854 317.864 784.958 319.656 784.446 321.576C783.358 326.312 782.782 331.048 782.846 335.848C782.91 343.016 782.782 350.184 782.718 357.352C782.718 358.312 782.526 359.272 782.462 360.168C782.398 360.744 782.142 361.256 781.502 361.448C780.926 361.64 780.414 361.384 779.966 361C778.878 360.04 777.918 359.016 777.214 357.736C775.934 355.432 774.526 353.256 773.118 351.016C769.726 345.512 766.974 339.752 764.414 333.928C764.286 333.672 764.158 333.416 764.03 333.16C763.902 333.224 763.838 333.224 763.71 333.224C763.774 337.768 763.774 342.376 764.094 346.92C764.286 350.312 764.926 353.704 766.206 356.968C766.718 358.376 767.294 359.656 768.702 360.488C769.214 360.808 769.598 361.32 769.278 361.896C769.022 362.536 768.382 362.6 767.742 362.536C766.462 362.28 765.246 362.088 763.966 361.896C761.534 361.512 759.166 361.128 756.734 360.744C756.414 360.744 756.158 360.68 755.838 360.616C755.326 360.424 754.942 360.168 754.942 359.656C754.942 359.144 755.198 358.76 755.71 358.568C756.03 358.44 756.414 358.376 756.734 358.248C758.014 357.992 758.782 357.288 758.974 356.136C759.23 354.792 759.486 353.384 759.486 352.04C759.422 342.888 759.166 333.672 759.102 324.52C759.038 322.216 757.95 320.872 755.838 320.04C755.518 319.912 755.198 319.848 755.006 319.656C754.75 319.4 754.43 319.016 754.43 318.632C754.43 318.376 754.814 317.992 755.134 317.864C755.39 317.672 755.774 317.672 756.158 317.672C760.126 317.928 764.158 318.248 768.19 318.504C769.47 318.632 770.75 318.76 772.03 318.888C772.286 318.952 772.606 319.016 772.926 319.08C773.374 319.272 773.63 319.656 773.502 320.104C773.374 320.36 773.054 320.68 772.734 320.808C772.414 321 771.902 321 771.454 321.064C770.302 321.384 769.598 322.216 769.854 323.304C770.238 324.84 770.558 326.44 771.262 327.912C773.438 332.392 775.742 336.808 778.046 341.224C778.174 341.48 778.302 341.736 778.622 342.184C778.686 341.672 778.686 341.48 778.686 341.352C778.558 335.912 778.494 330.472 778.366 325.032C778.302 324.072 778.238 323.048 778.174 322.088C778.046 321 777.79 320.04 776.958 319.144C776.126 318.248 776.318 317.544 777.47 317.16C780.606 316.072 783.742 315.048 786.878 313.96C787.326 313.832 787.838 313.832 788.158 314.28Z" fill="white"/>
</g>
<defs>
<filter id="filter0_i_288_7826" x="449.93" y="312.168" width="338.612" height="61.5361" filterUnits="userSpaceOnUse" color-interpolation-filters="sRGB">
<feFlood flood-opacity="0" result="BackgroundImageFix"/>
<feBlend mode="normal" in="SourceGraphic" in2="BackgroundImageFix" result="shape"/>
<feColorMatrix in="SourceAlpha" type="matrix" values="0 0 0 0 0 0 0 0 0 0 0 0 0 0 0 0 0 0 127 0" result="hardAlpha"/>
<feOffset dy="4"/>
<feGaussianBlur stdDeviation="2"/>
<feComposite in2="hardAlpha" operator="arithmetic" k2="-1" k3="1"/>
<feColorMatrix type="matrix" values="0 0 0 0 0 0 0 0 0 0 0 0 0 0 0 0 0 0 0.25 0"/>
<feBlend mode="normal" in2="shape" result="effect1_innerShadow_288_7826"/>
</filter>
<radialGradient id="paint0_radial_288_7826" cx="0" cy="0" r="1" gradientUnits="userSpaceOnUse" gradientTransform="translate(358.81 319.115) rotate(21.1357) scale(224.661 241.888)">
<stop stop-color="#FF73FF"/>
<stop offset="1" stop-color="#994599" stop-opacity="0"/>
</radialGradient>
<radialGradient id="paint1_radial_288_7826" cx="0" cy="0" r="1" gradientUnits="userSpaceOnUse" gradientTransform="translate(866.999 319.873) rotate(158.864) scale(226.574 243.947)">
<stop stop-color="#FF73FF"/>
<stop offset="1" stop-color="#994599" stop-opacity="0"/>
</radialGradient>
<linearGradient id="paint2_linear_288_7826" x1="827.297" y1="279.853" x2="827.297" y2="226.631" gradientUnits="userSpaceOnUse">
<stop stop-color="#CF6800"/>
<stop offset="0.4" stop-color="#E67E00"/>
<stop offset="1" stop-color="#FFA900"/>
</linearGradient>
<linearGradient id="paint3_linear_288_7826" x1="770.63" y1="434.4" x2="883.963" y2="434.4" gradientUnits="userSpaceOnUse">
<stop stop-color="#CF6800"/>
<stop offset="0.46" stop-color="#C74A00"/>
<stop offset="1" stop-color="#FFA900"/>
</linearGradient>
<linearGradient id="paint4_linear_288_7826" x1="901.914" y1="410.168" x2="901.914" y2="188" gradientUnits="userSpaceOnUse">
<stop stop-color="#CF6800"/>
<stop offset="0.4" stop-color="#E67E00"/>
<stop offset="1" stop-color="#FFA900"/>
</linearGradient>
<linearGradient id="paint5_linear_288_7826" x1="411.725" y1="279.853" x2="411.725" y2="226.632" gradientUnits="userSpaceOnUse">
<stop stop-color="#CF6800"/>
<stop offset="0.4" stop-color="#E67E00"/>
<stop offset="1" stop-color="#FFA900"/>
</linearGradient>
<linearGradient id="paint6_linear_288_7826" x1="355.058" y1="434.4" x2="468.392" y2="434.4" gradientUnits="userSpaceOnUse">
<stop stop-color="#FFA900"/>
<stop offset="0.54" stop-color="#C74A00"/>
<stop offset="1" stop-color="#CF6800"/>
</linearGradient>
<linearGradient id="paint7_linear_288_7826" x1="337.086" y1="410.168" x2="337.086" y2="188" gradientUnits="userSpaceOnUse">
<stop stop-color="#CF6800"/>
<stop offset="0.4" stop-color="#E67E00"/>
<stop offset="1" stop-color="#FFA900"/>
</linearGradient>
<linearGradient id="paint8_linear_288_7826" x1="619.489" y1="439.644" x2="619.489" y2="248.305" gradientUnits="userSpaceOnUse">
<stop stop-color="#CF6800"/>
<stop offset="0.28" stop-color="#E67E00"/>
<stop offset="1" stop-color="#FFA900"/>
</linearGradient>
<linearGradient id="paint9_linear_288_7826" x1="619.489" y1="420.127" x2="619.489" y2="267.906" gradientUnits="userSpaceOnUse">
<stop stop-color="#B300A1"/>
<stop offset="0.39" stop-color="#8F0062"/>
<stop offset="1" stop-color="#FF52F9"/>
</linearGradient>
<linearGradient id="paint10_linear_288_7826" x1="377.602" y1="409.513" x2="377.602" y2="273.446" gradientUnits="userSpaceOnUse">
<stop stop-color="#CF6800"/>
<stop offset="0.28" stop-color="#E67E00"/>
<stop offset="1" stop-color="#FFA900"/>
</linearGradient>
<linearGradient id="paint11_linear_288_7826" x1="861.356" y1="409.513" x2="861.356" y2="273.446" gradientUnits="userSpaceOnUse">
<stop stop-color="#CF6800"/>
<stop offset="0.28" stop-color="#E67E00"/>
<stop offset="1" stop-color="#FFA900"/>
</linearGradient>
<linearGradient id="paint12_linear_288_7826" x1="619.32" y1="422.221" x2="619.32" y2="343.964" gradientUnits="userSpaceOnUse">
<stop stop-color="#FF9600"/>
<stop offset="0.47" stop-color="#FFA200"/>
<stop offset="1" stop-color="#B03900"/>
</linearGradient>
<linearGradient id="paint13_linear_288_7826" x1="619.892" y1="345.719" x2="619.892" y2="267.462" gradientUnits="userSpaceOnUse">
<stop stop-color="#FF9600"/>
<stop offset="0.47" stop-color="#FFA200"/>
<stop offset="1" stop-color="#B03900"/>
</linearGradient>
<radialGradient id="paint14_radial_288_7826" cx="0" cy="0" r="1" gradientUnits="userSpaceOnUse" gradientTransform="translate(624.115 310.057) scale(190.976 36.1797)">
<stop stop-color="#FF61BB"/>
<stop offset="1"/>
</radialGradient>
<clipPath id="clip0_288_7826">
<rect width="689" height="273" fill="white" transform="translate(275 188)"/>
</clipPath>
</defs>
</svg>
