<svg width="987" height="443" viewBox="0 0 987 443" fill="none" xmlns="http://www.w3.org/2000/svg">
<path d="M251.43 440.288C382.152 440.288 484.823 341.972 480.754 220.692C476.684 99.413 367.414 1.09668 236.693 1.09668C105.971 1.09668 3.29907 99.413 7.36868 220.692C11.4383 341.972 120.708 440.288 251.43 440.288Z" fill="url(#paint0_radial_866_34)" fill-opacity="0.7" style="mix-blend-mode:screen"/>
<path d="M747.525 -0.000136504C879.36 -0.000136504 982.906 99.1532 978.802 221.465C974.697 343.777 864.497 442.93 732.663 442.93C600.828 442.93 497.282 343.777 501.386 221.465C505.491 99.1532 615.691 -0.000136504 747.525 -0.000136504Z" fill="url(#paint1_radial_866_34)" fill-opacity="0.7" style="mix-blend-mode:screen"/>
<g style="mix-blend-mode:hard-light" clip-path="url(#clip0_866_34)">
<path d="M762.963 170.485C762.963 170.485 753.671 174.756 748.104 171.817C747.977 171.732 747.807 171.648 747.659 171.563C747.532 171.457 747.363 171.373 747.214 171.225C747.193 171.225 747.193 171.204 747.193 171.204C746.855 170.992 746.601 170.759 746.325 170.463C741.287 165.156 733.73 153.294 721.961 148.452C710.17 143.61 697.385 145.682 674.206 142.764C673.444 142.658 672.682 142.552 671.962 142.404H671.877C650.942 138.704 649.63 123.543 649.63 123.543C659.198 123.903 733.286 112.463 739.446 127.053C739.53 127.265 739.615 127.497 739.657 127.709C740.716 131.599 741.266 135.913 741.88 140.269C741.901 140.48 741.944 140.734 741.986 140.945C742.155 142.087 742.325 143.271 742.515 144.392V144.561C742.6 145.026 742.642 145.492 742.769 145.936C742.769 146.02 742.769 146.105 742.79 146.189C743.256 148.896 743.849 151.56 744.674 154.055C747.193 161.794 752.041 168.18 762.942 170.485H762.963Z" fill="url(#paint2_linear_866_34)"/>
<path d="M762.963 303.168C761.926 303.379 760.91 303.633 759.979 303.971C740.61 309.955 743.679 331.058 739.679 345.923C735.466 361.464 659.346 349.729 649.651 350.046C649.651 350.046 651.048 333.785 674.227 330.867C697.406 327.928 710.213 330.022 721.982 325.18C733.73 320.337 741.309 308.475 746.347 303.168C747.913 301.519 750.093 300.927 752.337 300.842H752.358C752.358 300.842 752.443 300.821 752.485 300.821C754.094 300.757 755.745 301.011 757.227 301.349C760.423 302.026 762.963 303.189 762.963 303.189V303.168Z" fill="url(#paint3_linear_866_34)"/>
<path d="M842.407 139.465C838.872 150.524 824.414 153.379 818.085 153.104H818.064C816.286 153.04 815.164 152.744 815.079 152.279C814.719 150.207 832.374 138.091 814.042 133.249C796.705 128.682 761.757 152.491 777.252 172.028C777.887 172.853 778.628 173.678 779.475 174.481C779.75 174.756 780.046 175.031 780.343 175.306C780.406 175.327 780.427 175.369 780.448 175.39H780.47C803.289 195.478 804.855 228.844 804.855 228.844C807.459 222.607 810.592 218.991 810.592 218.991C810.592 226.793 820.562 236.076 821.366 251.152V251.258C821.705 258.151 820.096 266.292 814.741 276.018C797.679 307.038 766.71 296.317 752.57 300.736C752.464 300.758 752.401 300.8 752.401 300.8H752.379L752.358 300.821L746.368 303.147C746.368 303.147 768.721 275.342 766.647 236.943C765.186 209.856 754.75 188.627 748.146 171.796C746.96 168.814 745.923 166.023 745.076 163.338C743.891 159.637 743.087 156.17 742.769 152.935C742.43 149.403 742.409 146.697 742.557 144.561V144.392C743.15 135.215 746.77 136.653 743.108 126.292C738.62 113.521 718.892 82.0362 718.892 82.0362C718.892 82.0362 724.099 79.6257 741.753 82.0362C759.407 84.4678 795.054 98.2965 782.205 108.319C781.38 108.975 780.597 109.651 779.856 110.391C779.856 110.391 779.792 110.476 779.665 110.645C778.183 112.041 776.934 113.542 775.77 115.212H775.749C769.716 123.755 767.472 134.158 766.88 137.583C766.795 137.964 766.774 138.26 766.753 138.45C767.515 135.469 774.225 111.597 798.886 113.88C818.403 115.656 835.464 121.069 841.116 129.527C843.085 132.488 843.656 135.765 842.513 139.444L842.407 139.465Z" fill="url(#paint4_linear_866_34)"/>
<g style="mix-blend-mode:multiply" opacity="0.5">
<path d="M759.979 303.929C740.61 309.956 743.679 331.058 739.679 345.923C735.466 361.464 659.346 349.729 649.651 350.046C649.651 350.046 722.596 347.382 731.889 342.92C741.182 338.459 741.668 317.631 741.922 313.466C742.134 309.681 736.609 315.052 735.508 316.088C736.715 314.608 745.161 304.352 747.341 303.147C749.691 301.836 760 303.908 760 303.908L759.979 303.929Z" fill="#BE2F55"/>
</g>
<g style="mix-blend-mode:multiply" opacity="0.5">
<path d="M814.719 276.039C797.658 307.059 766.689 296.338 752.549 300.758C754.2 300.102 767.536 294.816 775.982 291.264C784.999 287.458 799.69 286.421 809.216 279.845C818.339 273.544 821.133 252.97 821.345 251.279C821.684 258.172 820.075 266.313 814.719 276.039Z" fill="#BE2F55"/>
</g>
<g style="mix-blend-mode:multiply" opacity="0.5">
<path d="M807.48 255.635C798.653 270.161 784.174 275.003 782.883 275.342C783.878 274.58 795.202 267.412 800.198 254.937C805.405 241.996 804.855 228.844 804.855 228.844C807.459 222.606 810.592 218.991 810.592 218.991C809.004 228.844 815.884 241.827 807.48 255.635Z" fill="#BE2F55"/>
</g>
<g style="mix-blend-mode:multiply" opacity="0.5">
<path d="M824.647 134.327C824.647 142.891 815.079 152.279 815.079 152.279C814.719 150.207 832.374 138.091 814.042 133.249C795.689 128.407 757.65 155.345 780.448 175.39C779.602 174.756 765.631 164.247 766.922 155.472C768.213 146.38 769.25 138.091 782.904 129.802C796.557 121.492 824.668 125.785 824.668 134.327H824.647Z" fill="#BE2F55"/>
</g>
<g style="mix-blend-mode:multiply" opacity="0.5">
<path d="M842.407 139.465C838.872 150.524 824.414 153.379 818.085 153.104C819.461 152.279 836.713 153.104 841.01 129.591C842.979 132.488 843.55 135.807 842.407 139.465Z" fill="#BE2F55"/>
</g>
<g style="mix-blend-mode:multiply" opacity="0.5">
<path d="M739.657 127.73C740.716 131.621 741.266 135.934 741.88 140.29C741.16 135.829 740.356 131.261 739.446 127.075C739.53 127.286 739.615 127.519 739.657 127.73Z" fill="#BE2F55"/>
</g>
<g style="mix-blend-mode:multiply" opacity="0.3">
<path d="M744.674 154.055C744.505 156.254 744.547 158.77 744.844 161.71C744.505 158.94 743.806 153.04 742.79 146.189C742.769 146.105 742.769 146.02 742.769 145.936C742.684 145.449 742.6 144.942 742.515 144.455V144.392C743.108 135.215 746.728 136.653 743.065 126.292C738.578 113.521 718.849 82.0361 718.849 82.0361C718.849 82.0361 743.573 92.6931 752.379 102.547C761.185 112.4 757.841 130.31 752.379 137.562C748.357 142.933 745.288 146.76 744.674 154.034V154.055Z" fill="#BE2F55"/>
</g>
<g style="mix-blend-mode:multiply" opacity="0.5">
<path d="M779.792 110.434C779.792 110.434 776.68 115.107 768.531 121.852C760.402 128.597 759.704 149.34 759.704 149.34L766.795 137.562C766.795 137.562 770.245 121.683 779.771 110.455L779.792 110.434Z" fill="#BE2F55"/>
</g>
<g style="mix-blend-mode:multiply" opacity="0.5">
<path d="M747.786 171.986C747.786 171.986 747.595 171.711 747.236 171.246C747.214 171.246 747.214 171.225 747.214 171.225C744.336 167.503 731.402 151.222 721.495 147.077C713.832 143.906 687.817 142.806 671.983 142.426H671.898C650.963 138.725 649.651 123.564 649.651 123.564C649.651 123.564 691.373 129.802 714.721 132.044C736.588 134.158 746.474 167.271 747.68 171.542C747.765 171.838 747.786 171.986 747.786 171.986Z" fill="#BE2F55"/>
</g>
<g style="mix-blend-mode:multiply" opacity="0.5">
<path d="M757.798 184.419C757.798 184.419 779.792 205.183 786.968 219.012C794.144 232.819 774.373 262.02 774.373 262.02C774.373 262.02 783.751 244.935 782.205 229.626C780.639 214.318 757.798 184.419 757.798 184.419Z" fill="#BE2F55"/>
</g>
<g style="mix-blend-mode:multiply" opacity="0.3">
<path d="M718.849 82.0786C718.849 82.0786 735.657 108.806 741.901 121.894C748.146 134.983 757.396 121.323 756.655 110.434C755.915 99.5442 718.87 82.0786 718.87 82.0786H718.849Z" fill="#BE2F55"/>
</g>
<g style="mix-blend-mode:multiply" opacity="0.3">
<path d="M649.63 123.565C649.63 123.565 702.91 130.585 713.388 131.917C723.887 133.249 727.528 150.355 727.528 150.355C727.528 150.355 716.246 144.181 697.914 143.546C679.582 142.912 655.662 142.024 649.63 123.543V123.565Z" fill="#BE2F55"/>
</g>
<g style="mix-blend-mode:multiply" opacity="0.3">
<path d="M782.883 144.012C767.515 151.476 775.474 131.452 792.07 127.244C808.687 123.036 817.493 131.219 818.085 132.382C818.678 133.545 807.903 131.473 798.441 134.708C788.958 137.943 782.883 143.991 782.883 143.991V144.012Z" fill="#BE2F55"/>
</g>
<g style="mix-blend-mode:multiply" opacity="0.5">
<path d="M788.535 272.974C788.535 272.974 798.462 267.56 805.384 258.743C812.306 249.926 808.157 225.208 808.157 225.208C808.157 225.208 804.135 227.301 804.834 228.844C805.554 230.388 803.331 261.09 788.513 272.952L788.535 272.974Z" fill="#BE2F55"/>
</g>
<g style="mix-blend-mode:multiply" opacity="0.5">
<path d="M759.704 187.083C759.704 187.083 776.448 201.441 782.861 211.717C789.275 221.993 788.852 229.436 786.164 234.976C783.475 240.516 782.015 242.06 782.015 242.06C782.015 242.06 784.872 226.497 776.384 211.463C767.896 196.429 759.682 187.083 759.682 187.083H759.704Z" fill="#BE2F55"/>
</g>
<g style="mix-blend-mode:soft-light" opacity="0.5">
<path d="M691.331 330.339C691.331 330.339 671.348 344.464 670.332 346.811C669.316 349.158 714.87 346.346 725.687 344.506C736.525 342.666 737.435 326.068 737.498 324.249C737.562 322.431 722.511 326.575 715.505 327.886C708.498 329.176 691.352 330.339 691.352 330.339H691.331Z" fill="white"/>
</g>
<g style="mix-blend-mode:soft-light" opacity="0.5">
<path d="M801.934 265.213C793.89 274.411 801.976 279.211 804.538 280.184C807.099 281.156 818.001 272.741 819.546 260.519C821.091 248.297 812.327 250.221 810.782 251.258C809.216 252.315 801.955 265.192 801.955 265.192L801.934 265.213Z" fill="white"/>
</g>
<g style="mix-blend-mode:soft-light" opacity="0.5">
<path d="M756.105 170.041C753.713 173.889 772.193 195.478 780.914 205.522C789.635 215.544 798.293 216.538 800.368 215.396C802.442 214.255 797.171 196.387 789.678 185.667C782.184 174.925 757.523 167.778 756.105 170.062V170.041Z" fill="white"/>
</g>
<g style="mix-blend-mode:soft-light" opacity="0.5">
<path d="M722.511 83.1146C722.511 83.1146 749.903 97.1547 757.227 104.661C764.551 112.168 783.92 108.446 784.491 101.87C785.063 95.294 753.925 80.5138 722.511 83.1146Z" fill="white"/>
</g>
<g style="mix-blend-mode:soft-light" opacity="0.5">
<path d="M663.579 122.529C663.579 122.529 680.704 128.513 703.82 131.092C726.914 133.693 736.017 125.32 736.017 125.32C736.017 125.32 726.935 119.315 699.798 119.632C672.682 119.949 663.579 122.529 663.579 122.529Z" fill="white"/>
</g>
<g style="mix-blend-mode:soft-light" opacity="0.5">
<path d="M791.117 114.07C775.918 116.312 781.189 126.673 782.036 128.237C782.883 129.802 791.159 124.347 807.628 125.594C824.097 126.842 828.415 125.827 829.283 123.543C830.151 121.259 811.121 111.11 791.117 114.049V114.07Z" fill="white"/>
</g>
<path d="M701.195 347.192C701.195 347.192 726.851 343.893 731.444 341.504C736.038 339.114 738.07 335.351 738.07 335.351C738.07 335.351 735.995 340.954 731.846 342.942C727.676 344.929 701.195 347.192 701.195 347.192Z" fill="#FFD134"/>
<path d="M786.968 287.944C786.968 287.944 801.045 282.404 808.306 276.801C815.566 271.197 818.89 262.93 818.89 262.93C818.89 262.93 816.011 274.115 810.465 278.831C804.919 283.546 786.968 287.944 786.968 287.944Z" fill="#FFD134"/>
<path d="M777.379 133.671C777.379 133.671 782.078 128.512 790.503 125.319C798.949 122.126 811.714 126.186 811.714 126.186C811.714 126.186 800.791 124.093 791.794 126.673C782.798 129.252 777.379 133.671 777.379 133.671Z" fill="#FFD134"/>
<path d="M687.161 128.491C687.161 128.491 713.219 130.225 720.987 130.986C728.756 131.748 731.868 141.347 731.868 141.347C731.868 141.347 725.051 132.34 687.182 128.512L687.161 128.491Z" fill="#FFD134"/>
<path d="M743.425 95.2095C743.425 95.2095 753.798 100.009 757.227 104.661C760.656 109.313 757.777 119.611 757.777 119.611C757.777 119.611 758.222 105.084 743.425 95.2095Z" fill="#FFD134"/>
<path d="M688.579 128.491C686.589 128.09 695.67 125.912 700.518 127.244C705.365 128.576 702.529 131.261 688.579 128.491Z" fill="#FFF9C7"/>
<path d="M791.816 126.673C784.026 126.99 791.9 119.695 802.103 121.027C812.306 122.359 800.368 126.334 791.816 126.673Z" fill="#FFF9C7"/>
<path d="M756.55 102.653C753.48 101.574 756.042 110.434 758.92 110.434C761.799 110.434 759.958 103.858 756.55 102.653Z" fill="#FFF9C7"/>
<path d="M806.951 281.072C800.876 282.277 812.793 270.796 813.852 271.261C814.91 271.726 812.158 280.036 806.951 281.072Z" fill="#FFF9C7"/>
<g style="mix-blend-mode:multiply" opacity="0.5">
<path d="M670.311 331.354C670.311 331.354 717.135 334.631 725.623 333.765C734.111 332.898 743.701 307.46 743.701 307.46C743.701 307.46 733.921 315.961 722.151 319.238C710.382 322.516 670.311 331.354 670.311 331.354Z" fill="#BE2F55"/>
</g>
<g style="mix-blend-mode:multiply" opacity="0.2">
<path d="M755.893 292.109C755.893 292.109 781.867 277.308 792.281 267.201C802.696 257.094 805.427 236.985 804.855 230.282C804.284 223.579 793.869 231.974 790.757 232.629C787.645 233.285 779.242 269.231 755.893 292.109Z" fill="#BE2F55"/>
</g>
<g style="mix-blend-mode:multiply" opacity="0.5">
<path d="M759.704 149.319C753.396 141.453 746.029 151.983 747.765 164.691C748.781 172.071 759.365 185.921 759.365 185.921C759.365 185.921 752.506 175.729 753.438 170.02C754.369 164.311 770.732 171.14 773.865 171.965C776.998 172.79 762.646 156.191 762.942 147.014C763.239 137.816 759.704 149.319 759.704 149.319Z" fill="#BE2F55"/>
</g>
<path d="M761.969 179.619C759.132 179.683 764.996 183.637 765.863 184.419C766.731 185.202 771.833 179.408 761.969 179.619Z" fill="#FFF9C7"/>
<g style="mix-blend-mode:multiply" opacity="0.5">
<path d="M753.523 300.356C753.523 300.356 770.055 292.617 774.31 292.11C778.564 291.602 796.219 292.807 796.219 292.807C796.219 292.807 789.529 298.643 775.834 299.066C762.138 299.489 761.185 298.58 753.523 300.356Z" fill="#BE2F55"/>
</g>
<path d="M234.058 170.485C234.058 170.485 243.35 174.756 248.918 171.817C249.045 171.733 249.214 171.648 249.362 171.563C249.489 171.458 249.659 171.373 249.807 171.225C249.828 171.225 249.828 171.204 249.828 171.204C250.167 170.993 250.421 170.76 250.696 170.464C255.734 165.157 263.291 153.294 275.06 148.452C286.851 143.61 299.636 145.682 322.815 142.764C323.578 142.659 324.34 142.553 325.059 142.405H325.144C346.079 138.705 347.392 123.544 347.392 123.544C337.824 123.903 263.735 112.464 257.575 127.054C257.491 127.265 257.406 127.498 257.364 127.709C256.305 131.6 255.755 135.913 255.141 140.269C255.12 140.481 255.078 140.734 255.035 140.946C254.866 142.088 254.697 143.272 254.506 144.392V144.562C254.421 145.027 254.379 145.492 254.252 145.936C254.252 146.021 254.252 146.105 254.231 146.19C253.765 148.896 253.172 151.561 252.347 154.056C249.828 161.795 244.98 168.18 234.079 170.485H234.058Z" fill="url(#paint5_linear_866_34)"/>
<path d="M234.058 303.168C235.095 303.38 236.111 303.634 237.042 303.972C256.411 309.956 253.342 331.058 257.343 345.923C261.555 361.464 337.675 349.729 347.37 350.046C347.37 350.046 345.973 333.786 322.794 330.868C299.615 327.929 286.809 330.022 275.039 325.18C263.291 320.338 255.713 308.476 250.675 303.168C249.108 301.519 246.928 300.927 244.684 300.842H244.663C244.663 300.842 244.578 300.821 244.536 300.821C242.927 300.758 241.276 301.012 239.794 301.35C236.598 302.027 234.058 303.19 234.058 303.19V303.168Z" fill="url(#paint6_linear_866_34)"/>
<path d="M154.593 139.466C158.128 150.524 172.586 153.379 178.915 153.104H178.936C180.714 153.04 181.836 152.744 181.921 152.279C182.281 150.207 164.626 138.091 182.958 133.249C200.295 128.682 235.243 152.491 219.748 172.028C219.113 172.853 218.372 173.678 217.525 174.481C217.25 174.756 216.954 175.031 216.658 175.306C216.594 175.327 216.573 175.369 216.552 175.39H216.531C193.711 195.478 192.145 228.844 192.145 228.844C189.541 222.607 186.408 218.991 186.408 218.991C186.408 226.793 176.438 236.076 175.634 251.152V251.258C175.295 258.151 176.904 266.292 182.259 276.018C199.321 307.038 230.29 296.317 244.43 300.737C244.536 300.758 244.599 300.8 244.599 300.8H244.621L244.642 300.821L250.632 303.147C250.632 303.147 228.279 275.342 230.353 236.943C231.814 209.856 242.25 188.627 248.854 171.796C250.04 168.814 251.077 166.023 251.924 163.338C253.109 159.638 253.913 156.17 254.231 152.935C254.57 149.404 254.591 146.697 254.443 144.561V144.392C253.85 135.215 250.23 136.653 253.892 126.292C258.443 113.542 278.172 82.0787 278.172 82.0787C278.172 82.0787 272.965 79.6682 255.31 82.0787C237.656 84.5103 202.009 98.339 214.858 108.362C215.684 109.017 216.467 109.694 217.208 110.434C217.208 110.434 217.271 110.518 217.398 110.688C218.88 112.083 220.129 113.584 221.293 115.255H221.315C227.347 123.797 229.591 134.2 230.184 137.626C230.269 138.007 230.29 138.303 230.311 138.493C229.549 135.511 222.839 111.639 198.178 113.923C178.661 115.699 161.599 121.112 155.947 129.57C154 132.509 153.428 135.807 154.593 139.466Z" fill="url(#paint7_linear_866_34)"/>
<g style="mix-blend-mode:multiply" opacity="0.5">
<path d="M237.042 303.929C256.411 309.956 253.342 331.058 257.343 345.923C261.555 361.464 337.675 349.729 347.37 350.046C347.37 350.046 274.425 347.382 265.132 342.92C255.84 338.459 255.353 317.631 255.099 313.466C254.887 309.681 260.412 315.052 261.513 316.088C260.306 314.608 251.86 304.352 249.68 303.147C247.33 301.836 237.021 303.908 237.021 303.908L237.042 303.929Z" fill="#BE2F55"/>
</g>
<g style="mix-blend-mode:multiply" opacity="0.5">
<path d="M182.281 276.039C199.342 307.059 230.311 296.338 244.451 300.758C242.8 300.102 229.464 294.816 221.018 291.264C212.001 287.458 197.31 286.421 187.784 279.845C178.661 273.544 175.867 252.97 175.655 251.279C175.316 258.172 176.925 266.313 182.281 276.039Z" fill="#BE2F55"/>
</g>
<g style="mix-blend-mode:multiply" opacity="0.5">
<path d="M189.541 255.635C198.368 270.162 212.847 275.004 214.139 275.342C213.144 274.581 201.819 267.413 196.823 254.937C191.616 241.997 192.166 228.845 192.166 228.845C189.562 222.607 186.43 218.991 186.43 218.991C188.017 228.845 181.138 241.828 189.541 255.635Z" fill="#BE2F55"/>
</g>
<g style="mix-blend-mode:multiply" opacity="0.5">
<path d="M172.353 134.327C172.353 142.891 181.921 152.279 181.921 152.279C182.281 150.207 164.626 138.091 182.958 133.249C201.311 128.407 239.35 155.345 216.552 175.39C217.398 174.756 231.369 164.247 230.078 155.472C228.787 146.38 227.75 138.091 214.096 129.802C200.443 121.492 172.332 125.785 172.332 134.327H172.353Z" fill="#BE2F55"/>
</g>
<g style="mix-blend-mode:multiply" opacity="0.5">
<path d="M154.593 139.465C158.128 150.524 172.586 153.379 178.915 153.104C177.539 152.279 160.287 153.104 155.99 129.591C154 132.488 153.428 135.807 154.593 139.465Z" fill="#BE2F55"/>
</g>
<g style="mix-blend-mode:multiply" opacity="0.5">
<path d="M257.343 127.73C256.284 131.621 255.734 135.934 255.12 140.29C255.84 135.829 256.644 131.261 257.554 127.075C257.47 127.286 257.385 127.519 257.343 127.73Z" fill="#BE2F55"/>
</g>
<g style="mix-blend-mode:multiply" opacity="0.3">
<path d="M252.326 154.055C252.495 156.254 252.453 158.771 252.156 161.71C252.495 158.94 253.194 153.04 254.21 146.19C254.231 146.105 254.231 146.02 254.231 145.936C254.316 145.449 254.4 144.942 254.485 144.456V144.392C253.892 135.215 250.272 136.653 253.935 126.292C258.443 113.542 278.172 82.0786 278.172 82.0786C278.172 82.0786 253.448 92.7356 244.642 102.589C235.836 112.442 239.18 130.352 244.642 137.605C248.664 142.976 251.733 146.803 252.347 154.077L252.326 154.055Z" fill="#BE2F55"/>
</g>
<g style="mix-blend-mode:multiply" opacity="0.5">
<path d="M217.208 110.434C217.208 110.434 220.32 115.107 228.469 121.852C236.598 128.597 237.296 149.34 237.296 149.34L230.205 137.562C230.205 137.562 226.755 121.683 217.229 110.455L217.208 110.434Z" fill="#BE2F55"/>
</g>
<g style="mix-blend-mode:multiply" opacity="0.5">
<path d="M249.235 171.986C249.235 171.986 249.426 171.711 249.786 171.246C249.807 171.246 249.807 171.225 249.807 171.225C252.686 167.503 265.619 151.222 275.526 147.077C283.189 143.906 309.204 142.806 325.038 142.426H325.123C346.058 138.725 347.37 123.564 347.37 123.564C347.37 123.564 305.648 129.802 282.3 132.044C260.433 134.158 250.548 167.271 249.341 171.542C249.256 171.838 249.235 171.986 249.235 171.986Z" fill="#BE2F55"/>
</g>
<g style="mix-blend-mode:multiply" opacity="0.5">
<path d="M239.202 184.419C239.202 184.419 217.208 205.184 210.032 219.012C202.856 232.82 222.627 262.021 222.627 262.021C222.627 262.021 213.249 244.936 214.795 229.627C216.34 214.318 239.202 184.419 239.202 184.419Z" fill="#BE2F55"/>
</g>
<g style="mix-blend-mode:multiply" opacity="0.3">
<path d="M278.172 82.0786C278.172 82.0786 261.365 108.806 255.12 121.894C248.875 134.983 239.625 121.323 240.366 110.434C241.107 99.5442 278.172 82.0786 278.172 82.0786Z" fill="#BE2F55"/>
</g>
<g style="mix-blend-mode:multiply" opacity="0.3">
<path d="M347.37 123.565C347.37 123.565 294.09 130.585 283.612 131.917C273.113 133.249 269.472 150.355 269.472 150.355C269.472 150.355 280.755 144.181 299.086 143.546C317.418 142.912 341.338 142.024 347.37 123.543V123.565Z" fill="#BE2F55"/>
</g>
<g style="mix-blend-mode:multiply" opacity="0.3">
<path d="M214.139 144.012C229.507 151.476 221.547 131.452 204.952 127.244C188.335 123.036 179.529 131.219 178.936 132.382C178.343 133.545 189.118 131.473 198.58 134.708C208.063 137.943 214.139 143.991 214.139 143.991V144.012Z" fill="#BE2F55"/>
</g>
<g style="mix-blend-mode:multiply" opacity="0.5">
<path d="M208.465 272.974C208.465 272.974 198.538 267.56 191.616 258.743C184.694 249.926 188.843 225.208 188.843 225.208C188.843 225.208 192.865 227.301 192.166 228.844C191.446 230.388 193.669 261.09 208.487 272.952L208.465 272.974Z" fill="#BE2F55"/>
</g>
<g style="mix-blend-mode:multiply" opacity="0.5">
<path d="M237.296 187.083C237.296 187.083 220.552 201.441 214.139 211.717C207.703 221.993 208.148 229.436 210.836 234.976C213.525 240.516 214.985 242.06 214.985 242.06C214.985 242.06 212.128 226.497 220.616 211.463C229.104 196.429 237.318 187.083 237.318 187.083H237.296Z" fill="#BE2F55"/>
</g>
<g style="mix-blend-mode:soft-light" opacity="0.5">
<path d="M305.669 330.339C305.669 330.339 325.652 344.464 326.668 346.811C327.684 349.158 282.13 346.346 271.314 344.506C260.497 342.666 259.565 326.068 259.502 324.249C259.438 322.431 274.489 326.575 281.495 327.886C288.502 329.176 305.648 330.339 305.648 330.339H305.669Z" fill="white"/>
</g>
<g style="mix-blend-mode:soft-light" opacity="0.5">
<path d="M195.066 265.214C203.11 274.412 195.024 279.211 192.462 280.184C189.901 281.157 179 272.741 177.454 260.519C175.909 248.298 184.673 250.222 186.218 251.258C187.784 252.315 195.045 265.192 195.045 265.192L195.066 265.214Z" fill="white"/>
</g>
<g style="mix-blend-mode:soft-light" opacity="0.5">
<path d="M240.895 170.041C243.287 173.889 224.807 195.478 216.086 205.522C207.365 215.544 198.707 216.538 196.633 215.396C194.558 214.255 199.829 196.387 207.322 185.667C214.816 174.925 239.477 167.778 240.895 170.062V170.041Z" fill="white"/>
</g>
<g style="mix-blend-mode:soft-light" opacity="0.5">
<path d="M274.51 83.1146C274.51 83.1146 247.118 97.1547 239.794 104.661C232.47 112.168 213.101 108.446 212.53 101.87C211.958 95.294 243.096 80.5138 274.51 83.1146Z" fill="white"/>
</g>
<g style="mix-blend-mode:soft-light" opacity="0.5">
<path d="M333.421 122.529C333.421 122.529 316.296 128.513 293.18 131.092C270.086 133.693 260.984 125.32 260.984 125.32C260.984 125.32 270.065 119.315 297.202 119.632C324.318 119.949 333.421 122.529 333.421 122.529Z" fill="white"/>
</g>
<g style="mix-blend-mode:soft-light" opacity="0.5">
<path d="M205.883 114.071C221.082 116.312 215.811 126.673 214.964 128.238C214.117 129.802 205.841 124.347 189.372 125.595C172.903 126.842 168.585 125.827 167.717 123.544C166.849 121.26 185.879 111.11 205.883 114.05V114.071Z" fill="white"/>
</g>
<path d="M295.805 347.192C295.805 347.192 270.149 343.893 265.556 341.504C260.941 339.114 258.93 335.351 258.93 335.351C258.93 335.351 261.005 340.954 265.154 342.942C269.324 344.929 295.805 347.192 295.805 347.192Z" fill="#FFD134"/>
<path d="M210.032 287.944C210.032 287.944 195.955 282.404 188.694 276.801C181.434 271.197 178.11 262.93 178.11 262.93C178.11 262.93 180.989 274.115 186.535 278.831C192.081 283.546 210.032 287.944 210.032 287.944Z" fill="#FFD134"/>
<path d="M219.621 133.672C219.621 133.672 214.922 128.513 206.497 125.32C198.051 122.127 185.286 126.187 185.286 126.187C185.286 126.187 196.209 124.093 205.206 126.673C214.202 129.253 219.621 133.672 219.621 133.672Z" fill="#FFD134"/>
<path d="M309.861 128.491C309.861 128.491 283.803 130.225 276.034 130.986C268.265 131.748 265.154 141.347 265.154 141.347C265.154 141.347 271.97 132.34 309.839 128.512L309.861 128.491Z" fill="#FFD134"/>
<path d="M253.596 95.2095C253.596 95.2095 243.223 100.009 239.794 104.661C236.365 109.313 239.244 119.611 239.244 119.611C239.244 119.611 238.799 105.084 253.596 95.2095Z" fill="#FFD134"/>
<path d="M308.421 128.491C310.411 128.09 301.33 125.912 296.482 127.244C291.635 128.576 294.471 131.261 308.421 128.491Z" fill="#FFF9C7"/>
<path d="M205.184 126.673C212.974 126.99 205.1 119.695 194.897 121.027C184.694 122.36 196.633 126.335 205.184 126.673Z" fill="#FFF9C7"/>
<path d="M240.472 102.653C243.541 101.574 240.98 110.434 238.101 110.434C235.222 110.434 237.064 103.858 240.472 102.653Z" fill="#FFF9C7"/>
<path d="M190.049 281.072C196.125 282.277 184.207 270.796 183.148 271.261C182.09 271.726 184.842 280.036 190.049 281.072Z" fill="#FFF9C7"/>
<g style="mix-blend-mode:multiply" opacity="0.5">
<path d="M326.689 331.354C326.689 331.354 279.865 334.631 271.377 333.765C262.889 332.898 253.299 307.46 253.299 307.46C253.299 307.46 263.079 315.961 274.849 319.238C286.618 322.516 326.689 331.354 326.689 331.354Z" fill="#BE2F55"/>
</g>
<g style="mix-blend-mode:multiply" opacity="0.2">
<path d="M241.107 292.109C241.107 292.109 215.133 277.308 204.719 267.201C194.304 257.094 191.573 236.985 192.145 230.282C192.716 223.579 203.131 231.974 206.243 232.629C209.355 233.285 217.758 269.231 241.107 292.109Z" fill="#BE2F55"/>
</g>
<g style="mix-blend-mode:multiply" opacity="0.5">
<path d="M237.296 149.319C243.605 141.453 250.971 151.983 249.235 164.691C248.219 172.071 237.635 185.921 237.635 185.921C237.635 185.921 244.494 175.729 243.562 170.02C242.631 164.311 226.268 171.14 223.135 171.965C220.002 172.79 234.354 156.191 234.058 147.014C233.761 137.816 237.296 149.319 237.296 149.319Z" fill="#BE2F55"/>
</g>
<path d="M235.053 179.619C237.889 179.683 232.026 183.637 231.158 184.419C230.29 185.202 225.188 179.408 235.053 179.619Z" fill="#FFF9C7"/>
<g style="mix-blend-mode:multiply" opacity="0.5">
<path d="M243.478 300.356C243.478 300.356 226.945 292.617 222.69 292.11C218.436 291.602 200.781 292.807 200.781 292.807C200.781 292.807 207.471 298.643 221.166 299.066C234.862 299.489 235.815 298.58 243.478 300.356Z" fill="#BE2F55"/>
</g>
<path d="M782.883 236.964C782.883 242.61 780.745 249.608 777.294 257.199C777.294 257.199 777.294 257.221 777.273 257.263C774.034 264.41 769.61 272.107 764.678 279.592C751.829 299.193 735.657 317.695 728.417 322.981C721.897 327.738 715.166 332.665 572.176 332.665C533.861 332.665 501.665 332.263 498.489 332.2C495.314 332.263 463.139 332.665 424.803 332.665C281.792 332.665 275.081 327.738 268.562 322.981C256.94 314.502 222.309 272.022 215.345 245.422C215.324 245.401 215.324 245.358 215.324 245.358C214.52 242.356 214.096 239.522 214.096 236.985C214.096 212.14 255.628 160.483 268.562 151.01C275.081 146.253 281.792 141.326 424.803 141.326C463.118 141.326 495.314 141.728 498.489 141.77C501.665 141.749 533.84 141.326 572.176 141.326C715.187 141.326 721.897 146.253 728.417 151.01C741.351 160.483 782.883 212.119 782.883 236.985V236.964Z" fill="url(#paint8_linear_866_34)"/>
<path d="M717.071 168.941C705.725 160.652 498.489 160.906 498.489 160.906C498.489 160.906 291.254 160.843 279.908 169.131C268.562 177.42 233.274 221.74 233.274 236.964C233.274 252.188 268.562 297.903 279.908 306.213C291.254 314.502 498.489 313.043 498.489 313.043C498.489 313.043 706.191 313.36 717.537 305.071C728.883 296.782 763.683 252.188 763.683 236.985C763.683 221.782 728.396 177.272 717.05 168.962L717.071 168.941Z" fill="url(#paint9_linear_866_34)"/>
<path d="M279.908 166.446C279.908 166.446 244.853 206.072 267.651 236.964C267.651 236.964 248.833 261.999 274.446 302.513C274.446 302.513 232.428 262.021 233.274 236.964C234.375 204.295 279.908 166.446 279.908 166.446Z" fill="url(#paint10_linear_866_34)"/>
<path d="M717.071 166.446C717.071 166.446 753.544 213.367 729.327 236.964C729.327 236.964 752.125 262.084 722.532 302.513C722.532 302.513 763.408 262.993 763.704 236.964C764.043 208.207 717.071 166.446 717.071 166.446Z" fill="url(#paint11_linear_866_34)"/>
<path d="M267.673 236.964H273.261C273.261 236.964 262.846 259.272 267.673 276.378C277.41 310.949 293.138 302.576 302.24 304.817C318.603 308.835 611.929 311.309 710.043 303.147C733.709 301.18 732.63 274.475 731.846 262.02C731.063 249.566 717.05 237.239 717.05 237.239L729.306 236.964C729.306 236.964 738.133 251.85 737.456 267.18C736.779 282.51 727.93 302.872 717.071 307.503C704.857 312.683 608.796 314.777 504.205 315.199C396.523 315.622 287.168 311.626 279.929 307.503C265.662 299.383 261.936 281.051 259.523 267.011C257.089 252.97 267.694 236.985 267.694 236.985L267.673 236.964Z" fill="url(#paint12_linear_866_34)"/>
<path d="M729.306 238.719L717.05 237.26C717.05 237.26 731.042 226.095 731.846 213.662C732.418 204.528 731.91 188.289 722.257 179.196C718.786 175.919 714.065 173.551 707.799 172.811C602.425 160.547 318.603 166.848 302.24 170.844C295.784 172.43 285.962 168.687 277.325 178.731C273.79 182.812 270.467 189.24 267.651 199.284C262.825 216.411 273.24 236.943 273.24 236.943H267.651C267.651 236.943 257.046 222.712 259.481 208.672C261.089 199.411 263.227 188.331 268.604 179.492C271.377 174.925 275.018 170.95 279.887 168.18C287.126 164.057 396.502 160.06 504.162 160.462C602.065 160.864 692.495 162.725 713.663 167.228C715.124 167.524 716.246 167.863 717.029 168.18C727.909 172.768 737.477 193.215 738.557 210.66C739.509 225.99 729.264 238.676 729.264 238.676L729.306 238.719Z" fill="url(#paint13_linear_866_34)"/>
<g style="mix-blend-mode:multiply" opacity="0.5">
<path d="M776.68 258.215L764.657 279.571C751.808 299.172 735.635 317.674 728.396 322.96C721.876 327.717 715.145 332.644 572.154 332.644C533.84 332.644 501.643 332.242 498.468 332.179C495.293 332.242 463.118 332.644 424.782 332.644C281.771 332.644 275.06 327.717 268.541 322.96C256.919 314.481 222.288 272.001 215.324 245.401C216.255 247.24 246.907 306.361 279.887 320.126C313.375 334.145 579.881 336.556 718.807 320.126C740.97 317.505 771.918 266.123 776.659 258.236L776.68 258.215Z" fill="#BE2F55"/>
</g>
<g style="mix-blend-mode:multiply" opacity="0.5">
<path d="M752.485 300.821C754.094 300.758 755.745 301.012 757.227 301.35L752.485 300.821Z" fill="#BE2F55"/>
</g>
<g style="mix-blend-mode:multiply" opacity="0.5">
<path d="M745.013 163.063C744.95 162.598 744.907 162.154 744.844 161.731C744.928 162.323 744.971 162.788 745.013 163.063Z" fill="#BE2F55"/>
</g>
<g style="mix-blend-mode:multiply" opacity="0.5">
<path d="M717.071 237.26C717.071 237.26 729.73 251.49 732.016 264.621C734.281 277.773 737.265 272.022 737.519 262.02C737.752 252.019 729.327 238.719 729.327 238.719L717.071 237.26Z" fill="#BE2F55"/>
</g>
<g style="mix-blend-mode:multiply" opacity="0.5">
<path d="M273.261 236.964H267.673C267.673 236.964 260.2 249.334 259.671 256.332C259.142 263.331 263.63 268.491 265.132 269.548C266.635 270.605 266.085 246.12 273.261 236.964Z" fill="#BE2F55"/>
</g>
<g style="mix-blend-mode:multiply" opacity="0.5">
<path d="M725.686 179.62C725.686 179.62 724.565 179.493 722.257 179.218C706.424 177.42 635.151 170.274 502.363 170.274C379.228 170.274 302.113 176.427 277.325 178.753C271.525 179.302 268.583 179.62 268.583 179.62V179.514C271.377 174.947 275.018 170.971 279.908 168.201C287.147 164.078 396.523 160.082 504.184 160.484C602.086 160.885 692.516 162.746 713.684 167.25C722.532 170.633 725.686 179.62 725.686 179.62Z" fill="#BE2F55"/>
</g>
<g style="mix-blend-mode:multiply" opacity="0.5">
<path d="M772.32 217.511C770.584 201.293 755.068 198.396 746.791 203.428C744.992 204.507 740.843 224.319 739.911 227.893C738.98 231.466 746.96 234.553 749.564 233.983C752.168 233.412 751.279 228.865 751.893 227.089C752.528 225.313 749.331 229.415 744.717 229.521C740.123 229.627 745.267 209.285 747.871 206.854C750.474 204.422 767.176 213.937 770.161 218.737C773.124 223.537 759.852 236.604 759.852 236.604C759.852 236.604 773.124 249.672 770.161 254.472C767.197 259.272 750.474 268.787 747.871 266.355C745.267 263.924 740.123 243.561 744.717 243.688C749.31 243.794 752.506 247.896 751.893 246.12C751.258 244.343 752.147 239.797 749.564 239.226C746.96 238.656 738.98 241.743 739.911 245.316C740.843 248.868 744.695 269.738 746.791 269.781C748.887 269.802 770.584 271.916 772.32 255.698C773.145 247.917 764.615 236.647 764.615 236.647C764.615 236.647 773.166 225.377 772.32 217.595V217.511Z" fill="#BE2F55"/>
</g>
<path d="M742.854 258.553C742.854 258.553 745.055 268.724 746.431 269.358C749.098 270.563 763.281 268.66 766.901 265.467C770.499 262.253 771.939 257.771 771.939 257.771C771.939 257.771 771.029 262.528 768.7 265.256C764.022 270.775 751.3 271.536 746.749 270.627C743.383 269.95 742.854 258.532 742.854 258.532V258.553Z" fill="#FFD134"/>
<path d="M743.087 245.633C744.209 241.573 751.596 247.325 752.041 247.325C752.485 247.325 751.575 243.286 751.575 243.286C751.575 243.286 751.998 246.204 751.575 246.373C751.152 246.542 748.294 243.286 744.738 243.624C742.833 243.815 743.066 245.633 743.066 245.633H743.087Z" fill="#FFD134"/>
<path d="M740.525 230.219C740.525 230.219 741.436 231.995 743.849 233.306C746.262 234.617 749.374 235.272 750.199 234.49C751.85 232.925 751.575 229.373 751.575 229.373C751.575 229.373 751.279 233.179 748.802 233.75C746.325 234.321 741.795 232.502 740.525 230.219Z" fill="#FFD134"/>
<path d="M745.563 211.675C745.563 211.675 747.49 207.805 749.543 207.34C753.459 206.431 764.128 213.112 765.842 214.487C765.842 214.487 755.279 207.34 752.147 206.24C749.014 205.12 747.828 206.727 747.49 207.298C747.151 207.869 745.563 211.675 745.563 211.675Z" fill="#FFD134"/>
<path d="M759.873 236.562C759.873 236.562 766.52 243.54 768.171 246.585L759.873 236.562Z" fill="#FFD134"/>
<g style="mix-blend-mode:multiply" opacity="0.5">
<path d="M741.414 221C741.414 221 745.542 207.763 748.463 205.86C751.385 203.957 764.784 211.823 768.192 215.037C771.6 218.272 771.494 221 771.494 221C771.494 221 773.293 212.986 768.192 208.736C763.09 204.485 754.263 201.06 747.617 203.386C745.203 204.232 741.414 221 741.414 221Z" fill="#BE2F55"/>
</g>
<g style="mix-blend-mode:multiply" opacity="0.5">
<path d="M748.823 266.736C742.007 266.398 759.323 268.745 764.89 265.15C770.457 261.555 770.203 254.43 770.203 254.43C770.203 254.43 766.668 258.743 759.894 262.338C753.099 265.932 751.004 266.863 748.823 266.736Z" fill="#BE2F55"/>
</g>
<g style="mix-blend-mode:multiply" opacity="0.5">
<path d="M752.824 224.7C752.824 224.7 755.068 220.196 753.565 215.396C752.062 210.596 757.333 212.415 759.873 216.305C762.413 220.196 752.803 224.7 752.803 224.7H752.824Z" fill="#BE2F55"/>
</g>
<g style="mix-blend-mode:multiply" opacity="0.5">
<path d="M752.824 248.319C752.824 248.319 755.068 252.823 753.565 257.623C752.062 262.422 757.333 260.604 759.873 256.713C762.413 252.823 752.803 248.319 752.803 248.319H752.824Z" fill="#BE2F55"/>
</g>
<path d="M752.824 224.7C752.824 224.7 758.624 221.74 759.894 219.202C759.894 219.202 759.428 223.875 752.824 224.7Z" fill="#FFD134"/>
<path d="M753.311 258.955C753.311 258.955 753.078 260.16 754.369 260.498C755.639 260.837 758.37 258.532 758.37 258.532C758.37 258.532 756.401 261.281 754.517 261.281C752.782 261.281 753.332 258.976 753.332 258.976L753.311 258.955Z" fill="#FFD134"/>
<g style="mix-blend-mode:multiply" opacity="0.5">
<path d="M224.151 217.511C225.887 201.293 241.403 198.396 249.68 203.428C251.479 204.507 255.628 224.319 256.559 227.893C257.491 231.466 249.51 234.553 246.907 233.983C244.303 233.412 245.192 228.865 244.578 227.089C243.943 225.313 247.14 229.415 251.754 229.521C256.348 229.627 251.204 209.285 248.6 206.854C245.996 204.422 229.295 213.937 226.31 218.737C223.347 223.537 236.619 236.604 236.619 236.604C236.619 236.604 223.347 249.672 226.31 254.472C229.274 259.272 245.996 268.787 248.6 266.355C251.204 263.923 256.348 243.561 251.754 243.688C247.161 243.794 243.964 247.896 244.578 246.12C245.213 244.343 244.324 239.797 246.907 239.226C249.51 238.656 257.491 241.743 256.559 245.316C255.628 248.868 251.775 269.738 249.68 269.781C247.584 269.823 225.887 271.916 224.151 255.698C223.325 247.917 231.856 236.647 231.856 236.647C231.856 236.647 223.304 225.377 224.151 217.595V217.511Z" fill="#BE2F55"/>
</g>
<path d="M253.617 258.553C253.617 258.553 251.416 268.724 250.04 269.358C247.372 270.563 233.19 268.66 229.57 265.467C225.971 262.253 224.532 257.771 224.532 257.771C224.532 257.771 225.442 262.528 227.771 265.256C232.449 270.775 245.171 271.536 249.722 270.627C253.088 269.95 253.617 258.532 253.617 258.532V258.553Z" fill="#FFD134"/>
<path d="M253.384 245.633C252.262 241.573 244.875 247.325 244.43 247.325C243.986 247.325 244.896 243.286 244.896 243.286C244.896 243.286 244.472 246.204 244.896 246.373C245.319 246.542 248.177 243.286 251.733 243.624C253.638 243.815 253.405 245.633 253.405 245.633H253.384Z" fill="#FFD134"/>
<path d="M255.945 230.219C255.945 230.219 255.035 231.995 252.622 233.306C250.209 234.617 247.097 235.272 246.272 234.49C244.621 232.925 244.896 229.373 244.896 229.373C244.896 229.373 245.192 233.179 247.669 233.75C250.145 234.321 254.675 232.502 255.945 230.219Z" fill="#FFD134"/>
<path d="M250.907 211.675C250.907 211.675 248.981 207.805 246.928 207.34C243.012 206.431 232.343 213.112 230.628 214.487C230.628 214.487 241.191 207.34 244.324 206.24C247.457 205.12 248.643 206.727 248.981 207.298C249.32 207.869 250.907 211.675 250.907 211.675Z" fill="#FFD134"/>
<path d="M236.598 236.562C236.598 236.562 229.951 243.54 228.3 246.585L236.598 236.562Z" fill="#FFD134"/>
<g style="mix-blend-mode:multiply" opacity="0.5">
<path d="M255.056 221C255.056 221 250.929 207.763 248.007 205.86C245.107 203.957 231.687 211.823 228.279 215.037C224.871 218.272 224.977 221 224.977 221C224.977 221 223.177 212.986 228.279 208.736C233.38 204.485 242.207 201.06 248.854 203.386C251.267 204.232 255.056 221 255.056 221Z" fill="#BE2F55"/>
</g>
<g style="mix-blend-mode:multiply" opacity="0.5">
<path d="M247.648 266.736C254.464 266.398 237.148 268.745 231.581 265.15C226.014 261.555 226.268 254.43 226.268 254.43C226.268 254.43 229.803 258.743 236.577 262.338C243.372 265.932 245.467 266.863 247.648 266.736Z" fill="#BE2F55"/>
</g>
<g style="mix-blend-mode:multiply" opacity="0.5">
<path d="M243.647 224.7C243.647 224.7 241.403 220.196 242.906 215.396C244.409 210.596 239.138 212.415 236.598 216.305C234.058 220.196 243.668 224.7 243.668 224.7H243.647Z" fill="#BE2F55"/>
</g>
<g style="mix-blend-mode:multiply" opacity="0.5">
<path d="M243.647 248.319C243.647 248.319 241.403 252.823 242.906 257.623C244.409 262.422 239.138 260.604 236.598 256.713C234.058 252.823 243.668 248.319 243.668 248.319H243.647Z" fill="#BE2F55"/>
</g>
<path d="M243.647 224.7C243.647 224.7 237.847 221.74 236.577 219.202C236.577 219.202 237.042 223.875 243.647 224.7Z" fill="#FFD134"/>
<path d="M243.16 258.955C243.16 258.955 243.393 260.16 242.102 260.498C240.831 260.837 238.101 258.532 238.101 258.532C238.101 258.532 240.069 261.281 241.953 261.281C243.689 261.281 243.139 258.976 243.139 258.976L243.16 258.955Z" fill="#FFD134"/>
<g style="mix-blend-mode:soft-light" opacity="0.5">
<path d="M368.941 141.622C368.941 141.622 362.167 157.988 509.137 160.462C656.107 162.936 698.718 150.376 698.718 150.376C698.718 150.376 632.695 141.749 368.962 141.622H368.941Z" fill="white"/>
</g>
<path d="M491.525 160.082C491.525 160.082 547.367 157.46 581.638 157.122C615.909 156.783 659.303 163.084 659.303 163.084L491.525 160.103V160.082Z" fill="#FFD134"/>
<g style="mix-blend-mode:soft-light" opacity="0.5">
<path d="M279.908 187.083C270.975 188.944 350.524 231.699 533.798 234.469C717.071 237.239 726.449 209.941 725.687 192.687C724.924 175.433 444.998 152.575 279.908 187.083Z" fill="white"/>
</g>
<g style="mix-blend-mode:multiply" opacity="0.2">
<path d="M293.688 304.268C280.797 303.824 265.154 218.991 565.719 238.698C721.114 248.89 725.813 291.243 717.071 300.737C708.329 310.252 402.386 307.947 293.709 304.247L293.688 304.268Z" fill="#BE2F55"/>
</g>
<g style="mix-blend-mode:multiply" opacity="0.2">
<path d="M575.414 239.036C468.367 237.62 599.419 289.551 670.311 289.022C741.203 288.494 678.566 240.411 575.414 239.036Z" fill="#CF6481"/>
</g>
<path d="M579.563 141.622C567.286 141.474 583.373 149.509 602.742 149.34C622.132 149.171 619.698 143.293 619.698 143.293C619.698 143.293 604.478 141.918 579.542 141.643L579.563 141.622Z" fill="#FFF9C7"/>
<g style="mix-blend-mode:soft-light" opacity="0.5">
<path d="M644.105 203.534C627.424 216.665 661.209 213.81 670.311 205.522C679.413 197.233 651.895 197.423 644.105 203.534Z" fill="white"/>
</g>
<path d="M717.071 237.26C717.071 237.26 727.168 227.089 731.846 223.22C736.525 219.35 737.287 228.442 729.984 237.81C729.984 237.81 726.491 238.571 717.05 237.26H717.071Z" fill="#FFD134"/>
<path d="M267.673 236.964C267.673 236.964 260.581 229.881 261.111 224.045C261.64 218.209 273.261 236.964 273.261 236.964H267.673Z" fill="#FFD134"/>
<g style="mix-blend-mode:multiply" opacity="0.2">
<path d="M372.455 329.789C372.455 329.789 409.964 317.081 479.544 315.221C549.102 313.381 624.397 327.4 624.397 327.4C624.397 327.4 476.348 336.619 372.476 329.789H372.455Z" fill="#BE2F55"/>
</g>
<g style="mix-blend-mode:soft-light">
<path d="M673.19 324.525C673.19 324.525 717.897 318.329 730.301 310.273C747.024 299.405 762.963 279.423 762.963 279.423C762.963 279.423 737.562 315.432 722.173 319.26C706.783 323.087 673.19 324.525 673.19 324.525Z" fill="white"/>
</g>
<g style="mix-blend-mode:multiply" opacity="0.5">
<path d="M276.288 327.4C276.288 327.4 298.345 324.609 311.342 325.793C324.318 326.998 355.711 332.115 355.711 332.115C355.711 332.115 294.45 330.53 276.288 327.4Z" fill="#BE2F55"/>
</g>
<g style="mix-blend-mode:multiply" opacity="0.5">
<path d="M728.396 322.96C728.396 322.96 716.161 320.697 702.719 321.881C689.277 323.066 659.303 332.137 659.303 332.137C659.303 332.137 699.417 329.536 712.16 328.373C724.924 327.21 728.396 322.96 728.396 322.96Z" fill="#BE2F55"/>
</g>
<g style="mix-blend-mode:soft-light" opacity="0.5">
<path d="M293.688 304.268C297.816 290.545 347.138 282.763 402.704 292.109C458.27 301.455 475.903 308.539 475.903 308.539C475.903 308.539 332.976 307.334 293.688 304.268Z" fill="white"/>
</g>
<g style="mix-blend-mode:soft-light" opacity="0.5">
<path d="M337.802 306.213C337.802 306.213 370.973 313.931 461.847 315.961C552.743 317.991 630.599 307.482 630.599 307.482C630.599 307.482 468.621 313.043 337.781 306.213H337.802Z" fill="white"/>
</g>
<path d="M503.739 309.427C503.739 309.427 513.476 315.094 532.57 314.164C551.664 313.233 556.109 309.427 556.109 309.427H503.718H503.739Z" fill="#FFF9C7"/>
<g style="mix-blend-mode:soft-light" opacity="0.8">
<path d="M312.38 181.247C312.38 181.247 418.284 177.97 442.669 175.411C467.055 172.853 475.903 171.986 475.903 171.986C475.903 171.986 412.081 166.827 312.38 181.247Z" fill="white"/>
</g>
<g style="mix-blend-mode:soft-light" opacity="0.5">
<path d="M253.596 170.041C252.432 177.547 270.213 166.361 285.962 164.691C301.711 163.021 320.445 147.479 318.624 145.661C316.804 143.842 292.736 144.456 278.172 147.775C263.608 151.095 253.596 170.041 253.596 170.041Z" fill="white"/>
</g>
<path d="M275.526 149.319C267.778 152.723 268.773 164.078 283.062 158.623C297.329 153.167 286.004 144.709 275.526 149.319Z" fill="#FFF9C7"/>
<g style="mix-blend-mode:soft-light">
<path d="M250.907 297.459C250.907 297.459 274.319 315.876 288.163 320.697C302.007 325.518 361.214 329.303 361.214 329.303C361.214 329.303 302.706 326.554 286.428 322.241C270.17 317.927 250.886 297.459 250.886 297.459H250.907Z" fill="white"/>
</g>
<g style="mix-blend-mode:multiply" opacity="0.5">
<path d="M758.116 122.571C754.835 121.577 750.284 127.984 752.633 133.291C754.941 138.514 765.567 124.833 758.116 122.571Z" fill="#BE2F55"/>
</g>
<g style="mix-blend-mode:multiply" opacity="0.5">
<path d="M752.993 127.096C752.697 130.965 757.587 131.198 759.471 129.189C761.355 127.159 761.312 122.592 757.671 122.486C754.031 122.401 752.972 127.096 752.972 127.096H752.993Z" fill="#BE2F55"/>
</g>
<path d="M751.998 130.436C753.057 128.11 755.936 130.965 757.693 131.092C759.45 131.219 756.423 135.025 754.39 134.475C752.358 133.925 751.998 130.436 751.998 130.436Z" fill="#FFD134"/>
<g style="mix-blend-mode:multiply" opacity="0.5">
<path d="M216.298 185.35C212.255 184.123 206.624 192.053 209.524 198.607C212.382 205.078 225.527 188.162 216.298 185.35Z" fill="#BE2F55"/>
</g>
<g style="mix-blend-mode:multiply" opacity="0.5">
<path d="M209.968 190.953C209.587 195.753 215.663 196.028 217.991 193.533C220.341 191.017 220.256 185.371 215.768 185.244C211.281 185.138 209.968 190.953 209.968 190.953Z" fill="#BE2F55"/>
</g>
<path d="M208.741 195.097C210.053 192.222 213.609 195.753 215.79 195.922C217.97 196.091 214.202 200.785 211.704 200.088C209.185 199.39 208.741 195.097 208.741 195.097Z" fill="#FFD134"/>
<path style="mix-blend-mode:screen" opacity="0.8" d="M502.49 240.939C607.871 240.939 693.299 224.637 693.299 204.528C693.299 184.419 607.871 168.117 502.49 168.117C397.109 168.117 311.681 184.419 311.681 204.528C311.681 224.637 397.109 240.939 502.49 240.939Z" fill="url(#paint14_radial_866_34)"/>
<path d="M337.802 195.076C333.505 202.984 350.292 207.699 353.784 199.072C357.277 190.445 340.639 189.832 337.802 195.076Z" fill="#FFF9C7"/>
<g style="mix-blend-mode:soft-light" opacity="0.8">
<path d="M334.67 241.404C347.688 233.285 361.49 226.518 375.524 220.365C389.601 214.275 403.953 208.799 418.622 204.295C425.904 201.863 433.355 200.003 440.743 197.973C448.152 196.006 455.688 194.526 463.16 192.771C470.717 191.481 478.253 189.98 485.852 188.838L497.262 187.358C501.072 186.893 504.861 186.28 508.692 186.068C539.238 183.319 570.143 183.087 600.604 187.4C604.415 187.866 608.182 188.69 611.972 189.325C615.718 190.192 619.507 190.889 623.191 191.968C630.621 193.955 637.966 196.408 644.867 199.918C651.725 203.386 658.287 207.974 662.796 214.466C664.913 217.764 666.31 221.634 666.395 225.609C666.479 229.563 665.421 233.538 663.431 236.921C659.473 243.751 653.313 248.847 646.814 252.949C640.231 257.009 633.161 260.202 625.9 262.76C611.379 267.877 596.032 270.69 580.643 271.007C565.254 271.324 549.801 269.336 535.089 264.79C527.744 262.528 520.589 259.525 513.9 255.698C507.253 251.871 500.924 247.134 496.309 240.854C494.044 237.725 492.245 234.13 491.652 230.24C491.038 226.37 491.8 222.289 493.769 218.885C495.695 215.46 498.574 212.732 501.665 210.406C504.713 208.038 508.079 206.092 511.487 204.337C525.288 197.465 540.254 193.406 555.241 190.213C570.27 187.126 585.511 185.096 600.837 184.038C616.12 183.066 631.573 182.812 646.751 185.201C631.573 182.918 616.142 183.298 600.858 184.377C585.575 185.54 570.376 187.696 555.389 190.889C540.466 194.124 525.542 198.205 511.868 205.077C508.481 206.811 505.179 208.757 502.173 211.083C499.167 213.366 496.373 216.052 494.531 219.329C492.668 222.564 491.97 226.434 492.562 230.113C493.134 233.813 494.87 237.281 497.071 240.305C501.559 246.415 507.803 251.067 514.387 254.831C521.012 258.616 528.104 261.555 535.385 263.775C549.991 268.258 565.338 270.182 580.6 269.823C595.863 269.463 611.061 266.63 625.456 261.534C632.653 258.997 639.617 255.804 646.073 251.807C652.445 247.769 658.436 242.736 662.182 236.245C664.087 233.031 665.082 229.309 664.998 225.651C664.913 221.972 663.643 218.356 661.653 215.227C657.377 209.053 651.005 204.528 644.274 201.102C637.5 197.634 630.218 195.203 622.852 193.194C619.19 192.116 615.422 191.397 611.718 190.53C607.95 189.896 604.203 189.05 600.414 188.585C570.101 184.208 539.238 184.356 508.756 187.041C504.925 187.231 501.135 187.844 497.346 188.289L485.958 189.726C478.38 190.826 470.865 192.306 463.308 193.575C455.836 195.287 448.321 196.768 440.912 198.692C433.525 200.7 426.073 202.54 418.792 204.929C404.101 209.306 389.728 214.677 375.63 220.661C361.574 226.73 347.709 233.369 334.627 241.383L334.67 241.404Z" fill="#FFF9C7"/>
<path d="M384.669 229.225C406.451 226.349 428.444 224.932 450.417 224.509C472.41 224.129 494.425 224.657 516.334 226.645C538.222 228.759 560.046 232.227 581.32 237.852C591.925 240.749 602.488 243.941 612.67 248.149C622.831 252.357 632.716 257.241 642.073 263.014C623.085 251.913 602.319 244.237 581.087 238.761C559.835 233.306 538.053 230.007 516.207 228.041C494.362 225.905 472.389 225.207 450.438 225.419C439.452 225.546 428.487 225.947 417.522 226.582C406.556 227.174 395.591 227.956 384.669 229.182V229.225Z" fill="#FFF9C7"/>
<path d="M433.228 257.369C440.425 259.652 447.75 261.45 455.116 263.035C462.483 264.642 469.891 265.953 477.364 266.926C492.287 268.85 507.38 269.823 522.367 268.702C537.354 267.793 552.256 264.79 566.206 259.208C573.149 256.333 579.775 252.78 585.998 248.551C592.179 244.259 597.81 239.226 602.933 233.687C597.979 239.374 592.497 244.597 586.401 249.101C580.219 253.457 573.573 257.157 566.629 260.202C552.616 266.059 537.566 269.083 522.473 270.098C507.359 271.113 492.16 270.161 477.216 267.983C462.271 265.742 447.496 262.295 433.228 257.348V257.369Z" fill="#FFF9C7"/>
<path d="M415.574 236.351C419.892 232.819 424.465 229.627 429.1 226.518C433.8 223.516 438.584 220.64 443.495 217.976C453.296 212.626 463.456 207.953 473.913 204.02C484.391 200.172 495.081 196.81 506.004 194.526C511.444 193.236 516.969 192.391 522.473 191.524C527.977 190.657 533.565 190.403 539.111 189.811C528.061 191.228 517.033 192.856 506.258 195.584C495.42 198.079 484.794 201.398 474.421 205.331C463.985 209.116 453.867 213.789 444.003 218.906C434.16 224.066 424.549 229.732 415.574 236.33V236.351Z" fill="#FFF9C7"/>
<path d="M463.435 185.202C476.03 184.419 488.689 184.504 501.284 185.519C513.879 186.534 526.431 188.394 538.751 191.291C551.029 194.357 563.073 198.438 574.546 203.788C585.914 209.391 596.498 216.475 605.896 224.911C596.159 216.855 585.448 210.174 574.102 204.76C562.608 199.643 550.669 195.605 538.434 192.666C526.22 189.684 513.73 187.845 501.199 186.597C488.667 185.413 476.051 184.948 463.435 185.202Z" fill="#FFF9C7"/>
<path d="M491.292 261.492C494.235 262.803 497.241 263.966 500.31 264.981C503.337 266.059 506.406 267.032 509.497 267.899C515.678 269.632 521.965 271.028 528.315 271.874C534.645 272.91 541.08 273.058 547.472 272.889L552.278 272.614C553.865 272.487 555.453 272.17 557.04 271.979C560.258 271.705 563.327 270.732 566.502 270.098C560.385 272.106 554.013 273.608 547.536 273.988C541.058 274.369 534.539 274.2 528.125 273.269C521.711 272.297 515.36 270.901 509.2 268.935C503.041 266.968 497.008 264.537 491.313 261.492H491.292Z" fill="#FFF9C7"/>
<path d="M506.681 278.281C509.793 275.342 513.18 272.699 516.652 270.182C520.123 267.666 523.743 265.361 527.469 263.226C531.258 261.196 535.068 259.208 539.132 257.728C543.175 256.269 547.367 255.106 551.643 254.81C547.451 255.698 543.429 257.094 539.534 258.743C535.618 260.392 531.85 262.359 528.167 264.452C524.42 266.461 520.843 268.787 517.266 271.092C513.688 273.417 510.174 275.828 506.681 278.302V278.281Z" fill="#FFF9C7"/>
<path d="M357.891 250.2C367.628 254.725 377.577 258.764 387.59 262.57C397.602 266.418 407.7 270.013 417.924 273.269C438.351 279.803 459.159 285.153 480.306 288.663C490.848 290.566 501.495 291.856 512.164 292.638C522.833 293.463 533.586 293.568 544.255 292.87C554.924 292.173 565.592 290.756 575.943 287.986C586.316 285.343 596.413 281.6 605.896 276.547C596.54 281.812 586.485 285.787 576.113 288.642C565.74 291.517 555.029 293.018 544.318 293.801C533.586 294.604 522.812 294.562 512.079 293.801C501.347 293.082 490.657 291.877 480.052 290.037C458.863 286.337 438.033 280.818 417.627 274.136C397.221 267.454 377.175 259.589 357.87 250.179L357.891 250.2Z" fill="#FFF9C7"/>
<path d="M442.034 294.583C445.781 291.242 449.866 288.261 454.036 285.406C458.27 282.678 462.588 280.078 467.076 277.731C476.009 273.058 485.365 269.146 495.039 266.228C504.734 263.416 514.598 261.069 524.653 260.096C529.649 259.377 534.708 259.292 539.746 259.039C544.784 258.891 549.822 259.271 554.839 259.377C544.784 259.419 534.729 259.694 524.801 261.195C514.852 262.401 505.052 264.705 495.462 267.602C485.831 270.393 476.559 274.305 467.584 278.724C458.63 283.228 449.951 288.345 442.055 294.604L442.034 294.583Z" fill="#FFF9C7"/>
</g>
</g>
<g filter="url(#filter0_i_866_34)">
<path d="M354.936 244.368C352.312 247.056 349.048 248.528 344.952 248.592C344.952 250.768 345.08 252.88 345.848 254.864C346.04 255.312 346.552 255.76 347 256.016C347.768 256.592 348.088 256.912 347.896 257.424C347.64 258.064 347.064 258.128 346.488 258.128C342.584 257.872 338.872 258.576 335.16 259.344C334.584 259.472 334.072 259.664 333.496 259.856C332.92 259.984 332.408 259.984 332.088 259.472C331.768 259.024 331.96 258.576 332.28 258.192C332.472 258 332.664 257.808 332.856 257.616C334.072 256.272 334.904 254.8 335.096 253.008C335.416 250.192 335.8 247.312 335.864 244.432C336.056 236.112 336.12 227.792 336.184 219.536C336.248 218.256 335.48 217.424 334.008 216.976C333.56 216.912 333.112 216.848 332.728 216.784C332.088 216.72 331.704 216.464 331.64 215.824C331.576 215.248 331.96 214.864 332.728 214.736C334.52 214.416 336.312 214.16 338.104 213.968C340.344 213.648 342.648 213.328 344.952 213.2C348.792 213.008 352.504 213.712 355.64 216.016C358.456 218.128 360.056 221.072 360.824 224.4C362.552 232.016 360.376 238.672 354.936 244.368ZM346.616 216.336C346.104 217.808 344.568 242.704 344.888 244.88C345.016 244.816 345.144 244.816 345.208 244.752C345.336 244.688 345.528 244.56 345.656 244.432C347.96 242.384 349.88 239.952 351.032 237.072C352.44 233.232 352.952 229.328 352.696 225.232C352.568 222.288 351.224 219.792 349.048 217.744C348.408 217.104 347.576 216.528 346.616 216.336ZM372.481 228.944C372.417 229.904 372.481 230.864 372.481 231.952C373.313 231.824 373.953 231.44 374.401 230.928C375.105 230.16 375.681 229.328 376.321 228.56C376.513 228.24 376.705 227.92 376.897 227.664C377.601 226.896 378.497 227.152 378.753 228.112C378.817 228.56 378.817 229.072 378.817 229.52C378.625 232.272 378.433 234.96 378.305 237.648C378.113 239.888 377.985 242.128 377.793 244.432C377.729 245.52 377.409 245.968 376.769 245.968C376.129 245.968 375.873 245.456 375.809 244.368C375.681 242.128 375.617 239.888 375.361 237.712C375.169 235.728 374.273 235.024 372.225 234.832C371.457 240.784 371.265 246.8 371.265 252.944C371.777 252.816 372.097 252.752 372.417 252.624C373.825 251.792 375.233 250.96 376.577 250.064C378.369 248.848 379.329 246.928 380.161 245.008C380.865 243.536 381.441 242 382.081 240.528C382.337 239.952 382.721 239.44 383.169 238.992C383.873 238.416 384.705 238.736 384.897 239.632C385.025 240.272 385.025 240.976 384.897 241.616C384.641 243.984 384.385 246.352 384.001 248.72C383.425 252.176 382.721 255.696 382.145 259.152C382.017 259.856 381.953 260.624 381.121 260.88C380.353 261.136 379.841 260.56 379.457 260.048C377.921 258.256 375.873 257.36 373.569 256.848C369.089 255.952 364.545 256.016 360.001 256.784C359.553 256.848 359.105 256.976 358.657 256.976C358.209 257.04 357.825 256.848 357.697 256.336C357.505 255.76 357.825 255.376 358.337 255.184C358.465 255.12 358.593 255.056 358.721 255.056C360.705 254.48 362.049 253.072 362.689 251.152C363.457 249.04 363.713 246.928 363.713 244.752C363.841 239.504 363.905 234.256 363.969 229.008C364.033 226.32 364.097 223.632 364.225 220.944C364.353 219.024 363.521 217.68 361.857 216.848C361.537 216.656 361.153 216.464 360.897 216.144C360.705 215.952 360.513 215.44 360.641 215.248C360.769 214.928 361.217 214.608 361.537 214.608C362.049 214.544 362.689 214.672 363.201 214.8C365.761 215.504 368.385 216.144 371.009 216.272C372.737 216.336 374.465 216.336 376.193 216.208C378.305 216.016 380.289 215.376 382.017 214.096C382.273 213.904 382.529 213.712 382.785 213.584C383.681 213.2 384.449 213.52 384.641 214.416C384.833 215.12 384.897 215.824 384.833 216.528C384.577 221.072 384.193 225.552 383.873 230.096C383.873 230.48 383.809 230.928 383.617 231.248C383.425 231.504 383.041 231.824 382.721 231.888C382.465 231.888 382.081 231.632 381.889 231.376C381.633 231.12 381.569 230.736 381.505 230.416C380.929 228.752 380.481 227.088 379.905 225.488C379.009 223.12 377.601 221.072 375.297 219.792C375.105 219.664 374.849 219.536 374.593 219.408C373.569 218.96 373.121 219.152 372.993 220.304C372.801 223.184 372.609 226.064 372.481 228.944ZM419.054 211.28C419.438 211.728 419.31 212.176 418.926 212.624C418.67 212.88 418.414 213.072 418.222 213.328C416.75 214.864 415.854 216.656 415.342 218.576C414.254 223.312 413.678 228.048 413.742 232.848C413.806 240.016 413.678 247.184 413.614 254.352C413.614 255.312 413.422 256.272 413.358 257.168C413.294 257.744 413.038 258.256 412.398 258.448C411.822 258.64 411.31 258.384 410.862 258C409.774 257.04 408.814 256.016 408.11 254.736C406.83 252.432 405.422 250.256 404.014 248.016C400.622 242.512 397.87 236.752 395.31 230.928C395.182 230.672 395.054 230.416 394.926 230.16C394.798 230.224 394.734 230.224 394.606 230.224C394.67 234.768 394.67 239.376 394.99 243.92C395.182 247.312 395.822 250.704 397.102 253.968C397.614 255.376 398.19 256.656 399.598 257.488C400.11 257.808 400.494 258.32 400.174 258.896C399.918 259.536 399.278 259.6 398.638 259.536C397.358 259.28 396.142 259.088 394.862 258.896C392.43 258.512 390.062 258.128 387.63 257.744C387.31 257.744 387.054 257.68 386.734 257.616C386.222 257.424 385.838 257.168 385.838 256.656C385.838 256.144 386.094 255.76 386.606 255.568C386.926 255.44 387.31 255.376 387.63 255.248C388.91 254.992 389.678 254.288 389.87 253.136C390.126 251.792 390.382 250.384 390.382 249.04C390.318 239.888 390.062 230.672 389.998 221.52C389.934 219.216 388.846 217.872 386.734 217.04C386.414 216.912 386.094 216.848 385.902 216.656C385.646 216.4 385.326 216.016 385.326 215.632C385.326 215.376 385.71 214.992 386.03 214.864C386.286 214.672 386.67 214.672 387.054 214.672C391.022 214.928 395.054 215.248 399.086 215.504C400.366 215.632 401.646 215.76 402.926 215.888C403.182 215.952 403.502 216.016 403.822 216.08C404.27 216.272 404.526 216.656 404.398 217.104C404.27 217.36 403.95 217.68 403.63 217.808C403.31 218 402.798 218 402.35 218.064C401.198 218.384 400.494 219.216 400.75 220.304C401.134 221.84 401.454 223.44 402.158 224.912C404.334 229.392 406.638 233.808 408.942 238.224C409.07 238.48 409.198 238.736 409.518 239.184C409.582 238.672 409.582 238.48 409.582 238.352C409.454 232.912 409.39 227.472 409.262 222.032C409.198 221.072 409.134 220.048 409.07 219.088C408.942 218 408.686 217.04 407.854 216.144C407.022 215.248 407.214 214.544 408.366 214.16C411.502 213.072 414.638 212.048 417.774 210.96C418.222 210.832 418.734 210.832 419.054 211.28ZM441.37 240.016C440.858 244.432 440.986 248.912 440.986 253.392C441.306 253.52 441.434 253.584 441.562 253.712C442.65 254.352 442.65 255.056 441.754 255.888C440.794 256.72 439.834 257.488 438.874 258.32C436.442 260.496 434.01 262.672 431.898 265.232C431.514 265.68 431.066 265.936 430.49 265.552C429.978 265.232 430.042 264.656 430.17 264.144C430.682 262.864 431.258 261.584 431.578 260.304C431.962 259.024 432.154 257.744 432.474 256.144C431.834 256.464 431.514 256.656 431.13 256.784C429.338 257.424 427.482 257.744 425.626 257.488C422.234 256.976 419.994 254.8 418.458 251.856C416.922 248.976 416.282 245.904 416.09 242.64C415.77 237.456 416.41 232.336 418.138 227.344C418.97 225.104 420.058 222.992 421.466 221.008C422.746 219.28 424.218 217.872 426.01 216.784C428.186 215.44 430.49 215.12 432.922 215.824C433.69 216.08 434.522 216.272 435.354 216.464C436.058 216.656 436.57 216.336 436.762 215.696C436.954 215.12 437.146 214.544 437.338 214.032C437.402 213.712 437.466 213.392 437.53 213.136C437.658 212.624 437.978 212.368 438.49 212.368C439.066 212.368 439.386 212.752 439.45 213.264C439.514 213.648 439.578 214.096 439.578 214.48C439.642 219.344 439.706 224.208 439.77 229.072C439.77 229.456 439.77 229.84 439.642 230.16C439.514 230.48 439.194 230.864 438.874 230.928C438.554 230.992 438.17 230.672 437.914 230.416C437.658 230.16 437.658 229.776 437.53 229.456C436.378 226.192 435.162 222.928 433.05 220.176C432.538 219.472 432.026 218.832 431.066 218.512C430.106 219.088 429.466 219.984 428.954 220.944C427.738 223.12 427.098 225.488 426.65 227.856C425.818 232.592 425.626 237.392 425.882 242.192C426.074 245.52 426.522 248.912 427.482 252.112C427.674 252.816 427.994 253.52 428.442 254.16C428.954 254.8 429.338 254.8 430.042 254.352C430.938 253.84 431.578 253.008 431.962 252.048C432.73 249.936 433.178 247.76 433.306 245.52C433.37 243.536 433.306 241.552 433.306 239.568C433.306 239.248 433.306 238.928 433.242 238.672C433.114 238.096 432.794 237.776 432.154 237.84C431.642 237.904 431.066 237.968 430.618 237.776C430.234 237.648 429.85 237.328 429.658 237.008C429.402 236.496 429.722 235.984 430.17 235.728C430.618 235.472 431.194 235.152 431.706 235.088C435.098 234.384 438.49 233.552 441.69 232.208C441.946 232.144 442.266 232.016 442.586 232.016C443.29 232.016 443.738 232.592 443.546 233.296C443.546 233.488 443.418 233.68 443.29 233.872C442.01 235.728 441.626 237.84 441.37 240.016ZM454.848 232.784C454.848 232.912 454.912 233.104 454.976 233.424C457.984 232.656 460.864 232.016 463.744 231.312C463.808 230.928 463.808 230.672 463.872 230.352C463.936 226.896 464 223.44 464 219.984C464.064 218.576 463.808 217.36 462.272 216.656C462.016 216.528 461.76 216.016 461.76 215.632C461.696 215.12 462.144 214.864 462.72 214.736C465.408 214.16 467.84 212.88 470.144 211.472C470.912 211.024 471.616 210.512 472.32 210C472.512 209.872 472.64 209.744 472.832 209.616C473.28 209.36 473.728 209.168 474.176 209.552C474.56 209.872 474.688 210.512 474.24 210.96C472 213.072 471.872 215.824 471.68 218.576C471.296 223.312 471.808 228.048 471.872 232.784C471.872 235.664 471.872 238.544 471.872 241.424C471.872 243.408 471.872 245.456 471.936 247.504C472 248.08 472.128 248.656 472.256 249.232C472.512 250.128 472.896 250.96 473.856 251.472C473.984 251.536 474.048 251.6 474.176 251.664C475.008 252.432 474.88 253.392 473.792 253.776C472.512 254.224 471.232 254.672 469.952 255.12C467.52 255.952 465.408 257.168 463.36 258.576C463.232 258.704 463.104 258.832 462.912 258.896C462.528 259.152 462.08 259.344 461.76 258.96C461.504 258.64 461.376 258.192 461.376 257.808C461.376 257.488 461.632 257.168 461.76 256.912C463.168 254.352 463.808 251.728 463.808 248.848C463.744 244.56 463.808 240.336 463.872 236.048C463.872 235.728 463.808 235.408 463.744 234.96C460.736 235.6 457.792 236.24 454.912 236.88C454.848 237.2 454.784 237.392 454.784 237.584C454.72 241.808 454.72 246.032 455.424 250.256C455.68 251.664 456.192 252.816 457.28 253.84C458.176 254.672 458.304 255.12 457.92 255.696C457.6 256.208 457.088 256.272 455.936 255.824C455.104 255.504 454.272 255.568 453.44 255.76C450.816 256.4 448.128 257.104 445.504 257.808C445.312 257.872 445.056 257.936 444.864 258C444.352 258.256 443.904 258.192 443.584 257.744C443.264 257.296 443.328 256.784 443.712 256.4C446.4 253.84 447.104 250.512 447.232 246.992C447.36 244.688 447.36 242.32 447.36 239.952C447.36 233.68 447.232 227.408 447.232 221.136C447.232 219.088 446.464 217.488 444.672 216.336C444.48 216.144 444.224 216.016 444.096 215.824C443.584 215.184 443.84 214.416 444.672 214.224C445.056 214.16 445.504 214.16 445.952 214.224C448.576 214.608 451.2 215.056 453.824 215.44C454.72 215.568 455.68 215.568 456.64 215.568C457.216 215.568 457.664 215.76 457.792 216.4C457.92 216.976 457.664 217.36 457.088 217.552C455.872 218 455.424 218.96 455.232 219.984C454.976 221.264 454.72 222.608 454.72 223.888C454.656 226.832 454.784 229.84 454.848 232.784ZM494.547 246.864C494.483 246.032 494.291 245.2 494.163 244.176C491.283 244.944 488.531 245.648 485.843 246.352C485.523 246.48 485.203 246.864 485.075 247.184C484.435 249.36 483.923 251.536 483.859 253.84C483.859 255.056 484.179 256.208 484.947 257.168C485.267 257.552 485.523 258.064 485.651 258.576C485.843 259.408 485.267 259.92 484.435 259.792C484.179 259.728 483.987 259.664 483.795 259.6C480.723 258.256 477.715 256.976 474.643 255.632C474.067 255.44 473.747 255.056 473.811 254.416C473.939 253.776 474.387 253.584 474.963 253.584C476.947 253.648 478.163 252.496 478.995 250.96C480.019 248.848 481.043 246.736 481.811 244.56C483.731 239.056 485.587 233.552 487.379 228.048C487.891 226.64 488.211 225.168 488.723 223.76C489.747 220.816 490.835 217.936 491.859 214.992C491.923 214.864 491.987 214.8 492.051 214.672C492.499 213.904 493.011 213.072 494.035 213.136C494.995 213.2 495.699 213.904 495.955 214.8C496.659 216.72 497.427 218.704 497.875 220.688C498.771 224.784 499.475 228.944 500.243 233.104C501.011 237.008 501.779 240.912 502.675 244.816C503.123 246.928 503.891 248.976 504.595 251.024C505.171 252.752 505.939 253.072 507.795 252.624C507.987 252.56 508.243 252.432 508.435 252.496C508.819 252.624 509.331 252.752 509.523 253.008C509.651 253.328 509.587 253.904 509.395 254.224C509.139 254.608 508.691 254.864 508.243 255.12C504.723 256.976 501.203 258.832 497.683 260.688C496.915 261.136 496.211 261.648 495.443 262.16C495.123 262.288 494.803 262.544 494.483 262.608C494.163 262.608 493.651 262.48 493.459 262.224C493.267 261.968 493.331 261.52 493.331 261.136C493.331 261.008 493.459 260.88 493.523 260.816C495.379 259.152 495.379 256.912 495.315 254.8C495.187 252.112 494.803 249.488 494.547 246.864ZM493.651 241.232C492.819 237.136 491.987 233.104 491.091 228.816C488.467 233.36 488.019 238.224 486.675 242.896C489.107 242.32 491.347 241.744 493.651 241.232ZM529.379 239.248C529.059 239.44 528.739 239.632 528.227 239.952C532.515 241.232 534.563 244.304 535.907 247.952C536.547 249.744 536.931 251.6 537.443 253.392C537.955 255.056 538.531 256.72 539.875 257.936C540.259 258.32 540.771 258.64 541.283 258.832C541.795 259.088 542.307 258.96 542.563 258.384C542.627 258.32 542.627 258.256 542.691 258.192C542.883 257.68 543.267 257.488 543.779 257.616C544.355 257.744 544.611 258.192 544.483 258.768C544.291 260.24 544.099 261.776 543.139 263.056C541.859 264.848 540.259 266.192 537.955 266.448C535.523 266.704 533.283 265.36 532.131 262.928C531.619 261.84 531.235 260.688 530.915 259.6C529.891 256.144 528.867 252.688 527.843 249.296C527.267 247.184 526.307 245.2 524.899 243.472C524.323 242.832 523.683 242.32 522.851 242.128C522.531 242.128 522.211 242.128 521.699 242.128C521.827 243.792 521.955 245.264 522.147 246.736C522.211 247.568 522.403 248.272 522.531 249.104C522.915 251.728 524.323 253.712 526.499 255.248C526.627 255.312 526.755 255.376 526.819 255.44C527.203 255.76 527.459 256.144 527.331 256.592C527.139 257.104 526.755 257.36 526.243 257.36C525.859 257.424 525.539 257.424 525.155 257.36C520.611 256.848 516.195 257.36 511.843 258.768C511.395 258.896 510.947 259.152 510.435 259.28C509.987 259.472 509.539 259.472 509.219 259.024C508.835 258.64 509.027 258.192 509.283 257.808C509.347 257.744 509.411 257.68 509.475 257.616C511.907 255.44 512.675 252.56 512.995 249.552C513.251 246.416 513.443 243.28 513.443 240.208C513.443 234.128 513.315 228.048 513.187 221.968C513.187 220.944 512.931 219.92 512.611 218.96C512.227 217.808 511.331 217.168 510.115 216.912C509.923 216.912 509.795 216.848 509.603 216.848C509.027 216.784 508.515 216.592 508.387 215.952C508.323 215.44 508.707 214.864 509.411 214.544C509.731 214.416 510.051 214.352 510.371 214.288C515.491 213.328 520.611 213.264 525.731 214.352C529.571 215.184 532.579 217.36 534.755 220.496C537.507 224.528 537.827 230.672 533.923 235.472C532.643 237.008 531.107 238.224 529.379 239.248ZM523.939 218C523.619 217.68 523.235 217.488 522.659 217.168C521.571 224.272 520.867 231.184 521.507 238.288C521.955 238.16 522.211 238.032 522.467 237.904C524.515 236.752 526.051 235.088 526.883 232.912C527.331 231.568 527.651 230.16 527.971 228.752C528.867 224.336 527.203 220.88 523.939 218ZM566.182 240.016C565.67 244.432 565.798 248.912 565.798 253.392C566.118 253.52 566.246 253.584 566.374 253.712C567.462 254.352 567.462 255.056 566.566 255.888C565.606 256.72 564.646 257.488 563.686 258.32C561.254 260.496 558.822 262.672 556.71 265.232C556.326 265.68 555.878 265.936 555.302 265.552C554.79 265.232 554.854 264.656 554.982 264.144C555.494 262.864 556.07 261.584 556.39 260.304C556.774 259.024 556.966 257.744 557.286 256.144C556.646 256.464 556.326 256.656 555.942 256.784C554.15 257.424 552.294 257.744 550.438 257.488C547.046 256.976 544.806 254.8 543.27 251.856C541.734 248.976 541.094 245.904 540.902 242.64C540.582 237.456 541.222 232.336 542.95 227.344C543.782 225.104 544.87 222.992 546.278 221.008C547.558 219.28 549.03 217.872 550.822 216.784C552.998 215.44 555.302 215.12 557.734 215.824C558.502 216.08 559.334 216.272 560.166 216.464C560.87 216.656 561.382 216.336 561.574 215.696C561.766 215.12 561.958 214.544 562.15 214.032C562.214 213.712 562.278 213.392 562.342 213.136C562.47 212.624 562.79 212.368 563.302 212.368C563.878 212.368 564.198 212.752 564.262 213.264C564.326 213.648 564.39 214.096 564.39 214.48C564.454 219.344 564.518 224.208 564.582 229.072C564.582 229.456 564.582 229.84 564.454 230.16C564.326 230.48 564.006 230.864 563.686 230.928C563.366 230.992 562.982 230.672 562.726 230.416C562.47 230.16 562.47 229.776 562.342 229.456C561.19 226.192 559.974 222.928 557.862 220.176C557.35 219.472 556.838 218.832 555.878 218.512C554.918 219.088 554.278 219.984 553.766 220.944C552.55 223.12 551.91 225.488 551.462 227.856C550.63 232.592 550.438 237.392 550.694 242.192C550.886 245.52 551.334 248.912 552.294 252.112C552.486 252.816 552.806 253.52 553.254 254.16C553.766 254.8 554.15 254.8 554.854 254.352C555.75 253.84 556.39 253.008 556.774 252.048C557.542 249.936 557.99 247.76 558.118 245.52C558.182 243.536 558.118 241.552 558.118 239.568C558.118 239.248 558.118 238.928 558.054 238.672C557.926 238.096 557.606 237.776 556.966 237.84C556.454 237.904 555.878 237.968 555.43 237.776C555.046 237.648 554.662 237.328 554.47 237.008C554.214 236.496 554.534 235.984 554.982 235.728C555.43 235.472 556.006 235.152 556.518 235.088C559.91 234.384 563.302 233.552 566.502 232.208C566.758 232.144 567.078 232.016 567.398 232.016C568.102 232.016 568.55 232.592 568.358 233.296C568.358 233.488 568.23 233.68 568.102 233.872C566.822 235.728 566.438 237.84 566.182 240.016ZM588.172 246.864C588.108 246.032 587.916 245.2 587.788 244.176C584.908 244.944 582.156 245.648 579.468 246.352C579.148 246.48 578.828 246.864 578.7 247.184C578.06 249.36 577.548 251.536 577.484 253.84C577.484 255.056 577.804 256.208 578.572 257.168C578.892 257.552 579.148 258.064 579.276 258.576C579.468 259.408 578.892 259.92 578.06 259.792C577.804 259.728 577.612 259.664 577.42 259.6C574.348 258.256 571.34 256.976 568.268 255.632C567.692 255.44 567.372 255.056 567.436 254.416C567.564 253.776 568.012 253.584 568.588 253.584C570.572 253.648 571.788 252.496 572.62 250.96C573.644 248.848 574.668 246.736 575.436 244.56C577.356 239.056 579.212 233.552 581.004 228.048C581.516 226.64 581.836 225.168 582.348 223.76C583.372 220.816 584.46 217.936 585.484 214.992C585.548 214.864 585.612 214.8 585.676 214.672C586.124 213.904 586.636 213.072 587.66 213.136C588.62 213.2 589.324 213.904 589.58 214.8C590.284 216.72 591.052 218.704 591.5 220.688C592.396 224.784 593.1 228.944 593.868 233.104C594.636 237.008 595.404 240.912 596.3 244.816C596.748 246.928 597.516 248.976 598.22 251.024C598.796 252.752 599.564 253.072 601.42 252.624C601.612 252.56 601.868 252.432 602.06 252.496C602.444 252.624 602.956 252.752 603.148 253.008C603.276 253.328 603.212 253.904 603.02 254.224C602.764 254.608 602.316 254.864 601.868 255.12C598.348 256.976 594.828 258.832 591.308 260.688C590.54 261.136 589.836 261.648 589.068 262.16C588.748 262.288 588.428 262.544 588.108 262.608C587.788 262.608 587.276 262.48 587.084 262.224C586.892 261.968 586.956 261.52 586.956 261.136C586.956 261.008 587.084 260.88 587.148 260.816C589.004 259.152 589.004 256.912 588.94 254.8C588.812 252.112 588.428 249.488 588.172 246.864ZM587.276 241.232C586.444 237.136 585.612 233.104 584.716 228.816C582.092 233.36 581.644 238.224 580.3 242.896C582.732 242.32 584.972 241.744 587.276 241.232ZM622.172 246.864C622.108 246.032 621.916 245.2 621.788 244.176C618.908 244.944 616.156 245.648 613.468 246.352C613.148 246.48 612.828 246.864 612.7 247.184C612.06 249.36 611.548 251.536 611.484 253.84C611.484 255.056 611.804 256.208 612.572 257.168C612.892 257.552 613.148 258.064 613.276 258.576C613.468 259.408 612.892 259.92 612.06 259.792C611.804 259.728 611.612 259.664 611.42 259.6C608.348 258.256 605.34 256.976 602.268 255.632C601.692 255.44 601.372 255.056 601.436 254.416C601.564 253.776 602.012 253.584 602.588 253.584C604.572 253.648 605.788 252.496 606.62 250.96C607.644 248.848 608.668 246.736 609.436 244.56C611.356 239.056 613.212 233.552 615.004 228.048C615.516 226.64 615.836 225.168 616.348 223.76C617.372 220.816 618.46 217.936 619.484 214.992C619.548 214.864 619.612 214.8 619.676 214.672C620.124 213.904 620.636 213.072 621.66 213.136C622.62 213.2 623.324 213.904 623.58 214.8C624.284 216.72 625.052 218.704 625.5 220.688C626.396 224.784 627.1 228.944 627.868 233.104C628.636 237.008 629.404 240.912 630.3 244.816C630.748 246.928 631.516 248.976 632.22 251.024C632.796 252.752 633.564 253.072 635.42 252.624C635.612 252.56 635.868 252.432 636.06 252.496C636.444 252.624 636.956 252.752 637.148 253.008C637.276 253.328 637.212 253.904 637.02 254.224C636.764 254.608 636.316 254.864 635.868 255.12C632.348 256.976 628.828 258.832 625.308 260.688C624.54 261.136 623.836 261.648 623.068 262.16C622.748 262.288 622.428 262.544 622.108 262.608C621.788 262.608 621.276 262.48 621.084 262.224C620.892 261.968 620.956 261.52 620.956 261.136C620.956 261.008 621.084 260.88 621.148 260.816C623.004 259.152 623.004 256.912 622.94 254.8C622.812 252.112 622.428 249.488 622.172 246.864ZM621.276 241.232C620.444 237.136 619.612 233.104 618.716 228.816C616.092 233.36 615.644 238.224 614.3 242.896C616.732 242.32 618.972 241.744 621.276 241.232ZM669.804 211.28C670.188 211.728 670.06 212.176 669.676 212.624C669.42 212.88 669.164 213.072 668.972 213.328C667.5 214.864 666.604 216.656 666.092 218.576C665.004 223.312 664.428 228.048 664.492 232.848C664.556 240.016 664.428 247.184 664.364 254.352C664.364 255.312 664.172 256.272 664.108 257.168C664.044 257.744 663.788 258.256 663.148 258.448C662.572 258.64 662.06 258.384 661.612 258C660.524 257.04 659.564 256.016 658.86 254.736C657.58 252.432 656.172 250.256 654.764 248.016C651.372 242.512 648.62 236.752 646.06 230.928C645.932 230.672 645.804 230.416 645.676 230.16C645.548 230.224 645.484 230.224 645.356 230.224C645.42 234.768 645.42 239.376 645.74 243.92C645.932 247.312 646.572 250.704 647.852 253.968C648.364 255.376 648.94 256.656 650.348 257.488C650.86 257.808 651.244 258.32 650.924 258.896C650.668 259.536 650.028 259.6 649.388 259.536C648.108 259.28 646.892 259.088 645.612 258.896C643.18 258.512 640.812 258.128 638.38 257.744C638.06 257.744 637.804 257.68 637.484 257.616C636.972 257.424 636.588 257.168 636.588 256.656C636.588 256.144 636.844 255.76 637.356 255.568C637.676 255.44 638.06 255.376 638.38 255.248C639.66 254.992 640.428 254.288 640.62 253.136C640.876 251.792 641.132 250.384 641.132 249.04C641.068 239.888 640.812 230.672 640.748 221.52C640.684 219.216 639.596 217.872 637.484 217.04C637.164 216.912 636.844 216.848 636.652 216.656C636.396 216.4 636.076 216.016 636.076 215.632C636.076 215.376 636.46 214.992 636.78 214.864C637.036 214.672 637.42 214.672 637.804 214.672C641.772 214.928 645.804 215.248 649.836 215.504C651.116 215.632 652.396 215.76 653.676 215.888C653.932 215.952 654.252 216.016 654.572 216.08C655.02 216.272 655.276 216.656 655.148 217.104C655.02 217.36 654.7 217.68 654.38 217.808C654.06 218 653.548 218 653.1 218.064C651.948 218.384 651.244 219.216 651.5 220.304C651.884 221.84 652.204 223.44 652.908 224.912C655.084 229.392 657.388 233.808 659.692 238.224C659.82 238.48 659.948 238.736 660.268 239.184C660.332 238.672 660.332 238.48 660.332 238.352C660.204 232.912 660.14 227.472 660.012 222.032C659.948 221.072 659.884 220.048 659.82 219.088C659.692 218 659.436 217.04 658.604 216.144C657.772 215.248 657.964 214.544 659.116 214.16C662.252 213.072 665.388 212.048 668.524 210.96C668.972 210.832 669.484 210.832 669.804 211.28Z" fill="white"/>
</g>
<defs>
<filter id="filter0_i_866_34" x="331.576" y="209.168" width="338.612" height="61.5361" filterUnits="userSpaceOnUse" color-interpolation-filters="sRGB">
<feFlood flood-opacity="0" result="BackgroundImageFix"/>
<feBlend mode="normal" in="SourceGraphic" in2="BackgroundImageFix" result="shape"/>
<feColorMatrix in="SourceAlpha" type="matrix" values="0 0 0 0 0 0 0 0 0 0 0 0 0 0 0 0 0 0 127 0" result="hardAlpha"/>
<feOffset dy="4"/>
<feGaussianBlur stdDeviation="2"/>
<feComposite in2="hardAlpha" operator="arithmetic" k2="-1" k3="1"/>
<feColorMatrix type="matrix" values="0 0 0 0 0 0 0 0 0 0 0 0 0 0 0 0 0 0 0.25 0"/>
<feBlend mode="normal" in2="shape" result="effect1_innerShadow_866_34"/>
</filter>
<radialGradient id="paint0_radial_866_34" cx="0" cy="0" r="1" gradientUnits="userSpaceOnUse" gradientTransform="translate(247.588 219.225) rotate(88.0781) scale(219.26 236.073)">
<stop stop-color="#FF73FF"/>
<stop offset="1" stop-color="#994599" stop-opacity="0"/>
</radialGradient>
<radialGradient id="paint1_radial_866_34" cx="0" cy="0" r="1" gradientUnits="userSpaceOnUse" gradientTransform="translate(743.651 222.945) rotate(-88.0781) scale(221.126 238.082)">
<stop stop-color="#FF73FF"/>
<stop offset="1" stop-color="#994599" stop-opacity="0"/>
</radialGradient>
<linearGradient id="paint2_linear_866_34" x1="706.297" y1="172.853" x2="706.297" y2="119.631" gradientUnits="userSpaceOnUse">
<stop stop-color="#CF6800"/>
<stop offset="0.4" stop-color="#E67E00"/>
<stop offset="1" stop-color="#FFA900"/>
</linearGradient>
<linearGradient id="paint3_linear_866_34" x1="649.63" y1="327.4" x2="762.963" y2="327.4" gradientUnits="userSpaceOnUse">
<stop stop-color="#CF6800"/>
<stop offset="0.46" stop-color="#C74A00"/>
<stop offset="1" stop-color="#FFA900"/>
</linearGradient>
<linearGradient id="paint4_linear_866_34" x1="780.914" y1="303.168" x2="780.914" y2="81.0001" gradientUnits="userSpaceOnUse">
<stop stop-color="#CF6800"/>
<stop offset="0.4" stop-color="#E67E00"/>
<stop offset="1" stop-color="#FFA900"/>
</linearGradient>
<linearGradient id="paint5_linear_866_34" x1="290.725" y1="172.853" x2="290.725" y2="119.632" gradientUnits="userSpaceOnUse">
<stop stop-color="#CF6800"/>
<stop offset="0.4" stop-color="#E67E00"/>
<stop offset="1" stop-color="#FFA900"/>
</linearGradient>
<linearGradient id="paint6_linear_866_34" x1="234.058" y1="327.4" x2="347.392" y2="327.4" gradientUnits="userSpaceOnUse">
<stop stop-color="#FFA900"/>
<stop offset="0.54" stop-color="#C74A00"/>
<stop offset="1" stop-color="#CF6800"/>
</linearGradient>
<linearGradient id="paint7_linear_866_34" x1="216.086" y1="303.168" x2="216.086" y2="81.0003" gradientUnits="userSpaceOnUse">
<stop stop-color="#CF6800"/>
<stop offset="0.4" stop-color="#E67E00"/>
<stop offset="1" stop-color="#FFA900"/>
</linearGradient>
<linearGradient id="paint8_linear_866_34" x1="498.489" y1="332.644" x2="498.489" y2="141.305" gradientUnits="userSpaceOnUse">
<stop stop-color="#CF6800"/>
<stop offset="0.28" stop-color="#E67E00"/>
<stop offset="1" stop-color="#FFA900"/>
</linearGradient>
<linearGradient id="paint9_linear_866_34" x1="498.489" y1="313.127" x2="498.489" y2="160.906" gradientUnits="userSpaceOnUse">
<stop stop-color="#B300A1"/>
<stop offset="0.39" stop-color="#8F0062"/>
<stop offset="1" stop-color="#FF52F9"/>
</linearGradient>
<linearGradient id="paint10_linear_866_34" x1="256.602" y1="302.513" x2="256.602" y2="166.446" gradientUnits="userSpaceOnUse">
<stop stop-color="#CF6800"/>
<stop offset="0.28" stop-color="#E67E00"/>
<stop offset="1" stop-color="#FFA900"/>
</linearGradient>
<linearGradient id="paint11_linear_866_34" x1="740.356" y1="302.513" x2="740.356" y2="166.446" gradientUnits="userSpaceOnUse">
<stop stop-color="#CF6800"/>
<stop offset="0.28" stop-color="#E67E00"/>
<stop offset="1" stop-color="#FFA900"/>
</linearGradient>
<linearGradient id="paint12_linear_866_34" x1="498.32" y1="315.221" x2="498.32" y2="236.964" gradientUnits="userSpaceOnUse">
<stop stop-color="#FF9600"/>
<stop offset="0.47" stop-color="#FFA200"/>
<stop offset="1" stop-color="#B03900"/>
</linearGradient>
<linearGradient id="paint13_linear_866_34" x1="498.892" y1="238.719" x2="498.892" y2="160.462" gradientUnits="userSpaceOnUse">
<stop stop-color="#FF9600"/>
<stop offset="0.47" stop-color="#FFA200"/>
<stop offset="1" stop-color="#B03900"/>
</linearGradient>
<radialGradient id="paint14_radial_866_34" cx="0" cy="0" r="1" gradientUnits="userSpaceOnUse" gradientTransform="translate(503.115 203.057) scale(190.976 36.1797)">
<stop stop-color="#FF61BB"/>
<stop offset="1"/>
</radialGradient>
<clipPath id="clip0_866_34">
<rect width="689" height="273" fill="white" transform="translate(154 81)"/>
</clipPath>
</defs>
</svg>
