<svg width="283" height="342" viewBox="0 0 283 342" fill="none" xmlns="http://www.w3.org/2000/svg">
<g clip-path="url(#clip0_6238_9959)">
<path style="mix-blend-mode:screen" opacity="0.5" d="M141.462 270.116C212.556 270.116 270.189 212.504 270.189 141.436C270.189 70.3678 212.556 12.7559 141.462 12.7559C70.3676 12.7559 12.7344 70.3678 12.7344 141.436C12.7344 212.504 70.3676 270.116 141.462 270.116Z" fill="url(#paint0_radial_6238_9959)"/>
<path style="mix-blend-mode:screen" opacity="0.5" fill-rule="evenodd" clip-rule="evenodd" d="M163.823 0H145.209H137.738H119.125L141.461 141.435L141.487 140.511V141.435L163.823 0Z" fill="url(#paint1_linear_6238_9959)"/>
<path style="mix-blend-mode:screen" opacity="0.5" fill-rule="evenodd" clip-rule="evenodd" d="M57.2272 25.6387L44.0824 38.8044L38.7679 44.0912L25.623 57.2569L141.462 141.486L140.82 140.819L141.488 141.435L57.2272 25.6387Z" fill="url(#paint2_linear_6238_9959)"/>
<path style="mix-blend-mode:screen" opacity="0.5" fill-rule="evenodd" clip-rule="evenodd" d="M0 119.107V137.74V145.208V163.814L141.487 141.487L140.563 141.461L141.487 141.435L0 119.107Z" fill="url(#paint3_linear_6238_9959)"/>
<path style="mix-blend-mode:screen" opacity="0.5" fill-rule="evenodd" clip-rule="evenodd" d="M25.6484 225.665L38.819 238.831L44.1077 244.143L57.2783 257.283L141.539 141.487L140.872 142.128L141.488 141.436L25.6484 225.665Z" fill="url(#paint4_linear_6238_9959)"/>
<path style="mix-blend-mode:screen" opacity="0.5" fill-rule="evenodd" clip-rule="evenodd" d="M119.15 282.896H137.789H145.26H163.874L141.538 141.436L141.512 142.385L141.486 141.436L119.15 282.896Z" fill="url(#paint5_linear_6238_9959)"/>
<path style="mix-blend-mode:screen" opacity="0.5" fill-rule="evenodd" clip-rule="evenodd" d="M225.747 257.258L238.918 244.092L244.232 238.805L257.377 225.64L141.538 141.41L142.18 142.077L141.486 141.436L225.747 257.258Z" fill="url(#paint6_linear_6238_9959)"/>
<path style="mix-blend-mode:screen" opacity="0.5" fill-rule="evenodd" clip-rule="evenodd" d="M282.999 163.763V145.157V137.689V119.082L141.486 141.41L142.436 141.435H141.486L282.999 163.763Z" fill="url(#paint7_linear_6238_9959)"/>
<path style="mix-blend-mode:screen" opacity="0.5" fill-rule="evenodd" clip-rule="evenodd" d="M257.352 57.2058L244.181 44.0658L238.892 38.7533L225.722 25.6133L141.461 141.41L142.128 140.768L141.487 141.435L257.352 57.2058Z" fill="url(#paint8_linear_6238_9959)"/>
<path style="mix-blend-mode:screen" opacity="0.5" d="M219.308 173.662C237.122 130.671 216.7 81.3846 173.693 63.5772C130.686 45.7698 81.3815 66.185 63.5675 109.176C45.7536 152.167 66.1763 201.453 109.183 219.261C152.19 237.068 201.495 216.653 219.308 173.662Z" fill="url(#paint9_radial_6238_9959)"/>
<path fill-rule="evenodd" clip-rule="evenodd" d="M50.1403 324.601C50.1403 324.601 40.564 317.903 37.7656 296.396H244.566C244.566 296.396 244.823 309.075 224.977 330.324C224.977 330.324 199.458 343.901 134.812 341.796C68.5996 339.641 50.166 324.601 50.166 324.601H50.1403Z" fill="url(#paint10_radial_6238_9959)"/>
<path fill-rule="evenodd" clip-rule="evenodd" d="M37.7644 296.396C35.4281 288.902 74.8628 275.146 137.737 275.146C200.612 275.146 241.998 289.159 244.565 296.396C247.133 303.634 205.644 320.649 137.737 320.649C69.8307 320.649 40.4858 305.071 37.7644 296.396Z" fill="#FFD8EE"/>
<path fill-rule="evenodd" clip-rule="evenodd" d="M49.7032 291.673C49.7032 291.673 32.0911 258.592 37.3285 234.186H244.129C244.129 234.186 244.232 274.453 224.54 297.422C224.54 297.422 199.021 310.998 134.375 308.894C68.1625 306.738 49.7288 291.699 49.7288 291.699L49.7032 291.673Z" fill="url(#paint11_linear_6238_9959)"/>
<path fill-rule="evenodd" clip-rule="evenodd" d="M37.3289 234.16C34.9926 226.666 74.4272 212.91 137.302 212.91C200.176 212.91 241.562 226.923 244.13 234.16C246.697 241.397 205.208 258.413 137.302 258.413C69.3952 258.413 40.0503 242.835 37.3289 234.16Z" fill="#A4A0C2"/>
<path fill-rule="evenodd" clip-rule="evenodd" d="M217.48 235.674C217.582 236.085 217.377 236.547 216.915 237.009C210.419 243.476 152.14 254.46 114.246 251.406C113.989 251.381 113.758 251.355 113.527 251.355C95.5301 249.841 82.6933 247.351 74.0927 244.554C65.5947 241.782 61.2045 238.754 60.0235 236.136C59.7155 235.494 59.6384 234.879 59.7155 234.314C60.4857 228.95 126.107 223.407 158.43 228.437C171.96 230.567 175.965 233.108 173.809 235.443C172.166 237.291 166.697 238.985 159.072 240.217C153.27 241.141 146.184 241.808 138.585 242.064C131.884 242.295 126.159 242.27 121.332 242.064C109.214 241.577 102.667 240.088 99.9203 239.293C98.842 238.985 98.3542 238.779 98.3542 238.779C98.3542 238.779 103.386 231.234 111.473 233.749C119.561 236.264 121.563 240.063 121.563 240.063C121.563 240.063 154.631 241.192 161.819 236.701C162.333 236.393 162.718 236.059 162.949 235.674C166.415 230.002 69.0606 227.179 68.8039 237.291C68.8039 237.753 68.9066 238.189 69.189 238.626C74.4264 248.044 136.325 254.871 176.582 242.834C182.897 240.961 186.261 238.882 187.159 236.752C190.908 228.026 152.834 218.633 105.877 219.121H105.26C87.5713 219.352 68.6755 220.969 50.2676 224.562L59.7155 221.559C59.7155 221.559 81.6921 215.22 130.395 217.042C179.123 218.864 215.965 229.54 217.48 235.674Z" fill="#4C95C7"/>
<path fill-rule="evenodd" clip-rule="evenodd" d="M121.332 242.064C109.214 241.576 102.667 240.088 99.9199 239.292C101.999 237.239 106.056 234.39 111.473 236.084C118.122 238.163 120.664 241.089 121.332 242.064Z" fill="#00FFED"/>
<path fill-rule="evenodd" clip-rule="evenodd" d="M162.949 238.035C163.231 237.573 162.821 237.111 161.819 236.7C162.333 236.392 162.718 236.059 162.949 235.674C166.415 230.002 69.0605 227.179 68.8038 237.29C68.8038 237.752 68.9065 238.189 69.1889 238.625C68.9322 238.933 68.8038 239.267 68.8038 239.626C68.7525 241.371 70.678 243.039 74.0926 244.553C65.5946 241.782 61.2044 238.753 60.0234 236.136C64.9014 230.951 127.211 225.921 158.43 230.797C167.493 232.209 172.294 233.851 173.809 235.443C172.166 237.29 166.697 238.984 159.072 240.216C161.023 239.626 162.41 238.907 162.949 238.035Z" fill="#00FFED"/>
<path fill-rule="evenodd" clip-rule="evenodd" d="M216.915 237.009C210.42 243.477 152.141 254.461 114.247 251.407C113.99 251.381 113.759 251.355 113.528 251.355C133.887 252.331 157.635 250.842 176.582 245.17C185.208 242.578 188.341 239.653 187.16 236.753C190.908 228.027 152.834 218.634 105.877 219.121C113.143 218.993 121.307 219.044 130.395 219.378C176.531 221.097 211.986 230.773 216.915 237.009Z" fill="#00FFED"/>
<path style="mix-blend-mode:multiply" opacity="0.5" fill-rule="evenodd" clip-rule="evenodd" d="M49.7031 291.674C49.7031 291.674 66.4937 313.257 120.562 317.261C197.66 322.984 224.54 297.397 224.54 297.397C224.54 297.397 129.805 320.649 49.7031 291.674Z" fill="url(#paint12_linear_6238_9959)"/>
<path fill-rule="evenodd" clip-rule="evenodd" d="M60.332 248.736C60.332 248.736 83.2072 256.205 107.058 256.076C130.909 255.948 167.263 257.282 167.263 257.282C167.263 257.282 138.842 266.65 113.81 265.136C88.7784 263.622 60.3577 248.762 60.3577 248.762L60.332 248.736Z" fill="#8B6F8B"/>
<path fill-rule="evenodd" clip-rule="evenodd" d="M211.113 250.584C211.113 250.584 227.416 240.242 232.448 238.368C237.506 236.52 241.922 238.368 241.922 238.368C241.922 238.368 234.707 252.509 211.113 250.584Z" fill="#8B6F8B"/>
<path fill-rule="evenodd" clip-rule="evenodd" d="M38.0215 235.675C38.0215 235.675 40.101 235.033 43.49 237.548C46.8532 240.063 58.586 248.122 58.586 248.122C58.586 248.122 45.0047 251.92 40.9739 248.122C39.2795 246.505 38.0472 235.675 38.0472 235.675H38.0215Z" fill="#8B6F8B"/>
<g style="mix-blend-mode:soft-light">
<path fill-rule="evenodd" clip-rule="evenodd" d="M152.705 341.975L155.042 320.648C155.042 320.648 178.841 319.879 197.634 315.695L189.162 339.435C189.162 339.435 164.823 342.001 152.68 341.975H152.705Z" fill="#FFCCB5"/>
</g>
<g style="mix-blend-mode:soft-light">
<path fill-rule="evenodd" clip-rule="evenodd" d="M55.1202 327.526L50.2422 306.764C50.2422 306.764 63.3614 312.204 70.8838 313.873L71.6026 333.557C71.6026 333.557 62.5655 331.324 55.1202 327.526Z" fill="#FFCCB5"/>
</g>
<path fill-rule="evenodd" clip-rule="evenodd" d="M162.949 235.674V238.035C162.949 238.035 161.434 239.498 160.048 239.883L159.586 237.778C159.586 237.778 161.999 236.752 162.924 235.674H162.949Z" fill="#4C95C7"/>
<path fill-rule="evenodd" clip-rule="evenodd" d="M187.39 235.494L187.211 238.933L184.412 241.884V239.575C184.412 239.575 187.262 238.471 187.365 235.494H187.39Z" fill="#4C95C7"/>
<path fill-rule="evenodd" clip-rule="evenodd" d="M68.8304 240.063V236.676C68.8304 236.676 68.4709 238.575 71.141 240.602L71.4491 243.169C71.4491 243.169 68.8047 241.783 68.8047 240.063H68.8304Z" fill="#4C95C7"/>
<path style="mix-blend-mode:screen" opacity="0.5" d="M140.228 272.836C203.538 272.836 254.861 255.52 254.861 234.16C254.861 212.8 203.538 195.484 140.228 195.484C76.9185 195.484 25.5957 212.8 25.5957 234.16C25.5957 255.52 76.9185 272.836 140.228 272.836Z" fill="url(#paint13_radial_6238_9959)"/>
<path fill-rule="evenodd" clip-rule="evenodd" d="M114.914 282.922L119.715 278.431L131.037 287.67L147.443 271.938L152.86 276.403L131.474 295.138L114.914 282.922Z" fill="#4C95C7"/>
<path fill-rule="evenodd" clip-rule="evenodd" d="M115.709 282.152L131.678 293.341L151.678 275.53L147.442 271.938L131.036 287.67L119.714 278.431L115.709 282.152Z" fill="#00FFED"/>
<path style="mix-blend-mode:screen" opacity="0.5" d="M131.243 304.557C147.903 304.557 161.409 295.147 161.409 283.538C161.409 271.93 147.903 262.52 131.243 262.52C114.582 262.52 101.076 271.93 101.076 283.538C101.076 295.147 114.582 304.557 131.243 304.557Z" fill="url(#paint14_radial_6238_9959)"/>
<g filter="url(#filter0_d_6238_9959)">
<path d="M31.4973 169.968C31.1773 167.408 30.9853 164.848 30.7293 162.224C30.7293 161.072 30.7293 159.856 30.7293 158.64C30.7293 157.744 30.9853 157.36 31.5613 157.296C32.2653 157.104 32.6493 157.616 32.9053 158.128C34.5693 161.328 36.9373 164.016 39.2413 166.64C39.9453 167.472 40.8413 168.176 41.8013 168.752C42.5053 169.264 43.3373 169.648 44.2333 169.84C46.0253 170.224 47.7533 168.944 48.0093 167.152C48.1373 166.256 48.0093 165.36 47.6253 164.528C46.0893 161.072 43.7213 158.256 40.8413 155.76C39.4333 154.544 37.8333 153.456 36.3613 152.24C35.3373 151.344 34.3773 150.384 33.4813 149.36C32.1373 147.76 31.4973 145.968 31.4333 143.92C31.3693 141.296 31.7533 138.8 33.0333 136.496C35.4013 132.208 39.8813 130.416 44.6813 131.696C45.4493 131.888 46.1533 132.016 46.8573 131.824C48.7133 131.376 50.6973 130.992 52.2973 129.84C52.4253 129.776 52.5533 129.712 52.6813 129.648C53.1293 129.328 53.5773 129.2 54.0893 129.52C54.6013 129.904 54.6653 130.416 54.5373 130.992C54.2813 132.144 54.0893 133.232 53.8333 134.32C53.1933 137.328 52.4893 140.336 51.8493 143.344C51.7853 143.6 51.6573 143.92 51.5933 144.176C51.4013 144.624 51.0173 144.88 50.5693 144.752C50.1853 144.688 49.8013 144.368 49.6733 144.048C49.4173 143.6 49.3533 143.024 49.2253 142.448C48.6493 140.208 47.9453 137.968 46.1533 136.368C45.5773 135.792 44.8733 135.408 44.1053 135.088C42.9533 134.64 41.9293 135.088 41.2253 136.048C40.7133 136.88 40.4573 137.776 40.6493 138.736C40.9693 140.656 41.7373 142.448 43.2093 143.792C44.3613 144.88 45.7053 145.776 46.9213 146.736C48.6493 148.08 50.5693 149.232 52.1693 150.704C56.0733 154.352 57.0973 158.896 56.2013 163.888C55.5613 167.408 53.3853 169.84 50.3133 171.632C48.2013 172.848 45.8333 173.488 43.4653 173.936C42.6333 174.128 41.8013 174.256 41.0333 174.448C38.2812 175.216 36.2333 176.752 35.4653 179.632C35.3373 179.952 35.3373 180.336 35.0813 180.528C34.8253 180.848 34.4413 181.168 34.0573 181.104C33.7373 181.104 33.3533 180.72 33.1613 180.4C32.9693 180.08 32.9693 179.632 32.9053 179.184C32.3932 176.112 31.9453 173.04 31.4973 169.968ZM75.4722 143.536C76.4323 145.648 76.8163 147.888 76.8163 150.256C76.8163 150.704 76.8163 151.152 76.8163 151.536C76.8163 152.56 76.4963 152.944 75.5363 153.008C74.2563 153.072 72.9763 153.072 71.6323 153.136C69.3283 153.264 66.9603 153.392 64.4003 153.584C64.4643 155.696 64.4003 157.68 64.5923 159.664C64.6562 160.496 64.9763 161.392 65.3603 162.16C66.3203 164.016 68.3043 164.336 69.7763 162.8C70.6083 161.84 71.3123 160.752 71.9523 159.664C72.2723 159.152 72.4643 158.512 72.7203 157.936C73.0403 157.232 73.1683 156.336 74.2563 156.4C74.9603 156.464 75.2803 157.04 75.3443 158.448C75.4722 160.752 75.5363 163.12 75.6643 165.488C75.7283 166.192 75.7283 166.896 75.7923 167.6C75.8563 168.176 75.6643 168.624 75.0883 168.88C74.5123 169.072 74.1283 168.816 73.8083 168.368C73.0403 167.344 71.8883 166.832 70.7363 166.448C70.2243 166.256 69.8403 166.32 69.5203 166.704C69.0723 167.088 68.5603 167.536 68.1763 167.984C65.4243 170.8 61.6483 169.456 59.9843 167.408C59.0243 166.192 58.3203 164.848 58.0003 163.376C57.1043 159.152 56.7843 154.864 57.4243 150.576C57.6803 148.72 58.2563 146.992 59.0243 145.392C60.4963 142.576 62.6723 140.656 65.6163 139.504C68.4323 138.352 73.9363 139.888 75.4722 143.536ZM64.9123 150.64C66.8963 150.576 68.7523 150.512 70.7363 150.448C70.4803 147.952 70.2883 145.584 69.2643 143.408C69.1363 143.152 68.9443 142.96 68.8163 142.704C68.3683 142.256 68.0483 142.192 67.6003 142.704C67.4083 142.896 67.2163 143.216 67.0883 143.472C65.8723 145.648 65.3603 148.08 64.9123 150.64ZM103.585 152.624C103.841 156.016 103.777 159.408 102.305 162.544C101.793 163.696 101.153 164.848 100.321 165.808C97.5053 169.136 93.6013 169.584 89.9533 167.088C89.6333 166.896 89.3133 166.576 88.7373 166.192C88.6733 167.856 88.5453 169.392 88.6093 170.864C88.6733 173.04 88.8653 175.152 89.0573 177.328C89.1213 177.84 89.3133 178.352 89.5053 178.864C89.8893 179.824 90.5293 180.464 91.7453 180.4C92.3853 180.336 92.8973 180.592 93.0253 181.296C93.1533 181.936 92.7053 182.32 92.1933 182.512C91.6813 182.768 91.1053 182.896 90.5293 182.96C87.9693 183.152 85.4093 183.472 82.9773 184.304C81.5052 184.816 80.0333 185.456 78.6253 186.16C78.0493 186.416 77.5373 186.608 77.0252 186.096C76.6412 185.648 76.7052 184.944 77.2812 184.432C80.0973 182.064 80.8013 178.8 81.0573 175.344C81.7613 167.6 81.7613 159.856 81.6333 152.112C81.5693 150.32 81.3133 148.592 81.1213 146.8C80.8653 145.136 79.9053 144.112 78.2413 143.792C77.9853 143.792 77.7933 143.664 77.6013 143.6C77.1532 143.472 76.8332 143.152 76.8332 142.64C76.8332 142.064 77.2172 141.68 77.7293 141.552C78.4333 141.424 79.2013 141.36 79.9693 141.232C83.7453 140.656 87.5853 140.144 91.3613 139.568C91.5533 139.568 91.7453 139.504 91.8733 139.504C92.9613 139.504 93.4733 140.208 93.0253 141.168C92.7053 141.744 92.3213 142.256 92.0653 142.768C91.7453 143.344 91.4893 143.984 91.1693 144.56C91.1053 144.752 91.1053 144.88 90.9773 145.264C91.5533 144.944 91.8733 144.688 92.1933 144.496C93.2812 143.792 94.4973 143.216 95.8413 143.088C98.7853 142.832 101.153 144.24 102.369 147.12C103.137 148.848 103.393 150.768 103.585 152.624ZM94.3693 160.816C95.3293 158.896 95.7773 156.784 95.8413 154.544C95.7773 153.904 95.8413 153.328 95.7133 152.688C95.5213 151.856 95.3293 150.96 94.8813 150.192C94.0493 148.784 92.7053 148.464 91.4253 149.488C90.2093 150.384 89.3133 151.536 89.3133 153.136C89.3133 153.904 89.1853 154.672 89.1853 155.376C89.0573 157.104 88.9293 158.768 88.8653 160.432C88.8013 161.584 89.5693 162.864 90.5933 163.184C91.6813 163.568 92.5773 163.184 93.3453 162.352C93.7292 161.904 94.0493 161.392 94.3693 160.816ZM122.082 167.28C122.594 167.408 123.042 167.984 122.85 168.624C122.466 169.712 122.082 170.864 121.442 171.76C118.626 175.536 113.122 176.048 109.218 173.04C107.042 171.376 106.018 169.008 105.57 166.448C105.122 163.888 104.93 161.264 104.802 158.64C104.674 155.952 105.186 142.832 105.25 138.992C105.314 136.624 104.674 134.512 102.69 133.04C102.178 132.656 101.73 132.208 101.986 131.504C102.242 130.8 102.882 130.672 103.522 130.672C105.058 130.608 106.658 130.608 108.194 130.672C110.818 130.736 113.506 130.8 116.13 130.928C116.706 130.928 117.218 130.992 117.73 131.12C118.626 131.44 118.818 132.336 118.114 132.976C117.986 133.104 117.858 133.168 117.73 133.232C116.322 133.744 115.618 134.896 115.298 136.304C114.978 137.584 114.722 138.928 114.402 140.208C116.706 140.336 118.946 140.464 121.25 140.592C121.506 140.656 121.762 140.656 122.018 140.72C122.594 140.848 122.786 141.232 122.786 141.872C122.786 142.448 122.594 142.896 122.082 143.088C121.698 143.216 121.314 143.28 120.93 143.28C118.498 143.472 116.066 143.664 113.634 143.856C113.634 143.984 113.57 144.176 113.57 144.368C112.418 150.128 112.226 155.952 112.482 161.84C112.61 164.016 113.122 166.192 114.21 168.176C114.53 168.752 114.978 169.392 115.49 169.84C116.642 170.928 117.922 170.992 119.202 170.096C119.97 169.584 120.546 168.88 120.866 168.048C121.058 167.472 121.442 167.152 122.082 167.28ZM140.41 143.536C141.37 145.648 141.754 147.888 141.754 150.256C141.754 150.704 141.754 151.152 141.754 151.536C141.754 152.56 141.434 152.944 140.474 153.008C139.194 153.072 137.914 153.072 136.57 153.136C134.266 153.264 131.898 153.392 129.338 153.584C129.402 155.696 129.338 157.68 129.53 159.664C129.594 160.496 129.914 161.392 130.298 162.16C131.258 164.016 133.242 164.336 134.714 162.8C135.546 161.84 136.25 160.752 136.89 159.664C137.21 159.152 137.402 158.512 137.658 157.936C137.978 157.232 138.106 156.336 139.194 156.4C139.898 156.464 140.218 157.04 140.282 158.448C140.41 160.752 140.474 163.12 140.602 165.488C140.666 166.192 140.666 166.896 140.73 167.6C140.794 168.176 140.602 168.624 140.026 168.88C139.45 169.072 139.066 168.816 138.746 168.368C137.978 167.344 136.826 166.832 135.674 166.448C135.162 166.256 134.778 166.32 134.458 166.704C134.01 167.088 133.498 167.536 133.114 167.984C130.362 170.8 126.586 169.456 124.922 167.408C123.962 166.192 123.258 164.848 122.938 163.376C122.042 159.152 121.722 154.864 122.362 150.576C122.618 148.72 123.194 146.992 123.962 145.392C125.434 142.576 127.61 140.656 130.554 139.504C133.37 138.352 138.874 139.888 140.41 143.536ZM129.85 150.64C131.834 150.576 133.69 150.512 135.674 150.448C135.418 147.952 135.226 145.584 134.202 143.408C134.074 143.152 133.882 142.96 133.754 142.704C133.306 142.256 132.986 142.192 132.538 142.704C132.346 142.896 132.154 143.216 132.026 143.472C130.81 145.648 130.298 148.08 129.85 150.64ZM181.899 168.816C182.347 169.2 182.795 169.584 182.539 170.224C182.347 170.992 181.707 170.992 181.067 171.056C180.043 171.12 179.019 171.184 177.995 171.312C176.651 171.504 175.435 172.016 174.283 172.72C173.387 173.232 172.491 173.616 171.595 174.064C171.083 174.32 170.571 174.256 170.251 173.808C170.059 173.488 170.059 172.976 170.059 172.592C170.059 172.336 170.251 172.08 170.379 171.824C172.683 167.408 173.579 162.672 173.451 157.744C173.451 155.44 173.387 153.2 173.259 150.96C173.195 149.872 172.939 148.848 172.683 147.824C172.555 147.376 172.235 146.928 171.979 146.544C170.955 146.8 170.635 147.44 170.251 148.144C169.227 149.872 168.587 151.856 168.203 153.84C167.691 156.784 167.755 159.664 168.139 162.608C168.267 164.08 168.779 165.424 169.739 166.576C169.739 166.64 169.803 166.64 169.803 166.704C170.123 167.152 170.315 167.664 169.931 168.048C169.611 168.304 169.099 168.432 168.715 168.368C167.435 168.24 166.219 167.984 164.939 167.728C163.211 167.408 161.483 167.664 159.819 168.112C159.371 168.24 158.859 168.368 158.411 168.368C157.451 168.368 157.003 167.472 157.515 166.704C157.643 166.512 157.771 166.32 157.963 166.192C159.115 165.168 159.627 163.824 159.691 162.288C159.883 159.216 160.139 156.208 160.203 153.136C160.267 151.088 160.075 149.104 159.947 147.056C159.883 146.352 159.691 145.52 158.987 145.008C158.219 145.136 157.835 145.712 157.579 146.352C156.811 148.08 156.043 149.744 155.467 151.536C154.891 153.328 154.571 155.184 154.123 157.04C153.547 159.664 153.739 162.352 153.931 165.04C153.995 165.936 154.187 166.832 154.379 167.792C154.571 168.944 154.955 169.968 155.723 170.864C156.043 171.312 156.363 171.76 156.043 172.336C155.659 172.976 155.083 172.976 154.507 172.848C152.907 172.336 151.307 171.824 149.707 171.312C147.595 170.672 145.547 170.096 143.499 169.456C143.179 169.328 142.859 169.264 142.603 169.136C141.835 168.688 141.899 167.728 142.667 167.344C142.923 167.216 143.179 167.152 143.435 167.088C144.971 166.96 145.675 166 146.187 164.72C146.827 162.992 147.083 161.2 147.147 159.408C147.211 156.272 147.211 153.2 147.147 150.064C147.147 148.4 146.891 146.736 146.187 145.136C145.611 143.6 144.715 142.384 142.987 141.808C142.219 141.552 141.963 141.104 142.027 140.464C142.155 139.696 142.731 139.568 143.307 139.568C145.803 139.312 148.299 139.056 150.731 138.864C152.331 138.672 153.931 138.48 155.467 138.352C155.915 138.288 156.427 138.224 156.811 138.352C157.195 138.48 157.579 138.864 157.643 139.248C157.771 139.504 157.451 139.952 157.259 140.208C157.131 140.4 156.747 140.464 156.555 140.656C156.171 140.976 155.723 141.36 155.531 141.808C154.891 143.216 154.699 144.752 154.635 146.608C155.019 146.096 155.211 145.84 155.403 145.584C156.363 144.304 157.195 142.896 158.219 141.68C160.715 138.736 163.403 138.928 165.387 142.256C166.155 143.536 166.539 145.008 167.115 146.416C167.243 146.8 167.371 147.248 167.499 147.888C167.819 147.248 168.011 146.736 168.267 146.288C168.907 144.816 169.739 143.472 170.891 142.32C172.747 140.592 175.243 140.528 177.163 142.256C178.571 143.6 179.403 145.328 179.915 147.184C180.747 150.32 180.555 153.52 180.299 156.72C180.171 158.576 179.851 160.496 179.723 162.352C179.531 164.208 180.043 165.872 180.747 167.536C180.939 168.048 181.451 168.432 181.899 168.816ZM206.914 147.696C207.81 151.152 207.426 154.608 206.594 158.064C206.21 159.472 205.826 160.88 205.314 162.224C204.866 163.376 204.354 164.528 203.65 165.552C201.986 168.112 199.17 168.688 196.61 167.024C195.586 166.384 194.754 165.552 193.858 164.72C193.41 164.272 193.026 163.696 192.578 163.184C192.514 163.248 192.386 163.248 192.322 163.312C192.386 163.888 192.322 164.528 192.45 165.104C192.77 166.32 193.218 166.704 194.498 166.768C194.69 166.768 194.882 166.768 195.01 166.768C196.098 166.96 196.482 167.984 195.714 168.688C195.202 169.2 194.498 169.584 193.794 169.84C190.786 170.992 187.714 172.016 184.706 173.104C184.258 173.232 183.874 173.488 183.426 173.488C183.042 173.424 182.594 173.168 182.402 172.848C182.21 172.592 182.466 172.144 182.53 171.76C182.594 171.696 182.658 171.632 182.722 171.568C184.834 170.224 185.09 167.984 185.41 165.744C185.986 161.264 186.05 156.656 186.178 152.112C186.242 147.44 186.37 142.832 186.434 138.16C186.434 137.648 186.434 137.072 186.434 136.56C186.434 135.28 185.858 134.384 184.578 133.936C184.322 133.872 184.066 133.808 183.81 133.68C183.362 133.488 183.042 133.104 183.106 132.528C183.234 131.952 183.682 131.632 184.258 131.632C184.898 131.696 185.474 131.824 186.114 131.824C188.994 132.016 191.938 132.208 194.818 132.4C195.522 132.464 196.162 132.528 196.802 132.592C197.378 132.656 197.698 133.04 197.698 133.616C197.698 134.064 197.442 134.448 196.994 134.576C196.802 134.64 196.674 134.704 196.482 134.768C195.33 134.96 194.626 135.792 194.242 136.816C193.922 138.032 193.538 139.184 193.41 140.464C193.154 142.32 193.154 144.24 193.026 146.16C193.026 146.288 193.026 146.48 193.09 146.736C193.73 146.032 194.306 145.456 194.882 144.88C196.93 142.576 199.49 141.872 202.434 142.32C203.714 142.512 204.802 143.152 205.442 144.304C206.082 145.328 206.658 146.48 206.914 147.696ZM199.874 156.976C200.194 154.608 200.514 152.176 200.002 149.744C199.81 148.72 199.554 147.696 199.106 146.736C198.53 145.584 197.57 145.456 196.61 146.224C196.098 146.608 195.65 147.056 195.266 147.504C193.602 149.616 192.706 152.048 193.09 154.736C193.09 155.696 193.026 156.528 193.09 157.424C193.154 158.832 193.602 160.112 194.306 161.328C195.202 162.992 197.122 163.248 198.402 161.84C198.786 161.456 199.106 160.944 199.234 160.368C199.554 159.28 199.746 158.128 199.874 156.976ZM226.41 143.536C227.37 145.648 227.754 147.888 227.754 150.256C227.754 150.704 227.754 151.152 227.754 151.536C227.754 152.56 227.434 152.944 226.474 153.008C225.194 153.072 223.914 153.072 222.57 153.136C220.266 153.264 217.898 153.392 215.338 153.584C215.402 155.696 215.338 157.68 215.53 159.664C215.594 160.496 215.914 161.392 216.298 162.16C217.258 164.016 219.242 164.336 220.714 162.8C221.546 161.84 222.25 160.752 222.89 159.664C223.21 159.152 223.402 158.512 223.658 157.936C223.978 157.232 224.106 156.336 225.194 156.4C225.898 156.464 226.218 157.04 226.282 158.448C226.41 160.752 226.474 163.12 226.602 165.488C226.666 166.192 226.666 166.896 226.73 167.6C226.794 168.176 226.602 168.624 226.026 168.88C225.45 169.072 225.066 168.816 224.746 168.368C223.978 167.344 222.826 166.832 221.674 166.448C221.162 166.256 220.778 166.32 220.458 166.704C220.01 167.088 219.498 167.536 219.114 167.984C216.362 170.8 212.586 169.456 210.922 167.408C209.962 166.192 209.258 164.848 208.938 163.376C208.042 159.152 207.722 154.864 208.362 150.576C208.618 148.72 209.194 146.992 209.962 145.392C211.434 142.576 213.61 140.656 216.554 139.504C219.37 138.352 224.874 139.888 226.41 143.536ZM215.85 150.64C217.834 150.576 219.69 150.512 221.674 150.448C221.418 147.952 221.226 145.584 220.202 143.408C220.074 143.152 219.882 142.96 219.754 142.704C219.306 142.256 218.986 142.192 218.538 142.704C218.346 142.896 218.154 143.216 218.026 143.472C216.81 145.648 216.298 148.08 215.85 150.64ZM253.855 143.92C254.495 146.8 253.343 149.808 250.719 151.728C250.271 152.048 249.823 152.112 249.375 151.792C248.863 151.472 248.863 151.024 248.991 150.512C249.055 150.384 249.119 150.256 249.119 150.128C249.759 148.208 249.055 147.184 247.007 147.248C243.807 147.376 241.375 149.04 239.455 151.472C239.263 151.728 239.199 152.112 239.135 152.432C239.135 156.4 238.559 160.304 239.071 164.272C239.135 164.72 239.199 165.168 239.327 165.552C239.583 166.704 240.223 167.408 241.503 167.536C242.655 167.6 243.039 167.92 243.103 168.56C243.167 169.2 242.847 169.584 241.695 169.84C239.263 170.352 236.767 170.8 234.271 171.376C232.223 171.824 230.175 172.4 228.127 172.912C227.743 172.976 227.359 173.04 227.103 172.976C226.271 172.784 226.207 171.888 226.847 171.184C227.487 170.544 228.191 169.904 228.767 169.2C229.919 167.664 230.431 165.872 230.751 164.016C231.839 158.064 232.095 152.048 231.391 146.032C231.263 145.072 231.007 144.176 230.687 143.344C230.303 142.256 229.727 141.36 228.447 141.104C227.871 140.976 227.551 140.592 227.615 139.952C227.743 139.248 228.191 138.736 228.831 138.672C229.343 138.608 229.855 138.672 230.431 138.672C233.695 138.672 237.023 138.736 240.351 138.736C240.671 138.736 240.991 138.672 241.311 138.736C242.399 138.864 242.783 139.76 242.143 140.656C242.015 140.848 241.823 140.976 241.695 141.104C240.415 142.128 240.095 143.536 239.775 145.2C240.991 144.048 241.887 143.152 242.847 142.32C244.319 141.104 246.047 140.272 248.031 140.144C250.783 139.888 253.343 141.488 253.855 143.92Z" fill="white"/>
</g>
</g>
<defs>
<filter id="filter0_d_6238_9959" x="26.7285" y="129.199" width="231.766" height="65.4082" filterUnits="userSpaceOnUse" color-interpolation-filters="sRGB">
<feFlood flood-opacity="0" result="BackgroundImageFix"/>
<feColorMatrix in="SourceAlpha" type="matrix" values="0 0 0 0 0 0 0 0 0 0 0 0 0 0 0 0 0 0 127 0" result="hardAlpha"/>
<feOffset dy="4"/>
<feGaussianBlur stdDeviation="2"/>
<feComposite in2="hardAlpha" operator="out"/>
<feColorMatrix type="matrix" values="0 0 0 0 0 0 0 0 0 0 0 0 0 0 0 0 0 0 0.25 0"/>
<feBlend mode="normal" in2="BackgroundImageFix" result="effect1_dropShadow_6238_9959"/>
<feBlend mode="normal" in="SourceGraphic" in2="effect1_dropShadow_6238_9959" result="shape"/>
</filter>
<radialGradient id="paint0_radial_6238_9959" cx="0" cy="0" r="1" gradientUnits="userSpaceOnUse" gradientTransform="translate(141.462 141.436) scale(128.727 128.68)">
<stop stop-color="#FF002F"/>
<stop offset="1"/>
</radialGradient>
<linearGradient id="paint1_linear_6238_9959" x1="141.487" y1="141.435" x2="141.487" y2="0" gradientUnits="userSpaceOnUse">
<stop stop-color="#FF002F"/>
<stop offset="1"/>
</linearGradient>
<linearGradient id="paint2_linear_6238_9959" x1="141.503" y1="141.475" x2="41.4757" y2="41.4105" gradientUnits="userSpaceOnUse">
<stop stop-color="#FF002F"/>
<stop offset="1"/>
</linearGradient>
<linearGradient id="paint3_linear_6238_9959" x1="141.487" y1="141.461" x2="0" y2="141.461" gradientUnits="userSpaceOnUse">
<stop stop-color="#FF002F"/>
<stop offset="1"/>
</linearGradient>
<linearGradient id="paint4_linear_6238_9959" x1="141.529" y1="141.457" x2="41.5197" y2="241.503" gradientUnits="userSpaceOnUse">
<stop stop-color="#FF002F"/>
<stop offset="1"/>
</linearGradient>
<linearGradient id="paint5_linear_6238_9959" x1="141.512" y1="141.436" x2="141.512" y2="282.871" gradientUnits="userSpaceOnUse">
<stop stop-color="#FF002F"/>
<stop offset="1"/>
</linearGradient>
<linearGradient id="paint6_linear_6238_9959" x1="141.527" y1="141.413" x2="241.537" y2="241.46" gradientUnits="userSpaceOnUse">
<stop stop-color="#FF002F"/>
<stop offset="1"/>
</linearGradient>
<linearGradient id="paint7_linear_6238_9959" x1="141.512" y1="141.435" x2="282.999" y2="141.435" gradientUnits="userSpaceOnUse">
<stop stop-color="#FF002F"/>
<stop offset="1"/>
</linearGradient>
<linearGradient id="paint8_linear_6238_9959" x1="141.483" y1="141.413" x2="241.493" y2="41.3665" gradientUnits="userSpaceOnUse">
<stop stop-color="#FF002F"/>
<stop offset="1"/>
</linearGradient>
<radialGradient id="paint9_radial_6238_9959" cx="0" cy="0" r="1" gradientUnits="userSpaceOnUse" gradientTransform="translate(141.452 141.422) scale(84.2864 84.2553)">
<stop offset="0.58" stop-color="#FF7E00"/>
<stop offset="0.69" stop-color="#C26000"/>
<stop offset="0.93" stop-color="#2D1600"/>
<stop offset="1"/>
</radialGradient>
<radialGradient id="paint10_radial_6238_9959" cx="0" cy="0" r="1" gradientUnits="userSpaceOnUse" gradientTransform="translate(141.153 319.186) scale(74.8642 74.8365)">
<stop stop-color="#FF9689"/>
<stop offset="0.99" stop-color="#FF909C"/>
</radialGradient>
<linearGradient id="paint11_linear_6238_9959" x1="140.228" y1="309.073" x2="140.228" y2="234.16" gradientUnits="userSpaceOnUse">
<stop stop-color="#48365E"/>
<stop offset="1" stop-color="#685763"/>
</linearGradient>
<linearGradient id="paint12_linear_6238_9959" x1="49.7031" y1="304.891" x2="224.54" y2="304.891" gradientUnits="userSpaceOnUse">
<stop stop-color="#C77CBD"/>
<stop offset="1" stop-color="#974577"/>
</linearGradient>
<radialGradient id="paint13_radial_6238_9959" cx="0" cy="0" r="1" gradientUnits="userSpaceOnUse" gradientTransform="translate(140.124 234.503) scale(114.579 38.7574)">
<stop stop-color="#0038FF"/>
<stop offset="1"/>
</radialGradient>
<radialGradient id="paint14_radial_6238_9959" cx="0" cy="0" r="1" gradientUnits="userSpaceOnUse" gradientTransform="translate(131.302 283.956) scale(30.1921 21.0638)">
<stop stop-color="#006FFF"/>
<stop offset="1"/>
</radialGradient>
<clipPath id="clip0_6238_9959">
<rect width="283" height="342" fill="white"/>
</clipPath>
</defs>
</svg>
