<svg width="707" height="368" viewBox="0 0 707 368" fill="none" xmlns="http://www.w3.org/2000/svg">
<path d="M544.255 274.894C550.433 268.498 545.665 260.144 545.681 252.371C540.944 200.041 538.874 165.843 547.03 112.916C548.057 109.397 546.876 105.648 545.236 102.695C545.88 96.4215 543.243 90.301 537.801 86.996C535.732 85.6495 533.156 84.6396 530.627 84.104C530.765 77.8153 538.89 69.7669 531.041 65.3754C529.477 64.5798 528.097 61.4736 526.334 61.2747C522.579 61.0452 517.29 65.1918 516.983 69.5986C516.615 74.755 519.758 77.2644 519.528 84.3183C512.752 85.9402 506.099 91.4945 505.931 98.7319C502.144 102.527 504.275 108.249 504.827 112.931C496.993 110.759 491.03 105.556 483.013 103.827C481.556 108.586 479.272 108.402 480.529 103.292C479.747 103.123 478.966 102.955 478.168 102.787C471.469 119.434 467.836 123.994 471.577 105.143C458.715 102.664 445.562 100.706 432.363 99.1757C431.627 104.409 429.911 103.751 429.742 98.8697C411.285 98.8084 340.324 86.3992 333.808 102.159C329.363 105.602 324.764 97.7527 321.376 95.4422C299.071 96.498 276.598 98.686 253.496 102.129C253.281 108.173 251.764 108.953 250.246 102.634C248.146 102.97 246.046 103.322 243.946 103.69C244.451 113.681 242.918 115.762 240.696 104.271C227.65 106.658 214.88 109.55 202.601 113.008C203.169 108.081 205.483 102.71 201.528 98.686C201.36 91.4639 194.707 85.9096 187.946 84.303C187.716 77.2491 190.859 74.7397 190.491 69.5833C190.184 65.2071 186.29 61.0758 182.535 61.3053L181.538 61.5501C179.775 61.7338 176.081 63.7841 176.081 63.7841C168.217 68.3439 176.679 77.5705 176.863 84.1193C167.772 85.7872 161.058 93.5602 162.253 102.833C160.567 105.847 159.525 109.657 160.567 113.222C169.305 170.02 166.408 211.853 160 268.039C161.104 270.809 162.529 273.44 164.461 275.69C165.319 282.223 171.283 287.517 179.101 289.109C179.285 292.337 179.07 295.551 178.273 298.672C170.777 313.759 193.557 315.656 197.221 303.783C198.033 297.509 190.46 296.805 190.154 288.818C196.025 287.303 201.697 283.157 203.291 277.082C207.369 275.674 211.37 274.175 215.448 272.706C225.136 269.202 237.706 265.591 246.69 264.964C247.088 259.363 249.725 249.953 253.757 259.7C256.976 260.542 260.471 258.751 263.66 259.731C267.875 257.619 273.118 259.195 277.671 258.705C324.319 257.757 373.145 252.631 422.399 260.236C425.572 234.713 432.241 231.286 426.507 260.725C428.454 260.97 430.723 261.23 432.655 261.49C433.145 243.389 436.686 250.856 435.521 261.873C445.348 263.204 454.729 264.55 463.789 266.203C464.525 265.132 465.506 264.03 466.87 263.893C467.192 263.541 467.76 263.525 468.02 263.862C469.737 264.03 470.074 266.524 471.301 267.626C482.522 268.85 492.808 273.609 504.183 277.051C505.762 283.126 511.449 287.288 517.336 288.818C517.029 296.805 514.546 298.947 513.258 305.343C515.374 315.886 540.285 314.05 532.788 299.024C532.788 299.024 528.205 292.337 528.389 289.109C535.916 287.594 541.68 282.636 542.891 276.439C543.366 275.965 543.826 275.46 544.27 274.909L544.255 274.894Z" fill="#3EEDFF"/>
<path d="M184.542 60.999C191.839 60.8154 193.51 64.3653 193.602 66.9053C193.786 72.0159 190.582 74.5405 191.057 82.0534C191.548 89.5663 193.234 91.1729 194.859 96.8802C195.763 100.063 193.694 103.949 186.596 104.653C179.866 104.684 177.061 101.195 177.659 97.9207C178.732 92.0451 180.265 90.2548 180.035 82.7267C179.805 75.1985 176.387 73.0716 176.095 67.9611C175.942 65.4058 177.276 61.6876 184.542 60.999Z" fill="url(#paint0_linear_6238_14190)"/>
<path d="M185.876 84.6708C186.03 84.2423 186.428 73.9447 186.444 70.3183C186.444 68.2985 186.29 66.0799 185.018 66.3094C183.838 66.9061 183.684 69.0483 183.93 70.9915C184.389 74.4802 185.677 84.3494 185.861 84.6861L185.876 84.6708Z" fill="#FFF5CC"/>
<g style="mix-blend-mode:multiply" opacity="0.15">
<path d="M180.035 82.7262C179.805 75.198 176.386 73.0865 176.095 67.9606C175.988 66.1703 176.632 63.814 179.514 62.3145C175.911 64.5943 177.214 69.3071 179.897 74.1269C182.043 77.9828 182.227 81.854 179.667 89.3669C179.973 87.6225 180.142 85.5875 180.05 82.7109L180.035 82.7262Z" fill="#CC0631"/>
</g>
<path d="M179.268 62.4995C179.268 62.4995 179.298 62.4536 179.314 62.4383C180.571 61.7498 182.257 61.2295 184.556 61.0153C191.516 60.8317 193.356 64.0602 193.586 66.5696C192.298 62.7137 186.84 59.9595 179.283 62.5148L179.268 62.4995Z" fill="#FFF5CC"/>
<path d="M165.304 96.2381C165.243 97.6458 165.335 100.813 165.335 100.813L204.671 100.584C204.671 100.584 204.671 97.9365 204.64 96.0086C204.594 87.3941 195.749 80.4626 184.88 80.5238C174.012 80.585 165.688 87.3482 165.304 96.2381Z" fill="url(#paint1_linear_6238_14190)"/>
<path d="M165.334 100.812C165.38 109.427 174.225 116.358 185.094 116.297C195.963 116.236 204.716 109.197 204.67 100.583C204.624 91.9683 195.779 85.0369 184.91 85.0981C174.041 85.1593 165.288 92.1978 165.334 100.812Z" fill="url(#paint2_linear_6238_14190)"/>
<path d="M173.275 83.63C176.495 81.7021 180.48 80.5545 184.895 80.5239C192.713 80.478 199.459 84.0737 202.662 89.2914C195.948 80.5698 182.81 78.7489 173.275 83.63Z" fill="#FFF5CC"/>
<g style="mix-blend-mode:multiply" opacity="0.35">
<path d="M165.304 96.238C165.519 91.158 168.34 86.7819 172.739 83.9512C170.961 85.2977 170.762 88.4038 171.727 89.2301C171.727 89.2301 171.727 89.2607 171.712 89.2607C175.192 86.7207 179.806 85.1447 184.911 85.1141C195.764 85.0529 204.61 91.9843 204.671 100.599C204.717 109.213 195.948 116.252 185.095 116.313C174.226 116.374 165.381 109.443 165.335 100.828C165.335 100.828 165.243 97.6457 165.304 96.2533V96.238Z" fill="#CC0631"/>
</g>
<path d="M185.172 91.7692C191.749 91.7386 197.145 96.0076 197.635 101.47H197.666L198.862 122.892L172.311 123.443L172.786 102.526C172.786 102.526 172.786 102.419 172.786 102.373C172.755 96.5432 178.304 91.7998 185.188 91.7539L185.172 91.7692Z" fill="url(#paint3_linear_6238_14190)"/>
<path d="M529.079 60.999C521.797 60.8154 520.111 64.3653 520.019 66.9053C519.835 72.0159 523.039 74.5405 522.564 82.0534C522.073 89.5663 520.387 91.1729 518.762 96.8802C517.858 100.063 519.927 103.949 527.025 104.653C533.755 104.684 536.56 101.195 535.962 97.9207C534.889 92.0451 533.356 90.2548 533.586 82.7267C533.816 75.1985 537.234 73.0716 537.526 67.9611C537.679 65.4058 536.345 61.6876 529.079 60.999Z" fill="url(#paint4_linear_6238_14190)"/>
<path d="M527.761 84.6708C527.607 84.2423 527.209 73.9447 527.193 70.3183C527.193 68.2985 527.347 66.0799 528.619 66.3094C529.799 66.9061 529.953 69.0483 529.707 70.9915C529.248 74.4802 527.96 84.3494 527.776 84.6861L527.761 84.6708Z" fill="#FFF5CC"/>
<g style="mix-blend-mode:multiply" opacity="0.25">
<path d="M533.586 82.7262C533.816 75.198 537.235 73.0865 537.526 67.9606C537.633 66.1703 536.989 63.814 534.107 62.3145C537.71 64.5943 536.407 69.3071 533.724 74.1269C531.578 77.9828 531.394 81.854 533.954 89.3669C533.647 87.6225 533.479 85.5875 533.571 82.7109L533.586 82.7262Z" fill="#CC0631"/>
</g>
<path d="M534.367 62.4995C534.367 62.4995 534.336 62.4536 534.321 62.4383C533.064 61.7498 531.377 61.2295 529.078 61.0153C522.118 60.8317 520.279 64.0602 520.049 66.5696C521.337 62.7137 526.794 59.9595 534.351 62.5148L534.367 62.4995Z" fill="#FFF5CC"/>
<path d="M548.318 96.2381C548.379 97.6458 548.287 100.813 548.287 100.813L508.951 100.584C508.951 100.584 508.951 97.9365 508.982 96.0086C509.028 87.3941 517.873 80.4626 528.742 80.5238C539.611 80.585 547.935 87.3482 548.318 96.2381Z" fill="url(#paint5_linear_6238_14190)"/>
<path d="M548.287 100.812C548.241 109.427 539.396 116.358 528.527 116.297C517.659 116.236 508.905 109.197 508.951 100.583C508.997 91.9683 517.843 85.0369 528.711 85.0981C539.58 85.1593 548.333 92.1978 548.287 100.812Z" fill="url(#paint6_linear_6238_14190)"/>
<path d="M540.362 83.63C537.142 81.7021 533.157 80.5545 528.742 80.5239C520.924 80.478 514.179 84.0737 510.975 89.2914C517.689 80.5698 530.827 78.7489 540.362 83.63Z" fill="#FFF5CC"/>
<g style="mix-blend-mode:multiply" opacity="0.35">
<path d="M548.318 96.238C548.103 91.158 545.283 86.7819 540.883 83.9512C542.661 85.2977 542.861 88.4038 541.895 89.2301C541.895 89.2301 541.895 89.2607 541.91 89.2607C538.43 86.7207 533.816 85.1447 528.711 85.1141C517.858 85.0529 509.013 91.9843 508.951 100.599C508.905 109.213 517.674 116.252 528.527 116.313C539.396 116.374 548.241 109.443 548.287 100.828C548.287 100.828 548.379 97.6457 548.318 96.2533V96.238Z" fill="#CC0631"/>
</g>
<path d="M528.451 91.7692C521.875 91.7386 516.479 96.0076 515.988 101.47H515.957L514.762 122.892L541.313 123.443L540.838 102.526C540.838 102.526 540.838 102.419 540.838 102.373C540.868 96.5432 535.319 91.7998 528.436 91.7539L528.451 91.7692Z" fill="url(#paint7_linear_6238_14190)"/>
<path d="M543.121 121.958C525.139 114.415 505.164 108.554 484.255 104.071C482.798 108.83 480.514 108.646 481.771 103.535C480.989 103.367 480.207 103.199 479.41 103.03C472.711 119.678 470.918 120.948 474.658 102.082C461.796 99.603 448.644 97.6445 435.445 96.1144C434.709 101.347 432.992 100.689 432.823 95.8083C405.966 93.0082 379.966 91.5852 354.044 91.6464C350.702 92.5339 347.007 91.8759 343.62 92.794C341.765 93.2989 339.94 94.5536 338.791 96.145C338.101 97.0936 337.488 98.0882 336.875 99.0981C336.445 99.8172 335.909 100.062 335.035 100.047C332.582 100.016 330.359 97.874 328.658 96.3439C327.247 95.0739 325.914 93.6203 324.442 92.3809C302.122 93.4367 279.664 95.6247 256.562 99.0675C256.347 105.111 254.83 105.892 253.312 99.5724C251.212 99.909 249.112 100.261 247.012 100.628C247.518 110.62 245.985 112.701 243.762 101.21C217.824 105.953 192.928 112.701 170.915 121.927C181.768 175.787 168.125 241.873 164.063 259.714C163.388 262.667 163.051 264.917 163.051 264.917C175.912 297.401 216.214 264.35 246.981 262.208C247.962 258.781 247.931 255.017 251.396 252.905C254.033 251.222 255.52 253.93 256.792 256.593C258.448 257.144 260.533 256.654 262.173 256.47C263.706 256.302 265.269 256.256 266.695 256.623C267.952 255.812 269.562 255.476 271.079 255.614C274.314 255.629 277.518 255.614 280.706 255.598C280.936 255.399 281.166 255.216 281.412 255.047C282.469 254.313 283.803 253.992 285.075 254.191C285.719 254.298 286.286 254.573 286.808 254.91C287.344 255.047 287.865 255.246 288.371 255.476C333.839 254.512 376.011 249.493 423.012 257.037C426.584 234.085 430.064 234.131 427.121 257.526C429.068 257.771 431.014 258.016 432.946 258.276C433.283 248.147 435.491 249.707 435.813 258.658C445.639 259.99 455.22 261.504 464.295 263.157C465.031 262.086 466.012 260.984 467.376 260.847C467.698 260.495 468.266 260.479 468.526 260.816C470.243 260.984 470.596 263.478 471.807 264.58C500.887 267.717 540.545 294.433 550.954 264.932C550.954 264.932 530.443 184.708 543.075 121.927L543.121 121.958Z" fill="url(#paint8_linear_6238_14190)"/>
<path style="mix-blend-mode:multiply" opacity="0.35" d="M543.12 121.959C529.798 116.374 515.373 111.707 500.304 107.852C500.243 107.913 500.181 107.959 500.135 108.02C508.781 128.064 508.766 152.148 508.766 185.796C508.766 219.443 504.213 253.549 494.586 269.646L494.954 270.12C518.884 277.572 543.181 287.104 550.999 264.964C550.999 264.964 530.488 184.74 543.12 121.959Z" fill="url(#paint9_linear_6238_14190)"/>
<g style="mix-blend-mode:multiply" opacity="0.35">
<path d="M543.121 121.958C525.139 114.415 505.165 108.554 484.255 104.071C482.799 108.83 480.514 108.646 481.771 103.535C480.99 103.367 480.208 103.199 479.411 103.03C472.712 119.678 470.918 120.948 474.658 102.082C461.797 99.603 448.644 97.6445 435.445 96.1144C434.709 101.347 432.992 100.689 432.824 95.8083C405.966 93.0082 379.967 91.5852 354.044 91.6464C350.702 92.5339 347.008 91.8759 343.62 92.794C341.765 93.2989 339.941 94.5536 338.791 96.145C338.101 97.0936 337.488 98.0882 336.875 99.0981C336.446 99.8172 335.909 100.062 335.035 100.047C332.583 100.016 330.36 97.874 328.658 96.3439C327.248 95.0739 325.914 93.6203 324.442 92.3809C302.122 93.4367 279.664 95.6247 256.562 99.0675C256.348 105.111 254.83 105.892 253.313 99.5724C251.212 99.909 249.112 100.261 247.012 100.628C247.518 110.62 245.985 112.701 243.762 101.21C217.824 105.953 192.929 112.701 170.915 121.927C183.578 184.723 163.066 264.963 163.066 264.963C175.928 297.447 216.23 264.396 246.997 262.254C247.978 258.827 247.947 255.063 251.412 252.951C254.048 251.268 255.535 253.976 256.808 256.639C258.463 257.19 260.548 256.7 262.188 256.516C263.721 256.348 265.285 256.302 266.711 256.669C267.968 255.858 269.577 255.522 271.095 255.659C274.33 255.675 277.533 255.659 280.722 255.644C280.952 255.445 281.182 255.262 281.427 255.093C282.485 254.359 283.819 254.037 285.091 254.236C285.735 254.344 286.302 254.619 286.823 254.956C287.36 255.093 287.881 255.292 288.387 255.522C333.855 254.558 376.027 249.539 423.028 257.082C426.6 234.131 430.08 234.177 427.136 257.572C429.083 257.817 431.03 258.062 432.962 258.322C433.299 248.192 435.506 249.753 435.828 258.704C445.655 260.036 455.236 261.55 464.311 263.203C465.047 262.132 466.028 261.03 467.392 260.892C467.714 260.54 468.281 260.525 468.542 260.862C470.259 261.03 470.611 263.524 471.822 264.626C500.903 267.763 540.561 294.478 550.97 264.978C550.97 264.978 530.459 184.754 543.09 121.973L543.121 121.958ZM503.202 267.12C501.976 266.646 500.658 266.187 499.293 265.758C499.217 265.192 499.033 264.641 498.757 264.182C498.098 263.05 497.132 262.193 496.657 260.954C495.66 258.307 496.534 255.216 494.924 252.752C493.468 250.534 490.509 249.401 488.348 251.39C487.505 252.171 487.03 253.257 486.309 254.129C485.435 255.17 483.856 254.864 482.844 255.843C481.955 256.7 481.679 257.924 481.495 259.102C481.373 259.883 481.158 260.862 480.652 261.52C478.384 261.122 476.222 260.755 474.26 260.449C474.367 258.123 473.432 256.302 471.516 255.598C471.455 255.17 471.393 254.741 471.347 254.313C471.117 252.37 470.964 250.411 470.903 248.453C470.903 248.147 470.903 247.825 470.903 247.519C470.918 247.03 470.933 246.54 470.964 246.066C471.025 245.056 471.041 244.061 471.071 243.067C471.071 242.944 471.102 242.806 471.117 242.684C471.439 239.853 471.684 237.023 471.792 234.177C471.853 232.646 471.868 231.116 471.807 229.586C471.746 228.224 471.424 226.954 471.24 225.608C471.209 225.424 470.903 225.47 470.918 225.654C470.933 226.863 470.918 228.071 470.872 229.296C470.857 229.311 470.841 229.311 470.826 229.341C469.906 231.407 469.876 233.687 469.538 235.875C469.201 238.078 469.078 240.312 468.91 242.531C468.726 244.887 468.511 247.228 468.067 249.539C467.852 250.61 467.637 251.681 467.392 252.737C467.254 253.349 467.024 253.93 466.886 254.527C466.779 255.001 466.733 255.445 466.626 255.889C465.476 256.47 464.541 257.48 463.82 259.01H463.805V258.98C463.805 258.337 463.805 257.694 463.82 257.052C463.851 255.598 463.974 254.16 464.066 252.706C464.265 249.814 464.372 246.877 465.031 244.046C465.108 243.709 464.587 243.556 464.51 243.908C463.774 246.769 462.824 249.554 462.349 252.477C462.119 253.884 461.981 255.307 461.873 256.73C461.827 257.388 461.781 258.046 461.751 258.704C455.19 257.802 444.198 257.052 438.496 256.226C438.634 251.421 435.184 242.271 431.199 249.952C431.137 244.581 431.49 234.452 428.685 233.932C425.097 233.274 421.893 241.185 419.793 252.079C415.946 251.559 411.868 251.008 407.652 250.472C407.468 250.197 407.208 249.967 406.855 249.845C406.502 249.723 406.135 249.6 405.782 249.478C405.659 249.34 405.552 249.172 405.506 248.988C405.322 248.391 405.031 247.81 404.525 247.443C404.142 247.167 403.743 246.892 403.345 246.632C401.597 245.515 399.635 244.765 397.642 244.214C395.91 243.74 394.055 243.143 392.506 244.321C391.74 244.903 391.173 245.744 390.575 246.479C390.069 247.106 389.64 247.764 389.211 248.422C382.036 247.779 374.678 247.351 367.381 247.351C362.537 247.351 357.785 247.443 353.063 247.58C352.358 247.596 351.729 247.228 351.377 246.678C351.361 246.479 351.346 246.28 351.331 246.081C351.239 244.612 351.177 243.158 351.101 241.689C351.04 240.328 350.948 239.012 350.718 237.665C350.457 236.15 350.442 234.59 350.35 233.06C350.35 232.799 349.936 232.784 349.936 233.06C349.936 234.467 350.012 235.89 349.89 237.283C349.767 238.721 349.69 240.113 349.706 241.552C349.614 241.582 349.537 241.628 349.507 241.705C349.338 242.041 349.415 242.393 349.353 242.761C349.292 243.143 349.277 243.541 349.292 243.939C349.307 244.551 349.353 245.148 349.384 245.744V245.775C349.43 246.815 348.602 247.688 347.56 247.718C347.544 247.718 347.529 247.718 347.514 247.718C346.594 247.749 345.781 247.336 345.245 246.678C345.291 245.301 345.26 243.923 345.291 242.623C345.352 239.348 345.521 236.059 345.337 232.799C345 226.434 345.812 219.855 344.724 213.551C344.678 213.275 344.264 213.367 344.248 213.612C343.758 220.145 344.187 226.648 343.298 233.167C342.899 236.089 342.731 239.027 342.486 241.965C342.348 243.572 342.087 245.377 342.026 247.152C341.489 247.642 340.784 247.963 340.002 247.994C334.315 248.223 328.627 248.483 322.894 248.743C312.639 249.187 300.605 249.462 289.981 249.707C289.981 249.707 289.951 249.692 289.935 249.692C287.804 246.525 286.486 242.684 285.72 238.813C285.704 238.553 285.674 238.293 285.658 238.032C285.275 232.907 285.229 227.72 284.202 222.67C284.11 222.196 283.466 222.364 283.42 222.777C283.129 225.746 283.175 228.668 283.297 231.637C283.42 234.574 283.42 237.528 283.665 240.465C283.696 240.848 283.757 241.246 283.803 241.628C283.757 242.271 283.711 242.914 283.619 243.556C283.405 245.056 283.083 246.494 282.7 247.932C281.565 249.141 280.109 250.748 279.02 252.079C277.871 252.079 259.521 252.752 259.521 252.752C258.08 249.355 255.397 243.878 251.948 245.331C247.809 247.075 245.724 256.057 244.789 259.01C243.609 259.209 242.382 259.393 241.11 259.592C240.911 259.362 240.665 259.194 240.282 259.117C238.995 258.888 237.875 258.322 237.017 257.312C236.036 256.18 235.852 254.619 234.886 253.456C233.951 252.339 232.464 251.788 231.084 252.4C229.904 252.921 229.536 254.053 229.138 255.185C228.693 256.455 227.743 256.47 226.547 256.608C225.382 256.746 224.217 256.975 223.358 257.847C222.622 258.597 222.27 259.607 222.04 260.617C221.948 260.862 221.887 261.122 221.871 261.397C221.764 261.994 221.641 262.698 221.381 263.31C218.023 264.182 214.697 265.238 211.539 266.569C200.931 271.006 195.473 275.398 182.52 275.398C173.138 275.398 167.083 266.37 164.17 260.678C167.589 246.28 189.464 183.591 180.128 126.931C188.989 123.488 199.536 118.806 210.65 114.506C210.788 114.659 210.926 114.812 211.064 114.965C211.125 115.134 211.171 115.287 211.232 115.455C211.524 116.297 211.984 117.077 212.52 117.796C213.547 119.173 215.034 119.862 216.659 120.305C217.364 120.489 218.269 120.856 218.959 120.474C219.802 119.999 219.786 118.928 219.863 118.087C219.955 116.924 219.955 115.746 219.863 114.583C219.832 114.154 219.955 113.711 220.277 113.435C220.722 113.053 221.304 112.884 221.795 112.548C222.53 112.028 222.975 111.339 223.006 110.421C223.006 110.299 222.975 110.176 222.929 110.054C229.214 107.957 235.545 106.137 241.723 104.897C243.164 108.554 249.204 121.591 249.204 121.591C249.204 121.591 251.258 104.377 251.688 103.398C252.101 103.459 258.049 115.057 258.049 115.057C258.049 115.057 258.755 106.29 260.533 101.638C280.155 98.8839 302.598 97.1854 321.928 96.1603C322.358 96.5734 330.85 101.347 335.878 104.163C339.282 123.197 339.098 125.34 339.42 129.976C340.539 125.615 340.646 106.167 342.777 99.4194C343.635 97.6292 344.34 96.1756 344.386 96.1603C345.168 95.946 359.103 96.5887 361.188 96.1603C361.188 96.1603 366.431 96.2827 374.249 96.5428C374.249 97.2619 374.172 97.9811 374.126 98.7003C374.019 100.261 373.911 101.822 373.835 103.382C373.758 104.943 373.682 106.504 373.666 108.065C373.666 109.702 373.881 111.308 373.85 112.946C373.85 113.129 374.141 113.129 374.141 112.946C374.187 111.37 374.509 109.824 374.632 108.263C374.755 106.703 374.847 105.142 374.969 103.581C375.077 102.082 375.199 100.582 375.322 99.0981C375.398 98.2871 375.414 97.4456 375.567 96.6499C375.567 96.6346 375.567 96.6193 375.567 96.604C380.81 96.7876 387.049 97.0171 393.595 97.3231C393.472 98.0729 393.901 98.9451 394.821 98.8686C395.572 98.8074 396.324 98.7921 397.075 98.7768C397.105 98.7768 397.121 98.8074 397.151 98.8074C398.209 99.2511 399.328 99.5877 400.493 99.5877C401.275 99.5877 401.996 99.3429 402.716 99.144C404.326 99.3276 405.92 99.5724 407.53 99.8019C408.465 100.246 409.384 100.751 410.258 101.225C411.638 101.99 412.895 103.076 414.52 103.245C416.313 103.428 418.138 102.709 419.839 102.25C421.771 101.73 423.687 101.225 425.619 100.705C426.232 100.536 426.584 100.047 426.692 99.4959C427.918 99.6183 429.098 99.7407 430.202 99.8784C431.781 102.786 434.035 107.544 435.215 110.115C435.276 111.14 435.322 112.165 435.368 113.19C435.414 114.415 435.215 115.822 435.69 116.985C435.736 117.077 435.813 117.169 435.89 117.23C435.89 117.23 435.89 117.261 435.89 117.276C435.89 118.01 435.844 118.775 435.89 119.51C435.936 120.214 436.227 120.795 436.349 121.468C436.38 121.637 436.656 121.637 436.687 121.468C436.809 120.795 437.101 120.198 437.162 119.51C437.223 118.867 437.223 118.225 437.254 117.597C437.269 117.291 437.3 116.985 437.331 116.679C437.453 115.639 437.637 114.613 437.698 113.573C437.729 113.022 437.744 112.471 437.76 111.92C437.867 111.018 437.959 110.13 438.082 109.243C438.25 107.896 438.572 106.534 438.404 105.203C438.373 105.004 438.25 104.836 438.097 104.714C438.618 103.138 439.17 101.623 439.691 100.552C448.215 101.638 464.081 103.138 472.068 104.53C470.979 111.461 468.312 122.738 470.734 123.197C474.842 123.993 476.897 113.695 479.625 107.973C479.794 108.325 480.039 108.661 480.3 108.967C480.33 109.197 480.361 109.442 480.392 109.671C480.499 110.497 480.606 111.324 480.714 112.15C480.806 112.976 480.836 113.802 480.836 114.629C480.836 115.057 480.806 115.486 480.852 115.914C480.898 116.358 481.02 116.74 480.99 117.199C480.974 117.475 481.434 117.551 481.48 117.261C481.557 116.817 481.756 116.465 481.879 116.052C482.001 115.654 482.032 115.225 482.063 114.812C482.109 114.338 482.124 113.879 482.155 113.405C482.231 113.16 482.323 112.9 482.4 112.655C482.584 112.058 482.737 111.339 483.074 110.803C483.258 110.513 483.458 110.253 483.626 109.962C483.642 109.916 483.672 109.885 483.688 109.855C484.561 109.411 485.481 108.447 486.355 106.657C511.695 113.282 520.341 121.652 534.03 126.961C524.649 183.836 546.294 246.724 549.651 260.801C547.475 265.36 543.412 282.941 503.202 267.135V267.12Z" fill="#771D62"/>
</g>
<g style="mix-blend-mode:multiply" opacity="0.35">
<path d="M408.617 242.472C408.525 242.364 408.449 242.242 408.357 242.135C408.203 241.967 408.019 241.859 407.82 241.783C407.682 241.706 407.544 241.676 407.391 241.676C407.161 241.63 406.946 241.63 406.716 241.706C406.578 241.768 406.441 241.814 406.318 241.875C406.257 241.905 406.195 241.951 406.134 242.012C406.057 242.028 405.981 242.012 405.904 242.058C405.797 242.089 405.689 242.15 405.613 242.227C405.459 242.319 405.352 242.441 405.26 242.609C405.214 242.716 405.168 242.823 405.122 242.931C405.061 243.16 405.061 243.405 405.122 243.65C405.122 243.665 405.122 243.696 405.138 243.711C405.153 243.757 405.229 243.986 405.306 244.093C405.367 244.17 405.459 244.292 405.521 244.369C405.521 244.369 405.521 244.384 405.536 244.399C405.536 244.399 405.551 244.399 405.567 244.415C405.613 244.461 405.689 244.507 405.72 244.537C405.751 244.568 405.827 244.614 405.873 244.66C405.889 244.66 405.904 244.69 405.935 244.69C406.027 244.736 406.119 244.767 406.211 244.797C406.287 244.843 406.349 244.904 406.425 244.935C406.548 245.012 406.686 245.042 406.839 245.042C407.054 245.088 407.284 245.088 407.498 245.012C407.498 245.012 407.514 245.012 407.529 245.012C407.667 244.95 407.79 244.904 407.928 244.843C407.943 244.843 407.958 244.843 407.973 244.813C407.973 244.813 407.974 244.813 407.989 244.813C408.341 244.552 408.28 244.629 408.479 244.369C408.633 244.201 408.725 244.017 408.786 243.787C408.863 243.481 408.863 243.191 408.786 242.885C408.74 242.747 408.663 242.609 408.617 242.472Z" fill="#771D62"/>
</g>
<g style="mix-blend-mode:multiply" opacity="0.35">
<path d="M453.272 106.78C453.195 106.718 453.103 106.657 453.027 106.581C452.889 106.489 452.736 106.443 452.567 106.428C452.398 106.397 452.23 106.397 452.076 106.443C452.03 106.443 451.984 106.489 451.938 106.504C451.892 106.504 451.846 106.504 451.8 106.519C451.785 106.519 451.754 106.519 451.739 106.535C451.647 106.565 451.555 106.611 451.463 106.657C451.402 106.703 451.341 106.749 451.279 106.795C451.187 106.871 451.126 106.978 451.095 107.086C451.065 107.147 451.049 107.223 451.034 107.3C451.034 107.3 451.034 107.33 451.019 107.33C450.988 107.422 450.973 107.529 450.973 107.621C450.973 107.728 450.988 107.835 451.049 107.927C451.08 108.034 451.141 108.111 451.218 108.187C451.279 108.233 451.325 108.264 451.387 108.31C451.387 108.31 451.417 108.31 451.433 108.31C451.463 108.371 451.494 108.432 451.54 108.478C451.647 108.6 451.785 108.692 451.938 108.738C452.092 108.815 452.245 108.845 452.414 108.845C452.582 108.845 452.751 108.815 452.889 108.738C453.042 108.692 453.18 108.6 453.287 108.478C453.349 108.386 453.41 108.31 453.487 108.233C453.594 108.034 453.655 107.835 453.655 107.606C453.655 107.499 453.625 107.392 453.609 107.269C453.548 107.055 453.441 106.871 453.287 106.718L453.272 106.78Z" fill="#771D62"/>
</g>
<g style="mix-blend-mode:multiply" opacity="0.35">
<path d="M485.527 124.774C485.359 124.621 485.175 124.529 484.945 124.468C484.715 124.392 484.485 124.392 484.27 124.438C484.04 124.438 483.826 124.514 483.642 124.636C483.611 124.652 483.581 124.682 483.565 124.698C483.565 124.698 483.565 124.698 483.535 124.698C483.305 124.698 483.09 124.759 482.891 124.866C482.737 124.943 482.615 125.05 482.538 125.203C482.431 125.325 482.354 125.478 482.308 125.631C482.232 125.845 482.216 126.075 482.186 126.304C482.186 126.366 482.186 126.411 482.186 126.473C482.186 126.595 482.216 126.763 482.247 126.87C482.247 126.87 482.247 126.901 482.247 126.916C482.247 126.947 482.262 126.978 482.278 127.008C482.339 127.176 482.4 127.345 482.477 127.498C482.507 127.544 482.523 127.605 482.569 127.651C482.63 127.758 482.707 127.85 482.783 127.942C482.845 128.064 482.921 128.186 483.059 128.324C483.167 128.416 483.305 128.508 483.412 128.599C483.427 128.615 483.458 128.63 483.473 128.645C483.657 128.768 483.887 128.86 484.102 128.936C484.24 128.951 484.393 128.982 484.531 128.997C484.761 128.997 484.96 128.967 485.16 128.86C485.297 128.814 485.42 128.753 485.512 128.645C485.696 128.538 485.834 128.385 485.926 128.186C486.064 127.987 486.156 127.743 486.233 127.498C486.325 127.253 486.34 126.993 486.34 126.733C486.34 126.197 486.202 125.708 485.957 125.249C485.849 125.05 485.696 124.897 485.512 124.774H485.527Z" fill="#771D62"/>
</g>
<g style="mix-blend-mode:multiply" opacity="0.35">
<path d="M485.174 245.791C485.174 245.791 484.898 245.669 484.836 245.653C484.806 245.653 484.499 245.607 484.469 245.607C484.392 245.607 484.315 245.623 484.254 245.638C484.193 245.638 484.101 245.638 484.039 245.669C483.978 245.684 483.917 245.715 483.871 245.73C483.825 245.745 483.763 245.776 483.702 245.806C483.625 245.868 483.549 245.929 483.472 245.99C483.365 246.097 483.273 246.219 483.227 246.357C483.181 246.449 483.15 246.541 483.15 246.648C483.15 246.648 483.15 246.679 483.15 246.694C483.15 246.786 483.12 246.893 483.104 247C483.104 247.046 483.135 247.092 483.135 247.138C483.135 247.138 483.135 247.138 483.119 247.153C483.058 247.245 483.028 247.336 483.012 247.428L482.966 247.535C482.966 247.535 482.951 247.673 482.936 247.734C482.936 247.78 482.951 247.887 482.966 247.948C482.966 247.948 482.966 247.948 482.966 247.964C482.966 247.964 482.966 247.979 482.966 247.994C482.982 248.071 483.028 248.147 483.058 248.209C483.058 248.209 483.058 248.224 483.058 248.239C483.104 248.3 483.15 248.362 483.196 248.423C483.211 248.438 483.227 248.453 483.242 248.484C483.303 248.545 483.38 248.591 483.457 248.637C483.503 248.668 483.549 248.683 483.61 248.698C483.656 248.729 483.702 248.775 483.763 248.79C483.84 248.836 483.932 248.867 484.024 248.867C484.162 248.897 484.3 248.897 484.453 248.851C484.56 248.821 484.668 248.775 484.775 248.714C484.806 248.714 484.821 248.683 484.852 248.668C484.898 248.637 484.928 248.591 484.974 248.561C485.036 248.53 485.112 248.499 485.158 248.453C485.204 248.423 485.25 248.392 485.281 248.362C485.358 248.27 485.45 248.163 485.511 248.056C485.603 247.918 485.649 247.765 485.71 247.612C485.664 247.719 485.618 247.811 485.588 247.918C485.649 247.795 485.695 247.673 485.741 247.551C485.741 247.52 485.756 247.505 485.756 247.474C485.756 247.474 485.756 247.459 485.756 247.444C485.772 247.321 485.802 247.183 485.802 247.061C485.802 247.03 485.802 247.015 485.802 246.985C485.802 246.74 485.741 246.51 485.618 246.281C485.496 246.066 485.327 245.913 485.128 245.791H485.174Z" fill="#771D62"/>
</g>
<g style="mix-blend-mode:multiply" opacity="0.35">
<path d="M481.955 239.044C481.786 238.967 481.633 238.891 481.433 238.906L481.157 238.937C481.065 238.967 480.989 238.998 480.912 239.044C480.759 239.136 480.636 239.258 480.544 239.411C480.452 239.58 480.406 239.748 480.406 239.931C480.406 240.1 480.422 240.283 480.437 240.452C480.437 240.589 480.468 240.712 480.529 240.834C480.575 240.957 480.636 241.064 480.744 241.156C480.835 241.247 480.943 241.324 481.065 241.37C481.188 241.431 481.311 241.462 481.449 241.462C481.541 241.462 481.633 241.431 481.709 241.431C481.878 241.385 482.031 241.293 482.154 241.171C482.2 241.11 482.261 241.033 482.307 240.972C482.399 240.819 482.445 240.651 482.445 240.467C482.445 240.299 482.46 240.115 482.476 239.947C482.476 239.763 482.43 239.58 482.338 239.427C482.246 239.273 482.123 239.151 481.97 239.059L481.955 239.044Z" fill="#771D62"/>
</g>
<g style="mix-blend-mode:multiply" opacity="0.35">
<path d="M452.736 251.559C452.736 251.559 452.721 251.529 452.705 251.513C452.705 251.513 452.705 251.498 452.705 251.483C452.675 251.452 452.659 251.422 452.629 251.391C452.613 251.36 452.583 251.33 452.552 251.299C452.491 251.238 452.445 251.192 452.383 251.131C452.291 251.039 452.199 250.978 452.077 250.932C451.969 250.871 451.847 250.84 451.724 250.855C451.602 250.855 451.479 250.871 451.372 250.932C451.249 250.963 451.157 251.039 451.065 251.131C451.019 251.192 450.973 251.253 450.912 251.314C450.82 251.452 450.789 251.621 450.789 251.789C450.789 251.865 450.804 251.957 450.82 252.034C450.866 252.187 450.942 252.324 451.065 252.447L451.249 252.63C451.249 252.63 451.372 252.722 451.433 252.783C451.433 252.783 451.448 252.783 451.464 252.783C451.479 252.783 451.494 252.799 451.51 252.814C451.54 252.829 451.586 252.845 451.617 252.86L451.816 252.952C451.923 252.982 452.046 252.998 452.153 252.967C452.23 252.967 452.307 252.952 452.368 252.906C452.475 252.875 452.567 252.814 452.644 252.722C452.69 252.661 452.736 252.6 452.782 252.554C452.813 252.493 452.843 252.416 452.874 252.355C452.905 252.248 452.92 252.125 452.874 252.018C452.874 251.911 452.828 251.804 452.767 251.697C452.751 251.666 452.736 251.621 452.721 251.59L452.736 251.559Z" fill="#771D62"/>
</g>
<g style="mix-blend-mode:multiply" opacity="0.35">
<path d="M229.122 196.92C229.291 196.904 229.429 196.889 229.582 196.828C229.935 196.69 230.073 196.629 230.349 196.415C230.594 196.231 230.747 196.078 230.916 195.803C230.916 195.803 230.916 195.787 230.916 195.772C230.992 195.711 231.054 195.65 231.115 195.604C231.238 195.481 231.36 195.328 231.452 195.175C231.667 194.854 231.744 194.456 231.759 194.058C231.759 193.982 231.759 193.921 231.759 193.844C231.744 193.645 231.713 193.431 231.667 193.232C231.621 193.048 231.529 192.865 231.452 192.681C231.422 192.605 231.391 192.528 231.345 192.467C231.207 192.222 231.023 191.993 230.824 191.809C230.502 191.503 230.165 191.319 229.751 191.166C229.49 191.075 229.184 191.029 228.892 191.044C228.187 191.09 227.543 191.335 227.037 191.84C226.853 192.023 226.685 192.237 226.547 192.467C226.455 192.651 226.378 192.834 226.302 193.033C226.271 193.094 226.256 193.155 226.24 193.217C226.102 193.752 226.102 194.334 226.24 194.869C226.302 195.068 226.393 195.252 226.47 195.435C226.501 195.497 226.531 195.558 226.562 195.619C226.669 195.787 226.792 195.94 226.93 196.093C226.976 196.139 227.022 196.185 227.083 196.231C227.221 196.353 227.421 196.506 227.605 196.598C227.758 196.675 227.926 196.751 228.095 196.812C228.141 196.812 228.172 196.828 228.218 196.843C228.601 196.92 228.754 196.92 229.122 196.874V196.92Z" fill="#771D62"/>
</g>
<g style="mix-blend-mode:multiply" opacity="0.35">
<path d="M225.35 200.836C225.35 200.836 225.319 200.836 225.304 200.82C225.166 200.667 224.982 200.56 224.783 200.499C224.583 200.438 224.369 200.438 224.169 200.499C223.97 200.56 223.802 200.652 223.664 200.79C223.618 200.836 223.572 200.882 223.51 200.927C223.418 201.019 223.342 201.126 223.311 201.233C223.25 201.356 223.219 201.478 223.234 201.616C223.234 201.708 223.25 201.784 223.265 201.876C223.311 202.044 223.388 202.182 223.51 202.305C223.556 202.35 223.602 202.396 223.664 202.442C223.802 202.58 223.986 202.687 224.169 202.733C224.369 202.794 224.583 202.794 224.783 202.733C224.982 202.672 225.166 202.565 225.304 202.412C225.319 202.412 225.335 202.412 225.35 202.396C225.488 202.32 225.595 202.213 225.672 202.075C225.748 201.937 225.794 201.784 225.794 201.616C225.794 201.448 225.748 201.295 225.672 201.157C225.595 201.019 225.488 200.912 225.35 200.836Z" fill="#771D62"/>
</g>
<g style="mix-blend-mode:multiply" opacity="0.35">
<path d="M218.176 188.886L217.916 188.687C217.808 188.641 217.716 188.595 217.609 188.565C217.44 188.519 217.272 188.503 217.103 188.549C216.934 188.549 216.781 188.61 216.628 188.702C216.612 188.702 216.597 188.718 216.566 188.733C216.566 188.733 216.551 188.733 216.536 188.733C216.475 188.763 216.49 188.763 216.398 188.84C216.245 188.962 216.168 189.008 216.061 189.207C216.015 189.314 215.969 189.406 215.923 189.513C215.923 189.513 215.923 189.528 215.923 189.544C215.923 189.559 215.923 189.574 215.907 189.605C215.846 189.819 215.846 190.049 215.907 190.263C215.969 190.477 216.076 190.661 216.229 190.814C216.383 190.967 216.566 191.074 216.781 191.135C216.996 191.196 217.226 191.196 217.44 191.135C217.578 191.089 217.747 191.043 217.854 190.967C217.946 190.906 218.023 190.829 218.115 190.768C218.176 190.676 218.253 190.6 218.314 190.508C218.314 190.508 218.314 190.492 218.314 190.477C218.314 190.462 218.329 190.431 218.345 190.416C218.391 190.309 218.437 190.217 218.467 190.11C218.513 189.942 218.529 189.773 218.483 189.605C218.483 189.498 218.452 189.391 218.391 189.284C218.345 189.131 218.253 188.993 218.13 188.886H218.176Z" fill="#771D62"/>
</g>
<g style="mix-blend-mode:multiply" opacity="0.35">
<path d="M210.297 122.433C210.588 122.127 210.634 121.668 210.358 121.316C210.113 120.994 209.622 120.857 209.27 121.102C209.132 121.193 209.009 121.3 208.887 121.392C208.948 121.346 209.009 121.3 209.071 121.255C208.795 121.438 208.565 121.622 208.396 121.913C208.289 122.096 208.197 122.31 208.12 122.525C207.906 122.769 207.783 123.075 207.768 123.412C207.768 123.672 207.86 123.917 208.013 124.116C208.013 124.238 208.028 124.361 208.059 124.468C208.135 124.835 208.473 125.141 208.825 125.233C209.025 125.279 209.224 125.279 209.408 125.233C209.592 125.187 209.76 125.08 209.898 124.942C210.021 124.85 210.128 124.743 210.236 124.636C210.435 124.407 210.512 124.269 210.619 123.978C210.665 123.825 210.696 123.657 210.696 123.489C210.696 123.32 210.665 123.152 210.619 122.984C210.542 122.769 210.45 122.586 210.297 122.417V122.433Z" fill="#771D62"/>
</g>
<g style="mix-blend-mode:multiply" opacity="0.35">
<path d="M232.832 246.74C232.694 246.373 232.556 246.113 232.28 245.822C232.112 245.638 231.897 245.47 231.667 245.378C231.483 245.302 231.284 245.21 231.085 245.164C230.885 245.118 230.671 245.087 230.456 245.072C230.241 245.057 230.042 245.072 229.812 245.118C229.766 245.118 229.72 245.133 229.674 245.149C229.598 245.164 229.552 245.195 229.475 245.225C229.291 245.302 229.138 245.378 229.015 245.531C228.892 245.654 228.8 245.791 228.739 245.96C228.663 246.113 228.617 246.281 228.632 246.465C228.647 246.816 228.77 247.153 229.015 247.398C229.092 247.474 229.184 247.536 229.276 247.597C229.306 247.888 229.337 248.056 229.475 248.316C229.552 248.454 229.644 248.576 229.751 248.683C229.966 248.897 230.272 249.081 230.563 249.142C230.916 249.219 231.192 249.219 231.544 249.142C231.866 249.066 232.127 248.897 232.372 248.683C232.602 248.469 232.802 248.117 232.863 247.811C232.894 247.658 232.939 247.459 232.924 247.291C232.924 247.153 232.894 247 232.863 246.847C232.863 246.816 232.848 246.771 232.832 246.74Z" fill="#771D62"/>
</g>
<g style="mix-blend-mode:multiply" opacity="0.35">
<path d="M395.724 104.239C395.663 103.979 395.525 103.734 395.341 103.551C395.265 103.474 395.142 103.383 395.081 103.352C394.912 103.229 394.713 103.199 394.513 103.184C394.299 103.184 394.1 103.229 393.9 103.337C393.793 103.398 393.701 103.474 393.624 103.581C393.609 103.597 393.609 103.627 393.594 103.643C393.563 103.643 393.517 103.643 393.486 103.673C393.425 103.689 393.379 103.719 393.333 103.765C393.256 103.811 393.195 103.872 393.164 103.949C393.149 104.01 393.118 104.056 393.103 104.117C393.072 104.239 393.072 104.362 393.103 104.484C393.134 104.622 393.149 104.775 393.164 104.913C393.18 105.05 393.226 105.188 393.256 105.341C393.256 105.295 393.256 105.234 393.241 105.188C393.241 105.31 393.256 105.433 393.318 105.54C393.364 105.662 393.425 105.785 393.532 105.877C393.609 105.938 393.67 105.984 393.747 106.045C393.916 106.137 394.084 106.183 394.268 106.183C394.513 106.183 394.82 106.106 395.019 105.968C395.111 105.907 395.203 105.831 395.28 105.769C395.295 105.769 395.311 105.739 395.326 105.724C395.418 105.616 395.51 105.509 395.571 105.387C395.632 105.265 395.694 105.127 395.724 105.004C395.724 104.989 395.724 104.959 395.724 104.943C395.77 104.622 395.786 104.653 395.724 104.331V104.301V104.239Z" fill="#771D62"/>
</g>
<path style="mix-blend-mode:multiply" opacity="0.35" d="M205.438 185.428C205.438 151.796 205.975 129.824 212.965 108.035C198.202 111.876 184.053 116.466 170.946 121.959C181.478 174.259 168.539 238.982 164.094 259.012C163.205 263.02 163.082 264.948 163.082 264.948C172.188 287.946 195.045 278.107 218.53 269.631C208.903 253.518 205.453 219.06 205.453 185.413L205.438 185.428Z" fill="url(#paint10_linear_6238_14190)"/>
<path d="M506.498 258.995C508.261 267.396 518.455 273.225 526.871 273.225C535.149 271.741 536.498 267.87 538.139 263.601C538.139 263.601 538.001 248.285 538.139 243.817C538.277 239.349 508.537 236.197 507.924 243.817L506.498 258.995Z" fill="#A145A6"/>
<g style="mix-blend-mode:multiply" opacity="0.35">
<path d="M538.138 243.816C538.276 239.348 509.027 235.936 508.414 243.556L506.482 258.995C507.341 263.08 510.192 266.554 513.871 269.048C513.871 269.048 515.113 269.844 516.539 270.609C519.835 272.276 523.483 273.225 526.856 273.225C535.134 271.741 536.483 267.87 538.123 263.601C538.123 263.601 537.985 248.284 538.123 243.816H538.138Z" fill="#771D62"/>
</g>
<path d="M518.301 260.481C518.025 257.497 520.34 253.978 527.407 253.978C534.336 255.064 536.666 258.721 538.138 263.602V244.889C538.138 239.733 518.316 238.524 518.316 244.889V260.481H518.301Z" fill="url(#paint11_linear_6238_14190)"/>
<path d="M539.717 245.852L514.837 245.148L513.656 266.585L540.192 267.136L539.717 245.852Z" fill="url(#paint12_linear_6238_14190)"/>
<g style="mix-blend-mode:multiply" opacity="0.25">
<path d="M539.732 246.602L536.006 245.745L533.63 245.684L533.4 248.071L533.523 253.411L539.946 255.92L539.732 246.602Z" fill="#CC0631"/>
</g>
<path d="M550.632 106.612C549.927 101.808 547.781 97.8905 544.776 94.9068C544.224 96.1615 541.741 98.9922 541.741 98.3036C541.741 96.544 542.109 94.769 542.691 93.1012C531.179 84.196 511.097 86.2616 506.482 100.66C510.744 124.759 511.848 159.937 511.511 179.155C511.143 199.597 507.464 254.299 506.482 258.996C509.472 249.311 517.428 246.511 527.193 247.061C532.328 247.352 537.525 248.668 541.741 251.269C542.201 250.428 542.937 249.77 543.872 249.372C544.362 249.173 544.745 249.663 544.807 250.076C544.991 251.636 545.589 253.136 545.926 254.666C548.379 257.298 550.095 260.679 550.632 264.948C547.842 246.771 544.546 199.322 544.485 177.38C544.439 159.615 546.478 131.645 550.632 106.612Z" fill="url(#paint13_linear_6238_14190)"/>
<path d="M207.2 258.995C205.437 267.396 195.242 273.225 186.826 273.225C178.548 271.741 177.199 267.87 175.559 263.601C175.559 263.601 175.697 248.285 175.559 243.817C175.421 239.349 205.161 236.197 205.774 243.817L207.2 258.995Z" fill="#A145A6"/>
<g style="mix-blend-mode:multiply" opacity="0.35">
<path d="M207.2 258.995C205.437 267.396 195.242 273.225 186.826 273.225C178.548 271.741 177.199 267.87 175.559 263.601C175.559 263.601 175.697 248.285 175.559 243.817C175.421 239.349 205.161 236.197 205.774 243.817L207.2 258.995Z" fill="#771D62"/>
</g>
<path d="M175.561 244.903V263.616C176.603 260.143 178.09 257.297 181.34 255.552L182.812 252.217C182.812 252.217 182.949 253.93 183.103 254.787C184.038 254.451 185.096 254.191 186.291 253.992C192.715 253.992 195.198 256.899 195.397 259.668V244.903C195.397 238.538 175.576 239.746 175.576 244.903H175.561Z" fill="url(#paint14_linear_6238_14190)"/>
<path d="M173.905 245.852L198.785 245.148L199.981 266.585L173.43 267.136L173.905 245.852Z" fill="url(#paint15_linear_6238_14190)"/>
<g style="mix-blend-mode:multiply" opacity="0.25">
<path d="M173.89 246.602L177.616 245.745L180.007 245.684L180.237 248.071L180.099 253.411L173.676 255.92L173.89 246.602Z" fill="#CC0631"/>
</g>
<g style="mix-blend-mode:multiply" opacity="0.15">
<path d="M176.45 243.128C176.204 243.419 175.959 243.771 175.714 244.154C175.622 244.398 175.561 244.643 175.561 244.903V263.617C176.373 260.924 177.477 258.598 179.439 256.884C179.056 256.058 178.856 254.252 178.749 252.095C178.703 250.182 186.491 245.271 195.29 248.958C195.321 248.958 195.351 248.958 195.382 248.958V244.903C195.382 244.72 195.367 244.551 195.336 244.383L178.059 242.088C177.415 242.394 176.864 242.731 176.45 243.113V243.128Z" fill="#8E1613"/>
</g>
<path d="M207.201 100.659C206.113 97.2622 204.15 94.5692 201.667 92.5341C200.609 94.0336 197.651 93.697 197.942 96.1911C197.62 97.6294 195.32 96.8491 194.753 95.931C193.328 93.7735 194.339 90.8663 193.512 88.5405C185.847 86.6279 176.771 88.3569 170.502 93.5134C171.559 98.2568 170.134 103.367 168.57 95.3036C165.765 98.2415 163.757 102.036 163.082 106.642C167.221 131.674 169.275 159.66 169.229 177.41C169.183 199.351 165.872 246.8 163.082 264.978C164.722 249.31 186.996 242.409 199.567 249.524C199.858 248.07 200.027 246.601 200.226 245.148C200.272 244.842 200.64 244.612 200.931 244.612H201.468C201.866 244.612 202.203 244.949 202.203 245.347C202.219 246.739 202.832 247.963 203.415 249.203C204.028 250.503 204.58 251.834 204.595 253.303C204.595 253.472 204.549 253.609 204.457 253.716C205.653 255.231 206.603 256.991 207.216 259.026C203.323 222.579 198.57 146.976 207.216 100.69L207.201 100.659Z" fill="url(#paint16_linear_6238_14190)"/>
<g style="mix-blend-mode:multiply" opacity="0.35">
<path d="M201.667 92.5205C200.609 94.02 197.651 93.6833 197.942 96.1774C197.62 97.6157 195.32 96.8354 194.753 95.9173C193.328 93.7599 194.339 90.8526 193.512 88.5269C185.847 86.6142 176.771 88.3432 170.502 93.4997C171.559 98.2431 170.134 103.354 168.57 95.29C165.765 98.2278 163.757 102.022 163.082 106.628C163.281 107.791 163.465 108.969 163.649 110.147C164.968 107.133 166.7 104.501 168.877 102.328C170.854 107.194 172.203 107.76 172.357 99.5131C175.422 97.5239 179.117 96.2539 183.517 95.8408C183.517 96.0244 183.547 96.208 183.547 96.3764C183.624 97.9677 183.808 99.559 183.915 101.15C184.007 102.68 184.145 104.211 184.314 105.741C184.39 106.445 184.498 107.148 184.62 107.852C184.774 108.678 185.203 109.398 185.341 110.209C185.387 110.484 185.862 110.423 185.831 110.147C185.739 109.336 185.954 108.51 185.908 107.684C185.862 106.98 185.816 106.276 185.739 105.572C185.601 104.042 185.494 102.512 185.417 100.982C185.341 99.4366 185.417 97.9218 185.479 96.3764C185.479 96.1621 185.509 95.9326 185.525 95.7031C187.518 95.6266 189.419 95.7031 191.227 95.9479C192.684 100.339 196.976 101.303 200.042 99.2224C202.633 101.028 204.718 103.583 206.143 106.98C206.48 104.823 206.818 102.711 207.201 100.661C206.113 97.2638 204.15 94.5708 201.667 92.5358V92.5205Z" fill="#771D62"/>
</g>
<g style="mix-blend-mode:multiply" opacity="0.35">
<path d="M207.201 258.995C206.756 254.788 206.297 250.029 205.837 244.872C205.039 244.169 204.227 243.557 203.369 242.99C201.636 236.916 199.812 237.084 198.662 240.603C193.159 238.553 187.073 238.599 181.57 239.792C181.999 234.575 181.876 229.235 182.06 224.048C182.306 217.04 182.535 210.047 182.765 203.039C182.765 202.917 182.581 202.917 182.581 203.039C182.26 209.955 181.769 216.825 181.125 223.711C180.803 227.108 180.389 230.489 180.006 233.871C179.761 236.013 179.454 238.201 179.255 240.374C172.265 242.363 166.593 246.142 164.922 249.646C164.308 255.752 163.68 261.046 163.082 264.963C164.722 249.294 186.996 242.394 199.567 249.509C199.858 248.055 200.027 246.586 200.226 245.133C200.272 244.826 200.64 244.597 200.931 244.597H201.468C201.866 244.597 202.203 244.934 202.203 245.331C202.219 246.724 202.832 247.948 203.415 249.187C204.028 250.488 204.58 251.819 204.595 253.288C204.595 253.456 204.549 253.594 204.457 253.701C205.653 255.216 206.603 256.976 207.216 259.011L207.201 258.995Z" fill="#771D62"/>
</g>
<g style="mix-blend-mode:multiply" opacity="0.35">
<path d="M181.784 193.491C181.83 192.191 181.83 190.906 181.83 189.605C181.83 189.452 181.6 189.452 181.6 189.605C181.6 190.906 181.6 192.191 181.646 193.491C181.646 193.568 181.768 193.568 181.768 193.491H181.784Z" fill="#771D62"/>
</g>
<g style="mix-blend-mode:multiply" opacity="0.35">
<path d="M182.135 200.546C182.196 199.261 182.166 197.961 182.181 196.66C182.181 196.522 181.967 196.522 181.967 196.66C181.967 197.961 181.951 199.246 182.013 200.546C182.013 200.623 182.135 200.623 182.135 200.546Z" fill="#771D62"/>
</g>
<g style="mix-blend-mode:multiply" opacity="0.35">
<path d="M544.776 94.9068C544.224 96.1615 541.741 98.9922 541.741 98.3036C541.741 96.544 542.109 94.769 542.691 93.1012C531.179 84.196 511.097 86.2616 506.482 100.66C506.697 101.915 507.418 106.551 507.617 107.852C507.617 107.852 510.989 93.4684 529.922 94.9374C529.922 95.3964 529.937 95.8401 529.937 96.2839C529.937 97.7834 529.86 99.2829 529.799 100.782C529.676 103.781 529.4 106.78 529.4 109.795C529.4 110.04 529.814 110.116 529.86 109.856C530.289 106.964 530.458 104.042 530.78 101.134C530.949 99.5736 531.117 98.0282 531.347 96.4675C531.409 96.039 531.485 95.6106 531.577 95.1669C534.459 95.733 537.418 97.2172 539.993 98.9463V105.725L544.178 99.5889C546.968 102.527 549.007 106.153 549.651 110.131C549.804 110.055 549.958 109.963 550.111 109.871C550.279 108.785 550.448 107.699 550.632 106.627C549.927 101.823 547.781 97.9058 544.776 94.9221V94.9068Z" fill="#771D62"/>
</g>
<g style="mix-blend-mode:multiply" opacity="0.35">
<path d="M529.692 110.682C529.6 110.59 529.416 110.606 529.339 110.728C529.263 110.881 529.293 111.003 529.309 111.156C529.324 111.309 529.339 111.462 529.339 111.615C529.339 111.921 529.339 112.227 529.339 112.534C529.293 113.146 529.171 113.742 528.972 114.308C528.864 114.645 529.385 114.783 529.493 114.446C529.692 113.834 529.815 113.191 529.861 112.549C529.876 112.227 529.891 111.921 529.861 111.6C529.861 111.447 529.845 111.294 529.83 111.141C529.815 110.957 529.815 110.789 529.677 110.667L529.692 110.682Z" fill="#771D62"/>
</g>
<g style="mix-blend-mode:multiply" opacity="0.35">
<path d="M548.747 249.264C548.072 248.101 547.29 247.045 546.432 246.081C546.202 240.252 544.47 240.083 542.569 242.746C540.53 241.384 538.261 240.374 535.885 239.64C535.762 237.895 535.64 236.136 535.517 234.391C535.364 232.326 535.211 230.245 535.042 228.179C534.873 226.022 534.429 223.879 534.199 221.737C534.168 221.431 533.693 221.401 533.693 221.737C533.724 223.971 533.57 226.205 533.678 228.424C533.77 230.489 533.877 232.57 534 234.636C534.092 236.151 534.168 237.666 534.26 239.181C532.421 238.721 530.535 238.446 528.665 238.293C528.665 238.064 528.65 237.834 528.634 237.605C528.604 235.83 528.466 234.07 528.251 232.31C528.251 232.188 528.082 232.188 528.067 232.31C527.852 234.07 527.714 235.83 527.684 237.605C527.684 237.803 527.668 238.018 527.653 238.217C518.93 237.773 510.56 240.328 507.924 243.786C507.311 251.773 506.789 257.573 506.498 258.965C509.487 249.279 517.443 246.479 527.208 247.03C532.344 247.321 537.541 248.637 541.756 251.238C542.216 250.396 542.952 249.738 543.887 249.34C544.378 249.142 544.761 249.631 544.822 250.044C545.006 251.605 545.604 253.105 545.941 254.635C548.394 257.266 550.111 260.648 550.648 264.917C550.034 260.908 549.391 255.492 548.777 249.233L548.747 249.264Z" fill="#771D62"/>
</g>
<path d="M546.232 266.463C546.293 267.87 546.201 271.038 546.201 271.038L506.865 270.808C506.865 270.808 506.865 268.161 506.896 266.233C506.942 257.619 515.787 250.687 526.656 250.748C537.525 250.81 545.849 257.573 546.232 266.463Z" fill="url(#paint17_linear_6238_14190)"/>
<path d="M546.201 271.037C546.155 279.651 537.31 286.583 526.441 286.522C515.573 286.461 506.819 279.422 506.865 270.807C506.911 262.193 515.757 255.261 526.625 255.323C537.494 255.384 546.247 262.422 546.201 271.037Z" fill="url(#paint18_linear_6238_14190)"/>
<g style="mix-blend-mode:multiply" opacity="0.25">
<path d="M540.866 260.297C542.797 262.653 543.916 265.453 543.901 268.468C543.855 276.669 535.424 283.279 525.092 283.218C516.2 283.172 508.796 278.199 506.926 271.604C507.401 279.852 515.924 286.477 526.456 286.538C537.325 286.6 546.17 279.668 546.216 271.054C546.247 266.892 544.192 263.112 540.881 260.297H540.866Z" fill="#CC0631"/>
</g>
<path d="M508.951 263.907C510.423 259.516 524.802 249.662 538.829 258.766C529.232 253.763 515.681 255.048 508.951 263.907Z" fill="#FFF5CC"/>
<path d="M526.917 264.964C519.62 264.78 517.949 268.33 517.857 270.87C517.673 275.981 520.877 278.505 520.402 286.018C519.911 293.531 518.225 295.138 516.6 300.845C515.696 304.028 517.765 307.914 524.863 308.618C531.592 308.649 534.398 305.16 533.8 301.886C532.727 296.01 531.194 294.22 531.424 286.691C531.654 279.163 535.072 277.052 535.364 271.926C535.517 269.371 534.183 265.652 526.917 264.964Z" fill="url(#paint19_linear_6238_14190)"/>
<path d="M525.522 275.765C525.338 276.178 524.189 286.415 523.897 290.041C523.729 292.061 523.744 294.28 525.032 294.142C526.258 293.637 526.565 291.51 526.457 289.552C526.258 286.048 525.706 276.102 525.538 275.75L525.522 275.765Z" fill="#FFF5CC"/>
<path d="M533.846 303.201C533.677 306.445 529.599 308.863 524.77 308.602C519.926 308.342 516.155 305.496 516.324 302.253C516.492 299.009 520.57 296.591 525.399 296.851C530.243 297.111 534.014 299.957 533.846 303.201Z" fill="url(#paint20_linear_6238_14190)"/>
<path d="M516.938 300.338C519.973 297.11 523.683 296.299 528.941 297.554C525.629 296.146 520.095 295.565 516.938 300.338Z" fill="#FFF5CC"/>
<g style="mix-blend-mode:multiply" opacity="0.15">
<path d="M532.283 295.596C531.7 293.27 531.286 290.853 531.409 286.691C531.639 279.163 535.057 277.051 535.349 271.925C535.502 269.37 534.168 265.652 526.902 264.963C524.127 264.887 522.18 265.361 520.801 266.111C525.936 265.82 533.157 269.049 531.777 274.71C530.413 280.387 529.309 286.216 532.267 295.596H532.283Z" fill="#CC0631"/>
</g>
<g style="mix-blend-mode:multiply" opacity="0.35">
<path d="M530.366 298.197C531.454 299.161 532.082 300.355 532.006 301.625C531.853 304.471 528.296 306.598 524.05 306.368C519.849 306.139 516.569 303.706 516.645 300.89C516.461 301.334 516.339 301.793 516.308 302.267C516.14 305.511 519.911 308.357 524.755 308.617C529.599 308.877 533.661 306.46 533.83 303.216C533.937 301.227 532.558 299.391 530.35 298.197H530.366Z" fill="#CC0631"/>
</g>
<path d="M167.388 266.463C167.327 267.87 167.419 271.038 167.419 271.038L206.755 270.808C206.755 270.808 206.755 268.161 206.724 266.233C206.678 257.619 197.833 250.687 186.964 250.748C176.096 250.81 167.772 257.573 167.388 266.463Z" fill="url(#paint21_linear_6238_14190)"/>
<path d="M167.418 271.037C167.464 279.651 176.309 286.583 187.178 286.522C198.047 286.461 206.8 279.422 206.754 270.807C206.708 262.193 197.863 255.261 186.994 255.323C176.125 255.384 167.372 262.422 167.418 271.037Z" fill="url(#paint22_linear_6238_14190)"/>
<g style="mix-blend-mode:multiply" opacity="0.25">
<path d="M172.753 260.297C170.821 262.653 169.702 265.453 169.717 268.468C169.763 276.669 178.195 283.279 188.527 283.218C197.418 283.172 204.823 278.199 206.693 271.604C206.218 279.852 197.694 286.477 187.163 286.538C176.294 286.6 167.449 279.668 167.403 271.054C167.372 266.892 169.426 263.112 172.737 260.297H172.753Z" fill="#CC0631"/>
</g>
<path d="M204.671 263.907C203.199 259.516 188.82 249.662 174.793 258.766C184.389 253.763 197.941 255.048 204.671 263.907Z" fill="#FFF5CC"/>
<path d="M186.704 264.964C194.001 264.78 195.672 268.33 195.764 270.87C195.948 275.981 192.744 278.505 193.219 286.018C193.71 293.531 195.396 295.138 197.021 300.845C197.925 304.028 195.856 307.914 188.758 308.618C182.029 308.649 179.223 305.16 179.821 301.886C180.894 296.01 182.427 294.22 182.197 286.691C181.967 279.163 178.549 277.052 178.257 271.926C178.104 269.371 179.438 265.652 186.704 264.964Z" fill="url(#paint23_linear_6238_14190)"/>
<path d="M188.115 275.765C188.299 276.178 189.449 286.415 189.74 290.041C189.909 292.061 189.893 294.28 188.606 294.142C187.379 293.637 187.073 291.51 187.18 289.552C187.379 286.048 187.931 276.102 188.1 275.75L188.115 275.765Z" fill="#FFF5CC"/>
<path d="M179.775 303.201C179.944 306.445 184.021 308.863 188.85 308.602C193.694 308.342 197.465 305.496 197.297 302.253C197.128 299.009 193.051 296.591 188.222 296.851C183.377 297.111 179.606 299.957 179.775 303.201Z" fill="url(#paint24_linear_6238_14190)"/>
<path d="M196.698 300.338C193.663 297.11 189.953 296.299 184.695 297.554C188.007 296.146 193.541 295.565 196.698 300.338Z" fill="#FFF5CC"/>
<g style="mix-blend-mode:multiply" opacity="0.15">
<path d="M181.339 295.596C181.921 293.27 182.335 290.853 182.213 286.691C181.983 279.163 178.564 277.051 178.273 271.925C178.12 269.37 179.453 265.652 186.72 264.963C189.494 264.887 191.441 265.361 192.821 266.111C187.685 265.82 180.465 269.049 181.845 274.71C183.209 280.387 184.313 286.216 181.354 295.596H181.339Z" fill="#CC0631"/>
</g>
<g style="mix-blend-mode:multiply" opacity="0.35">
<path d="M183.256 298.197C182.167 299.161 181.539 300.355 181.615 301.625C181.769 304.471 185.325 306.598 189.571 306.368C193.772 306.139 197.052 303.706 196.976 300.89C197.16 301.334 197.282 301.793 197.313 302.267C197.481 305.511 193.71 308.357 188.866 308.617C184.022 308.877 179.96 306.46 179.791 303.216C179.684 301.227 181.063 299.391 183.271 298.197H183.256Z" fill="#CC0631"/>
</g>
<g style="mix-blend-mode:screen">
<path d="M246.137 82.9102L248.774 98.3337L255.243 101.317L248.774 104.316L246.137 119.74L243.5 104.316L237.016 101.317L243.5 98.3337L246.137 82.9102Z" fill="#FCCD47"/>
</g>
<g style="mix-blend-mode:screen">
<path d="M275.433 89.9639C275.433 91.9225 273.839 93.5138 271.877 93.5138C269.915 93.5138 268.32 91.9225 268.32 89.9639C268.32 88.0054 269.915 86.4141 271.877 86.4141C273.839 86.4141 275.433 88.0054 275.433 89.9639Z" fill="#FCCD47"/>
</g>
<g style="mix-blend-mode:screen">
<path d="M234.272 112.564C234.272 113.956 233.153 115.073 231.758 115.073C230.363 115.073 229.244 113.956 229.244 112.564C229.244 111.172 230.363 110.055 231.758 110.055C233.153 110.055 234.272 111.172 234.272 112.564Z" fill="#FCCD47"/>
</g>
<g style="mix-blend-mode:screen">
<path d="M454.851 224.246L457.549 252.936L470.564 255.996L457.549 259.041L454.851 287.746L452.153 259.041L439.123 255.996L452.153 252.936L454.851 224.246Z" fill="#FCCD47"/>
</g>
<g style="mix-blend-mode:screen">
<path d="M473.094 283.937C474.483 283.937 475.608 282.813 475.608 281.427C475.608 280.041 474.483 278.918 473.094 278.918C471.706 278.918 470.58 280.041 470.58 281.427C470.58 282.813 471.706 283.937 473.094 283.937Z" fill="#FCCD47"/>
</g>
<path d="M551 264.964C550.371 260.878 549.053 257.956 545.926 254.681C545.727 252.202 545.359 245.776 541.741 251.269C537.954 248.484 525.215 244.123 515.435 248.377C506.942 252.065 506.789 257.65 506.482 258.996C508.322 254.941 510.024 251.866 515.864 249.494C522.303 247.107 529.6 246.25 542.277 252.401C543.274 250.871 544.393 247.505 545.389 255.385C547.045 256.839 549.636 259.119 550.985 264.964H551Z" fill="#F294F7"/>
<path d="M207.201 258.997C206.756 255.998 205.744 255.064 204.441 253.687C204.993 250.795 202.602 247.444 202.602 245.593C202.602 243.741 200.042 243.114 199.766 245.057C199.505 247 198.999 249.219 198.999 249.219C195.244 246.832 186.781 245.149 178.243 248.332C169.689 251.514 163.588 256.977 163.066 264.964C164.737 257.772 171.023 252.203 178.626 249.387C187.456 246.113 195.167 247.444 199.597 250.719C199.858 248.684 201.007 243.741 202.081 247.276C203.154 250.81 203.843 251.254 203.414 253.809C204.917 254.865 206.771 256.793 207.216 259.012L207.201 258.997Z" fill="#F294F7"/>
<path style="mix-blend-mode:screen" d="M350.401 251.177C365.644 211.51 326.333 171.664 262.599 162.177C198.865 152.691 134.841 177.157 119.599 216.823C104.356 256.49 143.667 296.337 207.401 305.823C271.135 315.31 335.159 290.844 350.401 251.177Z" fill="url(#paint25_radial_6238_14190)"/>
<path style="mix-blend-mode:screen" d="M480.662 199.232C509.015 124.801 435.892 50.0322 317.338 32.2316C198.783 14.431 79.6908 60.339 51.3378 134.77C22.9847 209.201 96.1076 283.969 214.662 301.77C333.217 319.571 452.309 273.663 480.662 199.232Z" fill="url(#paint26_radial_6238_14190)"/>
<path style="mix-blend-mode:screen" d="M655.662 233.232C684.015 158.801 610.892 84.0322 492.338 66.2316C373.783 48.431 254.691 94.339 226.338 168.77C197.985 243.201 271.108 317.969 389.662 335.77C508.217 353.571 627.309 307.663 655.662 233.232Z" fill="url(#paint27_radial_6238_14190)"/>
<g filter="url(#filter0_d_6238_14190)">
<path d="M287.747 187.48L287.875 190.232L262.531 191.256L262.467 189.912L265.539 189.784C268.227 189.656 270.659 187.544 270.595 183.576L268.867 143.32L263.427 143.832C263.363 143.832 263.235 143.832 263.107 143.896C258.883 144.216 258.307 147.224 258.179 150.424L258.115 152.6H256.771L257.219 141.208L302.339 137.176L302.787 149.336H301.379L301.251 146.264V146.2C301.187 143.384 299.971 140.888 294.723 141.016L277.315 142.552L278.979 183.256C279.427 187.416 281.539 187.736 287.043 187.544L287.747 187.48ZM311.363 161.176H309.955L310.083 158.552C310.083 157.464 309.507 154.968 305.539 154.904H305.155L300.611 154.776L300.163 173.144L306.051 173.336C308.355 173.336 309.955 172.504 310.083 169.368L310.147 167.512H311.491L310.915 181.848H309.571L309.635 180.696C309.763 178.456 308.099 176.28 305.859 176.024L300.099 175.896L299.523 198.168L306.563 198.744C309.571 198.296 310.083 196.376 310.147 195.416V192.856L311.491 192.92L311.427 201.88L292.547 200.536L283.843 200.216V198.744L285.891 198.808C288.515 198.872 291.075 196.952 291.331 192.984L292.163 159.512C292.163 156.824 290.883 153.112 287.683 153.048L285.315 152.92V151.512L297.795 151.96L311.491 152.28H311.747L311.363 161.176ZM332.977 186.264V184.856H334.257C337.137 184.856 338.929 183.576 338.289 180.696L335.985 170.2H327.601L323.889 186.392C323.377 188.76 325.425 190.296 326.513 190.296H328.241V191.704H313.521V190.296H315.249C316.529 190.296 318.897 189.336 319.537 186.584L327.921 149.976C328.369 147.992 325.873 146.264 323.633 146.264C321.073 146.264 319.537 147.672 319.537 149.72C319.537 151.704 320.817 152.536 321.905 152.536C322.737 152.536 323.441 151.96 323.185 151.064C322.737 149.528 320.561 149.72 320.561 149.72C321.137 148.632 322.353 148.12 323.505 148.12C324.913 148.12 326.193 148.952 326.193 150.68C326.193 153.048 324.209 154.648 321.585 154.648C318.513 154.648 316.849 152.152 316.849 149.72C316.849 144.216 323.057 142.488 328.497 142.808L345.329 143.768V145.112L342.385 145.176C340.017 145.432 338.865 146.52 339.441 149.016L346.161 178.712C346.929 182.04 348.017 184.856 351.665 184.856H353.649V187.416L332.977 186.264ZM328.113 167.96H335.409L331.825 151.704L328.113 167.96ZM361.184 161.112C361.184 171.672 379.616 174.488 379.616 186.776C379.616 195.928 372.384 200.152 364 200.152C358.816 200.152 351.584 196.504 351.584 189.272C351.584 183.704 355.04 180.44 359.84 180.44C368.224 180.44 368.032 190.744 362.016 191.192C360.095 191.32 358.368 190.296 358.368 187.928C358.368 186.392 359.648 185.432 360.928 185.432C361.504 185.432 362.144 185.688 362.528 186.264C362.528 186.264 360.864 186.2 360.672 187.416C360.48 188.12 360.992 188.44 361.632 188.44C364.64 188.44 364.512 182.68 361.056 182.68C354.911 182.68 354.464 197.656 364.256 197.656C369.76 197.656 371.232 192.536 371.232 189.592C371.232 177.752 352.799 176.152 352.799 163.48C352.799 154.392 361.632 151.448 366.624 151.448C373.984 151.448 378.016 155.672 378.336 160.536C378.72 165.592 375.328 168.28 372.192 168.28C369.76 168.28 367.392 166.616 367.135 163.096C366.944 160.472 368.416 158.36 370.784 158.232C373.856 157.976 374.432 162.264 372.128 163.736C372.128 163.736 372.192 161.56 370.592 161.24C368.48 160.792 368.608 165.08 372.256 164.76C374.24 164.696 375.52 162.968 375.328 160.472C375.072 157.016 372.576 153.304 368.032 153.304C365.024 153.304 361.184 155.16 361.184 161.112ZM407.077 186.712C410.213 186.712 411.941 189.208 411.941 191.576C412.005 196.44 408.229 197.848 402.789 197.976L391.333 198.104L379.813 198.424L379.749 197.016L381.733 196.952C384.357 196.888 386.725 194.776 386.725 190.936L385.381 158.36C385.317 158.296 385.317 158.104 385.317 157.976C385.125 154.136 382.629 151.96 380.389 152.024L378.021 152.088V150.744L390.437 150.296L404.197 149.656H404.389L404.581 158.488L403.237 158.616L403.173 156.312V156.056C403.045 154.904 402.341 152.536 398.373 152.6L398.181 152.664C398.117 152.664 398.053 152.664 397.989 152.664L393.509 152.856L394.213 169.88L400.165 169.56C402.405 169.496 403.941 168.536 403.941 165.464L403.877 163.544L405.221 163.48L405.669 177.816L404.261 177.88L404.197 176.792C404.133 174.488 402.405 172.44 400.165 172.312L394.341 172.632L395.301 195.288L402.725 195.224C402.789 195.224 402.789 195.224 402.789 195.224C407.653 195.16 409.253 193.688 409.189 191.768C409.125 189.72 407.845 188.888 406.821 188.888C405.989 188.888 405.285 189.464 405.541 190.36C405.989 191.896 408.165 191.704 408.165 191.704C407.589 192.792 406.373 193.304 405.221 193.304C403.813 193.304 402.533 192.472 402.533 190.808C402.469 188.44 404.453 186.776 407.077 186.712ZM448.604 199.832C454.748 199.832 455.388 211.352 446.684 211.352C439.26 211.352 437.276 203.352 435.74 196.504C435.74 196.376 431.772 176.024 425.18 176.088H424.028V192.024C424.028 195.416 426.076 196.312 428.956 196.568L431.196 196.888V198.232L410.588 196.952V194.584L412.636 194.776C415.58 194.776 417.372 193.624 417.372 190.872V154.328C417.372 150.488 413.404 149.656 411.74 149.656H410.396V148.248H424.028C432.284 148.248 440.732 152.216 440.732 161.496C440.732 167.64 437.34 171.608 432.924 173.912C443.292 181.336 437.788 208.664 447.26 208.664C451.996 208.664 452.444 202.264 448.348 201.88C445.596 201.624 446.044 205.208 447.58 204.696C448.732 204.312 448.476 202.712 448.476 202.712C450.396 203.608 450.332 206.872 447.964 207C446.172 207.064 444.892 205.656 444.764 203.608C444.636 201.304 446.428 199.832 448.604 199.832ZM424.028 173.336C438.108 172.44 436.06 150.68 424.028 150.296V173.336Z" fill="#F5F5F5"/>
</g>
<defs>
<filter id="filter0_d_6238_14190" x="252.771" y="137.176" width="206.617" height="82.1758" filterUnits="userSpaceOnUse" color-interpolation-filters="sRGB">
<feFlood flood-opacity="0" result="BackgroundImageFix"/>
<feColorMatrix in="SourceAlpha" type="matrix" values="0 0 0 0 0 0 0 0 0 0 0 0 0 0 0 0 0 0 127 0" result="hardAlpha"/>
<feOffset dy="4"/>
<feGaussianBlur stdDeviation="2"/>
<feComposite in2="hardAlpha" operator="out"/>
<feColorMatrix type="matrix" values="0 0 0 0 0 0 0 0 0 0 0 0 0 0 0 0 0 0 0.25 0"/>
<feBlend mode="normal" in2="BackgroundImageFix" result="effect1_dropShadow_6238_14190"/>
<feBlend mode="normal" in="SourceGraphic" in2="effect1_dropShadow_6238_14190" result="shape"/>
</filter>
<linearGradient id="paint0_linear_6238_14190" x1="174.894" y1="82.3895" x2="195.326" y2="81.562" gradientUnits="userSpaceOnUse">
<stop stop-color="#B83D00"/>
<stop offset="0.25" stop-color="#E4790F"/>
<stop offset="0.56" stop-color="#FEE34D"/>
<stop offset="0.62" stop-color="#FAD444"/>
<stop offset="0.75" stop-color="#F1AF2E"/>
<stop offset="0.91" stop-color="#E4790F"/>
</linearGradient>
<linearGradient id="paint1_linear_6238_14190" x1="205.307" y1="93.1814" x2="165.858" y2="89.9528" gradientUnits="userSpaceOnUse">
<stop offset="0.06" stop-color="#E47B10"/>
<stop offset="0.14" stop-color="#E68417"/>
<stop offset="0.27" stop-color="#ED9D2B"/>
<stop offset="0.44" stop-color="#F8C74C"/>
<stop offset="0.53" stop-color="#FEDE5F"/>
<stop offset="0.61" stop-color="#F7C64C"/>
<stop offset="0.78" stop-color="#ED9D2B"/>
<stop offset="0.92" stop-color="#E68417"/>
<stop offset="1" stop-color="#E47B10"/>
</linearGradient>
<linearGradient id="paint2_linear_6238_14190" x1="185.028" y1="116.376" x2="185.016" y2="85.1608" gradientUnits="userSpaceOnUse">
<stop stop-color="#CF4B0B"/>
<stop offset="0.99" stop-color="#E8B321"/>
</linearGradient>
<linearGradient id="paint3_linear_6238_14190" x1="200.012" y1="109.406" x2="172.388" y2="107.145" gradientUnits="userSpaceOnUse">
<stop offset="0.06" stop-color="#E47B10"/>
<stop offset="0.14" stop-color="#E68417"/>
<stop offset="0.27" stop-color="#ED9D2B"/>
<stop offset="0.44" stop-color="#F8C74C"/>
<stop offset="0.53" stop-color="#FEDE5F"/>
<stop offset="0.61" stop-color="#F7C64C"/>
<stop offset="0.78" stop-color="#ED9D2B"/>
<stop offset="0.92" stop-color="#E68417"/>
<stop offset="1" stop-color="#E47B10"/>
</linearGradient>
<linearGradient id="paint4_linear_6238_14190" x1="538.637" y1="82.8794" x2="518.204" y2="82.0518" gradientUnits="userSpaceOnUse">
<stop offset="0.06" stop-color="#E47B10"/>
<stop offset="0.14" stop-color="#E68417"/>
<stop offset="0.27" stop-color="#ED9D2B"/>
<stop offset="0.44" stop-color="#F8C74C"/>
<stop offset="0.53" stop-color="#FEDE5F"/>
<stop offset="0.61" stop-color="#F7C64C"/>
<stop offset="0.78" stop-color="#ED9D2B"/>
<stop offset="0.92" stop-color="#E68417"/>
<stop offset="1" stop-color="#E47B10"/>
</linearGradient>
<linearGradient id="paint5_linear_6238_14190" x1="508.337" y1="93.1157" x2="547.801" y2="89.886" gradientUnits="userSpaceOnUse">
<stop offset="0.06" stop-color="#E47B10"/>
<stop offset="0.14" stop-color="#E68417"/>
<stop offset="0.27" stop-color="#ED9D2B"/>
<stop offset="0.44" stop-color="#F8C74C"/>
<stop offset="0.53" stop-color="#FEDE5F"/>
<stop offset="0.61" stop-color="#F7C64C"/>
<stop offset="0.78" stop-color="#ED9D2B"/>
<stop offset="0.92" stop-color="#E68417"/>
<stop offset="1" stop-color="#E47B10"/>
</linearGradient>
<linearGradient id="paint6_linear_6238_14190" x1="528.613" y1="116.331" x2="528.625" y2="85.1318" gradientUnits="userSpaceOnUse">
<stop stop-color="#CF4B0B"/>
<stop offset="0.99" stop-color="#E8B321"/>
</linearGradient>
<linearGradient id="paint7_linear_6238_14190" x1="513.65" y1="109.354" x2="541.258" y2="107.095" gradientUnits="userSpaceOnUse">
<stop offset="0.06" stop-color="#E47B10"/>
<stop offset="0.14" stop-color="#E68417"/>
<stop offset="0.27" stop-color="#ED9D2B"/>
<stop offset="0.44" stop-color="#F8C74C"/>
<stop offset="0.53" stop-color="#FEDE5F"/>
<stop offset="0.61" stop-color="#F7C64C"/>
<stop offset="0.78" stop-color="#ED9D2B"/>
<stop offset="0.92" stop-color="#E68417"/>
<stop offset="1" stop-color="#E47B10"/>
</linearGradient>
<linearGradient id="paint8_linear_6238_14190" x1="549.313" y1="185.427" x2="162.737" y2="185.427" gradientUnits="userSpaceOnUse">
<stop stop-color="#8A3D90"/>
<stop offset="0.47" stop-color="#D457D4"/>
<stop offset="1" stop-color="#C14FC1"/>
</linearGradient>
<linearGradient id="paint9_linear_6238_14190" x1="494.586" y1="193.278" x2="550.999" y2="193.278" gradientUnits="userSpaceOnUse">
<stop stop-color="#FFA8A6"/>
<stop offset="1" stop-color="#8E1613"/>
</linearGradient>
<linearGradient id="paint10_linear_6238_14190" x1="163.067" y1="193.599" x2="218.514" y2="193.599" gradientUnits="userSpaceOnUse">
<stop stop-color="#8E1613"/>
<stop offset="1" stop-color="#FFA8A6"/>
</linearGradient>
<linearGradient id="paint11_linear_6238_14190" x1="518.286" y1="252.081" x2="538.138" y2="252.081" gradientUnits="userSpaceOnUse">
<stop stop-color="#38C1C9"/>
<stop offset="0.37" stop-color="#7EFFF5"/>
<stop offset="0.68" stop-color="#4CC8CE"/>
<stop offset="1" stop-color="#399B97"/>
</linearGradient>
<linearGradient id="paint12_linear_6238_14190" x1="512.872" y1="257.366" x2="540.45" y2="255.109" gradientUnits="userSpaceOnUse">
<stop offset="0.09" stop-color="#E4790F"/>
<stop offset="0.58" stop-color="#E4790F"/>
<stop offset="0.6" stop-color="#E2770E"/>
<stop offset="1" stop-color="#B83D00"/>
</linearGradient>
<linearGradient id="paint13_linear_6238_14190" x1="506.498" y1="176.355" x2="550.632" y2="176.355" gradientUnits="userSpaceOnUse">
<stop stop-color="#8A3D90"/>
<stop offset="0.47" stop-color="#D457D4"/>
<stop offset="1" stop-color="#C14FC1"/>
</linearGradient>
<linearGradient id="paint14_linear_6238_14190" x1="195.413" y1="252.079" x2="175.561" y2="252.079" gradientUnits="userSpaceOnUse">
<stop stop-color="#38C1C9"/>
<stop offset="0.37" stop-color="#7EFFF5"/>
<stop offset="0.68" stop-color="#4CC8CE"/>
<stop offset="1" stop-color="#399B97"/>
</linearGradient>
<linearGradient id="paint15_linear_6238_14190" x1="200.771" y1="257.432" x2="173.193" y2="255.175" gradientUnits="userSpaceOnUse">
<stop offset="0.09" stop-color="#E4790F"/>
<stop offset="0.58" stop-color="#E4790F"/>
<stop offset="0.6" stop-color="#E2770E"/>
<stop offset="1" stop-color="#B83D00"/>
</linearGradient>
<linearGradient id="paint16_linear_6238_14190" x1="207.201" y1="176.354" x2="163.067" y2="176.354" gradientUnits="userSpaceOnUse">
<stop stop-color="#8A3D90"/>
<stop offset="0.47" stop-color="#D457D4"/>
<stop offset="1" stop-color="#C14FC1"/>
</linearGradient>
<linearGradient id="paint17_linear_6238_14190" x1="506.24" y1="263.341" x2="545.704" y2="260.112" gradientUnits="userSpaceOnUse">
<stop offset="0.09" stop-color="#E4790F"/>
<stop offset="0.25" stop-color="#F1AF2E"/>
<stop offset="0.38" stop-color="#FAD444"/>
<stop offset="0.44" stop-color="#FEE34D"/>
<stop offset="0.75" stop-color="#E2770E"/>
<stop offset="1" stop-color="#B83D00"/>
</linearGradient>
<linearGradient id="paint18_linear_6238_14190" x1="526.526" y1="286.562" x2="526.522" y2="255.347" gradientUnits="userSpaceOnUse">
<stop stop-color="#CF4B0B"/>
<stop offset="0.99" stop-color="#E8B321"/>
</linearGradient>
<linearGradient id="paint19_linear_6238_14190" x1="536.374" y1="287.735" x2="515.941" y2="286.907" gradientUnits="userSpaceOnUse">
<stop stop-color="#B83D00"/>
<stop offset="0.25" stop-color="#E4790F"/>
<stop offset="0.56" stop-color="#FEE34D"/>
<stop offset="0.62" stop-color="#FAD444"/>
<stop offset="0.75" stop-color="#F1AF2E"/>
<stop offset="0.91" stop-color="#E4790F"/>
</linearGradient>
<linearGradient id="paint20_linear_6238_14190" x1="527.695" y1="307.349" x2="527.614" y2="295.602" gradientUnits="userSpaceOnUse">
<stop stop-color="#CF4B0B"/>
<stop offset="0.99" stop-color="#E8B321"/>
</linearGradient>
<linearGradient id="paint21_linear_6238_14190" x1="207.403" y1="263.392" x2="167.954" y2="260.163" gradientUnits="userSpaceOnUse">
<stop offset="0.09" stop-color="#E4790F"/>
<stop offset="0.25" stop-color="#F1AF2E"/>
<stop offset="0.38" stop-color="#FAD444"/>
<stop offset="0.44" stop-color="#FEE34D"/>
<stop offset="0.75" stop-color="#E2770E"/>
<stop offset="1" stop-color="#B83D00"/>
</linearGradient>
<linearGradient id="paint22_linear_6238_14190" x1="187.113" y1="286.591" x2="187.117" y2="255.391" gradientUnits="userSpaceOnUse">
<stop stop-color="#CF4B0B"/>
<stop offset="0.99" stop-color="#E8B321"/>
</linearGradient>
<linearGradient id="paint23_linear_6238_14190" x1="177.159" y1="287.259" x2="197.606" y2="286.43" gradientUnits="userSpaceOnUse">
<stop stop-color="#B83D00"/>
<stop offset="0.25" stop-color="#E4790F"/>
<stop offset="0.56" stop-color="#FEE34D"/>
<stop offset="0.62" stop-color="#FAD444"/>
<stop offset="0.75" stop-color="#F1AF2E"/>
<stop offset="0.91" stop-color="#E4790F"/>
</linearGradient>
<linearGradient id="paint24_linear_6238_14190" x1="186.033" y1="307.215" x2="186.114" y2="295.468" gradientUnits="userSpaceOnUse">
<stop stop-color="#CF4B0B"/>
<stop offset="0.99" stop-color="#E8B321"/>
</linearGradient>
<radialGradient id="paint25_radial_6238_14190" cx="0" cy="0" r="1" gradientUnits="userSpaceOnUse" gradientTransform="translate(235.005 233.994) scale(118.655 73.8485)">
<stop stop-color="#C700FF"/>
<stop offset="0.06" stop-color="#B600E9"/>
<stop offset="0.26" stop-color="#7F00A3"/>
<stop offset="0.45" stop-color="#520069"/>
<stop offset="0.63" stop-color="#2E003B"/>
<stop offset="0.78" stop-color="#15001B"/>
<stop offset="0.91" stop-color="#050007"/>
<stop offset="1"/>
</radialGradient>
<radialGradient id="paint26_radial_6238_14190" cx="0" cy="0" r="1" gradientUnits="userSpaceOnUse" gradientTransform="translate(266.009 166.989) scale(220.716 138.57)">
<stop stop-color="#C700FF"/>
<stop offset="0.06" stop-color="#B600E9"/>
<stop offset="0.26" stop-color="#7F00A3"/>
<stop offset="0.45" stop-color="#520069"/>
<stop offset="0.63" stop-color="#2E003B"/>
<stop offset="0.78" stop-color="#15001B"/>
<stop offset="0.91" stop-color="#050007"/>
<stop offset="1"/>
</radialGradient>
<radialGradient id="paint27_radial_6238_14190" cx="0" cy="0" r="1" gradientUnits="userSpaceOnUse" gradientTransform="translate(441.009 200.989) scale(220.716 138.57)">
<stop stop-color="#C700FF"/>
<stop offset="0.06" stop-color="#B600E9"/>
<stop offset="0.26" stop-color="#7F00A3"/>
<stop offset="0.45" stop-color="#520069"/>
<stop offset="0.63" stop-color="#2E003B"/>
<stop offset="0.78" stop-color="#15001B"/>
<stop offset="0.91" stop-color="#050007"/>
<stop offset="1"/>
</radialGradient>
</defs>
</svg>
