<svg width="707" height="381" viewBox="0 0 707 381" fill="none" xmlns="http://www.w3.org/2000/svg">
<path d="M544.255 274.894C550.433 268.498 545.665 260.144 545.681 252.371C540.944 200.041 538.874 165.843 547.03 112.916C548.057 109.397 546.876 105.648 545.236 102.695C545.88 96.4215 543.243 90.301 537.801 86.996C535.732 85.6495 533.156 84.6396 530.627 84.104C530.765 77.8153 538.89 69.7669 531.041 65.3754C529.477 64.5798 528.097 61.4736 526.334 61.2747C522.579 61.0452 517.29 65.1918 516.983 69.5986C516.615 74.755 519.758 77.2644 519.528 84.3183C512.752 85.9402 506.099 91.4945 505.931 98.7319C502.144 102.527 504.275 108.249 504.827 112.931C496.993 110.759 491.03 105.556 483.013 103.827C481.556 108.586 479.272 108.402 480.529 103.292C479.747 103.123 478.966 102.955 478.168 102.787C471.469 119.434 467.836 123.994 471.577 105.143C458.715 102.664 445.562 100.706 432.363 99.1757C431.627 104.409 429.911 103.751 429.742 98.8697C411.285 98.8084 340.324 86.3992 333.808 102.159C329.363 105.602 324.764 97.7527 321.376 95.4422C299.071 96.498 276.598 98.686 253.496 102.129C253.281 108.173 251.764 108.953 250.246 102.634C248.146 102.97 246.046 103.322 243.946 103.69C244.451 113.681 242.918 115.762 240.696 104.271C227.65 106.658 214.88 109.55 202.601 113.008C203.169 108.081 205.483 102.71 201.528 98.686C201.36 91.4639 194.707 85.9096 187.946 84.303C187.716 77.2491 190.859 74.7397 190.491 69.5833C190.184 65.2071 186.29 61.0758 182.535 61.3053L181.538 61.5501C179.775 61.7338 176.081 63.7841 176.081 63.7841C168.217 68.3439 176.679 77.5704 176.863 84.1193C167.772 85.7872 161.058 93.5602 162.253 102.833C160.567 105.847 159.525 109.657 160.567 113.222C169.305 170.02 166.408 211.853 160 268.039C161.104 270.809 162.529 273.44 164.461 275.69C165.319 282.223 171.283 287.517 179.101 289.109C179.285 292.337 179.07 295.551 178.273 298.672C170.777 313.759 193.557 315.656 197.221 303.783C198.033 297.509 190.46 296.805 190.154 288.818C196.025 287.303 201.697 283.157 203.291 277.082C207.369 275.674 211.37 274.175 215.448 272.706C225.136 269.202 237.706 265.591 246.69 264.964C247.088 259.363 249.725 249.953 253.757 259.7C256.976 260.542 260.471 258.751 263.66 259.731C267.875 257.619 273.118 259.195 277.671 258.705C324.319 257.757 373.145 252.631 422.399 260.236C425.572 234.713 432.241 231.286 426.507 260.725C428.454 260.97 430.723 261.23 432.655 261.49C433.145 243.389 436.686 250.856 435.521 261.873C445.348 263.204 454.729 264.55 463.789 266.203C464.525 265.132 465.506 264.03 466.87 263.893C467.192 263.541 467.76 263.525 468.02 263.862C469.737 264.03 470.074 266.524 471.301 267.626C482.522 268.85 492.808 273.609 504.183 277.051C505.762 283.126 511.449 287.288 517.336 288.818C517.029 296.805 514.546 298.947 513.258 305.343C515.374 315.886 540.285 314.05 532.788 299.024C532.788 299.024 528.205 292.337 528.389 289.109C535.916 287.594 541.68 282.636 542.891 276.439C543.366 275.965 543.826 275.46 544.27 274.909L544.255 274.894Z" fill="#3EEDFF"/>
<path d="M184.543 60.9995C191.84 60.8159 193.511 64.3658 193.603 66.9058C193.787 72.0163 190.583 74.541 191.058 82.0539C191.549 89.5668 193.235 91.1734 194.86 96.8807C195.764 100.063 193.695 103.95 186.597 104.654C179.867 104.684 177.062 101.196 177.66 97.9212C178.733 92.0455 180.266 90.2553 180.036 82.7271C179.806 75.199 176.387 73.0721 176.096 67.9615C175.943 65.4063 177.277 61.6881 184.543 60.9995Z" fill="url(#paint0_linear_288_8357)"/>
<path d="M185.877 84.6703C186.03 84.2418 186.428 73.9442 186.444 70.3178C186.444 68.2981 186.29 66.0794 185.018 66.3089C183.838 66.9056 183.684 69.0478 183.93 70.9911C184.39 74.4797 185.677 84.349 185.861 84.6856L185.877 84.6703Z" fill="#FFF5CC"/>
<g style="mix-blend-mode:multiply" opacity="0.15">
<path d="M180.036 82.7272C179.806 75.199 176.387 73.0874 176.096 67.9616C175.989 66.1713 176.633 63.8149 179.515 62.3154C175.912 64.5953 177.215 69.3081 179.898 74.1279C182.044 77.9838 182.228 81.855 179.668 89.3679C179.975 87.6235 180.143 85.5885 180.051 82.7119L180.036 82.7272Z" fill="#CC0631"/>
</g>
<path d="M179.269 62.499C179.269 62.499 179.3 62.4531 179.315 62.4378C180.572 61.7493 182.259 61.229 184.558 61.0148C191.518 60.8312 193.357 64.0597 193.587 66.5691C192.3 62.7132 186.842 59.959 179.285 62.5143L179.269 62.499Z" fill="#FFF5CC"/>
<path d="M165.304 96.2381C165.243 97.6458 165.335 100.813 165.335 100.813L204.671 100.584C204.671 100.584 204.671 97.9365 204.64 96.0086C204.594 87.3941 195.749 80.4626 184.88 80.5238C174.011 80.585 165.687 87.3482 165.304 96.2381Z" fill="url(#paint1_linear_288_8357)"/>
<path d="M165.335 100.813C165.381 109.428 174.226 116.359 185.095 116.298C195.964 116.237 204.717 109.198 204.671 100.584C204.625 91.9693 195.78 85.0378 184.911 85.099C174.042 85.1602 165.289 92.1988 165.335 100.813Z" fill="url(#paint2_linear_288_8357)"/>
<path d="M173.276 83.63C176.495 81.7021 180.481 80.5545 184.895 80.5239C192.714 80.478 199.459 84.0737 202.663 89.2914C195.948 80.5698 182.811 78.7489 173.276 83.63Z" fill="#FFF5CC"/>
<g style="mix-blend-mode:multiply" opacity="0.35">
<path d="M165.304 96.238C165.519 91.158 168.339 86.7819 172.739 83.9512C170.961 85.2977 170.761 88.4038 171.727 89.2301C171.727 89.2301 171.727 89.2607 171.712 89.2607C175.192 86.7207 179.806 85.1447 184.911 85.1141C195.764 85.0529 204.61 91.9843 204.671 100.599C204.717 109.213 195.948 116.252 185.095 116.313C174.226 116.374 165.381 109.443 165.335 100.828C165.335 100.828 165.243 97.6457 165.304 96.2533V96.238Z" fill="#CC0631"/>
</g>
<path d="M185.171 91.7702C191.748 91.7396 197.144 96.0086 197.634 101.471H197.665L198.861 122.893L172.31 123.444L172.785 102.527C172.785 102.527 172.785 102.42 172.785 102.374C172.754 96.5441 178.304 91.8008 185.187 91.7549L185.171 91.7702Z" fill="url(#paint3_linear_288_8357)"/>
<path d="M529.078 60.9995C521.797 60.8159 520.111 64.3658 520.019 66.9058C519.835 72.0163 523.039 74.541 522.563 82.0539C522.073 89.5668 520.387 91.1734 518.762 96.8807C517.857 100.063 519.927 103.95 527.024 104.654C533.754 104.684 536.559 101.196 535.962 97.9212C534.888 92.0455 533.355 90.2553 533.585 82.7271C533.815 75.199 537.234 73.0721 537.525 67.9615C537.678 65.4063 536.345 61.6881 529.078 60.9995Z" fill="url(#paint4_linear_288_8357)"/>
<path d="M527.76 84.6703C527.607 84.2418 527.208 73.9442 527.193 70.3178C527.193 68.2981 527.346 66.0794 528.619 66.3089C529.799 66.9056 529.952 69.0478 529.707 70.9911C529.247 74.4797 527.959 84.349 527.775 84.6856L527.76 84.6703Z" fill="#FFF5CC"/>
<g style="mix-blend-mode:multiply" opacity="0.25">
<path d="M533.585 82.7272C533.815 75.199 537.234 73.0874 537.525 67.9616C537.632 66.1713 536.989 63.8149 534.107 62.3154C537.709 64.5953 536.406 69.3081 533.723 74.1279C531.577 77.9838 531.393 81.855 533.953 89.3679C533.647 87.6235 533.478 85.5885 533.57 82.7119L533.585 82.7272Z" fill="#CC0631"/>
</g>
<path d="M534.367 62.499C534.367 62.499 534.337 62.4531 534.321 62.4378C533.064 61.7493 531.378 61.229 529.078 61.0148C522.119 60.8312 520.279 64.0597 520.049 66.5691C521.337 62.7132 526.794 59.959 534.352 62.5143L534.367 62.499Z" fill="#FFF5CC"/>
<path d="M548.317 96.2381C548.379 97.6458 548.287 100.813 548.287 100.813L508.951 100.584C508.951 100.584 508.95 97.9365 508.981 96.0086C509.027 87.3941 517.872 80.4626 528.741 80.5238C539.61 80.585 547.934 87.3482 548.317 96.2381Z" fill="url(#paint5_linear_288_8357)"/>
<path d="M548.287 100.813C548.241 109.428 539.395 116.359 528.527 116.298C517.658 116.237 508.905 109.198 508.951 100.584C508.997 91.9693 517.842 85.0378 528.711 85.099C539.579 85.1602 548.333 92.1988 548.287 100.813Z" fill="url(#paint6_linear_288_8357)"/>
<path d="M540.361 83.63C537.142 81.7021 533.156 80.5545 528.741 80.5239C520.923 80.478 514.178 84.0737 510.974 89.2914C517.688 80.5698 530.826 78.7489 540.361 83.63Z" fill="#FFF5CC"/>
<g style="mix-blend-mode:multiply" opacity="0.35">
<path d="M548.317 96.238C548.103 91.158 545.282 86.7819 540.882 83.9512C542.661 85.2977 542.86 88.4038 541.894 89.2301C541.894 89.2301 541.894 89.2607 541.909 89.2607C538.43 86.7207 533.815 85.1447 528.711 85.1141C517.857 85.0529 509.012 91.9843 508.951 100.599C508.905 109.213 517.673 116.252 528.527 116.313C539.395 116.374 548.241 109.443 548.287 100.828C548.287 100.828 548.379 97.6457 548.317 96.2533V96.238Z" fill="#CC0631"/>
</g>
<path d="M528.45 91.7702C521.874 91.7396 516.477 96.0086 515.987 101.471H515.956L514.761 122.893L541.312 123.444L540.836 102.527C540.836 102.527 540.836 102.42 540.836 102.374C540.867 96.5441 535.318 91.8008 528.435 91.7549L528.45 91.7702Z" fill="url(#paint7_linear_288_8357)"/>
<path d="M543.12 121.959C525.139 114.416 505.164 108.556 484.254 104.072C482.798 108.831 480.514 108.647 481.771 103.537C480.989 103.369 480.207 103.2 479.41 103.032C472.711 119.68 470.917 120.95 474.658 102.083C461.796 99.6045 448.643 97.6459 435.445 96.1158C434.709 101.349 432.992 100.691 432.823 95.8098C405.965 93.0097 379.966 91.5867 354.044 91.6479C350.702 92.5354 347.007 91.8774 343.619 92.7955C341.765 93.3004 339.94 94.5551 338.791 96.1464C338.101 97.0951 337.488 98.0897 336.874 99.0995C336.445 99.8187 335.909 100.064 335.035 100.048C332.582 100.018 330.359 97.8755 328.658 96.3453C327.247 95.0753 325.914 93.6217 324.442 92.3823C302.122 93.4381 279.664 95.6262 256.562 99.0689C256.347 105.113 254.83 105.893 253.312 99.5739C251.212 99.9105 249.112 100.262 247.012 100.63C247.517 110.621 245.984 112.702 243.762 101.211C217.824 105.954 192.928 112.702 170.915 121.929C181.768 175.789 168.125 241.875 164.062 259.716C163.388 262.669 163.051 264.918 163.051 264.918C175.912 297.402 216.214 264.352 246.981 262.21C247.962 258.782 247.931 255.018 251.396 252.907C254.033 251.224 255.52 253.932 256.792 256.594C258.447 257.145 260.532 256.655 262.173 256.472C263.706 256.304 265.269 256.258 266.695 256.625C267.952 255.814 269.562 255.477 271.079 255.615C274.314 255.63 277.518 255.615 280.706 255.6C280.936 255.401 281.166 255.217 281.411 255.049C282.469 254.314 283.803 253.993 285.075 254.192C285.719 254.299 286.286 254.575 286.807 254.911C287.344 255.049 287.865 255.248 288.371 255.477C333.839 254.513 376.011 249.495 423.012 257.038C426.584 234.086 430.064 234.132 427.12 257.528C429.067 257.772 431.014 258.017 432.946 258.277C433.283 248.148 435.49 249.709 435.812 258.66C445.639 259.991 455.22 261.506 464.295 263.158C465.031 262.087 466.012 260.986 467.376 260.848C467.698 260.496 468.265 260.481 468.526 260.817C470.243 260.986 470.596 263.48 471.807 264.581C500.887 267.718 540.545 294.434 550.954 264.933C550.954 264.933 530.443 184.709 543.075 121.929L543.12 121.959Z" fill="url(#paint8_linear_288_8357)"/>
<path style="mix-blend-mode:multiply" opacity="0.35" d="M543.121 121.959C529.799 116.374 515.374 111.707 500.305 107.852C500.243 107.913 500.182 107.959 500.136 108.02C508.782 128.064 508.767 152.148 508.767 185.796C508.767 219.443 504.214 253.549 494.587 269.646L494.955 270.12C518.884 277.572 543.182 287.104 551 264.964C551 264.964 530.489 184.74 543.121 121.959Z" fill="url(#paint9_linear_288_8357)"/>
<g style="mix-blend-mode:multiply" opacity="0.35">
<path d="M543.121 121.959C525.139 114.416 505.164 108.556 484.254 104.072C482.798 108.831 480.514 108.647 481.771 103.537C480.989 103.369 480.207 103.2 479.41 103.032C472.711 119.68 470.917 120.95 474.658 102.083C461.796 99.6045 448.643 97.6459 435.445 96.1158C434.709 101.349 432.992 100.691 432.823 95.8098C405.965 93.0097 379.966 91.5867 354.044 91.6479C350.702 92.5354 347.007 91.8774 343.619 92.7955C341.765 93.3004 339.94 94.5551 338.791 96.1464C338.101 97.0951 337.488 98.0897 336.874 99.0995C336.445 99.8187 335.909 100.064 335.035 100.048C332.582 100.018 330.359 97.8755 328.658 96.3453C327.247 95.0753 325.914 93.6217 324.442 92.3823C302.122 93.4381 279.664 95.6262 256.562 99.0689C256.347 105.113 254.83 105.893 253.312 99.5739C251.212 99.9105 249.112 100.262 247.012 100.63C247.517 110.621 245.984 112.702 243.762 101.211C217.824 105.954 192.928 112.702 170.915 121.929C183.577 184.725 163.066 264.964 163.066 264.964C175.928 297.448 216.229 264.398 246.996 262.256C247.977 258.828 247.947 255.064 251.411 252.953C254.048 251.269 255.535 253.978 256.807 256.64C258.463 257.191 260.548 256.701 262.188 256.518C263.721 256.349 265.285 256.304 266.71 256.671C267.967 255.86 269.577 255.523 271.095 255.661C274.329 255.676 277.533 255.661 280.722 255.646C280.952 255.447 281.181 255.263 281.427 255.095C282.485 254.36 283.818 254.039 285.091 254.238C285.734 254.345 286.302 254.62 286.823 254.957C287.359 255.095 287.881 255.294 288.386 255.523C333.854 254.559 376.027 249.54 423.027 257.084C426.599 234.132 430.079 234.178 427.136 257.574C429.083 257.818 431.03 258.063 432.961 258.323C433.298 248.194 435.506 249.755 435.828 258.706C445.654 260.037 455.235 261.552 464.31 263.204C465.046 262.133 466.027 261.032 467.392 260.894C467.714 260.542 468.281 260.527 468.541 260.863C470.258 261.032 470.611 263.526 471.822 264.627C500.902 267.764 540.56 294.48 550.969 264.979C550.969 264.979 530.458 184.755 543.09 121.975L543.121 121.959ZM503.202 267.121C501.976 266.647 500.657 266.188 499.293 265.76C499.216 265.193 499.032 264.643 498.756 264.184C498.097 263.051 497.131 262.194 496.656 260.955C495.66 258.308 496.533 255.217 494.924 252.754C493.468 250.535 490.509 249.403 488.347 251.392C487.504 252.172 487.029 253.259 486.309 254.131C485.435 255.171 483.856 254.865 482.844 255.844C481.955 256.701 481.679 257.925 481.495 259.104C481.372 259.884 481.158 260.863 480.652 261.521C478.383 261.123 476.222 260.756 474.259 260.45C474.367 258.124 473.432 256.304 471.515 255.6C471.454 255.171 471.393 254.743 471.347 254.314C471.117 252.371 470.964 250.413 470.902 248.454C470.902 248.148 470.902 247.827 470.902 247.521C470.918 247.031 470.933 246.541 470.964 246.067C471.025 245.057 471.04 244.063 471.071 243.068C471.071 242.946 471.101 242.808 471.117 242.686C471.439 239.855 471.684 237.024 471.791 234.178C471.853 232.648 471.868 231.118 471.807 229.588C471.745 228.226 471.423 226.956 471.239 225.609C471.209 225.426 470.902 225.472 470.918 225.655C470.933 226.864 470.917 228.073 470.871 229.297C470.856 229.312 470.841 229.312 470.826 229.343C469.906 231.409 469.875 233.688 469.538 235.876C469.201 238.08 469.078 240.314 468.909 242.533C468.725 244.889 468.511 247.23 468.066 249.54C467.852 250.611 467.637 251.683 467.392 252.738C467.254 253.35 467.024 253.932 466.886 254.529C466.778 255.003 466.732 255.447 466.625 255.89C465.475 256.472 464.54 257.482 463.82 259.012H463.805V258.981C463.805 258.339 463.805 257.696 463.82 257.053C463.85 255.6 463.973 254.161 464.065 252.708C464.264 249.816 464.372 246.878 465.031 244.047C465.108 243.711 464.586 243.558 464.51 243.91C463.774 246.771 462.823 249.556 462.348 252.478C462.118 253.886 461.98 255.309 461.873 256.732C461.827 257.39 461.781 258.048 461.75 258.706C455.189 257.803 444.198 257.053 438.495 256.227C438.633 251.422 435.184 242.272 431.198 249.954C431.137 244.583 431.489 234.453 428.684 233.933C425.097 233.275 421.893 241.186 419.793 252.08C415.945 251.56 411.867 251.009 407.652 250.474C407.468 250.198 407.207 249.969 406.855 249.846C406.502 249.724 406.134 249.602 405.781 249.479C405.659 249.342 405.552 249.173 405.506 248.99C405.322 248.393 405.03 247.811 404.524 247.444C404.141 247.169 403.743 246.893 403.344 246.633C401.596 245.516 399.634 244.766 397.641 244.216C395.909 243.741 394.054 243.145 392.506 244.323C391.739 244.904 391.172 245.746 390.574 246.48C390.069 247.108 389.639 247.765 389.21 248.423C382.036 247.781 374.677 247.352 367.381 247.352C362.536 247.352 357.784 247.444 353.063 247.582C352.357 247.597 351.729 247.23 351.376 246.679C351.361 246.48 351.346 246.281 351.33 246.082C351.238 244.613 351.177 243.16 351.1 241.691C351.039 240.329 350.947 239.013 350.717 237.667C350.457 236.152 350.441 234.591 350.349 233.061C350.349 232.801 349.935 232.786 349.935 233.061C349.935 234.469 350.012 235.892 349.889 237.284C349.767 238.723 349.69 240.115 349.705 241.553C349.613 241.584 349.537 241.63 349.506 241.706C349.337 242.043 349.414 242.395 349.353 242.762C349.291 243.145 349.276 243.542 349.291 243.94C349.307 244.552 349.353 245.149 349.383 245.746V245.776C349.429 246.817 348.602 247.689 347.559 247.72C347.544 247.72 347.529 247.72 347.513 247.72C346.593 247.75 345.781 247.337 345.244 246.679C345.29 245.302 345.26 243.925 345.29 242.624C345.352 239.35 345.52 236.06 345.336 232.801C344.999 226.436 345.812 219.856 344.723 213.552C344.677 213.277 344.263 213.369 344.248 213.613C343.757 220.147 344.187 226.65 343.298 233.168C342.899 236.091 342.73 239.029 342.485 241.966C342.347 243.573 342.086 245.379 342.025 247.153C341.489 247.643 340.783 247.964 340.002 247.995C334.314 248.225 328.627 248.485 322.894 248.745C312.638 249.188 300.604 249.464 289.981 249.709C289.981 249.709 289.95 249.693 289.935 249.693C287.804 246.526 286.486 242.686 285.719 238.814C285.704 238.554 285.673 238.294 285.658 238.034C285.275 232.908 285.229 227.721 284.201 222.672C284.109 222.197 283.466 222.366 283.42 222.779C283.128 225.747 283.174 228.67 283.297 231.638C283.42 234.576 283.42 237.529 283.665 240.467C283.696 240.849 283.757 241.247 283.803 241.63C283.757 242.272 283.711 242.915 283.619 243.558C283.404 245.057 283.082 246.495 282.699 247.934C281.565 249.143 280.108 250.749 279.02 252.08C277.87 252.08 259.521 252.754 259.521 252.754C258.08 249.357 255.397 243.879 251.948 245.333C247.809 247.077 245.724 256.059 244.789 259.012C243.608 259.211 242.382 259.394 241.11 259.593C240.91 259.364 240.665 259.195 240.282 259.119C238.994 258.889 237.875 258.323 237.017 257.313C236.035 256.181 235.851 254.62 234.886 253.458C233.951 252.341 232.464 251.79 231.084 252.402C229.904 252.922 229.536 254.054 229.137 255.187C228.693 256.457 227.742 256.472 226.546 256.61C225.381 256.747 224.216 256.977 223.358 257.849C222.622 258.599 222.269 259.609 222.039 260.618C221.947 260.863 221.886 261.123 221.871 261.399C221.763 261.996 221.641 262.699 221.38 263.311C218.023 264.184 214.696 265.239 211.539 266.571C200.93 271.008 195.473 275.399 182.519 275.399C173.138 275.399 167.082 266.372 164.17 260.68C167.588 246.281 189.464 183.592 180.128 126.932C188.989 123.49 199.535 118.807 210.649 114.508C210.787 114.661 210.925 114.814 211.063 114.967C211.125 115.135 211.171 115.288 211.232 115.456C211.523 116.298 211.983 117.078 212.52 117.798C213.547 119.175 215.034 119.863 216.659 120.307C217.364 120.491 218.268 120.858 218.958 120.475C219.801 120.001 219.786 118.93 219.863 118.088C219.955 116.925 219.955 115.747 219.863 114.584C219.832 114.156 219.955 113.712 220.276 113.437C220.721 113.054 221.304 112.886 221.794 112.549C222.53 112.029 222.975 111.34 223.005 110.422C223.005 110.3 222.975 110.178 222.929 110.055C229.214 107.959 235.545 106.138 241.723 104.899C243.164 108.556 249.204 121.592 249.204 121.592C249.204 121.592 251.258 104.378 251.687 103.399C252.101 103.46 258.049 115.059 258.049 115.059C258.049 115.059 258.754 106.291 260.532 101.64C280.154 98.8853 302.597 97.1869 321.928 96.1617C322.357 96.5749 330.85 101.349 335.878 104.164C339.281 123.199 339.097 125.341 339.419 129.977C340.538 125.616 340.645 106.169 342.776 99.4209C343.635 97.6306 344.34 96.177 344.386 96.1617C345.168 95.9475 359.102 96.5902 361.187 96.1617C361.187 96.1617 366.43 96.2841 374.248 96.5443C374.248 97.2634 374.172 97.9826 374.126 98.7017C374.018 100.262 373.911 101.823 373.834 103.384C373.758 104.945 373.681 106.505 373.666 108.066C373.666 109.703 373.88 111.31 373.85 112.947C373.85 113.131 374.141 113.131 374.141 112.947C374.187 111.371 374.509 109.826 374.631 108.265C374.754 106.704 374.846 105.144 374.969 103.583C375.076 102.083 375.199 100.584 375.321 99.0995C375.398 98.2886 375.413 97.447 375.567 96.6514C375.567 96.6361 375.567 96.6208 375.567 96.6055C380.809 96.7891 387.049 97.0186 393.594 97.3246C393.472 98.0744 393.901 98.9465 394.821 98.87C395.572 98.8088 396.323 98.7935 397.074 98.7782C397.105 98.7782 397.12 98.8088 397.151 98.8088C398.209 99.2526 399.328 99.5892 400.493 99.5892C401.275 99.5892 401.995 99.3444 402.716 99.1455C404.325 99.3291 405.919 99.5739 407.529 99.8034C408.464 100.247 409.384 100.752 410.258 101.226C411.637 101.991 412.894 103.078 414.519 103.246C416.313 103.43 418.137 102.711 419.839 102.252C421.77 101.731 423.687 101.226 425.618 100.706C426.231 100.538 426.584 100.048 426.691 99.4974C427.918 99.6198 429.098 99.7422 430.202 99.8799C431.781 102.787 434.034 107.546 435.215 110.116C435.276 111.142 435.322 112.167 435.368 113.192C435.414 114.416 435.215 115.824 435.69 116.987C435.736 117.078 435.812 117.17 435.889 117.231C435.889 117.231 435.889 117.262 435.889 117.277C435.889 118.012 435.843 118.777 435.889 119.511C435.935 120.215 436.226 120.797 436.349 121.47C436.38 121.638 436.656 121.638 436.686 121.47C436.809 120.797 437.1 120.2 437.161 119.511C437.223 118.869 437.223 118.226 437.253 117.599C437.269 117.293 437.299 116.987 437.33 116.681C437.453 115.64 437.637 114.615 437.698 113.574C437.729 113.024 437.744 112.473 437.759 111.922C437.867 111.019 437.959 110.132 438.081 109.244C438.25 107.898 438.572 106.536 438.403 105.205C438.372 105.006 438.25 104.837 438.097 104.715C438.618 103.139 439.17 101.624 439.691 100.553C448.214 101.64 464.08 103.139 472.067 104.531C470.979 111.463 468.311 122.74 470.734 123.199C474.842 123.995 476.896 113.697 479.625 107.974C479.793 108.326 480.039 108.663 480.299 108.969C480.33 109.198 480.361 109.443 480.391 109.673C480.499 110.499 480.606 111.325 480.713 112.151C480.805 112.978 480.836 113.804 480.836 114.63C480.836 115.059 480.805 115.487 480.851 115.916C480.897 116.359 481.02 116.742 480.989 117.201C480.974 117.476 481.434 117.553 481.48 117.262C481.556 116.818 481.756 116.466 481.878 116.053C482.001 115.655 482.032 115.227 482.062 114.814C482.108 114.339 482.124 113.88 482.154 113.406C482.231 113.161 482.323 112.901 482.399 112.656C482.583 112.06 482.737 111.34 483.074 110.805C483.258 110.514 483.457 110.254 483.626 109.963C483.641 109.917 483.672 109.887 483.687 109.856C484.561 109.413 485.481 108.449 486.355 106.658C511.695 113.284 520.341 121.653 534.03 126.963C524.648 183.837 546.294 246.725 549.651 260.802C547.474 265.362 543.412 282.943 503.202 267.137V267.121Z" fill="#771D62"/>
</g>
<g style="mix-blend-mode:multiply" opacity="0.35">
<path d="M408.617 242.471C408.526 242.364 408.449 242.242 408.357 242.134C408.204 241.966 408.02 241.859 407.82 241.782C407.682 241.706 407.544 241.675 407.391 241.675C407.161 241.629 406.947 241.629 406.717 241.706C406.579 241.767 406.441 241.813 406.318 241.874C406.257 241.905 406.195 241.951 406.134 242.012C406.057 242.027 405.981 242.012 405.904 242.058C405.797 242.089 405.69 242.15 405.613 242.226C405.46 242.318 405.352 242.44 405.26 242.609C405.214 242.716 405.168 242.823 405.122 242.93C405.061 243.16 405.061 243.404 405.122 243.649C405.122 243.665 405.122 243.695 405.138 243.71C405.153 243.756 405.23 243.986 405.306 244.093C405.368 244.169 405.46 244.292 405.521 244.368C405.521 244.368 405.521 244.384 405.536 244.399C405.536 244.399 405.552 244.399 405.567 244.414C405.613 244.46 405.69 244.506 405.72 244.537C405.751 244.567 405.827 244.613 405.873 244.659C405.889 244.659 405.904 244.69 405.935 244.69C406.027 244.736 406.119 244.766 406.211 244.797C406.287 244.843 406.349 244.904 406.425 244.935C406.548 245.011 406.686 245.042 406.839 245.042C407.054 245.088 407.284 245.088 407.498 245.011C407.498 245.011 407.514 245.011 407.529 245.011C407.667 244.95 407.79 244.904 407.928 244.843C407.943 244.843 407.958 244.843 407.974 244.812C407.974 244.812 407.974 244.812 407.989 244.812C408.342 244.552 408.28 244.628 408.48 244.368C408.633 244.2 408.725 244.016 408.786 243.787C408.863 243.481 408.863 243.19 408.786 242.884C408.74 242.746 408.663 242.609 408.617 242.471Z" fill="#771D62"/>
</g>
<g style="mix-blend-mode:multiply" opacity="0.35">
<path d="M453.273 106.78C453.196 106.719 453.104 106.658 453.028 106.582C452.89 106.49 452.736 106.444 452.568 106.429C452.399 106.398 452.231 106.398 452.077 106.444C452.031 106.444 451.985 106.49 451.939 106.505C451.893 106.505 451.847 106.505 451.801 106.52C451.786 106.52 451.755 106.52 451.74 106.536C451.648 106.566 451.556 106.612 451.464 106.658C451.403 106.704 451.341 106.75 451.28 106.796C451.188 106.872 451.127 106.979 451.096 107.087C451.066 107.148 451.05 107.224 451.035 107.301C451.035 107.301 451.035 107.331 451.02 107.331C450.989 107.423 450.974 107.53 450.974 107.622C450.974 107.729 450.989 107.836 451.05 107.928C451.081 108.035 451.142 108.112 451.219 108.188C451.28 108.234 451.326 108.265 451.387 108.311C451.387 108.311 451.418 108.311 451.433 108.311C451.464 108.372 451.495 108.433 451.541 108.479C451.648 108.601 451.786 108.693 451.939 108.739C452.093 108.816 452.246 108.846 452.415 108.846C452.583 108.846 452.752 108.816 452.89 108.739C453.043 108.693 453.181 108.601 453.288 108.479C453.35 108.387 453.411 108.311 453.488 108.234C453.595 108.035 453.656 107.836 453.656 107.607C453.656 107.5 453.626 107.393 453.61 107.27C453.549 107.056 453.442 106.872 453.288 106.719L453.273 106.78Z" fill="#771D62"/>
</g>
<g style="mix-blend-mode:multiply" opacity="0.35">
<path d="M485.527 124.775C485.358 124.622 485.174 124.53 484.944 124.469C484.714 124.392 484.484 124.392 484.27 124.438C484.04 124.438 483.825 124.515 483.641 124.637C483.611 124.652 483.58 124.683 483.565 124.698C483.565 124.698 483.565 124.698 483.534 124.698C483.304 124.698 483.089 124.759 482.89 124.867C482.737 124.943 482.614 125.05 482.537 125.203C482.43 125.326 482.353 125.479 482.307 125.632C482.231 125.846 482.216 126.075 482.185 126.305C482.185 126.366 482.185 126.412 482.185 126.473C482.185 126.596 482.216 126.764 482.246 126.871C482.246 126.871 482.246 126.902 482.246 126.917C482.246 126.947 482.261 126.978 482.277 127.009C482.338 127.177 482.399 127.345 482.476 127.498C482.507 127.544 482.522 127.605 482.568 127.651C482.629 127.758 482.706 127.85 482.783 127.942C482.844 128.064 482.921 128.187 483.059 128.325C483.166 128.416 483.304 128.508 483.411 128.6C483.427 128.615 483.457 128.631 483.473 128.646C483.656 128.768 483.886 128.86 484.101 128.937C484.239 128.952 484.392 128.983 484.53 128.998C484.76 128.998 484.96 128.967 485.159 128.86C485.297 128.814 485.419 128.753 485.511 128.646C485.695 128.539 485.833 128.386 485.925 128.187C486.063 127.988 486.155 127.743 486.232 127.498C486.324 127.253 486.339 126.993 486.339 126.733C486.339 126.198 486.201 125.708 485.956 125.249C485.849 125.05 485.695 124.897 485.511 124.775H485.527Z" fill="#771D62"/>
</g>
<g style="mix-blend-mode:multiply" opacity="0.35">
<path d="M485.174 245.792C485.174 245.792 484.898 245.669 484.837 245.654C484.806 245.654 484.5 245.608 484.469 245.608C484.392 245.608 484.316 245.623 484.254 245.639C484.193 245.639 484.101 245.639 484.04 245.669C483.978 245.684 483.917 245.715 483.871 245.73C483.825 245.746 483.764 245.776 483.703 245.807C483.626 245.868 483.549 245.929 483.473 245.99C483.365 246.098 483.273 246.22 483.227 246.358C483.181 246.449 483.151 246.541 483.151 246.648C483.151 246.648 483.151 246.679 483.151 246.694C483.151 246.786 483.12 246.893 483.105 247C483.105 247.046 483.135 247.092 483.135 247.138C483.135 247.138 483.135 247.138 483.12 247.153C483.059 247.245 483.028 247.337 483.013 247.429L482.967 247.536C482.967 247.536 482.951 247.674 482.936 247.735C482.936 247.781 482.951 247.888 482.967 247.949C482.967 247.949 482.967 247.949 482.967 247.964C482.967 247.964 482.967 247.98 482.967 247.995C482.982 248.071 483.028 248.148 483.059 248.209C483.059 248.209 483.059 248.224 483.059 248.24C483.105 248.301 483.151 248.362 483.197 248.423C483.212 248.439 483.227 248.454 483.243 248.485C483.304 248.546 483.381 248.592 483.457 248.638C483.503 248.668 483.549 248.683 483.611 248.699C483.657 248.729 483.703 248.775 483.764 248.791C483.84 248.836 483.932 248.867 484.024 248.867C484.162 248.898 484.3 248.898 484.454 248.852C484.561 248.821 484.668 248.775 484.776 248.714C484.806 248.714 484.822 248.683 484.852 248.668C484.898 248.638 484.929 248.592 484.975 248.561C485.036 248.53 485.113 248.5 485.159 248.454C485.205 248.423 485.251 248.393 485.281 248.362C485.358 248.27 485.45 248.163 485.511 248.056C485.603 247.918 485.649 247.765 485.711 247.612C485.665 247.719 485.619 247.811 485.588 247.918C485.649 247.796 485.695 247.674 485.741 247.551C485.741 247.521 485.757 247.505 485.757 247.475C485.757 247.475 485.757 247.459 485.757 247.444C485.772 247.322 485.803 247.184 485.803 247.062C485.803 247.031 485.803 247.016 485.803 246.985C485.803 246.74 485.741 246.511 485.619 246.281C485.496 246.067 485.327 245.914 485.128 245.792H485.174Z" fill="#771D62"/>
</g>
<g style="mix-blend-mode:multiply" opacity="0.35">
<path d="M481.955 239.043C481.786 238.967 481.633 238.89 481.434 238.906L481.158 238.936C481.066 238.967 480.989 238.998 480.912 239.043C480.759 239.135 480.637 239.258 480.545 239.411C480.453 239.579 480.407 239.747 480.407 239.931C480.407 240.099 480.422 240.283 480.437 240.451C480.437 240.589 480.468 240.711 480.529 240.834C480.575 240.956 480.637 241.063 480.744 241.155C480.836 241.247 480.943 241.323 481.066 241.369C481.188 241.43 481.311 241.461 481.449 241.461C481.541 241.461 481.633 241.43 481.71 241.43C481.878 241.385 482.032 241.293 482.154 241.17C482.2 241.109 482.262 241.033 482.308 240.971C482.399 240.818 482.445 240.65 482.445 240.467C482.445 240.298 482.461 240.115 482.476 239.946C482.476 239.763 482.43 239.579 482.338 239.426C482.246 239.273 482.124 239.151 481.97 239.059L481.955 239.043Z" fill="#771D62"/>
</g>
<g style="mix-blend-mode:multiply" opacity="0.35">
<path d="M452.736 251.56C452.736 251.56 452.721 251.53 452.706 251.514C452.706 251.514 452.706 251.499 452.706 251.484C452.675 251.453 452.66 251.423 452.629 251.392C452.614 251.361 452.583 251.331 452.552 251.3C452.491 251.239 452.445 251.193 452.384 251.132C452.292 251.04 452.2 250.979 452.077 250.933C451.97 250.872 451.847 250.841 451.725 250.856C451.602 250.856 451.479 250.872 451.372 250.933C451.249 250.964 451.157 251.04 451.066 251.132C451.02 251.193 450.974 251.254 450.912 251.315C450.82 251.453 450.79 251.621 450.79 251.79C450.79 251.866 450.805 251.958 450.82 252.035C450.866 252.188 450.943 252.325 451.066 252.448L451.249 252.631C451.249 252.631 451.372 252.723 451.433 252.784C451.433 252.784 451.449 252.784 451.464 252.784C451.479 252.784 451.495 252.8 451.51 252.815C451.541 252.83 451.587 252.846 451.617 252.861L451.817 252.953C451.924 252.983 452.047 252.999 452.154 252.968C452.231 252.968 452.307 252.953 452.369 252.907C452.476 252.876 452.568 252.815 452.644 252.723C452.69 252.662 452.736 252.601 452.782 252.555C452.813 252.494 452.844 252.417 452.874 252.356C452.905 252.249 452.92 252.126 452.874 252.019C452.874 251.912 452.828 251.805 452.767 251.698C452.752 251.667 452.736 251.621 452.721 251.591L452.736 251.56Z" fill="#771D62"/>
</g>
<g style="mix-blend-mode:multiply" opacity="0.35">
<path d="M229.122 196.92C229.29 196.904 229.428 196.889 229.582 196.828C229.934 196.69 230.072 196.629 230.348 196.415C230.593 196.231 230.747 196.078 230.915 195.803C230.915 195.803 230.915 195.787 230.915 195.772C230.992 195.711 231.053 195.65 231.115 195.604C231.237 195.481 231.36 195.328 231.452 195.175C231.666 194.854 231.743 194.456 231.758 194.058C231.758 193.982 231.758 193.921 231.758 193.844C231.743 193.645 231.712 193.431 231.666 193.232C231.62 193.048 231.529 192.865 231.452 192.681C231.421 192.605 231.391 192.528 231.345 192.467C231.207 192.222 231.023 191.993 230.823 191.809C230.501 191.503 230.164 191.319 229.75 191.166C229.49 191.075 229.183 191.029 228.892 191.044C228.187 191.09 227.543 191.335 227.037 191.84C226.853 192.023 226.684 192.237 226.546 192.467C226.454 192.651 226.378 192.834 226.301 193.033C226.27 193.094 226.255 193.155 226.24 193.217C226.102 193.752 226.102 194.334 226.24 194.869C226.301 195.068 226.393 195.252 226.47 195.435C226.5 195.497 226.531 195.558 226.562 195.619C226.669 195.787 226.792 195.94 226.93 196.093C226.976 196.139 227.022 196.185 227.083 196.231C227.221 196.353 227.42 196.506 227.604 196.598C227.757 196.675 227.926 196.751 228.095 196.812C228.141 196.812 228.171 196.828 228.217 196.843C228.601 196.92 228.754 196.92 229.122 196.874V196.92Z" fill="#771D62"/>
</g>
<g style="mix-blend-mode:multiply" opacity="0.35">
<path d="M225.351 200.837C225.351 200.837 225.32 200.837 225.305 200.821C225.167 200.668 224.983 200.561 224.783 200.5C224.584 200.439 224.37 200.439 224.17 200.5C223.971 200.561 223.802 200.653 223.664 200.791C223.618 200.837 223.572 200.883 223.511 200.928C223.419 201.02 223.342 201.127 223.312 201.234C223.25 201.357 223.22 201.479 223.235 201.617C223.235 201.709 223.25 201.785 223.266 201.877C223.312 202.045 223.388 202.183 223.511 202.306C223.557 202.351 223.603 202.397 223.664 202.443C223.802 202.581 223.986 202.688 224.17 202.734C224.37 202.795 224.584 202.795 224.783 202.734C224.983 202.673 225.167 202.566 225.305 202.413C225.32 202.413 225.335 202.413 225.351 202.397C225.489 202.321 225.596 202.214 225.673 202.076C225.749 201.938 225.795 201.785 225.795 201.617C225.795 201.449 225.749 201.296 225.673 201.158C225.596 201.02 225.489 200.913 225.351 200.837Z" fill="#771D62"/>
</g>
<g style="mix-blend-mode:multiply" opacity="0.35">
<path d="M218.176 188.887L217.916 188.688C217.808 188.642 217.716 188.596 217.609 188.565C217.44 188.52 217.272 188.504 217.103 188.55C216.935 188.55 216.781 188.611 216.628 188.703C216.613 188.703 216.597 188.718 216.567 188.734C216.567 188.734 216.551 188.734 216.536 188.734C216.475 188.764 216.49 188.764 216.398 188.841C216.245 188.963 216.168 189.009 216.061 189.208C216.015 189.315 215.969 189.407 215.923 189.514C215.923 189.514 215.923 189.529 215.923 189.545C215.923 189.56 215.923 189.575 215.908 189.606C215.846 189.82 215.846 190.05 215.908 190.264C215.969 190.478 216.076 190.662 216.229 190.815C216.383 190.968 216.567 191.075 216.781 191.136C216.996 191.197 217.226 191.197 217.44 191.136C217.578 191.09 217.747 191.044 217.854 190.968C217.946 190.907 218.023 190.83 218.115 190.769C218.176 190.677 218.253 190.601 218.314 190.509C218.314 190.509 218.314 190.493 218.314 190.478C218.314 190.463 218.33 190.432 218.345 190.417C218.391 190.31 218.437 190.218 218.468 190.111C218.514 189.943 218.529 189.774 218.483 189.606C218.483 189.499 218.452 189.392 218.391 189.285C218.345 189.132 218.253 188.994 218.13 188.887H218.176Z" fill="#771D62"/>
</g>
<g style="mix-blend-mode:multiply" opacity="0.35">
<path d="M210.297 122.434C210.588 122.128 210.634 121.669 210.358 121.317C210.113 120.995 209.622 120.858 209.27 121.103C209.132 121.194 209.009 121.301 208.886 121.393C208.948 121.347 209.009 121.301 209.07 121.256C208.795 121.439 208.565 121.623 208.396 121.914C208.289 122.097 208.197 122.311 208.12 122.526C207.905 122.77 207.783 123.076 207.767 123.413C207.767 123.673 207.859 123.918 208.013 124.117C208.013 124.239 208.028 124.362 208.059 124.469C208.135 124.836 208.473 125.142 208.825 125.234C209.024 125.28 209.224 125.28 209.408 125.234C209.592 125.188 209.76 125.081 209.898 124.943C210.021 124.851 210.128 124.744 210.236 124.637C210.435 124.408 210.511 124.27 210.619 123.979C210.665 123.826 210.695 123.658 210.695 123.49C210.695 123.321 210.665 123.153 210.619 122.985C210.542 122.77 210.45 122.587 210.297 122.418V122.434Z" fill="#771D62"/>
</g>
<g style="mix-blend-mode:multiply" opacity="0.35">
<path d="M232.832 246.74C232.694 246.373 232.556 246.113 232.28 245.822C232.111 245.638 231.896 245.47 231.666 245.378C231.483 245.302 231.283 245.21 231.084 245.164C230.885 245.118 230.67 245.087 230.455 245.072C230.241 245.057 230.042 245.072 229.812 245.118C229.766 245.118 229.72 245.133 229.674 245.149C229.597 245.164 229.551 245.195 229.474 245.225C229.29 245.302 229.137 245.378 229.014 245.531C228.892 245.654 228.8 245.791 228.738 245.96C228.662 246.113 228.616 246.281 228.631 246.465C228.647 246.816 228.769 247.153 229.014 247.398C229.091 247.474 229.183 247.536 229.275 247.597C229.306 247.888 229.336 248.056 229.474 248.316C229.551 248.454 229.643 248.576 229.75 248.683C229.965 248.897 230.271 249.081 230.563 249.142C230.915 249.219 231.191 249.219 231.544 249.142C231.866 249.066 232.126 248.897 232.372 248.683C232.602 248.469 232.801 248.117 232.862 247.811C232.893 247.658 232.939 247.459 232.924 247.291C232.924 247.153 232.893 247 232.862 246.847C232.862 246.816 232.847 246.771 232.832 246.74Z" fill="#771D62"/>
</g>
<g style="mix-blend-mode:multiply" opacity="0.35">
<path d="M395.725 104.24C395.664 103.98 395.526 103.735 395.342 103.552C395.265 103.475 395.143 103.383 395.081 103.353C394.913 103.23 394.713 103.2 394.514 103.185C394.3 103.185 394.1 103.23 393.901 103.338C393.794 103.399 393.702 103.475 393.625 103.582C393.61 103.598 393.61 103.628 393.594 103.644C393.564 103.644 393.518 103.644 393.487 103.674C393.426 103.69 393.38 103.72 393.334 103.766C393.257 103.812 393.196 103.873 393.165 103.95C393.15 104.011 393.119 104.057 393.104 104.118C393.073 104.24 393.073 104.363 393.104 104.485C393.134 104.623 393.15 104.776 393.165 104.914C393.18 105.051 393.226 105.189 393.257 105.342C393.257 105.296 393.257 105.235 393.242 105.189C393.242 105.311 393.257 105.434 393.318 105.541C393.364 105.663 393.426 105.786 393.533 105.878C393.61 105.939 393.671 105.985 393.748 106.046C393.916 106.138 394.085 106.184 394.269 106.184C394.514 106.184 394.821 106.107 395.02 105.969C395.112 105.908 395.204 105.832 395.281 105.77C395.296 105.77 395.311 105.74 395.327 105.725C395.419 105.617 395.511 105.51 395.572 105.388C395.633 105.266 395.695 105.128 395.725 105.005C395.725 104.99 395.725 104.96 395.725 104.944C395.771 104.623 395.787 104.653 395.725 104.332V104.302V104.24Z" fill="#771D62"/>
</g>
<path style="mix-blend-mode:multiply" opacity="0.35" d="M205.437 185.428C205.437 151.796 205.974 129.824 212.964 108.035C198.202 111.876 184.052 116.466 170.945 121.959C181.477 174.259 168.539 238.982 164.093 259.012C163.204 263.02 163.081 264.948 163.081 264.948C172.187 287.946 195.044 278.107 218.529 269.631C208.902 253.518 205.453 219.06 205.453 185.413L205.437 185.428Z" fill="url(#paint10_linear_288_8357)"/>
<path d="M506.498 258.996C508.261 267.397 518.455 273.226 526.871 273.226C535.149 271.742 536.498 267.871 538.138 263.602C538.138 263.602 538 248.285 538.138 243.818C538.276 239.35 508.537 236.198 507.923 243.818L506.498 258.996Z" fill="#A145A6"/>
<g style="mix-blend-mode:multiply" opacity="0.35">
<path d="M538.138 243.818C538.276 239.35 509.027 235.938 508.414 243.558L506.482 258.997C507.341 263.082 510.192 266.555 513.871 269.049C513.871 269.049 515.113 269.845 516.539 270.61C519.835 272.278 523.483 273.227 526.856 273.227C535.134 271.742 536.483 267.871 538.123 263.602C538.123 263.602 537.985 248.286 538.123 243.818H538.138Z" fill="#771D62"/>
</g>
<path d="M518.302 260.48C518.026 257.497 520.341 253.978 527.408 253.978C534.337 255.064 536.667 258.721 538.138 263.602V244.889C538.138 239.732 518.317 238.523 518.317 244.889V260.48H518.302Z" fill="url(#paint11_linear_288_8357)"/>
<path d="M539.717 245.853L514.837 245.149L513.657 266.586L540.193 267.137L539.717 245.853Z" fill="url(#paint12_linear_288_8357)"/>
<g style="mix-blend-mode:multiply" opacity="0.25">
<path d="M539.733 246.603L536.008 245.746L533.631 245.685L533.401 248.072L533.524 253.412L539.947 255.921L539.733 246.603Z" fill="#CC0631"/>
</g>
<path d="M550.632 106.612C549.927 101.808 547.781 97.8905 544.776 94.9068C544.224 96.1615 541.741 98.9922 541.741 98.3036C541.741 96.544 542.109 94.769 542.691 93.1012C531.179 84.196 511.097 86.2616 506.482 100.66C510.744 124.759 511.848 159.937 511.511 179.155C511.143 199.597 507.464 254.299 506.482 258.996C509.472 249.311 517.428 246.511 527.193 247.061C532.328 247.352 537.525 248.668 541.741 251.269C542.201 250.428 542.937 249.77 543.872 249.372C544.362 249.173 544.745 249.663 544.807 250.076C544.991 251.636 545.589 253.136 545.926 254.666C548.379 257.298 550.096 260.679 550.632 264.948C547.842 246.771 544.546 199.322 544.485 177.38C544.439 159.615 546.478 131.645 550.632 106.612Z" fill="url(#paint13_linear_288_8357)"/>
<path d="M207.2 258.996C205.437 267.397 195.243 273.226 186.827 273.226C178.549 271.742 177.2 267.871 175.56 263.602C175.56 263.602 175.698 248.285 175.56 243.818C175.422 239.35 205.161 236.198 205.775 243.818L207.2 258.996Z" fill="#A145A6"/>
<g style="mix-blend-mode:multiply" opacity="0.35">
<path d="M207.2 258.996C205.437 267.397 195.243 273.226 186.827 273.226C178.549 271.742 177.2 267.871 175.56 263.602C175.56 263.602 175.698 248.285 175.56 243.818C175.422 239.35 205.161 236.198 205.775 243.818L207.2 258.996Z" fill="#771D62"/>
</g>
<path d="M175.56 244.904V263.617C176.602 260.144 178.089 257.298 181.339 255.553L182.811 252.218C182.811 252.218 182.949 253.931 183.102 254.788C184.037 254.452 185.095 254.192 186.29 253.993C192.714 253.993 195.197 256.9 195.396 259.669V244.904C195.396 238.538 175.575 239.747 175.575 244.904H175.56Z" fill="url(#paint14_linear_288_8357)"/>
<path d="M173.904 245.853L198.784 245.149L199.98 266.586L173.429 267.137L173.904 245.853Z" fill="url(#paint15_linear_288_8357)"/>
<g style="mix-blend-mode:multiply" opacity="0.25">
<path d="M173.889 246.603L177.614 245.746L180.005 245.685L180.235 248.072L180.097 253.412L173.674 255.921L173.889 246.603Z" fill="#CC0631"/>
</g>
<g style="mix-blend-mode:multiply" opacity="0.15">
<path d="M176.449 243.129C176.204 243.42 175.958 243.772 175.713 244.155C175.621 244.399 175.56 244.644 175.56 244.904V263.618C176.372 260.925 177.476 258.599 179.438 256.885C179.055 256.059 178.856 254.253 178.748 252.096C178.702 250.183 186.49 245.272 195.289 248.959C195.32 248.959 195.35 248.959 195.381 248.959V244.904C195.381 244.721 195.366 244.552 195.335 244.384L178.058 242.089C177.415 242.395 176.863 242.732 176.449 243.114V243.129Z" fill="#8E1613"/>
</g>
<path d="M207.2 100.66C206.112 97.2632 204.15 94.5702 201.666 92.5351C200.608 94.0346 197.65 93.698 197.941 96.1921C197.619 97.6304 195.32 96.85 194.752 95.932C193.327 93.7745 194.339 90.8673 193.511 88.5415C185.846 86.6289 176.771 88.3579 170.501 93.5144C171.559 98.2577 170.133 103.368 168.569 95.3046C165.764 98.2424 163.756 102.037 163.081 106.643C167.22 131.675 169.274 159.661 169.228 177.411C169.183 199.352 165.871 246.801 163.081 264.979C164.722 249.311 186.996 242.41 199.566 249.525C199.857 248.071 200.026 246.602 200.225 245.149C200.271 244.843 200.639 244.613 200.93 244.613H201.467C201.865 244.613 202.203 244.95 202.203 245.348C202.218 246.74 202.831 247.964 203.414 249.204C204.027 250.504 204.579 251.835 204.594 253.304C204.594 253.473 204.548 253.61 204.456 253.717C205.652 255.232 206.602 256.992 207.216 259.027C203.322 222.58 198.57 146.977 207.216 100.691L207.2 100.66Z" fill="url(#paint16_linear_288_8357)"/>
<g style="mix-blend-mode:multiply" opacity="0.35">
<path d="M201.666 92.52C200.608 94.0195 197.65 93.6829 197.941 96.1769C197.619 97.6153 195.32 96.8349 194.752 95.9168C193.327 93.7594 194.339 90.8521 193.511 88.5264C185.846 86.6137 176.771 88.3428 170.501 93.4992C171.559 98.2426 170.133 103.353 168.569 95.2895C165.764 98.2273 163.756 102.022 163.081 106.628C163.281 107.791 163.465 108.969 163.648 110.147C164.967 107.133 166.699 104.501 168.876 102.328C170.853 107.194 172.202 107.76 172.356 99.5126C175.422 97.5234 179.116 96.2535 183.516 95.8403C183.516 96.0239 183.546 96.2076 183.546 96.3759C183.623 97.9672 183.807 99.5585 183.914 101.15C184.006 102.68 184.144 104.21 184.313 105.74C184.39 106.444 184.497 107.148 184.62 107.852C184.773 108.678 185.202 109.397 185.34 110.208C185.386 110.484 185.861 110.422 185.831 110.147C185.739 109.336 185.953 108.51 185.907 107.683C185.861 106.98 185.815 106.276 185.739 105.572C185.601 104.042 185.493 102.512 185.417 100.982C185.34 99.4361 185.417 97.9213 185.478 96.3759C185.478 96.1616 185.509 95.9321 185.524 95.7026C187.517 95.6261 189.418 95.7026 191.227 95.9474C192.683 100.339 196.975 101.303 200.041 99.2219C202.632 101.027 204.717 103.583 206.142 106.98C206.48 104.822 206.817 102.711 207.2 100.66C206.112 97.2633 204.15 94.5703 201.666 92.5353V92.52Z" fill="#771D62"/>
</g>
<g style="mix-blend-mode:multiply" opacity="0.35">
<path d="M207.2 258.996C206.756 254.789 206.296 250.03 205.836 244.873C205.039 244.17 204.226 243.557 203.368 242.991C201.636 236.917 199.811 237.085 198.662 240.604C193.158 238.554 187.072 238.6 181.569 239.793C181.998 234.576 181.876 229.236 182.059 224.049C182.305 217.041 182.535 210.048 182.765 203.04C182.765 202.918 182.581 202.918 182.581 203.04C182.259 209.956 181.768 216.826 181.124 223.712C180.802 227.109 180.389 230.49 180.005 233.872C179.76 236.014 179.453 238.202 179.254 240.375C172.264 242.364 166.592 246.143 164.921 249.647C164.308 255.752 163.679 261.047 163.081 264.964C164.722 249.295 186.996 242.395 199.566 249.51C199.857 248.056 200.026 246.587 200.225 245.133C200.271 244.827 200.639 244.598 200.93 244.598H201.467C201.865 244.598 202.203 244.935 202.203 245.332C202.218 246.725 202.831 247.949 203.414 249.188C204.027 250.489 204.579 251.82 204.594 253.289C204.594 253.457 204.548 253.595 204.456 253.702C205.652 255.217 206.602 256.977 207.216 259.012L207.2 258.996Z" fill="#771D62"/>
</g>
<g style="mix-blend-mode:multiply" opacity="0.35">
<path d="M181.784 193.492C181.83 192.192 181.83 190.907 181.83 189.606C181.83 189.453 181.6 189.453 181.6 189.606C181.6 190.907 181.6 192.192 181.646 193.492C181.646 193.569 181.768 193.569 181.768 193.492H181.784Z" fill="#771D62"/>
</g>
<g style="mix-blend-mode:multiply" opacity="0.35">
<path d="M182.136 200.546C182.197 199.261 182.167 197.96 182.182 196.659C182.182 196.522 181.968 196.522 181.968 196.659C181.968 197.96 181.952 199.245 182.013 200.546C182.013 200.622 182.136 200.622 182.136 200.546Z" fill="#771D62"/>
</g>
<g style="mix-blend-mode:multiply" opacity="0.35">
<path d="M544.776 94.9068C544.224 96.1615 541.741 98.9922 541.741 98.3036C541.741 96.544 542.109 94.769 542.691 93.1012C531.179 84.196 511.097 86.2616 506.482 100.66C506.697 101.915 507.418 106.551 507.617 107.852C507.617 107.852 510.989 93.4684 529.922 94.9374C529.922 95.3964 529.937 95.8401 529.937 96.2839C529.937 97.7834 529.86 99.2829 529.799 100.782C529.676 103.781 529.4 106.78 529.4 109.795C529.4 110.04 529.814 110.116 529.86 109.856C530.29 106.964 530.458 104.042 530.78 101.134C530.949 99.5736 531.117 98.0282 531.347 96.4675C531.409 96.039 531.485 95.6106 531.577 95.1669C534.459 95.733 537.418 97.2172 539.993 98.9463V105.725L544.178 99.5889C546.968 102.527 549.007 106.153 549.651 110.131C549.804 110.055 549.958 109.963 550.111 109.871C550.279 108.785 550.448 107.699 550.632 106.627C549.927 101.823 547.781 97.9058 544.776 94.9221V94.9068Z" fill="#771D62"/>
</g>
<g style="mix-blend-mode:multiply" opacity="0.35">
<path d="M529.692 110.682C529.6 110.59 529.416 110.606 529.339 110.728C529.262 110.881 529.293 111.003 529.308 111.156C529.324 111.309 529.339 111.462 529.339 111.615C529.339 111.921 529.339 112.227 529.339 112.534C529.293 113.146 529.17 113.742 528.971 114.308C528.864 114.645 529.385 114.783 529.492 114.446C529.692 113.834 529.814 113.191 529.86 112.549C529.876 112.227 529.891 111.921 529.86 111.6C529.86 111.447 529.845 111.294 529.83 111.141C529.814 110.957 529.814 110.789 529.676 110.667L529.692 110.682Z" fill="#771D62"/>
</g>
<g style="mix-blend-mode:multiply" opacity="0.35">
<path d="M548.747 249.265C548.072 248.102 547.29 247.046 546.432 246.082C546.202 240.253 544.47 240.084 542.569 242.747C540.53 241.385 538.261 240.375 535.885 239.641C535.762 237.896 535.64 236.137 535.517 234.392C535.364 232.327 535.21 230.246 535.042 228.18C534.873 226.023 534.429 223.88 534.199 221.738C534.168 221.432 533.693 221.402 533.693 221.738C533.723 223.972 533.57 226.206 533.677 228.425C533.769 230.49 533.877 232.571 533.999 234.637C534.091 236.152 534.168 237.667 534.26 239.181C532.42 238.722 530.535 238.447 528.665 238.294C528.665 238.065 528.649 237.835 528.634 237.605C528.603 235.831 528.465 234.071 528.251 232.311C528.251 232.189 528.082 232.189 528.067 232.311C527.852 234.071 527.714 235.831 527.683 237.605C527.683 237.804 527.668 238.019 527.653 238.218C518.93 237.774 510.56 240.329 507.923 243.787C507.31 251.774 506.789 257.573 506.498 258.966C509.487 249.28 517.443 246.48 527.208 247.031C532.344 247.322 537.54 248.638 541.756 251.239C542.216 250.397 542.952 249.739 543.887 249.341C544.378 249.143 544.761 249.632 544.822 250.045C545.006 251.606 545.604 253.106 545.941 254.636C548.394 257.267 550.111 260.649 550.647 264.918C550.034 260.909 549.39 255.493 548.777 249.234L548.747 249.265Z" fill="#771D62"/>
</g>
<path d="M546.232 266.463C546.294 267.871 546.202 271.038 546.202 271.038L506.866 270.809C506.866 270.809 506.866 268.162 506.896 266.234C506.942 257.619 515.788 250.688 526.656 250.749C537.525 250.81 545.849 257.573 546.232 266.463Z" fill="url(#paint17_linear_288_8357)"/>
<path d="M546.202 271.038C546.156 279.652 537.311 286.584 526.442 286.523C515.573 286.461 506.82 279.423 506.866 270.808C506.912 262.194 515.757 255.262 526.626 255.324C537.495 255.385 546.248 262.423 546.202 271.038Z" fill="url(#paint18_linear_288_8357)"/>
<g style="mix-blend-mode:multiply" opacity="0.25">
<path d="M540.867 260.297C542.799 262.653 543.918 265.453 543.902 268.468C543.856 276.669 535.425 283.279 525.093 283.218C516.202 283.172 508.797 278.199 506.927 271.604C507.402 279.852 515.926 286.477 526.457 286.538C537.326 286.6 546.171 279.668 546.217 271.054C546.248 266.892 544.194 263.112 540.882 260.297H540.867Z" fill="#CC0631"/>
</g>
<path d="M508.951 263.908C510.422 259.517 524.802 249.663 538.828 258.767C529.232 253.764 515.68 255.049 508.951 263.908Z" fill="#FFF5CC"/>
<path d="M526.917 264.964C519.62 264.78 517.949 268.33 517.857 270.87C517.673 275.981 520.877 278.505 520.402 286.018C519.911 293.531 518.225 295.138 516.6 300.845C515.696 304.028 517.765 307.914 524.863 308.618C531.593 308.649 534.398 305.16 533.8 301.886C532.727 296.01 531.194 294.22 531.424 286.691C531.654 279.163 535.072 277.052 535.364 271.926C535.517 269.371 534.183 265.652 526.917 264.964Z" fill="url(#paint19_linear_288_8357)"/>
<path d="M525.522 275.767C525.338 276.18 524.188 286.416 523.897 290.043C523.728 292.062 523.744 294.281 525.031 294.143C526.258 293.638 526.564 291.512 526.457 289.553C526.258 286.049 525.706 276.103 525.537 275.751L525.522 275.767Z" fill="#FFF5CC"/>
<path d="M533.846 303.202C533.677 306.445 529.6 308.863 524.771 308.603C519.927 308.343 516.156 305.497 516.324 302.253C516.493 299.009 520.57 296.592 525.399 296.852C530.244 297.112 534.015 299.958 533.846 303.202Z" fill="url(#paint20_linear_288_8357)"/>
<path d="M516.937 300.34C519.973 297.112 523.682 296.301 528.941 297.556C525.629 296.148 520.095 295.566 516.937 300.34Z" fill="#FFF5CC"/>
<g style="mix-blend-mode:multiply" opacity="0.15">
<path d="M532.282 295.597C531.7 293.271 531.286 290.854 531.409 286.692C531.639 279.164 535.057 277.052 535.348 271.926C535.502 269.371 534.168 265.653 526.902 264.964C524.127 264.888 522.18 265.362 520.8 266.112C525.936 265.821 533.156 269.05 531.777 274.711C530.412 280.388 529.308 286.217 532.267 295.597H532.282Z" fill="#CC0631"/>
</g>
<g style="mix-blend-mode:multiply" opacity="0.35">
<path d="M530.366 298.198C531.455 299.162 532.083 300.356 532.006 301.626C531.853 304.472 528.297 306.599 524.05 306.369C519.85 306.14 516.569 303.707 516.646 300.891C516.462 301.335 516.339 301.794 516.309 302.268C516.14 305.512 519.911 308.358 524.756 308.618C529.6 308.878 533.662 306.461 533.831 303.217C533.938 301.228 532.558 299.392 530.351 298.198H530.366Z" fill="#CC0631"/>
</g>
<path d="M167.389 266.463C167.328 267.871 167.42 271.038 167.42 271.038L206.756 270.809C206.756 270.809 206.756 268.162 206.725 266.234C206.679 257.619 197.834 250.688 186.965 250.749C176.096 250.81 167.772 257.573 167.389 266.463Z" fill="url(#paint21_linear_288_8357)"/>
<path d="M167.42 271.038C167.466 279.652 176.311 286.584 187.18 286.523C198.048 286.461 206.802 279.423 206.756 270.808C206.71 262.194 197.864 255.262 186.996 255.324C176.127 255.385 167.374 262.423 167.42 271.038Z" fill="url(#paint22_linear_288_8357)"/>
<g style="mix-blend-mode:multiply" opacity="0.25">
<path d="M172.754 260.297C170.823 262.653 169.704 265.453 169.719 268.468C169.765 276.669 178.196 283.279 188.529 283.218C197.42 283.172 204.824 278.199 206.694 271.604C206.219 279.852 197.696 286.477 187.164 286.538C176.296 286.6 167.45 279.668 167.404 271.054C167.374 266.892 169.428 263.112 172.739 260.297H172.754Z" fill="#CC0631"/>
</g>
<path d="M204.671 263.908C203.199 259.517 188.82 249.663 174.793 258.767C184.39 253.764 197.941 255.049 204.671 263.908Z" fill="#FFF5CC"/>
<path d="M186.704 264.964C194.001 264.78 195.672 268.33 195.764 270.87C195.948 275.981 192.744 278.505 193.22 286.018C193.71 293.531 195.396 295.138 197.021 300.845C197.926 304.028 195.856 307.914 188.759 308.618C182.029 308.649 179.223 305.16 179.821 301.886C180.894 296.01 182.427 294.22 182.197 286.691C181.967 279.163 178.549 277.052 178.258 271.926C178.104 269.371 179.438 265.652 186.704 264.964Z" fill="url(#paint23_linear_288_8357)"/>
<path d="M188.115 275.767C188.299 276.18 189.448 286.416 189.74 290.043C189.908 292.062 189.893 294.281 188.605 294.143C187.379 293.638 187.072 291.512 187.18 289.553C187.379 286.049 187.931 276.103 188.099 275.751L188.115 275.767Z" fill="#FFF5CC"/>
<path d="M179.775 303.202C179.944 306.445 184.022 308.863 188.851 308.603C193.695 308.343 197.466 305.497 197.297 302.253C197.129 299.009 193.051 296.592 188.222 296.852C183.378 297.112 179.607 299.958 179.775 303.202Z" fill="url(#paint24_linear_288_8357)"/>
<path d="M196.699 300.34C193.664 297.112 189.954 296.301 184.696 297.556C188.007 296.148 193.541 295.566 196.699 300.34Z" fill="#FFF5CC"/>
<g style="mix-blend-mode:multiply" opacity="0.15">
<path d="M181.339 295.597C181.922 293.271 182.335 290.854 182.213 286.692C181.983 279.164 178.564 277.052 178.273 271.926C178.12 269.371 179.453 265.653 186.72 264.964C189.494 264.888 191.441 265.362 192.821 266.112C187.685 265.821 180.465 269.05 181.845 274.711C183.209 280.388 184.313 286.217 181.354 295.597H181.339Z" fill="#CC0631"/>
</g>
<g style="mix-blend-mode:multiply" opacity="0.35">
<path d="M183.255 298.198C182.167 299.162 181.538 300.356 181.615 301.626C181.768 304.472 185.325 306.599 189.571 306.369C193.771 306.14 197.052 303.707 196.975 300.891C197.159 301.335 197.282 301.794 197.313 302.268C197.481 305.512 193.71 308.358 188.866 308.618C184.022 308.878 179.959 306.461 179.791 303.217C179.683 301.228 181.063 299.392 183.271 298.198H183.255Z" fill="#CC0631"/>
</g>
<g style="mix-blend-mode:screen">
<path d="M246.138 82.9106L248.774 98.3342L255.244 101.318L248.774 104.317L246.138 119.741L243.501 104.317L237.017 101.318L243.501 98.3342L246.138 82.9106Z" fill="#FCCD47"/>
</g>
<g style="mix-blend-mode:screen">
<path d="M275.433 89.9649C275.433 91.9235 273.839 93.5148 271.876 93.5148C269.914 93.5148 268.32 91.9235 268.32 89.9649C268.32 88.0064 269.914 86.415 271.876 86.415C273.839 86.415 275.433 88.0064 275.433 89.9649Z" fill="#FCCD47"/>
</g>
<g style="mix-blend-mode:screen">
<path d="M234.273 112.565C234.273 113.957 233.153 115.074 231.758 115.074C230.363 115.074 229.244 113.957 229.244 112.565C229.244 111.172 230.363 110.055 231.758 110.055C233.153 110.055 234.273 111.172 234.273 112.565Z" fill="#FCCD47"/>
</g>
<g style="mix-blend-mode:screen">
<path d="M454.852 224.248L457.55 252.937L470.565 255.997L457.55 259.042L454.852 287.747L452.154 259.042L439.124 255.997L452.154 252.937L454.852 224.248Z" fill="#FCCD47"/>
</g>
<g style="mix-blend-mode:screen">
<path d="M473.094 283.937C474.483 283.937 475.608 282.814 475.608 281.428C475.608 280.042 474.483 278.918 473.094 278.918C471.706 278.918 470.58 280.042 470.58 281.428C470.58 282.814 471.706 283.937 473.094 283.937Z" fill="#FCCD47"/>
</g>
<path d="M551 264.964C550.371 260.878 549.053 257.956 545.926 254.681C545.727 252.202 545.359 245.776 541.741 251.269C537.954 248.484 525.215 244.123 515.435 248.377C506.942 252.065 506.789 257.65 506.482 258.996C508.322 254.941 510.024 251.866 515.864 249.494C522.303 247.107 529.6 246.25 542.277 252.401C543.274 250.871 544.393 247.505 545.389 255.385C547.045 256.839 549.636 259.119 550.985 264.964H551Z" fill="#F294F7"/>
<path d="M207.2 258.997C206.756 255.998 205.744 255.064 204.441 253.687C204.993 250.795 202.601 247.444 202.601 245.593C202.601 243.741 200.041 243.114 199.765 245.057C199.505 247 198.999 249.219 198.999 249.219C195.243 246.832 186.781 245.149 178.242 248.332C169.688 251.514 163.587 256.977 163.066 264.964C164.737 257.772 171.022 252.203 178.626 249.387C187.456 246.113 195.166 247.444 199.597 250.719C199.857 248.684 201.007 243.741 202.08 247.276C203.153 250.81 203.843 251.254 203.414 253.809C204.916 254.865 206.771 256.793 207.216 259.012L207.2 258.997Z" fill="#F294F7"/>
<path d="M501.662 246.231C530.015 171.8 456.892 97.0313 338.338 79.2307C219.783 61.43 100.691 107.338 72.3378 181.769C43.9847 256.2 117.108 330.968 235.662 348.769C354.217 366.57 473.309 320.662 501.662 246.231Z" fill="url(#paint25_radial_288_8357)" fill-opacity="0.7" style="mix-blend-mode:screen"/>
<path d="M480.662 199.231C509.015 124.8 435.892 50.0313 317.338 32.2307C198.783 14.43 79.6908 60.338 51.3378 134.769C22.9847 209.2 96.1076 283.968 214.662 301.769C333.217 319.57 452.309 273.662 480.662 199.231Z" fill="url(#paint26_radial_288_8357)" fill-opacity="0.7" style="mix-blend-mode:screen"/>
<path style="mix-blend-mode:screen" d="M655.662 233.23C684.015 158.799 610.892 84.0308 492.338 66.2302C373.783 48.4296 254.691 94.3375 226.338 168.768C197.985 243.199 271.108 317.968 389.662 335.768C508.217 353.569 627.309 307.661 655.662 233.23Z" fill="url(#paint27_radial_288_8357)" fill-opacity="0.7"/>
<g filter="url(#filter0_d_288_8357)">
<path d="M287.747 187.48L287.875 190.232L262.531 191.256L262.467 189.912L265.539 189.784C268.227 189.656 270.659 187.544 270.595 183.576L268.867 143.32L263.427 143.832C263.363 143.832 263.235 143.832 263.107 143.896C258.883 144.216 258.307 147.224 258.179 150.424L258.115 152.6H256.771L257.219 141.208L302.339 137.176L302.787 149.336H301.379L301.251 146.264V146.2C301.187 143.384 299.971 140.888 294.723 141.016L277.315 142.552L278.979 183.256C279.427 187.416 281.539 187.736 287.043 187.544L287.747 187.48ZM311.363 161.176H309.955L310.083 158.552C310.083 157.464 309.507 154.968 305.539 154.904H305.155L300.611 154.776L300.163 173.144L306.051 173.336C308.355 173.336 309.955 172.504 310.083 169.368L310.147 167.512H311.491L310.915 181.848H309.571L309.635 180.696C309.763 178.456 308.099 176.28 305.859 176.024L300.099 175.896L299.523 198.168L306.563 198.744C309.571 198.296 310.083 196.376 310.147 195.416V192.856L311.491 192.92L311.427 201.88L292.547 200.536L283.843 200.216V198.744L285.891 198.808C288.515 198.872 291.075 196.952 291.331 192.984L292.163 159.512C292.163 156.824 290.883 153.112 287.683 153.048L285.315 152.92V151.512L297.795 151.96L311.491 152.28H311.747L311.363 161.176ZM332.977 186.264V184.856H334.257C337.137 184.856 338.929 183.576 338.289 180.696L335.985 170.2H327.601L323.889 186.392C323.377 188.76 325.425 190.296 326.513 190.296H328.241V191.704H313.521V190.296H315.249C316.529 190.296 318.897 189.336 319.537 186.584L327.921 149.976C328.369 147.992 325.873 146.264 323.633 146.264C321.073 146.264 319.537 147.672 319.537 149.72C319.537 151.704 320.817 152.536 321.905 152.536C322.737 152.536 323.441 151.96 323.185 151.064C322.737 149.528 320.561 149.72 320.561 149.72C321.137 148.632 322.353 148.12 323.505 148.12C324.913 148.12 326.193 148.952 326.193 150.68C326.193 153.048 324.209 154.648 321.585 154.648C318.513 154.648 316.849 152.152 316.849 149.72C316.849 144.216 323.057 142.488 328.497 142.808L345.329 143.768V145.112L342.385 145.176C340.017 145.432 338.865 146.52 339.441 149.016L346.161 178.712C346.929 182.04 348.017 184.856 351.665 184.856H353.649V187.416L332.977 186.264ZM328.113 167.96H335.409L331.825 151.704L328.113 167.96ZM361.184 161.112C361.184 171.672 379.616 174.488 379.616 186.776C379.616 195.928 372.384 200.152 364 200.152C358.816 200.152 351.584 196.504 351.584 189.272C351.584 183.704 355.04 180.44 359.84 180.44C368.224 180.44 368.032 190.744 362.016 191.192C360.095 191.32 358.368 190.296 358.368 187.928C358.368 186.392 359.648 185.432 360.928 185.432C361.504 185.432 362.144 185.688 362.528 186.264C362.528 186.264 360.864 186.2 360.672 187.416C360.48 188.12 360.992 188.44 361.632 188.44C364.64 188.44 364.512 182.68 361.056 182.68C354.911 182.68 354.464 197.656 364.256 197.656C369.76 197.656 371.232 192.536 371.232 189.592C371.232 177.752 352.799 176.152 352.799 163.48C352.799 154.392 361.632 151.448 366.624 151.448C373.984 151.448 378.016 155.672 378.336 160.536C378.72 165.592 375.328 168.28 372.192 168.28C369.76 168.28 367.392 166.616 367.135 163.096C366.944 160.472 368.416 158.36 370.784 158.232C373.856 157.976 374.432 162.264 372.128 163.736C372.128 163.736 372.192 161.56 370.592 161.24C368.48 160.792 368.608 165.08 372.256 164.76C374.24 164.696 375.52 162.968 375.328 160.472C375.072 157.016 372.576 153.304 368.032 153.304C365.024 153.304 361.184 155.16 361.184 161.112ZM407.077 186.712C410.213 186.712 411.941 189.208 411.941 191.576C412.005 196.44 408.229 197.848 402.789 197.976L391.333 198.104L379.813 198.424L379.749 197.016L381.733 196.952C384.357 196.888 386.725 194.776 386.725 190.936L385.381 158.36C385.317 158.296 385.317 158.104 385.317 157.976C385.125 154.136 382.629 151.96 380.389 152.024L378.021 152.088V150.744L390.437 150.296L404.197 149.656H404.389L404.581 158.488L403.237 158.616L403.173 156.312V156.056C403.045 154.904 402.341 152.536 398.373 152.6L398.181 152.664C398.117 152.664 398.053 152.664 397.989 152.664L393.509 152.856L394.213 169.88L400.165 169.56C402.405 169.496 403.941 168.536 403.941 165.464L403.877 163.544L405.221 163.48L405.669 177.816L404.261 177.88L404.197 176.792C404.133 174.488 402.405 172.44 400.165 172.312L394.341 172.632L395.301 195.288L402.725 195.224C402.789 195.224 402.789 195.224 402.789 195.224C407.653 195.16 409.253 193.688 409.189 191.768C409.125 189.72 407.845 188.888 406.821 188.888C405.989 188.888 405.285 189.464 405.541 190.36C405.989 191.896 408.165 191.704 408.165 191.704C407.589 192.792 406.373 193.304 405.221 193.304C403.813 193.304 402.533 192.472 402.533 190.808C402.469 188.44 404.453 186.776 407.077 186.712ZM448.604 199.832C454.748 199.832 455.388 211.352 446.684 211.352C439.26 211.352 437.276 203.352 435.74 196.504C435.74 196.376 431.772 176.024 425.18 176.088H424.028V192.024C424.028 195.416 426.076 196.312 428.956 196.568L431.196 196.888V198.232L410.588 196.952V194.584L412.636 194.776C415.58 194.776 417.372 193.624 417.372 190.872V154.328C417.372 150.488 413.404 149.656 411.74 149.656H410.396V148.248H424.028C432.284 148.248 440.732 152.216 440.732 161.496C440.732 167.64 437.34 171.608 432.924 173.912C443.292 181.336 437.788 208.664 447.26 208.664C451.996 208.664 452.444 202.264 448.348 201.88C445.596 201.624 446.044 205.208 447.58 204.696C448.732 204.312 448.476 202.712 448.476 202.712C450.396 203.608 450.332 206.872 447.964 207C446.172 207.064 444.892 205.656 444.764 203.608C444.636 201.304 446.428 199.832 448.604 199.832ZM424.028 173.336C438.108 172.44 436.06 150.68 424.028 150.296V173.336Z" fill="#F5F5F5"/>
</g>
<defs>
<filter id="filter0_d_288_8357" x="252.771" y="137.175" width="206.617" height="82.1763" filterUnits="userSpaceOnUse" color-interpolation-filters="sRGB">
<feFlood flood-opacity="0" result="BackgroundImageFix"/>
<feColorMatrix in="SourceAlpha" type="matrix" values="0 0 0 0 0 0 0 0 0 0 0 0 0 0 0 0 0 0 127 0" result="hardAlpha"/>
<feOffset dy="4"/>
<feGaussianBlur stdDeviation="2"/>
<feComposite in2="hardAlpha" operator="out"/>
<feColorMatrix type="matrix" values="0 0 0 0 0 0 0 0 0 0 0 0 0 0 0 0 0 0 0.25 0"/>
<feBlend mode="normal" in2="BackgroundImageFix" result="effect1_dropShadow_288_8357"/>
<feBlend mode="normal" in="SourceGraphic" in2="effect1_dropShadow_288_8357" result="shape"/>
</filter>
<linearGradient id="paint0_linear_288_8357" x1="174.895" y1="82.39" x2="195.327" y2="81.5625" gradientUnits="userSpaceOnUse">
<stop stop-color="#B83D00"/>
<stop offset="0.25" stop-color="#E4790F"/>
<stop offset="0.56" stop-color="#FEE34D"/>
<stop offset="0.62" stop-color="#FAD444"/>
<stop offset="0.75" stop-color="#F1AF2E"/>
<stop offset="0.91" stop-color="#E4790F"/>
</linearGradient>
<linearGradient id="paint1_linear_288_8357" x1="205.307" y1="93.1814" x2="165.858" y2="89.9528" gradientUnits="userSpaceOnUse">
<stop offset="0.06" stop-color="#E47B10"/>
<stop offset="0.14" stop-color="#E68417"/>
<stop offset="0.27" stop-color="#ED9D2B"/>
<stop offset="0.44" stop-color="#F8C74C"/>
<stop offset="0.53" stop-color="#FEDE5F"/>
<stop offset="0.61" stop-color="#F7C64C"/>
<stop offset="0.78" stop-color="#ED9D2B"/>
<stop offset="0.92" stop-color="#E68417"/>
<stop offset="1" stop-color="#E47B10"/>
</linearGradient>
<linearGradient id="paint2_linear_288_8357" x1="185.028" y1="116.377" x2="185.017" y2="85.1618" gradientUnits="userSpaceOnUse">
<stop stop-color="#CF4B0B"/>
<stop offset="0.99" stop-color="#E8B321"/>
</linearGradient>
<linearGradient id="paint3_linear_288_8357" x1="200.011" y1="109.407" x2="172.388" y2="107.146" gradientUnits="userSpaceOnUse">
<stop offset="0.06" stop-color="#E47B10"/>
<stop offset="0.14" stop-color="#E68417"/>
<stop offset="0.27" stop-color="#ED9D2B"/>
<stop offset="0.44" stop-color="#F8C74C"/>
<stop offset="0.53" stop-color="#FEDE5F"/>
<stop offset="0.61" stop-color="#F7C64C"/>
<stop offset="0.78" stop-color="#ED9D2B"/>
<stop offset="0.92" stop-color="#E68417"/>
<stop offset="1" stop-color="#E47B10"/>
</linearGradient>
<linearGradient id="paint4_linear_288_8357" x1="538.636" y1="82.8799" x2="518.204" y2="82.0523" gradientUnits="userSpaceOnUse">
<stop offset="0.06" stop-color="#E47B10"/>
<stop offset="0.14" stop-color="#E68417"/>
<stop offset="0.27" stop-color="#ED9D2B"/>
<stop offset="0.44" stop-color="#F8C74C"/>
<stop offset="0.53" stop-color="#FEDE5F"/>
<stop offset="0.61" stop-color="#F7C64C"/>
<stop offset="0.78" stop-color="#ED9D2B"/>
<stop offset="0.92" stop-color="#E68417"/>
<stop offset="1" stop-color="#E47B10"/>
</linearGradient>
<linearGradient id="paint5_linear_288_8357" x1="508.336" y1="93.1157" x2="547.8" y2="89.886" gradientUnits="userSpaceOnUse">
<stop offset="0.06" stop-color="#E47B10"/>
<stop offset="0.14" stop-color="#E68417"/>
<stop offset="0.27" stop-color="#ED9D2B"/>
<stop offset="0.44" stop-color="#F8C74C"/>
<stop offset="0.53" stop-color="#FEDE5F"/>
<stop offset="0.61" stop-color="#F7C64C"/>
<stop offset="0.78" stop-color="#ED9D2B"/>
<stop offset="0.92" stop-color="#E68417"/>
<stop offset="1" stop-color="#E47B10"/>
</linearGradient>
<linearGradient id="paint6_linear_288_8357" x1="528.613" y1="116.332" x2="528.624" y2="85.1328" gradientUnits="userSpaceOnUse">
<stop stop-color="#CF4B0B"/>
<stop offset="0.99" stop-color="#E8B321"/>
</linearGradient>
<linearGradient id="paint7_linear_288_8357" x1="513.649" y1="109.355" x2="541.257" y2="107.096" gradientUnits="userSpaceOnUse">
<stop offset="0.06" stop-color="#E47B10"/>
<stop offset="0.14" stop-color="#E68417"/>
<stop offset="0.27" stop-color="#ED9D2B"/>
<stop offset="0.44" stop-color="#F8C74C"/>
<stop offset="0.53" stop-color="#FEDE5F"/>
<stop offset="0.61" stop-color="#F7C64C"/>
<stop offset="0.78" stop-color="#ED9D2B"/>
<stop offset="0.92" stop-color="#E68417"/>
<stop offset="1" stop-color="#E47B10"/>
</linearGradient>
<linearGradient id="paint8_linear_288_8357" x1="549.313" y1="185.429" x2="162.737" y2="185.429" gradientUnits="userSpaceOnUse">
<stop stop-color="#8A3D90"/>
<stop offset="0.47" stop-color="#D457D4"/>
<stop offset="1" stop-color="#C14FC1"/>
</linearGradient>
<linearGradient id="paint9_linear_288_8357" x1="494.587" y1="193.278" x2="551" y2="193.278" gradientUnits="userSpaceOnUse">
<stop stop-color="#FFA8A6"/>
<stop offset="1" stop-color="#8E1613"/>
</linearGradient>
<linearGradient id="paint10_linear_288_8357" x1="163.066" y1="193.599" x2="218.514" y2="193.599" gradientUnits="userSpaceOnUse">
<stop stop-color="#8E1613"/>
<stop offset="1" stop-color="#FFA8A6"/>
</linearGradient>
<linearGradient id="paint11_linear_288_8357" x1="518.286" y1="252.08" x2="538.138" y2="252.08" gradientUnits="userSpaceOnUse">
<stop stop-color="#38C1C9"/>
<stop offset="0.37" stop-color="#7EFFF5"/>
<stop offset="0.68" stop-color="#4CC8CE"/>
<stop offset="1" stop-color="#399B97"/>
</linearGradient>
<linearGradient id="paint12_linear_288_8357" x1="512.873" y1="257.367" x2="540.451" y2="255.11" gradientUnits="userSpaceOnUse">
<stop offset="0.09" stop-color="#E4790F"/>
<stop offset="0.58" stop-color="#E4790F"/>
<stop offset="0.6" stop-color="#E2770E"/>
<stop offset="1" stop-color="#B83D00"/>
</linearGradient>
<linearGradient id="paint13_linear_288_8357" x1="506.498" y1="176.355" x2="550.632" y2="176.355" gradientUnits="userSpaceOnUse">
<stop stop-color="#8A3D90"/>
<stop offset="0.47" stop-color="#D457D4"/>
<stop offset="1" stop-color="#C14FC1"/>
</linearGradient>
<linearGradient id="paint14_linear_288_8357" x1="195.412" y1="252.08" x2="175.56" y2="252.08" gradientUnits="userSpaceOnUse">
<stop stop-color="#38C1C9"/>
<stop offset="0.37" stop-color="#7EFFF5"/>
<stop offset="0.68" stop-color="#4CC8CE"/>
<stop offset="1" stop-color="#399B97"/>
</linearGradient>
<linearGradient id="paint15_linear_288_8357" x1="200.77" y1="257.432" x2="173.193" y2="255.175" gradientUnits="userSpaceOnUse">
<stop offset="0.09" stop-color="#E4790F"/>
<stop offset="0.58" stop-color="#E4790F"/>
<stop offset="0.6" stop-color="#E2770E"/>
<stop offset="1" stop-color="#B83D00"/>
</linearGradient>
<linearGradient id="paint16_linear_288_8357" x1="207.2" y1="176.355" x2="163.066" y2="176.355" gradientUnits="userSpaceOnUse">
<stop stop-color="#8A3D90"/>
<stop offset="0.47" stop-color="#D457D4"/>
<stop offset="1" stop-color="#C14FC1"/>
</linearGradient>
<linearGradient id="paint17_linear_288_8357" x1="506.241" y1="263.342" x2="545.705" y2="260.112" gradientUnits="userSpaceOnUse">
<stop offset="0.09" stop-color="#E4790F"/>
<stop offset="0.25" stop-color="#F1AF2E"/>
<stop offset="0.38" stop-color="#FAD444"/>
<stop offset="0.44" stop-color="#FEE34D"/>
<stop offset="0.75" stop-color="#E2770E"/>
<stop offset="1" stop-color="#B83D00"/>
</linearGradient>
<linearGradient id="paint18_linear_288_8357" x1="526.527" y1="286.563" x2="526.523" y2="255.348" gradientUnits="userSpaceOnUse">
<stop stop-color="#CF4B0B"/>
<stop offset="0.99" stop-color="#E8B321"/>
</linearGradient>
<linearGradient id="paint19_linear_288_8357" x1="536.374" y1="287.735" x2="515.941" y2="286.907" gradientUnits="userSpaceOnUse">
<stop stop-color="#B83D00"/>
<stop offset="0.25" stop-color="#E4790F"/>
<stop offset="0.56" stop-color="#FEE34D"/>
<stop offset="0.62" stop-color="#FAD444"/>
<stop offset="0.75" stop-color="#F1AF2E"/>
<stop offset="0.91" stop-color="#E4790F"/>
</linearGradient>
<linearGradient id="paint20_linear_288_8357" x1="527.695" y1="307.35" x2="527.615" y2="295.603" gradientUnits="userSpaceOnUse">
<stop stop-color="#CF4B0B"/>
<stop offset="0.99" stop-color="#E8B321"/>
</linearGradient>
<linearGradient id="paint21_linear_288_8357" x1="207.404" y1="263.392" x2="167.955" y2="260.164" gradientUnits="userSpaceOnUse">
<stop offset="0.09" stop-color="#E4790F"/>
<stop offset="0.25" stop-color="#F1AF2E"/>
<stop offset="0.38" stop-color="#FAD444"/>
<stop offset="0.44" stop-color="#FEE34D"/>
<stop offset="0.75" stop-color="#E2770E"/>
<stop offset="1" stop-color="#B83D00"/>
</linearGradient>
<linearGradient id="paint22_linear_288_8357" x1="187.114" y1="286.592" x2="187.118" y2="255.392" gradientUnits="userSpaceOnUse">
<stop stop-color="#CF4B0B"/>
<stop offset="0.99" stop-color="#E8B321"/>
</linearGradient>
<linearGradient id="paint23_linear_288_8357" x1="177.159" y1="287.259" x2="197.607" y2="286.43" gradientUnits="userSpaceOnUse">
<stop stop-color="#B83D00"/>
<stop offset="0.25" stop-color="#E4790F"/>
<stop offset="0.56" stop-color="#FEE34D"/>
<stop offset="0.62" stop-color="#FAD444"/>
<stop offset="0.75" stop-color="#F1AF2E"/>
<stop offset="0.91" stop-color="#E4790F"/>
</linearGradient>
<linearGradient id="paint24_linear_288_8357" x1="186.033" y1="307.216" x2="186.114" y2="295.468" gradientUnits="userSpaceOnUse">
<stop stop-color="#CF4B0B"/>
<stop offset="0.99" stop-color="#E8B321"/>
</linearGradient>
<radialGradient id="paint25_radial_288_8357" cx="0" cy="0" r="1" gradientUnits="userSpaceOnUse" gradientTransform="translate(287.009 213.988) scale(220.716 138.57)">
<stop stop-color="#C700FF"/>
<stop offset="1" stop-color="#770099" stop-opacity="0"/>
</radialGradient>
<radialGradient id="paint26_radial_288_8357" cx="0" cy="0" r="1" gradientUnits="userSpaceOnUse" gradientTransform="translate(266.009 166.988) scale(220.716 138.57)">
<stop stop-color="#C700FF"/>
<stop offset="1" stop-color="#770099" stop-opacity="0"/>
</radialGradient>
<radialGradient id="paint27_radial_288_8357" cx="0" cy="0" r="1" gradientUnits="userSpaceOnUse" gradientTransform="translate(441.009 200.987) scale(220.716 138.57)">
<stop stop-color="#C700FF"/>
<stop offset="1" stop-color="#770099" stop-opacity="0"/>
</radialGradient>
</defs>
</svg>
