<svg width="644" height="206" viewBox="0 0 644 206" fill="none" xmlns="http://www.w3.org/2000/svg">
<path d="M44.8789 51.8711V185.761H598.13V51.8711H44.8789ZM582.758 170.4H60.214V67.2322H582.758V170.4Z" fill="url(#paint0_linear_6238_13197)"/>
<path style="mix-blend-mode:multiply" opacity="0.7" d="M136.314 185.762C136.314 185.762 210.097 179.547 339.51 179.547C468.922 179.547 540.832 185.762 540.832 185.762H136.314Z" fill="url(#paint1_linear_6238_13197)"/>
<path d="M54.1699 61.166V176.467H588.841V61.166H54.1699ZM582.759 170.4H60.215V67.2325H582.759V170.4Z" fill="url(#paint2_linear_6238_13197)"/>
<path style="mix-blend-mode:color-dodge" opacity="0.5" d="M133.348 170.4C133.348 170.4 211.192 174.612 329.441 174.612C447.69 174.612 566.273 170.4 566.273 170.4H133.348Z" fill="url(#paint3_linear_6238_13197)"/>
<path d="M60.2884 67.2324C60.2884 67.2324 56.1719 86.5265 56.1719 116.006C56.1719 145.485 60.2884 170.4 60.2884 170.4V67.2324Z" fill="url(#paint4_linear_6238_13197)"/>
<path d="M582.758 67.2324C582.758 67.2324 586.874 86.5265 586.874 116.006C586.874 145.485 582.758 170.4 582.758 170.4V67.2324Z" fill="url(#paint5_linear_6238_13197)"/>
<path style="mix-blend-mode:multiply" opacity="0.7" d="M588.823 61.166H54.1699L54.1328 79.6253C54.1328 79.6253 56.4507 73.299 60.2335 67.2325H582.778C582.778 67.2325 588.619 72.761 588.73 79.6253L588.841 61.166H588.823Z" fill="url(#paint6_linear_6238_13197)"/>
<path d="M141.508 170.4C141.508 170.4 160.144 176.968 176.462 170.4H141.508Z" fill="white"/>
<path style="mix-blend-mode:color-dodge" opacity="0.5" d="M158.994 185.002C190.352 185.002 215.773 178.465 215.773 170.401C215.773 162.338 190.352 155.801 158.994 155.801C127.636 155.801 102.215 162.338 102.215 170.401C102.215 178.465 127.636 185.002 158.994 185.002Z" fill="url(#paint7_radial_6238_13197)"/>
<path d="M474.355 51.8711C474.355 51.8711 492.991 58.4385 509.309 51.8711H474.355Z" fill="white"/>
<path style="mix-blend-mode:color-dodge" opacity="0.5" d="M491.841 66.4724C523.2 66.4724 548.62 59.9355 548.62 51.8719C548.62 43.8083 523.2 37.2715 491.841 37.2715C460.483 37.2715 435.062 43.8083 435.062 51.8719C435.062 59.9355 460.483 66.4724 491.841 66.4724Z" fill="url(#paint8_radial_6238_13197)"/>
<path style="mix-blend-mode:color-dodge" opacity="0.5" d="M175.404 51.8711C175.404 51.8711 208.226 58.3643 344.61 58.3643C480.994 58.3643 515.373 51.8711 515.373 51.8711H175.404Z" fill="url(#paint9_linear_6238_13197)"/>
<path style="mix-blend-mode:multiply" opacity="0.7" d="M298.326 51.8711C295.322 53.7077 293.004 61.2955 293.004 61.2955L298.326 67.2322H340.511C340.511 67.2322 347.929 64.3381 347.929 61.2955L344.962 51.8711H298.326Z" fill="url(#paint10_linear_6238_13197)"/>
<path d="M296.693 51.8699C299.215 65.3202 316.59 71.1269 321.504 71.1269C326.418 71.1269 343.663 66.2107 346.704 50.5898C346.704 50.5898 333.965 65.3202 321.504 65.3202C309.043 65.3202 296.693 51.8699 296.693 51.8699Z" fill="url(#paint11_linear_6238_13197)"/>
<path d="M346.686 50.5908C345.425 56.8428 334.04 65.3211 321.486 65.3211C309.786 65.3211 299.086 57.9374 296.676 51.8709C296.175 50.6093 296.027 49.4034 296.305 48.346C297.918 42.1496 308.636 31.1482 315.571 25.3043C319.447 22.0392 323.507 22.0392 327.383 25.3043C334.337 31.1482 345.036 42.1681 346.649 48.346C346.835 49.0324 346.835 49.793 346.668 50.5908H346.686Z" fill="url(#paint12_linear_6238_13197)"/>
<path style="mix-blend-mode:multiply" opacity="0.5" d="M346.686 50.5908C345.555 47.9564 340.938 45.3776 334.819 43.7265C326.919 41.6116 316.517 41.0736 307.931 44.0975C303.499 45.6559 299.55 48.1604 296.676 51.8708C296.175 50.6093 296.027 49.4034 296.305 48.346C297.918 42.1496 308.636 31.1482 315.571 25.3043C319.447 22.0392 323.507 22.0392 327.383 25.3043C334.337 31.1482 345.036 42.1681 346.649 48.346C346.835 49.0324 346.835 49.793 346.668 50.5908H346.686Z" fill="url(#paint13_linear_6238_13197)"/>
<path d="M321.487 29.9062C316.851 33.7465 304.724 44.451 306.541 49.7013C308.359 54.9515 321.487 61.1664 321.487 61.1664C321.487 61.1664 334.616 54.9515 336.433 49.7013C338.25 44.451 326.141 33.7465 321.487 29.9062Z" fill="url(#paint14_linear_6238_13197)"/>
<g style="mix-blend-mode:soft-light" opacity="0.5">
<path d="M307.319 48.6066C307.375 50.8143 316.239 60.0532 321.468 59.2184C326.697 58.3835 337.192 50.8329 335.375 48.6066C333.558 46.3804 307.245 45.9537 307.301 48.6066H307.319Z" fill="#9CE5FF"/>
</g>
<path style="mix-blend-mode:multiply" opacity="0.7" d="M164.315 51.8711C164.315 51.8711 167.541 57.2697 167.949 61.1657C168.357 65.0616 164.315 67.2322 164.315 67.2322H60.214L60.2882 170.4H118.217C118.217 170.4 122.704 172.905 124.725 176.467C124.725 176.467 123.947 182.793 122.723 185.761H44.8789V51.8711H164.333H164.315Z" fill="url(#paint15_linear_6238_13197)"/>
<path d="M160.792 67.2332C158.345 83.4291 140.432 87.0282 131.42 84.7277C130.957 84.6164 130.512 84.468 130.104 84.3196C110.133 76.973 101.102 67.2517 90.1988 58.3653C85.6929 54.692 79.7776 54.859 74.1961 57.1965C66.2968 60.5173 59.0835 68.235 57.4888 75.6372C57.4888 75.6372 54.3921 72.0938 51.2398 67.159C47.6424 61.5377 43.9895 54.1169 44.7497 48.0875C46.1775 36.7707 50.2385 31.9101 50.2385 31.9101V29.0902C50.2385 29.0902 59.7325 24.1368 70.8584 21.2612C79.4624 19.035 89.0492 18.0332 95.9286 21.5395C115.714 31.6504 114.472 49.4232 125.004 65.0255C127.674 68.9956 130.641 70.9065 133.534 71.4445C140.061 72.6504 146.217 66.7323 147.886 61.4078C151.521 49.6829 142.101 52.6513 143.176 58.8477C143.176 58.8477 134.832 57.4934 134.016 51.8721C133.404 47.5495 137.78 41.6128 144.252 41.2047C150.705 40.7965 164.13 45.2676 160.811 67.2332H160.792Z" fill="url(#paint16_linear_6238_13197)"/>
<path style="mix-blend-mode:multiply" opacity="0.5" d="M88.2157 37.2702L74.2157 57.1951C66.3163 60.5159 59.1031 68.2335 57.5084 75.6358C57.5084 75.6358 54.4117 72.0923 51.2593 67.1575C47.662 61.5362 44.009 54.1154 44.7693 48.086C46.1971 36.7693 50.258 31.9086 50.258 31.9086V29.0887C50.258 29.0887 59.7521 24.1353 70.8779 21.2598C60.5309 29.4969 88.2342 37.2702 88.2342 37.2702H88.2157Z" fill="url(#paint17_linear_6238_13197)"/>
<path d="M131.421 84.7273C130.957 84.616 130.512 84.4676 130.104 84.3192C110.133 76.9726 101.103 67.2513 90.1993 58.3649C79.2959 49.4785 60.2151 63.0029 57.4893 75.6368C57.4893 75.6368 54.3926 72.0934 51.2402 67.1586L52.5383 62.1866C56.8588 45.6753 70.1913 33.9504 86.9542 36.9744C103.513 39.9613 102.734 72.3346 131.402 84.7273H131.421Z" fill="url(#paint18_linear_6238_13197)"/>
<path d="M66.7614 145.115C66.7614 145.115 65.074 133.761 55.7839 113.149C46.4938 92.5382 33.7547 84.4866 33.7547 84.4866C28.507 77.6038 24.8355 71.5929 22.2951 66.4726C15.156 52.1133 16.862 44.7852 16.862 44.7852C27.7653 21.7436 45.7336 18.1074 45.7336 18.1074C58.8621 17.2911 65.723 22.5599 65.723 22.5599L51.7601 29.0346C41.0236 56.5101 62.6449 78.4015 66.7614 84.3382C70.878 90.2748 79.0184 118.53 66.7614 145.115Z" fill="url(#paint19_linear_6238_13197)"/>
<path style="mix-blend-mode:multiply" opacity="0.5" d="M66.7612 145.114C66.7612 145.114 65.0738 133.76 55.7837 113.149C46.4936 92.5377 33.7545 84.4861 33.7545 84.4861C28.5069 77.6033 24.8353 71.5925 22.2949 66.4721C39.8923 82.0187 43.4526 63.8748 41.6354 48.9219C41.8393 49.6825 48.2552 74.2454 66.7612 84.3192C70.8778 90.2558 79.0182 118.511 66.7612 145.096V145.114Z" fill="url(#paint20_linear_6238_13197)"/>
<path d="M59.4359 155.374C59.6028 154.836 57.6373 127.805 57.1922 127.675C56.7472 127.527 41.6531 118.826 41.6531 118.826L37.7405 131.182C54.0028 144.298 53.8545 158.732 51.3326 169.677C49.8121 176.263 45.0465 182.404 42.3207 180.938C39.6505 179.51 41.5975 176.931 41.5975 176.931C45.7141 177.58 46.6412 170.03 41.2266 168.731C41.2266 168.731 37.0359 169.139 33.8465 174.798C30.6571 180.456 38.2783 184.612 38.2783 184.612C38.2783 184.612 39.1127 184.371 40.1511 183.999L47.9949 186.485C47.9949 186.485 59.2691 155.912 59.4359 155.374Z" fill="url(#paint21_linear_6238_13197)"/>
<path d="M10.4451 97.0273C3.5471 105.097 0.357687 112.63 0.0424547 115.505C-0.272778 118.381 0.988152 134.465 9.963 139.289C18.9379 144.131 35.9419 140.272 35.9419 140.272C35.9419 140.272 9.90738 134.502 8.47956 118.956C7.05174 103.428 10.4451 97.0273 10.4451 97.0273Z" fill="url(#paint22_linear_6238_13197)"/>
<path d="M66.9824 134.818C66.9082 132.536 66.4818 130.143 65.74 127.657C65.5175 126.896 65.2765 126.136 64.9983 125.356C64.9983 125.301 64.9612 125.264 64.9612 125.264C58.2857 106.47 37.0168 84.8017 33.1228 84.3193C28.5426 83.7628 8.84985 91.4062 5.30812 107.305C1.7664 123.204 15.0062 143.593 35.9228 140.291C40.9294 139.493 42.7652 127.137 42.7652 127.137C42.7652 127.137 53.8168 134.206 55.8195 154.112C57.5255 171.013 45.491 186.894 39.0009 181.328C35.4406 178.285 37.2764 173.184 40.1691 171.774C41.1519 171.291 42.3572 172.85 42.3572 172.85C39.3347 174.649 40.985 176.875 41.5784 176.913C42.1903 176.95 45.083 177.135 44.9718 173.536C44.8605 169.937 42.5241 168.694 38.9267 167.655C37.0539 166.932 34.1055 166.134 30.4155 166.171C23.8512 166.245 21.181 168.082 21.181 168.082C8.7386 184.129 28.5797 201.086 44.7678 197.895C50.4605 196.763 54.985 191.105 58.4155 183.369C64.7387 169.121 67.3904 147.823 66.9824 134.837V134.818Z" fill="url(#paint23_linear_6238_13197)"/>
<path d="M39.1691 115.988C39.1691 115.988 36.5174 113.724 33.5134 113.186C30.5094 112.648 21.1081 116.025 20.9041 117.936C20.7002 119.846 28.9147 128.343 28.9147 128.343C28.9147 128.343 25.4657 117.88 30.5651 115.283C35.6644 112.685 39.1876 115.969 39.1876 115.969L39.1691 115.988Z" fill="url(#paint24_linear_6238_13197)"/>
<path style="mix-blend-mode:multiply" opacity="0.5" d="M39.168 115.988C41.2633 118.456 43.5256 123.539 42.7839 127.138C42.0421 130.719 41.0223 134.039 41.0223 134.039C41.0223 134.039 43.6739 136.6 45.0276 138.418C45.0276 138.418 49.5521 140.05 51.9998 139.178C51.9998 139.178 49.9786 132.333 45.7322 124.429C41.4859 116.526 39.1865 115.988 39.1865 115.988H39.168Z" fill="url(#paint25_linear_6238_13197)"/>
<path style="mix-blend-mode:color-dodge" opacity="0.5" d="M29.5625 84.7637C42.042 88.103 59.9361 114.632 59.9361 114.632C59.9361 114.632 53.6129 104.002 45.3241 94.8374C37.0168 85.6727 34.7917 84.9492 33.7532 84.4668C32.7148 83.9845 29.5625 84.7451 29.5625 84.7451V84.7637Z" fill="url(#paint26_linear_6238_13197)"/>
<path style="mix-blend-mode:color-dodge" opacity="0.5" d="M21.1993 168.063C15.9701 176.133 23.3317 180.734 30.1185 177.877C36.9053 175.02 40.2245 168.397 40.2245 168.397C40.2245 168.397 37.9252 166.282 30.4152 166.152C22.9238 166.023 21.1807 168.063 21.1807 168.063H21.1993Z" fill="url(#paint27_linear_6238_13197)"/>
<path style="mix-blend-mode:color-dodge" opacity="0.5" d="M32.6408 115.004C22.3123 120.755 38.6117 134.948 41.5601 126.748C44.4342 118.77 36.7203 112.722 32.6408 115.004Z" fill="url(#paint28_linear_6238_13197)"/>
<path d="M37.2394 88.9392C24.0552 86.7686 47.1043 105.766 50.2566 100.627C50.2566 100.627 41.5599 89.6442 37.2394 88.9392Z" fill="white"/>
<path d="M35.4044 115.208C30.2494 114.837 39.762 120.217 38.9647 117.972C38.1673 115.727 38.1673 115.412 35.4044 115.208Z" fill="white"/>
<path style="mix-blend-mode:color-dodge" opacity="0.5" d="M61.3095 101.757C57.4154 114.076 45.4366 121.256 34.5889 117.824C23.7226 114.373 18.0855 101.609 21.9981 89.2905C25.9107 76.972 37.871 69.7923 48.7187 73.2244C59.5664 76.6566 65.2221 89.4389 61.3095 101.757Z" fill="url(#paint29_radial_6238_13197)"/>
<path d="M120.016 186.484C120.035 200.825 108.445 202.031 99.8784 198.265C92.2942 194.926 95.4095 187.505 99.8784 188.97C99.8784 188.97 98.4691 185.427 95.3724 182.459C92.6651 179.861 88.6413 177.709 83.1154 178.73C71.2664 180.9 65.4809 185.483 67.02 189.527C67.1869 189.212 70.4505 187.653 73.4916 188.933C77.4598 190.621 78.7949 196.261 76.1061 200.844C73.7141 204.907 64.1273 206.242 58.0081 203.812C52.8716 201.79 49.9604 190.603 61.8465 178.73C72.3419 168.248 88.9009 161.235 99.8784 161.773C107.407 162.144 114.082 168.266 117.513 175.78C119.089 179.212 119.979 182.922 119.998 186.503L120.016 186.484Z" fill="url(#paint30_linear_6238_13197)"/>
<path style="mix-blend-mode:multiply" opacity="0.5" d="M120.016 186.485C120.035 200.826 108.445 202.032 99.8782 198.266C92.294 194.927 95.4093 187.506 99.8782 188.971C99.8782 188.971 98.4689 185.428 95.3722 182.46C97.3192 179.065 100.36 173.406 100.36 173.406C107.518 181.05 117.865 179.528 117.531 175.781C119.107 179.213 119.997 182.923 120.016 186.504V186.485Z" fill="url(#paint31_linear_6238_13197)"/>
<path d="M105.96 191.958C103.531 196.206 99.8781 192.96 99.8781 192.96C99.8781 192.96 101.714 191.346 99.8781 188.971C99.8781 188.971 94.9641 176.541 83.1151 178.712C71.2661 180.882 65.4806 185.465 67.0197 189.509C63.9416 192.83 64.5535 195.594 64.5535 195.594C58.2303 174.63 93.0542 171.068 98.4873 172.441C103.92 173.814 108.389 187.728 105.96 191.958Z" fill="url(#paint32_linear_6238_13197)"/>
<path d="M64.5532 195.594C65.4433 198.748 69.5413 198.265 69.5413 198.265C69.5413 198.265 67.6499 202.736 63.0883 200.436C58.5082 198.154 61.3638 186.151 67.5016 181.68C67.5016 181.68 65.4804 187.208 67.038 189.509C67.038 189.509 63.6261 192.217 64.5718 195.594H64.5532Z" fill="url(#paint33_linear_6238_13197)"/>
<path style="mix-blend-mode:color-dodge" opacity="0.5" d="M76.0135 168.396C67.5764 173.108 87.0466 171.086 95.2612 169.732C103.476 168.378 106.832 164.741 105.497 163.127C104.143 161.513 91.1076 159.955 76.0135 168.396Z" fill="url(#paint34_linear_6238_13197)"/>
<path style="mix-blend-mode:multiply" opacity="0.5" d="M107.074 180.437C107 184.074 107.37 196.392 108.075 197.004C108.78 197.617 117.365 198.192 118.978 191.383C120.592 184.575 118.682 180.53 115.752 180.437C112.822 180.345 107.111 178.323 107.074 180.437Z" fill="url(#paint35_linear_6238_13197)"/>
<path style="mix-blend-mode:multiply" opacity="0.5" d="M20.8857 183.889C20.3294 189.232 29.4155 195.391 37.6857 195.595C45.9559 195.799 39.7625 184.204 36.4248 180.494C33.087 176.783 21.3121 179.77 20.8857 183.889Z" fill="url(#paint36_linear_6238_13197)"/>
<path d="M89.8458 162.943C89.8458 162.943 89.7346 165.281 96.0578 164.891C102.381 164.483 101.435 161.923 101.435 161.923C101.435 161.923 95.6684 161.181 89.8458 162.943Z" fill="white"/>
<path style="mix-blend-mode:color-dodge" opacity="0.5" d="M94.241 179.12C103.018 179.12 110.132 172.002 110.132 163.221C110.132 154.441 103.018 147.322 94.241 147.322C85.4644 147.322 78.3496 154.441 78.3496 163.221C78.3496 172.002 85.4644 179.12 94.241 179.12Z" fill="url(#paint37_radial_6238_13197)"/>
<path style="mix-blend-mode:color-dodge" opacity="0.5" d="M64.5537 195.594C65.2583 198.841 78.5908 196.559 77.1259 193.108C75.661 189.657 73.2875 188.21 70.1352 188.452C66.9828 188.693 63.9418 192.811 64.5537 195.575V195.594Z" fill="url(#paint38_linear_6238_13197)"/>
<path d="M66.7607 84.3196C66.7607 84.3196 55.2269 76.8803 50.2388 68.2907C45.2507 59.7011 32.2334 33.0047 45.7328 18.1074C58.8613 17.2911 65.7222 22.5599 65.7222 22.5599L51.7593 29.0346C41.0229 56.5101 62.6441 78.4015 66.7607 84.3382V84.3196Z" fill="url(#paint39_linear_6238_13197)"/>
<path d="M63.3492 23.6716L55.2644 22.0391C55.2644 22.0391 53.5028 23.5418 51.7598 29.0332L63.3492 23.6716Z" fill="url(#paint40_linear_6238_13197)"/>
<path style="mix-blend-mode:multiply" opacity="0.5" d="M65.9083 87.2868C60.4566 83.7804 49.1082 94.151 51.9824 99.4754C54.8566 104.8 66.7427 131.589 69.9321 125.003C73.1401 118.417 73.4368 92.1288 65.8897 87.2868H65.9083Z" fill="url(#paint41_linear_6238_13197)"/>
<path style="mix-blend-mode:color-dodge" opacity="0.5" d="M77.3486 21.261C71.4519 23.6357 109.261 47.2895 110.467 43.6348C111.672 39.9986 110.541 34.1918 108.278 31.5574C106.016 28.923 94.0373 14.4895 77.3486 21.2424V21.261Z" fill="url(#paint42_linear_6238_13197)"/>
<path d="M153.282 60.6274C150.074 70.0704 139.003 74.2446 133.533 71.4618C140.06 72.6677 146.217 66.7496 147.886 61.4251C151.52 49.7003 142.1 52.6686 143.176 58.865C139.43 55.9152 138.317 50.3125 143.176 48.4758C148.034 46.6206 156.119 52.3346 153.3 60.6274H153.282Z" fill="url(#paint43_linear_6238_13197)"/>
<g style="mix-blend-mode:soft-light" opacity="0.5">
<path d="M17.9727 47.2889C18.7144 66.9541 30.8416 65.6554 33.8641 60.2011C36.8866 54.7654 39.631 24.9708 36.4416 24.6369C33.2522 24.3029 17.6203 37.9387 17.9727 47.2889Z" fill="#9CE5FF"/>
</g>
<path d="M93.0922 20.6113C93.0922 20.6113 92.4247 26.5294 96.4485 29.034C100.491 31.5385 102.735 26.0656 102.735 26.0656C102.735 26.0656 97.6353 21.5946 93.0922 20.6113Z" fill="white"/>
<path d="M88.2139 37.2715C101.973 41.019 105.774 56.881 110.966 65.4706C116.158 74.0416 121.647 79.0136 121.647 79.0136C121.647 79.0136 112.524 74.2086 106.479 60.6285C96.3913 37.9208 88.1953 37.29 88.1953 37.29L88.2139 37.2715Z" fill="url(#paint44_linear_6238_13197)"/>
<path d="M41.727 24.5264C35.0701 34.9526 38.074 54.5436 51.9814 70.9065C51.9814 70.9065 41.3376 55.0074 40.225 41.0377C39.1125 27.068 41.7085 24.5078 41.7085 24.5078L41.727 24.5264Z" fill="url(#paint45_linear_6238_13197)"/>
<path style="mix-blend-mode:multiply" opacity="0.5" d="M65.7398 22.5598L56.1901 26.9752C56.1901 26.9752 49.0325 41.5385 54.1689 56.1761L63.867 64.5059C63.867 64.5059 59.4537 68.5503 58.4709 73.1697L66.7597 84.3381C66.7597 84.3381 54.4656 77.2697 48.1981 64.5059C41.9305 51.7421 34.198 30.7783 45.7318 18.1258C45.7318 18.1258 57.3954 16.6417 65.7213 22.5783L65.7398 22.5598Z" fill="url(#paint46_linear_6238_13197)"/>
<path style="mix-blend-mode:color-dodge" opacity="0.5" d="M56.1721 108.66C61.8648 122.723 50.2383 134.243 50.2383 134.243C50.2383 134.243 54.3734 141.33 55.8198 154.113C55.8198 154.113 50.0899 117.732 64.98 125.338C64.98 125.338 62.9774 120.329 60.7893 116.192C58.6012 112.074 56.1535 108.66 56.1535 108.66H56.1721Z" fill="url(#paint47_linear_6238_13197)"/>
<g style="mix-blend-mode:soft-light" opacity="0.5">
<path d="M119.09 67.4917C114.825 74.4302 127.452 85.2089 136.186 84.7265C144.92 84.2442 152.745 76.508 148.295 74.894C143.845 73.2799 138.745 73.7808 133.905 72.2967C129.066 70.8125 120.165 65.7478 119.09 67.4917Z" fill="#9CE5FF"/>
</g>
<g style="mix-blend-mode:soft-light" opacity="0.5">
<path d="M146.347 72.2979C150.945 77.9563 160.18 69.4038 158.863 65.378C157.547 61.3337 144.826 70.4427 146.347 72.2979Z" fill="#9CE5FF"/>
</g>
<path d="M68.4665 99.4769C66.8532 99.514 65.4996 109.384 68.4665 109.773C71.4333 110.163 72.2307 99.4027 68.4665 99.4769Z" fill="url(#paint48_linear_6238_13197)"/>
<path style="mix-blend-mode:color-dodge" opacity="0.5" d="M89.8456 65.7855C108.003 65.7855 122.723 51.0589 122.723 32.8928C122.723 14.7266 108.003 0 89.8456 0C71.6882 0 56.9688 14.7266 56.9688 32.8928C56.9688 51.0589 71.6882 65.7855 89.8456 65.7855Z" fill="url(#paint49_radial_6238_13197)"/>
<path style="mix-blend-mode:multiply" opacity="0.7" d="M478.695 51.8711C478.695 51.8711 475.468 57.2697 475.06 61.1657C474.652 65.0616 478.695 67.2322 478.695 67.2322H582.796L582.721 170.4H524.793C524.793 170.4 520.305 172.905 518.284 176.467C518.284 176.467 519.063 182.793 520.287 185.761H598.149V51.8711H478.695Z" fill="url(#paint50_linear_6238_13197)"/>
<path d="M482.218 67.2332C484.665 83.4291 502.578 87.0282 511.59 84.7277C512.053 84.6164 512.498 84.468 512.906 84.3196C532.877 76.973 541.908 67.2517 552.811 58.3653C557.317 54.692 563.232 54.859 568.814 57.1965C576.713 60.5173 583.926 68.235 585.521 75.6372C585.521 75.6372 588.618 72.0938 591.77 67.159C595.368 61.5377 599.021 54.1169 598.26 48.0875C596.832 36.7707 592.772 31.9101 592.772 31.9101V29.0902C592.772 29.0902 583.277 24.1368 572.152 21.2612C563.548 19.035 553.961 18.0332 547.081 21.5395C527.296 31.6504 528.538 49.4232 518.006 65.0255C515.336 68.9956 512.369 70.9065 509.476 71.4445C502.949 72.6504 496.793 66.7323 495.124 61.4078C491.489 49.6829 500.909 52.6513 499.834 58.8477C499.834 58.8477 508.178 57.4934 508.994 51.8721C509.606 47.5495 505.23 41.6128 498.758 41.2047C492.305 40.7965 478.88 45.2676 482.199 67.2332H482.218Z" fill="url(#paint51_linear_6238_13197)"/>
<path style="mix-blend-mode:multiply" opacity="0.5" d="M554.796 37.2702L568.796 57.1951C576.695 60.5159 583.909 68.2335 585.503 75.6358C585.503 75.6358 588.6 72.0923 591.752 67.1575C595.35 61.5362 599.003 54.1154 598.242 48.086C596.815 36.7693 592.754 31.9086 592.754 31.9086V29.0887C592.754 29.0887 583.26 24.1353 572.134 21.2598C582.481 29.4969 554.777 37.2702 554.777 37.2702H554.796Z" fill="url(#paint52_linear_6238_13197)"/>
<path d="M511.59 84.7273C512.053 84.616 512.498 84.4676 512.906 84.3192C532.877 76.9726 541.908 67.2513 552.811 58.3649C563.714 49.4785 582.795 63.0029 585.521 75.6368C585.521 75.6368 588.618 72.0934 591.77 67.1586L590.472 62.1866C586.152 45.6753 572.819 33.9504 556.056 36.9744C539.497 39.9613 540.276 72.3346 511.608 84.7273H511.59Z" fill="url(#paint53_linear_6238_13197)"/>
<path d="M576.25 145.115C576.25 145.115 577.937 133.761 587.227 113.149C596.517 92.5382 609.256 84.4866 609.256 84.4866C614.504 77.6038 618.176 71.5929 620.716 66.4726C627.855 52.1133 626.149 44.7852 626.149 44.7852C615.246 21.7436 597.278 18.1074 597.278 18.1074C584.149 17.2911 577.288 22.5599 577.288 22.5599L591.251 29.0346C601.988 56.5101 580.366 78.4015 576.25 84.3382C572.133 90.2748 563.993 118.53 576.25 145.115Z" fill="url(#paint54_linear_6238_13197)"/>
<path style="mix-blend-mode:multiply" opacity="0.5" d="M576.25 145.114C576.25 145.114 577.937 133.76 587.227 113.149C596.517 92.5377 609.256 84.4861 609.256 84.4861C614.504 77.6033 618.176 71.5925 620.716 66.4721C603.119 82.0187 599.558 63.8748 601.376 48.9219C601.172 49.6825 594.756 74.2454 576.25 84.3192C572.133 90.2558 563.993 118.511 576.25 145.096V145.114Z" fill="url(#paint55_linear_6238_13197)"/>
<path d="M583.574 155.374C583.408 154.836 585.373 127.805 585.818 127.675C586.263 127.527 601.357 118.826 601.357 118.826L605.27 131.182C589.008 144.298 589.156 158.732 591.678 169.677C593.198 176.263 597.964 182.404 600.69 180.938C603.36 179.51 601.413 176.931 601.413 176.931C597.296 177.58 596.369 170.03 601.784 168.731C601.784 168.731 605.975 169.139 609.164 174.798C612.353 180.475 604.732 184.612 604.732 184.612C604.732 184.612 603.898 184.371 602.859 183.999L595.016 186.485C595.016 186.485 583.741 155.912 583.574 155.374Z" fill="url(#paint56_linear_6238_13197)"/>
<path d="M632.584 97.0273C639.482 105.097 642.653 112.63 642.968 115.505C643.283 118.381 642.022 134.465 633.047 139.289C624.072 144.112 607.068 140.272 607.068 140.272C607.068 140.272 633.103 134.502 634.531 118.956C635.958 103.428 632.565 97.0273 632.565 97.0273H632.584Z" fill="url(#paint57_linear_6238_13197)"/>
<path d="M576.027 134.818C576.101 132.536 576.528 130.143 577.269 127.657C577.492 126.896 577.733 126.136 578.011 125.356C578.011 125.301 578.048 125.264 578.048 125.264C584.724 106.47 605.993 84.8017 609.887 84.3193C614.467 83.7628 634.159 91.4062 637.701 107.305C641.243 123.204 628.003 143.593 607.087 140.291C602.08 139.493 600.244 127.137 600.244 127.137C600.244 127.137 589.193 134.206 587.19 154.112C585.484 171.013 597.518 186.894 604.008 181.328C607.569 178.285 605.733 173.184 602.84 171.774C601.857 171.291 600.652 172.85 600.652 172.85C603.675 174.649 602.024 176.875 601.431 176.913C600.819 176.95 597.926 177.135 598.038 173.536C598.149 169.937 600.485 168.694 604.083 167.655C605.955 166.932 608.904 166.134 612.594 166.171C619.158 166.245 621.828 168.082 621.828 168.082C634.271 184.129 614.43 201.086 598.242 197.895C592.549 196.763 588.024 191.105 584.594 183.369C578.271 169.121 575.619 147.823 576.027 134.837V134.818Z" fill="url(#paint58_linear_6238_13197)"/>
<path d="M603.843 115.988C603.843 115.988 606.494 113.724 609.498 113.186C612.502 112.648 621.904 116.025 622.108 117.936C622.312 119.846 614.097 128.343 614.097 128.343C614.097 128.343 617.546 117.88 612.447 115.283C607.347 112.685 603.824 115.969 603.824 115.969L603.843 115.988Z" fill="url(#paint59_linear_6238_13197)"/>
<path style="mix-blend-mode:multiply" opacity="0.5" d="M603.842 115.988C601.746 118.456 599.484 123.539 600.226 127.138C600.967 130.719 601.987 134.039 601.987 134.039C601.987 134.039 599.336 136.6 597.982 138.418C597.982 138.418 593.457 140.05 591.01 139.178C591.01 139.178 593.031 132.333 597.277 124.429C601.524 116.526 603.823 115.988 603.823 115.988H603.842Z" fill="url(#paint60_linear_6238_13197)"/>
<path style="mix-blend-mode:color-dodge" opacity="0.5" d="M613.448 84.7637C600.968 88.103 583.074 114.632 583.074 114.632C583.074 114.632 589.397 104.002 597.686 94.8374C605.993 85.6727 608.219 84.9492 609.257 84.4668C610.295 83.9845 613.448 84.7451 613.448 84.7451V84.7637Z" fill="url(#paint61_linear_6238_13197)"/>
<path style="mix-blend-mode:color-dodge" opacity="0.5" d="M621.828 168.063C627.057 176.133 619.696 180.734 612.909 177.877C606.122 175.02 602.803 168.397 602.803 168.397C602.803 168.397 605.102 166.282 612.612 166.152C620.103 166.023 621.847 168.063 621.847 168.063H621.828Z" fill="url(#paint62_linear_6238_13197)"/>
<path style="mix-blend-mode:color-dodge" opacity="0.5" d="M610.368 115.004C620.697 120.755 604.397 134.948 601.449 126.748C598.575 118.77 606.289 112.722 610.368 115.004Z" fill="url(#paint63_linear_6238_13197)"/>
<path d="M605.771 88.9392C618.955 86.7686 595.906 105.766 592.754 100.627C592.754 100.627 601.451 89.6442 605.771 88.9392Z" fill="white"/>
<path d="M607.606 115.208C612.761 114.837 603.248 120.217 604.046 117.972C604.843 115.727 604.843 115.412 607.606 115.208Z" fill="white"/>
<path style="mix-blend-mode:color-dodge" opacity="0.5" d="M608.437 117.778C619.293 114.335 624.929 101.56 621.026 89.2436C617.124 76.9275 605.16 69.7345 594.304 73.1777C583.449 76.6209 577.812 89.3963 581.715 101.712C585.617 114.029 597.581 121.221 608.437 117.778Z" fill="url(#paint64_radial_6238_13197)"/>
<path d="M523.012 186.484C522.993 200.825 534.583 202.031 543.15 198.265C550.734 194.926 547.618 187.505 543.15 188.97C543.15 188.97 544.559 185.427 547.656 182.459C550.363 179.861 554.387 177.709 559.913 178.73C571.762 180.9 577.547 185.483 576.008 189.527C575.841 189.212 572.577 187.653 569.536 188.933C565.568 190.621 564.233 196.261 566.922 200.844C569.314 204.907 578.901 206.242 585.02 203.812C590.156 201.79 593.068 190.603 581.181 178.73C570.686 168.248 554.127 161.235 543.15 161.773C535.621 162.144 528.946 168.266 525.515 175.78C523.939 179.212 523.049 182.922 523.03 186.503L523.012 186.484Z" fill="url(#paint65_linear_6238_13197)"/>
<path style="mix-blend-mode:multiply" opacity="0.5" d="M523.012 186.485C522.993 200.826 534.583 202.032 543.15 198.266C550.734 194.927 547.618 187.506 543.15 188.971C543.15 188.971 544.559 185.428 547.656 182.46C545.708 179.065 542.667 173.406 542.667 173.406C535.51 181.05 525.163 179.528 525.497 175.781C523.92 179.213 523.03 182.923 523.012 186.504V186.485Z" fill="url(#paint66_linear_6238_13197)"/>
<path d="M537.049 191.958C539.479 196.206 543.132 192.96 543.132 192.96C543.132 192.96 541.296 191.346 543.132 188.971C543.132 188.971 548.045 176.541 559.895 178.712C571.744 180.882 577.529 185.465 575.99 189.509C579.068 192.83 578.456 195.594 578.456 195.594C584.779 174.63 549.955 171.068 544.522 172.441C539.089 173.814 534.62 187.728 537.049 191.958Z" fill="url(#paint67_linear_6238_13197)"/>
<path d="M578.457 195.594C577.567 198.748 573.469 198.265 573.469 198.265C573.469 198.265 575.36 202.736 579.922 200.436C584.502 198.154 581.646 186.151 575.527 181.68C575.527 181.68 577.548 187.208 575.991 189.509C575.991 189.509 579.403 192.217 578.457 195.594Z" fill="url(#paint68_linear_6238_13197)"/>
<path style="mix-blend-mode:color-dodge" opacity="0.5" d="M567.016 168.396C575.453 173.108 555.983 171.086 547.768 169.732C539.554 168.378 536.197 164.741 537.533 163.127C538.886 161.513 551.922 159.955 567.016 168.396Z" fill="url(#paint69_linear_6238_13197)"/>
<path style="mix-blend-mode:multiply" opacity="0.5" d="M535.936 180.437C536.011 184.074 535.64 196.392 534.935 197.004C534.231 197.617 525.645 198.192 524.032 191.383C522.419 184.575 524.329 180.53 527.258 180.437C530.188 180.345 535.899 178.323 535.936 180.437Z" fill="url(#paint70_linear_6238_13197)"/>
<path style="mix-blend-mode:multiply" opacity="0.5" d="M622.125 183.889C622.681 189.232 613.595 195.391 605.325 195.595C597.036 195.799 603.248 184.204 606.586 180.494C609.923 176.783 621.698 179.77 622.125 183.889Z" fill="url(#paint71_linear_6238_13197)"/>
<path d="M553.163 162.943C553.163 162.943 553.274 165.281 546.951 164.891C540.628 164.483 541.574 161.923 541.574 161.923C541.574 161.923 547.34 161.181 553.163 162.943Z" fill="white"/>
<path style="mix-blend-mode:color-dodge" opacity="0.5" d="M548.768 179.12C557.545 179.12 564.66 172.002 564.66 163.221C564.66 154.441 557.545 147.322 548.768 147.322C539.992 147.322 532.877 154.441 532.877 163.221C532.877 172.002 539.992 179.12 548.768 179.12Z" fill="url(#paint72_radial_6238_13197)"/>
<path style="mix-blend-mode:color-dodge" opacity="0.5" d="M578.456 195.594C577.751 198.841 564.419 196.559 565.884 193.108C567.349 189.657 569.722 188.21 572.875 188.452C576.027 188.711 579.068 192.811 578.456 195.575V195.594Z" fill="url(#paint73_linear_6238_13197)"/>
<path d="M576.25 84.3196C576.25 84.3196 587.784 76.8803 592.772 68.2907C597.76 59.7011 610.777 33.0047 597.278 18.1074C584.149 17.2911 577.288 22.5599 577.288 22.5599L591.251 29.0346C601.988 56.5101 580.367 78.4015 576.25 84.3382V84.3196Z" fill="url(#paint74_linear_6238_13197)"/>
<path d="M579.662 23.6716L587.747 22.0391C587.747 22.0391 589.508 23.5418 591.252 29.0332L579.662 23.6716Z" fill="url(#paint75_linear_6238_13197)"/>
<path style="mix-blend-mode:multiply" opacity="0.5" d="M577.103 87.2868C582.555 83.7804 593.903 94.151 591.029 99.4754C588.155 104.8 576.268 131.589 573.079 125.003C569.871 118.417 569.574 92.1288 577.122 87.2868H577.103Z" fill="url(#paint76_linear_6238_13197)"/>
<path style="mix-blend-mode:color-dodge" opacity="0.5" d="M565.662 21.261C571.559 23.6357 533.749 47.2895 532.544 43.6348C531.339 39.9986 532.47 34.1918 534.732 31.5574C536.994 28.923 548.973 14.4895 565.662 21.2424V21.261Z" fill="url(#paint77_linear_6238_13197)"/>
<path d="M489.727 60.6274C492.935 70.0704 504.005 74.2446 509.475 71.4618C502.948 72.6677 496.792 66.7496 495.123 61.4251C491.489 49.7003 500.909 52.6686 499.833 58.865C503.579 55.9152 504.691 50.3125 499.833 48.4758C494.975 46.6206 486.89 52.3346 489.709 60.6274H489.727Z" fill="url(#paint78_linear_6238_13197)"/>
<g style="mix-blend-mode:soft-light" opacity="0.5">
<path d="M625.036 47.2889C624.294 66.9541 612.167 65.6554 609.145 60.2011C606.122 54.7654 603.378 24.9708 606.567 24.6369C609.756 24.3029 625.388 37.9387 625.036 47.2889Z" fill="#9CE5FF"/>
</g>
<path d="M549.918 20.6113C549.918 20.6113 550.585 26.5294 546.562 29.034C542.519 31.5385 540.275 26.0656 540.275 26.0656C540.275 26.0656 545.375 21.5946 549.918 20.6113Z" fill="white"/>
<path d="M554.795 37.2715C541.036 41.019 537.234 56.881 532.042 65.4706C526.85 74.0602 521.361 79.0136 521.361 79.0136C521.361 79.0136 530.485 74.2086 536.53 60.6285C546.617 37.9208 554.813 37.29 554.813 37.29L554.795 37.2715Z" fill="url(#paint79_linear_6238_13197)"/>
<path d="M601.284 24.5264C607.941 34.9526 604.937 54.5436 591.029 70.9065C591.029 70.9065 601.673 55.0074 602.786 41.0377C603.898 27.068 601.302 24.5078 601.302 24.5078L601.284 24.5264Z" fill="url(#paint80_linear_6238_13197)"/>
<path style="mix-blend-mode:multiply" opacity="0.5" d="M577.27 22.5598L586.82 26.9752C586.82 26.9752 593.977 41.5385 588.841 56.1761L579.143 64.5059C579.143 64.5059 583.556 68.5503 584.539 73.1697L576.25 84.3381C576.25 84.3381 588.544 77.2697 594.812 64.5059C601.079 51.7421 608.812 30.7783 597.278 18.1258C597.278 18.1258 585.614 16.6417 577.288 22.5783L577.27 22.5598Z" fill="url(#paint81_linear_6238_13197)"/>
<path style="mix-blend-mode:color-dodge" opacity="0.5" d="M586.837 108.66C581.145 122.723 592.771 134.243 592.771 134.243C592.771 134.243 588.636 141.33 587.19 154.113C587.19 154.113 592.919 117.732 578.029 125.338C578.029 125.338 580.032 120.329 582.22 116.192C584.408 112.074 586.856 108.66 586.856 108.66H586.837Z" fill="url(#paint82_linear_6238_13197)"/>
<g style="mix-blend-mode:soft-light" opacity="0.5">
<path d="M523.921 67.4917C528.186 74.4302 515.558 85.2089 506.824 84.7265C498.091 84.2442 490.265 76.508 494.716 74.894C499.166 73.2799 504.265 73.7808 509.105 72.2967C513.945 70.8125 522.846 65.7478 523.921 67.4917Z" fill="#9CE5FF"/>
</g>
<g style="mix-blend-mode:soft-light" opacity="0.5">
<path d="M496.663 72.2979C492.065 77.9563 482.83 69.4038 484.147 65.378C485.463 61.3337 498.184 70.4427 496.663 72.2979Z" fill="#9CE5FF"/>
</g>
<path d="M574.545 99.4769C576.158 99.514 577.512 109.384 574.545 109.773C571.578 110.181 570.78 99.4027 574.545 99.4769Z" fill="url(#paint83_linear_6238_13197)"/>
<path style="mix-blend-mode:color-dodge" opacity="0.5" d="M553.164 65.7855C571.321 65.7855 586.041 51.0589 586.041 32.8928C586.041 14.7266 571.321 0 553.164 0C535.007 0 520.287 14.7266 520.287 32.8928C520.287 51.0589 535.007 65.7855 553.164 65.7855Z" fill="url(#paint84_radial_6238_13197)"/>
<path style="mix-blend-mode:multiply" opacity="0.7" d="M197.898 170.14C190.629 176.336 199.789 185.76 199.789 185.76H321.487C321.487 185.76 321.098 172.96 316.852 170.399L197.898 170.121V170.14Z" fill="url(#paint85_linear_6238_13197)"/>
<path d="M316.129 187.486C313.867 197.857 297.679 205 297.679 205C297.679 205 301.072 201.048 300.887 195.705C300.757 192.162 299.96 188.173 295.046 185.798C292.561 184.592 289.001 183.813 283.957 183.72C271.848 183.498 261.334 189.1 250.301 194.221C249.912 194.406 249.504 194.592 249.077 194.759C248.874 194.852 248.688 194.926 248.484 195.019C236.95 199.879 216.275 204.35 207.485 192.867C203.406 187.542 199.809 179.268 201.292 173.443C201.385 173.109 201.477 172.793 201.589 172.478V172.459C202.479 170.122 204.314 168.267 207.467 167.302C218.5 163.907 227.66 169.194 227.938 177.598C228.198 186.002 218.518 184.277 218.518 184.277C218.685 184.184 221.801 182.199 220.391 179.991C217.74 175.817 213.66 179.157 213.66 184.017C213.66 185.353 214.179 186.596 215.236 187.542C215.885 188.117 216.738 188.6 217.795 188.934C217.795 188.934 217.814 188.934 217.832 188.934C221.393 190.047 227.326 189.601 236.005 186.169C238.601 185.13 241.772 183.498 245.295 181.513C245.332 181.513 245.35 181.476 245.369 181.476C245.443 181.438 245.499 181.401 245.536 181.383C245.536 181.383 245.554 181.383 245.573 181.383C245.573 181.383 245.591 181.383 245.61 181.383C263.207 171.346 289.223 152.46 296.585 153.351C296.9 153.388 297.215 153.443 297.531 153.518C306.468 155.429 320.116 169.12 316.092 187.579L316.129 187.486Z" fill="url(#paint86_linear_6238_13197)"/>
<path style="mix-blend-mode:multiply" opacity="0.5" d="M316.128 187.486C313.866 197.857 297.678 204.999 297.678 204.999C297.678 204.999 301.071 201.048 300.886 195.705C300.756 192.161 299.959 188.173 295.045 185.798C298.679 177.784 302.128 171.699 304.187 171.866C310.102 172.329 308.452 160.215 297.548 153.443C306.486 155.354 320.134 169.046 316.11 187.505L316.128 187.486Z" fill="url(#paint87_linear_6238_13197)"/>
<path d="M297.677 204.999C297.677 204.999 301.071 201.048 300.885 195.705C300.7 190.362 298.957 183.998 283.955 183.72C271.847 183.498 261.333 189.1 250.3 194.221C249.725 194.48 249.113 194.759 248.482 195.018C273.942 175.873 301.163 168.712 304.204 171.847C307.227 175.001 310.861 194.351 297.696 204.981L297.677 204.999Z" fill="url(#paint88_linear_6238_13197)"/>
<path d="M218.537 184.258C218.704 184.165 221.819 182.18 220.41 179.973C217.758 175.798 213.679 179.138 213.679 183.998C213.679 186.15 214.995 188.024 217.814 188.915C210.86 187.078 208.802 179.694 208.931 176.058C209.061 172.422 221.04 171.068 223.747 174.166C226.436 177.264 223.896 182.644 218.537 184.239V184.258Z" fill="url(#paint89_linear_6238_13197)"/>
<path style="mix-blend-mode:multiply" opacity="0.5" d="M274.239 181.976C282.453 183.813 295.378 184.666 297.937 183.72C300.496 182.774 306.411 173.016 302.777 171.847C299.142 170.678 266.432 180.214 274.239 181.976Z" fill="url(#paint90_linear_6238_13197)"/>
<g style="mix-blend-mode:soft-light" opacity="0.5">
<path d="M246.907 184.129C237.024 199.286 287.628 169.936 292.875 165.094C298.123 160.252 297.511 153.685 290.539 154.742C290.539 154.742 252.414 175.669 246.888 184.147L246.907 184.129Z" fill="#9CE5FF"/>
</g>
<path style="mix-blend-mode:color-dodge" opacity="0.5" d="M266.84 173.331C280.154 177.95 296.194 159.101 292.411 157.079C288.647 155.057 257.402 170.066 266.84 173.331Z" fill="url(#paint91_linear_6238_13197)"/>
<g style="mix-blend-mode:soft-light" opacity="0.5">
<path d="M204.833 169.584C205.594 174.056 220.929 172.312 221.745 171.143C222.56 169.993 219.445 166.319 213.938 166.245C207.874 166.152 204.629 168.304 204.833 169.584Z" fill="#9CE5FF"/>
</g>
<path style="mix-blend-mode:multiply" opacity="0.5" d="M266.323 183.536L249.077 194.778C248.874 194.871 248.688 194.945 248.484 195.038C236.95 199.898 216.275 204.369 207.485 192.886C203.406 187.561 199.809 179.287 201.292 173.462C201.459 172.924 201.57 172.59 201.589 172.497V172.479C202.794 181.476 208.932 176.096 208.932 176.096C208.932 176.096 209.228 184.445 215.236 187.561C215.885 188.136 216.738 188.619 217.795 188.953C217.795 188.953 217.814 188.953 217.832 188.953C221.393 190.066 227.326 189.621 236.005 186.188C238.601 185.15 241.772 183.517 245.295 181.532C243.088 182.831 230.664 190.437 237.729 193.201C245.146 196.114 264.691 184.537 266.304 183.573L266.323 183.536Z" fill="url(#paint92_linear_6238_13197)"/>
<path d="M273.035 164.89C273.035 164.89 272.423 167.506 277.763 166.263C283.122 165.02 282.974 159.102 282.974 159.102C282.974 159.102 273.981 162.738 273.035 164.89Z" fill="white"/>
<path style="mix-blend-mode:multiply" opacity="0.7" d="M445.078 170.14C452.347 176.336 443.187 185.76 443.187 185.76H321.488C321.488 185.76 321.878 172.96 326.124 170.399L445.078 170.121V170.14Z" fill="url(#paint93_linear_6238_13197)"/>
<path d="M326.865 187.486C329.127 197.857 345.315 205 345.315 205C345.315 205 341.922 201.048 342.107 195.705C342.237 192.162 343.035 188.173 347.949 185.798C350.433 184.592 353.994 183.813 359.037 183.72C371.146 183.498 381.66 189.1 392.693 194.221C393.082 194.406 393.49 194.592 393.917 194.759C394.121 194.852 394.306 194.926 394.51 195.019C406.044 199.879 426.72 204.35 435.509 192.867C439.588 187.542 443.186 179.268 441.702 173.443C441.61 173.109 441.517 172.793 441.406 172.478V172.459C440.516 170.122 438.68 168.267 435.528 167.302C424.494 163.907 415.334 169.194 415.056 177.598C414.796 186.002 424.476 184.277 424.476 184.277C424.309 184.184 421.194 182.199 422.603 179.991C425.255 175.817 429.334 179.157 429.334 184.017C429.334 185.353 428.815 186.596 427.758 187.542C427.109 188.117 426.256 188.6 425.199 188.934C425.199 188.934 425.18 188.934 425.162 188.934C421.602 190.047 415.668 189.601 406.99 186.169C404.394 185.13 401.223 183.498 397.7 181.513C397.663 181.513 397.644 181.476 397.625 181.476C397.551 181.438 397.496 181.401 397.459 181.383C397.459 181.383 397.44 181.383 397.422 181.383C397.422 181.383 397.403 181.383 397.384 181.383C379.787 171.346 353.771 152.46 346.409 153.351C346.094 153.388 345.779 153.443 345.464 153.518C336.526 155.429 322.878 169.12 326.902 187.579L326.865 187.486Z" fill="url(#paint94_linear_6238_13197)"/>
<path style="mix-blend-mode:multiply" opacity="0.5" d="M326.866 187.486C329.128 197.857 345.316 204.999 345.316 204.999C345.316 204.999 341.923 201.048 342.108 195.705C342.238 192.161 343.036 188.173 347.95 185.798C344.315 177.784 340.866 171.699 338.808 171.866C332.893 172.329 334.543 160.215 345.446 153.443C336.508 155.354 322.861 169.046 326.885 187.505L326.866 187.486Z" fill="url(#paint95_linear_6238_13197)"/>
<path d="M345.297 204.999C345.297 204.999 341.904 201.048 342.089 195.705C342.274 190.362 344.017 183.998 359.019 183.72C371.127 183.498 381.641 189.1 392.674 194.221C393.249 194.48 393.861 194.759 394.492 195.018C369.032 175.873 341.811 168.712 338.77 171.847C335.729 174.982 332.113 194.351 345.278 204.981L345.297 204.999Z" fill="url(#paint96_linear_6238_13197)"/>
<path d="M424.459 184.258C424.292 184.165 421.176 182.18 422.586 179.973C425.237 175.798 429.317 179.138 429.317 183.998C429.317 186.15 428 188.024 425.182 188.915C432.135 187.078 434.194 179.694 434.064 176.058C433.934 172.422 421.955 171.068 419.248 174.166C416.559 177.264 419.1 182.644 424.459 184.239V184.258Z" fill="url(#paint97_linear_6238_13197)"/>
<path style="mix-blend-mode:multiply" opacity="0.5" d="M368.754 181.976C360.54 183.813 347.615 184.666 345.056 183.72C342.497 182.774 336.582 173.016 340.216 171.847C343.851 170.678 376.561 180.214 368.754 181.976Z" fill="url(#paint98_linear_6238_13197)"/>
<g style="mix-blend-mode:soft-light" opacity="0.5">
<path d="M396.088 184.129C405.971 199.286 355.367 169.936 350.12 165.094C344.872 160.252 345.484 153.685 352.456 154.742C352.456 154.742 390.581 175.669 396.107 184.147L396.088 184.129Z" fill="#9CE5FF"/>
</g>
<path style="mix-blend-mode:color-dodge" opacity="0.5" d="M376.153 173.331C362.839 177.95 346.8 159.101 350.582 157.079C354.347 155.057 385.592 170.066 376.153 173.331Z" fill="url(#paint99_linear_6238_13197)"/>
<g style="mix-blend-mode:soft-light" opacity="0.5">
<path d="M438.161 169.584C437.401 174.056 422.066 172.312 421.25 171.143C420.434 169.993 423.549 166.319 429.057 166.245C435.12 166.152 438.365 168.304 438.161 169.584Z" fill="#9CE5FF"/>
</g>
<path style="mix-blend-mode:multiply" opacity="0.5" d="M376.672 183.536L393.917 194.778C394.121 194.871 394.306 194.945 394.51 195.038C406.044 199.898 426.72 204.369 435.509 192.886C439.589 187.561 443.186 179.287 441.702 173.462C441.536 172.924 441.424 172.59 441.406 172.497V172.479C440.2 181.476 434.063 176.096 434.063 176.096C434.063 176.096 433.766 184.445 427.758 187.561C427.109 188.136 426.256 188.619 425.199 188.953C425.199 188.953 425.181 188.953 425.162 188.953C421.602 190.066 415.668 189.621 406.99 186.188C404.394 185.15 401.223 183.517 397.7 181.532C399.906 182.831 412.33 190.437 405.265 193.201C397.848 196.114 378.304 184.537 376.69 183.573L376.672 183.536Z" fill="url(#paint100_linear_6238_13197)"/>
<path d="M369.941 164.89C369.941 164.89 370.553 167.506 365.213 166.263C359.872 165.02 360.002 159.102 360.002 159.102C360.002 159.102 368.996 162.738 369.941 164.89Z" fill="white"/>
<g filter="url(#filter0_d_6238_13197)">
<path d="M145.246 99.112C145.246 109.672 163.678 112.488 163.678 124.776C163.678 133.928 156.446 138.152 148.062 138.152C142.878 138.152 135.646 134.504 135.646 127.272C135.646 121.704 139.102 118.44 143.902 118.44C152.286 118.44 152.094 128.744 146.078 129.192C144.158 129.32 142.43 128.296 142.43 125.928C142.43 124.392 143.71 123.432 144.99 123.432C145.566 123.432 146.206 123.688 146.59 124.264C146.59 124.264 144.926 124.2 144.734 125.416C144.542 126.12 145.054 126.44 145.694 126.44C148.702 126.44 148.574 120.68 145.118 120.68C138.974 120.68 138.526 135.656 148.318 135.656C153.822 135.656 155.294 130.536 155.294 127.592C155.294 115.752 136.862 114.152 136.862 101.48C136.862 92.392 145.694 89.448 150.686 89.448C158.046 89.448 162.078 93.672 162.398 98.536C162.782 103.592 159.39 106.28 156.254 106.28C153.822 106.28 151.454 104.616 151.198 101.096C151.006 98.472 152.478 96.36 154.846 96.232C157.918 95.976 158.494 100.264 156.19 101.736C156.19 101.736 156.254 99.56 154.654 99.24C152.542 98.792 152.67 103.08 156.318 102.76C158.302 102.696 159.582 100.968 159.39 98.472C159.134 95.016 156.638 91.304 152.094 91.304C149.086 91.304 145.246 93.16 145.246 99.112ZM183.877 99.88V98.536L199.429 99.048V100.904L198.405 100.84C195.397 100.84 193.669 101.608 193.477 104.424L192.197 126.568C191.877 132.584 196.293 132.648 197.893 132.648L198.853 132.584V133.928L185.157 134.696V133.288H185.221L185.285 131.752C183.685 134.056 181.253 135.464 178.245 135.464C172.997 135.464 167.813 130.472 168.517 118.824L169.221 107.368C169.029 104.872 167.749 103.656 165.701 103.528L165.765 102.12L180.997 102.696L180.933 104.104H180.293C179.013 104.04 177.797 104.872 177.413 107.048L176.517 119.4C176.069 125.48 176.453 131.432 180.293 131.88C183.493 132.264 185.541 127.848 185.733 123.624L186.757 105.704C186.757 102.312 187.205 100.072 184.261 99.944L183.877 99.88ZM220.557 94.376C226.701 94.376 230.093 101.224 230.093 113C230.093 126.952 225.357 132.072 219.405 132.072C216.141 132.072 213.517 130.728 212.045 128.04L211.661 140.2C211.597 143.656 214.797 143.656 219.149 143.656V145H197.389V143.656H198.797C203.597 143.656 204.493 142.504 204.557 138.728L205.517 100.136C205.197 98.216 203.853 97.512 201.293 97.512L198.861 97.64V95.208H212.812V96.616L212.749 97.64C214.541 95.528 217.229 94.376 220.557 94.376ZM216.461 127.72C221.517 127.72 222.093 120.424 222.093 113.064V112.808C222.093 106.152 221.389 99.304 217.229 99.304C214.221 99.304 212.685 102.504 212.621 105.96C212.621 106.408 212.621 106.792 212.557 107.176L212.173 121.576C212.237 124.584 213.773 127.72 216.461 127.72ZM251.244 94.376C257.388 94.376 260.78 101.224 260.78 113C260.78 126.952 256.044 132.072 250.092 132.072C246.828 132.072 244.204 130.728 242.732 128.04L242.348 140.2C242.284 143.656 245.484 143.656 249.836 143.656V145H228.076V143.656H229.484C234.284 143.656 235.18 142.504 235.244 138.728L236.204 100.136C235.884 98.216 234.54 97.512 231.98 97.512L229.548 97.64V95.208H243.5V96.616L243.436 97.64C245.228 95.528 247.916 94.376 251.244 94.376ZM247.148 127.72C252.204 127.72 252.78 120.424 252.78 113.064V112.808C252.78 106.152 252.076 99.304 247.916 99.304C244.908 99.304 243.372 102.504 243.308 105.96C243.308 106.408 243.308 106.792 243.244 107.176L242.86 121.576C242.924 124.584 244.46 127.72 247.148 127.72ZM293.954 115.176C293.954 123.56 290.242 135.976 279.938 135.976C272.962 136.488 264.514 130.536 264.514 116.008C264.514 107.304 269.186 97.192 279.49 97.192C287.618 97.192 293.954 104.488 293.954 115.176ZM285.57 110.888C285.698 106.024 283.842 99.56 279.746 99.56C276.93 99.56 273.474 103.272 272.962 112.488C273.474 111.144 274.69 109.864 276.93 109.864C280.45 109.864 281.73 113.32 279.746 115.176C279.746 115.176 279.426 113 277.762 112.936C275.714 112.808 276.034 118.376 279.938 118.376C283.394 118.376 285.506 115.432 285.57 110.888ZM279.746 133.352C283.202 133.352 284.674 128.68 285.25 121.32C283.778 121.896 282.05 122.28 279.938 122.152C276.354 121.832 273.73 119.592 272.898 116.328C273.09 128.424 275.074 133.352 279.746 133.352ZM314.899 88.36C327.571 88.36 328.851 106.984 315.667 106.984C310.355 106.984 310.163 99.816 314.451 99.816C315.795 99.816 316.819 100.968 316.563 102.248C316.563 102.248 315.923 101.608 315.219 101.608C315.027 101.608 314.771 101.672 314.579 101.8C313.619 102.44 313.811 104.424 315.859 104.424C319.891 104.424 320.659 91.944 313.107 91.944C307.859 91.944 306.771 97.256 306.771 101.48V118.696C306.771 122.088 308.883 123.752 311.891 123.944V125.288L293.971 125.352V122.92L296.595 123.048C298.899 122.92 300.179 122.28 300.179 119.848V95.912C300.179 92.136 296.083 91.176 294.483 91.176L293.139 91.24V89.896L306.771 89.128V93.16C308.435 90.152 311.378 88.36 314.899 88.36ZM342.6 123.368C342.6 120.936 344.584 119.528 346.76 119.528C349.32 119.528 352.2 121.576 352.2 126.248C352.2 131.688 348.04 134.824 343.496 134.824C337.928 134.824 331.656 130.088 331.656 119.144V96.808L325.768 96.936L325.576 94.248L331.656 94.184V85.8L339.464 85.416V94.056L347.848 93.992L348.04 96.36L339.464 96.616V119.848C339.464 126.504 341.128 130.536 345.096 130.536C347.208 130.536 349.448 128.424 349.448 124.84C349.448 122.92 348.36 122.088 347.336 122.088C346.44 122.088 345.672 122.728 345.672 123.688C345.672 125.288 347.848 125.736 347.848 125.736C347.208 126.376 346.44 126.696 345.672 126.696C344.072 126.696 342.6 125.48 342.6 123.368ZM369.966 121.192C366.254 121.192 362.67 119.336 361.71 116.008C361.966 128.296 365.55 133.352 370.286 133.352C374.19 133.352 376.366 129.064 376.366 124.456L381.23 123.624C381.166 132.072 375.79 135.976 369.902 135.976C362.862 136.488 353.326 130.536 353.326 116.008C353.326 107.304 358.574 97.192 368.878 97.192C384.174 97.192 387.054 121.192 369.966 121.192ZM361.774 112.488C362.286 111.08 363.502 109.864 365.742 109.864C369.262 109.864 370.542 113.32 368.558 115.176C368.558 115.176 368.174 113 366.574 112.936C364.526 112.808 365.294 118.376 369.902 118.376C377.774 118.376 377.71 99.56 369.71 99.56C366.894 99.56 362.478 103.272 361.774 112.488ZM417.652 138.024L417.716 140.456L403.828 141.288C402.612 143.272 400.82 144.616 398.516 144.808C391.028 145.192 385.716 138.792 385.14 129C385.076 128.488 385.076 128.04 385.14 127.592C384.948 116.968 391.092 112.616 395.444 112.36C397.556 112.232 399.348 112.552 400.884 113.448L398.708 93.544C398.644 93.48 398.644 93.16 398.58 92.52C398.26 89.64 395.764 88.872 392.308 88.872L390.58 88.936L390.516 87.592L412.276 86.824L412.404 88.232L409.524 88.296H410.932C406.708 88.552 405.748 89.448 405.812 92.264L410.164 132.456C410.164 132.392 410.164 132.392 410.164 132.392L410.228 133.224C410.548 135.976 411.316 138.92 415.156 138.408L417.652 138.024ZM399.924 140.52C402.228 140.392 403.06 136.68 403.06 133.8L401.524 119.464C400.884 117.48 399.476 115.816 397.492 115.944C393.78 116.136 392.82 122.28 393.14 128.424C393.14 128.68 393.14 128.936 393.14 129.192C393.78 137.128 396.852 140.712 399.924 140.52ZM464.188 109.16C469.436 109.672 474.492 113.32 474.492 121.192C474.492 131.816 466.748 137.192 453.372 137.32H439.164V135.912H441.852C443.644 135.912 446.204 134.632 446.204 131.304V94.632C446.204 91.24 444.156 89.192 440.124 89.128L438.396 89.256V87.848L455.804 86.888C462.204 86.12 470.396 89.256 470.396 98.536C470.396 103.528 467.388 106.92 464.188 109.16ZM453.372 88.872V114.024C453.692 113.256 454.204 112.552 454.78 111.976C456.124 110.568 463.548 106.6 463.548 99.688C463.548 93.608 459.068 88.168 453.372 88.872ZM453.372 134.568C472.508 134.184 468.156 112.552 459.708 112.552C457.212 112.552 455.612 113.96 455.612 115.944C455.612 117.992 456.892 118.824 457.98 118.824C458.812 118.824 459.516 118.248 459.26 117.352C458.812 115.816 456.636 115.944 456.636 115.944C457.212 114.92 458.364 114.408 459.516 114.408C460.924 114.408 462.268 115.24 462.268 116.968C462.268 119.336 460.284 120.936 457.66 120.936C455.548 120.936 454.076 119.976 453.372 118.568V134.568ZM494.831 100.968L494.895 99.56L508.655 99.752L508.591 101.096H506.415C505.071 101.096 503.215 101.608 502.575 103.976L495.215 130.856C492.015 143.656 487.407 152.552 478.895 152.552C474.351 152.552 470.639 148.52 470.639 144.488C470.639 139.624 473.711 137.576 476.527 137.576C479.023 137.576 481.327 139.112 481.327 141.608C481.327 143.72 479.855 144.936 478.319 144.936C477.551 144.936 476.783 144.616 476.143 143.976C476.143 143.976 478.319 143.592 478.319 141.928C478.319 141.16 477.679 140.712 476.911 140.712C475.631 140.712 473.967 141.8 473.967 144.232C473.967 146.984 476.143 148.84 478.767 148.84C483.311 148.84 486.383 145.128 488.495 140.52L480.687 100.584C479.855 97.704 478.127 96.104 474.799 96.232L472.815 96.296L472.687 93.736L492.847 94.056V95.464L491.503 95.528H491.567C488.687 95.656 487.599 97 488.111 99.88C488.175 100.008 488.175 100.2 488.175 100.264L493.039 124.968L498.927 103.912C499.183 102.12 498.415 101.032 496.175 100.968H494.831Z" fill="#F5F5F5"/>
</g>
<defs>
<filter id="filter0_d_6238_13197" x="131.646" y="85.416" width="381.008" height="75.1367" filterUnits="userSpaceOnUse" color-interpolation-filters="sRGB">
<feFlood flood-opacity="0" result="BackgroundImageFix"/>
<feColorMatrix in="SourceAlpha" type="matrix" values="0 0 0 0 0 0 0 0 0 0 0 0 0 0 0 0 0 0 127 0" result="hardAlpha"/>
<feOffset dy="4"/>
<feGaussianBlur stdDeviation="2"/>
<feComposite in2="hardAlpha" operator="out"/>
<feColorMatrix type="matrix" values="0 0 0 0 0 0 0 0 0 0 0 0 0 0 0 0 0 0 0.25 0"/>
<feBlend mode="normal" in2="BackgroundImageFix" result="effect1_dropShadow_6238_13197"/>
<feBlend mode="normal" in="SourceGraphic" in2="effect1_dropShadow_6238_13197" result="shape"/>
</filter>
<linearGradient id="paint0_linear_6238_13197" x1="321.486" y1="213.237" x2="321.486" y2="50.5353" gradientUnits="userSpaceOnUse">
<stop stop-color="#84759B"/>
<stop offset="0.39" stop-color="#96A9D0"/>
<stop offset="1" stop-color="#D8DFED"/>
</linearGradient>
<linearGradient id="paint1_linear_6238_13197" x1="136.314" y1="182.645" x2="540.832" y2="182.645" gradientUnits="userSpaceOnUse">
<stop stop-color="#8780E9"/>
<stop offset="1" stop-color="#705AB6"/>
</linearGradient>
<linearGradient id="paint2_linear_6238_13197" x1="321.487" y1="58.7543" x2="321.487" y2="177.951" gradientUnits="userSpaceOnUse">
<stop stop-color="#84759B"/>
<stop offset="0.39" stop-color="#96A9D0"/>
<stop offset="1" stop-color="#D8DFED"/>
</linearGradient>
<linearGradient id="paint3_linear_6238_13197" x1="133.348" y1="172.515" x2="566.292" y2="172.515" gradientUnits="userSpaceOnUse">
<stop stop-color="#E9BB38"/>
<stop offset="1" stop-color="#FFF09C"/>
</linearGradient>
<linearGradient id="paint4_linear_6238_13197" x1="58.2302" y1="77.1949" x2="58.2302" y2="164.371" gradientUnits="userSpaceOnUse">
<stop stop-color="#96A9D0"/>
<stop offset="1" stop-color="#D8DFED"/>
</linearGradient>
<linearGradient id="paint5_linear_6238_13197" x1="584.816" y1="-0.000155612" x2="584.816" y2="164.371" gradientUnits="userSpaceOnUse">
<stop stop-color="#96A9D0"/>
<stop offset="1" stop-color="#D8DFED"/>
</linearGradient>
<linearGradient id="paint6_linear_6238_13197" x1="321.468" y1="62.947" x2="321.468" y2="78.5493" gradientUnits="userSpaceOnUse">
<stop stop-color="#8780E9"/>
<stop offset="1" stop-color="#705AB6"/>
</linearGradient>
<radialGradient id="paint7_radial_6238_13197" cx="0" cy="0" r="1" gradientUnits="userSpaceOnUse" gradientTransform="translate(163.774 150.464) scale(56.8531 14.5448)">
<stop stop-color="#2B3987"/>
<stop offset="0.15" stop-color="#263379"/>
<stop offset="0.44" stop-color="#1B2455"/>
<stop offset="0.82" stop-color="#090B1C"/>
<stop offset="1"/>
</radialGradient>
<radialGradient id="paint8_radial_6238_13197" cx="0" cy="0" r="1" gradientUnits="userSpaceOnUse" gradientTransform="translate(497.014 32.4012) scale(56.8531 14.5448)">
<stop stop-color="#2B3987"/>
<stop offset="0.15" stop-color="#263379"/>
<stop offset="0.44" stop-color="#1B2455"/>
<stop offset="0.82" stop-color="#090B1C"/>
<stop offset="1"/>
</radialGradient>
<linearGradient id="paint9_linear_6238_13197" x1="175.404" y1="55.1362" x2="515.392" y2="55.1362" gradientUnits="userSpaceOnUse">
<stop stop-color="#E9BB38"/>
<stop offset="1" stop-color="#FFF09C"/>
</linearGradient>
<linearGradient id="paint10_linear_6238_13197" x1="293.004" y1="59.5516" x2="347.929" y2="59.5516" gradientUnits="userSpaceOnUse">
<stop stop-color="#8780E9"/>
<stop offset="1" stop-color="#705AB6"/>
</linearGradient>
<linearGradient id="paint11_linear_6238_13197" x1="321.689" y1="49.4211" x2="321.689" y2="74.4292" gradientUnits="userSpaceOnUse">
<stop stop-color="#786DAB"/>
<stop offset="0.53" stop-color="#6867A3"/>
<stop offset="1" stop-color="#54517A"/>
</linearGradient>
<linearGradient id="paint12_linear_6238_13197" x1="321.486" y1="27.4564" x2="321.486" y2="62.7795" gradientUnits="userSpaceOnUse">
<stop stop-color="#8780E9"/>
<stop offset="0.74" stop-color="#DBD8DF"/>
<stop offset="1" stop-color="#B7C4E1"/>
</linearGradient>
<linearGradient id="paint13_linear_6238_13197" x1="321.486" y1="26.7514" x2="321.486" y2="65.9704" gradientUnits="userSpaceOnUse">
<stop stop-color="#705AB6"/>
<stop offset="1" stop-color="white"/>
</linearGradient>
<linearGradient id="paint14_linear_6238_13197" x1="321.487" y1="61.7044" x2="321.487" y2="37.0488" gradientUnits="userSpaceOnUse">
<stop stop-color="#786DAB"/>
<stop offset="0.53" stop-color="#6867A3"/>
<stop offset="1" stop-color="#54517A"/>
</linearGradient>
<linearGradient id="paint15_linear_6238_13197" x1="106.423" y1="51.8711" x2="106.423" y2="185.761" gradientUnits="userSpaceOnUse">
<stop stop-color="#8780E9"/>
<stop offset="1" stop-color="#705AB6"/>
</linearGradient>
<linearGradient id="paint16_linear_6238_13197" x1="102.994" y1="85.3585" x2="102.994" y2="19.2576" gradientUnits="userSpaceOnUse">
<stop stop-color="#84759B"/>
<stop offset="0.39" stop-color="#96A9D0"/>
<stop offset="1" stop-color="#D8DFED"/>
</linearGradient>
<linearGradient id="paint17_linear_6238_13197" x1="44.658" y1="48.4571" x2="88.2157" y2="48.4571" gradientUnits="userSpaceOnUse">
<stop stop-color="#705AB6"/>
<stop offset="1" stop-color="white"/>
</linearGradient>
<linearGradient id="paint18_linear_6238_13197" x1="91.3304" y1="84.7273" x2="91.3304" y2="36.5106" gradientUnits="userSpaceOnUse">
<stop stop-color="#786DAB"/>
<stop offset="0.53" stop-color="#6867A3"/>
<stop offset="1" stop-color="#54517A"/>
</linearGradient>
<linearGradient id="paint19_linear_6238_13197" x1="44.9733" y1="145.115" x2="44.9733" y2="18.0332" gradientUnits="userSpaceOnUse">
<stop stop-color="#8780E9"/>
<stop offset="0.74" stop-color="#DBD8DF"/>
<stop offset="1" stop-color="#B7C4E1"/>
</linearGradient>
<linearGradient id="paint20_linear_6238_13197" x1="47.7731" y1="145.114" x2="47.7731" y2="48.9219" gradientUnits="userSpaceOnUse">
<stop stop-color="#705AB6"/>
<stop offset="1" stop-color="white"/>
</linearGradient>
<linearGradient id="paint21_linear_6238_13197" x1="66.0563" y1="157.079" x2="30.2917" y2="149.136" gradientUnits="userSpaceOnUse">
<stop stop-color="#786DAB"/>
<stop offset="0.53" stop-color="#6867A3"/>
<stop offset="1" stop-color="#54517A"/>
</linearGradient>
<linearGradient id="paint22_linear_6238_13197" x1="26.218" y1="99.2229" x2="15.2185" y2="138.959" gradientUnits="userSpaceOnUse">
<stop stop-color="#786DAB"/>
<stop offset="0.53" stop-color="#6867A3"/>
<stop offset="1" stop-color="#54517A"/>
</linearGradient>
<linearGradient id="paint23_linear_6238_13197" x1="17.585" y1="192.02" x2="46.5828" y2="100.541" gradientUnits="userSpaceOnUse">
<stop stop-color="#8780E9"/>
<stop offset="0.74" stop-color="#DBD8DF"/>
<stop offset="1" stop-color="#B7C4E1"/>
</linearGradient>
<linearGradient id="paint24_linear_6238_13197" x1="32.1441" y1="113.926" x2="21.5349" y2="130.508" gradientUnits="userSpaceOnUse">
<stop stop-color="#786DAB"/>
<stop offset="0.53" stop-color="#6867A3"/>
<stop offset="1" stop-color="#54517A"/>
</linearGradient>
<linearGradient id="paint25_linear_6238_13197" x1="42.8252" y1="137.319" x2="48.1169" y2="120.625" gradientUnits="userSpaceOnUse">
<stop stop-color="white"/>
<stop offset="0.44" stop-color="#621DEB"/>
<stop offset="1" stop-color="#681EB2"/>
</linearGradient>
<linearGradient id="paint26_linear_6238_13197" x1="45.256" y1="97.0251" x2="44.6587" y2="116.783" gradientUnits="userSpaceOnUse">
<stop stop-color="#38A5E9"/>
<stop offset="1"/>
</linearGradient>
<linearGradient id="paint27_linear_6238_13197" x1="31.4119" y1="165.986" x2="27.1859" y2="180.546" gradientUnits="userSpaceOnUse">
<stop stop-color="#38A5E9"/>
<stop offset="1"/>
</linearGradient>
<linearGradient id="paint28_linear_6238_13197" x1="43.0565" y1="110.36" x2="33.2089" y2="126.873" gradientUnits="userSpaceOnUse">
<stop stop-color="#38A5E9"/>
<stop offset="1"/>
</linearGradient>
<radialGradient id="paint29_radial_6238_13197" cx="0" cy="0" r="1" gradientUnits="userSpaceOnUse" gradientTransform="translate(47.4741 78.803) rotate(17.588) scale(20.6208 23.3107)">
<stop stop-color="#2B3987"/>
<stop offset="0.15" stop-color="#263379"/>
<stop offset="0.44" stop-color="#1B2455"/>
<stop offset="0.82" stop-color="#090B1C"/>
<stop offset="1"/>
</radialGradient>
<linearGradient id="paint30_linear_6238_13197" x1="86.7869" y1="204.999" x2="86.7869" y2="161.736" gradientUnits="userSpaceOnUse">
<stop stop-color="#8780E9"/>
<stop offset="0.74" stop-color="#DBD8DF"/>
<stop offset="1" stop-color="#B7C4E1"/>
</linearGradient>
<linearGradient id="paint31_linear_6238_13197" x1="107.648" y1="168.638" x2="107.648" y2="193.294" gradientUnits="userSpaceOnUse">
<stop stop-color="#705AB6"/>
<stop offset="1" stop-color="white"/>
</linearGradient>
<linearGradient id="paint32_linear_6238_13197" x1="49.3296" y1="196.281" x2="118.667" y2="176.781" gradientUnits="userSpaceOnUse">
<stop stop-color="#786DAB"/>
<stop offset="0.53" stop-color="#6867A3"/>
<stop offset="1" stop-color="#54517A"/>
</linearGradient>
<linearGradient id="paint33_linear_6238_13197" x1="63.9969" y1="184.778" x2="65.6117" y2="201.493" gradientUnits="userSpaceOnUse">
<stop stop-color="#705AB6"/>
<stop offset="1" stop-color="#181D3B"/>
</linearGradient>
<linearGradient id="paint34_linear_6238_13197" x1="88.0109" y1="156.968" x2="91.0362" y2="173.534" gradientUnits="userSpaceOnUse">
<stop stop-color="#38A5E9"/>
<stop offset="1"/>
</linearGradient>
<linearGradient id="paint35_linear_6238_13197" x1="108.872" y1="164.538" x2="116.018" y2="203.626" gradientUnits="userSpaceOnUse">
<stop stop-color="#705AB6"/>
<stop offset="1" stop-color="white"/>
</linearGradient>
<linearGradient id="paint36_linear_6238_13197" x1="20.181" y1="164.112" x2="37.1613" y2="199.856" gradientUnits="userSpaceOnUse">
<stop stop-color="#705AB6"/>
<stop offset="1" stop-color="white"/>
</linearGradient>
<radialGradient id="paint37_radial_6238_13197" cx="0" cy="0" r="1" gradientUnits="userSpaceOnUse" gradientTransform="translate(94.241 163.221) scale(15.8914 15.8991)">
<stop stop-color="#2B3987"/>
<stop offset="0.15" stop-color="#263379"/>
<stop offset="0.44" stop-color="#1B2455"/>
<stop offset="0.82" stop-color="#090B1C"/>
<stop offset="1"/>
</radialGradient>
<linearGradient id="paint38_linear_6238_13197" x1="70.9696" y1="188.136" x2="70.8211" y2="196.095" gradientUnits="userSpaceOnUse">
<stop stop-color="#38A5E9"/>
<stop offset="1"/>
</linearGradient>
<linearGradient id="paint39_linear_6238_13197" x1="54.0216" y1="15.9183" x2="53.0007" y2="75.73" gradientUnits="userSpaceOnUse">
<stop stop-color="#786DAB"/>
<stop offset="0.53" stop-color="#6867A3"/>
<stop offset="1" stop-color="#54517A"/>
</linearGradient>
<linearGradient id="paint40_linear_6238_13197" x1="57.5638" y1="29.0332" x2="57.5638" y2="22.0391" gradientUnits="userSpaceOnUse">
<stop stop-color="#4C4183"/>
<stop offset="1" stop-color="#181D3B"/>
</linearGradient>
<linearGradient id="paint41_linear_6238_13197" x1="57.3414" y1="88.1216" x2="76.3449" y2="131.749" gradientUnits="userSpaceOnUse">
<stop stop-color="#705AB6"/>
<stop offset="1" stop-color="white"/>
</linearGradient>
<linearGradient id="paint42_linear_6238_13197" x1="97.3936" y1="21.9845" x2="90.6567" y2="41.1096" gradientUnits="userSpaceOnUse">
<stop stop-color="#38A5E9"/>
<stop offset="1"/>
</linearGradient>
<linearGradient id="paint43_linear_6238_13197" x1="184.452" y1="54.7835" x2="113.135" y2="63.7727" gradientUnits="userSpaceOnUse">
<stop stop-color="#786DAB"/>
<stop offset="0.53" stop-color="#6867A3"/>
<stop offset="1" stop-color="#54517A"/>
</linearGradient>
<linearGradient id="paint44_linear_6238_13197" x1="122.055" y1="92.8534" x2="105.483" y2="59.3177" gradientUnits="userSpaceOnUse">
<stop stop-color="#96A9D0"/>
<stop offset="1" stop-color="#D8DFED"/>
</linearGradient>
<linearGradient id="paint45_linear_6238_13197" x1="40.2992" y1="67.8639" x2="46.7765" y2="46.8462" gradientUnits="userSpaceOnUse">
<stop stop-color="#96A9D0"/>
<stop offset="1" stop-color="#D8DFED"/>
</linearGradient>
<linearGradient id="paint46_linear_6238_13197" x1="40.447" y1="43.8761" x2="70.8795" y2="54.627" gradientUnits="userSpaceOnUse">
<stop stop-color="#705AB6"/>
<stop offset="1" stop-color="white"/>
</linearGradient>
<linearGradient id="paint47_linear_6238_13197" x1="50.7204" y1="129.513" x2="61.0686" y2="133.183" gradientUnits="userSpaceOnUse">
<stop stop-color="#38A5E9"/>
<stop offset="1"/>
</linearGradient>
<linearGradient id="paint48_linear_6238_13197" x1="68.8559" y1="109.792" x2="68.8559" y2="99.4769" gradientUnits="userSpaceOnUse">
<stop stop-color="#705AB6"/>
<stop offset="1" stop-color="#181D3B"/>
</linearGradient>
<radialGradient id="paint49_radial_6238_13197" cx="0" cy="0" r="1" gradientUnits="userSpaceOnUse" gradientTransform="translate(89.8456 32.8928) scale(32.8769 32.8928)">
<stop stop-color="#2B3987"/>
<stop offset="0.15" stop-color="#263379"/>
<stop offset="0.44" stop-color="#1B2455"/>
<stop offset="0.82" stop-color="#090B1C"/>
<stop offset="1"/>
</radialGradient>
<linearGradient id="paint50_linear_6238_13197" x1="536.586" y1="51.8711" x2="536.586" y2="185.761" gradientUnits="userSpaceOnUse">
<stop stop-color="#8780E9"/>
<stop offset="1" stop-color="#705AB6"/>
</linearGradient>
<linearGradient id="paint51_linear_6238_13197" x1="540.016" y1="85.3585" x2="540.016" y2="19.2576" gradientUnits="userSpaceOnUse">
<stop stop-color="#84759B"/>
<stop offset="0.39" stop-color="#96A9D0"/>
<stop offset="1" stop-color="#D8DFED"/>
</linearGradient>
<linearGradient id="paint52_linear_6238_13197" x1="598.354" y1="48.4571" x2="554.796" y2="48.4571" gradientUnits="userSpaceOnUse">
<stop stop-color="#705AB6"/>
<stop offset="1" stop-color="white"/>
</linearGradient>
<linearGradient id="paint53_linear_6238_13197" x1="551.68" y1="84.7273" x2="551.68" y2="36.5106" gradientUnits="userSpaceOnUse">
<stop stop-color="#786DAB"/>
<stop offset="0.53" stop-color="#6867A3"/>
<stop offset="1" stop-color="#54517A"/>
</linearGradient>
<linearGradient id="paint54_linear_6238_13197" x1="598.038" y1="145.115" x2="598.038" y2="18.0332" gradientUnits="userSpaceOnUse">
<stop stop-color="#8780E9"/>
<stop offset="0.74" stop-color="#DBD8DF"/>
<stop offset="1" stop-color="#B7C4E1"/>
</linearGradient>
<linearGradient id="paint55_linear_6238_13197" x1="595.238" y1="145.114" x2="595.238" y2="48.9219" gradientUnits="userSpaceOnUse">
<stop stop-color="#705AB6"/>
<stop offset="1" stop-color="white"/>
</linearGradient>
<linearGradient id="paint56_linear_6238_13197" x1="577.166" y1="156.506" x2="612.948" y2="148.558" gradientUnits="userSpaceOnUse">
<stop stop-color="#786DAB"/>
<stop offset="0.53" stop-color="#6867A3"/>
<stop offset="1" stop-color="#54517A"/>
</linearGradient>
<linearGradient id="paint57_linear_6238_13197" x1="617.004" y1="98.6504" x2="628.027" y2="138.399" gradientUnits="userSpaceOnUse">
<stop stop-color="#786DAB"/>
<stop offset="0.53" stop-color="#6867A3"/>
<stop offset="1" stop-color="#54517A"/>
</linearGradient>
<linearGradient id="paint58_linear_6238_13197" x1="625.636" y1="191.448" x2="596.638" y2="99.9685" gradientUnits="userSpaceOnUse">
<stop stop-color="#8780E9"/>
<stop offset="0.74" stop-color="#DBD8DF"/>
<stop offset="1" stop-color="#B7C4E1"/>
</linearGradient>
<linearGradient id="paint59_linear_6238_13197" x1="611.08" y1="113.354" x2="621.689" y2="129.936" gradientUnits="userSpaceOnUse">
<stop stop-color="#786DAB"/>
<stop offset="0.53" stop-color="#6867A3"/>
<stop offset="1" stop-color="#54517A"/>
</linearGradient>
<linearGradient id="paint60_linear_6238_13197" x1="600.419" y1="136.758" x2="595.122" y2="120.047" gradientUnits="userSpaceOnUse">
<stop stop-color="white"/>
<stop offset="0.44" stop-color="#621DEB"/>
<stop offset="1" stop-color="#681EB2"/>
</linearGradient>
<linearGradient id="paint61_linear_6238_13197" x1="597.966" y1="96.4527" x2="598.581" y2="116.205" gradientUnits="userSpaceOnUse">
<stop stop-color="#38A5E9"/>
<stop offset="1"/>
</linearGradient>
<linearGradient id="paint62_linear_6238_13197" x1="611.826" y1="165.408" x2="616.035" y2="179.974" gradientUnits="userSpaceOnUse">
<stop stop-color="#38A5E9"/>
<stop offset="1"/>
</linearGradient>
<linearGradient id="paint63_linear_6238_13197" x1="600.182" y1="109.782" x2="610.035" y2="126.312" gradientUnits="userSpaceOnUse">
<stop stop-color="#38A5E9"/>
<stop offset="1"/>
</linearGradient>
<radialGradient id="paint64_radial_6238_13197" cx="0" cy="0" r="1" gradientUnits="userSpaceOnUse" gradientTransform="translate(599.114 87.3747) rotate(162.402) scale(20.6208 23.3107)">
<stop stop-color="#2B3987"/>
<stop offset="0.15" stop-color="#263379"/>
<stop offset="0.44" stop-color="#1B2455"/>
<stop offset="0.82" stop-color="#090B1C"/>
<stop offset="1"/>
</radialGradient>
<linearGradient id="paint65_linear_6238_13197" x1="556.241" y1="204.999" x2="556.241" y2="161.736" gradientUnits="userSpaceOnUse">
<stop stop-color="#8780E9"/>
<stop offset="0.74" stop-color="#DBD8DF"/>
<stop offset="1" stop-color="#B7C4E1"/>
</linearGradient>
<linearGradient id="paint66_linear_6238_13197" x1="535.361" y1="168.638" x2="535.361" y2="193.294" gradientUnits="userSpaceOnUse">
<stop stop-color="#705AB6"/>
<stop offset="1" stop-color="white"/>
</linearGradient>
<linearGradient id="paint67_linear_6238_13197" x1="593.68" y1="196.281" x2="524.342" y2="176.781" gradientUnits="userSpaceOnUse">
<stop stop-color="#786DAB"/>
<stop offset="0.53" stop-color="#6867A3"/>
<stop offset="1" stop-color="#54517A"/>
</linearGradient>
<linearGradient id="paint68_linear_6238_13197" x1="579.032" y1="184.778" x2="577.398" y2="201.493" gradientUnits="userSpaceOnUse">
<stop stop-color="#705AB6"/>
<stop offset="1" stop-color="#181D3B"/>
</linearGradient>
<linearGradient id="paint69_linear_6238_13197" x1="555" y1="156.968" x2="551.975" y2="173.534" gradientUnits="userSpaceOnUse">
<stop stop-color="#38A5E9"/>
<stop offset="1"/>
</linearGradient>
<linearGradient id="paint70_linear_6238_13197" x1="534.138" y1="164.538" x2="526.992" y2="203.626" gradientUnits="userSpaceOnUse">
<stop stop-color="#705AB6"/>
<stop offset="1" stop-color="white"/>
</linearGradient>
<linearGradient id="paint71_linear_6238_13197" x1="622.829" y1="164.112" x2="605.849" y2="199.856" gradientUnits="userSpaceOnUse">
<stop stop-color="#705AB6"/>
<stop offset="1" stop-color="white"/>
</linearGradient>
<radialGradient id="paint72_radial_6238_13197" cx="0" cy="0" r="1" gradientUnits="userSpaceOnUse" gradientTransform="translate(548.768 163.221) rotate(180) scale(15.8914 15.8991)">
<stop stop-color="#2B3987"/>
<stop offset="0.15" stop-color="#263379"/>
<stop offset="0.44" stop-color="#1B2455"/>
<stop offset="0.82" stop-color="#090B1C"/>
<stop offset="1"/>
</radialGradient>
<linearGradient id="paint73_linear_6238_13197" x1="572.04" y1="188.136" x2="572.189" y2="196.095" gradientUnits="userSpaceOnUse">
<stop stop-color="#38A5E9"/>
<stop offset="1"/>
</linearGradient>
<linearGradient id="paint74_linear_6238_13197" x1="588.989" y1="15.9183" x2="590.01" y2="75.73" gradientUnits="userSpaceOnUse">
<stop stop-color="#786DAB"/>
<stop offset="0.53" stop-color="#6867A3"/>
<stop offset="1" stop-color="#54517A"/>
</linearGradient>
<linearGradient id="paint75_linear_6238_13197" x1="585.448" y1="29.0332" x2="585.448" y2="22.0391" gradientUnits="userSpaceOnUse">
<stop stop-color="#4C4183"/>
<stop offset="1" stop-color="#181D3B"/>
</linearGradient>
<linearGradient id="paint76_linear_6238_13197" x1="585.67" y1="88.1216" x2="566.666" y2="131.749" gradientUnits="userSpaceOnUse">
<stop stop-color="#705AB6"/>
<stop offset="1" stop-color="white"/>
</linearGradient>
<linearGradient id="paint77_linear_6238_13197" x1="545.617" y1="21.9845" x2="552.354" y2="41.1096" gradientUnits="userSpaceOnUse">
<stop stop-color="#38A5E9"/>
<stop offset="1"/>
</linearGradient>
<linearGradient id="paint78_linear_6238_13197" x1="458.556" y1="54.7835" x2="529.893" y2="63.7727" gradientUnits="userSpaceOnUse">
<stop stop-color="#786DAB"/>
<stop offset="0.53" stop-color="#6867A3"/>
<stop offset="1" stop-color="#54517A"/>
</linearGradient>
<linearGradient id="paint79_linear_6238_13197" x1="520.953" y1="92.8534" x2="537.525" y2="59.3176" gradientUnits="userSpaceOnUse">
<stop stop-color="#96A9D0"/>
<stop offset="1" stop-color="#D8DFED"/>
</linearGradient>
<linearGradient id="paint80_linear_6238_13197" x1="602.711" y1="67.8639" x2="596.253" y2="46.8462" gradientUnits="userSpaceOnUse">
<stop stop-color="#96A9D0"/>
<stop offset="1" stop-color="#D8DFED"/>
</linearGradient>
<linearGradient id="paint81_linear_6238_13197" x1="602.563" y1="43.8761" x2="572.149" y2="54.627" gradientUnits="userSpaceOnUse">
<stop stop-color="#705AB6"/>
<stop offset="1" stop-color="white"/>
</linearGradient>
<linearGradient id="paint82_linear_6238_13197" x1="592.289" y1="129.513" x2="581.941" y2="133.183" gradientUnits="userSpaceOnUse">
<stop stop-color="#38A5E9"/>
<stop offset="1"/>
</linearGradient>
<linearGradient id="paint83_linear_6238_13197" x1="574.155" y1="109.792" x2="574.155" y2="99.4769" gradientUnits="userSpaceOnUse">
<stop stop-color="#705AB6"/>
<stop offset="1" stop-color="#181D3B"/>
</linearGradient>
<radialGradient id="paint84_radial_6238_13197" cx="0" cy="0" r="1" gradientUnits="userSpaceOnUse" gradientTransform="translate(553.164 32.8928) rotate(180) scale(32.8769 32.8928)">
<stop stop-color="#2B3987"/>
<stop offset="0.15" stop-color="#263379"/>
<stop offset="0.44" stop-color="#1B2455"/>
<stop offset="0.82" stop-color="#090B1C"/>
<stop offset="1"/>
</radialGradient>
<linearGradient id="paint85_linear_6238_13197" x1="195.098" y1="177.95" x2="321.487" y2="177.95" gradientUnits="userSpaceOnUse">
<stop stop-color="#8780E9"/>
<stop offset="1" stop-color="#705AB6"/>
</linearGradient>
<linearGradient id="paint86_linear_6238_13197" x1="258.905" y1="205" x2="258.905" y2="153.239" gradientUnits="userSpaceOnUse">
<stop stop-color="#8780E9"/>
<stop offset="0.74" stop-color="#DBD8DF"/>
<stop offset="1" stop-color="#B7C4E1"/>
</linearGradient>
<linearGradient id="paint87_linear_6238_13197" x1="295.045" y1="179.212" x2="316.852" y2="179.212" gradientUnits="userSpaceOnUse">
<stop stop-color="#705AB6"/>
<stop offset="1" stop-color="white"/>
</linearGradient>
<linearGradient id="paint88_linear_6238_13197" x1="277.78" y1="204.999" x2="277.78" y2="171.142" gradientUnits="userSpaceOnUse">
<stop stop-color="#786DAB"/>
<stop offset="0.53" stop-color="#6867A3"/>
<stop offset="1" stop-color="#54517A"/>
</linearGradient>
<linearGradient id="paint89_linear_6238_13197" x1="216.886" y1="188.915" x2="216.886" y2="172.44" gradientUnits="userSpaceOnUse">
<stop stop-color="#786DAB"/>
<stop offset="0.53" stop-color="#6867A3"/>
<stop offset="1" stop-color="#54517A"/>
</linearGradient>
<linearGradient id="paint90_linear_6238_13197" x1="273.033" y1="177.951" x2="303.926" y2="177.951" gradientUnits="userSpaceOnUse">
<stop stop-color="#705AB6"/>
<stop offset="1" stop-color="white"/>
</linearGradient>
<linearGradient id="paint91_linear_6238_13197" x1="276.353" y1="157.061" x2="282.422" y2="174.646" gradientUnits="userSpaceOnUse">
<stop stop-color="#38A5E9"/>
<stop offset="1"/>
</linearGradient>
<linearGradient id="paint92_linear_6238_13197" x1="200.958" y1="186.281" x2="266.323" y2="186.281" gradientUnits="userSpaceOnUse">
<stop stop-color="#705AB6"/>
<stop offset="1" stop-color="white"/>
</linearGradient>
<linearGradient id="paint93_linear_6238_13197" x1="447.896" y1="177.95" x2="321.488" y2="177.95" gradientUnits="userSpaceOnUse">
<stop stop-color="#8780E9"/>
<stop offset="1" stop-color="#705AB6"/>
</linearGradient>
<linearGradient id="paint94_linear_6238_13197" x1="384.089" y1="205" x2="384.089" y2="153.239" gradientUnits="userSpaceOnUse">
<stop stop-color="#8780E9"/>
<stop offset="0.74" stop-color="#DBD8DF"/>
<stop offset="1" stop-color="#B7C4E1"/>
</linearGradient>
<linearGradient id="paint95_linear_6238_13197" x1="347.931" y1="179.212" x2="326.124" y2="179.212" gradientUnits="userSpaceOnUse">
<stop stop-color="#705AB6"/>
<stop offset="1" stop-color="white"/>
</linearGradient>
<linearGradient id="paint96_linear_6238_13197" x1="365.212" y1="204.999" x2="365.212" y2="171.142" gradientUnits="userSpaceOnUse">
<stop stop-color="#786DAB"/>
<stop offset="0.53" stop-color="#6867A3"/>
<stop offset="1" stop-color="#54517A"/>
</linearGradient>
<linearGradient id="paint97_linear_6238_13197" x1="426.09" y1="188.915" x2="426.09" y2="172.44" gradientUnits="userSpaceOnUse">
<stop stop-color="#786DAB"/>
<stop offset="0.53" stop-color="#6867A3"/>
<stop offset="1" stop-color="#54517A"/>
</linearGradient>
<linearGradient id="paint98_linear_6238_13197" x1="369.941" y1="177.951" x2="339.048" y2="177.951" gradientUnits="userSpaceOnUse">
<stop stop-color="#705AB6"/>
<stop offset="1" stop-color="white"/>
</linearGradient>
<linearGradient id="paint99_linear_6238_13197" x1="366.641" y1="157.061" x2="360.572" y2="174.646" gradientUnits="userSpaceOnUse">
<stop stop-color="#38A5E9"/>
<stop offset="1"/>
</linearGradient>
<linearGradient id="paint100_linear_6238_13197" x1="442.036" y1="186.281" x2="376.653" y2="186.281" gradientUnits="userSpaceOnUse">
<stop stop-color="#705AB6"/>
<stop offset="1" stop-color="white"/>
</linearGradient>
</defs>
</svg>
