<svg width="644" height="206" viewBox="0 0 644 206" fill="none" xmlns="http://www.w3.org/2000/svg">
<path d="M44.8796 51.8721V185.762H598.131V51.8721H44.8796ZM582.759 170.401H60.2148V67.2332H582.759V170.401Z" fill="url(#paint0_linear_394_8612)"/>
<path style="mix-blend-mode:multiply" opacity="0.7" d="M136.316 185.762C136.316 185.762 210.099 179.547 339.511 179.547C468.923 179.547 540.833 185.762 540.833 185.762H136.316Z" fill="url(#paint1_linear_394_8612)"/>
<path d="M54.1697 61.166V176.467H588.841V61.166H54.1697ZM582.759 170.4H60.2148V67.2325H582.759V170.4Z" fill="url(#paint2_linear_394_8612)"/>
<path style="mix-blend-mode:color-dodge" opacity="0.5" d="M133.349 170.4C133.349 170.4 211.193 174.612 329.442 174.612C447.691 174.612 566.274 170.4 566.274 170.4H133.349Z" fill="url(#paint3_linear_394_8612)"/>
<path d="M60.2889 67.2334C60.2889 67.2334 56.1724 86.5275 56.1724 116.007C56.1724 145.486 60.2889 170.401 60.2889 170.401V67.2334Z" fill="url(#paint4_linear_394_8612)"/>
<path d="M582.759 67.2334C582.759 67.2334 586.875 86.5275 586.875 116.007C586.875 145.486 582.759 170.401 582.759 170.401V67.2334Z" fill="url(#paint5_linear_394_8612)"/>
<path style="mix-blend-mode:multiply" opacity="0.7" d="M588.823 61.166H54.1697L54.1326 79.6253C54.1326 79.6253 56.4505 73.299 60.2333 67.2325H582.777C582.777 67.2325 588.618 72.761 588.73 79.6253L588.841 61.166H588.823Z" fill="url(#paint6_linear_394_8612)"/>
<path d="M141.508 170.4C141.508 170.4 160.143 176.968 176.461 170.4H141.508Z" fill="white"/>
<path style="mix-blend-mode:color-dodge" opacity="0.5" d="M158.994 185.002C190.352 185.002 215.773 178.465 215.773 170.401C215.773 162.338 190.352 155.801 158.994 155.801C127.636 155.801 102.215 162.338 102.215 170.401C102.215 178.465 127.636 185.002 158.994 185.002Z" fill="url(#paint7_radial_394_8612)"/>
<path d="M474.356 51.8721C474.356 51.8721 492.992 58.4395 509.31 51.8721H474.356Z" fill="white"/>
<path style="mix-blend-mode:color-dodge" opacity="0.5" d="M491.842 66.4724C523.2 66.4724 548.621 59.9355 548.621 51.8719C548.621 43.8083 523.2 37.2715 491.842 37.2715C460.484 37.2715 435.063 43.8083 435.063 51.8719C435.063 59.9355 460.484 66.4724 491.842 66.4724Z" fill="url(#paint8_radial_394_8612)"/>
<path style="mix-blend-mode:color-dodge" opacity="0.5" d="M175.404 51.8721C175.404 51.8721 208.226 58.3653 344.61 58.3653C480.994 58.3653 515.373 51.8721 515.373 51.8721H175.404Z" fill="url(#paint9_linear_394_8612)"/>
<path style="mix-blend-mode:multiply" opacity="0.7" d="M298.327 51.8711C295.323 53.7077 293.005 61.2955 293.005 61.2955L298.327 67.2322H340.512C340.512 67.2322 347.929 64.3381 347.929 61.2955L344.962 51.8711H298.327Z" fill="url(#paint10_linear_394_8612)"/>
<path d="M296.695 51.8719C299.217 65.3221 316.591 71.1289 321.505 71.1289C326.419 71.1289 343.664 66.2126 346.705 50.5918C346.705 50.5918 333.966 65.3221 321.505 65.3221C309.044 65.3221 296.695 51.8719 296.695 51.8719Z" fill="url(#paint11_linear_394_8612)"/>
<path d="M346.687 50.5917C345.426 56.8438 334.04 65.3221 321.487 65.3221C309.786 65.3221 299.087 57.9383 296.676 51.8718C296.176 50.6103 296.027 49.4044 296.305 48.3469C297.919 42.1506 308.636 31.1492 315.572 25.3053C319.447 22.0402 323.508 22.0402 327.384 25.3053C334.337 31.1492 345.037 42.1691 346.65 48.3469C346.835 49.0334 346.835 49.794 346.668 50.5917H346.687Z" fill="url(#paint12_linear_394_8612)"/>
<path style="mix-blend-mode:multiply" opacity="0.5" d="M346.687 50.5917C345.556 47.9573 340.939 45.3786 334.819 43.7275C326.92 41.6126 316.517 41.0745 307.932 44.0985C303.5 45.6569 299.55 48.1614 296.676 51.8718C296.176 50.6103 296.027 49.4044 296.305 48.3469C297.919 42.1506 308.636 31.1492 315.572 25.3053C319.447 22.0402 323.508 22.0402 327.384 25.3053C334.337 31.1492 345.037 42.1691 346.65 48.3469C346.835 49.0334 346.835 49.794 346.668 50.5917H346.687Z" fill="url(#paint13_linear_394_8612)"/>
<path d="M321.487 29.9062C316.851 33.7465 304.724 44.451 306.541 49.7013C308.358 54.9515 321.487 61.1664 321.487 61.1664C321.487 61.1664 334.615 54.9515 336.433 49.7013C338.25 44.451 326.141 33.7465 321.487 29.9062Z" fill="url(#paint14_linear_394_8612)"/>
<g style="mix-blend-mode:soft-light" opacity="0.5">
<path d="M307.32 48.6066C307.376 50.8143 316.239 60.0532 321.468 59.2184C326.697 58.3835 337.193 50.8329 335.376 48.6066C333.558 46.3804 307.246 45.9537 307.301 48.6066H307.32Z" fill="#9CE5FF"/>
</g>
<path style="mix-blend-mode:multiply" opacity="0.7" d="M164.316 51.8711C164.316 51.8711 167.542 57.2697 167.95 61.1657C168.358 65.0616 164.316 67.2322 164.316 67.2322H60.2148L60.2889 170.4H118.218C118.218 170.4 122.705 172.905 124.726 176.467C124.726 176.467 123.947 182.793 122.724 185.761H44.8796V51.8711H164.334H164.316Z" fill="url(#paint15_linear_394_8612)"/>
<path d="M160.792 67.2322C158.345 83.4281 140.432 87.0272 131.42 84.7268C130.957 84.6154 130.512 84.467 130.104 84.3186C110.133 76.972 101.102 67.2507 90.1989 58.3643C85.693 54.691 79.7777 54.858 74.1963 57.1955C66.2969 60.5164 59.0837 68.234 57.4889 75.6363C57.4889 75.6363 54.3923 72.0928 51.2399 67.158C47.6426 61.5367 43.9896 54.1159 44.7498 48.0865C46.1777 36.7698 50.2386 31.9091 50.2386 31.9091V29.0892C50.2386 29.0892 59.7327 24.1358 70.8585 21.2602C79.4625 19.034 89.0493 18.0322 95.9288 21.5385C115.714 31.6494 114.472 49.4222 125.004 65.0245C127.675 68.9946 130.641 70.9055 133.534 71.4435C140.061 72.6494 146.218 66.7313 147.886 61.4069C151.521 49.682 142.101 52.6503 143.177 58.8467C143.177 58.8467 134.832 57.4924 134.016 51.8711C133.404 47.5485 137.781 41.6118 144.252 41.2037C150.705 40.7955 164.13 45.2666 160.811 67.2322H160.792Z" fill="url(#paint16_linear_394_8612)"/>
<path style="mix-blend-mode:multiply" opacity="0.5" d="M88.2148 37.2712L74.2148 57.196C66.3155 60.5168 59.1022 68.2345 57.5075 75.6368C57.5075 75.6368 54.4108 72.0933 51.2585 67.1585C47.6611 61.5372 44.0081 54.1164 44.7684 48.087C46.1962 36.7702 50.2572 31.9096 50.2572 31.9096V29.0897C50.2572 29.0897 59.7512 24.1363 70.8771 21.2607C60.53 29.4978 88.2334 37.2712 88.2334 37.2712H88.2148Z" fill="url(#paint17_linear_394_8612)"/>
<path d="M131.42 84.7273C130.957 84.616 130.512 84.4676 130.104 84.3192C110.133 76.9726 101.102 67.2513 90.1989 58.3649C79.2956 49.4785 60.2148 63.0029 57.4889 75.6368C57.4889 75.6368 54.3923 72.0934 51.2399 67.1586L52.5379 62.1866C56.8585 45.6753 70.191 33.9504 86.9539 36.9744C103.513 39.9613 102.734 72.3346 131.402 84.7273H131.42Z" fill="url(#paint18_linear_394_8612)"/>
<path d="M66.7604 145.114C66.7604 145.114 65.073 133.76 55.7829 113.149C46.4929 92.5372 33.7538 84.4856 33.7538 84.4856C28.5061 77.6028 24.8345 71.592 22.2941 66.4716C15.155 52.1123 16.861 44.7843 16.861 44.7843C27.7643 21.7426 45.7326 18.1064 45.7326 18.1064C58.8611 17.2901 65.722 22.5589 65.722 22.5589L51.7591 29.0336C41.0226 56.5091 62.6439 78.4005 66.7604 84.3372C70.877 90.2738 79.0174 118.529 66.7604 145.114Z" fill="url(#paint19_linear_394_8612)"/>
<path style="mix-blend-mode:multiply" opacity="0.5" d="M66.7604 145.114C66.7604 145.114 65.073 133.76 55.7829 113.149C46.4929 92.5377 33.7538 84.4861 33.7538 84.4861C28.5061 77.6033 24.8345 71.5925 22.2941 66.4721C39.8915 82.0187 43.4518 63.8748 41.6346 48.9219C41.8385 49.6825 48.2544 74.2454 66.7604 84.3192C70.877 90.2558 79.0174 118.511 66.7604 145.096V145.114Z" fill="url(#paint20_linear_394_8612)"/>
<path d="M59.4359 155.374C59.6028 154.836 57.6373 127.805 57.1922 127.675C56.7472 127.527 41.6531 118.826 41.6531 118.826L37.7405 131.182C54.0028 144.298 53.8545 158.732 51.3326 169.677C49.8121 176.263 45.0465 182.404 42.3207 180.938C39.6505 179.51 41.5975 176.931 41.5975 176.931C45.7141 177.58 46.6412 170.03 41.2266 168.731C41.2266 168.731 37.0359 169.139 33.8465 174.798C30.6571 180.456 38.2783 184.612 38.2783 184.612C38.2783 184.612 39.1127 184.371 40.1511 183.999L47.9949 186.485C47.9949 186.485 59.2691 155.912 59.4359 155.374Z" fill="url(#paint21_linear_394_8612)"/>
<path d="M10.4451 97.0273C3.5471 105.097 0.357687 112.63 0.0424547 115.505C-0.272778 118.381 0.988152 134.465 9.96301 139.289C18.9379 144.131 35.9419 140.272 35.9419 140.272C35.9419 140.272 9.90738 134.502 8.47956 118.956C7.05174 103.428 10.4451 97.0273 10.4451 97.0273Z" fill="url(#paint22_linear_394_8612)"/>
<path d="M66.983 134.818C66.9088 132.536 66.4823 130.143 65.7406 127.657C65.5181 126.896 65.277 126.136 64.9989 125.356C64.9989 125.301 64.9618 125.264 64.9618 125.264C58.2863 106.47 37.0173 84.8017 33.1233 84.3193C28.5432 83.7628 8.8504 91.4062 5.30867 107.305C1.76695 123.204 15.0067 143.593 35.9233 140.291C40.9299 139.493 42.7657 127.137 42.7657 127.137C42.7657 127.137 53.8174 134.206 55.82 154.112C57.526 171.013 45.4915 186.894 39.0015 181.328C35.4412 178.285 37.277 173.184 40.1697 171.774C41.1525 171.291 42.3578 172.85 42.3578 172.85C39.3352 174.649 40.9856 176.875 41.5789 176.913C42.1909 176.95 45.0836 177.135 44.9723 173.536C44.8611 169.937 42.5246 168.694 38.9273 167.655C37.0544 166.932 34.1061 166.134 30.416 166.171C23.8518 166.245 21.1816 168.082 21.1816 168.082C8.73915 184.129 28.5802 201.086 44.7684 197.895C50.4611 196.763 54.9856 191.105 58.4161 183.369C64.7393 169.121 67.3909 147.823 66.983 134.837V134.818Z" fill="url(#paint23_linear_394_8612)"/>
<path d="M39.1683 115.988C39.1683 115.988 36.5167 113.724 33.5127 113.186C30.5087 112.648 21.1074 116.025 20.9034 117.936C20.6994 119.846 28.914 128.343 28.914 128.343C28.914 128.343 25.465 117.88 30.5643 115.283C35.6637 112.685 39.1869 115.969 39.1869 115.969L39.1683 115.988Z" fill="url(#paint24_linear_394_8612)"/>
<path style="mix-blend-mode:multiply" opacity="0.5" d="M39.1683 115.987C41.2637 118.455 43.526 123.538 42.7842 127.137C42.0425 130.718 41.0226 134.038 41.0226 134.038C41.0226 134.038 43.6743 136.599 45.0279 138.417C45.0279 138.417 49.5525 140.049 52.0001 139.177C52.0001 139.177 49.979 132.332 45.7326 124.428C41.4862 116.525 39.1869 115.987 39.1869 115.987H39.1683Z" fill="url(#paint25_linear_394_8612)"/>
<path style="mix-blend-mode:color-dodge" opacity="0.5" d="M29.563 84.7637C42.0425 88.103 59.9366 114.632 59.9366 114.632C59.9366 114.632 53.6134 104.002 45.3247 94.8374C37.0174 85.6727 34.7922 84.9492 33.7538 84.4668C32.7154 83.9845 29.563 84.7451 29.563 84.7451V84.7637Z" fill="url(#paint26_linear_394_8612)"/>
<path style="mix-blend-mode:color-dodge" opacity="0.5" d="M21.2001 168.063C15.971 176.133 23.3326 180.734 30.1194 177.877C36.9061 175.02 40.2253 168.397 40.2253 168.397C40.2253 168.397 37.926 166.282 30.4161 166.152C22.9247 166.023 21.1816 168.063 21.1816 168.063H21.2001Z" fill="url(#paint27_linear_394_8612)"/>
<path style="mix-blend-mode:color-dodge" opacity="0.5" d="M32.6412 115.004C22.3127 120.755 38.6121 134.948 41.5604 126.748C44.4346 118.77 36.7207 112.722 32.6412 115.004Z" fill="url(#paint28_linear_394_8612)"/>
<path d="M37.2399 88.9383C24.0557 86.7677 47.1048 105.765 50.2571 100.626C50.2571 100.626 41.5604 89.6432 37.2399 88.9383Z" fill="white"/>
<path d="M35.4041 115.208C30.2491 114.837 39.7617 120.217 38.9644 117.972C38.167 115.727 38.167 115.412 35.4041 115.208Z" fill="white"/>
<path style="mix-blend-mode:color-dodge" opacity="0.5" d="M61.3088 101.757C57.4147 114.076 45.4359 121.256 34.5882 117.824C23.722 114.373 18.0849 101.609 21.9974 89.2905C25.91 76.972 37.8703 69.7923 48.718 73.2244C59.5657 76.6566 65.2214 89.4389 61.3088 101.757Z" fill="url(#paint29_radial_394_8612)"/>
<path d="M120.016 186.485C120.035 200.826 108.445 202.032 99.8784 198.266C92.2943 194.927 95.4095 187.506 99.8784 188.971C99.8784 188.971 98.4692 185.428 95.3725 182.46C92.6652 179.862 88.6413 177.71 83.1155 178.731C71.2664 180.901 65.481 185.484 67.0201 189.528C67.187 189.213 70.4506 187.654 73.4916 188.934C77.4598 190.622 78.7949 196.262 76.1062 200.845C73.7141 204.908 64.1274 206.243 58.0081 203.813C52.8717 201.791 49.9604 190.604 61.8466 178.731C72.3419 168.249 88.9009 161.236 99.8784 161.774C107.407 162.145 114.082 168.267 117.513 175.781C119.089 179.213 119.979 182.923 119.998 186.504L120.016 186.485Z" fill="url(#paint30_linear_394_8612)"/>
<path style="mix-blend-mode:multiply" opacity="0.5" d="M120.016 186.485C120.035 200.826 108.445 202.032 99.8784 198.266C92.2943 194.927 95.4095 187.506 99.8784 188.971C99.8784 188.971 98.4691 185.428 95.3724 182.46C97.3195 179.065 100.361 173.406 100.361 173.406C107.518 181.05 117.865 179.528 117.531 175.781C119.108 179.213 119.998 182.923 120.016 186.504V186.485Z" fill="url(#paint31_linear_394_8612)"/>
<path d="M105.961 191.958C103.531 196.206 99.8784 192.96 99.8784 192.96C99.8784 192.96 101.714 191.346 99.8784 188.971C99.8784 188.971 94.9645 176.541 83.1155 178.712C71.2665 180.882 65.481 185.465 67.0201 189.509C63.9419 192.83 64.5539 195.594 64.5539 195.594C58.2307 174.63 93.0546 171.068 98.4877 172.441C103.921 173.814 108.39 187.728 105.961 191.958Z" fill="url(#paint32_linear_394_8612)"/>
<path d="M64.5538 195.594C65.4439 198.748 69.5419 198.265 69.5419 198.265C69.5419 198.265 67.6505 202.736 63.0889 200.436C58.5088 198.154 61.3644 186.151 67.5022 181.68C67.5022 181.68 65.481 187.208 67.0386 189.509C67.0386 189.509 63.6267 192.217 64.5724 195.594H64.5538Z" fill="url(#paint33_linear_394_8612)"/>
<path style="mix-blend-mode:color-dodge" opacity="0.5" d="M76.0135 168.397C67.5764 173.109 87.0466 171.087 95.2612 169.733C103.476 168.379 106.832 164.742 105.497 163.128C104.143 161.514 91.1076 159.956 76.0135 168.397Z" fill="url(#paint34_linear_394_8612)"/>
<path style="mix-blend-mode:multiply" opacity="0.5" d="M107.073 180.437C106.999 184.074 107.37 196.392 108.074 197.004C108.779 197.617 117.365 198.192 118.978 191.383C120.591 184.575 118.681 180.53 115.751 180.437C112.821 180.345 107.11 178.323 107.073 180.437Z" fill="url(#paint35_linear_394_8612)"/>
<path style="mix-blend-mode:multiply" opacity="0.5" d="M20.8849 183.888C20.3286 189.231 29.4147 195.39 37.6849 195.594C45.9551 195.798 39.7617 184.203 36.424 180.493C33.0862 176.782 21.3114 179.769 20.8849 183.888Z" fill="url(#paint36_linear_394_8612)"/>
<path d="M89.8466 162.943C89.8466 162.943 89.7354 165.281 96.0586 164.891C102.382 164.483 101.436 161.923 101.436 161.923C101.436 161.923 95.6692 161.181 89.8466 162.943Z" fill="white"/>
<path style="mix-blend-mode:color-dodge" opacity="0.5" d="M94.2413 179.119C103.018 179.119 110.133 172.001 110.133 163.22C110.133 154.44 103.018 147.321 94.2413 147.321C85.4647 147.321 78.3499 154.44 78.3499 163.22C78.3499 172.001 85.4647 179.119 94.2413 179.119Z" fill="url(#paint37_radial_394_8612)"/>
<path style="mix-blend-mode:color-dodge" opacity="0.5" d="M64.5538 195.594C65.2585 198.841 78.5909 196.559 77.126 193.108C75.6611 189.657 73.2876 188.21 70.1353 188.452C66.983 188.693 63.9419 192.811 64.5538 195.575V195.594Z" fill="url(#paint38_linear_394_8612)"/>
<path d="M66.7605 84.3186C66.7605 84.3186 55.2267 76.8793 50.2386 68.2897C45.2505 59.7001 32.2333 33.0037 45.7326 18.1064C58.8611 17.2901 65.7221 22.5589 65.7221 22.5589L51.7591 29.0336C41.0227 56.5091 62.6439 78.4005 66.7605 84.3372V84.3186Z" fill="url(#paint39_linear_394_8612)"/>
<path d="M63.3485 23.6726L55.2637 22.04C55.2637 22.04 53.5021 23.5428 51.7591 29.0342L63.3485 23.6726Z" fill="url(#paint40_linear_394_8612)"/>
<path style="mix-blend-mode:multiply" opacity="0.5" d="M65.9075 87.2868C60.4558 83.7804 49.1075 94.151 51.9816 99.4754C54.8558 104.8 66.7419 131.589 69.9313 125.003C73.1393 118.417 73.436 92.1288 65.8889 87.2868H65.9075Z" fill="url(#paint41_linear_394_8612)"/>
<path style="mix-blend-mode:color-dodge" opacity="0.5" d="M77.3486 21.261C71.4519 23.6357 109.261 47.2895 110.467 43.6348C111.672 39.9986 110.541 34.1918 108.278 31.5574C106.016 28.923 94.0373 14.4895 77.3486 21.2424V21.261Z" fill="url(#paint42_linear_394_8612)"/>
<path d="M153.283 60.6284C150.075 70.0714 139.004 74.2456 133.534 71.4628C140.061 72.6687 146.218 66.7506 147.886 61.4261C151.521 49.7012 142.101 52.6696 143.177 58.8659C139.431 55.9162 138.318 50.3134 143.177 48.4768C148.035 46.6216 156.12 52.3356 153.301 60.6284H153.283Z" fill="url(#paint43_linear_394_8612)"/>
<g style="mix-blend-mode:soft-light" opacity="0.5">
<path d="M17.9736 47.2889C18.7154 66.9541 30.8425 65.6554 33.8651 60.2011C36.8876 54.7654 39.632 24.9708 36.4425 24.6369C33.2531 24.3029 17.6213 37.9387 17.9736 47.2889Z" fill="#9CE5FF"/>
</g>
<path d="M93.0917 20.6113C93.0917 20.6113 92.4241 26.5294 96.448 29.034C100.49 31.5385 102.734 26.0656 102.734 26.0656C102.734 26.0656 97.6347 21.5946 93.0917 20.6113Z" fill="white"/>
<path d="M88.2148 37.2715C101.974 41.019 105.775 56.881 110.967 65.4706C116.159 74.0416 121.648 79.0136 121.648 79.0136C121.648 79.0136 112.525 74.2086 106.48 60.6285C96.3923 37.9208 88.1963 37.29 88.1963 37.29L88.2148 37.2715Z" fill="url(#paint44_linear_394_8612)"/>
<path d="M41.7273 24.5254C35.0704 34.9516 38.0743 54.5426 51.9817 70.9055C51.9817 70.9055 41.3379 55.0064 40.2253 41.0367C39.1128 27.067 41.7088 24.5068 41.7088 24.5068L41.7273 24.5254Z" fill="url(#paint45_linear_394_8612)"/>
<path style="mix-blend-mode:multiply" opacity="0.5" d="M65.7406 22.5598L56.1909 26.9752C56.1909 26.9752 49.0333 41.5385 54.1697 56.1761L63.8678 64.5059C63.8678 64.5059 59.4545 68.5503 58.4717 73.1697L66.7605 84.3381C66.7605 84.3381 54.4664 77.2697 48.1989 64.5059C41.9313 51.7421 34.1988 30.7783 45.7326 18.1258C45.7326 18.1258 57.3962 16.6417 65.7221 22.5783L65.7406 22.5598Z" fill="url(#paint46_linear_394_8612)"/>
<path style="mix-blend-mode:color-dodge" opacity="0.5" d="M56.1724 108.659C61.8651 122.722 50.2386 134.242 50.2386 134.242C50.2386 134.242 54.3737 141.329 55.8201 154.112C55.8201 154.112 50.0902 117.731 64.9803 125.337C64.9803 125.337 62.9777 120.328 60.7896 116.191C58.6015 112.073 56.1538 108.659 56.1538 108.659H56.1724Z" fill="url(#paint47_linear_394_8612)"/>
<g style="mix-blend-mode:soft-light" opacity="0.5">
<path d="M119.089 67.4927C114.824 74.4311 127.452 85.2099 136.186 84.7275C144.92 84.2452 152.745 76.509 148.294 74.8949C143.844 73.2809 138.745 73.7818 133.905 72.2976C129.065 70.8135 120.165 65.7488 119.089 67.4927Z" fill="#9CE5FF"/>
</g>
<g style="mix-blend-mode:soft-light" opacity="0.5">
<path d="M146.347 72.297C150.946 77.9553 160.18 69.4029 158.864 65.3771C157.547 61.3327 144.827 70.4418 146.347 72.297Z" fill="#9CE5FF"/>
</g>
<path d="M68.4665 99.476C66.8532 99.5131 65.4996 109.383 68.4665 109.772C71.4333 110.162 72.2307 99.4018 68.4665 99.476Z" fill="url(#paint48_linear_394_8612)"/>
<path style="mix-blend-mode:color-dodge" opacity="0.5" d="M89.8466 65.7855C108.004 65.7855 122.724 51.0589 122.724 32.8928C122.724 14.7266 108.004 0 89.8466 0C71.6892 0 56.9697 14.7266 56.9697 32.8928C56.9697 51.0589 71.6892 65.7855 89.8466 65.7855Z" fill="url(#paint49_radial_394_8612)"/>
<path style="mix-blend-mode:multiply" opacity="0.7" d="M478.695 51.8711C478.695 51.8711 475.469 57.2697 475.061 61.1657C474.653 65.0616 478.695 67.2322 478.695 67.2322H582.796L582.722 170.4H524.793C524.793 170.4 520.306 172.905 518.285 176.467C518.285 176.467 519.063 182.793 520.287 185.761H598.15V51.8711H478.695Z" fill="url(#paint50_linear_394_8612)"/>
<path d="M482.218 67.2322C484.666 83.4281 502.579 87.0272 511.591 84.7268C512.054 84.6154 512.499 84.467 512.907 84.3186C532.878 76.972 541.908 67.2507 552.812 58.3643C557.318 54.691 563.233 54.858 568.814 57.1955C576.714 60.5164 583.927 68.234 585.522 75.6363C585.522 75.6363 588.618 72.0928 591.771 67.158C595.368 61.5367 599.021 54.1159 598.261 48.0865C596.833 36.7698 592.772 31.9091 592.772 31.9091V29.0892C592.772 29.0892 583.278 24.1358 572.152 21.2602C563.548 19.034 553.961 18.0322 547.082 21.5385C527.296 31.6494 528.539 49.4222 518.006 65.0245C515.336 68.9946 512.369 70.9055 509.477 71.4435C502.949 72.6494 496.793 66.7313 495.124 61.4069C491.49 49.682 500.91 52.6503 499.834 58.8467C499.834 58.8467 508.179 57.4924 508.994 51.8711C509.606 47.5485 505.23 41.6118 498.759 41.2037C492.306 40.7955 478.881 45.2666 482.2 67.2322H482.218Z" fill="url(#paint51_linear_394_8612)"/>
<path style="mix-blend-mode:multiply" opacity="0.5" d="M554.796 37.2712L568.796 57.196C576.695 60.5168 583.909 68.2345 585.503 75.6368C585.503 75.6368 588.6 72.0933 591.752 67.1585C595.35 61.5372 599.003 54.1164 598.242 48.087C596.815 36.7702 592.754 31.9096 592.754 31.9096V29.0897C592.754 29.0897 583.26 24.1363 572.134 21.2607C582.481 29.4978 554.777 37.2712 554.777 37.2712H554.796Z" fill="url(#paint52_linear_394_8612)"/>
<path d="M511.591 84.7273C512.054 84.616 512.499 84.4676 512.907 84.3192C532.878 76.9726 541.908 67.2513 552.812 58.3649C563.715 49.4785 582.796 63.0029 585.522 75.6368C585.522 75.6368 588.618 72.0934 591.771 67.1586L590.473 62.1866C586.152 45.6753 572.82 33.9504 556.057 36.9744C539.498 39.9613 540.277 72.3346 511.609 84.7273H511.591Z" fill="url(#paint53_linear_394_8612)"/>
<path d="M576.25 145.114C576.25 145.114 577.938 133.76 587.228 113.149C596.518 92.5372 609.257 84.4856 609.257 84.4856C614.505 77.6028 618.176 71.592 620.717 66.4716C627.856 52.1123 626.15 44.7843 626.15 44.7843C615.246 21.7426 597.278 18.1064 597.278 18.1064C584.15 17.2901 577.289 22.5589 577.289 22.5589L591.252 29.0336C601.988 56.5091 580.367 78.4005 576.25 84.3372C572.134 90.2738 563.993 118.529 576.25 145.114Z" fill="url(#paint54_linear_394_8612)"/>
<path style="mix-blend-mode:multiply" opacity="0.5" d="M576.25 145.114C576.25 145.114 577.938 133.76 587.228 113.149C596.518 92.5377 609.257 84.4861 609.257 84.4861C614.505 77.6033 618.176 71.5925 620.717 66.4721C603.119 82.0187 599.559 63.8748 601.376 48.9219C601.172 49.6825 594.756 74.2454 576.25 84.3192C572.134 90.2558 563.993 118.511 576.25 145.096V145.114Z" fill="url(#paint55_linear_394_8612)"/>
<path d="M583.575 155.374C583.408 154.836 585.373 127.805 585.819 127.675C586.264 127.527 601.358 118.826 601.358 118.826L605.27 131.182C589.008 144.298 589.156 158.732 591.678 169.677C593.199 176.263 597.964 182.404 600.69 180.938C603.36 179.51 601.413 176.931 601.413 176.931C597.297 177.58 596.37 170.03 601.784 168.731C601.784 168.731 605.975 169.139 609.164 174.798C612.354 180.475 604.732 184.612 604.732 184.612C604.732 184.612 603.898 184.371 602.86 183.999L595.016 186.485C595.016 186.485 583.742 155.912 583.575 155.374Z" fill="url(#paint56_linear_394_8612)"/>
<path d="M632.584 97.0273C639.482 105.097 642.653 112.63 642.968 115.505C643.283 118.381 642.023 134.465 633.048 139.289C624.073 144.112 607.069 140.272 607.069 140.272C607.069 140.272 633.103 134.502 634.531 118.956C635.959 103.428 632.566 97.0273 632.566 97.0273H632.584Z" fill="url(#paint57_linear_394_8612)"/>
<path d="M576.028 134.818C576.102 132.536 576.528 130.143 577.27 127.657C577.493 126.896 577.734 126.136 578.012 125.356C578.012 125.301 578.049 125.264 578.049 125.264C584.724 106.47 605.993 84.8017 609.887 84.3193C614.468 83.7628 634.16 91.4062 637.702 107.305C641.244 123.204 628.004 143.593 607.087 140.291C602.081 139.493 600.245 127.137 600.245 127.137C600.245 127.137 589.193 134.206 587.191 154.112C585.485 171.013 597.519 186.894 604.009 181.328C607.57 178.285 605.734 173.184 602.841 171.774C601.858 171.291 600.653 172.85 600.653 172.85C603.675 174.649 602.025 176.875 601.432 176.913C600.82 176.95 597.927 177.135 598.038 173.536C598.15 169.937 600.486 168.694 604.083 167.655C605.956 166.932 608.905 166.134 612.595 166.171C619.159 166.245 621.829 168.082 621.829 168.082C634.272 184.129 614.43 201.086 598.242 197.895C592.55 196.763 588.025 191.105 584.595 183.369C578.271 169.121 575.62 147.823 576.028 134.837V134.818Z" fill="url(#paint58_linear_394_8612)"/>
<path d="M603.842 115.988C603.842 115.988 606.494 113.724 609.498 113.186C612.502 112.648 621.903 116.025 622.107 117.936C622.311 119.846 614.097 128.343 614.097 128.343C614.097 128.343 617.546 117.88 612.446 115.283C607.347 112.685 603.824 115.969 603.824 115.969L603.842 115.988Z" fill="url(#paint59_linear_394_8612)"/>
<path style="mix-blend-mode:multiply" opacity="0.5" d="M603.842 115.987C601.747 118.455 599.485 123.538 600.226 127.137C600.968 130.718 601.988 134.038 601.988 134.038C601.988 134.038 599.336 136.599 597.983 138.417C597.983 138.417 593.458 140.049 591.011 139.177C591.011 139.177 593.032 132.332 597.278 124.428C601.524 116.525 603.824 115.987 603.824 115.987H603.842Z" fill="url(#paint60_linear_394_8612)"/>
<path style="mix-blend-mode:color-dodge" opacity="0.5" d="M613.448 84.7637C600.968 88.103 583.074 114.632 583.074 114.632C583.074 114.632 589.397 104.002 597.686 94.8374C605.993 85.6727 608.219 84.9492 609.257 84.4668C610.295 83.9845 613.448 84.7451 613.448 84.7451V84.7637Z" fill="url(#paint61_linear_394_8612)"/>
<path style="mix-blend-mode:color-dodge" opacity="0.5" d="M621.829 168.063C627.058 176.133 619.697 180.734 612.91 177.877C606.123 175.02 602.804 168.397 602.804 168.397C602.804 168.397 605.103 166.282 612.613 166.152C620.105 166.023 621.848 168.063 621.848 168.063H621.829Z" fill="url(#paint62_linear_394_8612)"/>
<path style="mix-blend-mode:color-dodge" opacity="0.5" d="M610.37 115.004C620.698 120.755 604.399 134.948 601.45 126.748C598.576 118.77 606.29 112.722 610.37 115.004Z" fill="url(#paint63_linear_394_8612)"/>
<path d="M605.771 88.9383C618.955 86.7677 595.906 105.765 592.754 100.626C592.754 100.626 601.45 89.6432 605.771 88.9383Z" fill="white"/>
<path d="M607.607 115.208C612.762 114.837 603.249 120.217 604.046 117.972C604.844 115.727 604.844 115.412 607.607 115.208Z" fill="white"/>
<path style="mix-blend-mode:color-dodge" opacity="0.5" d="M608.437 117.778C619.292 114.335 624.929 101.56 621.026 89.2436C617.123 76.9275 605.16 69.7345 594.304 73.1777C583.448 76.6209 577.812 89.3963 581.715 101.712C585.617 114.029 597.581 121.221 608.437 117.778Z" fill="url(#paint64_radial_394_8612)"/>
<path d="M523.013 186.485C522.995 200.826 534.584 202.032 543.151 198.266C550.735 194.927 547.62 187.506 543.151 188.971C543.151 188.971 544.56 185.428 547.657 182.46C550.364 179.862 554.388 177.71 559.914 178.731C571.763 180.901 577.548 185.484 576.009 189.528C575.842 189.213 572.579 187.654 569.538 188.934C565.569 190.622 564.234 196.262 566.923 200.845C569.315 204.908 578.902 206.243 585.021 203.813C590.158 201.791 593.069 190.604 581.183 178.731C570.687 168.249 554.128 161.236 543.151 161.774C535.622 162.145 528.947 168.267 525.516 175.781C523.94 179.213 523.05 182.923 523.032 186.504L523.013 186.485Z" fill="url(#paint65_linear_394_8612)"/>
<path style="mix-blend-mode:multiply" opacity="0.5" d="M523.013 186.485C522.995 200.826 534.584 202.032 543.151 198.266C550.735 194.927 547.62 187.506 543.151 188.971C543.151 188.971 544.56 185.428 547.657 182.46C545.71 179.065 542.669 173.406 542.669 173.406C535.511 181.05 525.164 179.528 525.498 175.781C523.922 179.213 523.032 182.923 523.013 186.504V186.485Z" fill="url(#paint66_linear_394_8612)"/>
<path d="M537.05 191.958C539.479 196.206 543.132 192.96 543.132 192.96C543.132 192.96 541.297 191.346 543.132 188.971C543.132 188.971 548.046 176.541 559.895 178.712C571.744 180.882 577.53 185.465 575.991 189.509C579.069 192.83 578.457 195.594 578.457 195.594C584.78 174.63 549.956 171.068 544.523 172.441C539.09 173.814 534.621 187.728 537.05 191.958Z" fill="url(#paint67_linear_394_8612)"/>
<path d="M578.457 195.594C577.567 198.748 573.469 198.265 573.469 198.265C573.469 198.265 575.36 202.736 579.922 200.436C584.502 198.154 581.646 186.151 575.527 181.68C575.527 181.68 577.548 187.208 575.991 189.509C575.991 189.509 579.403 192.217 578.457 195.594Z" fill="url(#paint68_linear_394_8612)"/>
<path style="mix-blend-mode:color-dodge" opacity="0.5" d="M567.016 168.397C575.453 173.109 555.983 171.087 547.768 169.733C539.553 168.379 536.197 164.742 537.532 163.128C538.886 161.514 551.922 159.956 567.016 168.397Z" fill="url(#paint69_linear_394_8612)"/>
<path style="mix-blend-mode:multiply" opacity="0.5" d="M535.938 180.437C536.012 184.074 535.641 196.392 534.936 197.004C534.232 197.617 525.646 198.192 524.033 191.383C522.42 184.575 524.33 180.53 527.259 180.437C530.189 180.345 535.9 178.323 535.938 180.437Z" fill="url(#paint70_linear_394_8612)"/>
<path style="mix-blend-mode:multiply" opacity="0.5" d="M622.126 183.888C622.682 189.231 613.596 195.39 605.326 195.594C597.037 195.798 603.249 184.203 606.587 180.493C609.924 176.782 621.699 179.769 622.126 183.888Z" fill="url(#paint71_linear_394_8612)"/>
<path d="M553.164 162.943C553.164 162.943 553.275 165.281 546.952 164.891C540.629 164.483 541.575 161.923 541.575 161.923C541.575 161.923 547.342 161.181 553.164 162.943Z" fill="white"/>
<path style="mix-blend-mode:color-dodge" opacity="0.5" d="M548.769 179.119C557.546 179.119 564.661 172.001 564.661 163.22C564.661 154.44 557.546 147.321 548.769 147.321C539.993 147.321 532.878 154.44 532.878 163.22C532.878 172.001 539.993 179.119 548.769 179.119Z" fill="url(#paint72_radial_394_8612)"/>
<path style="mix-blend-mode:color-dodge" opacity="0.5" d="M578.457 195.594C577.752 198.841 564.42 196.559 565.885 193.108C567.35 189.657 569.723 188.21 572.875 188.452C576.028 188.711 579.069 192.811 578.457 195.575V195.594Z" fill="url(#paint73_linear_394_8612)"/>
<path d="M576.25 84.3186C576.25 84.3186 587.784 76.8793 592.772 68.2897C597.76 59.7001 610.777 33.0037 597.278 18.1064C584.15 17.2901 577.289 22.5589 577.289 22.5589L591.252 29.0336C601.988 56.5091 580.367 78.4005 576.25 84.3372V84.3186Z" fill="url(#paint74_linear_394_8612)"/>
<path d="M579.662 23.6726L587.747 22.04C587.747 22.04 589.509 23.5428 591.252 29.0342L579.662 23.6726Z" fill="url(#paint75_linear_394_8612)"/>
<path style="mix-blend-mode:multiply" opacity="0.5" d="M577.103 87.2868C582.555 83.7804 593.903 94.151 591.029 99.4754C588.155 104.8 576.269 131.589 573.079 125.003C569.871 118.417 569.575 92.1288 577.122 87.2868H577.103Z" fill="url(#paint76_linear_394_8612)"/>
<path style="mix-blend-mode:color-dodge" opacity="0.5" d="M565.662 21.261C571.559 23.6357 533.749 47.2895 532.544 43.6348C531.339 39.9986 532.47 34.1918 534.732 31.5574C536.995 28.923 548.973 14.4895 565.662 21.2424V21.261Z" fill="url(#paint77_linear_394_8612)"/>
<path d="M489.728 60.6284C492.936 70.0714 504.006 74.2456 509.477 71.4628C502.949 72.6687 496.793 66.7506 495.124 61.4261C491.49 49.7012 500.91 52.6696 499.834 58.8659C503.58 55.9162 504.692 50.3134 499.834 48.4768C494.976 46.6216 486.891 52.3356 489.71 60.6284H489.728Z" fill="url(#paint78_linear_394_8612)"/>
<g style="mix-blend-mode:soft-light" opacity="0.5">
<path d="M625.037 47.2889C624.295 66.9541 612.168 65.6554 609.146 60.2011C606.123 54.7654 603.379 24.9708 606.568 24.6369C609.758 24.3029 625.389 37.9387 625.037 47.2889Z" fill="#9CE5FF"/>
</g>
<path d="M549.919 20.6113C549.919 20.6113 550.587 26.5294 546.563 29.034C542.52 31.5385 540.277 26.0656 540.277 26.0656C540.277 26.0656 545.376 21.5946 549.919 20.6113Z" fill="white"/>
<path d="M554.796 37.2715C541.037 41.019 537.236 56.881 532.044 65.4706C526.852 74.0602 521.363 79.0136 521.363 79.0136C521.363 79.0136 530.486 74.2086 536.531 60.6285C546.618 37.9208 554.814 37.29 554.814 37.29L554.796 37.2715Z" fill="url(#paint79_linear_394_8612)"/>
<path d="M601.283 24.5254C607.94 34.9516 604.936 54.5426 591.029 70.9055C591.029 70.9055 601.673 55.0064 602.785 41.0367C603.898 27.067 601.302 24.5068 601.302 24.5068L601.283 24.5254Z" fill="url(#paint80_linear_394_8612)"/>
<path style="mix-blend-mode:multiply" opacity="0.5" d="M577.27 22.5598L586.82 26.9752C586.82 26.9752 593.977 41.5385 588.841 56.1761L579.143 64.5059C579.143 64.5059 583.556 68.5503 584.539 73.1697L576.25 84.3381C576.25 84.3381 588.544 77.2697 594.812 64.5059C601.079 51.7421 608.812 30.7783 597.278 18.1258C597.278 18.1258 585.615 16.6417 577.289 22.5783L577.27 22.5598Z" fill="url(#paint81_linear_394_8612)"/>
<path style="mix-blend-mode:color-dodge" opacity="0.5" d="M586.838 108.659C581.146 122.722 592.772 134.242 592.772 134.242C592.772 134.242 588.637 141.329 587.191 154.112C587.191 154.112 592.92 117.731 578.03 125.337C578.03 125.337 580.033 120.328 582.221 116.191C584.409 112.073 586.857 108.659 586.857 108.659H586.838Z" fill="url(#paint82_linear_394_8612)"/>
<g style="mix-blend-mode:soft-light" opacity="0.5">
<path d="M523.922 67.4927C528.187 74.4311 515.559 85.2099 506.825 84.7275C498.091 84.2452 490.266 76.509 494.716 74.8949C499.167 73.2809 504.266 73.7818 509.106 72.2976C513.945 70.8135 522.846 65.7488 523.922 67.4927Z" fill="#9CE5FF"/>
</g>
<g style="mix-blend-mode:soft-light" opacity="0.5">
<path d="M496.663 72.297C492.065 77.9553 482.83 69.4029 484.147 65.3771C485.463 61.3327 498.184 70.4418 496.663 72.297Z" fill="#9CE5FF"/>
</g>
<path d="M574.544 99.476C576.158 99.5131 577.511 109.383 574.544 109.772C571.577 110.18 570.78 99.4018 574.544 99.476Z" fill="url(#paint83_linear_394_8612)"/>
<path style="mix-blend-mode:color-dodge" opacity="0.5" d="M553.164 65.7855C571.322 65.7855 586.041 51.0589 586.041 32.8928C586.041 14.7266 571.322 0 553.164 0C535.007 0 520.287 14.7266 520.287 32.8928C520.287 51.0589 535.007 65.7855 553.164 65.7855Z" fill="url(#paint84_radial_394_8612)"/>
<path style="mix-blend-mode:multiply" opacity="0.7" d="M197.897 170.141C190.628 176.337 199.789 185.761 199.789 185.761H321.487C321.487 185.761 321.097 172.961 316.851 170.4L197.897 170.122V170.141Z" fill="url(#paint85_linear_394_8612)"/>
<path d="M316.128 187.486C313.866 197.857 297.678 205 297.678 205C297.678 205 301.071 201.048 300.885 195.705C300.756 192.162 299.958 188.173 295.044 185.798C292.56 184.592 288.999 183.813 283.956 183.72C271.847 183.498 261.333 189.1 250.3 194.221C249.911 194.406 249.503 194.592 249.076 194.759C248.872 194.852 248.687 194.926 248.483 195.019C236.949 199.879 216.273 204.35 207.484 192.867C203.404 187.542 199.807 179.268 201.291 173.443C201.383 173.109 201.476 172.793 201.587 172.478V172.459C202.477 170.122 204.313 168.267 207.465 167.302C218.499 163.907 227.659 169.194 227.937 177.598C228.197 186.002 218.517 184.277 218.517 184.277C218.684 184.184 221.799 182.199 220.39 179.991C217.738 175.817 213.659 179.157 213.659 184.017C213.659 185.353 214.178 186.596 215.235 187.542C215.884 188.117 216.737 188.6 217.794 188.934C217.794 188.934 217.812 188.934 217.831 188.934C221.391 190.047 227.325 189.601 236.003 186.169C238.599 185.13 241.77 183.498 245.293 181.513C245.33 181.513 245.349 181.476 245.367 181.476C245.442 181.438 245.497 181.401 245.534 181.383C245.534 181.383 245.553 181.383 245.571 181.383C245.571 181.383 245.59 181.383 245.609 181.383C263.206 171.346 289.222 152.46 296.583 153.351C296.899 153.388 297.214 153.443 297.529 153.518C306.467 155.429 320.115 169.12 316.091 187.579L316.128 187.486Z" fill="url(#paint86_linear_394_8612)"/>
<path style="mix-blend-mode:multiply" opacity="0.5" d="M316.128 187.486C313.866 197.857 297.678 204.999 297.678 204.999C297.678 204.999 301.071 201.048 300.885 195.705C300.756 192.161 299.958 188.173 295.044 185.798C298.679 177.784 302.128 171.699 304.186 171.866C310.101 172.329 308.451 160.215 297.548 153.443C306.485 155.354 320.133 169.046 316.109 187.505L316.128 187.486Z" fill="url(#paint87_linear_394_8612)"/>
<path d="M297.677 204.999C297.677 204.999 301.071 201.048 300.885 195.705C300.7 190.362 298.957 183.998 283.956 183.72C271.847 183.498 261.333 189.1 250.3 194.221C249.725 194.48 249.113 194.759 248.483 195.018C273.942 175.873 301.164 168.712 304.205 171.847C307.227 175.001 310.862 194.351 297.696 204.981L297.677 204.999Z" fill="url(#paint88_linear_394_8612)"/>
<path d="M218.536 184.258C218.703 184.165 221.818 182.18 220.408 179.973C217.757 175.798 213.677 179.138 213.677 183.998C213.677 186.15 214.994 188.024 217.812 188.915C210.859 187.078 208.8 179.694 208.93 176.058C209.06 172.422 221.039 171.068 223.746 174.166C226.435 177.264 223.895 182.644 218.536 184.239V184.258Z" fill="url(#paint89_linear_394_8612)"/>
<path style="mix-blend-mode:multiply" opacity="0.5" d="M274.239 181.976C282.454 183.813 295.378 184.666 297.937 183.72C300.496 182.774 306.411 173.016 302.777 171.847C299.142 170.678 266.432 180.214 274.239 181.976Z" fill="url(#paint90_linear_394_8612)"/>
<g style="mix-blend-mode:soft-light" opacity="0.5">
<path d="M246.907 184.129C237.023 199.286 287.627 169.936 292.875 165.094C298.123 160.252 297.511 153.685 290.538 154.742C290.538 154.742 252.414 175.669 246.888 184.147L246.907 184.129Z" fill="#9CE5FF"/>
</g>
<path style="mix-blend-mode:color-dodge" opacity="0.5" d="M266.84 173.331C280.154 177.95 296.194 159.101 292.411 157.079C288.647 155.057 257.402 170.066 266.84 173.331Z" fill="url(#paint91_linear_394_8612)"/>
<g style="mix-blend-mode:soft-light" opacity="0.5">
<path d="M204.832 169.583C205.593 174.055 220.928 172.311 221.744 171.142C222.559 169.992 219.444 166.318 213.937 166.244C207.873 166.151 204.628 168.303 204.832 169.583Z" fill="#9CE5FF"/>
</g>
<path style="mix-blend-mode:multiply" opacity="0.5" d="M266.321 183.535L249.076 194.777C248.872 194.87 248.687 194.944 248.483 195.037C236.949 199.897 216.273 204.368 207.484 192.885C203.404 187.56 199.807 179.286 201.291 173.461C201.457 172.923 201.569 172.589 201.587 172.496V172.478C202.793 181.475 208.93 176.095 208.93 176.095C208.93 176.095 209.227 184.444 215.235 187.56C215.884 188.135 216.737 188.618 217.794 188.952C217.794 188.952 217.812 188.952 217.831 188.952C221.391 190.065 227.325 189.62 236.003 186.187C238.599 185.149 241.77 183.516 245.293 181.531C243.087 182.83 230.663 190.436 237.728 193.2C245.145 196.113 264.689 184.536 266.303 183.572L266.321 183.535Z" fill="url(#paint92_linear_394_8612)"/>
<path d="M273.034 164.89C273.034 164.89 272.422 167.506 277.762 166.263C283.121 165.02 282.973 159.102 282.973 159.102C282.973 159.102 273.979 162.738 273.034 164.89Z" fill="white"/>
<path style="mix-blend-mode:multiply" opacity="0.7" d="M445.076 170.141C452.345 176.337 443.185 185.761 443.185 185.761H321.487C321.487 185.761 321.876 172.961 326.123 170.4L445.076 170.122V170.141Z" fill="url(#paint93_linear_394_8612)"/>
<path d="M326.864 187.486C329.127 197.857 345.315 205 345.315 205C345.315 205 341.921 201.048 342.107 195.705C342.237 192.162 343.034 188.173 347.948 185.798C350.433 184.592 353.993 183.813 359.037 183.72C371.145 183.498 381.659 189.1 392.692 194.221C393.082 194.406 393.49 194.592 393.916 194.759C394.12 194.852 394.306 194.926 394.51 195.019C406.043 199.879 426.719 204.35 435.508 192.867C439.588 187.542 443.185 179.268 441.702 173.443C441.609 173.109 441.516 172.793 441.405 172.478V172.459C440.515 170.122 438.679 168.267 435.527 167.302C424.494 163.907 415.333 169.194 415.055 177.598C414.796 186.002 424.475 184.277 424.475 184.277C424.308 184.184 421.193 182.199 422.602 179.991C425.254 175.817 429.333 179.157 429.333 184.017C429.333 185.353 428.814 186.596 427.757 187.542C427.108 188.117 426.255 188.6 425.198 188.934C425.198 188.934 425.18 188.934 425.161 188.934C421.601 190.047 415.667 189.601 406.989 186.169C404.393 185.13 401.222 183.498 397.699 181.513C397.662 181.513 397.643 181.476 397.625 181.476C397.551 181.438 397.495 181.401 397.458 181.383C397.458 181.383 397.439 181.383 397.421 181.383C397.421 181.383 397.402 181.383 397.384 181.383C379.786 171.346 353.77 152.46 346.409 153.351C346.094 153.388 345.778 153.443 345.463 153.518C336.525 155.429 322.878 169.12 326.901 187.579L326.864 187.486Z" fill="url(#paint94_linear_394_8612)"/>
<path style="mix-blend-mode:multiply" opacity="0.5" d="M326.864 187.486C329.127 197.857 345.315 204.999 345.315 204.999C345.315 204.999 341.921 201.048 342.107 195.705C342.237 192.161 343.034 188.173 347.948 185.798C344.313 177.784 340.864 171.699 338.806 171.866C332.891 172.329 334.541 160.215 345.444 153.443C336.507 155.354 322.859 169.046 326.883 187.505L326.864 187.486Z" fill="url(#paint95_linear_394_8612)"/>
<path d="M345.296 204.999C345.296 204.999 341.903 201.048 342.088 195.705C342.274 190.362 344.017 183.998 359.018 183.72C371.127 183.498 381.641 189.1 392.674 194.221C393.249 194.48 393.86 194.759 394.491 195.018C369.031 175.873 341.81 168.712 338.769 171.847C335.728 174.982 332.112 194.351 345.278 204.981L345.296 204.999Z" fill="url(#paint96_linear_394_8612)"/>
<path d="M424.457 184.258C424.29 184.165 421.174 182.18 422.584 179.973C425.235 175.798 429.315 179.138 429.315 183.998C429.315 186.15 427.998 188.024 425.18 188.915C432.133 187.078 434.192 179.694 434.062 176.058C433.932 172.422 421.953 171.068 419.246 174.166C416.557 177.264 419.098 182.644 424.457 184.239V184.258Z" fill="url(#paint97_linear_394_8612)"/>
<path style="mix-blend-mode:multiply" opacity="0.5" d="M368.753 181.976C360.539 183.813 347.614 184.666 345.055 183.72C342.496 182.774 336.581 173.016 340.215 171.847C343.85 170.678 376.56 180.214 368.753 181.976Z" fill="url(#paint98_linear_394_8612)"/>
<g style="mix-blend-mode:soft-light" opacity="0.5">
<path d="M396.086 184.129C405.969 199.286 355.365 169.936 350.117 165.094C344.87 160.252 345.482 153.685 352.454 154.742C352.454 154.742 390.578 175.669 396.104 184.147L396.086 184.129Z" fill="#9CE5FF"/>
</g>
<path style="mix-blend-mode:color-dodge" opacity="0.5" d="M376.152 173.331C362.838 177.95 346.798 159.101 350.581 157.079C354.345 155.057 385.59 170.066 376.152 173.331Z" fill="url(#paint99_linear_394_8612)"/>
<g style="mix-blend-mode:soft-light" opacity="0.5">
<path d="M438.16 169.583C437.4 174.055 422.065 172.311 421.249 171.142C420.433 169.992 423.548 166.318 429.055 166.244C435.119 166.151 438.364 168.303 438.16 169.583Z" fill="#9CE5FF"/>
</g>
<path style="mix-blend-mode:multiply" opacity="0.5" d="M376.671 183.535L393.916 194.777C394.12 194.87 394.306 194.944 394.509 195.037C406.043 199.897 426.719 204.368 435.508 192.885C439.588 187.56 443.185 179.286 441.702 173.461C441.535 172.923 441.423 172.589 441.405 172.496V172.478C440.2 181.475 434.062 176.095 434.062 176.095C434.062 176.095 433.765 184.444 427.757 187.56C427.108 188.135 426.255 188.618 425.198 188.952C425.198 188.952 425.18 188.952 425.161 188.952C421.601 190.065 415.667 189.62 406.989 186.187C404.393 185.149 401.222 183.516 397.699 181.531C399.906 182.83 412.329 190.436 405.264 193.2C397.847 196.113 378.303 184.536 376.69 183.572L376.671 183.535Z" fill="url(#paint100_linear_394_8612)"/>
<path d="M369.94 164.89C369.94 164.89 370.552 167.506 365.211 166.263C359.871 165.02 360.001 159.102 360.001 159.102C360.001 159.102 368.994 162.738 369.94 164.89Z" fill="white"/>
<g filter="url(#filter0_d_394_8612)">
<path d="M189.435 103.584C189.435 111.504 203.259 113.616 203.259 122.832C203.259 129.696 197.835 132.864 191.547 132.864C187.659 132.864 182.235 130.128 182.235 124.704C182.235 120.528 184.827 118.08 188.427 118.08C194.715 118.08 194.571 125.808 190.059 126.144C188.618 126.24 187.323 125.472 187.323 123.696C187.323 122.544 188.283 121.824 189.243 121.824C189.675 121.824 190.155 122.016 190.443 122.448C190.443 122.448 189.195 122.4 189.051 123.312C188.907 123.84 189.291 124.08 189.771 124.08C192.027 124.08 191.931 119.76 189.339 119.76C184.73 119.76 184.395 130.992 191.739 130.992C195.867 130.992 196.971 127.152 196.971 124.944C196.971 116.064 183.146 114.864 183.146 105.36C183.146 98.544 189.771 96.336 193.515 96.336C199.035 96.336 202.059 99.504 202.299 103.152C202.587 106.944 200.043 108.96 197.691 108.96C195.867 108.96 194.091 107.712 193.898 105.072C193.755 103.104 194.859 101.52 196.635 101.424C198.939 101.232 199.371 104.448 197.643 105.552C197.643 105.552 197.691 103.92 196.491 103.68C194.907 103.344 195.003 106.56 197.739 106.32C199.227 106.272 200.187 104.976 200.043 103.104C199.851 100.512 197.979 97.728 194.571 97.728C192.315 97.728 189.435 99.12 189.435 103.584ZM218.408 104.16V103.152L230.072 103.536V104.928L229.304 104.88C227.048 104.88 225.752 105.456 225.608 107.568L224.648 124.176C224.408 128.688 227.72 128.736 228.92 128.736L229.64 128.688V129.696L219.368 130.272V129.216H219.416L219.464 128.064C218.264 129.792 216.44 130.848 214.184 130.848C210.248 130.848 206.36 127.104 206.888 118.368L207.416 109.776C207.272 107.904 206.312 106.992 204.776 106.896L204.824 105.84L216.248 106.272L216.2 107.328H215.72C214.76 107.28 213.848 107.904 213.56 109.536L212.888 118.8C212.552 123.36 212.84 127.824 215.72 128.16C218.12 128.448 219.656 125.136 219.8 121.968L220.568 108.528C220.568 105.984 220.904 104.304 218.696 104.208L218.408 104.16ZM245.917 100.032C250.525 100.032 253.069 105.168 253.069 114C253.069 124.464 249.517 128.304 245.053 128.304C242.605 128.304 240.637 127.296 239.533 125.28L239.245 134.4C239.197 136.992 241.597 136.992 244.861 136.992V138H228.541V136.992H229.597C233.197 136.992 233.869 136.128 233.917 133.296L234.637 104.352C234.397 102.912 233.389 102.384 231.469 102.384L229.645 102.48V100.656H240.109V101.712L240.061 102.48C241.405 100.896 243.421 100.032 245.917 100.032ZM242.845 125.04C246.637 125.04 247.069 119.568 247.069 114.048V113.856C247.069 108.864 246.541 103.728 243.421 103.728C241.165 103.728 240.013 106.128 239.965 108.72C239.965 109.056 239.965 109.344 239.917 109.632L239.629 120.432C239.677 122.688 240.829 125.04 242.845 125.04ZM268.933 100.032C273.541 100.032 276.085 105.168 276.085 114C276.085 124.464 272.533 128.304 268.069 128.304C265.621 128.304 263.653 127.296 262.549 125.28L262.261 134.4C262.213 136.992 264.613 136.992 267.877 136.992V138H251.557V136.992H252.613C256.213 136.992 256.885 136.128 256.933 133.296L257.653 104.352C257.413 102.912 256.405 102.384 254.485 102.384L252.661 102.48V100.656H263.125V101.712L263.077 102.48C264.421 100.896 266.437 100.032 268.933 100.032ZM265.861 125.04C269.653 125.04 270.085 119.568 270.085 114.048V113.856C270.085 108.864 269.557 103.728 266.437 103.728C264.181 103.728 263.029 106.128 262.981 108.72C262.981 109.056 262.981 109.344 262.933 109.632L262.645 120.432C262.693 122.688 263.845 125.04 265.861 125.04ZM300.965 115.632C300.965 121.92 298.181 131.232 290.453 131.232C285.221 131.616 278.885 127.152 278.885 116.256C278.885 109.728 282.389 102.144 290.117 102.144C296.213 102.144 300.965 107.616 300.965 115.632ZM294.677 112.416C294.773 108.768 293.381 103.92 290.309 103.92C288.197 103.92 285.605 106.704 285.221 113.616C285.605 112.608 286.517 111.648 288.197 111.648C290.837 111.648 291.797 114.24 290.309 115.632C290.309 115.632 290.069 114 288.821 113.952C287.285 113.856 287.525 118.032 290.453 118.032C293.045 118.032 294.629 115.824 294.677 112.416ZM290.309 129.264C292.901 129.264 294.005 125.76 294.437 120.24C293.333 120.672 292.037 120.96 290.453 120.864C287.765 120.624 285.797 118.944 285.173 116.496C285.317 125.568 286.805 129.264 290.309 129.264ZM316.674 95.52C326.178 95.52 327.138 109.488 317.25 109.488C313.266 109.488 313.122 104.112 316.338 104.112C317.346 104.112 318.114 104.976 317.922 105.936C317.922 105.936 317.442 105.456 316.914 105.456C316.77 105.456 316.578 105.504 316.434 105.6C315.714 106.08 315.858 107.568 317.394 107.568C320.418 107.568 320.994 98.208 315.33 98.208C311.394 98.208 310.578 102.192 310.578 105.36V118.272C310.578 120.816 312.162 122.064 314.418 122.208V123.216L300.978 123.264V121.44L302.946 121.536C304.674 121.44 305.634 120.96 305.634 119.136V101.184C305.634 98.352 302.562 97.632 301.362 97.632L300.354 97.68V96.672L310.578 96.096V99.12C311.826 96.864 314.034 95.52 316.674 95.52ZM337.45 121.776C337.45 119.952 338.938 118.896 340.57 118.896C342.49 118.896 344.65 120.432 344.65 123.936C344.65 128.016 341.53 130.368 338.122 130.368C333.946 130.368 329.242 126.816 329.242 118.608V101.856L324.826 101.952L324.682 99.936L329.242 99.888V93.6L335.098 93.312V99.792L341.386 99.744L341.53 101.52L335.098 101.712V119.136C335.098 124.128 336.346 127.152 339.322 127.152C340.906 127.152 342.586 125.568 342.586 122.88C342.586 121.44 341.77 120.816 341.002 120.816C340.33 120.816 339.754 121.296 339.754 122.016C339.754 123.216 341.386 123.552 341.386 123.552C340.906 124.032 340.33 124.272 339.754 124.272C338.554 124.272 337.45 123.36 337.45 121.776ZM357.975 120.144C355.191 120.144 352.503 118.752 351.783 116.256C351.975 125.472 354.663 129.264 358.215 129.264C361.143 129.264 362.775 126.048 362.775 122.592L366.423 121.968C366.375 128.304 362.343 131.232 357.927 131.232C352.647 131.616 345.495 127.152 345.495 116.256C345.495 109.728 349.431 102.144 357.159 102.144C368.631 102.144 370.791 120.144 357.975 120.144ZM351.831 113.616C352.215 112.56 353.127 111.648 354.807 111.648C357.447 111.648 358.407 114.24 356.919 115.632C356.919 115.632 356.631 114 355.431 113.952C353.895 113.856 354.471 118.032 357.927 118.032C363.831 118.032 363.783 103.92 357.783 103.92C355.671 103.92 352.359 106.704 351.831 113.616ZM393.739 132.768L393.787 134.592L383.371 135.216C382.459 136.704 381.115 137.712 379.387 137.856C373.771 138.144 369.787 133.344 369.355 126C369.307 125.616 369.307 125.28 369.355 124.944C369.211 116.976 373.819 113.712 377.083 113.52C378.667 113.424 380.011 113.664 381.163 114.336L379.531 99.408C379.483 99.36 379.483 99.12 379.435 98.64C379.195 96.48 377.323 95.904 374.731 95.904L373.435 95.952L373.387 94.944L389.707 94.368L389.803 95.424L387.643 95.472H388.699C385.531 95.664 384.811 96.336 384.859 98.448L388.123 128.592C388.123 128.544 388.123 128.544 388.123 128.544L388.171 129.168C388.411 131.232 388.987 133.44 391.867 133.056L393.739 132.768ZM380.443 134.64C382.171 134.544 382.795 131.76 382.795 129.6L381.643 118.848C381.163 117.36 380.107 116.112 378.619 116.208C375.835 116.352 375.115 120.96 375.355 125.568C375.355 125.76 375.355 125.952 375.355 126.144C375.835 132.096 378.139 134.784 380.443 134.64ZM428.641 111.12C432.577 111.504 436.369 114.24 436.369 120.144C436.369 128.112 430.561 132.144 420.529 132.24H409.873V131.184H411.889C413.233 131.184 415.153 130.224 415.153 127.728V100.224C415.153 97.68 413.617 96.144 410.593 96.096L409.297 96.192V95.136L422.353 94.416C427.153 93.84 433.297 96.192 433.297 103.152C433.297 106.896 431.041 109.44 428.641 111.12ZM420.529 95.904V114.768C420.769 114.192 421.153 113.664 421.585 113.232C422.593 112.176 428.161 109.2 428.161 104.016C428.161 99.456 424.801 95.376 420.529 95.904ZM420.529 130.176C434.881 129.888 431.617 113.664 425.281 113.664C423.409 113.664 422.209 114.72 422.209 116.208C422.209 117.744 423.169 118.368 423.985 118.368C424.609 118.368 425.137 117.936 424.945 117.264C424.609 116.112 422.977 116.208 422.977 116.208C423.409 115.44 424.273 115.056 425.137 115.056C426.193 115.056 427.201 115.68 427.201 116.976C427.201 118.752 425.713 119.952 423.745 119.952C422.161 119.952 421.057 119.232 420.529 118.176V130.176ZM451.623 104.976L451.671 103.92L461.991 104.064L461.943 105.072H460.311C459.303 105.072 457.911 105.456 457.431 107.232L451.911 127.392C449.511 136.992 446.055 143.664 439.671 143.664C436.263 143.664 433.479 140.64 433.479 137.616C433.479 133.968 435.783 132.432 437.895 132.432C439.767 132.432 441.495 133.584 441.495 135.456C441.495 137.04 440.391 137.952 439.239 137.952C438.663 137.952 438.087 137.712 437.607 137.232C437.607 137.232 439.239 136.944 439.239 135.696C439.239 135.12 438.759 134.784 438.183 134.784C437.223 134.784 435.975 135.6 435.975 137.424C435.975 139.488 437.607 140.88 439.575 140.88C442.983 140.88 445.287 138.096 446.871 134.64L441.015 104.688C440.391 102.528 439.095 101.328 436.599 101.424L435.111 101.472L435.015 99.552L450.135 99.792V100.848L449.127 100.896H449.175C447.015 100.992 446.199 102 446.583 104.16C446.631 104.256 446.631 104.4 446.631 104.448L450.279 122.976L454.695 107.184C454.887 105.84 454.311 105.024 452.631 104.976H451.623Z" fill="#F5F5F5"/>
</g>
<defs>
<filter id="filter0_d_394_8612" x="178.234" y="93.3115" width="287.756" height="58.3525" filterUnits="userSpaceOnUse" color-interpolation-filters="sRGB">
<feFlood flood-opacity="0" result="BackgroundImageFix"/>
<feColorMatrix in="SourceAlpha" type="matrix" values="0 0 0 0 0 0 0 0 0 0 0 0 0 0 0 0 0 0 127 0" result="hardAlpha"/>
<feOffset dy="4"/>
<feGaussianBlur stdDeviation="2"/>
<feComposite in2="hardAlpha" operator="out"/>
<feColorMatrix type="matrix" values="0 0 0 0 0 0 0 0 0 0 0 0 0 0 0 0 0 0 0.25 0"/>
<feBlend mode="normal" in2="BackgroundImageFix" result="effect1_dropShadow_394_8612"/>
<feBlend mode="normal" in="SourceGraphic" in2="effect1_dropShadow_394_8612" result="shape"/>
</filter>
<linearGradient id="paint0_linear_394_8612" x1="321.487" y1="213.238" x2="321.487" y2="50.5363" gradientUnits="userSpaceOnUse">
<stop stop-color="#84759B"/>
<stop offset="0.39" stop-color="#96A9D0"/>
<stop offset="1" stop-color="#D8DFED"/>
</linearGradient>
<linearGradient id="paint1_linear_394_8612" x1="136.316" y1="182.645" x2="540.833" y2="182.645" gradientUnits="userSpaceOnUse">
<stop stop-color="#8780E9"/>
<stop offset="1" stop-color="#705AB6"/>
</linearGradient>
<linearGradient id="paint2_linear_394_8612" x1="321.487" y1="58.7543" x2="321.487" y2="177.951" gradientUnits="userSpaceOnUse">
<stop stop-color="#84759B"/>
<stop offset="0.39" stop-color="#96A9D0"/>
<stop offset="1" stop-color="#D8DFED"/>
</linearGradient>
<linearGradient id="paint3_linear_394_8612" x1="133.349" y1="172.515" x2="566.293" y2="172.515" gradientUnits="userSpaceOnUse">
<stop stop-color="#E9BB38"/>
<stop offset="1" stop-color="#FFF09C"/>
</linearGradient>
<linearGradient id="paint4_linear_394_8612" x1="58.2306" y1="77.1958" x2="58.2306" y2="164.372" gradientUnits="userSpaceOnUse">
<stop stop-color="#96A9D0"/>
<stop offset="1" stop-color="#D8DFED"/>
</linearGradient>
<linearGradient id="paint5_linear_394_8612" x1="584.817" y1="0.000820951" x2="584.817" y2="164.372" gradientUnits="userSpaceOnUse">
<stop stop-color="#96A9D0"/>
<stop offset="1" stop-color="#D8DFED"/>
</linearGradient>
<linearGradient id="paint6_linear_394_8612" x1="321.468" y1="62.947" x2="321.468" y2="78.5493" gradientUnits="userSpaceOnUse">
<stop stop-color="#8780E9"/>
<stop offset="1" stop-color="#705AB6"/>
</linearGradient>
<radialGradient id="paint7_radial_394_8612" cx="0" cy="0" r="1" gradientUnits="userSpaceOnUse" gradientTransform="translate(163.774 150.464) scale(56.8531 14.5448)">
<stop stop-color="#2B3987"/>
<stop offset="1" stop-color="#263379" stop-opacity="0"/>
</radialGradient>
<radialGradient id="paint8_radial_394_8612" cx="0" cy="0" r="1" gradientUnits="userSpaceOnUse" gradientTransform="translate(497.015 32.4012) scale(56.8531 14.5448)">
<stop stop-color="#2B3987"/>
<stop offset="1" stop-color="#263379" stop-opacity="0"/>
</radialGradient>
<linearGradient id="paint9_linear_394_8612" x1="175.404" y1="55.1372" x2="515.392" y2="55.1372" gradientUnits="userSpaceOnUse">
<stop stop-color="#E9BB38"/>
<stop offset="1" stop-color="#FFF09C"/>
</linearGradient>
<linearGradient id="paint10_linear_394_8612" x1="293.005" y1="59.5516" x2="347.929" y2="59.5516" gradientUnits="userSpaceOnUse">
<stop stop-color="#8780E9"/>
<stop offset="1" stop-color="#705AB6"/>
</linearGradient>
<linearGradient id="paint11_linear_394_8612" x1="321.691" y1="49.423" x2="321.691" y2="74.4312" gradientUnits="userSpaceOnUse">
<stop stop-color="#786DAB"/>
<stop offset="0.53" stop-color="#6867A3"/>
<stop offset="1" stop-color="#54517A"/>
</linearGradient>
<linearGradient id="paint12_linear_394_8612" x1="321.487" y1="27.4574" x2="321.487" y2="62.7804" gradientUnits="userSpaceOnUse">
<stop stop-color="#8780E9"/>
<stop offset="0.74" stop-color="#DBD8DF"/>
<stop offset="1" stop-color="#B7C4E1"/>
</linearGradient>
<linearGradient id="paint13_linear_394_8612" x1="321.487" y1="26.7524" x2="321.487" y2="65.9714" gradientUnits="userSpaceOnUse">
<stop stop-color="#705AB6"/>
<stop offset="1" stop-color="white"/>
</linearGradient>
<linearGradient id="paint14_linear_394_8612" x1="321.487" y1="61.7044" x2="321.487" y2="37.0488" gradientUnits="userSpaceOnUse">
<stop stop-color="#786DAB"/>
<stop offset="0.53" stop-color="#6867A3"/>
<stop offset="1" stop-color="#54517A"/>
</linearGradient>
<linearGradient id="paint15_linear_394_8612" x1="106.424" y1="51.8711" x2="106.424" y2="185.761" gradientUnits="userSpaceOnUse">
<stop stop-color="#8780E9"/>
<stop offset="1" stop-color="#705AB6"/>
</linearGradient>
<linearGradient id="paint16_linear_394_8612" x1="102.994" y1="85.3575" x2="102.994" y2="19.2566" gradientUnits="userSpaceOnUse">
<stop stop-color="#84759B"/>
<stop offset="0.39" stop-color="#96A9D0"/>
<stop offset="1" stop-color="#D8DFED"/>
</linearGradient>
<linearGradient id="paint17_linear_394_8612" x1="44.6571" y1="48.458" x2="88.2149" y2="48.458" gradientUnits="userSpaceOnUse">
<stop stop-color="#705AB6"/>
<stop offset="1" stop-color="white"/>
</linearGradient>
<linearGradient id="paint18_linear_394_8612" x1="91.3301" y1="84.7273" x2="91.3301" y2="36.5106" gradientUnits="userSpaceOnUse">
<stop stop-color="#786DAB"/>
<stop offset="0.53" stop-color="#6867A3"/>
<stop offset="1" stop-color="#54517A"/>
</linearGradient>
<linearGradient id="paint19_linear_394_8612" x1="44.9723" y1="145.114" x2="44.9723" y2="18.0322" gradientUnits="userSpaceOnUse">
<stop stop-color="#8780E9"/>
<stop offset="0.74" stop-color="#DBD8DF"/>
<stop offset="1" stop-color="#B7C4E1"/>
</linearGradient>
<linearGradient id="paint20_linear_394_8612" x1="47.7723" y1="145.114" x2="47.7723" y2="48.9219" gradientUnits="userSpaceOnUse">
<stop stop-color="#705AB6"/>
<stop offset="1" stop-color="white"/>
</linearGradient>
<linearGradient id="paint21_linear_394_8612" x1="66.0563" y1="157.079" x2="30.2917" y2="149.136" gradientUnits="userSpaceOnUse">
<stop stop-color="#786DAB"/>
<stop offset="0.53" stop-color="#6867A3"/>
<stop offset="1" stop-color="#54517A"/>
</linearGradient>
<linearGradient id="paint22_linear_394_8612" x1="26.218" y1="99.2229" x2="15.2185" y2="138.959" gradientUnits="userSpaceOnUse">
<stop stop-color="#786DAB"/>
<stop offset="0.53" stop-color="#6867A3"/>
<stop offset="1" stop-color="#54517A"/>
</linearGradient>
<linearGradient id="paint23_linear_394_8612" x1="17.5855" y1="192.02" x2="46.5834" y2="100.541" gradientUnits="userSpaceOnUse">
<stop stop-color="#8780E9"/>
<stop offset="0.74" stop-color="#DBD8DF"/>
<stop offset="1" stop-color="#B7C4E1"/>
</linearGradient>
<linearGradient id="paint24_linear_394_8612" x1="32.1434" y1="113.926" x2="21.5342" y2="130.508" gradientUnits="userSpaceOnUse">
<stop stop-color="#786DAB"/>
<stop offset="0.53" stop-color="#6867A3"/>
<stop offset="1" stop-color="#54517A"/>
</linearGradient>
<linearGradient id="paint25_linear_394_8612" x1="42.8255" y1="137.318" x2="48.1172" y2="120.624" gradientUnits="userSpaceOnUse">
<stop stop-color="white"/>
<stop offset="0.44" stop-color="#621DEB"/>
<stop offset="1" stop-color="#681EB2"/>
</linearGradient>
<linearGradient id="paint26_linear_394_8612" x1="45.2565" y1="97.0251" x2="44.6592" y2="116.783" gradientUnits="userSpaceOnUse">
<stop stop-color="#38A5E9"/>
<stop offset="1"/>
</linearGradient>
<linearGradient id="paint27_linear_394_8612" x1="31.4128" y1="165.986" x2="27.1868" y2="180.546" gradientUnits="userSpaceOnUse">
<stop stop-color="#38A5E9"/>
<stop offset="1"/>
</linearGradient>
<linearGradient id="paint28_linear_394_8612" x1="43.0568" y1="110.36" x2="33.2092" y2="126.873" gradientUnits="userSpaceOnUse">
<stop stop-color="#38A5E9"/>
<stop offset="1"/>
</linearGradient>
<radialGradient id="paint29_radial_394_8612" cx="0" cy="0" r="1" gradientUnits="userSpaceOnUse" gradientTransform="translate(47.4734 78.803) rotate(17.588) scale(20.6208 23.3107)">
<stop stop-color="#2B3987"/>
<stop offset="1" stop-color="#263379" stop-opacity="0"/>
</radialGradient>
<linearGradient id="paint30_linear_394_8612" x1="86.787" y1="205" x2="86.787" y2="161.737" gradientUnits="userSpaceOnUse">
<stop stop-color="#8780E9"/>
<stop offset="0.74" stop-color="#DBD8DF"/>
<stop offset="1" stop-color="#B7C4E1"/>
</linearGradient>
<linearGradient id="paint31_linear_394_8612" x1="107.648" y1="168.638" x2="107.648" y2="193.294" gradientUnits="userSpaceOnUse">
<stop stop-color="#705AB6"/>
<stop offset="1" stop-color="white"/>
</linearGradient>
<linearGradient id="paint32_linear_394_8612" x1="49.33" y1="196.281" x2="118.667" y2="176.781" gradientUnits="userSpaceOnUse">
<stop stop-color="#786DAB"/>
<stop offset="0.53" stop-color="#6867A3"/>
<stop offset="1" stop-color="#54517A"/>
</linearGradient>
<linearGradient id="paint33_linear_394_8612" x1="63.9975" y1="184.778" x2="65.6123" y2="201.493" gradientUnits="userSpaceOnUse">
<stop stop-color="#705AB6"/>
<stop offset="1" stop-color="#181D3B"/>
</linearGradient>
<linearGradient id="paint34_linear_394_8612" x1="88.0109" y1="156.969" x2="91.0362" y2="173.535" gradientUnits="userSpaceOnUse">
<stop stop-color="#38A5E9"/>
<stop offset="1"/>
</linearGradient>
<linearGradient id="paint35_linear_394_8612" x1="108.872" y1="164.538" x2="116.018" y2="203.626" gradientUnits="userSpaceOnUse">
<stop stop-color="#705AB6"/>
<stop offset="1" stop-color="white"/>
</linearGradient>
<linearGradient id="paint36_linear_394_8612" x1="20.1802" y1="164.111" x2="37.1605" y2="199.855" gradientUnits="userSpaceOnUse">
<stop stop-color="#705AB6"/>
<stop offset="1" stop-color="white"/>
</linearGradient>
<radialGradient id="paint37_radial_394_8612" cx="0" cy="0" r="1" gradientUnits="userSpaceOnUse" gradientTransform="translate(94.2413 163.22) scale(15.8914 15.8991)">
<stop stop-color="#2B3987"/>
<stop offset="1" stop-color="#161C43" stop-opacity="0"/>
</radialGradient>
<linearGradient id="paint38_linear_394_8612" x1="70.9697" y1="188.136" x2="70.8212" y2="196.095" gradientUnits="userSpaceOnUse">
<stop stop-color="#38A5E9"/>
<stop offset="1"/>
</linearGradient>
<linearGradient id="paint39_linear_394_8612" x1="54.0214" y1="15.9173" x2="53.0005" y2="75.729" gradientUnits="userSpaceOnUse">
<stop stop-color="#786DAB"/>
<stop offset="0.53" stop-color="#6867A3"/>
<stop offset="1" stop-color="#54517A"/>
</linearGradient>
<linearGradient id="paint40_linear_394_8612" x1="57.5631" y1="29.0342" x2="57.5631" y2="22.04" gradientUnits="userSpaceOnUse">
<stop stop-color="#4C4183"/>
<stop offset="1" stop-color="#181D3B"/>
</linearGradient>
<linearGradient id="paint41_linear_394_8612" x1="57.3406" y1="88.1216" x2="76.3441" y2="131.749" gradientUnits="userSpaceOnUse">
<stop stop-color="#705AB6"/>
<stop offset="1" stop-color="white"/>
</linearGradient>
<linearGradient id="paint42_linear_394_8612" x1="97.3936" y1="21.9845" x2="90.6567" y2="41.1096" gradientUnits="userSpaceOnUse">
<stop stop-color="#38A5E9"/>
<stop offset="1"/>
</linearGradient>
<linearGradient id="paint43_linear_394_8612" x1="184.453" y1="54.7845" x2="113.136" y2="63.7737" gradientUnits="userSpaceOnUse">
<stop stop-color="#786DAB"/>
<stop offset="0.53" stop-color="#6867A3"/>
<stop offset="1" stop-color="#54517A"/>
</linearGradient>
<linearGradient id="paint44_linear_394_8612" x1="122.056" y1="92.8534" x2="105.484" y2="59.3177" gradientUnits="userSpaceOnUse">
<stop stop-color="#96A9D0"/>
<stop offset="1" stop-color="#D8DFED"/>
</linearGradient>
<linearGradient id="paint45_linear_394_8612" x1="40.2995" y1="67.8629" x2="46.7768" y2="46.8452" gradientUnits="userSpaceOnUse">
<stop stop-color="#96A9D0"/>
<stop offset="1" stop-color="#D8DFED"/>
</linearGradient>
<linearGradient id="paint46_linear_394_8612" x1="40.4478" y1="43.8761" x2="70.8803" y2="54.627" gradientUnits="userSpaceOnUse">
<stop stop-color="#705AB6"/>
<stop offset="1" stop-color="white"/>
</linearGradient>
<linearGradient id="paint47_linear_394_8612" x1="50.7207" y1="129.512" x2="61.0689" y2="133.182" gradientUnits="userSpaceOnUse">
<stop stop-color="#38A5E9"/>
<stop offset="1"/>
</linearGradient>
<linearGradient id="paint48_linear_394_8612" x1="68.8559" y1="109.791" x2="68.8559" y2="99.476" gradientUnits="userSpaceOnUse">
<stop stop-color="#705AB6"/>
<stop offset="1" stop-color="#181D3B"/>
</linearGradient>
<radialGradient id="paint49_radial_394_8612" cx="0" cy="0" r="1" gradientUnits="userSpaceOnUse" gradientTransform="translate(89.8466 32.8928) scale(32.8769 32.8928)">
<stop stop-color="#2B3987"/>
<stop offset="1" stop-color="#0B0E21" stop-opacity="0"/>
</radialGradient>
<linearGradient id="paint50_linear_394_8612" x1="536.587" y1="51.8711" x2="536.587" y2="185.761" gradientUnits="userSpaceOnUse">
<stop stop-color="#8780E9"/>
<stop offset="1" stop-color="#705AB6"/>
</linearGradient>
<linearGradient id="paint51_linear_394_8612" x1="540.017" y1="85.3575" x2="540.017" y2="19.2566" gradientUnits="userSpaceOnUse">
<stop stop-color="#84759B"/>
<stop offset="0.39" stop-color="#96A9D0"/>
<stop offset="1" stop-color="#D8DFED"/>
</linearGradient>
<linearGradient id="paint52_linear_394_8612" x1="598.354" y1="48.458" x2="554.796" y2="48.458" gradientUnits="userSpaceOnUse">
<stop stop-color="#705AB6"/>
<stop offset="1" stop-color="white"/>
</linearGradient>
<linearGradient id="paint53_linear_394_8612" x1="551.681" y1="84.7273" x2="551.681" y2="36.5106" gradientUnits="userSpaceOnUse">
<stop stop-color="#786DAB"/>
<stop offset="0.53" stop-color="#6867A3"/>
<stop offset="1" stop-color="#54517A"/>
</linearGradient>
<linearGradient id="paint54_linear_394_8612" x1="598.038" y1="145.114" x2="598.038" y2="18.0322" gradientUnits="userSpaceOnUse">
<stop stop-color="#8780E9"/>
<stop offset="0.74" stop-color="#DBD8DF"/>
<stop offset="1" stop-color="#B7C4E1"/>
</linearGradient>
<linearGradient id="paint55_linear_394_8612" x1="595.238" y1="145.114" x2="595.238" y2="48.9219" gradientUnits="userSpaceOnUse">
<stop stop-color="#705AB6"/>
<stop offset="1" stop-color="white"/>
</linearGradient>
<linearGradient id="paint56_linear_394_8612" x1="577.166" y1="156.506" x2="612.949" y2="148.558" gradientUnits="userSpaceOnUse">
<stop stop-color="#786DAB"/>
<stop offset="0.53" stop-color="#6867A3"/>
<stop offset="1" stop-color="#54517A"/>
</linearGradient>
<linearGradient id="paint57_linear_394_8612" x1="617.005" y1="98.6504" x2="628.027" y2="138.399" gradientUnits="userSpaceOnUse">
<stop stop-color="#786DAB"/>
<stop offset="0.53" stop-color="#6867A3"/>
<stop offset="1" stop-color="#54517A"/>
</linearGradient>
<linearGradient id="paint58_linear_394_8612" x1="625.637" y1="191.448" x2="596.639" y2="99.9685" gradientUnits="userSpaceOnUse">
<stop stop-color="#8780E9"/>
<stop offset="0.74" stop-color="#DBD8DF"/>
<stop offset="1" stop-color="#B7C4E1"/>
</linearGradient>
<linearGradient id="paint59_linear_394_8612" x1="611.079" y1="113.354" x2="621.688" y2="129.936" gradientUnits="userSpaceOnUse">
<stop stop-color="#786DAB"/>
<stop offset="0.53" stop-color="#6867A3"/>
<stop offset="1" stop-color="#54517A"/>
</linearGradient>
<linearGradient id="paint60_linear_394_8612" x1="600.42" y1="136.757" x2="595.123" y2="120.046" gradientUnits="userSpaceOnUse">
<stop stop-color="white"/>
<stop offset="0.44" stop-color="#621DEB"/>
<stop offset="1" stop-color="#681EB2"/>
</linearGradient>
<linearGradient id="paint61_linear_394_8612" x1="597.966" y1="96.4527" x2="598.581" y2="116.205" gradientUnits="userSpaceOnUse">
<stop stop-color="#38A5E9"/>
<stop offset="1"/>
</linearGradient>
<linearGradient id="paint62_linear_394_8612" x1="611.827" y1="165.408" x2="616.036" y2="179.974" gradientUnits="userSpaceOnUse">
<stop stop-color="#38A5E9"/>
<stop offset="1"/>
</linearGradient>
<linearGradient id="paint63_linear_394_8612" x1="600.183" y1="109.782" x2="610.037" y2="126.312" gradientUnits="userSpaceOnUse">
<stop stop-color="#38A5E9"/>
<stop offset="1"/>
</linearGradient>
<radialGradient id="paint64_radial_394_8612" cx="0" cy="0" r="1" gradientUnits="userSpaceOnUse" gradientTransform="translate(599.114 87.3747) rotate(162.402) scale(20.6208 23.3107)">
<stop stop-color="#2B3987"/>
<stop offset="1" stop-color="#263379" stop-opacity="0"/>
</radialGradient>
<linearGradient id="paint65_linear_394_8612" x1="556.242" y1="205" x2="556.242" y2="161.737" gradientUnits="userSpaceOnUse">
<stop stop-color="#8780E9"/>
<stop offset="0.74" stop-color="#DBD8DF"/>
<stop offset="1" stop-color="#B7C4E1"/>
</linearGradient>
<linearGradient id="paint66_linear_394_8612" x1="535.363" y1="168.638" x2="535.363" y2="193.294" gradientUnits="userSpaceOnUse">
<stop stop-color="#705AB6"/>
<stop offset="1" stop-color="white"/>
</linearGradient>
<linearGradient id="paint67_linear_394_8612" x1="593.681" y1="196.281" x2="524.343" y2="176.781" gradientUnits="userSpaceOnUse">
<stop stop-color="#786DAB"/>
<stop offset="0.53" stop-color="#6867A3"/>
<stop offset="1" stop-color="#54517A"/>
</linearGradient>
<linearGradient id="paint68_linear_394_8612" x1="579.032" y1="184.778" x2="577.398" y2="201.493" gradientUnits="userSpaceOnUse">
<stop stop-color="#705AB6"/>
<stop offset="1" stop-color="#181D3B"/>
</linearGradient>
<linearGradient id="paint69_linear_394_8612" x1="555" y1="156.969" x2="551.975" y2="173.535" gradientUnits="userSpaceOnUse">
<stop stop-color="#38A5E9"/>
<stop offset="1"/>
</linearGradient>
<linearGradient id="paint70_linear_394_8612" x1="534.139" y1="164.538" x2="526.993" y2="203.626" gradientUnits="userSpaceOnUse">
<stop stop-color="#705AB6"/>
<stop offset="1" stop-color="white"/>
</linearGradient>
<linearGradient id="paint71_linear_394_8612" x1="622.83" y1="164.111" x2="605.85" y2="199.855" gradientUnits="userSpaceOnUse">
<stop stop-color="#705AB6"/>
<stop offset="1" stop-color="white"/>
</linearGradient>
<radialGradient id="paint72_radial_394_8612" cx="0" cy="0" r="1" gradientUnits="userSpaceOnUse" gradientTransform="translate(548.769 163.22) rotate(180) scale(15.8914 15.8991)">
<stop stop-color="#2B3987"/>
<stop offset="1" stop-color="#263379" stop-opacity="0"/>
</radialGradient>
<linearGradient id="paint73_linear_394_8612" x1="572.041" y1="188.136" x2="572.19" y2="196.095" gradientUnits="userSpaceOnUse">
<stop stop-color="#38A5E9"/>
<stop offset="1"/>
</linearGradient>
<linearGradient id="paint74_linear_394_8612" x1="588.989" y1="15.9173" x2="590.01" y2="75.729" gradientUnits="userSpaceOnUse">
<stop stop-color="#786DAB"/>
<stop offset="0.53" stop-color="#6867A3"/>
<stop offset="1" stop-color="#54517A"/>
</linearGradient>
<linearGradient id="paint75_linear_394_8612" x1="585.448" y1="29.0342" x2="585.448" y2="22.04" gradientUnits="userSpaceOnUse">
<stop stop-color="#4C4183"/>
<stop offset="1" stop-color="#181D3B"/>
</linearGradient>
<linearGradient id="paint76_linear_394_8612" x1="585.67" y1="88.1216" x2="566.667" y2="131.749" gradientUnits="userSpaceOnUse">
<stop stop-color="#705AB6"/>
<stop offset="1" stop-color="white"/>
</linearGradient>
<linearGradient id="paint77_linear_394_8612" x1="545.617" y1="21.9845" x2="552.354" y2="41.1096" gradientUnits="userSpaceOnUse">
<stop stop-color="#38A5E9"/>
<stop offset="1"/>
</linearGradient>
<linearGradient id="paint78_linear_394_8612" x1="458.557" y1="54.7845" x2="529.894" y2="63.7737" gradientUnits="userSpaceOnUse">
<stop stop-color="#786DAB"/>
<stop offset="0.53" stop-color="#6867A3"/>
<stop offset="1" stop-color="#54517A"/>
</linearGradient>
<linearGradient id="paint79_linear_394_8612" x1="520.955" y1="92.8534" x2="537.527" y2="59.3176" gradientUnits="userSpaceOnUse">
<stop stop-color="#96A9D0"/>
<stop offset="1" stop-color="#D8DFED"/>
</linearGradient>
<linearGradient id="paint80_linear_394_8612" x1="602.711" y1="67.863" x2="596.253" y2="46.8452" gradientUnits="userSpaceOnUse">
<stop stop-color="#96A9D0"/>
<stop offset="1" stop-color="#D8DFED"/>
</linearGradient>
<linearGradient id="paint81_linear_394_8612" x1="602.563" y1="43.8761" x2="572.149" y2="54.627" gradientUnits="userSpaceOnUse">
<stop stop-color="#705AB6"/>
<stop offset="1" stop-color="white"/>
</linearGradient>
<linearGradient id="paint82_linear_394_8612" x1="592.29" y1="129.512" x2="581.942" y2="133.182" gradientUnits="userSpaceOnUse">
<stop stop-color="#38A5E9"/>
<stop offset="1"/>
</linearGradient>
<linearGradient id="paint83_linear_394_8612" x1="574.155" y1="109.791" x2="574.155" y2="99.476" gradientUnits="userSpaceOnUse">
<stop stop-color="#705AB6"/>
<stop offset="1" stop-color="#181D3B"/>
</linearGradient>
<radialGradient id="paint84_radial_394_8612" cx="0" cy="0" r="1" gradientUnits="userSpaceOnUse" gradientTransform="translate(553.164 32.8928) rotate(180) scale(32.8769 32.8928)">
<stop stop-color="#2B3987"/>
<stop offset="1" stop-color="#0B0E21" stop-opacity="0"/>
</radialGradient>
<linearGradient id="paint85_linear_394_8612" x1="195.097" y1="177.951" x2="321.487" y2="177.951" gradientUnits="userSpaceOnUse">
<stop stop-color="#8780E9"/>
<stop offset="1" stop-color="#705AB6"/>
</linearGradient>
<linearGradient id="paint86_linear_394_8612" x1="258.904" y1="205" x2="258.904" y2="153.239" gradientUnits="userSpaceOnUse">
<stop stop-color="#8780E9"/>
<stop offset="0.74" stop-color="#DBD8DF"/>
<stop offset="1" stop-color="#B7C4E1"/>
</linearGradient>
<linearGradient id="paint87_linear_394_8612" x1="295.044" y1="179.212" x2="316.851" y2="179.212" gradientUnits="userSpaceOnUse">
<stop stop-color="#705AB6"/>
<stop offset="1" stop-color="white"/>
</linearGradient>
<linearGradient id="paint88_linear_394_8612" x1="277.781" y1="204.999" x2="277.781" y2="171.142" gradientUnits="userSpaceOnUse">
<stop stop-color="#786DAB"/>
<stop offset="0.53" stop-color="#6867A3"/>
<stop offset="1" stop-color="#54517A"/>
</linearGradient>
<linearGradient id="paint89_linear_394_8612" x1="216.885" y1="188.915" x2="216.885" y2="172.44" gradientUnits="userSpaceOnUse">
<stop stop-color="#786DAB"/>
<stop offset="0.53" stop-color="#6867A3"/>
<stop offset="1" stop-color="#54517A"/>
</linearGradient>
<linearGradient id="paint90_linear_394_8612" x1="273.034" y1="177.951" x2="303.927" y2="177.951" gradientUnits="userSpaceOnUse">
<stop stop-color="#705AB6"/>
<stop offset="1" stop-color="white"/>
</linearGradient>
<linearGradient id="paint91_linear_394_8612" x1="276.353" y1="157.061" x2="282.422" y2="174.646" gradientUnits="userSpaceOnUse">
<stop stop-color="#38A5E9"/>
<stop offset="1"/>
</linearGradient>
<linearGradient id="paint92_linear_394_8612" x1="200.957" y1="186.28" x2="266.321" y2="186.28" gradientUnits="userSpaceOnUse">
<stop stop-color="#705AB6"/>
<stop offset="1" stop-color="white"/>
</linearGradient>
<linearGradient id="paint93_linear_394_8612" x1="447.895" y1="177.951" x2="321.487" y2="177.951" gradientUnits="userSpaceOnUse">
<stop stop-color="#8780E9"/>
<stop offset="1" stop-color="#705AB6"/>
</linearGradient>
<linearGradient id="paint94_linear_394_8612" x1="384.088" y1="205" x2="384.088" y2="153.239" gradientUnits="userSpaceOnUse">
<stop stop-color="#8780E9"/>
<stop offset="0.74" stop-color="#DBD8DF"/>
<stop offset="1" stop-color="#B7C4E1"/>
</linearGradient>
<linearGradient id="paint95_linear_394_8612" x1="347.929" y1="179.212" x2="326.123" y2="179.212" gradientUnits="userSpaceOnUse">
<stop stop-color="#705AB6"/>
<stop offset="1" stop-color="white"/>
</linearGradient>
<linearGradient id="paint96_linear_394_8612" x1="365.211" y1="204.999" x2="365.211" y2="171.142" gradientUnits="userSpaceOnUse">
<stop stop-color="#786DAB"/>
<stop offset="0.53" stop-color="#6867A3"/>
<stop offset="1" stop-color="#54517A"/>
</linearGradient>
<linearGradient id="paint97_linear_394_8612" x1="426.088" y1="188.915" x2="426.088" y2="172.44" gradientUnits="userSpaceOnUse">
<stop stop-color="#786DAB"/>
<stop offset="0.53" stop-color="#6867A3"/>
<stop offset="1" stop-color="#54517A"/>
</linearGradient>
<linearGradient id="paint98_linear_394_8612" x1="369.94" y1="177.951" x2="339.047" y2="177.951" gradientUnits="userSpaceOnUse">
<stop stop-color="#705AB6"/>
<stop offset="1" stop-color="white"/>
</linearGradient>
<linearGradient id="paint99_linear_394_8612" x1="366.639" y1="157.061" x2="360.57" y2="174.646" gradientUnits="userSpaceOnUse">
<stop stop-color="#38A5E9"/>
<stop offset="1"/>
</linearGradient>
<linearGradient id="paint100_linear_394_8612" x1="442.035" y1="186.28" x2="376.653" y2="186.28" gradientUnits="userSpaceOnUse">
<stop stop-color="#705AB6"/>
<stop offset="1" stop-color="white"/>
</linearGradient>
</defs>
</svg>
